<svg viewBox="0 0 39 39" fill="none" xmlns="http://www.w3.org/2000/svg">
<rect width="39" height="39" rx="6" fill="#FDF7E9"/>
<rect x="7.5" y="7.5" width="24" height="24" rx="4" fill="#FDE8B7"/>
<path fill-rule="evenodd" clip-rule="evenodd" d="M22.8738 12.7969H16.1337C13.7961 12.7969 12.3359 14.0991 12.3359 16.4928V23.6965C12.3359 26.1278 13.7961 27.4602 16.1337 27.4602H22.8664C25.2115 27.4602 26.6642 26.1504 26.6642 23.7567V16.4928C26.6716 14.0991 25.2189 12.7969 22.8738 12.7969Z" fill="white" stroke="#B89334" stroke-width="1.5" stroke-linecap="round" stroke-linejoin="round"/>
<path d="M12.4097 17.4338H26.5978" stroke="#B89334" stroke-width="1.5" stroke-linecap="round" stroke-linejoin="round"/>
<path d="M23.0364 20.5049H23.0438" stroke="#B89334" stroke-width="1.5" stroke-linecap="round" stroke-linejoin="round"/>
<path d="M19.5037 20.5049H19.5111" stroke="#B89334" stroke-width="1.5" stroke-linecap="round" stroke-linejoin="round"/>
<path d="M15.9641 20.5049H15.9715" stroke="#B89334" stroke-width="1.5" stroke-linecap="round" stroke-linejoin="round"/>
<path d="M23.0364 23.5986H23.0438" stroke="#B89334" stroke-width="1.5" stroke-linecap="round" stroke-linejoin="round"/>
<path d="M19.5037 23.5986H19.5111" stroke="#B89334" stroke-width="1.5" stroke-linecap="round" stroke-linejoin="round"/>
<path d="M15.9641 23.5986H15.9715" stroke="#B89334" stroke-width="1.5" stroke-linecap="round" stroke-linejoin="round"/>
<path d="M22.7188 11.5398V14.1594" stroke="#B89334" stroke-width="1.5" stroke-linecap="round" stroke-linejoin="round"/>
<path d="M16.2881 11.5398V14.1594" stroke="#B89334" stroke-width="1.5" stroke-linecap="round" stroke-linejoin="round"/>
</svg>
