<svg viewBox="0 0 11 10" fill="none" xmlns="http://www.w3.org/2000/svg">
<path d="M8.60988 4.41834V2.45972C8.60988 1.15464 7.73058 0.300049 6.30981 0.300049C6.30981 0.300049 2.58682 0.301924 2.5807 0.301924C1.17218 0.309893 0.300018 1.1612 0.300018 2.45972V6.77063C0.300018 8.07571 1.17881 8.9303 2.59958 8.9303C2.59958 8.9303 6.32206 8.92889 6.32869 8.92889C6.5328 8.92774 6.72566 8.90886 6.90624 8.87348" stroke="currentColor" stroke-width="0.6" stroke-linecap="round" stroke-linejoin="round"/>
<path d="M7.28743 3.08374H3.92566" stroke="currentColor" stroke-width="0.5" stroke-linecap="round" stroke-linejoin="round"/>
<path d="M1.42755 3.15111L1.92651 3.65008L2.80542 2.60535" stroke="currentColor" stroke-width="0.5" stroke-linecap="round" stroke-linejoin="round"/>
<path d="M5.76617 5.8396H3.92566" stroke="currentColor" stroke-width="0.5" stroke-linecap="round" stroke-linejoin="round"/>
<path d="M1.42755 5.81908L1.92651 6.31805L2.80542 5.27332" stroke="currentColor" stroke-width="0.5" stroke-linecap="round" stroke-linejoin="round"/>
<path d="M5.8896 5.4101C5.91905 5.23787 6.04392 5.10057 6.20969 5.04532L7.99417 4.45061C8.10281 4.41441 8.22059 4.41659 8.32781 4.4568L9.8804 5.03898C10.039 5.09843 10.1567 5.23384 10.1845 5.40087C10.2656 5.88717 10.3925 6.9299 10.1346 7.60054C9.83653 8.37578 8.84619 9.11563 8.39259 9.42334C8.25054 9.51969 8.06963 9.52683 7.92048 9.44189C7.41711 9.15524 6.27518 8.43178 5.94269 7.60054C5.67733 6.93731 5.80563 5.90108 5.8896 5.4101Z" stroke="currentColor" stroke-width="0.6"/>
<path d="M7.42181 7.00474L7.86664 7.44957L8.65019 6.51819" stroke="currentColor" stroke-width="0.5" stroke-linecap="round" stroke-linejoin="round"/>
</svg>
