<svg viewBox="0 0 14 12" fill="none" xmlns="http://www.w3.org/2000/svg">
<path fill-rule="evenodd" clip-rule="evenodd" d="M6.53932 0.0335481C6.59166 0.0120773 6.64936 0 6.70975 0C6.77013 0 6.82784 0.0120773 6.88017 0.0335481L6.88151 0.0344426C6.9343 0.0559134 6.9835 0.0881195 7.02599 0.131061L8.81522 1.92029C8.98967 2.09474 8.98967 2.37833 8.81522 2.55278C8.64077 2.72723 8.35718 2.72723 8.18273 2.55278L7.15705 1.52711V6.70961C7.15705 6.78744 7.13737 6.86035 7.10248 6.92387C7.06759 6.98783 7.01705 7.04375 6.95174 7.08579L1.55945 10.5524L2.34537 10.7488C2.58468 10.8087 2.7305 11.0516 2.67056 11.2914C2.61062 11.5307 2.36774 11.6765 2.12798 11.6166L0.338751 11.1693L0.32399 11.1652L0.310571 11.1612L0.297152 11.1567L0.28418 11.1518L0.273892 11.1478L0.266287 11.1447C0.238107 11.1317 0.211269 11.1165 0.186667 11.099C0.141936 11.0668 0.102573 11.0261 0.0712615 10.9774C0.0372662 10.9241 0.0157954 10.8664 0.00595464 10.8078C-0.00388612 10.7497 -0.0016496 10.688 0.0135588 10.6267L0.460866 8.83745C0.520805 8.59814 0.763693 8.45232 1.00345 8.51226C1.24276 8.5722 1.38858 8.81508 1.32864 9.05484L1.15509 9.74861L6.26244 6.46538V1.52711L5.23676 2.55278C5.06231 2.72723 4.77872 2.72723 4.60427 2.55278C4.42982 2.37833 4.42982 2.09474 4.60427 1.92029L6.3935 0.131061L6.40468 0.120326L6.41542 0.110485L6.42839 0.0997495L6.44092 0.0899087L6.4521 0.0814099L6.46149 0.0751476L6.46373 0.0738057C6.48743 0.0581499 6.51204 0.0447307 6.53798 0.0344426L6.53932 0.0335481Z" fill="currentColor"/>
<path fill-rule="evenodd" clip-rule="evenodd" d="M11.8601 10.5525L7.80972 7.94877C7.60217 7.81502 7.54178 7.53814 7.67553 7.33059C7.80883 7.12304 8.08571 7.06265 8.29371 7.19595L12.2645 9.74873L12.0909 9.05496C12.031 8.8152 12.1768 8.57231 12.4161 8.51237C12.6558 8.45244 12.8987 8.59826 12.9587 8.83757L13.406 10.6268L13.4087 10.6384L13.4109 10.6496L13.4131 10.6608L13.4149 10.672L13.4163 10.6832L13.4176 10.6961L13.4185 10.7073L13.419 10.718L13.4194 10.7288V10.7395V10.7444C13.419 10.7655 13.4172 10.786 13.414 10.8062L13.4131 10.8102C13.4033 10.8683 13.3823 10.9251 13.3483 10.9775C13.3179 11.0249 13.2798 11.0647 13.2364 11.0965L13.2288 11.1018C13.1855 11.1323 13.1354 11.1555 13.0808 11.1694L11.2916 11.6167C11.0518 11.6766 10.8089 11.5308 10.749 11.2915C10.689 11.0517 10.8349 10.8088 11.0742 10.7489L11.8601 10.5525Z" fill="currentColor"/>
</svg>
