<svg viewBox="0 0 39 39" fill="none" xmlns="http://www.w3.org/2000/svg">
<rect width="39" height="39" rx="6" fill="#E9EAEB"/>
<rect x="7.22852" y="5.01376" width="24.543" height="28.9725" rx="4" fill="#D5D7DA"/>
<path fill-rule="evenodd" clip-rule="evenodd" d="M22.9266 11.2554C22.9266 11.2554 16.0506 11.259 16.0398 11.259C13.5678 11.2742 12.0371 12.9007 12.0371 15.3817V23.6183C12.0371 26.1118 13.5794 27.7446 16.073 27.7446C16.073 27.7446 22.9481 27.7419 22.9598 27.7419C25.4318 27.7267 26.9634 26.0993 26.9634 23.6183V15.3817C26.9634 12.8882 25.4201 11.2554 22.9266 11.2554Z" fill="white" stroke="#414651" stroke-width="1.5" stroke-linecap="round" stroke-linejoin="round"/>
<path fill-rule="evenodd" clip-rule="evenodd" d="M22.7338 23.0604H16.2671Z" fill="white"/>
<path d="M22.7338 23.0604H16.2671" stroke="#414651" stroke-width="1.5" stroke-linecap="round" stroke-linejoin="round"/>
<path fill-rule="evenodd" clip-rule="evenodd" d="M22.7338 19.5003H16.2671Z" fill="white"/>
<path d="M22.7338 19.5003H16.2671" stroke="#414651" stroke-width="1.5" stroke-linecap="round" stroke-linejoin="round"/>
<path fill-rule="evenodd" clip-rule="evenodd" d="M22.7338 15.9401H16.2671Z" fill="white"/>
<path d="M22.7338 15.9401H16.2671" stroke="#414651" stroke-width="1.5" stroke-linecap="round" stroke-linejoin="round"/>
</svg>
