<svg viewBox="0 0 20 20" fill="none" xmlns="http://www.w3.org/2000/svg">
<path d="M10.7998 17.2001H9.99978H4C2.89543 17.2001 2 16.3046 2 15.2001V9.20005V6.75547C2 5.30229 2 4.5757 2.30425 4.0305C2.52112 3.64187 2.84179 3.32118 3.23041 3.1043C3.7756 2.80005 4.50217 2.80005 5.95531 2.80005C6.88628 2.80005 7.35177 2.80005 7.75925 2.95286C8.68957 3.30174 9.07324 4.14691 9.49307 4.98655L9.99978 6.00005M6.79987 6.00005H13.7997C15.485 6.00005 16.3276 6.00005 16.9329 6.40452C17.195 6.57963 17.42 6.80463 17.5951 7.06668C17.9832 7.64759 17.9989 8.44709 17.9996 10" stroke="currentColor" stroke-width="1.3" stroke-linecap="round" stroke-linejoin="round"/>
<path d="M14.8015 10.8V17.2M18.0014 14H11.6016" stroke="currentColor" stroke-width="1.3" stroke-linecap="round" stroke-linejoin="round"/>
</svg>
