<svg width="16" height="14" viewBox="0 0 16 14" fill="none" xmlns="http://www.w3.org/2000/svg">
<path d="M8.2498 13.1498H7.5498H2.5498C1.44524 13.1498 0.549805 12.2544 0.549805 11.1498V6.1498V4.01079C0.549805 2.73926 0.549805 2.1035 0.816029 1.62645C1.0058 1.28639 1.28639 1.0058 1.62645 0.816029C2.1035 0.549805 2.73926 0.549805 4.01079 0.549805C4.82542 0.549805 5.23273 0.549805 5.58929 0.683512C6.40334 0.988789 6.73906 1.72831 7.10642 2.463L7.5498 3.3498M4.7498 3.3498H10.8748C12.3495 3.3498 13.0868 3.3498 13.6165 3.70372C13.8458 3.85693 14.0427 4.05381 14.1959 4.28311C14.5355 4.7914 14.5492 5.49096 14.5498 6.8498" stroke="currentColor" stroke-width="1.1" stroke-linecap="round" stroke-linejoin="round"/>
<path d="M11.7497 7.5498V13.1498M14.5497 10.3498H8.94971" stroke="currentColor" stroke-width="1.1" stroke-linecap="round" stroke-linejoin="round"/>
</svg>
