<svg viewBox="0 0 14 14" fill="none" xmlns="http://www.w3.org/2000/svg">
<g clip-path="url(#clip0_10829_4486)">
<path d="M7.0002 4.6C9.65116 4.6 11.8002 3.79411 11.8002 2.8C11.8002 1.80589 9.65116 1 7.0002 1C4.34923 1 2.2002 1.80589 2.2002 2.8C2.2002 3.79411 4.34923 4.6 7.0002 4.6Z" stroke="currentColor" stroke-linecap="round" stroke-linejoin="round"/>
<path d="M4 6.30469C4.36095 6.41323 4.7646 6.50257 5.2 6.56869" stroke="currentColor" stroke-linecap="round" stroke-linejoin="round"/>
<path d="M11.8002 7C11.8002 7.99414 9.65118 8.8 7.0002 8.8C4.34923 8.8 2.2002 7.99414 2.2002 7" stroke="currentColor" stroke-linecap="round" stroke-linejoin="round"/>
<path d="M4 10.5049C4.36095 10.6134 4.7646 10.7028 5.2 10.7689" stroke="currentColor" stroke-linecap="round" stroke-linejoin="round"/>
<path d="M11.8002 2.7998V11.1998C11.8002 12.1939 9.65118 12.9998 7.0002 12.9998C4.34923 12.9998 2.2002 12.1939 2.2002 11.1998V2.7998" stroke="currentColor" stroke-linecap="round" stroke-linejoin="round"/>
</g>
<defs>
<clipPath id="clip0_10829_4486">
<rect width="14" height="14" fill="white"/>
</clipPath>
</defs>
</svg>
