<svg viewBox="0 0 18 18" fill="none" xmlns="http://www.w3.org/2000/svg">
<path d="M9 9.8125C9.44873 9.8125 9.8125 9.44873 9.8125 9C9.8125 8.55127 9.44873 8.1875 9 8.1875C8.55127 8.1875 8.1875 8.55127 8.1875 9C8.1875 9.44873 8.55127 9.8125 9 9.8125Z" fill="currentColor"/>
<path d="M9 4.125C9.44873 4.125 9.8125 3.76123 9.8125 3.3125C9.8125 2.86377 9.44873 2.5 9 2.5C8.55127 2.5 8.1875 2.86377 8.1875 3.3125C8.1875 3.76123 8.55127 4.125 9 4.125Z" fill="currentColor"/>
<path d="M9 15.5C9.44873 15.5 9.8125 15.1362 9.8125 14.6875C9.8125 14.2388 9.44873 13.875 9 13.875C8.55127 13.875 8.1875 14.2388 8.1875 14.6875C8.1875 15.1362 8.55127 15.5 9 15.5Z" fill="currentColor"/>
<path d="M9 9.8125C9.44873 9.8125 9.8125 9.44873 9.8125 9C9.8125 8.55127 9.44873 8.1875 9 8.1875C8.55127 8.1875 8.1875 8.55127 8.1875 9C8.1875 9.44873 8.55127 9.8125 9 9.8125Z" stroke="currentColor" stroke-width="1.3" stroke-linecap="round" stroke-linejoin="round"/>
<path d="M9 4.125C9.44873 4.125 9.8125 3.76123 9.8125 3.3125C9.8125 2.86377 9.44873 2.5 9 2.5C8.55127 2.5 8.1875 2.86377 8.1875 3.3125C8.1875 3.76123 8.55127 4.125 9 4.125Z" stroke="currentColor" stroke-width="1.3" stroke-linecap="round" stroke-linejoin="round"/>
<path d="M9 15.5C9.44873 15.5 9.8125 15.1362 9.8125 14.6875C9.8125 14.2388 9.44873 13.875 9 13.875C8.55127 13.875 8.1875 14.2388 8.1875 14.6875C8.1875 15.1362 8.55127 15.5 9 15.5Z" stroke="currentColor" stroke-width="1.3" stroke-linecap="round" stroke-linejoin="round"/>
</svg>
