<svg viewBox="0 0 18 18" fill="none" xmlns="http://www.w3.org/2000/svg">
<path d="M10.3473 3.72554C10.8316 3.20075 11.0738 2.93836 11.3311 2.7853C11.952 2.41599 12.7166 2.40451 13.3479 2.75501C13.6095 2.90027 13.8591 3.15528 14.3583 3.66529C14.8575 4.17531 15.1072 4.43032 15.2493 4.6976C15.5924 5.34253 15.5812 6.12361 15.2197 6.75795C15.0699 7.02085 14.813 7.26826 14.2994 7.76305L8.18743 13.6503C7.21399 14.588 6.72726 15.0568 6.11895 15.2944C5.51064 15.532 4.84189 15.5146 3.5044 15.4796L3.32243 15.4748C2.91526 15.4642 2.71167 15.4589 2.59333 15.3245C2.47498 15.1902 2.49114 14.9828 2.52345 14.568L2.541 14.3428C2.63195 13.1753 2.67742 12.5916 2.90538 12.0668C3.13334 11.5421 3.52655 11.1161 4.31298 10.2639L10.3473 3.72554Z" stroke="currentColor" stroke-width="1.1" stroke-linejoin="round"/>
<path d="M9.98291 4.19629L13.9634 8.18829" stroke="currentColor" stroke-width="1.1" stroke-linejoin="round"/>
<path d="M10.3003 15.5H15.4999" stroke="currentColor" stroke-width="1.1" stroke-linecap="round" stroke-linejoin="round"/>
</svg>
