<svg width="20" height="18" viewBox="0 0 20 18" fill="none" xmlns="http://www.w3.org/2000/svg">
<path d="M0.549805 14.9494V4.64381C0.549805 3.34437 0.549805 2.69464 0.768793 2.18458C1.04183 1.54864 1.54867 1.04182 2.18463 0.768787C2.6947 0.549805 3.33805 0.549805 4.64392 0.549805H5.0886C5.63317 0.549805 6.14848 0.796344 6.49017 1.22037L8.12555 3.24973M8.12555 3.24973H13.1498C14.4099 3.24973 15.04 3.24973 15.5213 3.49495C15.9447 3.71067 16.2888 4.05486 16.5045 4.47821C16.7498 4.9595 16.7498 5.58955 16.7498 6.84963V7.7496M8.12555 3.24973H5.0498" stroke="currentColor" stroke-width="1.1" stroke-linecap="round" stroke-linejoin="round"/>
<path d="M1.59202 11.8128L1.86059 11.1444C2.52106 9.50036 2.85131 8.67841 3.53996 8.21421C4.22862 7.75 5.11781 7.75 6.89621 7.75H14.1505C16.5702 7.75 17.7799 7.75 18.3178 8.54081C18.8555 9.33171 18.4062 10.4501 17.5076 12.6869L17.239 13.3553C16.5785 14.9994 16.2483 15.8213 15.5596 16.2855C14.871 16.7497 13.9818 16.7497 12.2034 16.7497H4.94911C2.52945 16.7497 1.31962 16.7497 0.781842 15.9589C0.244065 15.168 0.693381 14.0496 1.59202 11.8128Z" stroke="currentColor" stroke-width="1.1" stroke-linecap="round" stroke-linejoin="round"/>
</svg>
