<svg viewBox="0 0 18 18" fill="none" xmlns="http://www.w3.org/2000/svg">
<path d="M10.2093 3.01092L11.4412 5.49501C11.6092 5.8408 12.0571 6.17249 12.4351 6.236L14.6678 6.61002C16.0957 6.84997 16.4317 7.89441 15.4028 8.92474L13.667 10.6749C13.373 10.9713 13.212 11.5429 13.303 11.9522L13.8 14.1187C14.1919 15.8336 13.289 16.497 11.7842 15.6007L9.69138 14.3516C9.31346 14.1258 8.69053 14.1258 8.30553 14.3516L6.21279 15.6007C4.71495 16.497 3.80505 15.8265 4.19701 14.1187L4.69395 11.9522C4.78494 11.5429 4.62396 10.9713 4.32999 10.6749L2.59419 8.92474C1.5723 7.89441 1.90126 6.84997 3.3291 6.61002L5.56186 6.236C5.93281 6.17249 6.38076 5.8408 6.54874 5.49501L7.7806 3.01092C8.45253 1.66303 9.54438 1.66303 10.2093 3.01092Z" fill="#FAC515" stroke="#FAC515" stroke-width="1.1" stroke-linecap="round" stroke-linejoin="round"/>
</svg>
