<svg viewBox="0 0 20 20" fill="none" xmlns="http://www.w3.org/2000/svg">
<path d="M7.38121 10.4218C5.30751 8.87134 3.8297 7.16597 3.02278 6.20723C2.773 5.91045 2.69115 5.69326 2.64194 5.31067C2.47343 4.00067 2.38918 3.34567 2.77329 2.92283C3.15742 2.5 3.8367 2.5 5.19527 2.5H14.8047C16.1633 2.5 16.8426 2.5 17.2267 2.92283C17.6108 3.34567 17.5266 4.00067 17.3581 5.31068C17.3088 5.69326 17.227 5.91046 16.9772 6.20723C16.1692 7.16719 14.6884 8.87559 12.6105 10.4279C12.4225 10.5684 12.2986 10.7973 12.2756 11.0512C12.0697 13.3267 11.8799 14.573 11.7617 15.2035C11.5711 16.2214 10.1277 16.8339 9.355 17.3803C8.89508 17.7055 8.33691 17.3184 8.27731 16.8149C8.16369 15.8551 7.94967 13.9054 7.71606 11.0512C7.69507 10.7949 7.57071 10.5634 7.38121 10.4218Z" stroke="currentColor" stroke-width="1.3" stroke-linecap="round" stroke-linejoin="round"/>
</svg>
