<svg viewBox="0 0 18 18" fill="none" xmlns="http://www.w3.org/2000/svg">
<path d="M5.85107 9.00104H10.0509M5.85107 6.20117H7.95097" stroke="currentColor" stroke-width="1.3" stroke-linecap="round" stroke-linejoin="round"/>
<path d="M6.55029 14.6005C7.28552 15.2092 8.17037 15.5971 9.18462 15.6636C9.98377 15.716 10.8181 15.7159 11.6156 15.6636C11.8902 15.6456 12.1896 15.5809 12.4474 15.4761C12.7341 15.3596 12.8776 15.3013 12.9506 15.3101C13.0234 15.3189 13.1292 15.3959 13.3407 15.5498C13.7137 15.8212 14.1835 16.0162 14.8802 15.9994C15.2325 15.991 15.4087 15.9867 15.4875 15.8541C15.5664 15.7213 15.4682 15.5377 15.2717 15.1703C14.9993 14.6608 14.8267 14.0775 15.0883 13.6102C15.5388 12.9426 15.9214 12.1521 15.9773 11.2982C16.0073 10.8395 16.0073 10.3644 15.9773 9.90559C15.9401 9.33666 15.802 8.79587 15.5807 8.30078" stroke="currentColor" stroke-width="1.3" stroke-linecap="round" stroke-linejoin="round"/>
<path d="M9.24116 12.8412C11.73 12.6773 13.7124 10.6854 13.8755 8.18476C13.9074 7.69542 13.9074 7.18865 13.8755 6.69929C13.7124 4.19865 11.73 2.20677 9.24116 2.04287C8.3921 1.98696 7.50561 1.98707 6.65827 2.04287C4.1695 2.20677 2.18707 4.19865 2.02394 6.69929C1.99202 7.18865 1.99202 7.69542 2.02394 8.18476C2.08335 9.09556 2.48992 9.93881 2.96856 10.6509C3.24647 11.1493 3.06306 11.7715 2.77359 12.315C2.56487 12.7068 2.46052 12.9027 2.54431 13.0443C2.62809 13.1858 2.81527 13.1904 3.1896 13.1994C3.92989 13.2172 4.42908 13.0093 4.82533 12.7198C5.05006 12.5556 5.16244 12.4735 5.23988 12.4641C5.31732 12.4547 5.46973 12.5169 5.77451 12.6412C6.04843 12.753 6.36648 12.822 6.65827 12.8412C7.50561 12.897 8.3921 12.8971 9.24116 12.8412Z" stroke="currentColor" stroke-width="1.3" stroke-linecap="round" stroke-linejoin="round"/>
</svg>
