<svg viewBox="0 0 18 18" fill="none" xmlns="http://www.w3.org/2000/svg">
<path d="M13.5498 14.8492C13.9442 14.4658 15.4998 13.4454 15.4998 12.8992C15.4998 12.353 13.9442 11.3326 13.5498 10.9492M14.8498 12.8992H10.2998" stroke="currentColor" stroke-width="1.1" stroke-linecap="round" stroke-linejoin="round"/>
<path d="M9 14.8494C5.93587 14.8494 4.4038 14.8494 3.45191 13.8975C2.5 12.9456 2.5 11.4135 2.5 8.34941V6.36319C2.5 5.18248 2.5 4.59213 2.74721 4.14915C2.92342 3.83339 3.18398 3.57284 3.49974 3.39662C3.94271 3.14941 4.53307 3.14941 5.71378 3.14941C6.47021 3.14941 6.84843 3.14941 7.17952 3.27357C7.93543 3.55704 8.24717 4.24374 8.58829 4.92595L9 5.74941M6.4 5.74941H12.0875C13.4569 5.74941 14.1415 5.74941 14.6334 6.07805C14.8463 6.22032 15.0291 6.40313 15.1714 6.61605C15.4867 7.08804 15.4995 7.73763 15.5 8.99941V9.64941" stroke="currentColor" stroke-width="1.1" stroke-linecap="round" stroke-linejoin="round"/>
</svg>
