<svg viewBox="0 0 20 20" fill="none" xmlns="http://www.w3.org/2000/svg">
<path d="M2 8.80002C2 8.18339 2.01078 7.58145 2.03128 7.00026C2.09826 5.10149 2.13175 4.1521 2.90406 3.37398C3.67636 2.59587 4.65256 2.5541 6.60496 2.47058C7.67613 2.42474 8.81672 2.40002 10 2.40002C11.1833 2.40002 12.3238 2.42474 13.395 2.47058C15.3474 2.5541 16.3236 2.59587 17.0959 3.37398C17.8682 4.1521 17.9018 5.10149 17.9687 7.00026C17.9892 7.58145 18 8.18339 18 8.80002C18 9.41666 17.9892 10.0186 17.9687 10.5998C17.9018 12.4986 17.8682 13.4479 17.0959 14.2261C16.3236 15.0042 15.3474 15.0459 13.395 15.1295C12.8078 15.1546 12.1998 15.1734 11.5754 15.1852C10.9825 15.1964 10.6861 15.2021 10.4256 15.3013C10.1651 15.4005 9.94592 15.5884 9.5076 15.9643L7.76403 17.4594C7.65818 17.5501 7.52336 17.6 7.38393 17.6C7.06144 17.6 6.8 17.3386 6.8 17.0161V15.1375C6.73473 15.1349 6.66972 15.1323 6.60496 15.1295C4.65256 15.0459 3.67636 15.0042 2.90406 14.226C2.13175 13.4479 2.09826 12.4986 2.03128 10.5998C2.01078 10.0186 2 9.41666 2 8.80002Z" stroke="currentColor" stroke-width="1.3" stroke-linecap="round" stroke-linejoin="round"/>
<path d="M8.39844 7.09438C8.39844 6.21073 9.11476 5.49438 9.99844 5.49438C10.8821 5.49438 11.5984 6.21073 11.5984 7.09438C11.5984 7.5566 11.4024 7.97302 11.089 8.2651C10.6042 8.71694 9.99844 9.23166 9.99844 9.89438M10.0984 12.4944H9.99844M10.1984 12.4944C10.1984 12.6049 10.1089 12.6944 9.99844 12.6944C9.88796 12.6944 9.79844 12.6049 9.79844 12.4944C9.79844 12.3839 9.88796 12.2944 9.99844 12.2944C10.1089 12.2944 10.1984 12.3839 10.1984 12.4944Z" stroke="currentColor" stroke-width="1.3" stroke-linecap="round" stroke-linejoin="round"/>
</svg>
