<svg viewBox="0 0 18 18" fill="none" xmlns="http://www.w3.org/2000/svg">
<path d="M2 9.35033C2 8.57704 2.62686 7.9502 3.40014 7.9502C4.56004 7.9502 5.50034 8.89046 5.50034 10.0504V12.8507C5.50034 14.0106 4.56004 14.9509 3.40014 14.9509C2.62686 14.9509 2 14.324 2 13.5507V9.35033Z" stroke="currentColor" stroke-width="1.1" stroke-linecap="round" stroke-linejoin="round"/>
<path d="M11.4347 6.06448L11.2483 6.6666C11.0955 7.15998 11.0191 7.40667 11.0779 7.60151C11.1254 7.75909 11.2297 7.89498 11.3719 7.98438C11.5476 8.09485 11.8134 8.09485 12.3451 8.09485H12.6279C14.4271 8.09485 15.3267 8.09485 15.7517 8.62746C15.8002 8.68829 15.8434 8.75305 15.8808 8.82096C16.2076 9.4149 15.836 10.2151 15.0928 11.8154C14.4107 13.284 14.0696 14.0183 13.4364 14.4506C13.3751 14.4923 13.3121 14.5318 13.2476 14.5688C12.5809 14.951 11.755 14.951 10.103 14.951H9.74466C7.74323 14.951 6.74254 14.951 6.12078 14.3486C5.49902 13.7461 5.49902 12.7765 5.49902 10.8373V10.1557C5.49902 9.13662 5.49902 8.62711 5.67988 8.16072C5.86073 7.69434 6.20704 7.31087 6.89964 6.54393L9.76391 3.37223C9.83574 3.29269 9.87165 3.25291 9.90336 3.22535C10.1989 2.96809 10.6552 2.99705 10.9136 3.28947C10.9414 3.3208 10.9716 3.36477 11.0321 3.45272C11.1267 3.59029 11.1741 3.65908 11.2154 3.72723C11.5846 4.33732 11.6963 5.06205 11.5272 5.75007C11.5083 5.82692 11.4838 5.90615 11.4347 6.06448Z" stroke="currentColor" stroke-width="1.1" stroke-linecap="round" stroke-linejoin="round"/>
</svg>
