<svg viewBox="0 0 18 18" fill="none" xmlns="http://www.w3.org/2000/svg">
<path d="M16 8.65035C16 9.42365 15.3731 10.0505 14.5999 10.0505C13.44 10.0505 12.4997 9.11022 12.4997 7.95028V5.15001C12.4997 3.9901 13.44 3.0498 14.5999 3.0498C15.3731 3.0498 16 3.67667 16 4.44994V8.65035Z" stroke="currentColor" stroke-width="1.1" stroke-linecap="round" stroke-linejoin="round"/>
<path d="M6.56531 11.9363L6.75174 11.3342C6.90449 10.8408 6.98087 10.5941 6.92213 10.3993C6.8746 10.2417 6.77029 10.1058 6.62811 10.0164C6.45239 9.90592 6.18657 9.90592 5.65494 9.90592H5.37211C3.57287 9.90592 2.67328 9.90592 2.24834 9.37331C2.19982 9.31247 2.15663 9.24772 2.11925 9.17981C1.79239 8.58587 2.16398 7.7857 2.90724 6.18534C3.58932 4.71674 3.93039 3.98245 4.5636 3.55025C4.62486 3.50841 4.68787 3.46894 4.75241 3.43194C5.41909 3.0498 6.24503 3.0498 7.89705 3.0498H8.25534C10.2568 3.0498 11.2575 3.0498 11.8792 3.65223C12.501 4.25466 12.501 5.22427 12.501 7.16345V7.84506C12.501 8.86415 12.501 9.37366 12.3201 9.84005C12.1393 10.3064 11.793 10.6899 11.1004 11.4569L8.23609 14.6285C8.16426 14.7081 8.12835 14.7479 8.09664 14.7755C7.80107 15.0327 7.34484 15.0037 7.08637 14.7113C7.05865 14.68 7.0284 14.636 6.96792 14.5481C6.87327 14.4105 6.82594 14.3417 6.78464 14.2735C6.41542 13.6635 6.30369 12.9387 6.47283 12.2507C6.49173 12.1739 6.51623 12.0946 6.56531 11.9363Z" stroke="currentColor" stroke-width="1.1" stroke-linecap="round" stroke-linejoin="round"/>
</svg>
