<svg viewBox="0 0 18 18" fill="none" xmlns="http://www.w3.org/2000/svg">
<path d="M13.8751 4.77539L13.4723 11.2917C13.3693 12.9566 13.3179 13.7891 12.9006 14.3876C12.6942 14.6835 12.4286 14.9332 12.1205 15.1209C11.4974 15.5005 10.6634 15.5005 8.99528 15.5005C7.32505 15.5005 6.48991 15.5005 5.86639 15.1201C5.55813 14.9322 5.29241 14.682 5.08615 14.3856C4.66898 13.7861 4.61865 12.9525 4.518 11.2853L4.125 4.77539" stroke="currentColor" stroke-width="1.3" stroke-linecap="round"/>
<path d="M3.1499 4.77501H14.85M11.6362 4.77501L11.1925 3.85963C10.8977 3.25157 10.7503 2.94754 10.4961 2.75793C10.4397 2.71587 10.38 2.67845 10.3175 2.64606C10.036 2.5 9.69811 2.5 9.02236 2.5C8.32965 2.5 7.98333 2.5 7.69712 2.65218C7.63369 2.68591 7.57317 2.72484 7.51617 2.76856C7.25899 2.96586 7.11534 3.28101 6.82802 3.91133L6.43432 4.77501" stroke="currentColor" stroke-width="1.3" stroke-linecap="round"/>
<path d="M7.37549 11.9254V8.02539" stroke="currentColor" stroke-width="1.3" stroke-linecap="round"/>
<path d="M10.6245 11.9254V8.02539" stroke="currentColor" stroke-width="1.3" stroke-linecap="round"/>
</svg>
