<svg width="16" height="14" viewBox="0 0 16 14" fill="none" xmlns="http://www.w3.org/2000/svg">
<path d="M7.89091 0.875C3.53283 0.875 0 4.4007 0 8.75C0 10.1938 0.390436 11.5462 1.0702 12.7094C1.22391 12.9724 1.51681 13.125 1.82203 13.125H13.9598C14.265 13.125 14.5579 12.9724 14.7116 12.7094C15.3914 11.5462 15.7818 10.1938 15.7818 8.75C15.7818 4.4007 12.249 0.875 7.89091 0.875ZM7.89091 2.625C8.29395 2.625 8.61917 2.90199 8.72165 3.27168C8.69123 3.33348 8.64931 3.38734 8.62712 3.45406L8.3745 4.21066C8.23394 4.30609 8.07393 4.375 7.89118 4.375C7.40704 4.375 7.01442 3.98316 7.01442 3.5C7.01442 3.01684 7.40677 2.625 7.89091 2.625ZM2.6303 10.5C2.14616 10.5 1.75354 10.1082 1.75354 9.625C1.75354 9.14184 2.14616 8.75 2.6303 8.75C3.11444 8.75 3.50707 9.14184 3.50707 9.625C3.50707 10.1082 3.11444 10.5 2.6303 10.5ZM3.94545 6.125C3.46131 6.125 3.06869 5.73316 3.06869 5.25C3.06869 4.76684 3.46131 4.375 3.94545 4.375C4.42959 4.375 4.82222 4.76684 4.82222 5.25C4.82222 5.73316 4.42959 6.125 3.94545 6.125ZM10.7067 4.14504L9.02632 9.17629C9.40142 9.4973 9.64444 9.96789 9.64444 10.5C9.64444 10.8205 9.55184 11.1166 9.40114 11.375H6.38068C6.22998 11.1166 6.13737 10.8205 6.13737 10.5C6.13737 9.57195 6.86345 8.82027 7.77857 8.76121L9.45923 3.72969C9.57348 3.38625 9.94501 3.19785 10.2911 3.31488C10.6355 3.42945 10.8212 3.80133 10.7067 4.14504ZM11.1084 5.7091L11.5336 4.43625C11.6287 4.40098 11.729 4.37527 11.8364 4.37527C12.3205 4.37527 12.7131 4.76711 12.7131 5.25027C12.7131 5.73344 12.3205 6.12527 11.8364 6.12527C11.5246 6.125 11.264 5.95355 11.1084 5.7091ZM13.1515 10.5C12.6674 10.5 12.2747 10.1082 12.2747 9.625C12.2747 9.14184 12.6674 8.75 13.1515 8.75C13.6357 8.75 14.0283 9.14184 14.0283 9.625C14.0283 10.1082 13.6357 10.5 13.1515 10.5Z" fill="#008376"/>
</svg>
