<svg xmlns="http://www.w3.org/2000/svg" version="1.1" xmlns:xlink="http://www.w3.org/1999/xlink" xmlns:svgjs="http://svgjs.com/svgjs" width="512" height="512" x="0" y="0" viewBox="0 0 512 512" style="enable-background:new 0 0 512 512" xml:space="preserve" class=""><g><g xmlns="http://www.w3.org/2000/svg"><path d="m88 456c-8.837 0-16-7.164-16-16v-374c0-36.393 29.607-66 66-66h286c8.837 0 16 7.164 16 16v368c0 8.836-7.163 16-16 16s-16-7.164-16-16v-352h-270c-18.748 0-34 15.252-34 34v374c0 8.836-7.163 16-16 16z" fill="#000000" data-original="#000000" style="" class=""></path><path d="m424 512h-280c-39.701 0-72-32.299-72-72s32.299-72 72-72h280c8.837 0 16 7.164 16 16s-7.163 16-16 16h-280c-22.056 0-40 17.944-40 40s17.944 40 40 40h280c8.837 0 16 7.164 16 16s-7.163 16-16 16z" fill="#000000" data-original="#000000" style="" class=""></path><path d="m424 456h-280c-8.837 0-16-7.164-16-16s7.163-16 16-16h280c8.837 0 16 7.164 16 16s-7.163 16-16 16z" fill="#000000" data-original="#000000" style="" class=""></path><path d="m160 400c-8.837 0-16-7.164-16-16v-368c0-8.836 7.163-16 16-16s16 7.164 16 16v368c0 8.836-7.163 16-16 16z" fill="#000000" data-original="#000000" style="" class=""></path></g></g></svg>