<svg width="16" height="16" viewBox="0 0 16 16" fill="none" xmlns="http://www.w3.org/2000/svg">
<path d="M13.25 2H10.5V1.5C10.5 0.672906 9.82709 0 9 0H7C6.17291 0 5.5 0.672906 5.5 1.5V2H2.75C2.06075 2 1.5 2.56075 1.5 3.25V5C1.5 5.27612 1.72387 5.5 2 5.5H2.27325L2.70522 14.5713C2.74338 15.3725 3.4015 16 4.2035 16H11.7965C12.5985 16 13.2567 15.3725 13.2948 14.5713L13.7268 5.5H14C14.2761 5.5 14.5 5.27612 14.5 5V3.25C14.5 2.56075 13.9392 2 13.25 2ZM6.5 1.5C6.5 1.22431 6.72431 1 7 1H9C9.27569 1 9.5 1.22431 9.5 1.5V2H6.5V1.5ZM2.5 3.25C2.5 3.11216 2.61216 3 2.75 3H13.25C13.3878 3 13.5 3.11216 13.5 3.25V4.5C13.3459 4.5 3.13853 4.5 2.5 4.5V3.25ZM12.2959 14.5238C12.2832 14.7908 12.0638 15 11.7965 15H4.2035C3.93616 15 3.71678 14.7908 3.70409 14.5238L3.27437 5.5H12.7256L12.2959 14.5238Z" fill="#72706B"/>
<path d="M8 14C8.27613 14 8.5 13.7761 8.5 13.5V7C8.5 6.72387 8.27613 6.5 8 6.5C7.72387 6.5 7.5 6.72387 7.5 7V13.5C7.5 13.7761 7.72384 14 8 14Z" fill="#72706B"/>
<path d="M10.5 14C10.7761 14 11 13.7761 11 13.5V7C11 6.72387 10.7761 6.5 10.5 6.5C10.2239 6.5 10 6.72387 10 7V13.5C10 13.7761 10.2238 14 10.5 14Z" fill="#72706B"/>
<path d="M5.5 14C5.77613 14 6 13.7761 6 13.5V7C6 6.72387 5.77613 6.5 5.5 6.5C5.22387 6.5 5 6.72387 5 7V13.5C5 13.7761 5.22384 14 5.5 14Z" fill="#72706B"/>
</svg>
