<svg width="14" height="14" viewBox="0 0 14 14" fill="none" xmlns="http://www.w3.org/2000/svg">
<path d="M13.6143 3.88365L12.3537 5.14425C12.2252 5.27277 12.0174 5.27277 11.8889 5.14425L8.8536 2.10897C8.72508 1.98045 8.72508 1.77263 8.8536 1.64411L10.1142 0.383511C10.6255 -0.127837 11.4568 -0.127837 11.9709 0.383511L13.6143 2.02694C14.1284 2.53828 14.1284 3.36957 13.6143 3.88365ZM7.77075 2.72696L0.59 9.90772L0.01029 13.2301C-0.0690099 13.6786 0.322021 14.0669 0.770475 13.9903L4.09287 13.4079L11.2736 6.2271C11.4021 6.09858 11.4021 5.89076 11.2736 5.76224L8.23834 2.72696C8.10709 2.59844 7.89927 2.59844 7.77075 2.72696ZM3.39284 9.29246C3.24245 9.14206 3.24245 8.90143 3.39284 8.75103L7.60394 4.53993C7.75434 4.38953 7.99497 4.38953 8.14537 4.53993C8.29576 4.69032 8.29576 4.93096 8.14537 5.08135L3.93427 9.29246C3.78387 9.44286 3.54324 9.44286 3.39284 9.29246ZM2.40569 11.5922H3.71824V12.5848L1.95451 12.8938L1.10408 12.0434L1.41308 10.2796H2.40569V11.5922Z" fill="#757575"/>
</svg>
