<svg width="20" height="20" viewBox="0 0 20 20" fill="none" xmlns="http://www.w3.org/2000/svg">
<path d="M0 5.9375H1.21094V7.10938H0V12.9688H1.21094V14.1406H0V20H20V14.1406H18.7891V12.9688H20V7.10938H18.7891V5.9375H20V0H0V5.9375ZM18.8281 18.8281H1.17188V15.3125H18.8281V18.8281ZM17.6172 14.1406H2.38281V12.9688H17.6172V14.1406ZM18.8281 11.7969H1.17188V8.28125H18.8281V11.7969ZM17.6172 7.10938H2.38281V5.9375H17.6172V7.10938ZM1.17188 1.17188H18.8281V4.76562H1.17188V1.17188Z" fill="#37352F"/>
<path d="M2.38281 2.42188H3.55469V3.59375H2.38281V2.42188Z" fill="#37352F"/>
<path d="M4.72656 2.42188H5.89844V3.59375H4.72656V2.42188Z" fill="#37352F"/>
<path d="M7.07031 2.42188H8.24219V3.59375H7.07031V2.42188Z" fill="#37352F"/>
<path d="M11.7578 2.42188H17.6172V3.59375H11.7578V2.42188Z" fill="#37352F"/>
<path d="M2.38281 9.45312H3.55469V10.625H2.38281V9.45312Z" fill="#37352F"/>
<path d="M4.72656 9.45312H5.89844V10.625H4.72656V9.45312Z" fill="#37352F"/>
<path d="M7.07031 9.45312H8.24219V10.625H7.07031V9.45312Z" fill="#37352F"/>
<path d="M11.7578 9.45312H17.6172V10.625H11.7578V9.45312Z" fill="#37352F"/>
<path d="M2.38281 16.4844H3.55469V17.6562H2.38281V16.4844Z" fill="#37352F"/>
<path d="M4.72656 16.4844H5.89844V17.6562H4.72656V16.4844Z" fill="#37352F"/>
<path d="M7.07031 16.4844H8.24219V17.6562H7.07031V16.4844Z" fill="#37352F"/>
<path d="M11.7578 16.4844H17.6172V17.6562H11.7578V16.4844Z" fill="#37352F"/>
</svg>
