<svg xmlns="http://www.w3.org/2000/svg" version="1.1" xmlns:xlink="http://www.w3.org/1999/xlink" xmlns:svgjs="http://svgjs.com/svgjs" width="512" height="512" x="0" y="0" viewBox="0 0 512 512" style="enable-background:new 0 0 512 512" xml:space="preserve">
			<path d="M460.896,241.842c0-25.724-19.396-46.99-44.329-49.977V62.755c0-7.905-5.128-14.599-12.761-16.656     c-7.631-2.055-15.428,1.153-19.4,7.986c-27.273,46.922-70.229,78.994-127.675,95.327c-43.439,12.35-79.285,10.56-79.631,10.539     c-0.526-0.03-1.049-0.005-1.567,0.047H83.682C37.54,159.998,0,197.538,0,243.68c0,43.461,33.307,79.277,75.734,83.294     l27.704,113.922c3.668,15.084,17.072,25.619,32.596,25.619h19.228c10.359,0,19.972-4.671,26.374-12.816s8.669-18.59,6.222-28.656     l-23.755-97.682h11.413c0.52,0.053,1.045,0.078,1.575,0.048c0.356-0.02,36.201-1.812,79.64,10.539     c57.445,16.333,100.401,48.405,127.675,95.326c3.171,5.457,8.78,8.602,14.796,8.602c1.52,0,3.065-0.201,4.604-0.615     c7.633-2.057,12.761-8.75,12.761-16.655V295.494c24.933-2.986,44.329-24.252,44.329-49.976V241.842z M165.264,416.777     l3.159,12.992c0.989,4.065,0.074,8.283-2.512,11.572c-2.584,3.289-6.466,5.175-10.649,5.175h-19.228     c-6.269,0-11.681-4.254-13.162-10.345L96.411,327.362h47.109l7.063,29.045h-4.78c-5.523,0-10,4.477-10,10s4.477,10,10,10h9.643     l4.954,20.37h-3.134c-5.523,0-10,4.477-10,10s4.477,10,10,10H165.264z M166.533,264.926h-62.146c-5.523,0-10,4.477-10,10     s4.477,10,10,10h62.146v22.436h-14.609c-0.183-0.01-0.365-0.023-0.551-0.023H83.682c-0.095,0-0.189,0.014-0.284,0.016     C48.415,307.2,20,278.699,20,243.68c0-35.114,28.568-63.682,63.682-63.682h82.851V264.926z M396.565,201.493v84.374v128.969     c-29.968-46.606-76.453-79.813-135.04-96.316c-32.439-9.138-60.458-10.963-74.992-11.2v-32.394V180.04     c14.536-0.237,42.556-2.063,74.992-11.2c58.586-16.504,105.072-49.71,135.04-96.316V201.493z M440.894,245.518     c0,14.674-10.467,26.949-24.329,29.749v-63.174c13.861,2.8,24.329,15.075,24.329,29.749V245.518z" fill="#000000" data-original="#000000" style=""></path>
			<path d="M463.889,185.337c2.403,0,4.814-0.861,6.73-2.606l28.843-26.268c4.083-3.719,4.379-10.043,0.66-14.127     c-3.719-4.083-10.043-4.378-14.127-0.66l-28.842,26.267c-4.083,3.719-4.379,10.043-0.66,14.127     C458.467,184.237,461.173,185.337,463.889,185.337z" fill="#000000" data-original="#000000" style=""></path>
			<path d="M470.62,304.63c-4.084-3.718-10.408-3.423-14.127,0.66c-3.719,4.083-3.423,10.408,0.66,14.127l28.842,26.267     c1.918,1.746,4.328,2.607,6.731,2.607c2.716,0,5.423-1.1,7.396-3.267c3.719-4.083,3.423-10.408-0.66-14.127L470.62,304.63z" fill="#000000" data-original="#000000" style=""></path>
			<path d="M502,233.68h-22.147c-5.523,0-10,4.477-10,10s4.477,10,10,10H502c5.523,0,10-4.477,10-10S507.523,233.68,502,233.68z" fill="#000000" data-original="#000000" style=""></path>
			<path d="M72.42,271.104c-0.25-0.61-0.56-1.19-0.92-1.73c-0.37-0.55-0.78-1.06-1.24-1.52c-0.47-0.46-0.98-0.88-1.53-1.24     c-0.54-0.36-1.12-0.67-1.72-0.92c-0.61-0.25-1.24-0.44-1.87-0.57c-1.29-0.26-2.62-0.26-3.91,0c-0.64,0.13-1.27,0.32-1.87,0.57     c-0.6,0.25-1.19,0.56-1.73,0.92c-0.55,0.36-1.06,0.78-1.52,1.24c-0.46,0.46-0.88,0.97-1.24,1.52c-0.36,0.54-0.67,1.12-0.92,1.73     c-0.25,0.6-0.44,1.23-0.57,1.87s-0.2,1.3-0.2,1.95s0.07,1.31,0.2,1.96c0.13,0.63,0.32,1.26,0.57,1.87     c0.25,0.6,0.56,1.18,0.92,1.72c0.36,0.55,0.78,1.06,1.24,1.52c0.46,0.46,0.97,0.88,1.52,1.25c0.54,0.36,1.13,0.67,1.73,0.92     c0.6,0.25,1.23,0.44,1.87,0.57c0.65,0.13,1.3,0.19,1.95,0.19c0.66,0,1.31-0.06,1.96-0.19c0.64-0.13,1.26-0.32,1.87-0.57     c0.6-0.25,1.18-0.56,1.72-0.92c0.55-0.37,1.06-0.79,1.53-1.25c0.46-0.46,0.87-0.97,1.24-1.52c0.36-0.54,0.67-1.12,0.92-1.72     c0.25-0.61,0.44-1.24,0.57-1.87c0.13-0.65,0.19-1.31,0.19-1.96c0-0.65-0.06-1.31-0.19-1.95S72.67,271.704,72.42,271.104z" fill="#000000" data-original="#000000" style=""></path>
</svg>