<svg width="250" height="300" viewBox="0 0 250 300" fill="none" xmlns="http://www.w3.org/2000/svg">
<path fill-rule="evenodd" clip-rule="evenodd" d="M250 63H0V237.5V238H0.00391658C0.541243 272.288 56.298 300 125 300C193.702 300 249.459 272.288 249.996 238H250V237.5V63Z" fill="url(#paint0_linear)"/>
<ellipse cx="125" cy="62.5" rx="125" ry="62.5" fill="#8D6AF1"/>
<ellipse cx="125.5" cy="63.25" rx="62.5" ry="31.25" fill="white"/>
<path d="M85 214.793V254.384C85 258.223 80.8526 260.63 77.5193 258.725L45.5193 240.44C43.9614 239.549 43 237.893 43 236.098V141.887C43 137.988 47.2635 135.589 50.5956 137.613L121.936 180.942C123.514 181.901 125.492 181.912 127.081 180.97L200.45 137.476C203.783 135.5 208 137.902 208 141.777V237.975C208 239.835 206.968 241.541 205.32 242.404L173.32 259.166C169.991 260.91 166 258.495 166 254.737V214.577C166 210.747 161.869 208.339 158.536 210.226L127.026 228.07C125.464 228.954 123.548 228.934 122.006 228.016L92.5565 210.496C89.2236 208.513 85 210.915 85 214.793Z" fill="white"/>
<defs>
<linearGradient id="paint0_linear" x1="125" y1="90" x2="125" y2="300" gradientUnits="userSpaceOnUse">
<stop stop-color="#35198E"/>
<stop offset="1" stop-color="#8D6AF1"/>
</linearGradient>
</defs>
</svg>
