<svg width="126" height="36" viewBox="0 0 126 36" fill="none" xmlns="http://www.w3.org/2000/svg">
<path d="M37.096 29.216C35.976 29.216 35.04 28.976 34.288 28.496C33.552 28.016 32.992 27.352 32.608 26.504C32.224 25.656 32 24.672 31.936 23.552L34.336 22.904C34.384 23.592 34.488 24.256 34.648 24.896C34.824 25.536 35.104 26.064 35.488 26.48C35.872 26.88 36.408 27.08 37.096 27.08C37.8 27.08 38.328 26.888 38.68 26.504C39.048 26.104 39.232 25.536 39.232 24.8C39.232 23.92 39.032 23.216 38.632 22.688C38.232 22.144 37.728 21.6 37.12 21.056L33.856 18.176C33.216 17.616 32.744 17.008 32.44 16.352C32.136 15.68 31.984 14.856 31.984 13.88C31.984 12.456 32.392 11.352 33.208 10.568C34.024 9.784 35.136 9.392 36.544 9.392C37.312 9.392 37.984 9.496 38.56 9.704C39.152 9.896 39.64 10.2 40.024 10.616C40.424 11.032 40.736 11.56 40.96 12.2C41.2 12.824 41.36 13.56 41.44 14.408L39.136 15.032C39.088 14.392 38.992 13.808 38.848 13.28C38.704 12.736 38.448 12.304 38.08 11.984C37.728 11.648 37.216 11.48 36.544 11.48C35.872 11.48 35.344 11.664 34.96 12.032C34.592 12.384 34.408 12.912 34.408 13.616C34.408 14.208 34.504 14.696 34.696 15.08C34.904 15.464 35.232 15.856 35.68 16.256L38.968 19.136C39.704 19.776 40.352 20.544 40.912 21.44C41.472 22.32 41.752 23.368 41.752 24.584C41.752 25.544 41.552 26.376 41.152 27.08C40.752 27.768 40.2 28.296 39.496 28.664C38.808 29.032 38.008 29.216 37.096 29.216ZM47.3358 29.192C46.6158 29.192 46.0318 29.056 45.5838 28.784C45.1518 28.512 44.8318 28.128 44.6238 27.632C44.4318 27.136 44.3358 26.552 44.3358 25.88V16.832H42.8718V15.128H44.3358V11.072H46.9038V15.128H49.1358V16.832H46.9038V25.712C46.9038 26.256 46.9918 26.648 47.1678 26.888C47.3438 27.112 47.6798 27.224 48.1758 27.224C48.3038 27.224 48.4478 27.216 48.6078 27.2C48.7838 27.184 48.9518 27.168 49.1118 27.152V29.048C48.7918 29.096 48.4958 29.128 48.2238 29.144C47.9518 29.176 47.6558 29.192 47.3358 29.192ZM51.0946 29V15.128H53.6626V17.096C54.1746 16.248 54.6866 15.68 55.1986 15.392C55.7106 15.104 56.2226 14.96 56.7346 14.96C56.7986 14.96 56.8546 14.96 56.9026 14.96C56.9666 14.96 57.0466 14.968 57.1426 14.984V17.816C56.9506 17.736 56.7266 17.672 56.4706 17.624C56.2306 17.56 55.9826 17.528 55.7266 17.528C55.3266 17.528 54.9586 17.624 54.6226 17.816C54.3026 17.992 53.9826 18.344 53.6626 18.872V29H51.0946ZM62.5735 29.192C61.4855 29.192 60.6455 28.984 60.0535 28.568C59.4615 28.136 59.0455 27.512 58.8055 26.696C58.5815 25.864 58.4695 24.848 58.4695 23.648V20.48C58.4695 19.248 58.5895 18.224 58.8295 17.408C59.0695 16.592 59.4855 15.976 60.0775 15.56C60.6855 15.144 61.5175 14.936 62.5735 14.936C63.7415 14.936 64.5975 15.176 65.1415 15.656C65.7015 16.136 66.0695 16.832 66.2455 17.744C66.4215 18.64 66.5095 19.72 66.5095 20.984V22.112H61.0375V24.896C61.0375 25.456 61.0855 25.912 61.1815 26.264C61.2935 26.616 61.4615 26.88 61.6855 27.056C61.9255 27.216 62.2295 27.296 62.5975 27.296C62.9815 27.296 63.2695 27.208 63.4615 27.032C63.6695 26.84 63.8055 26.576 63.8695 26.24C63.9495 25.888 63.9895 25.48 63.9895 25.016V24.176H66.4855V24.704C66.4855 26.096 66.1895 27.192 65.5975 27.992C65.0055 28.792 63.9975 29.192 62.5735 29.192ZM61.0375 20.72H63.9895V19.472C63.9895 18.896 63.9575 18.416 63.8935 18.032C63.8295 17.632 63.6935 17.336 63.4855 17.144C63.2935 16.936 62.9815 16.832 62.5495 16.832C62.1335 16.832 61.8135 16.928 61.5895 17.12C61.3815 17.312 61.2375 17.64 61.1575 18.104C61.0775 18.552 61.0375 19.176 61.0375 19.976V20.72ZM71.3311 29.192C70.7871 29.192 70.3071 29.04 69.8911 28.736C69.4751 28.416 69.1471 28.016 68.9071 27.536C68.6671 27.04 68.5471 26.52 68.5471 25.976C68.5471 25.112 68.6911 24.384 68.9791 23.792C69.2671 23.2 69.6591 22.704 70.1551 22.304C70.6671 21.888 71.2511 21.528 71.9071 21.224C72.5791 20.92 73.2831 20.624 74.0191 20.336V19.352C74.0191 18.792 73.9871 18.328 73.9231 17.96C73.8591 17.592 73.7231 17.32 73.5151 17.144C73.3231 16.952 73.0271 16.856 72.6271 16.856C72.2751 16.856 71.9871 16.936 71.7631 17.096C71.5551 17.256 71.4031 17.488 71.3071 17.792C71.2111 18.08 71.1631 18.424 71.1631 18.824V19.52L68.6191 19.424C68.6511 17.888 69.0031 16.76 69.6751 16.04C70.3471 15.304 71.3871 14.936 72.7951 14.936C74.1711 14.936 75.1471 15.312 75.7231 16.064C76.2991 16.816 76.5871 17.904 76.5871 19.328V25.664C76.5871 26.096 76.5951 26.512 76.6111 26.912C76.6431 27.312 76.6751 27.688 76.7071 28.04C76.7551 28.376 76.7951 28.696 76.8271 29H74.4751C74.4271 28.744 74.3631 28.424 74.2831 28.04C74.2191 27.64 74.1711 27.28 74.1391 26.96C73.9791 27.504 73.6671 28.016 73.2031 28.496C72.7551 28.96 72.1311 29.192 71.3311 29.192ZM72.3391 26.984C72.5951 26.984 72.8351 26.912 73.0591 26.768C73.2831 26.624 73.4831 26.464 73.6591 26.288C73.8351 26.096 73.9551 25.944 74.0191 25.832V21.896C73.6191 22.12 73.2431 22.344 72.8911 22.568C72.5391 22.792 72.2271 23.032 71.9551 23.288C71.6991 23.528 71.4911 23.808 71.3311 24.128C71.1871 24.432 71.1151 24.784 71.1151 25.184C71.1151 25.744 71.2191 26.184 71.4271 26.504C71.6351 26.824 71.9391 26.984 72.3391 26.984ZM79.0538 29V15.128H81.4298V16.448C81.8938 15.92 82.4058 15.528 82.9658 15.272C83.5258 15.016 84.1018 14.888 84.6938 14.888C85.2058 14.888 85.6618 15.016 86.0618 15.272C86.4778 15.528 86.7738 15.984 86.9498 16.64C87.4458 16.032 87.9818 15.592 88.5578 15.32C89.1498 15.032 89.7658 14.888 90.4058 14.888C90.8538 14.888 91.2618 15 91.6298 15.224C91.9978 15.432 92.2938 15.776 92.5178 16.256C92.7418 16.72 92.8538 17.336 92.8538 18.104V29H90.5018V18.272C90.5018 17.6 90.3898 17.152 90.1658 16.928C89.9578 16.688 89.6698 16.568 89.3018 16.568C88.9498 16.568 88.5818 16.672 88.1978 16.88C87.8138 17.072 87.4618 17.344 87.1418 17.696C87.1418 17.76 87.1418 17.824 87.1418 17.888C87.1418 17.952 87.1418 18.024 87.1418 18.104V29H84.7898V18.272C84.7898 17.6 84.6778 17.152 84.4538 16.928C84.2458 16.688 83.9578 16.568 83.5898 16.568C83.2378 16.568 82.8698 16.672 82.4858 16.88C82.1178 17.072 81.7658 17.344 81.4298 17.696V29H79.0538ZM95.6063 29V9.56H98.1743V29H95.6063ZM101.019 29V15.128H103.587V29H101.019ZM101.019 13.064V10.376H103.587V13.064H101.019ZM106.335 29V15.128H108.903V16.496C109.367 16.064 109.879 15.696 110.439 15.392C110.999 15.088 111.615 14.936 112.287 14.936C112.847 14.936 113.271 15.08 113.559 15.368C113.863 15.656 114.071 16.016 114.183 16.448C114.311 16.88 114.375 17.32 114.375 17.768V29H111.807V18.512C111.807 18.016 111.735 17.632 111.591 17.36C111.447 17.088 111.151 16.952 110.703 16.952C110.415 16.952 110.111 17.04 109.791 17.216C109.487 17.376 109.191 17.576 108.903 17.816V29H106.335ZM120.722 29.192C119.634 29.192 118.794 28.984 118.202 28.568C117.61 28.136 117.194 27.512 116.954 26.696C116.73 25.864 116.618 24.848 116.618 23.648V20.48C116.618 19.248 116.738 18.224 116.978 17.408C117.218 16.592 117.634 15.976 118.226 15.56C118.834 15.144 119.666 14.936 120.722 14.936C121.89 14.936 122.746 15.176 123.29 15.656C123.85 16.136 124.218 16.832 124.394 17.744C124.57 18.64 124.658 19.72 124.658 20.984V22.112H119.186V24.896C119.186 25.456 119.234 25.912 119.33 26.264C119.442 26.616 119.61 26.88 119.834 27.056C120.074 27.216 120.378 27.296 120.746 27.296C121.13 27.296 121.418 27.208 121.61 27.032C121.818 26.84 121.954 26.576 122.018 26.24C122.098 25.888 122.138 25.48 122.138 25.016V24.176H124.634V24.704C124.634 26.096 124.338 27.192 123.746 27.992C123.154 28.792 122.146 29.192 120.722 29.192ZM119.186 20.72H122.138V19.472C122.138 18.896 122.106 18.416 122.042 18.032C121.978 17.632 121.842 17.336 121.634 17.144C121.442 16.936 121.13 16.832 120.698 16.832C120.282 16.832 119.962 16.928 119.738 17.12C119.53 17.312 119.386 17.64 119.306 18.104C119.226 18.552 119.186 19.176 119.186 19.976V20.72Z" fill="#37352F"/>
<g clip-path="url(#clip0)">
<path d="M26 18.3947C26 21.1172 25.1648 23.7205 23.5757 25.9332C22.811 26.9962 21.8999 27.9399 20.8531 28.7317C19.9746 29.3988 19.0254 29.9466 18.0113 30.375C18.1848 29.8978 18.277 29.4097 18.277 28.9161C18.277 28.607 18.2336 28.2924 18.1523 27.9399C19.8118 27.0396 21.2111 25.7217 22.2144 24.1218C23.2829 22.408 23.8523 20.4284 23.8523 18.4055C23.8523 17.1418 23.6354 15.9053 23.2123 14.7284C22.8002 13.5895 22.2036 12.5373 21.4389 11.5882C19.9637 9.76596 17.9191 8.45891 15.6629 7.88945C15.7226 7.59116 15.7551 7.32541 15.7551 7.05966C15.7551 6.58783 15.6738 6.12141 15.5165 5.66584C18.3529 6.22445 20.9399 7.72675 22.849 9.93409C23.8469 11.0893 24.6279 12.3909 25.1648 13.8118C25.718 15.2653 26 16.811 26 18.3947ZM9.52357 28.6721C8.51481 28.3304 7.57113 27.8423 6.69796 27.224C5.78139 26.5678 4.9733 25.776 4.29537 24.8702C2.8907 22.9883 2.14768 20.7484 2.14768 18.4001C2.14768 16.4368 2.67918 14.5169 3.68794 12.8411C4.61535 11.2845 5.9224 9.98832 7.47351 9.06634C7.14268 8.43179 6.96913 7.74302 6.96913 7.05424C6.96913 7.00001 6.96913 6.9512 6.97455 6.89696C4.98415 7.94369 3.29203 9.48394 2.06633 11.3821C0.715895 13.4756 0 15.8999 0 18.3947C0 19.9566 0.276596 21.486 0.81894 22.9341C1.34501 24.3333 2.1043 25.6295 3.08052 26.7793C4.89737 28.9215 7.36504 30.4238 10.0768 31.053C9.69712 30.3967 9.50188 29.6646 9.50188 28.9161C9.50188 28.8293 9.51272 28.748 9.52357 28.6721ZM15.0284 27.2023L14.9091 27.121V26.9745V25.0167V22.7768V22.587L15.088 22.5219L20.0234 20.7322C20.4355 20.5803 20.7121 20.2061 20.7284 19.7668C20.7284 19.7505 20.7284 19.7397 20.7284 19.7234C20.7284 19.3058 20.4844 18.9207 20.1047 18.7472L10.836 14.4898L10.3805 14.2783L10.8035 14.0125L11.8665 13.3454C12.1919 13.1393 12.3926 12.7814 12.3709 12.4397V12.4343V12.4289L12.3546 10.9537L12.3383 9.0121V8.86025L12.4631 8.77889C13.0542 8.39925 13.4122 7.75386 13.4122 7.05424C13.4122 5.92074 12.4902 5.00418 11.3567 5.00418C10.2232 5.00418 9.30663 5.92617 9.30663 7.05424C9.30663 7.67251 9.58865 8.25824 10.0876 8.65416L10.1907 8.73551V8.86567L10.2123 10.9049L10.2178 11.7021V11.854L10.0876 11.9353L7.55486 13.5244C7.22403 13.7305 7.02879 14.1156 7.0559 14.5006C7.08302 14.8965 7.32165 15.2436 7.6796 15.4063L16.227 19.3383L16.829 19.6149L16.2053 19.8427L13.461 20.8352C13.038 20.9871 12.7559 21.3938 12.7559 21.844V25.0655V27.0722V27.2077L12.6475 27.2891C12.1322 27.685 11.834 28.2762 11.834 28.9107C11.834 30.0442 12.7559 30.9608 13.884 30.9608C15.0175 30.9608 15.9395 30.0388 15.9395 28.9107C15.9449 28.2273 15.6033 27.5874 15.0284 27.2023Z" fill="#37352F"/>
</g>
<defs>
<clipPath id="clip0">
<rect width="26" height="26.0542" fill="white" transform="translate(0 5)"/>
</clipPath>
</defs>
</svg>
