<svg width="26" height="27" viewBox="0 0 26 27" fill="none" xmlns="http://www.w3.org/2000/svg">
<g clip-path="url(#clip0)">
<path d="M26 13.3947C26 16.1172 25.1648 18.7205 23.5757 20.9333C22.811 21.9963 21.8999 22.9399 20.8531 23.7318C19.9746 24.3988 19.0254 24.9466 18.0113 25.3751C18.1848 24.8978 18.277 24.4097 18.277 23.9162C18.277 23.607 18.2336 23.2925 18.1523 22.9399C19.8118 22.0396 21.2111 20.7218 22.2144 19.1218C23.2829 17.408 23.8523 15.4285 23.8523 13.4055C23.8523 12.1419 23.6354 10.9053 23.2123 9.72844C22.8002 8.58951 22.2036 7.53737 21.4389 6.58827C19.9637 4.76599 17.9191 3.45894 15.6629 2.88948C15.7226 2.59119 15.7551 2.32544 15.7551 2.0597C15.7551 1.58786 15.6738 1.12144 15.5165 0.665871C18.3529 1.22449 20.9399 2.72678 22.849 4.93412C23.8469 6.08931 24.6279 7.39094 25.1648 8.81188C25.718 10.2654 26 11.811 26 13.3947ZM9.52357 23.6721C8.51481 23.3304 7.57113 22.8423 6.69796 22.224C5.78139 21.5678 4.9733 20.776 4.29537 19.8703C2.8907 17.9883 2.14768 15.7485 2.14768 13.4001C2.14768 11.4368 2.67918 9.51692 3.68794 7.84108C4.61535 6.28455 5.9224 4.98835 7.47351 4.06637C7.14268 3.43183 6.96913 2.74305 6.96913 2.05427C6.96913 2.00004 6.96913 1.95123 6.97455 1.89699C4.98415 2.94372 3.29203 4.48397 2.06633 6.38218C0.715895 8.47562 0 10.8999 0 13.3947C0 14.9566 0.276596 16.486 0.81894 17.9341C1.34501 19.3333 2.1043 20.6296 3.08052 21.7793C4.89737 23.9216 7.36504 25.4239 10.0768 26.053C9.69712 25.3968 9.50188 24.6646 9.50188 23.9162C9.50188 23.8294 9.51272 23.748 9.52357 23.6721ZM15.0284 22.2023L14.9091 22.121V21.9746V20.0167V17.7768V17.587L15.088 17.5219L20.0234 15.7322C20.4355 15.5803 20.7121 15.2061 20.7284 14.7668C20.7284 14.7505 20.7284 14.7397 20.7284 14.7234C20.7284 14.3058 20.4844 13.9208 20.1047 13.7472L10.836 9.48981L10.3805 9.27829L10.8035 9.01254L11.8665 8.34546C12.1919 8.13937 12.3926 7.78142 12.3709 7.43975V7.43432V7.4289L12.3546 5.95372L12.3383 4.01213V3.86028L12.4631 3.77893C13.0542 3.39928 13.4122 2.7539 13.4122 2.05427C13.4122 0.920773 12.4902 0.00421143 11.3567 0.00421143C10.2232 0.00421143 9.30663 0.926196 9.30663 2.05427C9.30663 2.67254 9.58865 3.25828 10.0876 3.65419L10.1907 3.73554V3.8657L10.2123 5.90491L10.2178 6.70216V6.85402L10.0876 6.93537L7.55486 8.52443C7.22403 8.73053 7.02879 9.11559 7.0559 9.50065C7.08302 9.89656 7.32165 10.2437 7.6796 10.4064L16.227 14.3384L16.829 14.615L16.2053 14.8427L13.461 15.8352C13.038 15.9871 12.7559 16.3938 12.7559 16.844V20.0655V22.0722V22.2078L12.6475 22.2891C12.1322 22.685 11.834 23.2762 11.834 23.9107C11.834 25.0442 12.7559 25.9608 13.884 25.9608C15.0175 25.9608 15.9395 25.0388 15.9395 23.9107C15.9449 23.2274 15.6033 22.5874 15.0284 22.2023Z" fill="#37352F"/>
</g>
<defs>
<clipPath id="clip0">
<rect width="26" height="26.0542" fill="white"/>
</clipPath>
</defs>
</svg>
