<svg width="16" height="16" viewBox="0 0 16 16" fill="none" xmlns="http://www.w3.org/2000/svg">
<path d="M2.69385 13.7744C2.95273 13.7744 3.1626 13.5646 3.1626 13.3057C3.1626 13.0468 2.95273 12.8369 2.69385 12.8369C2.43496 12.8369 2.2251 13.0468 2.2251 13.3057C2.2251 13.5646 2.43496 13.7744 2.69385 13.7744Z" fill="#37352F"/>
<path d="M12.6932 7.7035C13.521 7.58172 14.2721 7.20381 14.8653 6.61062C15.43 6.04594 15.8017 5.33306 15.9402 4.54909C16.0754 3.78335 15.9803 3.0045 15.6651 2.29675C15.5315 1.99657 15.1376 1.92375 14.9055 2.15597L12.9852 4.07616C12.906 4.15541 12.777 4.15541 12.6977 4.07616L11.9235 3.30194C11.8444 3.22281 11.8444 3.09406 11.9235 3.01494L13.844 1.0945C14.0764 0.862128 14.0031 0.468441 13.7032 0.334878C12.9954 0.019691 12.2165 -0.0754339 11.4508 0.059816C10.6668 0.198253 9.95386 0.569941 9.38914 1.13466C8.79595 1.72782 8.41802 2.47888 8.29624 3.30663C8.1957 3.98975 8.27592 4.67322 8.52802 5.30466L7.12186 6.45969L3.98177 3.31972L4.5342 2.76731C4.73217 2.56938 4.71349 2.24244 4.4938 2.06844L2.36842 0.385066C2.18189 0.237347 1.91421 0.252785 1.74592 0.421066L0.420113 1.74682C0.251832 1.91507 0.236332 2.18272 0.384113 2.36928L2.06755 4.49456C2.24155 4.71422 2.56827 4.73316 2.76646 4.53497L3.31886 3.98256L6.39399 7.05756L0.621769 11.799C-0.146699 12.4068 -0.213012 13.5503 0.479644 14.2429L1.75652 15.5198C2.44908 16.2123 3.59258 16.1462 4.20058 15.3777L8.94217 9.60566L9.41848 10.082L8.73336 10.7671C8.55727 10.9431 8.54961 11.2261 8.71586 11.4115L12.2879 15.3938C12.9904 16.1735 14.2022 16.2059 14.9451 15.463L15.4625 14.9456C16.2069 14.2012 16.1717 12.9806 15.3849 12.2806C15.3845 12.2803 15.3842 12.28 15.3839 12.2797L11.3832 8.73975C11.1977 8.57559 10.9164 8.58413 10.7411 8.75934L10.0814 9.41909L9.54005 8.87781L10.6951 7.47172C11.3266 7.72381 12.0101 7.804 12.6932 7.7035ZM2.47567 3.49997L1.37821 2.11447L2.11358 1.37913L3.49914 2.47653L2.47567 3.49997ZM11.0922 9.73403L14.7621 12.9812C14.9479 13.1467 15.0543 13.3748 15.0615 13.6236C15.0688 13.8725 14.9758 14.1066 14.7997 14.2827L14.2822 14.8002C14.1069 14.9755 13.8738 15.0687 13.6262 15.062C13.3784 15.0556 13.1505 14.9506 12.9851 14.7671L9.7102 11.116L11.0922 9.73403ZM10.1995 6.59822L8.54483 8.61244C8.54461 8.61269 8.54439 8.61297 8.54417 8.61322L3.47321 14.7862C3.47105 14.7888 3.46889 14.7915 3.46677 14.7942C3.20692 15.1251 2.71761 15.1551 2.41942 14.8569L1.14255 13.5801C0.84505 13.2826 0.873613 12.7932 1.20527 12.5328C1.20796 12.5307 1.21061 12.5285 1.21327 12.5263L7.38655 7.45547C7.38673 7.45531 7.38689 7.45519 7.38708 7.45503L9.40152 5.80031C9.57255 5.65984 9.62198 5.41888 9.52014 5.22241C8.92936 4.08278 9.14311 2.70644 10.052 1.79753C10.6118 1.23782 11.3695 0.940378 12.1358 0.940378C12.3009 0.940378 12.4665 0.954191 12.6305 0.982159L11.2605 2.35203C10.8159 2.79666 10.8159 3.52013 11.2605 3.96478L12.0348 4.739C12.4795 5.18375 13.2033 5.18381 13.6481 4.739L15.0178 3.36941C15.1755 4.29447 14.8827 5.26744 14.2024 5.94775C13.2934 6.85663 11.917 7.07034 10.7774 6.47963C10.581 6.37775 10.34 6.42719 10.1995 6.59822Z" fill="#37352F"/>
</svg>
