<svg width="16" height="16" viewBox="0 0 16 16" fill="none" xmlns="http://www.w3.org/2000/svg">
<path d="M13.625 5.65625C13.3031 5.65625 12.985 5.72341 12.6923 5.85019C12.1895 4.75716 11.2862 3.83206 10.1479 3.31113C10.2757 3.01744 10.3438 2.69825 10.3438 2.375C10.3438 1.07944 9.29581 0 8 0C6.70441 0 5.65625 1.07922 5.65625 2.375C5.65625 2.69812 5.72391 3.01734 5.85156 3.31094C4.72703 3.82569 3.81638 4.74444 3.30772 5.85016C3.01497 5.72341 2.69688 5.65625 2.375 5.65625C1.07941 5.65625 0 6.70422 0 8C0 9.29559 1.07922 10.3438 2.375 10.3438C2.69475 10.3438 3.01097 10.2774 3.30222 10.1522C3.78431 11.2074 4.66828 12.1597 5.84491 12.7003C5.72056 12.9892 5.65625 13.3015 5.65625 13.625C5.65625 14.9206 6.70422 16 8 16C9.2955 16 10.3438 14.9208 10.3438 13.625C10.3438 13.3015 10.2794 12.9892 10.1551 12.7003C11.2564 12.1943 12.18 11.2855 12.6978 10.1522C12.989 10.2774 13.3053 10.3438 13.625 10.3438C14.9206 10.3438 16 9.29578 16 8C16 6.70447 14.9208 5.65625 13.625 5.65625ZM8 10.3581C6.71459 10.3581 5.64909 9.30781 5.64909 8.00716C5.64909 6.72809 6.69325 5.65625 8 5.65625C9.27347 5.65625 10.3509 6.68322 10.3509 8.00716C10.3509 9.30013 9.29241 10.3581 8 10.3581ZM6.68175 3.99116C6.99213 3.88913 7.10556 3.50803 6.90134 3.25288C6.70013 3.0015 6.59375 2.69794 6.59375 2.375C6.59375 1.59578 7.23772 0.9375 8 0.9375C8.76228 0.9375 9.40625 1.59578 9.40625 2.375C9.40625 2.69791 9.29991 3.0015 9.09863 3.25291C8.89234 3.51094 9.01294 3.89128 9.31822 3.99116C9.57575 4.07578 9.82197 4.18416 10.0558 4.31484C9.88816 4.41956 9.74222 4.55953 9.62869 4.72984C9.55784 4.83609 9.50381 4.94916 9.46575 5.06594C9.01372 4.83975 8.51253 4.71875 8 4.71875C7.21031 4.71875 6.44675 5.00434 5.84997 5.52287C5.70566 5.64828 5.46 5.74328 5.24269 5.59841C4.99003 5.42997 4.95563 5.06406 5.1795 4.86266C5.61853 4.46766 6.12397 4.17447 6.68175 3.99116ZM3.98366 9.32438C3.88206 9.015 3.50278 8.90084 3.24725 9.10316C2.99691 9.30144 2.69531 9.40625 2.375 9.40625C1.59578 9.40625 0.9375 8.76228 0.9375 8C0.9375 7.23772 1.59578 6.59375 2.375 6.59375C2.69662 6.59375 2.99919 6.69931 3.25003 6.89909C3.50478 7.10191 3.88453 6.98919 3.987 6.67975C4.07119 6.42553 4.17853 6.18237 4.30766 5.95134C4.41234 6.119 4.55234 6.26494 4.72266 6.37847C4.82894 6.44931 4.94191 6.50344 5.05872 6.54147C4.83253 6.9935 4.71156 7.49466 4.71156 8.00712C4.71156 8.79681 4.99713 9.56038 5.51569 10.1572C5.64109 10.3015 5.73612 10.5471 5.59122 10.7644C5.4225 11.0175 5.05647 11.0511 4.85547 10.8276C4.46028 10.3883 4.16694 9.88256 3.98366 9.32438ZM9.32634 12.0205C9.01822 12.1224 8.90425 12.5003 9.10541 12.7556C9.30222 13.0054 9.40625 13.306 9.40625 13.625C9.40625 14.4042 8.76228 15.0625 8 15.0625C7.23772 15.0625 6.59375 14.4042 6.59375 13.625C6.59375 13.306 6.69778 13.0054 6.89459 12.7556C7.0955 12.5007 6.98222 12.1226 6.67366 12.0205C6.41906 11.9362 6.17556 11.8288 5.94419 11.6995C6.11184 11.5947 6.25778 11.4548 6.37134 11.2845C6.44219 11.1782 6.49622 11.0652 6.53428 10.9483C6.98634 11.1746 7.48753 11.2955 8.00003 11.2955C8.78975 11.2955 9.55328 11.0099 10.1501 10.4914C10.2943 10.366 10.5401 10.271 10.7573 10.4159C11.01 10.5843 11.0444 10.9502 10.8205 11.1517C10.3837 11.5447 9.88097 11.837 9.32634 12.0205ZM13.625 9.40625C13.3047 9.40625 13.0031 9.30144 12.7528 9.10316C12.4976 8.90097 12.118 9.01472 12.0164 9.32438C11.9317 9.58228 11.8232 9.82887 11.6923 10.063C11.5876 9.89534 11.4477 9.74941 11.2773 9.63587C11.1711 9.56503 11.058 9.51097 10.9412 9.47294C11.1674 9.02087 11.2884 8.51969 11.2884 8.00719C11.2884 7.21753 11.0028 6.45397 10.4843 5.85719C10.3589 5.71287 10.2639 5.46722 10.4088 5.24988C10.5755 4.99966 10.9411 4.96056 11.1445 5.18669C11.5372 5.62319 11.8294 6.12553 12.013 6.67978C12.0612 6.82525 12.1774 6.93797 12.3243 6.98169C12.471 7.02537 12.6301 6.99456 12.75 6.89909C13.0008 6.69931 13.3034 6.59375 13.625 6.59375C14.4042 6.59375 15.0625 7.23772 15.0625 8C15.0625 8.76228 14.4042 9.40625 13.625 9.40625Z" fill="#37352F"/>
</svg>
