<svg xmlns="http://www.w3.org/2000/svg" version="1.1" xmlns:xlink="http://www.w3.org/1999/xlink" xmlns:svgjs="http://svgjs.com/svgjs" width="512" height="512" x="0" y="0" viewBox="0 0 512 512" style="enable-background:new 0 0 512 512" xml:space="preserve"><g><g xmlns="http://www.w3.org/2000/svg"><path d="m151.033 55.7c0-30.713-24.987-55.7-55.7-55.7-73.894 3.06-73.873 108.352 0 111.4 30.714 0 55.7-24.987 55.7-55.7z" fill="#6b7280" data-original="#000000" style=""></path><path d="m190.667 223.867v-17.133c-5.252-126.505-185.462-126.407-190.667-.001v17.133c0 8.284 6.716 15 15 15h160.667c8.284.001 15-6.715 15-14.999z" fill="#6b7280" data-original="#000000" style=""></path><path d="m472.367 55.7c0-30.713-24.987-55.7-55.7-55.7-73.894 3.06-73.873 108.352 0 111.4 30.713 0 55.7-24.987 55.7-55.7z" fill="#6b7280" data-original="#000000" style=""></path><path d="m416.667 111.4c-52.567 0-95.333 42.767-95.333 95.333v17.133c0 8.284 6.716 15 15 15h160.666c8.284 0 15-6.716 15-15v-17.133c0-52.566-42.766-95.333-95.333-95.333z" fill="#6b7280" data-original="#000000" style=""></path><path d="m94.267 272.067c0-1.07.02-2.135.04-3.2h-30c-1.194 64.3 29.976 122.392 78.244 157.768 4.312-9.154 9.7-17.703 16-25.488-39.048-29.525-64.284-76.353-64.284-129.08z" fill="#6b7280" data-original="#000000" style=""></path><path d="m189.804 124.461c39.896-18.684 92.496-18.684 132.392 0 7.114-8.159 15.264-15.391 24.245-21.489-53.095-29.899-127.786-29.898-180.881 0 8.98 6.098 17.13 13.331 24.244 21.489z" fill="#6b7280" data-original="#000000" style=""></path><path d="m417.693 268.867c1.165 53.589-24.4 102.267-64.244 132.28 6.3 7.784 11.687 16.334 16 25.488 48.266-35.373 79.439-93.47 78.244-157.768z" fill="#6b7280" data-original="#000000" style=""></path><path d="m311.7 328.833c0-30.713-24.987-55.7-55.7-55.7-73.894 3.06-73.873 108.352 0 111.4 30.713 0 55.7-24.986 55.7-55.7z" fill="#6b7280" data-original="#000000" style=""></path><path d="m256 384.533c-52.567 0-95.333 42.767-95.333 95.333v17.134c0 8.284 6.716 15 15 15h160.667c8.284 0 15-6.716 15-15v-17.133c-.001-52.567-42.767-95.334-95.334-95.334z" fill="#6b7280" data-original="#000000" style=""></path></g></g></svg>