<svg width="13" height="14" viewBox="0 0 13 14" fill="none" xmlns="http://www.w3.org/2000/svg">
<path d="M12.24 2V3.25C12.24 4.35157 9.49876 5.25 6.12 5.25C2.74124 5.25 0 4.35157 0 3.25V2C0 0.898434 2.74124 0 6.12 0C9.49876 0 12.24 0.898434 12.24 2ZM12.24 4.8125V7.625C12.24 8.72657 9.49876 9.625 6.12 9.625C2.74124 9.625 0 8.72657 0 7.625V4.8125C1.31484 5.71875 3.7214 6.14064 6.12 6.14064C8.5186 6.14064 10.9251 5.71875 12.24 4.8125ZM12.24 9.1875V12C12.24 13.1016 9.49876 14 6.12 14C2.74124 14 0 13.1016 0 12V9.1875C1.31484 10.0938 3.7214 10.5156 6.12 10.5156C8.5186 10.5156 10.9251 10.0938 12.24 9.1875Z" fill="#B02AAC"/>
</svg>
