<svg width="14" height="16" viewBox="0 0 14 16" fill="none" xmlns="http://www.w3.org/2000/svg">
<path d="M6.57349 7.70728C7.63232 7.70728 8.54907 7.32751 9.29834 6.57825C10.0474 5.8291 10.4272 4.91248 10.4272 3.85352C10.4272 2.79492 10.0475 1.87817 9.29822 1.12878C8.54895 0.379761 7.6322 0 6.57349 0C5.51453 0 4.5979 0.379761 3.84875 1.12891C3.09961 1.87805 2.71973 2.7948 2.71973 3.85352C2.71973 4.91248 3.09961 5.82922 3.84875 6.57837C4.59814 7.32739 5.51489 7.70728 6.57349 7.70728ZM4.51184 1.79187C5.08667 1.21704 5.76099 0.937622 6.57349 0.937622C7.38586 0.937622 8.0603 1.21704 8.63525 1.79187C9.21008 2.36682 9.48962 3.04126 9.48962 3.85352C9.48962 4.66602 9.21008 5.34033 8.63525 5.91528C8.0603 6.49023 7.38586 6.76965 6.57349 6.76965C5.76123 6.76965 5.08691 6.49011 4.51184 5.91528C3.93689 5.34045 3.65735 4.66602 3.65735 3.85352C3.65735 3.04126 3.93689 2.36682 4.51184 1.79187Z" fill="#37352F"/>
<path d="M13.3165 12.3032C13.2949 11.9915 13.2512 11.6514 13.1869 11.2922C13.1219 10.9304 13.0383 10.5884 12.9382 10.2758C12.8347 9.95264 12.6942 9.63354 12.5203 9.32776C12.34 9.01038 12.1281 8.73401 11.8903 8.50659C11.6416 8.26868 11.3372 8.07739 10.9851 7.93787C10.6343 7.79907 10.2455 7.72876 9.82959 7.72876C9.66626 7.72876 9.5083 7.79578 9.20325 7.99438C9.0155 8.11682 8.7959 8.25842 8.55078 8.41504C8.34119 8.54858 8.05725 8.67371 7.70654 8.78699C7.36438 8.89771 7.01697 8.95386 6.67395 8.95386C6.33118 8.95386 5.98376 8.89771 5.64136 8.78699C5.29102 8.67383 5.00696 8.54871 4.79773 8.41516C4.55493 8.26001 4.33521 8.11841 4.14465 7.99426C3.83984 7.79565 3.68188 7.72864 3.51855 7.72864C3.10254 7.72864 2.71387 7.79907 2.36316 7.93799C2.01135 8.07727 1.70679 8.26855 1.45789 8.50671C1.22009 8.73425 1.00818 9.0105 0.828003 9.32776C0.654297 9.63354 0.513672 9.95251 0.410156 10.2759C0.310181 10.5885 0.226562 10.9304 0.161621 11.2922C0.097168 11.6509 0.0535889 11.9911 0.0319824 12.3036C0.0107422 12.6091 0 12.9271 0 13.2484C0 14.0836 0.265503 14.7598 0.789062 15.2584C1.30615 15.7505 1.99023 16 2.82239 16H10.5265C11.3584 16 12.0425 15.7505 12.5597 15.2584C13.0834 14.7601 13.3489 14.0837 13.3489 13.2483C13.3488 12.9259 13.3379 12.6079 13.3165 12.3032ZM11.9132 14.5791C11.5715 14.9043 11.1179 15.0624 10.5264 15.0624H2.82239C2.23071 15.0624 1.7771 14.9043 1.43555 14.5792C1.10046 14.2603 0.937622 13.8248 0.937622 13.2484C0.937622 12.9486 0.94751 12.6526 0.967285 12.3684C0.986572 12.0896 1.026 11.7833 1.08447 11.4579C1.14221 11.1365 1.2157 10.8348 1.3031 10.5618C1.38696 10.2999 1.50134 10.0406 1.64319 9.79089C1.77856 9.55286 1.93433 9.34863 2.1062 9.18408C2.26697 9.03015 2.4696 8.90417 2.70837 8.80969C2.9292 8.72229 3.17737 8.67444 3.44678 8.66724C3.47961 8.68469 3.53809 8.71802 3.63281 8.77979C3.82556 8.9054 4.04773 9.04871 4.29333 9.20557C4.57019 9.38208 4.92688 9.5415 5.35303 9.67908C5.7887 9.81995 6.23303 9.89148 6.67407 9.89148C7.11511 9.89148 7.55957 9.81995 7.995 9.6792C8.42151 9.54138 8.77808 9.38208 9.0553 9.20532C9.30664 9.04468 9.52258 8.90552 9.71533 8.77979C9.81006 8.71814 9.86853 8.68469 9.90137 8.66724C10.1709 8.67444 10.4191 8.72229 10.64 8.80969C10.8787 8.90417 11.0813 9.03027 11.2421 9.18408C11.4139 9.34851 11.5697 9.55273 11.7051 9.79102C11.847 10.0406 11.9615 10.3 12.0453 10.5616C12.1328 10.8351 12.2064 11.1366 12.264 11.4578C12.3224 11.7838 12.3619 12.0902 12.3812 12.3685V12.3688C12.4011 12.6519 12.4111 12.9478 12.4113 13.2484C12.4111 13.825 12.2483 14.2603 11.9132 14.5791Z" fill="#37352F"/>
</svg>
