<svg width="1792" height="1792" xmlns="http://www.w3.org/2000/svg">

 <g>
  <title>background</title>
  <rect fill="none" id="canvas_background" height="402" width="582" y="-1" x="-1"/>
 </g>
 <g>
  <title>Layer 1</title>
  <path fill="#ffffff" id="svg_1" d="m1024,1375l0,-190q0,-14 -9.5,-23.5t-22.5,-9.5l-192,0q-13,0 -22.5,9.5t-9.5,23.5l0,190q0,14 9.5,23.5t22.5,9.5l192,0q13,0 22.5,-9.5t9.5,-23.5zm-2,-374l18,-459q0,-12 -10,-19q-13,-11 -24,-11l-220,0q-11,0 -24,11q-10,7 -10,21l17,457q0,10 10,16.5t24,6.5l185,0q14,0 23.5,-6.5t10.5,-16.5zm-14,-934l768,1408q35,63 -2,126q-17,29 -46.5,46t-63.5,17l-1536,0q-34,0 -63.5,-17t-46.5,-46q-37,-63 -2,-126l768,-1408q17,-31 47,-49t65,-18t65,18t47,49z"/>
 </g>
</svg>