<svg width="14" height="14" viewBox="0 0 14 14" fill="none" xmlns="http://www.w3.org/2000/svg">
<path d="M13.3996 3.4C13.3996 4.72548 10.5342 5.8 6.99961 5.8C3.46499 5.8 0.599609 4.72548 0.599609 3.4M13.3996 3.4C13.3996 2.07452 10.5342 1 6.99961 1C3.46499 1 0.599609 2.07452 0.599609 3.4M13.3996 3.4V10.6C13.3996 11.9255 10.5342 13 6.99961 13C3.46499 13 0.599609 11.9255 0.599609 10.6V3.4M13.3996 7C13.3996 8.32548 10.5342 9.4 6.99961 9.4C3.46499 9.4 0.599609 8.32548 0.599609 7" stroke="#717680"/>
</svg>
