<svg width="13" height="11" viewBox="0 0 13 11" fill="none" xmlns="http://www.w3.org/2000/svg">
<path d="M10.5863 8.90696C10.314 8.95271 10.1303 9.21056 10.176 9.48288C10.2218 9.75521 10.4796 9.93889 10.752 9.89314L10.5863 8.90696ZM9.84347 5.25496C9.56733 5.25496 9.34347 5.47881 9.34347 5.75496C9.34347 6.0311 9.56733 6.25496 9.84347 6.25496V5.25496ZM9.22825 3.68848V4.18848C10.1202 4.18848 10.843 3.46524 10.843 2.57337H10.343H9.84304C9.84304 2.91322 9.56766 3.18848 9.22825 3.18848V3.68848ZM8.11346 2.57337H7.61346C7.61346 3.46524 8.33629 4.18848 9.22825 4.18848V3.68848V3.18848C8.88884 3.18848 8.61346 2.91322 8.61346 2.57337H8.11346ZM9.22825 1.45826V0.958265C8.33629 0.958265 7.61346 1.6815 7.61346 2.57337H8.11346H8.61346C8.61346 2.23352 8.88884 1.95826 9.22825 1.95826V1.45826ZM10.343 2.57337H10.843C10.843 1.6815 10.1202 0.958265 9.22825 0.958265V1.45826V1.95826C9.56766 1.95826 9.84304 2.23352 9.84304 2.57337H10.343ZM12.5 7.60943H12C12 7.92262 11.8999 8.18939 11.698 8.40115C11.4917 8.6176 11.1432 8.81341 10.5863 8.90696L10.6691 9.40005L10.752 9.89314C11.4628 9.77373 12.0297 9.50257 12.4219 9.09111C12.8185 8.67497 13 8.15292 13 7.60943H12.5ZM9.84347 5.75496V6.25496C10.4873 6.25496 11.0487 6.43795 11.4357 6.7081C11.8244 6.97942 12 7.30589 12 7.60943H12.5H13C13 6.88877 12.5809 6.28801 12.0081 5.88814C11.4336 5.4871 10.6668 5.25496 9.84347 5.25496V5.75496ZM6.00836 2.45294H5.50836C5.50836 3.22427 4.9921 3.68717 4.42789 3.68717V4.18717V4.68717C5.60941 4.68717 6.50836 3.7092 6.50836 2.45294H6.00836ZM4.42789 4.18717V3.68717C3.86367 3.68717 3.34742 3.22427 3.34742 2.45294H2.84742H2.34742C2.34742 3.7092 3.24636 4.68717 4.42789 4.68717V4.18717ZM2.84742 2.45294H3.34742C3.34742 2.06767 3.47892 1.7965 3.65893 1.62142C3.84203 1.44334 4.10766 1.33337 4.42789 1.33337V0.833374V0.333374C3.87524 0.333374 3.35064 0.526299 2.96172 0.904557C2.56972 1.28581 2.34742 1.82443 2.34742 2.45294H2.84742ZM4.42789 0.833374V1.33337C4.74811 1.33337 5.01374 1.44334 5.19684 1.62142C5.37686 1.7965 5.50836 2.06767 5.50836 2.45294H6.00836H6.50836C6.50836 1.82443 6.28605 1.28581 5.89405 0.904557C5.50513 0.526299 4.98053 0.333374 4.42789 0.333374V0.833374ZM8.54685 8.27862H8.04685C8.04685 8.56531 7.89344 8.8899 7.35555 9.17034C6.80112 9.45941 5.88669 9.66671 4.52342 9.66671L4.52342 10.1667L4.52342 10.6667C5.96436 10.6667 7.06164 10.4513 7.81787 10.0571C8.59064 9.65415 9.04685 9.0347 9.04685 8.27862H8.54685ZM4.52342 10.1667L4.52342 9.66671C3.16015 9.66671 2.24573 9.45941 1.69129 9.17034C1.1534 8.8899 1 8.56531 1 8.27862H0.5H0C0 9.0347 0.456206 9.65415 1.22898 10.0571C1.9852 10.4513 3.08249 10.6667 4.52342 10.6667L4.52342 10.1667ZM0.5 8.27862H1C1 8.06542 1.20328 7.71884 1.89084 7.39618C2.53874 7.09214 3.46895 6.89054 4.52342 6.89054V6.39054V5.89054C3.35582 5.89054 2.27432 6.11159 1.46602 6.49091C0.697397 6.8516 0 7.44907 0 8.27862H0.5ZM4.52342 6.39054V6.89054C5.57789 6.89054 6.5081 7.09214 7.156 7.39618C7.84357 7.71884 8.04685 8.06542 8.04685 8.27862H8.54685H9.04685C9.04685 7.44907 8.34945 6.8516 7.58082 6.49091C6.77253 6.11159 5.69103 5.89054 4.52342 5.89054V6.39054Z" fill="#175CD3"/>
</svg>
