<svg width="14" height="12" viewBox="0 0 14 12" fill="none" xmlns="http://www.w3.org/2000/svg">
<path d="M11.0863 9.4069C10.814 9.45265 10.6303 9.71049 10.676 9.98282C10.7218 10.2551 10.9796 10.4388 11.252 10.3931L11.0863 9.4069ZM10.3435 5.75489C10.0673 5.75489 9.84347 5.97875 9.84347 6.25489C9.84347 6.53104 10.0673 6.75489 10.3435 6.75489V5.75489ZM9.72825 4.18841V4.68841C10.6202 4.68841 11.343 3.96517 11.343 3.07331H10.843H10.343C10.343 3.41315 10.0677 3.68841 9.72825 3.68841V4.18841ZM8.61346 3.07331H8.11346C8.11346 3.96517 8.83629 4.68841 9.72825 4.68841V4.18841V3.68841C9.38884 3.68841 9.11346 3.41315 9.11346 3.07331H8.61346ZM9.72825 1.9582V1.4582C8.83629 1.4582 8.11346 2.18144 8.11346 3.07331H8.61346H9.11346C9.11346 2.73346 9.38884 2.4582 9.72825 2.4582V1.9582ZM10.843 3.07331H11.343C11.343 2.18144 10.6202 1.4582 9.72825 1.4582V1.9582V2.4582C10.0677 2.4582 10.343 2.73346 10.343 3.07331H10.843ZM13 8.10937H12.5C12.5 8.42255 12.3999 8.68933 12.198 8.90109C11.9917 9.11754 11.6432 9.31335 11.0863 9.4069L11.1691 9.89999L11.252 10.3931C11.9628 10.2737 12.5297 10.0025 12.9219 9.59105C13.3185 9.17491 13.5 8.65286 13.5 8.10937H13ZM10.3435 6.25489V6.75489C10.9873 6.75489 11.5487 6.93789 11.9357 7.20804C12.3244 7.47936 12.5 7.80583 12.5 8.10937H13H13.5C13.5 7.38871 13.0809 6.78795 12.5081 6.38807C11.9336 5.98704 11.1668 5.75489 10.3435 5.75489V6.25489ZM6.50836 2.95288H6.00836C6.00836 3.72421 5.4921 4.18711 4.92789 4.18711V4.68711V5.18711C6.10941 5.18711 7.00836 4.20914 7.00836 2.95288H6.50836ZM4.92789 4.68711V4.18711C4.36367 4.18711 3.84742 3.72421 3.84742 2.95288H3.34742H2.84742C2.84742 4.20914 3.74636 5.18711 4.92789 5.18711V4.68711ZM3.34742 2.95288H3.84742C3.84742 2.56761 3.97892 2.29644 4.15893 2.12136C4.34203 1.94328 4.60766 1.83331 4.92789 1.83331V1.33331V0.833313C4.37524 0.833313 3.85064 1.02624 3.46172 1.4045C3.06972 1.78575 2.84742 2.32437 2.84742 2.95288H3.34742ZM4.92789 1.33331V1.83331C5.24811 1.83331 5.51374 1.94328 5.69684 2.12136C5.87686 2.29644 6.00836 2.56761 6.00836 2.95288H6.50836H7.00836C7.00836 2.32437 6.78605 1.78575 6.39405 1.4045C6.00513 1.02624 5.48053 0.833313 4.92789 0.833313V1.33331ZM9.04685 8.77856H8.54685C8.54685 9.06525 8.39344 9.38984 7.85555 9.67028C7.30112 9.95935 6.38669 10.1666 5.02342 10.1666V10.6666V11.1666C6.46436 11.1666 7.56164 10.9513 8.31787 10.557C9.09064 10.1541 9.54685 9.53463 9.54685 8.77856H9.04685ZM5.02342 10.6666V10.1666C3.66015 10.1666 2.74573 9.95935 2.19129 9.67028C1.6534 9.38984 1.5 9.06525 1.5 8.77856H1H0.5C0.5 9.53463 0.956206 10.1541 1.72898 10.557C2.4852 10.9513 3.58249 11.1666 5.02342 11.1666V10.6666ZM1 8.77856H1.5C1.5 8.56536 1.70328 8.21878 2.39084 7.89612C3.03874 7.59208 3.96895 7.39048 5.02342 7.39048V6.89048V6.39048C3.85582 6.39048 2.77432 6.61153 1.96602 6.99084C1.1974 7.35154 0.5 7.94901 0.5 8.77856H1ZM5.02342 6.89048V7.39048C6.07789 7.39048 7.0081 7.59208 7.656 7.89612C8.34357 8.21878 8.54685 8.56536 8.54685 8.77856H9.04685H9.54685C9.54685 7.94901 8.84945 7.35154 8.08082 6.99084C7.27253 6.61153 6.19103 6.39048 5.02342 6.39048V6.89048Z" fill="#717680"/>
</svg>
