<svg viewBox="0 0 18 17" fill="none" xmlns="http://www.w3.org/2000/svg">
<path fill-rule="evenodd" clip-rule="evenodd" d="M10.6308 7.55905L10.2746 6.94095C9.97323 6.41795 9.30543 6.23753 8.78171 6.53762V6.53762C8.53241 6.68448 8.23494 6.72614 7.95489 6.65343C7.67484 6.58071 7.43521 6.39959 7.28885 6.15C7.1947 5.99136 7.1441 5.81066 7.14219 5.62619V5.62619C7.15068 5.33044 7.0391 5.04384 6.83287 4.83168C6.62663 4.61952 6.3433 4.49988 6.04742 4.5H5.32981C5.03994 4.5 4.76201 4.6155 4.55754 4.82096C4.35306 5.02642 4.23889 5.3049 4.24028 5.59476V5.59476C4.23169 6.19324 3.74406 6.67387 3.14552 6.67381C2.96105 6.67189 2.78035 6.6213 2.62171 6.52714V6.52714C2.09799 6.22705 1.43019 6.40747 1.12885 6.93048L0.746472 7.55905C0.445499 8.0814 0.623466 8.74878 1.14457 9.05191V9.05191C1.48329 9.24746 1.69195 9.60888 1.69195 10C1.69195 10.3911 1.48329 10.7525 1.14457 10.9481V10.9481C0.624128 11.2492 0.445966 11.9149 0.746472 12.4357V12.4357L1.1079 13.059C1.24909 13.3138 1.48598 13.5018 1.76615 13.5814C2.04633 13.6611 2.34668 13.6258 2.60076 13.4833V13.4833C2.85053 13.3376 3.14817 13.2977 3.42752 13.3724C3.70687 13.4472 3.94478 13.6304 4.08838 13.8814C4.18253 14.0401 4.23313 14.2208 4.23504 14.4052V14.4052C4.23504 15.0099 4.72519 15.5 5.32981 15.5H6.04742C6.65001 15.5 7.1393 15.0131 7.14219 14.4105V14.4105C7.14078 14.1197 7.25568 13.8404 7.46129 13.6348C7.6669 13.4292 7.94617 13.3143 8.23695 13.3157C8.42098 13.3206 8.60093 13.371 8.76076 13.4624V13.4624C9.28311 13.7634 9.95049 13.5854 10.2536 13.0643V13.0643L10.6308 12.4357C10.7767 12.1851 10.8168 11.8867 10.7421 11.6065C10.6674 11.3263 10.484 11.0875 10.2327 10.9429V10.9429C9.9813 10.7982 9.79796 10.5594 9.72324 10.2792C9.64852 9.999 9.68859 9.70057 9.83457 9.45C9.9295 9.28426 10.0669 9.14684 10.2327 9.05191V9.05191C10.7506 8.74894 10.9282 8.08546 10.6308 7.56429V7.56429V7.55905Z" stroke="currentColor" stroke-width="1.2" stroke-linecap="round" stroke-linejoin="round"/>
<circle cx="5.69119" cy="9.99978" r="1.50857" stroke="currentColor" stroke-width="1.2" stroke-linecap="round" stroke-linejoin="round"/>
<path d="M13.2959 0.5L13.8852 2.03221C14.0262 2.39882 14.0967 2.58213 14.2064 2.73632C14.3035 2.87298 14.4229 2.99237 14.5596 3.08954C14.7138 3.19918 14.8971 3.26968 15.2637 3.41069L16.7959 4L15.2637 4.58931C14.8971 4.73032 14.7138 4.80082 14.5596 4.91046C14.4229 5.00763 14.3035 5.12702 14.2064 5.26368C14.0967 5.41787 14.0262 5.60118 13.8852 5.96779L13.2959 7.5L12.7066 5.96779C12.5656 5.60118 12.4951 5.41787 12.3854 5.26368C12.2883 5.12702 12.1689 5.00763 12.0322 4.91046C11.878 4.80082 11.6947 4.73032 11.3281 4.58931L9.7959 4L11.3281 3.41069C11.6947 3.26968 11.878 3.19918 12.0322 3.08954C12.1689 2.99237 12.2883 2.87298 12.3854 2.73632C12.4951 2.58213 12.5656 2.39882 12.7066 2.03221L13.2959 0.5Z" stroke="currentColor" stroke-linecap="round" stroke-linejoin="round"/>
</svg>
