<svg viewBox="0 0 17 16" fill="none" xmlns="http://www.w3.org/2000/svg">
<path d="M10.3835 0.583008L14.5835 4.58301L12.4835 6.58301M4.7835 0.583008L0.583496 4.58301L4.7835 8.58301" stroke="currentColor" stroke-width="1.16655" stroke-linecap="round" stroke-linejoin="round"/>
<path fill-rule="evenodd" clip-rule="evenodd" d="M16.116 8.85397L15.8622 8.41347C15.6474 8.04073 15.1715 7.91214 14.7982 8.12601V8.12601C14.6206 8.23068 14.4085 8.26037 14.209 8.20855C14.0094 8.15673 13.8386 8.02764 13.7343 7.84976C13.6672 7.7367 13.6311 7.60792 13.6298 7.47645V7.47645C13.6358 7.26567 13.5563 7.06141 13.4093 6.91021C13.2623 6.75901 13.0604 6.67374 12.8495 6.67383H12.3381C12.1315 6.67383 11.9334 6.75615 11.7877 6.90258C11.642 7.049 11.5606 7.24747 11.5616 7.45405V7.45405C11.5555 7.88058 11.2079 8.22312 10.7814 8.22308C10.6499 8.22171 10.5211 8.18565 10.4081 8.11855V8.11855C10.0348 7.90468 9.55888 8.03326 9.34412 8.406L9.0716 8.85397C8.8571 9.22625 8.98394 9.70188 9.35532 9.91792V9.91792C9.59673 10.0573 9.74544 10.3149 9.74544 10.5936C9.74544 10.8724 9.59673 11.1299 9.35532 11.2693V11.2693C8.98441 11.4839 8.85744 11.9584 9.0716 12.3295V12.3295L9.32919 12.7738C9.42981 12.9553 9.59864 13.0893 9.79832 13.1461C9.998 13.2028 10.2121 13.1776 10.3931 13.0761V13.0761C10.5711 12.9723 10.7833 12.9438 10.9824 12.9971C11.1814 13.0504 11.351 13.181 11.4533 13.3599C11.5204 13.4729 11.5565 13.6017 11.5579 13.7332V13.7332C11.5579 14.1641 11.9072 14.5134 12.3381 14.5134H12.8495C13.279 14.5134 13.6277 14.1664 13.6298 13.7369V13.7369C13.6288 13.5297 13.7106 13.3306 13.8572 13.1841C14.0037 13.0376 14.2027 12.9557 14.41 12.9567C14.5411 12.9602 14.6694 12.9961 14.7833 13.0612V13.0612C15.1556 13.2757 15.6312 13.1489 15.8472 12.7775V12.7775L16.116 12.3295C16.2201 12.1509 16.2486 11.9383 16.1954 11.7386C16.1421 11.5389 16.0114 11.3686 15.8323 11.2656V11.2656C15.6532 11.1625 15.5225 10.9923 15.4692 10.7926C15.416 10.5929 15.4445 10.3802 15.5486 10.2016C15.6162 10.0835 15.7142 9.98557 15.8323 9.91792V9.91792C16.2015 9.702 16.328 9.22914 16.116 8.85771V8.85771V8.85397Z" stroke="currentColor" stroke-linecap="round" stroke-linejoin="round"/>
<circle cx="12.5956" cy="10.5927" r="1.07514" stroke="currentColor" stroke-linecap="round" stroke-linejoin="round"/>
</svg>
