<svg viewBox="0 0 20 20" fill="none" xmlns="http://www.w3.org/2000/svg">
<path d="M15.5963 13.1995V11.5998C15.5963 9.33757 15.5963 8.2064 14.8934 7.50359C14.1906 6.80078 13.0595 6.80078 10.7972 6.80078H9.1975C6.9352 6.80078 5.80405 6.80078 5.10124 7.50359C4.39844 8.2064 4.39844 9.33757 4.39844 11.5998V13.1995C4.39844 15.4618 4.39844 16.5929 5.10124 17.2958C5.80405 17.9986 6.9352 17.9986 9.1975 17.9986H10.7972C13.0595 17.9986 14.1906 17.9986 14.8934 17.2958C15.5963 16.5929 15.5963 15.4618 15.5963 13.1995Z" stroke="currentColor" stroke-width="1.3" stroke-linecap="round" stroke-linejoin="round"/>
<path d="M15.6016 14.7991C16.7327 14.7991 17.2983 14.7991 17.6497 14.4477C18.0011 14.0962 18.0011 13.5307 18.0011 12.3995C18.0011 11.2684 18.0011 10.7028 17.6497 10.3514C17.2983 10 16.7327 10 15.6016 10" stroke="currentColor" stroke-width="1.3" stroke-linecap="round" stroke-linejoin="round"/>
<path d="M4.39953 14.7991C3.26838 14.7991 2.70281 14.7991 2.3514 14.4477C2 14.0962 2 13.5307 2 12.3995C2 11.2684 2 10.7028 2.3514 10.3514C2.70281 10 3.26838 10 4.39953 10" stroke="currentColor" stroke-width="1.3" stroke-linecap="round" stroke-linejoin="round"/>
<path d="M11.2003 3.19977C11.2003 3.86238 10.6631 4.39953 10.0005 4.39953C9.33796 4.39953 8.80078 3.86238 8.80078 3.19977C8.80078 2.53715 9.33796 2 10.0005 2C10.6631 2 11.2003 2.53715 11.2003 3.19977Z" stroke="currentColor" stroke-width="1.3" stroke-linecap="round" stroke-linejoin="round"/>
<path d="M10 4.39844V6.79797" stroke="currentColor" stroke-width="1.3" stroke-linecap="round" stroke-linejoin="round"/>
<path d="M7.60156 10.8008V11.6006" stroke="currentColor" stroke-width="1.3" stroke-linecap="round" stroke-linejoin="round"/>
<path d="M12.3984 10.8008V11.6006" stroke="currentColor" stroke-width="1.3" stroke-linecap="round" stroke-linejoin="round"/>
<path d="M8.40234 14.4023C8.40234 14.4023 8.9356 14.8023 10.002 14.8023C11.0685 14.8023 11.6017 14.4023 11.6017 14.4023" stroke="currentColor" stroke-width="1.3" stroke-linecap="round" stroke-linejoin="round"/>
</svg>
