<svg viewBox="0 0 12 12" fill="none" xmlns="http://www.w3.org/2000/svg">
<path d="M5.45 1.875H9.465C10.0811 1.875 10.3891 1.875 10.6244 1.99489C10.8314 2.10035 10.9996 2.26863 11.1051 2.47561C11.225 2.71091 11.225 3.01894 11.225 3.635V4.35C11.225 4.86254 11.225 5.1188 11.1413 5.32095C11.0296 5.59048 10.8155 5.80462 10.546 5.91627C10.3438 6 10.0875 6 9.575 6M6.55 10.125H2.535C1.91894 10.125 1.61091 10.125 1.37561 10.0051C1.16863 9.89965 1.00035 9.73137 0.894893 9.52439C0.775 9.28909 0.775 8.98106 0.775 8.365V7.65C0.775 7.13746 0.775 6.8812 0.858733 6.67905C0.970376 6.40952 1.18452 6.19538 1.45405 6.08373C1.6562 6 1.91246 6 2.425 6M5.065 7.375H6.935C7.08901 7.375 7.16602 7.375 7.22485 7.34503C7.27659 7.31866 7.31866 7.27659 7.34503 7.22485C7.375 7.16602 7.375 7.08901 7.375 6.935V5.065C7.375 4.91099 7.375 4.83398 7.34503 4.77515C7.31866 4.72341 7.27659 4.68134 7.22485 4.65497C7.16602 4.625 7.08901 4.625 6.935 4.625H5.065C4.91099 4.625 4.83398 4.625 4.77515 4.65497C4.72341 4.68134 4.68134 4.72341 4.65497 4.77515C4.625 4.83398 4.625 4.91099 4.625 5.065V6.935C4.625 7.08901 4.625 7.16602 4.65497 7.22485C4.68134 7.27659 4.72341 7.31866 4.77515 7.34503C4.83398 7.375 4.91099 7.375 5.065 7.375ZM9.19 11.5H11.06C11.214 11.5 11.291 11.5 11.3498 11.47C11.4016 11.4437 11.4437 11.4016 11.47 11.3498C11.5 11.291 11.5 11.214 11.5 11.06V9.19C11.5 9.03599 11.5 8.95898 11.47 8.90015C11.4437 8.84841 11.4016 8.80634 11.3498 8.77997C11.291 8.75 11.214 8.75 11.06 8.75H9.19C9.03599 8.75 8.95898 8.75 8.90015 8.77997C8.84841 8.80634 8.80634 8.84841 8.77997 8.90015C8.75 8.95898 8.75 9.03599 8.75 9.19V11.06C8.75 11.214 8.75 11.291 8.77997 11.3498C8.80634 11.4016 8.84841 11.4437 8.90015 11.47C8.95898 11.5 9.03599 11.5 9.19 11.5ZM0.94 3.25H2.81C2.96401 3.25 3.04102 3.25 3.09985 3.22003C3.15159 3.19366 3.19366 3.15159 3.22003 3.09985C3.25 3.04102 3.25 2.96401 3.25 2.81V0.94C3.25 0.785986 3.25 0.708978 3.22003 0.650153C3.19366 0.598408 3.15159 0.556338 3.09985 0.529973C3.04102 0.5 2.96401 0.5 2.81 0.5H0.94C0.785986 0.5 0.708978 0.5 0.650153 0.529973C0.598408 0.556338 0.556338 0.598408 0.529973 0.650153C0.5 0.708978 0.5 0.785986 0.5 0.94V2.81C0.5 2.96401 0.5 3.04102 0.529973 3.09985C0.556338 3.15159 0.598408 3.19366 0.650153 3.22003C0.708978 3.25 0.785986 3.25 0.94 3.25Z" stroke="currentColor" stroke-linecap="round" stroke-linejoin="round"/>
</svg>
