<svg viewBox="0 0 19 16" fill="none" xmlns="http://www.w3.org/2000/svg">
<path d="M11.7543 5.06413C11.7543 5.99647 9.23498 6.75228 6.12717 6.75228C3.01937 6.75228 0.5 5.99647 0.5 5.06413M11.7543 5.06413C11.7543 4.13179 9.23498 3.37598 6.12717 3.37598C3.01937 3.37598 0.5 4.13179 0.5 5.06413M11.7543 5.06413V12.9422C11.7543 13.8763 9.25338 14.6303 6.12717 14.6303C3.00097 14.6303 0.5 13.8763 0.5 12.9422V5.06413M11.7543 9.00315C11.7543 9.93726 9.25338 10.6913 6.12717 10.6913C3.00097 10.6913 0.5 9.93726 0.5 9.00315" stroke="currentColor" stroke-linecap="round" stroke-linejoin="round"/>
<circle cx="12.8796" cy="5.62717" r="5.62717" fill="#F0FDF9"/>
<path d="M17.5068 6.9821L16.5934 6.09321L15.6794 6.9821M16.7302 6.31543C16.7302 8.52457 14.8893 10.3154 12.6185 10.3154C10.3477 10.3154 8.50684 8.52457 8.50684 6.31543C8.50684 4.10629 10.3477 2.31543 12.6185 2.31543C14.127 2.31543 15.4458 3.10571 16.1612 4.28391M12.6185 4.09321V6.31543L13.9891 7.20432" stroke="currentColor" stroke-linecap="round" stroke-linejoin="round"/>
</svg>
