<svg viewBox="0 0 17 16" fill="none" xmlns="http://www.w3.org/2000/svg">
<path d="M12.4057 14.583C13.7125 14.583 14.3659 14.583 14.865 14.3287C15.3041 14.105 15.661 13.748 15.8847 13.309C16.1391 12.8099 16.1391 12.1565 16.1391 10.8497V4.31634C16.1391 3.00955 16.1391 2.35616 15.8847 1.85703C15.661 1.41799 15.3041 1.06103 14.865 0.837327C14.3659 0.583009 13.7125 0.583009 12.4057 0.583009L4.31683 0.583008C3.01004 0.583008 2.35665 0.583008 1.85752 0.837326C1.41847 1.06103 1.06152 1.41798 0.837814 1.85703C0.583496 2.35616 0.583496 3.00955 0.583496 4.31634L0.583496 10.8497C0.583496 12.1565 0.583496 12.8099 0.837814 13.309C1.06152 13.748 1.41847 14.105 1.85752 14.3287C2.35665 14.583 3.01004 14.583 4.31683 14.583H12.4057Z" stroke="currentColor" stroke-width="1.16655" stroke-linecap="round" stroke-linejoin="round"/>
<path d="M11.9791 8.55536C11.7562 9.08245 11.4077 9.54691 10.964 9.90815C10.5202 10.2694 9.99478 10.5164 9.43355 10.6276C8.87232 10.7388 8.29241 10.7107 7.74451 10.546C7.19661 10.3812 6.69741 10.0846 6.29055 9.6823C5.88369 9.27996 5.58156 8.78405 5.41057 8.23793C5.23958 7.69181 5.20494 7.11211 5.30968 6.5495C5.41442 5.9869 5.65535 5.45852 6.0114 5.01057C6.36746 4.56262 6.82779 4.20873 7.35217 3.97984M11.9891 5.8518C12.1294 6.1904 12.2154 6.54836 12.2446 6.91253C12.2518 7.0025 12.2554 7.04749 12.2375 7.08801C12.2226 7.12186 12.193 7.15389 12.1605 7.17147C12.1215 7.19251 12.0729 7.19252 11.9756 7.19252H9.0334C8.93532 7.19252 8.88628 7.19252 8.84882 7.17342C8.81587 7.15663 8.78908 7.12983 8.77229 7.09687C8.7532 7.0594 8.7532 7.01034 8.7532 6.91224V3.96933C8.7532 3.87198 8.7532 3.82331 8.77424 3.78435C8.79181 3.7518 8.82384 3.72223 8.85768 3.70731C8.89819 3.68944 8.94316 3.69305 9.03311 3.70026C9.39719 3.72946 9.75506 3.81549 10.0936 3.95574C10.5185 4.13181 10.9046 4.38987 11.2299 4.7152C11.5551 5.04052 11.8131 5.42674 11.9891 5.8518Z" stroke="currentColor" stroke-width="1.16655" stroke-linecap="round" stroke-linejoin="round"/>
</svg>
