<svg viewBox="0 0 22 20" fill="none" xmlns="http://www.w3.org/2000/svg">
<path d="M12.4057 14.583C13.7125 14.583 14.3659 14.583 14.865 14.3287C15.3041 14.105 15.661 13.748 15.8847 13.309C16.1391 12.8099 16.1391 12.1565 16.1391 10.8497V4.31634C16.1391 3.00955 16.1391 2.35616 15.8847 1.85703C15.661 1.41799 15.3041 1.06103 14.865 0.837327C14.3659 0.583009 13.7125 0.583009 12.4057 0.583009L4.31683 0.583008C3.01004 0.583008 2.35665 0.583008 1.85752 0.837326C1.41847 1.06103 1.06152 1.41798 0.837814 1.85703C0.583496 2.35616 0.583496 3.00955 0.583496 4.31634L0.583496 10.8497C0.583496 12.1565 0.583496 12.8099 0.837814 13.309C1.06152 13.748 1.41847 14.105 1.85752 14.3287C2.35665 14.583 3.01004 14.583 4.31683 14.583H12.4057Z" stroke="currentColor" stroke-width="1.16655" stroke-linecap="round" stroke-linejoin="round"/>
<path d="M11.9791 8.55536C11.7562 9.08245 11.4077 9.54691 10.964 9.90815C10.5202 10.2694 9.99478 10.5164 9.43355 10.6276C8.87232 10.7388 8.29241 10.7107 7.74451 10.546C7.19661 10.3812 6.69741 10.0846 6.29055 9.6823C5.88369 9.27996 5.58156 8.78405 5.41057 8.23793C5.23958 7.69181 5.20494 7.11211 5.30968 6.5495C5.41442 5.9869 5.65535 5.45852 6.0114 5.01057C6.36746 4.56262 6.82779 4.20873 7.35217 3.97984M11.9891 5.8518C12.1294 6.1904 12.2154 6.54836 12.2446 6.91253C12.2518 7.0025 12.2554 7.04749 12.2375 7.08801C12.2226 7.12186 12.193 7.15389 12.1605 7.17147C12.1215 7.19251 12.0729 7.19252 11.9756 7.19252H9.0334C8.93532 7.19252 8.88628 7.19252 8.84882 7.17342C8.81587 7.15663 8.78908 7.12983 8.77229 7.09687C8.7532 7.0594 8.7532 7.01034 8.7532 6.91224V3.96933C8.7532 3.87198 8.7532 3.82331 8.77424 3.78435C8.79181 3.7518 8.82384 3.72223 8.85768 3.70731C8.89819 3.68944 8.94316 3.69305 9.03311 3.70026C9.39719 3.72946 9.75506 3.81549 10.0936 3.95574C10.5185 4.13181 10.9046 4.38987 11.2299 4.7152C11.5551 5.04052 11.8131 5.42674 11.9891 5.8518Z" stroke="currentColor" stroke-width="1.16655" stroke-linecap="round" stroke-linejoin="round"/>
<circle cx="16.2656" cy="14.583" r="5" fill="#EFF8FF"/>
<path fill-rule="evenodd" clip-rule="evenodd" d="M19.7322 12.7632L19.4784 12.3226C19.2636 11.9499 18.7877 11.8213 18.4144 12.0352V12.0352C18.2368 12.1399 18.0248 12.1696 17.8252 12.1177C17.6256 12.0659 17.4548 11.9368 17.3505 11.7589C17.2834 11.6459 17.2473 11.5171 17.246 11.3856V11.3856C17.252 11.1748 17.1725 10.9706 17.0255 10.8194C16.8785 10.6682 16.6766 10.5829 16.4657 10.583H15.9543C15.7477 10.583 15.5496 10.6653 15.4039 10.8118C15.2582 10.9582 15.1768 11.1566 15.1778 11.3632V11.3632C15.1717 11.7898 14.8242 12.1323 14.3976 12.1323C14.2661 12.1309 14.1373 12.0948 14.0243 12.0277V12.0277C13.651 11.8139 13.1751 11.9424 12.9603 12.3152L12.6878 12.7632C12.4733 13.1354 12.6002 13.6111 12.9715 13.8271V13.8271C13.2129 13.9665 13.3616 14.224 13.3616 14.5028C13.3616 14.7815 13.2129 15.0391 12.9715 15.1785V15.1785C12.6006 15.3931 12.4736 15.8675 12.6878 16.2387V16.2387L12.9454 16.6829C13.046 16.8645 13.2149 16.9985 13.4145 17.0552C13.6142 17.112 13.8283 17.0868 14.0093 16.9853V16.9853C14.1874 16.8815 14.3995 16.853 14.5986 16.9063C14.7977 16.9596 14.9672 17.0901 15.0696 17.269C15.1367 17.3821 15.1727 17.5109 15.1741 17.6424V17.6424C15.1741 18.0733 15.5234 18.4226 15.9543 18.4226H16.4657C16.8952 18.4226 17.2439 18.0755 17.246 17.6461V17.6461C17.245 17.4389 17.3268 17.2398 17.4734 17.0933C17.6199 16.9467 17.819 16.8649 18.0262 16.8659C18.1573 16.8694 18.2856 16.9053 18.3995 16.9704V16.9704C18.7718 17.1849 19.2474 17.0581 19.4634 16.6867V16.6867L19.7322 16.2387C19.8363 16.0601 19.8648 15.8474 19.8116 15.6477C19.7583 15.448 19.6277 15.2778 19.4485 15.1748V15.1748C19.2694 15.0717 19.1387 14.9015 19.0855 14.7018C19.0322 14.5021 19.0608 14.2894 19.1648 14.1108C19.2324 13.9927 19.3304 13.8948 19.4485 13.8271V13.8271C19.8177 13.6112 19.9442 13.1383 19.7322 12.7669V12.7669V12.7632Z" stroke="currentColor" stroke-linecap="round" stroke-linejoin="round"/>
<circle cx="16.2119" cy="14.5019" r="1.07514" stroke="currentColor" stroke-linecap="round" stroke-linejoin="round"/>
</svg>
