<svg viewBox="0 0 19 17" fill="none" xmlns="http://www.w3.org/2000/svg">
<path d="M11.9471 2.28755C11.9471 3.22895 9.40329 3.9921 6.26531 3.9921C3.12733 3.9921 0.583496 3.22895 0.583496 2.28755M11.9471 2.28755C11.9471 1.34616 9.40329 0.583008 6.26531 0.583008C3.12733 0.583008 0.583496 1.34616 0.583496 2.28755M11.9471 2.28755V10.2421C11.9471 11.1853 9.42187 11.9466 6.26531 11.9466C3.10875 11.9466 0.583496 11.1853 0.583496 10.2421V2.28755M11.9471 6.26482C11.9471 7.208 9.42187 7.96937 6.26531 7.96937C3.10875 7.96937 0.583496 7.208 0.583496 6.26482" stroke="currentColor" stroke-width="1.16655" stroke-linecap="round" stroke-linejoin="round"/>
<circle cx="12.4209" cy="10.5264" r="6.1553" fill="#FDF2FA"/>
<path fill-rule="evenodd" clip-rule="evenodd" d="M17.4184 8.14214L17.0896 7.57159C16.8115 7.08881 16.195 6.92226 15.7116 7.19927V7.19927C15.4814 7.33483 15.2068 7.3733 14.9483 7.30617C14.6898 7.23905 14.4686 7.07186 14.3335 6.84146C14.2466 6.69502 14.1999 6.52822 14.1981 6.35794V6.35794C14.206 6.08493 14.103 5.82037 13.9126 5.62453C13.7222 5.42869 13.4607 5.31825 13.1876 5.31836H12.5251C12.2576 5.31836 12.001 5.42498 11.8123 5.61464C11.6235 5.8043 11.5181 6.06135 11.5194 6.32893V6.32893C11.5115 6.88137 11.0613 7.32504 10.5088 7.32499C10.3386 7.32322 10.1718 7.27652 10.0253 7.1896V7.1896C9.54188 6.91259 8.92543 7.07914 8.64727 7.56191L8.2943 8.14214C8.01647 8.62432 8.18075 9.24037 8.66178 9.52019V9.52019C8.97445 9.70071 9.16706 10.0343 9.16706 10.3954C9.16706 10.7564 8.97445 11.09 8.66178 11.2705V11.2705C8.18136 11.5485 8.0169 12.163 8.2943 12.6438V12.6438L8.62793 13.2192C8.75826 13.4543 8.97693 13.6279 9.23556 13.7014C9.49419 13.7749 9.77144 13.7423 10.006 13.6108V13.6108C10.2365 13.4763 10.5113 13.4394 10.7691 13.5084C11.027 13.5774 11.2466 13.7466 11.3792 13.9783C11.4661 14.1247 11.5128 14.2915 11.5146 14.4618V14.4618C11.5146 15.0199 11.967 15.4724 12.5251 15.4724H13.1876C13.7438 15.4724 14.1955 15.0229 14.1981 14.4666V14.4666C14.1968 14.1982 14.3029 13.9404 14.4927 13.7506C14.6825 13.5608 14.9403 13.4548 15.2087 13.4561C15.3786 13.4606 15.5447 13.5071 15.6922 13.5915V13.5915C16.1744 13.8693 16.7905 13.705 17.0703 13.224V13.224L17.4184 12.6438C17.5532 12.4125 17.5902 12.137 17.5212 11.8783C17.4522 11.6197 17.283 11.3992 17.0509 11.2657V11.2657C16.8189 11.1322 16.6497 10.9117 16.5807 10.6531C16.5117 10.3944 16.5487 10.119 16.6835 9.88767C16.7711 9.73467 16.8979 9.60782 17.0509 9.52019V9.52019C17.5291 9.24053 17.693 8.62807 17.4184 8.14698V8.14698V8.14214Z" stroke="currentColor" stroke-linecap="round" stroke-linejoin="round"/>
<circle cx="12.8589" cy="10.3945" r="1.39255" stroke="currentColor" stroke-linecap="round" stroke-linejoin="round"/>
</svg>
