<svg width="14" height="13" viewBox="0 0 14 13" fill="none" xmlns="http://www.w3.org/2000/svg">
<path d="M11.2035 9.21428C12.0271 8.71882 12.5835 7.77411 12.5835 6.69015C12.5835 5.18357 11.5086 3.94598 10.1357 3.80975C9.85481 1.97938 8.37135 0.583008 6.5835 0.583008C4.79564 0.583008 3.31219 1.97938 3.03134 3.80975C1.6584 3.94598 0.583496 5.18357 0.583496 6.69015C0.583496 7.59753 0.973403 8.40733 1.5835 8.93772" stroke="#BA24D5" stroke-width="1.16655" stroke-linecap="round" stroke-linejoin="round"/>
<path fill-rule="evenodd" clip-rule="evenodd" d="M9.49618 7.3862L9.28622 7.02186C9.1086 6.71357 8.71495 6.60721 8.40624 6.78411V6.78411C8.25929 6.87067 8.08394 6.89523 7.91886 6.85237C7.75378 6.80951 7.61253 6.70274 7.52626 6.55562C7.47076 6.4621 7.44094 6.35559 7.43981 6.24685V6.24685C7.44481 6.07252 7.37904 5.90358 7.25747 5.77852C7.13591 5.65346 6.96889 5.58294 6.79449 5.58301H6.37148C6.20061 5.58301 6.03679 5.65109 5.91626 5.7722C5.79572 5.89331 5.72842 6.05746 5.72924 6.22833V6.22833C5.72418 6.58111 5.43674 6.86442 5.08392 6.86438C4.97519 6.86326 4.86867 6.83343 4.77516 6.77793V6.77793C4.46645 6.60104 4.0728 6.70739 3.89518 7.01568L3.66978 7.3862C3.49237 7.6941 3.59727 8.0875 3.90444 8.26618V8.26618C4.1041 8.38146 4.2271 8.59449 4.2271 8.82505C4.2271 9.0556 4.1041 9.26864 3.90444 9.38391V9.38391C3.59766 9.56139 3.49264 9.95383 3.66978 10.2608V10.2608L3.88283 10.6282C3.96605 10.7784 4.10569 10.8892 4.27084 10.9362C4.43599 10.9831 4.61304 10.9623 4.76281 10.8783V10.8783C4.91004 10.7924 5.08548 10.7689 5.25015 10.813C5.41482 10.857 5.55506 10.965 5.6397 11.113C5.6952 11.2065 5.72503 11.313 5.72616 11.4218V11.4218C5.72616 11.7782 6.01508 12.0671 6.37148 12.0671H6.79449C7.14968 12.0671 7.43811 11.78 7.43981 11.4249V11.4249C7.43898 11.2535 7.5067 11.0888 7.6279 10.9676C7.7491 10.8464 7.91372 10.7787 8.08513 10.7795C8.1936 10.7824 8.29968 10.8121 8.39389 10.866V10.866C8.7018 11.0434 9.09519 10.9385 9.27387 10.6313V10.6313L9.49618 10.2608C9.58224 10.1131 9.60585 9.93719 9.56181 9.77203C9.51776 9.60686 9.40969 9.46607 9.26152 9.38082V9.38082C9.11335 9.29558 9.00528 9.15479 8.96124 8.98962C8.91719 8.82445 8.94081 8.64854 9.02686 8.50084C9.08282 8.40314 9.16382 8.32214 9.26152 8.26618V8.26618C9.56685 8.08759 9.67151 7.6965 9.49618 7.38929V7.38929V7.3862Z" stroke="#BA24D5" stroke-linecap="round" stroke-linejoin="round"/>
<circle cx="6.58456" cy="8.82479" r="0.889245" stroke="#BA24D5" stroke-linecap="round" stroke-linejoin="round"/>
</svg>
