<svg width="19" height="18" viewBox="0 0 19 18" fill="none" xmlns="http://www.w3.org/2000/svg">
<path d="M14.6001 4.93294H0.600098M9.0001 11.0718L10.7501 9.26628L9.0001 7.46072M6.2001 7.46072L4.4501 9.26628L6.2001 11.0718M7.6001 13.5996H3.9601C2.78399 13.5996 2.19593 13.5996 1.74672 13.3635C1.35158 13.1557 1.03032 12.8243 0.828984 12.4166C0.600098 11.9531 0.600098 11.3464 0.600098 10.1329L0.600098 4.06628C0.600098 2.85283 0.600098 2.24611 0.828984 1.78263C1.03032 1.37495 1.35158 1.04349 1.74672 0.835762C2.19593 0.599609 2.78399 0.599609 3.9601 0.599609L11.2401 0.59961C12.4162 0.59961 13.0043 0.59961 13.4535 0.835763C13.8486 1.04349 14.1699 1.37495 14.3712 1.78263C14.6001 2.24611 14.6001 2.85283 14.6001 4.06628V7.09961" stroke="#DD2590" stroke-width="1.2" stroke-linecap="round" stroke-linejoin="round"/>
<path fill-rule="evenodd" clip-rule="evenodd" d="M18.0667 11.7798L17.8128 11.3392C17.5981 10.9665 17.1222 10.8379 16.7489 11.0518V11.0518C16.5712 11.1565 16.3592 11.1862 16.1596 11.1343C15.9601 11.0825 15.7893 10.9534 15.685 10.7755C15.6179 10.6625 15.5818 10.5337 15.5804 10.4022V10.4022C15.5865 10.1915 15.507 9.98719 15.36 9.83599C15.213 9.68479 15.0111 9.59952 14.8002 9.59961H14.2888C14.0822 9.59961 13.8841 9.68193 13.7384 9.82836C13.5927 9.97479 13.5113 10.1732 13.5123 10.3798V10.3798C13.5062 10.8064 13.1586 11.1489 12.7321 11.1489C12.6006 11.1475 12.4718 11.1114 12.3587 11.0443V11.0443C11.9855 10.8305 11.5096 10.959 11.2948 11.3318L11.0223 11.7798C10.8078 12.152 10.9346 12.6277 11.306 12.8437V12.8437C11.5474 12.9831 11.6961 13.2406 11.6961 13.5194C11.6961 13.7981 11.5474 14.0557 11.306 14.1951V14.1951C10.9351 14.4097 10.8081 14.8841 11.0223 15.2553V15.2553L11.2799 15.6995C11.3805 15.8811 11.5493 16.0151 11.749 16.0718C11.9487 16.1286 12.1627 16.1034 12.3438 16.0019V16.0019C12.5218 15.8981 12.7339 15.8696 12.933 15.9229C13.1321 15.9762 13.3017 16.1068 13.404 16.2856C13.4711 16.3987 13.5072 16.5275 13.5086 16.659V16.659C13.5086 17.0899 13.8579 17.4392 14.2888 17.4392H14.8002C15.2297 17.4392 15.5784 17.0921 15.5804 16.6627V16.6627C15.5794 16.4555 15.6613 16.2564 15.8079 16.1099C15.9544 15.9633 16.1534 15.8815 16.3607 15.8825C16.4918 15.886 16.6201 15.9219 16.734 15.987V15.987C17.1062 16.2015 17.5819 16.0747 17.7979 15.7033V15.7033L18.0667 15.2553C18.1707 15.0767 18.1993 14.864 18.146 14.6643C18.0928 14.4646 17.9621 14.2944 17.783 14.1914V14.1914C17.6038 14.0883 17.4732 13.9181 17.4199 13.7184C17.3667 13.5187 17.3952 13.306 17.4993 13.1274C17.5669 13.0093 17.6649 12.9114 17.783 12.8437V12.8437C18.1521 12.6278 18.2787 12.1549 18.0667 11.7835V11.7835V11.7798Z" stroke="#DD2590" stroke-linecap="round" stroke-linejoin="round"/>
<circle cx="14.5463" cy="13.5185" r="1.07514" stroke="#DD2590" stroke-linecap="round" stroke-linejoin="round"/>
</svg>
