<svg viewBox="0 0 18 17" fill="none" xmlns="http://www.w3.org/2000/svg">
<path d="M5.1001 13.7183L6.08208 14.2952C6.27115 14.4063 6.36568 14.4619 6.4658 14.4837C6.5544 14.5029 6.64579 14.5029 6.7344 14.4837C6.83451 14.4619 6.92905 14.4063 7.11812 14.2952L8.1001 13.7183M2.1001 11.9556L1.14875 11.3966C0.949069 11.2793 0.84922 11.2206 0.77652 11.1372C0.712203 11.0634 0.663529 10.9759 0.633754 10.8806C0.600098 10.7728 0.600098 10.652 0.600098 10.4104V9.31155M0.600098 5.78617V4.68727C0.600098 4.44568 0.600098 4.32489 0.633754 4.21716C0.663529 4.12185 0.712203 4.03436 0.77652 3.96055C0.849221 3.87711 0.949064 3.81845 1.14875 3.70112L2.1001 3.14214M5.1001 1.37945L6.08208 0.802476C6.27115 0.691386 6.36568 0.635841 6.4658 0.614064C6.5544 0.594791 6.64579 0.594791 6.7344 0.614064C6.83451 0.635841 6.92905 0.691386 7.11812 0.802476L8.1001 1.37945M11.1001 3.14214L12.0515 3.70112C12.2511 3.81844 12.351 3.87711 12.4237 3.96054C12.488 4.03436 12.5367 4.12185 12.5664 4.21715C12.6001 4.32489 12.6001 4.44568 12.6001 4.68727V5.78617M5.1001 6.66751L6.6001 7.54886M6.6001 7.54886L8.1001 6.66751M6.6001 7.54886V9.31155M0.600098 4.02348L2.1001 4.90483M11.1001 4.90483L12.6001 4.02348M6.6001 12.8369V14.5996" stroke="currentColor" stroke-width="1.2" stroke-linecap="round" stroke-linejoin="round"/>
<path fill-rule="evenodd" clip-rule="evenodd" d="M17.0667 10.7798L16.8128 10.3392C16.5981 9.96651 16.1222 9.83792 15.7489 10.0518V10.0518C15.5712 10.1565 15.3592 10.1862 15.1596 10.1343C14.9601 10.0825 14.7893 9.95342 14.685 9.77554C14.6179 9.66248 14.5818 9.5337 14.5804 9.40223V9.40223C14.5865 9.19145 14.507 8.98719 14.36 8.83599C14.213 8.68479 14.0111 8.59952 13.8002 8.59961H13.2888C13.0822 8.59961 12.8841 8.68193 12.7384 8.82836C12.5927 8.97479 12.5113 9.17325 12.5123 9.37983V9.37983C12.5062 9.80636 12.1586 10.1489 11.7321 10.1489C11.6006 10.1475 11.4718 10.1114 11.3587 10.0443V10.0443C10.9855 9.83046 10.5096 9.95904 10.2948 10.3318L10.0223 10.7798C9.80779 11.152 9.93462 11.6277 10.306 11.8437V11.8437C10.5474 11.9831 10.6961 12.2406 10.6961 12.5194C10.6961 12.7981 10.5474 13.0557 10.306 13.1951V13.1951C9.93509 13.4097 9.80812 13.8841 10.0223 14.2553V14.2553L10.2799 14.6995C10.3805 14.8811 10.5493 15.0151 10.749 15.0718C10.9487 15.1286 11.1627 15.1034 11.3438 15.0019V15.0019C11.5218 14.8981 11.7339 14.8696 11.933 14.9229C12.1321 14.9762 12.3017 15.1068 12.404 15.2856C12.4711 15.3987 12.5072 15.5275 12.5086 15.659V15.659C12.5086 16.0899 12.8579 16.4392 13.2888 16.4392H13.8002C14.2297 16.4392 14.5784 16.0921 14.5804 15.6627V15.6627C14.5794 15.4555 14.6613 15.2564 14.8079 15.1099C14.9544 14.9633 15.1534 14.8815 15.3607 14.8825C15.4918 14.886 15.6201 14.9219 15.734 14.987V14.987C16.1062 15.2015 16.5819 15.0747 16.7979 14.7033V14.7033L17.0667 14.2553C17.1707 14.0767 17.1993 13.864 17.146 13.6643C17.0928 13.4646 16.9621 13.2944 16.783 13.1914V13.1914C16.6038 13.0883 16.4732 12.9181 16.4199 12.7184C16.3667 12.5187 16.3952 12.306 16.4993 12.1274C16.5669 12.0093 16.6649 11.9114 16.783 11.8437V11.8437C17.1521 11.6278 17.2787 11.1549 17.0667 10.7835V10.7835V10.7798Z" stroke="currentColor" stroke-linecap="round" stroke-linejoin="round"/>
<circle cx="13.5463" cy="12.5185" r="1.07514" stroke="currentColor" stroke-linecap="round" stroke-linejoin="round"/>
</svg>
