<svg viewBox="0 0 14 16" fill="none" xmlns="http://www.w3.org/2000/svg">
<path d="M5.1001 13.7183L6.08208 14.2952C6.27115 14.4063 6.36568 14.4619 6.4658 14.4837C6.5544 14.5029 6.64579 14.5029 6.7344 14.4837C6.83451 14.4619 6.92905 14.4063 7.11812 14.2952L8.1001 13.7183M2.1001 11.9556L1.14875 11.3966C0.949069 11.2793 0.84922 11.2206 0.77652 11.1372C0.712203 11.0634 0.663529 10.9759 0.633754 10.8806C0.600098 10.7728 0.600098 10.652 0.600098 10.4104V9.31155M0.600098 5.78617V4.68727C0.600098 4.44568 0.600098 4.32489 0.633754 4.21716C0.663529 4.12185 0.712203 4.03436 0.77652 3.96055C0.849221 3.87711 0.949064 3.81845 1.14875 3.70112L2.1001 3.14214M5.1001 1.37945L6.08208 0.802476C6.27115 0.691386 6.36568 0.635841 6.4658 0.614064C6.5544 0.594791 6.64579 0.594791 6.7344 0.614064C6.83451 0.635841 6.92905 0.691386 7.11812 0.802476L8.1001 1.37945M11.1001 3.14214L12.0514 3.70112C12.2511 3.81844 12.351 3.87711 12.4237 3.96054C12.488 4.03436 12.5367 4.12185 12.5664 4.21716C12.6001 4.32489 12.6001 4.44568 12.6001 4.68727V5.78617M12.6001 9.31155V10.4104C12.6001 10.652 12.6001 10.7728 12.5664 10.8806C12.5367 10.9759 12.488 11.0634 12.4237 11.1372C12.351 11.2206 12.2511 11.2793 12.0514 11.3966L11.1001 11.9556M5.1001 6.66751L6.6001 7.54886M6.6001 7.54886L8.1001 6.66751M6.6001 7.54886V9.31155M0.600098 4.02348L2.1001 4.90483M11.1001 4.90483L12.6001 4.02348M6.6001 12.8369V14.5996" stroke="currentColor" stroke-width="1.2" stroke-linecap="round" stroke-linejoin="round"/>
</svg>
