<svg viewBox="0 0 20 16" fill="none" xmlns="http://www.w3.org/2000/svg">
<path d="M5.5835 1.68301V7.84301C5.5835 8.76709 5.5835 9.22914 5.76515 9.58209C5.92494 9.89256 6.17991 10.145 6.49351 10.3032C6.85003 10.483 7.31674 10.483 8.25016 10.483H8.36127M8.36127 10.483C8.36127 11.0905 8.85874 11.583 9.47239 11.583C10.086 11.583 10.5835 11.0905 10.5835 10.483C10.5835 9.8755 10.086 9.38301 9.47239 9.38301C8.85874 9.38301 8.36127 9.8755 8.36127 10.483ZM2.80572 1.68301L8.36127 1.68301M2.80572 1.68301C2.80572 2.29052 2.30826 2.78301 1.69461 2.78301C1.08096 2.78301 0.583496 2.29052 0.583496 1.68301C0.583496 1.07549 1.08096 0.583008 1.69461 0.583008C2.30826 0.583008 2.80572 1.07549 2.80572 1.68301ZM8.36127 1.68301C8.36127 2.29052 8.85874 2.78301 9.47239 2.78301C10.086 2.78301 10.5835 2.29052 10.5835 1.68301C10.5835 1.07549 10.086 0.583008 9.47239 0.583008C8.85874 0.583008 8.36127 1.07549 8.36127 1.68301ZM5.5835 6.08301H8.36127M8.36127 6.08301C8.36127 6.69052 8.85874 7.18301 9.47239 7.18301C10.086 7.18301 10.5835 6.69052 10.5835 6.08301C10.5835 5.47549 10.086 4.98301 9.47239 4.98301C8.85874 4.98301 8.36127 5.47549 8.36127 6.08301Z" stroke="currentColor" stroke-width="1.16655" stroke-linecap="round" stroke-linejoin="round"/>
<path fill-rule="evenodd" clip-rule="evenodd" d="M19.1326 8.98972L18.8788 8.54921C18.664 8.17647 18.1881 8.04788 17.8148 8.26176V8.26176C17.6372 8.36642 17.4251 8.39612 17.2256 8.34429C17.026 8.29247 16.8552 8.16339 16.7509 7.98551C16.6838 7.87244 16.6477 7.74366 16.6464 7.61219V7.61219C16.6524 7.40141 16.5729 7.19716 16.4259 7.04595C16.2789 6.89475 16.077 6.80948 15.8661 6.80957H15.3547C15.1481 6.80957 14.95 6.89189 14.8043 7.03832C14.6586 7.18475 14.5772 7.38321 14.5782 7.58979V7.58979C14.5721 8.01632 14.2245 8.35886 13.798 8.35882C13.6665 8.35745 13.5377 8.3214 13.4247 8.25429V8.25429C13.0514 8.04042 12.5755 8.169 12.3607 8.54174L12.0882 8.98972C11.8737 9.36199 12.0005 9.83762 12.3719 10.0537V10.0537C12.6133 10.193 12.762 10.4506 12.762 10.7294C12.762 11.0081 12.6133 11.2657 12.3719 11.4051V11.4051C12.001 11.6196 11.874 12.0941 12.0882 12.4653V12.4653L12.3458 12.9095C12.4464 13.0911 12.6152 13.225 12.8149 13.2818C13.0146 13.3385 13.2287 13.3134 13.4097 13.2119V13.2119C13.5877 13.108 13.7999 13.0796 13.999 13.1328C14.198 13.1861 14.3676 13.3167 14.4699 13.4956C14.537 13.6087 14.5731 13.7374 14.5745 13.8689V13.8689C14.5745 14.2998 14.9238 14.6491 15.3547 14.6491H15.8661C16.2956 14.6491 16.6443 14.3021 16.6464 13.8726V13.8726C16.6454 13.6654 16.7272 13.4664 16.8738 13.3198C17.0203 13.1733 17.2193 13.0914 17.4266 13.0924C17.5577 13.0959 17.686 13.1318 17.7999 13.197V13.197C18.1722 13.4115 18.6478 13.2846 18.8638 12.9132V12.9132L19.1326 12.4653C19.2367 12.2867 19.2652 12.074 19.212 11.8743C19.1587 11.6746 19.028 11.5044 18.8489 11.4013V11.4013C18.6698 11.2983 18.5391 11.128 18.4858 10.9283C18.4326 10.7286 18.4611 10.516 18.5652 10.3374C18.6328 10.2193 18.7308 10.1213 18.8489 10.0537V10.0537C19.2181 9.83774 19.3446 9.36488 19.1326 8.99345V8.99345V8.98972Z" stroke="currentColor" stroke-linecap="round" stroke-linejoin="round"/>
<circle cx="15.6123" cy="10.7285" r="1.07514" stroke="currentColor" stroke-linecap="round" stroke-linejoin="round"/>
</svg>
