<svg viewBox="0 0 14 14" fill="none" xmlns="http://www.w3.org/2000/svg">
<path d="M12.0176 0C13.0518 9.9571e-05 13.8848 0.84453 13.8848 1.87793C13.8846 2.91115 13.0517 3.75478 12.0176 3.75488C11.7076 3.75485 11.4169 3.67703 11.1602 3.54297L8.98828 5.96289C9.26733 6.29459 9.43652 6.72191 9.43652 7.18945C9.43647 7.40294 9.39872 7.60735 9.33398 7.79883L10.7529 8.7832C11.0939 8.40554 11.5848 8.16699 12.1338 8.16699C13.1678 8.16722 13.9999 9.01072 14 10.0439C14 11.0773 13.1679 11.9217 12.1338 11.9219C11.0995 11.9219 10.2666 11.0774 10.2666 10.0439C10.2666 9.89677 10.2854 9.75381 10.3174 9.61621L8.82617 8.58203C8.48309 8.90176 8.02445 9.09949 7.51855 9.09961C7.12059 9.09961 6.75033 8.97866 6.44336 8.77148L4.80859 10.3975C5.01342 10.6991 5.13379 11.0634 5.13379 11.4551C5.13374 12.4884 4.30079 13.3329 3.2666 13.333C2.23236 13.333 1.40044 12.4885 1.40039 11.4551C1.40039 10.4216 2.23234 9.57718 3.2666 9.57715C3.56961 9.57718 3.85491 9.65084 4.10742 9.7793L5.81934 8.0752C5.67984 7.81053 5.59969 7.50962 5.59961 7.18945C5.59961 6.87416 5.67702 6.57726 5.8125 6.31543L3.18555 4.74707C2.8483 5.08621 2.38239 5.29683 1.86621 5.29688C0.832292 5.29663 0.00026738 4.453 0 3.41992C0 2.38661 0.832126 1.54224 1.86621 1.54199C2.90042 1.54209 3.7334 2.38652 3.7334 3.41992C3.73335 3.601 3.705 3.77549 3.65723 3.94141L6.44336 5.60449C6.75015 5.3976 7.12099 5.27832 7.51855 5.27832C7.76864 5.27838 8.00727 5.32707 8.22656 5.41406L10.4658 2.9209C10.267 2.62219 10.1514 2.26323 10.1514 1.87793C10.1514 0.844545 10.9834 0.000123936 12.0176 0ZM3.2666 10.5107C2.75473 10.5108 2.33301 10.9301 2.33301 11.4551C2.33305 11.98 2.75476 12.3994 3.2666 12.3994C3.77839 12.3993 4.20015 11.9799 4.2002 11.4551C4.2002 10.9302 3.77842 10.5108 3.2666 10.5107ZM12.1338 9.09961C11.622 9.09961 11.2003 9.51908 11.2002 10.0439C11.2002 10.5689 11.6219 10.9883 12.1338 10.9883C12.6455 10.9881 13.0664 10.5688 13.0664 10.0439C13.0663 9.51923 12.6454 9.09983 12.1338 9.09961ZM7.51855 6.21094C6.97231 6.21094 6.5332 6.65177 6.5332 7.18945C6.53346 7.72692 6.97247 8.16602 7.51855 8.16602C8.06442 8.16577 8.50267 7.72677 8.50293 7.18945C8.50293 6.65192 8.06458 6.21118 7.51855 6.21094ZM1.86621 2.47559C1.35452 2.47583 0.933594 2.89512 0.933594 3.41992C0.93386 3.9445 1.35468 4.36303 1.86621 4.36328C2.37787 4.36318 2.79954 3.94459 2.7998 3.41992C2.7998 2.89502 2.37803 2.47569 1.86621 2.47559ZM12.0176 0.933594C11.5058 0.933718 11.084 1.35305 11.084 1.87793C11.0842 2.40264 11.5059 2.82214 12.0176 2.82227C12.5293 2.82217 12.951 2.40265 12.9512 1.87793C12.9512 1.35303 12.5294 0.933694 12.0176 0.933594Z" fill="currentColor"/>
</svg>
