<svg viewBox="0 0 15 15" fill="none" xmlns="http://www.w3.org/2000/svg">
<path d="M12.525 3.55556V6.06111M1.475 3.55556V8.56667C1.475 9.59343 1.475 10.1068 1.68754 10.499C1.87449 10.8439 2.1728 11.1244 2.53972 11.3002C2.95685 11.5 3.5029 11.5 4.595 11.5H7M1.54 0.5H12.46C12.824 0.5 13.0061 0.5 13.1451 0.566607C13.2674 0.625196 13.3668 0.718685 13.4292 0.833672C13.5 0.964396 13.5 1.13552 13.5 1.47778V2.57778C13.5 2.92003 13.5 3.09116 13.4292 3.22188C13.3668 3.33687 13.2674 3.43036 13.1451 3.48895C13.0061 3.55556 12.824 3.55556 12.46 3.55556H1.54C1.17597 3.55556 0.993949 3.55556 0.854906 3.48895C0.732601 3.43036 0.633163 3.33687 0.570846 3.22188C0.5 3.09116 0.5 2.92003 0.5 2.57778V1.47778C0.5 1.13552 0.5 0.964396 0.570846 0.833672C0.633163 0.718685 0.732601 0.625196 0.854906 0.566607C0.993949 0.5 1.17597 0.5 1.54 0.5Z" stroke="currentColor" stroke-linecap="round" stroke-linejoin="round"/>
<path fill-rule="evenodd" clip-rule="evenodd" d="M14.4127 9.30319L14.2027 8.93885C14.0251 8.63056 13.6315 8.52421 13.3227 8.7011V8.7011C13.1758 8.78767 13.0004 8.81223 12.8354 8.76936C12.6703 8.7265 12.529 8.61974 12.4428 8.47261C12.3873 8.3791 12.3574 8.27258 12.3563 8.16385V8.16385C12.3613 7.98951 12.2955 7.82057 12.174 7.69551C12.0524 7.57045 11.8854 7.49993 11.711 7.5H11.288C11.1171 7.5 10.9533 7.56809 10.8328 7.6892C10.7122 7.81031 10.6449 7.97446 10.6457 8.14532V8.14532C10.6407 8.4981 10.3532 8.78141 10.0004 8.78138C9.89169 8.78025 9.78518 8.75042 9.69166 8.69492V8.69492C9.38295 8.51803 8.98931 8.62438 8.81168 8.93267L8.58628 9.30319C8.40887 9.6111 8.51377 10.0045 8.82094 10.1832V10.1832C9.02061 10.2984 9.14361 10.5115 9.14361 10.742C9.14361 10.9726 9.02061 11.1856 8.82094 11.3009V11.3009C8.51417 11.4784 8.40915 11.8708 8.58628 12.1778V12.1778L8.79933 12.5452C8.88256 12.6954 9.02219 12.8062 9.18735 12.8532C9.3525 12.9001 9.52955 12.8793 9.67931 12.7953V12.7953C9.82654 12.7094 10.002 12.6859 10.1667 12.7299C10.3313 12.774 10.4716 12.882 10.5562 13.03C10.6117 13.1235 10.6415 13.23 10.6427 13.3388V13.3388C10.6427 13.6952 10.9316 13.9841 11.288 13.9841H11.711C12.0662 13.9841 12.3546 13.697 12.3563 13.3418V13.3418C12.3555 13.1704 12.4232 13.0058 12.5444 12.8846C12.6656 12.7634 12.8302 12.6957 13.0016 12.6965C13.1101 12.6994 13.2162 12.7291 13.3104 12.783V12.783C13.6183 12.9604 14.0117 12.8555 14.1904 12.5483V12.5483L14.4127 12.1778C14.4987 12.0301 14.5224 11.8542 14.4783 11.689C14.4343 11.5239 14.3262 11.3831 14.178 11.2978V11.2978C14.0299 11.2126 13.9218 11.0718 13.8777 10.9066C13.8337 10.7414 13.8573 10.5655 13.9434 10.4178C13.9993 10.3201 14.0803 10.2391 14.178 10.1832V10.1832C14.4834 10.0046 14.588 9.61349 14.4127 9.30628V9.30628V9.30319Z" stroke="currentColor" stroke-linecap="round" stroke-linejoin="round"/>
<circle cx="11.5011" cy="10.7418" r="0.889245" stroke="currentColor" stroke-linecap="round" stroke-linejoin="round"/>
</svg>
