<svg xmlns="http://www.w3.org/2000/svg" width="86" height="86" fill="none"><path fill="#DCE3EC" d="M51.063 0H9.853A9.849 9.849 0 0 0 0 9.854v55.542a9.849 9.849 0 0 0 9.854 9.854h23.614a31.288 31.288 0 0 1-3.01-13.438c0-4.12.789-8.062 2.294-11.681a29.533 29.533 0 0 1 2.651-5.196c2.33-3.62 5.34-6.7 8.887-9.102a27.579 27.579 0 0 1 5.84-3.081 29.31 29.31 0 0 1 10.787-2.258V9.854A9.849 9.849 0 0 0 51.062 0Z"/><path fill="#9CA3AF" d="M50.167 32.247c0 .18 0 .359-.036.502a27.579 27.579 0 0 0-5.841 3.082H14.333a3.594 3.594 0 0 1-3.583-3.584 3.594 3.594 0 0 1 3.583-3.583h32.25a3.594 3.594 0 0 1 3.584 3.583ZM35.403 44.935a29.533 29.533 0 0 0-2.651 5.196c-.144.036-.323.036-.502.036H14.333a3.594 3.594 0 0 1-3.583-3.584A3.594 3.594 0 0 1 14.333 43H32.25c1.362 0 2.58.788 3.153 1.935ZM28.667 21.499H14.333a3.585 3.585 0 0 1 0-7.167h14.334a3.585 3.585 0 0 1 0 7.167Z"/><path fill="#1890FF" d="M61.813 86c-13.338 0-24.188-10.85-24.188-24.188 0-13.337 10.85-24.187 24.188-24.187C75.15 37.625 86 48.475 86 61.813 86 75.15 75.15 86 61.812 86Z"/><path fill="#fff" d="M61.813 75.25a3.585 3.585 0 0 1-3.584-3.583V51.958a3.585 3.585 0 0 1 7.167 0v19.709a3.585 3.585 0 0 1-3.583 3.583Z"/><path fill="#fff" d="M71.667 65.397H51.958a3.585 3.585 0 0 1-3.583-3.583 3.585 3.585 0 0 1 3.583-3.584h19.709a3.585 3.585 0 0 1 3.583 3.584 3.585 3.585 0 0 1-3.583 3.583Z"/></svg>