<svg viewBox="0 0 21 26" fill="none" xmlns="http://www.w3.org/2000/svg">
<path d="M1.34792 11.104C3.38733 10.7627 5.27031 9.77786 6.73164 8.28822C8.19296 6.79858 9.15898 4.8792 9.49364 2.80044L9.83082 0.727793C9.84561 0.633863 9.83927 0.537737 9.81228 0.44667C9.78529 0.355604 9.73836 0.271976 9.67502 0.2021C9.61169 0.132224 9.53361 0.0779266 9.44668 0.0433053C9.35975 0.00868408 9.26623 -0.0053559 9.1732 0.00224519C5.99032 0.25249 2.99078 1.32984 1.33118 2.02045C0.937371 2.18494 0.600491 2.46516 0.363432 2.82543C0.126373 3.18571 -0.000139686 3.60974 1.1574e-07 4.04354V10.5946C1.1574e-07 10.9805 0.33718 11.273 0.711027 11.2096L1.34792 11.104ZM11.5072 2.80044C11.8418 4.87909 12.8077 6.79838 14.2688 8.28801C15.73 9.77764 17.6128 10.7625 19.6521 11.104L20.289 11.2096C20.3766 11.2247 20.4663 11.22 20.552 11.196C20.6376 11.172 20.7171 11.1292 20.7848 11.0706C20.8525 11.012 20.9068 10.9391 20.944 10.8569C20.9812 10.7746 21.0003 10.6851 21 10.5946V4.04354C20.9991 3.60998 20.8721 3.18643 20.6352 2.82635C20.3983 2.46628 20.062 2.18585 19.6688 2.02045C18.0132 1.32497 15.0097 0.25249 11.8276 0.00224519C11.7345 -0.00581327 11.6409 0.00788557 11.5538 0.042298C11.4667 0.0767105 11.3885 0.130929 11.325 0.200823C11.2616 0.270717 11.2147 0.354443 11.1878 0.445623C11.1609 0.536804 11.1548 0.633033 11.17 0.72698L11.5072 2.80044ZM19.6561 13.1604C17.6168 13.5017 15.7339 14.4864 14.2726 15.9759C12.8112 17.4654 11.8452 19.3846 11.5103 21.4632L11.0942 25.5085C11.0568 25.8733 11.4522 26.1317 11.7519 25.9286C11.7519 25.9286 11.7551 25.9278 11.7598 25.9245C14.3808 24.1216 20.3631 19.4027 20.9538 13.5082C20.96 13.4407 20.9509 13.3727 20.9274 13.3093C20.9038 13.2459 20.8663 13.1889 20.8177 13.1426C20.7691 13.0964 20.7108 13.062 20.6472 13.0423C20.5836 13.0226 20.5164 13.0179 20.4508 13.0288L19.66 13.1604H19.6561ZM9.49205 21.4615C9.15734 19.3827 8.1912 17.4632 6.72972 15.9736C5.26824 14.4839 3.38509 13.4991 1.34553 13.158L0.492617 13.0142C0.434016 13.0044 0.374008 13.0086 0.31721 13.0262C0.260412 13.0438 0.208337 13.0745 0.164992 13.1158C0.121646 13.1572 0.0881852 13.2081 0.0671822 13.2647C0.0461793 13.3213 0.0381943 13.3821 0.0438414 13.4423C0.605808 19.3718 6.67185 24.12 9.3127 25.9229C9.37446 25.9644 9.44651 25.9871 9.52047 25.9885C9.59443 25.9899 9.66725 25.9699 9.73047 25.9307C9.79368 25.8916 9.84469 25.8349 9.87756 25.7674C9.91042 25.6998 9.92379 25.6241 9.91611 25.5491L9.49603 21.4575L9.49205 21.4615Z" fill="black"/>
</svg>
