<svg xmlns="http://www.w3.org/2000/svg" width="92" height="92" fill="none"><g clip-path="url(#a)"><g fill-rule="evenodd" clip-rule="evenodd" filter="url(#b)"><path fill="#9CA3AF" d="M79.001 60.967 62.24 40.696c-.804-.954-1.98-1.532-3.218-1.532H22.98c-1.237 0-2.413.578-3.217 1.532L3.002 60.967v10.59h76v-10.59Z"/><path fill="#DCE3EC" d="M17.205 13H64.8c.743 0 1.456.29 1.982.807a2.73 2.73 0 0 1 .82 1.947v64.263c0 .73-.295 1.43-.82 1.947a2.828 2.828 0 0 1-1.982.807H17.205c-.743 0-1.456-.29-1.982-.807a2.73 2.73 0 0 1-.82-1.947V15.754c0-.73.295-1.431.82-1.947A2.827 2.827 0 0 1 17.205 13Z"/><path fill="#C9D2DD" d="M78.847 85.311c-.543 2.114-2.45 3.69-4.719 3.69H7.875c-2.268 0-4.175-1.576-4.718-3.69a4.949 4.949 0 0 1-.155-1.232v-23.11H21.44c2.037 0 3.678 1.686 3.678 3.732v.027a3.698 3.698 0 0 0 3.697 3.697h24.372c2.036 0 3.697-1.666 3.697-3.712v-.009c0-2.046 1.641-3.735 3.678-3.735h18.439v23.11c0 .425-.054.838-.155 1.232Z"/><path fill="#9CA3AF" d="M23.404 19.852H58.6c.371 0 .728.145.99.403.263.258.41.608.41.974V38.41c0 .365-.147.716-.41.974-.262.258-.619.403-.99.403H23.404c-.372 0-.729-.145-.991-.403a1.365 1.365 0 0 1-.41-.974V21.23c0-.366.147-.716.41-.974.262-.258.619-.403.99-.403Zm.183 27.41h34.83a1.6 1.6 0 0 1 1.12.456c.298.292.465.688.465 1.101 0 .413-.167.81-.464 1.101-.297.292-.7.456-1.12.456h-34.83c-.421 0-.824-.164-1.122-.456a1.544 1.544 0 0 1-.464-1.101c0-.413.167-.81.465-1.101a1.6 1.6 0 0 1 1.12-.456Zm0 8.098h34.83a1.6 1.6 0 0 1 1.121.456c.297.292.464.688.464 1.102 0 .413-.167.809-.464 1.101a1.6 1.6 0 0 1-1.12.456h-34.83a1.6 1.6 0 0 1-1.122-.456 1.544 1.544 0 0 1-.464-1.101c0-.413.167-.81.464-1.102a1.6 1.6 0 0 1 1.121-.456Z"/></g><g filter="url(#c)"><path fill="#1890FF" fill-rule="evenodd" d="m68.936 21.396-3.929 1.465a.598.598 0 0 1-.601-.111.532.532 0 0 1-.157-.569l1.115-3.43C63.874 17.124 63 15.141 63 13c0-5.523 5.82-10 13-10s13 4.477 13 10-5.82 10-13 10c-2.605 0-5.03-.589-7.064-1.604Z" clip-rule="evenodd"/><path fill="#fff" d="M80.745 14.202a1.61 1.61 0 0 0 1.62-1.601c0-.884-.725-1.601-1.62-1.601a1.61 1.61 0 0 0-1.62 1.6c0 .885.725 1.602 1.62 1.602Z"/><path fill="#fff" fill-rule="evenodd" d="M72.24 14H69l1.648-2.8L72.24 14Zm2.025-2.8H77.1V14h-2.835v-2.8Z" clip-rule="evenodd"/></g></g><defs><filter id="b" width="80" height="80" x="1.002" y="11" color-interpolation-filters="sRGB" filterUnits="userSpaceOnUse"><feFlood flood-opacity="0" result="BackgroundImageFix"/><feColorMatrix in="SourceAlpha" result="hardAlpha" values="0 0 0 0 0 0 0 0 0 0 0 0 0 0 0 0 0 0 127 0"/><feOffset/><feGaussianBlur stdDeviation="1"/><feComposite in2="hardAlpha" operator="out"/><feColorMatrix values="0 0 0 0 0 0 0 0 0 0 0 0 0 0 0 0 0 0 0.12 0"/><feBlend in2="BackgroundImageFix" result="effect1_dropShadow_13876_31244"/><feBlend in="SourceGraphic" in2="effect1_dropShadow_13876_31244" result="shape"/></filter><filter id="c" width="34" height="28" x="59" y="1" color-interpolation-filters="sRGB" filterUnits="userSpaceOnUse"><feFlood flood-opacity="0" result="BackgroundImageFix"/><feColorMatrix in="SourceAlpha" result="hardAlpha" values="0 0 0 0 0 0 0 0 0 0 0 0 0 0 0 0 0 0 127 0"/><feOffset dy="2"/><feGaussianBlur stdDeviation="2"/><feComposite in2="hardAlpha" operator="out"/><feColorMatrix values="0 0 0 0 0 0 0 0 0 0 0 0 0 0 0 0 0 0 0.1 0"/><feBlend in2="BackgroundImageFix" result="effect1_dropShadow_13876_31244"/><feBlend in="SourceGraphic" in2="effect1_dropShadow_13876_31244" result="shape"/></filter><clipPath id="a"><path fill="#fff" d="M0 0h92v92H0z"/></clipPath></defs></svg>