<?xml version="1.0" encoding="utf-8"?>
<!-- Generator: Adobe Illustrator 26.5.0, SVG Export Plug-In . SVG Version: 6.00 Build 0)  -->
<svg version="1.1" id="vendorSASMed" xmlns="http://www.w3.org/2000/svg" xmlns:xlink="http://www.w3.org/1999/xlink" x="0px"
	 y="0px" width="32px" height="32px" viewBox="0 0 32 32" enable-background="new 0 0 32 32" xml:space="preserve">
<path id="sasLogo" fill="#0766d1" d="M21.989,15.44c5.361,6.505,0.459,12.144-3.928,13.241c-5.058,1.265-9.634-1.367-10.998-5.39
	c1.759,2.867,6.867,3.488,9.649,1.742c3.157-1.983,4.198-5.465,1.87-8.29c0,0-3.44-4.14-3.442-4.141
	c-0.604-0.731-0.389-1.731,0.345-2.335c0.728-0.601,1.716-0.604,2.322,0.116L21.989,15.44z M12.555,20.434l-0.013,0.01l0.906,1.094
	c0.606,0.721,1.594,0.716,2.323,0.116c0.732-0.604,0.948-1.603,0.344-2.336c-0.001-0.001-0.145-0.174-0.365-0.44l0.009-0.008
	c-1.352-1.626-3.004-3.611-3.004-3.611c-2.328-2.825-1.287-6.308,1.87-8.29c2.782-1.748,7.889-1.126,9.649,1.742
	c-1.364-4.026-5.939-6.655-10.997-5.391c-4.387,1.096-9.289,6.734-3.928,13.24L12.555,20.434z M25.772,22.993l0.281,0.442h-0.167
	L25.625,23h-0.171v0.435h-0.149v-1.001h0.375c0.234,0,0.35,0.087,0.35,0.285C26.03,22.898,25.919,22.976,25.772,22.993z
	 M25.632,22.873c0.128,0,0.239-0.011,0.239-0.164c0-0.124-0.111-0.147-0.214-0.147h-0.204v0.311H25.632z M26.5,22.933
	c0,0.502-0.4,0.867-0.865,0.867c-0.469,0-0.869-0.366-0.869-0.867c0-0.499,0.4-0.866,0.869-0.866
	C26.1,22.067,26.5,22.433,26.5,22.933z M26.327,22.933c0-0.412-0.307-0.721-0.692-0.721c-0.393,0-0.696,0.309-0.696,0.721
	c0,0.417,0.304,0.725,0.696,0.725C26.02,23.658,26.327,23.349,26.327,22.933z"/>
</svg>
