<svg width="67" height="60" viewBox="0 0 67 60" fill="none" xmlns="http://www.w3.org/2000/svg">
<path d="M56.6038 43L56.7785 43.0088C57.6342 43.0963 58.3019 43.8192 58.3019 44.6981C58.3019 45.577 57.6342 46.2999 56.7785 46.3874L56.6038 46.3962H31.6981C30.7603 46.3962 30 45.636 30 44.6981C30 43.7603 30.7603 43 31.6981 43H56.6038Z" fill="#CB3336"/>
<path d="M56.6038 28L56.7785 28.0088C57.6342 28.0963 58.3019 28.8192 58.3019 29.6981C58.3019 30.577 57.6342 31.2999 56.7785 31.3874L56.6038 31.3962H31.6981C30.7603 31.3962 30 30.636 30 29.6981C30 28.7603 30.7603 28 31.6981 28H56.6038Z" fill="#CB3336"/>
<path d="M56.6038 13.5859L56.7785 13.5948C57.6342 13.6822 58.3019 14.4052 58.3019 15.2841C58.3019 16.1629 57.6342 16.8859 56.7785 16.9733L56.6038 16.9822H31.6981C30.7603 16.9822 30 16.2219 30 15.2841C30 14.3462 30.7603 13.5859 31.6981 13.5859H56.6038Z" fill="#CB3336"/>
<path d="M19.2453 12.4528H3.39623V48.1132C3.3964 48.1223 3.39753 48.1394 3.39844 48.1641C3.40038 48.2164 3.4049 48.3024 3.41392 48.4161C3.43204 48.6445 3.46814 48.9839 3.54437 49.3956C3.69822 50.2264 4.00285 51.3135 4.59685 52.3828C5.18542 53.4423 6.05325 54.4761 7.34744 55.2528C8.63944 56.028 10.4515 56.6038 13.0189 56.6038C14.7673 56.6038 16.2581 55.9474 17.3393 54.6624C18.442 53.3517 19.2453 51.2304 19.2453 48.1132V12.4528ZM66.7925 49.2497C66.7925 55.188 61.9895 59.9997 56.0488 60H11.889C5.38049 60 0.09436 54.7689 0.00442248 48.2812C0.00283933 48.237 0.000499205 48.2007 3.15487e-07 48.1729V48.1154C2.23043e-07 48.1153 -7.61414e-05 48.1133 0.0022114 48.1132H3.15487e-07V10.7547L0.00884465 10.58C0.0962895 9.72426 0.819246 9.0566 1.69811 9.0566H19.2453V1.69811L19.2541 1.52344C19.3416 0.667658 20.0645 0 20.9434 0H65.0943L65.269 0.00884434C66.1248 0.0962892 66.7925 0.819246 66.7925 1.69811V49.2497ZM22.6415 48.1132C22.6415 51.6482 21.7621 54.5329 20.1341 56.6038H56.0488C60.1113 56.6035 63.3962 53.3148 63.3962 49.2497V3.39623H22.6415V48.1132Z" fill="#CB3336"/>
</svg>
