<svg viewBox="0 0 20 20" fill="none" xmlns="http://www.w3.org/2000/svg">
<path d="M13.9678 7.31847V3.82678C13.9678 2.29795 11.2887 1.05859 7.98394 1.05859C4.67915 1.05859 2.00009 2.29795 2.00009 3.82681C2.00009 3.82681 2.00012 5.85671 2.00012 8.6249C2.00012 11.3931 2 12.8233 2 12.8233C2 14.2082 4.19818 15.3555 7.06847 15.5593" stroke="currentColor" stroke-width="1.3" stroke-linecap="round" stroke-linejoin="round"/>
<path d="M13.9678 3.62113C13.9678 5.03752 11.2887 6.18573 7.98391 6.18573C4.6791 6.18573 2 5.03752 2 3.62109" stroke="currentColor" stroke-width="1.3" stroke-linecap="round" stroke-linejoin="round"/>
<path d="M2 8.02344C2 9.30658 4.19861 10.3696 7.06931 10.5583" stroke="currentColor" stroke-width="1.3" stroke-linecap="round" stroke-linejoin="round"/>
<path d="M17.7663 11.9785L13.7664 14.2332M13.7664 14.2332L9.76652 11.9785M13.7664 14.2332L13.7664 18.7691M18.0016 16.171V12.2954C18.0016 12.1318 18.0016 12.05 17.9778 11.9771C17.9568 11.9125 17.9224 11.8533 17.877 11.8033C17.8257 11.7468 17.7552 11.7071 17.6143 11.6276L14.1321 9.66472C13.9986 9.58949 13.9319 9.55188 13.8612 9.53713C13.7987 9.52408 13.7342 9.52408 13.6716 9.53713C13.6009 9.55188 13.5342 9.58949 13.4008 9.66472L9.91852 11.6276C9.77757 11.7071 9.7071 11.7468 9.65578 11.8033C9.61038 11.8533 9.57602 11.9125 9.55501 11.9771C9.53125 12.05 9.53125 12.1318 9.53125 12.2954V16.171C9.53125 16.3346 9.53125 16.4164 9.55501 16.4894C9.57602 16.5539 9.61038 16.6132 9.65578 16.6631C9.7071 16.7196 9.77757 16.7594 9.91852 16.8388L13.4008 18.8017C13.5342 18.8769 13.6009 18.9146 13.6716 18.9293C13.7342 18.9424 13.7987 18.9424 13.8612 18.9293C13.9319 18.9146 13.9986 18.8769 14.1321 18.8017L17.6143 16.8388C17.7552 16.7594 17.8257 16.7196 17.877 16.6631C17.9224 16.6132 17.9568 16.5539 17.9778 16.4894C18.0016 16.4164 18.0016 16.3346 18.0016 16.171Z" stroke="currentColor" stroke-width="1.3" stroke-linecap="round" stroke-linejoin="round"/>
</svg>
