<svg xmlns="http://www.w3.org/2000/svg" width="12" height="12" viewBox="0 0 12 12" fill="none"><g>
<path d="M4.32149 1.57279L3.46908 1.96681C2.15636 2.57359 1.5 2.87698 1.5 3.375C1.5 3.87301 2.15636 4.1764 3.46908 4.78319L4.32149 5.1772C5.1476 5.55905 5.5607 5.75 6 5.75C6.4393 5.75 6.8524 5.55905 7.6785 5.1772L8.53089 4.78319C9.84364 4.1764 10.5 3.87301 10.5 3.375C10.5 2.87698 9.84364 2.57359 8.53089 1.96681L7.6785 1.57279C6.8524 1.19093 6.4393 1 6 1C5.5607 1 5.1476 1.19093 4.32149 1.57279Z" stroke="#535862" stroke-linecap="round" stroke-linejoin="round" />
<path d="M10.394 5.54883C10.4646 5.64818 10.5 5.75178 10.5 5.86568C10.5 6.35658 9.84364 6.65568 8.53089 7.25383L7.6785 7.64223C6.8524 8.01863 6.4393 8.20688 6 8.20688C5.5607 8.20688 5.1476 8.01863 4.32149 7.64223L3.46908 7.25383C2.15636 6.65568 1.5 6.35658 1.5 5.86568C1.5 5.75178 1.53533 5.64818 1.606 5.54883" stroke="#535862" stroke-linecap="round" stroke-linejoin="round" />
<path d="M10.1883 8.13281C10.3961 8.29831 10.5 8.46326 10.5 8.65856C10.5 9.14951 9.84364 9.44856 8.53089 10.0467L7.6785 10.4351C6.8524 10.8116 6.4393 10.9998 6 10.9998C5.5607 10.9998 5.1476 10.8116 4.32149 10.4351L3.46908 10.0467C2.15636 9.44856 1.5 9.14951 1.5 8.65856C1.5 8.46326 1.60389 8.29831 1.81167 8.13281" stroke="#535862" stroke-linecap="round" stroke-linejoin="round" />
</g>
</svg>
