<svg width="20" height="20" viewBox="0 0 20 20" fill="none" xmlns="http://www.w3.org/2000/svg">
<path d="M7.31549 2.91654L5.95154 3.54701C3.85103 4.51793 2.80078 5.00339 2.80078 5.80028C2.80078 6.59716 3.85103 7.08262 5.95155 8.05354L7.31549 8.684C8.63736 9.29501 9.29837 9.60055 10.0013 9.60055C10.7042 9.60055 11.3652 9.29501 12.6871 8.684L14.051 8.05354C16.1516 7.08262 17.2018 6.59716 17.2018 5.80028C17.2018 5.00339 16.1516 4.51793 14.051 3.54701L12.6871 2.91654C11.3652 2.30551 10.7042 2 10.0013 2C9.29837 2 8.63736 2.30551 7.31549 2.91654Z" stroke="#717680" stroke-width="1.3" stroke-linecap="round" stroke-linejoin="round"/>
<path d="M17.0322 9.27734C17.1453 9.43632 17.2018 9.60209 17.2018 9.78434C17.2018 10.5698 16.1516 11.0484 14.051 12.0055L12.6871 12.627C11.3652 13.2293 10.7042 13.5305 10.0013 13.5305C9.29837 13.5305 8.63736 13.2293 7.31549 12.627L5.95155 12.0055C3.85103 11.0484 2.80078 10.5698 2.80078 9.78434C2.80078 9.60209 2.85732 9.43632 2.97039 9.27734" stroke="#717680" stroke-width="1.3" stroke-linecap="round" stroke-linejoin="round"/>
<path d="M16.7031 13.4141C17.0356 13.6789 17.2018 13.9428 17.2018 14.2553C17.2018 15.0409 16.1516 15.5194 14.051 16.4765L12.6871 17.098C11.3652 17.7004 10.7042 18.0015 10.0013 18.0015C9.29837 18.0015 8.63736 17.7004 7.31549 17.098L5.95155 16.4765C3.85103 15.5194 2.80078 15.0409 2.80078 14.2553C2.80078 13.9428 2.96702 13.6789 3.29949 13.4141" stroke="#717680" stroke-width="1.3" stroke-linecap="round" stroke-linejoin="round"/>
</svg>
