<svg xmlns="http://www.w3.org/2000/svg" width="107" height="567" fill="none"><path fill="#6B6B6B" fill-opacity=".06" d="M.63 107.989h62.833V131h26.463v-23.011h16.236v-22.18H89.926V.09H55.281L.63 86.19v21.798Zm63.344-22.18H28.5v-1.023L62.952 30.26h1.022v55.547ZM53.94 351.875c32.919 0 52.798-25.056 52.862-68.203.064-42.826-20.07-67.372-52.862-67.372-32.855 0-52.798 24.482-52.862 67.372-.128 43.019 19.879 68.139 52.862 68.203Zm0-22.947c-15.021 0-24.737-15.085-24.673-45.256.064-29.723 9.715-44.68 24.673-44.68 14.893 0 24.61 14.957 24.61 44.68.063 30.171-9.653 45.256-24.61 45.256ZM.629 543.989h62.834V567h26.463v-23.011h16.236v-22.181H89.926v-85.717H55.281L.63 522.192v21.797Zm63.345-22.181H28.5v-1.022l34.453-54.525h1.022v55.547Z"/></svg>