<svg xmlns="http://www.w3.org/2000/svg" width="16" height="16" fill="none"><g fill="currentColor" stroke="currentColor" clip-path="url(#a)"><path stroke-width=".3" d="M8 9c1.379 0 2.5-1.122 2.5-2.5S9.38 4 8 4a2.503 2.503 0 0 0-2.5 2.5C5.5 7.878 6.622 9 8 9Zm0-4.41c1.054 0 1.911.857 1.911 1.91s-.857 1.91-1.91 1.91A1.913 1.913 0 0 1 6.09 6.5c0-1.053.857-1.91 1.91-1.91Z"/><path fill-rule="evenodd" stroke-width=".2" d="m3.106 9.967.726.723.493-.492-.726-.734.792-.817a.336.336 0 0 0 .045-.414 1.266 1.266 0 0 1-.09-.198v-.001a1.926 1.926 0 0 1-.026-.08 1.81 1.81 0 0 0-.072-.196.343.343 0 0 0-.314-.201L2.798 7.54l.005-2.073 1.142-.003a.346.346 0 0 0 .336-.26c.027-.109.051-.166.07-.204l.037-.088.008-.02a.69.69 0 0 1 .05-.108.335.335 0 0 0-.047-.417l-.818-.832 1.45-1.454.817.813a.347.347 0 0 0 .43.045.57.57 0 0 1 .105-.048c.036-.014.071-.03.104-.045l.055-.018.011-.003c.065-.02.131-.042.198-.072a.342.342 0 0 0 .203-.312l.008-1.16 2.06.015.002 1.143c0 .154.107.29.26.326.106.027.163.051.201.07l.087.036.021.009c.038.015.074.03.108.05a.35.35 0 0 0 .431-.05l.816-.817 1.446 1.468-.812.817a.337.337 0 0 0-.047.417c.017.028.03.059.041.09l.008.018.045.103.02.06.002.009c.02.063.041.129.07.195a.343.343 0 0 0 .315.201l1.142-.003c.007 0 .025.018.035.052l-.006 2.041-1.141.003a.347.347 0 0 0-.336.26 1.028 1.028 0 0 1-.07.205l-.037.087-.01.022a.692.692 0 0 1-.05.107.335.335 0 0 0 .048.416l.818.833-.652.653.509.46.635-.638a.699.699 0 0 0 .203-.504.656.656 0 0 0-.204-.47l-.65-.647.016-.038.03-.067.89-.002a.693.693 0 0 0 .703-.701L13.9 5.453a.318.318 0 0 0-.003-.05c-.058-.374-.36-.645-.719-.644l-.896.002a.905.905 0 0 0-.044-.106l.646-.65a.701.701 0 0 0 .202-.504.655.655 0 0 0-.203-.469l-1.444-1.447a.703.703 0 0 0-.512-.204.68.68 0 0 0-.476.208l-.64.644-.028-.012a1.128 1.128 0 0 0-.071-.032L9.71 1.29A.69.69 0 0 0 9.01.596L6.964.602a.695.695 0 0 0-.702.701l.002.9a.656.656 0 0 0-.069.028l-.007.003-.02.01-.645-.643a.703.703 0 0 0-.512-.203.681.681 0 0 0-.476.207L3.088 3.06a.702.702 0 0 0-.202.504c.004.185.08.355.204.47l.649.646-.015.038a1.05 1.05 0 0 0-.03.068l-.89.002a.692.692 0 0 0-.702.701l.005 2.04a.671.671 0 0 0 .19.504.688.688 0 0 0 .492.207l.896-.002a2.421 2.421 0 0 0 .043.112l-.623.643a.698.698 0 0 0-.203.503.655.655 0 0 0 .204.471Z" clip-rule="evenodd"/><path stroke-width=".3" d="M11.065 9.401a1.381 1.381 0 0 0-.987.115 4.38 4.38 0 0 1-2.069.514 4.381 4.381 0 0 1-2.068-.514c-.3-.16-.66-.2-.987-.114A3.297 3.297 0 0 0 2.5 12.588v1.089c0 1.004.817 1.82 1.82 1.82h7.378c1.003 0 1.82-.816 1.82-1.82v-1.089a3.297 3.297 0 0 0-2.454-3.187Zm1.763 4.276c0 .623-.507 1.13-1.13 1.13H4.32c-.623 0-1.13-.507-1.13-1.13v-1.089c0-1.182.797-2.218 1.94-2.52a.686.686 0 0 1 .488.057c.745.395 1.55.595 2.39.595.84 0 1.645-.2 2.391-.594a.684.684 0 0 1 .489-.057 2.607 2.607 0 0 1 1.939 2.52v1.088Z"/></g><defs><clipPath id="a"><path fill="#fff" d="M0 0h16v16H0z"/></clipPath></defs></svg>