<svg viewBox="0 0 40 40" fill="none" xmlns="http://www.w3.org/2000/svg">
<path fill-rule="evenodd" clip-rule="evenodd" d="M20 6.75C18.4832 6.75 17.25 7.98318 17.25 9.5C17.25 10.7111 18.0395 11.7315 19.125 12.0974V14.25H11.875C10.0138 14.25 8.5 15.7638 8.5 17.625V19.25H6.875C5.70318 19.25 4.75 20.2032 4.75 21.375V27C4.75 28.1718 5.70318 29.125 6.875 29.125H8.5V30.75C8.5 32.6112 10.0138 34.125 11.875 34.125H28.125C29.9862 34.125 31.5 32.6112 31.5 30.75V29.125H33.125C34.2968 29.125 35.25 28.1718 35.25 27V21.375C35.25 20.2032 34.2968 19.25 33.125 19.25H31.5V17.625C31.5 15.7638 29.9862 14.25 28.125 14.25H20.875V12.0974C21.9605 11.7315 22.75 10.7111 22.75 9.5C22.75 7.98318 21.5168 6.75 20 6.75ZM19 9.5C19 8.9487 19.4487 8.5 20 8.5C20.5513 8.5 21 8.9487 21 9.5C21 10.0513 20.5513 10.5 20 10.5C19.4487 10.5 19 10.0513 19 9.5ZM10.25 17.625C10.25 16.7293 10.9793 16 11.875 16H28.125C29.0207 16 29.75 16.7293 29.75 17.625V30.75C29.75 31.6457 29.0207 32.375 28.125 32.375H11.875C10.9793 32.375 10.25 31.6457 10.25 30.75V17.625ZM6.5 21.375C6.5 21.1687 6.6687 21 6.875 21H8.5V27.375H6.875C6.66853 27.375 6.5 27.2068 6.5 27V21.375ZM31.5 27.375V21H33.125C33.3313 21 33.5 21.1687 33.5 21.375V27C33.5 27.2068 33.3315 27.375 33.125 27.375H31.5ZM16.25 19.248C15.0782 19.248 14.125 20.2012 14.125 21.373C14.125 22.5449 15.0782 23.498 16.25 23.498C17.4218 23.498 18.375 22.5449 18.375 21.373C18.375 20.2012 17.4218 19.248 16.25 19.248ZM15.875 21.373C15.875 21.1663 16.0435 20.998 16.25 20.998C16.4563 20.998 16.625 21.1667 16.625 21.373C16.625 21.5794 16.4563 21.748 16.25 21.748C16.0435 21.748 15.875 21.5798 15.875 21.373ZM23.75 19.248C22.5782 19.248 21.625 20.2012 21.625 21.373C21.625 22.5449 22.5782 23.498 23.75 23.498C24.9218 23.498 25.875 22.5449 25.875 21.373C25.875 20.2012 24.9218 19.248 23.75 19.248ZM23.375 21.373C23.375 21.1663 23.5435 20.998 23.75 20.998C23.9563 20.998 24.125 21.1667 24.125 21.373C24.125 21.5794 23.9563 21.748 23.75 21.748C23.5435 21.748 23.375 21.5798 23.375 21.373ZM17.2749 26.7191C16.8442 26.4977 16.3174 26.6678 16.0963 27.0978C15.8749 27.5284 16.045 28.0552 16.475 28.2763L16.4751 28.2764C17.554 28.8303 18.7725 29.1234 19.9999 29.1234C21.2272 29.1234 22.4458 28.831 23.5248 28.2763L23.5251 28.2762C23.9543 28.055 24.1241 27.5285 23.9037 27.0981C23.6831 26.6675 23.1553 26.4978 22.725 26.7191C21.0374 27.5866 18.9625 27.5866 17.2749 26.7191Z" fill="currentColor"/>
</svg>