<svg viewBox="0 0 40 40" fill="none" xmlns="http://www.w3.org/2000/svg">
<g clip-path="url(#clip0_7120_65404)">
<path d="M9.19 33.17H27.74C28.39 33.17 28.93 32.64 28.93 31.98V12.12L27.03 9.06L21.65 6H9.19C8.53 6 8 6.53 8 7.19V31.99C8 32.64 8.53 33.18 9.19 33.18V33.17Z" fill="#E8EDED"/>
<path d="M24.7901 15.9399H12.1401C11.8301 15.9399 11.5801 15.6899 11.5801 15.3799C11.5801 15.0699 11.8301 14.8199 12.1401 14.8199H24.7901C25.1001 14.8199 25.3501 15.0699 25.3501 15.3799C25.3501 15.6899 25.1001 15.9399 24.7901 15.9399Z" fill="#B3B9BA"/>
<path d="M24.7901 19.8899H12.1401C11.8301 19.8899 11.5801 19.6399 11.5801 19.3299C11.5801 19.0199 11.8301 18.7699 12.1401 18.7699H24.7901C25.1001 18.7699 25.3501 19.0199 25.3501 19.3299C25.3501 19.6399 25.1001 19.8899 24.7901 19.8899Z" fill="#B3B9BA"/>
<path d="M24.7901 23.84H12.1401C11.8301 23.84 11.5801 23.59 11.5801 23.28C11.5801 22.97 11.8301 22.72 12.1401 22.72H24.7901C25.1001 22.72 25.3501 22.97 25.3501 23.28C25.3501 23.59 25.1001 23.84 24.7901 23.84Z" fill="#B3B9BA"/>
<path d="M18.6101 27.7899H12.1301C11.8201 27.7899 11.5701 27.5399 11.5701 27.2299C11.5701 26.9199 11.8201 26.6699 12.1301 26.6699H18.6101C18.9201 26.6699 19.1701 26.9199 19.1701 27.2299C19.1701 27.5399 18.9201 27.7899 18.6101 27.7899Z" fill="#B3B9BA"/>
<path d="M28.9201 12.12H22.6201C22.2201 12.12 21.9001 11.8 21.9001 11.4V8.32C21.9001 7.04 20.8601 6 19.5801 6H22.8001C26.1801 6 28.9201 8.74 28.9201 12.12Z" fill="#D2D8D8"/>
<path d="M18.0599 25.7599L16.4199 30.2599C16.2299 30.7899 16.7399 31.3099 17.2799 31.1199L21.7799 29.4799L20.7299 26.8099L18.0599 25.7599Z" fill="#FCE3C0"/>
<path d="M25.8598 17.97L19.6498 24.18L18.4498 25.38L18.0698 25.76C18.3798 26.07 18.0798 26.37 18.3898 26.68C18.6998 26.99 18.9998 26.69 19.3098 27C19.6198 27.31 19.3198 27.61 19.6298 27.92C19.9398 28.23 20.2398 27.93 20.5498 28.24C20.8598 28.55 20.5598 28.85 20.8698 29.16C21.1798 29.47 21.4798 29.17 21.7898 29.48L22.1698 29.1L23.3698 27.9L29.5798 21.69L25.8598 17.97Z" fill="#FFCA28"/>
<path d="M25.8598 17.97L19.6498 24.18L18.4498 25.38L18.0698 25.76C18.3798 26.07 18.0798 26.37 18.3898 26.68C18.6998 26.99 18.9998 26.69 19.3098 27L27.1098 19.2L25.8698 17.96L25.8598 17.97Z" fill="#FFD95F"/>
<path d="M20.55 28.25C20.86 28.56 20.56 28.86 20.87 29.17C21.18 29.48 21.48 29.18 21.79 29.49L22.17 29.11L23.37 27.91L29.58 21.7L28.34 20.46L20.54 28.26L20.55 28.25Z" fill="#FFB229"/>
<path d="M31.4602 19.9174L27.6347 16.092C27.5098 15.967 27.3071 15.967 27.1822 16.092L25.8104 17.4638C25.6854 17.5888 25.6854 17.7914 25.8104 17.9163L29.6358 21.7418C29.7608 21.8667 29.9634 21.8667 30.0884 21.7418L31.4602 20.37C31.5851 20.245 31.5851 20.0424 31.4602 19.9174Z" fill="#E5EAEA"/>
<path d="M29.7719 15.4083L32.1548 17.7913C32.5225 18.159 32.5225 18.7671 32.1548 19.1348L31.4123 19.8772L27.693 16.1579L28.4354 15.4154C28.8031 15.0477 29.4112 15.0477 29.7789 15.4154L29.7719 15.4083Z" fill="#FF5E5A"/>
<path d="M31.7851 19.4751L28.0657 15.7557L27.6838 16.1376L31.4032 19.857L31.7851 19.4751Z" fill="#E23B3B"/>
<path d="M16.8499 29.1L16.4299 30.26C16.2399 30.79 16.7499 31.31 17.2899 31.12L18.4499 30.7L16.8499 29.1Z" fill="#434849"/>
</g>
<defs>
<clipPath id="clip0_7120_65404">
<rect width="24.43" height="27.17" fill="white" transform="translate(8 6)"/>
</clipPath>
</defs>
</svg>
