<svg xmlns="http://www.w3.org/2000/svg" width="16" height="16" fill="none"><path fill="#6B7280" d="M4.12 11.088c-.422 0-.786-.096-1.09-.287a1.899 1.899 0 0 1-.7-.798 2.658 2.658 0 0 1-.244-1.165c0-.443.083-.834.25-1.173.167-.341.401-.607.704-.799.304-.19.66-.286 1.072-.286.33 0 .626.061.886.184.26.121.469.292.628.512.16.22.256.476.287.77h-.827a.99.99 0 0 0-.313-.529c-.16-.148-.376-.222-.647-.222-.237 0-.444.063-.622.188-.177.123-.314.3-.412.528a2.019 2.019 0 0 0-.148.807c0 .318.048.593.145.824.096.231.233.41.409.537.178.127.387.19.628.19.16 0 .307-.029.437-.088a.893.893 0 0 0 .333-.258.972.972 0 0 0 .19-.404h.827c-.03.283-.123.534-.276.756a1.586 1.586 0 0 1-.616.523c-.256.127-.556.19-.901.19Zm4.738-4.452v.682H6.474v-.682h2.384ZM7.114 5.591h.85v4.128c0 .165.024.289.073.372.05.081.113.137.19.168.08.028.166.042.259.042a.99.99 0 0 0 .179-.014l.12-.023.152.702a1.66 1.66 0 0 1-.551.09 1.496 1.496 0 0 1-.625-.118 1.072 1.072 0 0 1-.468-.387c-.12-.174-.18-.393-.18-.656V5.59ZM9.798 11V6.636h.82v.694h.046c.08-.235.22-.42.42-.554.203-.137.432-.205.688-.205a3.641 3.641 0 0 1 .36.02v.812a1.523 1.523 0 0 0-.181-.03 1.734 1.734 0 0 0-.261-.02c-.201 0-.38.042-.537.127a.95.95 0 0 0-.506.855V11h-.85Zm3.92-5.818V11h-.85V5.182h.85Z"/><rect width="15" height="15" x=".5" y=".5" stroke="#DDE3EA" rx="1.5"/></svg>