<svg xmlns="http://www.w3.org/2000/svg" width="14" height="14" fill="none"><path fill="currentColor" stroke="currentColor" stroke-width=".4" d="M8.598 7.2h2.828a.8.8 0 1 0 0-.4H8.598v-2h1a.6.6 0 0 0 .6-.6V2.4c0-.11.09-.2.2-.2h1.028a.8.8 0 1 0 0-.4h-1.028a.6.6 0 0 0-.6.6v1.8a.2.2 0 0 1-.2.2h-1V2.6C8.598 1.688 6.965 1 4.8 1S1 1.688 1 2.6v8.8c0 .912 1.633 1.6 3.8 1.6 2.165 0 3.798-.688 3.798-1.6v-1h1c.11 0 .2.09.2.2v1.2a.6.6 0 0 0 .6.6h1.028a.8.8 0 1 0 0-.4h-1.028a.2.2 0 0 1-.2-.2v-1.2a.6.6 0 0 0-.6-.6h-1V7.2Zm3.6-.6a.4.4 0 1 1-.001.8.4.4 0 0 1 0-.8Zm0-5a.4.4 0 1 1-.001.8.4.4 0 0 1 0-.8Zm0 10.2a.4.4 0 1 1-.001.8.4.4 0 0 1 0-.8ZM4.798 1.4c2.003 0 3.4.632 3.4 1.2s-1.397 1.2-3.4 1.2-3.4-.632-3.4-1.2 1.397-1.2 3.4-1.2ZM1.4 3.335c.612.522 1.872.865 3.4.865 1.528 0 2.788-.343 3.4-.865V5.6c0 .568-1.397 1.2-3.4 1.2s-3.4-.632-3.4-1.2V3.335ZM4.8 12.6c-2.003 0-3.4-.632-3.4-1.2V9.135c.612.522 1.872.865 3.4.865 1.528 0 2.788-.343 3.4-.865V11.4c0 .568-1.397 1.2-3.4 1.2Zm0-3c-2.003 0-3.4-.632-3.4-1.2V6.335c.612.522 1.872.865 3.4.865 1.528 0 2.788-.343 3.4-.865V8.4c0 .568-1.397 1.2-3.4 1.2Z"/><path fill="currentColor" stroke="currentColor" stroke-width=".4" d="M11.998 1.8h.4v.4h-.4v-.4ZM11.998 6.8h.4v.4h-.4v-.4ZM11.998 12h.4v.4h-.4V12Z"/></svg>