<svg viewBox="0 0 30 30" fill="none" xmlns="http://www.w3.org/2000/svg">
<path d="M15.0087 8.69514C15.9629 8.85944 16.8846 9.25503 17.6745 9.83875C17.7398 9.88707 17.8158 9.91091 17.8917 9.91091C17.9882 9.91091 18.0834 9.87226 18.1556 9.79752L20.8382 7.02064C20.9129 6.94333 20.9527 6.83638 20.9471 6.72685C20.9415 6.61732 20.8911 6.51552 20.8089 6.44658C19.1701 5.07619 17.1996 4.23088 15.1089 4.00216C15.0037 3.99056 14.8985 4.026 14.8201 4.09945C14.7417 4.1729 14.6963 4.27727 14.6963 4.3868V8.31373C14.6969 8.5025 14.8288 8.66422 15.0087 8.69514ZM15.4438 4.82492C17.1 5.07748 18.6647 5.74818 20.011 6.78419L17.8463 9.02502C17.1143 8.53407 16.294 8.18165 15.4438 7.99416V4.82492ZM8.71992 19.1087C7.94004 17.9787 7.52739 16.6444 7.52739 15.2501C7.52739 11.9862 9.78112 9.22926 12.8863 8.69514C13.0662 8.66422 13.1988 8.50315 13.1988 8.31373V4.3868C13.1988 4.27727 13.1539 4.1729 13.0749 4.09945C12.9959 4.026 12.8907 3.99121 12.7861 4.00216C10.2317 4.28178 7.86411 5.48531 6.08029 7.40142L4.46577 5.84353C4.39979 5.77975 4.31452 5.74302 4.22427 5.7398L2.31162 5.66893C2.14917 5.18829 1.70851 4.84231 1.18942 4.84231C0.533403 4.84231 0 5.39447 0 6.07354C0 6.75262 0.533403 7.30477 1.18942 7.30477C1.72095 7.30477 2.1722 6.94204 2.32407 6.44272L4.05871 6.50715L5.5805 7.97612C3.92739 10.0121 3.02054 12.5783 3.02054 15.2501C3.02054 17.8279 3.88133 20.3503 5.44357 22.3527C5.51017 22.4378 5.60851 22.49 5.71432 22.4958C5.72116 22.4964 5.72739 22.4964 5.73423 22.4964C5.8332 22.4964 5.9278 22.4558 5.99813 22.383L8.68008 19.6068C8.80892 19.4728 8.82573 19.2621 8.71992 19.1087ZM1.18942 6.53163C0.945436 6.53163 0.746888 6.3261 0.746888 6.07354C0.746888 5.82098 0.945436 5.61546 1.18942 5.61546C1.4334 5.61546 1.63195 5.82098 1.63195 6.07354C1.63195 6.3261 1.4334 6.53163 1.18942 6.53163ZM5.76971 21.5261C4.47573 19.7195 3.7668 17.5077 3.7668 15.2501C3.7668 9.98823 7.47199 5.58002 12.4512 4.82492V7.99352C10.9189 8.33112 9.52531 9.18802 8.49834 10.4302C7.39108 11.771 6.7805 13.4828 6.7805 15.2501C6.7805 16.6959 7.17822 18.0843 7.9332 19.2866L5.76971 21.5261ZM18.1556 20.7027C18.0268 20.5693 17.8232 20.5519 17.6745 20.6615C16.8846 21.2458 15.9622 21.6414 15.0087 21.8051C14.8288 21.836 14.6963 21.9971 14.6963 22.1865V26.1134C14.6963 26.223 14.7411 26.3273 14.8201 26.4008C14.8892 26.4652 14.9782 26.5 15.0697 26.5C15.0828 26.5 15.0959 26.4994 15.1089 26.4981C17.199 26.2693 19.1695 25.424 20.8089 24.0536C20.8911 23.9847 20.9415 23.8829 20.9471 23.7734C20.9527 23.6639 20.9129 23.5569 20.8382 23.4796L18.1556 20.7027ZM15.4438 25.6753V22.5067C16.2946 22.3186 17.1143 21.9668 17.8463 21.4759L20.011 23.7167C18.6641 24.7521 17.0994 25.4228 15.4438 25.6753ZM12.8863 21.8051C11.9322 21.6408 11.0104 21.2452 10.2205 20.6615C10.0718 20.5519 9.86888 20.5693 9.73942 20.7027L7.05685 23.4796C6.98216 23.5569 6.94232 23.6639 6.94792 23.7734C6.95353 23.8829 7.00394 23.9847 7.0861 24.0536C8.7249 25.424 10.6961 26.2693 12.7861 26.4981C12.7992 26.4994 12.8122 26.5 12.8253 26.5C12.9168 26.5 13.0064 26.4652 13.0749 26.4008C13.1533 26.3273 13.1988 26.223 13.1988 26.1134V22.1865C13.1988 21.9977 13.0668 21.836 12.8863 21.8051ZM12.4519 25.6753C10.7956 25.4228 9.23153 24.7521 7.88465 23.716L10.0494 21.4752C10.7813 21.9662 11.6017 22.3186 12.4519 22.5061V25.6753ZM19.1782 15.2501C19.1782 12.2645 16.8317 9.83553 13.9475 9.83553C11.0633 9.83553 8.71681 12.2645 8.71681 15.2501C8.71681 18.2357 11.0633 20.6647 13.9475 20.6647C16.8317 20.6647 19.1782 18.2357 19.1782 15.2501ZM13.9475 19.8916C11.4753 19.8916 9.46369 17.8092 9.46369 15.2501C9.46369 12.691 11.4753 10.6087 13.9475 10.6087C16.4197 10.6087 18.4313 12.691 18.4313 15.2501C18.4313 17.8092 16.4203 19.8916 13.9475 19.8916ZM28.8106 19.5314C28.279 19.5314 27.8278 19.8941 27.6759 20.3935L25.9413 20.329L24.3293 18.7731C24.6871 17.6424 24.8745 16.4524 24.8745 15.2508C24.8745 12.673 24.0137 10.1506 22.4515 8.14815C22.3849 8.0631 22.2865 8.01091 22.1807 8.00511C22.0755 7.99996 21.9716 8.04055 21.8969 8.11786L19.2149 10.8941C19.0861 11.0275 19.0693 11.2381 19.1751 11.3921C19.955 12.5222 20.3676 13.8565 20.3676 15.2508C20.3676 16.645 19.9556 17.9793 19.1751 19.1094C19.0687 19.2634 19.0855 19.4741 19.2149 19.6074L21.8969 22.3837C21.9672 22.4565 22.0624 22.4971 22.1608 22.4971C22.1676 22.4971 22.1739 22.4971 22.1807 22.4964C22.2865 22.4906 22.3849 22.4384 22.4515 22.3534C23.1143 21.5042 23.6502 20.561 24.0485 19.5597L25.5336 20.9933C25.5996 21.0571 25.6849 21.0938 25.7751 21.097L27.6884 21.1679C27.8508 21.6485 28.2915 21.9945 28.8106 21.9945C29.4666 21.9945 30 21.4424 30 20.7633C30 20.0842 29.4666 19.5314 28.8106 19.5314ZM22.1259 21.5261L19.9624 19.2866C20.7174 18.085 21.1151 16.6965 21.1151 15.2501C21.1151 13.8043 20.7174 12.4159 19.9624 11.2137L22.1259 8.97412C23.4199 10.7807 24.1282 12.9925 24.1282 15.2501C24.1282 17.5077 23.4199 19.7195 22.1259 21.5261ZM28.8106 21.2207C28.5666 21.2207 28.368 21.0152 28.368 20.7626C28.368 20.5101 28.5666 20.3045 28.8106 20.3045C29.0546 20.3045 29.2531 20.5101 29.2531 20.7626C29.2531 21.0152 29.0546 21.2207 28.8106 21.2207Z" fill="#757575"/>
</svg>