<svg xmlns="http://www.w3.org/2000/svg" width="16" height="16" fill="none"><path fill="#FF694B" d="M15.128.301a1.695 1.695 0 0 0-.596-.257 1.883 1.883 0 0 0-.666-.026 2.072 2.072 0 0 0-.667.213l-.973.537-.976.536-.976.536-.975.541a2.863 2.863 0 0 1-1.375.389 2.633 2.633 0 0 1-.703-.087 2.792 2.792 0 0 1-.676-.278l-.946-.514-.945-.515-.946-.512L2.76.35A1.733 1.733 0 0 0 1.58.095 1.86 1.86 0 0 0 .571.597a1.848 1.848 0 0 0-.542.985c-.076.408-.001.83.21 1.188l.332.607.73 1.333.73 1.334.333.607a2.666 2.666 0 0 1 .286 2.07c-.059.242-.15.474-.27.691l-.519.969-.52.965-.52.965-.52.966a2.161 2.161 0 0 0-.2.502 1.81 1.81 0 0 0-.057.506c.007.168.039.334.095.492.058.165.14.32.246.46a1.866 1.866 0 0 0 1.068.708 1.903 1.903 0 0 0 1.333-.16l1.012-.555 1.012-.554 1.011-.556 1.011-.555a5.512 5.512 0 0 1-.839-.742 7.578 7.578 0 0 1-.698-.884 11.406 11.406 0 0 1-.586-.97c-.161-.295-.31-.594-.455-.891.255.476.802.982 1.514 1.49a25.165 25.165 0 0 0 2.7 1.618c.98.522 1.987 1.015 2.857 1.452.87.436 1.606.814 2.043 1.102.353.21.773.275 1.173.185.37-.092.704-.298.952-.588.26-.295.43-.659.487-1.048.06-.411-.025-.83-.24-1.186l-.598-1.081-1.31-2.381-1.31-2.381-.59-1.07a7.186 7.186 0 0 0-.413-.619 5.918 5.918 0 0 0-.476-.557 5.38 5.38 0 0 0-.541-.488 4.924 4.924 0 0 0-.615-.414c.334.153.674.31 1.007.481.336.17.663.356.98.56.315.202.614.43.894.68.283.254.537.538.757.847l.539-.985.538-.985.54-.986.538-.985a1.834 1.834 0 0 0 .257-.986 1.753 1.753 0 0 0-.095-.508 1.672 1.672 0 0 0-.249-.467 1.702 1.702 0 0 0-.465-.477ZM2.648 14.095a.705.705 0 0 1-.74.752.746.746 0 1 1-.011-1.491.704.704 0 0 1 .752.739ZM1.175 1.935a.705.705 0 0 1 .74-.753.705.705 0 0 1 .752.74.705.705 0 0 1-.74.752.705.705 0 0 1-.752-.74Zm13.645 12.137a.747.747 0 1 1-.753-.739.704.704 0 0 1 .753.739ZM9.77 7.732c-.22-.36-.582-.5-1.018-.496a1.49 1.49 0 0 0-1 2.548 1.778 1.778 0 0 1-1.536-2.012c.14-.944 1.078-1.677 2.021-1.544.798.135 1.454.707 1.532 1.504h.001Zm5.101-5.86a.747.747 0 0 1-1.492.013.747.747 0 0 1 1.492-.013Z"/></svg>