<svg viewBox="0 0 20 20" fill="none" xmlns="http://www.w3.org/2000/svg">
<path fill-rule="evenodd" clip-rule="evenodd" d="M11.2838 19C11.8471 18.9996 12.3784 18.7798 12.7765 18.381L18.3848 12.7651C19.2051 11.9434 19.2051 10.6062 18.3848 9.78456L15.1036 6.50036L14.1599 7.54545L17.3895 10.7779C17.6629 11.0519 17.6629 11.4975 17.3895 11.7715L11.7812 17.3874C11.6486 17.5203 11.4721 17.5936 11.2843 17.5938C11.0966 17.5938 10.9196 17.5207 10.7869 17.3882L7.54545 14.1486L6.57128 15.1632L9.79298 18.3831C10.1914 18.7809 10.7208 19 11.2838 19ZM12.7765 4.16594L11.7812 5.1594L9.82934 3.20397C9.31592 2.68959 8.63285 2.40625 7.90594 2.40625H3.10952C2.72179 2.40625 2.40635 2.72167 2.40635 3.10938V7.89074C2.40635 8.61704 2.68938 9.29995 3.20335 9.81323L5.16388 11.7715L4.16875 12.7651L2.20946 10.808C1.4296 10.0291 1 8.99299 1 7.89074V3.10938C1 1.94614 1.94643 1 3.10952 1H7.90594C9.00905 1 10.0457 1.43 10.8248 2.21058L12.7765 4.16594ZM6.09812 8.13672C7.26133 8.13672 8.20765 7.19058 8.20765 6.02734C8.20765 4.86411 7.26133 3.91797 6.09812 3.91797C4.93492 3.91797 3.9886 4.86411 3.9886 6.02734C3.9886 7.19058 4.93492 8.13672 6.09812 8.13672ZM6.09812 5.32422C6.48586 5.32422 6.8013 5.63964 6.8013 6.02734C6.8013 6.41505 6.48586 6.73047 6.09812 6.73047C5.71028 6.73047 5.39495 6.41505 5.39495 6.02734C5.39495 5.63964 5.71028 5.32422 6.09812 5.32422Z" fill="currentColor"/>
<line x1="4" y1="17.08" x2="17.0815" y2="3.99849" stroke="currentColor" stroke-width="1.5" stroke-linecap="round"/>
</svg>
