
<svg viewBox="0 0 40 40" fill="none" xmlns="http://www.w3.org/2000/svg">
<path d="M8.9375 31.7188C8.41971 31.7188 8 31.299 8 30.7812V8.86719C8 6.73479 9.73479 5 11.8672 5H31.625C32.1428 5 32.5625 5.41977 32.5625 5.9375V27.5C32.5625 28.0177 32.1428 28.4375 31.625 28.4375C31.1072 28.4375 30.6875 28.0177 30.6875 27.5V6.875H11.8672C10.7687 6.875 9.875 7.76867 9.875 8.86719V30.7812C9.875 31.299 9.45529 31.7188 8.9375 31.7188Z" fill="currentColor"/>
<path d="M31.625 35H12.2188C9.89252 35 8 33.1075 8 30.7812C8 28.455 9.89252 26.5625 12.2188 26.5625H31.625C32.1428 26.5625 32.5625 26.9823 32.5625 27.5C32.5625 28.0177 32.1428 28.4375 31.625 28.4375H12.2188C10.9264 28.4375 9.875 29.4889 9.875 30.7812C9.875 32.0736 10.9264 33.125 12.2188 33.125H31.625C32.1428 33.125 32.5625 33.5448 32.5625 34.0625C32.5625 34.5802 32.1428 35 31.625 35Z" fill="currentColor"/>
<path d="M31.625 31.7188H12.2188C11.701 31.7188 11.2812 31.299 11.2812 30.7812C11.2812 30.2635 11.701 29.8438 12.2188 29.8438H31.625C32.1428 29.8438 32.5625 30.2635 32.5625 30.7812C32.5625 31.299 32.1428 31.7188 31.625 31.7188ZM13.1562 28.4375C12.6385 28.4375 12.2188 28.0177 12.2188 27.5V5.9375C12.2188 5.41977 12.6385 5 13.1562 5C13.674 5 14.0938 5.41977 14.0938 5.9375V27.5C14.0938 28.0177 13.674 28.4375 13.1562 28.4375Z" fill="currentColor"/>
</svg>
