<svg viewBox="0 0 14 14" fill="none" xmlns="http://www.w3.org/2000/svg">
<path fill-rule="evenodd" clip-rule="evenodd" d="M0.660671 13.1028C0.610902 13.119 0.558579 13.1274 0.505512 13.1274C0.430142 13.1275 0.355714 13.1107 0.287684 13.0782C0.219653 13.0458 0.159746 12.9985 0.112353 12.9399C0.0649604 12.8813 0.0312834 12.8128 0.0137914 12.7395C-0.00370064 12.6662 -0.00456462 12.5899 0.0112634 12.5162L0.783813 8.91526C0.785357 8.90228 0.787409 8.88933 0.789971 8.87645C0.809451 8.77848 0.857541 8.68849 0.928161 8.61785L7.34548 2.20054C7.35813 2.18435 7.37177 2.16892 7.38635 2.15434C7.40093 2.13976 7.41636 2.12612 7.43254 2.11348L8.8215 0.724521C8.84255 0.702724 8.86546 0.68292 8.88994 0.665317C9.35364 0.235498 9.95938 0 10.6066 0C11.2862 0 11.9207 0.259878 12.3924 0.7319C12.8645 1.20367 13.1243 1.83784 13.1243 2.51771C13.1243 3.17662 12.8803 3.79259 12.4355 4.25942C12.4223 4.27576 12.4081 4.29129 12.393 4.30593L4.49991 12.199C4.45304 12.246 4.39734 12.2833 4.33601 12.3087C4.29158 12.3271 4.24483 12.339 4.19719 12.3441L0.660671 13.1028ZM1.1634 11.9618L3.89431 11.3759L9.89413 5.37631L7.74612 3.22834L1.75086 9.2236L1.1634 11.9618ZM8.46035 2.51411L10.6084 4.66211L11.6456 3.62486C11.6559 3.61245 11.6667 3.60049 11.6782 3.58905C11.9593 3.30796 12.1141 2.92736 12.1141 2.51771C12.1141 2.10807 11.9593 1.72747 11.6782 1.44638C11.3969 1.16503 11.0163 1.01022 10.6066 1.01022C10.197 1.01022 9.8164 1.16503 9.53528 1.44638C9.51832 1.46334 9.50021 1.47904 9.48109 1.49337L8.46035 2.51411Z" fill="currentColor"/>
<path d="M7.75293 12.625H12.6329" stroke="currentColor" stroke-linecap="round"/>
</svg>