<svg viewBox="0 0 31 30" fill="none" xmlns="http://www.w3.org/2000/svg">
<path d="M14.8204 0.0675564C14.3397 0.155384 13.7486 0.499939 13.4302 0.878273C13.2418 1.10122 12.6637 2.26324 11.4944 4.72241C10.5784 6.66137 9.78584 8.29632 9.72737 8.35036C9.66241 8.41792 8.49958 8.6206 5.8751 9.01921C3.80279 9.32998 1.98384 9.634 1.82143 9.68804C1.1848 9.91099 0.645613 10.4785 0.385763 11.2014C0.275327 11.5054 0.255838 11.6946 0.275327 12.1877C0.314304 13.289 0.268831 13.2282 3.50396 16.5048C5.04358 18.0654 6.30385 19.3828 6.30385 19.4369C6.30385 19.4909 6.02451 21.2272 5.68021 23.2945C5.02409 27.2198 4.97212 27.7467 5.16051 28.3007C5.40737 29.0168 6.01152 29.6452 6.68713 29.8884C7.07041 30.0235 7.9409 30.0167 8.32418 29.8681C8.49308 29.8073 10.1171 28.9358 11.9426 27.9426L15.2557 26.1321L15.7039 26.3618C15.9443 26.4901 17.4579 27.3143 19.0625 28.1926C20.6671 29.0709 22.1157 29.8343 22.2781 29.8951C22.8693 30.1046 23.7918 29.9897 24.3374 29.6452C24.6493 29.4492 25.13 28.875 25.2859 28.5237C25.3768 28.3075 25.4288 28.0102 25.4483 27.6251C25.4743 27.1252 25.3963 26.5644 24.8571 23.2945C24.5128 21.234 24.2335 19.4977 24.2335 19.4369C24.2335 19.3761 25.4938 18.0587 27.0334 16.5048C30.2685 13.2282 30.223 13.289 30.262 12.1877C30.2815 11.6946 30.262 11.5054 30.1516 11.2014C29.8852 10.4717 29.3526 9.91099 28.7029 9.68804C28.534 9.62724 26.7086 9.32322 24.6493 9.01245C21.5895 8.54629 20.8749 8.42468 20.7905 8.32334C20.7255 8.25578 19.9525 6.66813 19.069 4.78997C18.179 2.91182 17.3735 1.24985 17.2695 1.10122C16.9187 0.553988 16.3341 0.182409 15.652 0.0608025C15.4246 0.0270214 15.2232 -1.90735e-06 15.2037 -1.90735e-06C15.1842 0.00675392 15.0153 0.0337772 14.8204 0.0675564ZM17.2111 5.952C18.7117 9.10703 18.9975 9.66778 19.2574 9.93801C19.842 10.5461 19.8225 10.5393 24.0451 11.1811C26.1304 11.4919 27.9039 11.7824 27.9883 11.8162C28.0858 11.8635 28.1313 11.9378 28.1313 12.0661C28.1313 12.2283 27.6895 12.7012 25.3379 15.0793C22.8238 17.6263 22.5315 17.9438 22.3431 18.3424C21.9793 19.0991 21.9923 19.2545 22.7264 23.6391C23.1356 26.0983 23.35 27.4968 23.311 27.5711C23.1616 27.8954 23.1551 27.8886 19.6342 25.9632C16.3276 24.1593 15.8014 23.9093 15.2687 23.9093C14.736 23.9093 14.2163 24.1526 10.9617 25.9361C9.12972 26.936 7.56412 27.7602 7.49916 27.7602C7.32376 27.7602 7.21332 27.6319 7.21332 27.4224C7.21332 27.3211 7.49266 25.5578 7.83696 23.4972C8.54506 19.2342 8.55155 19.0923 8.18776 18.3289C8.01236 17.9506 7.67456 17.5858 5.19949 15.0793C2.85434 12.708 2.4061 12.2283 2.4061 12.0661C2.4061 11.9378 2.45157 11.8635 2.55551 11.8162C2.63347 11.7824 4.40045 11.4986 6.47275 11.1811C10.7343 10.5393 10.7018 10.5461 11.2995 9.89748C11.5853 9.57319 11.8452 9.07325 13.3458 5.91146L15.0608 2.29027H15.2687H15.4701L17.2111 5.952Z" fill="#757575"/>
</svg>
