<svg width="50" height="50" viewBox="0 0 50 50" fill="none" xmlns="http://www.w3.org/2000/svg">
<path d="M45.0833 24.0417H32.2917C32.0154 24.0417 31.7504 24.1514 31.5551 24.3468C31.3597 24.5421 31.25 24.8071 31.25 25.0833C31.25 25.3596 31.3597 25.6246 31.5551 25.8199C31.7504 26.0153 32.0154 26.125 32.2917 26.125H45.0833C45.3126 26.5222 45.6666 26.8326 46.0903 27.0081C46.514 27.1836 46.9838 27.2144 47.4268 27.0957C47.8697 26.977 48.2612 26.7154 48.5404 26.3516C48.8196 25.9877 48.9709 25.5419 48.9709 25.0833C48.9709 24.6247 48.8196 24.1789 48.5404 23.8151C48.2612 23.4512 47.8697 23.1897 47.4268 23.071C46.9838 22.9523 46.514 22.9831 46.0903 23.1586C45.6666 23.3341 45.3126 23.6445 45.0833 24.0417Z" fill="url(#paint0_linear_7932_245985)"/>
<path d="M46.5 28C45.1215 28 44 26.8785 44 25.5C44 24.1215 45.1215 23 46.5 23C47.8785 23 49 24.1215 49 25.5C49 26.8785 47.8785 28 46.5 28ZM46.5 24.4706C45.9324 24.4706 45.4706 24.9324 45.4706 25.5C45.4706 26.0676 45.9324 26.5294 46.5 26.5294C47.0676 26.5294 47.5294 26.0676 47.5294 25.5C47.5294 24.9324 47.0676 24.4706 46.5 24.4706Z" fill="#052A75"/>
<path d="M40.9166 16.6667H34.375C34.2379 16.6659 34.102 16.6922 33.9751 16.744C33.8481 16.7958 33.7327 16.8722 33.6354 16.9688L28.427 22.1771C28.2801 22.3228 28.1799 22.5089 28.1392 22.7118C28.0985 22.9147 28.1192 23.125 28.1985 23.3161C28.2779 23.5072 28.4123 23.6703 28.5847 23.7847C28.7571 23.8991 28.9597 23.9595 29.1666 23.9583C29.3037 23.9591 29.4396 23.9329 29.5665 23.881C29.6934 23.8292 29.8089 23.7528 29.9062 23.6562L34.802 18.75H40.9166C41.1459 19.1472 41.4999 19.4576 41.9236 19.6331C42.3473 19.8086 42.8171 19.8394 43.26 19.7207C43.703 19.602 44.0945 19.3404 44.3737 18.9766C44.6528 18.6127 44.8042 18.1669 44.8042 17.7083C44.8042 17.2497 44.6528 16.8039 44.3737 16.4401C44.0945 16.0762 43.703 15.8147 43.26 15.696C42.8171 15.5773 42.3473 15.6081 41.9236 15.7836C41.4999 15.9591 41.1459 16.2695 40.9166 16.6667Z" fill="url(#paint1_linear_7932_245985)"/>
<path d="M43.75 4.16656C43.4314 4.16718 43.1173 4.24082 42.8317 4.38183C42.5461 4.52285 42.2966 4.72747 42.1025 4.97997C41.9083 5.23248 41.7746 5.52614 41.7117 5.83839C41.6488 6.15063 41.6583 6.47315 41.7395 6.78114L39.1562 9.37489H32.2916C31.75 9.37489 32.0729 9.23947 25.375 14.8228C25.2098 14.9597 25.0909 15.1442 25.0345 15.3511C24.9782 15.5581 24.9871 15.7774 25.06 15.9791C25.1329 16.1808 25.2664 16.3551 25.4421 16.4781C25.6177 16.6012 25.8271 16.667 26.0416 16.6666C26.5625 16.6666 26.2395 16.8124 32.6666 11.4582H39.5833C39.7204 11.459 39.8563 11.4327 39.9832 11.3809C40.1101 11.3291 40.2255 11.2527 40.3229 11.1561L43.2187 8.26031C43.5058 8.33829 43.8062 8.3539 44.0999 8.30606C44.3935 8.25823 44.6734 8.14807 44.9209 7.98299C45.1684 7.81792 45.3777 7.60176 45.5346 7.34905C45.6916 7.09635 45.7926 6.81296 45.8309 6.51795C45.8692 6.22294 45.8438 5.92315 45.7566 5.63875C45.6693 5.35435 45.5222 5.09194 45.325 4.86916C45.1279 4.64639 44.8853 4.46842 44.6136 4.34722C44.3419 4.22603 44.0474 4.16443 43.75 4.16656Z" fill="url(#paint2_linear_7932_245985)"/>
<path d="M43.5 9C42.1215 9 41 7.87853 41 6.5C41 5.12147 42.1215 4 43.5 4C44.8785 4 46 5.12147 46 6.5C46 7.87853 44.8785 9 43.5 9ZM43.5 5.47059C42.9324 5.47059 42.4706 5.93235 42.4706 6.5C42.4706 7.06765 42.9324 7.52941 43.5 7.52941C44.0676 7.52941 44.5294 7.06765 44.5294 6.5C44.5294 5.93235 44.0676 5.47059 43.5 5.47059Z" fill="#052A75"/>
<path d="M42.5 20C41.1215 20 40 18.8785 40 17.5C40 16.1215 41.1215 15 42.5 15C43.8785 15 45 16.1215 45 17.5C45 18.8785 43.8785 20 42.5 20ZM42.5 16.4706C41.9324 16.4706 41.4706 16.9324 41.4706 17.5C41.4706 18.0676 41.9324 18.5294 42.5 18.5294C43.0676 18.5294 43.5294 18.0676 43.5294 17.5C43.5294 16.9324 43.0676 16.4706 42.5 16.4706Z" fill="#052A75"/>
<path d="M43.2187 41.7396L40.3229 38.8438C40.2255 38.7472 40.1101 38.6708 39.9832 38.619C39.8563 38.5672 39.7204 38.5409 39.5833 38.5417H32.6666L26.7083 33.5729C26.603 33.4854 26.4814 33.4194 26.3506 33.3788C26.2198 33.3383 26.0823 33.3239 25.9459 33.3364C25.8095 33.349 25.6769 33.3883 25.5557 33.4521C25.4345 33.5159 25.3271 33.603 25.2395 33.7083C25.152 33.8137 25.0861 33.9352 25.0455 34.066C25.0049 34.1968 24.9905 34.3344 25.0031 34.4708C25.0156 34.6071 25.055 34.7397 25.1188 34.8609C25.1826 34.9821 25.2696 35.0895 25.375 35.1771L31.625 40.3854C32.0312 40.7187 31.7916 40.625 39.1562 40.625L41.7395 43.2188C41.622 43.6616 41.6537 44.1309 41.8298 44.5539C42.0059 44.9769 42.3165 45.33 42.7136 45.5586C43.1107 45.7873 43.5721 45.8786 44.0263 45.8185C44.4805 45.7585 44.9023 45.5503 45.2263 45.2263C45.5503 44.9023 45.7584 44.4806 45.8185 44.0263C45.8786 43.5721 45.7872 43.1107 45.5586 42.7137C45.33 42.3166 44.9768 42.006 44.5538 41.8299C44.1308 41.6538 43.6616 41.622 43.2187 41.7396Z" fill="url(#paint3_linear_7932_245985)"/>
<path d="M40.9167 31.2499H34.8021L29.9062 26.3437C29.8091 26.2466 29.6938 26.1695 29.5669 26.117C29.44 26.0644 29.304 26.0374 29.1667 26.0374C28.8893 26.0374 28.6232 26.1475 28.4271 26.3437C28.2309 26.5398 28.1207 26.8059 28.1207 27.0833C28.1207 27.3607 28.2309 27.6267 28.4271 27.8229L33.6354 33.0312C33.7327 33.1277 33.8482 33.2041 33.9751 33.256C34.102 33.3078 34.2379 33.3341 34.375 33.3333H40.9167C41.146 33.7305 41.4999 34.0409 41.9236 34.2164C42.3473 34.3919 42.8171 34.4227 43.2601 34.304C43.7031 34.1853 44.0945 33.9237 44.3737 33.5599C44.6529 33.196 44.8042 32.7502 44.8042 32.2916C44.8042 31.833 44.6529 31.3872 44.3737 31.0234C44.0945 30.6595 43.7031 30.398 43.2601 30.2793C42.8171 30.1606 42.3473 30.1914 41.9236 30.3669C41.4999 30.5424 41.146 30.8528 40.9167 31.2499Z" fill="url(#paint4_linear_7932_245985)"/>
<path d="M25 6.24992V43.7499C25 44.0262 24.8902 44.2911 24.6949 44.4865C24.4995 44.6818 24.2346 44.7916 23.9583 44.7916H17.7083C17.432 44.7916 17.1671 44.6818 16.9717 44.4865C16.7764 44.2911 16.6666 44.0262 16.6666 43.7499V41.9062C16.6759 41.6737 16.6071 41.4449 16.4711 41.2561C16.3352 41.0673 16.14 40.9295 15.9166 40.8645C14.9318 40.5588 13.9765 40.1649 13.0625 39.6874C12.8657 39.5773 12.6384 39.534 12.4149 39.564C12.1913 39.5941 11.9836 39.6959 11.8229 39.8541L10.5208 41.1978C10.424 41.2955 10.3087 41.373 10.1818 41.4258C10.0549 41.4787 9.91872 41.506 9.78121 41.506C9.6437 41.506 9.50755 41.4787 9.38061 41.4258C9.25367 41.373 9.13846 41.2955 9.04163 41.1978L4.63538 36.7916C4.53774 36.6948 4.46025 36.5795 4.40736 36.4526C4.35448 36.3257 4.32725 36.1895 4.32725 36.052C4.32725 35.9145 4.35448 35.7783 4.40736 35.6514C4.46025 35.5245 4.53774 35.4093 4.63538 35.3124L5.93746 34.0103C6.09569 33.8496 6.19749 33.6419 6.22754 33.4183C6.2576 33.1948 6.21429 32.9676 6.10413 32.7708C5.62668 31.8567 5.23272 30.9015 4.92704 29.9166C4.86209 29.6932 4.72424 29.498 4.53545 29.3621C4.34667 29.2262 4.11782 29.1573 3.88538 29.1666H2.08329C1.80703 29.1666 1.54207 29.0568 1.34672 28.8615C1.15137 28.6661 1.04163 28.4012 1.04163 28.1249V21.8749C1.04163 21.5987 1.15137 21.3337 1.34672 21.1383C1.54207 20.943 1.80703 20.8333 2.08329 20.8333H3.92704C4.15949 20.8425 4.38834 20.7737 4.57712 20.6378C4.7659 20.5018 4.90376 20.3066 4.96871 20.0833C5.27439 19.0984 5.66835 18.1431 6.14579 17.2291C6.25596 17.0323 6.29926 16.805 6.26921 16.5815C6.23915 16.358 6.13736 16.1502 5.97913 15.9895L4.63538 14.6874C4.53774 14.5906 4.46025 14.4754 4.40736 14.3484C4.35448 14.2215 4.32725 14.0853 4.32725 13.9478C4.32725 13.8103 4.35448 13.6742 4.40736 13.5472C4.46025 13.4203 4.53774 13.3051 4.63538 13.2083L9.04163 8.802C9.13846 8.70437 9.25367 8.62687 9.38061 8.57399C9.50755 8.52111 9.6437 8.49388 9.78121 8.49388C9.91872 8.49388 10.0549 8.52111 10.1818 8.57399C10.3087 8.62687 10.424 8.70437 10.5208 8.802L11.8229 10.1041C11.9836 10.2623 12.1913 10.3641 12.4149 10.3942C12.6384 10.4242 12.8657 10.3809 13.0625 10.2708C13.9765 9.79331 14.9318 9.39935 15.9166 9.09367C16.14 9.02872 16.3352 8.89086 16.4711 8.70208C16.6071 8.5133 16.6759 8.28444 16.6666 8.052V6.24992C16.6666 5.97365 16.7764 5.7087 16.9717 5.51335C17.1671 5.318 17.432 5.20825 17.7083 5.20825H23.9583C24.2346 5.20825 24.4995 5.318 24.6949 5.51335C24.8902 5.7087 25 5.97365 25 6.24992Z" fill="url(#paint5_linear_7932_245985)"/>
<path d="M20.5 37C27.4036 37 33 31.4036 33 24.5C33 17.5964 27.4036 12 20.5 12C13.5964 12 8 17.5964 8 24.5C8 31.4036 13.5964 37 20.5 37Z" fill="#ECF2FF"/>
<path d="M32.9113 24.5C32.9113 31.3547 27.1959 36.9113 20.1454 36.9113V12.0886C27.1959 12.0886 32.9113 17.6453 32.9113 24.5Z" fill="#DAE6FE"/>
<path d="M22.2301 19.9731H19.1064V28.3176H21.1842V26.2273H22.2301C23.9546 26.2273 25.3571 24.8241 25.3571 23.1002C25.3571 21.3757 23.9546 19.9731 22.2301 19.9731ZM22.2301 24.1495H21.1842V22.0509H22.2301C22.8084 22.0509 23.2793 22.5212 23.2793 23.1002C23.2793 23.6785 22.8084 24.1495 22.2301 24.1495Z" fill="#18B2FF"/>
<path d="M22.2301 19.9731H20.1454V28.3176H21.1843V26.2273H22.2301C23.9547 26.2273 25.3572 24.8241 25.3572 23.1002C25.3572 21.3757 23.9547 19.9731 22.2301 19.9731ZM22.2301 24.1495H21.1843V22.0509H22.2301C22.8084 22.0509 23.2794 22.5212 23.2794 23.1002C23.2794 23.6785 22.8084 24.1495 22.2301 24.1495Z" fill="#1588DF"/>
<path d="M14.3016 19.9729C12.5783 19.9729 11.1763 21.3749 11.1763 23.0982V28.3177H13.2541V26.227H15.3492V28.3181H17.427V23.0982C17.427 21.3749 16.0249 19.9729 14.3016 19.9729ZM13.2541 24.1493V23.0982C13.2541 22.5206 13.724 22.0507 14.3016 22.0507C14.8792 22.0507 15.3492 22.5206 15.3492 23.0982V24.1493H13.2541Z" fill="#18B2FF"/>
<path d="M26.7153 19.9724H28.7931V28.3182H26.7153V19.9724Z" fill="#1588DF"/>
<path d="M42.5 35C41.1215 35 40 33.8785 40 32.5C40 31.1215 41.1215 30 42.5 30C43.8785 30 45 31.1215 45 32.5C45 33.8785 43.8785 35 42.5 35ZM42.5 31.4706C41.9324 31.4706 41.4706 31.9324 41.4706 32.5C41.4706 33.0676 41.9324 33.5294 42.5 33.5294C43.0676 33.5294 43.5294 33.0676 43.5294 32.5C43.5294 31.9324 43.0676 31.4706 42.5 31.4706Z" fill="#052A75"/>
<path d="M43.5 46C42.1215 46 41 44.8785 41 43.5C41 42.1215 42.1215 41 43.5 41C44.8785 41 46 42.1215 46 43.5C46 44.8785 44.8785 46 43.5 46ZM43.5 42.4706C42.9324 42.4706 42.4706 42.9324 42.4706 43.5C42.4706 44.0676 42.9324 44.5294 43.5 44.5294C44.0676 44.5294 44.5294 44.0676 44.5294 43.5C44.5294 42.9324 44.0676 42.4706 43.5 42.4706Z" fill="#052A75"/>
<defs>
<linearGradient id="paint0_linear_7932_245985" x1="31.25" y1="25.0833" x2="48.9583" y2="25.0833" gradientUnits="userSpaceOnUse">
<stop stop-color="#FE9661"/>
<stop offset="1" stop-color="#FFB369"/>
</linearGradient>
<linearGradient id="paint1_linear_7932_245985" x1="28.125" y1="19.7917" x2="44.7916" y2="19.7917" gradientUnits="userSpaceOnUse">
<stop stop-color="#FE9661"/>
<stop offset="1" stop-color="#FFB369"/>
</linearGradient>
<linearGradient id="paint2_linear_7932_245985" x1="25" y1="10.4166" x2="45.8333" y2="10.4166" gradientUnits="userSpaceOnUse">
<stop stop-color="#FE9661"/>
<stop offset="1" stop-color="#FFB369"/>
</linearGradient>
<linearGradient id="paint3_linear_7932_245985" x1="25" y1="39.5833" x2="45.8333" y2="39.5833" gradientUnits="userSpaceOnUse">
<stop stop-color="#FE9661"/>
<stop offset="1" stop-color="#FFB369"/>
</linearGradient>
<linearGradient id="paint4_linear_7932_245985" x1="28.125" y1="30.2083" x2="44.7917" y2="30.2083" gradientUnits="userSpaceOnUse">
<stop stop-color="#FE9661"/>
<stop offset="1" stop-color="#FFB369"/>
</linearGradient>
<linearGradient id="paint5_linear_7932_245985" x1="1.04163" y1="24.9999" x2="25" y2="24.9999" gradientUnits="userSpaceOnUse">
<stop stop-color="#54A5FF"/>
<stop offset="1" stop-color="#8AD3FE"/>
</linearGradient>
</defs>
</svg>
