<svg viewBox="0 0 30 30" fill="none" xmlns="http://www.w3.org/2000/svg">
<path fill-rule="evenodd" clip-rule="evenodd" d="M26.5862 26.5861C27.1194 26.5861 27.5517 26.1538 27.5517 25.6206C27.5517 25.0873 27.1194 24.6551 26.5862 24.6551C26.0529 24.6551 25.6206 25.0873 25.6206 25.6206C25.6206 26.1538 26.0529 26.5861 26.5862 26.5861ZM26.5862 28.0344C27.9193 28.0344 28.9999 26.9537 28.9999 25.6206C28.9999 24.2875 27.9193 23.2068 26.5862 23.2068C25.2531 23.2068 24.1724 24.2875 24.1724 25.6206C24.1724 26.9537 25.2531 28.0344 26.5862 28.0344Z" fill="currentColor"/>
<path fill-rule="evenodd" clip-rule="evenodd" d="M19.6895 23.5794L20.9313 22.8342L22.1687 24.8964H25.138V26.3447H21.3487L19.6895 23.5794Z" fill="currentColor"/>
<path fill-rule="evenodd" clip-rule="evenodd" d="M3.41379 26.5861C3.94703 26.5861 4.37931 26.1538 4.37931 25.6206C4.37931 25.0873 3.94703 24.6551 3.41379 24.6551C2.88055 24.6551 2.44828 25.0873 2.44828 25.6206C2.44828 26.1538 2.88055 26.5861 3.41379 26.5861ZM3.41379 28.0344C4.74689 28.0344 5.82759 26.9537 5.82759 25.6206C5.82759 24.2875 4.74689 23.2068 3.41379 23.2068C2.08069 23.2068 1 24.2875 1 25.6206C1 26.9537 2.08069 28.0344 3.41379 28.0344Z" fill="currentColor"/>
<path fill-rule="evenodd" clip-rule="evenodd" d="M10.3105 23.5794L9.06866 22.8342L7.83133 24.8964H4.86202V26.3447H8.65133L10.3105 23.5794Z" fill="currentColor"/>
<path fill-rule="evenodd" clip-rule="evenodd" d="M26.5862 5.34489C27.1194 5.34489 27.5517 4.91261 27.5517 4.37937C27.5517 3.84613 27.1194 3.41385 26.5862 3.41385C26.0529 3.41385 25.6206 3.84613 25.6206 4.37937C25.6206 4.91261 26.0529 5.34489 26.5862 5.34489ZM26.5862 6.79316C27.9193 6.79316 28.9999 5.71247 28.9999 4.37937C28.9999 3.04627 27.9193 1.96558 26.5862 1.96558C25.2531 1.96558 24.1724 3.04627 24.1724 4.37937C24.1724 5.71247 25.2531 6.79316 26.5862 6.79316Z" fill="currentColor"/>
<path fill-rule="evenodd" clip-rule="evenodd" d="M19.6895 6.90306L20.9313 7.64819L22.1687 5.58597H25.138V4.1377H21.3487L19.6895 6.90306Z" fill="currentColor"/>
<path fill-rule="evenodd" clip-rule="evenodd" d="M3.41379 5.34489C3.94703 5.34489 4.37931 4.91261 4.37931 4.37937C4.37931 3.84613 3.94703 3.41385 3.41379 3.41385C2.88055 3.41385 2.44828 3.84613 2.44828 4.37937C2.44828 4.91261 2.88055 5.34489 3.41379 5.34489ZM3.41379 6.79316C4.74689 6.79316 5.82759 5.71247 5.82759 4.37937C5.82759 3.04627 4.74689 1.96558 3.41379 1.96558C2.08069 1.96558 1 3.04627 1 4.37937C1 5.71247 2.08069 6.79316 3.41379 6.79316Z" fill="currentColor"/>
<path fill-rule="evenodd" clip-rule="evenodd" d="M10.3105 6.90306L9.06866 7.64819L7.83133 5.58597H4.86202V4.1377H8.65133L10.3105 6.90306Z" fill="currentColor"/>
<path fill-rule="evenodd" clip-rule="evenodd" d="M11.8621 29V1H13.3103V29H11.8621Z" fill="currentColor"/>
<path fill-rule="evenodd" clip-rule="evenodd" d="M15.7241 29V1H17.1724V29H15.7241Z" fill="currentColor"/>
<path fill-rule="evenodd" clip-rule="evenodd" d="M1 14.7585H29V16.2068H1V14.7585Z" fill="currentColor"/>
<path fill-rule="evenodd" clip-rule="evenodd" d="M1 18.6206H29V20.0689H1V18.6206Z" fill="currentColor"/>
<path fill-rule="evenodd" clip-rule="evenodd" d="M1 10.8965H29V12.3448H1V10.8965Z" fill="currentColor"/>
<path d="M25.138 15.4827C25.138 21.3484 20.3829 26.1034 14.5173 26.1034C8.65165 26.1034 3.89661 21.3484 3.89661 15.4827C3.89661 9.61711 8.65165 4.86206 14.5173 4.86206C20.3829 4.86206 25.138 9.61711 25.138 15.4827Z" fill="white"/>
<path fill-rule="evenodd" clip-rule="evenodd" d="M14.5173 24.7517C19.6364 24.7517 23.7863 20.6019 23.7863 15.4827C23.7863 10.3636 19.6364 6.21378 14.5173 6.21378C9.39819 6.21378 5.24833 10.3636 5.24833 15.4827C5.24833 20.6019 9.39819 24.7517 14.5173 24.7517ZM14.5173 26.1034C20.3829 26.1034 25.138 21.3484 25.138 15.4827C25.138 9.61711 20.3829 4.86206 14.5173 4.86206C8.65165 4.86206 3.89661 9.61711 3.89661 15.4827C3.89661 21.3484 8.65165 26.1034 14.5173 26.1034Z" fill="currentColor"/>
<path d="M16.1794 12.5862H13.7998V18.9434H15.3827V17.3506H16.1794C17.493 17.3506 18.5617 16.282 18.5617 14.9684C18.5617 13.6548 17.4929 12.5862 16.1794 12.5862ZM16.1794 15.7678H15.3827V14.1691H16.1794C16.6202 14.1691 16.9788 14.5277 16.9788 14.9684C16.9788 15.4092 16.6201 15.7678 16.1794 15.7678Z" fill="currentColor"/>
<path d="M10.1396 12.5862C8.82675 12.5862 7.75867 13.6543 7.75867 14.9671V18.9434H9.34155V17.3506H10.9376V18.9437H12.5205V14.9671C12.5205 13.6543 11.4524 12.5862 10.1396 12.5862ZM9.34155 15.7678V14.9671C9.34155 14.5271 9.69955 14.1691 10.1396 14.1691C10.5796 14.1691 10.9376 14.5271 10.9376 14.9671V15.7678H9.34155Z" fill="currentColor"/>
<path d="M19.5963 12.5862H21.1792V18.9441H19.5963V12.5862Z" fill="currentColor"/>
</svg>
