<svg width="16" height="16" viewBox="0 0 17 17" fill="none" xmlns="http://www.w3.org/2000/svg">
<g clip-path="url(#clip0_3917_43158)">
<path fill-rule="evenodd" clip-rule="evenodd" d="M1.55879 0.65475C1.33467 0.791375 1.03967 1.08637 0.903041 1.3105C0.673041 1.68775 0.654541 1.9445 0.654541 4.78038C0.654541 7.61625 0.673041 7.873 0.903041 8.25025C1.41179 9.08463 1.68179 9.1545 4.40367 9.1545C7.12554 9.1545 7.39554 9.08463 7.90429 8.25025C8.13429 7.873 8.15279 7.61625 8.15279 4.78038C8.15279 1.9445 8.13429 1.68775 7.90429 1.3105C7.39554 0.476125 7.12554 0.40625 4.40367 0.40625C2.19142 0.40625 1.92854 0.42925 1.55879 0.65475ZM10.0588 0.65475C9.26892 1.13625 9.15454 1.49988 9.15454 3.53038C9.15454 5.56087 9.26892 5.9245 10.0588 6.406C10.4285 6.6315 10.6914 6.6545 12.9037 6.6545C15.1159 6.6545 15.3788 6.6315 15.7485 6.406C16.5384 5.9245 16.6528 5.56087 16.6528 3.53038C16.6528 1.49988 16.5384 1.13625 15.7485 0.65475C15.3788 0.42925 15.1159 0.40625 12.9037 0.40625C10.6914 0.40625 10.4285 0.42925 10.0588 0.65475ZM2.15367 1.90538C1.91954 2.1395 1.90367 2.322 1.90367 4.78038C1.90367 8.15812 1.70142 7.90538 4.40367 7.90538C7.10592 7.90538 6.90367 8.15812 6.90367 4.78038C6.90367 1.40263 7.10592 1.65538 4.40367 1.65538C2.57029 1.65538 2.38279 1.67625 2.15367 1.90538ZM10.6537 1.90538C10.4339 2.12513 10.4037 2.322 10.4037 3.53038C10.4037 5.46075 10.3298 5.40538 12.9037 5.40538C15.4775 5.40538 15.4037 5.46075 15.4037 3.53038C15.4037 1.6 15.4775 1.65538 12.9037 1.65538C11.0703 1.65538 10.8828 1.67625 10.6537 1.90538ZM10.0588 7.90475C9.83467 8.04137 9.53967 8.33637 9.40304 8.5605C9.17304 8.93775 9.15454 9.1945 9.15454 12.0304C9.15454 14.8662 9.17304 15.123 9.40304 15.5002C9.91179 16.3346 10.1818 16.4045 12.9037 16.4045C15.6837 16.4045 15.8689 16.3515 16.4804 15.3829L16.8159 14.8512L16.7289 11.9111C16.6327 8.6595 16.59 8.47975 15.7847 7.937C15.3863 7.66862 15.2519 7.65538 12.9164 7.65588C10.6919 7.65625 10.4287 7.67925 10.0588 7.90475ZM10.6537 9.15537C10.4195 9.3895 10.4037 9.572 10.4037 12.0304C10.4037 15.4081 10.2014 15.1554 12.9037 15.1554C15.6059 15.1554 15.4037 15.4081 15.4037 12.0304C15.4037 8.65262 15.6059 8.90537 12.9037 8.90537C11.0703 8.90537 10.8828 8.92625 10.6537 9.15537ZM1.57454 10.3951C0.819166 10.8557 0.778666 11.0031 0.778666 13.2914C0.778666 15.2117 0.798791 15.3971 1.03967 15.7035C1.54842 16.3503 1.81504 16.4054 4.42867 16.4049C6.61542 16.4045 6.87929 16.3812 7.24854 16.156C8.03842 15.6745 8.15279 15.3109 8.15279 13.2804C8.15279 11.2499 8.03842 10.8862 7.24854 10.4047C6.87879 10.1792 6.61592 10.1562 4.40367 10.1562C2.22417 10.1562 1.92467 10.1816 1.57454 10.3951ZM2.15367 11.6554C1.93392 11.8751 1.90367 12.072 1.90367 13.2804C1.90367 15.2107 1.82979 15.1554 4.40367 15.1554C6.97754 15.1554 6.90367 15.2107 6.90367 13.2804C6.90367 11.35 6.97754 11.4054 4.40367 11.4054C2.57029 11.4054 2.38279 11.4262 2.15367 11.6554Z" fill="currentColor"/>
</g>
<defs>
<clipPath id="clip0_3917_43158">
<rect width="16" height="16" fill="white" transform="translate(0.653564 0.40625)"/>
</clipPath>
</defs>
</svg>
