<svg viewBox="0 0 50 50" fill="none" xmlns="http://www.w3.org/2000/svg">
<path d="M4 42H45.8325" stroke="#757575" stroke-width="0.8"/>
<path d="M23.0468 36.4812V39.1514H25.1829V35.9472C26.7494 33.9535 26.4292 33.099 25.1829 32.209L25.0049 33.9891H23.0468L22.8688 32.209C21.3023 33.3483 21.8009 34.8791 23.0468 36.4812Z" fill="#2196F3"/>
<path d="M25.6448 32.0027C25.5083 31.8936 25.4313 31.8628 25.2926 31.8686C25.0932 31.8784 24.8879 32.0301 24.8192 32.2185C24.799 32.2746 24.7879 32.5117 24.7892 32.8856C24.7894 33.203 24.7849 33.4936 24.7785 33.5293C24.7616 33.6107 24.6451 33.7403 24.5565 33.7709C24.5214 33.7851 24.2853 33.8021 24.032 33.8112C23.5241 33.8282 23.4701 33.8163 23.3613 33.6749C23.3033 33.6009 23.3 33.5783 23.2855 32.9499C23.2696 32.2479 23.2634 32.2227 23.1107 32.0817C23.0661 32.0425 22.9916 31.9946 22.9445 31.9753C22.8276 31.932 22.6227 31.9533 22.515 32.0216C22.3989 32.0987 22.0922 32.4303 21.9697 32.6153C21.4382 33.4168 21.4128 34.486 21.9047 35.2829C22.0215 35.4735 22.0982 35.5624 22.3782 35.8482C22.8068 36.285 22.8173 36.3172 22.8178 37.3273C22.8209 39.013 22.8249 39.156 22.8685 39.2165C22.9978 39.3938 23.2396 39.3738 23.3364 39.1785C23.3638 39.1263 23.3706 38.8101 23.3652 37.8371C23.3621 37.1388 23.3504 36.5102 23.3393 36.4441C23.3135 36.278 23.2417 36.0714 23.1567 35.9162C23.0981 35.8082 23.0402 35.7398 22.7949 35.4922C22.6001 35.2949 22.4743 35.1542 22.4189 35.0687C22.094 34.5765 22.0119 33.9708 22.1897 33.4066C22.2699 33.1511 22.3656 32.9685 22.5274 32.762C22.7458 32.4809 22.7356 32.4657 22.743 33.0902C22.7463 33.5717 22.7535 33.6536 22.7997 33.7749C22.8725 33.9575 22.9943 34.1139 23.1362 34.2085C23.3383 34.3403 23.4647 34.3648 23.9502 34.3573C24.4031 34.3497 24.5444 34.3381 24.6852 34.2954C24.9724 34.2068 25.1946 33.9765 25.2922 33.6707C25.3364 33.5343 25.3418 33.442 25.3375 32.9845L25.3319 32.4563L25.4529 32.5703C25.9012 32.995 26.0986 33.7121 25.9449 34.3574C25.8491 34.7624 25.7339 34.9599 25.3759 35.3488C25.233 35.5036 25.0916 35.6653 25.0626 35.7076C24.9151 35.922 24.8103 36.2239 24.7926 36.4854C24.7737 36.7624 24.7874 39.0201 24.8114 39.0927C24.8674 39.2845 25.1147 39.3365 25.2563 39.1861C25.2854 39.1523 25.3171 39.1042 25.3236 39.077C25.3302 39.0498 25.3347 38.456 25.3316 37.7549C25.3294 36.9545 25.3381 36.437 25.3566 36.3654C25.4145 36.1307 25.4778 36.0317 25.7872 35.6943C26.0869 35.3673 26.1793 35.2345 26.3073 34.96C26.6352 34.2507 26.6215 33.4395 26.2662 32.7573C26.1223 32.4771 25.8949 32.2019 25.6448 32.0027Z" fill="#757575"/>
<path d="M18.4189 17.9688V20.4419C18.4189 21.8565 18.95 23.2196 19.9069 24.2615V24.2615C22.097 26.6458 25.8392 26.7042 28.1026 24.3894L28.1746 24.3157C29.224 23.2425 29.8116 21.801 29.8116 20.3V17.9688" stroke="#757575" stroke-width="0.8" stroke-linecap="round"/>
<path d="M17.3508 16.9004L17.2925 16.9392C16.6617 17.3598 16.2827 18.0679 16.2827 18.8261V18.8261C16.2827 19.8022 16.9073 20.6688 17.8333 20.9775L18.4188 21.1726" stroke="#757575" stroke-width="0.8" stroke-linecap="round"/>
<path d="M20.5548 25.2666C20.7328 26.3347 20.8396 28.5064 19.8428 28.6488" stroke="#757575" stroke-width="0.8" stroke-linecap="round"/>
<path d="M27.4359 25.2666C27.2579 26.3347 27.1511 28.5064 28.1479 28.6488" stroke="#757575" stroke-width="0.8" stroke-linecap="round"/>
<path d="M11.2986 39.3303C11.1206 37.8468 11.1562 34.4884 12.7227 32.9219" stroke="#757575" stroke-width="0.8" stroke-linecap="round"/>
<path d="M36.9318 39.3303C37.1098 37.8468 37.0742 34.4884 35.5078 32.9219" stroke="#757575" stroke-width="0.8" stroke-linecap="round"/>
<path d="M13.0784 30.2518L13.6125 39.5083H34.7959C34.9739 36.6008 35.3299 30.5722 35.3299 29.7178C35.3299 28.8633 34.4992 28.531 34.0838 28.4717H14.1465C13.1496 28.4717 13.0191 29.6584 13.0784 30.2518Z" stroke="#757575" stroke-width="0.8" stroke-linecap="round"/>
<rect x="10.2305" y="39.6855" width="27.7696" height="2.13613" rx="1.06806" stroke="#757575" stroke-width="0.8"/>
<path d="M30.8797 16.9004L30.9379 16.9392C31.5688 17.3598 31.9478 18.0679 31.9478 18.8261V18.8261C31.9478 19.8022 31.3231 20.6688 30.3971 20.9775L29.8116 21.1726" stroke="#757575" stroke-width="0.8" stroke-linecap="round"/>
<rect x="25.5391" y="22.2412" width="3.56021" height="1.7801" rx="0.890052" fill="#2196F3" fill-opacity="0.6" stroke="#757575" stroke-width="0.8"/>
<path d="M17.7397 17.4463L18.2015 17.6239C18.8565 17.8758 19.5604 17.3923 19.5604 16.6906V14.6211C19.5604 13.9705 20.1718 13.4932 20.803 13.6509L24.3463 14.5368C24.4773 14.5695 24.6135 14.5754 24.7468 14.5541L27.837 14.0596C28.4446 13.9624 28.995 14.4318 28.995 15.0471V16.6261C28.995 17.3382 29.731 17.8121 30.3792 17.5174C30.7288 17.3585 30.9532 17.01 30.9532 16.6261V13.2219C30.9532 12.856 30.7533 12.5192 30.432 12.344L29.1715 11.6565C29.055 11.5929 28.9524 11.5069 28.8695 11.4033L27.8712 10.1554C27.6814 9.91819 27.3941 9.7801 27.0903 9.7801H20.0854C19.9736 9.7801 19.8607 9.79836 19.7566 9.83926C16.8946 10.9638 16.7788 14.6172 17.142 16.7397C17.1978 17.0657 17.431 17.3276 17.7397 17.4463Z" stroke="#757575" stroke-width="0.8" stroke-linecap="round"/>
<path d="M35.9331 15.8784C35.9208 16.9196 35.8877 18.4388 35.9156 18.7919C35.9203 18.8513 35.9537 18.8334 35.9859 18.7833L37.5395 16.3665L38.8464 14.3336C39.0304 14.0474 39.3473 13.8743 39.6876 13.8743H44.016C44.5683 13.8743 45.016 13.4266 45.016 12.8743V9C45.016 8.44772 44.5683 8 44.016 8H34.4453C33.893 8 33.4453 8.44772 33.4453 9V13.294C33.4453 13.6529 33.6376 13.9842 33.9492 14.1623L35.4336 15.0105C35.7452 15.1886 35.9374 15.5195 35.9331 15.8784Z" stroke="#757575" stroke-width="0.8" stroke-linecap="round"/>
<path d="M31.5915 20.6387V20.6387C31.5915 22.1134 30.3961 23.3088 28.9214 23.3088V23.3088" stroke="#757575" stroke-width="0.8" stroke-linecap="round"/>
<path d="M36 10.1357L37.7801 10.1357" stroke="#2196F3" stroke-opacity="0.4" stroke-width="0.8" stroke-linecap="round"/>
<path d="M39 10L43 10" stroke="#2196F3" stroke-opacity="0.4" stroke-width="0.8" stroke-linecap="round"/>
<path d="M36 12L43 12" stroke="#2196F3" stroke-opacity="0.4" stroke-width="0.8" stroke-linecap="round"/>
</svg>
