<svg viewBox="0 0 14 14" fill="none" xmlns="http://www.w3.org/2000/svg">
<g clip-path="url(#clip0_3281_74953)">
<path d="M0.410156 1.63929C0.515156 1.63929 0.620184 1.5992 0.700274 1.51909L0.818672 1.40061V3.71851C0.818672 3.94503 1.00231 4.12867 1.22883 4.12867C1.45534 4.12867 1.63898 3.94503 1.63898 3.71851V1.40055L1.75741 1.51906C1.91751 1.67924 2.17725 1.67932 2.33745 1.51925C2.49769 1.35913 2.49777 1.09942 2.33764 0.939182L1.51895 0.119963C1.36612 -0.0387129 1.09148 -0.0386582 0.938711 0.119963L0.120039 0.939182C-0.0400859 1.09942 -0.0400039 1.3591 0.12023 1.51925C0.20032 1.59929 0.305238 1.63929 0.410156 1.63929Z" fill="#292929"/>
<path d="M12.7713 4.93555C12.5448 4.93555 12.3612 5.11919 12.3612 5.3457V7.66363L12.2428 7.54515C12.0827 7.38497 11.8229 7.38489 11.6627 7.54496C11.5025 7.70509 11.5024 7.9648 11.6625 8.12503L12.4812 8.94425C12.6348 9.10246 12.9066 9.10421 13.0614 8.94425L13.8801 8.12503C14.0402 7.9648 14.0401 7.70511 13.8799 7.54496C13.7197 7.38484 13.46 7.38495 13.2999 7.54515L13.1815 7.66363V5.3457C13.1815 5.11919 12.9979 4.93555 12.7713 4.93555Z" fill="#292929"/>
<path d="M10.7188 8.14231V5.85766C10.7188 5.35675 10.3112 4.94922 9.81031 4.94922H0.908441C0.407531 4.94922 0 5.35675 0 5.85769V8.14234C0 8.64325 0.407531 9.05078 0.908441 9.05078H9.81031C10.3112 9.05078 10.7188 8.64325 10.7188 8.14231ZM0.820312 8.14231V5.85766C0.820312 5.80907 0.859852 5.7695 0.908441 5.7695H9.81031C9.8589 5.7695 9.89844 5.80904 9.89844 5.85766V8.14231C9.89844 8.1909 9.8589 8.23047 9.81031 8.23047H0.908441C0.859852 8.23047 0.820312 8.19093 0.820312 8.14231Z" fill="#292929"/>
<path d="M13.0916 9.89844H4.18969C3.68878 9.89844 3.28125 10.306 3.28125 10.8069V13.0916C3.28125 13.5925 3.68878 14 4.18969 14H13.0916C13.5925 14 14 13.5925 14 13.0915V10.8069C14 10.306 13.5925 9.89844 13.0916 9.89844ZM13.1797 13.0915C13.1797 13.1401 13.1401 13.1797 13.0916 13.1797H4.18969C4.1411 13.1797 4.10156 13.1401 4.10156 13.0915V10.8069C4.10156 10.7583 4.1411 10.7187 4.18969 10.7187H13.0916C13.1401 10.7187 13.1797 10.7583 13.1797 10.8069V13.0915Z" fill="#292929"/>
<path d="M13.0916 0H4.18969C3.68878 0 3.28125 0.407531 3.28125 0.908469V3.19312C3.28125 3.69403 3.68878 4.10156 4.18969 4.10156H13.0916C13.5925 4.10156 14 3.69403 14 3.19309V0.908469C14 0.407531 13.5925 0 13.0916 0ZM13.1797 3.19309C13.1797 3.24168 13.1401 3.28125 13.0916 3.28125H4.18969C4.1411 3.28125 4.10156 3.24171 4.10156 3.19309V0.908469C4.10156 0.859879 4.1411 0.820312 4.18969 0.820312H13.0916C13.1401 0.820312 13.1797 0.859852 13.1797 0.908469V3.19309Z" fill="#292929"/>
<path d="M2.05078 7.41016C2.2773 7.41016 2.46094 7.22652 2.46094 7C2.46094 6.77348 2.2773 6.58984 2.05078 6.58984C1.82426 6.58984 1.64062 6.77348 1.64062 7C1.64062 7.22652 1.82426 7.41016 2.05078 7.41016Z" fill="#292929"/>
<path d="M8.66797 6.58984H3.69141C3.46489 6.58984 3.28125 6.77348 3.28125 7C3.28125 7.22652 3.46489 7.41016 3.69141 7.41016H8.66797C8.89448 7.41016 9.07812 7.22652 9.07812 7C9.07812 6.77348 8.89448 6.58984 8.66797 6.58984Z" fill="#292929"/>
<path d="M5.33203 2.46094C5.55855 2.46094 5.74219 2.2773 5.74219 2.05078C5.74219 1.82426 5.55855 1.64062 5.33203 1.64062C5.10551 1.64062 4.92188 1.82426 4.92188 2.05078C4.92188 2.2773 5.10551 2.46094 5.33203 2.46094Z" fill="#292929"/>
<path d="M11.9492 1.64062H6.97266C6.74614 1.64062 6.5625 1.82427 6.5625 2.05078C6.5625 2.2773 6.74614 2.46094 6.97266 2.46094H11.9492C12.1757 2.46094 12.3594 2.2773 12.3594 2.05078C12.3594 1.82427 12.1757 1.64062 11.9492 1.64062Z" fill="#292929"/>
<path d="M5.33203 12.3594C5.55855 12.3594 5.74219 12.1757 5.74219 11.9492C5.74219 11.7227 5.55855 11.5391 5.33203 11.5391C5.10551 11.5391 4.92188 11.7227 4.92188 11.9492C4.92188 12.1757 5.10551 12.3594 5.33203 12.3594Z" fill="#292929"/>
<path d="M11.9492 11.5391H6.97266C6.74614 11.5391 6.5625 11.7227 6.5625 11.9492C6.5625 12.1757 6.74614 12.3594 6.97266 12.3594H11.9492C12.1757 12.3594 12.3594 12.1757 12.3594 11.9492C12.3594 11.7227 12.1757 11.5391 11.9492 11.5391Z" fill="#292929"/>
</g>
<defs>
<clipPath id="clip0_3281_74953">
<rect width="14" height="14" fill="white"/>
</clipPath>
</defs>
</svg>