<svg viewBox="0 0 16 16" fill="none" xmlns="http://www.w3.org/2000/svg">
<g clip-path="url(#clip0_769_8754)">
<path d="M11.2798 6.78C11.4123 6.63782 11.4844 6.44978 11.481 6.25548C11.4776 6.06118 11.3989 5.87579 11.2615 5.73838C11.1241 5.60096 10.9387 5.52225 10.7444 5.51882C10.5501 5.5154 10.362 5.58752 10.2198 5.72L7.24985 8.69L5.77985 7.22C5.63767 7.08752 5.44963 7.0154 5.25532 7.01882C5.06102 7.02225 4.87564 7.10096 4.73822 7.23838C4.60081 7.37579 4.5221 7.56118 4.51867 7.75548C4.51524 7.94978 4.58737 8.13782 4.71985 8.28L6.71985 10.28C6.86047 10.4204 7.0511 10.4993 7.24985 10.4993C7.4486 10.4993 7.63922 10.4204 7.77985 10.28L11.2798 6.78Z" fill="#0968da"/>
<path d="M16 8C16 10.1217 15.1571 12.1566 13.6569 13.6569C12.1566 15.1571 10.1217 16 8 16C5.87827 16 3.84344 15.1571 2.34315 13.6569C0.842855 12.1566 0 10.1217 0 8C0 5.87827 0.842855 3.84344 2.34315 2.34315C3.84344 0.842855 5.87827 0 8 0C10.1217 0 12.1566 0.842855 13.6569 2.34315C15.1571 3.84344 16 5.87827 16 8ZM14.5 8C14.5 6.27609 13.8152 4.62279 12.5962 3.40381C11.3772 2.18482 9.72391 1.5 8 1.5C6.27609 1.5 4.62279 2.18482 3.40381 3.40381C2.18482 4.62279 1.5 6.27609 1.5 8C1.5 9.72391 2.18482 11.3772 3.40381 12.5962C4.62279 13.8152 6.27609 14.5 8 14.5C9.72391 14.5 11.3772 13.8152 12.5962 12.5962C13.8152 11.3772 14.5 9.72391 14.5 8Z" fill="#0968da"/>
</g>
<defs>
<clipPath id="clip0_769_8754">
<rect width="16" height="16" fill="white"/>
</clipPath>
</defs>
</svg>
