<svg width="16" height="16" viewBox="0 0 16 16" fill="none" xmlns="http://www.w3.org/2000/svg">
<g clip-path="url(#clip0_5357_49553)">
<path d="M9.33166 0.519663L10.2361 1.19966C10.3851 1.31166 10.5584 1.38566 10.7404 1.41466L11.8483 1.58966C12.3965 1.67622 12.9036 1.9401 13.2958 2.34294C13.688 2.74577 13.9449 3.26658 14.0291 3.82966L14.1985 4.96866C14.2268 5.15566 14.2988 5.33366 14.4078 5.48666L15.0699 6.41466C15.3985 6.87417 15.5758 7.42947 15.5758 7.99966C15.5758 8.56986 15.3985 9.12516 15.0699 9.58466L14.4078 10.5127C14.2984 10.6654 14.2265 10.8432 14.1985 11.0307L14.0282 12.1687C13.944 12.7321 13.6871 13.2532 13.2947 13.6563C12.9023 14.0593 12.3949 14.3232 11.8464 14.4097L10.7385 14.5847C10.5559 14.6133 10.3828 14.6871 10.2342 14.7997L9.33068 15.4797C8.88332 15.8173 8.3427 15.9993 7.78758 15.9993C7.23246 15.9993 6.69184 15.8173 6.24447 15.4797L5.341 14.7997C5.19228 14.6872 5.01924 14.6134 4.83669 14.5847L3.72877 14.4097C3.18057 14.3231 2.67353 14.0592 2.28134 13.6564C1.88916 13.2536 1.63226 12.7327 1.54798 12.1697L1.37761 11.0317C1.34975 10.8441 1.27792 10.6663 1.16829 10.5137L0.506263 9.58566C0.177585 9.12616 0.000335693 8.57086 0.000335693 8.00066C0.000335693 7.43047 0.177585 6.87517 0.506263 6.41566L1.16829 5.48766C1.27733 5.33466 1.34937 5.15666 1.37761 4.96966L1.54798 3.82966C1.63226 3.26658 1.88916 2.74577 2.28134 2.34294C2.67353 1.9401 3.18057 1.67622 3.72877 1.58966L4.83767 1.41466C5.01973 1.38566 5.19302 1.31166 5.34198 1.19966L6.24545 0.519663C6.69281 0.182062 7.23343 0 7.78855 0C8.34368 0 8.8843 0.182062 9.33166 0.519663ZM7.10998 1.72766L6.20748 2.40766C5.8687 2.66373 5.47448 2.83153 5.05867 2.89666L3.95172 3.07066C3.71011 3.10866 3.48662 3.22488 3.31378 3.40241C3.14095 3.57993 3.0278 3.80949 2.99081 4.05766L2.82141 5.19366C2.75774 5.62069 2.5944 6.02555 2.34533 6.37366L1.68331 7.30166C1.53918 7.5039 1.46148 7.74803 1.46148 7.99866C1.46148 8.2493 1.53918 8.49342 1.68331 8.69566L2.34533 9.62266C2.59457 9.97066 2.75813 10.3757 2.82141 10.8027L2.99081 11.9397C3.06675 12.4487 3.45617 12.8487 3.95172 12.9267L5.05769 13.1007C5.47351 13.1658 5.86773 13.3336 6.20651 13.5897L7.10998 14.2697C7.51303 14.5747 8.0631 14.5747 8.46713 14.2697L9.36963 13.5897C9.70841 13.3336 10.1026 13.1658 10.5184 13.1007L11.6254 12.9267C11.8669 12.8885 12.0904 12.7723 12.2632 12.5948C12.436 12.4173 12.5492 12.1878 12.5863 11.9397L12.7557 10.8037C12.8191 10.3766 12.9825 9.97164 13.2318 9.62366L13.8938 8.69566C14.0385 8.49367 14.1166 8.24945 14.1166 7.99866C14.1166 7.74788 14.0385 7.50366 13.8938 7.30166L13.2318 6.37466C12.983 6.02637 12.8197 5.62159 12.7557 5.19466L12.5863 4.05766C12.5493 3.80949 12.4362 3.57993 12.2633 3.40241C12.0905 3.22488 11.867 3.10866 11.6254 3.07066L10.5194 2.89666C10.1037 2.83126 9.70951 2.66349 9.3706 2.40766L8.46713 1.72766C8.27048 1.57902 8.03271 1.49885 7.78855 1.49885C7.54439 1.49885 7.30663 1.57902 7.10998 1.72766ZM10.9819 6.77966L7.33098 10.5297C7.19407 10.6701 7.00848 10.749 6.81499 10.749C6.62149 10.749 6.4359 10.6701 6.29899 10.5297L4.59525 8.77966C4.46634 8.6374 4.39614 8.44935 4.39941 8.25503C4.40268 8.06072 4.47916 7.87527 4.61277 7.73766C4.74674 7.60042 4.92729 7.52186 5.11647 7.51851C5.30565 7.51515 5.48873 7.58725 5.62723 7.71966L6.81499 8.93966L9.94987 5.71966C10.0884 5.58725 10.2715 5.51515 10.4606 5.51851C10.6498 5.52186 10.8304 5.60042 10.9643 5.73766C11.0979 5.87527 11.1744 6.06072 11.1777 6.25503C11.181 6.44935 11.1108 6.6374 10.9819 6.77966Z" fill="#0950C5"/>
</g>
<defs>
<clipPath id="clip0_5357_49553">
<rect width="15.5771" height="16" fill="white"/>
</clipPath>
</defs>
</svg>
