<svg width="50" height="50" viewBox="0 0 50 50" fill="none" xmlns="http://www.w3.org/2000/svg">
<path d="M26.5625 20.3132H23.4375V12.5007C23.4375 10.4287 24.2606 8.44159 25.7257 6.97646C27.1909 5.51133 29.178 4.68823 31.25 4.68823H40.625V7.81323H31.25C30.0068 7.81323 28.8145 8.30709 27.9354 9.18617C27.0564 10.0652 26.5625 11.2575 26.5625 12.5007V20.3132Z" fill="#6B7EB5"/>
<path d="M40.625 45.7976H31.25C29.178 45.7976 27.1909 44.9745 25.7257 43.5094C24.2606 42.0443 23.4375 40.0571 23.4375 37.9851V29.6882H26.5625V37.9851C26.5625 39.2283 27.0564 40.4206 27.9354 41.2997C28.8145 42.1787 30.0068 42.6726 31.25 42.6726H40.625V45.7976Z" fill="#6B7EB5"/>
<path d="M10.9375 23.4382H20.3125V26.5632H10.9375V23.4382Z" fill="#6B7EB5"/>
<path d="M29.6875 23.4382H40.625V26.5632H29.6875V23.4382Z" fill="#6B7EB5"/>
<path d="M10.9375 15.6257H3.125C2.26206 15.6257 1.5625 16.3253 1.5625 17.1882V32.8132C1.5625 33.6762 2.26206 34.3757 3.125 34.3757H10.9375C11.8004 34.3757 12.5 33.6762 12.5 32.8132V17.1882C12.5 16.3253 11.8004 15.6257 10.9375 15.6257Z" fill="#FF7D97"/>
<path d="M25 31.2507C28.4518 31.2507 31.25 28.4525 31.25 25.0007C31.25 21.549 28.4518 18.7507 25 18.7507C21.5482 18.7507 18.75 21.549 18.75 25.0007C18.75 28.4525 21.5482 31.2507 25 31.2507Z" fill="#FF7D97"/>
<path d="M46.875 1.56323H40.625C39.7621 1.56323 39.0625 2.26279 39.0625 3.12573V9.37573C39.0625 10.2387 39.7621 10.9382 40.625 10.9382H46.875C47.7379 10.9382 48.4375 10.2387 48.4375 9.37573V3.12573C48.4375 2.26279 47.7379 1.56323 46.875 1.56323Z" fill="#FFCD69"/>
<path d="M46.875 20.3132H40.625C39.7621 20.3132 39.0625 21.0128 39.0625 21.8757V28.1257C39.0625 28.9887 39.7621 29.6882 40.625 29.6882H46.875C47.7379 29.6882 48.4375 28.9887 48.4375 28.1257V21.8757C48.4375 21.0128 47.7379 20.3132 46.875 20.3132Z" fill="#FFCD69"/>
<path d="M46.875 39.0632H40.625C39.7621 39.0632 39.0625 39.7628 39.0625 40.6257V46.8757C39.0625 47.7387 39.7621 48.4382 40.625 48.4382H46.875C47.7379 48.4382 48.4375 47.7387 48.4375 46.8757V40.6257C48.4375 39.7628 47.7379 39.0632 46.875 39.0632Z" fill="#FFCD69"/>
<path d="M6.25 17.1882H12.5C12.5 16.7738 12.3354 16.3764 12.0424 16.0834C11.7493 15.7904 11.3519 15.6257 10.9375 15.6257H3.125C2.7106 15.6257 2.31317 15.7904 2.02015 16.0834C1.72712 16.3764 1.5625 16.7738 1.5625 17.1882V32.8132C1.5625 33.2276 1.72712 33.6251 2.02015 33.9181C2.31317 34.2111 2.7106 34.3757 3.125 34.3757H4.6875V18.7507C4.6875 18.3363 4.85212 17.9389 5.14515 17.6459C5.43817 17.3529 5.8356 17.1882 6.25 17.1882Z" fill="#FF5D7D"/>
<path d="M21.875 26.5632C21.875 24.9056 22.5335 23.3159 23.7056 22.1438C24.8777 20.9717 26.4674 20.3132 28.125 20.3132C28.4921 20.3179 28.858 20.3545 29.2188 20.4226C28.0767 19.3484 26.5678 18.7505 25 18.7507C23.4494 18.7677 21.9605 19.3605 20.8226 20.4139C19.6847 21.4673 18.979 22.9061 18.8426 24.4508C18.7063 25.9955 19.149 27.5356 20.0848 28.7721C21.0206 30.0086 22.3826 30.853 23.9063 31.1414C23.2703 30.5596 22.7615 29.8525 22.412 29.0647C22.0624 28.2768 21.8796 27.4251 21.875 26.5632Z" fill="#FF5D7D"/>
<path d="M43.75 3.12573H48.4375C48.4375 2.71133 48.2729 2.3139 47.9799 2.02088C47.6868 1.72785 47.2894 1.56323 46.875 1.56323H40.625C40.2106 1.56323 39.8132 1.72785 39.5201 2.02088C39.2271 2.3139 39.0625 2.71133 39.0625 3.12573V9.37573C39.0625 9.79013 39.2271 10.1876 39.5201 10.4806C39.8132 10.7736 40.2106 10.9382 40.625 10.9382H42.1875V4.68823C42.1875 4.27383 42.3521 3.8764 42.6451 3.58338C42.9382 3.29035 43.3356 3.12573 43.75 3.12573Z" fill="#FFC144"/>
<path d="M43.75 21.8757H48.4375C48.4375 21.4613 48.2729 21.0639 47.9799 20.7709C47.6868 20.4779 47.2894 20.3132 46.875 20.3132H40.625C40.2106 20.3132 39.8132 20.4779 39.5201 20.7709C39.2271 21.0639 39.0625 21.4613 39.0625 21.8757V28.1257C39.0625 28.5401 39.2271 28.9376 39.5201 29.2306C39.8132 29.5236 40.2106 29.6882 40.625 29.6882H42.1875V23.4382C42.1875 23.0238 42.3521 22.6264 42.6451 22.3334C42.9382 22.0404 43.3356 21.8757 43.75 21.8757Z" fill="#FFC144"/>
<path d="M43.75 40.6257H48.4375C48.4375 40.2113 48.2729 39.8139 47.9799 39.5209C47.6868 39.2279 47.2894 39.0632 46.875 39.0632H40.625C40.2106 39.0632 39.8132 39.2279 39.5201 39.5209C39.2271 39.8139 39.0625 40.2113 39.0625 40.6257V46.8757C39.0625 47.2901 39.2271 47.6876 39.5201 47.9806C39.8132 48.2736 40.2106 48.4382 40.625 48.4382H42.1875V42.1882C42.1875 41.7738 42.3521 41.3764 42.6451 41.0834C42.9382 40.7904 43.3356 40.6257 43.75 40.6257Z" fill="#FFC144"/>
</svg>
