<svg width="50" height="50" viewBox="0 0 50 50" fill="none" xmlns="http://www.w3.org/2000/svg">
<path d="M42.9688 3.12573H4.6875C2.96161 3.12573 1.5625 4.52484 1.5625 6.25073V32.8132C1.5625 34.5391 2.96161 35.9382 4.6875 35.9382H42.9688C44.6946 35.9382 46.0938 34.5391 46.0938 32.8132V6.25073C46.0938 4.52484 44.6946 3.12573 42.9688 3.12573Z" fill="#F1F2F2"/>
<path d="M45.2344 43.6726C43.25 45.6492 40.5156 46.8757 37.5 46.8757C31.4609 46.8757 26.5625 41.9773 26.5625 35.9382C26.5625 29.8992 31.4609 25.0007 37.5 25.0007V29.6882C34.0469 29.6882 31.25 32.4851 31.25 35.9382C31.25 39.3914 34.0469 42.1882 37.5 42.1882C39.2266 42.1882 40.7891 41.4851 41.9219 40.3601L45.2344 43.6726Z" fill="#6B71F2"/>
<path d="M48.4375 35.9382H43.75C43.75 32.4851 40.9531 29.6882 37.5 29.6882V25.0007C43.5391 25.0007 48.4375 29.8992 48.4375 35.9382Z" fill="#0FF2B2"/>
<path d="M48.4375 35.9382C48.4375 38.9539 47.2109 41.6882 45.2344 43.6726L41.9219 40.3601C43.0469 39.2273 43.75 37.6648 43.75 35.9382H48.4375Z" fill="#0A0F26"/>
<path d="M9.375 21.8757H6.25C5.81853 21.8757 5.46875 22.2255 5.46875 22.657V31.2507C5.46875 31.6822 5.81853 32.032 6.25 32.032H9.375C9.80647 32.032 10.1562 31.6822 10.1562 31.2507V22.657C10.1562 22.2255 9.80647 21.8757 9.375 21.8757Z" fill="#0FF2B2"/>
<path d="M15.625 18.7507H12.5C12.0685 18.7507 11.7188 19.1005 11.7188 19.532V31.2507C11.7188 31.6822 12.0685 32.032 12.5 32.032H15.625C16.0565 32.032 16.4062 31.6822 16.4062 31.2507V19.532C16.4062 19.1005 16.0565 18.7507 15.625 18.7507Z" fill="#0FF2B2"/>
<path d="M21.875 24.2195H18.75C18.3185 24.2195 17.9688 24.5693 17.9688 25.0007V31.2507C17.9688 31.6822 18.3185 32.032 18.75 32.032H21.875C22.3065 32.032 22.6562 31.6822 22.6562 31.2507V25.0007C22.6562 24.5693 22.3065 24.2195 21.875 24.2195Z" fill="#0FF2B2"/>
<path d="M7.8125 8.59448H6.25C5.82031 8.59448 5.46875 8.24292 5.46875 7.81323C5.46875 7.38354 5.82031 7.03198 6.25 7.03198H7.8125C8.24219 7.03198 8.59375 7.38354 8.59375 7.81323C8.59375 8.24292 8.24219 8.59448 7.8125 8.59448Z" fill="#0A0F26"/>
<path d="M17.1875 8.59448H10.9375C10.5078 8.59448 10.1562 8.24292 10.1562 7.81323C10.1562 7.38354 10.5078 7.03198 10.9375 7.03198H17.1875C17.6172 7.03198 17.9688 7.38354 17.9688 7.81323C17.9688 8.24292 17.6172 8.59448 17.1875 8.59448Z" fill="#0A0F26"/>
<path d="M7.8125 12.5007H6.25C5.82031 12.5007 5.46875 12.1492 5.46875 11.7195C5.46875 11.2898 5.82031 10.9382 6.25 10.9382H7.8125C8.24219 10.9382 8.59375 11.2898 8.59375 11.7195C8.59375 12.1492 8.24219 12.5007 7.8125 12.5007Z" fill="#0A0F26"/>
<path d="M17.1875 12.5007H10.9375C10.5078 12.5007 10.1562 12.1492 10.1562 11.7195C10.1562 11.2898 10.5078 10.9382 10.9375 10.9382H17.1875C17.6172 10.9382 17.9688 11.2898 17.9688 11.7195C17.9688 12.1492 17.6172 12.5007 17.1875 12.5007Z" fill="#0A0F26"/>
<path d="M7.8125 16.407H6.25C5.82031 16.407 5.46875 16.0554 5.46875 15.6257C5.46875 15.196 5.82031 14.8445 6.25 14.8445H7.8125C8.24219 14.8445 8.59375 15.196 8.59375 15.6257C8.59375 16.0554 8.24219 16.407 7.8125 16.407Z" fill="#0A0F26"/>
<path d="M17.1875 16.407H10.9375C10.5078 16.407 10.1562 16.0554 10.1562 15.6257C10.1562 15.196 10.5078 14.8445 10.9375 14.8445H17.1875C17.6172 14.8445 17.9688 15.196 17.9688 15.6257C17.9688 16.0554 17.6172 16.407 17.1875 16.407Z" fill="#0A0F26"/>
<path d="M24.4609 15.2352C24.2812 15.2352 24.0937 15.1727 23.9453 15.0399C23.6172 14.7586 23.5859 14.2586 23.875 13.9383L27.2969 10.0321C27.5781 9.70396 28.0781 9.67271 28.3984 9.96177C28.7265 10.243 28.7578 10.743 28.4687 11.0633L25.0469 14.9696C24.8906 15.1493 24.6797 15.2352 24.4609 15.2352Z" fill="#0A0F26"/>
<path d="M35.3984 15.2352C35.2187 15.2352 35.0312 15.1727 34.8828 15.0399C34.5547 14.7586 34.5234 14.2586 34.8125 13.9383L38.2344 10.0321C38.5156 9.70396 39.0156 9.67271 39.3359 9.96177C39.664 10.243 39.6953 10.743 39.4062 11.0633L35.9844 14.9696C35.8281 15.1493 35.6172 15.2352 35.3984 15.2352Z" fill="#0A0F26"/>
<path d="M33.3516 15.235C33.1328 15.235 32.9141 15.1413 32.7656 14.9694L29.3438 11.0631C29.0625 10.735 29.0938 10.2428 29.4141 9.96157C29.7344 9.68032 30.2344 9.71157 30.5156 10.0319L33.9375 13.9381C34.2188 14.2663 34.1875 14.7584 33.8672 15.0397C33.7188 15.1725 33.5391 15.235 33.3516 15.235Z" fill="#0A0F26"/>
<path d="M34.375 17.9695C35.6694 17.9695 36.7188 16.9201 36.7188 15.6257C36.7188 14.3313 35.6694 13.282 34.375 13.282C33.0806 13.282 32.0312 14.3313 32.0312 15.6257C32.0312 16.9201 33.0806 17.9695 34.375 17.9695Z" fill="#6B71F2"/>
<path d="M28.9062 11.7195C30.2007 11.7195 31.25 10.6701 31.25 9.37573C31.25 8.08132 30.2007 7.03198 28.9062 7.03198C27.6118 7.03198 26.5625 8.08132 26.5625 9.37573C26.5625 10.6701 27.6118 11.7195 28.9062 11.7195Z" fill="#6B71F2"/>
<path d="M39.8438 11.7195C41.1382 11.7195 42.1875 10.6701 42.1875 9.37573C42.1875 8.08132 41.1382 7.03198 39.8438 7.03198C38.5493 7.03198 37.5 8.08132 37.5 9.37573C37.5 10.6701 38.5493 11.7195 39.8438 11.7195Z" fill="#6B71F2"/>
<path d="M23.4375 17.9695C24.7319 17.9695 25.7812 16.9201 25.7812 15.6257C25.7812 14.3313 24.7319 13.282 23.4375 13.282C22.1431 13.282 21.0938 14.3313 21.0938 15.6257C21.0938 16.9201 22.1431 17.9695 23.4375 17.9695Z" fill="#6B71F2"/>
</svg>
