<svg width="60" height="60" viewBox="0 0 60 60" fill="none" xmlns="http://www.w3.org/2000/svg">
<g clip-path="url(#clip0_8121_47688)">
<path d="M1 30C1 14.011 14.011 1 30 1C45.989 1 59 14.011 59 30C59 45.989 45.989 59 30 59C14.011 59 1 45.989 1 30ZM27.0405 44.75C27.0405 46.3869 28.3676 47.7095 30 47.7095C31.6328 47.7095 32.9595 46.3828 32.9595 44.75C32.9595 43.1131 31.6324 41.7905 30 41.7905C28.3631 41.7905 27.0405 43.1176 27.0405 44.75ZM30 37.875C31.6324 37.875 32.9595 36.5524 32.9595 34.9155V15.25C32.9595 13.6172 31.6328 12.2905 30 12.2905C28.3672 12.2905 27.0405 13.6172 27.0405 15.25V34.9155C27.0405 36.5483 28.3672 37.875 30 37.875Z" fill="#FFBE0E" fill-opacity="0.5" stroke="#FFBE0E"/>
</g>
<defs>
<clipPath id="clip0_8121_47688">
<rect width="60" height="60" fill="white"/>
</clipPath>
</defs>
</svg>