<svg width="16" height="16" viewBox="0 0 16 16" fill="none" xmlns="http://www.w3.org/2000/svg">
<path d="M2 3.66683L2 11.6668C2 12.1089 2.17559 12.5328 2.48816 12.8453C2.80072 13.1579 3.22464 13.3335 3.66667 13.3335L10.3333 13.3335C10.7754 13.3335 11.1993 13.1579 11.5118 12.8453C11.8244 12.5328 12 12.1089 12 11.6668V11.0002C12 10.9118 11.9649 10.827 11.9024 10.7645C11.8399 10.7019 11.7551 10.6668 11.6667 10.6668C11.5783 10.6668 11.4935 10.7019 11.431 10.7645C11.3685 10.827 11.3333 10.9118 11.3333 11.0002V11.6668C11.3333 11.932 11.228 12.1864 11.0404 12.3739C10.8529 12.5615 10.5985 12.6668 10.3333 12.6668H7.33333L7.33333 2.66683H10.3333C10.5985 2.66683 10.8529 2.77219 11.0404 2.95972C11.228 3.14726 11.3333 3.40161 11.3333 3.66683V4.3335C11.3333 4.4219 11.3685 4.50669 11.431 4.5692C11.4935 4.63171 11.5783 4.66683 11.6667 4.66683C11.7551 4.66683 11.8399 4.63171 11.9024 4.5692C11.9649 4.50669 12 4.4219 12 4.3335V3.66683C12 3.2248 11.8244 2.80088 11.5118 2.48832C11.1993 2.17576 10.7754 2.00016 10.3333 2.00016L3.66667 2.00016C3.22464 2.00016 2.80072 2.17576 2.48816 2.48832C2.17559 2.80088 2 3.2248 2 3.66683ZM6.66667 12.6668L3.66667 12.6668C3.40145 12.6668 3.1471 12.5615 2.95956 12.3739C2.77202 12.1864 2.66667 11.932 2.66667 11.6668L2.66667 3.66683C2.66667 3.40161 2.77202 3.14726 2.95956 2.95972C3.1471 2.77219 3.40145 2.66683 3.66667 2.66683L6.66667 2.66683L6.66667 12.6668Z" fill="#292929" stroke="black" stroke-width="0.5"/>
<path d="M12.0039 7.33301H13.0039C13.0923 7.33301 13.1771 7.36813 13.2396 7.43064C13.3021 7.49315 13.3372 7.57794 13.3372 7.66634C13.3372 7.75475 13.3021 7.83953 13.2396 7.90204C13.1771 7.96456 13.0923 7.99967 13.0039 7.99967H12.0039H11.3372H10.3372C10.2488 7.99967 10.164 7.96456 10.1015 7.90204C10.039 7.83953 10.0039 7.75475 10.0039 7.66634C10.0039 7.57794 10.039 7.49315 10.1015 7.43064C10.164 7.36813 10.2488 7.33301 10.3372 7.33301H11.3372L11.8379 7.33317L12.0039 7.33301Z" fill="#292929"/>
<path d="M12.0039 7.99967H13.0039C13.0923 7.99967 13.1771 7.96456 13.2396 7.90204C13.3021 7.83953 13.3372 7.75475 13.3372 7.66634C13.3372 7.57794 13.3021 7.49315 13.2396 7.43064C13.1771 7.36813 13.0923 7.33301 13.0039 7.33301H12.0039L11.8379 7.33317C11.8379 7.33317 11.4256 7.33301 11.3372 7.33301H10.3372C10.2488 7.33301 10.164 7.36813 10.1015 7.43064C10.039 7.49315 10.0039 7.57794 10.0039 7.66634C10.0039 7.75475 10.039 7.83953 10.1015 7.90204C10.164 7.96456 10.2488 7.99967 10.3372 7.99967H11.3372M12.0039 7.99967C12.0039 7.99967 11.3106 7.99967 11.3372 7.99967M12.0039 7.99967H11.3372M12.0039 7.99967C11.9155 7.99967 11.3226 7.98721 11.3372 7.99967" stroke="black" stroke-width="0.5"/>
</svg>
