<svg viewBox="0 0 16 16" fill="none" xmlns="http://www.w3.org/2000/svg">
<path fill-rule="evenodd" clip-rule="evenodd" d="M2 4.66667C2 4.29848 2.29848 4 2.66667 4H13.3333C13.7015 4 14 4.29848 14 4.66667C14 5.03485 13.7015 5.33333 13.3333 5.33333H2.66667C2.29848 5.33333 2 5.03485 2 4.66667ZM4 8C4 7.6318 4.29848 7.33333 4.66667 7.33333H11.3333C11.7015 7.33333 12 7.6318 12 8C12 8.3682 11.7015 8.66667 11.3333 8.66667H4.66667C4.29848 8.66667 4 8.3682 4 8ZM6 11.3333C6 10.9651 6.29848 10.6667 6.66667 10.6667H9.33333C9.70153 10.6667 10 10.9651 10 11.3333C10 11.7015 9.70153 12 9.33333 12H6.66667C6.29848 12 6 11.7015 6 11.3333Z" fill="#292929"/>
</svg>
