<svg xmlns="http://www.w3.org/2000/svg" width="40" height="40" fill="none"><circle cx="20" cy="20" r="20" fill="#2EAADC" fill-opacity=".15"/><path fill="#2EAADC" d="M14.227 12.113v2.86H10v10.214c0 1.489 1.21 2.7 2.7 2.7h14.6c1.49 0 2.7-1.211 2.7-2.7V12.113H14.227Zm-3.055 13.074v-9.042h3.055v9.042a1.53 1.53 0 0 1-1.528 1.528 1.53 1.53 0 0 1-1.527-1.528Zm17.656 0a1.53 1.53 0 0 1-1.527 1.528H14.923c.3-.435.476-.961.476-1.528V13.285h13.43v11.902Z"/><path fill="#2EAADC" d="M22.7 19.414h-6.13v6.129h6.13v-6.129Zm-1.173 4.957h-3.785v-3.785h3.785v3.785ZM16.57 14.457h11.086v1.172H16.571v-1.172ZM24.051 24.37h3.605v1.173h-3.605V24.37ZM24.051 21.892h3.605v1.172h-3.605v-1.172ZM24.051 19.414h3.605v1.172h-3.605v-1.172ZM16.57 16.936h11.086v1.172H16.571v-1.172Z"/></svg>