<svg viewBox="0 0 640 512" fill="currentColor" xmlns="http://www.w3.org/2000/svg"><path d="M633.9 483.4c7 5.5 8.1 14.7 2.7 22.5-5.5 7-15.6 8.1-22.5 2.7L6.086 28.56C-.849 23.08-2.033 13.02 3.443 6.086 8.918-.849 18.98-2.033 25.91 3.443L633.9 483.4zM591.5 256l-74.2 74.2-25.3-19.9 76.9-76.9c37.5-37.5 37.5-98.3 0-135.79-37.5-37.49-98.3-37.49-135.8 0l-22.6 22.59c-6.2 6.3-16.4 6.3-22.6 0-6.3-7.1-6.3-16.3 0-22.59l22.6-22.63c50-49.99 131-49.99 181 0 50 49.12 50 131.02 0 181.02zM286.2 380.6c-27.1-27.1-39.6-63.5-37.2-99.1l33.4 26.3c3.4 18.4 12.2 36 26.4 50.1 19.9 19.9 46.4 29.3 72.4 28l33.4 26.3c-43.9 13.7-93.7 3.1-128.4-31.6zm-27.4-254.5-33.4-26.34c43.9-13.64 93.7-3.07 128.4 31.64 27.1 27.1 39.6 63.5 36.3 99.1l-32.5-26.3c-3.4-18.4-12.2-36-26.4-50.1-19.9-19.9-46.4-29.3-72.4-28zM71.1 278.6c-37.49 37.5-37.49 98.3 0 135.8 37.5 37.5 98.3 37.5 135.8 0l22.6-22.6c6.2-6.3 16.4-6.3 22.6 0 6.3 6.2 6.3 16.3 0 22.6L229.5 437c-50 50-131.04 50-181.03 0-49.988-50-49.988-131.9 0-181l74.23-74.2 24.4 19.9-76 76.9z"></path></svg>