<svg xmlns="http://www.w3.org/2000/svg" width="20" height="15" fill="none"><path fill="#28A745" fill-rule="evenodd" d="M1.354 10.948a.474.474 0 0 1-.354.163.472.472 0 0 1-.353-.163.6.6 0 0 1 0-.785l4-4.445a.465.465 0 0 1 .707 0L9.018 9.79l8.679-8.679H16c-.276 0-.5-.248-.5-.555 0-.307.224-.556.5-.556h3c.276 0 .5.249.5.556v3.333c0 .307-.224.555-.5.555s-.5-.248-.5-.555V1.803L9.335 10.97a.466.466 0 0 1-.689-.02L5 6.896l-3.646 4.051ZM.5 13.888h19c.276 0 .5.25.5.556 0 .307-.224.556-.5.556H.5c-.276 0-.5-.248-.5-.556 0-.307.224-.555.5-.555Z" clip-rule="evenodd"/></svg>