<svg viewBox="0 0 16 15" fill="none" xmlns="http://www.w3.org/2000/svg">
<path d="M7.98611 9.47832C7.31541 9.47835 6.64492 9.31203 6.03353 8.97943L1.62488 6.58088C0.985587 6.23311 0.589807 5.56055 0.591885 4.8257C0.59399 4.09085 0.99362 3.42066 1.63488 3.07659L6.05463 0.705385C7.26408 0.0565384 8.70814 0.0565384 9.91759 0.705385L14.3373 3.07659C14.9786 3.42063 15.3782 4.09083 15.3803 4.8257C15.3824 5.56055 14.9866 6.23311 14.3474 6.58088L9.93867 8.97943C9.32746 9.31203 8.65668 9.47827 7.98611 9.47832ZM7.98611 1.39073C7.50826 1.39073 7.03043 1.50758 6.59484 1.74128L2.17514 4.11252C1.90811 4.25578 1.74814 4.5237 1.74729 4.82913C1.74643 5.13456 1.90482 5.40341 2.17104 5.54824L6.57972 7.94676C7.46044 8.42591 8.51194 8.42591 9.39264 7.94676L13.8013 5.54824C14.0676 5.40341 14.226 5.13459 14.2251 4.82913C14.2242 4.52367 14.0643 4.25578 13.7972 4.11252L9.37738 1.74128C8.9418 1.50761 8.46397 1.39073 7.98611 1.39073ZM9.9387 14.2821L15.0757 11.4874C15.3569 11.3344 15.4626 10.9792 15.3118 10.6941C15.161 10.4089 14.8108 10.3017 14.5297 10.4547L9.39259 13.2494C8.51194 13.7285 7.46042 13.7285 6.57745 13.2482L1.4404 10.4828C1.15852 10.3311 0.80886 10.4398 0.659335 10.7256C0.509754 11.0115 0.616953 11.3661 0.898775 11.5179L6.03355 14.282C6.64495 14.6147 7.31543 14.7809 7.98614 14.7809C8.65668 14.781 9.32746 14.6146 9.9387 14.2821ZM9.9387 11.6454L15.0757 8.85072C15.3569 8.69777 15.4626 8.34258 15.3118 8.05743C15.161 7.77223 14.8108 7.6651 14.5297 7.81803L9.39259 10.6127C8.51194 11.0919 7.46042 11.0918 6.57745 10.6115L1.4404 7.84612C1.15852 7.69441 0.80886 7.80316 0.659335 8.08898C0.509754 8.37483 0.616953 8.72949 0.898775 8.8812L6.03355 11.6454C6.64495 11.978 7.31543 12.1443 7.98614 12.1443C8.65668 12.1443 9.32746 11.978 9.9387 11.6454Z" fill="#0950C5"/>
</svg>
