<svg xmlns="http://www.w3.org/2000/svg" width="20" height="20" fill="none"><path fill="#37352F" d="M0 5.938h1.21v1.171H0v5.86h1.21v1.172H0V20h20v-5.86h-1.21V12.97H20v-5.86h-1.21V5.938H20V0H0v5.938Zm18.828 12.89H1.172v-3.515h17.656v3.515Zm-1.21-4.687H2.382v-1.172h15.234v1.172Zm1.21-2.344H1.172V8.28h17.656v3.516Zm-1.21-4.688H2.382V5.938h15.234v1.171ZM1.171 1.172h17.656v3.594H1.172V1.172Z"/><path fill="#37352F" d="M2.383 2.422h1.172v1.172H2.383V2.422ZM4.727 2.422h1.171v1.172H4.727V2.422ZM7.07 2.422h1.172v1.172H7.07V2.422ZM11.758 2.422h5.86v1.172h-5.86V2.422ZM2.383 9.453h1.172v1.172H2.383V9.453ZM4.727 9.453h1.171v1.172H4.727V9.453ZM7.07 9.453h1.172v1.172H7.07V9.453ZM11.758 9.453h5.86v1.172h-5.86V9.453ZM2.383 16.484h1.172v1.172H2.383v-1.172ZM4.727 16.484h1.171v1.172H4.727v-1.172ZM7.07 16.484h1.172v1.172H7.07v-1.172ZM11.758 16.484h5.86v1.172h-5.86v-1.172Z"/></svg>