
<svg viewBox="0 0 40 40" fill="none" xmlns="http://www.w3.org/2000/svg">
<path fill-rule="evenodd" clip-rule="evenodd" d="M3.875 2.375C3.47717 2.375 3.09565 2.53304 2.81434 2.81434C2.53304 3.09565 2.375 3.47717 2.375 3.875V36.125C2.375 36.5229 2.53304 36.9044 2.81434 37.1856C3.09565 37.467 3.47717 37.625 3.875 37.625H36.125C36.5229 37.625 36.9044 37.467 37.1856 37.1856C37.467 36.9044 37.625 36.5229 37.625 36.125V3.875C37.625 3.47717 37.467 3.09565 37.1856 2.81434C36.9044 2.53304 36.5229 2.375 36.125 2.375H3.875ZM2.01885 2.01885C2.51112 1.52656 3.17881 1.25 3.875 1.25H36.125C36.8213 1.25 37.4889 1.52656 37.9811 2.01885C38.4735 2.51112 38.75 3.1788 38.75 3.875V36.125C38.75 36.8213 38.4735 37.4889 37.9811 37.9811C37.4889 38.4735 36.8213 38.75 36.125 38.75H3.875C3.1788 38.75 2.51112 38.4735 2.01885 37.9811C1.52656 37.4889 1.25 36.8213 1.25 36.125V3.875C1.25 3.17881 1.52656 2.51112 2.01885 2.01885Z" fill="#292929"/>
<path d="M33.2885 22.9998H23.9615C23.6375 22.9998 23.375 23.2481 23.375 23.5541V23.5706C23.375 23.8766 23.6375 24.1248 23.9615 24.1248H33.2885C33.6125 24.1248 33.875 23.8766 33.875 23.5706V23.5541C33.875 23.2481 33.6125 22.9998 33.2885 22.9998ZM33.4351 15.4998H26.4399C26.1969 15.4998 26 15.7481 26 16.0541V16.0706C26 16.3766 26.1969 16.6248 26.4399 16.6248H33.4351C33.6781 16.6248 33.875 16.3766 33.875 16.0706V16.0541C33.875 15.7481 33.6781 15.4998 33.4351 15.4998ZM33.3515 30.4998H25.0235C24.7347 30.4998 24.5 30.7481 24.5 31.0541V31.0706C24.5 31.3766 24.7344 31.6248 25.0235 31.6248H33.3515C33.6402 31.6248 33.875 31.3766 33.875 31.0706V31.0541C33.875 30.7481 33.6406 30.4998 33.3515 30.4998ZM33.3095 19.2498H24.3155C24.0031 19.2498 23.75 19.4981 23.75 19.8041V19.8206C23.75 20.1266 24.0031 20.3748 24.3155 20.3748H33.3095C33.6219 20.3748 33.875 20.1266 33.875 19.8206V19.8041C33.875 19.4981 33.6219 19.2498 33.3095 19.2498ZM33.2049 26.7498H22.5451C22.175 26.7498 21.875 26.9981 21.875 27.3041V27.3206C21.875 27.6266 22.175 27.8748 22.5451 27.8748H33.2049C33.575 27.8748 33.875 27.6266 33.875 27.3206V27.3041C33.875 26.9981 33.575 26.7498 33.2049 26.7498ZM7.71385 6.9832L5.11702 6.9787C5.05358 6.9786 4.99079 6.96602 4.93223 6.94165C4.87367 6.91729 4.82048 6.88163 4.77569 6.83672C4.73092 6.79179 4.69542 6.73849 4.67124 6.67985C4.64705 6.62122 4.63467 6.55839 4.63477 6.49495V6.45295C4.63485 6.38953 4.64745 6.32674 4.67182 6.26818C4.69618 6.20962 4.73184 6.15643 4.77675 6.11164C4.82168 6.06687 4.87498 6.03137 4.93362 6.00719C4.99225 5.983 5.05508 5.9706 5.11852 5.9707L7.71535 5.9752C7.77885 5.97525 7.84173 5.98782 7.90023 6.01215C7.95885 6.03649 8.0121 6.07215 8.05698 6.11708C8.10173 6.162 8.13723 6.21532 8.16148 6.27398C8.18573 6.33264 8.1981 6.3955 8.19798 6.45895V6.50095C8.19785 6.56442 8.18535 6.62724 8.16098 6.68583C8.13648 6.74442 8.10085 6.79762 8.05585 6.8424C8.01098 6.88719 7.9576 6.92268 7.89885 6.94684C7.84023 6.97099 7.77735 6.98335 7.71385 6.9832ZM12.2139 6.9832L9.61698 6.9787C9.5536 6.9786 9.49085 6.96602 9.43223 6.94165C9.37373 6.91729 9.32048 6.88163 9.27573 6.83672C9.23098 6.79179 9.19548 6.73849 9.17123 6.67985C9.1471 6.62122 9.1346 6.55839 9.13473 6.49495V6.45295C9.13485 6.38953 9.14748 6.32674 9.17185 6.26818C9.19623 6.20962 9.23185 6.15643 9.27673 6.11164C9.32173 6.06687 9.37498 6.03137 9.4336 6.00719C9.49223 5.983 9.5551 5.9706 9.61848 5.9707L12.2154 5.9752C12.2789 5.97525 12.3417 5.98782 12.4002 6.01215C12.4589 6.03649 12.5121 6.07215 12.557 6.11708C12.6017 6.162 12.6372 6.21532 12.6615 6.27398C12.6857 6.33264 12.6981 6.3955 12.698 6.45895V6.50095C12.6979 6.56442 12.6854 6.62724 12.661 6.68583C12.6365 6.74442 12.6009 6.79762 12.5559 6.8424C12.511 6.88719 12.4576 6.92268 12.3989 6.94684C12.3402 6.97099 12.2774 6.98335 12.2139 6.9832ZM16.8245 6.9832L14.2291 6.9787C14.1657 6.9786 14.103 6.96602 14.0444 6.94165C13.9859 6.91729 13.9326 6.88163 13.8879 6.83672C13.8431 6.79179 13.8076 6.73849 13.7834 6.67985C13.7592 6.62122 13.7467 6.55839 13.7469 6.49495V6.45295C13.747 6.38953 13.7596 6.32674 13.784 6.26818C13.8084 6.20962 13.844 6.15643 13.8889 6.11164C13.9339 6.06687 13.9871 6.03137 14.0457 6.00719C14.1044 5.983 14.1672 5.9706 14.2306 5.9707L16.826 5.9752C16.8895 5.9753 16.9522 5.98789 17.0107 6.01227C17.0694 6.03663 17.1226 6.07229 17.1674 6.1172C17.2121 6.16213 17.2476 6.21543 17.2717 6.27407C17.296 6.3327 17.3084 6.39553 17.3082 6.45895V6.50095C17.3081 6.56439 17.2956 6.62718 17.2712 6.68574C17.2469 6.7443 17.2112 6.79749 17.1662 6.84227C17.1214 6.88705 17.0681 6.92254 17.0094 6.94673C16.9507 6.97092 16.888 6.9833 16.8245 6.9832ZM34.34 6.9832L23.483 6.9787C23.4196 6.9786 23.3569 6.96602 23.2982 6.94165C23.2397 6.91729 23.1865 6.88163 23.1417 6.83672C23.097 6.79179 23.0615 6.73849 23.0372 6.67985C23.0131 6.62122 23.0006 6.55839 23.0007 6.49495V6.45295C23.0009 6.38953 23.0135 6.32674 23.0379 6.26818C23.0622 6.20962 23.0979 6.15643 23.1427 6.11164C23.1877 6.06687 23.241 6.03137 23.2996 6.00719C23.3582 5.983 23.4211 5.9706 23.4845 5.9707L34.3415 5.9752C34.405 5.9753 34.4677 5.98789 34.5262 6.01227C34.5849 6.03663 34.6381 6.07229 34.6829 6.1172C34.7276 6.16213 34.7631 6.21543 34.7872 6.27407C34.8115 6.3327 34.8239 6.39553 34.8237 6.45895V6.50095C34.8236 6.56439 34.8111 6.62718 34.7867 6.68574C34.7624 6.7443 34.7267 6.79749 34.6817 6.84227C34.6369 6.88705 34.5835 6.92254 34.5249 6.94673C34.4662 6.97092 34.4035 6.9833 34.34 6.9832ZM13.7225 13.6248H14.2366C15.5454 13.68 16.7889 13.983 17.9686 14.5346C18.2619 14.6715 18.3642 14.9325 18.1486 15.2118C18.1374 15.2268 18.1407 15.2366 18.1587 15.2418C19.58 15.6187 20.6791 16.4253 21.4572 17.6613C21.5821 17.859 21.5169 18.0513 21.3635 18.219C20.8119 18.8208 20.6589 19.4302 20.6502 20.2627C20.6417 21.0617 20.6406 21.8607 20.6469 22.6597C20.6484 22.8307 20.6281 22.9458 20.5051 23.0523C20.309 23.2226 19.9895 23.1513 19.8901 22.9102C19.8612 22.8397 19.8466 22.7175 19.8466 22.5438C19.8466 21.849 19.8474 21.1545 19.8489 20.4596C19.8504 20.01 19.8639 19.6983 19.889 19.524C19.9745 18.9238 20.2202 18.3578 20.6004 17.8856C20.6086 17.8752 20.6131 17.8625 20.6134 17.8493C20.6136 17.8361 20.6096 17.8232 20.6019 17.8125C19.8789 16.8277 18.9219 16.2123 17.7305 15.9675C17.4155 15.9026 17.0255 15.8726 16.6741 15.8313C16.3947 15.7983 16.1727 15.6026 16.2725 15.3003C16.3456 15.0783 16.5894 15.0191 16.7814 14.9411C16.784 14.9401 16.7862 14.9382 16.7877 14.9358C16.7891 14.9336 16.7897 14.9308 16.7896 14.9282C16.7895 14.9256 16.7886 14.923 16.787 14.9208C16.7855 14.9185 16.7832 14.9166 16.7806 14.9156C13.6644 13.8405 10.034 14.433 8.69298 17.8121C8.09673 19.3136 8.1916 20.9497 8.20023 22.5288C8.20248 22.9372 8.2516 23.2488 8.60298 23.4446C8.64423 23.4678 8.66298 23.4558 8.65998 23.4086C8.63373 23.0088 8.65585 22.5243 8.65585 22.2307C8.65585 21.612 8.59023 20.8593 8.72035 20.2826C8.9566 19.2371 9.7801 18.3971 10.8327 18.1597C11.0337 18.1143 11.3442 18.0911 11.765 18.0907C13.2519 18.0888 14.7387 18.0888 16.2256 18.0907C16.6471 18.0907 16.9569 18.1128 17.1541 18.1563C18.2221 18.3892 19.0516 19.2476 19.2815 20.2998C19.3231 20.4922 19.3441 20.7626 19.3441 21.111L19.343 24.0048C19.343 24.3948 19.325 24.7065 19.289 24.939C18.8026 28.1032 15.62 30.1635 12.5281 29.2713C12.5232 29.27 12.518 29.2697 12.513 29.2705C12.5079 29.2713 12.5031 29.2733 12.4989 29.2762C12.4947 29.2791 12.4912 29.283 12.4886 29.2873C12.486 29.2917 12.4844 29.2966 12.4839 29.3017C12.4624 29.5601 12.3981 29.8132 12.2937 30.0506C12.29 30.0595 12.2895 30.0695 12.2922 30.0787C12.2951 30.088 12.3011 30.096 12.3091 30.1012C12.9969 30.5407 13.736 30.6971 14.5261 30.57C14.6536 30.5493 14.741 30.5426 14.7879 30.549C15.1452 30.5992 15.2484 31.0743 14.9461 31.2686C14.8884 31.3053 14.7987 31.3342 14.6761 31.3545C13.6644 31.5225 12.7254 31.3248 11.8599 30.7616C11.8539 30.7577 11.8467 30.7561 11.8396 30.7568C11.8326 30.7576 11.826 30.7607 11.8209 30.7657C11.4414 31.1501 10.9921 31.3923 10.4742 31.4925C10.3992 31.5071 10.2102 31.5221 9.90798 31.5375C8.07798 31.6323 6.70252 33.0712 6.70027 34.9061C6.69914 35.64 6.69877 36.3735 6.69914 37.107C6.69914 37.389 6.62752 37.5648 6.34439 37.6248H6.25289C5.97089 37.5603 5.90377 37.3878 5.90302 37.1051C5.90152 36.447 5.90189 35.7888 5.90302 35.1315C5.90377 34.7227 5.92177 34.4115 5.95777 34.1977C6.29002 32.1862 7.94785 30.8055 9.98035 30.7376C10.9486 30.705 11.7504 30.0086 11.696 28.977C11.696 28.9697 11.6939 28.9626 11.6899 28.9566C11.6859 28.9505 11.6802 28.9457 11.6735 28.9428C9.88585 28.0702 8.76835 26.349 8.65773 24.3588C8.65735 24.3518 8.65485 24.3451 8.6506 24.3396C8.64623 24.334 8.64048 24.3298 8.63373 24.3277C7.76335 24.0566 7.39889 23.4266 7.40077 22.5555C7.40339 21.666 7.35952 20.7322 7.42552 19.86C7.69698 16.2588 10.025 13.755 13.7225 13.6248ZM16.514 18.8823H11.4871C11.2191 18.8823 10.9536 18.9351 10.7059 19.0377C10.4582 19.1403 10.2331 19.2907 10.0436 19.4803C9.85398 19.6698 9.7036 19.895 9.60098 20.1426C9.49848 20.3903 9.4456 20.6557 9.4456 20.9238V24.0798C9.4456 25.3005 9.9256 26.4708 10.7799 27.3341C11.2009 27.7605 11.7022 28.0991 12.255 28.3305C12.8077 28.5618 13.4009 28.6812 14 28.6818C15.2082 28.6818 16.3666 28.197 17.2209 27.3341C18.0766 26.4672 18.5559 25.2978 18.5547 24.0798V20.9238C18.5547 20.3825 18.3397 19.8632 17.957 19.4805C17.5742 19.0976 17.0554 18.8825 16.514 18.8823Z" fill="#292929"/>
<path d="M21.7422 37.6248H21.6616C21.3665 37.5667 21.3009 37.38 21.3009 37.0908C21.3009 36.3626 21.3009 35.6343 21.2997 34.9061C21.2979 33.0506 19.9167 31.6361 18.0597 31.5352L17.7459 31.518C16.9977 31.4441 16.3959 31.095 15.9402 30.4702C15.5319 29.91 16.2245 29.4611 16.5466 29.9467C16.8027 30.333 17.15 30.5793 17.5884 30.6855C17.6769 30.7068 17.864 30.7248 18.1501 30.7387C20.1121 30.8362 21.7351 32.2706 22.0437 34.2086C22.0775 34.4216 22.0955 34.7336 22.0966 35.1431C22.0981 35.7832 22.0985 36.423 22.0977 37.0631C22.097 37.3631 22.0509 37.557 21.7422 37.6248ZM18.0597 35.5773L16.8361 35.5755C16.7354 35.5753 16.6386 35.6153 16.5672 35.6865C16.4959 35.7576 16.4557 35.8542 16.4555 35.955V35.9876C16.4552 36.0883 16.4951 36.1851 16.5662 36.2566C16.6372 36.328 16.7339 36.3683 16.8346 36.3686L18.0582 36.3705C18.2682 36.3708 18.4385 36.201 18.4389 35.991V35.9583C18.4396 35.7483 18.2694 35.5777 18.0597 35.5773Z" fill="#292929"/>
</svg>
