<svg xmlns="http://www.w3.org/2000/svg" width="20" height="20" fill="none"><g fill="#76746F" clip-path="url(#a)"><path d="M17.031 20a1.76 1.76 0 0 0 1.758-1.758V3.86L14.93 0H3.555v5.898H1.21v12.344C1.21 19.212 2 20 2.969 20H17.03ZM15.273 2l1.515 1.516h-1.515V2ZM4.727 1.173h9.375v3.516h3.515v13.554a.587.587 0 0 1-.586.586H4.626c.065-.183.1-.38.1-.586V1.172Zm-2.344 17.07V7.07h1.172v11.172a.587.587 0 0 1-1.172 0Z"/><path d="M12.93 2.344H5.898V8.28h7.032V2.344Zm-1.172 4.765H7.07V3.516h4.688v3.593ZM11.758 15.313h4.687v-5.86h-4.687v5.86Zm1.172-4.688h2.343v3.516H12.93v-3.516ZM5.898 9.453h4.688v1.172H5.898V9.453ZM5.898 11.797h4.688v1.172H5.898v-1.172ZM5.898 14.14h4.688v1.172H5.898v-1.171ZM5.898 16.484h10.547v1.172H5.898v-1.172Z"/></g><defs><clipPath id="a"><path fill="#fff" d="M0 0h20v20H0z"/></clipPath></defs></svg>