<svg viewBox="0 0 20 20" fill="none" xmlns="http://www.w3.org/2000/svg">
<path d="M19.3334 18.9975C19.2098 18.9974 19.0887 18.9615 18.9835 18.8938C18.8783 18.8261 18.7933 18.7293 18.7379 18.6142C17.5026 16.0496 16.3347 13.6239 10.0013 13.4665V18.305C10.0018 18.4403 9.96418 18.5728 9.89316 18.6861C9.82213 18.7994 9.72079 18.8886 9.60166 18.9425C9.48254 18.9965 9.35084 19.0129 9.22284 18.9898C9.09485 18.9667 8.97617 18.905 8.88146 18.8123L0.215941 10.5039C0.147915 10.4393 0.093573 10.3607 0.0563895 10.273C0.019206 10.1853 0 10.0905 0 9.99465C0 9.89879 0.019206 9.80399 0.0563895 9.7163C0.093573 9.62862 0.147915 9.54999 0.215941 9.48543L8.88146 1.18066C8.97678 1.09074 9.09492 1.03128 9.22178 1.00939C9.34865 0.987493 9.47888 1.00408 9.59694 1.05718C9.715 1.11028 9.8159 1.19764 9.88761 1.30884C9.95931 1.42004 9.99878 1.55039 10.0013 1.68432V6.53942C19.2339 6.77828 20 12.0111 20 18.3031C19.9995 18.487 19.9291 18.6631 19.8041 18.7929C19.6792 18.9227 19.5099 18.9975 19.3334 18.9975ZM1.6522 9.9965L8.66816 16.7236V12.7648C8.66816 12.3833 8.96679 12.0722 9.33474 12.0722C14.8629 12.0722 17.2146 13.6758 18.5957 15.6015C18.2847 10.876 16.6991 7.91706 9.33474 7.91706C9.24743 7.91731 9.16094 7.89964 9.08019 7.86506C8.99945 7.83048 8.92603 7.77967 8.86413 7.71554C8.80223 7.6514 8.75307 7.5752 8.71944 7.49127C8.68582 7.40734 8.66839 7.31733 8.66816 7.22639V3.2675L1.6522 9.9965Z" fill="currentColor"/>
</svg>
