<svg viewBox="0 0 36 36" fill="none" xmlns="http://www.w3.org/2000/svg">
<circle cx="18" cy="18" r="17.1" stroke="#F0AF2C" stroke-width="1.8"/>
<path d="M26.484 17.7871C26.484 19.8259 25.775 21.8012 24.4786 23.3747C23.1822 24.9482 21.379 26.022 19.3779 26.412C17.3767 26.8021 15.3023 26.4842 13.5098 25.5127C11.7173 24.5413 10.3184 22.9768 9.55273 21.0873" stroke="#F0AF2C" stroke-width="1.8"/>
<path d="M10.4863 21.4579L9.29422 22.2647L9.48685 21.2652L10.4863 21.4579Z" stroke="#F0AF2C" stroke-width="1.8" stroke-linecap="round"/>
<path d="M8.9086 17.7874C8.9086 15.7486 9.61754 13.7732 10.914 12.1997C12.2104 10.6262 14.0136 9.55247 16.0147 9.16242C18.0158 8.77237 20.0903 9.09029 21.8828 10.0617C23.6753 11.0332 25.0742 12.5977 25.8398 14.4872" stroke="#F0AF2C" stroke-width="1.8"/>
<path d="M24.9063 14.1166L26.0984 13.3098L25.9057 14.3092L24.9063 14.1166Z" stroke="#F0AF2C" stroke-width="1.8" stroke-linecap="round"/>
</svg>
