<svg xmlns="http://www.w3.org/2000/svg" width="40" height="40" fill="none"><circle cx="20" cy="20" r="20" fill="#2EAADC" fill-opacity=".15"/><g fill="#2EAADC" clip-path="url(#a)"><path d="M29.313 14c.914-.914.914-2.4 0-3.313a2.341 2.341 0 0 0-3.313 0A2.345 2.345 0 0 0 26 14a2.341 2.341 0 0 0 3.313 0Zm-2.485-2.485a1.17 1.17 0 1 1 1.657 1.655 1.17 1.17 0 0 1-1.657-1.655ZM14 29.31c.913-.914.913-2.4 0-3.314a2.342 2.342 0 1 0-3.313 3.313 2.341 2.341 0 0 0 3.313 0Zm-2.485-2.485a1.17 1.17 0 1 1 1.656 1.654 1.17 1.17 0 0 1-1.656-1.654ZM14 14c.913-.914.913-2.4 0-3.313a2.341 2.341 0 0 0-3.313 0 2.345 2.345 0 0 0 0 3.313A2.341 2.341 0 0 0 14 14Zm-2.485-2.485a1.17 1.17 0 1 1 1.656 1.655 1.17 1.17 0 0 1-1.656-1.655ZM26 26a2.342 2.342 0 1 0 3.313 0A2.341 2.341 0 0 0 26 26Zm2.485 2.485a1.17 1.17 0 1 1-1.657-1.655 1.17 1.17 0 0 1 1.657 1.655Z"/><path d="M13.171 18.97 14.203 20l-.994.994c-1.145 1.145-1.181 3.03-.037 4.174l1.657 1.657a2.932 2.932 0 0 0 4.141 0L20 25.797l1.032 1.031a2.909 2.909 0 0 0 2.07.858 2.91 2.91 0 0 0 2.07-.858l1.657-1.656a2.932 2.932 0 0 0 0-4.142L25.798 20l1.03-1.03a2.927 2.927 0 0 0 0-4.142l-1.656-1.656a2.932 2.932 0 0 0-4.141 0L20 14.201l-1.03-1.03a2.927 2.927 0 0 0-4.142 0l-1.656 1.656a2.932 2.932 0 0 0 0 4.142Zm4.97 7.026a1.76 1.76 0 0 1-2.485 0L14 24.34c-.692-.692-.645-1.837.036-2.518l.994-.994.899.899a1.757 1.757 0 0 0 2.344 2.344l.897.897-1.029 1.028Zm.96-9.239L20 15.86l1.657 1.656.414-.414a.585.585 0 1 1 .828.828l-.414.414L24.14 20l-.899.9a1.758 1.758 0 0 0-2.344 2.343L20 24.14l-1.656-1.656-.414.414a.585.585 0 1 1-.828-.828l.414-.414L15.86 20l.899-.9a1.758 1.758 0 0 0 2.343-2.343Zm6.9 5.102a1.76 1.76 0 0 1 0 2.485L24.343 26a1.746 1.746 0 0 1-1.243.515c-.47 0-.91-.183-1.242-.515l-1.032-1.031 1.658-1.656-.414-.414a.585.585 0 1 1 .828-.828l.414.414 1.657-1.657 1.03 1.03Zm-4.142-7.86a1.759 1.759 0 0 1 2.485 0L26 15.657a1.756 1.756 0 0 1 0 2.485l-1.03 1.03-.899-.898a1.758 1.758 0 0 0-2.344-2.344l-.899-.899 1.03-1.03Zm-7.86 1.657L15.657 14a1.756 1.756 0 0 1 2.485 0l1.03 1.03-1.656 1.657.414.414a.585.585 0 1 1-.828.828l-.414-.414-1.657 1.657-1.03-1.03a1.76 1.76 0 0 1 0-2.486Z"/></g><defs><clipPath id="a"><path fill="#fff" d="M10 10h20v20H10z"/></clipPath></defs></svg>