<svg viewBox="0 0 14 14" fill="none" xmlns="http://www.w3.org/2000/svg">
<path d="M6.81134 0.877748C6.609 0.913295 6.36017 1.05275 6.22619 1.20587C6.14689 1.29611 5.90353 1.76642 5.41134 2.76173C5.0258 3.5465 4.6922 4.20822 4.66759 4.23009C4.64025 4.25744 4.1508 4.33947 3.04611 4.5008C2.17384 4.62658 1.40822 4.74962 1.33986 4.7715C1.07189 4.86173 0.844938 5.09142 0.735563 5.384C0.689078 5.50704 0.680875 5.58361 0.689078 5.78322C0.705485 6.22892 0.686344 6.20431 2.04806 7.53048C2.69611 8.16212 3.22658 8.69533 3.22658 8.7172C3.22658 8.73908 3.109 9.44181 2.96408 10.2785C2.68791 11.8672 2.66603 12.0805 2.74533 12.3047C2.84923 12.5945 3.10353 12.8488 3.38791 12.9473C3.54923 13.002 3.91564 12.9992 4.07697 12.9391C4.14806 12.9145 4.83166 12.5617 5.60002 12.1598L6.99455 11.427L7.18322 11.5199C7.28439 11.5719 7.9215 11.9055 8.59689 12.261C9.27228 12.6164 9.88205 12.9254 9.95041 12.95C10.1992 13.0348 10.5875 12.9883 10.8172 12.8488C10.9485 12.7695 11.1508 12.5371 11.2164 12.3949C11.2547 12.3074 11.2766 12.1871 11.2848 12.0313C11.2957 11.8289 11.2629 11.602 11.036 10.2785C10.891 9.44455 10.7735 8.74181 10.7735 8.7172C10.7735 8.69259 11.3039 8.15939 11.952 7.53048C13.3137 6.20431 13.2945 6.22892 13.311 5.78322C13.3192 5.58361 13.311 5.50704 13.2645 5.384C13.1524 5.08869 12.9281 4.86173 12.6547 4.7715C12.5836 4.74689 11.8152 4.62384 10.9485 4.49806C9.66056 4.30939 9.35978 4.26017 9.32423 4.21915C9.29689 4.19181 8.9715 3.54923 8.59962 2.78908C8.22502 2.02892 7.88595 1.35626 7.8422 1.29611C7.69455 1.07462 7.44845 0.924232 7.16134 0.875014C7.06564 0.861342 6.98088 0.850404 6.97267 0.850404C6.96447 0.853139 6.89337 0.864076 6.81134 0.877748Z" fill="currentColor"/>
</svg>
