<svg xmlns="http://www.w3.org/2000/svg" width="20" height="20" fill="none"><g fill="#76746F" clip-path="url(#a)"><path d="m14.45 10.957-1.332 1.333-1.335-1.335 3.202-3.201a3.946 3.946 0 0 0 4.743-5.24l-.327-.833-2.095 2.095-.846-.226-.227-.846L18.328.607l-.833-.326a3.947 3.947 0 0 0-5.24 4.743l-3.2 3.201-4.3-4.299 1.14-1.14L2.362 0 0 2.36l2.786 3.536 1.141-1.14 4.299 4.298L5.4 11.88a4.137 4.137 0 0 0-4.174 1.03A4.126 4.126 0 0 0 .01 15.845c0 1.11.432 2.153 1.216 2.937a4.14 4.14 0 0 0 2.937 1.215A4.14 4.14 0 0 0 7.1 18.783a4.137 4.137 0 0 0 1.03-4.173l2.825-2.826 1.334 1.334-1.332 1.333 4.825 4.825a2.454 2.454 0 0 0 1.747.724 2.473 2.473 0 0 0 1.747-4.218l-4.826-4.825ZM1.564 2.453l.889-.889 1.682 1.327L2.89 4.136 1.564 2.453Zm12.047 2.873-.14-.357a2.776 2.776 0 0 1 2.628-3.788l-1.172 1.172.577 2.153 2.152.577 1.172-1.173a2.775 2.775 0 0 1-3.788 2.628l-.357-.14-3.728 3.729-1.073-1.073 3.729-3.728Zm-6.853 8.998.153.363a2.972 2.972 0 0 1-.64 3.268 2.972 2.972 0 0 1-2.108.872c-.763 0-1.527-.29-2.109-.872a2.963 2.963 0 0 1-.873-2.109c0-.796.31-1.545.873-2.108a2.972 2.972 0 0 1 3.269-.64l.363.153 3.368-3.368 1.073 1.072-3.369 3.369Zm7.692-1.71 1.073 1.072-1.837 1.837-1.073-1.072 1.837-1.838Zm3.998 5.834a1.29 1.29 0 0 1-.92.38 1.29 1.29 0 0 1-.918-.38l-2.096-2.096 1.837-1.838 2.097 2.096a1.3 1.3 0 0 1 0 1.838Z"/><path d="M4.163 13.916c-.515 0-1 .201-1.364.566-.365.364-.566.849-.566 1.364 0 .516.201 1 .566 1.365.364.364.849.565 1.364.565a1.932 1.932 0 0 0 0-3.86Zm.537 2.467a.754.754 0 0 1-.537.222.753.753 0 0 1-.536-.222.754.754 0 0 1-.222-.537c0-.202.079-.393.222-.536a.753.753 0 0 1 .536-.222.76.76 0 0 1 .536 1.295Z"/></g><defs><clipPath id="a"><path fill="#fff" d="M0 0h20v20H0z"/></clipPath></defs></svg>