
<svg viewBox="0 0 60 60" fill="none" xmlns="http://www.w3.org/2000/svg">
<path d="M31.3002 7.65717L37.8715 20.9857C37.9572 21.1714 38.143 21.3 38.343 21.3286L53.043 23.4714C54.2287 23.6429 54.7002 25.1 53.843 25.943L43.5145 36C43.1715 36.3285 43.0145 36.8142 43.1002 37.2857L45.543 51.5C45.743 52.6857 44.5002 53.5857 43.443 53.0285L30.286 46.1142C30.1002 46.0142 29.886 46.0142 29.7002 46.1142L16.543 53.0285C15.4859 53.5857 14.243 52.6857 14.443 51.5L16.9716 36.8572C17.0002 36.6572 16.943 36.443 16.7859 36.3L6.15732 25.9285C5.30019 25.0857 5.77162 23.6286 6.95732 23.4572L21.6573 21.3143C21.8573 21.2857 22.043 21.1572 22.1288 20.9714L28.7002 7.64287C29.2287 6.58575 30.7715 6.58575 31.3002 7.65717Z" fill="url(#paint0_radial_7133_65409)"/>
<path d="M13.8716 30.457C11.1145 27.7 7.21447 24.5571 8.02877 23.3142L6.95732 23.4714C5.77162 23.6428 5.30019 25.1 6.15732 25.9428L16.8002 36.3143C16.943 36.457 17.0145 36.6713 16.9859 36.8713C17.3573 34.2713 16.6287 33.2 13.8716 30.457Z" fill="url(#paint1_radial_7133_65409)"/>
<path d="M46.1286 30.457C48.8859 27.7 52.7859 24.5571 51.9714 23.3142L53.0429 23.4714C54.2286 23.6428 54.7001 25.1 53.8429 25.9428L43.2001 36.3143C43.0571 36.457 42.9859 36.6713 43.0144 36.8713C42.6429 34.2713 43.3714 33.2 46.1286 30.457Z" fill="url(#paint2_radial_7133_65409)"/>
<path d="M53.0431 23.4717L38.3431 21.3289C38.1431 21.3003 37.9573 21.1717 37.8716 20.986L31.3001 7.65747C31.3001 7.65747 30.7001 8.40032 32.0573 11.2289C32.9431 13.0717 35.2716 18.1575 36.5431 20.786C37.2573 22.2717 38.3431 22.3003 39.9858 22.5146L50.8431 23.9003C50.8288 23.9146 52.0288 24.0146 53.0431 23.4717Z" fill="url(#paint3_radial_7133_65409)"/>
<path d="M31.3002 7.65717L37.8715 20.9857C37.9572 21.1714 38.143 21.3 38.343 21.3286L53.043 23.4714C54.2287 23.6429 54.7002 25.1 53.843 25.943L43.5145 36C43.1715 36.3285 43.0145 36.8142 43.1002 37.2857L45.543 51.5C45.743 52.6857 44.5002 53.5857 43.443 53.0285L30.286 46.1142C30.1002 46.0142 29.886 46.0142 29.7002 46.1142L16.543 53.0285C15.4859 53.5857 14.243 52.6857 14.443 51.5L16.9716 36.8572C17.0002 36.6572 16.943 36.443 16.7859 36.3L6.15732 25.9285C5.30019 25.0857 5.77162 23.6286 6.95732 23.4572L21.6573 21.3143C21.8573 21.2857 22.043 21.1572 22.1288 20.9714L28.7002 7.64287C29.2287 6.58575 30.7715 6.58575 31.3002 7.65717Z" fill="url(#paint4_radial_7133_65409)"/>
<path d="M31.3002 7.65717L37.8715 20.9857C37.9572 21.1714 38.143 21.3 38.343 21.3286L53.043 23.4714C54.2287 23.6429 54.7002 25.1 53.843 25.943L43.5145 36C43.1715 36.3285 43.0145 36.8142 43.1002 37.2857L45.543 51.5C45.743 52.6857 44.5002 53.5857 43.443 53.0285L30.286 46.1142C30.1002 46.0142 29.886 46.0142 29.7002 46.1142L16.543 53.0285C15.4859 53.5857 14.243 52.6857 14.443 51.5L16.9716 36.8572C17.0002 36.6572 16.943 36.443 16.7859 36.3L6.15732 25.9285C5.30019 25.0857 5.77162 23.6286 6.95732 23.4572L21.6573 21.3143C21.8573 21.2857 22.043 21.1572 22.1288 20.9714L28.7002 7.64287C29.2287 6.58575 30.7715 6.58575 31.3002 7.65717Z" fill="url(#paint5_radial_7133_65409)"/>
<path d="M28.7002 7.65717L22.1288 20.9857C22.043 21.1714 21.8573 21.3 21.6573 21.3286L6.95732 23.4714C5.77162 23.6429 5.30019 25.1 6.15732 25.943L16.4859 36C16.8288 36.3285 16.9859 36.8142 16.9002 37.2857L14.4573 51.5C14.2573 52.6857 15.5002 53.5857 16.5573 53.0285L29.7145 46.1142C29.9002 46.0142 30.1145 46.0142 30.3002 46.1142L43.4572 53.0285C44.5145 53.5857 45.7572 52.6857 45.5572 51.5L43.0287 36.8572C43.0002 36.6572 43.0572 36.443 43.2145 36.3L53.8572 25.9285C54.7145 25.0857 54.243 23.6286 53.0572 23.4572L38.3572 21.3143C38.1572 21.2857 37.9715 21.1572 37.886 20.9714L31.3145 7.64287C30.7715 6.58575 29.2287 6.58575 28.7002 7.65717Z" fill="url(#paint6_radial_7133_65409)"/>
<path d="M28.7002 7.65717L22.1288 20.9857C22.043 21.1714 21.8573 21.3 21.6573 21.3286L6.95732 23.4714C5.77162 23.6429 5.30019 25.1 6.15732 25.943L16.4859 36C16.8288 36.3285 16.9859 36.8142 16.9002 37.2857L14.4573 51.5C14.2573 52.6857 15.5002 53.5857 16.5573 53.0285L29.7145 46.1142C29.9002 46.0142 30.1145 46.0142 30.3002 46.1142L43.4572 53.0285C44.5145 53.5857 45.7572 52.6857 45.5572 51.5L43.0287 36.8572C43.0002 36.6572 43.0572 36.443 43.2145 36.3L53.8572 25.9285C54.7145 25.0857 54.243 23.6286 53.0572 23.4572L38.3572 21.3143C38.1572 21.2857 37.9715 21.1572 37.886 20.9714L31.3145 7.64287C30.7715 6.58575 29.2287 6.58575 28.7002 7.65717Z" fill="url(#paint7_radial_7133_65409)"/>
<path opacity="0.24" d="M28.7002 7.65717L22.1288 20.9857C22.043 21.1714 21.8573 21.3 21.6573 21.3286L6.95732 23.4714C5.77162 23.6429 5.30019 25.1 6.15732 25.943L16.4859 36C16.8288 36.3285 16.9859 36.8142 16.9002 37.2857L14.4573 51.5C14.2573 52.6857 15.5002 53.5857 16.5573 53.0285L29.7145 46.1142C29.9002 46.0142 30.1145 46.0142 30.3002 46.1142L43.4572 53.0285C44.5145 53.5857 45.7572 52.6857 45.5572 51.5L43.0287 36.8572C43.0002 36.6572 43.0572 36.443 43.2145 36.3L53.8572 25.9285C54.7145 25.0857 54.243 23.6286 53.0572 23.4572L38.3572 21.3143C38.1572 21.2857 37.9715 21.1572 37.886 20.9714L31.3145 7.64287C30.7715 6.58575 29.2287 6.58575 28.7002 7.65717Z" fill="url(#paint8_radial_7133_65409)"/>
<path opacity="0.24" d="M28.7002 7.65717L22.1288 20.9857C22.043 21.1714 21.8573 21.3 21.6573 21.3286L6.95732 23.4714C5.77162 23.6429 5.30019 25.1 6.15732 25.943L16.4859 36C16.8288 36.3285 16.9859 36.8142 16.9002 37.2857L14.4573 51.5C14.2573 52.6857 15.5002 53.5857 16.5573 53.0285L29.7145 46.1142C29.9002 46.0142 30.1145 46.0142 30.3002 46.1142L43.4572 53.0285C44.5145 53.5857 45.7572 52.6857 45.5572 51.5L43.0287 36.8572C43.0002 36.6572 43.0572 36.443 43.2145 36.3L53.8572 25.9285C54.7145 25.0857 54.243 23.6286 53.0572 23.4572L38.3572 21.3143C38.1572 21.2857 37.9715 21.1572 37.886 20.9714L31.3145 7.64287C30.7715 6.58575 29.2287 6.58575 28.7002 7.65717Z" fill="url(#paint9_radial_7133_65409)"/>
<path d="M6.95654 23.4717L21.6566 21.3289C21.8566 21.3003 22.0423 21.1717 22.128 20.986L28.6995 7.65747C28.6995 7.65747 29.2995 8.40032 27.9423 11.2289C27.0565 13.0717 24.728 18.1575 23.4566 20.786C22.7423 22.2717 21.6566 22.3003 20.0137 22.5146L9.15654 23.9003C9.17084 23.9146 7.97084 24.0146 6.95654 23.4717Z" fill="url(#paint10_radial_7133_65409)"/>
<path opacity="0.5" d="M31.3002 7.65717L37.8715 20.9857C37.9572 21.1714 38.143 21.3 38.343 21.3286L53.043 23.4714C54.2287 23.6429 54.7002 25.1 53.843 25.943L43.5145 36C43.1715 36.3285 43.0145 36.8142 43.1002 37.2857L45.543 51.5C45.743 52.6857 44.5002 53.5857 43.443 53.0285L30.286 46.1142C30.1002 46.0142 29.886 46.0142 29.7002 46.1142L16.543 53.0285C15.4859 53.5857 14.243 52.6857 14.443 51.5L16.9716 36.8572C17.0002 36.6572 16.943 36.443 16.7859 36.3L6.15732 25.9285C5.30019 25.0857 5.77162 23.6286 6.95732 23.4572L21.6573 21.3143C21.8573 21.2857 22.043 21.1572 22.1288 20.9714L28.7002 7.64287C29.2287 6.58575 30.7715 6.58575 31.3002 7.65717Z" fill="url(#paint11_radial_7133_65409)"/>
<path d="M45.543 51.5002L43.1002 37.286C43.0145 36.8145 43.1715 36.3432 43.5145 36.0002L53.843 25.929C54.7002 25.086 54.2287 23.6289 53.043 23.4574L38.343 21.3146C38.143 21.286 37.9572 21.1574 37.8715 20.9717L31.3002 7.64317C30.7715 6.57174 29.243 6.57174 28.7002 7.64317L22.1288 20.9717C22.043 21.1574 21.8573 21.286 21.6573 21.3146L6.95732 23.4574C5.77162 23.6289 5.30019 25.086 6.15732 25.929L16.8002 36.3002C16.943 36.4432 17.0145 36.6575 16.9859 36.8575L14.4573 51.5002C14.2573 52.686 15.5002 53.586 16.5573 53.029L29.7145 46.1145C29.9002 46.0145 30.1145 46.0145 30.3002 46.1145L43.4572 53.029C44.5002 53.586 45.743 52.686 45.543 51.5002ZM44.486 52.2432C44.386 52.3145 44.143 52.4575 43.8287 52.286L30.686 45.3717C30.4715 45.2575 30.243 45.2002 30.0145 45.2002C29.786 45.2002 29.5572 45.2575 29.343 45.3717L16.2002 52.286C15.8859 52.4432 15.643 52.3002 15.543 52.2432C15.443 52.1717 15.2288 51.9717 15.3002 51.629L17.7859 37.0002C17.8716 36.529 17.7145 36.0575 17.3716 35.7145L6.72877 25.3432C6.47162 25.1002 6.52877 24.8146 6.57162 24.7003C6.61447 24.586 6.72877 24.3289 7.07162 24.2717L21.7716 22.1289C22.243 22.0574 22.6573 21.7574 22.8573 21.3432L29.4287 8.01459C29.586 7.70032 29.8715 7.67174 29.986 7.67174C30.1002 7.67174 30.386 7.70032 30.543 8.01459L37.1145 21.3432C37.3287 21.7717 37.7287 22.0717 38.2002 22.1289L52.9002 24.2717C53.243 24.3289 53.3715 24.586 53.4002 24.7003C53.443 24.8146 53.5002 25.1002 53.243 25.3432L42.9145 35.4145C42.386 35.929 42.143 36.686 42.2572 37.4145L44.7002 51.629C44.786 51.986 44.5715 52.186 44.486 52.2432Z" fill="url(#paint12_radial_7133_65409)"/>
<defs>
<radialGradient id="paint0_radial_7133_65409" cx="0" cy="0" r="1" gradientUnits="userSpaceOnUse" gradientTransform="translate(28.7925 25.1942) scale(23.7334 23.7334)">
<stop stop-color="#FFE343"/>
<stop offset="0.5492" stop-color="#FFE241"/>
<stop offset="0.7469" stop-color="#FFDF3A"/>
<stop offset="0.8874" stop-color="#FEDA2F"/>
<stop offset="1" stop-color="#FED31E"/>
</radialGradient>
<radialGradient id="paint1_radial_7133_65409" cx="0" cy="0" r="1" gradientUnits="userSpaceOnUse" gradientTransform="translate(11.2402 34.5613) rotate(-39.4857) scale(4.38948 11.8195)">
<stop stop-color="#D86D00"/>
<stop offset="0.3292" stop-color="#DC6C0A" stop-opacity="0.6708"/>
<stop offset="0.8792" stop-color="#E86823" stop-opacity="0.1208"/>
<stop offset="1" stop-color="#EB672A" stop-opacity="0"/>
</radialGradient>
<radialGradient id="paint2_radial_7133_65409" cx="0" cy="0" r="1" gradientUnits="userSpaceOnUse" gradientTransform="translate(48.2031 35.203) rotate(-140.514) scale(4.38948 11.8195)">
<stop stop-color="#D86D00"/>
<stop offset="0.3292" stop-color="#DC6C0A" stop-opacity="0.6708"/>
<stop offset="0.8792" stop-color="#E86823" stop-opacity="0.1208"/>
<stop offset="1" stop-color="#EB672A" stop-opacity="0"/>
</radialGradient>
<radialGradient id="paint3_radial_7133_65409" cx="0" cy="0" r="1" gradientUnits="userSpaceOnUse" gradientTransform="translate(45.0711 11.734) rotate(46.8275) scale(17.189 11.8311)">
<stop stop-color="#ED9900"/>
<stop offset="1" stop-color="#ED9900" stop-opacity="0"/>
</radialGradient>
<radialGradient id="paint4_radial_7133_65409" cx="0" cy="0" r="1" gradientUnits="userSpaceOnUse" gradientTransform="translate(28.1562 22.6787) rotate(-41.4123) scale(13.6551 7.48297)">
<stop stop-color="#FFEC5F"/>
<stop offset="1" stop-color="#FFEC5F" stop-opacity="0"/>
</radialGradient>
<radialGradient id="paint5_radial_7133_65409" cx="0" cy="0" r="1" gradientUnits="userSpaceOnUse" gradientTransform="translate(24.0605 53.1742) rotate(-26.3216) scale(13.0497 6.18462)">
<stop stop-color="#D86D00"/>
<stop offset="0.3292" stop-color="#DC6C0A" stop-opacity="0.6708"/>
<stop offset="0.8792" stop-color="#E86823" stop-opacity="0.1208"/>
<stop offset="1" stop-color="#EB672A" stop-opacity="0"/>
</radialGradient>
<radialGradient id="paint6_radial_7133_65409" cx="0" cy="0" r="1" gradientUnits="userSpaceOnUse" gradientTransform="translate(35.795 53.542) rotate(-153.678) scale(13.0497 6.18462)">
<stop stop-color="#D86D00"/>
<stop offset="0.3292" stop-color="#DC6C0A" stop-opacity="0.6708"/>
<stop offset="0.8792" stop-color="#E86823" stop-opacity="0.1208"/>
<stop offset="1" stop-color="#EB672A" stop-opacity="0"/>
</radialGradient>
<radialGradient id="paint7_radial_7133_65409" cx="0" cy="0" r="1" gradientUnits="userSpaceOnUse" gradientTransform="translate(29.9872 60.4912) rotate(177.226) scale(17.2629 17.6984)">
<stop stop-color="#D86D00"/>
<stop offset="0.3292" stop-color="#DC6C0A" stop-opacity="0.6708"/>
<stop offset="0.8792" stop-color="#E86823" stop-opacity="0.1208"/>
<stop offset="1" stop-color="#EB672A" stop-opacity="0"/>
</radialGradient>
<radialGradient id="paint8_radial_7133_65409" cx="0" cy="0" r="1" gradientUnits="userSpaceOnUse" gradientTransform="translate(35.8135 41.39) rotate(158.456) scale(18.2418 13.7898)">
<stop stop-color="#D86D00"/>
<stop offset="0.3292" stop-color="#DC6C0A" stop-opacity="0.6708"/>
<stop offset="0.8792" stop-color="#E86823" stop-opacity="0.1208"/>
<stop offset="1" stop-color="#EB672A" stop-opacity="0"/>
</radialGradient>
<radialGradient id="paint9_radial_7133_65409" cx="0" cy="0" r="1" gradientUnits="userSpaceOnUse" gradientTransform="translate(28.0972 24.6158) rotate(158.456) scale(10.9909 8.3085)">
<stop stop-color="white"/>
<stop offset="1" stop-color="white" stop-opacity="0"/>
</radialGradient>
<radialGradient id="paint10_radial_7133_65409" cx="0" cy="0" r="1" gradientUnits="userSpaceOnUse" gradientTransform="translate(14.9292 11.7322) rotate(133.173) scale(17.189 11.8311)">
<stop stop-color="#ED9900"/>
<stop offset="1" stop-color="#ED9900" stop-opacity="0"/>
</radialGradient>
<radialGradient id="paint11_radial_7133_65409" cx="0" cy="0" r="1" gradientUnits="userSpaceOnUse" gradientTransform="translate(30.2685 31.2327) scale(28.2967)">
<stop stop-color="#FF8000" stop-opacity="0"/>
<stop offset="0.5434" stop-color="#FD7F00" stop-opacity="0.5434"/>
<stop offset="0.7391" stop-color="#F67C00" stop-opacity="0.7391"/>
<stop offset="0.8781" stop-color="#EB7600" stop-opacity="0.8781"/>
<stop offset="0.9903" stop-color="#DA6E00" stop-opacity="0.9903"/>
<stop offset="1" stop-color="#D86D00"/>
</radialGradient>
<radialGradient id="paint12_radial_7133_65409" cx="0" cy="0" r="1" gradientUnits="userSpaceOnUse" gradientTransform="translate(30.0002 32.146) scale(24.4518)">
<stop stop-color="#A3541E" stop-opacity="0.5"/>
<stop offset="0.5109" stop-color="#A5551D" stop-opacity="0.7555"/>
<stop offset="0.695" stop-color="#AC5819" stop-opacity="0.8475"/>
<stop offset="0.8261" stop-color="#B75E12" stop-opacity="0.9131"/>
<stop offset="0.9315" stop-color="#C86609" stop-opacity="0.9657"/>
<stop offset="1" stop-color="#D86D00"/>
</radialGradient>
</defs>
</svg>
