<svg viewBox="0 0 40 40" fill="none" xmlns="http://www.w3.org/2000/svg">
<path opacity="0.4" d="M32.5 13.125H25" stroke="currentColor" stroke-width="1.5" stroke-miterlimit="10" stroke-linecap="round" stroke-linejoin="round"/>
<path d="M12.5 13.125H7.5M17.5 17.5C18.0745 17.5 18.6434 17.3868 19.1742 17.167C19.705 16.9471 20.1873 16.6248 20.5936 16.2186C20.9998 15.8123 21.3221 15.33 21.542 14.7992C21.7618 14.2684 21.875 13.6995 21.875 13.125C21.875 12.5505 21.7618 11.9816 21.542 11.4508C21.3221 10.92 20.9998 10.4377 20.5936 10.0314C20.1873 9.62515 19.705 9.30289 19.1742 9.08303C18.6434 8.86316 18.0745 8.75 17.5 8.75C16.3397 8.75 15.2269 9.21094 14.4064 10.0314C13.5859 10.8519 13.125 11.9647 13.125 13.125C13.125 14.2853 13.5859 15.3981 14.4064 16.2186C15.2269 17.0391 16.3397 17.5 17.5 17.5Z" stroke="currentColor" stroke-width="1.5" stroke-miterlimit="10" stroke-linecap="round" stroke-linejoin="round"/>
<path opacity="0.4" d="M15 26.875H7.5" stroke="currentColor" stroke-width="1.5" stroke-miterlimit="10" stroke-linecap="round" stroke-linejoin="round"/>
<path d="M32.5 26.875H27.5M22.5 31.25C23.6603 31.25 24.7731 30.7891 25.5936 29.9686C26.4141 29.1481 26.875 28.0353 26.875 26.875C26.875 25.7147 26.4141 24.6019 25.5936 23.7814C24.7731 22.9609 23.6603 22.5 22.5 22.5C21.3397 22.5 20.2269 22.9609 19.4064 23.7814C18.5859 24.6019 18.125 25.7147 18.125 26.875C18.125 28.0353 18.5859 29.1481 19.4064 29.9686C20.2269 30.7891 21.3397 31.25 22.5 31.25Z" stroke="currentColor" stroke-width="1.5" stroke-miterlimit="10" stroke-linecap="round" stroke-linejoin="round"/>
</svg>
