<svg viewBox="0 0 20 20" fill="none" xmlns="http://www.w3.org/2000/svg">
<path d="M7.64661 16.5386V6.6001" stroke="#C4C4C4" stroke-width="0.8"/>
<path d="M17.5851 9.73853L2.9389 9.73853" stroke="#C4C4C4" stroke-width="0.8"/>
<path d="M12.3543 16.5386V6.6001" stroke="#C4C4C4" stroke-width="0.8"/>
<path d="M17.5851 13.4L2.9389 13.4" stroke="#C4C4C4" stroke-width="0.8"/>
<path d="M2.9389 4.76931V6.60008H17.5851V4.76931C17.5851 3.09546 15.8415 2.677 14.9697 2.677H5.03121C3.35737 2.677 2.9389 4.07187 2.9389 4.76931Z" fill="currentColor"/>
<path d="M3.79831 15.9722C3.52068 15.5677 3.38044 15.0716 3.3389 14.7365V5.95396H17.1851V15.0478C17.1851 15.603 16.9462 15.9754 16.642 16.2297C16.3376 16.4842 15.9681 16.6174 15.721 16.6616H5.03121C4.46413 16.6616 4.07395 16.3738 3.79831 15.9722Z" stroke="currentColor" stroke-width="0.8"/>
</svg>
