<svg viewBox="0 0 100 100" fill="none" xmlns="http://www.w3.org/2000/svg">
<g clip-path="url(#clip0_47_3311)">
<path d="M42.6836 0.312506C39.4219 1.9336 39.5391 6.69923 42.8594 8.08595C43.3282 8.28126 44.1875 8.39845 45.2617 8.39845H46.9219V9.27735C46.9219 10.0977 46.9024 10.1367 46.2969 10.2344C41.8047 10.918 40.8672 11.1914 40.4766 11.8945C40.125 12.5586 40.2422 13.457 40.7696 13.9649C41.2969 14.5117 42.2735 14.5899 43.6992 14.2578C44.5196 14.0625 49.0508 13.4766 49.793 13.4766C50.2227 13.4766 50.2422 13.5352 50.2422 15.2539C50.2422 17.5977 50.6524 18.3399 51.9414 18.3594C53.3868 18.3594 53.7578 17.7344 53.7578 15.2344V13.457L55.1836 13.5742C57.6446 13.8086 60.8086 14.4141 63.2305 15.1172C65.4961 15.7617 69.9688 17.5391 70.6133 18.0274C70.8868 18.2422 70.8086 18.4375 70.0469 19.7266C69.0899 21.3477 68.9727 22.1289 69.5782 22.9102C70.086 23.5352 70.7891 23.711 71.6094 23.3594C72.1172 23.1445 72.4493 22.7539 73.0743 21.6016C73.543 20.7813 74.0118 20.1172 74.1289 20.1172C74.5391 20.1172 78.4063 23.125 80.2618 24.8828C82.2149 26.7383 83.9532 28.7305 85.6719 31.1328L86.7852 32.6758L85.3594 33.5156C84.5782 33.9844 83.7774 34.5508 83.6016 34.7852C83.1328 35.3516 83.1524 36.3477 83.6602 36.9922C84.2657 37.7735 85.3008 37.6953 86.961 36.7188C87.7032 36.2891 88.3868 35.9375 88.4844 35.9375C88.9336 35.9375 91.2383 41.7578 92.0586 45C92.5274 46.8164 93.211 51.2696 93.211 52.4805V53.3203H91.2578C89.4219 53.3203 89.2461 53.3594 88.8164 53.8086C88.2891 54.3164 88.1719 55.2149 88.543 55.8985C88.875 56.5235 89.9297 56.836 91.6485 56.836H93.211V57.5586C93.211 58.711 92.5078 63.2031 92.0586 64.9805C91.1993 68.3399 88.9532 74.0235 88.4844 74.0235C88.3868 74.0235 87.6641 73.6719 86.8828 73.2422C86.0625 72.793 85.2032 72.461 84.8321 72.461C83.9336 72.461 83.25 73.2032 83.25 74.1797C83.25 75.0782 83.5821 75.4297 85.4375 76.5235L86.7657 77.2852L85.7696 78.7305C83.1719 82.4805 79.0703 86.6016 75.4375 89.0625C74.8125 89.4922 74.2071 89.8438 74.0899 89.8438C73.9922 89.8438 73.5821 89.2969 73.211 88.6133C72.2149 86.8555 71.8633 86.5235 70.9258 86.5235C70.3594 86.5235 70.0078 86.6602 69.6758 87.0117C68.9532 87.7149 69.0508 88.5157 70.0664 90.293L70.9453 91.836L68.9336 92.7735C65.3399 94.4532 61.2188 95.6446 57.0196 96.1914C53.4453 96.6602 53.7578 96.7969 53.7578 94.7071C53.7578 92.3243 53.3477 91.6211 52 91.6211C50.6524 91.6211 50.2422 92.3243 50.2422 94.7266V96.5235L48.4453 96.3868C47.4492 96.3086 45.9258 96.1133 45.0664 95.9766C44.2071 95.8203 43.0157 95.6446 42.3907 95.5664C41.3946 95.4688 41.2383 95.5078 40.7891 95.9571C40.125 96.6211 40.1055 97.6172 40.7305 98.3399C41.043 98.711 41.5117 98.9258 42.4883 99.1407C48.2696 100.352 55.5352 100.293 61.5703 99.0039C64.461 98.3789 68.4453 96.9727 71.4336 95.5078C78.6602 91.9922 84.7149 86.7188 89.2071 79.9805C94.7539 71.6992 97.1953 62.5977 96.6875 52.3047C96.2188 42.832 92.293 32.9883 86.1407 25.8789C85.5157 25.1563 85.0078 24.5117 85.0078 24.4336C85.0078 24.375 85.75 23.5742 86.668 22.6563L88.3282 21.0156L89.5 22.168L90.6719 23.3399L94.1875 19.8242C96.1211 17.8906 97.7032 16.2305 97.7032 16.1133C97.7032 15.9961 96.1211 14.3359 94.1875 12.4024L90.6719 8.88673L87.0586 12.5L83.4453 16.1133L84.6172 17.2852L85.7891 18.457L84.0703 20.1758L82.3321 21.8945L81.375 21.0352C75.3789 15.7031 67.4688 11.9531 59.2657 10.5664L57.1758 10.2149L57.1172 9.31641L57.0586 8.39845H58.7774C60.7891 8.39845 61.7461 8.04688 62.6836 6.97266C64.3633 5.07813 63.9532 2.03126 61.8243 0.585943L61.1016 0.097662L52.2149 0.0585995C44.3633 5.71884e-06 43.2305 0.0390682 42.6836 0.312506Z" fill="black" fill-opacity="0.5"/>
<path d="M27.918 21.6601C27.5078 21.7578 26.9414 21.9922 26.6484 22.207C25.9453 22.6953 25.2422 24.1211 25.2422 25C25.2422 25.957 25.9844 27.3437 26.7656 27.8711C27.625 28.4375 29.0508 28.5742 33.8359 28.4765C37.293 28.418 37.9375 28.3594 38.582 28.0469C40.9844 26.8555 40.9844 23.1445 38.582 21.9531C37.918 21.6211 37.332 21.582 33.25 21.543C30.7305 21.5234 28.3281 21.582 27.918 21.6601Z" fill="black" fill-opacity="0.5"/>
<path d="M18.797 33.6328C17.7618 34.1602 17.2735 34.8047 17.0196 35.918C16.6681 37.4609 17.5274 39.1992 18.9337 39.7656C19.8517 40.1563 37.4493 40.1563 38.3868 39.7656C41.0626 38.6523 41.1017 34.7852 38.4454 33.5742C37.7032 33.2422 36.9806 33.2031 28.6603 33.2031C19.7149 33.2031 19.6563 33.2031 18.797 33.6328Z" fill="black" fill-opacity="0.5"/>
<path d="M71.2383 36.7578C70.3008 37.2852 49.3047 52.5586 48.6601 53.1836C47.0781 54.707 46.5312 57.3438 47.3125 59.4531C48.4648 62.4609 51.5898 64.0234 54.7343 63.125C56.6289 62.5781 56.9804 62.168 65.0859 50.9375C74.4609 38.0078 73.6797 39.1602 73.6797 38.3008C73.6601 37.4609 73.3476 37.0117 72.625 36.7187C71.9609 36.4648 71.7265 36.4844 71.2383 36.7578Z" fill="black"/>
<path d="M10.3984 45.3516C8.03516 46.543 8.03516 50.0781 10.3789 51.3086L11.2578 51.7578L24.7539 51.7188L38.2695 51.6602L38.9922 51.0938C39.8125 50.4688 40.4766 49.2383 40.4766 48.3398C40.4766 47.0898 39.4219 45.5664 38.2695 45.1367C37.8984 44.9805 33.3867 44.9219 24.4805 44.9219H11.2578L10.3984 45.3516Z" fill="black" fill-opacity="0.5"/>
<path d="M3.95312 56.8554C2.72266 57.3437 2 58.5156 2 59.9804C2 61.2109 2.52734 62.2265 3.50391 62.8906L4.22656 63.3789L20.6914 63.4375C31.7461 63.4765 37.4297 63.4179 37.9375 63.2812C40.8477 62.5 41.3164 58.5156 38.6992 57.0507C37.9961 56.6406 37.7812 56.6406 21.2188 56.6601C10.5547 56.6601 4.26562 56.7382 3.95312 56.8554Z" fill="black" fill-opacity="0.5"/>
<path d="M14.5195 68.3594C13.7383 68.5352 13.0156 69.0625 12.4688 69.8047C12.1367 70.2148 12.0586 70.625 12.0586 71.6797C12.0586 73.1641 12.3711 73.7695 13.5234 74.5508L14.168 75H26.0625C37.5078 75 37.9766 74.9805 38.6992 74.6094C40.9258 73.4766 40.9648 70.0781 38.7578 68.7109L38.0352 68.2617L26.6094 68.2227C20.3203 68.2031 14.8906 68.2617 14.5195 68.3594Z" fill="black" fill-opacity="0.5"/>
<path d="M24.3047 80.0391C23.6015 80.2539 22.4883 81.25 22.1953 81.9531C21.5508 83.5156 22.1562 85.4102 23.5625 86.2305L24.4023 86.7188H31.082C38.5234 86.7188 38.6015 86.6992 39.6562 85.4297C41.0625 83.7109 40.4765 81.1719 38.4453 80.2539C37.7226 79.9219 37.0781 79.9023 31.1992 79.9023C27.664 79.9219 24.5586 79.9805 24.3047 80.0391Z" fill="black" fill-opacity="0.5"/>
</g>
<defs>
<clipPath id="clip0_47_3311">
<rect width="100" height="100" fill="white"/>
</clipPath>
</defs>
</svg>
