
<?xml version="1.0" encoding="utf-8"?>

<svg version="1.1" id="Layer_1" xmlns="http://www.w3.org/2000/svg" xmlns:xlink="http://www.w3.org/1999/xlink" x="0px" y="0px"
	 viewBox="0 0 15 15" style="enable-background:new 0 0 15 15;" xml:space="preserve">
<style type="text/css">
	.st0{fill:currentColor;}
</style>
<g>
	<path class="st0" d="M13.3,4C12.4,2.5,11,1.5,9.4,1C7.8,0.5,6,0.7,4.5,1.4C3.4,2,2.6,2.7,1.9,3.7l-0.2-1C1.7,2.4,1.4,2.2,1.1,2.3
		C0.9,2.4,0.7,2.6,0.7,2.9l0.4,2.2c0,0,0,0,0,0l0,0L1.4,6l3.1-0.6c0.3-0.1,0.4-0.3,0.4-0.6C4.8,4.5,4.5,4.3,4.3,4.4L2.4,4.8
		c0.6-1,1.4-1.9,2.5-2.4c1.3-0.6,2.8-0.8,4.2-0.4c1.4,0.4,2.6,1.3,3.3,2.6c0.8,1.2,1,2.7,0.7,4.1c-0.3,1.4-1.1,2.7-2.3,3.5
		c-1.2,0.9-2.6,1.2-4.1,1.1c-1.4-0.2-2.8-0.9-3.7-2c-0.9-1.1-1.4-2.5-1.4-4l-1,0C0.7,9,1.2,10.6,2.4,11.9C3.5,13.2,5,14,6.7,14.2
		c0.3,0,0.5,0,0.8,0c1.4,0,2.8-0.4,4-1.3c1.4-1,2.3-2.5,2.7-4.1C14.5,7.2,14.2,5.5,13.3,4z"/>
	<path class="st0" d="M7.5,3.9C7.2,3.9,7,4.1,7,4.4v3.3l2.2,2.2c0.1,0.1,0.2,0.1,0.4,0.1s0.3,0,0.4-0.1c0.2-0.2,0.2-0.5,0-0.7L8,7.3
		V4.4C8,4.1,7.8,3.9,7.5,3.9z"/>
</g>
</svg>
