
<svg viewBox="0 0 40 40" fill="none" xmlns="http://www.w3.org/2000/svg">
<path d="M14.7127 6.802L5 8.73166V33.3754L14.7404 31.4402L25.2873 33.198L35 31.2683V6.62463L25.2596 8.55981L14.7127 6.802ZM15.6055 8.73284L24.3945 10.1977V24.3067C23.6577 24.1585 22.9762 23.8247 22.3962 23.3219L21.2448 24.6499C22.134 25.4209 23.2351 25.9201 24.3945 26.0882V31.2672L15.6055 29.8023V8.73284ZM6.75781 10.1746L13.8477 8.766V13.9102C12.9753 14.0351 12.1402 14.3469 11.3994 14.8241L12.3511 16.302C12.8078 16.0081 13.3153 15.8019 13.8477 15.6942V29.8254L6.75781 31.234V10.1746ZM33.2422 29.8254L26.1523 31.234V10.1746L33.2422 8.766V29.8254Z" fill="currentColor"/>
<path d="M17.2835 14.4028L16.5523 16.0013C17.4442 16.4093 18.1835 17.1145 18.6341 17.9869L20.1959 17.1802C19.5657 15.96 18.5314 14.9736 17.2835 14.4028ZM8.57422 20H10.332C10.332 19.0037 10.6569 18.0644 11.2717 17.2838L9.8907 16.1963C9.02943 17.2899 8.57422 18.6052 8.57422 20ZM27.0073 25.9044C28.322 25.5188 29.4863 24.6894 30.2854 23.5688L28.8542 22.5482C28.2828 23.3495 27.4512 23.9424 26.5126 24.2176L27.0073 25.9044ZM31.4258 20.0001V18.2422H29.668V19.9999C29.6683 20.419 29.6088 20.836 29.4913 21.2383L31.1782 21.7325C31.3427 21.1698 31.4261 20.5864 31.4258 20.0001ZM20.8789 20.0001C20.8789 19.7077 20.8582 19.4135 20.8172 19.1258L19.077 19.3737C19.1063 19.5795 19.1212 19.7902 19.1211 20C19.1211 21.0818 19.4061 22.146 19.9452 23.0777L21.4666 22.1973C21.0822 21.5328 20.8789 20.773 20.8789 20.0001Z" fill="currentColor"/>
</svg>
