
<svg viewBox="0 0 40 41" fill="none" xmlns="http://www.w3.org/2000/svg">
<path d="M10.5502 32.5807C10.4222 32.5807 10.2993 32.53 10.2086 32.4396C10.1179 32.3493 10.0667 32.2267 10.0662 32.0987V29.7666C10.0662 29.6382 10.1172 29.5151 10.2079 29.4244C10.2987 29.3336 10.4218 29.2826 10.5502 29.2826C10.6785 29.2826 10.8017 29.3336 10.8924 29.4244C10.9832 29.5151 11.0342 29.6382 11.0342 29.7666V32.0987C11.0342 32.2271 10.9832 32.3502 10.8924 32.4409C10.8017 32.5317 10.6785 32.5827 10.5502 32.5827V32.5807Z" fill="currentColor" stroke="currentColor" stroke-width="0.4"/>
<path d="M20.7385 33.293H5.48402C5.42045 33.293 5.35752 33.2804 5.29879 33.2561C5.24007 33.2318 5.18671 33.1961 5.14177 33.1512C5.09682 33.1062 5.06117 33.0529 5.03684 32.9942C5.01252 32.9354 5 32.8725 5 32.8089V28.0688C5 23.7046 7.67609 19.8005 11.6602 18.3524C11.7408 18.3229 11.8278 18.3154 11.9123 18.3309C11.9967 18.3464 12.0754 18.3842 12.1402 18.4404C13.2403 19.3805 14.6263 19.9005 16.0444 19.9005C17.4704 19.9005 18.8625 19.3785 19.9605 18.4304C20.0259 18.3744 20.1049 18.3367 20.1896 18.3213C20.2743 18.3058 20.3616 18.3131 20.4425 18.3424C21.4706 18.7165 22.4306 19.2625 23.2926 19.9625C23.3512 20.0094 23.398 20.0693 23.4293 20.1374C23.4607 20.2056 23.4757 20.2801 23.4731 20.355C23.4706 20.43 23.4506 20.5033 23.4148 20.5692C23.3789 20.6351 23.3282 20.6917 23.2666 20.7345L23.2066 20.7745L22.9406 20.3945L22.6806 20.7125C21.9831 20.1443 21.2036 19.6851 20.3685 19.3505C19.1305 20.3305 17.6084 20.8685 16.0444 20.8685C14.4797 20.8638 12.9622 20.3326 11.7362 19.3605C8.27611 20.7405 5.96803 24.2046 5.96803 28.0688V32.3249H20.7385V33.293Z" fill="currentColor" stroke="currentColor" stroke-width="0.4"/>
<path d="M16.0442 20.8665C12.1081 20.8665 8.90601 17.5324 8.90601 13.4343C8.90601 9.33411 12.1061 6 16.0442 6C19.9804 6 23.1805 9.33411 23.1805 13.4323C23.1805 17.5324 19.9784 20.8665 16.0402 20.8665H16.0442ZM16.0442 6.96603C12.6421 6.96603 9.87404 9.86813 9.87404 13.4323C9.87404 17.0004 12.6421 19.9005 16.0442 19.9005C19.4444 19.9005 22.2145 17.0004 22.2145 13.4343C22.2145 9.87013 19.4464 6.97003 16.0442 6.97003V6.96603Z" fill="currentColor" stroke="currentColor" stroke-width="0.4"/>
<path d="M26.5809 30.867C26.0284 30.8642 25.4849 30.726 24.9981 30.4645C24.5114 30.203 24.0961 29.8261 23.7888 29.3669C23.273 28.6143 23.074 27.6889 23.2348 26.7908C23.3962 25.8938 23.9069 25.0975 24.6548 24.5767C25.4089 24.0467 26.3149 23.8467 27.2029 24.0087C28.093 24.1747 28.867 24.6867 29.387 25.4528L29.391 25.4588C29.905 26.2348 30.101 27.1488 29.943 28.0289C29.7816 28.9259 29.2709 29.7222 28.523 30.2429C27.9561 30.6461 27.2785 30.864 26.5829 30.867H26.5809ZM26.6009 24.9207C26.1109 24.9207 25.6309 25.0728 25.2129 25.3688C24.6688 25.7488 24.3068 26.3168 24.1908 26.9628C24.0748 27.6088 24.2168 28.2709 24.5928 28.8229C24.9669 29.3749 25.5229 29.7429 26.1529 29.8609C26.7829 29.9769 27.4289 29.8329 27.971 29.4509C28.2378 29.2657 28.4653 29.0295 28.6404 28.7559C28.8155 28.4823 28.9346 28.1767 28.991 27.8569C29.1012 27.2067 28.9565 26.539 28.587 25.9928C28.3684 25.6657 28.0732 25.397 27.7271 25.2102C27.3809 25.0233 26.9943 24.9239 26.6009 24.9207Z" fill="currentColor" stroke="currentColor" stroke-width="0.3"/>
<path d="M26.7046 35.9991C26.6421 35.9987 26.5799 35.9927 26.5186 35.9811L23.6825 35.455C23.5545 35.4317 23.4325 35.3833 23.3233 35.3126C23.2142 35.2418 23.1202 35.1501 23.0468 35.0428C22.9733 34.9355 22.9218 34.8147 22.8953 34.6874C22.8688 34.56 22.8679 34.4287 22.8924 34.301L23.1184 33.041C23.0877 33.0213 23.0577 33.0007 23.0284 32.979L22.9924 32.955L21.9464 33.691C21.8453 33.7651 21.7303 33.8179 21.6083 33.8465C21.4863 33.875 21.3598 33.8786 21.2364 33.857C21.1047 33.8353 20.9788 33.7871 20.8664 33.7152C20.754 33.6433 20.6573 33.5494 20.5824 33.439L18.9483 31.0349C18.8758 30.9327 18.8243 30.8172 18.7969 30.6949C18.7694 30.5727 18.7665 30.4462 18.7883 30.3229C18.8096 30.1928 18.8564 30.0681 18.9261 29.9562C18.9958 29.8443 19.0869 29.7473 19.1943 29.6708L20.2203 28.9308C20.2083 28.8751 20.1976 28.8191 20.1883 28.7628L18.9523 28.5328C18.8239 28.5088 18.7017 28.4589 18.5932 28.3861C18.4846 28.3134 18.392 28.2194 18.3209 28.1098C18.2499 28.0002 18.2018 27.8772 18.1797 27.7485C18.1576 27.6197 18.1619 27.4878 18.1923 27.3608L18.7083 24.5007C18.7295 24.372 18.7762 24.2488 18.8458 24.1384C18.9154 24.0281 19.0063 23.9328 19.1134 23.8582C19.2204 23.7836 19.3413 23.7313 19.4689 23.7042C19.5965 23.6771 19.7282 23.6759 19.8563 23.7006L21.0824 23.9287L21.1424 23.8427L21.1724 23.7926L20.4423 22.7186C20.37 22.6164 20.3186 22.5008 20.2911 22.3786C20.2636 22.2564 20.2607 22.13 20.2823 22.0066C20.3037 21.8765 20.3506 21.7519 20.4203 21.64C20.4899 21.5281 20.581 21.4311 20.6884 21.3546L23.0564 19.6905C23.1579 19.6171 23.2729 19.5647 23.3948 19.5362C23.5167 19.5077 23.643 19.5037 23.7665 19.5245C23.8978 19.5465 24.0233 19.5948 24.1353 19.6667C24.2474 19.7385 24.3437 19.8324 24.4185 19.9425L25.1465 21.0106L25.1865 20.9986C25.2194 20.99 25.2528 20.9833 25.2865 20.9786L25.5145 19.7165C25.5357 19.5878 25.5824 19.4646 25.652 19.3543C25.7216 19.2439 25.8126 19.1486 25.9196 19.0741C26.0266 18.9995 26.1475 18.9471 26.2751 18.92C26.4027 18.893 26.5345 18.8918 26.6626 18.9165L29.4827 19.4385C30.0267 19.5385 30.3727 20.0465 30.2747 20.5925L30.0487 21.8526C30.0807 21.8726 30.1087 21.8946 30.1387 21.9166L30.1747 21.9406L31.2207 21.2046C31.322 21.131 31.4371 21.0784 31.559 21.0499C31.6809 21.0214 31.8073 21.0175 31.9307 21.0386C32.0624 21.0602 32.1883 21.1085 32.3007 21.1804C32.4131 21.2522 32.5098 21.3462 32.5848 21.4566L34.2048 23.8587C34.2779 23.9602 34.3299 24.0753 34.3577 24.1973C34.3855 24.3192 34.3886 24.4455 34.3668 24.5687C34.3455 24.6993 34.2984 24.8243 34.2284 24.9366C34.1583 25.0488 34.0667 25.1461 33.9588 25.2227L32.9028 25.9627C32.9094 25.9984 32.9174 26.0337 32.9268 26.0687L32.9368 26.1247L34.1728 26.3547C34.4301 26.4098 34.6571 26.5598 34.8087 26.7748C34.9603 26.9898 35.0253 27.254 34.9908 27.5148L34.4708 30.3969C34.4491 30.5263 34.4019 30.65 34.3318 30.7609C34.2617 30.8718 34.1703 30.9677 34.0628 31.0429C33.9557 31.1161 33.8352 31.1674 33.7082 31.1938C33.5812 31.2202 33.4502 31.2213 33.3228 31.1969L32.0968 30.9689C32.0777 30.9989 32.0577 31.0282 32.0367 31.0569L32.0087 31.1049L32.7388 32.1789C32.8113 32.2811 32.8627 32.3967 32.8902 32.5189C32.9177 32.6411 32.9206 32.7676 32.8988 32.891C32.8775 33.0216 32.8305 33.1467 32.7605 33.259C32.6904 33.3712 32.5987 33.4685 32.4908 33.545L30.1247 35.207C30.0237 35.2813 29.9087 35.3344 29.7868 35.3632C29.6648 35.3921 29.5382 35.3961 29.4147 35.375C29.2831 35.353 29.1574 35.3046 29.045 35.2328C28.9326 35.161 28.8359 35.0672 28.7606 34.957L28.0386 33.893C28.008 33.8999 27.9773 33.9066 27.9466 33.913C27.9266 33.913 27.9106 33.917 27.8926 33.921L27.6666 35.181C27.6287 35.4089 27.5113 35.6159 27.3351 35.7654C27.159 35.9148 26.9355 35.9989 26.7046 35.9991ZM22.9964 31.8769C23.1164 31.8769 23.2324 31.9189 23.3244 32.0049C23.3744 32.0509 23.4305 32.0849 23.4885 32.1229L23.5985 32.1969C23.6795 32.2555 23.7667 32.3052 23.8585 32.3449C24.0585 32.4389 24.1705 32.653 24.1325 32.871L23.8445 34.471L26.6946 35.031L27.0026 33.407C27.0191 33.3151 27.0619 33.2299 27.1258 33.1618C27.1897 33.0936 27.2719 33.0454 27.3626 33.023C27.4626 32.999 27.5626 32.985 27.6546 32.975L27.7706 32.959C27.8306 32.947 27.9706 32.919 28.0626 32.885C28.1649 32.8439 28.2781 32.8389 28.3836 32.8709C28.4891 32.9029 28.5804 32.97 28.6426 33.061L29.5627 34.411L31.9347 32.751L31.0187 31.3709C30.9582 31.2816 30.9293 31.1746 30.9366 31.067C30.9438 30.9594 30.9868 30.8573 31.0587 30.7769C31.1047 30.7269 31.1387 30.6689 31.1747 30.6109L31.2467 30.4989C31.306 30.4151 31.3563 30.3252 31.3967 30.2309C31.441 30.1322 31.5171 30.0512 31.6128 30.0008C31.7085 29.9504 31.8183 29.9335 31.9247 29.9529L33.5008 30.2449L34.0308 27.3868C34.0248 27.3368 34.0048 27.3068 33.9948 27.3068L32.4208 27.0148C32.3284 26.9974 32.2432 26.9536 32.1753 26.8886C32.1075 26.8236 32.06 26.7402 32.0387 26.6487C32.0147 26.5487 32.0027 26.4507 31.9907 26.3567L31.9767 26.2567C31.9639 26.2051 31.9525 26.1531 31.9427 26.1007C31.9307 26.0447 31.9227 25.9867 31.9027 25.9367C31.8626 25.8358 31.8575 25.7244 31.8884 25.6203C31.9192 25.5162 31.9841 25.4254 32.0727 25.3627L33.4008 24.4307L31.7827 21.9986L30.4487 22.9306C30.3581 22.9946 30.2483 23.0256 30.1376 23.0183C30.0269 23.011 29.9221 22.9659 29.8407 22.8906C29.7927 22.8446 29.7347 22.8106 29.6807 22.7706L29.5687 22.6986C29.4878 22.6392 29.4006 22.5889 29.3087 22.5486C29.2115 22.5038 29.1319 22.4281 29.0823 22.3333C29.0327 22.2385 29.016 22.1299 29.0346 22.0246L29.3227 20.4225L26.4846 19.8685L26.1785 21.4886C26.1623 21.5809 26.1197 21.6665 26.0558 21.735C25.9919 21.8035 25.9095 21.852 25.8185 21.8746C25.7224 21.8971 25.6248 21.9131 25.5265 21.9226L25.4305 21.9366C25.3795 21.9499 25.3281 21.9619 25.2765 21.9726C25.2225 21.9846 25.1685 21.9926 25.1205 22.0126C25.0178 22.0551 24.9035 22.0608 24.7971 22.0287C24.6907 21.9966 24.5986 21.9288 24.5365 21.8366L23.6185 20.4865L21.2464 22.1466L22.1624 23.5266C22.2229 23.616 22.2518 23.7229 22.2445 23.8305C22.2373 23.9381 22.1943 24.0403 22.1224 24.1207C22.0764 24.1707 22.0424 24.2287 22.0064 24.2847L21.9344 24.3987C21.8751 24.4825 21.8248 24.5723 21.7844 24.6667C21.7401 24.7654 21.664 24.8463 21.5683 24.8967C21.4726 24.9471 21.3628 24.964 21.2564 24.9447L19.6803 24.6527L19.1423 27.5548L20.7064 27.8748C20.7976 27.892 20.8819 27.9352 20.9492 27.999C21.0166 28.0628 21.0642 28.1447 21.0864 28.2348C21.1124 28.3368 21.1264 28.4348 21.1364 28.5308L21.1524 28.6508C21.1624 28.7068 21.1884 28.8548 21.2264 28.9508C21.3064 29.1568 21.2364 29.3908 21.0584 29.5188L19.7583 30.4589L21.3824 32.895L22.7184 31.9629C22.8002 31.9067 22.8972 31.8767 22.9964 31.8769Z" fill="currentColor" stroke="currentColor" stroke-width="0.3"/>
</svg>
