<svg xmlns="http://www.w3.org/2000/svg" width="448" height="112" fill="none"><path fill="#6B7280" d="M212.658 109.793 4.731 12.801c-1.499-.693-2.689-1.518-3.5-2.428C.417 9.464 0 8.49 0 7.504c0-.985.418-1.96 1.23-2.87.812-.908 2.002-1.734 3.501-2.427C6.218 1.507 7.987.953 9.936.574A32.5 32.5 0 0 1 16.087 0c2.111 0 4.202.195 6.151.574 1.95.379 3.718.934 5.205 1.633l196.571 91.769 196.57-91.77C423.596.803 427.681.014 431.94.014c2.109 0 4.198.194 6.146.57 1.948.376 3.719.928 5.21 1.624 1.491.696 2.674 1.521 3.482 2.43.807.91 1.222 1.883 1.222 2.867 0 1.987-1.692 3.893-4.704 5.297L235.37 109.793c-1.487.699-3.256 1.254-5.205 1.633-1.949.379-4.04.574-6.151.574-2.112 0-4.202-.195-6.151-.574-1.949-.379-3.718-.934-5.205-1.633Z"/></svg>