<svg xmlns="http://www.w3.org/2000/svg" viewBox="0 0 448 512" fill="none"><path fill="#37352F" d="M336 0H144c-33.856 0-64 31.056-64 64l-18.496.432C27.664 64.432 0 95.056 0 128v320c0 32.945 30.144 64 64 64h240c33.856 0 64-31.055 64-64h16c33.856 0 64-31.055 64-63.999V128.384L336 0Zm-32 480.001H64c-16.8 0-32-15.695-32-32.001V128c0-16.304 13.68-31.472 30.48-31.472L80 96v288.001C80 416.945 110.144 448 144 448h192c0 16.305-15.2 32.001-32 32.001Zm112.001-96C416.001 400.304 400.8 416 384 416H144c-16.8 0-32-15.696-32-31.999v-320c0-16.304 15.2-32 32-32h160c-.256 36.848 0 64.4 0 64.4 0 33.248 29.92 63.6 64 63.6h48.001v224ZM368 128c-17.039 0-32-30.96-32-47.568V32.464L416.001 128H368Zm-32 96.289H192c-8.832 0-16 7.152-16 15.983 0 8.832 7.168 15.984 16 15.984h144c8.832 0 16-7.152 16-15.984 0-8.831-7.168-15.983-16-15.983Zm0 79.919H192c-8.832 0-16 7.152-16 15.983 0 8.833 7.168 15.985 16 15.985h144c8.832 0 16-7.152 16-15.985 0-8.831-7.168-15.983-16-15.983Z"/></svg>