<svg xmlns="http://www.w3.org/2000/svg" width="513" height="513" fill="none"><path fill="#37352F" d="M437.021 74.98a256.002 256.002 0 1 0-362.04 362.042A256.002 256.002 0 0 0 437.02 74.981Zm-181.02 405.021c-123.514 0-224-100.486-224-224s100.486-224 224-224 224 100.486 224 224-100.486 224-224 224Zm112.634-275.973a16.002 16.002 0 0 1 0 22.627l-101.321 101.32a16.002 16.002 0 0 1-22.626 0l-101.32-101.32a15.998 15.998 0 0 1 .068-22.559 15.998 15.998 0 0 1 22.559-.068l90.006 90.006 90.007-90.006a15.996 15.996 0 0 1 22.627 0Z"/></svg>