
<svg viewBox="0 0 157 64" fill="none" xmlns="http://www.w3.org/2000/svg">
<path d="M0.000639747 13L0 50.6583C0.113784 58.0364 11.9355 64 26.5 64C41.0644 64 52.8855 58.0364 52.9993 50.6583L53 13C52.8862 20.3782 41.0644 26.3418 26.5 26.3418C11.9355 26.3418 0.114424 20.3782 0.000639747 13Z" fill="url(#paint0_linear_1378_140464)"/>
<path fill-rule="evenodd" clip-rule="evenodd" d="M26.5 27C41.1355 27 53 20.9558 53 13.4999C53 6.04415 41.1355 0 26.5 0C11.8645 0 0 6.04415 0 13.4999C0 20.9558 11.8645 27 26.5 27ZM26.6059 20.412C33.9237 20.412 39.856 17.3899 39.856 13.6619C39.856 9.93407 33.9237 6.91199 26.6059 6.91199C19.2882 6.91199 13.356 9.93407 13.356 13.6619C13.356 17.3899 19.2882 20.412 26.6059 20.412Z" fill="#8D6AF1"/>
<path d="M17.928 45.1974V54.8814C17.9279 55.0059 17.8955 55.1282 17.8341 55.2361C17.7726 55.344 17.6842 55.4337 17.5778 55.4962C17.4713 55.5587 17.3505 55.5918 17.2274 55.5922C17.1043 55.5927 16.9832 55.5604 16.8763 55.4986L9.42462 51.1914C9.31706 51.1292 9.2276 51.0394 9.16541 50.931C9.10313 50.8227 9.0704 50.6996 9.07031 50.5742V29.6369C9.07031 29.5107 9.10359 29.3868 9.16659 29.2778C9.2296 29.1689 9.32015 29.0789 9.42898 29.017C9.53772 28.9552 9.66082 28.9239 9.78565 28.926C9.91038 28.9282 10.0323 28.964 10.1389 29.0297L25.8978 38.7114C26.0067 38.7785 26.1316 38.8143 26.2592 38.8151C26.3867 38.8159 26.5121 38.7815 26.6218 38.7157L42.8067 29.0097C42.9134 28.9457 43.035 28.9114 43.1591 28.9103C43.2832 28.9092 43.4053 28.9414 43.5131 29.0035C43.6209 29.0656 43.7106 29.1555 43.7729 29.264C43.8353 29.3725 43.8681 29.4957 43.8682 29.6213V50.983C43.8682 51.1129 43.8331 51.2402 43.7667 51.3512C43.7003 51.4623 43.605 51.5529 43.4914 51.6131L36.0397 55.5612C35.9325 55.618 35.8127 55.6458 35.6919 55.6421C35.571 55.6382 35.453 55.603 35.3496 55.5396C35.246 55.4763 35.1605 55.387 35.1011 55.2804C35.0417 55.1738 35.0106 55.0535 35.0106 54.9312V45.1662C35.0106 45.0418 34.9783 44.9197 34.9171 44.8119C34.8558 44.704 34.7677 44.6144 34.6615 44.5517C34.5553 44.4892 34.4347 44.4558 34.3119 44.4551C34.1889 44.4544 34.0679 44.4862 33.961 44.5475L26.6134 48.7566C26.5055 48.8185 26.3834 48.8504 26.2595 48.8491C26.1356 48.8478 26.0141 48.8135 25.9076 48.7495L18.9902 44.5859C18.8834 44.5217 18.7618 44.4873 18.6376 44.4861C18.5134 44.4849 18.3911 44.517 18.2832 44.5791C18.1753 44.6413 18.0855 44.7312 18.0232 44.8399C17.9607 44.9484 17.9279 45.0719 17.928 45.1974Z" fill="white"/>
<path d="M67.4881 27.1617C66.2016 27.1617 65.0206 26.8558 63.9451 26.2458C62.8838 25.6497 62.0001 24.7764 61.3862 23.717C60.7563 22.629 60.4414 21.4009 60.4414 20.0335C60.4414 18.6795 60.7563 17.4649 61.3862 16.3897C61.9955 15.3217 62.8799 14.4408 63.9451 13.8411C65.0206 13.2303 66.2016 12.9252 67.4881 12.9252C68.7872 12.9252 69.9683 13.231 71.0312 13.8411C72.0936 14.4378 72.9723 15.3197 73.5704 16.3897C74.2002 17.4649 74.5152 18.6795 74.5152 20.0335C74.5152 21.4009 74.2002 22.629 73.5704 23.717C72.9678 24.7784 72.0897 25.6528 71.0312 26.2458C69.9556 26.8566 68.7746 27.1617 67.4881 27.1617ZM67.4881 24.6727C68.3148 24.6727 69.0431 24.4872 69.673 24.1152C70.3029 23.7306 70.795 23.1858 71.1493 22.4825C71.5036 21.7786 71.6807 20.9629 71.6807 20.0335C71.6807 19.1041 71.5036 18.2948 71.1493 17.6043C70.795 16.9003 70.3029 16.3635 69.673 15.9915C69.0431 15.6196 68.3148 15.434 67.4881 15.434C66.6614 15.434 65.9268 15.6196 65.2835 15.9915C64.6537 16.3635 64.1616 16.9011 63.8073 17.6043C63.453 18.2941 63.2758 19.1048 63.2758 20.0335C63.2758 20.9629 63.453 21.7792 63.8073 22.4825C64.1616 23.1865 64.6537 23.7306 65.2835 24.1152C65.9268 24.4872 66.6614 24.6727 67.4881 24.6727ZM79.3212 17.5844C79.6749 17.0795 80.1613 16.6621 80.7777 16.33C81.4069 15.9851 82.1233 15.8123 82.9233 15.8123C83.8552 15.8123 84.6944 16.0448 85.4427 16.5092C86.2036 16.9735 86.801 17.6378 87.2337 18.5003C87.6801 19.3501 87.9029 20.3385 87.9029 21.4671C87.9029 22.5956 87.6801 23.5975 87.2337 24.4736C86.801 25.3362 86.2036 26.0068 85.4427 26.4847C84.6944 26.9626 83.8552 27.2015 82.9233 27.2015C82.1233 27.2015 81.4141 27.0358 80.7968 26.7037C80.194 26.3716 79.7022 25.9535 79.3212 25.4493V32.2788H76.5651V15.9915H79.3212V17.5844ZM85.0881 21.4671C85.0881 20.8036 84.9499 20.2326 84.6744 19.7547C84.4126 19.2641 84.058 18.8921 83.6116 18.6397C83.1815 18.3881 82.6915 18.2575 82.1942 18.2614C81.696 18.2614 81.2241 18.3944 80.7777 18.6596C80.344 18.9121 79.9904 19.2833 79.7149 19.7746C79.4521 20.2653 79.3212 20.8434 79.3212 21.5069C79.3212 22.1703 79.4521 22.7477 79.7149 23.2392C79.9904 23.7298 80.344 24.1089 80.7777 24.3741C81.2096 24.6225 81.6978 24.7528 82.1942 24.7524C82.7061 24.7524 83.1788 24.6195 83.6116 24.3542C84.0634 24.0831 84.4317 23.6901 84.6744 23.2192C84.9499 22.7286 85.0881 22.1441 85.0881 21.4671ZM100.043 21.268C100.043 21.6662 100.017 22.0246 99.9639 22.3432H91.9923C92.0578 23.1396 92.3333 23.7633 92.8187 24.2148C93.3042 24.6664 93.9016 24.8918 94.6098 24.8918C95.6335 24.8918 96.3618 24.4473 96.7945 23.5577H99.7675C99.452 24.6195 98.8484 25.4955 97.9565 26.186C97.0646 26.863 95.9681 27.2015 94.6689 27.2015C93.6197 27.2015 92.6751 26.9689 91.835 26.5046C91.0122 26.0313 90.3376 25.3347 89.8858 24.4935C89.4266 23.631 89.1975 22.6355 89.1975 21.5069C89.1975 20.3655 89.4266 19.3629 89.8858 18.5003C90.3231 17.6603 90.994 16.9682 91.815 16.5092C92.6415 16.0448 93.5924 15.8123 94.6689 15.8123C95.7063 15.8123 96.6309 16.0377 97.4446 16.4893C98.2574 16.9263 98.922 17.5988 99.3539 18.4206C99.813 19.2434 100.043 20.1928 100.043 21.268ZM97.1882 20.4716C97.1755 19.7547 96.9191 19.1844 96.4209 18.7591C95.9227 18.3211 95.3126 18.1021 94.5907 18.1021C93.9079 18.1021 93.3306 18.3147 92.8578 18.7392C92.3996 19.151 92.1169 19.7277 92.0114 20.4716H97.1882ZM108.097 15.8322C109.396 15.8322 110.447 16.2504 111.247 17.0866C112.047 17.9094 112.447 19.0642 112.447 20.5512V27.0223H109.691V20.9295C109.691 20.0534 109.475 19.3828 109.042 18.9184C108.608 18.4406 108.018 18.2016 107.27 18.2016C106.51 18.2016 105.905 18.4406 105.459 18.9184C105.026 19.3828 104.81 20.0534 104.81 20.9295V27.0223H102.054V15.9915H104.81V17.3654C105.18 16.8854 105.66 16.5029 106.207 16.2504C106.798 15.9687 107.444 15.8258 108.097 15.8322Z" fill="#8D6AF1"/>
<path d="M76.0925 38.7243V52.6223H73.3368V43.5826L69.6559 52.6223H67.5695L63.869 43.5826V52.6223H61.1133V38.7243H64.243L68.6127 49.0582L72.9825 38.7243H76.0925ZM88.9547 46.868C88.9547 47.2662 88.9274 47.6246 88.8756 47.9432H80.904C80.9695 48.7396 81.2449 49.3633 81.7304 49.8148C82.2159 50.2664 82.8132 50.4918 83.5215 50.4918C84.5452 50.4918 85.2735 50.0474 85.7062 49.1578H88.6792C88.3637 50.2195 87.76 51.0956 86.8681 51.7861C85.9753 52.4631 84.8798 52.8015 83.5806 52.8015C82.5305 52.8015 81.5859 52.569 80.7467 52.1047C79.9239 51.6313 79.2493 50.9347 78.7976 50.0936C78.3379 49.231 78.1087 48.2355 78.1087 47.1069C78.1087 45.9656 78.3379 44.9629 78.7976 44.1003C79.2348 43.2603 79.9048 42.5682 80.7267 42.1092C81.5531 41.6448 82.5041 41.4124 83.5806 41.4124C84.617 41.4124 85.5417 41.6378 86.3563 42.0893C87.1682 42.5264 87.8337 43.1989 88.2655 44.0207C88.7247 44.8435 88.9547 45.7928 88.9547 46.868ZM86.0999 46.0716C86.0872 45.3547 85.8308 44.7845 85.3326 44.3592C84.8334 43.9211 84.2234 43.7021 83.5024 43.7021C82.8196 43.7021 82.2423 43.9148 81.7695 44.3393C81.3104 44.751 81.0285 45.3277 80.9231 46.0716H86.0999ZM94.1742 43.8813V49.2175C94.1742 49.5894 94.2588 49.8611 94.4297 50.0338C94.6134 50.1931 94.9161 50.2728 95.3352 50.2728H96.6144V52.6223H94.8825C92.5595 52.6223 91.3985 51.481 91.3985 49.1976V43.8813H90.0993V41.5916H91.3985V38.8637H94.1742V41.5916H96.6144V43.8813H94.1742ZM97.8882 47.0671C97.8882 45.9521 98.1046 44.9629 98.5373 44.1003C98.9837 43.2378 99.5811 42.5736 100.328 42.1092C101.09 41.6448 101.937 41.4124 102.868 41.4124C103.682 41.4124 104.391 41.578 104.993 41.9101C105.611 42.2423 106.103 42.6604 106.47 43.1645V41.5916H109.246V52.6223H106.47V51.0095C106.115 51.5272 105.623 51.9588 104.993 52.3038C104.377 52.6358 103.662 52.8015 102.849 52.8015C101.959 52.8095 101.084 52.5609 100.328 52.0847C99.5811 51.6069 98.9837 50.9363 98.5373 50.0737C98.1046 49.1976 97.8882 48.1957 97.8882 47.0671ZM106.47 47.1069C106.47 46.43 106.339 45.8526 106.076 45.3746C105.814 44.884 105.46 44.5121 105.013 44.2596C104.579 43.9974 104.082 43.8597 103.577 43.8614C103.065 43.8614 102.592 43.9873 102.159 44.2397C101.726 44.4922 101.372 44.8634 101.097 45.3547C100.834 45.8327 100.703 46.4036 100.703 47.0671C100.703 47.7305 100.834 48.3151 101.097 48.8193C101.372 49.31 101.726 49.689 102.159 49.9542C102.606 50.2195 103.078 50.3524 103.577 50.3524C104.089 50.3524 104.568 50.2266 105.013 49.9741C105.462 49.7071 105.829 49.3216 106.076 48.8591C106.339 48.3684 106.47 47.7839 106.47 47.1069ZM111.228 47.0671C111.228 45.9521 111.445 44.9629 111.878 44.1003C112.325 43.2378 112.928 42.5736 113.689 42.1092C114.451 41.6448 115.297 41.4124 116.228 41.4124C116.937 41.4124 117.613 41.5717 118.255 41.8902C118.899 42.196 119.411 42.607 119.791 43.1247V37.8881H122.586V52.6223H119.791V50.9896C119.45 51.5336 118.971 51.9716 118.354 52.3038C117.737 52.6358 117.022 52.8015 116.209 52.8015C115.319 52.8096 114.444 52.561 113.689 52.0847C112.928 51.6069 112.325 50.9363 111.878 50.0737C111.445 49.1976 111.228 48.1957 111.228 47.0671ZM119.811 47.1069C119.811 46.43 119.679 45.8526 119.417 45.3746C119.155 44.884 118.8 44.5121 118.354 44.2596C117.92 43.9975 117.423 43.8599 116.917 43.8614C116.405 43.8614 115.932 43.9873 115.5 44.2397C115.067 44.4922 114.712 44.8634 114.437 45.3547C114.175 45.8327 114.043 46.4036 114.043 47.0671C114.043 47.7305 114.175 48.3151 114.437 48.8193C114.712 49.31 115.067 49.689 115.5 49.9542C115.946 50.2195 116.419 50.3524 116.917 50.3524C117.429 50.3524 117.907 50.2266 118.354 49.9741C118.802 49.7071 119.169 49.3216 119.417 48.8591C119.679 48.3684 119.811 47.7839 119.811 47.1069ZM124.569 47.0671C124.569 45.9521 124.785 44.9629 125.218 44.1003C125.664 43.2378 126.262 42.5736 127.009 42.1092C127.771 41.6448 128.617 41.4124 129.548 41.4124C130.363 41.4124 131.071 41.578 131.674 41.9101C132.291 42.2423 132.784 42.6604 133.15 43.1645V41.5916H135.926V52.6223H133.15V51.0095C132.796 51.5272 132.304 51.9588 131.674 52.3038C131.057 52.6358 130.343 52.8015 129.529 52.8015C128.639 52.8095 127.764 52.5609 127.009 52.0847C126.262 51.6069 125.664 50.9363 125.218 50.0737C124.785 49.1976 124.569 48.1957 124.569 47.0671ZM133.15 47.1069C133.15 46.43 133.019 45.8526 132.757 45.3746C132.495 44.884 132.14 44.5121 131.694 44.2596C131.259 43.9974 130.763 43.8597 130.257 43.8614C129.745 43.8614 129.273 43.9873 128.84 44.2397C128.406 44.4922 128.053 44.8634 127.777 45.3547C127.514 45.8327 127.383 46.4036 127.383 47.0671C127.383 47.7305 127.514 48.3151 127.777 48.8193C128.053 49.31 128.406 49.689 128.84 49.9542C129.286 50.2195 129.758 50.3524 130.257 50.3524C130.768 50.3524 131.248 50.2266 131.694 49.9741C132.142 49.7071 132.509 49.3216 132.757 48.8591C133.019 48.3684 133.15 47.7839 133.15 47.1069ZM141.826 43.8813V49.2175C141.826 49.5894 141.911 49.8611 142.082 50.0338C142.266 50.1931 142.568 50.2728 142.988 50.2728H144.267V52.6223H142.535C140.212 52.6223 139.051 51.481 139.051 49.1976V43.8813H137.752V41.5916H139.051V38.8637H141.826V41.5916H144.267V43.8813H141.826ZM145.54 47.0671C145.54 45.9521 145.757 44.9629 146.19 44.1003C146.636 43.2378 147.232 42.5736 147.981 42.1092C148.742 41.6448 149.588 41.4124 150.52 41.4124C151.334 41.4124 152.043 41.578 152.646 41.9101C153.263 42.2423 153.755 42.6604 154.122 43.1645V41.5916H156.897V52.6223H154.122V51.0095C153.768 51.5272 153.276 51.9588 152.646 52.3038C152.029 52.6358 151.315 52.8015 150.5 52.8015C149.61 52.8095 148.736 52.5609 147.981 52.0847C147.232 51.6069 146.636 50.9363 146.19 50.0737C145.757 49.1976 145.54 48.1957 145.54 47.0671ZM154.122 47.1069C154.122 46.43 153.991 45.8526 153.728 45.3746C153.466 44.884 153.112 44.5121 152.666 44.2596C152.231 43.9974 151.735 43.8597 151.228 43.8614C150.716 43.8614 150.245 43.9873 149.811 44.2397C149.378 44.4922 149.024 44.8634 148.748 45.3547C148.486 45.8327 148.354 46.4036 148.354 47.0671C148.354 47.7305 148.486 48.3151 148.748 48.8193C149.024 49.31 149.378 49.689 149.811 49.9542C150.257 50.2195 150.73 50.3524 151.228 50.3524C151.74 50.3524 152.219 50.2266 152.666 49.9741C153.113 49.7071 153.481 49.3216 153.728 48.8591C153.991 48.3684 154.122 47.7839 154.122 47.1069Z" fill="#7147E8"/>
<defs>
<linearGradient id="paint0_linear_1378_140464" x1="26.5" y1="18.8102" x2="26.5" y2="64" gradientUnits="userSpaceOnUse">
<stop stop-color="#35198E"/>
<stop offset="1" stop-color="#8D6AF1"/>
</linearGradient>
</defs>
</svg>
