<svg viewBox="0 0 15 15" fill="none" xmlns="http://www.w3.org/2000/svg">
<path d="M12.7708 14.1894H4.51516C4.13884 14.1894 3.77793 14.0399 3.51182 13.7738C3.24572 13.5077 3.09623 13.1467 3.09623 12.7704V12.5382C2.21589 12.3343 1.4306 11.8381 0.868336 11.1307C0.306074 10.4233 0 9.54626 0 8.64261C0 7.73895 0.306074 6.86194 0.868336 6.15451C1.4306 5.44708 2.21589 4.95095 3.09623 4.74699V1.41894C3.09623 1.04261 3.24572 0.681701 3.51182 0.415599C3.77793 0.149497 4.13884 2.42899e-06 4.51516 2.42899e-06H10.2786C10.4656 -0.000344227 10.6509 0.0364175 10.8236 0.108158C10.9963 0.179899 11.153 0.285194 11.2848 0.417943L13.7718 2.90495C13.9077 3.03972 14.0148 3.20067 14.0866 3.37805C14.1585 3.55544 14.1935 3.74556 14.1897 3.9369V12.7704C14.1897 13.1467 14.0402 13.5077 13.7741 13.7738C13.508 14.0399 13.1471 14.1894 12.7708 14.1894ZM3.87019 12.6414V12.7704C3.87019 12.9415 3.93814 13.1055 4.0591 13.2265C4.18005 13.3474 4.34411 13.4154 4.51516 13.4154H12.7708C12.9418 13.4154 13.1059 13.3474 13.2268 13.2265C13.3478 13.1055 13.4158 12.9415 13.4158 12.7704V4.3858H11.2229C10.8465 4.3858 10.4856 4.23631 10.2195 3.97021C9.95342 3.7041 9.80392 3.34319 9.80392 2.96687V0.773967H4.51516C4.34411 0.773967 4.18005 0.841919 4.0591 0.962875C3.93814 1.08383 3.87019 1.24788 3.87019 1.41894V4.64379H3.99919C5.05974 4.64379 6.07685 5.06509 6.82678 5.81502C7.5767 6.56494 7.998 7.58206 7.998 8.64261C7.998 9.70316 7.5767 10.7203 6.82678 11.4702C6.07685 12.2201 5.05974 12.6414 3.99919 12.6414H3.87019ZM3.99919 5.41776C3.36137 5.41776 2.73788 5.60689 2.20755 5.96124C1.67723 6.31559 1.26389 6.81925 1.01981 7.40851C0.775729 7.99777 0.711866 8.64618 0.836298 9.27174C0.96073 9.8973 1.26787 10.4719 1.71887 10.9229C2.16987 11.3739 2.74449 11.6811 3.37005 11.8055C3.99561 11.9299 4.64402 11.8661 5.23328 11.622C5.82255 11.3779 6.3262 10.9646 6.68055 10.4342C7.0349 9.90392 7.22404 9.28042 7.22404 8.64261C7.22404 7.78732 6.88428 6.96707 6.2795 6.36229C5.67472 5.75752 4.85447 5.41776 3.99919 5.41776ZM10.5779 0.846204V2.96687C10.5779 3.13792 10.6458 3.30197 10.7668 3.42293C10.8877 3.54389 11.0518 3.61184 11.2229 3.61184H13.3435C13.3116 3.55326 13.2716 3.49942 13.2248 3.45188L10.7378 0.964878C10.6903 0.918073 10.6365 0.87813 10.5779 0.846204ZM11.7388 10.5775H9.15895C9.05632 10.5775 8.95789 10.5367 8.88531 10.4642C8.81274 10.3916 8.77197 10.2932 8.77197 10.1905C8.77197 10.0879 8.81274 9.98947 8.88531 9.9169C8.95789 9.84433 9.05632 9.80355 9.15895 9.80355H11.7388C11.8415 9.80355 11.9399 9.84433 12.0125 9.9169C12.085 9.98947 12.1258 10.0879 12.1258 10.1905C12.1258 10.2932 12.085 10.3916 12.0125 10.4642C11.9399 10.5367 11.8415 10.5775 11.7388 10.5775ZM3.22522 9.80355C3.12567 9.79594 3.03306 9.74964 2.96723 9.67456C2.90377 9.60361 2.86869 9.51176 2.86869 9.41657C2.86869 9.32138 2.90377 9.22953 2.96723 9.15858L3.62768 8.49813V7.09468C3.62768 6.99204 3.66845 6.89361 3.74103 6.82104C3.8136 6.74847 3.91203 6.7077 4.01467 6.7077C4.1173 6.7077 4.21573 6.74847 4.2883 6.82104C4.36088 6.89361 4.40165 6.99204 4.40165 7.09468V8.64261C4.40156 8.74521 4.36073 8.84357 4.28813 8.91607L3.48321 9.67456C3.41739 9.74964 3.32478 9.79594 3.22522 9.80355ZM11.7388 8.51361H9.67493C9.57229 8.51361 9.47386 8.47284 9.40129 8.40027C9.32872 8.3277 9.28794 8.22927 9.28794 8.12663C9.28794 8.024 9.32872 7.92557 9.40129 7.85299C9.47386 7.78042 9.57229 7.73965 9.67493 7.73965H11.7388C11.8415 7.73965 11.9399 7.78042 12.0125 7.85299C12.085 7.92557 12.1258 8.024 12.1258 8.12663C12.1258 8.22927 12.085 8.3277 12.0125 8.40027C11.9399 8.47284 11.8415 8.51361 11.7388 8.51361ZM11.7388 6.44971H9.15895C9.05632 6.44971 8.95789 6.40894 8.88531 6.33636C8.81274 6.26379 8.77197 6.16536 8.77197 6.06273C8.77197 5.96009 8.81274 5.86166 8.88531 5.78909C8.95789 5.71651 9.05632 5.67574 9.15895 5.67574H11.7388C11.8415 5.67574 11.9399 5.71651 12.0125 5.78909C12.085 5.86166 12.1258 5.96009 12.1258 6.06273C12.1258 6.16536 12.085 6.26379 12.0125 6.33636C11.9399 6.40894 11.8415 6.44971 11.7388 6.44971ZM8.127 4.3858H6.57907C6.47643 4.3858 6.378 4.34503 6.30543 4.27246C6.23286 4.19988 6.19209 4.10145 6.19209 3.99882C6.19209 3.89619 6.23286 3.79776 6.30543 3.72518C6.378 3.65261 6.47643 3.61184 6.57907 3.61184H8.127C8.22963 3.61184 8.32806 3.65261 8.40064 3.72518C8.47321 3.79776 8.51398 3.89619 8.51398 3.99882C8.51398 4.10145 8.47321 4.19988 8.40064 4.27246C8.32806 4.34503 8.22963 4.3858 8.127 4.3858Z" fill="currentColor"/>
</svg>
