<svg width="16" height="16" viewBox="0 0 16 16" fill="none" xmlns="http://www.w3.org/2000/svg">
<path d="M9.23743 1.51256C9.92085 2.19598 9.92085 3.30402 9.23743 3.98743C8.55402 4.67085 7.44598 4.67085 6.76256 3.98743C6.07915 3.30402 6.07915 2.19598 6.76256 1.51256C7.44595 0.829146 8.55399 0.829146 9.23743 1.51256Z" fill=
"currentColor"/>
<path d="M9.23743 6.76256C9.92085 7.44598 9.92085 8.55402 9.23743 9.23743C8.55402 9.92085 7.44598 9.92085 6.76256 9.23743C6.07915 8.55402 6.07915 7.44598 6.76256 6.76256C7.44595 6.07915 8.55399 6.07915 9.23743 6.76256" fill="currentColor"/>
<path d="M9.23743 12.0126C9.92085 12.696 9.92085 13.804 9.23743 14.4874C8.55402 15.1709 7.44598 15.1709 6.76256 14.4874C6.07915 13.804 6.07915 12.696 6.76256 12.0126C7.44595 11.3291 8.55399 11.3291 9.23743 12.0126" fill="currentColor"/>
</svg>
