<svg width="50" height="51" viewBox="0 0 50 51" fill="none" xmlns="http://www.w3.org/2000/svg">
<g clip-path="url(#clip0_950_15276)">
<path d="M23.9373 5.63672H1.00605C0.450391 5.63672 0 6.08711 0 6.64277V25.3071H0.0976562C0.0976562 23.1421 1.85908 21.3807 4.02412 21.3807H10.1064V21.8499C10.1064 23.154 11.1675 24.2151 12.4717 24.2151C13.7759 24.2151 14.8369 23.1541 14.8369 21.8499V21.3807H20.9192C23.0843 21.3807 24.8457 23.1421 24.8457 25.3071H24.9434V6.64277C24.9433 6.08711 24.4929 5.63672 23.9373 5.63672Z" fill="#D8ECFE"/>
<path d="M4.02412 21.283H4.27568V6.64277C4.27568 6.08711 4.72607 5.63672 5.28174 5.63672H1.00605C0.450391 5.63672 0 6.08711 0 6.64277V25.3071C0 23.0847 1.80166 21.283 4.02412 21.283Z" fill="#C4E2FF"/>
<path d="M20.9191 21.2812H14.6416V21.8481C14.6416 23.0446 13.6682 24.0181 12.4717 24.0181C11.2752 24.0181 10.3018 23.0446 10.3018 21.8481V21.2812H4.02412C1.80166 21.2812 0 23.0829 0 25.3054V35.6565C0 36.2122 0.450391 36.6626 1.00605 36.6626H23.9373C24.493 36.6626 24.9434 36.2122 24.9434 35.6565V25.3054C24.9433 23.0829 23.1416 21.2812 20.9191 21.2812Z" fill="#05E39C"/>
<path d="M4.27568 35.6565V21.2812H4.02422C1.80166 21.2812 0 23.0829 0 25.3054V35.6565C0 36.2122 0.450391 36.6626 1.00605 36.6626H5.28174C4.72607 36.6626 4.27568 36.2121 4.27568 35.6565Z" fill="#0ED290"/>
<path d="M14.2741 19.029H10.6692C10.5121 19.029 10.357 19.0202 10.2041 19.0039V21.8478C10.2041 23.1001 11.2193 24.1153 12.4717 24.1153C13.724 24.1153 14.7393 23.1001 14.7393 21.8478V19.0039C14.5863 19.0202 14.4313 19.029 14.2741 19.029Z" fill="#FFB09E"/>
<path d="M12.4245 21.8468V19.1257H10.6692C10.5121 19.1257 10.357 19.1174 10.2041 19.1016V21.8468C10.2041 23.0991 11.2193 24.1144 12.4717 24.1144C12.8751 24.1144 13.2537 24.0085 13.5819 23.8238C12.8913 23.4352 12.4245 22.6956 12.4245 21.8468Z" fill="#F89580"/>
<path d="M16.6226 7.38096H16.6687C17.7551 7.38096 18.6391 8.26484 18.6391 9.35137V10.7284H19.4854C19.8832 10.7284 20.2537 10.843 20.5696 11.0381V6.9459C20.5696 4.97588 18.9727 3.37891 17.0026 3.37891H15.8379C16.3285 3.98994 16.6228 4.76543 16.6228 5.61006V7.38096H16.6226Z" fill="#883F2E"/>
<path d="M5.45723 10.7282H6.30361V9.35117C6.30361 8.26465 7.1875 7.38076 8.27393 7.38076H16.6229V5.60996C16.6229 3.63994 15.0259 2.04297 13.0559 2.04297H5.93262C5.07129 2.04297 4.37305 2.74121 4.37305 3.60254V11.0379C4.68896 10.8428 5.05957 10.7282 5.45723 10.7282Z" fill="#A44F3E"/>
<path d="M6.30391 14.6628V10.6289H5.45752C4.25938 10.6289 3.28809 11.6002 3.28809 12.7983V13.0941C3.28809 14.2923 4.25938 15.2636 5.45752 15.2636H6.34629C6.31904 15.0671 6.30391 14.8668 6.30391 14.6628Z" fill="#F89580"/>
<path d="M19.4864 10.6289H18.64V14.6628C18.64 14.8667 18.6249 15.0671 18.5977 15.2637H19.4863C20.6845 15.2637 21.6558 14.2924 21.6558 13.0942V12.7984C21.656 11.6002 20.6846 10.6289 19.4864 10.6289Z" fill="#FFB09E"/>
<path d="M14.2739 19.1295H10.6691C8.2042 19.1295 6.20605 17.1312 6.20605 14.6664V9.35312C6.20605 8.21103 7.13193 7.28516 8.27402 7.28516H16.669C17.8111 7.28516 18.737 8.21103 18.737 9.35312V14.6664C18.737 17.1312 16.7389 19.1295 14.2739 19.1295Z" fill="#FFCEBF"/>
<path d="M8.74658 14.6664V9.35312C8.74658 8.21103 9.67246 7.28516 10.8146 7.28516H8.27402C7.13193 7.28516 6.20605 8.21103 6.20605 9.35312V14.6664C6.20605 17.1313 8.2043 19.1295 10.6691 19.1295H13.2097C10.7447 19.1295 8.74658 17.1312 8.74658 14.6664Z" fill="#FFB09E"/>
<path d="M12.4716 13.6417C12.2958 13.6417 12.1196 13.5788 11.9792 13.4514L10.9469 12.5133C10.6556 12.2486 10.6256 11.8009 10.879 11.4997L11.9113 10.2727C12.1718 9.96311 12.6339 9.92327 12.9433 10.1837C13.2528 10.4442 13.2927 10.9061 13.0322 11.2157L12.4537 11.9033L12.9644 12.3673C13.2637 12.6394 13.2858 13.1026 13.0138 13.402C12.8692 13.561 12.6708 13.6417 12.4716 13.6417Z" fill="#F89580"/>
<path d="M9.3916 12.3374C8.98711 12.3374 8.65918 12.0096 8.65918 11.605V10.2285C8.65918 9.82393 8.98711 9.49609 9.3916 9.49609C9.79609 9.49609 10.124 9.82393 10.124 10.2285V11.605C10.124 12.0096 9.79609 12.3374 9.3916 12.3374Z" fill="#F89580"/>
<path d="M15.5527 12.3374C15.1482 12.3374 14.8203 12.0096 14.8203 11.605V10.2285C14.8203 9.82393 15.1482 9.49609 15.5527 9.49609C15.9572 9.49609 16.2852 9.82393 16.2852 10.2285V11.605C16.2852 12.0096 15.9572 12.3374 15.5527 12.3374Z" fill="#F89580"/>
<path d="M12.472 16.9969C10.9692 16.9969 9.70435 15.9214 9.4646 14.4396C9.39995 14.0403 9.67134 13.6643 10.0707 13.5996C10.4695 13.5342 10.8459 13.8063 10.9107 14.2056C11.035 14.9741 11.6917 15.5319 12.472 15.5319C13.2523 15.5319 13.9089 14.9741 14.0333 14.2056C14.098 13.8062 14.4744 13.534 14.8734 13.5996C15.2727 13.6642 15.5441 14.0403 15.4794 14.4396C15.2396 15.9215 13.9749 16.9969 12.472 16.9969Z" fill="#F89580"/>
<path d="M5.83867 33.9781C7.62324 33.9781 9.06992 32.5314 9.06992 30.7469C9.06992 28.9623 7.62324 27.5156 5.83867 27.5156C4.0541 27.5156 2.60742 28.9623 2.60742 30.7469C2.60742 32.5314 4.0541 33.9781 5.83867 33.9781Z" fill="white"/>
<path d="M5.15684 30.747C5.15684 29.4151 5.96279 28.2719 7.11338 27.7772C6.72227 27.6091 6.29141 27.5156 5.83867 27.5156C4.0541 27.5156 2.60742 28.9623 2.60742 30.7469C2.60742 32.5314 4.0541 33.9781 5.83867 33.9781C6.29141 33.9781 6.72227 33.8847 7.11338 33.7165C5.96279 33.2222 5.15684 32.0788 5.15684 30.747Z" fill="#EAF6FF"/>
<path d="M48.9936 28.1994H28.7834C28.2277 28.1994 27.7773 27.749 27.7773 27.1934V19.9084C27.7773 19.3527 28.2277 18.9023 28.7834 18.9023H48.9936C49.5492 18.9023 49.9996 19.3527 49.9996 19.9084V27.1934C49.9996 27.7489 49.5492 28.1994 48.9936 28.1994Z" fill="#D8ECFE"/>
<path d="M32.0418 27.1934V19.9084C32.0418 19.3527 32.4922 18.9023 33.0479 18.9023H28.7834C28.2277 18.9023 27.7773 19.3527 27.7773 19.9084V27.1934C27.7773 27.749 28.2277 28.1994 28.7834 28.1994H33.0479C32.4922 28.1994 32.0418 27.7489 32.0418 27.1934Z" fill="#C4E2FF"/>
<path d="M48.9936 36.6647H28.7834C28.2277 36.6647 27.7773 36.2144 27.7773 35.6587V33.4006C27.7773 32.8449 28.2277 32.3945 28.7834 32.3945H48.9936C49.5492 32.3945 49.9996 32.8449 49.9996 33.4006V35.6587C49.9996 36.2143 49.5492 36.6647 48.9936 36.6647Z" fill="#AF66DA"/>
<path d="M32.0418 35.6587V33.4006C32.0418 32.8449 32.4922 32.3945 33.0479 32.3945H28.7834C28.2277 32.3945 27.7773 32.8449 27.7773 33.4006V35.6587C27.7773 36.2144 28.2277 36.6647 28.7834 36.6647H33.0479C32.4922 36.6647 32.0418 36.2143 32.0418 35.6587Z" fill="#9857BD"/>
<path d="M20.9753 31.0859H12.2451C11.8406 31.0859 11.5127 30.7581 11.5127 30.3535C11.5127 29.9489 11.8406 29.6211 12.2451 29.6211H20.9753C21.3798 29.6211 21.7077 29.9489 21.7077 30.3535C21.7077 30.7581 21.3798 31.0859 20.9753 31.0859Z" fill="white"/>
<path d="M18.8131 34.0312H12.2451C11.8406 34.0312 11.5127 33.7034 11.5127 33.2988C11.5127 32.8942 11.8406 32.5664 12.2451 32.5664H18.8131C19.2176 32.5664 19.5455 32.8942 19.5455 33.2988C19.5455 33.7034 19.2176 34.0312 18.8131 34.0312Z" fill="white"/>
<path d="M48.9936 14.9338H28.7834C28.2277 14.9338 27.7773 14.4834 27.7773 13.9277V6.64277C27.7773 6.08711 28.2277 5.63672 28.7834 5.63672H48.9936C49.5492 5.63672 49.9996 6.08711 49.9996 6.64277V13.9277C49.9996 14.4834 49.5492 14.9338 48.9936 14.9338Z" fill="#D8ECFE"/>
<path d="M32.0418 13.9277V6.64277C32.0418 6.08711 32.4922 5.63672 33.0479 5.63672H28.7834C28.2277 5.63672 27.7773 6.08711 27.7773 6.64277V13.9277C27.7773 14.4834 28.2277 14.9338 28.7834 14.9338H33.0479C32.4922 14.9338 32.0418 14.4834 32.0418 13.9277Z" fill="#C4E2FF"/>
<path d="M46.7117 9.49219H33.333C32.9284 9.49219 32.6006 9.16436 32.6006 8.75977C32.6006 8.35518 32.9284 8.02734 33.333 8.02734H46.7117C47.1163 8.02734 47.4441 8.35518 47.4441 8.75977C47.4441 9.16436 47.1163 9.49219 46.7117 9.49219Z" fill="#8AC9FE"/>
<path d="M46.7117 12.543H33.333C32.9284 12.543 32.6006 12.2151 32.6006 11.8105C32.6006 11.406 32.9284 11.0781 33.333 11.0781H46.7117C47.1163 11.0781 47.4441 11.406 47.4441 11.8105C47.4441 12.2151 47.1163 12.543 46.7117 12.543Z" fill="#8AC9FE"/>
<path d="M40.816 22.8086H31.0654C30.6608 22.8086 30.333 22.4808 30.333 22.0762C30.333 21.6716 30.6608 21.3438 31.0654 21.3438H40.816C41.2206 21.3438 41.5484 21.6716 41.5484 22.0762C41.5484 22.4808 41.2206 22.8086 40.816 22.8086Z" fill="#8AC9FE"/>
<path d="M46.712 22.6953H43.1973C42.7927 22.6953 42.4648 22.3675 42.4648 21.9629C42.4648 21.5583 42.7927 21.2305 43.1973 21.2305H46.712C47.1166 21.2305 47.4444 21.5583 47.4444 21.9629C47.4444 22.3675 47.1166 22.6953 46.712 22.6953Z" fill="#8AC9FE"/>
<path d="M46.7117 25.8711H31.0654C30.6608 25.8711 30.333 25.5433 30.333 25.1387C30.333 24.7341 30.6608 24.4062 31.0654 24.4062H46.7117C47.1163 24.4062 47.4441 24.7341 47.4441 25.1387C47.4441 25.5433 47.1163 25.8711 46.7117 25.8711Z" fill="#8AC9FE"/>
<path d="M48.9939 48.9611H1.00605C0.450391 48.9611 0 48.5107 0 47.9551V40.6701C0 40.1145 0.450391 39.6641 1.00605 39.6641H48.9939C49.5496 39.6641 50 40.1145 50 40.6701V47.9551C50 48.5107 49.5496 48.9611 48.9939 48.9611Z" fill="#FFE177"/>
<path d="M4.07441 47.9551V40.6701C4.07441 40.1145 4.5248 39.6641 5.08047 39.6641H1.00605C0.450391 39.6641 0 40.1146 0 40.6701V47.9551C0 48.5107 0.450391 48.9611 1.00605 48.9611H5.08047C4.5249 48.9611 4.07441 48.5107 4.07441 47.9551Z" fill="#FFD15B"/>
<path d="M45.8056 43.6953H41.248C40.8435 43.6953 40.5156 43.3675 40.5156 42.9629C40.5156 42.5583 40.8435 42.2305 41.248 42.2305H45.8056C46.2102 42.2305 46.538 42.5583 46.538 42.9629C46.538 43.3675 46.2102 43.6953 45.8056 43.6953Z" fill="white"/>
<path d="M38.8332 43.6953H4.19531C3.79082 43.6953 3.46289 43.3675 3.46289 42.9629C3.46289 42.5583 3.79082 42.2305 4.19531 42.2305H38.8332C39.2378 42.2305 39.5656 42.5583 39.5656 42.9629C39.5656 43.3675 39.2378 43.6953 38.8332 43.6953Z" fill="white"/>
<path d="M45.805 46.6133H22.1328C21.7283 46.6133 21.4004 46.2854 21.4004 45.8809C21.4004 45.4763 21.7283 45.1484 22.1328 45.1484H45.805C46.2096 45.1484 46.5374 45.4763 46.5374 45.8809C46.5374 46.2854 46.2096 46.6133 45.805 46.6133Z" fill="white"/>
<path d="M19.8189 46.6133H11.4687C11.0643 46.6133 10.7363 46.2854 10.7363 45.8809C10.7363 45.4763 11.0643 45.1484 11.4687 45.1484H19.8188C20.2233 45.1484 20.5513 45.4763 20.5513 45.8809C20.5513 46.2854 20.2234 46.6133 19.8189 46.6133Z" fill="white"/>
<path d="M31.0654 9.49219C31.4699 9.49219 31.7979 9.16427 31.7979 8.75977C31.7979 8.35526 31.4699 8.02734 31.0654 8.02734C30.6609 8.02734 30.333 8.35526 30.333 8.75977C30.333 9.16427 30.6609 9.49219 31.0654 9.49219Z" fill="#8AC9FE"/>
<path d="M31.0654 12.543C31.4699 12.543 31.7979 12.2151 31.7979 11.8105C31.7979 11.406 31.4699 11.0781 31.0654 11.0781C30.6609 11.0781 30.333 11.406 30.333 11.8105C30.333 12.2151 30.6609 12.543 31.0654 12.543Z" fill="#8AC9FE"/>
<path d="M20.9756 34.0312C21.3801 34.0312 21.708 33.7033 21.708 33.2988C21.708 32.8943 21.3801 32.5664 20.9756 32.5664C20.5711 32.5664 20.2432 32.8943 20.2432 33.2988C20.2432 33.7033 20.5711 34.0312 20.9756 34.0312Z" fill="white"/>
<path d="M4.19531 46.6133C4.59982 46.6133 4.92773 46.2854 4.92773 45.8809C4.92773 45.4764 4.59982 45.1484 4.19531 45.1484C3.79081 45.1484 3.46289 45.4764 3.46289 45.8809C3.46289 46.2854 3.79081 46.6133 4.19531 46.6133Z" fill="white"/>
<path d="M6.41309 46.6133C6.81759 46.6133 7.14551 46.2854 7.14551 45.8809C7.14551 45.4764 6.81759 45.1484 6.41309 45.1484C6.00858 45.1484 5.68066 45.4764 5.68066 45.8809C5.68066 46.2854 6.00858 46.6133 6.41309 46.6133Z" fill="white"/>
<path d="M8.56836 46.6133C8.97286 46.6133 9.30078 46.2854 9.30078 45.8809C9.30078 45.4764 8.97286 45.1484 8.56836 45.1484C8.16385 45.1484 7.83594 45.4764 7.83594 45.8809C7.83594 46.2854 8.16385 46.6133 8.56836 46.6133Z" fill="white"/>
</g>
<defs>
<clipPath id="clip0_950_15276">
<rect width="50" height="50" fill="white" transform="translate(0 0.5)"/>
</clipPath>
</defs>
</svg>
