<svg xmlns="http://www.w3.org/2000/svg" width="16" height="16" fill="none"><path fill="currentColor" d="M10.667 3.667a.5.5 0 1 0 0-1v1ZM7.605 10.94a.5.5 0 0 0 .79-.614l-.79.614ZM5.333 2.667a.5.5 0 1 0 0 1v-1Zm-.672 2.86-.307-.395-.789.614.307.394.79-.614Zm6.006-2.86H5.333v1h5.334v-1ZM3.872 6.14l3.733 4.8.79-.614-3.734-4.8-.789.614Z"/><rect width="4.333" height="4.333" x="11.167" y="1" stroke="currentColor" stroke-linejoin="round" rx=".5"/><rect width="4.333" height="4.333" x=".5" y="1" stroke="currentColor" stroke-linejoin="round" rx=".5"/><rect width="4.333" height="4.333" x="7.967" y="10.6" stroke="currentColor" stroke-linejoin="round" rx=".5"/></svg>