<svg width="50" height="51" viewBox="0 0 50 51" fill="none" xmlns="http://www.w3.org/2000/svg">
<path d="M32.8351 11.6738C33.9397 11.6738 34.8351 10.7784 34.8351 9.67383C34.8351 8.56926 33.9397 7.67383 32.8351 7.67383V11.6738ZM22.462 36.5325C23.1214 37.4187 24.3743 37.6025 25.2604 36.9432C26.1466 36.2838 26.3305 35.0309 25.6711 34.1447L22.462 36.5325ZM15.298 7.67383C14.1934 7.67383 13.298 8.56926 13.298 9.67383C13.298 10.7784 14.1934 11.6738 15.298 11.6738V7.67383ZM13.3951 17.6459L12.2012 16.0414L8.99207 18.4291L10.186 20.0337L13.3951 17.6459ZM32.8351 7.67383H15.298V11.6738H32.8351V7.67383ZM10.186 20.0337L22.462 36.5325L25.6711 34.1447L13.3951 17.6459L10.186 20.0337Z" fill="#0950C5"/>
<rect x="32.4629" y="0.5" width="17.5372" height="18.332" rx="3" fill="#FF7C50"/>
<rect y="0.5" width="17.5372" height="18.332" rx="3" fill="#FF7C50"/>
<rect x="22.3882" y="32.168" width="17.5372" height="18.332" rx="3" fill="#FF7C50"/>
</svg>
