<svg viewBox="0 0 31 30" fill="none" xmlns="http://www.w3.org/2000/svg">
<path d="M6.25753 4.87328L6.05234 5.13296C6.14119 4.81628 6.20676 4.56716 6.25118 4.37926L6.45002 3.53479C6.6531 2.92254 6.52195 2.55731 5.91062 2.35252C5.44948 2.27441 5.04333 2.34196 4.84026 2.74942L3.86298 6.86202C3.7276 7.34759 3.68106 7.71072 4.29239 7.9155L8.12325 8.88665C8.73669 9.08932 9.17456 8.83176 9.35013 8.32507C9.52147 7.81628 9.14706 7.31593 8.69015 7.22303L7.0677 6.80502C7.21789 6.69735 7.20731 6.6319 7.42096 6.46301C9.84935 4.56294 11.952 3.53267 14.6025 3.53267C20.7158 3.53267 26.0781 9.02599 26.0781 15.1273C26.0781 21.2308 20.7158 26.6185 14.6025 26.6185C8.4892 26.6185 3.12685 21.2308 3.12685 15.1273C3.12685 14.5172 2.72494 14.0295 2.11149 14.0295C1.50017 14.0295 1.12787 14.5172 1.12787 15.1273C1.12787 22.4532 7.26442 28.6305 14.6025 28.6305C21.9384 28.6305 28.1279 22.4342 28.1279 15.1104C28.1279 7.78672 22.2684 1.63049 14.6279 1.63049C11.5347 1.65333 8.55698 2.80617 6.25753 4.87117V4.87328ZM12.9948 10.8078V17.228C12.9948 17.8402 13.4031 18.2456 14.0144 18.2456H18.6428C19.2562 18.2456 19.637 17.8381 19.637 17.228C19.637 16.6178 19.2562 16.3328 18.6428 16.3328H14.9832V10.8099C14.9832 10.1998 14.6363 9.7818 14.0229 9.7818C13.4116 9.7818 12.997 10.1998 12.997 10.8099L12.9948 10.8078Z" fill="#757575"/>
</svg>
