<svg viewBox="0 0 42 42" fill="none" xmlns="http://www.w3.org/2000/svg">
<g clip-path="url(#clip0_20322_24107)">
<path d="M41.9518 3.13582C41.9089 2.33102 41.5699 1.57052 41 1.00063C40.4301 0.430746 39.6696 0.0917343 38.8648 0.0488227C35.4985 -0.133877 28.9108 0.0446225 22.6108 3.30382C19.3999 4.96282 16.0042 7.77893 13.2952 11.0297L13.1944 11.1494L7.04559 11.624C6.03129 11.7017 5.13039 12.233 4.56969 13.0793L0.373885 19.4276C0.165017 19.7418 0.0389396 20.1037 0.00736565 20.4796C-0.0242083 20.8556 0.0397452 21.2334 0.193285 21.578C0.506185 22.2815 1.14459 22.7729 1.90689 22.8905L7.08758 23.6927L7.03509 23.9951C6.86288 25.0262 7.20309 26.0867 7.94859 26.8322L15.1684 34.052C15.5352 34.4181 15.9836 34.6918 16.4769 34.8506C16.9701 35.0094 17.494 35.0488 18.0055 34.9655L18.3079 34.913L19.1101 40.0937C19.1903 40.6259 19.4593 41.1115 19.8681 41.4616C20.2768 41.8117 20.7979 42.003 21.3361 42.0005C21.7687 42.0005 22.1971 41.8745 22.5751 41.6267L28.9192 37.4309C29.7676 36.8702 30.2968 35.9672 30.3766 34.955L30.8512 28.8062L30.9709 28.7054C34.2217 25.9964 37.0378 22.6007 38.6989 19.3877C41.9539 13.0877 42.1345 6.50213 41.9518 3.13582ZM27.5626 35.3771L21.4936 39.3902L20.7103 34.3418C23.2765 33.5858 25.8133 32.3783 28.2325 30.7592L27.9217 34.766C27.9129 34.8884 27.8761 35.0071 27.8142 35.1131C27.7523 35.219 27.667 35.3094 27.5647 35.3771H27.5626ZM16.9072 32.3111L9.68948 25.0934C9.59934 25.0043 9.53175 24.8949 9.4923 24.7744C9.45286 24.6538 9.44271 24.5257 9.46269 24.4004C9.67689 23.1173 10.0087 21.8951 10.4224 20.7464L21.2521 31.5761C20.065 32.0045 18.8422 32.3264 17.5981 32.5379C17.4732 32.5576 17.3454 32.5472 17.2253 32.5078C17.1052 32.4684 16.9961 32.401 16.9072 32.3111ZM7.23458 14.0789L11.2414 13.7681C9.67295 16.0795 8.46495 18.6159 7.65879 21.2903L2.60829 20.5091L6.62349 14.438C6.69082 14.3356 6.78072 14.25 6.88629 14.1878C6.99186 14.1255 7.11239 14.0883 7.23458 14.0789ZM29.3959 26.8154C27.6542 28.2827 25.7411 29.5336 23.6986 30.5408L11.4577 18.2999C12.4692 16.2605 13.7198 14.3487 15.1831 12.6047C17.6926 9.59753 20.8111 7.00403 23.7427 5.48782C29.524 2.49742 35.614 2.33782 38.7304 2.50582C39.1441 2.52892 39.4717 2.85652 39.4927 3.27022C39.6628 6.38663 39.5032 12.4766 36.5107 18.2579C34.9966 21.1895 32.4031 24.308 29.3959 26.8154Z" fill="currentColor"/>
<path d="M28.7703 19.379C30.3453 19.379 31.9203 18.7784 33.1215 17.5793C33.6944 17.0095 34.1487 16.3317 34.458 15.5852C34.7672 14.8387 34.9254 14.0382 34.9233 13.2302C34.9257 12.4218 34.7677 11.6209 34.4584 10.874C34.1491 10.1271 33.6947 9.44902 33.1215 8.87897C31.9668 7.72701 30.4024 7.08008 28.7713 7.08008C27.1403 7.08008 25.5758 7.72701 24.4212 8.87897C23.8476 9.44884 23.3928 10.1269 23.0831 10.8738C22.7735 11.6207 22.6152 12.4216 22.6173 13.2302C22.6173 14.8724 23.2557 16.418 24.4191 17.5793C24.9897 18.1509 25.6677 18.6042 26.4141 18.913C27.1604 19.2219 27.9625 19.3802 28.7703 19.379ZM26.16 10.6199C26.5025 10.2769 26.9095 10.0049 27.3574 9.81969C27.8054 9.63445 28.2855 9.53956 28.7703 9.54047C29.2554 9.53881 29.736 9.63309 30.1845 9.8179C30.6331 10.0027 31.0406 10.2744 31.3837 10.6173C31.7269 10.9602 31.9988 11.3676 32.1838 11.8161C32.3689 12.2645 32.4635 12.7451 32.4621 13.2302C32.4168 14.1788 32.0081 15.0737 31.3207 15.729C30.6333 16.3844 29.72 16.75 28.7703 16.75C27.8205 16.75 26.9072 16.3844 26.2199 15.729C25.5325 15.0737 25.1237 14.1788 25.0785 13.2302C25.0785 12.2432 25.4628 11.3171 26.16 10.6199ZM1.25607 34.6124C1.57107 34.6124 1.88607 34.4927 2.12547 34.2512L6.14277 30.2339C6.26139 30.1206 6.35616 29.9847 6.42151 29.8342C6.48686 29.6838 6.52146 29.5218 6.52329 29.3577C6.52512 29.1937 6.49413 29.031 6.43216 28.8791C6.37018 28.7272 6.27847 28.5892 6.16241 28.4733C6.04634 28.3574 5.90827 28.2658 5.75632 28.2041C5.60436 28.1423 5.44159 28.1115 5.27756 28.1135C5.11353 28.1155 4.95157 28.1503 4.80118 28.2159C4.6508 28.2814 4.51504 28.3763 4.40187 28.4951L0.384573 32.5124C0.212652 32.6846 0.0956522 32.9039 0.0483628 33.1426C0.00107336 33.3813 0.0256177 33.6287 0.118893 33.8535C0.212168 34.0782 0.369987 34.2703 0.572399 34.4054C0.77481 34.5405 1.01273 34.6125 1.25607 34.6124ZM9.82407 32.1764C9.70979 32.062 9.5741 31.9713 9.42474 31.9094C9.27538 31.8475 9.1153 31.8157 8.95362 31.8157C8.79195 31.8157 8.63186 31.8475 8.48251 31.9094C8.33315 31.9713 8.19746 32.062 8.08317 32.1764L0.361473 39.9002C0.14662 40.1339 0.0303793 40.4415 0.0370373 40.7589C0.0436954 41.0763 0.172737 41.3788 0.397201 41.6033C0.621665 41.8277 0.924186 41.9568 1.24156 41.9634C1.55893 41.9701 1.86659 41.8538 2.10027 41.639L9.82407 33.9173C9.93843 33.803 10.0291 33.6673 10.091 33.5179C10.1529 33.3686 10.1848 33.2085 10.1848 33.0468C10.1848 32.8852 10.1529 32.7251 10.091 32.5757C10.0291 32.4264 9.93843 32.2907 9.82407 32.1764ZM11.7645 35.8577L7.74927 39.875C7.51842 40.1058 7.38872 40.4189 7.38872 40.7454C7.38872 41.0719 7.51842 41.385 7.74927 41.6159C7.98013 41.8467 8.29324 41.9764 8.61972 41.9764C8.94621 41.9764 9.25932 41.8467 9.49018 41.6159L13.5075 37.5986C13.7386 37.3677 13.8686 37.0545 13.8688 36.7278C13.869 36.4011 13.7394 36.0878 13.5085 35.8566C13.2777 35.6255 12.9644 35.4955 12.6378 35.4953C12.3111 35.4951 11.9977 35.6247 11.7666 35.8556L11.7645 35.8577Z" fill="currentColor"/>
</g>
<defs>
<clipPath id="clip0_20322_24107">
<rect width="42" height="42" fill="currentColor"/>
</clipPath>
</defs>
</svg>
