<svg xmlns="http://www.w3.org/2000/svg" width="16" height="16" fill="none"><path fill="#37352F" stroke="#37352F" stroke-linejoin="round" stroke-width=".4" d="m.53 1.808.953 1.668a.238.238 0 0 0 .149.113l.889.222 3.048 3.048.337-.336L2.81 3.426a.238.238 0 0 0-.11-.062l-.855-.215-.81-1.42.695-.695 1.42.812.215.854c.01.042.032.08.063.11l3.096 3.097.337-.337L3.812 2.52l-.222-.888a.239.239 0 0 0-.113-.15L1.81.532a.238.238 0 0 0-.286.038l-.953.953a.238.238 0 0 0-.04.286ZM4.033 11.65a.178.178 0 0 0-.154-.088H2.808a.178.178 0 0 0-.153.087l-.536.893a.178.178 0 0 0 0 .184l.536.893c.032.053.09.086.153.086h1.071c.063 0 .121-.033.154-.086l.535-.893a.178.178 0 0 0 0-.184l-.535-.893Zm-.255 1.698H2.91l-.428-.714.428-.714h.87l.428.714-.429.714Z"/><path fill="#37352F" fill-rule="evenodd" stroke="#37352F" stroke-linejoin="round" stroke-width=".4" d="M15.147 3.735a2.848 2.848 0 0 1-3.415 2.78l-1.25 1.25-.336.336-2.047 2.044-.335.338-1.606 1.6c.038.184.058.371.058.559a2.858 2.858 0 1 1-2.858-2.858c.188 0 .375.02.558.058L9.49 4.274a2.795 2.795 0 0 1 .03-1.266A2.85 2.85 0 0 1 12.98.945a.238.238 0 0 1 .112.4l-1.483 1.483.393 1.176 1.176.392 1.483-1.482a.238.238 0 0 1 .399.111c.059.232.088.47.087.71ZM5.73 11.84l5.76-5.754h-.002a.238.238 0 0 1 .227-.063 2.37 2.37 0 0 0 2.953-2.443L13.41 4.837a.238.238 0 0 1-.244.057l-1.43-.476a.238.238 0 0 1-.15-.15l-.476-1.43a.238.238 0 0 1 .057-.243l1.257-1.257A2.37 2.37 0 0 0 9.982 4.29a.238.238 0 0 1-.063.226L4.16 10.271a.24.24 0 0 1-.226.063 2.398 2.398 0 1 0 1.732 1.732.239.239 0 0 1 .063-.226Z" clip-rule="evenodd"/><path fill="#37352F" fill-rule="evenodd" d="m10.575 8.67.314-.313.508.509a.222.222 0 0 1 0 .313l-.111.112a.248.248 0 1 0 .352.351l.111-.11a.222.222 0 0 1 .314 0l2.907 2.906.011.012a1.79 1.79 0 1 1-2.543 2.52l-2.907-2.907a.222.222 0 0 1 0-.314l.111-.111a.248.248 0 0 0-.352-.352l-.11.111a.222.222 0 0 1-.314 0l-.509-.508.312-.315.355.355a.692.692 0 0 1 .976.975l2.752 2.752c.027.027.056.053.085.077l.396.232a1.347 1.347 0 0 0 .946 0 1.345 1.345 0 0 0 .786-1.733l-.232-.395a1.36 1.36 0 0 0-.077-.085L11.906 10a.692.692 0 0 1-.976-.974l-.355-.354Z" clip-rule="evenodd"/><path stroke="#37352F" stroke-linejoin="round" stroke-width=".4" d="M14.981 12.45a1.79 1.79 0 1 1-2.543 2.52l-2.907-2.907a.222.222 0 0 1 0-.314l.111-.111a.248.248 0 0 0-.352-.352l-.11.111a.222.222 0 0 1-.314 0l-.509-.508.312-.315.355.355a.692.692 0 0 1 .976.975l2.752 2.752c.027.027.056.053.085.077l.396.232a1.347 1.347 0 0 0 .946 0 1.345 1.345 0 0 0 .786-1.733l-.232-.395a1.36 1.36 0 0 0-.077-.085L11.906 10a.692.692 0 0 1-.976-.974l-.355-.354.314-.314.508.509a.222.222 0 0 1 0 .313l-.111.112a.248.248 0 1 0 .352.351l.111-.11a.222.222 0 0 1 .314 0l2.907 2.906m.011.012a.615.615 0 0 0-.011-.012m.011.012-.011-.012"/><path fill="#37352F" stroke="#37352F" stroke-linejoin="round" stroke-width=".4" d="m13.893 13.627-.266.266-1.877-1.878.265-.265 1.878 1.877Z"/></svg>