<svg width="50" height="50" viewBox="0 0 50 50" fill="none" xmlns="http://www.w3.org/2000/svg">
<path d="M4 26L46 26" stroke="black" stroke-width="1.5" stroke-linecap="round"/>
<path d="M3 6H12.5611L25 25.0937L12.5611 46H3" stroke="black" stroke-width="1.5" stroke-linecap="round"/>
<path d="M46 6H37.2109L26 25.0937L37.2109 46H46" stroke="black" stroke-width="1.5" stroke-linecap="round"/>
<rect y="2" width="8" height="8" fill="#81C562"/>
<rect x="41.1768" y="2" width="8" height="8" fill="#48CA9E"/>
<rect y="22" width="8" height="8" fill="#E91E63"/>
<rect x="41.1768" y="22" width="8" height="8" fill="#FEB019"/>
<rect y="42" width="8" height="8" fill="#9268F6"/>
<rect x="41.1768" y="42" width="7.39556" height="8" fill="#61C9F4"/>
<path d="M14.0004 18.6055H14V34.1796H14.0004C14.0491 37.2311 19.1085 39.6974 25.3425 39.6974C31.5766 39.6974 36.636 37.2311 36.6847 34.1796H36.6851V18.6055H36.6847C36.636 21.6569 31.5766 24.1232 25.3425 24.1232C19.1085 24.1232 14.0491 21.6569 14.0004 18.6055Z" fill="url(#paint0_linear_803_19826)"/>
<path fill-rule="evenodd" clip-rule="evenodd" d="M25.3425 24.1244C31.6069 24.1244 36.6851 21.6341 36.6851 18.5622C36.6851 15.4903 31.6069 13 25.3425 13C19.0782 13 14 15.4903 14 18.5622C14 21.6341 19.0782 24.1244 25.3425 24.1244ZM25.3879 21.4101C28.5201 21.4101 31.0592 20.1649 31.0592 18.629C31.0592 17.093 28.5201 15.8479 25.3879 15.8479C22.2558 15.8479 19.7166 17.093 19.7166 18.629C19.7166 20.1649 22.2558 21.4101 25.3879 21.4101Z" fill="#8D6AF1"/>
<ellipse cx="25.3317" cy="18.6228" rx="5.89812" ry="2.96651" fill="white"/>
<path d="M21.7212 31.3248V36.3975L17.9102 34.2616V24.8281L25.3055 29.2334L32.8823 24.8281V34.4396L29.0712 36.3975V31.3248L25.3055 33.4162L21.7212 31.3248Z" fill="white"/>
<defs>
<linearGradient id="paint0_linear_803_19826" x1="25.3425" y1="21.0083" x2="25.3425" y2="39.6974" gradientUnits="userSpaceOnUse">
<stop stop-color="#35198E"/>
<stop offset="1" stop-color="#8D6AF1"/>
</linearGradient>
</defs>
</svg>
