<svg width="50" height="50" viewBox="0 0 50 50" fill="none" xmlns="http://www.w3.org/2000/svg">
<path d="M42.5 15C46.6423 15 50 11.6421 50 7.5C50 3.35788 46.6423 0 42.5 0C38.3577 0 35 3.35788 35 7.5C35 11.6421 38.3577 15 42.5 15Z" fill="#FC685B"/>
<path d="M42.5 18.75C36.3 18.75 31.25 13.7 31.25 7.5C31.25 5.7 31.725 4.025 32.475 2.5H13.8C5.175 2.5 0 7.65 0 16.3V36.175C0 44.85 5.175 50 13.8 50H33.675C42.325 50 47.475 44.85 47.475 36.2V17.525C45.975 18.275 44.3 18.75 42.5 18.75Z" fill="#FFCA29"/>
<path d="M24.375 30H11.875C10.85 30 10 29.15 10 28.125C10 27.1 10.85 26.25 11.875 26.25H24.375C25.4 26.25 26.25 27.1 26.25 28.125C26.25 29.15 25.4 30 24.375 30Z" fill="#292929"/>
<path d="M34.375 40H11.875C10.85 40 10 39.15 10 38.125C10 37.1 10.85 36.25 11.875 36.25H34.375C35.4 36.25 36.25 37.1 36.25 38.125C36.25 39.15 35.4 40 34.375 40Z" fill="#292929"/>
</svg>
