
<svg  viewBox="0 0 40 40" fill="none" xmlns="http://www.w3.org/2000/svg">
<path d="M12.3898 23.4629C12.3898 24.9805 11.15 26.2203 9.63242 26.2203C8.11484 26.2203 6.875 24.9805 6.875 23.4629C6.875 21.9453 8.11484 20.7055 9.63242 20.7055H12.3898V23.4629ZM13.7797 23.4629C13.7797 21.9453 15.0195 20.7055 16.5371 20.7055C18.0547 20.7055 19.2945 21.9453 19.2945 23.4629V30.3676C19.2945 31.8852 18.0547 33.125 16.5371 33.125C15.0195 33.125 13.7797 31.8852 13.7797 30.3676V23.4629ZM16.5371 12.3898C15.0195 12.3898 13.7797 11.15 13.7797 9.63242C13.7797 8.11484 15.0195 6.875 16.5371 6.875C18.0547 6.875 19.2945 8.11484 19.2945 9.63242V12.3898H16.5371ZM16.5371 13.7797C18.0547 13.7797 19.2945 15.0195 19.2945 16.5371C19.2945 18.0547 18.0547 19.2945 16.5371 19.2945H9.63242C8.11484 19.2945 6.875 18.0547 6.875 16.5371C6.875 15.0195 8.11484 13.7797 9.63242 13.7797H16.5371ZM27.6102 16.5371C27.6102 15.0195 28.85 13.7797 30.3676 13.7797C31.8852 13.7797 33.125 15.0195 33.125 16.5371C33.125 18.0547 31.8852 19.2945 30.3676 19.2945H27.6102V16.5371ZM26.2203 16.5371C26.2203 18.0547 24.9805 19.2945 23.4629 19.2945C21.9453 19.2945 20.7055 18.0547 20.7055 16.5371V9.63242C20.7055 8.11484 21.9453 6.875 23.4629 6.875C24.9805 6.875 26.2203 8.11484 26.2203 9.63242V16.5371ZM23.4629 27.6102C24.9805 27.6102 26.2203 28.85 26.2203 30.3676C26.2203 31.8852 24.9805 33.125 23.4629 33.125C21.9453 33.125 20.7055 31.8852 20.7055 30.3676V27.6102H23.4629ZM23.4629 26.2203C21.9453 26.2203 20.7055 24.9805 20.7055 23.4629C20.7055 21.9453 21.9453 20.7055 23.4629 20.7055H30.3676C31.8852 20.7055 33.125 21.9453 33.125 23.4629C33.125 24.9805 31.8852 26.2203 30.3676 26.2203H23.4629Z" fill="currentColor"/>
</svg>
