<svg viewBox="0 0 22 22" fill="none" xmlns="http://www.w3.org/2000/svg">
<path d="M11.7778 11.1097H2C1.44772 11.1097 1 10.662 1 10.1097V2C1 1.44772 1.44772 1 2 1H13.6667C14.219 1 14.6667 1.44772 14.6667 2V8.03285" stroke="currentColor" stroke-width="1.2" stroke-linecap="round"/>
<path d="M14.5555 7.26437L10.2 4.1875L4.55554 11.0006" stroke="currentColor" stroke-width="1.2" stroke-linecap="round"/>
<path d="M11.4444 19.1301V19.1301C11.4444 17.794 11.979 16.5135 12.9289 15.574L18.4517 10.1121C18.7318 9.83506 19.1098 9.67969 19.5038 9.67969H19.527C20.3405 9.67969 21 10.3392 21 11.1527V11.1527C21 11.5461 20.8426 11.9233 20.5628 12.2L15.0566 17.6456C14.0949 18.5966 12.797 19.1301 11.4444 19.1301V19.1301ZM11.4444 19.1301L9.55554 20.9982" stroke="currentColor" stroke-width="1.2" stroke-linecap="round"/>
<path d="M15 10.8906L19.8889 15.7257" stroke="currentColor" stroke-width="1.2" stroke-linecap="round"/>
<ellipse cx="4.33335" cy="4.18379" rx="0.888889" ry="0.879106" fill="currentColor"/>
</svg>