
<svg viewBox="0 0 20 20" fill="none" xmlns="http://www.w3.org/2000/svg">
<path d="M9.17969 3.34032C7.48047 3.68016 6.16406 5.00829 5.83594 6.71141C5.76562 7.0825 5.76562 7.91844 5.83594 8.28954C6.03516 9.33641 6.66406 10.3364 7.49219 10.9223C7.58203 10.9848 7.65625 11.0434 7.65625 11.0552C7.65625 11.0669 7.53125 11.1255 7.37891 11.188C6.96094 11.3598 6.32031 11.8052 5.9375 12.1841C5.57812 12.5473 5.15234 13.145 4.96875 13.5552C4.63672 14.3013 4.53125 14.8325 4.53125 15.7661V16.4536L4.66797 16.5903C4.80078 16.7231 4.81641 16.727 5.02734 16.7114C5.21484 16.6958 5.26562 16.6723 5.35938 16.5669C5.46094 16.4536 5.46875 16.4223 5.46875 16.1216C5.46875 15.5903 5.53906 14.9223 5.62891 14.6098C5.80469 13.9653 6.15625 13.3677 6.63672 12.8872C7.11719 12.4067 7.71484 12.0552 8.35938 11.8794C8.89062 11.7309 10.0117 11.6763 10.918 11.7583C11.8867 11.8442 12.6914 12.2153 13.3633 12.8872C13.8438 13.3677 14.1953 13.9653 14.3711 14.6098C14.4609 14.9223 14.5312 15.5942 14.5312 16.1255C14.5312 16.4497 14.5352 16.4575 14.668 16.5903C14.8008 16.7231 14.8164 16.727 15.0273 16.7114C15.2148 16.6958 15.2656 16.6723 15.3594 16.5669L15.4688 16.4458V15.7622C15.4688 14.8325 15.3633 14.2973 15.0312 13.5552C14.8477 13.145 14.4219 12.5473 14.0625 12.1841C13.6797 11.8052 13.0391 11.3598 12.6211 11.188C12.4688 11.1255 12.3438 11.0669 12.3438 11.0552C12.3438 11.0434 12.418 10.9848 12.5078 10.9223C13.3359 10.3364 13.9648 9.33641 14.1641 8.28954C14.2344 7.91844 14.2344 7.0825 14.1641 6.71141C13.8359 4.99266 12.5078 3.66454 10.7891 3.33641C10.4336 3.27 9.52734 3.27 9.17969 3.34032ZM10.7617 4.34032C11.7188 4.57079 12.5195 5.23094 12.9492 6.145C13.3516 6.98875 13.3477 8.0161 12.9492 8.86375C12.3945 10.0317 11.2773 10.7466 10 10.7466C8.72266 10.7466 7.60547 10.0317 7.05078 8.85594C6.65234 8.0161 6.65234 6.98485 7.04688 6.145C7.37891 5.44969 7.88672 4.92625 8.57422 4.5786C9.23828 4.24657 10.0234 4.16063 10.7617 4.34032Z" fill="currentColor"/>
<path d="M5.05859 4.37547C4.08594 4.895 3.34766 5.83641 3.04297 6.93797C2.91797 7.39891 2.89453 8.28954 3 8.78954C3.16016 9.56688 3.50391 10.2192 4.05078 10.7856L4.37891 11.1255L4.05469 11.352C3.61328 11.6567 3.14844 12.1372 2.83984 12.602C2.28125 13.4419 2.03125 14.2778 2.03125 15.3013V15.8286L2.16797 15.9653C2.30078 16.0981 2.31641 16.102 2.52344 16.0864C2.69141 16.0708 2.76172 16.0434 2.84375 15.9653C2.94141 15.8638 2.94922 15.8286 2.99219 15.2388C3.05859 14.3403 3.25 13.7466 3.66406 13.1372C4.09766 12.5005 4.87109 11.8911 5.51172 11.6841C5.70703 11.6216 5.86328 11.4458 5.88281 11.2661C5.91406 11.0239 5.80859 10.8755 5.44531 10.6489C4.83203 10.2622 4.52344 9.93407 4.23438 9.35594C3.99609 8.87547 3.90625 8.48875 3.90625 7.96922C3.90625 7.11766 4.22656 6.35985 4.82812 5.77391C5.11328 5.49657 5.19922 5.43407 5.48047 5.27391C5.73828 5.12938 5.84766 5.00829 5.88281 4.8286C5.91016 4.66454 5.82031 4.44188 5.6875 4.35594C5.5 4.23485 5.31641 4.23875 5.05859 4.37547Z" fill="currentColor"/>
<path d="M14.3754 4.32884C14.1996 4.41478 14.0824 4.63743 14.1176 4.82103C14.1527 5.01243 14.266 5.13353 14.5629 5.29759C14.8793 5.47337 15.4691 6.0515 15.6605 6.37571C16.3129 7.4929 16.2308 8.84056 15.4496 9.8679C15.1996 10.1921 14.9613 10.4031 14.5433 10.657C14.3363 10.7859 14.2152 10.8913 14.1683 10.9812C14.0238 11.2546 14.1723 11.5827 14.4887 11.6843C14.9301 11.8288 15.4613 12.1726 15.8637 12.5749C16.2113 12.9304 16.4379 13.2546 16.6488 13.696C16.8637 14.157 16.9496 14.5398 17.0043 15.2507L17.0551 15.8679L17.184 15.9851C17.3051 16.0945 17.3363 16.1023 17.5316 16.0867C17.7152 16.071 17.766 16.0476 17.8598 15.9421C17.9691 15.821 17.9691 15.8171 17.9691 15.2976C17.9691 14.7234 17.9066 14.2976 17.7465 13.8093C17.4301 12.8288 16.7699 11.9265 15.9457 11.3523L15.6215 11.1257L15.9496 10.7859C16.6957 10.0124 17.0707 9.07884 17.0707 7.98509C17.0707 7.46556 17.0355 7.20384 16.8949 6.739C16.6019 5.77415 15.848 4.86009 14.9457 4.37962C14.684 4.2429 14.5668 4.23118 14.3754 4.32884Z" fill="currentColor"/>
</svg>
