<svg width="17" height="17" viewBox="0 0 17 17" fill="none" xmlns="http://www.w3.org/2000/svg">
<path d="M7.21373 10.9932C7.21998 10.9932 7.22623 10.9901 7.23248 10.9901C7.70113 10.9026 7.91672 10.3526 7.6324 9.96824L6.70758 8.712L6.71071 8.70888L7.83548 9.97449L8.09793 10.2714C8.29476 10.4932 8.6197 10.5557 8.88215 10.4151C8.8884 10.412 8.89464 10.4089 8.89777 10.4057C9.26957 10.2089 9.35705 9.71511 9.07898 9.40262L8.8509 9.14637L7.64177 7.78077L7.6449 7.77764L8.94463 9.07762L9.29769 9.43387C9.55076 9.68699 9.96318 9.69011 10.2163 9.43387L10.2256 9.42449C10.4756 9.17137 10.4787 8.762 10.2256 8.50888L9.96943 8.25263L8.57283 6.85578L8.57596 6.85265L10.2319 8.24013C10.3912 8.37451 10.5912 8.41513 10.7755 8.37763C10.9599 8.34013 11.1286 8.22451 11.2254 8.04014C11.2285 8.03701 11.2285 8.03389 11.2317 8.02764C11.3723 7.75889 11.3067 7.42764 11.0723 7.23077L8.66656 5.21517L8.66344 5.21205L8.3885 4.93705H8.9915C9.51639 4.93705 9.94131 4.51206 9.94131 3.99019C9.94131 3.85269 9.88507 3.72457 9.79446 3.63394C9.70386 3.54332 9.57888 3.48707 9.43829 3.48707H7.75112C7.22936 3.48707 6.72946 3.2777 6.36078 2.90895L4.12686 0.674607C3.93314 0.48086 3.62071 0.48086 3.43012 0.674607L0.880635 3.22457C0.686924 3.41832 0.686924 3.73082 0.880635 3.92144L3.06457 6.10579C3.22704 6.26828 3.34264 6.47453 3.39263 6.6964C3.47386 7.04015 3.6457 7.36515 3.9144 7.63389L5.07354 8.79325H5.07666C5.25163 8.96825 5.4141 9.15575 5.56094 9.35574L6.57636 10.7339C6.72321 10.9401 6.97316 11.037 7.21373 10.9932Z" fill="url(#paint0_linear_638_190173)"/>
<path d="M7.21373 10.9932C7.21998 10.9932 7.22623 10.9901 7.23248 10.9901C7.70113 10.9026 7.91672 10.3526 7.6324 9.96824L6.70758 8.712L6.71071 8.70888L7.83548 9.97449L8.09793 10.2714C8.29476 10.4932 8.6197 10.5557 8.88215 10.4151C8.8884 10.412 8.89464 10.4089 8.89777 10.4057C9.26957 10.2089 9.35705 9.71511 9.07898 9.40262L8.8509 9.14637L7.64177 7.78077L7.6449 7.77764L8.94463 9.07762L9.29769 9.43387C9.55076 9.68699 9.96318 9.69011 10.2163 9.43387L10.2256 9.42449C10.4756 9.17137 10.4787 8.762 10.2256 8.50888L9.96943 8.25263L8.57283 6.85578L8.57596 6.85265L10.2319 8.24013C10.3912 8.37451 10.5912 8.41513 10.7755 8.37763C10.9599 8.34013 11.1286 8.22451 11.2254 8.04014C11.2285 8.03701 11.2285 8.03389 11.2317 8.02764C11.3723 7.75889 11.3067 7.42764 11.0723 7.23077L8.66656 5.21517L8.66344 5.21205L8.3885 4.93705H8.9915C9.51639 4.93705 9.94131 4.51206 9.94131 3.99019C9.94131 3.85269 9.88507 3.72457 9.79446 3.63394C9.70386 3.54332 9.57888 3.48707 9.43829 3.48707H7.75112C7.22936 3.48707 6.72946 3.2777 6.36078 2.90895L4.12686 0.674607C3.93314 0.48086 3.62071 0.48086 3.43012 0.674607L0.880635 3.22457C0.686924 3.41832 0.686924 3.73082 0.880635 3.92144L3.06457 6.10579C3.22704 6.26828 3.34264 6.47453 3.39263 6.6964C3.47386 7.04015 3.6457 7.36515 3.9144 7.63389L5.07354 8.79325H5.07666C5.25163 8.96825 5.4141 9.15575 5.56094 9.35574L6.57636 10.7339C6.72321 10.9401 6.97316 11.037 7.21373 10.9932Z" fill="url(#paint1_linear_638_190173)"/>
<path d="M3.427 0.674217L0.880635 3.22418C0.686924 3.41793 0.686924 3.73043 0.880635 3.92105L3.06457 6.1054C3.22704 6.26789 3.34264 6.47414 3.39263 6.69601C3.47386 7.03976 3.6457 7.36475 3.9144 7.6335L4.44554 8.16474L9.12585 3.48668H7.748C7.22623 3.48668 6.72633 3.27731 6.35766 2.90856L4.12686 0.674217C3.93314 0.483594 3.62071 0.483594 3.427 0.674217Z" fill="url(#paint2_linear_638_190173)"/>
<path d="M2.7183 5.85931L6.077 2.49997L4.25549 0.678123C4.13989 0.562499 3.98367 0.5 3.82433 0.5H1.07488C0.756198 0.5 0.5 0.756247 0.5 1.07499V3.38746C0.5 3.54996 0.565612 3.70621 0.678089 3.81871L2.7183 5.85931Z" fill="url(#paint3_linear_638_190173)"/>
<path d="M0.878049 0.533203C0.656219 0.614452 0.5 0.823824 0.5 1.07382V3.38629C0.5 3.54879 0.565612 3.70504 0.678089 3.81754L2.7183 5.85813L4.45858 4.11753L0.878049 0.533203Z" fill="url(#paint4_linear_638_190173)"/>
<path d="M1.0625 4.19996L4.41807 0.84375L6.07711 2.49998L2.71842 5.85931L1.0625 4.19996Z" fill="url(#paint5_linear_638_190173)"/>
<path d="M5.58342 1.68516L6.41138 2.51327C6.51761 2.61952 6.51761 2.79139 6.41138 2.89764L3.11517 6.18822C3.00894 6.29447 2.8371 6.29447 2.73087 6.18822L1.90291 5.36011C1.79669 5.25386 1.79669 5.08199 1.90291 4.97574L5.19912 1.68516C5.30535 1.57891 5.47719 1.57891 5.58342 1.68516Z" fill="url(#paint6_linear_638_190173)"/>
<path d="M3.11524 6.19057L6.40832 2.89374C6.51455 2.78749 6.51455 2.61562 6.40832 2.50937L5.83656 1.9375L2.15918 5.61558L2.73094 6.18744C2.83717 6.29369 3.00901 6.29369 3.11524 6.19057Z" fill="url(#paint7_linear_638_190173)"/>
<path d="M4.77769 4.52809L6.40861 2.89373C6.51484 2.78748 6.51484 2.61561 6.40861 2.50936L5.58065 1.68125C5.47442 1.575 5.30258 1.575 5.19635 1.68125L3.56543 3.3156L4.77769 4.52809Z" fill="url(#paint8_linear_638_190173)"/>
<path d="M7.02893 7.63546L8.28492 6.71047L8.28805 6.71359L7.02268 7.83858L6.72586 8.10108C6.50091 8.30107 6.44467 8.62607 6.58214 8.88857C6.58526 8.89169 6.58526 8.89794 6.58839 8.90106C6.78522 9.27293 7.27887 9.36356 7.59131 9.08231L7.84751 8.85419L9.21598 7.63858L9.21911 7.64171L7.91937 8.94169L7.56007 9.29793C7.30699 9.55106 7.30387 9.96355 7.56007 10.2167L7.56944 10.226C7.82252 10.476 8.23181 10.4792 8.48488 10.226L8.74108 9.9698L10.1377 8.57294L10.1408 8.57607L8.75045 10.2323C8.61611 10.3917 8.57549 10.5917 8.60986 10.776C8.64422 10.9604 8.76295 11.1292 8.94729 11.226C8.95041 11.2292 8.95354 11.2292 8.95979 11.2323C9.22848 11.3729 9.55966 11.3073 9.7565 11.0729L11.7717 8.66669L11.7748 8.66357L12.0498 8.38857V8.99169C12.0498 9.51668 12.4747 9.94168 12.9996 9.94168C13.1402 9.94168 13.2652 9.88543 13.3558 9.7948C13.4464 9.70418 13.5026 9.57918 13.5026 9.43856V7.75108C13.5026 7.22921 13.7088 6.72922 14.0806 6.36047L16.3114 4.12925C16.5051 3.9355 16.5051 3.62301 16.3114 3.43239L13.7651 0.885545C13.5714 0.691798 13.2589 0.691798 13.0683 0.885545L10.8844 3.06989C10.7219 3.23239 10.5157 3.34801 10.2939 3.39801C9.95021 3.47926 9.62528 3.65113 9.35658 3.91988L8.19744 5.07924L8.19432 5.08237C8.17869 5.09799 8.16307 5.11361 8.15057 5.12611C7.76003 5.50736 7.46009 5.96985 7.2695 6.47922C7.0383 7.10109 6.81022 7.79795 7.02893 7.63546Z" fill="url(#paint9_linear_638_190173)"/>
<path d="M7.02893 7.63546L8.28492 6.71047L8.28805 6.71359L7.02268 7.83858L6.72586 8.10108C6.50091 8.30107 6.44467 8.62607 6.58214 8.88857C6.58526 8.89169 6.58526 8.89794 6.58839 8.90106C6.78522 9.27293 7.27887 9.36356 7.59131 9.08231L7.84751 8.85419L9.21598 7.63858L9.21911 7.64171L7.91937 8.94169L7.56007 9.29793C7.30699 9.55106 7.30387 9.96355 7.56007 10.2167L7.56944 10.226C7.82252 10.476 8.23181 10.4792 8.48488 10.226L8.74108 9.9698L10.1377 8.57294L10.1408 8.57607L8.75045 10.2323C8.61611 10.3917 8.57549 10.5917 8.60986 10.776C8.64422 10.9604 8.76295 11.1292 8.94729 11.226C8.95041 11.2292 8.95354 11.2292 8.95979 11.2323C9.22848 11.3729 9.55966 11.3073 9.7565 11.0729L11.7717 8.66669L11.7748 8.66357L12.0498 8.38857V8.99169C12.0498 9.51668 12.4747 9.94168 12.9996 9.94168C13.1402 9.94168 13.2652 9.88543 13.3558 9.7948C13.4464 9.70418 13.5026 9.57918 13.5026 9.43856V7.75108C13.5026 7.22921 13.7088 6.72922 14.0806 6.36047L16.3114 4.12925C16.5051 3.9355 16.5051 3.62301 16.3114 3.43239L13.7651 0.885545C13.5714 0.691798 13.2589 0.691798 13.0683 0.885545L10.8844 3.06989C10.7219 3.23239 10.5157 3.34801 10.2939 3.39801C9.95021 3.47926 9.62528 3.65113 9.35658 3.91988L8.19744 5.07924L8.19432 5.08237C8.17869 5.09799 8.16307 5.11361 8.15057 5.12611C7.76003 5.50736 7.46009 5.96985 7.2695 6.47922C7.0383 7.10109 6.81022 7.79795 7.02893 7.63546Z" fill="url(#paint10_linear_638_190173)"/>
<path d="M16.321 3.42653L13.7746 0.879686C13.5809 0.685938 13.2684 0.685938 13.0779 0.879686L10.8939 3.06403C10.7315 3.22653 10.5252 3.34215 10.3034 3.39215C9.95973 3.4734 9.6348 3.64527 9.3661 3.91402L8.83496 4.44526L13.5153 9.12645V7.74835C13.5153 7.22648 13.7215 6.72648 14.0933 6.35774L16.3241 4.12652C16.5115 3.93277 16.5115 3.62028 16.321 3.42653Z" fill="url(#paint11_linear_638_190173)"/>
<path d="M12.0596 8.38865V8.99177C12.0596 9.51676 12.4845 9.94176 13.0094 9.94176C13.15 9.94176 13.275 9.88551 13.3656 9.79489C13.4562 9.70426 13.5124 9.57926 13.5124 9.43864L13.5155 6.93555L12.0596 8.38865Z" fill="url(#paint12_linear_638_190173)"/>
<path d="M8.9569 11.223C8.96003 11.2261 8.96315 11.2261 8.9694 11.2292C9.2381 11.3699 9.56928 11.3042 9.76611 11.0699L11.7813 8.66366L11.7845 8.66053L12.0594 8.38553L11.1065 7.43555L10.1442 8.57303L8.75382 10.2293C8.49137 10.548 8.58823 11.0324 8.9569 11.223Z" fill="url(#paint13_linear_638_190173)"/>
<path d="M8.9569 11.223C8.96003 11.2261 8.96315 11.2261 8.9694 11.2292C9.2381 11.3699 9.56928 11.3042 9.76611 11.0699L11.7813 8.66366L11.7845 8.66053L12.0594 8.38553L11.1065 7.43555L10.1442 8.57303L8.75382 10.2293C8.49137 10.548 8.58823 11.0324 8.9569 11.223Z" fill="url(#paint14_linear_638_190173)"/>
<path d="M10.2637 6.5918L9.21701 7.64178L9.22014 7.64491L7.9204 8.94489L7.5611 9.29801C7.30802 9.55113 7.3049 9.96363 7.5611 10.2167L7.57047 10.2261C7.82354 10.4761 8.23284 10.4792 8.48591 10.2261L8.74211 9.96988L10.1387 8.57302L10.1418 8.57615L11.1041 7.43866L10.2637 6.5918Z" fill="url(#paint15_linear_638_190173)"/>
<path d="M10.2637 6.5918L9.21701 7.64178L9.22014 7.64491L7.9204 8.94489L7.5611 9.29801C7.30802 9.55113 7.3049 9.96363 7.5611 10.2167L7.57047 10.2261C7.82354 10.4761 8.23284 10.4792 8.48591 10.2261L8.74211 9.96988L10.1387 8.57302L10.1418 8.57615L11.1041 7.43866L10.2637 6.5918Z" fill="url(#paint16_linear_638_190173)"/>
<path d="M7.02327 7.83943L6.72646 8.10192C6.50463 8.29879 6.44214 8.62379 6.58274 8.88941L6.59211 8.90816C6.78895 9.27691 7.2826 9.36441 7.59503 9.08628L7.85123 8.85816L9.21971 7.64255L9.22283 7.64568L10.2695 6.59569L9.42592 5.75195L8.29489 6.71444L7.02327 7.83943Z" fill="url(#paint17_linear_638_190173)"/>
<path d="M7.02327 7.83943L6.72646 8.10192C6.50463 8.29879 6.44214 8.62379 6.58274 8.88941L6.59211 8.90816C6.78895 9.27691 7.2826 9.36441 7.59503 9.08628L7.85123 8.85816L9.21971 7.64255L9.22283 7.64568L10.2695 6.59569L9.42592 5.75195L8.29489 6.71444L7.02327 7.83943Z" fill="url(#paint18_linear_638_190173)"/>
<path d="M11.1387 2.71872L14.4974 6.07805L16.3189 4.2562C16.4345 4.14058 16.497 3.98433 16.497 3.82496V1.07499C16.497 0.756247 16.2408 0.5 15.9221 0.5H13.61C13.4476 0.5 13.2914 0.565624 13.1758 0.678123L11.1387 2.71872Z" fill="url(#paint19_linear_638_190173)"/>
<path d="M14.2883 5.86868L14.4976 6.07805L16.3191 4.2562C16.4347 4.14058 16.4972 3.98433 16.4972 3.82496V1.07499C16.4972 0.756247 16.241 0.5 15.9223 0.5H14.2852L14.2883 5.86868Z" fill="url(#paint20_linear_638_190173)"/>
<path d="M11.1387 2.71873L12.7977 1.0625L16.1533 4.41871L14.4974 6.07806L11.1387 2.71873Z" fill="url(#paint21_linear_638_190173)"/>
<path d="M15.3126 5.58315L14.4846 6.41127C14.3784 6.51752 14.2065 6.51752 14.1003 6.41127L10.8072 3.11444C10.701 3.00819 10.701 2.83631 10.8072 2.73007L11.6352 1.90195C11.7414 1.7957 11.9132 1.7957 12.0195 1.90195L15.3126 5.19566C15.4188 5.30503 15.4188 5.47691 15.3126 5.58315Z" fill="url(#paint22_linear_638_190173)"/>
<path d="M10.8074 3.11444L14.1005 6.40815C14.2067 6.5144 14.3786 6.5144 14.4848 6.40815L15.0566 5.83628L11.3823 2.1582L10.8105 2.73007C10.7043 2.83632 10.7043 3.00819 10.8074 3.11444Z" fill="url(#paint23_linear_638_190173)"/>
<path d="M12.4697 4.77616L14.1038 6.40738C14.21 6.51363 14.3818 6.51363 14.4881 6.40738L15.316 5.57927C15.4223 5.47302 15.4223 5.30115 15.316 5.1949L13.6851 3.56055L12.4697 4.77616Z" fill="url(#paint24_linear_638_190173)"/>
<path d="M10.9912 9.78045C10.9912 9.7742 10.9881 9.76795 10.9881 9.7617C10.9006 9.29295 10.3508 9.07733 9.96646 9.3617L8.71046 10.2867L8.70734 10.2836L9.9727 9.15858L10.2695 8.89608C10.4914 8.69921 10.5538 8.37422 10.4132 8.11172C10.4101 8.10547 10.407 8.09922 10.4039 8.09297C10.207 7.7211 9.71338 7.6336 9.40094 7.91172L9.14475 8.13984L7.7794 9.35545L7.77627 9.35233L9.07601 8.05235L9.43219 7.69922C9.68526 7.4461 9.68839 7.03361 9.43219 6.78049C9.42906 6.77736 9.42594 6.77424 9.42282 6.77111C9.16974 6.52112 8.76045 6.51799 8.50738 6.77111L8.25118 7.02736L6.85458 8.42422L6.85146 8.42109L8.23868 6.76486C8.37303 6.60549 8.41364 6.40549 8.37615 6.22112C8.33866 6.03675 8.22306 5.868 8.03872 5.77113C8.0356 5.768 8.03247 5.768 8.02622 5.76488C7.75753 5.62425 7.42634 5.68988 7.22951 5.92425L5.21429 8.33047L5.21117 8.33359L4.93622 8.60859V8.00547C4.93622 7.48048 4.51131 7.05548 3.98954 7.05548C3.85206 7.05548 3.72397 7.11173 3.63336 7.20236C3.54275 7.29298 3.48651 7.41798 3.48651 7.5586V9.24608C3.48651 9.76795 3.27718 10.2679 2.9085 10.6367L0.67458 12.871C0.480869 13.0648 0.480869 13.3773 0.67458 13.5679L3.22094 16.1147C3.41465 16.3085 3.72709 16.3085 3.91768 16.1147L6.10161 13.9304C6.26408 13.7679 6.47029 13.6523 6.69212 13.6023C7.0358 13.521 7.36073 13.3492 7.62943 13.0804L8.78857 11.921C8.96353 11.746 9.151 11.5835 9.35096 11.4367L10.7288 10.4211C10.9381 10.2742 11.0381 10.0242 10.9912 9.78045Z" fill="url(#paint25_linear_638_190173)"/>
<path d="M10.9912 9.78045C10.9912 9.7742 10.9881 9.76795 10.9881 9.7617C10.9006 9.29295 10.3508 9.07733 9.96646 9.3617L8.71046 10.2867L8.70734 10.2836L9.9727 9.15858L10.2695 8.89608C10.4914 8.69921 10.5538 8.37422 10.4132 8.11172C10.4101 8.10547 10.407 8.09922 10.4039 8.09297C10.207 7.7211 9.71338 7.6336 9.40094 7.91172L9.14475 8.13984L7.7794 9.35545L7.77627 9.35233L9.07601 8.05235L9.43219 7.69922C9.68526 7.4461 9.68839 7.03361 9.43219 6.78049C9.42906 6.77736 9.42594 6.77424 9.42282 6.77111C9.16974 6.52112 8.76045 6.51799 8.50738 6.77111L8.25118 7.02736L6.85458 8.42422L6.85146 8.42109L8.23868 6.76486C8.37303 6.60549 8.41364 6.40549 8.37615 6.22112C8.33866 6.03675 8.22306 5.868 8.03872 5.77113C8.0356 5.768 8.03247 5.768 8.02622 5.76488C7.75753 5.62425 7.42634 5.68988 7.22951 5.92425L5.21429 8.33047L5.21117 8.33359L4.93622 8.60859V8.00547C4.93622 7.48048 4.51131 7.05548 3.98954 7.05548C3.85206 7.05548 3.72397 7.11173 3.63336 7.20236C3.54275 7.29298 3.48651 7.41798 3.48651 7.5586V9.24608C3.48651 9.76795 3.27718 10.2679 2.9085 10.6367L0.67458 12.871C0.480869 13.0648 0.480869 13.3773 0.67458 13.5679L3.22094 16.1147C3.41465 16.3085 3.72709 16.3085 3.91768 16.1147L6.10161 13.9304C6.26408 13.7679 6.47029 13.6523 6.69212 13.6023C7.0358 13.521 7.36073 13.3492 7.62943 13.0804L8.78857 11.921C8.96353 11.746 9.151 11.5835 9.35096 11.4367L10.7288 10.4211C10.9381 10.2742 11.0381 10.0242 10.9912 9.78045Z" fill="url(#paint26_linear_638_190173)"/>
<path d="M5.77339 8.95898L1.63672 13.0933L4.32055 15.7183L6.10457 13.9339C6.26704 13.7714 6.47324 13.6558 6.69507 13.6058C7.03875 13.5245 7.36369 13.3527 7.63239 13.0839L8.76341 11.9527L5.77339 8.95898Z" fill="url(#paint27_linear_638_190173)"/>
<path d="M0.67419 13.571L3.22055 16.1179C3.41426 16.3116 3.7267 16.3116 3.91729 16.1179L6.10122 13.9335C6.26369 13.771 6.4699 13.6554 6.69173 13.6054C7.03541 13.5241 7.36034 13.3523 7.62904 13.0835L8.16018 12.5523L3.48612 7.87109V9.2492C3.48612 9.77107 3.27679 10.2711 2.90811 10.6398L0.67419 12.871C0.483603 13.0648 0.483603 13.3773 0.67419 13.571Z" fill="url(#paint28_linear_638_190173)"/>
<path d="M8.52286 12.196L8.79468 11.9241C8.96964 11.7491 9.1571 11.5866 9.35706 11.4398L10.7349 10.4241C10.9349 10.2773 11.0317 10.0304 10.988 9.78666C10.988 9.78041 10.9849 9.77416 10.9849 9.76791C10.8974 9.29916 10.3475 9.08354 9.96319 9.36791L8.70719 10.2929L8.70407 10.2898L8.83217 10.1742L8.75406 10.2367L7.57617 11.2491L8.52286 12.196Z" fill="url(#paint29_linear_638_190173)"/>
<path d="M4.93623 8.60779V8.00467C4.93623 7.47968 4.51132 7.05469 3.98955 7.05469C3.85207 7.05469 3.72398 7.11094 3.63337 7.20156C3.54276 7.29218 3.48652 7.41718 3.48652 7.55781L3.4834 10.0609L4.93623 8.60779Z" fill="url(#paint30_linear_638_190173)"/>
<path d="M4.93623 8.60779V8.00467C4.93623 7.47968 4.51132 7.05469 3.98955 7.05469C3.85207 7.05469 3.72398 7.11094 3.63337 7.20156C3.54276 7.29218 3.48652 7.41718 3.48652 7.55781L3.4834 10.0609L4.93623 8.60779Z" fill="url(#paint31_linear_638_190173)"/>
<path d="M8.03902 5.77503C8.0359 5.77191 8.03277 5.77191 8.02652 5.76878C7.75783 5.62816 7.42665 5.69378 7.22981 5.92815L5.21459 8.33437L5.21147 8.3375L4.93652 8.61249L5.88633 9.56248L6.84864 8.425L8.23586 6.76877C8.50455 6.45002 8.4077 5.96565 8.03902 5.77503Z" fill="url(#paint32_linear_638_190173)"/>
<path d="M8.03902 5.77503C8.0359 5.77191 8.03277 5.77191 8.02652 5.76878C7.75783 5.62816 7.42665 5.69378 7.22981 5.92815L5.21459 8.33437L5.21147 8.3375L4.93652 8.61249L5.88633 9.56248L6.84864 8.425L8.23586 6.76877C8.50455 6.45002 8.4077 5.96565 8.03902 5.77503Z" fill="url(#paint33_linear_638_190173)"/>
<path d="M7.62582 11.005L10.2284 9.20505L10.9189 8.49881C11.172 8.24568 9.68791 7.0332 9.43171 6.78008C9.42858 6.77695 9.42546 6.77383 9.42233 6.7707C9.16926 6.52071 8.75997 6.51758 8.50689 6.7707L8.2507 7.02695L6.8541 8.42381L6.85098 8.42068L5.88867 9.56129L7.62582 11.005Z" fill="url(#paint34_linear_638_190173)"/>
<path d="M5.85829 14.2812L2.4996 10.9219L0.678089 12.7437C0.562487 12.8593 0.5 13.0156 0.5 13.1781V15.9281C0.5 16.2437 0.756198 16.4999 1.07488 16.4999H3.38692C3.54939 16.4999 3.7056 16.4343 3.81808 16.3218L5.85829 14.2812Z" fill="url(#paint35_linear_638_190173)"/>
<path d="M5.05221 15.0879H0.5V15.9285C0.5 16.2441 0.756198 16.5004 1.07488 16.5004H3.38692C3.54939 16.5004 3.7056 16.4347 3.81808 16.3222L5.05221 15.0879Z" fill="url(#paint36_linear_638_190173)"/>
<path d="M0.84375 12.5781L2.49967 10.9219L5.85836 14.2781L4.19932 15.9374L0.84375 12.5781Z" fill="url(#paint37_linear_638_190173)"/>
<path d="M1.27832 12.1437V16.4999H3.38415C3.54661 16.4999 3.70283 16.4343 3.81531 16.3218L5.85552 14.2812L2.49995 10.9219L1.27832 12.1437Z" fill="url(#paint38_linear_638_190173)"/>
<path d="M6.18951 14.2687L5.36155 15.0968C5.25532 15.2031 5.08348 15.2031 4.97725 15.0968L1.68416 11.8C1.57794 11.6937 1.57794 11.5219 1.68416 11.4156L2.51212 10.5875C2.61835 10.4813 2.79019 10.4813 2.89642 10.5875L6.18951 13.8812C6.29573 13.9906 6.29573 14.1625 6.18951 14.2687Z" fill="url(#paint39_linear_638_190173)"/>
<path d="M1.68416 11.8L4.97725 15.0937C5.08348 15.1999 5.25532 15.1999 5.36155 15.0937L5.93331 14.5218L2.25592 10.8438L1.68416 11.4156C1.57794 11.5219 1.57794 11.6937 1.68416 11.8Z" fill="url(#paint40_linear_638_190173)"/>
<path d="M3.34277 13.4625L4.97682 15.0937C5.08305 15.2 5.25489 15.2 5.36112 15.0937L6.18907 14.2656C6.2953 14.1593 6.2953 13.9875 6.18907 13.8812L4.55503 12.25L3.34277 13.4625Z" fill="url(#paint41_linear_638_190173)"/>
<path d="M9.77968 6.00559C9.77343 6.00559 9.76718 6.00871 9.76093 6.00871C9.29228 6.09621 9.07669 6.6462 9.36101 7.03057L10.2858 8.28681L10.2827 8.28993L9.15793 7.02432L8.89548 6.72745C8.69865 6.50558 8.37371 6.44308 8.11126 6.5837C8.10501 6.58683 8.09877 6.58995 8.09252 6.59308C7.72072 6.78995 7.63323 7.28369 7.9113 7.59619L8.13938 7.85244L9.35476 9.22117L9.35164 9.22429L8.0519 7.92431L7.69885 7.56182C7.44577 7.30869 7.03336 7.30557 6.78028 7.56182C6.77716 7.56494 6.77403 7.56807 6.77091 7.57119C6.52096 7.82431 6.51783 8.23368 6.77091 8.4868L7.02711 8.74305L8.4237 10.1399L8.42058 10.143L6.76466 8.75243C6.60532 8.61805 6.40536 8.57743 6.22102 8.6118C6.03668 8.64618 5.86797 8.76493 5.77111 8.9493C5.76799 8.95242 5.76799 8.95555 5.76486 8.9618C5.62426 9.23054 5.68988 9.56179 5.9242 9.75866L8.32997 11.7743L8.33309 11.7774L8.60804 12.0524H8.00503C7.48014 12.0524 7.05523 12.4774 7.05523 13.0024C7.05523 13.143 7.11146 13.268 7.20207 13.3586C7.29268 13.4492 7.41765 13.5055 7.55825 13.5055H9.24541C9.76718 13.5055 10.2671 13.7117 10.6358 14.0836L12.8666 16.3148C13.0603 16.5086 13.3727 16.5086 13.5633 16.3148L16.1097 13.768C16.3034 13.5742 16.3034 13.2617 16.1097 13.0711L13.9257 10.8868C13.7632 10.7243 13.6476 10.518 13.5977 10.2962C13.5164 9.95241 13.3446 9.62741 13.0759 9.35867L11.9167 8.19931V8.19618C11.7418 8.02118 11.5793 7.83369 11.4325 7.63057L10.417 6.25246C10.2733 6.05871 10.0265 5.95871 9.77968 6.00559Z" fill="url(#paint42_linear_638_190173)"/>
<path d="M13.5699 16.3233L16.1163 13.7765C16.31 13.5828 16.31 13.2703 16.1163 13.0796L13.9324 10.8953C13.7699 10.7328 13.6543 10.5265 13.6043 10.3047C13.5231 9.96092 13.3512 9.63593 13.0825 9.36718L12.5514 8.83594L7.87109 13.5109H9.24894C9.77071 13.5109 10.2706 13.7171 10.6393 14.089L12.8701 16.3202C13.0638 16.514 13.3762 16.514 13.5699 16.3233Z" fill="url(#paint43_linear_638_190173)"/>
<path d="M12.1945 8.47438L11.9226 8.20251V8.19939C11.7477 8.02439 11.5852 7.83689 11.4384 7.63377L10.4229 6.25566C10.2761 6.05567 10.0293 5.95879 9.78558 6.00254C9.77933 6.00254 9.77308 6.00567 9.76683 6.00567C9.29818 6.09316 9.08259 6.64316 9.36691 7.02753L10.2917 8.28376L10.2886 8.28689L11.2509 9.41812L12.1945 8.47438Z" fill="url(#paint44_linear_638_190173)"/>
<path d="M12.1945 8.47438L11.9226 8.20251V8.19939C11.7477 8.02439 11.5852 7.83689 11.4384 7.63377L10.4229 6.25566C10.2761 6.05567 10.0293 5.95879 9.78558 6.00254C9.77933 6.00254 9.77308 6.00567 9.76683 6.00567C9.29818 6.09316 9.08259 6.64316 9.36691 7.02753L10.2917 8.28376L11.2509 9.42125L12.1945 8.47438Z" fill="url(#paint45_linear_638_190173)"/>
<path d="M8.60848 12.0625H8.00547C7.48058 12.0625 7.05566 12.4875 7.05566 13.0125C7.05566 13.1531 7.1119 13.2781 7.20251 13.3687C7.29312 13.4594 7.41809 13.5156 7.55869 13.5156L10.0613 13.5187L8.60848 12.0625Z" fill="url(#paint46_linear_638_190173)"/>
<path d="M8.60848 12.0625H8.00547C7.48058 12.0625 7.05566 12.4875 7.05566 13.0125C7.05566 13.1531 7.1119 13.2781 7.20251 13.3687C7.29312 13.4594 7.41809 13.5156 7.55869 13.5156L10.0613 13.5187L8.60848 12.0625Z" fill="url(#paint47_linear_638_190173)"/>
<path d="M5.77404 8.95819C5.77092 8.96132 5.77092 8.96444 5.76779 8.97069C5.62719 9.23944 5.69281 9.57068 5.92713 9.76756L8.3329 11.7832L8.33602 11.7863L8.61097 12.0613L9.56078 11.1113L8.42351 10.1488L6.76759 8.75819C6.4489 8.49257 5.96463 8.58945 5.77404 8.95819Z" fill="url(#paint48_linear_638_190173)"/>
<path d="M5.77404 8.95819C5.77092 8.96132 5.77092 8.96444 5.76779 8.97069C5.62719 9.23944 5.69281 9.57068 5.92713 9.76756L8.3329 11.7832L8.33602 11.7863L8.61097 12.0613L9.56078 11.1113L8.42351 10.1488L6.76759 8.75819C6.4489 8.49257 5.96463 8.58945 5.77404 8.95819Z" fill="url(#paint49_linear_638_190173)"/>
<path d="M10.4043 10.2652L9.35452 9.21834L9.3514 9.22146L8.05166 7.92148L7.6986 7.56211C7.44553 7.30899 7.03311 7.30586 6.78004 7.56211C6.77692 7.56523 6.77379 7.56836 6.77067 7.57148C6.52072 7.82461 6.51759 8.23398 6.77067 8.4871L7.02687 8.74334L8.42346 10.1402L8.42033 10.1433L9.55761 11.1058L10.4043 10.2652Z" fill="url(#paint50_linear_638_190173)"/>
<path d="M10.4043 10.2652L9.35452 9.21834L9.3514 9.22146L8.05166 7.92148L7.6986 7.56211C7.44553 7.30899 7.03311 7.30586 6.78004 7.56211C6.77692 7.56523 6.77379 7.56836 6.77067 7.57148C6.52072 7.82461 6.51759 8.23398 6.77067 8.4871L7.02687 8.74334L8.42346 10.1402L8.42033 10.1433L9.55761 11.1058L10.4043 10.2652Z" fill="url(#paint51_linear_638_190173)"/>
<path d="M9.15829 7.02337L8.89584 6.7265C8.69901 6.50463 8.37407 6.44213 8.1085 6.58275C8.10225 6.58588 8.096 6.589 8.08975 6.59213C7.72108 6.789 7.6336 7.28274 7.91167 7.59524L8.13974 7.85149L9.35512 9.22022L9.352 9.22334L10.4018 10.2702L11.2454 9.42647L10.2831 8.29523L9.15829 7.02337Z" fill="url(#paint52_linear_638_190173)"/>
<path d="M9.15829 7.02337L8.89584 6.7265C8.69901 6.50463 8.37407 6.44213 8.1085 6.58275C8.10225 6.58588 8.096 6.589 8.08975 6.59213C7.72108 6.789 7.6336 7.28274 7.91167 7.59524L8.13974 7.85149L9.35512 9.22022L9.352 9.22334L10.4018 10.2702L11.2454 9.42647L10.2831 8.29523L9.15829 7.02337Z" fill="url(#paint53_linear_638_190173)"/>
<path d="M14.2786 11.1406L10.9199 14.5L12.7414 16.3218C12.857 16.4374 13.0133 16.4999 13.1757 16.4999H15.9252C16.2407 16.4999 16.5 16.2437 16.5 15.9249V13.6125C16.5 13.45 16.4344 13.2937 16.322 13.1781L14.2786 11.1406Z" fill="url(#paint54_linear_638_190173)"/>
<path d="M15.085 11.9453V16.4984H15.9254C16.241 16.4984 16.5003 16.2421 16.5003 15.9234V13.6109C16.5003 13.4484 16.4347 13.2922 16.3222 13.1765L15.085 11.9453Z" fill="url(#paint55_linear_638_190173)"/>
<path d="M11.1293 14.2902L10.9199 14.4996L12.7414 16.3215C12.857 16.4371 13.0133 16.4996 13.1757 16.4996H15.9252C16.2407 16.4996 16.5 16.2433 16.5 15.9246V14.2871L11.1293 14.2902Z" fill="url(#paint56_linear_638_190173)"/>
<path d="M10.9199 14.5L14.2786 11.1406L15.9345 12.7969L12.5758 16.1562L10.9199 14.5Z" fill="url(#paint57_linear_638_190173)"/>
<path d="M14.266 10.8078L15.094 11.6359C15.2002 11.7422 15.2002 11.914 15.094 12.0203L11.7978 15.314C11.6916 15.4203 11.5197 15.4203 11.4135 15.314L10.5855 14.4859C10.4793 14.3796 10.4793 14.2078 10.5855 14.1015L13.8786 10.8078C13.988 10.7047 14.1598 10.7047 14.266 10.8078Z" fill="url(#paint58_linear_638_190173)"/>
<path d="M15.0941 12.0207L11.7979 15.3144C11.6916 15.4206 11.5198 15.4206 11.4136 15.3144L10.8418 14.7425L14.5192 11.0645L15.0909 11.6363C15.1972 11.7426 15.1972 11.9144 15.0941 12.0207Z" fill="url(#paint59_linear_638_190173)"/>
<path d="M13.4318 13.6824L11.7978 15.3136C11.6916 15.4199 11.5197 15.4199 11.4135 15.3136L10.5855 14.4855C10.4793 14.3793 10.4793 14.2074 10.5855 14.1012L12.2165 12.4668L13.4318 13.6824Z" fill="url(#paint60_linear_638_190173)"/>
<defs>
<linearGradient id="paint0_linear_638_190173" x1="6.89639" y1="4.12369" x2="4.43087" y2="8.47479" gradientUnits="userSpaceOnUse">
<stop stop-color="#FFDFCF"/>
<stop offset="1" stop-color="#FFA78F"/>
</linearGradient>
<linearGradient id="paint1_linear_638_190173" x1="6.28558" y1="5.7766" x2="7.35488" y2="6.57859" gradientUnits="userSpaceOnUse">
<stop stop-color="#F89580" stop-opacity="0"/>
<stop offset="0.1" stop-color="#F5937E" stop-opacity="0.05"/>
<stop offset="0.27" stop-color="#EE8E79" stop-opacity="0.18"/>
<stop offset="0.49" stop-color="#E38671" stop-opacity="0.39"/>
<stop offset="0.75" stop-color="#D57C65" stop-opacity="0.69"/>
<stop offset="1" stop-color="#C5715A"/>
</linearGradient>
<linearGradient id="paint2_linear_638_190173" x1="5.75212" y1="4.79138" x2="4.97213" y2="4.01123" gradientUnits="userSpaceOnUse">
<stop stop-color="#F89580" stop-opacity="0"/>
<stop offset="0.1" stop-color="#F5937E" stop-opacity="0.05"/>
<stop offset="0.27" stop-color="#EE8E79" stop-opacity="0.18"/>
<stop offset="0.49" stop-color="#E38671" stop-opacity="0.39"/>
<stop offset="0.75" stop-color="#D57C65" stop-opacity="0.69"/>
<stop offset="1" stop-color="#C5715A"/>
</linearGradient>
<linearGradient id="paint3_linear_638_190173" x1="3.28819" y1="0.744684" x2="3.28819" y2="4.73932" gradientUnits="userSpaceOnUse">
<stop stop-color="#C9F6B0"/>
<stop offset="1" stop-color="#0AB69F"/>
</linearGradient>
<linearGradient id="paint4_linear_638_190173" x1="1.77259" y1="3.1832" x2="0.830725" y2="4.12488" gradientUnits="userSpaceOnUse">
<stop stop-color="#037E73" stop-opacity="0"/>
<stop offset="0.15" stop-color="#037E73" stop-opacity="0.04"/>
<stop offset="0.34" stop-color="#037E73" stop-opacity="0.16"/>
<stop offset="0.55" stop-color="#037E73" stop-opacity="0.36"/>
<stop offset="0.77" stop-color="#037E73" stop-opacity="0.64"/>
<stop offset="1" stop-color="#037E73"/>
</linearGradient>
<linearGradient id="paint5_linear_638_190173" x1="3.14086" y1="2.92191" x2="3.67586" y2="3.4568" gradientUnits="userSpaceOnUse">
<stop stop-color="#037E73" stop-opacity="0"/>
<stop offset="0.15" stop-color="#037E73" stop-opacity="0.04"/>
<stop offset="0.34" stop-color="#037E73" stop-opacity="0.16"/>
<stop offset="0.55" stop-color="#037E73" stop-opacity="0.36"/>
<stop offset="0.77" stop-color="#037E73" stop-opacity="0.64"/>
<stop offset="1" stop-color="#037E73"/>
</linearGradient>
<linearGradient id="paint6_linear_638_190173" x1="3.65094" y1="3.4307" x2="4.70689" y2="4.48642" gradientUnits="userSpaceOnUse">
<stop stop-color="#EAF6FF"/>
<stop offset="1" stop-color="#B4D2E2"/>
</linearGradient>
<linearGradient id="paint7_linear_638_190173" x1="4.26922" y1="4.04857" x2="4.79484" y2="4.57409" gradientUnits="userSpaceOnUse">
<stop stop-color="#3692BC" stop-opacity="0"/>
<stop offset="0.12" stop-color="#3692BC" stop-opacity="0.03"/>
<stop offset="0.27" stop-color="#3692BC" stop-opacity="0.1"/>
<stop offset="0.43" stop-color="#3692BC" stop-opacity="0.23"/>
<stop offset="0.6" stop-color="#3692BC" stop-opacity="0.41"/>
<stop offset="0.77" stop-color="#3692BC" stop-opacity="0.64"/>
<stop offset="0.95" stop-color="#3692BC" stop-opacity="0.92"/>
<stop offset="1" stop-color="#3692BC"/>
</linearGradient>
<linearGradient id="paint8_linear_638_190173" x1="5.48242" y1="2.61111" x2="6.1496" y2="1.94437" gradientUnits="userSpaceOnUse">
<stop stop-color="#3692BC" stop-opacity="0"/>
<stop offset="0.12" stop-color="#3692BC" stop-opacity="0.03"/>
<stop offset="0.27" stop-color="#3692BC" stop-opacity="0.1"/>
<stop offset="0.43" stop-color="#3692BC" stop-opacity="0.23"/>
<stop offset="0.6" stop-color="#3692BC" stop-opacity="0.41"/>
<stop offset="0.77" stop-color="#3692BC" stop-opacity="0.64"/>
<stop offset="0.95" stop-color="#3692BC" stop-opacity="0.92"/>
<stop offset="1" stop-color="#3692BC"/>
</linearGradient>
<linearGradient id="paint9_linear_638_190173" x1="9.94087" y1="3.72954" x2="12.4807" y2="7.79843" gradientUnits="userSpaceOnUse">
<stop stop-color="#FFDFCF"/>
<stop offset="1" stop-color="#FFA78F"/>
</linearGradient>
<linearGradient id="paint10_linear_638_190173" x1="11.6316" y1="5.81873" x2="10.3393" y2="8.0613" gradientUnits="userSpaceOnUse">
<stop stop-color="#F89580" stop-opacity="0"/>
<stop offset="0.1" stop-color="#F5937E" stop-opacity="0.05"/>
<stop offset="0.27" stop-color="#EE8E79" stop-opacity="0.18"/>
<stop offset="0.49" stop-color="#E38671" stop-opacity="0.39"/>
<stop offset="0.75" stop-color="#D57C65" stop-opacity="0.69"/>
<stop offset="1" stop-color="#C5715A"/>
</linearGradient>
<linearGradient id="paint11_linear_638_190173" x1="12.2044" y1="5.7519" x2="12.9844" y2="4.97206" gradientUnits="userSpaceOnUse">
<stop stop-color="#F89580" stop-opacity="0"/>
<stop offset="0.1" stop-color="#F5937E" stop-opacity="0.05"/>
<stop offset="0.27" stop-color="#EE8E79" stop-opacity="0.18"/>
<stop offset="0.49" stop-color="#E38671" stop-opacity="0.39"/>
<stop offset="0.75" stop-color="#D57C65" stop-opacity="0.69"/>
<stop offset="1" stop-color="#C5715A"/>
</linearGradient>
<linearGradient id="paint12_linear_638_190173" x1="13.1842" y1="8.5485" x2="12.4567" y2="9.06836" gradientUnits="userSpaceOnUse">
<stop stop-color="#F89580" stop-opacity="0"/>
<stop offset="0.1" stop-color="#F5937E" stop-opacity="0.05"/>
<stop offset="0.27" stop-color="#EE8E79" stop-opacity="0.18"/>
<stop offset="0.49" stop-color="#E38671" stop-opacity="0.39"/>
<stop offset="0.75" stop-color="#D57C65" stop-opacity="0.69"/>
<stop offset="1" stop-color="#C5715A"/>
</linearGradient>
<linearGradient id="paint13_linear_638_190173" x1="10.4883" y1="9.82227" x2="10.9005" y2="10.3125" gradientUnits="userSpaceOnUse">
<stop stop-color="#F89580" stop-opacity="0"/>
<stop offset="0.1" stop-color="#F5937E" stop-opacity="0.05"/>
<stop offset="0.27" stop-color="#EE8E79" stop-opacity="0.18"/>
<stop offset="0.49" stop-color="#E38671" stop-opacity="0.39"/>
<stop offset="0.75" stop-color="#D57C65" stop-opacity="0.69"/>
<stop offset="1" stop-color="#C5715A"/>
</linearGradient>
<linearGradient id="paint14_linear_638_190173" x1="9.854" y1="9.29049" x2="8.87386" y2="9.0234" gradientUnits="userSpaceOnUse">
<stop stop-color="white" stop-opacity="0"/>
<stop offset="0.09" stop-color="white" stop-opacity="0.02"/>
<stop offset="0.22" stop-color="white" stop-opacity="0.09"/>
<stop offset="0.36" stop-color="white" stop-opacity="0.2"/>
<stop offset="0.52" stop-color="white" stop-opacity="0.36"/>
<stop offset="0.69" stop-color="white" stop-opacity="0.56"/>
<stop offset="0.87" stop-color="white" stop-opacity="0.8"/>
<stop offset="1" stop-color="white"/>
</linearGradient>
<linearGradient id="paint15_linear_638_190173" x1="9.39395" y1="8.89611" x2="9.79489" y2="9.36384" gradientUnits="userSpaceOnUse">
<stop stop-color="#F89580" stop-opacity="0"/>
<stop offset="0.1" stop-color="#F5937E" stop-opacity="0.05"/>
<stop offset="0.27" stop-color="#EE8E79" stop-opacity="0.18"/>
<stop offset="0.49" stop-color="#E38671" stop-opacity="0.39"/>
<stop offset="0.75" stop-color="#D57C65" stop-opacity="0.69"/>
<stop offset="1" stop-color="#C5715A"/>
</linearGradient>
<linearGradient id="paint16_linear_638_190173" x1="8.32657" y1="8.23649" x2="7.84758" y2="8.06968" gradientUnits="userSpaceOnUse">
<stop stop-color="white" stop-opacity="0"/>
<stop offset="0.09" stop-color="white" stop-opacity="0.02"/>
<stop offset="0.22" stop-color="white" stop-opacity="0.09"/>
<stop offset="0.36" stop-color="white" stop-opacity="0.2"/>
<stop offset="0.52" stop-color="white" stop-opacity="0.36"/>
<stop offset="0.69" stop-color="white" stop-opacity="0.56"/>
<stop offset="0.87" stop-color="white" stop-opacity="0.8"/>
<stop offset="1" stop-color="white"/>
</linearGradient>
<linearGradient id="paint17_linear_638_190173" x1="8.58565" y1="7.98867" x2="8.90879" y2="8.46736" gradientUnits="userSpaceOnUse">
<stop stop-color="#F89580" stop-opacity="0"/>
<stop offset="0.1" stop-color="#F5937E" stop-opacity="0.05"/>
<stop offset="0.27" stop-color="#EE8E79" stop-opacity="0.18"/>
<stop offset="0.49" stop-color="#E38671" stop-opacity="0.39"/>
<stop offset="0.75" stop-color="#D57C65" stop-opacity="0.69"/>
<stop offset="1" stop-color="#C5715A"/>
</linearGradient>
<linearGradient id="paint18_linear_638_190173" x1="7.57357" y1="7.31815" x2="6.82745" y2="7.1176" gradientUnits="userSpaceOnUse">
<stop stop-color="white" stop-opacity="0"/>
<stop offset="0.09" stop-color="white" stop-opacity="0.02"/>
<stop offset="0.22" stop-color="white" stop-opacity="0.09"/>
<stop offset="0.36" stop-color="white" stop-opacity="0.2"/>
<stop offset="0.52" stop-color="white" stop-opacity="0.36"/>
<stop offset="0.69" stop-color="white" stop-opacity="0.56"/>
<stop offset="0.87" stop-color="white" stop-opacity="0.8"/>
<stop offset="1" stop-color="white"/>
</linearGradient>
<linearGradient id="paint19_linear_638_190173" x1="12.7106" y1="1.84489" x2="16.5308" y2="3.98643" gradientUnits="userSpaceOnUse">
<stop stop-color="#FEE45A"/>
<stop offset="1" stop-color="#FEA613"/>
</linearGradient>
<linearGradient id="paint20_linear_638_190173" x1="15.3115" y1="3.28871" x2="16.4919" y2="3.28871" gradientUnits="userSpaceOnUse">
<stop stop-color="#FE9738" stop-opacity="0"/>
<stop offset="0.1" stop-color="#FE9738" stop-opacity="0.02"/>
<stop offset="0.23" stop-color="#FE9738" stop-opacity="0.08"/>
<stop offset="0.36" stop-color="#FE9738" stop-opacity="0.17"/>
<stop offset="0.5" stop-color="#FE9738" stop-opacity="0.31"/>
<stop offset="0.65" stop-color="#FE9738" stop-opacity="0.48"/>
<stop offset="0.81" stop-color="#FE9738" stop-opacity="0.69"/>
<stop offset="0.96" stop-color="#FE9738" stop-opacity="0.94"/>
<stop offset="1" stop-color="#FE9738"/>
</linearGradient>
<linearGradient id="paint21_linear_638_190173" x1="14.0736" y1="3.14188" x2="13.5386" y2="3.67677" gradientUnits="userSpaceOnUse">
<stop stop-color="#FE9738" stop-opacity="0"/>
<stop offset="0.1" stop-color="#FE9738" stop-opacity="0.02"/>
<stop offset="0.23" stop-color="#FE9738" stop-opacity="0.08"/>
<stop offset="0.36" stop-color="#FE9738" stop-opacity="0.17"/>
<stop offset="0.5" stop-color="#FE9738" stop-opacity="0.31"/>
<stop offset="0.65" stop-color="#FE9738" stop-opacity="0.48"/>
<stop offset="0.81" stop-color="#FE9738" stop-opacity="0.69"/>
<stop offset="0.96" stop-color="#FE9738" stop-opacity="0.94"/>
<stop offset="1" stop-color="#FE9738"/>
</linearGradient>
<linearGradient id="paint22_linear_638_190173" x1="13.5672" y1="3.65027" x2="12.511" y2="4.70631" gradientUnits="userSpaceOnUse">
<stop stop-color="#EAF6FF"/>
<stop offset="1" stop-color="#B4D2E2"/>
</linearGradient>
<linearGradient id="paint23_linear_638_190173" x1="12.9491" y1="4.26874" x2="12.4235" y2="4.79394" gradientUnits="userSpaceOnUse">
<stop stop-color="#3692BC" stop-opacity="0"/>
<stop offset="0.12" stop-color="#3692BC" stop-opacity="0.03"/>
<stop offset="0.27" stop-color="#3692BC" stop-opacity="0.1"/>
<stop offset="0.43" stop-color="#3692BC" stop-opacity="0.23"/>
<stop offset="0.6" stop-color="#3692BC" stop-opacity="0.41"/>
<stop offset="0.77" stop-color="#3692BC" stop-opacity="0.64"/>
<stop offset="0.95" stop-color="#3692BC" stop-opacity="0.92"/>
<stop offset="1" stop-color="#3692BC"/>
</linearGradient>
<linearGradient id="paint24_linear_638_190173" x1="14.3867" y1="5.48065" x2="15.0539" y2="6.14739" gradientUnits="userSpaceOnUse">
<stop stop-color="#3692BC" stop-opacity="0"/>
<stop offset="0.12" stop-color="#3692BC" stop-opacity="0.03"/>
<stop offset="0.27" stop-color="#3692BC" stop-opacity="0.1"/>
<stop offset="0.43" stop-color="#3692BC" stop-opacity="0.23"/>
<stop offset="0.6" stop-color="#3692BC" stop-opacity="0.41"/>
<stop offset="0.77" stop-color="#3692BC" stop-opacity="0.64"/>
<stop offset="0.95" stop-color="#3692BC" stop-opacity="0.92"/>
<stop offset="1" stop-color="#3692BC"/>
</linearGradient>
<linearGradient id="paint25_linear_638_190173" x1="4.20999" y1="8.521" x2="6.95022" y2="13.3102" gradientUnits="userSpaceOnUse">
<stop stop-color="#FFDFCF"/>
<stop offset="1" stop-color="#FFA78F"/>
</linearGradient>
<linearGradient id="paint26_linear_638_190173" x1="6.37921" y1="11.8099" x2="7.42611" y2="13.1019" gradientUnits="userSpaceOnUse">
<stop stop-color="#F89580" stop-opacity="0"/>
<stop offset="0.1" stop-color="#F5937E" stop-opacity="0.05"/>
<stop offset="0.27" stop-color="#EE8E79" stop-opacity="0.18"/>
<stop offset="0.49" stop-color="#E38671" stop-opacity="0.39"/>
<stop offset="0.75" stop-color="#D57C65" stop-opacity="0.69"/>
<stop offset="1" stop-color="#C5715A"/>
</linearGradient>
<linearGradient id="paint27_linear_638_190173" x1="6.42419" y1="11.817" x2="7.83866" y2="11.2825" gradientUnits="userSpaceOnUse">
<stop stop-color="#F89580" stop-opacity="0"/>
<stop offset="0.1" stop-color="#F5937E" stop-opacity="0.05"/>
<stop offset="0.27" stop-color="#EE8E79" stop-opacity="0.18"/>
<stop offset="0.49" stop-color="#E38671" stop-opacity="0.39"/>
<stop offset="0.75" stop-color="#D57C65" stop-opacity="0.69"/>
<stop offset="1" stop-color="#C5715A"/>
</linearGradient>
<linearGradient id="paint28_linear_638_190173" x1="4.7907" y1="11.2459" x2="4.01071" y2="12.0257" gradientUnits="userSpaceOnUse">
<stop stop-color="#F89580" stop-opacity="0"/>
<stop offset="0.1" stop-color="#F5937E" stop-opacity="0.05"/>
<stop offset="0.27" stop-color="#EE8E79" stop-opacity="0.18"/>
<stop offset="0.49" stop-color="#E38671" stop-opacity="0.39"/>
<stop offset="0.75" stop-color="#D57C65" stop-opacity="0.69"/>
<stop offset="1" stop-color="#C5715A"/>
</linearGradient>
<linearGradient id="paint29_linear_638_190173" x1="9.18132" y1="10.2457" x2="8.83596" y2="9.42133" gradientUnits="userSpaceOnUse">
<stop stop-color="#F89580" stop-opacity="0"/>
<stop offset="0.1" stop-color="#F5937E" stop-opacity="0.05"/>
<stop offset="0.27" stop-color="#EE8E79" stop-opacity="0.18"/>
<stop offset="0.49" stop-color="#E38671" stop-opacity="0.39"/>
<stop offset="0.75" stop-color="#D57C65" stop-opacity="0.69"/>
<stop offset="1" stop-color="#C5715A"/>
</linearGradient>
<linearGradient id="paint30_linear_638_190173" x1="4.31055" y1="8.56676" x2="5.12918" y2="8.58311" gradientUnits="userSpaceOnUse">
<stop stop-color="#F89580" stop-opacity="0"/>
<stop offset="0.1" stop-color="#F5937E" stop-opacity="0.05"/>
<stop offset="0.27" stop-color="#EE8E79" stop-opacity="0.18"/>
<stop offset="0.49" stop-color="#E38671" stop-opacity="0.39"/>
<stop offset="0.75" stop-color="#D57C65" stop-opacity="0.69"/>
<stop offset="1" stop-color="#C5715A"/>
</linearGradient>
<linearGradient id="paint31_linear_638_190173" x1="4.33335" y1="7.84952" x2="4.90149" y2="7.19245" gradientUnits="userSpaceOnUse">
<stop stop-color="white" stop-opacity="0"/>
<stop offset="0.09" stop-color="white" stop-opacity="0.02"/>
<stop offset="0.22" stop-color="white" stop-opacity="0.09"/>
<stop offset="0.36" stop-color="white" stop-opacity="0.2"/>
<stop offset="0.52" stop-color="white" stop-opacity="0.36"/>
<stop offset="0.69" stop-color="white" stop-opacity="0.56"/>
<stop offset="0.87" stop-color="white" stop-opacity="0.8"/>
<stop offset="1" stop-color="white"/>
</linearGradient>
<linearGradient id="paint32_linear_638_190173" x1="6.81758" y1="7.55579" x2="7.4266" y2="8.00099" gradientUnits="userSpaceOnUse">
<stop stop-color="#F89580" stop-opacity="0"/>
<stop offset="0.1" stop-color="#F5937E" stop-opacity="0.05"/>
<stop offset="0.27" stop-color="#EE8E79" stop-opacity="0.18"/>
<stop offset="0.49" stop-color="#E38671" stop-opacity="0.39"/>
<stop offset="0.75" stop-color="#D57C65" stop-opacity="0.69"/>
<stop offset="1" stop-color="#C5715A"/>
</linearGradient>
<linearGradient id="paint33_linear_638_190173" x1="6.5118" y1="7.14973" x2="6.12552" y2="6.55574" gradientUnits="userSpaceOnUse">
<stop stop-color="white" stop-opacity="0"/>
<stop offset="0.09" stop-color="white" stop-opacity="0.02"/>
<stop offset="0.22" stop-color="white" stop-opacity="0.09"/>
<stop offset="0.36" stop-color="white" stop-opacity="0.2"/>
<stop offset="0.52" stop-color="white" stop-opacity="0.36"/>
<stop offset="0.69" stop-color="white" stop-opacity="0.56"/>
<stop offset="0.87" stop-color="white" stop-opacity="0.8"/>
<stop offset="1" stop-color="white"/>
</linearGradient>
<linearGradient id="paint34_linear_638_190173" x1="6.39523" y1="6.86748" x2="8.24176" y2="8.71367" gradientUnits="userSpaceOnUse">
<stop stop-color="#F89580" stop-opacity="0"/>
<stop offset="0.1" stop-color="#F5937E" stop-opacity="0.05"/>
<stop offset="0.27" stop-color="#EE8E79" stop-opacity="0.18"/>
<stop offset="0.49" stop-color="#E38671" stop-opacity="0.39"/>
<stop offset="0.75" stop-color="#D57C65" stop-opacity="0.69"/>
<stop offset="1" stop-color="#C5715A"/>
</linearGradient>
<linearGradient id="paint35_linear_638_190173" x1="1.50255" y1="12.6403" x2="3.66362" y2="15.9258" gradientUnits="userSpaceOnUse">
<stop stop-color="#FE646F"/>
<stop offset="1" stop-color="#E41F2D"/>
</linearGradient>
<linearGradient id="paint36_linear_638_190173" x1="2.77564" y1="15.8041" x2="2.77564" y2="16.6294" gradientUnits="userSpaceOnUse">
<stop stop-color="#A72B2B" stop-opacity="0"/>
<stop offset="0.12" stop-color="#A72B2B" stop-opacity="0.04"/>
<stop offset="0.29" stop-color="#A72B2B" stop-opacity="0.15"/>
<stop offset="0.48" stop-color="#A72B2B" stop-opacity="0.33"/>
<stop offset="0.7" stop-color="#A72B2B" stop-opacity="0.59"/>
<stop offset="0.94" stop-color="#A72B2B" stop-opacity="0.91"/>
<stop offset="1" stop-color="#A72B2B"/>
</linearGradient>
<linearGradient id="paint37_linear_638_190173" x1="2.92274" y1="13.8569" x2="3.45804" y2="13.3217" gradientUnits="userSpaceOnUse">
<stop stop-color="#A72B2B" stop-opacity="0"/>
<stop offset="0.12" stop-color="#A72B2B" stop-opacity="0.04"/>
<stop offset="0.29" stop-color="#A72B2B" stop-opacity="0.15"/>
<stop offset="0.48" stop-color="#A72B2B" stop-opacity="0.33"/>
<stop offset="0.7" stop-color="#A72B2B" stop-opacity="0.59"/>
<stop offset="0.94" stop-color="#A72B2B" stop-opacity="0.91"/>
<stop offset="1" stop-color="#A72B2B"/>
</linearGradient>
<linearGradient id="paint38_linear_638_190173" x1="3.39924" y1="15.2205" x2="4.11266" y2="15.9335" gradientUnits="userSpaceOnUse">
<stop stop-color="#A72B2B" stop-opacity="0"/>
<stop offset="0.12" stop-color="#A72B2B" stop-opacity="0.04"/>
<stop offset="0.29" stop-color="#A72B2B" stop-opacity="0.15"/>
<stop offset="0.48" stop-color="#A72B2B" stop-opacity="0.33"/>
<stop offset="0.7" stop-color="#A72B2B" stop-opacity="0.59"/>
<stop offset="0.94" stop-color="#A72B2B" stop-opacity="0.91"/>
<stop offset="1" stop-color="#A72B2B"/>
</linearGradient>
<linearGradient id="paint39_linear_638_190173" x1="4.44186" y1="12.3361" x2="3.38562" y2="13.3921" gradientUnits="userSpaceOnUse">
<stop stop-color="#EAF6FF"/>
<stop offset="1" stop-color="#B4D2E2"/>
</linearGradient>
<linearGradient id="paint40_linear_638_190173" x1="3.82301" y1="12.9549" x2="3.29771" y2="13.4801" gradientUnits="userSpaceOnUse">
<stop stop-color="#3692BC" stop-opacity="0"/>
<stop offset="0.12" stop-color="#3692BC" stop-opacity="0.03"/>
<stop offset="0.27" stop-color="#3692BC" stop-opacity="0.1"/>
<stop offset="0.43" stop-color="#3692BC" stop-opacity="0.23"/>
<stop offset="0.6" stop-color="#3692BC" stop-opacity="0.41"/>
<stop offset="0.77" stop-color="#3692BC" stop-opacity="0.64"/>
<stop offset="0.95" stop-color="#3692BC" stop-opacity="0.92"/>
<stop offset="1" stop-color="#3692BC"/>
</linearGradient>
<linearGradient id="paint41_linear_638_190173" x1="5.2602" y1="14.1678" x2="5.92707" y2="14.8345" gradientUnits="userSpaceOnUse">
<stop stop-color="#3692BC" stop-opacity="0"/>
<stop offset="0.12" stop-color="#3692BC" stop-opacity="0.03"/>
<stop offset="0.27" stop-color="#3692BC" stop-opacity="0.1"/>
<stop offset="0.43" stop-color="#3692BC" stop-opacity="0.23"/>
<stop offset="0.6" stop-color="#3692BC" stop-opacity="0.41"/>
<stop offset="0.77" stop-color="#3692BC" stop-opacity="0.64"/>
<stop offset="0.95" stop-color="#3692BC" stop-opacity="0.92"/>
<stop offset="1" stop-color="#3692BC"/>
</linearGradient>
<linearGradient id="paint42_linear_638_190173" x1="12.0413" y1="8.22156" x2="10.036" y2="14.0878" gradientUnits="userSpaceOnUse">
<stop stop-color="#FFDFCF"/>
<stop offset="1" stop-color="#FFA78F"/>
</linearGradient>
<linearGradient id="paint43_linear_638_190173" x1="11.2452" y1="12.2058" x2="12.0252" y2="12.9856" gradientUnits="userSpaceOnUse">
<stop stop-color="#F89580" stop-opacity="0"/>
<stop offset="0.1" stop-color="#F5937E" stop-opacity="0.05"/>
<stop offset="0.27" stop-color="#EE8E79" stop-opacity="0.18"/>
<stop offset="0.49" stop-color="#E38671" stop-opacity="0.39"/>
<stop offset="0.75" stop-color="#D57C65" stop-opacity="0.69"/>
<stop offset="1" stop-color="#C5715A"/>
</linearGradient>
<linearGradient id="paint44_linear_638_190173" x1="10.2442" y1="7.81586" x2="9.42026" y2="8.16106" gradientUnits="userSpaceOnUse">
<stop stop-color="#F89580" stop-opacity="0"/>
<stop offset="0.1" stop-color="#F5937E" stop-opacity="0.05"/>
<stop offset="0.27" stop-color="#EE8E79" stop-opacity="0.18"/>
<stop offset="0.49" stop-color="#E38671" stop-opacity="0.39"/>
<stop offset="0.75" stop-color="#D57C65" stop-opacity="0.69"/>
<stop offset="1" stop-color="#C5715A"/>
</linearGradient>
<linearGradient id="paint45_linear_638_190173" x1="10.8059" y1="6.95875" x2="10.9397" y2="6.12314" gradientUnits="userSpaceOnUse">
<stop stop-color="white" stop-opacity="0"/>
<stop offset="0.09" stop-color="white" stop-opacity="0.02"/>
<stop offset="0.22" stop-color="white" stop-opacity="0.09"/>
<stop offset="0.36" stop-color="white" stop-opacity="0.2"/>
<stop offset="0.52" stop-color="white" stop-opacity="0.36"/>
<stop offset="0.69" stop-color="white" stop-opacity="0.56"/>
<stop offset="0.87" stop-color="white" stop-opacity="0.8"/>
<stop offset="1" stop-color="white"/>
</linearGradient>
<linearGradient id="paint46_linear_638_190173" x1="8.57547" y1="12.6867" x2="8.59182" y2="11.868" gradientUnits="userSpaceOnUse">
<stop stop-color="#F89580" stop-opacity="0"/>
<stop offset="0.1" stop-color="#F5937E" stop-opacity="0.05"/>
<stop offset="0.27" stop-color="#EE8E79" stop-opacity="0.18"/>
<stop offset="0.49" stop-color="#E38671" stop-opacity="0.39"/>
<stop offset="0.75" stop-color="#D57C65" stop-opacity="0.69"/>
<stop offset="1" stop-color="#C5715A"/>
</linearGradient>
<linearGradient id="paint47_linear_638_190173" x1="7.8505" y1="12.6656" x2="7.19334" y2="12.0976" gradientUnits="userSpaceOnUse">
<stop stop-color="white" stop-opacity="0"/>
<stop offset="0.09" stop-color="white" stop-opacity="0.02"/>
<stop offset="0.22" stop-color="white" stop-opacity="0.09"/>
<stop offset="0.36" stop-color="white" stop-opacity="0.2"/>
<stop offset="0.52" stop-color="white" stop-opacity="0.36"/>
<stop offset="0.69" stop-color="white" stop-opacity="0.56"/>
<stop offset="0.87" stop-color="white" stop-opacity="0.8"/>
<stop offset="1" stop-color="white"/>
</linearGradient>
<linearGradient id="paint48_linear_638_190173" x1="7.17454" y1="10.4899" x2="6.68456" y2="10.902" gradientUnits="userSpaceOnUse">
<stop stop-color="#F89580" stop-opacity="0"/>
<stop offset="0.1" stop-color="#F5937E" stop-opacity="0.05"/>
<stop offset="0.27" stop-color="#EE8E79" stop-opacity="0.18"/>
<stop offset="0.49" stop-color="#E38671" stop-opacity="0.39"/>
<stop offset="0.75" stop-color="#D57C65" stop-opacity="0.69"/>
<stop offset="1" stop-color="#C5715A"/>
</linearGradient>
<linearGradient id="paint49_linear_638_190173" x1="7.70624" y1="9.85549" x2="7.97378" y2="8.87522" gradientUnits="userSpaceOnUse">
<stop stop-color="white" stop-opacity="0"/>
<stop offset="0.09" stop-color="white" stop-opacity="0.02"/>
<stop offset="0.22" stop-color="white" stop-opacity="0.09"/>
<stop offset="0.36" stop-color="white" stop-opacity="0.2"/>
<stop offset="0.52" stop-color="white" stop-opacity="0.36"/>
<stop offset="0.69" stop-color="white" stop-opacity="0.56"/>
<stop offset="0.87" stop-color="white" stop-opacity="0.8"/>
<stop offset="1" stop-color="white"/>
</linearGradient>
<linearGradient id="paint50_linear_638_190173" x1="8.10046" y1="9.39527" x2="7.63267" y2="9.79612" gradientUnits="userSpaceOnUse">
<stop stop-color="#F89580" stop-opacity="0"/>
<stop offset="0.1" stop-color="#F5937E" stop-opacity="0.05"/>
<stop offset="0.27" stop-color="#EE8E79" stop-opacity="0.18"/>
<stop offset="0.49" stop-color="#E38671" stop-opacity="0.39"/>
<stop offset="0.75" stop-color="#D57C65" stop-opacity="0.69"/>
<stop offset="1" stop-color="#C5715A"/>
</linearGradient>
<linearGradient id="paint51_linear_638_190173" x1="8.76048" y1="8.32791" x2="8.92769" y2="7.84919" gradientUnits="userSpaceOnUse">
<stop stop-color="white" stop-opacity="0"/>
<stop offset="0.09" stop-color="white" stop-opacity="0.02"/>
<stop offset="0.22" stop-color="white" stop-opacity="0.09"/>
<stop offset="0.36" stop-color="white" stop-opacity="0.2"/>
<stop offset="0.52" stop-color="white" stop-opacity="0.36"/>
<stop offset="0.69" stop-color="white" stop-opacity="0.56"/>
<stop offset="0.87" stop-color="white" stop-opacity="0.8"/>
<stop offset="1" stop-color="white"/>
</linearGradient>
<linearGradient id="paint52_linear_638_190173" x1="9.00904" y1="8.58582" x2="8.53002" y2="8.90855" gradientUnits="userSpaceOnUse">
<stop stop-color="#F89580" stop-opacity="0"/>
<stop offset="0.1" stop-color="#F5937E" stop-opacity="0.05"/>
<stop offset="0.27" stop-color="#EE8E79" stop-opacity="0.18"/>
<stop offset="0.49" stop-color="#E38671" stop-opacity="0.39"/>
<stop offset="0.75" stop-color="#D57C65" stop-opacity="0.69"/>
<stop offset="1" stop-color="#C5715A"/>
</linearGradient>
<linearGradient id="paint53_linear_638_190173" x1="9.67925" y1="7.57361" x2="9.87959" y2="6.82739" gradientUnits="userSpaceOnUse">
<stop stop-color="white" stop-opacity="0"/>
<stop offset="0.09" stop-color="white" stop-opacity="0.02"/>
<stop offset="0.22" stop-color="white" stop-opacity="0.09"/>
<stop offset="0.36" stop-color="white" stop-opacity="0.2"/>
<stop offset="0.52" stop-color="white" stop-opacity="0.36"/>
<stop offset="0.69" stop-color="white" stop-opacity="0.56"/>
<stop offset="0.87" stop-color="white" stop-opacity="0.8"/>
<stop offset="1" stop-color="white"/>
</linearGradient>
<linearGradient id="paint54_linear_638_190173" x1="15.1524" y1="12.7128" x2="13.0098" y2="16.5333" gradientUnits="userSpaceOnUse">
<stop stop-color="#B3DAFE"/>
<stop offset="1" stop-color="#0182FC"/>
</linearGradient>
<linearGradient id="paint55_linear_638_190173" x1="15.8008" y1="14.2223" x2="16.6262" y2="14.2223" gradientUnits="userSpaceOnUse">
<stop stop-color="#0182FC" stop-opacity="0"/>
<stop offset="0.16" stop-color="#017EF2" stop-opacity="0.07"/>
<stop offset="0.4" stop-color="#0174D6" stop-opacity="0.25"/>
<stop offset="0.68" stop-color="#0163A8" stop-opacity="0.56"/>
<stop offset="0.99" stop-color="#014D69" stop-opacity="0.98"/>
<stop offset="1" stop-color="#024C67"/>
</linearGradient>
<linearGradient id="paint56_linear_638_190173" x1="13.7087" y1="15.3137" x2="13.7087" y2="16.4943" gradientUnits="userSpaceOnUse">
<stop stop-color="#0182FC" stop-opacity="0"/>
<stop offset="0.16" stop-color="#017EF2" stop-opacity="0.07"/>
<stop offset="0.4" stop-color="#0174D6" stop-opacity="0.25"/>
<stop offset="0.68" stop-color="#0163A8" stop-opacity="0.56"/>
<stop offset="0.99" stop-color="#014D69" stop-opacity="0.98"/>
<stop offset="1" stop-color="#024C67"/>
</linearGradient>
<linearGradient id="paint57_linear_638_190173" x1="13.8535" y1="14.0749" x2="13.3185" y2="13.5397" gradientUnits="userSpaceOnUse">
<stop stop-color="#0182FC" stop-opacity="0"/>
<stop offset="0.16" stop-color="#017EF2" stop-opacity="0.07"/>
<stop offset="0.4" stop-color="#0174D6" stop-opacity="0.25"/>
<stop offset="0.68" stop-color="#0163A8" stop-opacity="0.56"/>
<stop offset="0.99" stop-color="#014D69" stop-opacity="0.98"/>
<stop offset="1" stop-color="#024C67"/>
</linearGradient>
<linearGradient id="paint58_linear_638_190173" x1="12.3338" y1="12.556" x2="13.39" y2="13.612" gradientUnits="userSpaceOnUse">
<stop stop-color="#EAF6FF"/>
<stop offset="1" stop-color="#B4D2E2"/>
</linearGradient>
<linearGradient id="paint59_linear_638_190173" x1="12.9524" y1="13.175" x2="13.478" y2="13.7002" gradientUnits="userSpaceOnUse">
<stop stop-color="#3692BC" stop-opacity="0"/>
<stop offset="0.12" stop-color="#3692BC" stop-opacity="0.03"/>
<stop offset="0.27" stop-color="#3692BC" stop-opacity="0.1"/>
<stop offset="0.43" stop-color="#3692BC" stop-opacity="0.23"/>
<stop offset="0.6" stop-color="#3692BC" stop-opacity="0.41"/>
<stop offset="0.77" stop-color="#3692BC" stop-opacity="0.64"/>
<stop offset="0.95" stop-color="#3692BC" stop-opacity="0.92"/>
<stop offset="1" stop-color="#3692BC"/>
</linearGradient>
<linearGradient id="paint60_linear_638_190173" x1="11.515" y1="14.3871" x2="10.8482" y2="15.0538" gradientUnits="userSpaceOnUse">
<stop stop-color="#3692BC" stop-opacity="0"/>
<stop offset="0.12" stop-color="#3692BC" stop-opacity="0.03"/>
<stop offset="0.27" stop-color="#3692BC" stop-opacity="0.1"/>
<stop offset="0.43" stop-color="#3692BC" stop-opacity="0.23"/>
<stop offset="0.6" stop-color="#3692BC" stop-opacity="0.41"/>
<stop offset="0.77" stop-color="#3692BC" stop-opacity="0.64"/>
<stop offset="0.95" stop-color="#3692BC" stop-opacity="0.92"/>
<stop offset="1" stop-color="#3692BC"/>
</linearGradient>
</defs>
</svg>
