<svg xmlns="http://www.w3.org/2000/svg" xml:space="preserve" width="512" height="512" style="enable-background:new 0 0 512 512"><g xmlns="http://www.w3.org/2000/svg" fill="#6b7280"><path d="M151.033 55.7c0-30.713-24.987-55.7-55.7-55.7-73.894 3.06-73.873 108.352 0 111.4 30.714 0 55.7-24.987 55.7-55.7z" data-original="#000000"/><path d="M190.667 223.867v-17.133C185.415 80.229 5.205 80.327 0 206.733v17.133c0 8.284 6.716 15 15 15h160.667c8.284.001 15-6.715 15-14.999zM472.367 55.7c0-30.713-24.987-55.7-55.7-55.7-73.894 3.06-73.873 108.352 0 111.4 30.713 0 55.7-24.987 55.7-55.7zM416.667 111.4c-52.567 0-95.333 42.767-95.333 95.333v17.133c0 8.284 6.716 15 15 15H497c8.284 0 15-6.716 15-15v-17.133c0-52.566-42.766-95.333-95.333-95.333zM94.267 272.067c0-1.07.02-2.135.04-3.2h-30c-1.194 64.3 29.976 122.392 78.244 157.768a125.63 125.63 0 0 1 16-25.488c-39.048-29.525-64.284-76.353-64.284-129.08zM189.804 124.461c39.896-18.684 92.496-18.684 132.392 0a126.339 126.339 0 0 1 24.245-21.489c-53.095-29.899-127.786-29.898-180.881 0a126.397 126.397 0 0 1 24.244 21.489zM417.693 268.867c1.165 53.589-24.4 102.267-64.244 132.28a125.646 125.646 0 0 1 16 25.488c48.266-35.373 79.439-93.47 78.244-157.768zM311.7 328.833c0-30.713-24.987-55.7-55.7-55.7-73.894 3.06-73.873 108.352 0 111.4 30.713 0 55.7-24.986 55.7-55.7zM256 384.533c-52.567 0-95.333 42.767-95.333 95.333V497c0 8.284 6.716 15 15 15h160.667c8.284 0 15-6.716 15-15v-17.133c-.001-52.567-42.767-95.334-95.334-95.334z" data-original="#000000"/></g></svg>