<svg viewBox="0 0 20 20" fill="none" xmlns="http://www.w3.org/2000/svg">
<path d="M13.7209 20H1.62791C0.734884 20 0 19.2651 0 18.3721V6.27907C0 2.16744 2.16744 0 6.27907 0H13.7209C17.8326 0 20 2.16744 20 6.27907V13.7209C20 17.8326 17.8326 20 13.7209 20ZM6.27907 1.39535C2.94884 1.39535 1.39535 2.94884 1.39535 6.27907V18.3721C1.39535 18.5023 1.49767 18.6047 1.62791 18.6047H13.7209C17.0512 18.6047 18.6047 17.0512 18.6047 13.7209V6.27907C18.6047 2.94884 17.0512 1.39535 13.7209 1.39535H6.27907Z" fill="black" fill-opacity="0.5"/>
<path opacity="0.4" d="M14.6514 8.37203H5.34904C4.96765 8.37203 4.65137 8.05575 4.65137 7.67436C4.65137 7.29296 4.96765 6.97668 5.34904 6.97668H14.6514C15.0328 6.97668 15.349 7.29296 15.349 7.67436C15.349 8.05575 15.0328 8.37203 14.6514 8.37203Z" fill="black" fill-opacity="0.5"/>
<path opacity="0.4" d="M11.8607 13.023H5.34904C4.96765 13.023 4.65137 12.7068 4.65137 12.3254C4.65137 11.944 4.96765 11.6277 5.34904 11.6277H11.8607C12.2421 11.6277 12.5583 11.944 12.5583 12.3254C12.5583 12.7068 12.2421 13.023 11.8607 13.023Z" fill="black" fill-opacity="0.5"/>
</svg>
