<svg xmlns="http://www.w3.org/2000/svg" width="16" height="16" fill="currentColor"><g clip-path="url(#a)"><path fill-rule="evenodd" d="M8.901 14.5H13.5c1.507 0 1.97-3.7 2.061-5.199l.028-.592c.11-3.39-.605-7.209-2.089-7.209H2.53c-2.777 0-2.8 13 0 13H8.902Zm3.671-.592H9.844c-.242 0-.647-.42-.992-1.604-.69-2.372-.69-6.237 0-8.608.345-1.184.75-1.604.992-1.604h2.728c-1.57 2.222-1.536 9.642 0 11.816ZM8.915 2.092c-1.567 2.217-1.55 9.623 0 11.816H6.187c-.242 0-.647-.42-.991-1.604-.69-2.372-.69-6.237 0-8.608.344-1.184.75-1.604.991-1.604h2.728Zm5.577 1.604c.692 2.379.686 6.247 0 8.608-.344 1.184-.75 1.604-.992 1.604-.619 0-1.508-2.268-1.508-5.908 0-3.663.897-5.908 1.508-5.908.243 0 .648.42.992 1.604ZM2.53 13.908c-.242 0-.647-.42-.992-1.604-.69-2.372-.69-6.237 0-8.608.345-1.184.75-1.604.992-1.604h2.728c-1.53 2.165-1.584 9.573 0 11.816H2.531Z" clip-rule="evenodd"/><path stroke="currentColor" stroke-width=".4" d="M8.901 14.5h3.064m-3.064 0H8.31m.592 0h3.064m0 0H13.5c1.507 0 1.97-3.7 2.061-5.199l.028-.592c.11-3.39-.605-7.209-2.089-7.209H2.53c-2.777 0-2.8 13 0 13h2.715m0 0h3.064m-3.064 0h3.064m4.263-.592H9.844c-.242 0-.647-.42-.992-1.604-.69-2.372-.69-6.237 0-8.608.345-1.184.75-1.604.992-1.604h2.728c-1.57 2.222-1.536 9.642 0 11.816ZM8.915 2.092c-1.567 2.217-1.55 9.623 0 11.816H6.187c-.242 0-.647-.42-.991-1.604-.69-2.372-.69-6.237 0-8.608.344-1.184.75-1.604.991-1.604h2.728Zm5.577 1.604c.692 2.379.686 6.247 0 8.608-.344 1.184-.75 1.604-.992 1.604-.619 0-1.508-2.268-1.508-5.908 0-3.663.897-5.908 1.508-5.908.243 0 .648.42.992 1.604ZM2.53 13.908c-.242 0-.647-.42-.992-1.604-.69-2.372-.69-6.237 0-8.608.345-1.184.75-1.604.992-1.604h2.728c-1.53 2.165-1.584 9.573 0 11.816H2.531Z"/></g><defs><clipPath id="a"><path fill="#fff" d="M0 0h16v16H0z"/></clipPath></defs></svg>