<svg width="23" height="23" viewBox="0 0 23 23" fill="none" xmlns="http://www.w3.org/2000/svg">
<path fill-rule="evenodd" clip-rule="evenodd" d="M15.3092 10.8943L14.8117 10.0308C14.3907 9.30025 13.4579 9.04821 12.7263 9.46742V9.46742C12.378 9.67257 11.9625 9.73077 11.5713 9.62919C11.1801 9.52762 10.8453 9.2746 10.6409 8.92595C10.5093 8.70433 10.4387 8.45192 10.436 8.19423V8.19423C10.4479 7.78108 10.292 7.38073 10.0039 7.08436C9.71581 6.788 9.32002 6.62086 8.90671 6.62103H7.90425C7.49933 6.62103 7.11109 6.78238 6.82546 7.06939C6.53982 7.3564 6.38033 7.74541 6.38228 8.15032V8.15032C6.37028 8.98634 5.68909 9.65775 4.85298 9.65766C4.59529 9.65499 4.34288 9.58431 4.12127 9.45278V9.45278C3.38968 9.03358 2.45681 9.28562 2.03587 10.0162L1.50171 10.8943C1.08128 11.6239 1.32989 12.5562 2.05782 12.9797V12.9797C2.53099 13.2528 2.82247 13.7577 2.82247 14.3041C2.82247 14.8504 2.53099 15.3553 2.05782 15.6285V15.6285C1.33081 16.0491 1.08193 16.9791 1.50171 17.7066V17.7066L2.0066 18.5773C2.20383 18.9332 2.53475 19.1958 2.92613 19.307C3.31751 19.4183 3.73708 19.369 4.092 19.17V19.17C4.4409 18.9664 4.85668 18.9106 5.24691 19.0151C5.63714 19.1195 5.96949 19.3755 6.17008 19.7261C6.30161 19.9477 6.37228 20.2001 6.37496 20.4578V20.4578C6.37496 21.3024 7.05965 21.9871 7.90425 21.9871H8.90671C9.74846 21.9871 10.432 21.3069 10.436 20.4651V20.4651C10.434 20.059 10.5945 19.6688 10.8818 19.3816C11.169 19.0944 11.5591 18.9339 11.9653 18.9359C12.2224 18.9427 12.4737 19.0131 12.697 19.1407V19.1407C13.4267 19.5612 14.359 19.3126 14.7824 18.5846V18.5846L15.3092 17.7066C15.5132 17.3565 15.5691 16.9397 15.4648 16.5483C15.3604 16.1568 15.1043 15.8232 14.7531 15.6212V15.6212C14.402 15.4192 14.1459 15.0855 14.0415 14.6941C13.9371 14.3027 13.9931 13.8858 14.197 13.5358C14.3296 13.3042 14.5216 13.1123 14.7531 12.9797V12.9797C15.4767 12.5564 15.7247 11.6296 15.3092 10.9016V10.9016V10.8943Z" stroke="black" stroke-width="1.5" stroke-linecap="round" stroke-linejoin="round"/>
<circle cx="8.40917" cy="14.3041" r="2.10735" stroke="black" stroke-width="1.5" stroke-linecap="round" stroke-linejoin="round"/>
<circle cx="15.8516" cy="7.5921" r="6.71198" fill="white"/>
<path fill-rule="evenodd" clip-rule="evenodd" d="M10.9943 4.34893C10.9943 3.2249 11.0063 2.85034 12.4929 2.85034C13.9794 2.85034 13.9914 3.2249 13.9914 4.34893C13.9914 5.47297 13.9962 5.84752 12.4929 5.84752C10.9895 5.84752 10.9943 5.47297 10.9943 4.34893Z" stroke="black" stroke-width="1.5" stroke-linecap="round" stroke-linejoin="round"/>
<path fill-rule="evenodd" clip-rule="evenodd" d="M16.2458 4.34893C16.2458 3.2249 16.2578 2.85034 17.7444 2.85034C19.2309 2.85034 19.243 3.2249 19.243 4.34893C19.243 5.47297 19.2477 5.84752 17.7444 5.84752C16.241 5.84752 16.2458 5.47297 16.2458 4.34893Z" stroke="black" stroke-width="1.5" stroke-linecap="round" stroke-linejoin="round"/>
<path fill-rule="evenodd" clip-rule="evenodd" d="M10.9943 9.7315C10.9943 8.60747 11.0063 8.23291 12.4929 8.23291C13.9794 8.23291 13.9914 8.60747 13.9914 9.7315C13.9914 10.8555 13.9962 11.2301 12.4929 11.2301C10.9895 11.2301 10.9943 10.8555 10.9943 9.7315Z" stroke="black" stroke-width="1.5" stroke-linecap="round" stroke-linejoin="round"/>
<path fill-rule="evenodd" clip-rule="evenodd" d="M16.2458 9.7315C16.2458 8.60747 16.2578 8.23291 17.7444 8.23291C19.2309 8.23291 19.243 8.60747 19.243 9.7315C19.243 10.8555 19.2477 11.2301 17.7444 11.2301C16.241 11.2301 16.2458 10.8555 16.2458 9.7315Z" stroke="black" stroke-width="1.5" stroke-linecap="round" stroke-linejoin="round"/>
</svg>
