<svg width="16" height="16" viewBox="0 0 16 16" fill="none" xmlns="http://www.w3.org/2000/svg">
<path d="M5.7882 14.2713V12.1803C5.78818 11.6484 6.2674 11.2162 6.86113 11.2126H9.03601C9.63258 11.2126 10.1162 11.6459 10.1162 12.1803V12.1803V14.2778C10.1161 14.7294 10.5184 15.0985 11.0224 15.1091H12.4723C13.9177 15.1091 15.0894 14.0595 15.0894 12.7647V12.7647V6.81617C15.0817 6.30682 14.8147 5.82851 14.3645 5.51736L9.40574 1.93914C8.53703 1.3161 7.30212 1.3161 6.43341 1.93914L1.49644 5.52386C1.04447 5.83374 0.777051 6.31284 0.771484 6.82267V12.7647C0.771484 14.0595 1.9432 15.1091 3.38858 15.1091H4.8385C5.355 15.1091 5.7737 14.734 5.7737 14.2713V14.2713" stroke="black" stroke-width="1.5" stroke-linecap="round" stroke-linejoin="round"/>
</svg>
