<?xml version="1.0" ?>

<!-- Uploaded to: SVG Repo, www.svgrepo.com, Generator: SVG Repo Mixer Tools -->
<svg viewBox="0 0 512 512" id="Layer_1" version="1.1" xml:space="preserve" xmlns="http://www.w3.org/2000/svg" xmlns:xlink="http://www.w3.org/1999/xlink">

<style type="text/css">
	.st0{fill:#2B79C2;}
	.st1{fill:#3B4652;}
</style>

<g>

<path class="st1" d="M317.3,77.5c-17.5-24.3-38.2-45-61.3-61.1c-23,16.1-43.7,36.8-61.3,61.1c20.1-4,40.6-6.1,61.3-6.1   S297.2,73.4,317.3,77.5z"/>

<path class="st1" d="M118.7,268.2C71.3,281,36.5,324.3,36.5,375.7c0,24.4,7.8,46.9,21.1,65.2c13.3-25.1,38.7-42.9,68.4-45.6   c-4.9-28.5-7.5-89.8-7.5-115.7C118.5,275.8,118.6,271.9,118.7,268.2z"/>

<path class="st1" d="M393.3,268.2c0.1,3.8,0.2,7.6,0.2,11.4c0,26-2.6,87.2-7.5,115.7c29.7,2.6,55.1,20.4,68.4,45.6   c13.3-18.3,21.1-40.9,21.1-65.2C475.5,324.3,440.7,281,393.3,268.2z"/>

<path class="st1" d="M211.7,414.4c-0.2-1-0.4-2-0.6-3h-40.4v38.8c0,13.1,28.2,20.9,61.8,23.3c-4.6-9.4-8.6-19.1-12.1-28.9   C216.8,434.6,213.9,424.4,211.7,414.4z"/>

<path class="st1" d="M310.6,414.4c-5.1,23.2-13.2,43.4-20.3,58.1c28.5-3.2,50.9-10.7,50.9-22.3v-38.8h-30   C311.1,412.4,310.9,413.4,310.6,414.4z"/>

<path class="st1" d="M299.6,397.4c1.5-9.4,2.3-19.2,2.3-29.3c0-70.4-40.7-127.5-40.7-127.5s-19.1,26.7-31.1,66.2   c-5.5,18.2-9.6,39.1-9.6,61.3c0,10.1,0.8,19.9,2.3,29.3c0.7,4.8,1.6,9.5,2.6,14c2.2,10.2,5.1,19.7,8.2,28.5   c4.8,13.5,10.2,25.2,15,34.3c7,13.5,12.7,21.4,12.7,21.4s5.7-8,12.9-21.8c7.8-15,17.3-36.8,22.9-62.4   C298,406.9,298.9,402.2,299.6,397.4z"/>

<path class="st0" d="M328.6,94.4c-23.2-5.9-47.6-9-72.6-9s-49.4,3.1-72.6,9c-29.6,47.5-48.1,106.3-50.6,170.4c0,0.2,0,0.4,0,0.6   c-0.2,4.7-0.3,9.5-0.3,14.3c0,26.2,2.7,89.3,7.7,115.7c0,0.2,0.1,0.4,0.1,0.6c0.1,0.6,0.2,1.1,0.3,1.6h68   c-1.4-9.8-2.1-19.6-2.1-29.3c0-21.2,3.4-43.2,10.2-65.4c12.5-41.2,32.2-69.1,33.1-70.2l11.4-16l11.4,16   c1.8,2.5,43.3,61.6,43.3,135.6c0,9.6-0.7,19.5-2.1,29.3h57.7c0.1-0.7,0.3-1.4,0.4-2.2c5-26.3,7.7-89.5,7.7-115.7   c0-4.8-0.1-9.5-0.3-14.3C376.8,201,358.3,142,328.6,94.4z M256,205.2c-22.5,0-40.7-18.2-40.7-40.7c0-22.5,18.2-40.7,40.7-40.7   s40.7,18.2,40.7,40.7C296.7,187,278.5,205.2,256,205.2z"/>

</g>

</svg>