<svg viewBox="0 0 25 25" fill="none" xmlns="http://www.w3.org/2000/svg">
<path fill-rule="evenodd" clip-rule="evenodd" d="M16.5202 15.7695C11.9508 15.7695 8.26011 11.8771 8.26011 7.09253C8.26011 11.8771 4.55477 15.7695 0 15.7695C4.55477 15.7695 8.26011 19.6464 8.26011 24.431C8.26011 19.6464 11.9508 15.7695 16.5202 15.7695Z" fill="#00D2FF"/>
<path fill-rule="evenodd" clip-rule="evenodd" d="M25.0002 20.2463C22.4958 20.2463 20.4747 18.1078 20.4747 15.4924C20.4747 18.1078 18.439 20.2463 15.9492 20.2463C18.439 20.2463 20.4747 22.3694 20.4747 25.0001C20.4747 22.3694 22.4958 20.2463 25.0002 20.2463Z" fill="#016AFB"/>
<path fill-rule="evenodd" clip-rule="evenodd" d="M22.3931 5.78462C19.3468 5.78462 16.8864 3.2 16.8864 0C16.8864 3.2 14.4259 5.78462 11.3796 5.78462C14.4259 5.78462 16.8864 8.36923 16.8864 11.5692C16.8864 8.36923 19.3468 5.78462 22.3931 5.78462Z" fill="#03A0FF"/>
</svg>