<svg viewBox="0 0 30 30" fill="none" xmlns="http://www.w3.org/2000/svg">
<rect x="0.5" y="0.5" width="29" height="29" rx="14.5" fill="#FFBE0E"/>
<rect x="0.5" y="0.5" width="29" height="29" rx="14.5" stroke="#FFFCF4"/>
<path d="M15 16.9297C14.4477 16.9297 14 16.4925 14 15.9531V10.0938C14 9.55439 14.4477 9.11719 15 9.11719C15.5523 9.11719 16 9.55439 16 10.0938V15.9531C16 16.4925 15.5523 16.9297 15 16.9297Z" fill="#FFFCF4"/>
<path d="M15 20.8828C15.5523 20.8828 16 20.4351 16 19.8828C16 19.3305 15.5523 18.8828 15 18.8828C14.4477 18.8828 14 19.3305 14 19.8828C14 20.4351 14.4477 20.8828 15 20.8828Z" fill="#FFFCF4"/>
</svg>
