<svg viewBox="0 0 40 40" fill="none" xmlns="http://www.w3.org/2000/svg">
<path fill-rule="evenodd" clip-rule="evenodd" d="M38.9156 17.1806C38.2231 17.8731 37.2832 18.2641 36.3025 18.2641H25.4315C24.4508 18.2641 23.5109 17.8731 22.8185 17.1806C22.126 16.4881 21.7349 15.5482 21.7349 14.5677V3.69651C21.7349 2.71588 22.126 1.77603 22.8185 1.08354C23.5109 0.39106 24.4508 0 25.4315 0H36.3025C37.2832 0 38.2231 0.39106 38.9156 1.08354C39.6081 1.77603 39.9991 2.71588 39.9991 3.69651V14.5677C39.9991 15.5482 39.6081 16.4881 38.9156 17.1806ZM36.3025 15.2185C36.4773 15.2185 36.643 15.1496 36.7638 15.0288C36.8846 14.908 36.9535 14.7423 36.9535 14.5677V3.69651C36.9535 3.52179 36.8846 3.35616 36.7638 3.23536C36.643 3.11459 36.4773 3.04563 36.3025 3.04563H25.4315C25.2567 3.04563 25.0911 3.11459 24.9703 3.23536C24.8495 3.35616 24.7805 3.52179 24.7805 3.69651V14.5677C24.7805 14.7423 24.8495 14.908 24.9703 15.0288C25.0911 15.1496 25.2567 15.2185 25.4315 15.2185H36.3025ZM17.1805 38.9154C16.488 39.6079 15.5483 39.9991 14.5676 39.9991H3.69649C2.71583 39.9991 1.776 39.6079 1.08351 38.9154C0.391018 38.2229 0 37.2832 0 36.3025V25.4315C0 24.4508 0.391018 23.5109 1.08351 22.8184C1.776 22.1259 2.71583 21.7349 3.69649 21.7349H14.5676C15.5483 21.7349 16.488 22.1259 17.1805 22.8184C17.873 23.5109 18.264 24.4508 18.264 25.4315V36.3025C18.264 37.2832 17.873 38.2229 17.1805 38.9154ZM14.5676 36.9534C14.7424 36.9534 14.908 36.8845 15.0288 36.7637C15.1496 36.6429 15.2186 36.4773 15.2186 36.3025V25.4315C15.2186 25.2567 15.1496 25.0911 15.0288 24.9703C14.908 24.8495 14.7424 24.7805 14.5676 24.7805H3.69649C3.52175 24.7805 3.35608 24.8495 3.23529 24.9703C3.1145 25.0911 3.04556 25.2567 3.04556 25.4315V36.3025C3.04556 36.4773 3.1145 36.6429 3.23529 36.7637C3.35608 36.8845 3.52175 36.9534 3.69649 36.9534H14.5676ZM17.1805 17.1806C16.488 17.8731 15.5483 18.2641 14.5676 18.2641H3.69649C2.71583 18.2641 1.776 17.8731 1.08351 17.1806C0.391018 16.4881 0 15.5482 0 14.5677V3.69651C0 2.71588 0.391018 1.77603 1.08351 1.08354C1.776 0.39106 2.71583 0 3.69649 0H14.5676C15.5483 0 16.488 0.39106 17.1805 1.08354C17.873 1.77603 18.264 2.71588 18.264 3.69651V14.5677C18.264 15.5482 17.873 16.4881 17.1805 17.1806ZM14.5676 15.2185C14.7424 15.2185 14.908 15.1496 15.0288 15.0288C15.1496 14.908 15.2186 14.7423 15.2186 14.5677V3.69651C15.2186 3.52179 15.1496 3.35616 15.0288 3.23536C14.908 3.11459 14.7424 3.04563 14.5676 3.04563H3.69649C3.52175 3.04563 3.35608 3.11459 3.23529 3.23536C3.1145 3.35616 3.04556 3.52179 3.04556 3.69651V14.5677C3.04556 14.7423 3.1145 14.908 3.23529 15.0288C3.35608 15.1496 3.52175 15.2185 3.69649 15.2185H14.5676ZM38.0778 29.4148C39.0886 29.4148 39.9081 30.2342 39.9081 31.2452C39.9081 32.256 39.0886 33.0754 38.0778 33.0754H33.0767V38.0764C33.0767 39.0873 32.2572 39.9068 31.2464 39.9068C30.2354 39.9068 29.416 39.0873 29.416 38.0764V33.0754H24.4151C23.4043 33.0754 22.5848 32.256 22.5848 31.2452C22.5848 30.2342 23.4043 29.4148 24.4151 29.4148H29.416V24.4138C29.416 23.4029 30.2354 22.5834 31.2464 22.5834C32.2572 22.5834 33.0767 23.4029 33.0767 24.4138V29.4148H38.0778Z" fill="currentColor"/>
</svg>
