<svg viewBox="0 0 16 16" fill="none" xmlns="http://www.w3.org/2000/svg">
<path d="M5.80466 5.13807C6.06501 4.87772 6.06501 4.45561 5.80466 4.19526C5.54431 3.93491 5.1222 3.93491 4.86185 4.19526L1.52851 7.5286C1.26816 7.78894 1.26816 8.21106 1.52851 8.4714L4.86185 11.8047C5.1222 12.0651 5.54431 12.0651 5.80466 11.8047C6.06501 11.5444 6.06501 11.1223 5.80466 10.8619L2.94273 8L5.80466 5.13807Z" fill="black"/>
<path d="M11.138 4.19526C10.8776 3.93491 10.4555 3.93491 10.1952 4.19526C9.93483 4.45561 9.93483 4.87772 10.1952 5.13807L13.0571 8L10.1952 10.8619C9.93483 11.1223 9.93483 11.5444 10.1952 11.8047C10.4555 12.0651 10.8776 12.0651 11.138 11.8047L14.4713 8.4714C14.7317 8.21106 14.7317 7.78894 14.4713 7.5286L11.138 4.19526Z" fill="black"/>
</svg>