<svg width="12" height="12" viewBox="0 0 12 12" fill="none" xmlns="http://www.w3.org/2000/svg">
<path d="M11.8332 6.00008V10.0834C11.8332 11.0484 11.0482 11.8334 10.0832 11.8334H1.9165C0.951497 11.8334 0.166504 11.0484 0.166504 10.0834V1.91675C0.166504 0.951742 0.951497 0.166748 1.9165 0.166748H5.99984C6.32198 0.166748 6.58317 0.427653 6.58317 0.750081C6.58317 1.07251 6.32198 1.33341 5.99984 1.33341H1.9165C1.59493 1.33341 1.33317 1.59489 1.33317 1.91675V10.0834C1.33317 10.4053 1.59493 10.6667 1.9165 10.6667H10.0832C10.405 10.6667 10.6665 10.4053 10.6665 10.0834V6.00008C10.6665 5.67765 10.9274 5.41675 11.2498 5.41675C11.5723 5.41675 11.8332 5.67765 11.8332 6.00008Z" fill="#175CD3"/>
<path d="M11.2498 4.25008C10.9277 4.25008 10.6665 3.98918 10.6665 3.66675V2.15828L5.24561 7.57918C5.01774 7.80705 4.6486 7.80705 4.42074 7.57918C4.19287 7.35132 4.19287 6.98218 4.42074 6.75431L9.84163 1.33341H8.33317C8.01074 1.33341 7.74984 1.07251 7.74984 0.750081C7.74984 0.427653 8.01074 0.166748 8.33317 0.166748H11.2498H11.2513C11.3968 0.167318 11.5295 0.220866 11.6315 0.309164C11.6611 0.334798 11.6885 0.363281 11.7124 0.394613C11.7805 0.48291 11.8235 0.591146 11.8317 0.709066C11.8329 0.723877 11.8332 0.739258 11.8332 0.754069V3.66675C11.8332 3.98918 11.572 4.25008 11.2498 4.25008Z" fill="#175CD3"/>
</svg>
