<svg width="14" height="14" viewBox="0 0 14 14" fill="none" xmlns="http://www.w3.org/2000/svg">
<g clip-path="url(#clip0_8192_48355)">
<path d="M12.3536 3.50938L8.99111 0.146875C8.89736 0.053125 8.7708 0 8.63799 0H2.00049C1.72393 0 1.50049 0.223437 1.50049 0.5V13.5C1.50049 13.7766 1.72393 14 2.00049 14H12.0005C12.2771 14 12.5005 13.7766 12.5005 13.5V3.86406C12.5005 3.73125 12.4474 3.60313 12.3536 3.50938ZM11.3474 4.09375H8.40674V1.15313L11.3474 4.09375ZM11.3755 12.875H2.62549V1.125H7.34424V4.5C7.34424 4.67405 7.41338 4.84097 7.53645 4.96404C7.65952 5.08711 7.82644 5.15625 8.00049 5.15625H11.3755V12.875Z" fill="#757575"/>
</g>
<defs>
<clipPath id="clip0_8192_48355">
<rect width="14" height="14" fill="white"/>
</clipPath>
</defs>
</svg>