<svg viewBox="0 0 24 24" fill="none" xmlns="http://www.w3.org/2000/svg">
<path d="M22.5904 4.41145C22.1451 3.96407 21.6159 3.60909 21.0333 3.36689C20.4508 3.12468 19.8262 3 19.1953 3C18.5645 3 17.9399 3.12468 17.3574 3.36689C16.7748 3.60909 16.2456 3.96407 15.8004 4.41145L16.9347 5.54717C17.2321 5.2494 17.5851 5.0132 17.9737 4.85206C18.3623 4.69091 18.7787 4.60796 19.1994 4.60796C19.6199 4.60796 20.0364 4.69091 20.425 4.85206C20.8135 5.0132 21.1667 5.2494 21.4639 5.54717C21.7614 5.84493 21.9973 6.19843 22.1582 6.58748C22.3193 6.97659 22.4021 7.39351 22.4021 7.81466C22.4021 8.23567 22.3193 8.65273 22.1582 9.04175C21.9973 9.43078 21.7614 9.78436 21.4639 10.082L15.0734 16.4805C14.4738 17.0819 13.6603 17.4201 12.8116 17.4209C11.9629 17.4217 11.1486 17.0849 10.5481 16.4846C9.94747 15.8843 9.60966 15.0696 9.6089 14.2199C9.60813 13.3702 9.94453 12.555 10.5441 11.9536L11.6704 10.8178L10.5441 9.68211L9.40976 10.8178C8.96293 11.2637 8.60838 11.7935 8.36644 12.3768C8.12462 12.96 8 13.5854 8 14.2171C8 14.8486 8.12462 15.474 8.36644 16.0574C8.60838 16.6407 8.96293 17.1705 9.40976 17.6162C10.3136 18.5097 11.5346 19.0073 12.8047 18.9999C13.438 19.0025 14.0654 18.8795 14.6509 18.6379C15.2364 18.3963 15.7683 18.0409 16.2157 17.5923L22.6063 11.1938C23.5018 10.2919 24.0031 9.07106 24 7.7993C23.997 6.52762 23.49 5.30911 22.5904 4.41145Z" fill="#212529"/>
<path d="M2.57038 18.4522C2.27228 18.1544 2.03573 17.8005 1.87433 17.4108C1.71292 17.021 1.62983 16.6032 1.62983 16.1811C1.62983 15.759 1.71292 15.3412 1.87433 14.9514C2.03573 14.5617 2.27228 14.2077 2.57038 13.91L8.95693 7.5013C9.25365 7.20227 9.60631 6.9649 9.99474 6.80289C10.383 6.64088 10.7996 6.55756 11.2202 6.55756C11.6407 6.55756 12.0572 6.64088 12.4456 6.80289C12.8339 6.9649 13.1866 7.20227 13.4833 7.5013C13.7795 7.80149 14.0128 8.15819 14.1691 8.55027C14.3255 8.94248 14.4017 9.36212 14.3934 9.78446C14.3958 10.2081 14.3146 10.628 14.1543 11.0198C13.994 11.4117 13.7578 11.7678 13.4594 12.0675L11.767 13.7899L12.9006 14.9274L14.593 13.2291C15.4939 12.3251 16 11.099 16 9.82047C16 8.54207 15.4939 7.31596 14.593 6.41183C13.6922 5.50787 12.4703 5 11.1962 5C9.92219 5 8.70032 5.50787 7.7993 6.41183L1.41282 12.8205C0.96507 13.2672 0.609748 13.7983 0.367277 14.3833C0.124818 14.9683 0 15.5956 0 16.2291C0 16.8627 0.124818 17.49 0.367277 18.075C0.609748 18.6599 0.96507 19.1911 1.41282 19.6378C2.32197 20.5258 3.54504 21.0155 4.81365 20.9996C6.09343 21.0009 7.32172 20.494 8.23039 19.5897L7.09678 18.4522C6.80013 18.7513 6.44744 18.9887 6.05905 19.1506C5.67066 19.3126 5.2542 19.3959 4.83361 19.3959C4.41301 19.3959 3.99655 19.3126 3.60816 19.1506C3.21977 18.9887 2.8671 18.7513 2.57038 18.4522Z" fill="#212529"/>
</svg>