<svg viewBox="0 0 16 16" fill="none" xmlns="http://www.w3.org/2000/svg">
<path d="M13.332 13.25V7H12.5117V13.25H10.0508V11.5H9.23047V13.25H6.76953V9.25H5.94922V13.25H3.48828V13H2.66797V13.25H1V14H15V13.25H13.332Z" fill="#292929"/>
<path d="M3.2 11C3.86168 11 4.4 10.4494 4.4 9.77273C4.4 9.49711 4.31067 9.24244 4.16011 9.03735L6.10525 6.05335C6.19957 6.07779 6.29832 6.09091 6.4 6.09091C6.58504 6.09091 6.76037 6.04779 6.91704 5.97096L8.51728 7.60755C8.44216 7.7678 8.4 7.94712 8.4 8.13636C8.4 8.81308 8.93832 9.36364 9.6 9.36364C10.2617 9.36364 10.8 8.81308 10.8 8.13636C10.8 7.86075 10.7107 7.60607 10.5601 7.40098L12.5052 4.41699C12.5996 4.44143 12.6983 4.45455 12.8 4.45455C13.4617 4.45455 14 3.90399 14 3.22727C14 2.55055 13.4617 2 12.8 2C12.1383 2 11.6 2.55055 11.6 3.22727C11.6 3.50289 11.6893 3.75756 11.8399 3.96265L9.89477 6.94665C9.80043 6.92221 9.70168 6.90909 9.6 6.90909C9.41496 6.90909 9.23963 6.95221 9.08296 7.02904L7.48272 5.39245C7.55784 5.2322 7.6 5.05288 7.6 4.86364C7.6 4.18692 7.06168 3.63636 6.4 3.63636C5.73832 3.63636 5.2 4.18692 5.2 4.86364C5.2 5.13925 5.28933 5.39393 5.43992 5.59902L3.49477 8.58304C3.40043 8.55857 3.30168 8.54545 3.2 8.54545C2.53832 8.54545 2 9.09601 2 9.77273C2 10.4494 2.53832 11 3.2 11ZM12.8 2.81818C13.0206 2.81818 13.2 3.0017 13.2 3.22727C13.2 3.45285 13.0206 3.63636 12.8 3.63636C12.5794 3.63636 12.4 3.45285 12.4 3.22727C12.4 3.0017 12.5794 2.81818 12.8 2.81818ZM9.6 7.72727C9.82056 7.72727 10 7.91079 10 8.13636C10 8.36194 9.82056 8.54545 9.6 8.54545C9.37944 8.54545 9.2 8.36194 9.2 8.13636C9.2 7.91079 9.37944 7.72727 9.6 7.72727ZM6.4 4.45455C6.62056 4.45455 6.8 4.63806 6.8 4.86364C6.8 5.08921 6.62056 5.27273 6.4 5.27273C6.17944 5.27273 6 5.08921 6 4.86364C6 4.63806 6.17944 4.45455 6.4 4.45455ZM3.2 9.36364C3.42056 9.36364 3.6 9.54715 3.6 9.77273C3.6 9.9983 3.42056 10.1818 3.2 10.1818C2.97944 10.1818 2.8 9.9983 2.8 9.77273C2.8 9.54715 2.97944 9.36364 3.2 9.36364Z" fill="#292929"/>
</svg>
