<svg viewBox="0 0 13 14" fill="none" xmlns="http://www.w3.org/2000/svg">
<path fill-rule="evenodd" clip-rule="evenodd" d="M0.40625 2.3125C0.40625 1.53585 1.03585 0.90625 1.8125 0.90625H11.1875C11.9642 0.90625 12.5938 1.53586 12.5938 2.3125V7C12.5938 7.25887 12.3839 7.46875 12.125 7.46875C11.8661 7.46875 11.6562 7.25887 11.6562 7V2.3125C11.6562 2.05361 11.4464 1.84375 11.1875 1.84375H1.8125C1.55362 1.84375 1.34375 2.05362 1.34375 2.3125V11.6875C1.34375 11.9464 1.55361 12.1562 1.8125 12.1562H6.5C6.75887 12.1562 6.96875 12.3661 6.96875 12.625C6.96875 12.8839 6.75887 13.0938 6.5 13.0938H1.8125C1.03586 13.0938 0.40625 12.4642 0.40625 11.6875V2.3125Z" fill="currentColor"/>
<path fill-rule="evenodd" clip-rule="evenodd" d="M9 8.09375C8.22338 8.09375 7.59375 8.72338 7.59375 9.5C7.59375 10.2766 8.22338 10.9062 9 10.9062C9.77662 10.9062 10.4062 10.2766 10.4062 9.5C10.4062 8.72338 9.77662 8.09375 9 8.09375ZM6.65625 9.5C6.65625 8.20556 7.70556 7.15625 9 7.15625C10.2944 7.15625 11.3438 8.20556 11.3438 9.5C11.3438 10.7944 10.2944 11.8438 9 11.8438C7.70556 11.8438 6.65625 10.7944 6.65625 9.5Z" fill="currentColor"/>
<path fill-rule="evenodd" clip-rule="evenodd" d="M10.1965 10.4572C10.3582 10.255 10.6532 10.2223 10.8553 10.384L12.4178 11.634C12.62 11.7957 12.6527 12.0907 12.4911 12.2928C12.3293 12.495 12.0344 12.5278 11.8322 12.366L10.2697 11.116C10.0676 10.9543 10.0347 10.6593 10.1965 10.4572Z" fill="currentColor"/>
<path fill-rule="evenodd" clip-rule="evenodd" d="M2.90625 4.5C2.90625 4.24112 3.11612 4.03125 3.375 4.03125H9.625C9.88388 4.03125 10.0938 4.24112 10.0938 4.5C10.0938 4.75888 9.88388 4.96875 9.625 4.96875H3.375C3.11612 4.96875 2.90625 4.75888 2.90625 4.5Z" fill="currentColor"/>
<path fill-rule="evenodd" clip-rule="evenodd" d="M2.90625 7C2.90625 6.74112 3.11612 6.53125 3.375 6.53125H5.875C6.13387 6.53125 6.34375 6.74112 6.34375 7C6.34375 7.25888 6.13387 7.46875 5.875 7.46875H3.375C3.11612 7.46875 2.90625 7.25888 2.90625 7Z" fill="currentColor"/>
</svg>
