
<svg viewBox="0 0 16 16" fill="none" xmlns="http://www.w3.org/2000/svg">
<path d="M14 10.2093C14 9.53546 13.5199 8.97168 12.8837 8.84203V7.33488C12.8837 7.19758 12.8164 7.06904 12.7036 6.99082C12.5907 6.9126 12.4466 6.89468 12.3181 6.94293L11.5192 7.24254C10.9945 6.6971 10.3568 6.28628 9.65795 6.03408C10.3447 5.52523 10.7907 4.70912 10.7907 3.7907C10.7907 2.25188 9.53882 1 8 1C6.46118 1 5.2093 2.25188 5.2093 3.7907C5.2093 4.70912 5.65531 5.52523 6.34205 6.03408C5.64317 6.28631 5.00547 6.69713 4.48082 7.24254L3.68187 6.94293C3.55333 6.89468 3.40927 6.9126 3.29645 6.99082C3.18359 7.06904 3.11628 7.19758 3.11628 7.33488V8.84203C2.48014 8.97168 2 9.53543 2 10.2093C2 10.8832 2.48014 11.4469 3.11628 11.5766V13.1953C3.11628 13.3699 3.22453 13.526 3.3879 13.5873L7.85301 15.2617C7.94717 15.2968 8.0528 15.2968 8.14696 15.2617L12.6121 13.5873C12.7754 13.526 12.8837 13.3699 12.8837 13.1953V11.5766C13.5199 11.4469 14 10.8831 14 10.2093ZM6.04651 3.7907C6.04651 2.71354 6.92285 1.83721 8 1.83721C9.07715 1.83721 9.95349 2.71354 9.95349 3.7907C9.95349 4.86785 9.07715 5.74419 8 5.74419C6.92285 5.74419 6.04651 4.86785 6.04651 3.7907ZM8 6.5814C8.98073 6.5814 9.91746 6.93584 10.6483 7.56911L8 8.56223L5.35166 7.56911C6.08257 6.93584 7.01929 6.5814 8 6.5814ZM2.83721 10.2093C2.83721 9.90154 3.08759 9.65116 3.39535 9.65116H3.67442V10.7674H3.39535C3.08759 10.7674 2.83721 10.5171 2.83721 10.2093ZM3.95349 11.5906C4.27154 11.5258 4.51163 11.2439 4.51163 10.907V9.51163C4.51163 9.17471 4.27154 8.89282 3.95349 8.82799V7.93893L7.5814 9.2994V14.2657L3.95349 12.9053V11.5906ZM8.4186 14.2657V9.2994L12.0465 7.93893V8.82799C11.7285 8.89282 11.4884 9.17471 11.4884 9.51163V10.907C11.4884 11.2439 11.7285 11.5258 12.0465 11.5906V12.9053L8.4186 14.2657ZM12.6047 10.7674H12.3256V9.65116H12.6047C12.9124 9.65116 13.1628 9.90154 13.1628 10.2093C13.1628 10.5171 12.9124 10.7674 12.6047 10.7674Z" fill="#292929"/>
</svg>
