<svg viewBox="0 0 20 20" fill="none" xmlns="http://www.w3.org/2000/svg">
<g clip-path="url(#clip0_1210_116759)">
<path d="M11.1206 15.8434L11.3705 15.7927C11.7004 15.7258 11.7004 15.2544 11.3705 15.1875L11.1206 15.1369C10.491 15.0092 9.99887 14.5171 9.87121 13.8874L9.82055 13.6375C9.75367 13.3077 9.28223 13.3077 9.21535 13.6375L9.16469 13.8874C9.03703 14.5171 8.54492 15.0092 7.91527 15.1369L7.66535 15.1875C7.33551 15.2544 7.33551 15.7258 7.66535 15.7927L7.91527 15.8434C8.54492 15.971 9.03703 16.4631 9.16469 17.0928L9.21535 17.3427C9.28223 17.6726 9.75367 17.6726 9.82055 17.3427L9.87121 17.0928C9.99887 16.4631 10.491 15.971 11.1206 15.8434Z" fill="#F9D366"/>
<path d="M15.5166 17.411C15.35 17.411 15.2148 17.2759 15.2148 17.1092V16.292C15.2148 16.1254 15.35 15.9902 15.5166 15.9902C15.6833 15.9902 15.8184 16.1254 15.8184 16.292V17.1092C15.8184 17.2759 15.6833 17.411 15.5166 17.411Z" fill="#DD8833"/>
<path d="M15.5166 19.6112C15.35 19.6112 15.2148 19.4761 15.2148 19.3094V18.4922C15.2148 18.3255 15.35 18.1904 15.5166 18.1904C15.6833 18.1904 15.8184 18.3255 15.8184 18.4922V19.3094C15.8184 19.4761 15.6833 19.6112 15.5166 19.6112Z" fill="#DD8833"/>
<path d="M17.0252 18.1026H16.208C16.0414 18.1026 15.9062 17.9675 15.9062 17.8008C15.9062 17.6341 16.0414 17.499 16.208 17.499H17.0252C17.1919 17.499 17.327 17.6341 17.327 17.8008C17.327 17.9675 17.1919 18.1026 17.0252 18.1026Z" fill="#DD8833"/>
<path d="M14.8241 18.1026H14.0069C13.8402 18.1026 13.7051 17.9675 13.7051 17.8008C13.7051 17.6341 13.8402 17.499 14.0069 17.499H14.8241C14.9907 17.499 15.1259 17.6341 15.1259 17.8008C15.1259 17.9675 14.9907 18.1026 14.8241 18.1026Z" fill="#DD8833"/>
<path d="M1.80961 13.6083C1.64293 13.6083 1.50781 13.4732 1.50781 13.3065V12.4893C1.50781 12.3226 1.64293 12.1875 1.80961 12.1875C1.97629 12.1875 2.11141 12.3226 2.11141 12.4893V13.3065C2.11141 13.4732 1.97629 13.6083 1.80961 13.6083Z" fill="#DD8833"/>
<path d="M1.80961 15.8085C1.64293 15.8085 1.50781 15.6734 1.50781 15.5067V14.6895C1.50781 14.5228 1.64293 14.3877 1.80961 14.3877C1.97629 14.3877 2.11141 14.5228 2.11141 14.6895V15.5067C2.11141 15.6734 1.97629 15.8085 1.80961 15.8085Z" fill="#DD8833"/>
<path d="M3.3182 14.2999H2.50102C2.33434 14.2999 2.19922 14.1648 2.19922 13.9981C2.19922 13.8314 2.33434 13.6963 2.50102 13.6963H3.3182C3.48488 13.6963 3.62 13.8314 3.62 13.9981C3.62 14.1648 3.48488 14.2999 3.3182 14.2999Z" fill="#DD8833"/>
<path d="M1.11898 14.2999H0.301797C0.135117 14.2999 0 14.1648 0 13.9981C0 13.8314 0.135117 13.6963 0.301797 13.6963H1.11898C1.28566 13.6963 1.42078 13.8314 1.42078 13.9981C1.42078 14.1648 1.28566 14.2999 1.11898 14.2999Z" fill="#DD8833"/>
<path d="M15.5557 1.80994C15.389 1.80994 15.2539 1.67482 15.2539 1.50814V0.690957C15.2539 0.524277 15.389 0.38916 15.5557 0.38916C15.7224 0.38916 15.8575 0.524277 15.8575 0.690957V1.50814C15.8575 1.67479 15.7224 1.80994 15.5557 1.80994Z" fill="#DD8833"/>
<path d="M15.5557 4.0101C15.389 4.0101 15.2539 3.87498 15.2539 3.7083V2.89115C15.2539 2.72447 15.389 2.58936 15.5557 2.58936C15.7224 2.58936 15.8575 2.72447 15.8575 2.89115V3.70834C15.8575 3.87498 15.7224 4.0101 15.5557 4.0101Z" fill="#DD8833"/>
<path d="M17.0643 2.50154H16.2471C16.0804 2.50154 15.9453 2.36643 15.9453 2.19975C15.9453 2.03307 16.0804 1.89795 16.2471 1.89795H17.0643C17.231 1.89795 17.3661 2.03307 17.3661 2.19975C17.3661 2.36643 17.231 2.50154 17.0643 2.50154Z" fill="#DD8833"/>
<path d="M14.8631 2.50154H14.0459C13.8793 2.50154 13.7441 2.36643 13.7441 2.19975C13.7441 2.03307 13.8793 1.89795 14.0459 1.89795H14.8631C15.0298 1.89795 15.1649 2.03307 15.1649 2.19975C15.1649 2.36643 15.0298 2.50154 14.8631 2.50154Z" fill="#DD8833"/>
<path d="M10.2495 6.10354L11.4458 5.861C12.0106 5.74647 12.0106 4.93932 11.4458 4.82479L10.2495 4.58225C9.07057 4.34322 8.1492 3.42186 7.91018 2.24295L7.66764 1.04662C7.55311 0.481855 6.74596 0.481855 6.63143 1.04662L6.38889 2.24295C6.14986 3.42186 5.2285 4.34322 4.04959 4.58225L2.85326 4.82479C2.2885 4.93932 2.2885 5.74647 2.85326 5.861L4.04959 6.10354C5.2285 6.34256 6.14986 7.26393 6.38889 8.44283L6.63143 9.63916C6.74596 10.2039 7.55311 10.2039 7.66764 9.63916L7.91018 8.44283C8.14916 7.26393 9.07057 6.3426 10.2495 6.10354Z" fill="#F9D366"/>
<path d="M18.7554 10.2661L19.6742 10.0798C20.1079 9.99185 20.1079 9.37193 19.6742 9.284L18.7554 9.09771C17.85 8.91412 17.1425 8.20658 16.9589 7.30119L16.7726 6.38244C16.6847 5.94869 16.0648 5.94869 15.9769 6.38244L15.7906 7.30119C15.607 8.20658 14.8995 8.91416 13.9941 9.09771L13.0753 9.284C12.6416 9.37193 12.6416 9.99185 13.0753 10.0798L13.9941 10.2661C14.8995 10.4497 15.607 11.1572 15.7906 12.0626L15.9769 12.9813C16.0648 13.4151 16.6847 13.4151 16.7726 12.9813L16.9589 12.0626C17.1425 11.1572 17.8501 10.4496 18.7554 10.2661Z" fill="#F9D366"/>
</g>
<defs>
<clipPath id="clip0_1210_116759">
<rect width="20" height="20" fill="white"/>
</clipPath>
</defs>
</svg>
