<svg width="36" height="36" viewBox="0 0 36 36" fill="none" xmlns="http://www.w3.org/2000/svg">
<rect width="36" height="36" rx="12" fill="#FAFAFA"/>
<path d="M23.9477 18.2292H10.1737C8.77882 18.2292 7.64844 17.0988 7.64844 15.7039C7.64844 14.3091 8.77882 13.1787 10.1737 13.1787H23.9477C25.3425 13.1787 26.4729 14.3091 26.4729 15.7039C26.4729 17.0988 25.3425 18.2292 23.9477 18.2292Z" fill="#F5F5F5"/>
<path d="M23.9477 23.2795H10.1737C8.77882 23.2795 7.64844 22.1491 7.64844 20.7542C7.64844 19.3594 8.77882 18.229 10.1737 18.229H23.9477C25.3425 18.229 26.4729 19.3594 26.4729 20.7542C26.4729 22.1491 25.3425 23.2795 23.9477 23.2795Z" fill="#E9EAEB"/>
<path d="M9.71454 10.6537C9.71454 9.2588 10.8449 8.12842 12.2398 8.12842H10.1737C8.77882 8.12842 7.64844 9.2588 7.64844 10.6537C7.64844 12.0485 8.77882 13.1789 10.1737 13.1789H12.2398C10.8449 13.1789 9.71454 12.0485 9.71454 10.6537Z" fill="#F5F5F5"/>
<path d="M9.71454 20.7542C9.71454 19.3594 10.8449 18.229 12.2398 18.229H10.1737C8.77882 18.229 7.64844 19.3594 7.64844 20.7542C7.64844 22.1491 8.77882 23.2795 10.1737 23.2795H12.2398C10.8449 23.2795 9.71454 22.1491 9.71454 20.7542Z" fill="#FAFAFA"/>
<path d="M23.0298 28.56C19.7387 28.56 17.061 25.8824 17.061 22.5913C17.061 19.3002 19.7387 16.6226 23.0298 16.6226C26.3208 16.6226 28.9985 19.3002 28.9985 22.5913C28.9985 25.8824 26.3208 28.56 23.0298 28.56ZM23.0298 18C20.4981 18 18.4384 20.0596 18.4384 22.5913C18.4384 25.123 20.4981 27.1826 23.0298 27.1826C25.5614 27.1826 27.6211 25.123 27.6211 22.5913C27.6211 20.0596 25.5614 18 23.0298 18Z" fill="#414651"/>
<path d="M22.3408 20.0664H23.7182V25.1169H22.3408V20.0664Z" fill="#414651"/>
<path d="M20.5044 21.9028H25.5549V23.2802H20.5044V21.9028Z" fill="#414651"/>
<path d="M23.9479 13.8678H10.1739C8.40164 13.8678 6.95996 12.4261 6.95996 10.6539C6.95996 8.88162 8.40164 7.43994 10.1739 7.43994H23.9479C25.7202 7.43994 27.1618 8.88162 27.1618 10.6539C27.1618 12.4261 25.7202 13.8678 23.9479 13.8678ZM10.1739 8.81734C9.16105 8.81734 8.33736 9.64103 8.33736 10.6539C8.33736 11.6667 9.16105 12.4904 10.1739 12.4904H23.9479C24.9608 12.4904 25.7844 11.6667 25.7844 10.6539C25.7844 9.64103 24.9608 8.81734 23.9479 8.81734H10.1739Z" fill="#414651"/>
<path d="M11.5511 11.5724C12.0582 11.5724 12.4693 11.1613 12.4693 10.6541C12.4693 10.147 12.0582 9.73584 11.5511 9.73584C11.0439 9.73584 10.6328 10.147 10.6328 10.6541C10.6328 11.1613 11.0439 11.5724 11.5511 11.5724Z" fill="#414651"/>
<path d="M15.2244 11.5724C15.7316 11.5724 16.1427 11.1613 16.1427 10.6541C16.1427 10.147 15.7316 9.73584 15.2244 9.73584C14.7173 9.73584 14.3062 10.147 14.3062 10.6541C14.3062 11.1613 14.7173 11.5724 15.2244 11.5724Z" fill="#414651"/>
<path d="M16.0233 18.9181H10.1739C8.40164 18.9181 6.95996 17.4764 6.95996 15.7042C6.95996 14.8511 7.30615 14.0228 7.91037 13.4305C8.49163 12.8364 9.32083 12.4902 10.1739 12.4902H23.9479C25.4015 12.4902 26.6761 13.4673 27.0471 14.8667L25.7156 15.2202C25.5044 14.4232 24.778 13.8676 23.9479 13.8676H10.1739C9.6817 13.8676 9.22349 14.0586 8.88465 14.4039C8.52836 14.7538 8.33736 15.212 8.33736 15.7042C8.33736 16.717 9.16105 17.5407 10.1739 17.5407H16.0233V18.9181Z" fill="#414651"/>
<path d="M11.5511 16.6227C12.0582 16.6227 12.4693 16.2115 12.4693 15.7044C12.4693 15.1973 12.0582 14.7861 11.5511 14.7861C11.0439 14.7861 10.6328 15.1973 10.6328 15.7044C10.6328 16.2115 11.0439 16.6227 11.5511 16.6227Z" fill="#414651"/>
<path d="M15.2244 16.6227C15.7316 16.6227 16.1427 16.2115 16.1427 15.7044C16.1427 15.1973 15.7316 14.7861 15.2244 14.7861C14.7173 14.7861 14.3062 15.1973 14.3062 15.7044C14.3062 16.2115 14.7173 16.6227 15.2244 16.6227Z" fill="#414651"/>
<path d="M14.5357 23.9684H10.1739C8.40164 23.9684 6.95996 22.5267 6.95996 20.7545C6.95996 19.9014 7.30615 19.0731 7.91037 18.4808C8.49163 17.8867 9.32083 17.5405 10.1739 17.5405H16.0233V18.9179H10.1739C9.6817 18.9179 9.22349 19.1089 8.88465 19.4542C8.52836 19.8041 8.33736 20.2623 8.33736 20.7545C8.33736 21.7673 9.16105 22.591 10.1739 22.591H14.5357V23.9684Z" fill="#414651"/>
<path d="M11.5511 21.673C12.0582 21.673 12.4693 21.2618 12.4693 20.7547C12.4693 20.2475 12.0582 19.8364 11.5511 19.8364C11.0439 19.8364 10.6328 20.2475 10.6328 20.7547C10.6328 21.2618 11.0439 21.673 11.5511 21.673Z" fill="#414651"/>
</svg>
