<svg viewBox="0 0 61 61" fill="none" xmlns="http://www.w3.org/2000/svg">
<circle cx="30.5" cy="30.5" r="30" fill="#757575" fill-opacity="0.05"/>
<path d="M33 26.4375H28C27.42 26.4368 26.864 26.2062 26.4539 25.7961C26.0438 25.386 25.8132 24.83 25.8125 24.25V19.25C25.8132 18.67 26.0438 18.114 26.4539 17.7039C26.864 17.2938 27.42 17.0632 28 17.0625H33C33.58 17.0632 34.136 17.2938 34.5461 17.7039C34.9562 18.114 35.1868 18.67 35.1875 19.25V24.25C35.1868 24.83 34.9562 25.386 34.5461 25.7961C34.136 26.2062 33.58 26.4368 33 26.4375ZM28 18.9375C27.9171 18.9375 27.8376 18.9704 27.779 19.029C27.7204 19.0876 27.6875 19.1671 27.6875 19.25V24.25C27.6875 24.3329 27.7204 24.4124 27.779 24.471C27.8376 24.5296 27.9171 24.5625 28 24.5625H33C33.0829 24.5625 33.1624 24.5296 33.221 24.471C33.2796 24.4124 33.3125 24.3329 33.3125 24.25V19.25C33.3125 19.1671 33.2796 19.0876 33.221 19.029C33.1624 18.9704 33.0829 18.9375 33 18.9375H28Z" fill="#757575"/>
<path d="M24.25 43.9375H19.25C18.67 43.9368 18.114 43.7062 17.7039 43.2961C17.2938 42.886 17.0632 42.33 17.0625 41.75V36.75C17.0632 36.17 17.2938 35.614 17.7039 35.2039C18.114 34.7938 18.67 34.5632 19.25 34.5625H24.25C24.83 34.5632 25.386 34.7938 25.7961 35.2039C26.2062 35.614 26.4368 36.17 26.4375 36.75V41.75C26.4368 42.33 26.2062 42.886 25.7961 43.2961C25.386 43.7062 24.83 43.9368 24.25 43.9375ZM19.25 36.4375C19.1671 36.4375 19.0876 36.4704 19.029 36.529C18.9704 36.5876 18.9375 36.6671 18.9375 36.75V41.75C18.9375 41.8329 18.9704 41.9124 19.029 41.971C19.0876 42.0296 19.1671 42.0625 19.25 42.0625H24.25C24.3329 42.0625 24.4124 42.0296 24.471 41.971C24.5296 41.9124 24.5625 41.8329 24.5625 41.75V36.75C24.5625 36.6671 24.5296 36.5876 24.471 36.529C24.4124 36.4704 24.3329 36.4375 24.25 36.4375H19.25Z" fill="#757575"/>
<path d="M41.75 43.9375H36.75C36.17 43.9368 35.614 43.7062 35.2039 43.2961C34.7938 42.886 34.5632 42.33 34.5625 41.75V36.75C34.5632 36.17 34.7938 35.614 35.2039 35.2039C35.614 34.7938 36.17 34.5632 36.75 34.5625H41.75C42.33 34.5632 42.886 34.7938 43.2961 35.2039C43.7062 35.614 43.9368 36.17 43.9375 36.75V41.75C43.9368 42.33 43.7062 42.886 43.2961 43.2961C42.886 43.7062 42.33 43.9368 41.75 43.9375ZM36.75 36.4375C36.6671 36.4375 36.5876 36.4704 36.529 36.529C36.4704 36.5876 36.4375 36.6671 36.4375 36.75V41.75C36.4375 41.8329 36.4704 41.9124 36.529 41.971C36.5876 42.0296 36.6671 42.0625 36.75 42.0625H41.75C41.8329 42.0625 41.9124 42.0296 41.971 41.971C42.0296 41.9124 42.0625 41.8329 42.0625 41.75V36.75C42.0625 36.6671 42.0296 36.5876 41.971 36.529C41.9124 36.4704 41.8329 36.4375 41.75 36.4375H36.75Z" fill="#757575"/>
<path d="M39.25 33.9375C39.0014 33.9375 38.7629 33.8387 38.5871 33.6629C38.4113 33.4871 38.3125 33.2486 38.3125 33V31.75C38.3125 31.6671 38.2796 31.5876 38.221 31.529C38.1624 31.4704 38.0829 31.4375 38 31.4375H23C22.9171 31.4375 22.8376 31.4704 22.779 31.529C22.7204 31.5876 22.6875 31.6671 22.6875 31.75V33C22.6875 33.2486 22.5887 33.4871 22.4129 33.6629C22.2371 33.8387 21.9986 33.9375 21.75 33.9375C21.5014 33.9375 21.2629 33.8387 21.0871 33.6629C20.9113 33.4871 20.8125 33.2486 20.8125 33V31.75C20.8132 31.17 21.0438 30.614 21.4539 30.2039C21.864 29.7938 22.42 29.5632 23 29.5625H38C38.58 29.5632 39.136 29.7938 39.5461 30.2039C39.9562 30.614 40.1869 31.17 40.1875 31.75V33C40.1875 33.2486 40.0887 33.4871 39.9129 33.6629C39.7371 33.8387 39.4987 33.9375 39.25 33.9375Z" fill="#757575"/>
<path d="M30.5 31.4375C30.2514 31.4375 30.0129 31.3387 29.8371 31.1629C29.6613 30.9871 29.5625 30.7486 29.5625 30.5V25.5C29.5625 25.2514 29.6613 25.0129 29.8371 24.8371C30.0129 24.6613 30.2514 24.5625 30.5 24.5625C30.7486 24.5625 30.9871 24.6613 31.1629 24.8371C31.3387 25.0129 31.4375 25.2514 31.4375 25.5V30.5C31.4375 30.7486 31.3387 30.9871 31.1629 31.1629C30.9871 31.3387 30.7486 31.4375 30.5 31.4375Z" fill="#757575"/>
</svg>
