<svg viewBox="0 0 53 64" fill="none" xmlns="http://www.w3.org/2000/svg">
<g clip-path="url(#clip0_1378_140459)">
<path d="M0.000834935 13L0 50.6583C0.113913 58.0366 11.9352 64 26.5 64C41.0648 64 52.8852 58.0366 52.9991 50.6583L53 13C52.8861 20.3784 41.0648 26.3418 26.5 26.3418C11.9352 26.3418 0.114748 20.3784 0.000834935 13Z" fill="url(#paint0_linear_1378_140459)"/>
<path fill-rule="evenodd" clip-rule="evenodd" d="M26.5 27C41.1355 27 53 20.9558 53 13.4999C53 6.04415 41.1355 0 26.5 0C11.8645 0 0 6.04415 0 13.4999C0 20.9558 11.8645 27 26.5 27ZM26.6059 20.412C33.9237 20.412 39.856 17.3899 39.856 13.6619C39.856 9.93407 33.9237 6.91199 26.6059 6.91199C19.2882 6.91199 13.356 9.93407 13.356 13.6619C13.356 17.3899 19.2882 20.412 26.6059 20.412Z" fill="#8D6AF1"/>
<path d="M18.1319 45.7052V54.3835C18.1319 55.1513 17.3025 55.6326 16.6358 55.2517L9.67578 51.2745C9.36418 51.0965 9.17188 50.7652 9.17188 50.4063V30.1506C9.17188 29.3709 10.0246 28.8912 10.6911 29.2959L26.0457 38.6218C26.3614 38.8135 26.7571 38.8156 27.0748 38.6273L42.862 29.2684C43.5286 28.8732 44.372 29.3537 44.372 30.1286V50.8082C44.372 51.1802 44.1655 51.5215 43.836 51.6941L36.876 55.3398C36.2101 55.6885 35.4119 55.2056 35.4119 54.4539V45.6621C35.4119 44.896 34.5858 44.4144 33.9192 44.7919L27.0638 48.6739C26.7514 48.8508 26.3682 48.8467 26.0597 48.6632L19.6432 44.8458C18.9767 44.4492 18.1319 44.9295 18.1319 45.7052Z" fill="white"/>
</g>
<defs>
<linearGradient id="paint0_linear_1378_140459" x1="26.5" y1="18.8101" x2="26.5" y2="64" gradientUnits="userSpaceOnUse">
<stop stop-color="#35198E"/>
<stop offset="1" stop-color="#8D6AF1"/>
</linearGradient>
<clipPath id="clip0_1378_140459">
<rect width="53" height="64" fill="white"/>
</clipPath>
</defs>
</svg>
