<svg xmlns="http://www.w3.org/2000/svg" width="153" height="178" fill="none"><g clip-path="url(#a)"><path fill="#1FCFB8" d="M76.38 0 0 48.2v80.66l76.38 48.2 76.38-48.2V48.2L76.38 0Zm56.25 118.23-56.25 35.5-56.25-35.5v-59.4l56.25-35.5 56.25 35.5v59.4Z"/><path stroke="#CDCCCC" stroke-miterlimit="10" stroke-width="3.55" d="M62.76 126.791a4.74 4.74 0 1 0-.001-9.481 4.74 4.74 0 0 0 0 9.481ZM107.76 85.93a5.33 5.33 0 1 0 0-10.661 5.33 5.33 0 0 0 0 10.66Z"/><path stroke="#CDCCCC" stroke-miterlimit="10" stroke-width="5" d="M59.21 90.29a8.5 8.5 0 1 0 .001-17 8.5 8.5 0 0 0 0 17Z"/><path stroke="#CDCCCC" stroke-miterlimit="10" stroke-width="3.55" d="m59 90.19 2.96 27.199M102.43 81.79l-34.43.4"/><path fill="#1FCFB8" d="M84.24 98.371H81l-1.22-1.22a25.43 25.43 0 0 0 6.5-17.05 26.39 26.39 0 1 0-26.39 26.39 25.434 25.434 0 0 0 17.04-6.49l1.22 1.22v3.25l20.3 20.3 6.09-6.09-20.3-20.31Zm-24.36 0a18.27 18.27 0 1 1 18.27-18.27 18.19 18.19 0 0 1-18.27 18.27Z"/><path fill="#009883" d="m152.759 48.1-20.13 10.63v59.51l-56.84 35.87v23.27l76.97-48.57V48.1Z"/></g><defs><clipPath id="a"><path fill="#fff" d="M0 0h152.76v177.38H0z"/></clipPath></defs></svg>