<svg viewBox="0 0 12 12" fill="none" xmlns="http://www.w3.org/2000/svg">
<g clip-path="url(#clip0_15264_15010)">
<path d="M10.25 6C10.25 3.65279 8.34721 1.75 6 1.75C5.09729 1.75 4.26055 2.0318 3.57227 2.51172L9.4873 8.42676C9.96714 7.73851 10.25 6.90263 10.25 6ZM1.75 6C1.75 8.34721 3.65279 10.25 6 10.25C6.90263 10.25 7.73851 9.96714 8.42676 9.4873L2.51172 3.57227C2.0318 4.26055 1.75 5.09729 1.75 6ZM11.75 6C11.75 9.17564 9.17564 11.75 6 11.75C2.82436 11.75 0.25 9.17564 0.25 6C0.25 2.82436 2.82436 0.25 6 0.25C9.17564 0.25 11.75 2.82436 11.75 6Z" fill="currentColor"/>
</g>
<defs>
<clipPath id="clip0_15264_15010">
<rect width="12" height="12" fill="white"/>
</clipPath>
</defs>
</svg>
