
<svg viewBox="0 0 16 16" fill="none" xmlns="http://www.w3.org/2000/svg">
<path d="M15.67 8.335C15.67 4.29033 12.3797 1 8.335 1C4.29033 1 1 4.28685 1 8.335C1 12.3831 4.29033 15.67 8.335 15.67C12.3797 15.67 15.67 12.3835 15.67 8.335ZM14.8979 8.335C14.8991 9.94216 14.3081 11.4934 13.2379 12.6924L3.97762 3.43213C5.17658 2.36188 6.72784 1.77089 8.335 1.77211C11.9539 1.77211 14.8979 4.71614 14.8979 8.335ZM1.77211 8.335C1.77089 6.72784 2.36188 5.17658 3.43213 3.97762L12.6924 13.2379C11.4934 14.3081 9.94216 14.8991 8.335 14.8979C4.71614 14.8979 1.77211 11.9539 1.77211 8.335Z" fill="#FFAB2A"/>
</svg>
