
<svg viewBox="0 0 50 50" fill="none" xmlns="http://www.w3.org/2000/svg">
<g clip-path="url(#clip0_2826_34844)">
<path d="M10.2266 5.17973C9.6875 5.5391 9.6875 5.52348 9.6875 9.15629V12.4219H9.17187C8.53125 12.4219 8.17969 12.5782 7.90625 12.9922L7.69531 13.3125L7.67187 17.086L7.64844 20.8594H7.08594C6.40625 20.8594 5.96094 21.0391 5.69531 21.4141L5.50781 21.6797L5.48437 32.8985L5.46875 44.1172L5.64844 44.3829C5.74219 44.5235 5.94531 44.7266 6.08594 44.8204L6.35156 45H24.9766C45.6172 45 43.8359 45.0469 44.2734 44.4766L44.4922 44.1954L44.5156 42.3594C44.5391 40.8438 44.5234 40.5 44.4219 40.3516C44.1875 39.9922 43.5469 40.0391 43.3672 40.4375C43.3125 40.5625 43.2812 41.1954 43.2812 42.1797C43.2812 43.5235 43.2656 43.7422 43.1562 43.7813C43.0859 43.8047 34.8984 43.8282 24.9609 43.8282C8.63281 43.8282 6.875 43.8125 6.76562 43.7032C6.65625 43.5938 6.64062 42.75 6.64062 35.5782V27.5782H24.9609H43.2812V32.9297C43.2812 36.7344 43.3047 38.3282 43.3672 38.4688C43.4766 38.711 43.8125 38.8516 44.0937 38.7813C44.5547 38.6719 44.5312 39.1563 44.5312 30.1485V21.8985L44.3516 21.5625C44.0859 21.0625 43.6641 20.8594 42.875 20.8594H42.2656V17.0782V13.3047L42.0859 13.0391C41.7812 12.586 41.4531 12.4219 40.8516 12.4219H40.3125V9.19535C40.3125 6.18754 40.2969 5.95317 40.1562 5.64848C40.0703 5.45317 39.8984 5.25004 39.75 5.15629C39.4922 5.00004 39.3984 5.00004 24.9922 5.00004H10.4922L10.2266 5.17973ZM29.1641 6.2266L39.0625 6.27348V7.75004V9.21879H25H10.9375V7.69535V6.17192H15.1016C17.3828 6.17192 23.7109 6.19535 29.1641 6.2266ZM39.0625 11.4454V12.4219H30.8359C21.8594 12.4219 22.3437 12.3985 22.2344 12.8594C22.1641 13.1407 22.3047 13.4766 22.5469 13.586C22.6875 13.6485 25.2578 13.6719 31.875 13.6719H41.0156V15.4297V17.1875H24.9609H8.90625V15.4297V13.6719H14.6797C20.3125 13.6719 20.4531 13.6719 20.6484 13.5157C20.75 13.4297 20.8672 13.2735 20.8906 13.1641C20.9453 12.9375 20.7734 12.5469 20.5859 12.4688C20.5156 12.4454 18.3125 12.4219 15.6953 12.4219H10.9375V11.4454V10.4688H25H39.0625V11.4454ZM41.0156 19.6485V20.8594H35.5156C30.0781 20.8594 30.0156 20.8594 29.8125 21.0235C29.5625 21.2188 29.5391 21.6094 29.7578 21.8829L29.9062 22.0704L36.5781 22.1094L43.2422 22.1485L43.2656 24.2344L43.2812 26.3282H24.9609H6.64062V24.3438C6.64062 23.25 6.66406 22.3047 6.6875 22.2344C6.73437 22.125 7.74219 22.1094 17.3203 22.1094H27.8984L28.0859 21.9141C28.3437 21.6641 28.3437 21.3047 28.0859 21.0547L27.8984 20.8594H18.3984H8.90625V19.6485V18.4375H24.9609H41.0156V19.6485Z" fill="#757575"/>
<path d="M34.266 6.89846C34.1957 7.00783 34.1566 7.30471 34.1566 7.75002C34.1488 8.50002 34.2582 8.69533 34.6644 8.68752C34.9301 8.67971 35.2738 8.67971 35.5785 8.68752C35.9144 8.69533 36.2035 8.33596 36.1332 8.01565C36.1019 7.88283 36.0863 7.70315 36.0941 7.61721C36.1879 6.84377 36.0629 6.7344 35.1098 6.72658C34.4379 6.72658 34.3676 6.74221 34.266 6.89846Z" fill="#757575"/>
<path d="M13.9135 7.31256C13.5931 7.71881 13.7963 8.22662 14.3119 8.32037C14.4525 8.34381 15.8666 8.35943 17.4447 8.34381L20.3275 8.32037L20.515 8.10162C20.7416 7.836 20.7572 7.586 20.5385 7.31256L20.3822 7.10943H17.226H14.0697L13.9135 7.31256Z" fill="#757575"/>
<path d="M36.7418 14.3751C36.4137 14.5079 36.2887 15.0548 36.5231 15.3126C36.6325 15.4298 36.6325 15.4532 36.5231 15.547C36.3356 15.7032 36.3746 16.1485 36.6012 16.3673C36.8121 16.586 37.0465 16.6095 37.3512 16.4532C37.5231 16.3673 37.5778 16.3673 37.695 16.4532C37.8981 16.6095 38.1481 16.586 38.3746 16.4063C38.6168 16.2188 38.6793 15.9532 38.5543 15.6563C38.484 15.4845 38.484 15.3751 38.5543 15.211C38.6793 14.9142 38.6168 14.6407 38.3746 14.4532C38.1481 14.2735 37.8981 14.2501 37.695 14.4063C37.5621 14.5001 37.5153 14.5001 37.3278 14.4063C37.0856 14.2813 36.984 14.2735 36.7418 14.3751Z" fill="#757575"/>
<path d="M11.6799 15.0001C11.4768 15.2266 11.4846 15.6641 11.7033 15.8829C11.8752 16.0547 11.8987 16.0547 14.7502 16.0782C16.3283 16.0938 17.7346 16.0782 17.8752 16.0547C18.0158 16.0313 18.2033 15.9376 18.2893 15.8516C18.4846 15.6563 18.4846 15.2344 18.2815 15.0157C18.1174 14.8438 18.1096 14.8438 14.969 14.8438C11.8987 14.8438 11.8205 14.8438 11.6799 15.0001Z" fill="#757575"/>
<path d="M34.1714 23.0781C33.8823 23.3203 33.8667 23.7812 34.1323 23.9922C34.2886 24.1172 34.4527 24.1406 35.273 24.1406C36.2261 24.1406 36.2417 24.1406 36.398 23.9375C36.4917 23.8203 36.562 23.6484 36.562 23.5469C36.562 23.0312 36.2808 22.8906 35.2027 22.8906C34.4527 22.8906 34.3667 22.9062 34.1714 23.0781Z" fill="#757575"/>
<path d="M38.3828 23.0313C38.1641 23.0625 37.8906 23.3984 37.8906 23.6328C37.8906 23.7266 37.9609 23.8984 38.0469 24.0078C38.1797 24.1719 38.1875 24.2188 38.0859 24.2969C37.9062 24.4453 37.8672 24.8047 38 25.0703C38.1719 25.3906 38.5938 25.4766 38.8984 25.25C39.1016 25.1016 39.1094 25.1016 39.2891 25.2422C39.6094 25.5078 40.0156 25.4219 40.2031 25.0625C40.3359 24.8047 40.2891 24.4453 40.1172 24.2969C40.0156 24.2188 40.0234 24.1719 40.1562 24.0078C40.3516 23.7578 40.3516 23.5156 40.1562 23.2656C39.9531 23.0078 39.6641 22.9531 39.3359 23.125C39.1797 23.2031 39.0469 23.2344 39.0234 23.2031C38.9609 23.1016 38.5703 23 38.3828 23.0313Z" fill="#757575"/>
<path d="M10.1804 23.7266C10.0789 23.7422 9.93045 23.8516 9.8367 23.9688C9.65701 24.2031 9.68045 24.5391 9.8992 24.7812C10.0164 24.9141 10.2273 24.9219 13.1648 24.9219H16.3054L16.4695 24.7422C16.782 24.4062 16.6648 23.9062 16.2429 23.7578C16.0008 23.6719 10.5945 23.6484 10.1804 23.7266Z" fill="#757575"/>
<path d="M34.1016 24.5312C34.0156 24.625 33.9531 24.8125 33.9531 24.9609C33.9531 25.1094 34.0156 25.2969 34.1016 25.3906C34.2266 25.5312 34.3359 25.5469 35.2422 25.5469C36.2266 25.5469 36.2422 25.5469 36.3984 25.3438C36.4922 25.2266 36.5625 25.0547 36.5625 24.9609C36.5625 24.8672 36.4922 24.6953 36.3984 24.5781C36.2422 24.375 36.2266 24.375 35.2422 24.375C34.3359 24.375 34.2266 24.3906 34.1016 24.5312Z" fill="#757575"/>
<path d="M12.2888 29.6172C11.781 29.8126 11.1873 30.336 10.9216 30.836C10.8044 31.0391 10.6716 31.4454 10.6169 31.7344C10.5388 32.1797 10.5388 32.3282 10.656 32.7891C10.8904 33.7579 11.4841 34.4219 12.4138 34.7735C12.7654 34.9063 12.9685 34.9297 13.4763 34.9063C14.5388 34.8438 15.3279 34.3282 15.7966 33.3751C16.0232 32.9141 16.0544 32.7813 16.0544 32.1876C16.0544 31.6172 16.0232 31.4532 15.8279 31.0313C15.5388 30.4141 14.9373 29.8438 14.3357 29.6172C13.7576 29.3985 12.8513 29.3985 12.2888 29.6172ZM13.8826 30.7891C14.1951 30.9063 14.5232 31.2344 14.6951 31.6016C15.2732 32.8516 13.8826 34.1407 12.6482 33.4922C11.8123 33.0469 11.5857 32.0235 12.156 31.2657C12.531 30.7813 13.2966 30.5626 13.8826 30.7891Z" fill="#1890FF"/>
<path d="M18.125 30.5625C17.9219 30.7812 17.9219 31.2031 18.125 31.4062C18.2656 31.5469 18.3828 31.5625 19.6094 31.5625C20.8359 31.5625 20.9531 31.5469 21.0938 31.4062C21.1875 31.3125 21.25 31.1484 21.25 30.9766C21.25 30.8047 21.1875 30.6406 21.0938 30.5469C20.9531 30.4062 20.8359 30.3906 19.6094 30.3906C18.3516 30.3906 18.2812 30.3984 18.125 30.5625Z" fill="#1890FF"/>
<path d="M18.125 32.3438C17.9219 32.5469 17.9219 32.9688 18.125 33.1875L18.2891 33.3594H26.75C35.1797 33.3594 35.2109 33.3594 35.3516 33.2031C35.4375 33.1094 35.5 32.9219 35.5 32.7734C35.5 32.625 35.4375 32.4375 35.3516 32.3438C35.2109 32.1875 35.1797 32.1875 26.7422 32.1875C18.3828 32.1875 18.2812 32.1875 18.125 32.3438Z" fill="#757575"/>
<path d="M12.4923 36.3126C11.2969 36.711 10.586 37.7188 10.5938 38.9844C10.5938 39.4532 10.6407 39.6719 10.8126 40.0391C11.7969 42.2032 14.7891 42.2422 15.8282 40.0938C16.0235 39.711 16.0469 39.5547 16.0548 38.9454C16.0548 38.3438 16.0235 38.1797 15.8438 37.7969C15.2579 36.5391 13.7813 35.8907 12.4923 36.3126ZM14.1407 37.6876C14.5157 37.9297 14.7501 38.3204 14.8126 38.7735C14.9141 39.5079 14.3282 40.2657 13.5391 40.4297C12.9063 40.5626 12.0626 39.9922 11.8751 39.3047C11.6954 38.6407 12.0391 37.9454 12.6954 37.6094C13.1719 37.3672 13.6954 37.3907 14.1407 37.6876Z" fill="#1890FF"/>
<path d="M18.1641 37.6172C18.0391 37.7344 17.9688 37.8984 17.9688 38.0469C17.9688 38.1953 18.0391 38.3594 18.1641 38.4766C18.3516 38.6641 18.3828 38.6719 19.5938 38.6719C20.7344 38.6719 20.8594 38.6562 21.0469 38.5078C21.3203 38.2969 21.3281 37.8359 21.0703 37.5938C20.8984 37.4297 20.8125 37.4219 19.6172 37.4219C18.375 37.4219 18.3516 37.4297 18.1641 37.6172Z" fill="#1890FF"/>
<path d="M18.1321 39.4219C17.9134 39.7031 17.9212 40.0391 18.1634 40.2734L18.3509 40.4688H26.7025C34.9134 40.4688 35.0618 40.4688 35.2571 40.3125C35.3587 40.2266 35.4759 40.0703 35.4993 39.9609C35.554 39.7344 35.3821 39.3438 35.1946 39.2656C35.1243 39.2422 31.2884 39.2188 26.679 39.2188H18.2884L18.1321 39.4219Z" fill="#757575"/>
</g>
<defs>
<clipPath id="clip0_2826_34844">
<rect width="40" height="40" fill="white" transform="translate(5 5)"/>
</clipPath>
</defs>
</svg>
