<svg viewBox="0 0 180 180" fill="none" xmlns="http://www.w3.org/2000/svg">
<ellipse opacity="0.1" cx="90" cy="174.6" rx="90" ry="5.4" fill="#7C7B91"/>
<path fill-rule="evenodd" clip-rule="evenodd" d="M43.1996 45C43.1996 39.0353 48.0349 34.2 53.9996 34.2H104.323C104.678 34.2 105.031 34.2174 105.38 34.2518V58.4197C105.38 62.3961 108.604 65.6197 112.58 65.6197H135V110.38C133.26 110 131.453 109.8 129.6 109.8C115.682 109.8 104.4 121.082 104.4 135C104.4 139.12 105.388 143.009 107.141 146.443H53.9996C48.0349 146.443 43.1996 141.608 43.1996 135.643V45ZM109.38 150.043H53.9996C46.0467 150.043 39.5996 143.596 39.5996 135.643V45C39.5996 37.0471 46.0467 30.6 53.9996 30.6H104.323C108.143 30.6 111.805 32.1171 114.506 34.8177L134.382 54.6939C137.082 57.3944 138.6 61.0571 138.6 64.8762V65.4916L138.6 65.6197H138.6V111.455C148.073 115.078 154.8 124.253 154.8 135C154.8 148.918 143.517 160.2 129.6 160.2C121.32 160.2 113.974 156.208 109.38 150.043ZM59.9268 56.3272C60.6298 55.6243 61.7695 55.6243 62.4724 56.3272L68.8496 62.7044L75.2268 56.3272C75.9298 55.6243 77.0695 55.6243 77.7724 56.3272C78.4753 57.0302 78.4753 58.1699 77.7724 58.8728L71.3952 65.25L77.7724 71.6272C78.4753 72.3302 78.4753 73.4699 77.7724 74.1728C77.0695 74.8757 75.9298 74.8757 75.2268 74.1728L68.8496 67.7956L62.4724 74.1728C61.7695 74.8757 60.6298 74.8757 59.9268 74.1728C59.2239 73.4699 59.2239 72.3302 59.9268 71.6272L66.304 65.25L59.9268 58.8728C59.2239 58.1699 59.2239 57.0302 59.9268 56.3272ZM59.3996 90.9C59.3996 88.4147 61.4143 86.4 63.8996 86.4H90.8996C93.3849 86.4 95.3996 88.4147 95.3996 90.9C95.3996 93.3853 93.3849 95.4 90.8996 95.4H63.8996C61.4143 95.4 59.3996 93.3853 59.3996 90.9ZM63.8996 90C63.4026 90 62.9996 90.403 62.9996 90.9C62.9996 91.3971 63.4026 91.8 63.8996 91.8H90.8996C91.3967 91.8 91.7996 91.3971 91.7996 90.9C91.7996 90.403 91.3967 90 90.8996 90H63.8996ZM63.8996 100.8C61.4143 100.8 59.3996 102.815 59.3996 105.3C59.3996 107.785 61.4143 109.8 63.8996 109.8H114.3C116.785 109.8 118.8 107.785 118.8 105.3C118.8 102.815 116.785 100.8 114.3 100.8H63.8996ZM62.9996 105.3C62.9996 104.803 63.4026 104.4 63.8996 104.4H114.3C114.797 104.4 115.2 104.803 115.2 105.3C115.2 105.797 114.797 106.2 114.3 106.2H63.8996C63.4026 106.2 62.9996 105.797 62.9996 105.3ZM144.147 45.4063C142.965 43.7288 140.836 43.0044 138.877 43.6125C135.809 44.5643 134.562 48.2303 136.411 50.8558L140.334 56.4241C141.55 58.1499 142.208 60.2066 142.22 62.3176L142.258 69.1606C142.272 71.778 144.404 73.8889 147.022 73.8773C149.642 73.8657 151.757 71.7313 151.744 69.1107L151.707 61.6782C151.689 58.0468 150.559 54.5081 148.467 51.5393L144.147 45.4063ZM139.944 47.0507C140.412 46.9054 140.921 47.0786 141.203 47.4796L145.524 53.6126C147.191 55.9795 148.093 58.8007 148.107 61.696L148.144 69.1285C148.147 69.7601 147.638 70.2746 147.006 70.2774C146.375 70.2801 145.861 69.7714 145.858 69.1405L145.819 62.2975C145.804 59.4511 144.916 56.6778 143.277 54.3508L139.354 48.7825C138.912 48.1548 139.21 47.2783 139.944 47.0507ZM108 135C108 123.071 117.67 113.4 129.6 113.4C141.529 113.4 151.2 123.071 151.2 135C151.2 146.929 141.529 156.6 129.6 156.6C117.67 156.6 108 146.929 108 135ZM125.1 123.3C125.1 120.815 127.114 118.8 129.6 118.8C132.085 118.8 134.1 120.815 134.1 123.3V134.1C134.1 136.585 132.085 138.6 129.6 138.6C127.114 138.6 125.1 136.585 125.1 134.1V123.3ZM129.6 122.4C129.103 122.4 128.7 122.803 128.7 123.3V134.1C128.7 134.597 129.103 135 129.6 135C130.097 135 130.5 134.597 130.5 134.1V123.3C130.5 122.803 130.097 122.4 129.6 122.4ZM129.6 151.2C127.114 151.2 125.1 149.185 125.1 146.7C125.1 144.215 127.114 142.2 129.6 142.2C132.085 142.2 134.1 144.215 134.1 146.7C134.1 149.185 132.085 151.2 129.6 151.2ZM128.7 146.7C128.7 147.197 129.103 147.6 129.6 147.6C130.097 147.6 130.5 147.197 130.5 146.7C130.5 146.203 130.097 145.8 129.6 145.8C129.103 145.8 128.7 146.203 128.7 146.7Z" fill="#A4A7AE"/>
</svg>
