<svg viewBox="0 0 40 40" fill="none" xmlns="http://www.w3.org/2000/svg">
<rect x="0.729492" y="0.319397" width="39" height="39" rx="6" fill="#F6F6FD"/>
<path d="M11.9922 9.3194C13.792 9.31949 15.0013 10.5428 15.2217 12.127H15.2266C15.2268 12.1286 15.2273 12.1303 15.2275 12.1319H28.3281C30.7561 12.132 32.7294 14.1053 32.7295 16.5333V25.9971C32.7295 28.4252 30.7562 30.3994 28.3281 30.3995H11.9922C10.2109 30.4042 8.74824 28.9551 8.72949 27.1739V12.5821C8.72949 10.7821 10.1922 9.3194 11.9922 9.3194ZM11.9873 11.1993C11.2232 11.1993 10.5996 11.8229 10.5996 12.587V23.7237C10.9839 23.5409 11.4105 23.4339 11.8604 23.4151C12.3947 23.3963 12.9109 23.4995 13.375 23.7198V26.6768C13.3749 26.2973 13.2247 25.9412 12.9482 25.6788C12.6764 25.4163 12.315 25.276 11.9307 25.2901C11.2137 25.3184 10.6277 25.8992 10.5996 26.6163V27.1602C10.6091 27.9148 11.228 28.5333 11.9873 28.5333H13.3799V12.6788C13.3828 12.1285 13.7755 11.6767 14.2705 11.6534H14.3828C14.7062 11.6769 14.983 11.8835 15.1377 12.1788C15.208 12.3194 15.2502 12.479 15.2549 12.6524V12.5538L15.2441 12.4395C15.227 12.3275 15.1904 12.2219 15.1377 12.127H15.1328C14.9828 11.8599 14.7013 11.6729 14.3779 11.6495H14.2656C13.7688 11.6729 13.375 12.0854 13.375 12.587C13.375 11.8229 12.7514 11.1993 11.9873 11.1993ZM13.4004 13.0059C13.4043 12.9864 13.4068 12.9664 13.4121 12.9473C13.4119 12.9463 13.4114 12.9454 13.4111 12.9444C13.4067 12.9645 13.4042 12.9853 13.4004 13.0059Z" fill="#D0D9EF"/>
<path d="M22.7295 18.3194V24.3194" stroke="#3455A7" stroke-width="1.5" stroke-linecap="round" stroke-linejoin="round"/>
<path d="M25.7295 21.3194L19.7295 21.3194" stroke="#3455A7" stroke-width="1.5" stroke-linecap="round" stroke-linejoin="round"/>
</svg>
