<svg xmlns="http://www.w3.org/2000/svg" width="16" height="16" fill="none"><path fill="#7147E8" d="M6.125 2.844v3.75a.469.469 0 0 0 .938 0v-3.75a.469.469 0 0 0-.938 0Z"/><path fill="#7147E8" d="M8.469 4.25h-3.75a.469.469 0 0 0 0 .938h3.75a.469.469 0 0 0 0-.938Z"/><path fill="#7147E8" d="M10.813.5H2.374C1.341.5.5 1.34.5 2.375v9.375a.468.468 0 0 0 .769.36L3.95 9.875h6.861c1.035 0 1.876-.84 1.876-1.875V2.375c0-1.034-.841-1.875-1.876-1.875ZM11.75 8c0 .517-.42.938-.938.938h-7.03a.468.468 0 0 0-.3.108L1.436 10.75V2.375c0-.517.42-.938.938-.938h8.438c.517 0 .937.421.937.938V8Z"/><path fill="#7147E8" d="M13.625 4.25a.469.469 0 0 0 0 .938c.518 0 .938.42.938.937v7.93L12.98 12.79a.473.473 0 0 0-.293-.102H6.125a.938.938 0 0 1-.938-.938v-.469a.469.469 0 0 0-.937 0v.469c0 1.034.84 1.875 1.875 1.875h6.398l2.215 1.773a.473.473 0 0 0 .497.056.47.47 0 0 0 .265-.423V6.125c0-1.034-.84-1.875-1.875-1.875Z"/></svg>