<svg width="18" height="16" viewBox="0 0 18 16" fill="none" xmlns="http://www.w3.org/2000/svg">
<path fill-rule="evenodd" clip-rule="evenodd" d="M16.0963 0H7.09861C6.04891 0 5.19486 0.963391 5.19486 2.14765V4.72486H5.19435V5.92971H5.19486V7.86843C5.19486 9.05261 6.04888 10.0161 7.09861 10.0161H10.051V10.0163H11.119V10.016H12.8351L15.5037 12.8041C15.6044 12.9093 15.7346 12.9646 15.8666 12.9646C15.9388 12.9646 16.0116 12.9481 16.0803 12.9141C16.2748 12.8183 16.4005 12.6015 16.4005 12.3621V9.98863C17.3062 9.82384 18 8.93581 18 7.86839V2.14765C18 0.963431 17.146 0 16.0963 0ZM16.9319 7.86843C16.9319 8.38822 16.557 8.81115 16.0963 8.81115H15.8665C15.5715 8.81115 15.3324 9.08088 15.3324 9.4136V10.983L13.4073 8.97154C13.3085 8.86838 13.179 8.81107 13.0444 8.81107H7.09861C6.63785 8.81107 6.26295 8.38818 6.26295 7.86835V2.14765C6.26295 1.62786 6.63782 1.20492 7.09861 1.20492H16.0963C16.557 1.20492 16.9319 1.62782 16.9319 2.14765V7.86843ZM1.90375 4.72486H4.14845V5.92971H1.90375C1.44295 5.92971 1.06808 6.35265 1.06808 6.87244V11.3274C1.06808 11.8472 1.44295 12.2701 1.90375 12.2701C2.19867 12.2701 2.43777 12.5399 2.43777 12.8726V14.0866L4.16398 12.4154C4.26083 12.3217 4.38416 12.2701 4.51178 12.2701H9.21533C9.67609 12.2701 10.051 11.8472 10.051 11.3274V11.1962H11.119V11.3274C11.119 12.5116 10.265 13.4751 9.2153 13.4751H4.70946L2.25148 15.8547C2.15276 15.9503 2.02887 16 1.90361 16C1.82809 16 1.75201 15.982 1.68071 15.945C1.49115 15.8467 1.36969 15.6329 1.36969 15.3976V13.3891C0.579023 13.128 0 12.3026 0 11.3274V6.87244C0 5.68821 0.853981 4.72478 1.90375 4.72486ZM11 3.5C11 3.224 11.224 3 11.5 3C11.776 3 12 3.224 12 3.5V4.5H13C13.276 4.5 13.5 4.724 13.5 5C13.5 5.276 13.276 5.5 13 5.5H12V6.5C12 6.776 11.776 7 11.5 7C11.224 7 11 6.776 11 6.5V5.5H10C9.724 5.5 9.5 5.276 9.5 5C9.5 4.724 9.724 4.5 10 4.5H11V3.5Z" fill="#7147E8"/>
</svg>
