<svg viewBox="0 0 126 126" fill="none" xmlns="http://www.w3.org/2000/svg">
<path d="M20.276 96.0738H19.0753C13.8719 96.0681 9.65372 91.8474 9.64833 86.638V11.7709C9.6477 10.6811 9.83639 9.59938 10.206 8.57422C8.38184 9.23405 6.80496 10.4401 5.68971 12.0285C4.57446 13.6169 3.97494 15.5105 3.97266 17.4519V92.319C3.97833 97.5284 8.19621 101.749 13.3997 101.755H14.6001C16.5403 101.753 18.4328 101.153 20.0203 100.036C21.6078 98.9197 22.8133 97.3409 23.4729 95.5145C22.4477 95.8854 21.3661 96.0746 20.276 96.0738ZM29.7905 96.0738C32.2823 93.567 33.6805 90.1742 33.6791 86.638V38.6812C33.678 37.5913 33.8667 36.5096 34.2368 35.4845C32.4127 36.1445 30.8359 37.3506 29.7207 38.939C28.6054 40.5273 28.0059 42.4209 28.0035 44.3622V92.319C28.0048 95.8552 26.6066 99.248 24.1148 101.755H66.7419C66.1455 99.9054 65.7276 98.003 65.4939 96.0738H29.7905Z" fill="#CCD1DA"/>
<path d="M13.4 105.73H69.8108V101.753H24.1151C26.6069 99.2465 28.0052 95.8538 28.0038 92.3175V44.3608C28.0095 39.1525 32.2262 34.9303 37.4305 34.9249H92.732C97.9366 34.9306 102.156 39.1516 102.162 44.3611V64.8269H106.135V44.3611C106.126 36.9568 100.13 30.9562 92.732 30.9482H92.1367V30.6111C92.129 23.2059 86.1341 17.2039 78.7355 17.1954H57.3133C57.0692 17.1954 56.8376 17.0931 56.6736 16.9122L48.9008 8.40292C47.644 7.02919 46.1158 5.9319 44.4129 5.18068C42.7101 4.42945 40.8698 4.04069 39.0089 4.03906H13.4C6.00373 4.04787 0.00851351 10.0473 0 17.4505V92.3175C0.0087973 99.7218 6.0026 105.722 13.4 105.73ZM3.97297 17.4502C3.9795 12.2424 8.19653 8.02144 13.4 8.01576H39.0092C40.3184 8.0174 41.613 8.29122 42.811 8.81989C44.009 9.34856 45.0842 10.1205 45.9684 11.0869L53.737 19.5931C54.1906 20.0908 54.743 20.4883 55.3588 20.7604C55.9745 21.0324 56.6402 21.1729 57.3133 21.173H78.7355C83.9413 21.1798 88.158 25.4016 88.1637 30.6119V30.9494H37.4305C30.0334 30.9585 24.0396 36.959 24.0308 44.3631V92.3186C24.024 97.5293 19.8061 101.75 14.6007 101.756H13.4C8.19539 101.749 3.97837 97.527 3.97297 92.3175V17.4502Z" fill="#6B7280"/>
<path d="M95 61C78.4316 61 65 74.4316 65 91C65 107.568 78.4316 121 95 121C111.568 121 125 107.568 125 91C124.981 74.4394 111.561 61.0185 95 61ZM95 117.075C80.5992 117.075 68.9252 105.401 68.9252 91C68.9252 76.5992 80.5992 64.9252 95 64.9252C109.401 64.9252 121.075 76.5992 121.075 91C121.058 105.394 109.394 117.058 95 117.075Z" fill="#1890FF"/>
<path d="M95 76C93.8951 76 93 76.888 93 77.9816V104.052C93.0089 104.571 93.2235 105.067 93.5976 105.431C93.9717 105.796 94.4753 106 95 106C95.5247 106 96.0283 105.796 96.4024 105.431C96.7765 105.067 96.9911 104.571 97 104.052V77.9816C97 76.888 96.1049 76 95 76Z" fill="#1890FF"/>
<path d="M80 91C80 92.1049 80.888 93 81.9816 93H108.052C108.571 92.9911 109.067 92.7765 109.431 92.4024C109.796 92.0283 110 91.5247 110 91C110 90.4753 109.796 89.9717 109.431 89.5976C109.067 89.2235 108.571 89.0089 108.052 89H81.9816C80.888 89 80 89.8951 80 91Z" fill="#1890FF"/>
</svg>
