
<?xml version="1.0" encoding="utf-8"?>
<!-- Generator: Adobe Illustrator 27.5.0, SVG Export Plug-In . SVG Version: 6.00 Build 0)  -->
<svg version="1.1" id="Layer_1" xmlns="http://www.w3.org/2000/svg" xmlns:xlink="http://www.w3.org/1999/xlink" x="0px" y="0px"
	 viewBox="0 0 50 50" style="enable-background:new 0 0 50 50;" xml:space="preserve">
<style type="text/css">
	.st0{fill:#757575;}
	.st1{fill:none;stroke:#1890FF;stroke-width:1.4;stroke-linecap:round;}
	.st2{fill:#FFFFFF;stroke:#757575;stroke-width:0.8;stroke-miterlimit:10;}
	.st3{fill:#FFFFFF;}
	.st4{fill:none;stroke:#757575;stroke-width:0.8;stroke-miterlimit:10;stroke-dasharray:0.802,0.802;}
</style>
<path class="st0" d="M45.7,19.4c-0.6-1.2-1.8-1.9-3.3-1.9h-0.8l0-4c0-3.9,0-4-0.2-4.4c-0.3-0.9-1.1-1.6-2-1.9C38.9,7,37.9,7,22.5,7
	C13.5,7,6,7,5.9,7c-0.4,0.1-1,0.2-1.3,0.4C4,7.7,3.5,8.3,3.2,8.9L3,9.4v27.3l0.2,0.5c0.4,0.9,1.3,1.5,2.2,1.7C5.8,39,8.3,39,13.7,39
	h7.8l0.1,0.5c0.3,1.5,1.5,2.6,3,2.9c0.7,0.1,17.5,0.1,18.3,0c1.2-0.2,2.3-0.9,2.8-2l0.3-0.6l0-9.7C46,20.1,46,20.1,45.7,19.4z
	 M44.5,39.7c-0.3,0.5-0.5,0.8-1,1.1L43,41h-9.2c-9.2,0-9.2,0-9.6-0.2c-0.2-0.1-0.5-0.3-0.7-0.5C23,39.8,23,39.7,23,37.7l0-1.8
	l-0.2-0.2c-0.3-0.3-0.7-0.3-0.9,0c-0.2,0.2-0.2,0.3-0.2,1.1v0.8h-2c-0.5,0-0.8,0-1.1,0c0,0,0,0-0.1,0h-8c0,0,0,0,0,0H5.8l-0.4-0.2
	c-0.5-0.2-0.8-0.7-1-1.2c0-0.2-0.1-1.5-0.1-3v-2.6l0,0v-2c0-0.1,0-0.7,0-1.4v-1.4l0.1,0v-1.6c0,0,0,0,0,0c0,0-0.1-2.2-0.1-4.8v-4.8
	h1.8c1.8,0,2,0,2.2-0.3c0.1-0.2,0.1-0.6,0-0.8C8.1,13.1,7.9,13,6.1,13H4.3v-1.4c0-0.8,0-1.6,0.1-1.8c0.1-0.5,0.7-1.1,1.2-1.3
	c0.2-0.1,4.9-0.1,16.8-0.1c15.2,0,16.5,0,16.7,0.2c0.4,0.2,0.7,0.6,0.9,1c0.1,0.3,0.2,0.6,0.2,1.9V13H25.8c-10.7,0-14.4,0-14.5,0.1
	c-0.4,0.2-0.5,0.6-0.3,1c0.2,0.4-0.4,0.4,14.9,0.4h14.3v3h-7.8c-8.7,0-8.2,0-9.1,0.5c-0.8,0.5-1.3,1.2-1.5,2.1
	c-0.2,0.6-0.2,12.5,0,12.8c0.3,0.4,0.9,0.3,1.2-0.1c0.1-0.1,0.1-1.7,0.1-6.4l0-6.2l0.2-0.3c0.3-0.4,0.7-0.8,1.1-1
	c0.3-0.1,1.2-0.1,9.5-0.1c9.1,0,9.2,0,9.5,0.2c0.5,0.2,0.9,0.6,1.1,1.1c0.2,0.4,0.2,0.4,0.2,9.8C44.6,39,44.6,39.4,44.5,39.7z"/>
<path class="st0" d="M6.7,10c-0.7,0.1-0.8,1.2-0.1,1.5c0.4,0.2,0.7,0.1,1-0.2c0.4-0.4,0.3-1.2-0.3-1.3C7.1,10,6.9,9.9,6.9,9.9
	C6.9,9.9,6.8,10,6.7,10z"/>
<path class="st0" d="M9.7,10c-0.5,0.2-0.7,0.9-0.3,1.3c0.3,0.3,0.7,0.3,1.1,0c0.5-0.4,0.4-1.1-0.2-1.3C10,9.9,10,9.9,9.7,10z"/>
<path class="st0" d="M12.6,10c-0.7,0.3-0.8,1.2-0.2,1.5c0.9,0.5,1.7-0.6,1-1.3C13.2,10,12.8,9.9,12.6,10z"/>
<path class="st0" d="M37.3,10c-0.8,0.3-0.6,1.6,0.3,1.6c0.9,0,1.2-1.2,0.4-1.6C37.7,9.9,37.6,9.9,37.3,10z"/>
<path class="st0" d="M15.7,10.2c-0.1,0.1-0.2,0.3-0.2,0.5c0,0.2,0,0.3,0.2,0.5l0.2,0.2h5.8h5.8l0.2-0.2c0.3-0.3,0.3-0.7,0-1
	l-0.2-0.2h-5.8C16.2,10.1,15.8,10.1,15.7,10.2z"/>
<path class="st1" d="M27,30.4h12.8"/>
<path class="st1" d="M33.4,24v12.8"/>
<path class="st2" d="M11.2,22.9H6.7c-0.3,0-0.5-0.2-0.5-0.5V18c0-0.3,0.2-0.5,0.5-0.5h4.5c0.3,0,0.5,0.2,0.5,0.5v4.5
	C11.7,22.7,11.5,22.9,11.2,22.9z"/>
<path class="st2" d="M18.9,22.9h-4.3c-0.3,0-0.6-0.3-0.6-0.6v-4.3c0-0.3,0.3-0.6,0.6-0.6h4.3c0.3,0,0.6,0.3,0.6,0.6v4.3
	C19.5,22.7,19.2,22.9,18.9,22.9z"/>
<path class="st2" d="M11.1,30.6H6.8c-0.3,0-0.6-0.3-0.6-0.6v-4.3c0-0.3,0.3-0.6,0.6-0.6h4.3c0.3,0,0.6,0.3,0.6,0.6V30
	C11.7,30.3,11.4,30.6,11.1,30.6z"/>
<g>
	<path class="st3" d="M18.9,30.6h-4.3c-0.3,0-0.6-0.3-0.6-0.6v-4.3c0-0.3,0.3-0.6,0.6-0.6h4.3c0.3,0,0.6,0.3,0.6,0.6V30
		C19.5,30.3,19.2,30.6,18.9,30.6z"/>
	<path class="st4" d="M18.9,30.6h-4.3c-0.3,0-0.6-0.3-0.6-0.6v-4.3c0-0.3,0.3-0.6,0.6-0.6h4.3c0.3,0,0.6,0.3,0.6,0.6V30
		C19.5,30.3,19.2,30.6,18.9,30.6z"/>
</g>
</svg>
