<svg xmlns="http://www.w3.org/2000/svg" width="18" height="18" fill="none"><path fill="#37352F" fill-rule="evenodd" stroke="#37352F" stroke-width=".1" d="M6.385 2.172c-.271-.234-.204-.668.136-.779A7.97 7.97 0 0 1 9 1c4.411 0 8 3.589 8 8s-3.589 8-8 8-8-3.589-8-8c0-1.417.37-2.748 1.019-3.904a.45.45 0 0 1 .714-.085.498.498 0 0 1 .076.593A7.02 7.02 0 0 0 1.937 9 7.07 7.07 0 0 0 9 16.063 7.07 7.07 0 0 0 16.063 9a7.07 7.07 0 0 0-9.194-6.734.507.507 0 0 1-.484-.094Z" clip-rule="evenodd"/><path fill="#37352F" stroke="#37352F" stroke-width=".3" d="M6.254 3.743H4.54v1.714a.344.344 0 0 1-.343.343.344.344 0 0 1-.343-.343V3.743H2.14a.344.344 0 0 1-.343-.343c0-.189.154-.343.343-.343h1.714V1.343c0-.189.154-.343.343-.343.188 0 .343.154.343.343v1.714h1.714c.189 0 .343.154.343.343a.344.344 0 0 1-.343.343Z"/><path fill="#37352F" stroke="#37352F" stroke-width=".1" d="M11.336 8.026a1.65 1.65 0 0 1 1.174-.487c.444 0 .86.173 1.175.487a.469.469 0 1 0 .663-.663 2.582 2.582 0 0 0-1.838-.761c-.694 0-1.346.27-1.837.76a.469.469 0 1 0 .663.664ZM4.312 8.026a1.65 1.65 0 0 1 1.175-.487c.443 0 .86.173 1.175.487a.469.469 0 1 0 .662-.663 2.582 2.582 0 0 0-1.837-.761c-.694 0-1.347.27-1.838.76a.469.469 0 1 0 .663.664ZM13.393 9.393h-8.78a.41.41 0 0 0-.41.41 4.8 4.8 0 0 0 9.6 0 .41.41 0 0 0-.41-.41Zm-4.39 4.39a3.979 3.979 0 0 1-3.96-3.57h7.92a3.979 3.979 0 0 1-3.96 3.57Z"/></svg>