<svg width="50" height="51" viewBox="0 0 50 51" fill="none" xmlns="http://www.w3.org/2000/svg">
<g clip-path="url(#clip0_950_8432)">
<path d="M33.672 31.5352C33.2325 31.4177 32.793 31.3594 32.3242 31.3594C29.1016 31.3594 26.4648 33.9961 26.4648 37.2188C26.4648 37.7166 26.553 38.2148 26.6701 38.6836H4.49219V32.8242C4.49219 24.7382 11.0546 18.1758 19.1406 18.1758C26.7872 18.1758 32.9979 24.0645 33.672 31.5352Z" fill="#E8596E"/>
<path d="M19.1406 0.5C14.3066 0.5 10.3516 4.55273 10.3516 9.38672C10.3516 14.2207 14.3066 18.1758 19.1406 18.1758C23.9746 18.1758 27.9297 14.2207 27.9297 9.38672C27.9297 4.55273 23.9746 0.5 19.1406 0.5Z" fill="#E8596E"/>
<path d="M19.1406 18.1758V0.5C23.9746 0.5 27.9297 4.55273 27.9297 9.38672C27.9297 14.2207 23.9746 18.1758 19.1406 18.1758Z" fill="#DB2E44"/>
<path d="M33.672 31.5352C33.2325 31.4177 32.793 31.3594 32.3242 31.3594C29.1016 31.3594 26.4648 33.9961 26.4648 37.2188C26.4648 37.7166 26.553 38.2148 26.6701 38.6836H19.1406V18.1758C26.7872 18.1758 32.9979 24.0645 33.672 31.5352Z" fill="#DB2E44"/>
<path d="M42.5781 37.2188C42.5781 36.3692 42.461 35.578 42.2558 34.7869L45.5078 32.8826L42.5781 27.785L39.2967 29.7187C38.1542 28.6639 36.7775 27.9025 35.2539 27.4337V24.0352H29.3945V27.4337C27.8709 27.9025 26.4942 28.6639 25.3517 29.7187L22.0703 27.785L19.1406 32.8826L22.3927 34.7873C22.1874 35.578 22.0703 36.3692 22.0703 37.2188C22.0703 38.0683 22.1874 38.8595 22.3927 39.6502L19.1406 41.5545L22.0703 46.6521L25.3517 44.7188C26.4942 45.7736 27.8709 46.535 29.3945 47.0038V50.5H35.2539V47.0038C36.7775 46.535 38.1542 45.7736 39.2967 44.7188L42.5781 46.6521L45.5078 41.5545L42.2558 39.6502C42.461 38.8595 42.5781 38.0683 42.5781 37.2188ZM32.3242 41.6133C29.8923 41.6133 27.9297 39.6502 27.9297 37.2188C27.9297 34.7869 29.8923 32.8242 32.3242 32.8242C34.7561 32.8242 36.7188 34.7869 36.7188 37.2188C36.7188 39.6502 34.7561 41.6133 32.3242 41.6133Z" fill="#D8D8FC"/>
<path d="M42.2558 39.6502L45.5078 41.5545L42.5781 46.6525L39.2967 44.7188C38.1542 45.7736 36.7775 46.535 35.2539 47.0038V50.5H32.3242V41.6133C34.7561 41.6133 36.7188 39.6502 36.7188 37.2188C36.7188 34.7869 34.7561 32.8242 32.3242 32.8242V24.0352H35.2539V27.4337C36.7775 27.9025 38.1542 28.6639 39.2967 29.7187L42.5781 27.785L45.5078 32.8826L42.2558 34.7873C42.461 35.578 42.5781 36.3692 42.5781 37.2188C42.5781 38.0683 42.461 38.8595 42.2558 39.6502Z" fill="#A3A3D1"/>
</g>
<defs>
<clipPath id="clip0_950_8432">
<rect width="50" height="50" fill="white" transform="translate(0 0.5)"/>
</clipPath>
</defs>
</svg>
