<svg width="17" height="17" viewBox="0 0 17 17" fill="none" xmlns="http://www.w3.org/2000/svg">
<g clip-path="url(#clip0_715_192789)">
<path d="M11.275 10.4313C11.1344 10.3937 10.9938 10.375 10.8438 10.375C9.8125 10.375 8.96875 11.2187 8.96875 12.25C8.96875 12.4093 8.99695 12.5687 9.03442 12.7187H1.9375V10.8437C1.9375 8.25623 4.03748 6.15625 6.625 6.15625C9.0719 6.15625 11.0593 8.04065 11.275 10.4313Z" fill="#E8596E"/>
<path d="M6.625 0.5C5.07812 0.5 3.8125 1.79688 3.8125 3.34375C3.8125 4.89062 5.07812 6.15625 6.625 6.15625C8.17188 6.15625 9.4375 4.89062 9.4375 3.34375C9.4375 1.79688 8.17188 0.5 6.625 0.5Z" fill="#E8596E"/>
<path d="M6.625 6.15625V0.5C8.17188 0.5 9.4375 1.79688 9.4375 3.34375C9.4375 4.89062 8.17188 6.15625 6.625 6.15625Z" fill="#DB2E44"/>
<path d="M11.275 10.4313C11.1344 10.3937 10.9938 10.375 10.8438 10.375C9.8125 10.375 8.96875 11.2187 8.96875 12.25C8.96875 12.4093 8.99695 12.5687 9.03442 12.7187H6.625V6.15625C9.0719 6.15625 11.0593 8.04065 11.275 10.4313Z" fill="#DB2E44"/>
<path d="M14.125 12.25C14.125 11.9781 14.0875 11.725 14.0219 11.4718L15.0625 10.8624L14.125 9.2312L13.075 9.84998C12.7094 9.51245 12.2688 9.2688 11.7812 9.11877V8.03125H9.90625V9.11877C9.4187 9.2688 8.97815 9.51245 8.61255 9.84998L7.5625 9.2312L6.625 10.8624L7.66565 11.4719C7.59998 11.725 7.5625 11.9781 7.5625 12.25C7.5625 12.5219 7.59998 12.775 7.66565 13.0281L6.625 13.6375L7.5625 15.2687L8.61255 14.65C8.97815 14.9875 9.4187 15.2312 9.90625 15.3812V16.5H11.7812V15.3812C12.2688 15.2312 12.7094 14.9875 13.075 14.65L14.125 15.2687L15.0625 13.6375L14.0219 13.0281C14.0875 12.775 14.125 12.5219 14.125 12.25ZM10.8438 13.6562C10.0656 13.6562 9.4375 13.0281 9.4375 12.25C9.4375 11.4718 10.0656 10.8438 10.8438 10.8438C11.6219 10.8438 12.25 11.4718 12.25 12.25C12.25 13.0281 11.6219 13.6562 10.8438 13.6562Z" fill="#D8D8FC"/>
<path d="M14.0219 13.0281L15.0625 13.6375L14.125 15.2688L13.075 14.65C12.7094 14.9875 12.2688 15.2312 11.7812 15.3812V16.5H10.8438V13.6562C11.6219 13.6562 12.25 13.0281 12.25 12.25C12.25 11.4718 11.6219 10.8438 10.8438 10.8438V8.03125H11.7812V9.11877C12.2688 9.2688 12.7094 9.51245 13.075 9.84998L14.125 9.2312L15.0625 10.8624L14.0219 11.4719C14.0875 11.725 14.125 11.9781 14.125 12.25C14.125 12.5219 14.0875 12.775 14.0219 13.0281Z" fill="#A3A3D1"/>
</g>
<defs>
<clipPath id="clip0_715_192789">
<rect width="16" height="16" fill="white" transform="translate(0.5 0.5)"/>
</clipPath>
</defs>
</svg>
