<svg viewBox="0 0 89 89" fill="none" xmlns="http://www.w3.org/2000/svg">
<path d="M0 28C0 12.536 12.536 0 28 0H61C76.464 0 89 12.536 89 28V61C89 76.464 76.464 89 61 89H28C12.536 89 0 76.464 0 61V28Z" fill="#FDF2FA"/>
<path d="M42 50H38.3327C36.5646 50 34.8689 50.7024 33.6186 51.9526C32.3684 53.2029 31.666 54.8986 31.666 56.6667V60M51.666 36.6667C51.666 40.3486 48.6812 43.3333 44.9993 43.3333C41.3175 43.3333 38.3327 40.3486 38.3327 36.6667C38.3327 32.9848 41.3175 30 44.9993 30C48.6812 30 51.666 32.9848 51.666 36.6667Z" stroke="#C11574" stroke-width="2" stroke-linecap="round" stroke-linejoin="round"/>
<path fill-rule="evenodd" clip-rule="evenodd" d="M53.7492 49.8134C50.4725 49.8134 47.8125 52.4734 47.8125 55.75C47.8125 59.0267 50.4725 61.6884 53.7492 61.6884C57.0258 61.6884 59.6875 59.0267 59.6875 55.75C59.6875 52.4734 57.0258 49.8134 53.7492 49.8134ZM53.7492 52.3134C55.6458 52.3134 57.1875 53.8534 57.1875 55.75C57.1875 57.6467 55.6458 59.1884 53.7492 59.1884C51.8525 59.1884 50.3108 57.6467 50.3108 55.75C50.3108 53.8534 51.8525 52.3134 53.7492 52.3134Z" fill="#C11574"/>
<path fill-rule="evenodd" clip-rule="evenodd" d="M55 51.0617V48.25C55 47.56 54.44 47 53.75 47C53.06 47 52.5 47.56 52.5 48.25V51.0633C52.5 51.7517 53.06 52.3133 53.75 52.3133C54.44 52.3117 55 51.7517 55 51.0617Z" fill="#C11574"/>
<path fill-rule="evenodd" clip-rule="evenodd" d="M57.9478 53.32L59.9361 51.33C60.4245 50.8433 60.4245 50.05 59.9361 49.5633C59.4495 49.075 58.6561 49.075 58.1695 49.5633L56.1795 51.5517C55.6928 52.04 55.6928 52.8317 56.1795 53.32C56.6678 53.8067 57.4595 53.8067 57.9478 53.32Z" fill="#C11574"/>
<path fill-rule="evenodd" clip-rule="evenodd" d="M58.4358 57H61.2492C61.9392 57 62.4992 56.44 62.4992 55.75C62.4992 55.06 61.9392 54.5 61.2492 54.5H58.4358C57.7475 54.5 57.1875 55.06 57.1875 55.75C57.1858 56.44 57.7475 57 58.4358 57Z" fill="#C11574"/>
<path fill-rule="evenodd" clip-rule="evenodd" d="M56.1795 59.9483L58.1695 61.9367C58.6561 62.425 59.4495 62.425 59.9361 61.9367C60.4245 61.45 60.4245 60.6567 59.9361 60.17L57.9478 58.18C57.4595 57.6933 56.6678 57.6933 56.1795 58.18C55.6928 58.6683 55.6928 59.46 56.1795 59.9483Z" fill="#C11574"/>
<path fill-rule="evenodd" clip-rule="evenodd" d="M52.5 60.4366V63.25C52.5 63.94 53.06 64.5 53.75 64.5C54.44 64.5 55 63.94 55 63.25V60.4366C55 59.7483 54.44 59.1883 53.75 59.1866C53.06 59.1866 52.5 59.7483 52.5 60.4366Z" fill="#C11574"/>
<path fill-rule="evenodd" clip-rule="evenodd" d="M49.5518 58.18L47.5635 60.17C47.0752 60.6567 47.0752 61.45 47.5635 61.9367C48.0502 62.425 48.8435 62.425 49.3302 61.9367L51.3202 59.9483C51.8068 59.46 51.8068 58.6683 51.3202 58.18C50.8318 57.6933 50.0402 57.6933 49.5518 58.18Z" fill="#C11574"/>
<path fill-rule="evenodd" clip-rule="evenodd" d="M49.0617 54.5H46.25C45.56 54.5 45 55.06 45 55.75C45 56.44 45.56 57 46.25 57H49.0617C49.7517 57 50.3133 56.44 50.3117 55.75C50.3117 55.06 49.7517 54.5 49.0617 54.5Z" fill="#C11574"/>
<path fill-rule="evenodd" clip-rule="evenodd" d="M51.3202 51.5517L49.3302 49.5633C48.8435 49.075 48.0502 49.075 47.5635 49.5633C47.0752 50.05 47.0752 50.8433 47.5635 51.33L49.5518 53.32C50.0402 53.8067 50.8318 53.8067 51.3202 53.32C51.8068 52.8317 51.8068 52.04 51.3202 51.5517Z" fill="#C11574"/>
</svg>
