<?xml version="1.0" encoding="UTF-8"?>
<svg width="50" height="50"  id="Layer_1" xmlns="http://www.w3.org/2000/svg" xmlns:xlink="http://www.w3.org/1999/xlink" version="1.1" viewBox="0 0 13 12.56">
  <!-- Generator: Adobe Illustrator 29.8.1, SVG Export Plug-In . SVG Version: 2.1.1 Build 2)  -->
  <defs>
    <style>
      .st0 {
        fill: url(#linear-gradient);
      }

      .st1 {
        fill: #fff;
      }
    </style>
    <linearGradient id="linear-gradient" x1="-.27" y1="13.14" x2="12.63" y2=".07" gradientUnits="userSpaceOnUse">
      <stop offset="0" stop-color="#03a0ff"/>
      <stop offset="1" stop-color="#016afb"/>
    </linearGradient>
  </defs>
  <rect class="st0" width="13" height="12.56" rx="4" ry="4"/>
  <path class="st1" d="M9.27,7.88h1.53c-1.15,2.78-4.81,3.31-6.85,1.38l-2.15.65c-.09.02-.17-.08-.11-.16l1.32-1.85c-1.25-2.83,1.08-5.95,4.22-5.75,1.5.1,3.12,1.16,3.57,2.6h-1.42c-.98-1.53-3.15-1.9-4.49-.57-2.57,2.56,1.06,7.19,4.3,3.89.07-.06.07-.19.08-.19Z"/>
</svg>