<svg viewBox="0 0 18 16" fill="none" xmlns="http://www.w3.org/2000/svg">
<path d="M16.7524 12.5665L10.2546 1.31198C9.89328 0.686167 9.24612 0.3125 8.52342 0.3125C7.80076 0.3125 7.15356 0.686167 6.79225 1.31198L0.294449 12.5665C-0.0668996 13.1924 -0.0668996 13.9397 0.294449 14.5655C0.655798 15.1913 1.30292 15.565 2.02562 15.565H15.0212C15.7439 15.565 16.391 15.1913 16.7524 14.5655C17.1138 13.9397 17.1138 13.1924 16.7524 12.5665ZM15.8899 14.0676C15.7086 14.3816 15.3838 14.569 15.0212 14.569H2.02562C1.66298 14.569 1.33825 14.3816 1.15696 14.0676C0.975676 13.7535 0.975676 13.3786 1.15696 13.0646L7.65483 1.80999C7.83612 1.49596 8.16084 1.30849 8.52346 1.30849C8.88603 1.30849 9.21079 1.49596 9.39208 1.80999L15.8899 13.0646C16.0712 13.3786 16.0712 13.7535 15.8899 14.0676Z" fill="currentColor"/>
<path d="M9.02135 5.28516H8.02539V10.265H9.02135V5.28516Z" fill="currentColor"/>
<path d="M8.52337 11.2617C8.15724 11.2617 7.85938 11.5596 7.85938 11.9257C7.85938 12.2918 8.15724 12.5897 8.52337 12.5897C8.88947 12.5897 9.18736 12.2918 9.18736 11.9257C9.18736 11.5596 8.8895 11.2617 8.52337 11.2617Z" fill="currentColor"/>
</svg>
