<svg viewBox="0 0 14 12" fill="none" xmlns="http://www.w3.org/2000/svg">
<path d="M2.50781 1.66259L1.28027 2.47978L1.07812 2.06972C0.966797 1.84126 0.84082 1.63037 0.796875 1.5923C0.685547 1.49857 0.527344 1.45171 0.398438 1.47514C0.146484 1.522 0 1.69774 0 1.94378C0 2.07265 0.0439453 2.17809 0.366211 2.80782C0.782227 3.63087 0.805664 3.65723 1.09863 3.65723H1.27148L2.76562 2.66137C3.84375 1.94378 4.27734 1.63916 4.31836 1.56887C4.39746 1.43999 4.39746 1.1881 4.31836 1.0563C4.23047 0.912776 4.09863 0.845409 3.90234 0.845409H3.73535L2.50781 1.66259Z" fill="currentColor"/>
<path d="M5.99414 1.37228C5.85352 1.46015 5.7832 1.59196 5.7832 1.78234C5.7832 1.97272 5.85352 2.10453 5.99414 2.1924C6.08789 2.25098 6.14941 2.25098 9.5332 2.25098C12.917 2.25098 12.9785 2.25098 13.0723 2.1924C13.2129 2.10453 13.2832 1.97272 13.2832 1.78234C13.2832 1.59196 13.2129 1.46015 13.0723 1.37228C12.9785 1.3137 12.917 1.3137 9.5332 1.3137C6.14941 1.3137 6.08789 1.3137 5.99414 1.37228Z" fill="currentColor" fill-opacity="0.4"/>
<path d="M3.82031 4.59443C3.75293 4.60615 3.29883 4.89319 2.52539 5.40869C1.86914 5.84803 1.32129 6.20537 1.30957 6.20537C1.29492 6.20537 1.18945 6.01499 1.07227 5.7836C0.837891 5.31789 0.776367 5.25345 0.536133 5.22123C0.436523 5.20952 0.37793 5.22123 0.275391 5.27396C0.0966797 5.36475 0.0117188 5.49949 0.0117188 5.68987C0.0117188 5.82167 0.0527344 5.91833 0.37207 6.55099C0.779297 7.36524 0.814453 7.40625 1.08984 7.40625C1.1748 7.40625 1.28613 7.38575 1.33887 7.35939C1.56152 7.24223 4.22754 5.44091 4.29785 5.3589C4.5791 5.02206 4.26562 4.51535 3.82031 4.59443Z" fill="currentColor"/>
<path d="M5.99414 5.59006C5.85352 5.67793 5.7832 5.80973 5.7832 6.00011C5.7832 6.1905 5.85352 6.3223 5.99414 6.41017C6.08789 6.46875 6.14941 6.46875 9.5332 6.46875C12.917 6.46875 12.9785 6.46875 13.0723 6.41017C13.2129 6.3223 13.2832 6.1905 13.2832 6.00011C13.2832 5.80973 13.2129 5.67793 13.0723 5.59006C12.9785 5.53148 12.917 5.53148 9.5332 5.53148C6.14941 5.53148 6.08789 5.53148 5.99414 5.59006Z" fill="currentColor" fill-opacity="0.4"/>
<path d="M3.82031 8.34346C3.75293 8.35517 3.29883 8.64221 2.52539 9.15771C1.86914 9.59706 1.32129 9.95439 1.30957 9.95439C1.29492 9.95439 1.18945 9.76401 1.07227 9.53262C0.837891 9.06691 0.776367 9.00248 0.536133 8.97026C0.436523 8.95854 0.37793 8.97026 0.275391 9.02298C0.0966797 9.11378 0.0117188 9.24851 0.0117188 9.43889C0.0117188 9.5707 0.0498047 9.66735 0.369141 10.3C0.773437 11.1143 0.808594 11.1553 1.08984 11.1553C1.1748 11.1553 1.28613 11.1348 1.33887 11.1084C1.56152 10.9913 4.22754 9.18993 4.29785 9.10792C4.5791 8.77109 4.26562 8.26437 3.82031 8.34346Z" fill="currentColor"/>
<path d="M5.99414 9.80783C5.85352 9.8957 5.7832 10.0275 5.7832 10.2179C5.7832 10.4083 5.85352 10.5401 5.99414 10.6279C6.08789 10.6865 6.14941 10.6865 9.5332 10.6865C12.917 10.6865 12.9785 10.6865 13.0723 10.6279C13.2129 10.5401 13.2832 10.4083 13.2832 10.2179C13.2832 10.0275 13.2129 9.8957 13.0723 9.80783C12.9785 9.74925 12.917 9.74925 9.5332 9.74925C6.14941 9.74925 6.08789 9.74925 5.99414 9.80783Z" fill="currentColor" fill-opacity="0.4"/>
</svg>
