<svg xmlns="http://www.w3.org/2000/svg" viewBox="0 0 24 24" fill="none"><path fill="#7147e8" stroke="#7147e8" stroke-width=".5" d="M19.16 5.447C16.6 1.646 13.184-.374 11.394.864c-.197.14-.368.314-.506.513 0 .015-4.143 8.48-4.143 8.48L4.432 11.44a3.316 3.316 0 0 0-1.364 3.397c.087.424.256.827.497 1.186l.104.154a3.271 3.271 0 0 0 2.081 1.375 3.248 3.248 0 0 0 2.438-.499l3.715 5.526c.546.68 1.596 1.357 2.891.56a1.967 1.967 0 0 0 .867-1.342 2.11 2.11 0 0 0-.32-1.577l-3.273-4.875s7.737-.621 7.765-.633c.242-.051.471-.15.674-.292.92-.63 1.249-1.953.931-3.725-.286-1.632-1.099-3.48-2.278-5.248ZM4.51 15.602l-.104-.154a2.285 2.285 0 0 1-.349-1.707 2.287 2.287 0 0 1 .95-1.455l1.998-1.372 2.637 3.92-1.998 1.373a2.243 2.243 0 0 1-3.134-.605Zm9.998 5.194a1.089 1.089 0 0 1-.29 1.497 1.064 1.064 0 0 1-1.485-.292l-3.704-5.508 1.489-1.022.393-.032 3.597 5.357Zm-3.909-6.358-2.874-4.274 2.741-5.643c.266 1.585 1.044 3.468 2.287 5.316 1.243 1.848 2.689 3.272 4.048 4.107l-6.202.494Zm8.529-.68c-1.382-.091-3.631-1.664-5.537-4.499-1.905-2.834-2.524-5.517-2.099-6.851.077-.25.23-.47.438-.627.208-.158.46-.245.719-.249 1.37 0 3.703 1.582 5.664 4.498 1.104 1.641 1.908 3.357 2.128 4.858.43 2.87-1.313 2.87-1.313 2.87Z"/><path fill="#7147e8" stroke="#7147e8" stroke-width=".5" d="M15.547 5.56a2.69 2.69 0 0 0-2.059.428.51.51 0 0 0-.207.53.515.515 0 0 0 .405.397.503.503 0 0 0 .38-.083 1.726 1.726 0 0 1 2.41.466 1.76 1.76 0 0 1 .014 1.946 1.744 1.744 0 0 1-.475.487.51.51 0 0 0-.195.573.51.51 0 0 0 .773.27c.45-.307.8-.743 1.004-1.25a2.795 2.795 0 0 0-.618-3.018 2.735 2.735 0 0 0-1.412-.747h-.02Z"/></svg>