<svg xmlns="http://www.w3.org/2000/svg" width="12" height="12" fill="none"><path fill="#F0AF2C" stroke="#F0AF2C" stroke-width=".2" d="M10.172 4.333v-3a.334.334 0 0 0-.195-.307.31.31 0 0 0-.348.07c-.025.025-2.536 2.57-4.928 2.57H2.466c-1.057 0-1.916.898-1.916 2 0 .992.695 1.818 1.603 1.974.067 1.6.63 3.084.655 3.15a.32.32 0 0 0 .296.21h1.597a.317.317 0 0 0 .278-.169.346.346 0 0 0-.004-.336A8.403 8.403 0 0 1 4.345 9h.904c.216 0 .37-.22.304-.435-.092-.3-.154-.58-.187-.837 2.17.388 4.24 2.486 4.263 2.51a.31.31 0 0 0 .348.07.334.334 0 0 0 .195-.308V7c.705 0 1.278-.598 1.278-1.333 0-.736-.573-1.334-1.278-1.334ZM1.188 5.667c0-.736.573-1.334 1.278-1.334h1.916V7H2.466c-.705 0-1.278-.598-1.278-1.333Zm2.14 4.666c-.15-.444-.477-1.532-.534-2.666h.641c.072 1.07.467 2.084.736 2.666h-.844Zm.844-2a5.377 5.377 0 0 1-.096-.666h.641c.02.21.056.433.11.666h-.655Zm5.362.926C8.32 8.206 6.706 7.184 5.136 7.023A.306.306 0 0 0 5.02 7V4.321c1.613-.123 3.276-1.173 4.514-2.246v7.184Zm.638-2.926V5c.353 0 .64.299.64.667 0 .367-.287.666-.64.666Z"/></svg>