<svg xmlns="http://www.w3.org/2000/svg" width="34" height="34" fill="none"><path fill="#7147e8" stroke="#7147e8" stroke-width=".5" d="M20.537 11.174c-3.094-4.595-7.225-7.038-9.389-5.541-.238.17-.445.38-.612.621 0 .018-5.008 10.252-5.008 10.252L2.73 18.42a3.97 3.97 0 0 0-1.082 1.109 4.01 4.01 0 0 0-.567 2.998c.105.513.31 1 .6 1.434l.127.187a3.954 3.954 0 0 0 2.516 1.662 3.926 3.926 0 0 0 2.947-.604l4.491 6.681c.66.823 1.93 1.641 3.496.678a2.378 2.378 0 0 0 1.048-1.624 2.55 2.55 0 0 0-.388-1.905l-3.957-5.894s9.354-.752 9.389-.766a2.23 2.23 0 0 0 .814-.353c1.112-.762 1.51-2.36 1.126-4.503-.346-1.973-1.328-4.207-2.754-6.345ZM2.826 23.45l-.126-.186a2.764 2.764 0 0 1-.422-2.064 2.764 2.764 0 0 1 1.149-1.759l2.415-1.658 3.188 4.74-2.415 1.658a2.713 2.713 0 0 1-2.045.428 2.71 2.71 0 0 1-1.744-1.159Zm12.087 6.279a1.316 1.316 0 0 1-.35 1.81 1.286 1.286 0 0 1-1.797-.353l-4.477-6.66 1.8-1.234.475-.04 4.349 6.477Zm-4.726-7.687-3.474-5.166 3.313-6.822c.322 1.916 1.262 4.193 2.765 6.427 1.503 2.233 3.25 3.956 4.893 4.965l-7.497.596Zm10.311-.822c-1.67-.11-4.39-2.012-6.693-5.438-2.304-3.427-3.052-6.67-2.538-8.283.093-.303.278-.568.529-.758a1.48 1.48 0 0 1 .87-.301c1.656 0 4.477 1.913 6.846 5.438 1.336 1.984 2.307 4.059 2.573 5.873.52 3.47-1.587 3.47-1.587 3.47Z"/><path fill="#7147e8" stroke="#7147e8" stroke-width=".5" d="M16.167 11.31a3.25 3.25 0 0 0-2.488.519.618.618 0 0 0-.251.64.623.623 0 0 0 .49.48.608.608 0 0 0 .46-.1 2.086 2.086 0 0 1 2.33-.017 2.11 2.11 0 0 1 .902 1.34 2.137 2.137 0 0 1-.302 1.593 2.108 2.108 0 0 1-.574.588.617.617 0 0 0-.236.693.618.618 0 0 0 .935.327 3.342 3.342 0 0 0 1.213-1.512 3.38 3.38 0 0 0-.747-3.648 3.306 3.306 0 0 0-1.707-.903h-.025ZM23.273 6.883h.06a.608.608 0 0 0 .409-.16.62.62 0 0 0 .199-.394l.472-4.63a.624.624 0 0 0-.312-.623.607.607 0 0 0-.839.26.623.623 0 0 0-.066.236l-.468 4.633a.622.622 0 0 0 .134.453.61.61 0 0 0 .411.225ZM31.18 5.93a.615.615 0 0 0-.85-.176l-4.26 2.823a.616.616 0 0 0-.247.7.617.617 0 0 0 .596.433.618.618 0 0 0 .35-.099l4.26-2.823a.618.618 0 0 0 .15-.858ZM32.482 13.47l-4.956-.9a.608.608 0 0 0-.458.101.62.62 0 0 0 .24 1.117l4.954.9h.108a.609.609 0 0 0 .424-.156.62.62 0 0 0-.316-1.072l.004.01Z"/></svg>