<svg width="24" height="24" viewBox="0 0 24 24" fill="none" xmlns="http://www.w3.org/2000/svg">
<path d="M15.4735 7.63316C13.1395 4.19931 10.0221 2.37426 8.38958 3.4925C8.20982 3.61909 8.05361 3.77619 7.92804 3.95667C7.92804 3.96986 4.1487 11.6182 4.1487 11.6182L2.03881 13.0477C1.71491 13.2675 1.4375 13.5491 1.22244 13.8762C1.00737 14.2033 0.858859 14.5696 0.785384 14.9541C0.711909 15.3386 0.714911 15.7338 0.79422 16.1172C0.873528 16.5005 1.02759 16.8645 1.2476 17.1883L1.34254 17.3281C1.78726 17.9759 2.46944 18.4223 3.24113 18.5704C4.01282 18.7185 4.81179 18.5564 5.46474 18.1193L8.85376 23.1118C9.35222 23.7263 10.3096 24.3382 11.4911 23.6182C11.7004 23.4825 11.879 23.3044 12.0153 23.0954C12.1515 22.8865 12.2425 22.6513 12.2823 22.405C12.3301 22.1601 12.3288 21.9081 12.2785 21.6636C12.2283 21.4192 12.1301 21.1871 11.9896 20.9809L9.00409 16.5765C9.00409 16.5765 16.0617 16.0147 16.088 16.0041C16.3084 15.958 16.5173 15.8684 16.7026 15.7404C17.5412 15.1707 17.8419 13.976 17.5518 12.3751C17.2907 10.9008 16.5496 9.2314 15.4735 7.63316ZM2.11002 16.8085L2.01507 16.6688C1.86328 16.4453 1.75704 16.1941 1.70246 15.9295C1.64787 15.6649 1.646 15.3922 1.69695 15.1269C1.74791 14.8615 1.85069 14.6089 1.9994 14.3834C2.14812 14.1578 2.33986 13.9638 2.56364 13.8125L4.38606 12.5729L6.79134 16.1149L4.96892 17.3545C4.7454 17.5065 4.49411 17.6129 4.22942 17.6677C3.96473 17.7226 3.69184 17.7247 3.42633 17.674C3.16082 17.6233 2.90791 17.5208 2.68205 17.3723C2.45619 17.2238 2.26181 17.0322 2.11002 16.8085ZM11.23 21.5004C11.3742 21.7149 11.4273 21.9778 11.3779 22.2314C11.3285 22.4851 11.1804 22.7087 10.9663 22.8534C10.7514 22.9977 10.4881 23.0509 10.234 23.0015C9.97994 22.952 9.75581 22.804 9.61068 22.5896L6.23222 17.6129L7.59046 16.6899L7.94914 16.6608L11.23 21.5004ZM7.66431 15.7562L5.04277 11.8951L7.54299 6.79711C7.78562 8.2292 8.49508 9.9303 9.62914 11.5997C10.7632 13.2692 12.0819 14.5562 13.3215 15.3105L7.66431 15.7562ZM15.4445 15.1417C14.1839 15.06 12.132 13.6384 10.394 11.0776C8.65595 8.51667 8.09156 6.09294 8.47925 4.88766C8.54927 4.66143 8.68898 4.4631 8.87844 4.32101C9.06789 4.17891 9.29741 4.10032 9.5342 4.09645C10.7843 4.09645 12.9127 5.5259 14.7008 8.16063C15.7083 9.64283 16.4415 11.1936 16.6419 12.5492C17.0349 15.1417 15.4445 15.1417 15.4445 15.1417Z" fill="black"/>
<path d="M12.1771 7.73001C11.8541 7.66657 11.5216 7.66818 11.1992 7.73475C10.8768 7.80131 10.5708 7.9315 10.2993 8.1177C10.2493 8.15233 10.2065 8.19648 10.1736 8.24763C10.1406 8.29878 10.118 8.35593 10.1071 8.41581C10.0962 8.47569 10.0972 8.53712 10.11 8.59662C10.1229 8.65611 10.1473 8.71248 10.182 8.76253C10.2166 8.81258 10.2608 8.85531 10.3119 8.8883C10.3631 8.92128 10.4202 8.94386 10.4801 8.95476C10.54 8.96566 10.6014 8.96466 10.6609 8.95181C10.7204 8.93896 10.7768 8.91453 10.8268 8.87989C10.9988 8.76318 11.192 8.68147 11.3956 8.63944C11.5991 8.59742 11.8089 8.59589 12.013 8.63495C12.2172 8.67401 12.4116 8.7529 12.5852 8.8671C12.7589 8.98131 12.9083 9.12859 13.025 9.30055C13.1418 9.47251 13.2235 9.66577 13.2655 9.86931C13.3075 10.0728 13.309 10.2827 13.27 10.4868C13.2309 10.6909 13.152 10.8853 13.0378 11.059C12.9236 11.2326 12.7763 11.3821 12.6044 11.4988C12.5233 11.5548 12.4623 11.6353 12.4302 11.7284C12.3982 11.8216 12.3968 11.9226 12.4262 12.0166C12.4557 12.1107 12.5145 12.1928 12.594 12.251C12.6735 12.3092 12.7696 12.3404 12.8681 12.3401C12.9621 12.3419 13.0543 12.3142 13.1319 12.261C13.5421 11.9831 13.8606 11.5897 14.047 11.1307C14.2335 10.6716 14.2795 10.1676 14.1792 9.68234C14.079 9.19712 13.8369 8.75258 13.4838 8.40502C13.1307 8.05747 12.6823 7.82254 12.1956 7.73001H12.1771Z" fill="black"/>
<path d="M16.0428 4.42376H16.0876C16.2018 4.42371 16.3118 4.38136 16.3966 4.30488C16.4814 4.22841 16.5348 4.12324 16.5465 4.00969L16.9026 0.549471C16.9107 0.488286 16.9064 0.426096 16.89 0.366582C16.8737 0.307069 16.8456 0.25144 16.8073 0.202987C16.7691 0.154534 16.7215 0.114241 16.6675 0.084493C16.6134 0.0547446 16.5539 0.0361447 16.4925 0.0297937C16.4311 0.0234428 16.3691 0.0294698 16.31 0.0475183C16.251 0.0655667 16.1962 0.0952699 16.1489 0.13487C16.1015 0.174471 16.0626 0.223165 16.0344 0.27807C16.0062 0.332976 15.9893 0.392978 15.9847 0.454526L15.6313 3.91738C15.6188 4.03908 15.6551 4.16078 15.7322 4.25573C15.8094 4.35068 15.9211 4.41112 16.0428 4.42376Z" fill="black"/>
<path d="M22.0093 3.71149C21.9416 3.60934 21.8361 3.53814 21.7161 3.51343C21.596 3.48873 21.471 3.51252 21.3684 3.57962L18.1535 5.68951C18.07 5.74464 18.0067 5.82539 17.9731 5.91961C17.9395 6.01384 17.9374 6.11643 17.9672 6.21194C17.9969 6.30745 18.0569 6.39071 18.1381 6.44918C18.2193 6.50764 18.3172 6.53815 18.4172 6.53611C18.5105 6.53826 18.6024 6.51255 18.681 6.46226L21.8959 4.35237C21.9957 4.2822 22.0636 4.1754 22.0848 4.05532C22.1061 3.93524 22.0789 3.81162 22.0093 3.71149Z" fill="black"/>
<path d="M22.9928 9.34388L19.253 8.67135C19.1323 8.64967 19.008 8.6768 18.9073 8.74679C18.8067 8.81678 18.738 8.92388 18.7163 9.04454C18.6946 9.1652 18.7217 9.28953 18.7917 9.39018C18.8617 9.49083 18.9688 9.55956 19.0895 9.58124L22.8266 10.2538H22.9084C23.026 10.2572 23.1404 10.2156 23.2284 10.1375C23.3163 10.0593 23.3711 9.95056 23.3816 9.83338C23.392 9.7162 23.3573 9.59945 23.2845 9.507C23.2118 9.41455 23.1065 9.35337 22.9901 9.33597L22.9928 9.34388Z" fill="black"/>
</svg>
