<svg viewBox="0 0 31 30" fill="none" xmlns="http://www.w3.org/2000/svg">
<g clip-path="url(#clip0_6190_80231)">
<path fill-rule="evenodd" clip-rule="evenodd" d="M25.5759 0.488719C25.7559 0.121672 26.1582 -0.0689215 26.5677 0.0228442C26.9665 0.118141 27.2471 0.472844 27.2471 0.88225V8.91344C29.2588 9.32284 30.7765 11.1052 30.7765 13.2352C30.7765 15.3652 29.2588 17.1493 27.2471 17.5587V25.5881C27.2471 25.9975 26.9665 26.354 26.5677 26.4475C26.5011 26.4629 26.433 26.4706 26.3647 26.4705C26.0347 26.4705 25.7277 26.287 25.5759 25.9834C22.3271 19.4875 15.8418 19.4117 15.7765 19.4117H9.60002V28.2352H10.9712C10.7859 26.827 10.6977 24.3758 11.963 22.7558C12.7818 21.7075 13.9888 21.1764 15.5559 21.1764V22.9411C14.5482 22.9411 13.8282 23.2358 13.3553 23.8393C12.2806 25.2122 12.6512 27.9617 12.8824 28.9058C12.9477 29.1687 12.8877 29.4475 12.7218 29.6611C12.5541 29.8746 12.2965 29.9999 12.0265 29.9999H8.71766C8.23061 29.9999 7.83532 29.6064 7.83532 29.1176V19.4117H6.95297C4.51943 19.4117 2.54119 17.4334 2.54119 14.9999V14.1176H1.65885C1.17179 14.1175 0.776489 13.724 0.776489 13.2352C0.776489 12.7481 1.17179 12.3528 1.65883 12.3528H2.54119V11.4705C2.54119 9.0387 4.51943 7.0587 6.95296 7.0587H15.7747C16.0394 7.05695 22.3447 6.94931 25.5759 0.488719ZM25.4824 3.90167C22.44 7.68872 18.4165 8.56048 16.6588 8.76167V17.7105C18.4165 17.9117 22.44 18.7817 25.4824 22.5705V3.90167ZM14.8941 8.82344H6.95296C5.49355 8.82344 4.3059 10.0111 4.3059 11.4705V14.9999C4.3059 16.4593 5.49355 17.647 6.95296 17.647H14.8941V8.82344ZM27.2471 10.7522V15.7199C28.2724 15.3546 29.0118 14.384 29.0118 13.2352C29.0118 12.0864 28.2724 11.1175 27.2471 10.7522Z" fill="#757575"/>
</g>
<defs>
<clipPath id="clip0_6190_80231">
<rect width="30" height="30" fill="white" transform="translate(0.776489)"/>
</clipPath>
</defs>
</svg>
