<svg xmlns="http://www.w3.org/2000/svg" version="1.1" xmlns:xlink="http://www.w3.org/1999/xlink" xmlns:svgjs="http://svgjs.com/svgjs" width="512" height="512" x="0" y="0" viewBox="0 0 512 512" style="enable-background:new 0 0 512 512" xml:space="preserve" fill="#ffffff">
	<g><g xmlns="http://www.w3.org/2000/svg">
		<path d="m451.081 301.171c-5.858-5.857-15.355-5.857-21.213 0s-5.858 15.355 0 21.213l30.259 30.259c2.929 2.929 6.767 4.393 10.606 4.393s7.678-1.465 10.607-4.393c5.858-5.857 5.858-15.355 0-21.213z" data-original="#000000" style=""></path>
		<path d="m440.474 177.037c3.838 0 7.678-1.465 10.607-4.393l30.259-30.259c5.858-5.857 5.858-15.355 0-21.213s-15.355-5.858-21.213 0l-30.259 30.259c-5.858 5.857-5.858 15.355 0 21.213 2.929 2.929 6.767 4.393 10.606 4.393z" data-original="#000000" style=""></path>
		<path d="m497 221.907h-42.793c-8.284 0-15 6.716-15 15s6.716 15 15 15h42.793c8.284 0 15-6.716 15-15s-6.716-15-15-15z" data-original="#000000" style=""></path>
		<path d="m399.247 23.588c-4.736-2.653-10.536-2.539-15.165.295l-171.785 105.205h-76.261c-16.287-.861-31.781 4.815-43.675 16.011-4.427 4.166-8.159 8.975-11.133 14.215h-37.741c-23.979 0-43.487 19.508-43.487 43.487v68.212c0 23.979 19.508 43.487 43.487 43.487h37.666c6.04 10.798 15.158 19.749 26.243 25.673l-52.261 90.52c-2.005 3.473-2.536 7.604-1.475 11.472 1.062 3.867 3.628 7.148 7.125 9.11l66.182 37.129c2.32 1.302 4.84 1.921 7.326 1.921 5.187 0 10.228-2.695 13.003-7.503l74.626-129.258 162.33 96.469c2.36 1.403 5.011 2.105 7.663 2.105 2.558 0 5.117-.653 7.418-1.963 4.687-2.667 7.582-7.645 7.582-13.037v-400.463c0-5.428-2.933-10.433-7.668-13.087zm-355.76 260.912c-7.437 0-13.487-6.05-13.487-13.487v-68.212c0-7.437 6.05-13.487 13.487-13.487h29.654c-.002.224-.017.447-.017.671v93.844c0 .225.014.447.017.671zm59.637-94.515c0-8.782 3.571-17.18 9.797-23.04 5.926-5.577 13.658-8.382 21.783-7.884.303.018 66.823.027 66.823.027v158.82h-65.422c-18.529-1.331-32.981-16.224-32.981-34.08zm25.6 265.006-40.016-22.449 47.979-83.103c.289-.5.538-1.013.763-1.53h53.097zm248.191-44.216-145.388-86.401v-171.883l145.388-89.04z" data-original="#000000" style=""></path>
	</g></g>
</svg>