<svg viewBox="0 0 89 89" fill="none" xmlns="http://www.w3.org/2000/svg">
<path d="M0 28C0 12.536 12.536 0 28 0H61C76.464 0 89 12.536 89 28V61C89 76.464 76.464 89 61 89H28C12.536 89 0 76.464 0 61V28Z" fill="#F4F3FF"/>
<path fill-rule="evenodd" clip-rule="evenodd" d="M37.1357 45.8877H38.2507L38.8818 44.0372H41.5198L42.1462 45.8877H43.2612L40.7749 39.041H39.6267L37.1357 45.8877ZM40.1913 40.175H40.2103L41.2304 43.1831H39.1665L40.1913 40.175Z" fill="#481878"/>
<path fill-rule="evenodd" clip-rule="evenodd" d="M44.0203 45.8877H45.0831V43.5485H46.5682C47.911 43.5485 48.8409 42.6328 48.8409 41.2947V41.2853C48.8409 39.9425 47.911 39.041 46.5682 39.041H44.0203V45.8877ZM46.3025 39.9378C47.2277 39.9378 47.7591 40.4359 47.7591 41.29V41.2995C47.7591 42.1583 47.2277 42.6565 46.3025 42.6565H45.0831V39.9378H46.3025Z" fill="#481878"/>
<path d="M50.8327 45.8877H49.7699V39.041H50.8327V45.8877Z" fill="#481878"/>
<path fill-rule="evenodd" clip-rule="evenodd" d="M54.0498 49.6857V49.6868H49.7575V52.2668H53.3267C53.6673 52.2668 53.9433 52.5428 53.9433 52.8834V55.2292C54.1419 55.2821 54.3367 55.3617 54.5231 55.4693C55.6633 56.1274 56.0539 57.5853 55.3956 58.7254C54.7374 59.8655 53.2796 60.2561 52.1395 59.5978C50.9994 58.9397 50.6087 57.4818 51.267 56.3417C51.5953 55.7731 52.1226 55.3908 52.71 55.2322V53.5H49.1408C48.9773 53.5 48.8204 53.4351 48.7048 53.3195C48.5891 53.2038 48.5242 53.0469 48.5242 52.8834V49.6868H45.5574V55.2304C46.5749 55.5022 47.3244 56.4303 47.3244 57.5336C47.3244 58.85 46.2572 59.9173 44.9407 59.9173C43.6243 59.9173 42.5571 58.85 42.5571 57.5336C42.5571 56.4303 43.3065 55.5022 44.3241 55.2304V49.6868H41.3572V52.8679C41.3572 53.2084 41.0811 53.4845 40.7406 53.4845H37.1713V55.2322C37.7588 55.3908 38.2861 55.7731 38.6144 56.3417C39.2726 57.4818 38.882 58.9397 37.7419 59.5978C36.6018 60.2561 35.144 59.8655 34.4857 58.7254C33.8275 57.5853 34.2181 56.1274 35.3582 55.4693C35.5446 55.3617 35.7395 55.2821 35.938 55.2292V52.8679C35.938 52.5273 36.2141 52.2512 36.5547 52.2512H40.1239V49.6868H35.6822C32.5825 49.6448 30.0826 47.1184 30.0826 44.0086C30.0826 41.2328 32.0744 38.9222 34.7067 38.428C34.6712 38.133 34.6529 37.8327 34.6529 37.5281C34.6529 33.4157 37.9866 30.082 42.0989 30.082C44.8361 30.082 47.2283 31.5589 48.5221 33.7593C48.853 33.6945 49.1949 33.6605 49.5448 33.6605C51.9559 33.6605 53.9903 35.2735 54.6279 37.4793C57.6865 37.8203 60.0646 40.4144 60.0646 43.564C60.0646 46.9094 57.3815 49.6282 54.0498 49.6857ZM53.9762 48.4535L54.0285 48.4526C56.6887 48.4066 58.8313 46.2354 58.8313 43.564C58.8313 41.0497 56.9324 38.9771 54.4912 38.705L53.672 38.6137L53.4431 37.8217C52.954 36.1294 51.3921 34.8938 49.5448 34.8938C49.2749 34.8938 49.0123 34.92 48.7591 34.9696L47.9018 35.1375L47.459 34.3844C46.3776 32.5453 44.3812 31.3153 42.0989 31.3153C38.6677 31.3153 35.8862 34.0969 35.8862 37.5281C35.8862 37.7833 35.9015 38.0344 35.9312 38.2805L36.0694 39.4272L34.9343 39.6402C32.8744 40.0269 31.3159 41.837 31.3159 44.0086C31.3159 46.4428 33.2728 48.4201 35.699 48.453L35.735 48.4535H53.9762ZM43.7904 57.5336C43.7904 58.1689 44.3054 58.684 44.9407 58.684C45.5761 58.684 46.0911 58.1689 46.0911 57.5336C46.0911 56.8982 45.5761 56.3832 44.9407 56.3832C44.3054 56.3832 43.7904 56.8982 43.7904 57.5336ZM54.3276 58.1088C54.0099 58.659 53.3064 58.8475 52.7561 58.5298C52.2059 58.2121 52.0174 57.5086 52.3351 56.9583C52.6527 56.4081 53.3563 56.2196 53.9065 56.5373C54.4568 56.855 54.6452 57.5585 54.3276 58.1088ZM35.5538 58.1088C35.8715 58.659 36.575 58.8475 37.1252 58.5298C37.6754 58.2121 37.864 57.5086 37.5463 56.9583C37.2286 56.4081 36.5251 56.2196 35.9749 56.5373C35.4247 56.855 35.2361 57.5585 35.5538 58.1088Z" fill="#481878"/>
<path fill-rule="evenodd" clip-rule="evenodd" d="M53.6078 38.6895L53.3637 37.8447C52.8844 36.1867 51.3541 34.9762 49.5443 34.9762C49.2797 34.9762 49.0226 35.0019 48.7745 35.0504L47.8601 35.2295L47.3877 34.4263C46.3204 32.6112 44.3505 31.3977 42.0985 31.3977C38.7127 31.3977 35.968 34.1425 35.968 37.5283C35.968 37.7802 35.9831 38.028 36.0124 38.2709L36.1597 39.4939L34.949 39.7212C32.9274 40.1007 31.3977 41.8775 31.3977 44.0088C31.3977 46.398 33.3184 48.3388 35.6996 48.371L35.7346 48.3715H53.9751L54.0267 48.3706C56.6421 48.3254 58.7487 46.1907 58.7487 43.5642C58.7487 41.0921 56.8817 39.0544 54.4817 38.7869L53.6078 38.6895ZM53.9758 48.4537L54.0281 48.4528C56.6883 48.4068 58.8309 46.2356 58.8309 43.5642C58.8309 41.0499 56.932 38.9773 54.4908 38.7052L53.6716 38.6139L53.4427 37.8219C52.9535 36.1295 51.3916 34.894 49.5443 34.894C49.2745 34.894 49.0119 34.9202 48.7587 34.9697L47.9014 35.1376L47.4586 34.3846C46.3772 32.5454 44.3808 31.3155 42.0985 31.3155C38.6673 31.3155 35.8858 34.097 35.8858 37.5283C35.8858 37.7835 35.9011 38.0346 35.9308 38.2807L36.0689 39.4274L34.9339 39.6404C32.874 40.0271 31.3155 41.8372 31.3155 44.0088C31.3155 46.4429 33.2724 48.4203 35.6985 48.4532L35.7346 48.4537H53.9758ZM35.6818 49.687C32.5821 49.645 30.0822 47.1185 30.0822 44.0088C30.0822 41.233 32.074 38.9224 34.7063 38.4282C34.6708 38.1332 34.6525 37.8329 34.6525 37.5283C34.6525 33.4159 37.9862 30.0822 42.0985 30.0822C44.8356 30.0822 47.2279 31.5591 48.5217 33.7594C48.8525 33.6947 49.1945 33.6607 49.5443 33.6607C51.9555 33.6607 53.9899 35.2737 54.6274 37.4795C57.6861 37.8205 60.0642 40.4146 60.0642 43.5642C60.0642 46.9096 57.3811 49.6284 54.0494 49.6859V49.687H49.757V52.2669H53.3262C53.6669 52.2669 53.9429 52.543 53.9429 52.8836V55.2294C54.1415 55.2823 54.3363 55.3618 54.5227 55.4695C55.6628 56.1276 56.0535 57.5855 55.3952 58.7256C54.737 59.8656 53.2791 60.2563 52.1391 59.598C50.999 58.9399 50.6083 57.482 51.2666 56.3419C51.5949 55.7733 52.1221 55.391 52.7096 55.2324V53.5002H49.1404C48.9769 53.5002 48.82 53.4353 48.7044 53.3197C48.5887 53.204 48.5237 53.0471 48.5237 52.8836V49.687H45.5569V55.2306C46.5745 55.5024 47.324 56.4305 47.324 57.5337C47.324 58.8502 46.2568 59.9174 44.9403 59.9174C43.6239 59.9174 42.5567 58.8502 42.5567 57.5337C42.5567 56.4305 43.3061 55.5024 44.3237 55.2306V49.687H41.3568V52.868C41.3568 53.2086 41.0807 53.4847 40.7401 53.4847H37.1709V55.2324C37.7584 55.391 38.2856 55.7733 38.6139 56.3419C39.2722 57.482 38.8816 58.9399 37.7414 59.598C36.6014 60.2563 35.1435 59.8656 34.4853 58.7256C33.8271 57.5855 34.2177 56.1276 35.3578 55.4695C35.5442 55.3618 35.7391 55.2823 35.9376 55.2294V52.868C35.9376 52.5275 36.2137 52.2514 36.5543 52.2514H40.1235V49.687H35.6818ZM40.0413 49.7692H35.6807C32.536 49.7265 30 47.1635 30 44.0088C30 41.2192 31.9828 38.8929 34.6159 38.3621C34.5858 38.0882 34.5703 37.81 34.5703 37.5283C34.5703 33.3705 37.9407 30 42.0985 30C44.8453 30 47.2483 31.471 48.563 33.6679C48.8812 33.6092 49.2092 33.5785 49.5443 33.5785C51.9738 33.5785 54.0266 35.191 54.6909 37.4041C57.7644 37.7742 60.1464 40.391 60.1464 43.5642C60.1464 46.9275 57.4706 49.6658 54.1316 49.7663V49.7692H49.8393V52.1847H53.3262C53.7123 52.1847 54.0251 52.4977 54.0251 52.8836V55.1671C54.2094 55.2212 54.3902 55.298 54.5638 55.3982C55.7432 56.0791 56.1474 57.5873 55.4664 58.7667C54.7855 59.9461 53.2774 60.3502 52.098 59.6692C50.9185 58.9883 50.5144 57.4802 51.1954 56.3008C51.5237 55.7322 52.0443 55.3438 52.6274 55.1704V53.5825H49.1404C48.9551 53.5825 48.7773 53.5089 48.6462 53.3778C48.5151 53.2468 48.4415 53.069 48.4415 52.8836V49.7692H45.6392V55.1683C46.6607 55.4696 47.4062 56.4145 47.4062 57.5337C47.4062 58.8956 46.3022 59.9997 44.9403 59.9997C43.5785 59.9997 42.4745 58.8956 42.4745 57.5337C42.4745 56.4146 43.22 55.4697 44.2414 55.1684V49.7692H41.439V52.868C41.439 53.254 41.1262 53.5669 40.7401 53.5669H37.2531V55.1704C37.8362 55.3438 38.3569 55.7322 38.6851 56.3008C39.3661 57.4802 38.962 58.9883 37.7825 59.6692C36.6032 60.3502 35.095 59.9461 34.4141 58.7667C33.7332 57.5873 34.1373 56.0791 35.3167 55.3982C35.4903 55.298 35.6711 55.2212 35.8554 55.1671V52.868C35.8554 52.4821 36.1683 52.1692 36.5543 52.1692H40.0413V49.7692ZM37.0181 45.9699L39.5688 38.9588H40.8323L43.3782 45.9699H42.0869L41.4606 44.1194H38.9404L38.3093 45.9699H37.0181ZM38.8816 44.0372H41.5196L42.1459 45.8876H43.2609L40.7747 39.041H39.6265L37.1355 45.8876H38.2505L38.8816 44.0372ZM43.9378 45.9699V38.9588H46.5679C47.2581 38.9588 47.8478 39.1908 48.2654 39.6009C48.6832 40.0113 48.9228 40.5943 48.9228 41.2853V41.2947C48.9228 41.9834 48.6832 42.5686 48.2657 42.9818C47.8482 43.3949 47.2584 43.6307 46.5679 43.6307H45.1651V45.9699H43.9378ZM45.0829 45.8876H44.02V39.041H46.5679C47.9107 39.041 48.8406 39.9425 48.8406 41.2853V41.2947C48.8406 42.6327 47.9107 43.5485 46.5679 43.5485H45.0829V45.8876ZM50.9157 45.9699H49.6884V38.9588H50.9157V45.9699ZM43.8722 57.5337C43.8722 58.1237 44.3504 58.6019 44.9403 58.6019C45.5303 58.6019 46.0085 58.1237 46.0085 57.5337C46.0085 56.9438 45.5303 56.4656 44.9403 56.4656C44.3504 56.4656 43.8722 56.9438 43.8722 57.5337ZM52.7968 58.4588C53.3077 58.7537 53.961 58.5788 54.256 58.0678C54.5509 57.5569 54.3759 56.9036 53.865 56.6087C53.3541 56.3137 52.7008 56.4887 52.4059 56.9996C52.1109 57.5106 52.2859 58.1638 52.7968 58.4588ZM35.6246 58.0678C35.9195 58.5788 36.5729 58.7537 37.0837 58.4588C37.5946 58.1638 37.7696 57.5106 37.4747 56.9996C37.1797 56.4887 36.5264 56.3137 36.0155 56.6087C35.5047 56.9036 35.3296 57.5569 35.6246 58.0678ZM41.2302 43.1831H39.1662L40.1911 40.175H40.2101L41.2302 43.1831ZM40.2004 40.4026L39.2811 43.1009H41.1155L40.2004 40.4026ZM47.3215 40.3538C47.0925 40.1406 46.7507 40.02 46.3023 40.02H45.1651V42.5743H46.3023C46.7507 42.5743 47.0924 42.4537 47.3215 42.2399C47.5496 42.027 47.6766 41.7116 47.6766 41.2995V41.29C47.6766 40.8804 47.5497 40.5663 47.3215 40.3538ZM44.9403 58.6842C44.305 58.6842 43.79 58.1691 43.79 57.5337C43.79 56.8984 44.305 56.3834 44.9403 56.3834C45.5757 56.3834 46.0907 56.8984 46.0907 57.5337C46.0907 58.1691 45.5757 58.6842 44.9403 58.6842ZM52.7557 58.53C53.3059 58.8477 54.0095 58.6592 54.3272 58.1089C54.6448 57.5587 54.4564 56.8552 53.9061 56.5375C53.3558 56.2198 52.6523 56.4083 52.3347 56.9585C52.017 57.5088 52.2055 58.2123 52.7557 58.53ZM37.1248 58.53C36.5746 58.8477 35.871 58.6592 35.5534 58.1089C35.2357 57.5587 35.4242 56.8552 35.9744 56.5375C36.5247 56.2198 37.2282 56.4083 37.5459 56.9585C37.8635 57.5088 37.675 58.2123 37.1248 58.53ZM47.7589 41.29C47.7589 40.4359 47.2275 39.9378 46.3023 39.9378H45.0829V42.6565H46.3023C47.2275 42.6565 47.7589 42.1583 47.7589 41.2995V41.29ZM49.7706 45.8876V39.041H50.8334V45.8876H49.7706Z" fill="#5925DC"/>
</svg>
