<svg viewBox="0 0 89 89" fill="none" xmlns="http://www.w3.org/2000/svg">
<path d="M0 28C0 12.536 12.536 0 28 0H61C76.464 0 89 12.536 89 28V61C89 76.464 76.464 89 61 89H28C12.536 89 0 76.464 0 61V28Z" fill="#FDF2FA"/>
<path d="M41.9082 41.4036C39.5556 43.7531 39.5556 47.5761 41.9082 49.9256C43.0845 51.1003 44.6297 51.6877 46.1749 51.6877C47.7201 51.6877 49.2653 51.1003 50.4417 49.9256C52.7943 47.5761 52.7943 43.7531 50.4417 41.4036C48.089 39.0542 44.2609 39.0542 41.9082 41.4036ZM49.8252 49.3099C48.8188 50.315 47.4972 50.8175 46.1749 50.8175C44.8534 50.8175 43.5304 50.315 42.5247 49.3099C40.5119 47.2998 40.5119 44.0287 42.5247 42.0186C43.5311 41.0135 44.8527 40.511 46.1749 40.511C47.4965 40.511 48.8188 41.0135 49.8252 42.0186C51.8387 44.0287 51.8387 47.2998 49.8252 49.3099ZM60.4346 35.5068C59.0201 35.5068 57.8699 36.6554 57.8699 38.068C57.8699 38.4284 57.9454 38.7714 58.0805 39.0832L53.7092 41.9323C53.6475 41.8075 53.5829 41.6835 53.5146 41.5624L54.6053 40.4029C54.8267 40.1673 54.8216 39.8032 54.5922 39.5741L52.2737 37.2587C52.0442 37.0303 51.6797 37.0245 51.4437 37.2457L50.2834 38.3348C49.7068 38.0121 49.0947 37.7591 48.4579 37.5807L48.4099 35.9912C48.4005 35.6677 48.1384 35.4139 47.8138 35.4139H44.5353C44.2108 35.4139 43.9494 35.6677 43.9392 35.9912L43.8913 37.5807C43.2537 37.7598 42.6409 38.0129 42.0643 38.3363L40.9054 37.2464C40.6694 37.0245 40.3042 37.0296 40.0747 37.2587L39.2237 38.1086L35.225 34.1152C35.5561 33.6837 35.7528 33.145 35.7528 32.5612C35.7528 31.1486 34.6027 30 33.1882 30C31.7737 30 30.6242 31.1479 30.6242 32.5605C30.6242 33.9731 31.7744 35.1217 33.1889 35.1217C33.7037 35.1217 34.1837 34.9687 34.586 34.7069L38.6087 38.7242L37.7577 39.5741C37.5282 39.8032 37.5224 40.1673 37.7453 40.4029L38.8367 41.5603C38.5136 42.136 38.2594 42.7481 38.0801 43.3847L36.4891 43.4326C36.1646 43.442 35.9104 43.7038 35.9104 44.0279V45.2295H33.0916C32.8839 44.0236 31.8303 43.1034 30.5647 43.1034C29.1502 43.1034 28 44.252 28 45.6646C28 47.0772 29.1502 48.2258 30.5647 48.2258C31.8303 48.2258 32.8839 47.3056 33.0916 46.0997H35.9104V47.302C35.9104 47.6261 36.1646 47.8872 36.4884 47.8973L38.0801 47.9452C38.2594 48.5819 38.5129 49.1939 38.8367 49.7696L37.7453 50.927C37.5231 51.1626 37.5282 51.5274 37.7577 51.7558L40.0762 54.0712C40.3057 54.3004 40.6702 54.3054 40.9062 54.0835L42.0651 52.9936C42.1326 53.0314 42.2008 53.0683 42.2691 53.1039L40.3616 55.4446C39.9215 55.0908 39.3631 54.8776 38.7554 54.8776C37.3409 54.8776 36.1907 56.0262 36.1907 57.4388C36.1907 58.8514 37.3409 60 38.7554 60C40.1699 60 41.3201 58.8514 41.3201 57.4388C41.3201 56.9515 41.1828 56.4954 40.9454 56.1074L43.0889 53.4773C43.351 53.5803 43.619 53.6717 43.8913 53.7485L43.9406 55.3388C43.9508 55.6622 44.2122 55.916 44.5361 55.916H47.8153C48.1391 55.916 48.4012 55.6622 48.4114 55.3388L48.4608 53.7485C49.0969 53.5701 49.7083 53.3171 50.2848 52.9944L51.4452 54.0835C51.6811 54.3054 52.0464 54.2996 52.2751 54.0705L53.1261 53.2206L55.3248 55.4164C55.078 55.8101 54.9342 56.2749 54.9342 56.7724C54.9342 58.185 56.0844 59.3336 57.4989 59.3336C58.9134 59.3336 60.0635 58.185 60.0635 56.7724C60.0635 55.3598 58.9134 54.2112 57.4989 54.2112C56.8976 54.2112 56.3443 54.4193 55.9065 54.7666L53.7419 52.605L54.5929 51.7551C54.8224 51.5259 54.8274 51.1619 54.6053 50.9263L53.5146 49.7675C53.837 49.1924 54.0904 48.5819 54.2698 47.9459L55.8622 47.8966C56.186 47.8864 56.4402 47.6254 56.4402 47.3013V44.0272C56.4402 43.7038 56.186 43.442 55.8622 43.4319L54.2698 43.3826C54.2088 43.1657 54.1384 42.9526 54.0607 42.7423L58.5583 39.8112C59.0266 40.3145 59.6947 40.6299 60.4353 40.6299C61.8498 40.6299 63 39.4813 63 38.0687C63 36.6561 61.8491 35.5068 60.4346 35.5068ZM31.4956 32.5605C31.4956 31.628 32.2551 30.8694 33.1889 30.8694C34.1227 30.8694 34.8822 31.628 34.8822 32.5605C34.8822 33.493 34.1227 34.2515 33.1889 34.2515C32.2551 34.2515 31.4956 33.493 31.4956 32.5605ZM30.5647 47.3556C29.6309 47.3556 28.8714 46.5971 28.8714 45.6646C28.8714 44.7321 29.6309 43.9736 30.5647 43.9736C31.4985 43.9736 32.258 44.7321 32.258 45.6646C32.258 46.5971 31.4985 47.3556 30.5647 47.3556ZM38.7547 59.1298C37.8209 59.1298 37.0613 58.3713 37.0613 57.4388C37.0613 56.5063 37.8209 55.7477 38.7547 55.7477C39.154 55.7477 39.5214 55.887 39.8112 56.119L39.7603 56.1814L40.1721 56.5164C40.3456 56.7818 40.4473 57.0987 40.4473 57.4388C40.448 58.3713 39.6884 59.1298 38.7547 59.1298ZM57.4981 55.0813C58.4319 55.0813 59.1915 55.8398 59.1915 56.7724C59.1915 57.7049 58.4319 58.4634 57.4981 58.4634C56.5643 58.4634 55.8048 57.7049 55.8048 56.7724C55.8048 55.8398 56.5643 55.0813 57.4981 55.0813ZM55.5681 44.2933V47.0351L54.0382 47.0823C53.7695 47.0902 53.5451 47.2708 53.4783 47.5304C53.3011 48.2244 53.0259 48.8879 52.6607 49.5028C52.5235 49.7334 52.5554 50.0191 52.7391 50.2149L53.7869 51.3287L51.846 53.267L50.7306 52.2206C50.5353 52.0372 50.2485 52.006 50.0176 52.1423C49.4018 52.5071 48.7374 52.7819 48.0425 52.9588C47.7826 53.0248 47.6018 53.2496 47.5938 53.5172L47.5466 55.0451H44.8011L44.7539 53.5172C44.7452 53.2489 44.5651 53.0248 44.3052 52.9588C43.6095 52.7819 42.9444 52.5071 42.3286 52.1416C42.0977 52.0045 41.8109 52.0357 41.6156 52.2199L40.5032 53.2663L38.5622 51.328L39.6108 50.2163C39.7945 50.0213 39.8264 49.7348 39.6892 49.5042C39.3232 48.8879 39.0473 48.2236 38.8701 47.5282C38.804 47.2686 38.5789 47.0881 38.3103 47.0801L36.781 47.0344V44.2933L38.3103 44.2477C38.5789 44.2397 38.804 44.0591 38.8701 43.7995C39.0473 43.1041 39.3232 42.4391 39.6892 41.8235C39.8264 41.5929 39.7945 41.3065 39.6108 41.1114L38.5622 39.9998L40.5032 38.0614L41.6163 39.1086C41.8116 39.2927 42.0985 39.3239 42.3294 39.1869C42.9466 38.8207 43.6117 38.5458 44.3081 38.3689C44.568 38.3022 44.7481 38.0781 44.7568 37.8098L44.8026 36.2827H47.5473L47.5931 37.8098C47.601 38.0781 47.7811 38.3029 48.0418 38.3689C48.7374 38.5458 49.4026 38.8207 50.0183 39.1854C50.2492 39.3225 50.5353 39.2906 50.7314 39.1071L51.8467 38.0607L53.7876 39.999L52.7391 41.1129C52.5554 41.3079 52.5242 41.5944 52.6607 41.8242C53.0259 42.4391 53.3011 43.1027 53.4783 43.7966C53.5444 44.0562 53.7695 44.2368 54.0374 44.2448L55.5681 44.2933ZM60.4346 39.759C59.5008 39.759 58.7413 39.0005 58.7413 38.068C58.7413 37.1354 59.5008 36.3769 60.4346 36.3769C61.3684 36.3769 62.1279 37.1354 62.1279 38.068C62.1279 39.0005 61.3684 39.759 60.4346 39.759ZM43.6756 43.6552C42.8994 43.6552 42.2684 44.2854 42.2684 45.0605V47.2389C42.2684 47.4789 42.4637 47.674 42.7041 47.674C42.9444 47.674 43.1397 47.4789 43.1397 47.2389V46.5848H44.2115V47.2389C44.2115 47.4789 44.4068 47.674 44.6472 47.674C44.8875 47.674 45.0828 47.4789 45.0828 47.2389V45.0605C45.0828 44.2854 44.4511 43.6552 43.6756 43.6552ZM43.139 45.7146V45.0605C43.139 44.7654 43.3793 44.5254 43.6749 44.5254C43.9704 44.5254 44.2108 44.7654 44.2108 45.0605V45.7146H43.139ZM47.5016 43.6552H46.318C46.0776 43.6552 45.8823 43.8503 45.8823 44.0903V47.2389C45.8823 47.4789 46.0776 47.674 46.318 47.674C46.5583 47.674 46.7537 47.4789 46.7537 47.2389V46.0997H47.5016C48.1761 46.0997 48.7251 45.5515 48.7251 44.8778C48.7251 44.2042 48.1761 43.6552 47.5016 43.6552ZM47.5016 45.2295H46.7537V44.5254H47.5016C47.6962 44.5254 47.8537 44.6835 47.8537 44.8771C47.8537 45.0707 47.6962 45.2295 47.5016 45.2295ZM49.6465 43.6552C49.8869 43.6552 50.0822 43.8503 50.0822 44.0903V47.2389C50.0822 47.4789 49.8869 47.674 49.6465 47.674C49.4062 47.674 49.2109 47.4789 49.2109 47.2389V44.0903C49.2109 43.8496 49.4055 43.6552 49.6465 43.6552Z" fill="#C11574"/>
<path d="M49.8252 49.3099L49.7545 49.2391L49.7545 49.2391L49.8252 49.3099ZM42.5247 49.3099L42.5954 49.2392L42.5954 49.2391L42.5247 49.3099ZM49.8252 42.0186L49.7545 42.0893L49.7545 42.0893L49.8252 42.0186ZM58.0805 39.0832L58.1351 39.167L58.2058 39.1209L58.1723 39.0434L58.0805 39.0832ZM53.7092 41.9323L53.6196 41.9766L53.6695 42.0775L53.7638 42.016L53.7092 41.9323ZM53.5146 41.5624L53.4418 41.4939L53.3914 41.5475L53.4275 41.6115L53.5146 41.5624ZM54.6053 40.4029L54.6781 40.4715L54.6781 40.4714L54.6053 40.4029ZM54.5922 39.5741L54.5215 39.6449L54.5922 39.5741ZM52.2737 37.2587L52.3443 37.1879L52.3442 37.1878L52.2737 37.2587ZM51.4437 37.2457L51.3753 37.1727L51.3753 37.1727L51.4437 37.2457ZM50.2834 38.3348L50.2345 38.4221L50.2984 38.4578L50.3518 38.4077L50.2834 38.3348ZM48.4579 37.5807L48.3579 37.5837L48.3601 37.6571L48.4309 37.677L48.4579 37.5807ZM48.4099 35.9912L48.31 35.9941L48.31 35.9942L48.4099 35.9912ZM43.9392 35.9912L43.8392 35.988L43.8392 35.9881L43.9392 35.9912ZM43.8913 37.5807L43.9183 37.6769L43.989 37.6571L43.9912 37.5837L43.8913 37.5807ZM42.0643 38.3363L41.9958 38.4091L42.0493 38.4594L42.1133 38.4235L42.0643 38.3363ZM40.9054 37.2464L40.9739 37.1735L40.9739 37.1735L40.9054 37.2464ZM40.0747 37.2587L40.0041 37.1879L40.0747 37.2587ZM39.2237 38.1086L39.1531 38.1793L39.2237 38.2499L39.2944 38.1793L39.2237 38.1086ZM35.225 34.1152L35.1456 34.0543L35.0922 34.1239L35.1543 34.186L35.225 34.1152ZM34.586 34.7069L34.6566 34.6362L34.5993 34.5789L34.5314 34.6231L34.586 34.7069ZM38.6087 38.7242L38.6794 38.795L38.7502 38.7242L38.6794 38.6535L38.6087 38.7242ZM37.7577 39.5741L37.687 39.5033L37.7577 39.5741ZM37.7453 40.4029L37.8181 40.3343L37.818 40.3342L37.7453 40.4029ZM38.8367 41.5603L38.9239 41.6092L38.9599 41.5451L38.9095 41.4917L38.8367 41.5603ZM38.0801 43.3847L38.0831 43.4847L38.1564 43.4825L38.1763 43.4119L38.0801 43.3847ZM36.4891 43.4326L36.492 43.5326L36.4921 43.5326L36.4891 43.4326ZM35.9104 45.2295V45.3295H36.0104V45.2295H35.9104ZM33.0916 45.2295L32.993 45.2465L33.0073 45.3295H33.0916V45.2295ZM33.0916 46.0997V45.9997H33.0073L32.993 46.0827L33.0916 46.0997ZM35.9104 46.0997H36.0104V45.9997H35.9104V46.0997ZM36.4884 47.8973L36.4853 47.9973L36.4854 47.9973L36.4884 47.8973ZM38.0801 47.9452L38.1763 47.9181L38.1564 47.8474L38.0831 47.8452L38.0801 47.9452ZM38.8367 49.7696L38.9095 49.8383L38.9599 49.7847L38.9239 49.7206L38.8367 49.7696ZM37.7453 50.927L37.6726 50.8584L37.6726 50.8584L37.7453 50.927ZM37.7577 51.7558L37.8283 51.6851L37.8282 51.685L37.7577 51.7558ZM40.0762 54.0712L40.1469 54.0005L40.0762 54.0712ZM40.9062 54.0835L40.9747 54.1564L40.9747 54.1564L40.9062 54.0835ZM42.0651 52.9936L42.1138 52.9063L42.0499 52.8706L41.9966 52.9208L42.0651 52.9936ZM42.2691 53.1039L42.3466 53.167L42.4242 53.0719L42.3153 53.0152L42.2691 53.1039ZM40.3616 55.4446L40.2989 55.5226L40.3763 55.5848L40.4391 55.5078L40.3616 55.4446ZM40.9454 56.1074L40.8679 56.0442L40.8231 56.0992L40.8601 56.1596L40.9454 56.1074ZM43.0889 53.4773L43.1255 53.3842L43.0575 53.3575L43.0114 53.4141L43.0889 53.4773ZM43.8913 53.7485L43.9912 53.7454L43.9889 53.6722L43.9184 53.6523L43.8913 53.7485ZM43.9406 55.3388L43.8407 55.3419L43.8407 55.3419L43.9406 55.3388ZM48.4114 55.3388L48.5114 55.3419L48.5114 55.3419L48.4114 55.3388ZM48.4608 53.7485L48.4338 53.6522L48.3631 53.6721L48.3608 53.7454L48.4608 53.7485ZM50.2848 52.9944L50.3532 52.9215L50.2999 52.8713L50.236 52.9071L50.2848 52.9944ZM51.4452 54.0835L51.5137 54.0107L51.5136 54.0106L51.4452 54.0835ZM52.2751 54.0705L52.2045 53.9997L52.2043 53.9998L52.2751 54.0705ZM53.1261 53.2206L53.1968 53.1499L53.1261 53.0793L53.0555 53.1499L53.1261 53.2206ZM55.3248 55.4164L55.4096 55.4695L55.4519 55.4019L55.3955 55.3456L55.3248 55.4164ZM55.9065 54.7666L55.8358 54.8374L55.8988 54.9003L55.9686 54.845L55.9065 54.7666ZM53.7419 52.605L53.6712 52.5342L53.6004 52.605L53.6712 52.6757L53.7419 52.605ZM54.5929 51.7551L54.5222 51.6843L54.5929 51.7551ZM54.6053 50.9263L54.5324 50.9948L54.5325 50.9949L54.6053 50.9263ZM53.5146 49.7675L53.4274 49.7186L53.3915 49.7826L53.4418 49.836L53.5146 49.7675ZM54.2698 47.9459L54.2667 47.846L54.1934 47.8482L54.1735 47.9188L54.2698 47.9459ZM55.8622 47.8966L55.8653 47.9965L55.8653 47.9965L55.8622 47.8966ZM55.8622 43.4319L55.8653 43.3319L55.8653 43.3319L55.8622 43.4319ZM54.2698 43.3826L54.1735 43.4096L54.1934 43.4802L54.2667 43.4825L54.2698 43.3826ZM54.0607 42.7423L54.0061 42.6585L53.9392 42.7021L53.9669 42.7769L54.0607 42.7423ZM58.5583 39.8112L58.6315 39.7431L58.5742 39.6815L58.5037 39.7274L58.5583 39.8112ZM39.8112 56.119L39.8887 56.1822L39.9524 56.104L39.8737 56.041L39.8112 56.119ZM39.7603 56.1814L39.6828 56.1182L39.6196 56.1958L39.6972 56.259L39.7603 56.1814ZM40.1721 56.5164L40.2557 56.4617L40.2472 56.4487L40.2352 56.4388L40.1721 56.5164ZM40.4473 57.4388H40.3473V57.4389L40.4473 57.4388ZM55.5681 44.2933H55.6681V44.1965L55.5713 44.1934L55.5681 44.2933ZM55.5681 47.0351L55.5712 47.1351L55.6681 47.1321V47.0351H55.5681ZM54.0382 47.0823L54.0411 47.1822L54.0412 47.1822L54.0382 47.0823ZM53.4783 47.5304L53.3815 47.5055L53.3814 47.5057L53.4783 47.5304ZM52.6607 49.5028L52.7466 49.5539L52.7467 49.5539L52.6607 49.5028ZM52.7391 50.2149L52.6662 50.2833L52.6663 50.2834L52.7391 50.2149ZM53.7869 51.3287L53.8576 51.3995L53.9263 51.3309L53.8597 51.2602L53.7869 51.3287ZM51.846 53.267L51.7776 53.34L51.8481 53.4062L51.9166 53.3378L51.846 53.267ZM50.7306 52.2206L50.6622 52.2935L50.6622 52.2936L50.7306 52.2206ZM50.0176 52.1423L49.9668 52.0562L49.9666 52.0563L50.0176 52.1423ZM48.0425 52.9588L48.0671 53.0558L48.0672 53.0557L48.0425 52.9588ZM47.5938 53.5172L47.6937 53.5203L47.6937 53.5202L47.5938 53.5172ZM47.5466 55.0451V55.1451H47.6435L47.6465 55.0482L47.5466 55.0451ZM44.8011 55.0451L44.7012 55.0482L44.7041 55.1451H44.8011V55.0451ZM44.7539 53.5172L44.8539 53.5141L44.8539 53.514L44.7539 53.5172ZM44.3052 52.9588L44.2805 53.0558L44.2806 53.0558L44.3052 52.9588ZM42.3286 52.1416L42.3797 52.0556L42.3286 52.1416ZM41.6156 52.2199L41.6841 52.2928L41.6842 52.2927L41.6156 52.2199ZM40.5032 53.2663L40.4325 53.3371L40.5011 53.4055L40.5717 53.3391L40.5032 53.2663ZM38.5622 51.328L38.4895 51.2594L38.4228 51.3301L38.4916 51.3987L38.5622 51.328ZM39.6108 50.2163L39.6835 50.285L39.6836 50.2849L39.6108 50.2163ZM39.6892 49.5042L39.6032 49.5553L39.6032 49.5554L39.6892 49.5042ZM38.8701 47.5282L38.7732 47.5529L38.7732 47.5529L38.8701 47.5282ZM38.3103 47.0801L38.3073 47.18L38.3073 47.18L38.3103 47.0801ZM36.781 47.0344H36.681V47.1315L36.7781 47.1344L36.781 47.0344ZM36.781 44.2933L36.7781 44.1934L36.681 44.1963V44.2933H36.781ZM38.3103 44.2477L38.3073 44.1477H38.3073L38.3103 44.2477ZM38.8701 43.7995L38.7732 43.7748L38.7732 43.7749L38.8701 43.7995ZM39.6892 41.8235L39.6032 41.7724L39.6032 41.7724L39.6892 41.8235ZM39.6108 41.1114L39.6836 41.0428L39.6835 41.0428L39.6108 41.1114ZM38.5622 39.9998L38.4916 39.929L38.4228 39.9977L38.4895 40.0684L38.5622 39.9998ZM40.5032 38.0614L40.5717 37.9886L40.5011 37.9222L40.4325 37.9907L40.5032 38.0614ZM41.6163 39.1086L41.6849 39.0358L41.6848 39.0357L41.6163 39.1086ZM42.3294 39.1869L42.2783 39.1009L42.2783 39.1009L42.3294 39.1869ZM44.3081 38.3689L44.3327 38.4658L44.3329 38.4658L44.3081 38.3689ZM44.7568 37.8098L44.8568 37.8131L44.8568 37.8128L44.7568 37.8098ZM44.8026 36.2827V36.1827H44.7055L44.7026 36.2797L44.8026 36.2827ZM47.5473 36.2827L47.6473 36.2797L47.6444 36.1827H47.5473V36.2827ZM47.5931 37.8098L47.693 37.8068L47.693 37.8068L47.5931 37.8098ZM48.0418 38.3689L48.0665 38.272L48.0663 38.272L48.0418 38.3689ZM50.0183 39.1854L50.0694 39.0994L50.0693 39.0994L50.0183 39.1854ZM50.7314 39.1071L50.7997 39.1801L50.7998 39.18L50.7314 39.1071ZM51.8467 38.0607L51.9174 37.99L51.8489 37.9216L51.7783 37.9878L51.8467 38.0607ZM53.7876 39.999L53.8605 40.0676L53.927 39.9969L53.8583 39.9283L53.7876 39.999ZM52.7391 41.1129L52.8119 41.1814L52.8119 41.1814L52.7391 41.1129ZM52.6607 41.8242L52.5747 41.8753L52.5747 41.8753L52.6607 41.8242ZM53.4783 43.7966L53.5752 43.772L53.5752 43.7719L53.4783 43.7966ZM54.0374 44.2448L54.0406 44.1448L54.0404 44.1448L54.0374 44.2448ZM43.1397 46.5848V46.4848H43.0397V46.5848H43.1397ZM44.2115 46.5848H44.3115V46.4848H44.2115V46.5848ZM43.139 45.7146H43.039V45.8146H43.139V45.7146ZM44.2108 45.7146V45.8146H44.3108V45.7146H44.2108ZM46.7537 46.0997V45.9997H46.6537V46.0997H46.7537ZM46.7537 45.2295H46.6537V45.3295H46.7537V45.2295ZM46.7537 44.5254V44.4254H46.6537V44.5254H46.7537ZM41.8376 41.3329C39.4458 43.7214 39.4458 47.6078 41.8376 49.9963L41.9789 49.8548C39.6653 47.5444 39.6653 43.7848 41.9789 41.4744L41.8376 41.3329ZM41.8376 49.9963C43.0335 51.1906 44.6044 51.7877 46.1749 51.7877V51.5877C44.655 51.5877 43.1356 51.01 41.9789 49.8548L41.8376 49.9963ZM46.1749 51.7877C47.7454 51.7877 49.3164 51.1906 50.5123 49.9963L50.371 49.8548C49.2142 51.01 47.6948 51.5877 46.1749 51.5877V51.7877ZM50.5123 49.9963C52.9041 47.6078 52.9041 43.7214 50.5123 41.3329L50.371 41.4744C52.6845 43.7848 52.6845 47.5444 50.371 49.8548L50.5123 49.9963ZM50.5123 41.3329C48.1206 38.9444 44.2292 38.9444 41.8376 41.3329L41.9789 41.4744C44.2925 39.1639 48.0574 39.1639 50.371 41.4744L50.5123 41.3329ZM49.7545 49.2391C48.7677 50.2246 47.4719 50.7175 46.1749 50.7175V50.9175C47.5225 50.9175 48.8698 50.4053 49.8958 49.3807L49.7545 49.2391ZM46.1749 50.7175C44.8787 50.7175 43.5815 50.2246 42.5954 49.2392L42.454 49.3806C43.4793 50.4053 44.8281 50.9175 46.1749 50.9175V50.7175ZM42.5954 49.2391C40.6217 47.2681 40.6217 44.0604 42.5954 42.0893L42.454 41.9478C40.4021 43.997 40.4021 47.3315 42.454 49.3807L42.5954 49.2391ZM42.5954 42.0893C43.5822 41.1038 44.878 40.611 46.1749 40.611V40.411C44.8273 40.411 43.48 40.9232 42.454 41.9478L42.5954 42.0893ZM46.1749 40.611C47.4712 40.611 48.7677 41.1038 49.7545 42.0893L49.8958 41.9478C48.8698 40.9232 47.5218 40.411 46.1749 40.411V40.611ZM49.7545 42.0893C51.7289 44.0604 51.7289 47.2681 49.7545 49.2391L49.8958 49.3807C51.9485 47.3315 51.9485 43.997 49.8958 41.9478L49.7545 42.0893ZM60.4346 35.4068C58.965 35.4068 57.7699 36.6 57.7699 38.068H57.9699C57.9699 36.7107 59.0752 35.6068 60.4346 35.6068V35.4068ZM57.7699 38.068C57.7699 38.4425 57.8484 38.799 57.9887 39.1229L58.1723 39.0434C58.0425 38.7438 57.9699 38.4143 57.9699 38.068H57.7699ZM58.0259 38.9994L53.6546 41.8485L53.7638 42.016L58.1351 39.167L58.0259 38.9994ZM53.7988 41.8879C53.7365 41.762 53.6711 41.6363 53.6017 41.5133L53.4275 41.6115C53.4947 41.7308 53.5585 41.8531 53.6196 41.9766L53.7988 41.8879ZM53.5875 41.631L54.6781 40.4715L54.5324 40.3344L53.4418 41.4939L53.5875 41.631ZM54.6781 40.4714C54.9365 40.1965 54.9306 39.7708 54.6628 39.5033L54.5215 39.6449C54.7127 39.8357 54.7169 40.1381 54.5324 40.3345L54.6781 40.4714ZM54.6628 39.5033L52.3443 37.1879L52.203 37.3295L54.5215 39.6449L54.6628 39.5033ZM52.3442 37.1878C52.0767 36.9215 51.6507 36.9146 51.3753 37.1727L51.5121 37.3186C51.7087 37.1344 52.0118 37.1391 52.2031 37.3296L52.3442 37.1878ZM51.3753 37.1727L50.2149 38.2619L50.3518 38.4077L51.5121 37.3186L51.3753 37.1727ZM50.3322 38.2476C49.7488 37.921 49.1293 37.6649 48.4848 37.4844L48.4309 37.677C49.0601 37.8532 49.6649 38.1033 50.2345 38.4221L50.3322 38.2476ZM48.5578 37.5777L48.5099 35.9881L48.31 35.9942L48.3579 37.5837L48.5578 37.5777ZM48.5099 35.9882C48.4989 35.6105 48.1922 35.3139 47.8138 35.3139V35.5139C48.0846 35.5139 48.3021 35.725 48.31 35.9941L48.5099 35.9882ZM47.8138 35.3139H44.5353V35.5139H47.8138V35.3139ZM44.5353 35.3139C44.1568 35.3139 43.8511 35.6106 43.8392 35.988L44.0391 35.9943C44.0476 35.7249 44.2648 35.5139 44.5353 35.5139V35.3139ZM43.8392 35.9881L43.7913 37.5777L43.9912 37.5837L44.0391 35.9942L43.8392 35.9881ZM43.8642 37.4844C43.2191 37.6656 42.5989 37.9217 42.0154 38.2491L42.1133 38.4235C42.6828 38.104 43.2883 37.8539 43.9183 37.6769L43.8642 37.4844ZM42.1328 38.2634L40.9739 37.1735L40.8369 37.3192L41.9958 38.4091L42.1328 38.2634ZM40.9739 37.1735C40.6987 36.9147 40.2718 36.9206 40.0041 37.1879L40.1454 37.3295C40.3366 37.1385 40.6402 37.1343 40.8369 37.3192L40.9739 37.1735ZM40.0041 37.1879L39.1531 38.0378L39.2944 38.1793L40.1454 37.3295L40.0041 37.1879ZM39.2944 38.0378L35.2956 34.0444L35.1543 34.186L39.1531 38.1793L39.2944 38.0378ZM35.3043 34.1761C35.6483 33.7278 35.8528 33.1678 35.8528 32.5612H35.6528C35.6528 33.1221 35.4639 33.6396 35.1456 34.0543L35.3043 34.1761ZM35.8528 32.5612C35.8528 31.0933 34.6578 29.9 33.1882 29.9V30.1C34.5476 30.1 35.6528 31.204 35.6528 32.5612H35.8528ZM33.1882 29.9C31.7186 29.9 30.5242 31.0925 30.5242 32.5605H30.7242C30.7242 31.2033 31.8288 30.1 33.1882 30.1V29.9ZM30.5242 32.5605C30.5242 34.0284 31.7193 35.2217 33.1889 35.2217V35.0217C31.8295 35.0217 30.7242 33.9177 30.7242 32.5605H30.5242ZM33.1889 35.2217C33.7238 35.2217 34.2226 35.0627 34.6405 34.7907L34.5314 34.6231C34.1448 34.8747 33.6836 35.0217 33.1889 35.0217V35.2217ZM34.5153 34.7777L38.538 38.795L38.6794 38.6535L34.6566 34.6362L34.5153 34.7777ZM38.538 38.6535L37.687 39.5033L37.8283 39.6449L38.6794 38.795L38.538 38.6535ZM37.687 39.5033C37.4194 39.7706 37.4124 40.1965 37.6727 40.4717L37.818 40.3342C37.6324 40.138 37.6371 39.8359 37.8283 39.6449L37.687 39.5033ZM37.6726 40.4715L38.764 41.6289L38.9095 41.4917L37.8181 40.3343L37.6726 40.4715ZM38.7495 41.5113C38.4225 42.094 38.1653 42.7133 37.9838 43.3576L38.1763 43.4119C38.3535 42.7828 38.6046 42.1781 38.9239 41.6092L38.7495 41.5113ZM38.0771 43.2848L36.4861 43.3326L36.4921 43.5326L38.0831 43.4847L38.0771 43.2848ZM36.4862 43.3326C36.1076 43.3436 35.8104 43.6497 35.8104 44.0279H36.0104C36.0104 43.7579 36.2215 43.5404 36.492 43.5326L36.4862 43.3326ZM35.8104 44.0279V45.2295H36.0104V44.0279H35.8104ZM35.9104 45.1295H33.0916V45.3295H35.9104V45.1295ZM33.1901 45.2125C32.9744 43.9595 31.8798 43.0034 30.5647 43.0034V43.2034C31.7808 43.2034 32.7935 44.0877 32.993 45.2465L33.1901 45.2125ZM30.5647 43.0034C29.0951 43.0034 27.9 44.1967 27.9 45.6646H28.1C28.1 44.3074 29.2053 43.2034 30.5647 43.2034V43.0034ZM27.9 45.6646C27.9 47.1325 29.0951 48.3258 30.5647 48.3258V48.1258C29.2053 48.1258 28.1 47.0218 28.1 45.6646H27.9ZM30.5647 48.3258C31.8798 48.3258 32.9744 47.3697 33.1901 46.1167L32.993 46.0827C32.7935 47.2415 31.7808 48.1258 30.5647 48.1258V48.3258ZM33.0916 46.1997H35.9104V45.9997H33.0916V46.1997ZM35.8104 46.0997V47.302H36.0104V46.0997H35.8104ZM35.8104 47.302C35.8104 47.6804 36.1077 47.9854 36.4853 47.9973L36.4915 47.7974C36.2214 47.7889 36.0104 47.5719 36.0104 47.302H35.8104ZM36.4854 47.9973L38.0771 48.0451L38.0831 47.8452L36.4914 47.7974L36.4854 47.9973ZM37.9838 47.9723C38.1653 48.6165 38.4218 49.2359 38.7495 49.8187L38.9239 49.7206C38.6039 49.1518 38.3536 48.5472 38.1763 47.9181L37.9838 47.9723ZM38.764 49.701L37.6726 50.8584L37.8181 50.9956L38.9095 49.8383L38.764 49.701ZM37.6726 50.8584C37.4134 51.1333 37.4191 51.5599 37.6871 51.8267L37.8282 51.685C37.6373 51.4949 37.6329 51.192 37.8181 50.9956L37.6726 50.8584ZM37.687 51.8266L40.0055 54.142L40.1469 54.0005L37.8283 51.6851L37.687 51.8266ZM40.0055 54.142C40.2733 54.4093 40.6994 54.4152 40.9747 54.1564L40.8377 54.0107C40.6409 54.1956 40.338 54.1914 40.1469 54.0005L40.0055 54.142ZM40.9747 54.1564L42.1336 53.0665L41.9966 52.9208L40.8377 54.0107L40.9747 54.1564ZM42.0163 53.081C42.0846 53.1191 42.1537 53.1565 42.2229 53.1926L42.3153 53.0152C42.248 52.9801 42.1806 52.9436 42.1138 52.9063L42.0163 53.081ZM42.1916 53.0407L40.284 55.3815L40.4391 55.5078L42.3466 53.167L42.1916 53.0407ZM40.4242 55.3667C39.9673 54.9992 39.387 54.7776 38.7554 54.7776V54.9776C39.3393 54.9776 39.8758 55.1823 40.2989 55.5226L40.4242 55.3667ZM38.7554 54.7776C37.2858 54.7776 36.0907 55.9708 36.0907 57.4388H36.2907C36.2907 56.0816 37.396 54.9776 38.7554 54.9776V54.7776ZM36.0907 57.4388C36.0907 58.9067 37.2858 60.1 38.7554 60.1V59.9C37.396 59.9 36.2907 58.796 36.2907 57.4388H36.0907ZM38.7554 60.1C40.225 60.1 41.4201 58.9067 41.4201 57.4388H41.2201C41.2201 58.796 40.1148 59.9 38.7554 59.9V60.1ZM41.4201 57.4388C41.4201 56.9325 41.2774 56.4584 41.0307 56.0552L40.8601 56.1596C41.0882 56.5324 41.2201 56.9705 41.2201 57.4388H41.4201ZM41.0229 56.1706L43.1664 53.5405L43.0114 53.4141L40.8679 56.0442L41.0229 56.1706ZM43.0523 53.5704C43.3173 53.6745 43.5884 53.7669 43.8641 53.8448L43.9184 53.6523C43.6496 53.5764 43.3848 53.4861 43.1255 53.3842L43.0523 53.5704ZM43.7913 53.7516L43.8407 55.3419L44.0406 55.3357L43.9912 53.7454L43.7913 53.7516ZM43.8407 55.3419C43.8526 55.7192 44.1581 56.016 44.5361 56.016V55.816C44.2663 55.816 44.0491 55.6051 44.0406 55.3356L43.8407 55.3419ZM44.5361 56.016H47.8153V55.816H44.5361V56.016ZM47.8153 56.016C48.193 56.016 48.4995 55.7194 48.5114 55.3419L48.3115 55.3356C48.303 55.605 48.0852 55.816 47.8153 55.816V56.016ZM48.5114 55.3419L48.5607 53.7516L48.3608 53.7454L48.3114 55.3357L48.5114 55.3419ZM48.4878 53.8448C49.1315 53.6643 49.7502 53.4082 50.3336 53.0816L50.236 52.9071C49.6663 53.226 49.0622 53.476 48.4338 53.6522L48.4878 53.8448ZM50.2164 53.0673L51.3767 54.1564L51.5136 54.0106L50.3532 52.9215L50.2164 53.0673ZM51.3767 54.1564C51.652 54.4153 52.079 54.4086 52.3459 54.1411L52.2043 53.9998C52.0138 54.1907 51.7103 54.1956 51.5137 54.0107L51.3767 54.1564ZM52.3458 54.1412L53.1968 53.2914L53.0555 53.1499L52.2045 53.9997L52.3458 54.1412ZM53.0555 53.2914L55.2542 55.4871L55.3955 55.3456L53.1968 53.1499L53.0555 53.2914ZM55.2401 55.3632C54.9837 55.7723 54.8342 56.2554 54.8342 56.7724H55.0342C55.0342 56.2945 55.1723 55.848 55.4096 55.4695L55.2401 55.3632ZM54.8342 56.7724C54.8342 58.2403 56.0293 59.4336 57.4989 59.4336V59.2336C56.1395 59.2336 55.0342 58.1296 55.0342 56.7724H54.8342ZM57.4989 59.4336C58.9685 59.4336 60.1635 58.2403 60.1635 56.7724H59.9635C59.9635 58.1296 58.8583 59.2336 57.4989 59.2336V59.4336ZM60.1635 56.7724C60.1635 55.3044 58.9685 54.1112 57.4989 54.1112V54.3112C58.8583 54.3112 59.9635 55.4151 59.9635 56.7724H60.1635ZM57.4989 54.1112C56.8742 54.1112 56.2991 54.3275 55.8443 54.6883L55.9686 54.845C56.3895 54.5111 56.9211 54.3112 57.4989 54.3112V54.1112ZM55.9771 54.6959L53.8126 52.5342L53.6712 52.6757L55.8358 54.8374L55.9771 54.6959ZM53.8126 52.6757L54.6636 51.8259L54.5222 51.6843L53.6712 52.5342L53.8126 52.6757ZM54.6636 51.8259C54.9314 51.5584 54.9373 51.1326 54.678 50.8577L54.5325 50.9949C54.7176 51.1912 54.7134 51.4935 54.5222 51.6843L54.6636 51.8259ZM54.6781 50.8577L53.5874 49.6989L53.4418 49.836L54.5324 50.9948L54.6781 50.8577ZM53.6018 49.8164C53.9281 49.2345 54.1845 48.6166 54.366 47.973L54.1735 47.9188C53.9963 48.5471 53.7459 49.1504 53.4274 49.7186L53.6018 49.8164ZM54.2729 48.0459L55.8653 47.9965L55.8591 47.7966L54.2667 47.846L54.2729 48.0459ZM55.8653 47.9965C56.2429 47.9847 56.5402 47.6796 56.5402 47.3013H56.3402C56.3402 47.5711 56.1292 47.7882 55.859 47.7966L55.8653 47.9965ZM56.5402 47.3013V44.0272H56.3402V47.3013H56.5402ZM56.5402 44.0272C56.5402 43.6496 56.243 43.3438 55.8653 43.3319L55.859 43.5318C56.1291 43.5403 56.3402 43.758 56.3402 44.0272H56.5402ZM55.8653 43.3319L54.2729 43.2826L54.2667 43.4825L55.8591 43.5318L55.8653 43.3319ZM54.366 43.3555C54.3042 43.1358 54.233 42.9201 54.1545 42.7076L53.9669 42.7769C54.0438 42.985 54.1133 43.1957 54.1735 43.4096L54.366 43.3555ZM54.1153 42.826L58.6129 39.895L58.5037 39.7274L54.0061 42.6585L54.1153 42.826ZM58.4851 39.8793C58.9715 40.402 59.6657 40.7299 60.4353 40.7299V40.5299C59.7237 40.5299 59.0818 40.2269 58.6315 39.7431L58.4851 39.8793ZM60.4353 40.7299C61.9049 40.7299 63.1 39.5366 63.1 38.0687H62.9C62.9 39.4259 61.7947 40.5299 60.4353 40.5299V40.7299ZM63.1 38.0687C63.1 36.6008 61.9042 35.4068 60.4346 35.4068V35.6068C61.794 35.6068 62.9 36.7115 62.9 38.0687H63.1ZM31.5956 32.5605C31.5956 31.6833 32.3102 30.9694 33.1889 30.9694V30.7694C32.2 30.7694 31.3956 31.5726 31.3956 32.5605H31.5956ZM33.1889 30.9694C34.0676 30.9694 34.7822 31.6833 34.7822 32.5605H34.9822C34.9822 31.5726 34.1778 30.7694 33.1889 30.7694V30.9694ZM34.7822 32.5605C34.7822 33.4377 34.0676 34.1515 33.1889 34.1515V34.3515C34.1778 34.3515 34.9822 33.5484 34.9822 32.5605H34.7822ZM33.1889 34.1515C32.3102 34.1515 31.5956 33.4377 31.5956 32.5605H31.3956C31.3956 33.5484 32.2 34.3515 33.1889 34.3515V34.1515ZM30.5647 47.2556C29.686 47.2556 28.9714 46.5418 28.9714 45.6646H28.7714C28.7714 46.6525 29.5758 47.4556 30.5647 47.4556V47.2556ZM28.9714 45.6646C28.9714 44.7874 29.686 44.0736 30.5647 44.0736V43.8736C29.5758 43.8736 28.7714 44.6767 28.7714 45.6646H28.9714ZM30.5647 44.0736C31.4434 44.0736 32.158 44.7874 32.158 45.6646H32.358C32.358 44.6767 31.5536 43.8736 30.5647 43.8736V44.0736ZM32.158 45.6646C32.158 46.5418 31.4434 47.2556 30.5647 47.2556V47.4556C31.5536 47.4556 32.358 46.6525 32.358 45.6646H32.158ZM38.7547 59.0298C37.876 59.0298 37.1613 58.316 37.1613 57.4388H36.9613C36.9613 58.4267 37.7658 59.2298 38.7547 59.2298V59.0298ZM37.1613 57.4388C37.1613 56.5616 37.876 55.8477 38.7547 55.8477V55.6477C37.7658 55.6477 36.9613 56.4509 36.9613 57.4388H37.1613ZM38.7547 55.8477C39.1304 55.8477 39.4759 55.9786 39.7487 56.1971L39.8737 56.041C39.5669 55.7953 39.1777 55.6477 38.7547 55.6477V55.8477ZM39.7337 56.0558L39.6828 56.1182L39.8379 56.2446L39.8887 56.1822L39.7337 56.0558ZM39.6972 56.259L40.1089 56.594L40.2352 56.4388L39.8235 56.1038L39.6972 56.259ZM40.0884 56.5711C40.2517 56.8209 40.3473 57.1189 40.3473 57.4388H40.5473C40.5473 57.0785 40.4395 56.7427 40.2557 56.4617L40.0884 56.5711ZM40.3473 57.4389C40.3479 58.316 39.6334 59.0298 38.7547 59.0298V59.2298C39.7435 59.2298 40.548 58.4267 40.5473 57.4387L40.3473 57.4389ZM57.4981 55.1813C58.3768 55.1813 59.0915 55.8952 59.0915 56.7724H59.2915C59.2915 55.7845 58.487 54.9813 57.4981 54.9813V55.1813ZM59.0915 56.7724C59.0915 57.6496 58.3768 58.3634 57.4981 58.3634V58.5634C58.487 58.5634 59.2915 57.7603 59.2915 56.7724H59.0915ZM57.4981 58.3634C56.6194 58.3634 55.9048 57.6496 55.9048 56.7724H55.7048C55.7048 57.7603 56.5092 58.5634 57.4981 58.5634V58.3634ZM55.9048 56.7724C55.9048 55.8952 56.6194 55.1813 57.4981 55.1813V54.9813C56.5092 54.9813 55.7048 55.7845 55.7048 56.7724H55.9048ZM55.4681 44.2933V47.0351H55.6681V44.2933H55.4681ZM55.565 46.9352L54.0351 46.9823L54.0412 47.1822L55.5712 47.1351L55.565 46.9352ZM54.0352 46.9823C53.7218 46.9916 53.4593 47.203 53.3815 47.5055L53.5752 47.5553C53.6309 47.3386 53.8172 47.1889 54.0411 47.1822L54.0352 46.9823ZM53.3814 47.5057C53.2066 48.1904 52.9351 48.845 52.5747 49.4517L52.7467 49.5539C53.1168 48.9307 53.3957 48.2584 53.5752 47.5551L53.3814 47.5057ZM52.5748 49.4517C52.4146 49.7208 52.4522 50.0552 52.6662 50.2833L52.812 50.1465C52.6586 49.983 52.6323 49.746 52.7466 49.5539L52.5748 49.4517ZM52.6663 50.2834L53.7141 51.3972L53.8597 51.2602L52.8119 50.1464L52.6663 50.2834ZM53.7162 51.2579L51.7753 53.1963L51.9166 53.3378L53.8576 51.3995L53.7162 51.2579ZM51.9144 53.1941L50.7991 52.1477L50.6622 52.2936L51.7776 53.34L51.9144 53.1941ZM50.7991 52.1477C50.5712 51.9337 50.2358 51.8974 49.9668 52.0562L50.0684 52.2284C50.2612 52.1146 50.4994 52.1407 50.6622 52.2935L50.7991 52.1477ZM49.9666 52.0563C49.3591 52.4162 48.7035 52.6873 48.0179 52.8619L48.0672 53.0557C48.7713 52.8765 49.4446 52.598 50.0686 52.2284L49.9666 52.0563ZM48.0179 52.8619C47.7149 52.9388 47.5032 53.2018 47.4938 53.5142L47.6937 53.5202C47.7004 53.2974 47.8503 53.1108 48.0671 53.0558L48.0179 52.8619ZM47.4938 53.5141L47.4466 55.042L47.6465 55.0482L47.6937 53.5203L47.4938 53.5141ZM47.5466 54.9451H44.8011V55.1451H47.5466V54.9451ZM44.9011 55.042L44.8539 53.5141L44.654 53.5203L44.7012 55.0482L44.9011 55.042ZM44.8539 53.514C44.8437 53.2012 44.6329 52.9389 44.3298 52.8619L44.2806 53.0558C44.4973 53.1108 44.6467 53.2966 44.654 53.5204L44.8539 53.514ZM44.3298 52.8619C43.6434 52.6873 42.9872 52.4162 42.3797 52.0556L42.2776 52.2276C42.9016 52.598 43.5757 52.8765 44.2805 53.0558L44.3298 52.8619ZM42.3797 52.0556C42.1106 51.8959 41.7749 51.9322 41.547 52.1472L41.6842 52.2927C41.8469 52.1392 42.0849 52.1132 42.2776 52.2276L42.3797 52.0556ZM41.5471 52.1471L40.4346 53.1935L40.5717 53.3391L41.6841 52.2928L41.5471 52.1471ZM40.5738 53.1955L38.6329 51.2572L38.4916 51.3987L40.4325 53.3371L40.5738 53.1955ZM38.635 51.3966L39.6835 50.285L39.538 50.1477L38.4895 51.2594L38.635 51.3966ZM39.6836 50.2849C39.8978 50.0574 39.9352 49.7222 39.7751 49.4531L39.6032 49.5554C39.7176 49.7475 39.6912 49.9851 39.538 50.1478L39.6836 50.2849ZM39.7752 49.4532C39.414 48.845 39.1418 48.1896 38.967 47.5035L38.7732 47.5529C38.9528 48.2577 39.2324 48.9308 39.6032 49.5553L39.7752 49.4532ZM38.967 47.5036C38.8899 47.2007 38.6265 46.9894 38.3132 46.9801L38.3073 47.18C38.5314 47.1867 38.7181 47.3366 38.7732 47.5529L38.967 47.5036ZM38.3132 46.9801L36.784 46.9344L36.7781 47.1344L38.3073 47.18L38.3132 46.9801ZM36.881 47.0344V44.2933H36.681V47.0344H36.881ZM36.784 44.3933L38.3132 44.3476L38.3073 44.1477L36.7781 44.1934L36.784 44.3933ZM38.3132 44.3476C38.6265 44.3383 38.8899 44.1271 38.967 43.8242L38.7732 43.7749C38.7181 43.9912 38.5314 44.1411 38.3073 44.1477L38.3132 44.3476ZM38.967 43.8242C39.1418 43.1381 39.4141 42.482 39.7751 41.8746L39.6032 41.7724C39.2324 42.3963 38.9527 43.0701 38.7732 43.7748L38.967 43.8242ZM39.7751 41.8746C39.9352 41.6056 39.8978 41.2703 39.6836 41.0428L39.538 41.18C39.6912 41.3426 39.7176 41.5802 39.6032 41.7724L39.7751 41.8746ZM39.6835 41.0428L38.635 39.9311L38.4895 40.0684L39.538 41.18L39.6835 41.0428ZM38.6329 40.0705L40.5738 38.1322L40.4325 37.9907L38.4916 39.929L38.6329 40.0705ZM40.4346 38.1343L41.5478 39.1814L41.6848 39.0357L40.5717 37.9886L40.4346 38.1343ZM41.5477 39.1813C41.7756 39.3962 42.1113 39.4326 42.3804 39.2729L42.2783 39.1009C42.0856 39.2153 41.8476 39.1892 41.6849 39.0358L41.5477 39.1813ZM42.3804 39.2729C42.9893 38.9116 43.6456 38.6404 44.3327 38.4658L44.2834 38.272C43.5778 38.4513 42.9038 38.7298 42.2783 39.1009L42.3804 39.2729ZM44.3329 38.4658C44.6358 38.388 44.8466 38.1259 44.8568 37.8131L44.6569 37.8066C44.6496 38.0304 44.5002 38.2164 44.2832 38.272L44.3329 38.4658ZM44.8568 37.8128L44.9025 36.2857L44.7026 36.2797L44.6569 37.8068L44.8568 37.8128ZM44.8026 36.3827H47.5473V36.1827H44.8026V36.3827ZM47.4474 36.2857L47.4931 37.8128L47.693 37.8068L47.6473 36.2797L47.4474 36.2857ZM47.4931 37.8128C47.5024 38.1257 47.7132 38.3889 48.0173 38.4658L48.0663 38.272C47.849 38.2169 47.6997 38.0305 47.693 37.8068L47.4931 37.8128ZM48.0172 38.4658C48.7036 38.6404 49.3598 38.9116 49.9674 39.2715L50.0693 39.0994C49.4453 38.7298 48.7713 38.4513 48.0665 38.272L48.0172 38.4658ZM49.9673 39.2714C50.2367 39.4313 50.5714 39.3938 50.7997 39.1801L50.663 39.0341C50.4993 39.1873 50.2618 39.2136 50.0694 39.0994L49.9673 39.2714ZM50.7998 39.18L51.9151 38.1336L51.7783 37.9878L50.663 39.0342L50.7998 39.18ZM51.776 38.1315L53.717 40.0698L53.8583 39.9283L51.9174 37.99L51.776 38.1315ZM53.7148 39.9305L52.6663 41.0443L52.8119 41.1814L53.8605 40.0676L53.7148 39.9305ZM52.6663 41.0443C52.452 41.2719 52.4154 41.6071 52.5747 41.8753L52.7467 41.7732C52.6329 41.5816 52.6588 41.344 52.8119 41.1814L52.6663 41.0443ZM52.5747 41.8753C52.9351 42.482 53.2066 43.1367 53.3814 43.8214L53.5752 43.7719C53.3957 43.0687 53.1168 42.3963 52.7467 41.7732L52.5747 41.8753ZM53.3814 43.8213C53.4585 44.1241 53.7219 44.3354 54.0344 44.3447L54.0404 44.1448C53.8171 44.1382 53.6303 43.9883 53.5752 43.772L53.3814 43.8213ZM54.0343 44.3447L55.5649 44.3933L55.5713 44.1934L54.0406 44.1448L54.0343 44.3447ZM60.4346 39.659C59.5559 39.659 58.8413 38.9452 58.8413 38.068H58.6413C58.6413 39.0559 59.4457 39.859 60.4346 39.859V39.659ZM58.8413 38.068C58.8413 37.1908 59.5559 36.4769 60.4346 36.4769V36.2769C59.4457 36.2769 58.6413 37.0801 58.6413 38.068H58.8413ZM60.4346 36.4769C61.3133 36.4769 62.0279 37.1908 62.0279 38.068H62.2279C62.2279 37.0801 61.4235 36.2769 60.4346 36.2769V36.4769ZM62.0279 38.068C62.0279 38.9452 61.3133 39.659 60.4346 39.659V39.859C61.4235 39.859 62.2279 39.0559 62.2279 38.068H62.0279ZM43.6756 43.5552C42.8443 43.5552 42.1684 44.23 42.1684 45.0605H42.3684C42.3684 44.3407 42.9545 43.7552 43.6756 43.7552V43.5552ZM42.1684 45.0605V47.2389H42.3684V45.0605H42.1684ZM42.1684 47.2389C42.1684 47.5343 42.4086 47.774 42.7041 47.774V47.574C42.5188 47.574 42.3684 47.4236 42.3684 47.2389H42.1684ZM42.7041 47.774C42.9995 47.774 43.2397 47.5343 43.2397 47.2389H43.0397C43.0397 47.4236 42.8893 47.574 42.7041 47.574V47.774ZM43.2397 47.2389V46.5848H43.0397V47.2389H43.2397ZM43.1397 46.6848H44.2115V46.4848H43.1397V46.6848ZM44.1115 46.5848V47.2389H44.3115V46.5848H44.1115ZM44.1115 47.2389C44.1115 47.5343 44.3517 47.774 44.6472 47.774V47.574C44.4619 47.574 44.3115 47.4236 44.3115 47.2389H44.1115ZM44.6472 47.774C44.9426 47.774 45.1828 47.5343 45.1828 47.2389H44.9828C44.9828 47.4236 44.8324 47.574 44.6472 47.574V47.774ZM45.1828 47.2389V45.0605H44.9828V47.2389H45.1828ZM45.1828 45.0605C45.1828 44.23 44.5062 43.5552 43.6756 43.5552V43.7552C44.396 43.7552 44.9828 44.3408 44.9828 45.0605H45.1828ZM43.239 45.7146V45.0605H43.039V45.7146H43.239ZM43.239 45.0605C43.239 44.8208 43.4344 44.6254 43.6749 44.6254V44.4254C43.3242 44.4254 43.039 44.7101 43.039 45.0605H43.239ZM43.6749 44.6254C43.9153 44.6254 44.1108 44.8208 44.1108 45.0605H44.3108C44.3108 44.7101 44.0255 44.4254 43.6749 44.4254V44.6254ZM44.1108 45.0605V45.7146H44.3108V45.0605H44.1108ZM44.2108 45.6146H43.139V45.8146H44.2108V45.6146ZM47.5016 43.5552H46.318V43.7552H47.5016V43.5552ZM46.318 43.5552C46.0225 43.5552 45.7823 43.7949 45.7823 44.0903H45.9823C45.9823 43.9056 46.1327 43.7552 46.318 43.7552V43.5552ZM45.7823 44.0903V47.2389H45.9823V44.0903H45.7823ZM45.7823 47.2389C45.7823 47.5343 46.0225 47.774 46.318 47.774V47.574C46.1327 47.574 45.9823 47.4236 45.9823 47.2389H45.7823ZM46.318 47.774C46.6134 47.774 46.8537 47.5343 46.8537 47.2389H46.6537C46.6537 47.4236 46.5032 47.574 46.318 47.574V47.774ZM46.8537 47.2389V46.0997H46.6537V47.2389H46.8537ZM46.7537 46.1997H47.5016V45.9997H46.7537V46.1997ZM47.5016 46.1997C48.2312 46.1997 48.8251 45.6068 48.8251 44.8778H48.6251C48.6251 45.4961 48.121 45.9997 47.5016 45.9997V46.1997ZM48.8251 44.8778C48.8251 44.1489 48.2313 43.5552 47.5016 43.5552V43.7552C48.121 43.7552 48.6251 44.2594 48.6251 44.8778H48.8251ZM47.5016 45.1295H46.7537V45.3295H47.5016V45.1295ZM46.8537 45.2295V44.5254H46.6537V45.2295H46.8537ZM46.7537 44.6254H47.5016V44.4254H46.7537V44.6254ZM47.5016 44.6254C47.6409 44.6254 47.7537 44.7387 47.7537 44.8771H47.9537C47.9537 44.6283 47.7514 44.4254 47.5016 44.4254V44.6254ZM47.7537 44.8771C47.7537 45.0157 47.6407 45.1295 47.5016 45.1295V45.3295C47.7517 45.3295 47.9537 45.1257 47.9537 44.8771H47.7537ZM49.6465 43.7552C49.8318 43.7552 49.9822 43.9056 49.9822 44.0903H50.1822C50.1822 43.7949 49.942 43.5552 49.6465 43.5552V43.7552ZM49.9822 44.0903V47.2389H50.1822V44.0903H49.9822ZM49.9822 47.2389C49.9822 47.4236 49.8318 47.574 49.6465 47.574V47.774C49.942 47.774 50.1822 47.5343 50.1822 47.2389H49.9822ZM49.6465 47.574C49.4613 47.574 49.3109 47.4236 49.3109 47.2389H49.1109C49.1109 47.5343 49.3511 47.774 49.6465 47.774V47.574ZM49.3109 47.2389V44.0903H49.1109V47.2389H49.3109ZM49.3109 44.0903C49.3109 43.9049 49.4606 43.7552 49.6465 43.7552V43.5552C49.3504 43.5552 49.1109 43.7942 49.1109 44.0903H49.3109Z" fill="#C11574"/>
</svg>
