
<svg viewBox="0 0 40 40" fill="none" xmlns="http://www.w3.org/2000/svg">
<g clip-path="url(#clip0_1621_79022)">
<path d="M21.3297 21.3297L18.936 23.7235L16.2765 21.064L18.6703 18.6703L17.4275 17.4275L15.0338 19.8213L13.2018 17.9893L8.6547 22.5363C6.52863 24.6624 6.4687 28.0835 8.47385 30.2833L5 33.7573L6.24274 35L9.7163 31.5264C10.7519 32.4715 12.0837 32.9891 13.495 32.9891C14.9941 32.9891 16.4035 32.4053 17.4636 31.3452L22.0107 26.7981L20.1787 24.9662L22.5724 22.5724L21.3297 21.3297ZM16.2209 30.1025C15.4927 30.8306 14.5247 31.2316 13.495 31.2316C12.4652 31.2316 11.4972 30.8306 10.7691 30.1025L9.8975 29.2309C8.39447 27.7278 8.39447 25.2822 9.8975 23.7791L13.2019 20.4748L19.5252 26.7981L16.2209 30.1025ZM35 6.24274L33.7573 5L30.2837 8.47356C29.2481 7.52848 27.9163 7.01089 26.505 7.01089C25.0059 7.01089 23.5965 7.59468 22.5364 8.65476L17.9893 13.2019L26.7981 22.0107L31.3452 17.4636C33.4713 15.3375 33.5312 11.9164 31.5261 9.71665L35 6.24274ZM30.1025 16.2209L26.7981 19.5252L20.4748 13.2019L23.7791 9.8975C24.5073 9.16942 25.4753 8.76841 26.505 8.76841C27.5348 8.76841 28.5028 9.16942 29.2309 9.8975L30.1025 10.7691C31.6055 12.2721 31.6055 14.7178 30.1025 16.2209Z" fill="currentColor"/>
</g>
<defs>
<clipPath id="clip0_1621_79022">
<rect width="30" height="30" fill="white" transform="translate(5 5)"/>
</clipPath>
</defs>
</svg>
