<svg xmlns="http://www.w3.org/2000/svg" xml:space="preserve" viewBox="0 0 512 512" style="enable-background:new 0 0 512 512" viewBox="0 0 512.086 512.086"><g xmlns="http://www.w3.org/2000/svg" fill="#37352F"><path d="m278.741 278.741-40.86 40.86-45.396-45.396 40.86-40.86-21.213-21.213-40.86 40.86-31.271-31.271-77.617 77.616c-36.291 36.291-37.314 94.688-3.087 132.237L0 490.873l21.213 21.213 59.292-59.292c17.678 16.132 40.41 24.967 64.5 24.967 25.59 0 49.648-9.965 67.743-28.06l77.616-77.617-31.271-31.271 40.86-40.86zm-87.206 149.747c-12.429 12.428-28.953 19.273-46.53 19.273s-34.101-6.845-46.53-19.273L83.598 413.61c-25.656-25.657-25.656-67.403 0-93.06l56.404-56.403 107.936 107.936zM512.086 21.213 490.873 0l-59.292 59.292c-17.678-16.132-40.41-24.967-64.5-24.967-25.59 0-49.648 9.965-67.743 28.06l-77.616 77.617 150.362 150.362 77.617-77.616c36.291-36.291 37.314-94.689 3.087-132.237zm-83.598 170.322-56.404 56.403-107.936-107.936 56.403-56.404c12.429-12.428 28.953-19.273 46.53-19.273s34.101 6.845 46.53 19.273l14.877 14.877c25.656 25.657 25.656 67.403 0 93.06z" data-original="#37352F"/></g></svg>