<svg viewBox="0 0 89 89" fill="none" xmlns="http://www.w3.org/2000/svg">
<path d="M0 28C0 12.536 12.536 0 28 0H61C76.464 0 89 12.536 89 28V61C89 76.464 76.464 89 61 89H28C12.536 89 0 76.464 0 61V28Z" fill="#FFFAEB"/>
<path d="M46.7637 41.4707H44.1211V48.5304H45.8789V46.7617H46.7637C48.2224 46.7617 49.4092 45.5749 49.4092 44.1162C49.4092 42.6575 48.2224 41.4707 46.7637 41.4707ZM46.7637 45.0039H45.8789V43.2285H46.7637C47.2532 43.2285 47.6514 43.6268 47.6514 44.1162C47.6514 44.6056 47.2531 45.0039 46.7637 45.0039Z" fill="#B54708"/>
<path d="M40.0562 41.4707C38.5982 41.4707 37.4121 42.6568 37.4121 44.1147V48.5304H39.1699V46.7617H40.9424V48.5308H42.7002V44.1147C42.7002 42.6568 41.5141 41.4707 40.0562 41.4707ZM39.1699 45.0039V44.1147C39.1699 43.6261 39.5675 43.2285 40.0562 43.2285C40.5448 43.2285 40.9424 43.6261 40.9424 44.1147V45.0039H39.1699Z" fill="#B54708"/>
<path d="M50.5576 41.4688H52.3154V48.5293H50.5576V41.4688Z" fill="#B54708"/>
<path d="M51.435 35.5103L52.5706 33.5229H54.8627C55.2258 34.55 56.2061 35.2881 57.356 35.2881C58.8139 35.2881 60 34.102 60 32.644C60 31.1861 58.8139 30 57.356 30C56.2061 30 55.2258 30.738 54.8627 31.7651H51.5505L49.91 34.6359C49.1923 34.2945 48.4339 34.0255 47.644 33.8384V30H45.8862V33.5643C45.5937 33.5418 45.2982 33.5303 45 33.5303C44.7018 33.5303 44.4063 33.5418 44.1138 33.5643V30H42.356V33.8384C41.5661 34.0255 40.8076 34.2945 40.09 34.6359L38.4495 31.7651H35.1373C34.7742 30.738 33.7939 30 32.644 30C31.1861 30 30 31.1861 30 32.644C30 34.102 31.1861 35.2881 32.644 35.2881C33.7939 35.2881 34.7742 34.55 35.1373 33.5229H37.4294L38.565 35.5103C37.2786 36.3854 36.1784 37.5146 35.3377 38.8257H30V40.5835H34.4152C33.9532 41.6865 33.6584 42.8762 33.5636 44.1211H30V45.8789H33.5636C33.6584 47.1238 33.9531 48.3135 34.4151 49.4165H30V51.1743H35.3377C36.1784 52.4854 37.2786 53.6146 38.565 54.4897L37.4294 56.4771H35.1373C34.7742 55.45 33.7939 54.7119 32.644 54.7119C31.1861 54.7119 30 55.898 30 57.356C30 58.8139 31.1861 60 32.644 60C33.7939 60 34.7742 59.262 35.1373 58.2349H38.4495L40.09 55.3641C40.8077 55.7055 41.5661 55.9745 42.356 56.1616V60H44.1138V56.4357C44.4063 56.4582 44.7018 56.4697 45 56.4697C45.2982 56.4697 45.5937 56.4582 45.8862 56.4357V60H47.644V56.1616C48.4339 55.9745 49.1924 55.7055 49.91 55.3641L51.5505 58.2349H54.8627C55.2258 59.262 56.2061 60 57.356 60C58.8139 60 60 58.8139 60 57.356C60 55.898 58.8139 54.7119 57.356 54.7119C56.2061 54.7119 55.2258 55.45 54.8627 56.4771H52.5706L51.435 54.4897C52.7214 53.6146 53.8216 52.4854 54.6623 51.1743H60V49.4165H55.5848C56.0468 48.3135 56.3416 47.1238 56.4363 45.8789H60V44.1211H56.4364C56.3416 42.8762 56.0469 41.6865 55.5849 40.5835H60V38.8257H54.6623C53.8216 37.5146 52.7214 36.3854 51.435 35.5103ZM57.356 31.7578C57.8446 31.7578 58.2422 32.1554 58.2422 32.644C58.2422 33.1327 57.8446 33.5303 57.356 33.5303C56.8673 33.5303 56.4697 33.1327 56.4697 32.644C56.4697 32.1554 56.8673 31.7578 57.356 31.7578ZM32.644 33.5303C32.1554 33.5303 31.7578 33.1327 31.7578 32.644C31.7578 32.1554 32.1554 31.7578 32.644 31.7578C33.1327 31.7578 33.5303 32.1554 33.5303 32.644C33.5303 33.1327 33.1327 33.5303 32.644 33.5303ZM32.644 58.2422C32.1554 58.2422 31.7578 57.8446 31.7578 57.356C31.7578 56.8673 32.1554 56.4697 32.644 56.4697C33.1327 56.4697 33.5303 56.8673 33.5303 57.356C33.5303 57.8446 33.1327 58.2422 32.644 58.2422ZM57.356 56.4697C57.8446 56.4697 58.2422 56.8673 58.2422 57.356C58.2422 57.8446 57.8446 58.2422 57.356 58.2422C56.8673 58.2422 56.4697 57.8446 56.4697 57.356C56.4697 56.8673 56.8673 56.4697 57.356 56.4697ZM45 54.7119C39.6448 54.7119 35.2881 50.3552 35.2881 45C35.2881 39.6448 39.6448 35.2881 45 35.2881C50.3552 35.2881 54.7119 39.6448 54.7119 45C54.7119 50.3552 50.3552 54.7119 45 54.7119Z" fill="#B54708"/>
</svg>
