<svg width="89" height="89" viewBox="0 0 89 89" fill="none" xmlns="http://www.w3.org/2000/svg">
<path d="M0 28C0 12.536 12.536 0 28 0H61C76.464 0 89 12.536 89 28V61C89 76.464 76.464 89 61 89H28C12.536 89 0 76.464 0 61V28Z" fill="#FFF6ED"/>
<path d="M29 36.7982C29 33.0398 32.0398 30 35.7982 30L34.8271 31.9424" stroke="#C4320A" stroke-width="2" stroke-linecap="round" stroke-linejoin="round"/>
<path d="M59 51.3451C59 55.1035 55.9602 58.1433 52.2018 58.1433L53.1729 56.201" stroke="#C4320A" stroke-width="2" stroke-linecap="round" stroke-linejoin="round"/>
<path d="M39.7598 36.0949C39.7598 34.4148 39.7598 33.5747 40.0867 32.933C40.3744 32.3685 40.8333 31.9095 41.3978 31.6219C42.0395 31.2949 42.8796 31.2949 44.5598 31.2949H52.9015C54.5817 31.2949 55.4217 31.2949 56.0635 31.6219C56.628 31.9095 57.0869 32.3685 57.3745 32.933C57.7015 33.5747 57.7015 34.4148 57.7015 36.0949V43.3153C57.7015 44.9955 57.7015 45.8355 57.3745 46.4773C57.0869 47.0418 56.628 47.5007 56.0635 47.7883C55.4217 48.1153 54.5817 48.1153 52.9015 48.1153H44.5598C42.8796 48.1153 42.0395 48.1153 41.3978 47.7883C40.8333 47.5007 40.3744 47.0418 40.0867 46.4773C39.7598 45.8355 39.7598 44.9955 39.7598 43.3153V36.0949Z" stroke="#C4320A" stroke-width="2" stroke-linecap="round" stroke-linejoin="round"/>
<path d="M39.7598 35.7804C39.7598 34.3962 39.7598 33.7041 39.9838 33.1575C40.2885 32.4139 40.8787 31.8236 41.6223 31.5189C42.169 31.2949 42.861 31.2949 44.2452 31.2949H53.2161C54.6002 31.2949 55.2923 31.2949 55.839 31.5189C56.5825 31.8236 57.1728 32.4139 57.4775 33.1575C57.7015 33.7041 57.7015 34.3962 57.7015 35.7804V35.7804H39.7598V35.7804Z" stroke="#C4320A" stroke-width="2" stroke-linecap="round" stroke-linejoin="round"/>
<path d="M36.5688 40.6538H35.5871C33.907 40.6538 33.0669 40.6538 32.4251 40.9808C31.8607 41.2684 31.4017 41.7274 31.1141 42.2918C30.7871 42.9336 30.7871 43.7737 30.7871 45.4538V52.6742C30.7871 54.3543 30.7871 55.1944 31.1141 55.8362C31.4017 56.4006 31.8607 56.8596 32.4251 57.1472C33.0669 57.4742 33.907 57.4742 35.5871 57.4742H43.9288C45.609 57.4742 46.4491 57.4742 47.0908 57.1472C47.6553 56.8596 48.1142 56.4006 48.4019 55.8362C48.7288 55.1944 48.7288 54.3543 48.7288 52.6742V52.0414" stroke="#C4320A" stroke-width="2" stroke-linecap="round" stroke-linejoin="round"/>
<path d="M30.7871 44.0181V45.1394H36.5134" stroke="#C4320A" stroke-width="2" stroke-linecap="round" stroke-linejoin="round"/>
</svg>
