<svg xmlns="http://www.w3.org/2000/svg" width="14" height="14" fill="none"><path fill="currentColor" stroke="currentColor" stroke-width=".4" d="M2.8 9.602H1.6a.6.6 0 0 0-.6.6v2.6c0 .11.09.2.2.2h2a.2.2 0 0 0 .2-.2v-2.6a.6.6 0 0 0-.6-.6Zm.2 3H1.4v-2.4c0-.11.09-.2.2-.2h1.2c.11 0 .2.09.2.2v2.4ZM6.002 6.797h-1.2a.6.6 0 0 0-.6.6v5.4c0 .11.09.2.2.2h2a.2.2 0 0 0 .2-.2v-5.4a.6.6 0 0 0-.6-.6Zm.2 5.8h-1.6v-5.2c0-.11.09-.2.2-.2h1.2c.11 0 .2.09.2.2v5.2ZM9.193 8h-1.2a.6.6 0 0 0-.6.6v4.2c0 .11.09.2.2.2h2a.2.2 0 0 0 .2-.2V8.6a.6.6 0 0 0-.6-.6Zm.2 4.6h-1.6v-4c0-.11.09-.2.2-.2h1.2c.11 0 .2.09.2.2v4ZM12.399 6.398h-1.2a.6.6 0 0 0-.6.6v5.8c0 .11.09.2.2.2h2a.2.2 0 0 0 .2-.2v-5.8a.6.6 0 0 0-.6-.6Zm.2 6.2h-1.6v-5.6c0-.11.09-.2.2-.2h1.2c.11 0 .2.09.2.2v5.6ZM10.903 3.397a1.2 1.2 0 1 0-.213-.338l-1.195.747a1.194 1.194 0 0 0-1.721-.074l-1.309-.981a1.2 1.2 0 1 0-1.98.225L2.808 4.97a1.2 1.2 0 1 0 .307.257L4.79 3.234c.46.274 1.047.207 1.434-.164l1.309.982a1.2 1.2 0 1 0 2.174.092l1.195-.747Zm.896-1.595a.8.8 0 1 1 0 1.6.8.8 0 0 1 0-1.6Zm-9.6 5a.8.8 0 1 1 0-1.6.8.8 0 0 1 0 1.6Zm3.2-3.8a.8.8 0 1 1 0-1.6.8.8 0 0 1 0 1.6Zm3.2 2.4a.8.8 0 1 1 0-1.6.8.8 0 0 1 0 1.6Z"/></svg>