<svg viewBox="0 0 19 17" fill="none" xmlns="http://www.w3.org/2000/svg">
<path d="M0.273438 5.12891H17.7734" stroke="#292929" stroke-width="1.2" stroke-miterlimit="10" stroke-linecap="round" stroke-linejoin="round"/>
<path d="M2.96605 3.78365C2.76412 3.78365 2.62951 3.71635 2.49489 3.58173C2.36028 3.44712 2.29297 3.3125 2.29297 3.11058C2.29297 2.90865 2.36028 2.77404 2.49489 2.63942L2.5622 2.57212C2.62951 2.57212 2.62951 2.50481 2.69681 2.50481C2.76412 2.4375 2.76412 2.4375 2.83143 2.4375C2.89874 2.4375 3.03335 2.4375 3.10066 2.4375C3.16797 2.4375 3.16797 2.4375 3.23528 2.50481C3.30258 2.50481 3.30258 2.57212 3.36989 2.57212L3.4372 2.63942C3.50451 2.70673 3.57182 2.77404 3.57182 2.84135C3.63912 2.90865 3.63912 3.04327 3.63912 3.11058C3.63912 3.17788 3.63912 3.3125 3.57182 3.37981C3.57182 3.44712 3.50451 3.51442 3.4372 3.58173C3.30258 3.71635 3.16797 3.78365 2.96605 3.78365Z" fill="#292929"/>
<path d="M4.9846 3.78247C4.78268 3.78247 4.64806 3.71517 4.51345 3.58055C4.37883 3.44594 4.31152 3.31132 4.31152 3.1094C4.31152 3.04209 4.31152 2.90747 4.37883 2.84017C4.44614 2.77286 4.44614 2.70555 4.51345 2.63824C4.58075 2.57094 4.64806 2.50363 4.71537 2.50363C4.9846 2.36901 5.25383 2.43632 5.45575 2.63824C5.52306 2.70555 5.59037 2.77286 5.59037 2.84017C5.65768 2.90747 5.65768 3.04209 5.65768 3.1094C5.65768 3.31132 5.59037 3.44594 5.45575 3.58055C5.32114 3.71517 5.18652 3.78247 4.9846 3.78247Z" fill="#292929"/>
<path d="M7.00413 3.78365C6.93682 3.78365 6.80221 3.78365 6.7349 3.71635C6.66759 3.64904 6.60029 3.64904 6.53298 3.58173C6.46567 3.51442 6.39836 3.44711 6.39836 3.37981C6.33105 3.3125 6.33105 3.17788 6.33105 3.11058C6.33105 3.04327 6.33105 2.90865 6.39836 2.84135C6.46567 2.77404 6.46567 2.70673 6.53298 2.63942C6.80221 2.37019 7.20605 2.37019 7.47529 2.63942C7.54259 2.70673 7.6099 2.77404 7.6099 2.84135C7.67721 2.90865 7.67721 3.04327 7.67721 3.11058C7.67721 3.17788 7.67721 3.3125 7.6099 3.37981C7.54259 3.44711 7.54259 3.51442 7.47529 3.58173C7.34067 3.71635 7.20605 3.78365 7.00413 3.78365Z" fill="#292929"/>
<path d="M16.4273 1.08984H1.61959C0.879207 1.08984 0.273438 1.69561 0.273438 2.436V14.5514C0.273438 15.2918 0.879207 15.8975 1.61959 15.8975H16.4273C17.1677 15.8975 17.7734 15.2918 17.7734 14.5514V2.436C17.7734 1.69561 17.1677 1.08984 16.4273 1.08984Z" stroke="#292929" stroke-width="1.2" stroke-miterlimit="10" stroke-linecap="round" stroke-linejoin="round"/>
<path d="M5.6579 8.49219L3.63867 10.5114L5.6579 12.5306" stroke="#292929" stroke-width="1.2" stroke-miterlimit="10" stroke-linecap="round" stroke-linejoin="round"/>
<path d="M12.3887 8.49219L14.4079 10.5114L12.3887 12.5306" stroke="#292929" stroke-width="1.2" stroke-miterlimit="10" stroke-linecap="round" stroke-linejoin="round"/>
<path d="M10.37 7.82031L7.67773 13.2049" stroke="#292929" stroke-width="1.2" stroke-miterlimit="10" stroke-linecap="round" stroke-linejoin="round"/>
</svg>
