<svg viewBox="0 0 89 89" fill="none" xmlns="http://www.w3.org/2000/svg">
<path d="M0 28C0 12.536 12.536 0 28 0H61C76.464 0 89 12.536 89 28V61C89 76.464 76.464 89 61 89H28C12.536 89 0 76.464 0 61V28Z" fill="#FFFAEB"/>
<path d="M33.2122 30C31.45 30 30 31.45 30 33.2122V40.7185C30 42.4807 31.45 43.9286 33.2122 43.9286H40.7185C42.4807 43.9286 43.9286 42.4807 43.9286 40.7185V33.2122C43.9286 31.45 42.4807 30 40.7185 30H33.2122ZM49.2836 30C47.5214 30 46.0714 31.45 46.0714 33.2122V40.7185C46.0714 42.4807 47.5214 43.9286 49.2836 43.9286H56.7899C58.5521 43.9286 60 42.4807 60 40.7185V33.2122C60 31.45 58.5521 30 56.7899 30H49.2836ZM33.2122 32.1449H40.7185C41.3306 32.1449 41.7857 32.6001 41.7857 33.2122V40.7185C41.7857 41.3306 41.3306 41.7857 40.7185 41.7857H33.2122C32.6001 41.7857 32.1429 41.3306 32.1429 40.7185V33.2122C32.1429 32.6001 32.6001 32.1449 33.2122 32.1449ZM49.2836 32.1449H56.7899C57.402 32.1449 57.8571 32.6001 57.8571 33.2122V40.7185C57.8571 41.3306 57.402 41.7857 56.7899 41.7857H49.2836C48.6715 41.7857 48.2143 41.3306 48.2143 40.7185V33.2122C48.2143 32.6001 48.6715 32.1449 49.2836 32.1449ZM33.2122 46.0714C31.45 46.0714 30 47.5214 30 49.2836V56.7899C30 58.5521 31.45 60 33.2122 60H40.7185C42.4807 60 43.9286 58.5521 43.9286 56.7899V49.2836C43.9286 47.5214 42.4807 46.0714 40.7185 46.0714H33.2122ZM49.2836 46.0714C47.5214 46.0714 46.0714 47.5214 46.0714 49.2836V56.7899C46.0714 58.5521 47.5214 60 49.2836 60H56.7899C58.5521 60 60 58.5521 60 56.7899V49.2836C60 47.5214 58.5521 46.0714 56.7899 46.0714H49.2836ZM33.2122 48.2164H40.7185C41.3306 48.2164 41.7857 48.6715 41.7857 49.2836V56.7899C41.7857 57.402 41.3306 57.8571 40.7185 57.8571H33.2122C32.6001 57.8571 32.1429 57.402 32.1429 56.7899V49.2836C32.1429 48.6715 32.6001 48.2164 33.2122 48.2164ZM49.2836 48.2164H56.7899C57.402 48.2164 57.8571 48.6715 57.8571 49.2836V56.7899C57.8571 57.402 57.402 57.8571 56.7899 57.8571H49.2836C48.6715 57.8571 48.2143 57.402 48.2143 56.7899V49.2836C48.2143 48.6715 48.6715 48.2164 49.2836 48.2164Z" fill="#B54708"/>
</svg>
