<svg width="54" height="51" viewBox="0 0 54 51" fill="none" xmlns="http://www.w3.org/2000/svg">
<path d="M38.3339 33.833H17.8577V15.2615C17.8577 15.1306 17.7506 15.0234 17.6196 15.0234H15.9529C15.822 15.0234 15.7148 15.1306 15.7148 15.2615V35.7377C15.7148 35.8687 15.822 35.9759 15.9529 35.9759H38.3339C38.4649 35.9759 38.5721 35.8687 38.5721 35.7377V34.071C38.5721 33.94 38.4649 33.833 38.3339 33.833ZM20.0006 31.9282H35.9529C36.0839 31.9282 36.1911 31.821 36.1911 31.69V18.7139C36.1911 18.4996 35.9321 18.3955 35.7832 18.5443L29.5244 24.8032L25.7922 21.1127C25.7474 21.0684 25.6871 21.0436 25.6241 21.0436C25.5611 21.0436 25.5007 21.0684 25.4559 21.1127L19.8309 26.7555C19.8091 26.7775 19.7918 26.8035 19.78 26.832C19.7683 26.8607 19.7623 26.8914 19.7625 26.9222V31.69C19.7625 31.821 19.8696 31.9282 20.0006 31.9282Z" fill="#757575"/>
</svg>
