<svg width="16" height="16" viewBox="0 0 16 16" fill="none" xmlns="http://www.w3.org/2000/svg">
<path fill-rule="evenodd" clip-rule="evenodd" d="M8 1.11628C4.19823 1.11628 1.11628 4.19823 1.11628 8C1.11628 11.8018 4.19823 14.8837 8 14.8837C11.8018 14.8837 14.8837 11.8018 14.8837 8C14.8837 4.19823 11.8018 1.11628 8 1.11628ZM0 8C0 3.58172 3.58172 0 8 0C12.4183 0 16 3.58172 16 8C16 12.4183 12.4183 16 8 16C3.58172 16 0 12.4183 0 8Z" fill="#D5D7DA"/>
<path fill-rule="evenodd" clip-rule="evenodd" d="M5.20349 6.88521C5.4049 6.6884 5.73192 6.68795 5.9339 6.8842L8.0001 8.89178L10.0663 6.8842C10.2683 6.68795 10.5953 6.6884 10.7967 6.88521C10.9981 7.08202 10.9977 7.40066 10.7957 7.59691L8.36479 9.95883C8.16321 10.1547 7.83699 10.1547 7.63542 9.95883L5.20453 7.59691C5.00254 7.40066 5.00208 7.08202 5.20349 6.88521Z" fill="#414651"/>
</svg>
