<svg width="12" height="8" viewBox="0 0 12 8" fill="none" xmlns="http://www.w3.org/2000/svg">
<path fill-rule="evenodd" clip-rule="evenodd" d="M1.29243 1.30468C1.47974 1.11758 1.73374 1.01248 1.99858 1.01248C2.26342 1.01248 2.51743 1.11758 2.70473 1.30467L5.99376 4.59106L9.28278 1.30467C9.37492 1.20936 9.48513 1.13333 9.60699 1.08102C9.72885 1.02872 9.85991 1.00119 9.99253 1.00004C10.1251 0.998885 10.2567 1.02414 10.3794 1.07432C10.5022 1.12449 10.6137 1.1986 10.7075 1.2923C10.8012 1.38601 10.8754 1.49743 10.9256 1.62008C10.9758 1.74273 11.0011 1.87415 11 2.00666C10.9988 2.13917 10.9713 2.27013 10.9189 2.39189C10.8666 2.51365 10.7905 2.62377 10.6951 2.71583L6.6999 6.7078C6.5126 6.8949 6.2586 7 5.99376 7C5.72891 7 5.47491 6.8949 5.28761 6.7078L1.29243 2.71583C1.10519 2.52868 1 2.27489 1 2.01026C1 1.74562 1.10519 1.49183 1.29243 1.30468Z" fill="#37352F" stroke="#F8F9FA" stroke-width="0.8"/>
</svg>
