<svg width="6" height="10" viewBox="0 0 6 10" fill="none" xmlns="http://www.w3.org/2000/svg">
<path fill-rule="evenodd" clip-rule="evenodd" d="M0.304675 9.70757C0.117581 9.52027 0.0124767 9.26626 0.0124767 9.00142C0.0124767 8.73658 0.117581 8.48257 0.304675 8.29527L3.59106 5.00624L0.304675 1.71722C0.209357 1.62508 0.133328 1.51487 0.0810238 1.39301C0.0287201 1.27115 0.00118918 1.14009 3.76812e-05 1.00747C-0.00111382 0.874854 0.0241369 0.743334 0.0743168 0.620585C0.124497 0.497838 0.198601 0.386321 0.292305 0.292542C0.386009 0.198762 0.497437 0.124599 0.620086 0.074378C0.742736 0.0241575 0.874151 -0.00111389 1.00666 3.8147e-05C1.13918 0.00119114 1.27013 0.0287437 1.39189 0.081089C1.51365 0.133435 1.62377 0.209526 1.71583 0.304921L5.7078 4.3001C5.8949 4.4874 6 4.7414 6 5.00624C6 5.27109 5.8949 5.52509 5.7078 5.71239L1.71583 9.70757C1.52868 9.89481 1.27489 10 1.01026 10C0.745624 10 0.491826 9.89481 0.304675 9.70757Z" fill="black"/>
</svg>
