<svg width="8" height="12" viewBox="0 0 8 12" fill="none" xmlns="http://www.w3.org/2000/svg">
<path fill-rule="evenodd" clip-rule="evenodd" d="M1.30468 10.5376C1.11758 10.3503 1.01248 10.0963 1.01248 9.8315C1.01248 9.56665 1.11758 9.31265 1.30468 9.12535L4.59106 5.83632L1.30468 2.54729C1.20936 2.45516 1.13333 2.34495 1.08102 2.22309C1.02872 2.10123 1.00119 1.97017 1.00004 1.83755C0.998886 1.70493 1.02414 1.57341 1.07432 1.45066C1.1245 1.32792 1.1986 1.2164 1.2923 1.12262C1.38601 1.02884 1.49744 0.954677 1.62009 0.904456C1.74274 0.854236 1.87415 0.828964 2.00666 0.830116C2.13918 0.831269 2.27013 0.858822 2.39189 0.911167C2.51365 0.963513 2.62377 1.0396 2.71583 1.135L6.7078 5.13018C6.8949 5.31748 7 5.57148 7 5.83632C7 6.10117 6.8949 6.35517 6.7078 6.54247L2.71583 10.5376C2.52868 10.7249 2.27489 10.8301 2.01026 10.8301C1.74562 10.8301 1.49183 10.7249 1.30468 10.5376Z" fill="#37352F" stroke="#F8F9FA" stroke-width="0.8"/>
</svg>
