<svg width="24" height="24" viewBox="0 0 24 24" fill="none" xmlns="http://www.w3.org/2000/svg">
<path d="M2.40002 4C2.40002 1.79086 4.19089 0 6.40002 0H14.4L21.6 7.2V20C21.6 22.2091 19.8092 24 17.6 24H6.40002C4.19088 24 2.40002 22.2091 2.40002 20V4Z" fill="#D92D20"/>
<path opacity="0.3" d="M14.4 0L21.6 7.2H18.4C16.1909 7.2 14.4 5.40914 14.4 3.2V0Z" fill="white"/>
<path d="M15.0447 15.1168C14.4458 15.1168 13.6964 15.2212 13.4512 15.258C12.4364 14.1983 12.1477 13.5959 12.0828 13.4353C12.1708 13.2092 12.477 12.3502 12.5205 11.2469C12.5419 10.6946 12.4253 10.2818 12.1736 10.0202C11.9223 9.75896 11.6182 9.73865 11.531 9.73865C11.2253 9.73865 10.7123 9.89327 10.7123 10.9287C10.7123 11.8271 11.1312 12.7804 11.247 13.0267C10.6369 14.803 9.982 16.0189 9.84292 16.269C7.39164 17.1919 7.19995 18.0843 7.19995 18.3372C7.19995 18.7917 7.52363 19.063 8.06578 19.063C9.38299 19.063 10.585 16.8516 10.7838 16.4676C11.7193 16.0948 12.9715 15.8639 13.2898 15.8088C14.2028 16.6786 15.2588 16.9107 15.6973 16.9107C16.0272 16.9107 16.7999 16.9107 16.7999 16.1162C16.8 15.3785 15.8544 15.1168 15.0447 15.1168ZM14.9812 15.6383C15.6927 15.6383 15.8807 15.8736 15.8807 15.998C15.8807 16.0761 15.8511 16.3308 15.4697 16.3308C15.1277 16.3308 14.5373 16.1331 13.9564 15.7043C14.1986 15.6725 14.5571 15.6383 14.9812 15.6383ZM11.4937 10.2442C11.5586 10.2442 11.6013 10.265 11.6365 10.3138C11.8411 10.5978 11.6761 11.5256 11.4753 12.2516C11.2814 11.6291 11.136 10.6738 11.3406 10.3378C11.3807 10.2722 11.4264 10.2442 11.4937 10.2442ZM11.1482 15.8014C11.4057 15.281 11.6945 14.5226 11.8517 14.0937C12.1664 14.6204 12.5897 15.1095 12.8345 15.3746C12.0723 15.5353 11.4956 15.6958 11.1482 15.8014ZM7.71163 18.4066C7.69466 18.3865 7.69215 18.3441 7.70494 18.2931C7.73176 18.1864 7.9367 17.6573 9.41904 16.9942C9.20678 17.3285 8.87497 17.8062 8.51044 18.1631C8.25385 18.4033 8.05404 18.5251 7.91658 18.5251C7.8674 18.5251 7.79964 18.5117 7.71163 18.4066Z" fill="white"/>
</svg>

