<svg viewBox="0 0 82 13" fill="none" xmlns="http://www.w3.org/2000/svg">
<path d="M9 0H4C1.79086 0 0 1.79086 0 4V8.56C0 10.7691 1.79086 12.56 4 12.56H9C11.2091 12.56 13 10.7691 13 8.56V4C13 1.79086 11.2091 0 9 0Z" fill="url(#paint0_linear_52_21402)"/>
<path d="M9.27 7.88001H10.8C9.65 10.66 5.97999 11.19 3.95 9.26001L1.8 9.90001C1.71 9.93001 1.63 9.83001 1.69 9.75001L3.01 7.90001C1.76 5.07001 4.09 1.95001 7.23 2.15001C8.73 2.25001 10.35 3.31001 10.8 4.75001H9.37999C8.38999 3.21001 6.22 2.85001 4.89 4.17001C2.31 6.74001 5.95 11.37 9.19 8.07001C9.26 8.00001 9.25999 7.88001 9.27 7.88001Z" fill="white"/>
<path d="M21.3603 9.09002H17.8703L17.2703 10.79H15.8403L18.8303 2.44002H20.4103L23.4003 10.79H21.9603L21.3603 9.09002ZM20.9703 7.98002L19.6103 4.10002L18.2403 7.98002H20.9603H20.9703Z" fill="#162044"/>
<path d="M25.5303 10.62C25.1203 10.43 24.7903 10.18 24.5503 9.85001C24.3103 9.53001 24.1803 9.16001 24.1703 8.76001H25.5903C25.6103 9.04001 25.7503 9.27001 25.9903 9.46001C26.2303 9.65001 26.5403 9.74001 26.9103 9.74001C27.2803 9.74001 27.5903 9.67001 27.8003 9.52001C28.0103 9.37001 28.1203 9.18001 28.1203 8.95001C28.1203 8.70001 28.0003 8.52001 27.7703 8.40001C27.5303 8.28001 27.1603 8.15001 26.6503 8.00001C26.1503 7.86001 25.7503 7.73001 25.4403 7.60001C25.1303 7.47001 24.8603 7.28001 24.6303 7.01001C24.4003 6.75001 24.2903 6.40001 24.2903 5.97001C24.2903 5.62001 24.3903 5.30001 24.6003 5.00001C24.8103 4.70001 25.1103 4.48001 25.4903 4.31001C25.8803 4.14001 26.3203 4.06001 26.8303 4.06001C27.5803 4.06001 28.1903 4.25001 28.6503 4.63001C29.1103 5.01001 29.3603 5.53001 29.3903 6.18001H28.0203C28.0003 5.88001 27.8803 5.65001 27.6603 5.47001C27.4403 5.29001 27.1503 5.21001 26.7803 5.21001C26.4103 5.21001 26.1403 5.28001 25.9503 5.41001C25.7603 5.55001 25.6603 5.73001 25.6603 5.95001C25.6603 6.13001 25.7203 6.27001 25.8503 6.39001C25.9803 6.51001 26.1303 6.60001 26.3203 6.67001C26.5003 6.74001 26.7803 6.82001 27.1403 6.93001C27.6203 7.06001 28.0103 7.19001 28.3203 7.32001C28.6303 7.45001 28.8903 7.65001 29.1203 7.90001C29.3403 8.16001 29.4603 8.50001 29.4703 8.92001C29.4703 9.30001 29.3703 9.63001 29.1603 9.93001C28.9503 10.23 28.6603 10.46 28.2803 10.63C27.9003 10.8 27.4503 10.88 26.9403 10.88C26.4303 10.88 25.9503 10.79 25.5403 10.6L25.5303 10.62Z" fill="#162044"/>
<path d="M33.3803 7.50001L36.4303 10.8H34.5803L32.1303 7.96001V10.8H30.7603V1.92001H32.1303V7.08001L34.5303 4.19001H36.4303L33.3803 7.50001Z" fill="#162044"/>
<path d="M37.3603 4.41001C37.7403 3.76001 38.2603 3.26001 38.9103 2.89001C39.5603 2.53001 40.2803 2.34001 41.0503 2.34001C41.9403 2.34001 42.7303 2.56001 43.4203 2.99001C44.1103 3.43001 44.6103 4.04001 44.9303 4.84001H43.2903C43.0703 4.40001 42.7703 4.07001 42.3903 3.86001C42.0103 3.64001 41.5603 3.54001 41.0603 3.54001C40.5103 3.54001 40.0203 3.66001 39.5803 3.91001C39.1503 4.16001 38.8103 4.51001 38.5703 4.98001C38.3303 5.44001 38.2003 5.98001 38.2003 6.60001C38.2003 7.22001 38.3203 7.76001 38.5703 8.22001C38.8203 8.68001 39.1503 9.04001 39.5803 9.29001C40.0103 9.54001 40.5003 9.67001 41.0603 9.67001C41.5603 9.67001 42.0103 9.56001 42.3903 9.35001C42.7703 9.14001 43.0703 8.81001 43.2903 8.37001H44.9303C44.6203 9.17001 44.1203 9.79001 43.4203 10.22C42.7303 10.65 41.9403 10.87 41.0503 10.87C40.2703 10.87 39.5503 10.69 38.9003 10.32C38.2503 9.96001 37.7403 9.45001 37.3603 8.80001C36.9803 8.15001 36.7903 7.42001 36.7903 6.60001C36.7903 5.78001 36.9803 5.05001 37.3603 4.40001V4.41001Z" fill="#162044"/>
<path d="M47.5303 10.48C47.0303 10.2 46.6303 9.80002 46.3403 9.28002C46.0503 8.76002 45.9103 8.17002 45.9103 7.49002C45.9103 6.81002 46.0603 6.22002 46.3503 5.70002C46.6503 5.18002 47.0503 4.78002 47.5603 4.50002C48.0703 4.22002 48.6403 4.08002 49.2803 4.08002C49.9203 4.08002 50.4803 4.22002 51.0003 4.50002C51.5103 4.78002 51.9203 5.18002 52.2103 5.70002C52.5003 6.22002 52.6503 6.82002 52.6503 7.49002C52.6503 8.16002 52.5003 8.76002 52.1903 9.28002C51.8903 9.80002 51.4703 10.2 50.9503 10.49C50.4303 10.77 49.8503 10.92 49.2203 10.92C48.5903 10.92 48.0303 10.78 47.5303 10.49V10.48ZM50.2103 9.47002C50.5203 9.30002 50.7703 9.05002 50.9603 8.71002C51.1503 8.37002 51.2503 7.97002 51.2503 7.49002C51.2503 7.01002 51.1603 6.60002 50.9703 6.27002C50.7903 5.94002 50.5403 5.69002 50.2403 5.52002C49.9403 5.35002 49.6103 5.27002 49.2603 5.27002C48.9103 5.27002 48.5803 5.35002 48.2803 5.52002C47.9803 5.69002 47.7403 5.94002 47.5703 6.27002C47.3903 6.60002 47.3103 7.01002 47.3103 7.49002C47.3103 8.20002 47.4903 8.75002 47.8603 9.14002C48.2203 9.53002 48.6803 9.72002 49.2303 9.72002C49.5803 9.72002 49.9103 9.64002 50.2203 9.47002H50.2103Z" fill="#162044"/>
<path d="M55.2103 1.92001V10.8H53.8403V1.92001H55.2103Z" fill="#162044"/>
<path d="M58.2103 1.92001V10.8H56.8403V1.92001H58.2103Z" fill="#162044"/>
<path d="M59.8003 5.70002C60.0803 5.19002 60.4503 4.79002 60.9303 4.51002C61.4103 4.23002 61.9303 4.08002 62.5103 4.08002C63.0303 4.08002 63.4803 4.18002 63.8703 4.39002C64.2603 4.60002 64.5703 4.85002 64.8003 5.15002V4.19002H66.1803V10.8H64.8003V9.82002C64.5703 10.13 64.2503 10.39 63.8503 10.6C63.4503 10.81 62.9903 10.91 62.4803 10.91C61.9103 10.91 61.3903 10.76 60.9203 10.47C60.4503 10.18 60.0703 9.77002 59.8003 9.25002C59.5203 8.73002 59.3903 8.13002 59.3903 7.47002C59.3903 6.81002 59.5303 6.22002 59.8003 5.71002V5.70002ZM64.5203 6.30002C64.3303 5.96002 64.0903 5.71002 63.7803 5.53002C63.4803 5.35002 63.1503 5.27002 62.8003 5.27002C62.4503 5.27002 62.1203 5.36002 61.8203 5.53002C61.5203 5.70002 61.2703 5.95002 61.0803 6.29002C60.8903 6.62002 60.8003 7.02002 60.8003 7.47002C60.8003 7.92002 60.8903 8.33002 61.0803 8.67002C61.2703 9.01002 61.5203 9.28002 61.8203 9.46002C62.1303 9.64002 62.4503 9.73002 62.8003 9.73002C63.1503 9.73002 63.4803 9.64002 63.7803 9.47002C64.0803 9.29002 64.3303 9.04002 64.5203 8.70002C64.7103 8.36002 64.8003 7.96002 64.8003 7.51002C64.8003 7.06002 64.7103 6.66002 64.5203 6.32002V6.30002Z" fill="#162044"/>
<path d="M69.4103 5.30001V8.96001C69.4103 9.21001 69.4703 9.39001 69.5803 9.49001C69.7003 9.60001 69.8903 9.65001 70.1703 9.65001H71.0103V10.79H69.9303C69.3103 10.79 68.8403 10.65 68.5103 10.36C68.1803 10.07 68.0203 9.60001 68.0203 8.96001V5.30001H67.2403V4.18001H68.0203V2.54001H69.4003V4.18001H71.0103V5.30001H69.4003H69.4103Z" fill="#162044"/>
<path d="M78.1203 8.00002H73.0703C73.1103 8.53002 73.3103 8.95002 73.6603 9.27002C74.0103 9.59002 74.4403 9.75002 74.9603 9.75002C75.7003 9.75002 76.2203 9.44002 76.5203 8.83002H78.0003C77.8003 9.44002 77.4403 9.94002 76.9103 10.32C76.3903 10.71 75.7403 10.9 74.9603 10.9C74.3303 10.9 73.7603 10.76 73.2603 10.47C72.7603 10.19 72.3703 9.79002 72.0803 9.27002C71.7903 8.75002 71.6503 8.16002 71.6503 7.48002C71.6503 6.80002 71.7903 6.20002 72.0603 5.69002C72.3403 5.17002 72.7203 4.78002 73.2203 4.50002C73.7203 4.22002 74.2903 4.08002 74.9403 4.08002C75.5903 4.08002 76.1203 4.22002 76.6103 4.49002C77.1003 4.76002 77.4803 5.14002 77.7503 5.64002C78.0203 6.13002 78.1603 6.70002 78.1603 7.34002C78.1603 7.59002 78.1403 7.81002 78.1103 8.01002L78.1203 8.00002ZM76.7403 6.90002C76.7403 6.40002 76.5503 5.99002 76.2003 5.69002C75.8503 5.39002 75.4103 5.23002 74.8903 5.23002C74.4203 5.23002 74.0103 5.38002 73.6803 5.68002C73.3403 5.98002 73.1403 6.39002 73.0803 6.90002H76.7403Z" fill="#162044"/>
<path d="M77.3301 0.29V0H78.8601V0.29H78.2701V1.92H77.9201V0.29H77.3301Z" fill="#162044"/>
<path d="M79.1501 0H79.5801L80.1501 1.39H80.1701L80.7401 0H81.1701V1.92H80.8401V0.6H80.8201L80.2901 1.91H80.0401L79.5101 0.6H79.4901V1.92H79.1601V0H79.1501Z" fill="#162044"/>
<defs>
<linearGradient id="paint0_linear_52_21402" x1="-0.27" y1="13.14" x2="12.63" y2="0.0700007" gradientUnits="userSpaceOnUse">
<stop stop-color="#03A0FF"/>
<stop offset="1" stop-color="#016AFB"/>
</linearGradient>
</defs>
</svg>
