<svg viewBox="0 0 20 20" fill="none" xmlns="http://www.w3.org/2000/svg">
<path d="M10 0.4C4.70671 0.4 0.4 4.70671 0.4 10C0.4 15.2933 4.70671 19.6 10 19.6C15.2933 19.6 19.6 15.2933 19.6 10C19.6 4.70671 15.2933 0.4 10 0.4ZM10 18.2125C5.47148 18.2125 1.7875 14.5285 1.7875 10C1.7875 5.47148 5.47148 1.7875 10 1.7875C14.5285 1.7875 18.2125 5.47148 18.2125 10C18.2125 14.5285 14.5285 18.2125 10 18.2125Z" fill="#E7B85D" stroke="#E7B85D" stroke-width="0.2"/>
<path d="M9.50581 15.8335L9.50576 15.8335L9.50856 15.8362C9.63994 15.9646 9.81632 16.0365 10 16.0365C10.1837 16.0365 10.3601 15.9646 10.4914 15.8362L10.4915 15.8363L10.493 15.8347C10.6216 15.7034 10.6935 15.5269 10.6935 15.3432C10.6935 15.1594 10.6216 14.983 10.493 14.8516L10.4923 14.8509C10.3608 14.7194 10.178 14.6568 10 14.6568C9.82197 14.6568 9.63919 14.7194 9.50773 14.8509L9.47844 14.8802V14.8839C9.24406 15.1592 9.24695 15.56 9.50581 15.8335ZM10 3.9625C9.81601 3.9625 9.63955 4.03559 9.50944 4.16569C9.37934 4.2958 9.30625 4.47226 9.30625 4.65625V12.9687C9.30625 13.1527 9.37934 13.3292 9.50944 13.4593C9.63955 13.5894 9.81601 13.6625 10 13.6625C10.184 13.6625 10.3605 13.5894 10.4906 13.4593C10.6207 13.3292 10.6938 13.1527 10.6938 12.9687V4.65625C10.6938 4.47226 10.6207 4.2958 10.4906 4.16569C10.3605 4.03559 10.184 3.9625 10 3.9625Z" fill="#E7B85D" stroke="#E7B85D" stroke-width="0.2"/>
</svg>
