<svg viewBox="0 0 24 24" fill="none" xmlns="http://www.w3.org/2000/svg">
<path d="M9 12.1707V13.9143C9 14.7427 9.67157 15.4143 10.5 15.4143H14.768" stroke="currentColor" stroke-width="1.2" stroke-linecap="round"/>
<path d="M13.3281 13.6123L15.1306 15.4143L13.3281 17.2164" stroke="currentColor" stroke-width="1.2" stroke-linecap="round" stroke-linejoin="round"/>
<path d="M16 13.0457V11.302C16 10.4736 15.3284 9.80201 14.5 9.80201H10.232" stroke="currentColor" stroke-width="1.2" stroke-linecap="round"/>
<path d="M11.6719 11.604L9.86939 9.80198L11.6719 7.99995" stroke="currentColor" stroke-width="1.2" stroke-linecap="round" stroke-linejoin="round"/>
<path d="M14.255 3.52905C13.9012 2.95499 13.3368 2.4 12.5 2.4C11.6632 2.4 11.0988 2.95499 10.745 3.52905C10.4378 4.02767 9.90564 4.45261 9.27488 4.71388C8.64413 4.97515 7.96735 5.05096 7.39752 4.91563C6.74148 4.75984 5.94995 4.76649 5.35822 5.35822C4.76649 5.94995 4.75984 6.74148 4.91563 7.39752C5.05096 7.96735 4.97515 8.64413 4.71388 9.27488C4.45261 9.90564 4.02767 10.4378 3.52905 10.745C2.95499 11.0988 2.4 11.6632 2.4 12.5C2.4 13.3368 2.95499 13.9012 3.52905 14.255C4.02767 14.5622 4.45261 15.0944 4.71388 15.7251C4.97515 16.3559 5.05096 17.0326 4.91563 17.6025C4.75984 18.2585 4.76649 19.05 5.35822 19.6418C5.94995 20.2335 6.74148 20.2402 7.39752 20.0844C7.96735 19.949 8.64413 20.0249 9.27488 20.2861C9.90564 20.5474 10.4378 20.9723 10.745 21.471C11.0988 22.045 11.6632 22.6 12.5 22.6C13.3368 22.6 13.9012 22.045 14.255 21.471C14.5622 20.9723 15.0944 20.5474 15.7251 20.2861C16.3559 20.0249 17.0326 19.949 17.6025 20.0844C18.2585 20.2402 19.05 20.2335 19.6418 19.6418C20.2335 19.05 20.2402 18.2585 20.0844 17.6025C19.949 17.0326 20.0249 16.3559 20.2861 15.7251C20.5474 15.0944 20.9723 14.5622 21.471 14.255C22.045 13.9012 22.6 13.3368 22.6 12.5C22.6 11.6632 22.045 11.0988 21.471 10.745C20.9723 10.4378 20.5474 9.90564 20.2861 9.27488C20.0249 8.64413 19.949 7.96735 20.0844 7.39752C20.2402 6.74148 20.2335 5.94995 19.6418 5.35822C19.05 4.76649 18.2585 4.75984 17.6025 4.91564C17.0326 5.05096 16.3559 4.97515 15.7251 4.71388C15.0944 4.45261 14.5622 4.02767 14.255 3.52905Z" stroke="currentColor" stroke-width="1.2"/>
</svg>
