<svg  viewBox="0 0 20 21" fill="none" xmlns="http://www.w3.org/2000/svg">
<mask id="path-1-inside-1_5235_189189" fill="white">
<path fill-rule="evenodd" clip-rule="evenodd" d="M10.0014 0.609375C10.5953 0.609375 11.0765 1.09081 11.0765 1.68529C11.0765 2.154 10.777 2.55265 10.359 2.70011V4.8638C10.6344 4.8638 10.9582 5.00973 11.2692 5.25779H14.5595C17.5937 5.25779 18.8521 6.41916 18.9292 9.33832C19.581 9.53802 20 10.0181 20 11.6182C20 13.2932 19.5826 13.7071 18.9329 13.8875V13.9138C18.9329 17.0489 17.6933 18.2881 14.5595 18.2881H13.5139L11.1937 20.6094V18.2881H5.44165C2.3077 18.2881 1.06994 17.0489 1.06994 13.9138V13.8884C0.418563 13.7083 0 13.2959 0 11.6182C0 10.0156 0.420091 9.53651 1.07375 9.33738C1.15093 6.41891 2.40779 5.25779 5.44165 5.25779H8.63393C8.94556 5.00973 9.29372 4.8638 9.64013 4.8638V2.69883C9.22413 2.5504 8.92637 2.15286 8.92637 1.68529C8.92637 1.09081 9.40757 0.609375 10.0014 0.609375Z"/>
</mask>
<path fill-rule="evenodd" clip-rule="evenodd" d="M10.0014 0.609375C10.5953 0.609375 11.0765 1.09081 11.0765 1.68529C11.0765 2.154 10.777 2.55265 10.359 2.70011V4.8638C10.6344 4.8638 10.9582 5.00973 11.2692 5.25779H14.5595C17.5937 5.25779 18.8521 6.41916 18.9292 9.33832C19.581 9.53802 20 10.0181 20 11.6182C20 13.2932 19.5826 13.7071 18.9329 13.8875V13.9138C18.9329 17.0489 17.6933 18.2881 14.5595 18.2881H13.5139L11.1937 20.6094V18.2881H5.44165C2.3077 18.2881 1.06994 17.0489 1.06994 13.9138V13.8884C0.418563 13.7083 0 13.2959 0 11.6182C0 10.0156 0.420091 9.53651 1.07375 9.33738C1.15093 6.41891 2.40779 5.25779 5.44165 5.25779H8.63393C8.94556 5.00973 9.29372 4.8638 9.64013 4.8638V2.69883C9.22413 2.5504 8.92637 2.15286 8.92637 1.68529C8.92637 1.09081 9.40757 0.609375 10.0014 0.609375Z" fill="white"/>
<path d="M10.359 2.70011L10.0929 1.94569L9.55904 2.13403V2.70011H10.359ZM10.359 4.8638H9.55904V5.6638H10.359V4.8638ZM11.2692 5.25779L10.7703 5.88321L10.9892 6.05779H11.2692V5.25779ZM18.9292 9.33832L18.1294 9.35942L18.1446 9.93468L18.6948 10.1032L18.9292 9.33832ZM18.9329 13.8875L18.7188 13.1167L18.1329 13.2795V13.8875H18.9329ZM13.5139 18.2881V17.4881H13.1824L12.948 17.7226L13.5139 18.2881ZM11.1937 20.6094H10.3937V22.5415L11.7595 21.175L11.1937 20.6094ZM11.1937 18.2881H11.9937V17.4881H11.1937V18.2881ZM1.06994 13.8884H1.86994V13.2795L1.28306 13.1173L1.06994 13.8884ZM1.07375 9.33738L1.30689 10.1027L1.85823 9.93469L1.87347 9.35853L1.07375 9.33738ZM8.63393 5.25779V6.05779H8.91346L9.13216 5.8837L8.63393 5.25779ZM9.64013 4.8638V5.6638H10.4401V4.8638H9.64013ZM9.64013 2.69883H10.4401V2.13487L9.90898 1.94535L9.64013 2.69883ZM11.8765 1.68529C11.8765 0.649506 11.0377 -0.190625 10.0014 -0.190625V1.40938C10.153 1.40938 10.2765 1.53211 10.2765 1.68529H11.8765ZM10.6252 3.45453C11.3533 3.19766 11.8765 2.50348 11.8765 1.68529H10.2765C10.2765 1.80452 10.2007 1.90764 10.0929 1.94569L10.6252 3.45453ZM11.159 4.8638V2.70011H9.55904V4.8638H11.159ZM11.768 4.63236C11.3895 4.33045 10.892 4.0638 10.359 4.0638V5.6638C10.3589 5.6638 10.3983 5.66493 10.48 5.70069C10.5594 5.73541 10.659 5.79437 10.7703 5.88321L11.768 4.63236ZM14.5595 4.45779H11.2692V6.05779H14.5595V4.45779ZM19.7289 9.31721C19.688 7.76731 19.3313 6.48678 18.3985 5.61796C17.4744 4.75723 16.1512 4.45779 14.5595 4.45779V6.05779C16.002 6.05779 16.8251 6.33903 17.308 6.78878C17.7822 7.23044 18.0933 7.99017 18.1294 9.35942L19.7289 9.31721ZM20.8 11.6182C20.8 10.7708 20.6931 10.092 20.413 9.57312C20.1043 9.00118 19.6399 8.71934 19.1635 8.5734L18.6948 10.1032C18.8703 10.157 18.9413 10.215 19.005 10.3331C19.0974 10.5042 19.2 10.8655 19.2 11.6182H20.8ZM19.1471 14.6583C19.6038 14.5315 20.0882 14.2825 20.4101 13.7006C20.696 13.1838 20.8 12.4943 20.8 11.6182H19.2C19.2 12.4172 19.0952 12.7721 19.0101 12.9261C18.9609 13.015 18.9118 13.0631 18.7188 13.1167L19.1471 14.6583ZM19.7329 13.9138V13.8875H18.1329V13.9138H19.7329ZM14.5595 19.0881C16.2031 19.0881 17.5611 18.7684 18.4871 17.8423C19.4131 16.9162 19.7329 15.558 19.7329 13.9138H18.1329C18.1329 15.4047 17.833 16.2337 17.3557 16.711C16.8784 17.1882 16.0497 17.4881 14.5595 17.4881V19.0881ZM13.5139 19.0881H14.5595V17.4881H13.5139V19.0881ZM11.7595 21.175L14.0797 18.8536L12.948 17.7226L10.6278 20.0439L11.7595 21.175ZM10.3937 18.2881V20.6094H11.9937V18.2881H10.3937ZM5.44165 19.0881H11.1937V17.4881H5.44165V19.0881ZM0.269938 13.9138C0.269938 15.5577 0.589193 16.916 1.51467 17.8421C2.44029 18.7684 3.79804 19.0881 5.44165 19.0881V17.4881C3.95131 17.4881 3.1232 17.1882 2.64645 16.7111C2.16956 16.2339 1.86994 15.405 1.86994 13.9138H0.269938ZM0.269938 13.8884V13.9138H1.86994V13.8884H0.269938ZM-0.8 11.6182C-0.8 12.4955 -0.695782 13.1859 -0.408826 13.7031C-0.085732 14.2853 0.400109 14.5332 0.856819 14.6595L1.28306 13.1173C1.08839 13.0635 1.03926 13.0151 0.990233 12.9268C0.905063 12.7733 0.8 12.4186 0.8 11.6182H-0.8ZM0.840609 8.5721C0.363926 8.71732 -0.101961 8.99824 -0.411802 9.57069C-0.692866 10.09 -0.8 10.7696 -0.8 11.6182H0.8C0.8 10.8643 0.902911 10.503 0.995307 10.3323C1.05892 10.2148 1.12991 10.1566 1.30689 10.1027L0.840609 8.5721ZM5.44165 4.45779C3.85016 4.45779 2.52735 4.75715 1.60359 5.61784C0.671214 6.48656 0.315002 7.76687 0.274027 9.31623L1.87347 9.35853C1.90968 7.98942 2.22048 7.22993 2.69429 6.78847C3.17672 6.33898 3.99928 6.05779 5.44165 6.05779V4.45779ZM8.63393 4.45779H5.44165V6.05779H8.63393V4.45779ZM9.64013 4.0638C9.06696 4.0638 8.5484 4.30336 8.13571 4.63187L9.13216 5.8837C9.34271 5.7161 9.52047 5.6638 9.64013 5.6638V4.0638ZM8.84013 2.69883V4.8638H10.4401V2.69883H8.84013ZM8.12637 1.68529C8.12637 2.5013 8.64655 3.19371 9.37129 3.4523L9.90898 1.94535C9.80171 1.90708 9.72637 1.80442 9.72637 1.68529H8.12637ZM10.0014 -0.190625C8.96521 -0.190625 8.12637 0.649506 8.12637 1.68529H9.72637C9.72637 1.53211 9.84992 1.40938 10.0014 1.40938V-0.190625Z" fill="#292929" mask="url(#path-1-inside-1_5235_189189)"/>
<path d="M16.7293 12.6984H16.3293C16.3293 13.641 16.1678 14.1413 15.8855 14.424C15.6033 14.7065 15.1038 14.8684 14.1616 14.8684H5.83855H5.78839C4.87892 14.8627 4.39195 14.7016 4.11466 14.4241C3.8322 14.1414 3.67051 13.641 3.67051 12.6986V10.8426C3.67051 9.90023 3.83221 9.40016 4.1146 9.11766C4.39694 8.8352 4.89672 8.67344 5.83871 8.67344H14.1617C15.0984 8.67344 15.5932 8.82993 15.8741 9.10595C16.1541 9.38115 16.3177 9.86999 16.3293 10.8018V10.8022V10.8028V10.8033V10.8039V10.8046V10.8053V10.806V10.8068V10.8076V10.8084V10.8093V10.8102V10.8112V10.8122V10.8133V10.8143V10.8155V10.8166V10.8178V10.8191V10.8203V10.8216V10.823V10.8244V10.8258V10.8273V10.8288V10.8303V10.8319V10.8335V10.8351V10.8368V10.8385V10.8403V10.8421V10.8439V10.8457V10.8476V10.8496V10.8515V10.8535V10.8555V10.8576V10.8597V10.8618V10.864V10.8662V10.8685V10.8707V10.873V10.8754V10.8777V10.8801V10.8826V10.885V10.8875V10.89V10.8926V10.8952V10.8978V10.9005V10.9032V10.9059V10.9086V10.9114V10.9142V10.917V10.9199V10.9228V10.9257V10.9287V10.9317V10.9347V10.9377V10.9408V10.9439V10.9471V10.9502V10.9534V10.9566V10.9599V10.9631V10.9664V10.9698V10.9731V10.9765V10.9799V10.9833V10.9868V10.9903V10.9938V10.9973V11.0009V11.0045V11.0081V11.0117V11.0154V11.0191V11.0228V11.0266V11.0303V11.0341V11.0379V11.0418V11.0456V11.0495V11.0534V11.0573V11.0613V11.0653V11.0693V11.0733V11.0774V11.0814V11.0855V11.0896V11.0938V11.0979V11.1021V11.1063V11.1105V11.1148V11.119V11.1233V11.1276V11.1319V11.1363V11.1406V11.145V11.1494V11.1539V11.1583V11.1628V11.1672V11.1717V11.1763V11.1808V11.1853V11.1899V11.1945V11.1991V11.2037V11.2084V11.213V11.2177V11.2224V11.2271V11.2319V11.2366V11.2414V11.2461V11.2509V11.2557V11.2606V11.2654V11.2703V11.2751V11.28V11.2849V11.2898V11.2948V11.2997V11.3047V11.3096V11.3146V11.3196V11.3246V11.3297V11.3347V11.3397V11.3448V11.3499V11.355V11.3601V11.3652V11.3703V11.3755V11.3806V11.3858V11.3909V11.3961V11.4013V11.4065V11.4117V11.417V11.4222V11.4274V11.4327V11.438V11.4432V11.4485V11.4538V11.4591V11.4644V11.4697V11.4751V11.4804V11.4858V11.4911V11.4965V11.5018V11.5072V11.5126V11.518V11.5234V11.5288V11.5342V11.5396V11.545V11.5505V11.5559V11.5614V11.5668V11.5723V11.5777V11.5832V11.5887V11.5941V11.5996V11.6051V11.6106V11.6161V11.6216V11.6271V11.6326V11.6381V11.6436V11.6491V11.6546V11.6601V11.6657V11.6712V11.6767V11.6822V11.6878V11.6933V11.6989V11.7044V11.7099V11.7155V11.721V11.7265V11.7321V11.7376V11.7432V11.7487V11.7543V11.7598V11.7653V11.7709V11.7764V11.782V11.7875V11.793V11.7986V11.8041V11.8097V11.8152V11.8207V11.8262V11.8318V11.8373V11.8428V11.8483V11.8538V11.8594V11.8649V11.8704V11.8759V11.8814V11.8869V11.8923V11.8978V11.9033V11.9088V11.9143V11.9197V11.9252V11.9306V11.9361V11.9415V11.947V11.9524V11.9578V11.9632V11.9686V11.9741V11.9794V11.9848V11.9902V11.9956V12.001V12.0063V12.0117V12.017V12.0224V12.0277V12.033V12.0383V12.0436V12.0489V12.0542V12.0595V12.0648V12.07V12.0753V12.0805V12.0857V12.0909V12.0961V12.1013V12.1065V12.1117V12.1168V12.122V12.1271V12.1323V12.1374V12.1425V12.1476V12.1526V12.1577V12.1628V12.1678V12.1728V12.1778V12.1828V12.1878V12.1928V12.1978V12.2027V12.2076V12.2125V12.2174V12.2223V12.2272V12.2321V12.2369V12.2417V12.2465V12.2513V12.2561V12.2609V12.2656V12.2703V12.275V12.2797V12.2844V12.2891V12.2937V12.2984V12.303V12.3076V12.3121V12.3167V12.3212V12.3257V12.3302V12.3347V12.3392V12.3436V12.348V12.3525V12.3568V12.3612V12.3655V12.3699V12.3742V12.3785V12.3827V12.387V12.3912V12.3954V12.3996V12.4037V12.4079V12.412V12.4161V12.4201V12.4242V12.4282V12.4322V12.4362V12.4401V12.4441V12.448V12.4519V12.4557V12.4596V12.4634V12.4672V12.4709V12.4747V12.4784V12.4821V12.4858V12.4894V12.493V12.4966V12.5002V12.5037V12.5072V12.5107V12.5142V12.5176V12.521V12.5244V12.5278V12.5311V12.5344V12.5377V12.5409V12.5441V12.5473V12.5505V12.5536V12.5567V12.5598V12.5628V12.5658V12.5688V12.5718V12.5747V12.5776V12.5805V12.5833V12.5861V12.5889V12.5917V12.5944V12.5971V12.5997V12.6023V12.6049V12.6075V12.61V12.6125V12.615V12.6174V12.6198V12.6222V12.6245V12.6268V12.6291V12.6313V12.6335V12.6357V12.6378V12.64V12.642V12.6441V12.6461V12.648V12.6499V12.6518V12.6537V12.6555V12.6573V12.6591V12.6608V12.6625V12.6641V12.6657V12.6673V12.6688V12.6703V12.6718V12.6732V12.6746V12.676V12.6773V12.6785V12.6798V12.681V12.6821V12.6833V12.6844V12.6854V12.6864V12.6874V12.6883V12.6892V12.69V12.6908V12.6916V12.6923V12.693V12.6937V12.6943V12.6949V12.6954V12.6959V12.6963V12.6967V12.6971V12.6974V12.6977V12.6979V12.6981V12.6982V12.6984V12.6984L16.7293 12.6984Z" stroke="#292929" stroke-width="0.8"/>
</svg>
