<svg viewBox="0 0 20 20" fill="none" xmlns="http://www.w3.org/2000/svg">
<path d="M15.7423 4.95868L16.0496 4.4629C16.1773 4.23851 16.2279 3.97849 16.1937 3.72261C16.1596 3.46673 16.0425 3.22909 15.8605 3.04602L15.0806 2.26691C14.8971 2.08506 14.6593 1.96818 14.4032 1.93408C14.1472 1.89997 13.887 1.95052 13.6624 2.07802L12.244 2.92802C12.2178 2.9508 12.1842 2.96334 12.1495 2.96334C12.1147 2.96334 12.0811 2.9508 12.0549 2.92802C11.8034 2.80538 11.5426 2.70277 11.2749 2.62113C11.204 2.5738 11.1567 2.55024 11.1567 2.4558L10.7552 0.873801C10.6905 0.622472 10.5437 0.399966 10.3381 0.241648C10.1325 0.0833295 9.87983 -0.00171659 9.62033 2.6263e-05H8.4857C8.22907 -0.00112152 7.9796 0.084599 7.77787 0.243244C7.57614 0.401889 7.43403 0.624125 7.37463 0.873801L6.97265 2.4558C6.96668 2.49379 6.95026 2.52938 6.92522 2.55858C6.90018 2.58778 6.86752 2.60943 6.83088 2.62113C6.54733 2.71557 6.33445 2.83357 6.05091 2.95157C5.98712 2.96728 5.91978 2.95889 5.8618 2.92802L4.46652 2.07802C4.2421 1.94975 3.98175 1.89876 3.72553 1.93289C3.4693 1.96702 3.23138 2.08437 3.04835 2.26691L2.24438 3.04602C2.06038 3.22852 1.94382 3.46811 1.91378 3.72553C1.88374 3.98295 1.94202 4.24293 2.07905 4.4629L2.90636 5.87956C2.92778 5.90558 2.94137 5.93715 2.94554 5.97059C2.94971 6.00403 2.94429 6.03797 2.92991 6.06845C2.81169 6.32823 2.69348 6.58801 2.59904 6.84778C2.59192 6.88043 2.57411 6.90977 2.54843 6.93115C2.52275 6.95253 2.49066 6.96472 2.45726 6.96578L0.873543 7.36711C0.622467 7.43173 0.400164 7.57835 0.241911 7.78371C0.0836582 7.98907 -0.00147629 8.2414 2.09808e-05 8.50067V9.634C-0.000898361 9.89056 0.0850391 10.1399 0.243849 10.3414C0.402657 10.5429 0.624987 10.6847 0.874653 10.7438L2.45837 11.1451C2.4918 11.1553 2.52221 11.1736 2.54693 11.1983C2.57165 11.223 2.58992 11.2534 2.60015 11.2869C2.696 11.5448 2.80647 11.7971 2.93102 12.0424C2.9446 12.0771 2.94955 12.1146 2.94545 12.1517C2.94135 12.1887 2.92831 12.2242 2.90747 12.2551L2.08017 13.6482C1.94243 13.8679 1.88374 14.128 1.9138 14.3856C1.94386 14.6432 2.06087 14.8828 2.24549 15.0649L3.04924 15.8678C3.23176 16.0522 3.47161 16.169 3.72934 16.1991C3.98707 16.2291 4.24736 16.1706 4.46741 16.0331L5.79114 15.2538C5.8086 15.242 5.82919 15.2357 5.85025 15.2357C5.87131 15.2357 5.89189 15.242 5.90936 15.2538L10.2112 19.5749C10.4842 19.8471 10.854 20 11.2395 20C11.625 20 11.9948 19.8471 12.2678 19.5749L19.3104 12.5384C19.5637 12.2866 19.7156 11.9503 19.7371 11.5938L19.9971 6.49356C20.01 6.29051 19.98 6.087 19.9089 5.89637C19.8377 5.70574 19.7271 5.53229 19.5843 5.38738C19.4415 5.24247 19.2696 5.12937 19.0801 5.05549C18.8905 4.98161 18.6874 4.94862 18.4842 4.95868L15.837 5.10045C15.8203 5.10005 15.8039 5.09563 15.7893 5.08757C15.7746 5.0795 15.7621 5.06804 15.7529 5.05414C15.7436 5.04024 15.7378 5.02431 15.7359 5.00769C15.7341 4.99108 15.7363 4.97427 15.7423 4.95868ZM15.1515 13.0342L11.8885 9.77577C11.8008 9.68799 11.6819 9.63862 11.5578 9.63854C11.4337 9.63846 11.3147 9.68766 11.2269 9.77533C11.1392 9.863 11.0898 9.98195 11.0897 10.106C11.0896 10.2301 11.1388 10.3491 11.2265 10.4369L14.4884 13.6953C14.9139 14.144 15.5994 13.4593 15.1503 13.0342H15.1515ZM13.0478 15.1358L9.78588 11.8771C9.74284 11.8319 9.69121 11.7958 9.63401 11.7709C9.57682 11.746 9.51522 11.7327 9.45284 11.732C9.39046 11.7312 9.32855 11.7429 9.27076 11.7664C9.21297 11.7899 9.16046 11.8247 9.11632 11.8688C9.07218 11.9129 9.03731 11.9654 9.01375 12.0232C8.99018 12.0809 8.97841 12.1428 8.97911 12.2052C8.97982 12.2676 8.99299 12.3292 9.01786 12.3865C9.04272 12.4437 9.07878 12.4953 9.1239 12.5384L12.3858 15.7969C12.8113 16.2455 13.4969 15.5609 13.0478 15.1358ZM16.5223 7.06023C16.264 7.06273 16.0122 7.14147 15.7986 7.28656C15.5849 7.43165 15.4188 7.63663 15.3212 7.87577C15.2236 8.11491 15.1988 8.37755 15.2499 8.63074C15.301 8.88393 15.4257 9.11637 15.6085 9.29891C15.7912 9.48144 16.0238 9.60593 16.2771 9.65675C16.5303 9.70757 16.7929 9.68246 17.0319 9.58456C17.2709 9.48666 17.4757 9.32034 17.6205 9.10648C17.7654 8.89261 17.8438 8.64073 17.846 8.38244C17.8469 8.20844 17.8132 8.03599 17.747 7.87508C17.6807 7.71418 17.5832 7.56801 17.4601 7.44504C17.337 7.32207 17.1907 7.22474 17.0298 7.15868C16.8688 7.09263 16.6963 7.05917 16.5223 7.06023ZM16.5223 7.86311C16.5909 7.86166 16.6592 7.8741 16.7229 7.89967C16.7866 7.92525 16.8445 7.96343 16.893 8.01194C16.9416 8.06044 16.9799 8.11826 17.0056 8.18193C17.0313 8.2456 17.0438 8.3138 17.0425 8.38244C17.0433 8.44988 17.0302 8.51677 17.0041 8.57892C16.9779 8.64108 16.9392 8.69718 16.8904 8.74372C16.8416 8.79026 16.7837 8.82624 16.7204 8.84942C16.657 8.8726 16.5896 8.88248 16.5223 8.87844C16.4567 8.88006 16.3915 8.86833 16.3306 8.84398C16.2696 8.81963 16.2143 8.78316 16.1679 8.73678C16.1215 8.6904 16.085 8.63507 16.0606 8.57417C16.0363 8.51326 16.0245 8.44803 16.0261 8.38244C16.0241 8.31564 16.0354 8.2491 16.0593 8.18669C16.0832 8.12429 16.1193 8.06726 16.1655 8.01894C16.2117 7.97061 16.267 7.93195 16.3283 7.9052C16.3895 7.87845 16.4555 7.86414 16.5223 7.86311ZM5.10561 14.5455L3.97098 15.2302C3.92829 15.2512 3.87999 15.2579 3.83319 15.2494C3.78639 15.2409 3.74356 15.2175 3.71099 15.1829L2.93102 14.4038C2.89639 14.3712 2.87311 14.3284 2.86459 14.2817C2.85607 14.2349 2.86276 14.1867 2.88369 14.144L3.73477 12.7273C3.83502 12.5655 3.89201 12.3806 3.90026 12.1904C3.9085 12.0002 3.86774 11.811 3.78188 11.6411C3.66388 11.4287 3.59278 11.1924 3.49833 10.98C3.44032 10.7957 3.33593 10.6295 3.19519 10.4972C3.05444 10.3649 2.88206 10.271 2.69459 10.2244L1.11109 9.82222C1.06434 9.81852 1.02089 9.7967 0.990002 9.76141C0.959116 9.72612 0.943239 9.68016 0.945763 9.63333V8.5C0.942827 8.4507 0.958015 8.40203 0.988464 8.36315C1.01892 8.32426 1.06253 8.29786 1.11109 8.28889L2.69459 7.88667C2.88052 7.84513 3.05243 7.75585 3.19337 7.62765C3.3343 7.49945 3.43941 7.33675 3.49833 7.15556C3.57849 6.92931 3.67321 6.70847 3.78188 6.49445C3.86756 6.32031 3.90814 6.12745 3.89991 5.93355C3.89168 5.73965 3.8349 5.55092 3.73477 5.38468L2.88369 3.99135C2.86168 3.94896 2.85438 3.90046 2.86295 3.85347C2.87152 3.80648 2.89547 3.76368 2.93102 3.73179L3.71099 2.92802C3.74573 2.89609 3.79001 2.87649 3.837 2.87223C3.88399 2.86797 3.93107 2.8793 3.97098 2.90446L5.38937 3.7309C5.54934 3.83653 5.73501 3.8967 5.92653 3.90496C6.11804 3.91321 6.3082 3.86926 6.47667 3.77779C6.71288 3.68335 6.92576 3.5889 7.13842 3.51802C7.32388 3.45524 7.49042 3.34653 7.62253 3.20202C7.75464 3.05751 7.84801 2.88191 7.89395 2.69157L8.2966 1.1098C8.30449 1.06478 8.32755 1.02382 8.36196 0.993742C8.39637 0.96366 8.44004 0.946271 8.4857 0.944468H9.62033C9.66879 0.945693 9.71558 0.962406 9.75385 0.992159C9.79212 1.02191 9.81985 1.06314 9.83299 1.1098L10.2108 2.6918C10.2606 2.88031 10.3554 3.05395 10.487 3.19787C10.6185 3.34179 10.783 3.45171 10.9663 3.51824C11.1927 3.5904 11.4143 3.6771 11.6296 3.77779C11.8024 3.86907 11.9963 3.91281 12.1915 3.90454C12.3867 3.89626 12.5762 3.83626 12.7407 3.73068L14.135 2.90446C14.1748 2.87878 14.222 2.86714 14.2691 2.87141C14.3162 2.87568 14.3606 2.89561 14.395 2.92802L15.1995 3.7309C15.2319 3.76529 15.2518 3.80955 15.2561 3.85661C15.2603 3.90367 15.2487 3.9508 15.223 3.99046L14.5375 5.12379C14.5139 5.14734 14.4901 5.1709 14.4666 5.1709L13.3793 5.24179C13.2027 5.24249 13.0281 5.27848 12.8656 5.34763C12.7031 5.41677 12.5561 5.51769 12.4331 5.64445L6.78399 11.2869C6.76643 11.2984 6.74588 11.3045 6.72488 11.3045C6.70388 11.3045 6.68333 11.2984 6.66577 11.2869C6.18287 10.7674 5.88201 10.105 5.80857 9.39962C5.73513 8.6942 5.8931 7.98403 6.25864 7.37626C6.62419 6.76849 7.17748 6.2961 7.83503 6.03036C8.49258 5.76463 9.21872 5.71997 9.90387 5.90312C9.96438 5.9211 10.0279 5.92678 10.0906 5.91982C10.1533 5.91286 10.214 5.89341 10.2691 5.86261C10.3242 5.83181 10.3726 5.79029 10.4114 5.74049C10.4502 5.69069 10.4786 5.63363 10.495 5.57268C10.526 5.4506 10.509 5.32127 10.4474 5.21139C10.3858 5.10151 10.2844 5.01948 10.1641 4.98223C9.27765 4.74524 8.33816 4.80314 7.48753 5.14719C6.6369 5.49124 5.92131 6.10275 5.44884 6.88936C4.97638 7.67597 4.7727 8.59497 4.86857 9.50755C4.96443 10.4201 5.35463 11.2767 5.98024 11.948C5.9912 11.9563 6.00008 11.967 6.0062 11.9793C6.01232 11.9916 6.0155 12.0051 6.0155 12.0189C6.0155 12.0326 6.01232 12.0462 6.0062 12.0585C6.00008 12.0708 5.9912 12.0815 5.98024 12.0898L5.38937 12.7035C5.16735 12.9253 5.02229 13.2123 4.97549 13.5226C4.9287 13.8329 4.98264 14.15 5.12938 14.4273C5.17649 14.4746 5.15294 14.5218 5.10561 14.5455ZM19.0515 6.44623L18.7915 11.5467C18.7907 11.6049 18.7777 11.6623 18.7533 11.7152C18.7288 11.768 18.6936 11.8152 18.6498 11.8535L11.5823 18.8902C11.5402 18.9401 11.4877 18.9802 11.4285 19.0077C11.3693 19.0352 11.3048 19.0495 11.2395 19.0495C11.1742 19.0495 11.1097 19.0352 11.0505 19.0077C10.9913 18.9802 10.9388 18.9401 10.8967 18.8902L6.05113 14.0731C5.96007 13.9777 5.90927 13.8509 5.90927 13.719C5.90927 13.5871 5.96007 13.4603 6.05113 13.3649L13.0951 6.32823C13.1367 6.28205 13.1878 6.24546 13.245 6.22099C13.3021 6.19651 13.3638 6.18472 13.426 6.18645L18.5316 5.90312C18.6026 5.90036 18.6734 5.91271 18.7392 5.93935C18.8051 5.96599 18.8646 6.0063 18.9138 6.05764C18.9629 6.10898 19.0006 6.17016 19.0244 6.23715C19.0481 6.30413 19.0574 6.3754 19.0515 6.44623Z" fill="currentColor"/>
</svg>
