<svg viewBox="0 0 31 31" fill="none" xmlns="http://www.w3.org/2000/svg">
<g clip-path="url(#clip0_2131_3969)">
<path d="M15.9469 3.11602L27.1969 7.61602C27.6344 7.79102 27.9844 8.31602 27.9844 8.77852V12.9285C27.9844 13.616 27.4219 14.1785 26.7344 14.1785H4.23438C3.54687 14.1785 2.98438 13.616 2.98438 12.9285V8.77852C2.98438 8.31602 3.33438 7.79102 3.77188 7.61602L15.0219 3.11602C15.2719 3.01602 15.6969 3.01602 15.9469 3.11602ZM27.9844 27.9285H2.98438V24.1785C2.98438 23.491 3.54687 22.9285 4.23438 22.9285H26.7344C27.4219 22.9285 27.9844 23.491 27.9844 24.1785V27.9285Z" stroke="currentColor" stroke-width="1.5" stroke-miterlimit="10" stroke-linecap="round" stroke-linejoin="round"/>
<path opacity="0.4" d="M5.48438 22.9287V14.1787M10.4844 22.9287V14.1787M15.4844 22.9287V14.1787M20.4844 22.9287V14.1787M25.4844 22.9287V14.1787" stroke="currentColor" stroke-width="1.5" stroke-miterlimit="10" stroke-linecap="round" stroke-linejoin="round"/>
<path d="M1.73438 27.9287H29.2344" stroke="currentColor" stroke-width="1.5" stroke-miterlimit="10" stroke-linecap="round" stroke-linejoin="round"/>
<path d="M15.4844 11.0537C15.7306 11.0537 15.9744 11.0052 16.2019 10.911C16.4294 10.8168 16.6361 10.6786 16.8102 10.5045C16.9843 10.3304 17.1224 10.1237 17.2166 9.89624C17.3109 9.66876 17.3594 9.42494 17.3594 9.17871C17.3594 8.93248 17.3109 8.68866 17.2166 8.46118C17.1224 8.23369 16.9843 8.027 16.8102 7.85289C16.6361 7.67878 16.4294 7.54066 16.2019 7.44644C15.9744 7.35221 15.7306 7.30371 15.4844 7.30371C14.9871 7.30371 14.5102 7.50125 14.1585 7.85289C13.8069 8.20452 13.6094 8.68143 13.6094 9.17871C13.6094 9.67599 13.8069 10.1529 14.1585 10.5045C14.5102 10.8562 14.9871 11.0537 15.4844 11.0537Z" stroke="currentColor" stroke-width="1.5" stroke-miterlimit="10" stroke-linecap="round" stroke-linejoin="round"/>
</g>
<defs>
<clipPath id="clip0_2131_3969">
<rect width="30" height="30" fill="white" transform="translate(0.484375 0.428711)"/>
</clipPath>
</defs>
</svg>

