<svg viewBox="0 0 40 40" fill="none" xmlns="http://www.w3.org/2000/svg">
<g opacity="0.8">
<path d="M20.6163 3.58334L35.6163 9.58334C36.1997 9.81667 36.6663 10.5167 36.6663 11.1333V16.6667C36.6663 17.5833 35.9163 18.3333 34.9997 18.3333H4.99967C4.08301 18.3333 3.33301 17.5833 3.33301 16.6667V11.1333C3.33301 10.5167 3.79967 9.81667 4.38301 9.58334L19.383 3.58334C19.7163 3.45 20.283 3.45 20.6163 3.58334ZM36.6663 36.6667H3.33301V31.6667C3.33301 30.75 4.08301 30 4.99967 30H34.9997C35.9163 30 36.6663 30.75 36.6663 31.6667V36.6667Z" stroke="currentColor" stroke-width="1.5" stroke-miterlimit="10" stroke-linecap="round" stroke-linejoin="round"/>
<path opacity="0.4" d="M6.66699 30V18.3333M13.3337 30V18.3333M20.0003 30V18.3333M26.667 30V18.3333M33.3337 30V18.3333" stroke="currentColor" stroke-opacity="0.4" stroke-width="1.5" stroke-miterlimit="10" stroke-linecap="round" stroke-linejoin="round"/>
<path d="M1.66699 36.6667H38.3337" stroke="currentColor" stroke-width="1.5" stroke-miterlimit="10" stroke-linecap="round" stroke-linejoin="round"/>
<path d="M20 14.1667C20.3283 14.1667 20.6534 14.102 20.9567 13.9764C21.26 13.8507 21.5356 13.6666 21.7678 13.4345C21.9999 13.2023 22.1841 12.9267 22.3097 12.6234C22.4353 12.3201 22.5 11.995 22.5 11.6667C22.5 11.3384 22.4353 11.0133 22.3097 10.71C22.1841 10.4067 21.9999 10.1311 21.7678 9.89892C21.5356 9.66677 21.26 9.48262 20.9567 9.35699C20.6534 9.23135 20.3283 9.16669 20 9.16669C19.337 9.16669 18.7011 9.43008 18.2322 9.89892C17.7634 10.3678 17.5 11.0036 17.5 11.6667C17.5 12.3297 17.7634 12.9656 18.2322 13.4345C18.7011 13.9033 19.337 14.1667 20 14.1667Z" stroke="currentColor" stroke-opacity="0.4" stroke-width="1.5" stroke-miterlimit="10" stroke-linecap="round" stroke-linejoin="round"/>
</g>
</svg>
