<svg width="54" height="51" viewBox="0 0 54 51" fill="none" xmlns="http://www.w3.org/2000/svg">
<path d="M38.4765 33.833H18.0003V15.2615C18.0003 15.1306 17.8931 15.0234 17.7622 15.0234H16.0955C15.9646 15.0234 15.8574 15.1306 15.8574 15.2615V35.7377C15.8574 35.8687 15.9646 35.9759 16.0955 35.9759H38.4765C38.6075 35.9759 38.7146 35.8687 38.7146 35.7377V34.071C38.7146 33.94 38.6075 33.833 38.4765 33.833ZM20.6193 31.452H22.286C22.417 31.452 22.5241 31.3449 22.5241 31.2139V26.9282C22.5241 26.7972 22.417 26.69 22.286 26.69H20.6193C20.4884 26.69 20.3812 26.7972 20.3812 26.9282V31.2139C20.3812 31.3449 20.4884 31.452 20.6193 31.452ZM25.1431 31.452H26.8098C26.9408 31.452 27.048 31.3449 27.048 31.2139V21.6901C27.048 21.5592 26.9408 21.452 26.8098 21.452H25.1431C25.0121 21.452 24.905 21.5592 24.905 21.6901V31.2139C24.905 31.3449 25.0121 31.452 25.1431 31.452ZM29.667 31.452H31.3336C31.4646 31.452 31.5716 31.3449 31.5716 31.2139V24.0115C31.5716 23.8805 31.4646 23.7734 31.3336 23.7734H29.667C29.536 23.7734 29.4288 23.8805 29.4288 24.0115V31.2139C29.4288 31.3449 29.536 31.452 29.667 31.452ZM34.1908 31.452H35.8575C35.9883 31.452 36.0955 31.3449 36.0955 31.2139V19.3092C36.0955 19.1782 35.9883 19.0711 35.8575 19.0711H34.1908C34.0598 19.0711 33.9526 19.1782 33.9526 19.3092V31.2139C33.9526 31.3449 34.0598 31.452 34.1908 31.452Z" fill="#757575"/>
</svg>
