<svg viewBox="0 0 89 89" fill="none" xmlns="http://www.w3.org/2000/svg">
<path d="M0 28C0 12.536 12.536 0 28 0H61C76.464 0 89 12.536 89 28V61C89 76.464 76.464 89 61 89H28C12.536 89 0 76.464 0 61V28Z" fill="#F8F9FC"/>
<path d="M57.0703 44.8121V43.5164V33.3229C57.0703 32.4355 56.7246 31.6011 56.0969 30.9735C55.4692 30.3457 54.6348 30 53.7475 30H33.3229C33.3228 30 33.3227 30 33.3227 30C31.4905 30.0002 30 31.4909 30 33.323V43.5164C30 44.0018 30.3935 44.3953 30.8789 44.3953H34.8882V56.7773C34.8882 57.2627 35.2818 57.6562 35.7671 57.6562H35.7673C35.7673 57.6562 35.7673 57.6562 35.7674 57.6562H45.3828C46.9365 59.1091 49.0219 60 51.3118 60C56.1025 60 60 56.1025 60 51.3118C60 48.7282 58.8661 46.4049 57.0703 44.8121ZM55.3125 33.3229V43.5164V43.6012C54.1144 42.977 52.7537 42.6235 51.3118 42.6235C46.521 42.6235 42.6236 46.521 42.6236 51.3117C42.6236 52.9943 43.1048 54.5663 43.9362 55.8984H36.6461V33.323C36.6461 32.7574 36.5036 32.2245 36.2533 31.7578H53.7475C54.1652 31.7578 54.5582 31.9206 54.8539 32.2164C55.1497 32.5121 55.3125 32.9051 55.3125 33.3229ZM31.7578 33.323C31.7578 32.4599 32.4599 31.7578 33.323 31.7578C34.1861 31.7578 34.8882 32.4599 34.8882 33.323V42.6375H31.7578V33.323ZM51.3118 58.2422C47.4904 58.2422 44.3814 55.1332 44.3814 51.3118C44.3814 47.4904 47.4904 44.3814 51.3118 44.3814C55.1332 44.3814 58.2422 47.4903 58.2422 51.3118C58.2422 55.1333 55.1332 58.2422 51.3118 58.2422Z" fill="#363F72"/>
<path d="M52.6754 34.1016H47.7383C47.2529 34.1016 46.8594 34.4951 46.8594 34.9805C46.8594 35.4659 47.2529 35.8594 47.7383 35.8594H52.6754C53.1608 35.8594 53.5543 35.4659 53.5543 34.9805C53.5543 34.4951 53.1608 34.1016 52.6754 34.1016Z" fill="#363F72"/>
<path d="M39.2832 35.8594H44.2203C44.7057 35.8594 45.0992 35.4659 45.0992 34.9805C45.0992 34.4951 44.7057 34.1016 44.2203 34.1016H39.2832C38.7978 34.1016 38.4043 34.4951 38.4043 34.9805C38.4043 35.4659 38.7978 35.8594 39.2832 35.8594Z" fill="#363F72"/>
<path d="M52.676 38.2031H39.2832C38.7978 38.2031 38.4043 38.5966 38.4043 39.082C38.4043 39.5674 38.7978 39.9609 39.2832 39.9609H52.676C53.1614 39.9609 53.5549 39.5674 53.5549 39.082C53.5549 38.5966 53.1614 38.2031 52.676 38.2031Z" fill="#363F72"/>
<path d="M52.3549 50.5364C51.577 50.2495 50.8566 49.9412 50.583 49.822C50.4194 49.739 50.3738 49.5559 50.4079 49.377C50.4358 49.2516 50.5369 49.0251 50.9015 48.9152C51.8282 48.6361 52.691 49.3256 52.6996 49.3326L52.6943 49.3282C53.0935 49.5945 53.6287 49.524 53.9453 49.1633C54.256 48.8096 54.2008 48.2665 53.8253 47.9826C53.7842 47.948 53.1385 47.4162 52.1908 47.1904V47.0305C52.1908 46.5572 51.8271 46.15 51.3543 46.1277C50.8496 46.1039 50.4329 46.5061 50.4329 47.0056V47.2216C50.4201 47.2253 50.4073 47.2282 50.3944 47.2321C49.515 47.497 48.8785 48.1562 48.692 48.9956C48.5192 49.7731 48.7746 50.5808 49.3587 51.1035C49.5068 51.236 49.6825 51.3471 49.8809 51.4334C50.1685 51.5587 50.9259 51.8828 51.7466 52.1855C51.9669 52.2668 52.6793 52.5691 52.5942 53.0459C52.5307 53.4014 52.0931 53.769 51.4707 53.769C50.819 53.769 50.1924 53.5068 49.7944 53.0677C49.4632 52.7022 48.8946 52.6798 48.5356 53.0227C48.1842 53.3583 48.1884 53.9207 48.5186 54.2773C49.0256 54.8248 49.6931 55.2107 50.4329 55.3979V55.5862C50.4329 56.0595 50.7966 56.4667 51.2693 56.489C51.774 56.5128 52.1907 56.1106 52.1907 55.6111V55.4465C53.287 55.1984 54.1389 54.3947 54.3246 53.3549C54.4941 52.4061 54.0656 51.1674 52.3549 50.5364Z" fill="#363F72"/>
</svg>
