<svg xmlns="http://www.w3.org/2000/svg" width="36" height="36" viewBox="0 0 36 36" fill="none">
<rect width="36" height="36" rx="4" fill="#E4ADA8"/>
<path d="M20.246 20.904H16.91L16.358 22.5H14.594L17.606 14.112H19.562L22.574 22.5H20.798L20.246 20.904ZM19.79 19.56L18.578 16.056L17.366 19.56H19.79Z" fill="#37352F"/>
<mask id="mask0_7931_3238" style="mask-type:alpha" maskUnits="userSpaceOnUse" x="0" y="0" width="36" height="36">
<rect width="36" height="36" rx="4" fill="#1B2853"/>
</mask>
<g mask="url(#mask0_7931_3238)">
<rect width="36" height="36" rx="4" fill="#1B2853"/>
<path d="M25.3687 14.1348C25.2413 14.1348 25.1176 14.0686 25.0495 13.9507C24.9477 13.7743 25.0078 13.5492 25.1842 13.4471L39.6507 5.09482C39.8429 4.98423 39.9573 4.78561 39.9573 4.56365C39.9573 4.34207 39.8429 4.14384 39.6507 4.03324L36.2708 2.08151C35.8479 1.83735 35.5957 1.40032 35.5957 0.912003C35.5957 0.424454 35.8479 -0.0129646 36.2708 -0.256739L46.124 -5.94545C46.3012 -6.04801 46.5258 -5.98678 46.6272 -5.81074C46.729 -5.63471 46.6689 -5.4093 46.4925 -5.30789L36.6393 0.381593C36.4472 0.49219 36.3324 0.690424 36.3324 0.912003C36.3324 1.13396 36.4472 1.33258 36.6393 1.44318L40.0193 3.39491C40.4418 3.63868 40.694 4.0761 40.694 4.56365C40.694 5.05196 40.4418 5.48899 40.0193 5.73315L25.5528 14.0854C25.4946 14.1187 25.4311 14.1348 25.3687 14.1348" fill="#E1E5EE"/>
<g filter="url(#filter0_f_7931_3238)">
<path d="M12.4406 29.8545C11.9188 29.8488 11.3994 29.7305 10.9999 29.5L6.78898 26.9287L9.99986 25L17.4999 29.5C17.6872 29.6081 18.7717 29.9415 18.9999 30L12.4406 29.8545ZM6.00642 26.4766L1.51188 23.7139C0.692812 23.2411 0.686144 22.4728 1.49985 22L6.13061 20V23.0041C6.1298 23.3167 6.58712 23.2618 6.99987 23.5L9.49986 24.5L6.00642 26.4766Z" fill="black" fill-opacity="0.36"/>
</g>
<path d="M6 22.609V17L17.9855 24.1913C18.3022 24.3813 18.6978 24.3813 19.0145 24.1913L31 17V22.1105C31 22.4548 30.8229 22.7749 30.5312 22.9578L19.5268 29.8563C18.8957 30.2519 18.097 30.2641 17.4541 29.8877L6.49479 23.472C6.18833 23.2926 6 22.9641 6 22.609Z" fill="url(#paint0_linear_7931_3238)" stroke="black" stroke-width="0.01"/>
<path d="M13.6467 16.4316C13.5803 16.4316 13.5131 16.4146 13.4514 16.3788L-18.8044 -2.24376C-18.9914 -2.3519 -19.0556 -2.59134 -18.9475 -2.77834C-18.839 -2.96534 -18.6002 -3.02998 -18.4128 -2.92144L13.8428 15.7011C14.03 15.8093 14.0942 16.0487 13.9859 16.2357C13.9135 16.3613 13.7819 16.4316 13.6467 16.4316" fill="#E1E5EE"/>
<path d="M18.0196 22.7944V22.7538H17.6943V22.7131H17.5724V22.6725H17.4504V22.6318H17.3285V22.5912H17.2472V22.5505H17.1659V22.5099H17.0845V22.4692H17.0439V22.4286H16.9626V22.3879H16.8813V22.3473H16.8V22.3066H16.7593V22.2659H16.678V22.2253H16.5967V22.1846H16.5154V22.144H16.4748V22.1033H16.3935V22.0627H16.3121V22.022H16.2715V21.9814H16.1902V21.9407H16.1089V21.9001H16.0276V21.8594H15.9869V21.8188H15.9056V21.7781H15.8243V21.7375H15.743V21.6968H15.7024V21.6562H15.6211V21.6155H15.5397V21.5749H15.4584V21.5342H15.4178V21.4936H15.3365V21.4529H15.2552V21.4122H15.2145V21.3716H15.1332V21.3309H15.0519V21.2903H14.9706V21.2496H14.93V21.209H14.8487V21.1683H14.7673V21.1277H14.686V21.087H14.6454V21.0464H14.5641V21.0057H14.4828V20.9651H14.4421V20.9244H14.3608V20.8838H14.2795V20.8431H14.1982V20.8025H14.1576V20.7618H14.0763V20.7212H13.9949V20.6805H13.9136V20.6398H13.873V20.5992H13.7917V20.5585H13.7104V20.5179H13.6291V20.4772H13.5884V20.4366H13.5071V20.3959H13.4258V20.3553H13.3852V20.3146H13.3039V20.274H13.2225V20.2333H13.1412V20.1927H13.1006V20.152H13.0193V20.1114H12.938V20.0707H12.8567V20.0301H12.816V19.9894H12.7347V19.9488H12.6534V19.9081H12.5721V19.8674H12.5315V19.8268H12.4502V19.7861H12.3688V19.7455H12.3282V19.7048H12.2469V19.6642H12.1656V19.6235H12.0843V19.5829H12.0436V19.5422H11.9623V19.5016H11.881V19.4609H11.7997V19.4203H11.7591V19.3796H11.6778V19.339H11.5964V19.2983H11.5151V19.2577H11.4745V19.217H11.3932V19.1764H11.3119V19.1357H11.2712V19.095H11.1899V19.0544H11.1086V19.0137H11.0273V18.9731H10.9867V18.9324H10.9054V18.8918H10.824V18.8511H10.7427V18.8105H10.7021V18.7698H10.6208V18.7292H10.5395V18.6885H10.4988V18.6479H10.4175V18.6072H10.3362V18.5666H10.2549V18.5259H10.2143V18.4853H10.133V18.4446H10.0516V18.404H9.97034V18.3633H9.92969V18.3226H9.84838V18.282H9.76708V18.2413H9.68577V18.2007H9.64512V18.16H9.56382V18.1194H9.48251V18.0787H9.44186V18.0381H9.36055V17.9974H9.27925V17.9568H9.19794V17.9161H9.15729V17.8755H9.07598V17.8348H8.99468V17.7942H8.91337V17.7535H8.87272V17.7129H8.79142V17.6722H8.75076V17.6316H8.66946V17.5909H8.62881V17.5502H8.58815V17.5096H8.5475V17.4689H8.50685V17.3876H8.4662V17.3063H8.42554V17.225H8.38489V17.0218H8.34424V16.9811H8.38489V16.7778H8.42554V16.6965H8.4662V16.6152H8.50685V16.5746H8.5475V16.5339H8.58815V16.4933H8.62881V16.4526H8.66946V16.412H8.71011V16.3713H8.79142V16.3307H8.83207V16.29H8.91337V16.2494H8.99468V16.2087H9.03533V16.1681H9.11664V16.1274H9.19794V16.0868H9.2386V16.0461H9.3199V16.0055H9.40121V15.9648H9.48251V15.9241H9.52316V15.8835H9.60447V15.8428H9.68577V15.8022H9.76708V15.7615H9.80773V15.7209H9.88904V15.6802H9.97034V15.6396H10.011V15.5989H10.0923V15.5583H10.1736V15.5176H10.2549V15.477H10.2956V15.4363H10.3769V15.3957H10.4582V15.355H10.4988V15.3144H10.5801V15.2737H10.6614V15.2331H10.7427V15.1924H10.7834V15.1517H10.8647V15.1111H10.946V15.0704H11.0273V15.0298H11.068V14.9891H11.1493V14.9485H11.2306V14.9078H11.2712V14.8672H11.3525V14.8265H11.4338V14.7859H11.5151V14.7452H11.5558V14.7046H11.6371V14.6639H11.7184V14.6233H11.7591V14.5826H11.8404V14.542H11.9217V14.5013H12.003V14.4607H12.0436V14.42H12.1249V14.3793H12.2062V14.3387H12.2469V14.298H12.3282V14.2574H12.4095V14.2167H12.4908V14.1761H12.5315V14.1354H12.6128V14.0948H12.6941V14.0541H12.7754V14.0135H12.816V13.9728H12.8973V13.9322H12.9786V13.8915H13.0193V13.8509H13.1006V13.8102H13.1819V13.7696H13.2632V13.7289H13.3039V13.6883H13.3852V13.6476H13.4665V13.6069H13.5071V13.5663H13.5884V13.5256H13.6697V13.485H13.751V13.4443H13.7917V13.4037H13.873V13.363H13.9543V13.3224H14.0356V13.2817H14.0763V13.2411H14.1576V13.2004H14.2389V13.1598H14.2795V13.1191H14.3608V13.0785H14.4421V13.0378H14.5234V12.9972H14.5641V12.9565H14.6454V12.9159H14.7267V12.8752H14.7673V12.8345H14.8487V12.7939H14.93V12.7532H15.0113V12.7126H15.0519V12.6719H15.1332V12.6313H15.2145V12.5906H15.2552V12.55H15.3365V12.5093H15.4178V12.4687H15.4991V12.428H15.5397V12.3874H15.6211V12.3467H15.7024V12.3061H15.7837V12.2654H15.8243V12.2248H15.9056V12.1841H15.9869V12.1435H16.0276V12.1028H16.1089V12.0621H16.1902V12.0215H16.2715V11.9808H16.3121V11.9402H16.3935V11.8995H16.4748V11.8589H16.5154V11.8182H16.5967V11.7776H16.678V11.7369H16.7593V11.6963H16.8V11.6556H16.8813V11.615H16.9626V11.5743H17.0032V11.5337H17.0845V11.493H17.1659V11.4524H17.2472V11.4117H17.3691V11.3711H17.4911V11.3304H17.613V11.2897H17.8976V11.2491H18.2635V11.2084H18.3854V11.2491H18.7513V11.2897H19.0359V11.3304H19.1578V11.3711H19.2798V11.4117H19.4017V11.4524H19.483V11.493H19.5644V11.5337H19.605V11.5743H19.6863V11.615H19.7676V11.6556H19.8489V11.6963H19.8896V11.7369H19.9709V11.7776H20.0522V11.8182H20.1335V11.8589H20.1741V11.8995H20.2554V11.9402H20.3368V11.9808H20.4181V12.0215H20.4587V12.0621H20.54V12.1028H20.6213V12.1435H20.662V12.1841H20.7433V12.2248H20.8246V12.2654H20.9059V12.3061H20.9465V12.3467H21.0278V12.3874H21.1092V12.428H21.1905V12.4687H21.2311V12.5093H21.3124V12.55H21.3937V12.5906H21.475V12.6313H21.5157V12.6719H21.597V12.7126H21.6783V12.7532H21.7189V12.7939H21.8002V12.8345H21.8816V12.8752H21.9629V12.9159H22.0035V12.9565H22.0848V12.9972H22.1661V13.0378H22.2474V13.0785H22.2881V13.1191H22.3694V13.1598H22.4507V13.2004H22.4913V13.2411H22.5726V13.2817H22.654V13.3224H22.7353V13.363H22.7759V13.4037H22.8572V13.4443H22.9385V13.485H23.0198V13.5256H23.0605V13.5663H23.1418V13.6069H23.2231V13.6476H23.3044V13.6883H23.345V13.7289H23.4263V13.7696H23.5077V13.8102H23.5483V13.8509H23.6296V13.8915H23.7109V13.9322H23.7922V13.9728H23.8329V14.0135H23.9142V14.0541H23.9955V14.0948H24.0768V14.1354H24.1174V14.1761H24.1987V14.2167H24.2801V14.2574H24.3614V14.298H24.402V14.3387H24.4833V14.3793H24.5646V14.42H24.6053V14.4607H24.6866V14.5013H24.7679V14.542H24.8492V14.5826H24.8898V14.6233H24.9711V14.6639H25.0525V14.7046H25.1338V14.7452H25.1744V14.7859H25.2557V14.8265H25.337V14.8672H25.4183V14.9078H25.459V14.9485H25.5403V14.9891H25.6216V15.0298H25.6622V15.0704H25.7435V15.1111H25.8249V15.1517H25.9062V15.1924H25.9468V15.2331H26.0281V15.2737H26.1094V15.3144H26.1907V15.355H26.2314V15.3957H26.3127V15.4363H26.394V15.477H26.4346V15.5176H26.5159V15.5583H26.5973V15.5989H26.6786V15.6396H26.7192V15.6802H26.8005V15.7209H26.8818V15.7615H26.9631V15.8022H27.0038V15.8428H27.0851V15.8835H27.1664V15.9241H27.2477V15.9648H27.2883V16.0055H27.3697V16.0461H27.451V16.0868H27.4916V16.1274H27.5729V16.1681H27.6542V16.2087H27.7355V16.2494H27.7762V16.29H27.8575V16.3307H27.9388V16.3713H27.9794V16.412H28.0201V16.4526H28.0607V16.4933H28.1014V16.5339H28.1421V16.5746H28.1827V16.6152H28.2234V16.6559H28.264V16.7372H28.3047V16.8592H28.3453V17.1844H28.3047V17.3063H28.264V17.3876H28.2234V17.4283H28.1827V17.4689H28.1421V17.5096H28.1014V17.5502H28.0607V17.5909H28.0201V17.6316H27.9794V17.6722H27.9388V17.7129H27.8575V17.7535H27.7762V17.7942H27.7355V17.8348H27.6542V17.8755H27.5729V17.9161H27.4916V17.9568H27.451V17.9974H27.3697V18.0381H27.2883V18.0787H27.2477V18.1194H27.1664V18.16H27.0851V18.2007H27.0038V18.2413H26.9631V18.282H26.8818V18.3226H26.8005V18.3633H26.7192V18.404H26.6786V18.4446H26.5973V18.4853H26.5159V18.5259H26.4753V18.5666H26.394V18.6072H26.3127V18.6479H26.2314V18.6885H26.1907V18.7292H26.1094V18.7698H26.0281V18.8105H25.9875V18.8511H25.9062V18.8918H25.8249V18.9324H25.7435V18.9731H25.7029V19.0137H25.6216V19.0544H25.5403V19.095H25.4996V19.1357H25.4183V19.1764H25.337V19.217H25.2557V19.2577H25.2151V19.2983H25.1338V19.339H25.0525V19.3796H24.9711V19.4203H24.9305V19.4609H24.8492V19.5016H24.7679V19.5422H24.7272V19.5829H24.6459V19.6235H24.5646V19.6642H24.4833V19.7048H24.4427V19.7455H24.3614V19.7861H24.2801V19.8268H24.2394V19.8674H24.1581V19.9081H24.0768V19.9488H23.9955V19.9894H23.9548V20.0301H23.8735V20.0707H23.7922V20.1114H23.7109V20.152H23.6703V20.1927H23.589V20.2333H23.5077V20.274H23.467V20.3146H23.3857V20.3553H23.3044V20.3959H23.2231V20.4366H23.1824V20.4772H23.1011V20.5179H23.0198V20.5585H22.9792V20.5992H22.8979V20.6398H22.8166V20.6805H22.7353V20.7212H22.6946V20.7618H22.6133V20.8025H22.532V20.8431H22.4913V20.8838H22.41V20.9244H22.3287V20.9651H22.2474V21.0057H22.2068V21.0464H22.1255V21.087H22.0442V21.1277H21.9629V21.1683H21.9222V21.209H21.8409V21.2496H21.7596V21.2903H21.7189V21.3309H21.6376V21.3716H21.5563V21.4122H21.475V21.4529H21.4344V21.4936H21.3531V21.5342H21.2718V21.5749H21.2311V21.6155H21.1498V21.6562H21.0685V21.6968H20.9872V21.7375H20.9465V21.7781H20.8652V21.8188H20.7839V21.8594H20.7026V21.9001H20.662V21.9407H20.5807V21.9814H20.4994V22.022H20.4587V22.0627H20.3774V22.1033H20.2961V22.144H20.2148V22.1846H20.1741V22.2253H20.0928V22.2659H20.0115V22.3066H19.9709V22.3473H19.8896V22.3879H19.8083V22.4286H19.727V22.4692H19.6863V22.5099H19.605V22.5505H19.5237V22.5912H19.4424V22.6318H19.3204V22.6725H19.1985V22.7131H19.0765V22.7538H18.7513V22.7944" fill="url(#paint1_linear_7931_3238)"/>
<path d="M26.5829 22.9482C26.5829 23.7332 25.9463 24.7373 25.1613 25.191C24.3759 25.6443 23.7393 25.3751 23.7393 24.5897C23.7393 23.8043 24.3759 22.8002 25.1613 22.3469C25.9463 21.8937 26.5829 22.1628 26.5829 22.9482Z" fill="#AFB4BE"/>
<path d="M10.1895 22.8356C10.1895 23.621 10.8261 24.6251 11.6113 25.0784C12.3966 25.5321 13.0332 25.263 13.0332 24.4776C13.0332 23.6921 12.3966 22.688 11.6113 22.2348C10.8261 21.7815 10.1895 22.0506 10.1895 22.8356Z" fill="#959FB3"/>
<path d="M17.9993 9.58996C18.2162 9.46034 18.486 9.45762 18.7054 9.58285L30.6404 16.3944C31.1093 16.662 31.1115 17.3373 30.6444 17.608L18.7017 24.5301C18.4844 24.6561 18.2163 24.656 17.9991 24.5298L6.34964 17.7641C5.88842 17.4962 5.88424 16.8315 6.34205 16.5579L17.9993 9.58996Z" fill="#FDFAF5"/>
<path d="M18.3692 10.7419C18.5855 10.6202 18.8502 10.6221 19.0647 10.747L28.6642 16.3344C29.1272 16.6039 29.1282 17.2725 28.6659 17.5433L18.8515 23.2941C18.6342 23.4214 18.3654 23.4222 18.1474 23.2962L8.31288 17.614C7.84343 17.3428 7.84727 16.6638 8.31975 16.3979L18.3692 10.7419Z" fill="url(#paint2_linear_7931_3238)"/>
<path opacity="0.72" d="M8 0H29V16.9332C29 17.1815 28.8685 17.4111 28.6545 17.5368L18.852 23.2933C18.6345 23.421 18.3651 23.4219 18.1468 23.2955L8.34929 17.6236C8.13311 17.4985 8 17.2676 8 17.0178V0Z" fill="url(#paint3_linear_7931_3238)"/>
<g opacity="0.5" filter="url(#filter1_f_7931_3238)">
<ellipse cx="18.5" cy="17" rx="5" ry="3" fill="black"/>
</g>
<path d="M13.3039 8.56494H13.3037V15.857H13.3039C13.3263 17.2857 15.6496 18.4405 18.5123 18.4405C21.3751 18.4405 23.6984 17.2857 23.7208 15.857H23.7209V8.56494H23.7208C23.6984 9.99367 21.3751 11.1484 18.5123 11.1484C15.6496 11.1484 13.3263 9.99367 13.3039 8.56494Z" fill="url(#paint4_linear_7931_3238)"/>
<path fill-rule="evenodd" clip-rule="evenodd" d="M18.5123 11.1486C21.389 11.1486 23.7209 9.98257 23.7209 8.54425C23.7209 7.10593 21.389 5.93994 18.5123 5.93994C15.6357 5.93994 13.3037 7.10593 13.3037 8.54425C13.3037 9.98257 15.6357 11.1486 18.5123 11.1486ZM18.5332 9.87765C19.9715 9.87765 21.1375 9.29466 21.1375 8.5755C21.1375 7.85634 19.9715 7.27335 18.5332 7.27335C17.0948 7.27335 15.9289 7.85634 15.9289 8.5755C15.9289 9.29466 17.0948 9.87765 18.5332 9.87765Z" fill="#8D6AF1"/>
<g opacity="0.1" filter="url(#filter2_i_7931_3238)">
<path d="M8 0H29V16.9332C29 17.1815 28.8685 17.4111 28.6545 17.5368L18.852 23.2933C18.6345 23.421 18.3651 23.4219 18.1468 23.2955L8.34929 17.6236C8.13311 17.4985 8 17.2676 8 17.0178V0Z" fill="url(#paint5_linear_7931_3238)"/>
</g>
<ellipse cx="18.4867" cy="8.57716" rx="2.74405" ry="1.31105" fill="white"/>
<path d="M16.8453 14.6996V16.7266C16.8453 16.8034 16.7624 16.8515 16.6957 16.8134L15.1456 15.9276C15.1144 15.9098 15.0952 15.8767 15.0952 15.8408V11.6597C15.0952 11.5817 15.1805 11.5337 15.2471 11.5742L18.4399 13.5134C18.4715 13.5326 18.5111 13.5328 18.5428 13.5139L21.8196 11.5714C21.8862 11.5319 21.9706 11.58 21.9706 11.6575V15.9217C21.9706 15.9589 21.9499 15.993 21.917 16.0103L20.3669 16.8222C20.3003 16.8571 20.2205 16.8088 20.2205 16.7336V14.6953C20.2205 14.6187 20.1379 14.5705 20.0712 14.6083L18.5417 15.4744C18.5105 15.4921 18.4722 15.4917 18.4413 15.4733L16.9964 14.6137C16.9298 14.574 16.8453 14.6221 16.8453 14.6996Z" fill="white"/>
<path d="M28.6217 60C28.5555 60 28.488 59.9829 28.4262 59.9476L11.016 49.8954C9.99255 49.3043 9.38134 48.2461 9.38134 47.0643C9.38118 45.8822 9.99239 44.8232 11.016 44.2321L16.8514 40.8636C17.2764 40.6181 17.5301 40.1786 17.5301 39.6879C17.5301 39.1973 17.2764 38.7582 16.8514 38.5127L5.28779 31.8363C4.39392 31.3204 3.86035 30.396 3.86035 29.3642C3.86035 28.332 4.39392 27.4076 5.28779 26.8917L11.2839 23.4297C11.4722 23.3212 11.7109 23.3862 11.8184 23.5728C11.9266 23.7602 11.8626 23.9997 11.6753 24.1074L5.67923 27.5694C5.03037 27.9438 4.64308 28.615 4.64308 29.3642C4.64308 30.113 5.03037 30.7842 5.67923 31.1586L17.2429 37.8346C17.9128 38.2216 18.3128 38.9143 18.3128 39.6879C18.3128 40.4616 17.9128 41.1543 17.2429 41.5413L11.4073 44.9102C10.6287 45.3598 10.1641 46.1651 10.1641 47.0639C10.1641 47.9632 10.6288 48.7681 11.4073 49.2173L28.8177 59.2695C29.0051 59.3776 29.0689 59.6166 28.9608 59.8041C28.8884 59.9297 28.7567 60 28.6217 60" fill="#E1E5EE"/>
<path d="M64.6986 34.7319C64.6323 34.7319 64.5652 34.7149 64.5035 34.6791L47.0196 24.585C45.7838 23.8716 44.2483 23.8716 43.0121 24.585L36.9577 28.0804C35.3812 28.9906 33.4225 28.9906 31.8456 28.0804L24.9652 24.1078C24.7782 24.0001 24.7139 23.7606 24.8221 23.5732C24.9302 23.3866 25.1692 23.3216 25.3566 23.4301L32.2371 27.4027C33.5721 28.173 35.2312 28.173 36.5666 27.4027L42.6206 23.9074C44.0983 23.0541 45.9334 23.0541 47.4111 23.9074L64.8949 34.0014C65.0819 34.1095 65.1462 34.349 65.038 34.536C64.9657 34.6616 64.834 34.7319 64.6986 34.7319" fill="#E1E5EE"/>
</g>
<defs>
<filter id="filter0_f_7931_3238" x="0.393555" y="19.5" width="19.1064" height="11" filterUnits="userSpaceOnUse" color-interpolation-filters="sRGB">
<feFlood flood-opacity="0" result="BackgroundImageFix"/>
<feBlend mode="normal" in="SourceGraphic" in2="BackgroundImageFix" result="shape"/>
<feGaussianBlur stdDeviation="0.25" result="effect1_foregroundBlur_7931_3238"/>
</filter>
<filter id="filter1_f_7931_3238" x="12" y="12.5" width="13" height="9" filterUnits="userSpaceOnUse" color-interpolation-filters="sRGB">
<feFlood flood-opacity="0" result="BackgroundImageFix"/>
<feBlend mode="normal" in="SourceGraphic" in2="BackgroundImageFix" result="shape"/>
<feGaussianBlur stdDeviation="0.75" result="effect1_foregroundBlur_7931_3238"/>
</filter>
<filter id="filter2_i_7931_3238" x="8" y="0" width="21" height="23.3896" filterUnits="userSpaceOnUse" color-interpolation-filters="sRGB">
<feFlood flood-opacity="0" result="BackgroundImageFix"/>
<feBlend mode="normal" in="SourceGraphic" in2="BackgroundImageFix" result="shape"/>
<feColorMatrix in="SourceAlpha" type="matrix" values="0 0 0 0 0 0 0 0 0 0 0 0 0 0 0 0 0 0 127 0" result="hardAlpha"/>
<feOffset/>
<feGaussianBlur stdDeviation="2"/>
<feComposite in2="hardAlpha" operator="arithmetic" k2="-1" k3="1"/>
<feColorMatrix type="matrix" values="0 0 0 0 1 0 0 0 0 1 0 0 0 0 1 0 0 0 1 0"/>
<feBlend mode="normal" in2="shape" result="effect1_innerShadow_7931_3238"/>
</filter>
<linearGradient id="paint0_linear_7931_3238" x1="20" y1="29.5" x2="6" y2="21.5" gradientUnits="userSpaceOnUse">
<stop stop-color="#CACBCD"/>
<stop offset="0.203125" stop-color="#BFC6CE"/>
<stop offset="1" stop-color="#A1A8AF"/>
</linearGradient>
<linearGradient id="paint1_linear_7931_3238" x1="18.3547" y1="11.2438" x2="18.3547" y2="22.7939" gradientUnits="userSpaceOnUse">
<stop stop-color="#415DB4"/>
<stop offset="1" stop-color="#61C9F4"/>
</linearGradient>
<linearGradient id="paint2_linear_7931_3238" x1="28.52" y1="17.0012" x2="11.9211" y2="14.5127" gradientUnits="userSpaceOnUse">
<stop stop-color="#37187A"/>
<stop offset="1" stop-color="#190541"/>
</linearGradient>
<linearGradient id="paint3_linear_7931_3238" x1="18.4869" y1="-8" x2="18.4869" y2="17.3062" gradientUnits="userSpaceOnUse">
<stop offset="0.0260417" stop-color="white" stop-opacity="0"/>
<stop offset="1" stop-color="#AA88F3" stop-opacity="0.49"/>
</linearGradient>
<linearGradient id="paint4_linear_7931_3238" x1="18.5123" y1="9.69" x2="18.5123" y2="18.4405" gradientUnits="userSpaceOnUse">
<stop stop-color="#35198E"/>
<stop offset="1" stop-color="#8D6AF1"/>
</linearGradient>
<linearGradient id="paint5_linear_7931_3238" x1="18.4869" y1="-8" x2="18.4869" y2="17.3062" gradientUnits="userSpaceOnUse">
<stop offset="0.0260417" stop-color="white" stop-opacity="0"/>
<stop offset="1" stop-color="#AA88F3" stop-opacity="0.49"/>
</linearGradient>
</defs>
</svg>