<svg xmlns="http://www.w3.org/2000/svg" fill="none" viewBox="0 0 36 36"><rect width="36" height="36" fill="#E4ADA8" rx="4"/><path fill="#37352F" d="M20.246 20.904H16.91l-.552 1.596h-1.764l3.012-8.388h1.956l3.012 8.388h-1.776l-.552-1.596Zm-.456-1.344-1.212-3.504-1.212 3.504h2.424Z"/><mask id="a" x="0" y="0" maskUnits="userSpaceOnUse" style="mask-type:alpha"><rect width="36" height="36" fill="#1B2853" rx="4"/></mask><g mask="url(#a)"><rect width="36" height="36" fill="#1B2853" rx="4"/><path fill="#E1E5EE" d="M25.369 14.135a.368.368 0 0 1-.185-.688l14.467-8.352a.606.606 0 0 0 .306-.531.605.605 0 0 0-.306-.53l-3.38-1.952a1.336 1.336 0 0 1-.675-1.17c0-.488.252-.925.675-1.169l9.853-5.688a.367.367 0 1 1 .368.637L36.64.382a.606.606 0 0 0-.307.53c0 .222.115.42.307.531l3.38 1.952c.423.244.675.681.675 1.169s-.252.925-.675 1.17l-14.466 8.351a.37.37 0 0 1-.184.05"/><g filter="url(#b)"><path fill="#000" fill-opacity=".36" d="M12.44 29.855c-.521-.006-1.04-.125-1.44-.355l-4.211-2.571L9.999 25l7.5 4.5c.188.108 1.273.442 1.5.5l-6.558-.145Zm-6.434-3.378-4.494-2.763C.692 23.24.686 22.473 1.5 22l4.63-2v3.004c0 .313.457.258.87.496l2.5 1-3.494 1.977Z"/></g><path fill="url(#c)" stroke="#000" stroke-width=".01" d="M6 22.609V17l11.985 7.191a1 1 0 0 0 1.03 0L31 17v5.11a1 1 0 0 1-.469.848l-11.004 6.898a2 2 0 0 1-2.073.032l-10.96-6.416A1 1 0 0 1 6 22.609Z"/><path fill="#E1E5EE" d="M13.647 16.432a.388.388 0 0 1-.196-.053L-18.804-2.244a.391.391 0 0 1 .391-.677L13.843 15.7a.391.391 0 0 1-.196.73"/><path fill="url(#d)" d="M18.02 22.794v-.04h-.326v-.04h-.122v-.041h-.122v-.041h-.122v-.04h-.08v-.041h-.082v-.041h-.082v-.04h-.04v-.041h-.081v-.041h-.082v-.04H16.8v-.041h-.04v-.041h-.082v-.04h-.081v-.041h-.082v-.041h-.04v-.04h-.082v-.041h-.08v-.041h-.041v-.04h-.082v-.041h-.081v-.04h-.081v-.042h-.041v-.04h-.081v-.04h-.082v-.041h-.081v-.041h-.04v-.04h-.082v-.041h-.081v-.041h-.082v-.04h-.04v-.041h-.082v-.041h-.08v-.04h-.042v-.041h-.08v-.041h-.082v-.04h-.081v-.041h-.041v-.041h-.081v-.04h-.082v-.041h-.081v-.041h-.04v-.04h-.082v-.041h-.081v-.04h-.04v-.042h-.082v-.04h-.082v-.04h-.08v-.042h-.041v-.04h-.082v-.04h-.081v-.042h-.081v-.04h-.041v-.04h-.081v-.042h-.082v-.04h-.08v-.04h-.042v-.041h-.08v-.041h-.082v-.04h-.04v-.041h-.082v-.041h-.082v-.04h-.08v-.041H13.1v-.041h-.082v-.04h-.081v-.041h-.081v-.04h-.041v-.042h-.081v-.04h-.082v-.04h-.08v-.042h-.042v-.04h-.08v-.04h-.082v-.041h-.04v-.041h-.082v-.04h-.081v-.041h-.082v-.041h-.04v-.04h-.082v-.041h-.081v-.041H11.8v-.04h-.04v-.041h-.082v-.041h-.082v-.04h-.08v-.041h-.041v-.041h-.082v-.04h-.081v-.041h-.04v-.041h-.082v-.04h-.081v-.041h-.082v-.04h-.04v-.042h-.082v-.04h-.081v-.04h-.081v-.041h-.04v-.041h-.082v-.04h-.082v-.041h-.04v-.041h-.082v-.04h-.08v-.041h-.082v-.041h-.04v-.04h-.082v-.041h-.081v-.041H9.97v-.04h-.04v-.041h-.082v-.041h-.08v-.04h-.082V18.2h-.04v-.041h-.082v-.04h-.081v-.041h-.041v-.04H9.36v-.042h-.082v-.04h-.081v-.04h-.04v-.042h-.082v-.04h-.081v-.04h-.082v-.042h-.04v-.04H8.79v-.04h-.04v-.041h-.082v-.041h-.04v-.04h-.04v-.041h-.042v-.041h-.04v-.081h-.04v-.082h-.041v-.081h-.041v-.203h-.04v-.04h.04v-.204h.04v-.081h.041v-.082h.04v-.04h.041v-.041h.041v-.04h.04v-.041h.041v-.041h.041v-.04h.081v-.041h.041v-.041h.081v-.04h.082v-.041h.04v-.04h.082v-.042h.08v-.04h.042v-.04h.08v-.041h.082v-.041h.082v-.04h.04v-.042h.081v-.04h.082v-.04h.081v-.042h.04v-.04h.082v-.04h.081v-.041h.041v-.041h.081v-.04h.082v-.041h.08v-.041h.042v-.04h.08v-.041h.082v-.041h.04v-.04h.082v-.041h.081v-.04h.082v-.042h.04v-.04h.082v-.04h.081v-.042h.081v-.04h.041v-.04h.081v-.042h.082v-.04h.04v-.04h.081v-.042h.082v-.04h.081v-.04h.04v-.041h.082v-.041h.081v-.04h.041v-.041h.081v-.041h.082v-.04h.081v-.041h.04v-.041h.082v-.04h.081v-.041h.04v-.041h.082v-.04h.082v-.041h.08v-.04h.041v-.042h.082v-.04h.081v-.04h.081v-.041h.041v-.041h.081v-.04h.082v-.041h.04v-.041h.082v-.04h.08v-.041h.082v-.041h.04v-.04h.082v-.041h.082v-.041h.04v-.04h.081v-.041h.082v-.041h.081v-.04h.04v-.041h.082v-.041h.081v-.04h.082v-.041h.04v-.04h.082V13.2h.08v-.04h.042v-.04h.08v-.041h.082v-.041h.081v-.04h.041v-.041h.081v-.041h.082v-.04h.04v-.041h.082v-.041h.081v-.04h.081v-.041h.04v-.041h.082v-.04h.082v-.041h.04v-.041h.081v-.04h.082v-.041h.081v-.041h.04v-.04h.082v-.041h.081v-.04h.082v-.042h.04v-.04h.082v-.04h.08v-.042h.042v-.04h.08v-.04h.082v-.042h.081v-.04h.041v-.04h.081v-.042h.082v-.04h.04v-.04h.082v-.041h.081v-.041h.081v-.04h.041v-.041h.081v-.041h.082v-.04h.04v-.041h.081v-.041h.082v-.04h.081v-.041h.122v-.04h.122v-.042h.122v-.04h.285v-.04h.366v-.042h.121v.041h.366v.04h.285v.041h.122v.041h.122v.04h.122v.041h.081v.041h.081v.04h.041v.041h.081v.041h.082v.04h.08v.041h.042v.04h.08v.042h.082v.04h.082v.04h.04v.041h.081v.041h.082v.04h.081v.041h.04v.041h.082v.04h.081v.041h.041v.041h.081v.04h.082v.041h.08v.041h.041v.04h.082v.041h.081v.041h.081v.04h.041v.041h.081v.041h.082v.04h.081v.041h.04v.04h.082v.042h.081v.04h.04v.04h.082v.042h.082v.04h.08v.04h.041v.042h.082v.04h.081v.04h.081v.041h.041v.041h.081v.04h.082v.041h.04v.041h.082v.04h.081v.041h.081v.041h.04v.04h.082v.041h.082v.041h.08v.04h.042v.041h.08v.04h.082v.042h.081v.04h.041v.04h.081v.042h.082v.04h.04v.04h.082v.042h.08v.04h.082v.04h.04v.042h.082v.04h.081v.04h.082v.041h.04v.041h.082v.04h.081v.041h.081v.041h.041v.04h.081v.041h.082v.041h.04v.04h.082v.041h.08v.041h.082v.04h.04v.041h.082v.04h.081v.042h.082v.04h.04v.04h.082v.041h.081v.041h.081v.04h.041v.041h.081v.041h.082v.04h.04v.041h.082v.041h.08v.04h.082v.041h.04v.041h.082v.04h.081v.041h.082v.041h.04v.04h.082v.041h.081v.041h.04v.04h.082v.041h.081v.04h.082v.042h.04v.04h.081v.04h.082v.041h.081v.041h.04v.04h.082v.041h.081v.041h.082v.04h.04v.042h.082v.04h.081v.04h.04v.041h.082v.041h.081v.04h.081v.041h.041v.041h.082v.04h.08v.041h.041v.041h.041v.04h.04v.041h.041v.04h.041v.042h.04v.04h.041v.04h.041v.082h.04v.122h.041v.325h-.04v.122h-.041v.082h-.04v.04h-.041v.04h-.04v.042H28.1v.04h-.04v.04h-.04v.042h-.042v.04h-.04v.04h-.081v.041h-.082v.041h-.04v.04h-.082v.041h-.081v.041h-.081v.04h-.041v.041h-.081v.041h-.082v.04h-.04v.041h-.082v.041h-.08v.04h-.082v.041h-.04v.041h-.082v.04H26.8v.041h-.08v.041h-.041v.04h-.082v.041h-.081v.04h-.04v.042h-.082v.04h-.081v.04h-.082v.042h-.04v.04h-.082v.04h-.08v.042h-.041v.04h-.082v.04h-.081v.041h-.081v.041h-.041v.04h-.081v.041h-.082v.041h-.04v.04h-.082v.041h-.081v.041h-.081v.04h-.04v.041h-.082v.041h-.082v.04h-.08v.041h-.042v.04h-.08v.042h-.082v.04h-.04v.04h-.082v.041h-.081v.041h-.082v.04h-.04v.041h-.082v.041h-.08v.04h-.042v.041h-.08v.041h-.082v.04h-.082v.041h-.04v.041h-.081v.04h-.082v.041h-.081v.041h-.04v.04h-.082v.041h-.081v.041h-.041v.04h-.081v.041h-.082v.04h-.08v.042h-.042v.04h-.08v.04h-.082v.041h-.04v.041h-.082v.04h-.081v.041h-.082v.041h-.04v.04h-.082v.041h-.081v.041h-.04v.04h-.082v.041h-.081v.041h-.082v.04h-.04v.041h-.082v.041h-.08v.04h-.082v.041h-.04v.041h-.082v.04h-.081v.041h-.041v.04h-.081v.042h-.082v.04h-.081v.04h-.04v.042h-.082v.04h-.081v.04h-.04v.041h-.082v.041h-.081v.04h-.082v.041h-.04v.041h-.082v.04h-.081v.041h-.081v.041h-.041v.04h-.081v.041h-.082v.041h-.04v.04h-.082v.041h-.08v.041h-.082v.04h-.04v.041h-.082v.04h-.081v.042h-.041v.04h-.081v.04h-.082v.042h-.081v.04h-.04v.04h-.082v.041h-.081v.041h-.082v.04h-.122v.041h-.122v.041h-.122v.04h-.325v.041"/><path fill="#AFB4BE" d="M26.583 22.948c0 .785-.637 1.79-1.422 2.243-.785.453-1.422.184-1.422-.601 0-.786.637-1.79 1.422-2.243.785-.453 1.422-.184 1.422.601Z"/><path fill="#959FB3" d="M10.19 22.836c0 .785.636 1.79 1.421 2.242.786.454 1.422.185 1.422-.6 0-.786-.636-1.79-1.422-2.243-.785-.453-1.421-.184-1.421.6Z"/><path fill="#FDFAF5" d="M18 9.59a.7.7 0 0 1 .705-.007l11.935 6.811a.7.7 0 0 1 .004 1.214L18.702 24.53a.7.7 0 0 1-.703 0L6.35 17.764a.7.7 0 0 1-.007-1.206L18 9.59Z"/><path fill="url(#e)" d="M18.37 10.742a.7.7 0 0 1 .695.005l9.6 5.587a.7.7 0 0 1 0 1.21l-9.813 5.75a.7.7 0 0 1-.705.002l-9.834-5.682a.7.7 0 0 1 .007-1.216l10.05-5.656Z"/><path fill="url(#f)" d="M8 0h21v16.933a.7.7 0 0 1-.346.604l-9.802 5.756a.7.7 0 0 1-.705.003l-9.798-5.672A.7.7 0 0 1 8 17.018V0Z" opacity=".72"/><g filter="url(#g)" opacity=".5"><ellipse cx="18.5" cy="17" fill="#000" rx="5" ry="3"/></g><path fill="url(#h)" d="M13.304 8.565v7.292c.022 1.429 2.346 2.584 5.208 2.584 2.863 0 5.186-1.155 5.209-2.584V8.565c-.023 1.429-2.346 2.583-5.209 2.583-2.862 0-5.186-1.154-5.208-2.583Z"/><path fill="#8D6AF1" fill-rule="evenodd" d="M18.512 11.149c2.877 0 5.209-1.166 5.209-2.605 0-1.438-2.332-2.604-5.209-2.604-2.876 0-5.208 1.166-5.208 2.604 0 1.439 2.332 2.605 5.208 2.605Zm.021-1.271c1.438 0 2.604-.583 2.604-1.303 0-.719-1.166-1.302-2.604-1.302-1.438 0-2.604.583-2.604 1.303 0 .719 1.166 1.302 2.604 1.302Z" clip-rule="evenodd"/><g filter="url(#i)" opacity=".1"><path fill="url(#j)" d="M8 0h21v16.933a.7.7 0 0 1-.346.604l-9.802 5.756a.7.7 0 0 1-.705.003l-9.798-5.672A.7.7 0 0 1 8 17.018V0Z"/></g><ellipse cx="18.487" cy="8.577" fill="#fff" rx="2.744" ry="1.311"/><path fill="#fff" d="M16.845 14.7v2.027a.1.1 0 0 1-.15.086l-1.55-.885a.1.1 0 0 1-.05-.087V11.66a.1.1 0 0 1 .152-.086l3.193 1.94a.1.1 0 0 0 .103 0l3.277-1.943a.1.1 0 0 1 .15.087v4.264a.1.1 0 0 1-.053.088l-1.55.812a.1.1 0 0 1-.146-.088v-2.039a.1.1 0 0 0-.15-.087l-1.53.866a.1.1 0 0 1-.1 0l-1.445-.86a.1.1 0 0 0-.15.086Z"/><path fill="#E1E5EE" d="M28.622 60a.394.394 0 0 1-.196-.052l-17.41-10.053a3.236 3.236 0 0 1-1.635-2.83c0-1.183.611-2.242 1.635-2.833l5.835-3.368c.425-.246.68-.685.68-1.176 0-.49-.255-.93-.68-1.175L5.288 31.836a2.825 2.825 0 0 1-1.428-2.472c0-1.032.534-1.956 1.428-2.472l5.996-3.462a.39.39 0 1 1 .391.677L5.68 27.57a2.051 2.051 0 0 0-1.036 1.795c0 .749.387 1.42 1.036 1.795l11.564 6.676c.67.387 1.07 1.08 1.07 1.853 0 .774-.4 1.466-1.07 1.853l-5.836 3.37a2.462 2.462 0 0 0-1.243 2.153c0 .9.465 1.704 1.243 2.153l17.41 10.053a.391.391 0 0 1-.195.73M64.699 34.732a.387.387 0 0 1-.195-.053L47.02 24.585a4.02 4.02 0 0 0-4.008 0l-6.054 3.495a5.127 5.127 0 0 1-5.112 0l-6.88-3.972a.391.391 0 1 1 .39-.678l6.881 3.973c1.335.77 2.994.77 4.33 0l6.054-3.496a4.802 4.802 0 0 1 4.79 0l17.484 10.094a.391.391 0 0 1-.196.73"/></g><defs><linearGradient id="c" x1="20" x2="6" y1="29.5" y2="21.5" gradientUnits="userSpaceOnUse"><stop stop-color="#CACBCD"/><stop offset=".203" stop-color="#BFC6CE"/><stop offset="1" stop-color="#A1A8AF"/></linearGradient><linearGradient id="d" x1="18.355" x2="18.355" y1="11.244" y2="22.794" gradientUnits="userSpaceOnUse"><stop stop-color="#415DB4"/><stop offset="1" stop-color="#61C9F4"/></linearGradient><linearGradient id="e" x1="28.52" x2="11.921" y1="17.001" y2="14.513" gradientUnits="userSpaceOnUse"><stop stop-color="#37187A"/><stop offset="1" stop-color="#190541"/></linearGradient><linearGradient id="f" x1="18.487" x2="18.487" y1="-8" y2="17.306" gradientUnits="userSpaceOnUse"><stop offset=".026" stop-color="#fff" stop-opacity="0"/><stop offset="1" stop-color="#AA88F3" stop-opacity=".49"/></linearGradient><linearGradient id="h" x1="18.512" x2="18.512" y1="9.69" y2="18.441" gradientUnits="userSpaceOnUse"><stop stop-color="#35198E"/><stop offset="1" stop-color="#8D6AF1"/></linearGradient><linearGradient id="j" x1="18.487" x2="18.487" y1="-8" y2="17.306" gradientUnits="userSpaceOnUse"><stop offset=".026" stop-color="#fff" stop-opacity="0"/><stop offset="1" stop-color="#AA88F3" stop-opacity=".49"/></linearGradient><filter id="b" width="19.106" height="11" x=".394" y="19.5" color-interpolation-filters="sRGB" filterUnits="userSpaceOnUse"><feFlood flood-opacity="0" result="BackgroundImageFix"/><feBlend in="SourceGraphic" in2="BackgroundImageFix" result="shape"/><feGaussianBlur result="effect1_foregroundBlur_7931_3238" stdDeviation=".25"/></filter><filter id="g" width="13" height="9" x="12" y="12.5" color-interpolation-filters="sRGB" filterUnits="userSpaceOnUse"><feFlood flood-opacity="0" result="BackgroundImageFix"/><feBlend in="SourceGraphic" in2="BackgroundImageFix" result="shape"/><feGaussianBlur result="effect1_foregroundBlur_7931_3238" stdDeviation=".75"/></filter><filter id="i" width="21" height="23.39" x="8" y="0" color-interpolation-filters="sRGB" filterUnits="userSpaceOnUse"><feFlood flood-opacity="0" result="BackgroundImageFix"/><feBlend in="SourceGraphic" in2="BackgroundImageFix" result="shape"/><feColorMatrix in="SourceAlpha" result="hardAlpha" values="0 0 0 0 0 0 0 0 0 0 0 0 0 0 0 0 0 0 127 0"/><feOffset/><feGaussianBlur stdDeviation="2"/><feComposite in2="hardAlpha" k2="-1" k3="1" operator="arithmetic"/><feColorMatrix values="0 0 0 0 1 0 0 0 0 1 0 0 0 0 1 0 0 0 1 0"/><feBlend in2="shape" result="effect1_innerShadow_7931_3238"/></filter></defs></svg>