
<svg viewBox="0 0 50 51" fill="none" xmlns="http://www.w3.org/2000/svg">
<g clip-path="url(#clip0_1028_23084)">
<path d="M14.3613 38.1641H35.6415V50.4984H14.3613V38.1641Z" fill="#C5CCED"/>
<path d="M49.9997 21.5336V30.7286C49.9997 31.7978 49.129 32.6532 48.0598 32.6532H42.9277V19.5938H48.0598C49.129 19.5938 49.9997 20.4644 49.9997 21.5336Z" fill="#455A64"/>
<path d="M0 21.5336V30.7286C0 31.7978 0.870635 32.6532 1.93984 32.6532H7.07192V19.5938H1.93984C0.870635 19.5938 0 20.4644 0 21.5336Z" fill="#455A64"/>
<path d="M42.5537 39.4711C36.3524 45.6724 13.6551 45.6724 7.43857 39.4711C2.62719 34.6597 2.15369 16.5294 7.43857 12.2526C14.266 6.7387 35.7262 6.7387 42.5537 12.2526C47.8538 16.5294 47.3651 34.6597 42.5537 39.4711Z" fill="#D9DEFB"/>
<path d="M30.9522 8.45739V14.7962H29.4248V8.30469C29.9442 8.35046 30.4482 8.39633 30.9522 8.45739Z" fill="#C5CCED"/>
<path d="M20.5675 8.30469V14.7962H19.04V8.45739C19.5441 8.39633 20.0481 8.35046 20.5675 8.30469Z" fill="#C5CCED"/>
<path d="M25.0023 39.54C17.7762 39.54 12.3251 37.8739 10.6746 36.2272C9.48731 35.0398 7.94647 29.8423 8.27686 23.5604C8.52969 18.7537 9.76325 16.2664 10.3211 15.8152C12.1774 14.3161 17.5636 12.6992 24.9963 12.6992C32.429 12.6992 37.8153 14.3161 39.6753 15.8182C40.2332 16.2686 41.4652 18.7447 41.7203 23.5313C42.0559 29.8244 40.5106 35.0346 39.3143 36.2316C37.6698 37.8754 32.2254 39.54 25.0023 39.54Z" fill="#455A64"/>
<path d="M35.4116 23.214C35.4116 25.2297 33.7991 26.8423 31.7835 26.8423C29.7891 26.8423 28.1553 25.2297 28.1553 23.214C28.1553 21.2196 29.7891 19.5859 31.7835 19.5859C33.7991 19.5859 35.4116 21.2196 35.4116 23.214Z" fill="#D9DEFB"/>
<path d="M34.0421 23.2124C34.0421 24.4676 33.038 25.4718 31.7828 25.4718C30.5408 25.4718 29.5234 24.4676 29.5234 23.2124C29.5234 21.9704 30.5408 20.9531 31.7828 20.9531C33.038 20.9531 34.0421 21.9704 34.0421 23.2124Z" fill="#2196F3"/>
<path d="M21.8472 23.214C21.8472 25.2297 20.2346 26.8423 18.2191 26.8423C16.2246 26.8423 14.5908 25.2297 14.5908 23.214C14.5908 21.2196 16.2246 19.5859 18.2191 19.5859C20.2346 19.5859 21.8472 21.2196 21.8472 23.214Z" fill="#D9DEFB"/>
<path d="M20.4767 23.2124C20.4767 24.4676 19.4725 25.4718 18.2174 25.4718C16.9754 25.4718 15.958 24.4676 15.958 23.2124C15.958 21.9704 16.9754 20.9531 18.2174 20.9531C19.4725 20.9531 20.4767 21.9704 20.4767 23.2124Z" fill="#2196F3"/>
<path d="M32.2173 32.13C32.2173 32.9483 31.5539 33.6116 30.7357 33.6116H19.2648C18.4465 33.6116 17.7832 32.9483 17.7832 32.13C17.7832 31.3118 18.4465 30.6484 19.2648 30.6484H30.7357C31.5539 30.6484 32.2173 31.3118 32.2173 32.13Z" fill="#D9DEFB"/>
<path d="M27.142 5.10938H22.8585C21.5932 5.10938 20.5674 6.13514 20.5674 7.40049V12.4962C20.5674 13.7615 21.5932 14.7873 22.8585 14.7873H27.142C28.4074 14.7873 29.4331 13.7615 29.4331 12.4962V7.40049C29.4331 6.13514 28.4074 5.10938 27.142 5.10938Z" fill="#D9DEFB"/>
<path d="M2.27637 2.3125H3.65033V19.5906H2.27637V2.3125Z" fill="#D9DEFB"/>
<path d="M4.82668 2.362C4.82668 3.39525 3.99779 4.22407 2.96461 4.22407C1.94272 4.22407 1.10254 3.39525 1.10254 2.362C1.10254 1.34018 1.94272 0.5 2.96461 0.5C3.99779 0.5 4.82668 1.34018 4.82668 2.362Z" fill="#455A64"/>
</g>
<defs>
<clipPath id="clip0_1028_23084">
<rect width="50" height="50" fill="white" transform="translate(0 0.5)"/>
</clipPath>
</defs>
</svg>
