<svg viewBox="0 0 89 89" fill="none" xmlns="http://www.w3.org/2000/svg">
<path d="M0 28C0 12.536 12.536 0 28 0H61C76.464 0 89 12.536 89 28V61C89 76.464 76.464 89 61 89H28C12.536 89 0 76.464 0 61V28Z" fill="#FAFAFA"/>
<path d="M51.7053 32.8163H44.9264V30.7886C44.9264 30.5794 44.8433 30.3788 44.6954 30.231C44.5476 30.0831 44.347 30 44.1378 30H42.8987C42.6895 30 42.489 30.0831 42.3411 30.231C42.1932 30.3788 42.1101 30.5794 42.1101 30.7886V32.8163H35.3313C33.9176 32.817 32.562 33.379 31.5623 34.3786C30.5627 35.3783 30.0007 36.7339 30 38.1476V41.3244C30 44.8192 31.3883 48.171 33.8596 50.6422C36.3309 53.1135 39.6826 54.5018 43.1775 54.5018H44.1378C44.347 54.5018 44.5476 54.4188 44.6954 54.2709C44.8433 54.123 44.9264 53.9224 44.9264 53.7133V52.4741C44.9264 52.265 44.8433 52.0644 44.6954 51.9165C44.5476 51.7686 44.347 51.6855 44.1378 51.6855H43.1775C40.4295 51.6855 37.7941 50.5939 35.851 48.6508C33.9079 46.7077 32.8163 44.0723 32.8163 41.3244V38.1476C32.8163 37.4806 33.0813 36.8409 33.5529 36.3692C34.0246 35.8976 34.6643 35.6326 35.3313 35.6326H51.7053C52.3723 35.6326 53.0119 35.8976 53.4836 36.3692C53.9552 36.8409 54.2202 37.4806 54.2202 38.1476V41.5468C54.2184 42.3195 54.1239 43.0892 53.9386 43.8393C53.8895 44.0326 53.9157 44.2373 54.0119 44.412C54.1081 44.5867 54.2672 44.7182 54.4568 44.78L55.6396 45.1658C55.7418 45.1997 55.8499 45.2122 55.9571 45.2027C56.0643 45.1931 56.1684 45.1616 56.263 45.1101C56.3575 45.0586 56.4404 44.9882 56.5067 44.9033C56.5729 44.8184 56.6209 44.7208 56.6479 44.6166C56.904 43.6134 57.0345 42.5822 57.0365 41.5468V38.1476C57.0358 36.7339 56.4738 35.3783 55.4742 34.3786C54.4746 33.379 53.119 32.817 51.7053 32.8163Z" fill="#414651"/>
<path d="M39.0128 44.6448C40.2571 44.6448 41.2659 43.636 41.2659 42.3917C41.2659 41.1474 40.2571 40.1387 39.0128 40.1387C37.7685 40.1387 36.7598 41.1474 36.7598 42.3917C36.7598 43.636 37.7685 44.6448 39.0128 44.6448Z" fill="#414651"/>
<path d="M48.0245 44.6448C49.2688 44.6448 50.2776 43.636 50.2776 42.3917C50.2776 41.1474 49.2688 40.1387 48.0245 40.1387C46.7802 40.1387 45.7715 41.1474 45.7715 42.3917C45.7715 43.636 46.7802 44.6448 48.0245 44.6448Z" fill="#414651"/>
<path d="M56.9617 52.7558L59.5133 53.7612C59.5658 53.782 59.6109 53.8181 59.6426 53.8648C59.6744 53.9115 59.6914 53.9667 59.6914 54.0231C59.6914 54.0796 59.6744 54.1348 59.6426 54.1815C59.6109 54.2282 59.5658 54.2643 59.5133 54.2851L56.9617 55.2905C56.51 55.4691 56.0998 55.7384 55.7563 56.0819C55.4129 56.4253 55.1435 56.8356 54.9649 57.2872L53.9595 59.8219C53.9387 59.8744 53.9027 59.9195 53.856 59.9513C53.8092 59.983 53.7541 60 53.6976 60C53.6411 60 53.5859 59.983 53.5392 59.9513C53.4925 59.9195 53.4564 59.8744 53.4357 59.8219L52.4303 57.2872C52.2521 56.8353 51.9829 56.4248 51.6394 56.0813C51.2959 55.7378 50.8854 55.4686 50.4335 55.2905L47.8988 54.2851C47.8463 54.2643 47.8012 54.2282 47.7695 54.1815C47.7377 54.1348 47.7207 54.0796 47.7207 54.0231C47.7207 53.9667 47.7377 53.9115 47.7695 53.8648C47.8012 53.8181 47.8463 53.782 47.8988 53.7612L50.4335 52.7558C50.8854 52.5777 51.2959 52.3085 51.6394 51.965C51.9829 51.6215 52.2521 51.211 52.4303 50.7591L53.4357 48.2244C53.4564 48.1718 53.4925 48.1268 53.5392 48.095C53.5859 48.0632 53.6411 48.0463 53.6976 48.0463C53.7541 48.0463 53.8092 48.0632 53.856 48.095C53.9027 48.1268 53.9387 48.1718 53.9595 48.2244L54.9649 50.7591C55.1435 51.2107 55.4129 51.621 55.7563 51.9644C56.0998 52.3079 56.51 52.5772 56.9617 52.7558Z" fill="#414651"/>
</svg>
