<svg viewBox="0 0 40 40" fill="none" xmlns="http://www.w3.org/2000/svg">
<path d="M18.125 21.375C18.125 20.3413 17.2838 19.5 16.25 19.5C15.2162 19.5 14.375 20.3413 14.375 21.375C14.375 22.4088 15.2162 23.25 16.25 23.25C17.2838 23.25 18.125 22.4088 18.125 21.375ZM16.25 22C15.9056 22 15.625 21.72 15.625 21.375C15.625 21.03 15.9056 20.75 16.25 20.75C16.5944 20.75 16.875 21.0306 16.875 21.375C16.875 21.7194 16.5944 22 16.25 22Z" fill="#292929"/>
<path d="M23.75 19.5C22.7162 19.5 21.875 20.3413 21.875 21.375C21.875 22.4088 22.7162 23.25 23.75 23.25C24.7838 23.25 25.625 22.4088 25.625 21.375C25.625 20.3413 24.7838 19.5 23.75 19.5ZM23.75 22C23.4056 22 23.125 21.72 23.125 21.375C23.125 21.03 23.4056 20.75 23.75 20.75C24.0944 20.75 24.375 21.0306 24.375 21.375C24.375 21.7194 24.0944 22 23.75 22Z" fill="#292929"/>
<path d="M22.839 26.9405C21.0797 27.8449 18.9197 27.8449 17.1603 26.9405C16.8528 26.7824 16.4765 26.9036 16.3184 27.2111C16.1603 27.5186 16.2815 27.8949 16.589 28.053C17.6322 28.5886 18.8115 28.8724 19.9997 28.8724C21.1878 28.8724 22.3672 28.5892 23.4103 28.053C23.7172 27.8949 23.8384 27.5186 23.6809 27.2111C23.5234 26.9036 23.1465 26.7824 22.839 26.9405Z" fill="#292929"/>
<path d="M33.125 19.5H31.25V17.625C31.25 15.9019 29.8481 14.5 28.125 14.5H20.625V11.9112C21.7 11.6319 22.5 10.6613 22.5 9.5C22.5 8.12125 21.3788 7 20 7C18.6212 7 17.5 8.12125 17.5 9.5C17.5 10.6613 18.3 11.6319 19.375 11.9112V14.5H11.875C10.1519 14.5 8.75 15.9019 8.75 17.625V19.5H6.875C5.84125 19.5 5 20.3412 5 21.375V27C5 28.0338 5.84125 28.875 6.875 28.875H8.75V30.75C8.75 32.4731 10.1519 33.875 11.875 33.875H28.125C29.8481 33.875 31.25 32.4731 31.25 30.75V28.875H33.125C34.1588 28.875 35 28.0338 35 27V21.375C35 20.3412 34.1588 19.5 33.125 19.5ZM18.75 9.5C18.75 8.81062 19.3106 8.25 20 8.25C20.6894 8.25 21.25 8.81062 21.25 9.5C21.25 10.1894 20.6894 10.75 20 10.75C19.3106 10.75 18.75 10.1894 18.75 9.5ZM6.875 27.625C6.53063 27.625 6.25 27.345 6.25 27V21.375C6.25 21.0306 6.53063 20.75 6.875 20.75H8.75V27.625H6.875ZM30 30.75C30 31.7838 29.1588 32.625 28.125 32.625H11.875C10.8412 32.625 10 31.7838 10 30.75V17.625C10 16.5912 10.8412 15.75 11.875 15.75H28.125C29.1588 15.75 30 16.5912 30 17.625V30.75ZM33.75 27C33.75 27.345 33.4694 27.625 33.125 27.625H31.25V20.75H33.125C33.4694 20.75 33.75 21.0306 33.75 21.375V27Z" fill="#292929"/>
</svg>