<svg width="64" height="64" viewBox="0 0 64 64" fill="none" xmlns="http://www.w3.org/2000/svg">
<rect width="64" height="64" rx="17.5" fill="#FEF3F2"/>
<path fill-rule="evenodd" clip-rule="evenodd" d="M28.1182 33.1092C28.427 33.7267 28.1767 34.4775 27.5592 34.7863C26.6594 35.2362 25.9074 35.9035 25.3421 36.7422C25.2362 36.9065 25.2362 37.0966 25.3421 37.261C25.9074 38.0996 26.6594 38.767 27.5592 39.2169C28.1767 39.5256 28.427 40.2765 28.1182 40.8939C27.8095 41.5114 27.0587 41.7617 26.4412 41.4529C25.1434 40.8041 24.0636 39.8404 23.2628 38.6489L23.2555 38.6381L23.2556 38.638C22.5984 37.638 22.5984 36.3651 23.2556 35.3651L23.2627 35.3542L23.2628 35.3543C24.0636 34.1627 25.1434 33.1991 26.4412 32.5502C27.0587 32.2415 27.8095 32.4918 28.1182 33.1092Z" fill="#B42318"/>
<path fill-rule="evenodd" clip-rule="evenodd" d="M36.2323 33.1092C36.5411 32.4918 37.2919 32.2415 37.9094 32.5502C39.2071 33.1991 40.2869 34.1627 41.0878 35.3543L41.0951 35.3651L41.095 35.3651C41.7522 36.3651 41.7522 37.638 41.095 38.638L41.0879 38.6489L41.0878 38.6489C40.2869 39.8404 39.2071 40.8041 37.9094 41.4529C37.2919 41.7617 36.5411 41.5114 36.2323 40.8939C35.9236 40.2765 36.1739 39.5256 36.7914 39.2169C37.6912 38.767 38.4431 38.0996 39.0084 37.261C39.1144 37.0966 39.1144 36.9065 39.0084 36.7422C38.4431 35.9035 37.6912 35.2362 36.7914 34.7863C36.1739 34.4775 35.9236 33.7267 36.2323 33.1092Z" fill="#B42318"/>
<path fill-rule="evenodd" clip-rule="evenodd" d="M17.1579 17.1584C19.3821 14.9343 22.7102 14.084 27.0002 14.084H37.0002C41.2901 14.084 44.6183 14.9343 46.8424 17.1584C49.0665 19.3825 49.9168 22.7107 49.9168 27.0007V37.0007C49.9168 41.2906 49.0665 44.6188 46.8424 46.8429C44.6183 49.067 41.2901 49.9173 37.0002 49.9173H27.0002C22.7102 49.9173 19.3821 49.067 17.1579 46.8429C14.9338 44.6188 14.0835 41.2906 14.0835 37.0007V27.0007C14.0835 22.7107 14.9338 19.3825 17.1579 17.1584ZM18.9257 18.9262C17.3998 20.4521 16.5835 22.9573 16.5835 27.0007V37.0007C16.5835 41.044 17.3998 43.5492 18.9257 45.0751C20.4516 46.601 22.9568 47.4173 27.0002 47.4173H37.0002C41.0435 47.4173 43.5487 46.601 45.0746 45.0751C46.6005 43.5492 47.4168 41.044 47.4168 37.0007V27.0007C47.4168 22.9573 46.6005 20.4521 45.0746 18.9262C43.5487 17.4003 41.0435 16.584 37.0002 16.584H27.0002C22.9568 16.584 20.4516 17.4003 18.9257 18.9262Z" fill="#B42318"/>
<path fill-rule="evenodd" clip-rule="evenodd" d="M49.0001 25.3333C49.0005 26.0237 48.4411 26.5836 47.7508 26.584L15.7174 26.6007C15.0271 26.601 14.4672 26.0417 14.4668 25.3513C14.4664 24.6609 15.0258 24.101 15.7161 24.1007L47.7495 24.084C48.4398 24.0836 48.9998 24.643 49.0001 25.3333Z" fill="#B42318"/>
</svg>
