<svg viewBox="0 0 100 100" fill="none" xmlns="http://www.w3.org/2000/svg">
<circle cx="50" cy="50" r="50" fill="#FEF3F2"/>
<path d="M72.0265 47.6025C69.4695 48.9382 56.2265 54.3575 53.4023 55.846C50.5782 57.3344 49.0135 57.2962 46.7999 56.2276C44.5864 55.159 30.5038 49.5107 27.9468 48.2894C26.6874 47.6788 26.0386 47.1827 26.0386 46.6865V41.8397C26.0386 41.8397 44.3574 37.8324 47.3342 36.802C50.311 35.7334 51.3033 35.6952 53.8221 36.6112C56.341 37.5271 71.4159 40.2368 73.8965 41.1527V45.9232C73.8965 46.4194 73.3241 46.9537 72.0265 47.6025Z" fill="#A41E11"/>
<path d="M72.0265 42.7938C69.4695 44.1295 56.2265 49.5489 53.4023 51.0373C50.5782 52.5257 49.0135 52.4875 46.7999 51.4189C44.5864 50.3503 30.5038 44.6638 27.9468 43.4426C25.4279 42.2213 25.3516 41.3817 27.8323 40.4276C30.313 39.4353 44.3193 33.9397 47.2961 32.9093C50.2729 31.8407 51.2651 31.8025 53.784 32.7184C56.3028 33.6344 69.4695 38.8629 71.9502 39.7788C74.5072 40.6948 74.5835 41.458 72.0265 42.7938Z" fill="#D82C20"/>
<path d="M72.0265 39.7406C69.4695 41.0764 56.2265 46.4957 53.4023 47.9841C50.5782 49.4344 49.0135 49.4344 46.7999 48.3658C44.5864 47.2972 30.5038 41.6107 27.9468 40.3894C26.6874 39.7788 26.0386 39.2827 26.0386 38.7865V33.9397C26.0386 33.9397 44.3574 29.9324 47.3342 28.902C50.311 27.8334 51.3033 27.7952 53.8221 28.7112C56.341 29.6271 71.4159 32.3368 73.8965 33.2527V38.0233C73.8965 38.5194 73.3241 39.0537 72.0265 39.7406Z" fill="#A41E11"/>
<path d="M72.0265 34.8938C69.4695 36.2295 56.2265 41.6489 53.4024 43.1373C50.5782 44.5875 49.0135 44.5875 46.8 43.5189C44.5864 42.4503 30.5038 36.7638 27.9468 35.5426C25.3898 34.3213 25.3516 33.4817 27.8323 32.5276C30.313 31.5353 44.3193 26.0397 47.2961 25.0092C50.2729 23.9406 51.2652 23.9025 53.784 24.8184C56.3029 25.7344 69.4695 30.9629 71.9502 31.8788C74.5072 32.7948 74.5835 33.558 72.0265 34.8938Z" fill="#D82C20"/>
<path d="M72.0265 31.5353C69.4695 32.8711 56.2265 38.2904 53.4024 39.7788C50.5782 41.229 49.0135 41.229 46.7999 40.1605C44.5864 39.13 30.5038 33.4435 27.9468 32.2223C26.6874 31.6117 26.0004 31.1155 26.0004 30.6194V25.7725C26.0004 25.7725 44.3193 21.7653 47.2961 20.7348C50.2729 19.6662 51.2652 19.6281 53.784 20.544C56.3028 21.46 71.3777 24.1696 73.8584 25.0856V29.8561C73.8966 30.3522 73.3241 30.8484 72.0265 31.5353Z" fill="#A41E11"/>
<path d="M72.0265 26.6885C69.4695 28.0242 56.2265 33.4435 53.4024 34.9319C50.5782 36.3822 49.0135 36.3822 46.8 35.3136C44.5864 34.245 30.5038 28.5967 27.9468 27.3754C25.3898 26.1542 25.3516 25.3146 27.8323 24.3605C30.313 23.3682 44.3193 17.8725 47.2961 16.8421C50.2729 15.7735 51.2652 15.7353 53.784 16.6513C56.3029 17.5672 69.4695 22.7957 71.9502 23.7117C74.5072 24.6276 74.5835 25.3909 72.0265 26.6885Z" fill="#D82C20"/>
<path d="M56.2266 22.0324L52.1049 22.4904L51.1508 24.7039L49.6624 22.2232L44.8918 21.8034L48.4411 20.5059L47.3725 18.5213L50.731 19.8189L53.8604 18.7885L53.0208 20.8493L56.2266 22.0324ZM50.9218 32.8711L43.1744 29.6653L54.2802 27.9861L50.9218 32.8711Z" fill="white"/>
<path d="M40.1975 27.8716C43.4645 27.8716 46.113 26.8464 46.113 25.5817C46.113 24.3171 43.4645 23.2919 40.1975 23.2919C36.9305 23.2919 34.282 24.3171 34.282 25.5817C34.282 26.8464 36.9305 27.8716 40.1975 27.8716Z" fill="white"/>
<path d="M61.1497 22.6431L67.714 25.2382L61.1497 27.8334V22.6431Z" fill="#7A0C00"/>
<path d="M53.8985 25.5435L61.1497 22.6431V27.8334L60.4246 28.1387L53.8985 25.5435Z" fill="#AD2115"/>
<path d="M39.6151 63.3281H37.7486C37.7145 63.0866 37.6449 62.8722 37.5398 62.6847C37.4347 62.4943 37.2997 62.3324 37.1349 62.1989C36.9702 62.0653 36.7798 61.9631 36.5639 61.892C36.3509 61.821 36.1193 61.7855 35.8693 61.7855C35.4176 61.7855 35.0241 61.8977 34.6889 62.1222C34.3537 62.3437 34.0938 62.6676 33.9091 63.0938C33.7244 63.517 33.6321 64.0312 33.6321 64.6364C33.6321 65.2585 33.7244 65.7812 33.9091 66.2045C34.0966 66.6278 34.358 66.9474 34.6932 67.1634C35.0284 67.3793 35.4162 67.4872 35.8565 67.4872C36.1037 67.4872 36.3324 67.4545 36.5426 67.3892C36.7557 67.3239 36.9446 67.2287 37.1094 67.1037C37.2741 66.9759 37.4105 66.821 37.5185 66.6392C37.6293 66.4574 37.706 66.25 37.7486 66.017L39.6151 66.0256C39.5668 66.4261 39.446 66.8125 39.2528 67.1847C39.0625 67.554 38.8054 67.8849 38.4815 68.1776C38.1605 68.4673 37.777 68.6974 37.331 68.8679C36.8878 69.0355 36.3864 69.1193 35.8267 69.1193C35.0483 69.1193 34.3523 68.9432 33.7386 68.5909C33.1278 68.2386 32.6449 67.7287 32.2898 67.0611C31.9375 66.3935 31.7614 65.5852 31.7614 64.6364C31.7614 63.6847 31.9403 62.875 32.2983 62.2074C32.6563 61.5398 33.142 61.0312 33.7557 60.6818C34.3693 60.3295 35.0597 60.1534 35.8267 60.1534C36.3324 60.1534 36.8011 60.2244 37.233 60.3665C37.6676 60.5085 38.0526 60.7159 38.3878 60.9886C38.723 61.2585 38.9957 61.5895 39.206 61.9815C39.419 62.3736 39.5554 62.8224 39.6151 63.3281ZM42.7706 69.1236C42.353 69.1236 41.9808 69.0511 41.6541 68.9062C41.3274 68.7585 41.0689 68.5412 40.8786 68.2543C40.6911 67.9645 40.5973 67.6037 40.5973 67.1719C40.5973 66.8082 40.6641 66.5028 40.7976 66.2557C40.9311 66.0085 41.1129 65.8097 41.343 65.6591C41.5732 65.5085 41.8345 65.3949 42.1271 65.3182C42.4226 65.2415 42.7322 65.1875 43.0561 65.1562C43.4368 65.1165 43.7436 65.0795 43.9766 65.0455C44.2095 65.0085 44.3786 64.9545 44.4837 64.8835C44.5888 64.8125 44.6413 64.7074 44.6413 64.5682V64.5426C44.6413 64.2727 44.5561 64.0639 44.3857 63.9162C44.218 63.7685 43.9794 63.6946 43.6697 63.6946C43.343 63.6946 43.0831 63.767 42.8899 63.9119C42.6967 64.054 42.5689 64.233 42.5064 64.4489L40.8274 64.3125C40.9126 63.9148 41.0803 63.571 41.3303 63.2812C41.5803 62.9886 41.9027 62.7642 42.2976 62.608C42.6953 62.4489 43.1555 62.3693 43.6783 62.3693C44.0419 62.3693 44.3899 62.4119 44.7223 62.4972C45.0575 62.5824 45.3544 62.7145 45.6129 62.8935C45.8743 63.0724 46.0803 63.3026 46.2308 63.5838C46.3814 63.8622 46.4567 64.196 46.4567 64.5852V69H44.7351V68.0923H44.6839C44.5788 68.2969 44.4382 68.4773 44.2621 68.6335C44.0859 68.7869 43.8743 68.9077 43.6271 68.9957C43.38 69.081 43.0945 69.1236 42.7706 69.1236ZM43.2905 67.8707C43.5575 67.8707 43.7933 67.8182 43.9979 67.7131C44.2024 67.6051 44.3629 67.4602 44.4794 67.2784C44.5959 67.0966 44.6541 66.8906 44.6541 66.6605V65.9659C44.5973 66.0028 44.5192 66.0369 44.4197 66.0682C44.3232 66.0966 44.2138 66.1236 44.0916 66.1491C43.9695 66.1719 43.8473 66.1932 43.7251 66.2131C43.603 66.2301 43.4922 66.2457 43.3928 66.2599C43.1797 66.2912 42.9936 66.3409 42.8345 66.4091C42.6754 66.4773 42.5518 66.5696 42.4638 66.6861C42.3757 66.7997 42.3317 66.9418 42.3317 67.1122C42.3317 67.3594 42.4212 67.5483 42.6001 67.679C42.782 67.8068 43.0121 67.8707 43.2905 67.8707ZM50.8224 69.1278C50.152 69.1278 49.5753 68.9858 49.0923 68.7017C48.6122 68.4148 48.2429 68.017 47.9844 67.5085C47.7287 67 47.6009 66.4148 47.6009 65.7528C47.6009 65.0824 47.7301 64.4943 47.9886 63.9886C48.25 63.4801 48.6207 63.0838 49.1009 62.7997C49.581 62.5128 50.152 62.3693 50.8139 62.3693C51.3849 62.3693 51.8849 62.473 52.3139 62.6804C52.7429 62.8878 53.0824 63.179 53.3324 63.554C53.5824 63.929 53.7202 64.3693 53.7457 64.875H52.0327C51.9844 64.5483 51.8565 64.2855 51.6491 64.0866C51.4446 63.8849 51.1761 63.7841 50.8438 63.7841C50.5625 63.7841 50.3168 63.8608 50.1065 64.0142C49.8991 64.1648 49.7372 64.3849 49.6207 64.6747C49.5043 64.9645 49.446 65.3153 49.446 65.7273C49.446 66.1449 49.5028 66.5 49.6165 66.7926C49.733 67.0852 49.8963 67.3082 50.1065 67.4616C50.3168 67.6151 50.5625 67.6918 50.8438 67.6918C51.0511 67.6918 51.2372 67.6491 51.402 67.5639C51.5696 67.4787 51.7074 67.3551 51.8153 67.1932C51.9261 67.0284 51.9986 66.831 52.0327 66.6009H53.7457C53.7173 67.1009 53.581 67.5412 53.3366 67.9219C53.0952 68.2997 52.7614 68.5952 52.3352 68.8082C51.9091 69.0213 51.4048 69.1278 50.8224 69.1278ZM56.7234 65.2159V69H54.908V60.2727H56.6722V63.6094H56.7489C56.8967 63.223 57.1353 62.9205 57.4648 62.7017C57.7944 62.4801 58.2077 62.3693 58.7049 62.3693C59.1594 62.3693 59.5558 62.4688 59.8938 62.6676C60.2347 62.8636 60.4989 63.1463 60.6864 63.5156C60.8768 63.8821 60.9705 64.321 60.9677 64.8324V69H59.1523V65.1562C59.1552 64.7528 59.0529 64.4389 58.8455 64.2145C58.641 63.9901 58.354 63.8778 57.9847 63.8778C57.7376 63.8778 57.5188 63.9304 57.3285 64.0355C57.141 64.1406 56.9933 64.294 56.8853 64.4957C56.7802 64.6946 56.7262 64.9347 56.7234 65.2159ZM65.3793 69.1278C64.706 69.1278 64.1264 68.9915 63.6406 68.7188C63.1577 68.4432 62.7855 68.054 62.5241 67.5511C62.2628 67.0455 62.1321 66.4474 62.1321 65.7571C62.1321 65.0838 62.2628 64.4929 62.5241 63.9844C62.7855 63.4759 63.1534 63.0795 63.6278 62.7955C64.1051 62.5114 64.6648 62.3693 65.3068 62.3693C65.7386 62.3693 66.1406 62.4389 66.5128 62.5781C66.8878 62.7145 67.2145 62.9205 67.4929 63.196C67.7741 63.4716 67.9929 63.8182 68.1491 64.2358C68.3054 64.6506 68.3835 65.1364 68.3835 65.6932V66.1918H62.8565V65.0668H66.6747C66.6747 64.8054 66.6179 64.5739 66.5043 64.3722C66.3906 64.1705 66.233 64.0128 66.0312 63.8991C65.8324 63.7827 65.6009 63.7244 65.3366 63.7244C65.0611 63.7244 64.8168 63.7884 64.6037 63.9162C64.3935 64.0412 64.2287 64.2102 64.1094 64.4233C63.9901 64.6335 63.929 64.8679 63.9261 65.1264V66.196C63.9261 66.5199 63.9858 66.7997 64.1051 67.0355C64.2273 67.2713 64.3991 67.4531 64.6207 67.581C64.8423 67.7088 65.1051 67.7727 65.4091 67.7727C65.6108 67.7727 65.7955 67.7443 65.9631 67.6875C66.1307 67.6307 66.2741 67.5455 66.3935 67.4318C66.5128 67.3182 66.6037 67.179 66.6662 67.0142L68.3452 67.125C68.2599 67.5284 68.0852 67.8807 67.821 68.1818C67.5597 68.4801 67.2216 68.7131 66.8068 68.8807C66.3949 69.0455 65.919 69.1278 65.3793 69.1278ZM27.9203 82L25.4231 73.2727H27.4387L28.8833 79.3366H28.9558L30.5495 73.2727H32.2754L33.8649 79.3494H33.9416L35.3862 73.2727H37.4018L34.9047 82H33.1064L31.4444 76.294H31.3762L29.7186 82H27.9203ZM39.5186 82.1236C39.101 82.1236 38.7289 82.0511 38.4022 81.9062C38.0755 81.7585 37.8169 81.5412 37.6266 81.2543C37.4391 80.9645 37.3453 80.6037 37.3453 80.1719C37.3453 79.8082 37.4121 79.5028 37.5456 79.2557C37.6792 79.0085 37.861 78.8097 38.0911 78.6591C38.3212 78.5085 38.5826 78.3949 38.8752 78.3182C39.1706 78.2415 39.4803 78.1875 39.8042 78.1562C40.1848 78.1165 40.4917 78.0795 40.7246 78.0455C40.9576 78.0085 41.1266 77.9545 41.2317 77.8835C41.3368 77.8125 41.3894 77.7074 41.3894 77.5682V77.5426C41.3894 77.2727 41.3042 77.0639 41.1337 76.9162C40.9661 76.7685 40.7275 76.6946 40.4178 76.6946C40.0911 76.6946 39.8311 76.767 39.638 76.9119C39.4448 77.054 39.3169 77.233 39.2544 77.4489L37.5755 77.3125C37.6607 76.9148 37.8283 76.571 38.0783 76.2812C38.3283 75.9886 38.6507 75.7642 39.0456 75.608C39.4434 75.4489 39.9036 75.3693 40.4263 75.3693C40.79 75.3693 41.138 75.4119 41.4703 75.4972C41.8056 75.5824 42.1025 75.7145 42.361 75.8935C42.6223 76.0724 42.8283 76.3026 42.9789 76.5838C43.1294 76.8622 43.2047 77.196 43.2047 77.5852V82H41.4831V81.0923H41.432C41.3269 81.2969 41.1863 81.4773 41.0101 81.6335C40.834 81.7869 40.6223 81.9077 40.3752 81.9957C40.128 82.081 39.8425 82.1236 39.5186 82.1236ZM40.0385 80.8707C40.3056 80.8707 40.5414 80.8182 40.7459 80.7131C40.9505 80.6051 41.111 80.4602 41.2275 80.2784C41.3439 80.0966 41.4022 79.8906 41.4022 79.6605V78.9659C41.3453 79.0028 41.2672 79.0369 41.1678 79.0682C41.0712 79.0966 40.9618 79.1236 40.8397 79.1491C40.7175 79.1719 40.5953 79.1932 40.4732 79.2131C40.351 79.2301 40.2402 79.2457 40.1408 79.2599C39.9277 79.2912 39.7417 79.3409 39.5826 79.4091C39.4235 79.4773 39.2999 79.5696 39.2118 79.6861C39.1238 79.7997 39.0797 79.9418 39.0797 80.1122C39.0797 80.3594 39.1692 80.5483 39.3482 80.679C39.53 80.8068 39.7601 80.8707 40.0385 80.8707ZM44.6131 82V75.4545H46.373V76.5966H46.4412C46.5605 76.1903 46.7608 75.8835 47.0421 75.6761C47.3233 75.4659 47.6472 75.3608 48.0137 75.3608C48.1046 75.3608 48.2026 75.3665 48.3077 75.3778C48.4128 75.3892 48.5051 75.4048 48.5847 75.4247V77.0355C48.4995 77.0099 48.3816 76.9872 48.231 76.9673C48.0804 76.9474 47.9426 76.9375 47.8176 76.9375C47.5506 76.9375 47.312 76.9957 47.1017 77.1122C46.8944 77.2259 46.7296 77.3849 46.6074 77.5895C46.4881 77.794 46.4284 78.0298 46.4284 78.2969V82H44.6131ZM49.5233 82V75.4545H51.2534V76.6094H51.3301C51.4664 76.2259 51.6937 75.9233 52.0119 75.7017C52.3301 75.4801 52.7108 75.3693 53.1539 75.3693C53.6028 75.3693 53.9849 75.4815 54.3002 75.706C54.6156 75.9276 54.8258 76.2287 54.9309 76.6094H54.9991C55.1326 76.2344 55.3741 75.9347 55.7235 75.7102C56.0758 75.483 56.492 75.3693 56.9721 75.3693C57.5829 75.3693 58.0787 75.5639 58.4593 75.9531C58.8429 76.3395 59.0346 76.8878 59.0346 77.598V82H57.2235V77.956C57.2235 77.5923 57.127 77.3196 56.9338 77.1378C56.7406 76.956 56.4991 76.8651 56.2093 76.8651C55.8798 76.8651 55.6227 76.9702 55.438 77.1804C55.2534 77.3878 55.161 77.6619 55.161 78.0028V82H53.4011V77.9176C53.4011 77.5966 53.3088 77.3409 53.1241 77.1506C52.9423 76.9602 52.7022 76.8651 52.4039 76.8651C52.2022 76.8651 52.0204 76.9162 51.8585 77.0185C51.6994 77.1179 51.573 77.2585 51.4792 77.4403C51.3855 77.6193 51.3386 77.8295 51.3386 78.071V82H49.5233ZM64.666 79.2131V75.4545H66.4814V82H64.7385V80.8111H64.6703C64.5225 81.1946 64.2768 81.5028 63.9331 81.7358C63.5922 81.9687 63.176 82.0852 62.6845 82.0852C62.247 82.0852 61.862 81.9858 61.5297 81.7869C61.1973 81.5881 60.9373 81.3054 60.7498 80.9389C60.5652 80.5724 60.4714 80.1335 60.4686 79.6222V75.4545H62.2839V79.2983C62.2868 79.6847 62.3904 79.9901 62.595 80.2145C62.7995 80.4389 63.0737 80.5511 63.4174 80.5511C63.6362 80.5511 63.8407 80.5014 64.0311 80.402C64.2214 80.2997 64.3748 80.1491 64.4913 79.9503C64.6106 79.7514 64.6689 79.5057 64.666 79.2131ZM67.9334 84.4545V75.4545H69.7232V76.554H69.8042C69.8837 76.3778 69.9988 76.1989 70.1493 76.017C70.3027 75.8324 70.5016 75.679 70.7459 75.5568C70.9931 75.4318 71.2999 75.3693 71.6664 75.3693C72.1436 75.3693 72.584 75.4943 72.9874 75.7443C73.3908 75.9915 73.7132 76.3651 73.9547 76.8651C74.1962 77.3622 74.3169 77.9858 74.3169 78.7358C74.3169 79.4659 74.199 80.0824 73.9632 80.5852C73.7303 81.0852 73.4121 81.4645 73.0087 81.723C72.6081 81.9787 72.1593 82.1065 71.6621 82.1065C71.3098 82.1065 71.0101 82.0483 70.763 81.9318C70.5186 81.8153 70.3184 81.669 70.1621 81.4929C70.0059 81.3139 69.8865 81.1335 69.8042 80.9517H69.7488V84.4545H67.9334ZM69.7104 78.7273C69.7104 79.1165 69.7644 79.456 69.8723 79.7457C69.9803 80.0355 70.1365 80.2614 70.3411 80.4233C70.5456 80.5824 70.7942 80.6619 71.0868 80.6619C71.3823 80.6619 71.6323 80.581 71.8368 80.419C72.0414 80.2543 72.1962 80.027 72.3013 79.7372C72.4093 79.4446 72.4632 79.108 72.4632 78.7273C72.4632 78.3494 72.4107 78.017 72.3056 77.7301C72.2005 77.4432 72.0456 77.2187 71.8411 77.0568C71.6365 76.8949 71.3851 76.8139 71.0868 76.8139C70.7914 76.8139 70.5414 76.892 70.3368 77.0483C70.1351 77.2045 69.9803 77.4261 69.8723 77.7131C69.7644 78 69.7104 78.3381 69.7104 78.7273Z" fill="#B42318"/>
</svg>
