<svg xmlns="http://www.w3.org/2000/svg" width="16" height="16" fill="none"><g fill="#7147E8" clip-path="url(#a)"><path d="M13.938 1.25H12.5V.5a.5.5 0 1 0-1 0v.75h-7V.5a.5.5 0 1 0-1 0v.75H2.062A2.065 2.065 0 0 0 0 3.313v10.624C0 15.075.925 16 2.063 16h11.874A2.065 2.065 0 0 0 16 13.937V3.313a2.065 2.065 0 0 0-2.063-2.063Zm-11.876 1H3.5v.5a.5.5 0 0 0 1 0v-.5h7v.5a.5.5 0 1 0 1 0v-.5h1.438c.585 0 1.062.477 1.062 1.063V4.5H1V3.312c0-.585.477-1.062 1.063-1.062ZM13.938 15H2.062A1.064 1.064 0 0 1 1 13.937V5.5h14v8.438c0 .585-.477 1.062-1.063 1.062Z"/><path d="M6.375 9C6.72 9 7 8.776 7 8.5S6.72 8 6.375 8H3.696c-.345 0-.625.224-.625.5s.28.5.625.5h2.68ZM12.353 9c.345 0 .625-.224.625-.5s-.28-.5-.625-.5H9.625C9.28 8 9 8.224 9 8.5s.28.5.625.5h2.728ZM6.375 12c.345 0 .625-.224.625-.5s-.28-.5-.625-.5H3.696c-.345 0-.625.224-.625.5s.28.5.625.5h2.68ZM12.353 12c.345 0 .625-.224.625-.5s-.28-.5-.625-.5H9.625c-.345 0-.625.224-.625.5s.28.5.625.5h2.728Z"/></g><defs><clipPath id="a"><path fill="#fff" d="M0 0h16v16H0z"/></clipPath></defs></svg>