<svg viewBox="0 0 40 40" fill="none" xmlns="http://www.w3.org/2000/svg">
<g clip-path="url(#clip0_7120_65403)">
<path d="M20.3101 6H18.7501C18.2801 6 17.9801 6.49 18.1801 6.91L19.9501 10.54C20.1001 10.84 20.5301 10.84 20.6801 10.54L22.4501 6.91C22.6501 6.49 22.3501 6 21.8801 6H20.3201H20.3101Z" fill="#F75E5E"/>
<path d="M11.6901 8.54996L10.4701 9.52996C10.1101 9.81996 10.1801 10.39 10.6001 10.59L14.2601 12.3C14.5701 12.44 14.9001 12.17 14.8301 11.84L13.9201 7.90996C13.8201 7.45996 13.2701 7.26996 12.9101 7.55996L11.6901 8.53996V8.54996Z" fill="#F75E5E"/>
<path d="M28.93 8.54996L30.15 9.52996C30.51 9.81996 30.44 10.39 30.02 10.59L26.36 12.3C26.05 12.44 25.72 12.17 25.79 11.84L26.7 7.90996C26.8 7.45996 27.35 7.26996 27.71 7.55996L28.93 8.53996V8.54996Z" fill="#F75E5E"/>
<path d="M30.5201 30.5901H10.0901L10.8501 18.3401C11.0101 15.7901 13.1201 13.8101 15.6701 13.8101H24.9501C27.5001 13.8101 29.6101 15.7901 29.7701 18.3401L30.5301 30.5901H30.5201Z" fill="#EA322D"/>
<path d="M31.37 28.77H9.24C8.55517 28.77 8 29.3252 8 30.01V31.93C8 32.6149 8.55517 33.17 9.24 33.17H31.37C32.0548 33.17 32.61 32.6149 32.61 31.93V30.01C32.61 29.3252 32.0548 28.77 31.37 28.77Z" fill="#2F3846"/>
<path d="M26.2901 21.51C26.2901 18.21 23.6101 15.53 20.3101 15.53C17.0101 15.53 14.3301 18.21 14.3301 21.51C14.3301 24.81 17.0101 27.49 20.3101 27.49C23.6101 27.49 26.2901 24.81 26.2901 21.51Z" fill="#F75E5E"/>
</g>
<defs>
<clipPath id="clip0_7120_65403">
<rect width="24.61" height="27.17" fill="white" transform="translate(8 6)"/>
</clipPath>
</defs>
</svg>
