<svg viewBox="0 0 40 40" fill="none" xmlns="http://www.w3.org/2000/svg">
<g clip-path="url(#clip0_7120_65405)">
<path d="M29.22 15.11C29.22 10.07 25.13 6 20.09 6C15.24 6 11.2 9.9 11 14.75C10.87 17.96 12.42 20.83 14.83 22.54C15.56 23.06 15.98 23.91 15.98 24.8V25.54C15.98 26.18 16.5 26.7 17.14 26.7H23.08C23.72 26.7 24.24 26.18 24.24 25.54V24.8C24.24 23.88 24.7 23.03 25.45 22.49C27.74 20.84 29.23 18.15 29.23 15.11H29.22Z" fill="#FFD983"/>
<path d="M17.22 26.7H23V28.1C23 28.48 22.69 28.79 22.31 28.79H17.91C17.53 28.79 17.22 28.48 17.22 28.1V26.7Z" fill="#DCE2E2"/>
<path d="M22.2699 28.78H17.9399V29.31H22.2699V28.78Z" fill="#C8CECE"/>
<path d="M22.56 30.1799H17.65C17.41 30.1799 17.22 29.9899 17.22 29.7499C17.22 29.5099 17.41 29.3199 17.65 29.3199H22.56C22.8 29.3199 22.99 29.5099 22.99 29.7499C22.99 29.9899 22.8 30.1799 22.56 30.1799Z" fill="#DCE2E2"/>
<path d="M22.2699 30.1801H17.9399V30.7101H22.2699V30.1801Z" fill="#C8CECE"/>
<path d="M20.11 33.1699H20.23C20.69 33.1699 21.14 33.0199 21.5 32.7299L23 31.5699H17.22L18.72 32.7299C19.08 33.0099 19.53 33.1699 19.99 33.1699H20.11Z" fill="#6E7777"/>
<path d="M23 31.57V30.9699C23 30.8199 22.88 30.7 22.73 30.7H17.49C17.34 30.7 17.22 30.8199 17.22 30.9699V31.57H23Z" fill="#DCE2E2"/>
<path d="M21.0301 21.5C21.0301 21.5 20.9601 21.5 20.9301 21.47C20.8301 21.41 20.8001 21.29 20.8601 21.19L23.8101 16.1C23.6501 16.26 23.4601 16.38 23.1801 16.38C22.6801 16.38 22.4401 15.99 22.2401 15.67C22.0401 15.35 21.9001 15.15 21.6501 15.15C21.4001 15.15 21.2601 15.35 21.0601 15.67C20.8601 15.99 20.6201 16.38 20.1201 16.38C19.6201 16.38 19.3801 15.99 19.1801 15.67C18.9801 15.35 18.8401 15.15 18.5901 15.15C18.3401 15.15 18.2001 15.35 18.0001 15.67C17.8001 15.99 17.5601 16.38 17.0601 16.38C16.7901 16.38 16.5901 16.26 16.4301 16.1L19.3801 21.19C19.4401 21.29 19.4001 21.41 19.3101 21.47C19.2101 21.53 19.0901 21.49 19.0301 21.4L15.3601 15.05C15.3201 14.99 15.3201 14.91 15.3601 14.84C15.4001 14.78 15.4601 14.74 15.5401 14.74C16.0401 14.74 16.2801 15.13 16.4801 15.45C16.6801 15.77 16.8201 15.97 17.0701 15.97C17.3201 15.97 17.4601 15.77 17.6601 15.45C17.8601 15.13 18.1001 14.74 18.6001 14.74C19.1001 14.74 19.3401 15.13 19.5401 15.45C19.7401 15.77 19.8801 15.97 20.1301 15.97C20.3801 15.97 20.5201 15.77 20.7201 15.45C20.9201 15.13 21.1601 14.74 21.6601 14.74C22.1601 14.74 22.4001 15.13 22.6001 15.45C22.8001 15.77 22.9401 15.97 23.1901 15.97C23.4401 15.97 23.5801 15.77 23.7801 15.45C23.9801 15.13 24.2201 14.74 24.7201 14.74C24.7901 14.74 24.8601 14.78 24.9001 14.84C24.9401 14.9 24.9401 14.98 24.9001 15.05L21.2301 21.4C21.1901 21.47 21.1201 21.5 21.0501 21.5H21.0301Z" fill="#FFA100"/>
<path d="M20.79 20.52V18.67C20.79 18.31 20.5 18.01 20.13 18.01H20.09C19.73 18.01 19.43 18.3 19.43 18.67V20.52C19.05 20.52 18.75 20.82 18.75 21.2V26.7H21.47V21.2C21.47 20.82 21.17 20.52 20.79 20.52Z" fill="#FFEDCA"/>
<path d="M21.8999 9.72003C21.8999 10.72 22.7099 11.53 23.7099 11.53C24.7099 11.53 25.5199 10.72 25.5199 9.72003C25.5199 8.72003 24.7099 7.91003 23.7099 7.91003C22.7099 7.91003 21.8999 8.72003 21.8999 9.72003Z" fill="#FFEDCA"/>
</g>
<defs>
<clipPath id="clip0_7120_65405">
<rect width="18.22" height="27.17" fill="white" transform="translate(11 6)"/>
</clipPath>
</defs>
</svg>
