<svg viewBox="0 0 40 40" fill="none" xmlns="http://www.w3.org/2000/svg">
<path d="M7.82007 34.0625C6.27319 34.0625 5.57007 32.9375 6.27319 31.5781L18.7888 6.96875C19.4919 5.60938 20.6169 5.60938 21.3201 6.96875L33.8357 31.5781C34.5388 32.9375 33.8357 34.0625 32.2888 34.0625H7.82007Z" fill="#FFCE31"/>
<path d="M18.009 16.0625L19.3215 24.7344C19.4622 25.5781 20.5403 25.5781 20.6809 24.7344L21.9465 16.0625C22.1809 12.6875 17.7747 12.6875 18.009 16.0625Z" fill="#231F20"/>
<path d="M19.9778 30.2187C21.0651 30.2187 21.9465 29.3373 21.9465 28.25C21.9465 27.1627 21.0651 26.2812 19.9778 26.2812C18.8905 26.2812 18.009 27.1627 18.009 28.25C18.009 29.3373 18.8905 30.2187 19.9778 30.2187Z" fill="#231F20"/>
</svg>
