<svg viewBox="0 0 20 20" fill="none" xmlns="http://www.w3.org/2000/svg">
<g clip-path="url(#clip0_7784_244249)">
<path d="M10 0C4.48357 0 0 4.48357 0 10C0 15.5164 4.48357 20 10 20C15.5164 20 20 15.5164 20 10C20 4.48357 15.5164 0 10 0ZM10 18.9906C5.04695 18.9906 1.00939 14.9531 1.00939 10C1.00939 5.04695 5.04695 1.00939 10 1.00939C14.9531 1.00939 18.9906 5.04695 18.9906 10C18.9906 14.9531 14.9531 18.9906 10 18.9906Z" fill="#757575"/>
<path d="M10.7042 9.95317L13.6385 7.0189C13.8263 6.83111 13.8263 6.50247 13.6385 6.31467C13.4507 6.12688 13.1221 6.12688 12.9343 6.31467L10 9.24895L7.06573 6.31467C6.87793 6.12688 6.5493 6.12688 6.3615 6.31467C6.17371 6.50247 6.17371 6.83111 6.3615 7.0189L9.29577 9.95317L6.3615 12.864C6.17371 13.0518 6.17371 13.3804 6.3615 13.5682C6.4554 13.6621 6.59624 13.709 6.71362 13.709C6.83099 13.709 6.97183 13.6621 7.06573 13.5682L10 10.6339L12.9343 13.5682C13.0282 13.6621 13.169 13.709 13.2864 13.709C13.4038 13.709 13.5446 13.6621 13.6385 13.5682C13.8263 13.3804 13.8263 13.0518 13.6385 12.864L10.7042 9.95317Z" fill="#757575"/>
</g>
<defs>
<clipPath id="clip0_7784_244249">
<rect width="20" height="20" fill="white"/>
</clipPath>
</defs>
</svg>
