<svg width="89" height="89" viewBox="0 0 89 89" fill="none" xmlns="http://www.w3.org/2000/svg">
<path d="M0 28C0 12.536 12.536 0 28 0H61C76.464 0 89 12.536 89 28V61C89 76.464 76.464 89 61 89H28C12.536 89 0 76.464 0 61V28Z" fill="#FEF3F2"/>
<path d="M31.0463 30.0002C30.7634 30.0052 30.4939 30.1219 30.2968 30.3249C30.0997 30.5279 29.9909 30.8006 29.9942 31.0836V58.9247C29.9931 59.2086 30.1049 59.4814 30.3049 59.6831C30.505 59.8846 30.7769 59.9987 31.0609 59.9997H58.9123C59.0551 60.003 59.1969 59.9776 59.3295 59.9252C59.4622 59.8728 59.5831 59.7945 59.6851 59.6947C59.7872 59.5948 59.8681 59.4758 59.9234 59.3442C59.9788 59.2127 60.0074 59.0716 60.0074 58.9288C60.0074 58.7861 59.9788 58.6449 59.9234 58.5135C59.8681 58.3819 59.7872 58.2628 59.6851 58.1631C59.5831 58.0632 59.4622 57.9849 59.3295 57.9325C59.1969 57.8802 59.0551 57.8549 58.9123 57.8579H32.1381V31.0836C32.1398 30.9401 32.1126 30.7979 32.0583 30.6651C32.0039 30.5323 31.9234 30.4118 31.8215 30.3107C31.7197 30.2097 31.5986 30.1301 31.4654 30.0768C31.3323 30.0234 31.1897 29.9974 31.0463 30.0002ZM58.8873 36.9631C58.6097 36.9719 58.3466 37.0882 58.1531 37.2873L47.1641 48.2765L42.5646 43.2169C42.3735 43.0077 42.1073 42.8827 41.8243 42.8693C41.5412 42.856 41.2644 42.9553 41.0545 43.1456L34.6271 49.0355C34.5232 49.1305 34.4391 49.2453 34.3795 49.3727C34.32 49.5002 34.2861 49.6381 34.2799 49.7788C34.2736 49.9195 34.2952 50.06 34.3432 50.1923C34.3913 50.3245 34.465 50.4462 34.56 50.55C34.6551 50.6539 34.7696 50.738 34.8972 50.7974C35.0247 50.8571 35.1628 50.8908 35.3034 50.897C35.444 50.9033 35.5845 50.8816 35.7168 50.8336C35.8491 50.7855 35.9706 50.7118 36.0744 50.6169L41.7112 45.4547L46.3358 50.5456C46.433 50.6528 46.5508 50.7392 46.6824 50.7997C46.8139 50.86 46.9562 50.8929 47.101 50.8967C47.2456 50.9004 47.3896 50.8749 47.5241 50.8216C47.6586 50.7682 47.7807 50.6881 47.8835 50.5862L59.6633 38.8002C59.8163 38.6496 59.9207 38.4565 59.9627 38.2459C60.0046 38.0353 59.9824 37.8171 59.8987 37.6193C59.815 37.4216 59.6739 37.2535 59.4935 37.137C59.3131 37.0205 59.102 36.9581 58.8873 36.9631Z" fill="#B42318"/>
</svg>
