<svg viewBox="0 0 20 20" fill="none" xmlns="http://www.w3.org/2000/svg">
<g clip-path="url(#clip0_3049_2968)">
<path d="M5.07896 9.35668C5.02717 9.02287 5.00029 8.6809 5.00029 8.33268C5.00029 4.65078 8.0047 1.66602 11.7108 1.66602C15.4169 1.66602 18.4213 4.65078 18.4213 8.33268C18.4213 9.16441 18.268 9.96056 17.988 10.6948C17.9298 10.8473 17.9007 10.9235 17.8875 10.983C17.8744 11.042 17.8694 11.0835 17.8679 11.1439C17.8665 11.2048 17.8748 11.272 17.8913 11.4063L18.2268 14.1315C18.2631 14.4265 18.2813 14.574 18.2322 14.6812C18.1892 14.7752 18.1128 14.8498 18.0179 14.8906C17.9096 14.9372 17.7625 14.9156 17.4684 14.8725L14.814 14.4834C14.6755 14.4631 14.6061 14.453 14.543 14.4533C14.4806 14.4537 14.4374 14.4583 14.3763 14.4711C14.3145 14.4841 14.2356 14.5137 14.0778 14.5728C13.3417 14.8485 12.544 14.9993 11.7108 14.9993C11.3623 14.9993 11.02 14.973 10.6859 14.9221M6.35997 18.3327C8.83072 18.3327 10.8337 16.2807 10.8337 13.7493C10.8337 11.218 8.83072 9.16602 6.35997 9.16602C3.88923 9.16602 1.88629 11.218 1.88629 13.7493C1.88629 14.2582 1.96722 14.7476 2.11662 15.205C2.17977 15.3983 2.21134 15.4949 2.22171 15.561C2.23252 15.6299 2.23442 15.6686 2.23039 15.7383C2.22653 15.805 2.20984 15.8804 2.17645 16.0313L1.66699 18.3327L4.16266 17.9918C4.29888 17.9732 4.36699 17.9639 4.42647 17.9643C4.48909 17.9648 4.52233 17.9682 4.58375 17.9804C4.64208 17.992 4.72879 18.0226 4.90222 18.0838C5.35915 18.2451 5.84958 18.3327 6.35997 18.3327Z" stroke="currentColor" stroke-width="1.67" stroke-linecap="round" stroke-linejoin="round"/>
</g>
<defs>
<clipPath id="clip0_3049_2968">
<rect width="20" height="20" fill="white"/>
</clipPath>
</defs>
</svg>
