<svg xmlns="http://www.w3.org/2000/svg" width="16" height="14" fill="none"><path fill="#7147E8" fill-rule="evenodd" d="M1 6.991a6.424 6.424 0 0 0 6.417 6.417 6.424 6.424 0 0 0 6.386-7.043.438.438 0 0 0-.87.085 5.548 5.548 0 0 1-5.516 6.083A5.548 5.548 0 0 1 1.875 6.99 5.548 5.548 0 0 1 7.417 1.45c1.062 0 2.095.302 2.988.876a.438.438 0 1 0 .473-.737A6.395 6.395 0 0 0 7.416.575 6.424 6.424 0 0 0 1 6.99Zm6.836 1.33a.438.438 0 0 0 .619 0l6.416-6.416a.438.438 0 1 0-.619-.619L8.146 7.393 5.83 5.077a.438.438 0 1 0-.619.62L7.836 8.32Z" clip-rule="evenodd"/><path fill="#7147E8" d="m13.803 6.365.125-.012-.125.012Zm-.478-.393-.011-.124.011.124Zm-.393.478.125-.012-.125.012Zm-2.527-4.124-.068.105.068-.105Zm.605-.132.105.068-.105-.068Zm-.132-.605.067-.105-.067.105ZM7.836 8.321l.089-.088-.089.088Zm.619 0 .088.09-.088-.09Zm6.416-6.416-.088-.088.088.088Zm0-.619-.088.089.088-.089Zm-.619 0-.088-.088.088.088ZM8.146 7.393l-.089.089.089.088.088-.088-.088-.089ZM5.83 5.077l.088-.088-.088.088Zm-.619 0 .089.089-.089-.089Zm0 .62-.088.088.088-.089Zm2.205 7.586A6.299 6.299 0 0 1 1.125 6.99h-.25a6.549 6.549 0 0 0 6.542 6.542v-.25Zm6.292-6.292a6.299 6.299 0 0 1-6.292 6.292v.25a6.549 6.549 0 0 0 6.542-6.542h-.25Zm-.03-.614c.02.202.03.407.03.614h.25c0-.215-.01-.428-.03-.638l-.25.024Zm-.341-.28a.313.313 0 0 1 .342.28l.249-.024a.563.563 0 0 0-.614-.505l.023.249Zm-.28.34a.312.312 0 0 1 .28-.34l-.024-.25a.562.562 0 0 0-.505.615l.249-.024Zm.026.554c0-.186-.009-.371-.026-.553l-.25.024c.017.174.026.35.026.53h.25Zm-5.667 5.667a5.673 5.673 0 0 0 5.667-5.667h-.25a5.423 5.423 0 0 1-5.417 5.417v.25ZM1.75 6.99a5.673 5.673 0 0 0 5.667 5.667v-.25A5.423 5.423 0 0 1 2 6.99h-.25Zm5.667-5.666A5.673 5.673 0 0 0 1.75 6.99H2a5.423 5.423 0 0 1 5.417-5.416v-.25Zm3.055.896a5.643 5.643 0 0 0-3.055-.896v.25c1.038 0 2.048.296 2.92.856l.135-.21Zm.433-.095a.313.313 0 0 1-.433.095l-.135.21a.563.563 0 0 0 .778-.17l-.21-.135Zm-.095-.432a.313.313 0 0 1 .095.432l.21.136a.563.563 0 0 0-.17-.778l-.135.21ZM7.416.7a6.27 6.27 0 0 1 3.394.994l.135-.21A6.52 6.52 0 0 0 7.416.45V.7ZM1.125 6.99A6.3 6.3 0 0 1 7.417.7V.45A6.55 6.55 0 0 0 .875 6.99h.25Zm7.02 1.333a.31.31 0 0 1-.22-.09l-.178.175a.56.56 0 0 0 .398.165v-.25Zm.222-.091a.313.313 0 0 1-.222.091v.25a.563.563 0 0 0 .398-.164l-.176-.177Zm6.416-6.416L8.367 8.233l.176.177 6.417-6.416-.177-.177Zm0-.442a.313.313 0 0 1 0 .442l.177.177a.563.563 0 0 0 0-.796l-.177.177Zm-.442 0a.313.313 0 0 1 .442 0l.177-.177a.563.563 0 0 0-.796 0l.177.177ZM8.234 7.482l6.107-6.107-.177-.177-6.107 6.107.177.177ZM5.742 5.166l2.315 2.316.177-.177-2.316-2.316-.176.177Zm-.442 0a.313.313 0 0 1 .442 0l.176-.177a.563.563 0 0 0-.795 0l.177.177Zm0 .442a.313.313 0 0 1 0-.442l-.177-.177a.563.563 0 0 0 0 .796l.177-.177Zm2.624 2.625L5.3 5.608l-.177.177L7.748 8.41l.176-.177Z"/></svg>