<svg xmlns="http://www.w3.org/2000/svg" width="42" height="42" fill="none"><path fill="#35198E" d="M40.8 5.741a1.583 1.583 0 0 0-2.24-.002l-18.989 18.94-6.851-7.442a1.584 1.584 0 0 0-2.33 2.144l7.968 8.653a1.581 1.581 0 0 0 2.282.049L40.796 7.98c.62-.617.62-1.62.003-2.239Z"/><path fill="#35198E" d="M40.417 19.417c-.874 0-1.583.709-1.583 1.583 0 9.834-8 17.834-17.834 17.834S3.166 30.834 3.166 21 11.166 3.166 21 3.166A1.583 1.583 0 1 0 21 0C9.42 0 0 9.42 0 21c0 11.579 9.42 21 21 21 11.579 0 21-9.421 21-21 0-.874-.709-1.583-1.583-1.583Z"/></svg>