<svg viewBox="0 0 89 89" fill="none" xmlns="http://www.w3.org/2000/svg">
<path d="M0 28C0 12.536 12.536 0 28 0H61C76.464 0 89 12.536 89 28V61C89 76.464 76.464 89 61 89H28C12.536 89 0 76.464 0 61V28Z" fill="#FFFAEB"/>
<path d="M59 56V51C59 48.7909 57.2091 47 55 47H34C31.7909 47 30 48.7909 30 51V56" stroke="#B54707" stroke-width="2" stroke-linecap="round" stroke-linejoin="round"/>
<path fill-rule="evenodd" clip-rule="evenodd" d="M53.5281 29.3455L52.9057 28.2654C52.3791 27.3515 51.2121 27.0362 50.297 27.5606V27.5606C49.8613 27.8173 49.3415 27.8901 48.8521 27.763C48.3628 27.6359 47.944 27.3194 47.6883 26.8833C47.5237 26.6061 47.4353 26.2903 47.432 25.968V25.968C47.4468 25.4511 47.2518 24.9503 46.8915 24.5796C46.5311 24.2089 46.036 23.9998 45.5189 24H44.2649C43.7584 24 43.2727 24.2018 42.9154 24.5609C42.5581 24.9199 42.3586 25.4065 42.361 25.913V25.913C42.346 26.9588 41.4939 27.7987 40.448 27.7986C40.1256 27.7953 39.8099 27.7069 39.5327 27.5423V27.5423C38.6175 27.0179 37.4505 27.3332 36.924 28.2471L36.2558 29.3455C35.7298 30.2583 36.0408 31.4245 36.9514 31.9542V31.9542C37.5433 32.296 37.908 32.9275 37.908 33.611C37.908 34.2945 37.5433 34.926 36.9514 35.2677V35.2677C36.042 35.7939 35.7307 36.9573 36.2558 37.8673V37.8673L36.8874 38.9565C37.1341 39.4017 37.548 39.7302 38.0376 39.8694C38.5272 40.0085 39.0521 39.9468 39.4961 39.6979V39.6979C39.9325 39.4433 40.4526 39.3735 40.9408 39.5041C41.4289 39.6348 41.8447 39.955 42.0956 40.3936C42.2601 40.6708 42.3485 40.9866 42.3519 41.3089V41.3089C42.3519 42.3655 43.2084 43.222 44.2649 43.222H45.5189C46.5719 43.222 47.4269 42.371 47.432 41.3181V41.3181C47.4295 40.81 47.6303 40.3219 47.9896 39.9626C48.3489 39.6034 48.8369 39.4026 49.345 39.405C49.6666 39.4136 49.9811 39.5017 50.2604 39.6613V39.6613C51.1731 40.1873 52.3394 39.8763 52.8691 38.9657V38.9657L53.5281 37.8673C53.7832 37.4294 53.8532 36.9079 53.7226 36.4183C53.5921 35.9287 53.2717 35.5113 52.8324 35.2586V35.2586C52.3932 35.0059 52.0728 34.5885 51.9422 34.0989C51.8117 33.6092 51.8817 33.0877 52.1368 32.6499C52.3027 32.3603 52.5428 32.1201 52.8324 31.9542V31.9542C53.7376 31.4248 54.0478 30.2654 53.5281 29.3547V29.3547V29.3455Z" stroke="#B54707" stroke-width="2" stroke-linecap="round" stroke-linejoin="round"/>
<circle cx="44.8965" cy="33.611" r="2.63616" stroke="#B54707" stroke-width="2" stroke-linecap="round" stroke-linejoin="round"/>
<line x1="45" y1="48" x2="45" y2="43" stroke="#B54707" stroke-width="2"/>
<rect x="24" y="56" width="12" height="10" rx="3" fill="#FFFAEB" stroke="#B54707" stroke-width="2"/>
<rect x="53" y="56" width="12" height="10" rx="3" fill="#FFFAEB" stroke="#B54707" stroke-width="2"/>
</svg>
