<svg viewBox="0 0 24 24" fill="none" xmlns="http://www.w3.org/2000/svg">
<path d="M7.31848 11.7592L14.2965 4.31606C14.4855 4.11441 14.7496 4 15.026 4H21.0002C21.5525 4 22.0002 4.44771 22.0002 5V9.91713C22.0002 10.1929 21.8863 10.4564 21.6855 10.6453L13.7119 18.1499C13.3183 18.5203 12.7016 18.511 12.3195 18.1288L7.34091 13.1503C6.95927 12.7686 6.94934 12.153 7.31848 11.7592Z" stroke="currentColor" stroke-width="1.2" stroke-linecap="round" stroke-linejoin="round"/>
<path d="M10.4656 17.7566L9.05631 19.1659C8.66579 19.5565 8.03262 19.5565 7.6421 19.1659L2.68466 14.2085C2.30302 13.8269 2.29309 13.2112 2.66223 12.8175L9.6402 5.37429C9.82925 5.17264 10.0933 5.05823 10.3697 5.05823H12.582" stroke="currentColor" stroke-width="1.2" stroke-linecap="round" stroke-linejoin="round"/>
<circle cx="18.0831" cy="7.49214" r="1.01746" stroke="currentColor" stroke-width="1.4"/>
</svg>
