<svg viewBox="0 0 12 12" fill="none" xmlns="http://www.w3.org/2000/svg">
<path fill-rule="evenodd" clip-rule="evenodd" d="M3.275 2.75H3C2.9337 2.75 2.87011 2.77634 2.82322 2.82322C2.77634 2.87011 2.75 2.9337 2.75 3V10C2.75 10.0663 2.77634 10.1299 2.82322 10.1768C2.87011 10.2237 2.9337 10.25 3 10.25H9C9.0663 10.25 9.12989 10.2237 9.17678 10.1768C9.22366 10.1299 9.25 10.0663 9.25 10V3C9.25 2.9337 9.22366 2.87011 9.17678 2.82322C9.12989 2.77634 9.0663 2.75 9 2.75H8.725C8.60918 3.32056 8.10474 3.75 7.5 3.75H4.5C3.89526 3.75 3.39082 3.32056 3.275 2.75ZM8.725 1.25H9C9.46413 1.25 9.90925 1.43437 10.2374 1.76256C10.5656 2.09075 10.75 2.53587 10.75 3V10C10.75 10.4641 10.5656 10.9092 10.2374 11.2374C9.90925 11.5656 9.46413 11.75 9 11.75H3C2.53587 11.75 2.09075 11.5656 1.76256 11.2374C1.43437 10.9092 1.25 10.4641 1.25 10V3C1.25 2.53587 1.43437 2.09075 1.76256 1.76256C2.09075 1.43437 2.53587 1.25 3 1.25H3.275C3.39082 0.67944 3.89526 0.25 4.5 0.25H7.5C8.10474 0.25 8.60918 0.67944 8.725 1.25ZM7.25 1.75H4.75V2.25H7.25V1.75Z" fill="currentColor"/>
</svg>