<svg viewBox="0 0 16 15" fill="none" xmlns="http://www.w3.org/2000/svg">
<path d="M12.9434 2.55023C11.6172 1.22814 9.85388 0.5 7.97832 0.5C7.7511 0.5 7.56689 0.683641 7.56689 0.910156C7.56689 1.13667 7.7511 1.32031 7.97832 1.32031C11.3964 1.32031 14.1772 4.0925 14.1772 7.5C14.1772 10.9075 11.3964 13.6797 7.97832 13.6797C7.7511 13.6797 7.56689 13.8633 7.56689 14.0898C7.56689 14.3164 7.7511 14.5 7.97832 14.5C9.85388 14.5 11.6172 13.7719 12.9434 12.4498C14.2696 11.1276 15 9.36977 15 7.5C15 5.63023 14.2696 3.87239 12.9434 2.55023Z" fill="currentColor" stroke="currentColor" stroke-width="0.3"/>
<path d="M10.9925 11.0864C11.0729 11.1665 11.1782 11.2065 11.2835 11.2065C11.3887 11.2065 11.494 11.1665 11.5744 11.0864C11.735 10.9262 11.735 10.6665 11.5744 10.5064L8.38975 7.33158V3.38281C8.38975 3.1563 8.20554 2.97266 7.97832 2.97266C7.7511 2.97266 7.56689 3.1563 7.56689 3.38281V7.50146C7.56689 7.61024 7.61023 7.71455 7.68742 7.79147L10.9925 11.0864Z" fill="currentColor" stroke="currentColor" stroke-width="0.3"/>
<path d="M5.58787 1.76627C5.42453 1.76627 5.27003 1.6687 5.20568 1.5083C5.12134 1.29803 5.22381 1.05943 5.43473 0.975266C5.44184 0.972422 5.61126 0.90502 5.80057 0.846039C5.98009 0.790121 6.18337 0.732809 6.19195 0.730402C6.41078 0.668797 6.63797 0.795645 6.69971 1.0136C6.76148 1.23159 6.63429 1.45824 6.41563 1.51982C6.41366 1.52039 6.21447 1.57653 6.046 1.629C5.88835 1.67811 5.74188 1.73627 5.7404 1.73687C5.69034 1.75683 5.63866 1.76627 5.58787 1.76627Z" fill="currentColor" stroke="currentColor" stroke-width="0.3"/>
<path d="M3.58039 2.98971C3.46856 2.98971 3.35714 2.94456 3.27596 2.85561C3.1231 2.68811 3.13525 2.42883 3.30322 2.27636C3.30887 2.27122 3.44387 2.14892 3.60054 2.02756C3.74902 1.91253 3.91926 1.7879 3.92645 1.78265C4.10967 1.64861 4.36712 1.68804 4.50157 1.87064C4.636 2.05327 4.5965 2.30994 4.41331 2.44398C4.41163 2.44519 4.24481 2.56733 4.10542 2.67531C3.97497 2.77635 3.85826 2.88197 3.85708 2.88301C3.77825 2.95446 3.67916 2.98971 3.58039 2.98971Z" fill="currentColor" stroke="currentColor" stroke-width="0.3"/>
<path d="M2.12954 4.83411C2.06624 4.83411 2.00205 4.81951 1.94185 4.7887C1.73981 4.68517 1.66013 4.43807 1.76389 4.23663C1.7674 4.22982 1.85087 4.06813 1.95496 3.89978C2.05367 3.74017 2.16934 3.564 2.17422 3.55656C2.29875 3.36707 2.55372 3.31407 2.74383 3.43819C2.93391 3.5623 2.98707 3.81652 2.86257 4.00604C2.86144 4.00776 2.74808 4.18041 2.65543 4.33022C2.56878 4.47036 2.49653 4.61006 2.49585 4.61145C2.42286 4.75285 2.27883 4.83411 2.12954 4.83411Z" fill="currentColor" stroke="currentColor" stroke-width="0.3"/>
<path d="M1.54088 9.41509C1.35593 9.41509 1.18784 9.28988 1.14168 9.10282C1.13984 9.09541 1.09645 8.91875 1.06422 8.72359C1.03367 8.53861 1.00503 8.32995 1.00383 8.32118C0.973107 8.09674 1.13068 7.88997 1.35582 7.85931C1.58133 7.82855 1.78839 7.98578 1.81914 8.21021C1.81941 8.21227 1.84747 8.41669 1.87616 8.59029C1.90321 8.75422 1.94034 8.90532 1.94073 8.90682C1.99501 9.12678 1.86014 9.34897 1.63954 9.40309C1.60649 9.41123 1.57343 9.41509 1.54088 9.41509Z" fill="currentColor" stroke="currentColor" stroke-width="0.3"/>
<path d="M1.42076 7.0737C1.40477 7.0737 1.38861 7.07277 1.37232 7.07086C1.14661 7.04447 0.985139 6.84071 1.01164 6.6157C1.01251 6.60812 1.03393 6.42754 1.07228 6.23359C1.10862 6.0496 1.15514 5.84414 1.15712 5.83547C1.2072 5.61453 1.4274 5.47587 1.6491 5.5258C1.87075 5.57573 2.00981 5.7953 1.95973 6.01627C1.95926 6.01829 1.91373 6.21951 1.87961 6.39216C1.84741 6.55516 1.82906 6.70973 1.82887 6.71126C1.80435 6.92003 1.62655 7.0737 1.42076 7.0737Z" fill="currentColor" stroke="currentColor" stroke-width="0.3"/>
<path d="M2.47777 11.5689C2.34639 11.5689 2.21731 11.5064 2.13769 11.39C2.13335 11.3837 2.03069 11.2334 1.93194 11.0619C1.83833 10.8993 1.73822 10.7139 1.73399 10.7061C1.62634 10.5066 1.70133 10.2579 1.90142 10.1506C2.1014 10.0433 2.351 10.118 2.45863 10.3175C2.45961 10.3193 2.55772 10.501 2.64558 10.6536C2.72778 10.7964 2.81643 10.9264 2.81734 10.9277C2.94529 11.1148 2.89691 11.37 2.70924 11.4976C2.63834 11.5458 2.55764 11.5689 2.47777 11.5689Z" fill="currentColor" stroke="currentColor" stroke-width="0.3"/>
<path d="M4.11005 13.2542C4.02817 13.2542 3.94548 13.2299 3.87342 13.1793C3.86714 13.1749 3.71818 13.07 3.56543 12.9438C3.42061 12.8242 3.26169 12.6854 3.25499 12.6796C3.08414 12.5303 3.067 12.2711 3.21673 12.1008C3.36646 11.9304 3.62646 11.9134 3.79731 12.0626C3.79887 12.064 3.95456 12.1999 4.09046 12.3122C4.21765 12.4172 4.34632 12.508 4.34761 12.5089C4.53321 12.6395 4.57754 12.8954 4.44657 13.0804C4.36648 13.1937 4.23926 13.2542 4.11005 13.2542Z" fill="currentColor" stroke="currentColor" stroke-width="0.3"/>
<path d="M6.23361 14.2666C6.19908 14.2666 6.16403 14.2622 6.12905 14.2531C6.12162 14.2512 5.94526 14.2049 5.75792 14.14C5.58021 14.0785 5.38262 14.004 5.37431 14.0009C5.16179 13.9207 5.05474 13.684 5.13513 13.4721C5.2156 13.2602 5.45311 13.1535 5.66554 13.2337C5.66749 13.2344 5.86108 13.3074 6.02782 13.3651C6.1852 13.4196 6.33614 13.4592 6.33768 13.4596C6.55749 13.517 6.68898 13.7412 6.63135 13.9603C6.58289 14.1446 6.41615 14.2666 6.23361 14.2666Z" fill="currentColor" stroke="currentColor" stroke-width="0.3"/>
</svg>
