<svg viewBox="0 0 14 14" fill="none" xmlns="http://www.w3.org/2000/svg">
<path d="M7 0.683594C7.85302 0.683594 8.68014 0.8505 9.45842 1.17969C10.2105 1.49778 10.8861 1.95333 11.4664 2.53364C12.0467 3.11396 12.5022 3.78952 12.8203 4.54161C13.1495 5.31986 13.3164 6.14698 13.3164 7C13.3164 7.85302 13.1495 8.68014 12.8203 9.45842C12.5022 10.2105 12.0467 10.8861 11.4664 11.4664C10.886 12.0467 10.2105 12.5022 9.4584 12.8203C8.68014 13.1495 7.85302 13.3164 7 13.3164C6.14698 13.3164 5.31986 13.1495 4.54158 12.8203C3.78952 12.5022 3.11393 12.0467 2.53362 11.4664C1.9533 10.886 1.49778 10.2105 1.17966 9.4584C0.8505 8.68014 0.683594 7.85302 0.683594 7C0.683594 6.14698 0.8505 5.31986 1.17969 4.54158C1.49778 3.78952 1.95333 3.11393 2.53364 2.53362C3.11396 1.9533 3.78952 1.49778 4.54161 1.17966C5.31986 0.8505 6.14698 0.683594 7 0.683594ZM7 0C3.134 0 0 3.134 0 7C0 10.866 3.134 14 7 14C10.866 14 14 10.866 14 7C14 3.134 10.866 0 7 0Z" fill="currentColor"/>
<path d="M9.79462 10.1366C9.70715 10.1366 9.61968 10.1032 9.55293 10.0365L3.96387 4.44739C3.8304 4.31393 3.8304 4.0975 3.96387 3.96401C4.09736 3.83052 4.31376 3.83052 4.44725 3.96401L10.0363 9.55307C10.1698 9.68656 10.1698 9.90296 10.0363 10.0365C9.96959 10.1032 9.8821 10.1366 9.79462 10.1366Z" fill="currentColor"/>
<path d="M4.20556 10.1366C4.11809 10.1366 4.03061 10.1032 3.96387 10.0365C3.8304 9.90296 3.8304 9.68656 3.96387 9.55307L9.55293 3.96401C9.6864 3.83052 9.90285 3.83052 10.0363 3.96401C10.1698 4.09748 10.1698 4.3139 10.0363 4.44739L4.44725 10.0365C4.38051 10.1032 4.29306 10.1366 4.20556 10.1366Z" fill="currentColor"/>
</svg>
