<svg viewBox="0 0 17 17" fill="none" xmlns="http://www.w3.org/2000/svg">
<path d="M8.50033 0.166748C3.90866 0.166748 0.166992 3.90841 0.166992 8.50008C0.166992 13.0917 3.90866 16.8334 8.50033 16.8334C13.092 16.8334 16.8337 13.0917 16.8337 8.50008C16.8337 3.90841 13.092 0.166748 8.50033 0.166748ZM11.3003 10.4167C11.542 10.6584 11.542 11.0584 11.3003 11.3001C11.1753 11.4251 11.017 11.4834 10.8587 11.4834C10.7003 11.4834 10.542 11.4251 10.417 11.3001L8.50033 9.38342L6.58366 11.3001C6.45866 11.4251 6.30033 11.4834 6.14199 11.4834C5.98366 11.4834 5.82533 11.4251 5.70033 11.3001C5.45866 11.0584 5.45866 10.6584 5.70033 10.4167L7.61699 8.50008L5.70033 6.58342C5.45866 6.34175 5.45866 5.94175 5.70033 5.70008C5.94199 5.45842 6.34199 5.45842 6.58366 5.70008L8.50033 7.61675L10.417 5.70008C10.6587 5.45842 11.0587 5.45842 11.3003 5.70008C11.542 5.94175 11.542 6.34175 11.3003 6.58342L9.38366 8.50008L11.3003 10.4167Z" fill="white"/>
</svg>
