<svg viewBox="0 0 14 14" fill="none" xmlns="http://www.w3.org/2000/svg">
<path d="M12.0271 13.3571C12.2502 13.5752 12.5416 13.6842 12.8341 13.6842C13.1243 13.6842 13.4145 13.5763 13.6376 13.3605C14.0827 12.9266 14.0838 12.2224 13.641 11.7863L8.60917 6.84565L13.6649 1.92839C14.11 1.49451 14.1111 0.790298 13.6684 0.354197C13.2233 -0.0807921 12.504 -0.0830171 12.0578 0.350859L7.0032 5.26924L1.97246 0.327497C1.52743 -0.107492 0.808107 -0.109717 0.361942 0.324159C-0.0830846 0.758035 -0.0842227 1.46225 0.358528 1.89835L5.39041 6.83898L0.334626 11.7562C-0.110401 12.1901 -0.111539 12.8943 0.331212 13.3304C0.7751 13.7643 1.49443 13.7665 1.94173 13.3338L6.99637 8.4154L12.0271 13.3571Z" fill="currentColor"/>
</svg>
