<svg width="50" height="50" viewBox="0 0 50 50" fill="none" xmlns="http://www.w3.org/2000/svg">
<mask id="path-1-inside-1_15779_59502" fill="white">
<path d="M25.1465 2.73438C32.6703 2.73439 38.7695 8.83364 38.7695 16.3574C38.7695 23.8812 32.6703 29.9805 25.1465 29.9805C23.7918 29.9805 22.4841 29.7794 21.249 29.4111C21.2477 29.4117 21.2464 29.4135 21.2451 29.4141C21.1545 29.387 21.0654 29.356 20.9756 29.3271C20.9046 29.3043 20.8332 29.2827 20.7627 29.2588C20.6501 29.2205 20.539 29.1788 20.4277 29.1377C20.3651 29.1146 20.3014 29.0943 20.2393 29.0703L20.2402 29.0693C15.141 27.0998 11.5234 22.1515 11.5234 16.3574C11.5235 10.5632 15.1407 5.61383 20.2402 3.64453H20.2393C20.2864 3.62633 20.3344 3.61047 20.3818 3.59277C20.5158 3.54274 20.6502 3.49316 20.7861 3.44727C20.8282 3.43308 20.8709 3.42101 20.9131 3.40723C21.0234 3.37119 21.1336 3.33406 21.2451 3.30078C21.2466 3.3014 21.2486 3.30212 21.25 3.30273C22.4848 2.93474 23.7922 2.73438 25.1465 2.73438Z"/>
</mask>
<path d="M25.1465 2.73438C32.6703 2.73439 38.7695 8.83364 38.7695 16.3574C38.7695 23.8812 32.6703 29.9805 25.1465 29.9805C23.7918 29.9805 22.4841 29.7794 21.249 29.4111C21.2477 29.4117 21.2464 29.4135 21.2451 29.4141C21.1545 29.387 21.0654 29.356 20.9756 29.3271C20.9046 29.3043 20.8332 29.2827 20.7627 29.2588C20.6501 29.2205 20.539 29.1788 20.4277 29.1377C20.3651 29.1146 20.3014 29.0943 20.2393 29.0703L20.2402 29.0693C15.141 27.0998 11.5234 22.1515 11.5234 16.3574C11.5235 10.5632 15.1407 5.61383 20.2402 3.64453H20.2393C20.2864 3.62633 20.3344 3.61047 20.3818 3.59277C20.5158 3.54274 20.6502 3.49316 20.7861 3.44727C20.8282 3.43308 20.8709 3.42101 20.9131 3.40723C21.0234 3.37119 21.1336 3.33406 21.2451 3.30078C21.2466 3.3014 21.2486 3.30212 21.25 3.30273C22.4848 2.93474 23.7922 2.73438 25.1465 2.73438Z" fill="white"/>
<path d="M25.1465 2.73438L25.1465 -12.2656H25.1465V2.73438ZM38.7695 16.3574L53.7695 16.3574V16.3574H38.7695ZM25.1465 29.9805L25.1465 44.9805L25.1465 44.9805L25.1465 29.9805ZM21.249 29.4111L25.5348 15.0364L20.338 13.487L15.3519 15.619L21.249 29.4111ZM21.2451 29.4141L16.9561 43.7878L22.1519 45.3382L27.1381 43.208L21.2451 29.4141ZM20.9756 29.3271L25.5648 15.0464L25.5648 15.0464L20.9756 29.3271ZM20.7627 29.2588L25.5876 15.056L25.5875 15.0559L20.7627 29.2588ZM20.4277 29.1377L15.2302 43.2084L15.2304 43.2085L20.4277 29.1377ZM20.2393 29.0703L9.63266 18.4637L-6.66216 34.7585L14.834 43.0626L20.2393 29.0703ZM20.2402 29.0693L30.8468 39.6759L47.1427 23.3801L25.6447 15.0768L20.2402 29.0693ZM11.5234 16.3574L-3.47656 16.3573V16.3574H11.5234ZM20.2402 3.64453L25.6439 17.6374L20.2402 -11.3555V3.64453ZM20.2393 3.64453L14.8351 -10.3481L20.2393 18.6445V3.64453ZM20.3818 3.59277L25.6288 17.6451L25.6292 17.645L20.3818 3.59277ZM20.7861 3.44727L15.9882 -10.7647L15.9881 -10.7646L20.7861 3.44727ZM20.9131 3.40723L25.5709 17.6657L25.571 17.6657L20.9131 3.40723ZM21.2451 3.30078L27.1378 -10.4933L22.152 -12.6232L16.9566 -11.0731L21.2451 3.30078ZM21.25 3.30273L15.3528 17.0949L20.3381 19.2265L25.5342 17.6779L21.25 3.30273ZM25.1465 2.73438L25.1465 17.7344C24.386 17.7344 23.7695 17.1179 23.7695 16.3574H38.7695H53.7695C53.7695 0.549341 40.9545 -12.2656 25.1465 -12.2656L25.1465 2.73438ZM38.7695 16.3574L23.7695 16.3574C23.7695 15.5969 24.386 14.9805 25.1465 14.9805L25.1465 29.9805L25.1465 44.9805C40.9545 44.9804 53.7695 32.1655 53.7695 16.3574L38.7695 16.3574ZM25.1465 29.9805V14.9805C25.2846 14.9805 25.4194 15.002 25.5348 15.0364L21.249 29.4111L16.9632 43.7858C19.5488 44.5567 22.2989 44.9805 25.1465 44.9805V29.9805ZM21.249 29.4111L15.3519 15.619C15.1193 15.7184 14.9005 15.8189 14.6957 15.9184C14.4909 16.0179 14.2986 16.117 14.1191 16.214C13.9397 16.3109 13.7716 16.4065 13.615 16.499C13.4585 16.5916 13.312 16.682 13.176 16.7688C13.04 16.8557 12.913 16.9399 12.7953 17.0201C12.6776 17.1004 12.5679 17.1777 12.4665 17.2509C12.3651 17.3242 12.2709 17.3942 12.1841 17.46C12.0973 17.5258 12.0168 17.5883 11.9431 17.6466C11.8694 17.7049 11.8013 17.7599 11.7394 17.8107C11.6774 17.8614 11.6206 17.9089 11.5693 17.9521C11.5181 17.9954 11.4715 18.0354 11.4301 18.0712C11.3887 18.1071 11.3515 18.1396 11.3192 18.1682C11.2869 18.1966 11.2585 18.222 11.2348 18.2432C11.2112 18.2644 11.191 18.2826 11.1755 18.2967C11.1602 18.3106 11.1478 18.3219 11.1403 18.3287C11.1365 18.3321 11.1334 18.3349 11.1316 18.3367C11.1306 18.3375 11.1298 18.3382 11.1294 18.3387C11.1291 18.3389 11.1289 18.3391 11.1288 18.3392C11.1288 18.3392 11.1287 18.3393 11.1287 18.3393C11.1287 18.3393 11.1286 18.3393 11.1286 18.3393C11.1284 18.3396 11.1298 18.3382 11.1315 18.3367C11.1334 18.335 11.1364 18.3322 11.1403 18.3287C11.1477 18.3219 11.16 18.3107 11.1754 18.2968C11.1908 18.2828 11.211 18.2646 11.2346 18.2434C11.2583 18.2222 11.2867 18.1969 11.3189 18.1684C11.3512 18.1399 11.3883 18.1074 11.4297 18.0715C11.4711 18.0357 11.5177 17.9958 11.569 17.9525C11.6202 17.9093 11.677 17.8619 11.739 17.8111C11.8009 17.7604 11.8689 17.7054 11.9427 17.6471C12.0164 17.5888 12.0969 17.5263 12.1837 17.4605C12.2705 17.3947 12.3647 17.3247 12.4661 17.2515C12.5675 17.1783 12.6772 17.1011 12.795 17.0208C12.9127 16.9405 13.0397 16.8563 13.1758 16.7695C13.3118 16.6827 13.4583 16.5923 13.6149 16.4998C13.7714 16.4073 13.9396 16.3117 14.1191 16.2148C14.2986 16.1179 14.4909 16.0188 14.6958 15.9194C14.9007 15.82 15.1196 15.7195 15.3521 15.6201L21.2451 29.4141L27.1381 43.208C27.3708 43.1086 27.5897 43.0081 27.7947 42.9086C27.9996 42.8092 28.192 42.71 28.3716 42.6131C28.5512 42.5161 28.7194 42.4205 28.8761 42.328C29.0328 42.2354 29.1793 42.145 29.3154 42.0581C29.4516 41.9712 29.5787 41.887 29.6965 41.8066C29.8143 41.7263 29.9241 41.649 30.0256 41.5757C30.127 41.5025 30.2214 41.4324 30.3083 41.3666C30.3952 41.3007 30.4757 41.2381 30.5495 41.1798C30.6233 41.1214 30.6915 41.0664 30.7535 41.0156C30.8155 40.9648 30.8724 40.9173 30.9237 40.874C30.975 40.8306 31.0217 40.7906 31.0632 40.7547C31.1047 40.7188 31.1419 40.6862 31.1743 40.6576C31.2066 40.6291 31.2351 40.6037 31.2588 40.5824C31.2825 40.5612 31.3027 40.5429 31.3183 40.5288C31.3337 40.5149 31.3461 40.5035 31.3536 40.4967C31.3575 40.4932 31.3606 40.4903 31.3625 40.4886C31.3635 40.4877 31.3642 40.487 31.3647 40.4866C31.365 40.4864 31.3652 40.4862 31.3653 40.4861C31.3653 40.486 31.3654 40.4859 31.3654 40.4859C31.3655 40.4859 31.3655 40.4859 31.3655 40.4859C31.3658 40.4856 31.3644 40.4869 31.3627 40.4884C31.3609 40.4901 31.3578 40.4929 31.3541 40.4963C31.3467 40.503 31.3344 40.5142 31.3191 40.5281C31.3037 40.542 31.2836 40.5602 31.26 40.5813C31.2364 40.6025 31.2081 40.6277 31.1759 40.6562C31.1437 40.6846 31.1066 40.7171 31.0653 40.7529C31.024 40.7887 30.9774 40.8286 30.9263 40.8718C30.8751 40.915 30.8184 40.9623 30.7565 41.013C30.6946 41.0637 30.6266 41.1186 30.553 41.1769C30.4793 41.2351 30.399 41.2976 30.3122 41.3633C30.2255 41.4291 30.1313 41.499 30.03 41.5722C29.9288 41.6453 29.8191 41.7226 29.7015 41.8028C29.5839 41.883 29.457 41.9672 29.321 42.054C29.1851 42.1408 29.0388 42.2311 28.8823 42.3236C28.7258 42.4161 28.5578 42.5116 28.3784 42.6085C28.199 42.7054 28.0068 42.8045 27.8021 42.904C27.5974 43.0034 27.3786 43.1039 27.1462 43.2033L21.249 29.4111ZM21.2451 29.4141L25.5341 15.0403C25.5764 15.0529 25.6139 15.0644 25.6458 15.0743C25.6777 15.0841 25.705 15.0927 25.7266 15.0996C25.7481 15.1064 25.7652 15.112 25.7764 15.1156C25.7875 15.1192 25.7946 15.1216 25.7955 15.1219C25.7959 15.122 25.7938 15.1213 25.784 15.118C25.7816 15.1173 25.7793 15.1165 25.7763 15.1155C25.7735 15.1146 25.7701 15.1135 25.7667 15.1123C25.7598 15.11 25.7512 15.1072 25.7417 15.1041C25.723 15.0979 25.6977 15.0896 25.6687 15.0801C25.6395 15.0706 25.6043 15.0591 25.5648 15.0464L20.9756 29.3271L16.3864 43.6079C16.3545 43.5976 16.3347 43.5911 16.344 43.5941C16.3494 43.5959 16.3532 43.5972 16.3689 43.6024C16.3815 43.6065 16.4018 43.6132 16.4246 43.6207C16.5066 43.6477 16.7085 43.7139 16.9561 43.7878L21.2451 29.4141ZM20.9756 29.3271L25.5648 15.0464C25.5356 15.0371 25.5096 15.0288 25.488 15.0219C25.4666 15.0151 25.4478 15.0092 25.4339 15.0048C25.4269 15.0026 25.4205 15.0006 25.4154 14.999C25.4129 14.9982 25.4103 14.9974 25.4083 14.9967C25.4061 14.996 25.4043 14.9955 25.4026 14.9949C25.3954 14.9926 25.3937 14.9921 25.3941 14.9922C25.3948 14.9925 25.4001 14.9941 25.4084 14.9968C25.4168 14.9995 25.4295 15.0036 25.4455 15.0087C25.4769 15.0189 25.5261 15.0351 25.5876 15.056L20.7627 29.2588L15.9378 43.4616C16.1239 43.5248 16.2781 43.5738 16.3438 43.5945C16.3619 43.6003 16.3781 43.6054 16.3886 43.6087C16.4021 43.6129 16.4047 43.6138 16.4106 43.6156C16.4199 43.6186 16.4074 43.6146 16.3864 43.6079L20.9756 29.3271ZM20.7627 29.2588L25.5875 15.0559C25.6344 15.0719 25.6715 15.0849 25.6962 15.0937C25.7207 15.1023 25.7362 15.108 25.7386 15.1089C25.74 15.1094 25.7391 15.109 25.735 15.1075C25.7307 15.106 25.7246 15.1037 25.7149 15.1001C25.7043 15.0962 25.6943 15.0925 25.6782 15.0866C25.6638 15.0812 25.6451 15.0743 25.6251 15.0669L20.4277 29.1377L15.2304 43.2085C15.2325 43.2093 15.3604 43.2567 15.4508 43.2898C15.564 43.3311 15.7351 43.3928 15.9378 43.4616L20.7627 29.2588ZM20.4277 29.1377L25.6253 15.067C25.5636 15.0442 25.5086 15.0243 25.4624 15.0077C25.4165 14.9913 25.3768 14.9773 25.3465 14.9666C25.3312 14.9613 25.3176 14.9565 25.3062 14.9526C25.2949 14.9486 25.2851 14.9452 25.2778 14.9427C25.2709 14.9403 25.2642 14.9379 25.2612 14.9369C25.2573 14.9355 25.2565 14.9353 25.2565 14.9353C25.2568 14.9354 25.2595 14.9363 25.2637 14.9378C25.268 14.9393 25.2746 14.9416 25.2828 14.9445C25.299 14.9501 25.3245 14.9592 25.3564 14.9706C25.3885 14.9822 25.4294 14.997 25.4772 15.0147C25.525 15.0324 25.5813 15.0536 25.6445 15.0781L20.2393 29.0703L14.834 43.0626C14.9898 43.1228 15.1219 43.1711 15.2159 43.2048C15.307 43.2375 15.3821 43.2636 15.4101 43.2734C15.418 43.2761 15.4251 43.2786 15.4291 43.28C15.434 43.2817 15.4352 43.2821 15.4362 43.2824C15.438 43.2831 15.4287 43.2798 15.4147 43.2749C15.3879 43.2655 15.3197 43.2415 15.2302 43.2084L20.4277 29.1377ZM20.2393 29.0703L30.8459 39.6769L30.8468 39.6759L20.2402 29.0693L9.63363 18.4627L9.63266 18.4637L20.2393 29.0703ZM20.2402 29.0693L25.6447 15.0768C25.9179 15.1823 26.124 15.3536 26.2672 15.5587C26.4274 15.788 26.5234 16.084 26.5234 16.3574H11.5234H-3.47656C-3.47656 28.5567 4.14891 38.9342 14.8358 43.0619L20.2402 29.0693ZM11.5234 16.3574L26.5234 16.3576C26.5234 16.6303 26.4277 16.9256 26.2677 17.1547C26.1246 17.3596 25.9183 17.5314 25.6439 17.6374L20.2402 3.64453L14.8366 -10.3484C4.14673 -6.22024 -3.47644 4.16006 -3.47656 16.3573L11.5234 16.3574ZM20.2402 3.64453V-11.3555H20.2393V3.64453V18.6445H20.2402V3.64453ZM20.2393 3.64453L25.6434 17.6372C25.5914 17.6573 25.5451 17.6748 25.5058 17.6895C25.4666 17.7041 25.433 17.7165 25.4066 17.7261C25.3804 17.7356 25.3595 17.7431 25.3462 17.7479C25.3395 17.7503 25.3342 17.7522 25.3307 17.7534C25.3272 17.7547 25.325 17.7554 25.3248 17.7555C25.3247 17.7555 25.3249 17.7555 25.3256 17.7552C25.3263 17.755 25.3272 17.7547 25.3288 17.7541C25.3313 17.7532 25.3367 17.7513 25.3425 17.7492C25.3485 17.7471 25.3566 17.7442 25.3659 17.7409C25.3753 17.7376 25.3865 17.7336 25.3991 17.7291C25.4241 17.7201 25.4568 17.7084 25.4947 17.6946C25.5327 17.6808 25.578 17.6641 25.6288 17.6451L20.3818 3.59277L15.1349 -10.4596C15.2108 -10.488 15.2689 -10.5088 15.2933 -10.5175C15.2999 -10.5199 15.3052 -10.5218 15.3086 -10.523C15.3119 -10.5242 15.3141 -10.525 15.3142 -10.525C15.3143 -10.525 15.314 -10.5249 15.3133 -10.5247C15.3125 -10.5244 15.3116 -10.5241 15.31 -10.5235C15.3074 -10.5226 15.3019 -10.5207 15.2961 -10.5186C15.2753 -10.5112 15.2155 -10.49 15.1429 -10.4636C15.0678 -10.4362 14.9613 -10.3969 14.8351 -10.3481L20.2393 3.64453ZM20.3818 3.59277L25.6292 17.645C25.6543 17.6356 25.6701 17.6298 25.6812 17.6257C25.6919 17.6217 25.6944 17.6208 25.6911 17.622C25.6877 17.6233 25.6764 17.6273 25.6588 17.6335C25.6412 17.6397 25.616 17.6485 25.5842 17.6592L20.7861 3.44727L15.9881 -10.7646C15.6094 -10.6368 15.2841 -10.5153 15.1345 -10.4595L20.3818 3.59277ZM20.7861 3.44727L25.5841 17.6592C25.5299 17.6775 25.4816 17.6934 25.4407 17.7067C25.3999 17.72 25.3649 17.7312 25.3375 17.7398C25.3103 17.7484 25.2885 17.7552 25.2748 17.7595C25.2678 17.7616 25.2623 17.7633 25.2587 17.7644C25.2552 17.7655 25.2529 17.7662 25.2528 17.7663C25.2527 17.7663 25.2529 17.7662 25.2536 17.766C25.2546 17.7657 25.2552 17.7655 25.257 17.765C25.2598 17.7641 25.2653 17.7624 25.2715 17.7605C25.2778 17.7586 25.2863 17.756 25.2961 17.7529C25.3059 17.7499 25.3176 17.7463 25.3308 17.7422C25.3569 17.7341 25.3911 17.7234 25.4307 17.7108C25.4705 17.6982 25.5178 17.6831 25.5709 17.6657L20.9131 3.40723L16.2553 -10.8513C16.3384 -10.8784 16.4026 -10.8985 16.4319 -10.9076C16.4471 -10.9123 16.4578 -10.9156 16.4595 -10.9161C16.4603 -10.9164 16.4605 -10.9164 16.458 -10.9156C16.4564 -10.9151 16.4513 -10.9136 16.4463 -10.9121C16.4287 -10.9067 16.3697 -10.8886 16.298 -10.8659C16.2235 -10.8424 16.1161 -10.8079 15.9882 -10.7647L20.7861 3.44727ZM20.9131 3.40723L25.571 17.6657C25.5955 17.6577 25.6177 17.6504 25.6356 17.6445C25.6446 17.6416 25.6532 17.6387 25.6605 17.6363C25.6687 17.6336 25.674 17.6319 25.6805 17.6298C25.6926 17.6258 25.7 17.6234 25.7055 17.6216C25.7108 17.6198 25.7121 17.6194 25.7108 17.6198C25.7087 17.6205 25.6905 17.6264 25.662 17.6354C25.6331 17.6445 25.5891 17.6581 25.5336 17.6747L21.2451 3.30078L16.9566 -11.0731C16.7389 -11.0082 16.5572 -10.9498 16.4465 -10.9139C16.3906 -10.8958 16.3406 -10.8793 16.3112 -10.8696C16.2744 -10.8575 16.2655 -10.8546 16.2552 -10.8513L20.9131 3.40723ZM21.2451 3.30078L15.3525 17.0949C15.3973 17.114 15.4382 17.1312 15.4744 17.1463C15.5107 17.1614 15.5437 17.175 15.5728 17.1869C15.6019 17.1988 15.6282 17.2095 15.6512 17.2187C15.6742 17.2279 15.6948 17.2361 15.7124 17.2431C15.73 17.2501 15.7454 17.2562 15.7582 17.2612C15.7709 17.2662 15.7818 17.2705 15.79 17.2737C15.7983 17.2769 15.8049 17.2795 15.8088 17.281C15.8109 17.2818 15.8125 17.2825 15.8135 17.2829C15.814 17.2831 15.8145 17.2832 15.8147 17.2833C15.8148 17.2834 15.8149 17.2834 15.815 17.2834C15.815 17.2834 15.8151 17.2835 15.8151 17.2835C15.8151 17.2835 15.8151 17.2835 15.8151 17.2835C15.8151 17.2835 15.8151 17.2835 15.8151 17.2835C15.8156 17.2837 15.8126 17.2825 15.809 17.2811C15.8051 17.2796 15.7985 17.277 15.7903 17.2738C15.7821 17.2706 15.7713 17.2664 15.7586 17.2614C15.7459 17.2564 15.7304 17.2503 15.7129 17.2433C15.6953 17.2363 15.6747 17.2281 15.6517 17.2189C15.6288 17.2096 15.6024 17.199 15.5733 17.1871C15.5442 17.1752 15.5112 17.1616 15.4748 17.1464C15.4386 17.1313 15.3976 17.114 15.3528 17.0949L21.25 3.30273L27.1472 -10.4894C27.1022 -10.5086 27.0611 -10.526 27.0246 -10.5412C26.9881 -10.5564 26.9549 -10.5701 26.9256 -10.5821C26.8962 -10.5941 26.8697 -10.6048 26.8465 -10.6141C26.8233 -10.6235 26.8026 -10.6317 26.7848 -10.6388C26.767 -10.6459 26.7514 -10.652 26.7384 -10.6571C26.7255 -10.6622 26.7145 -10.6665 26.7061 -10.6698C26.6977 -10.6731 26.6909 -10.6757 26.6868 -10.6773C26.6846 -10.6782 26.6829 -10.6788 26.6818 -10.6793C26.6813 -10.6795 26.6808 -10.6796 26.6805 -10.6798C26.6803 -10.6799 26.68 -10.68 26.68 -10.68C26.6793 -10.6802 26.6822 -10.6791 26.6856 -10.6778C26.6894 -10.6763 26.6958 -10.6738 26.7038 -10.6707C26.7118 -10.6676 26.7225 -10.6634 26.735 -10.6585C26.7475 -10.6535 26.7628 -10.6475 26.7802 -10.6406C26.7976 -10.6337 26.818 -10.6256 26.8408 -10.6164C26.8635 -10.6073 26.8897 -10.5967 26.9186 -10.5849C26.9475 -10.5731 26.9803 -10.5596 27.0164 -10.5445C27.0524 -10.5295 27.0932 -10.5124 27.1378 -10.4933L21.2451 3.30078ZM21.25 3.30273L25.5342 17.6779C25.4144 17.7136 25.2799 17.7344 25.1465 17.7344V2.73438V-12.2656C22.3045 -12.2656 19.5551 -11.8441 16.9658 -11.0724L21.25 3.30273Z" fill="#0588E2" fill-opacity="0.1" mask="url(#path-1-inside-1_15779_59502)"/>
<mask id="path-3-inside-2_15779_59502" fill="white">
<path fill-rule="evenodd" clip-rule="evenodd" d="M17.1335 12.7097L25.3252 8.19824L26.705 8.95811L20.1704 12.5835L25.3249 15.4223L31.8595 11.7972L33.5166 12.7097L25.3252 17.2213L17.1335 12.7097Z"/>
</mask>
<path fill-rule="evenodd" clip-rule="evenodd" d="M17.1335 12.7097L25.3252 8.19824L26.705 8.95811L20.1704 12.5835L25.3249 15.4223L31.8595 11.7972L33.5166 12.7097L25.3252 17.2213L17.1335 12.7097Z" fill="#00D2FF"/>
<path d="M17.1335 12.7097L9.89728 -0.429375L-13.9599 12.7097L9.89728 25.8489L17.1335 12.7097ZM25.3252 8.19824L32.5612 -4.94106L25.325 -8.92607L18.089 -4.94088L25.3252 8.19824ZM26.705 8.95811L33.9821 22.0747L57.7117 8.90955L33.941 -4.1812L26.705 8.95811ZM20.1704 12.5835L12.8933 -0.533048L-10.8357 12.6318L12.9342 25.7227L20.1704 12.5835ZM25.3249 15.4223L18.0887 28.5615L25.3512 32.5612L32.6014 28.5392L25.3249 15.4223ZM31.8595 11.7972L39.0953 -1.34217L31.8329 -5.34145L24.5831 -1.31964L31.8595 11.7972ZM33.5166 12.7097L40.7531 25.8487L64.6106 12.7088L40.7523 -0.429669L33.5166 12.7097ZM25.3252 17.2213L18.089 30.3604L25.3254 34.3458L32.5617 30.3602L25.3252 17.2213ZM17.1335 12.7097L24.3698 25.8489L32.5615 21.3374L25.3252 8.19824L18.089 -4.94088L9.89728 -0.429375L17.1335 12.7097ZM25.3252 8.19824L18.0893 21.3375L19.4691 22.0974L26.705 8.95811L33.941 -4.1812L32.5612 -4.94106L25.3252 8.19824ZM26.705 8.95811L19.428 -4.15847L12.8933 -0.533048L20.1704 12.5835L27.4474 25.7001L33.9821 22.0747L26.705 8.95811ZM20.1704 12.5835L12.9342 25.7227L18.0887 28.5615L25.3249 15.4223L32.5611 2.28314L27.4066 -0.555626L20.1704 12.5835ZM25.3249 15.4223L32.6014 28.5392L39.136 24.9141L31.8595 11.7972L24.5831 -1.31964L18.0484 2.30541L25.3249 15.4223ZM31.8595 11.7972L24.6238 24.9367L26.2808 25.8492L33.5166 12.7097L40.7523 -0.429669L39.0953 -1.34217L31.8595 11.7972ZM33.5166 12.7097L26.2801 -0.429238L18.0887 4.08227L25.3252 17.2213L32.5617 30.3602L40.7531 25.8487L33.5166 12.7097ZM25.3252 17.2213L32.5615 4.08213L24.3698 -0.429375L17.1335 12.7097L9.89728 25.8489L18.089 30.3604L25.3252 17.2213Z" fill="#0588E2" fill-opacity="0.1" mask="url(#path-3-inside-2_15779_59502)"/>
<mask id="path-5-inside-3_15779_59502" fill="white">
<path fill-rule="evenodd" clip-rule="evenodd" d="M17.1335 19.9056L19.5092 18.6204L20.889 19.3806L20.1704 19.7794L25.3249 22.6182L31.8595 18.9931L33.5166 19.9056L25.3252 24.4171L17.1335 19.9056Z"/>
</mask>
<path fill-rule="evenodd" clip-rule="evenodd" d="M17.1335 19.9056L19.5092 18.6204L20.889 19.3806L20.1704 19.7794L25.3249 22.6182L31.8595 18.9931L33.5166 19.9056L25.3252 24.4171L17.1335 19.9056Z" fill="#016AFB"/>
<path d="M17.1335 19.9056L9.99584 6.71272L-14.1726 19.7885L9.89728 33.0448L17.1335 19.9056ZM19.5092 18.6204L26.7478 5.48254L19.5747 1.53033L12.3715 5.42744L19.5092 18.6204ZM20.889 19.3806L28.168 32.4961L51.8857 19.3329L28.1276 6.24277L20.889 19.3806ZM20.1704 19.7794L12.8913 6.66394L-10.8315 19.83L12.9342 32.9186L20.1704 19.7794ZM25.3249 22.6182L18.0887 35.7574L25.3512 39.7571L32.6014 35.7351L25.3249 22.6182ZM31.8595 18.9931L39.0953 5.85372L31.8329 1.85444L24.5831 5.87625L31.8595 18.9931ZM33.5166 19.9056L40.7531 33.0446L64.6106 19.9047L40.7523 6.76623L33.5166 19.9056ZM25.3252 24.4171L18.089 37.5563L25.3254 41.5417L32.5618 37.5561L25.3252 24.4171ZM17.1335 19.9056L24.2712 33.0986L26.6469 31.8133L19.5092 18.6204L12.3715 5.42744L9.99584 6.71272L17.1335 19.9056ZM19.5092 18.6204L12.2706 31.7582L13.6504 32.5184L20.889 19.3806L28.1276 6.24277L26.7478 5.48254L19.5092 18.6204ZM20.889 19.3806L13.61 6.26511L12.8913 6.66394L20.1704 19.7794L27.4494 32.8949L28.168 32.4961L20.889 19.3806ZM20.1704 19.7794L12.9342 32.9186L18.0887 35.7574L25.3249 22.6182L32.5611 9.47904L27.4066 6.64027L20.1704 19.7794ZM25.3249 22.6182L32.6014 35.7351L39.136 32.11L31.8595 18.9931L24.5831 5.87625L18.0484 9.50131L25.3249 22.6182ZM31.8595 18.9931L24.6238 32.1326L26.2808 33.0451L33.5166 19.9056L40.7523 6.76623L39.0953 5.85372L31.8595 18.9931ZM33.5166 19.9056L26.28 6.76666L18.0887 11.2782L25.3252 24.4171L32.5618 37.5561L40.7531 33.0446L33.5166 19.9056ZM25.3252 24.4171L32.5615 11.278L24.3698 6.76652L17.1335 19.9056L9.89728 33.0448L18.089 37.5563L25.3252 24.4171Z" fill="#0588E2" fill-opacity="0.1" mask="url(#path-5-inside-3_15779_59502)"/>
<mask id="path-7-inside-4_15779_59502" fill="white">
<path fill-rule="evenodd" clip-rule="evenodd" d="M17.1335 16.3076L19.5092 15.0227L20.889 15.7826L20.1704 16.1814L25.3249 19.0202L31.8595 15.3951L33.5166 16.3076L25.3252 20.8191L17.1335 16.3076Z"/>
</mask>
<path fill-rule="evenodd" clip-rule="evenodd" d="M17.1335 16.3076L19.5092 15.0227L20.889 15.7826L20.1704 16.1814L25.3249 19.0202L31.8595 15.3951L33.5166 16.3076L25.3252 20.8191L17.1335 16.3076Z" fill="#03A0FF"/>
<path d="M17.1335 16.3076L9.99742 3.11384L-14.1761 16.1886L9.89729 29.4467L17.1335 16.3076ZM19.5092 15.0227L26.7451 1.8834L19.574 -2.06582L12.3731 1.82893L19.5092 15.0227ZM20.889 15.7826L28.168 28.8981L51.8914 15.7317L28.1249 2.64327L20.889 15.7826ZM20.1704 16.1814L12.8914 3.06591L-10.8315 16.2319L12.9342 29.3206L20.1704 16.1814ZM25.3249 19.0202L18.0887 32.1593L25.3512 36.159L32.6014 32.1371L25.3249 19.0202ZM31.8595 15.3951L39.0953 2.2557L31.8329 -1.74358L24.5831 2.27823L31.8595 15.3951ZM33.5166 16.3076L40.7531 29.4466L64.6106 16.3067L40.7523 3.1682L33.5166 16.3076ZM25.3252 20.8191L18.089 33.9582L25.3254 37.9436L32.5617 33.9581L25.3252 20.8191ZM17.1335 16.3076L24.2697 29.5014L26.6453 28.2165L19.5092 15.0227L12.3731 1.82893L9.99742 3.11384L17.1335 16.3076ZM19.5092 15.0227L12.2732 28.162L13.653 28.9219L20.889 15.7826L28.1249 2.64327L26.7451 1.8834L19.5092 15.0227ZM20.889 15.7826L13.61 2.66708L12.8914 3.06591L20.1704 16.1814L27.4494 29.2969L28.168 28.8981L20.889 15.7826ZM20.1704 16.1814L12.9342 29.3206L18.0887 32.1593L25.3249 19.0202L32.5611 5.88102L27.4066 3.04225L20.1704 16.1814ZM25.3249 19.0202L32.6014 32.1371L39.136 28.512L31.8595 15.3951L24.5831 2.27823L18.0484 5.90328L25.3249 19.0202ZM31.8595 15.3951L24.6238 28.5345L26.2808 29.447L33.5166 16.3076L40.7523 3.1682L39.0953 2.2557L31.8595 15.3951ZM33.5166 16.3076L26.2801 3.16863L18.0887 7.68014L25.3252 20.8191L32.5617 33.9581L40.7531 29.4466L33.5166 16.3076ZM25.3252 20.8191L32.5615 7.68L24.3698 3.1685L17.1335 16.3076L9.89729 29.4467L18.089 33.9582L25.3252 20.8191Z" fill="#0588E2" fill-opacity="0.1" mask="url(#path-7-inside-4_15779_59502)"/>
<path fill-rule="evenodd" clip-rule="evenodd" d="M8.8512 30.246L6.30374 24.2334C4.08323 18.9925 0.84485 22.3671 1.62063 24.7216L4.56643 33.6629C5.02952 35.0683 5.58381 36.9892 6.85667 37.864L10.8735 40.6245C11.4583 41.0265 11.8283 41.5659 11.9925 42.2564L13.1284 47.0316L20.5899 44.7931C20.0206 42.5107 19.4374 40.2316 18.8982 37.942C18.3098 35.4437 17.8154 33.9455 14.3968 33.0071L10.8283 30.4439C10.2491 30.028 9.46799 29.9907 8.8512 30.246Z" fill="#FFCEBF"/>
<path fill-rule="evenodd" clip-rule="evenodd" d="M7.76478 31.4709C7.51966 32.2665 7.793 33.1678 8.50355 33.6788L13.3356 37.1497C13.6409 37.3694 14.0665 37.3 14.2862 36.9948C14.5059 36.6895 14.4366 36.2638 14.1313 36.0441L7.76478 31.4709Z" fill="#D5A889"/>
<path fill-rule="evenodd" clip-rule="evenodd" d="M10.1309 44.9707L10.1332 47.4073C10.1337 47.9359 10.5649 48.3668 11.0936 48.3668L21.0053 48.3674C21.5396 48.3674 21.9663 47.9403 21.9657 47.406L21.9634 44.9693C21.9629 44.4407 21.5316 44.0099 21.003 44.0099C17.6991 44.0097 14.3952 44.0094 11.0912 44.0093C10.557 44.0094 10.1304 44.4364 10.1309 44.9707Z" fill="#016AFB"/>
<path fill-rule="evenodd" clip-rule="evenodd" d="M41.1488 30.246L43.6963 24.2334C45.9167 18.9925 49.1552 22.3671 48.3794 24.7216L45.4336 33.6629C44.9705 35.0683 44.4162 36.9892 43.1434 37.864L39.1266 40.6245C38.5417 41.0265 38.1717 41.5659 38.0075 42.2564L36.8716 47.0316L29.4102 44.7931C29.9794 42.5107 30.5626 40.2316 31.1019 37.942C31.6902 35.4437 32.1847 33.9455 35.6032 33.0071L39.1717 30.4439C39.7509 30.0279 40.532 29.9906 41.1488 30.246Z" fill="#FFCEBF"/>
<path fill-rule="evenodd" clip-rule="evenodd" d="M42.2352 31.4707C42.4803 32.2662 42.207 33.1676 41.4964 33.6785L36.6644 37.1494C36.3591 37.3691 35.9334 37.2998 35.7138 36.9945C35.4941 36.6893 35.5634 36.2636 35.8687 36.0439L42.2352 31.4707Z" fill="#D5A889"/>
<path fill-rule="evenodd" clip-rule="evenodd" d="M39.869 44.9706L39.8667 47.4072C39.8662 47.9358 39.435 48.3667 38.9063 48.3667C35.6024 48.3669 32.2985 48.3671 28.9946 48.3673C28.4604 48.3673 28.0336 47.9402 28.0342 47.406L28.0365 44.9693C28.037 44.4407 28.4683 44.0099 28.9969 44.0099C32.3008 44.0097 35.6047 44.0094 38.9086 44.0093C39.4429 44.0092 39.8695 44.4363 39.869 44.9706Z" fill="#016AFB"/>
</svg>
