<svg viewBox="0 0 13 13" fill="none" xmlns="http://www.w3.org/2000/svg">
<path d="M4.22642 1.40614C4.4138 0.931027 5.0862 0.931028 5.27358 1.40614L5.85426 2.87846C5.91147 3.02352 6.02629 3.13834 6.17134 3.19555L7.64367 3.77622C8.11878 3.96361 8.11878 4.636 7.64367 4.82338L6.17134 5.40406C6.02629 5.46127 5.91147 5.57609 5.85426 5.72114L5.27358 7.19347C5.0862 7.66858 4.4138 7.66858 4.22642 7.19347L3.64574 5.72114C3.58853 5.57609 3.47371 5.46127 3.32866 5.40406L1.85633 4.82338C1.38122 4.636 1.38122 3.9636 1.85633 3.77622L3.32866 3.19555C3.47371 3.13834 3.58853 3.02352 3.64574 2.87846L4.22642 1.40614Z" fill="#006FEE"/>
<path opacity="0.5" d="M8.96227 6.74563C9.06524 6.48453 9.43476 6.48453 9.53773 6.74563L9.98807 7.88748C10.0195 7.96719 10.0826 8.03029 10.1623 8.06173L11.3042 8.51207C11.5653 8.61505 11.5653 8.98456 11.3042 9.08754L10.1623 9.53788C10.0826 9.56932 10.0195 9.63242 9.98807 9.71213L9.53773 10.854C9.43476 11.1151 9.06524 11.1151 8.96227 10.854L8.51193 9.71213C8.48049 9.63242 8.41739 9.56932 8.33767 9.53788L7.19582 9.08754C6.93473 8.98456 6.93473 8.61505 7.19582 8.51207L8.33767 8.06173C8.41739 8.03029 8.48049 7.96719 8.51193 7.88748L8.96227 6.74563Z" fill="#006FEE"/>
</svg>
