<svg width="55" height="55" viewBox="0 0 55 55" fill="none" xmlns="http://www.w3.org/2000/svg">
<path d="M54.1238 26.5647C52.3659 26.2625 50.6629 25.8507 49.062 25.3407C37.3268 21.6028 30.6929 12.5215 28.5103 0.830706C28.303 -0.276827 26.6162 -0.276977 26.409 0.830706C23.8723 14.4154 15.4298 24.0222 0.868348 26.582C-0.289713 26.7855 -0.289396 28.3662 0.868982 28.5692C15.296 31.0967 23.8863 40.6853 26.4142 54.1616C26.5734 55.0107 27.5199 55.015 27.466 54.9953C27.9834 54.9947 28.4262 54.6421 28.5155 54.1595C29.8026 47.21 33.4161 37.7684 43.3231 32.2558C46.488 30.4965 50.1228 29.2508 54.1261 28.553C54.6328 28.4648 55.0006 28.046 55 27.558C54.9994 27.0699 54.6306 26.6519 54.1238 26.5647Z" fill="#03A0FF"/>
<path d="M12.0177 22.6453C8.59917 24.6248 4.80858 25.8891 0.868347 26.5818C-0.289713 26.7853 -0.289396 28.366 0.868982 28.569C15.296 31.0966 23.8863 40.6852 26.4142 54.1615C26.5734 55.0105 27.5199 55.0148 27.466 54.9952C27.9834 54.9946 28.4262 54.642 28.5155 54.1594C29.228 50.3122 30.6561 45.702 33.4675 41.417C29.6531 31.3636 22.3664 25.1058 12.0177 22.6453Z" fill="#016AFB"/>
</svg>