<svg width="64" height="64" viewBox="0 0 64 64" fill="none" xmlns="http://www.w3.org/2000/svg">
<rect width="64" height="64" rx="17.5" fill="#F0F9FF"/>
<path fill-rule="evenodd" clip-rule="evenodd" d="M10.0146 22.239L32.0083 10L35.7162 12.0624L18.1748 21.9079L32.0083 29.6156L49.5497 19.7702L54.002 22.2541L32.0083 34.4931L10.0146 22.2541V22.239Z" fill="#00D2FF"/>
<path fill-rule="evenodd" clip-rule="evenodd" d="M10.0149 41.7601L16.3881 38.2676L20.096 40.33L18.1602 41.4139L31.9937 49.1216L49.535 39.2762L53.9874 41.7601L31.9937 53.9992L10 41.7601H10.0149Z" fill="#016AFB"/>
<path fill-rule="evenodd" clip-rule="evenodd" d="M10.0149 32.0121L16.3881 28.5195L20.096 30.582L18.1602 31.6659L31.9937 39.3736L49.535 29.5282L53.9874 32.0121L31.9937 44.2511L10 32.0121H10.0149Z" fill="#03A0FF"/>
</svg>
