<svg width="146" height="146" viewBox="0 0 146 146" fill="none" xmlns="http://www.w3.org/2000/svg">
<path d="M0 28C0 12.536 12.536 0 28 0H118C133.464 0 146 12.536 146 28V118C146 133.464 133.464 146 118 146H28C12.536 146 0 133.464 0 118V28Z" fill="#ECFDF3"/>
<path d="M63.9775 49.2134V98.4269M80.382 49.2134V98.4269M60.6966 49.2134H83.6629C88.2566 49.2134 90.5535 49.2134 92.308 50.1074C93.8514 50.8937 95.1061 52.1485 95.8925 53.6919C96.7865 55.4464 96.7865 57.7433 96.7865 62.337V85.3033C96.7865 89.897 96.7865 92.1938 95.8925 93.9484C95.1061 95.4917 93.8514 96.7465 92.308 97.5329C90.5535 98.4269 88.2566 98.4269 83.6629 98.4269H60.6966C56.1029 98.4269 53.8061 98.4269 52.0515 97.5329C50.5082 96.7465 49.2534 95.4917 48.467 93.9484C47.573 92.1938 47.573 89.897 47.573 85.3033V62.337C47.573 57.7433 47.573 55.4464 48.467 53.6919C49.2534 52.1485 50.5082 50.8937 52.0515 50.1074C53.8061 49.2134 56.1029 49.2134 60.6966 49.2134Z" stroke="#087443" stroke-width="2" stroke-linecap="round" stroke-linejoin="round"/>
</svg>
