<svg xmlns="http://www.w3.org/2000/svg" viewBox="0 0 16 14" fill="none"><path fill="currentColor" stroke="currentColor" stroke-width=".45" d="M14.873 2.049h-3.357V1.27a.852.852 0 0 0-.857-.853H5.341a.86.86 0 0 0-.857.853v.778H1.127a.63.63 0 0 0-.627.624v7.425a.623.623 0 0 0 .627.625H6.96V12.3l-1.638.642a.214.214 0 0 0-.121.276.214.214 0 0 0 .278.12l2.146-.84c.364-.165.775-.004 1.116.144.003 0 1.832.712 1.859.712a.215.215 0 0 0 .207-.174.213.213 0 0 0-.129-.238L9.04 12.3v-1.577h5.833a.63.63 0 0 0 .627-.625V2.673a.623.623 0 0 0-.627-.624Zm-3.357 2.264 1.63-.006.007 4.55h-1.637V4.313ZM4.912 1.271a.426.426 0 0 1 .429-.427h5.318a.43.43 0 0 1 .429.427v7.586H4.912V1.271ZM2.854 8.865l-.008-4.55h1.638V8.86l-1.63.006Zm5.757 3.268a1.494 1.494 0 0 0-1.222 0v-1.41H8.61v1.41Zm6.46-2.034a.197.197 0 0 1-.198.197H1.127a.199.199 0 0 1-.199-.197V2.672a.197.197 0 0 1 .199-.198h3.357V3.89H2.846a.422.422 0 0 0-.42.418v4.558a.418.418 0 0 0 .42.419h10.307a.422.422 0 0 0 .421-.42V4.308a.419.419 0 0 0-.42-.418h-1.638V2.475h3.357a.2.2 0 0 1 .199.198v7.425Z"/><path fill="currentColor" fill-rule="evenodd" stroke="currentColor" stroke-width=".2" d="M9.29 5.419H5.972a.215.215 0 0 1-.214-.214V2.62a.213.213 0 0 1 .214-.21.215.215 0 0 1 .214.21v2.372h.886V3.5a.213.213 0 0 1 .214-.21.215.215 0 0 1 .214.21v1.493h.855V4.47a.213.213 0 0 1 .214-.21.215.215 0 0 1 .214.21v.523h.507a.215.215 0 0 1 .215.213.213.213 0 0 1-.215.214Z" clip-rule="evenodd"/><path fill="currentColor" stroke="currentColor" stroke-width=".2" d="M7.762 1.842c-.01.01.16 1.161.157 1.172a.213.213 0 0 0 .24.179.214.214 0 0 0 .185-.236l-.073-.533 1.465 1.458a.214.214 0 0 0 .35-.233.215.215 0 0 0-.047-.069L8.574 2.122l.536.073a.215.215 0 0 0 .237-.183.212.212 0 0 0-.18-.24l-1.165-.157a.216.216 0 0 0-.226.135.213.213 0 0 0-.014.092ZM5.93 6.82h4.01a.162.162 0 0 0 .123-.065.241.241 0 0 0 .05-.15.242.242 0 0 0-.05-.15.162.162 0 0 0-.122-.064H5.93a.162.162 0 0 0-.122.064.241.241 0 0 0-.05.15c0 .056.018.11.05.15.032.04.076.063.122.064ZM5.93 8.01h4.01a.162.162 0 0 0 .123-.064.241.241 0 0 0 .05-.15.242.242 0 0 0-.05-.15.162.162 0 0 0-.122-.064H5.93a.162.162 0 0 0-.122.064.241.241 0 0 0-.05.15c0 .056.018.11.05.15.032.04.076.063.122.065Z"/></svg>