<svg viewBox="0 0 17 18" fill="none" xmlns="http://www.w3.org/2000/svg">
<path d="M15.9668 8.58336C15.9697 9.68325 15.7127 10.7683 15.2168 11.75C14.6288 12.9265 13.7249 13.916 12.6063 14.6078C11.4878 15.2995 10.1987 15.6662 8.88346 15.6667C7.78357 15.6696 6.69856 15.4126 5.7168 14.9167L0.966797 16.5L2.55013 11.75C2.05424 10.7683 1.79726 9.68325 1.80013 8.58336C1.80064 7.26815 2.16731 5.97907 2.85906 4.86048C3.55082 3.7419 4.54034 2.838 5.7168 2.25002C6.69856 1.75413 7.78357 1.49716 8.88346 1.50002H9.30013C11.0371 1.59585 12.6777 2.32899 13.9077 3.55907C15.1378 4.78915 15.871 6.42973 15.9668 8.16669V8.58336Z" stroke="currentColor" stroke-width="1.66667" stroke-linecap="round" stroke-linejoin="round"/>
</svg>
