<svg viewBox="0 0 16 16" fill="none" xmlns="http://www.w3.org/2000/svg">
<path fill-rule="evenodd" clip-rule="evenodd" d="M4.12677 4.08688C3.94626 4.08688 3.78503 4.0939 3.63739 4.11231C3.63017 4.11321 3.62294 4.11397 3.61569 4.11459C2.71541 4.19137 2.11827 4.48607 1.73761 4.93271C1.35084 5.38653 1.11735 6.0792 1.11735 7.08887V10.0611C1.11735 11.4993 1.41065 12.1798 1.8191 12.5356C2.24633 12.9077 2.94782 13.0631 4.12677 13.0631H4.42473C4.62042 13.0631 4.80284 13.1252 4.94023 13.1945C5.07798 13.264 5.23158 13.3714 5.34524 13.5196L5.34841 13.5238L6.24305 14.7137C6.35181 14.859 6.45424 14.8854 6.51046 14.8854C6.56668 14.8854 6.66911 14.859 6.77787 14.7137L6.77863 14.7127L7.6725 13.5238C7.88974 13.2348 8.23412 13.0631 8.59619 13.0631H8.89415C9.90724 13.0631 10.6015 12.8316 11.056 12.4468C11.5031 12.0684 11.7987 11.4732 11.8758 10.5711C11.8764 10.5638 11.8772 10.5565 11.8781 10.5493C11.8965 10.402 11.9036 10.2412 11.9036 10.0611V7.08887C11.9036 5.99003 11.6277 5.26678 11.1742 4.81441C10.7208 4.36204 9.99571 4.08688 8.89415 4.08688H4.12677ZM3.50981 3.00497C3.7161 2.97988 3.92355 2.97229 4.12677 2.97229H8.89415C10.1688 2.97229 11.2278 3.29159 11.9643 4.02627C12.7008 4.76095 13.0209 5.81733 13.0209 7.08887V10.0611C13.0209 10.2638 13.0133 10.4707 12.9882 10.6765C12.8923 11.7758 12.5102 12.6777 11.779 13.2967C11.0529 13.9113 10.0636 14.1777 8.89415 14.1777H8.59619C8.59234 14.1777 8.5864 14.1787 8.57973 14.182C8.57307 14.1853 8.56869 14.1895 8.56638 14.1925L7.67327 15.3804C7.67315 15.3806 7.67339 15.3803 7.67327 15.3804C7.38725 15.7624 6.97176 16 6.51046 16C6.04916 16 5.63404 15.7629 5.34802 15.3809C5.34789 15.3808 5.34814 15.3811 5.34802 15.3809L4.46544 14.2071C4.45906 14.2023 4.44896 14.1957 4.43623 14.1893C4.42476 14.1835 4.41497 14.1798 4.40837 14.1777H4.12677C2.92948 14.1777 1.84692 14.0395 1.08416 13.3751C0.302629 12.6943 0 11.5952 0 10.0611V7.08887C0 5.92135 0.269329 4.93471 0.886319 4.21077C1.50741 3.48202 2.41113 3.10063 3.50981 3.00497Z" fill="currentColor"/>
<path fill-rule="evenodd" clip-rule="evenodd" d="M4.22651 2.97237H8.89427C10.169 2.97237 11.228 3.29168 11.9645 4.02635C12.7009 4.76103 13.021 5.81742 13.021 7.08895V9.96215C13.5787 9.82552 13.9808 9.57852 14.2633 9.24756C14.6496 8.79501 14.8833 8.10275 14.8833 7.08895V4.1167C14.8833 3.01786 14.6075 2.29461 14.154 1.84224C13.7005 1.38987 12.9754 1.11472 11.8739 1.11472H7.10651C6.09434 1.11472 5.39995 1.34762 4.94501 1.73344C4.61244 2.01548 4.36391 2.41665 4.22651 2.97237ZM4.22128 0.884252C4.94702 0.268786 5.9361 0.00012207 7.10651 0.00012207H11.8739C13.1486 0.00012207 14.2076 0.319424 14.9441 1.0541C15.6806 1.78878 16.0007 2.84517 16.0007 4.1167V7.08895C16.0007 8.25975 15.7315 9.24681 15.1141 9.97016C14.4905 10.7006 13.5827 11.0797 12.4802 11.1738C12.3122 11.1881 12.1467 11.126 12.0299 11.0048C11.913 10.8836 11.8573 10.7162 11.8782 10.5494C11.8967 10.4021 11.9037 10.2413 11.9037 10.0612V7.08895C11.9037 5.99011 11.6279 5.26686 11.1744 4.81449C10.7209 4.36212 9.99583 4.08697 8.89427 4.08697H4.12689C3.94639 4.08697 3.78515 4.09398 3.63751 4.11239C3.47024 4.13325 3.30247 4.07765 3.18096 3.96109C3.05946 3.84453 2.99721 3.67947 3.01157 3.51192C3.10592 2.41114 3.48836 1.50581 4.22128 0.884252Z" fill="currentColor"/>
<path fill-rule="evenodd" clip-rule="evenodd" d="M8.37695 8.91701C8.37695 8.50663 8.71046 8.17395 9.12186 8.17395H9.12856C9.53996 8.17395 9.87346 8.50663 9.87346 8.91701C9.87346 9.3274 9.53996 9.66008 9.12856 9.66008H9.12186C8.71046 9.66008 8.37695 9.3274 8.37695 8.91701Z" fill="currentColor"/>
<path fill-rule="evenodd" clip-rule="evenodd" d="M5.76953 8.91701C5.76953 8.50663 6.10304 8.17395 6.51443 8.17395H6.52114C6.93254 8.17395 7.26604 8.50663 7.26604 8.91701C7.26604 9.3274 6.93254 9.66008 6.52114 9.66008H6.51443C6.10304 9.66008 5.76953 9.3274 5.76953 8.91701Z" fill="currentColor"/>
<path fill-rule="evenodd" clip-rule="evenodd" d="M3.16211 8.91701C3.16211 8.50663 3.49561 8.17395 3.90701 8.17395H3.91372C4.32512 8.17395 4.65862 8.50663 4.65862 8.91701C4.65862 9.3274 4.32512 9.66008 3.91372 9.66008H3.90701C3.49561 9.66008 3.16211 9.3274 3.16211 8.91701Z" fill="currentColor"/>
</svg>
