<svg xmlns="http://www.w3.org/2000/svg" width="360" height="360" fill="none"><path fill="#7147E8" d="M259.568 122.885c5.494 5.493 5.494 14.397 0 19.888l-94.339 94.342c-5.493 5.491-14.395 5.491-19.888 0l-44.909-44.912c-5.494-5.49-5.494-14.395 0-19.885 5.49-5.493 14.394-5.493 19.885 0l34.967 34.967 84.396-84.4c5.494-5.491 14.398-5.491 19.888 0ZM360 180c0 99.495-80.519 180-180 180C80.505 360 0 279.481 0 180 0 80.505 80.519 0 180 0c99.495 0 180 80.519 180 180Zm-28.125 0c0-83.95-67.937-151.875-151.875-151.875C96.05 28.125 28.125 96.062 28.125 180c0 83.949 67.937 151.875 151.875 151.875 83.949 0 151.875-67.937 151.875-151.875Z"/></svg>