<svg width="16" height="16" viewBox="0 0 16 16" fill="none" xmlns="http://www.w3.org/2000/svg">
<path d="M15.0711 2.55057C14.8504 2.32952 14.4924 2.32914 14.2717 2.54963L7.48968 9.31375L5.04274 6.65614C4.83131 6.42663 4.47383 6.41175 4.24393 6.62315C4.01422 6.83459 3.99951 7.19225 4.21094 7.42196L7.05644 10.5122C7.16064 10.6255 7.30648 10.6913 7.46026 10.6945C7.46439 10.6946 7.46838 10.6946 7.47233 10.6946C7.62178 10.6946 7.76554 10.6353 7.87145 10.5297L15.07 3.35011C15.2912 3.12965 15.2916 2.77161 15.0711 2.55057Z" fill="#7147E8" stroke="#7147E8" stroke-width="0.2"/>
<path d="M14.9347 7.43466C14.6224 7.43466 14.3693 7.68772 14.3693 8C14.3693 11.5122 11.5122 14.3693 8 14.3693C4.48801 14.3693 1.63065 11.5122 1.63065 8C1.63065 4.48801 4.48801 1.63065 8 1.63065C8.31225 1.63065 8.56534 1.37759 8.56534 1.06534C8.56534 0.753066 8.31225 0.5 8 0.5C3.86445 0.5 0.5 3.86445 0.5 8C0.5 12.1354 3.86445 15.5 8 15.5C12.1354 15.5 15.5 12.1354 15.5 8C15.5 7.68775 15.2469 7.43466 14.9347 7.43466Z" fill="#7147E8" stroke="#7147E8" stroke-width="0.2"/>
</svg>
