<svg viewBox="0 0 16 17" fill="none" xmlns="http://www.w3.org/2000/svg">
<g clip-path="url(#clip0_12619_6018)">
<path d="M14.9474 5.30082L14.5263 5.06503C14.5347 4.94729 14.5347 4.82909 14.5263 4.71135C14.5347 4.5936 14.5347 4.47541 14.5263 4.35766L14.9474 4.12188C14.9976 4.09604 15.0422 4.06036 15.0783 4.01696C15.1145 3.97356 15.1416 3.92332 15.1579 3.86924C15.1847 3.76108 15.1697 3.64679 15.1158 3.54924L14.2737 2.0924C14.2466 2.0421 14.2095 1.99783 14.1648 1.96231C14.12 1.92679 14.0685 1.90075 14.0133 1.88578C13.9582 1.87082 13.9006 1.86723 13.844 1.87524C13.7874 1.88326 13.733 1.90271 13.6842 1.9324L13.2632 2.1724C13.0746 2.03048 12.8696 1.91174 12.6526 1.81872V1.34293C12.6526 1.23126 12.6083 1.12416 12.5293 1.0452C12.4504 0.966236 12.3433 0.921875 12.2316 0.921875H10.5474C10.4357 0.921875 10.3286 0.966236 10.2496 1.0452C10.1707 1.12416 10.1263 1.23126 10.1263 1.34293V1.81872C9.91222 1.9173 9.71019 2.04021 9.52422 2.18503L9.10316 1.94503C9.00648 1.89014 8.89202 1.87571 8.78474 1.9049C8.67746 1.93408 8.58608 2.00451 8.53053 2.10082L7.68843 3.55766C7.66071 3.60561 7.64272 3.65856 7.6355 3.71347C7.62827 3.76838 7.63195 3.82418 7.64632 3.87766C7.67434 3.98554 7.744 4.0779 7.84001 4.13451L8.26106 4.3703C8.23298 4.60525 8.23298 4.84271 8.26106 5.07766L7.84001 5.31345C7.744 5.37006 7.67434 5.46242 7.64632 5.5703C7.63195 5.62378 7.62827 5.67958 7.6355 5.73449C7.64272 5.7894 7.66071 5.84235 7.68843 5.8903L8.53053 7.34714C8.58608 7.44345 8.67746 7.51388 8.78474 7.54306C8.89202 7.57225 9.00648 7.55782 9.10316 7.50293L9.52422 7.26293C9.71345 7.4039 9.91832 7.52258 10.1347 7.61661V8.07977C10.1347 8.19144 10.1791 8.29854 10.2581 8.3775C10.337 8.45646 10.4441 8.50082 10.5558 8.50082H12.24C12.3517 8.50082 12.4588 8.45646 12.5377 8.3775C12.6167 8.29854 12.6611 8.19144 12.6611 8.07977V7.60398C12.8786 7.50699 13.0836 7.38399 13.2716 7.23766L13.6926 7.47766C13.7407 7.5055 13.7938 7.52356 13.8488 7.5308C13.9039 7.53803 13.9599 7.5343 14.0135 7.51982C14.0671 7.50534 14.1173 7.4804 14.1613 7.44642C14.2052 7.41245 14.242 7.37012 14.2695 7.32188L15.1116 5.86503C15.1648 5.77038 15.1812 5.65948 15.1579 5.55345C15.1416 5.49937 15.1145 5.44914 15.0783 5.40574C15.0422 5.36233 14.9976 5.32665 14.9474 5.30082ZM13.6842 4.22714C13.7516 4.54643 13.7516 4.87627 13.6842 5.19556C13.6652 5.283 13.6746 5.37421 13.7109 5.45598C13.7472 5.53774 13.8087 5.60581 13.8863 5.6503L14.1811 5.81872L13.76 6.55135L13.44 6.39556C13.3627 6.35141 13.2733 6.33292 13.1848 6.34276C13.0963 6.35259 13.0131 6.39024 12.9474 6.4503C12.705 6.67069 12.4177 6.8359 12.1053 6.93451C12.0209 6.96203 11.9473 7.01554 11.8951 7.08738C11.8429 7.15922 11.8148 7.24572 11.8147 7.33451V7.65872H10.9726V7.31345C10.9726 7.22466 10.9444 7.13817 10.8923 7.06633C10.8401 6.99449 10.7665 6.94098 10.6821 6.91345C10.3705 6.81293 10.0836 6.64795 9.84001 6.42924C9.77264 6.37435 9.68994 6.34164 9.60324 6.33561C9.51655 6.32958 9.43011 6.35052 9.3558 6.39556L9.05685 6.5724L8.6358 5.83977L8.93474 5.67135C9.01161 5.62625 9.07218 5.55792 9.10774 5.47621C9.1433 5.39449 9.15202 5.3036 9.13264 5.21661C9.06526 4.89732 9.06526 4.56748 9.13264 4.24819C9.15202 4.1612 9.1433 4.07031 9.10774 3.9886C9.07218 3.90688 9.01161 3.83855 8.93474 3.79345L8.6358 3.62503L9.05685 2.8924L9.3558 3.06924C9.43314 3.11339 9.5225 3.13188 9.61102 3.12204C9.69954 3.11221 9.78266 3.07456 9.84843 3.01451C10.092 2.7958 10.379 2.63082 10.6905 2.5303C10.7749 2.50277 10.8485 2.44926 10.9007 2.37742C10.9529 2.30558 10.981 2.21909 10.9811 2.1303V1.76398H11.8232V2.10924C11.8232 2.19803 11.8514 2.28453 11.9035 2.35637C11.9557 2.42821 12.0293 2.48172 12.1137 2.50924C12.4261 2.60785 12.7134 2.77306 12.9558 2.99345C13.0216 3.05351 13.1047 3.09116 13.1932 3.10099C13.2817 3.11083 13.3711 3.09234 13.4484 3.04819L13.7474 2.87135L14.1684 3.60398L13.8737 3.7724C13.7945 3.81564 13.7313 3.88317 13.6934 3.96504C13.6555 4.04691 13.6449 4.13879 13.6632 4.22714H13.6842Z" fill="#292929"/>
<path d="M11.3979 3.02734C11.0648 3.02734 10.7392 3.12612 10.4622 3.31118C10.1852 3.49625 9.96936 3.75929 9.84189 4.06703C9.71441 4.37478 9.68106 4.71342 9.74605 5.04013C9.81103 5.36683 9.97144 5.66693 10.207 5.90247C10.4425 6.13801 10.7426 6.29842 11.0693 6.3634C11.396 6.42839 11.7347 6.39504 12.0424 6.26756C12.3502 6.14009 12.6132 5.92422 12.7983 5.64725C12.9833 5.37028 13.0821 5.04466 13.0821 4.71155C13.0821 4.26487 12.9047 3.83649 12.5888 3.52064C12.273 3.20479 11.8446 3.02734 11.3979 3.02734ZM11.3979 5.55366C11.2313 5.55366 11.0685 5.50427 10.93 5.41174C10.7916 5.31921 10.6836 5.18769 10.6199 5.03381C10.5562 4.87994 10.5395 4.71062 10.572 4.54727C10.6045 4.38392 10.6847 4.23387 10.8024 4.1161C10.9202 3.99833 11.0703 3.91812 11.2336 3.88563C11.397 3.85314 11.5663 3.86981 11.7202 3.93355C11.874 3.99729 12.0055 4.10522 12.0981 4.24371C12.1906 4.38219 12.24 4.545 12.24 4.71155C12.24 4.93489 12.1513 5.14909 11.9934 5.30701C11.8354 5.46494 11.6212 5.55366 11.3979 5.55366Z" fill="#292929"/>
<path d="M9.98738 10.0332L8.93475 8.20588C8.87814 8.10987 8.78578 8.04022 8.67791 8.0122C8.62442 7.99782 8.56862 7.99414 8.51371 8.00137C8.4588 8.00859 8.40585 8.02658 8.35791 8.0543L7.78106 8.38693C7.51631 8.18316 7.22615 8.01472 6.91791 7.88588V7.23746C6.91791 7.12579 6.87354 7.01869 6.79458 6.93973C6.71562 6.86077 6.60852 6.81641 6.49685 6.81641H4.39159C4.27992 6.81641 4.17282 6.86077 4.09386 6.93973C4.0149 7.01869 3.97054 7.12579 3.97054 7.23746V7.90272C3.66948 8.03288 3.38645 8.20129 3.12843 8.40377L2.52633 8.0543C2.43015 7.99905 2.31607 7.98398 2.20885 8.01237C2.10163 8.04075 2.00994 8.11029 1.9537 8.20588L0.896853 10.0332C0.84196 10.1299 0.827532 10.2444 0.856718 10.3517C0.885904 10.459 0.956335 10.5503 1.05264 10.6059L1.62948 10.9385C1.60505 11.1072 1.59379 11.2775 1.5958 11.448C1.59455 11.6156 1.60581 11.7831 1.62948 11.949L1.05264 12.2901C0.956335 12.3456 0.885904 12.437 0.856718 12.5443C0.827532 12.6516 0.84196 12.766 0.896853 12.8627L1.9537 14.6901C1.9813 14.7384 2.01822 14.7808 2.0623 14.8148C2.10639 14.8487 2.15677 14.8736 2.21054 14.888C2.26529 14.8975 2.32139 14.8961 2.37559 14.8838C2.42979 14.8715 2.48102 14.8486 2.52633 14.8164L3.10738 14.4796C3.3644 14.6835 3.64763 14.852 3.94949 14.9806V15.6585C3.94949 15.7702 3.99385 15.8773 4.07281 15.9562C4.15177 16.0352 4.25887 16.0796 4.37054 16.0796H6.4758C6.58747 16.0796 6.69457 16.0352 6.77353 15.9562C6.85249 15.8773 6.89685 15.7702 6.89685 15.6585V14.9932C7.20592 14.8661 7.49629 14.6975 7.76001 14.4922L8.33685 14.829C8.43453 14.8825 8.54867 14.8975 8.65685 14.8711C8.71062 14.8568 8.761 14.8319 8.80509 14.7979C8.84917 14.7639 8.88609 14.7216 8.9137 14.6732L9.96633 12.8459C9.99405 12.7979 10.012 12.745 10.0193 12.6901C10.0265 12.6352 10.0228 12.5794 10.0084 12.5259C9.97942 12.4196 9.90988 12.3289 9.81475 12.2732L9.26317 11.9406C9.28311 11.7772 9.29296 11.6126 9.29264 11.448C9.29365 11.2791 9.28381 11.1103 9.26317 10.9427L9.8358 10.6059C9.93139 10.5496 10.0009 10.4579 10.0293 10.3507C10.0577 10.2435 10.0426 10.1294 9.98738 10.0332ZM8.38317 10.8122C8.42693 11.0213 8.4495 11.2343 8.45054 11.448C8.44894 11.6602 8.42638 11.8718 8.38317 12.0796C8.36513 12.1664 8.37496 12.2567 8.41125 12.3376C8.44754 12.4185 8.50844 12.4858 8.58527 12.5301L9.04843 12.7996L8.42106 13.8859L7.9537 13.6164C7.87635 13.5723 7.78699 13.5538 7.69847 13.5636C7.60995 13.5734 7.52683 13.6111 7.46106 13.6711C7.14694 13.9563 6.77496 14.1703 6.37054 14.2985C6.2826 14.3271 6.20651 14.3838 6.154 14.4599C6.10149 14.536 6.07549 14.6272 6.08001 14.7196V15.2375H4.81685V14.7027C4.82137 14.6104 4.79537 14.5191 4.74286 14.443C4.69036 14.3669 4.61426 14.3102 4.52633 14.2817C4.12372 14.1522 3.75337 13.9383 3.44001 13.6543C3.37236 13.5969 3.28831 13.5623 3.19984 13.5555C3.11137 13.5487 3.02301 13.57 2.94738 13.6164L2.48001 13.8859L1.84843 12.7911L2.31159 12.5217C2.39074 12.4793 2.45427 12.4127 2.4929 12.3317C2.53154 12.2506 2.54325 12.1593 2.52633 12.0711C2.4747 11.8672 2.44505 11.6583 2.43791 11.448C2.44367 11.2334 2.47332 11.0202 2.52633 10.8122C2.54533 10.7248 2.53598 10.6335 2.49964 10.5518C2.4633 10.47 2.40186 10.4019 2.32422 10.3575L1.86106 10.0922L2.49264 8.99325L2.94738 9.26272C3.0243 9.30743 3.11341 9.32662 3.20191 9.31754C3.29041 9.30846 3.37377 9.27158 3.44001 9.2122C3.75313 8.92688 4.12346 8.71157 4.52633 8.58062C4.61426 8.55207 4.69036 8.49537 4.74286 8.41927C4.79537 8.34317 4.82137 8.25191 4.81685 8.15956V7.65851H6.08001V8.19746C6.07549 8.2898 6.10149 8.38107 6.154 8.45716C6.20651 8.53326 6.2826 8.58996 6.37054 8.61851C6.77469 8.74939 7.14641 8.96468 7.46106 9.25009C7.52731 9.30948 7.61066 9.34636 7.69917 9.35543C7.78767 9.36451 7.87677 9.34532 7.9537 9.30062L8.42106 8.99325L9.05264 10.0922L8.58948 10.3575C8.51108 10.4013 8.44876 10.4691 8.41164 10.5509C8.37452 10.6328 8.36454 10.7243 8.38317 10.8122Z" fill="#292929"/>
<path d="M5.44421 9.4375C5.04799 9.4375 4.66067 9.55494 4.33117 9.77498C4.00167 9.99502 3.74478 10.3078 3.59297 10.6738C3.44115 11.0397 3.40121 11.4425 3.47821 11.8312C3.5552 12.2198 3.74566 12.577 4.02554 12.8574C4.30541 13.1379 4.66213 13.3291 5.05063 13.4069C5.43913 13.4847 5.84198 13.4456 6.20827 13.2946C6.57457 13.1435 6.88787 12.8873 7.1086 12.5583C7.32933 12.2292 7.44759 11.8421 7.44842 11.4459C7.44897 11.1824 7.39754 10.9213 7.29707 10.6777C7.1966 10.434 7.04905 10.2126 6.86289 10.026C6.67673 9.83945 6.4556 9.69145 6.21216 9.59046C5.96872 9.48948 5.70776 9.4375 5.44421 9.4375ZM5.44421 12.5996C5.21401 12.5996 4.989 12.5312 4.79771 12.4032C4.60643 12.2751 4.45749 12.0931 4.36978 11.8803C4.28208 11.6674 4.25956 11.4333 4.30509 11.2077C4.35062 10.982 4.46213 10.775 4.6255 10.6128C4.78887 10.4506 4.99672 10.3406 5.2227 10.2967C5.44868 10.2528 5.6826 10.277 5.89479 10.3663C6.10699 10.4555 6.2879 10.6058 6.41457 10.798C6.54125 10.9902 6.60798 11.2157 6.60631 11.4459C6.603 11.7523 6.47923 12.0451 6.26177 12.261C6.04431 12.4769 5.75063 12.5985 5.44421 12.5996Z" fill="#292929"/>
</g>
<defs>
<clipPath id="clip0_12619_6018">
<rect width="16" height="16" fill="white" transform="translate(0 0.5)"/>
</clipPath>
</defs>
</svg>
