<svg width="20" height="20" viewBox="0 0 20 20" fill="none" xmlns="http://www.w3.org/2000/svg">
<path d="M7.11914 7H5.19914" stroke="currentColor" stroke-width="1.3" stroke-linecap="round"/>
<path d="M7.11914 10.2002H5.19914" stroke="currentColor" stroke-width="1.3" stroke-linecap="round"/>
<path d="M10 6.2C10 5.35131 9.66286 4.53737 9.06274 3.93726C8.46263 3.33714 7.64869 3 6.8 3H5.2C4.07989 3 3.51984 3 3.09202 3.21799C2.71569 3.40973 2.40973 3.71569 2.21799 4.09202C2 4.51984 2 5.07989 2 6.2V11.8C2 12.9201 2 13.4802 2.21799 13.908C2.40973 14.2843 2.71569 14.5903 3.09202 14.782C3.51984 15 4.07989 15 5.2 15H7.6C8.23652 15 8.84697 15.2529 9.29706 15.7029C9.74714 16.153 10 16.7635 10 17.4M10 6.2V17.4M10 6.2C10 5.35131 10.3371 4.53737 10.9373 3.93726C11.5374 3.33714 12.3513 3 13.2 3H14.8C15.9201 3 16.4802 3 16.908 3.21799C17.2843 3.40973 17.5903 3.71569 17.782 4.09202C18 4.51984 18 5.07989 18 6.2V11.8C18 12.9201 18 13.4802 17.782 13.908C17.5903 14.2843 17.2843 14.5903 16.908 14.782C16.4802 15 15.9201 15 14.8 15H12.4C11.7635 15 11.153 15.2529 10.7029 15.7029C10.2529 16.153 10 16.7635 10 17.4" stroke="currentColor" stroke-width="1.3" stroke-linecap="round" stroke-linejoin="round"/>
</svg>
