<svg  viewBox="0 0 20 20" fill="none" xmlns="http://www.w3.org/2000/svg">
<path d="M4.16667 12.5C3.3901 12.5 3.00182 12.5 2.69553 12.3731C2.28715 12.204 1.9627 11.8795 1.79354 11.4711C1.66667 11.1649 1.66667 10.7766 1.66667 10V4.33334C1.66667 3.39992 1.66667 2.93321 1.84833 2.57669C2.00812 2.26308 2.26308 2.00812 2.57669 1.84833C2.93321 1.66667 3.39992 1.66667 4.33334 1.66667H10C10.7766 1.66667 11.1649 1.66667 11.4711 1.79354C11.8795 1.9627 12.204 2.28715 12.3731 2.69553C12.5 3.00182 12.5 3.3901 12.5 4.16667M10.1667 18.3333H15.6667C16.6001 18.3333 17.0668 18.3333 17.4233 18.1517C17.7369 17.9919 17.9919 17.7369 18.1517 17.4233C18.3333 17.0668 18.3333 16.6001 18.3333 15.6667V10.1667C18.3333 9.23325 18.3333 8.76654 18.1517 8.41002C17.9919 8.09642 17.7369 7.84145 17.4233 7.68166C17.0668 7.50001 16.6001 7.50001 15.6667 7.50001H10.1667C9.23325 7.50001 8.76654 7.50001 8.41002 7.68166C8.09642 7.84145 7.84145 8.09642 7.68166 8.41002C7.50001 8.76654 7.50001 9.23325 7.50001 10.1667V15.6667C7.50001 16.6001 7.50001 17.0668 7.68166 17.4233C7.84145 17.7369 8.09642 17.9919 8.41002 18.1517C8.76654 18.3333 9.23325 18.3333 10.1667 18.3333Z" stroke="#A4A7AE" stroke-width="1.66667" stroke-linecap="round" stroke-linejoin="round"/>
</svg>
