<svg xmlns="http://www.w3.org/2000/svg" width="32" height="32" fill="none"><path fill="#fff" d="M27.314 4.686A15.895 15.895 0 0 0 16 0 15.895 15.895 0 0 0 4.686 4.686 15.895 15.895 0 0 0 0 16c0 4.274 1.664 8.292 4.686 11.314.224.224.534.31.824.26h.001l7.575-1.326a.938.938 0 0 0 .501-.26L25.77 13.804a.937.937 0 0 0 0-1.326l-6.25-6.25a.937.937 0 0 0-1.325 0L6.012 18.413a.937.937 0 0 0-.26.501l-.989 5.648A14.017 14.017 0 0 1 1.875 16C1.875 8.211 8.211 1.875 16 1.875S30.125 8.211 30.125 16 23.789 30.125 16 30.125A.938.938 0 0 0 16 32c4.274 0 8.292-1.664 11.314-4.686A15.895 15.895 0 0 0 32 16c0-4.274-1.664-8.292-4.686-11.314ZM7.288 21.013l3.698 3.699-4.483.785.785-4.484Zm5.636 2.985L11.126 22.2l10.856-10.857 1.799 1.799-10.857 10.856Zm5.933-15.78 1.8 1.8L9.8 20.874 8 19.075 18.858 8.218Z"/></svg>