<svg width="80" height="80" viewBox="0 0 80 80" fill="none" xmlns="http://www.w3.org/2000/svg">
<path fill-rule="evenodd" clip-rule="evenodd" d="M44.1975 16.2551H15C14.0054 16.2551 13.0516 16.6502 12.3483 17.3534C11.6451 18.0567 11.25 19.0105 11.25 20.0051H68.75V14.7188C68.75 13.9943 68.4623 13.2995 67.9501 12.7871C67.4379 12.2747 66.7432 11.9867 66.0187 11.9863H48.75C48.1079 11.9864 47.4773 12.1562 46.9219 12.4784C46.3666 12.8007 45.9062 13.2639 45.5875 13.8213L44.1975 16.2551Z" fill="#1471EF"/>
<path fill-rule="evenodd" clip-rule="evenodd" d="M69.9588 54.7875L73.5788 28.7237C73.6887 27.9274 73.6269 27.1168 73.3973 26.3464C73.1678 25.5761 72.7759 24.8638 72.2481 24.2575C71.7202 23.6513 71.0687 23.1651 70.3372 22.8318C69.6057 22.4984 68.8114 22.3256 68.0075 22.325H11.9925C11.1886 22.3254 10.3941 22.4981 9.66257 22.8314C8.93101 23.1647 8.27935 23.6508 7.75146 24.2571C7.22357 24.8634 6.83171 25.5758 6.60226 26.3462C6.37281 27.1167 6.31109 27.9274 6.42127 28.7237L8.31001 42.3262C8.33272 42.4905 8.41976 42.639 8.55197 42.7391C8.68419 42.8392 8.85075 42.8827 9.01502 42.8599C9.17928 42.8372 9.3278 42.7502 9.4279 42.618C9.528 42.4858 9.57147 42.3192 9.54877 42.1549L7.65876 28.5524C7.57326 27.933 7.62141 27.3025 7.79997 26.7033C7.97854 26.104 8.28337 25.55 8.69396 25.0784C9.10455 24.6068 9.61138 24.2286 10.1804 23.9693C10.7493 23.71 11.3672 23.5755 11.9925 23.575H68.0075C68.6328 23.5755 69.2507 23.71 69.8197 23.9693C70.3886 24.2286 70.8955 24.6068 71.3061 25.0784C71.7167 25.55 72.0215 26.104 72.2001 26.7033C72.3786 27.3025 72.4268 27.933 72.3413 28.5524L68.7213 54.615C68.7073 54.6974 68.71 54.7818 68.7293 54.8632C68.7485 54.9445 68.7839 55.0212 68.8333 55.0887C68.8827 55.1561 68.9452 55.213 69.017 55.2559C69.0887 55.2987 69.1684 55.3268 69.2512 55.3383C69.334 55.3499 69.4183 55.3447 69.4991 55.3231C69.5799 55.3014 69.6555 55.2638 69.7214 55.2125C69.7874 55.1611 69.8424 55.097 69.8832 55.024C69.924 54.951 69.9497 54.8706 69.9588 54.7875ZM8.87502 46.3974L11.2825 63.7237C11.4693 65.0685 12.1362 66.3005 13.1601 67.1921C14.1841 68.0837 15.496 68.5749 16.8538 68.575H63.1463C64.1779 68.5753 65.1898 68.2918 66.0713 67.7557C66.9527 67.2195 67.6697 66.4512 68.1438 65.535C68.1815 65.4621 68.2046 65.3825 68.2115 65.3007C68.2185 65.2189 68.2093 65.1365 68.1845 65.0583C68.1597 64.9801 68.1197 64.9075 68.0668 64.8447C68.0139 64.7819 67.9492 64.7302 67.8763 64.6925C67.8034 64.6547 67.7238 64.6317 67.642 64.6247C67.5602 64.6177 67.4778 64.6269 67.3996 64.6517C67.3214 64.6766 67.2488 64.7166 67.186 64.7694C67.1233 64.8223 67.0715 64.8871 67.0338 64.9599C66.6648 65.6726 66.1071 66.2702 65.4215 66.6873C64.7359 67.1044 63.9488 67.325 63.1463 67.325H16.8538C15.7977 67.3251 14.7773 66.9432 13.9808 66.2498C13.1843 65.5565 12.6654 64.5984 12.52 63.5524L10.1138 46.2262C10.0911 46.0619 10.004 45.9134 9.87181 45.8133C9.7396 45.7132 9.57303 45.6697 9.40877 45.6925C9.2445 45.7152 9.09598 45.8022 8.99588 45.9344C8.89578 46.0666 8.85231 46.2332 8.87502 46.3974Z" fill="#6B7F99"/>
<path fill-rule="evenodd" clip-rule="evenodd" d="M18.7512 57.9824C18.7512 58.8112 19.0805 59.6061 19.6665 60.1921C20.2526 60.7782 21.0474 61.1074 21.8762 61.1074H31.8762C32.705 61.1074 33.4999 60.7782 34.0859 60.1921C34.672 59.6061 35.0012 58.8112 35.0012 57.9824V55.4824C35.0012 54.6536 34.672 53.8588 34.0859 53.2727C33.4999 52.6867 32.705 52.3574 31.8762 52.3574H21.8762C20.6875 52.3574 19.6525 53.0224 19.125 54.0012C19.0462 54.147 19.0287 54.3182 19.0761 54.477C19.1236 54.6358 19.2322 54.7693 19.3781 54.848C19.524 54.9268 19.6951 54.9443 19.854 54.8969C20.0128 54.8494 20.1462 54.7408 20.225 54.5949C20.3853 54.2965 20.6235 54.0471 20.9143 53.8732C21.205 53.6993 21.5374 53.6075 21.8762 53.6074H31.8762C32.3735 53.6074 32.8504 53.805 33.202 54.1566C33.5537 54.5082 33.7512 54.9851 33.7512 55.4824V57.9824C33.7512 58.4797 33.5537 58.9566 33.202 59.3082C32.8504 59.6599 32.3735 59.8574 31.8762 59.8574H21.8762C21.3789 59.8574 20.902 59.6599 20.5504 59.3082C20.1988 58.9566 20.0012 58.4797 20.0012 57.9824C20.0012 57.8167 19.9354 57.6577 19.8182 57.5405C19.701 57.4233 19.542 57.3574 19.3762 57.3574C19.2105 57.3574 19.0515 57.4233 18.9343 57.5405C18.8171 57.6577 18.7512 57.8167 18.7512 57.9824Z" fill="#6B7F99"/>
<path fill-rule="evenodd" clip-rule="evenodd" d="M53.125 32.625C46.2262 32.625 40.625 38.2262 40.625 45.125C40.625 52.0237 46.2262 57.625 53.125 57.625C60.0238 57.625 65.625 52.0237 65.625 45.125C65.625 38.2262 60.0238 32.625 53.125 32.625ZM53.125 35.125C58.6437 35.125 63.125 39.6062 63.125 45.125C63.125 50.6437 58.6437 55.125 53.125 55.125C47.6062 55.125 43.125 50.6437 43.125 45.125C43.125 39.6062 47.6062 35.125 53.125 35.125Z" fill="#1471EF"/>
<path fill-rule="evenodd" clip-rule="evenodd" d="M60.4037 53.7476L72.0637 65.4076C72.2994 65.6353 72.6152 65.7613 72.9429 65.7584C73.2707 65.7556 73.5842 65.6241 73.8159 65.3924C74.0477 65.1606 74.1792 64.8471 74.182 64.5193C74.1848 64.1916 74.0589 63.8758 73.8312 63.6401L62.1712 51.9801C61.9368 51.7457 61.6189 51.614 61.2874 51.614C60.9559 51.614 60.638 51.7457 60.4037 51.9801C60.1693 52.2145 60.0376 52.5324 60.0376 52.8638C60.0376 53.1953 60.1693 53.5132 60.4037 53.7476Z" fill="#1471EF"/>
</svg>
