<?xml version="1.0" encoding="utf-8"?>
<svg fill="none" viewBox="0 0 88 88" xmlns="http://www.w3.org/2000/svg">
<path clip-rule="evenodd" d="M71.2126 37.9729V33.9565C71.2126 32.8625 70.778 31.8133 70.0045 31.0397C69.2309 30.2661 68.1817 29.8315 67.0876 29.8315H49.7104C48.8475 29.8316 48.0063 30.1023 47.3053 30.6055C46.6043 31.1087 46.0788 31.819 45.8026 32.6365L45.4108 33.8479H20.3376C19.2436 33.8479 18.1944 34.2825 17.4208 35.0561C16.6472 35.8297 16.2126 36.8789 16.2126 37.9729H71.2126Z" fill="#1471EF" fill-rule="evenodd"/>
<path clip-rule="evenodd" d="M16.0187 68.4981L17.8433 80.1788C18.0715 81.6366 18.813 82.9649 19.9341 83.9242C21.0553 84.8835 22.4823 85.4107 23.9579 85.4106H64.0419C65.5175 85.4107 66.9445 84.8835 68.0657 83.9242C69.1868 82.9649 69.9284 81.6366 70.1565 80.1788L75.3128 47.1788C75.4498 46.2962 75.3943 45.3943 75.1501 44.5352C74.9058 43.676 74.4786 42.8799 73.8978 42.2013C73.317 41.5228 72.5962 40.9779 71.785 40.6041C70.9738 40.2303 70.0913 40.0364 69.1982 40.0356H18.8017C17.9082 40.0354 17.0253 40.2288 16.2136 40.6023C15.4019 40.9758 14.6808 41.5207 14.0998 42.1994C13.5187 42.8782 13.0916 43.6747 12.8477 44.5343C12.6039 45.3938 12.549 46.296 12.687 47.1788L15.4962 65.1541C15.5244 65.3343 15.6231 65.4958 15.7705 65.6032C15.9178 65.7106 16.1018 65.7551 16.282 65.7268C16.4621 65.6986 16.6237 65.5999 16.7311 65.4525C16.8385 65.3052 16.8829 65.1212 16.8547 64.941L14.0455 46.9656C13.9386 46.2791 13.9815 45.5776 14.1713 44.9092C14.3612 44.2408 14.6934 43.6215 15.1453 43.0937C15.5972 42.5659 16.158 42.1422 16.7891 41.8517C17.4203 41.5612 18.1069 41.4107 18.8017 41.4106H69.1982C69.893 41.4107 70.5795 41.5612 71.2107 41.8517C71.8418 42.1422 72.4026 42.5659 72.8545 43.0937C73.3064 43.6215 73.6387 44.2408 73.8285 44.9092C74.0183 45.5776 74.0613 46.2791 73.9543 46.9656L68.798 79.9656C68.6207 81.0997 68.0439 82.133 67.1718 82.8793C66.2998 83.6255 65.1897 84.0357 64.0419 84.0356H23.9579C22.8101 84.0357 21.7001 83.6255 20.828 82.8793C19.9559 82.133 19.3792 81.0997 19.2018 79.9656L17.3772 68.2864C17.3642 68.1963 17.3335 68.1098 17.2869 68.0317C17.2402 67.9536 17.1785 67.8855 17.1054 67.8314C17.0323 67.7773 16.9491 67.7383 16.8608 67.7166C16.7724 67.6949 16.6807 67.6909 16.5908 67.7049C16.5009 67.7189 16.4147 67.7507 16.3371 67.7982C16.2596 67.8458 16.1923 67.9083 16.1391 67.9821C16.0858 68.0558 16.0478 68.1394 16.0271 68.228C16.0065 68.3166 16.0036 68.4084 16.0187 68.4981Z" fill="#4D6585" fill-rule="evenodd"/>
<path clip-rule="evenodd" d="M23.6704 74.8567V76.2633C23.6704 77.175 24.0326 78.0493 24.6772 78.694C25.3219 79.3386 26.1962 79.7008 27.1079 79.7008H38.1079C39.0196 79.7008 39.8939 79.3386 40.5386 78.694C41.1832 78.0493 41.5454 77.175 41.5454 76.2633V73.5133C41.5454 72.6016 41.1832 71.7273 40.5386 71.0826C39.8939 70.438 39.0196 70.0758 38.1079 70.0758H27.1079C26.1619 70.0758 25.3039 70.4594 24.681 71.0796C24.5556 71.2091 24.4861 71.3826 24.4874 71.5629C24.4887 71.7432 24.5607 71.9157 24.688 72.0434C24.8153 72.171 24.9876 72.2436 25.1679 72.2454C25.3482 72.2472 25.5219 72.1781 25.6518 72.0531C25.843 71.8618 26.07 71.7102 26.3198 71.6069C26.5697 71.5035 26.8375 71.4505 27.1079 71.4508H38.1079C38.6549 71.4508 39.1795 71.6681 39.5663 72.0549C39.9531 72.4417 40.1704 72.9663 40.1704 73.5133V76.2633C40.1704 76.8101 39.9533 77.3345 39.5668 77.7212C39.1803 78.108 38.6561 78.3255 38.1093 78.3258H27.1079C26.5609 78.3258 26.0363 78.1085 25.6495 77.7217C25.2627 77.3349 25.0454 76.8103 25.0454 76.2633V74.8567C25.0454 74.6744 24.973 74.4995 24.844 74.3706C24.7151 74.2416 24.5402 74.1692 24.3579 74.1692C24.1756 74.1692 24.0007 74.2416 23.8718 74.3706C23.7428 74.4995 23.6704 74.6744 23.6704 74.8567ZM32.4209 30.7893C32.8788 30.0031 33.4745 29.3059 34.1795 28.7309C34.2491 28.6734 34.3067 28.6028 34.349 28.523C34.3913 28.4432 34.4175 28.3559 34.4261 28.266C34.4346 28.1761 34.4254 28.0854 34.3989 27.9991C34.3724 27.9128 34.3292 27.8325 34.2717 27.7629C34.2141 27.6933 34.1435 27.6357 34.0637 27.5934C33.984 27.5511 33.8966 27.525 33.8067 27.5164C33.7169 27.5078 33.6262 27.5171 33.5398 27.5436C33.4535 27.5701 33.3733 27.6133 33.3037 27.6708C32.472 28.3509 31.7693 29.1747 31.2288 30.1032C31.1378 30.2613 31.1133 30.449 31.1608 30.6251C31.2082 30.8013 31.3237 30.9513 31.4818 31.0423C31.6399 31.1333 31.8276 31.1578 32.0037 31.1103C32.1799 31.0629 32.3299 30.9474 32.4209 30.7893ZM36.825 27.1923C37.9278 26.7523 39.1845 26.4512 40.5802 26.3109C40.67 26.3019 40.7572 26.2753 40.8367 26.2326C40.9162 26.1898 40.9866 26.1319 41.0437 26.062C41.1009 25.9921 41.1437 25.9116 41.1697 25.8251C41.1957 25.7387 41.2045 25.648 41.1955 25.5581C41.1864 25.4683 41.1598 25.3811 41.1171 25.3016C41.0744 25.222 41.0164 25.1517 40.9465 25.0946C40.8766 25.0374 40.7961 24.9946 40.7097 24.9686C40.6232 24.9425 40.5325 24.9338 40.4427 24.9428C39.0289 25.0738 37.6402 25.4005 36.3163 25.9136C36.155 25.9867 36.028 26.1191 35.9618 26.2834C35.8955 26.4476 35.8951 26.6311 35.9606 26.7957C36.026 26.9602 36.1524 27.0933 36.3134 27.1671C36.4743 27.241 36.6576 27.25 36.825 27.1923ZM43.9475 26.2848C45.5742 26.4072 47.0619 26.4333 48.4204 26.3756C48.5116 26.3731 48.6013 26.3526 48.6844 26.3151C48.7675 26.2777 48.8424 26.2241 48.9046 26.1575C48.9668 26.0908 49.0152 26.0125 49.0468 25.927C49.0785 25.8415 49.0928 25.7505 49.089 25.6594C49.0851 25.5683 49.0632 25.4789 49.0245 25.3964C48.9858 25.3138 48.931 25.2398 48.8635 25.1786C48.7959 25.1174 48.7168 25.0703 48.6308 25.04C48.5448 25.0096 48.4537 24.9967 48.3627 25.0019C47.0523 25.0569 45.6182 25.0308 44.052 24.9126C43.875 24.9074 43.7028 24.9707 43.5712 25.0892C43.4396 25.2076 43.3587 25.3723 43.3452 25.5488C43.3318 25.7254 43.3869 25.9004 43.499 26.0374C43.6112 26.1745 43.7718 26.2631 43.9475 26.2848ZM52.1315 25.9686C53.7362 25.6674 55.0947 25.2219 56.2373 24.6733C56.3187 24.6342 56.3917 24.5795 56.4519 24.5122C56.5122 24.4449 56.5587 24.3664 56.5886 24.2812C56.6185 24.196 56.6314 24.1057 56.6264 24.0155C56.6215 23.9253 56.5988 23.8369 56.5597 23.7555C56.5206 23.6741 56.4659 23.6011 56.3986 23.5408C56.3313 23.4806 56.2528 23.4341 56.1676 23.4042C56.0824 23.3743 55.9921 23.3614 55.9019 23.3663C55.8117 23.3713 55.7233 23.394 55.6419 23.4331C54.5955 23.9363 53.3484 24.3419 51.8785 24.6183C51.7899 24.6349 51.7054 24.6688 51.6298 24.7181C51.5543 24.7674 51.4891 24.8311 51.4382 24.9055C51.3873 24.9799 51.3515 25.0637 51.3329 25.152C51.3143 25.2402 51.3133 25.3313 51.3299 25.4199C51.3465 25.5086 51.3804 25.5931 51.4297 25.6687C51.479 25.7442 51.5427 25.8093 51.6171 25.8603C51.6915 25.9112 51.7753 25.947 51.8636 25.9656C51.9518 25.9842 52.0429 25.9852 52.1315 25.9686ZM59.0395 22.7634C60.2715 21.5741 60.9948 20.2046 61.3207 18.8117C61.355 18.637 61.3203 18.4557 61.2237 18.3061C61.1272 18.1565 60.9763 18.0502 60.803 18.0096C60.6296 17.969 60.4472 17.9972 60.2942 18.0883C60.1413 18.1795 60.0296 18.3264 59.9828 18.4982C59.7119 19.6546 59.1069 20.7876 58.0853 21.7734C57.954 21.9 57.8784 22.0735 57.875 22.2558C57.8717 22.4381 57.9409 22.6143 58.0674 22.7456C58.194 22.8768 58.3675 22.9525 58.5498 22.9558C58.7321 22.9592 58.9083 22.89 59.0395 22.7634ZM60.9934 14.0776C60.4489 12.6283 59.5222 11.3977 58.396 10.6194C58.2459 10.5174 58.0616 10.4788 57.8831 10.5121C57.7047 10.5455 57.5467 10.648 57.4436 10.7974C57.3405 10.9468 57.3006 11.1309 57.3328 11.3096C57.3649 11.4882 57.4664 11.6469 57.615 11.7511C58.528 12.3808 59.265 13.3873 59.7064 14.5616C59.7382 14.6461 59.7863 14.7235 59.848 14.7894C59.9097 14.8553 59.9838 14.9084 60.066 14.9457C60.1482 14.983 60.237 15.0037 60.3272 15.0067C60.4175 15.0097 60.5074 14.9948 60.5919 14.9631C60.6764 14.9313 60.7538 14.8832 60.8198 14.8215C60.8857 14.7598 60.9388 14.6857 60.9761 14.6035C61.0133 14.5212 61.0341 14.4325 61.037 14.3422C61.04 14.252 61.0252 14.1621 60.9934 14.0776ZM43.0799 10.6167C43.8362 7.07469 46.8447 5.35181 49.0144 5.33944C49.7253 5.33531 50.3427 5.50306 50.6644 5.93206C50.8528 6.18644 50.9105 6.52744 50.839 6.94544C50.8207 7.03559 50.8207 7.1285 50.8389 7.21867C50.8572 7.30884 50.8933 7.39443 50.9452 7.47038C50.9972 7.54632 51.0638 7.61107 51.1412 7.66079C51.2186 7.71051 51.3052 7.74419 51.3958 7.75984C51.4865 7.77548 51.5794 7.77278 51.669 7.75188C51.7585 7.73098 51.843 7.69231 51.9174 7.63816C51.9918 7.58402 52.0545 7.5155 52.1019 7.43666C52.1494 7.35782 52.1805 7.27027 52.1934 7.17919C52.3419 6.31981 52.1549 5.63094 51.7658 5.10981C51.2185 4.37694 50.2189 3.95756 49.0062 3.96444C46.3662 3.97956 42.655 6.01869 41.7352 10.3307C41.7148 10.4196 41.7123 10.5116 41.7278 10.6015C41.7434 10.6914 41.7766 10.7773 41.8257 10.8541C41.8747 10.931 41.9386 10.9974 42.0135 11.0494C42.0885 11.1013 42.173 11.1379 42.2622 11.1568C42.3515 11.1758 42.4435 11.1768 42.5332 11.1599C42.6228 11.1429 42.7081 11.1083 42.7842 11.058C42.8603 11.0077 42.9256 10.9428 42.9764 10.8671C43.0272 10.7913 43.0624 10.7062 43.0799 10.6167Z" fill="#4D6585" fill-rule="evenodd"/>
<path clip-rule="evenodd" d="M41.7422 10.6191C42.6717 14.9091 46.3705 16.9386 49.0036 16.9551C50.3085 16.962 51.3658 16.4766 51.8842 15.6365C52.195 15.1305 52.3311 14.4856 52.1867 13.6977C52.0066 12.7284 51.3686 11.4867 50.0335 10.0114C49.9728 9.94447 49.8995 9.89018 49.8179 9.85159C49.7362 9.813 49.6478 9.79087 49.5576 9.78646C49.3754 9.77757 49.1971 9.84141 49.062 9.96394C48.9951 10.0246 48.9408 10.0979 48.9022 10.1795C48.8636 10.2612 48.8415 10.3496 48.8371 10.4398C48.8282 10.622 48.892 10.8003 49.0146 10.9354C49.9455 11.9625 50.4968 12.8384 50.7375 13.574C50.9217 14.135 50.9162 14.5846 50.7127 14.916C50.5298 15.213 50.1985 15.3945 49.8025 15.4935C49.3033 15.6172 48.7038 15.6076 48.0741 15.4742C46.0556 15.048 43.7428 13.3609 43.0856 10.3276C43.0435 10.153 42.9347 10.0018 42.7826 9.9064C42.6304 9.81096 42.447 9.77885 42.2715 9.81693C42.0959 9.85502 41.9423 9.96028 41.8434 10.1102C41.7445 10.2601 41.7082 10.4428 41.7422 10.6191Z" fill="#4D6585" fill-rule="evenodd"/>
<path clip-rule="evenodd" d="M42.2278 11.8481H51.4334C51.7981 11.8481 52.1478 11.7033 52.4057 11.4454C52.6635 11.1876 52.8084 10.8378 52.8084 10.4731C52.8084 10.1085 52.6635 9.75873 52.4057 9.50087C52.1478 9.24301 51.7981 9.09814 51.4334 9.09814H42.2278C41.8631 9.09814 41.5134 9.24301 41.2555 9.50087C40.9976 9.75873 40.8528 10.1085 40.8528 10.4731C40.8528 10.8378 40.9976 11.1876 41.2555 11.4454C41.5134 11.7033 41.8631 11.8481 42.2278 11.8481Z" fill="#1471EF" fill-rule="evenodd"/>
</svg>