<svg width="140" height="140" viewBox="0 0 140 140" fill="none" xmlns="http://www.w3.org/2000/svg">
<ellipse opacity="0.1" cx="70" cy="135.8" rx="70" ry="4.2" fill="#A4A7AE"/>
<path fill-rule="evenodd" clip-rule="evenodd" d="M104.825 65.8981V60.832C104.825 59.4532 104.277 58.1299 103.3 57.1534C102.324 56.1787 101.001 55.6289 99.6218 55.6289C93.411 55.6289 83.18 55.6289 77.7028 55.6289C75.4707 55.6289 73.4883 57.0528 72.7737 59.167L72.2794 60.695H40.6531C39.2725 60.695 37.9492 61.2431 36.9727 62.2195C35.998 63.1943 35.45 64.5176 35.45 65.8981H104.825Z" fill="#1570EF"/>
<path fill-rule="evenodd" clip-rule="evenodd" d="M35.2055 104.402C35.2055 104.402 36.5565 113.046 37.507 119.135C38.1019 122.933 41.3729 125.734 45.2197 125.734H95.7802C99.6271 125.734 102.898 122.933 103.493 119.135C105.054 109.142 108.231 88.8026 109.997 77.5101C110.347 75.2571 109.697 72.9625 108.214 71.2299C106.731 69.4973 104.565 68.5 102.284 68.5C86.9852 68.5 54.0148 68.5 38.7158 68.5C36.4351 68.5 34.2689 69.4973 32.786 71.2299C31.3031 72.9625 30.6527 75.2571 31.0031 77.5101C32.4235 86.5999 34.5464 100.184 34.5464 100.184C34.621 100.655 35.065 100.98 35.5367 100.907C36.0102 100.832 36.3345 100.388 36.26 99.9147L32.7166 77.2413C32.4443 75.4895 32.9508 73.7049 34.1024 72.3572C35.2558 71.0096 36.9416 70.2344 38.7158 70.2344H102.284C104.058 70.2344 105.744 71.0096 106.898 72.3572C108.049 73.7049 108.556 75.4895 108.283 77.2413C106.518 88.5338 103.34 108.873 101.779 118.866C101.316 121.822 98.772 124 95.7802 124C83.8599 124 57.1401 124 45.2197 124C42.2279 124 39.6836 121.822 39.2205 118.866C38.2701 112.779 36.919 104.134 36.919 104.134C36.8462 103.661 36.4022 103.337 35.9287 103.411C35.4552 103.486 35.1326 103.93 35.2055 104.402Z" fill="#717680"/>
<path fill-rule="evenodd" clip-rule="evenodd" d="M44.8573 112.421V114.195C44.8573 116.59 46.7998 118.531 49.1932 118.531H63.0682C65.4634 118.531 67.4042 116.59 67.4042 114.195V110.727C67.4042 108.333 65.4634 106.391 63.0682 106.391H49.1932C48 106.391 46.9177 106.875 46.1321 107.657C45.7939 107.995 45.7939 108.543 46.1303 108.883C46.4685 109.221 47.0183 109.223 47.3565 108.885C47.8283 108.415 48.4769 108.125 49.1932 108.125H63.0682C64.506 108.125 65.6698 109.29 65.6698 110.727V114.195C65.6698 115.633 64.506 116.797 63.07 116.797C63.0682 116.797 49.1932 116.797 49.1932 116.797C47.7572 116.797 46.5934 115.633 46.5917 114.195V112.421C46.5917 111.944 46.2032 111.554 45.7245 111.554C45.2475 111.554 44.8573 111.944 44.8573 112.421Z" fill="#717680"/>
<path fill-rule="evenodd" clip-rule="evenodd" d="M55.8949 56.8355C56.4481 55.8729 57.1939 54.9988 58.1131 54.2392C58.4826 53.9339 58.5329 53.3858 58.2293 53.0182C57.9241 52.6487 57.376 52.5967 57.0083 52.9019C55.9226 53.7986 55.0468 54.834 54.3912 55.9701C54.1518 56.3846 54.2958 56.9153 54.7103 57.1546C55.1248 57.3922 55.6555 57.25 55.8949 56.8355Z" fill="#717680"/>
<path fill-rule="evenodd" clip-rule="evenodd" d="M61.45 52.2987C62.841 51.7437 64.4262 51.3639 66.1866 51.187C66.6618 51.1401 67.0104 50.7152 66.9618 50.2382C66.915 49.763 66.4901 49.4144 66.0131 49.4612C64.0793 49.6555 62.338 50.0787 60.8083 50.6857C60.3643 50.8626 60.1457 51.3673 60.3226 51.8131C60.4995 52.2571 61.0043 52.4756 61.45 52.2987Z" fill="#717680"/>
<path fill-rule="evenodd" clip-rule="evenodd" d="M70.4341 51.1551C72.4858 51.3095 74.3624 51.3424 76.076 51.2696C76.5547 51.2505 76.9258 50.8464 76.9068 50.3677C76.886 49.889 76.4818 49.5179 76.0032 49.5369C74.3503 49.6063 72.5413 49.5734 70.5659 49.4242C70.0872 49.3895 69.671 49.7468 69.6345 50.2237C69.5998 50.7024 69.9571 51.1187 70.4341 51.1551Z" fill="#717680"/>
<path fill-rule="evenodd" clip-rule="evenodd" d="M80.7571 50.7559C82.7811 50.3761 84.4947 49.8141 85.9359 49.1221C86.3678 48.914 86.5499 48.3954 86.3435 47.9653C86.1354 47.5334 85.6168 47.3513 85.1849 47.5577C83.8651 48.1925 82.292 48.7041 80.438 49.0527C79.9662 49.1412 79.6575 49.5939 79.7459 50.0639C79.8344 50.5356 80.2871 50.8443 80.7571 50.7559Z" fill="#717680"/>
<path fill-rule="evenodd" clip-rule="evenodd" d="M89.4705 46.7121C91.0245 45.2119 91.9368 43.4844 92.3479 41.7275C92.4571 41.261 92.1675 40.7944 91.701 40.6852C91.2361 40.5759 90.7679 40.8655 90.6603 41.3321C90.3187 42.7907 89.5555 44.2198 88.2669 45.4634C87.9218 45.7964 87.9131 46.3462 88.2443 46.6896C88.5773 47.0347 89.1271 47.0451 89.4705 46.7121Z" fill="#717680"/>
<path fill-rule="evenodd" clip-rule="evenodd" d="M91.9352 35.7566C91.2484 33.9286 90.0794 32.3763 88.6589 31.3947C88.2652 31.1241 87.7241 31.223 87.4518 31.6167C87.1813 32.0104 87.2801 32.5515 87.6738 32.8221C88.8254 33.6164 89.7551 34.886 90.3118 36.3671C90.48 36.8146 90.9813 37.0418 91.4287 36.8736C91.8762 36.7053 92.1034 36.2041 91.9352 35.7566Z" fill="#717680"/>
<path fill-rule="evenodd" clip-rule="evenodd" d="M69.3397 31.391C70.2936 26.9233 74.0884 24.7501 76.8252 24.7345C77.7219 24.7293 78.5006 24.9409 78.9065 25.482C79.1441 25.8029 79.2169 26.233 79.1267 26.7602C79.0452 27.232 79.3609 27.6812 79.8326 27.7627C80.3044 27.8442 80.7536 27.5268 80.8351 27.0551C81.0224 25.9711 80.7865 25.1022 80.2957 24.4448C79.6054 23.5204 78.3445 22.9914 76.8148 23.0001C73.4848 23.0192 68.8038 25.5913 67.6435 31.0303C67.5429 31.4985 67.8429 31.9582 68.3112 32.0587C68.7795 32.1593 69.2391 31.8593 69.3397 31.391Z" fill="#717680"/>
<path fill-rule="evenodd" clip-rule="evenodd" d="M67.6522 31.3953C68.8246 36.8065 73.4901 39.3665 76.8114 39.3873C78.4574 39.396 79.7911 38.7837 80.4449 37.724C80.8369 37.0858 81.0086 36.2724 80.8265 35.2786C80.5993 34.0558 79.7946 32.4897 78.1105 30.6287C77.7896 30.2749 77.2416 30.2471 76.886 30.568C76.5322 30.8889 76.5044 31.4387 76.8253 31.7942C77.9995 33.0898 78.695 34.1946 78.9985 35.1225C79.2309 35.8301 79.2239 36.3972 78.9673 36.8152C78.7366 37.1898 78.3186 37.4188 77.8191 37.5437C77.1895 37.6997 76.4333 37.6876 75.639 37.5194C73.0929 36.9817 70.1757 34.8536 69.3467 31.0276C69.2461 30.5593 68.783 30.2627 68.3147 30.3633C67.8482 30.4657 67.5499 30.927 67.6522 31.3953Z" fill="#717680"/>
<path fill-rule="evenodd" clip-rule="evenodd" d="M68.2644 32.9453H79.876C80.8334 32.9453 81.6104 32.1683 81.6104 31.2109C81.6104 30.2536 80.8334 29.4766 79.876 29.4766H68.2644C67.307 29.4766 66.53 30.2536 66.53 31.2109C66.53 32.1683 67.307 32.9453 68.2644 32.9453Z" fill="#1570EF"/>
</svg>
