<svg width="50" height="51" viewBox="0 0 50 51" fill="none" xmlns="http://www.w3.org/2000/svg">
<g clip-path="url(#clip0_967_23591)">
<path d="M45.6055 0.5H4.39453C1.96279 0.5 0 2.46279 0 4.89453V13.6836C0 14.5038 0.644434 15.3438 1.46484 15.3438H48.5352C49.3556 15.3438 50 14.5038 50 13.6836V4.89453C50 2.46279 48.0372 0.5 45.6055 0.5Z" fill="#0A4EAF"/>
<path d="M7.32422 9.28906C8.13323 9.28906 8.78906 8.63323 8.78906 7.82422C8.78906 7.01521 8.13323 6.35938 7.32422 6.35938C6.51521 6.35938 5.85938 7.01521 5.85938 7.82422C5.85938 8.63323 6.51521 9.28906 7.32422 9.28906Z" fill="#E1E4FB"/>
<path d="M13.1836 9.28906C13.9926 9.28906 14.6484 8.63323 14.6484 7.82422C14.6484 7.01521 13.9926 6.35938 13.1836 6.35938C12.3746 6.35938 11.7188 7.01521 11.7188 7.82422C11.7188 8.63323 12.3746 9.28906 13.1836 9.28906Z" fill="#E1E4FB"/>
<path d="M19.043 9.28906C19.852 9.28906 20.5078 8.63323 20.5078 7.82422C20.5078 7.01521 19.852 6.35938 19.043 6.35938C18.234 6.35938 17.5781 7.01521 17.5781 7.82422C17.5781 8.63323 18.234 9.28906 19.043 9.28906Z" fill="#E1E4FB"/>
<path d="M44.1406 7.82422C44.1406 8.64443 43.4962 9.28906 42.6758 9.28906H24.9023C24.0819 9.28906 23.4375 8.64443 23.4375 7.82422C23.4375 7.00381 24.0819 6.35938 24.9023 6.35938H42.6758C43.4962 6.35938 44.1406 7.00381 44.1406 7.82422Z" fill="#E1E4FB"/>
<path d="M50 4.89453V13.6836C50 14.5038 49.3556 15.3438 48.5352 15.3438H24.9023V0.5H45.6055C48.0372 0.5 50 2.46279 50 4.89453Z" fill="#063E8B"/>
<path d="M44.1406 7.82422C44.1406 8.64443 43.4962 9.28906 42.6758 9.28906H24.9023V6.35938H42.6758C43.4962 6.35938 44.1406 7.00381 44.1406 7.82422Z" fill="#C5C9F7"/>
<path d="M0 12.2188V40.2461C0 42.6776 1.96279 44.6406 4.39453 44.6406H12.9785C13.9454 44.6406 14.6191 43.7324 14.4141 42.8242C15.4103 41.7694 16.7578 40.8612 16.084 39.6015C15.5566 38.6933 15.2051 37.8144 15 36.9648C14.8242 36.3202 14.2383 35.8516 13.5645 35.8516H11.7188V32.9219H13.5645C14.2382 32.9219 14.8242 32.453 15 31.8086C15.2051 30.9589 15.5566 30.08 16.084 29.1425C16.3771 28.5858 16.2891 27.8827 15.8495 27.4141L14.5312 26.0957L16.6112 24.0155L17.9296 25.3339C18.3984 25.7734 19.1016 25.8612 19.6582 25.5684C20.5957 25.041 21.4746 24.6895 22.3241 24.4844C22.9688 24.3086 23.4374 23.7227 23.4374 23.0488V21.2031H26.3671V23.0488C26.3671 23.7226 26.8357 24.3086 27.4804 24.4844C28.3299 24.6895 29.2088 25.041 30.1463 25.5684C30.7029 25.8906 31.4061 25.7734 31.8749 25.3339L33.1933 24.0155L35.2732 26.0957L33.955 27.4141C33.5154 27.8827 33.4274 28.5858 33.7205 29.1425C34.2479 30.08 34.5994 30.9589 34.8045 31.8086C34.9803 32.453 35.5662 32.9219 36.24 32.9219H38.0859V35.8516H36.2402C35.5665 35.8516 34.9805 36.3202 34.8047 36.9648C34.5996 37.8144 34.248 38.6933 33.7207 39.6015C33.4276 40.1874 33.5156 40.8905 33.9552 41.3594L35.3907 42.8242C35.1856 43.7324 35.8594 44.6406 36.8263 44.6406H45.6055C48.0372 44.6406 50 42.6776 50 40.2461V12.2188H0Z" fill="#1DE8F1"/>
<path d="M49.9999 12.2188V40.2461C49.9999 42.6776 48.0371 44.6406 45.6054 44.6406H36.8261C35.8592 44.6406 35.1854 43.7324 35.3905 42.8242L33.955 41.3594C33.5154 40.8905 33.4274 40.1874 33.7205 39.6015C34.2479 38.6933 34.5994 37.8144 34.8045 36.9648C34.9803 36.3202 35.5662 35.8516 36.24 35.8516H38.0858V32.9219H36.2401C35.5664 32.9219 34.9804 32.453 34.8046 31.8086C34.5995 30.9589 34.2479 30.08 33.7206 29.1425C33.4275 28.5858 33.5155 27.8827 33.9551 27.4141L35.2733 26.0957L33.1934 24.0155L31.875 25.3339C31.4062 25.7734 30.703 25.8905 30.1464 25.5684C29.2089 25.041 28.33 24.6895 27.4805 24.4844C26.8358 24.3086 26.3672 23.7227 26.3672 23.0488V21.2031H24.9023V12.2188H49.9999Z" fill="#1BD9DE"/>
<path d="M39.5508 29.9922H37.3242C37.1777 29.582 37.002 29.1425 36.7969 28.7031L38.3788 27.121C38.9354 26.5644 38.9354 25.6271 38.3497 25.0703L34.2188 20.9394C33.6621 20.3534 32.7539 20.3534 32.168 20.9101L30.5859 22.4922C30.1464 22.2871 29.707 22.1113 29.2969 21.9648V19.7383C29.2969 18.9179 28.6524 18.2734 27.832 18.2734H21.9727C21.1522 18.2734 20.5078 18.9179 20.5078 19.7383V21.9648C20.0977 22.1113 19.6583 22.2871 19.2188 22.4922L17.6368 20.9101C17.0802 20.3534 16.1427 20.3534 15.586 20.9394L11.455 25.0703C10.8691 25.627 10.8691 26.5643 11.4259 27.121L13.0078 28.7031C12.8027 29.1425 12.627 29.582 12.4805 29.9922H10.2539C9.4335 29.9922 8.78906 30.6366 8.78906 31.457V37.3164C8.78906 38.1366 9.4335 38.7812 10.2539 38.7812H12.4805C12.627 39.1914 12.8027 39.6308 13.0078 40.0703L11.4259 41.6522C10.8692 42.2089 10.8692 43.1464 11.455 43.703L15.5859 47.8338C16.1426 48.4197 17.0801 48.4197 17.6367 47.8631L19.2188 46.2812C19.6583 46.4863 20.0977 46.6621 20.5078 46.8086V49.0352C20.5078 49.8554 21.1522 50.5 21.9727 50.5H27.832C28.6524 50.5 29.2969 49.8554 29.2969 49.0352V46.8086C29.707 46.6621 30.1464 46.4863 30.5859 46.2812L32.1679 47.8632C32.7538 48.4198 33.662 48.4198 34.2187 47.8339L38.3496 43.7031C38.9354 43.1465 38.9354 42.209 38.3787 41.6523L36.7969 40.0703C37.002 39.6308 37.1777 39.1914 37.3242 38.7812H39.5508C40.3712 38.7812 41.0156 38.1366 41.0156 37.3164V31.457C41.0156 30.6366 40.3712 29.9922 39.5508 29.9922Z" fill="#E1E4FB"/>
<path d="M24.9023 27.0625C20.8594 27.0625 17.5781 30.3437 17.5781 34.3867C17.5781 38.4297 20.8594 41.7109 24.9023 41.7109C28.9453 41.7109 32.2266 38.4297 32.2266 34.3867C32.2266 30.3437 28.9453 27.0625 24.9023 27.0625Z" fill="#C5C9F7"/>
<path d="M41.0156 31.457V37.3164C41.0156 38.1366 40.3712 38.7812 39.5508 38.7812H37.3242C37.1777 39.1914 37.002 39.6308 36.7969 40.0703L38.3788 41.6522C38.9354 42.2089 38.9354 43.1464 38.3497 43.703L34.2187 47.8339C33.6621 48.4198 32.7539 48.4198 32.168 47.8632L30.5859 46.2812C30.1464 46.4863 29.707 46.6621 29.2969 46.8086V49.0352C29.2969 49.8554 28.6524 50.5 27.832 50.5H24.9023V18.2734H27.832C28.6524 18.2734 29.2969 18.9179 29.2969 19.7383V21.9648C29.707 22.1113 30.1464 22.2871 30.5859 22.4922L32.1679 20.9101C32.7538 20.3534 33.662 20.3534 34.2187 20.9394L38.3496 25.0703C38.9355 25.627 38.9354 26.5643 38.3787 27.121L36.7969 28.7031C37.002 29.1425 37.1777 29.582 37.3242 29.9922H39.5508C40.3712 29.9922 41.0156 30.6366 41.0156 31.457Z" fill="#C5C9F7"/>
<path d="M32.2266 34.3867C32.2266 38.4297 28.9453 41.7109 24.9023 41.7109V27.0625C28.9453 27.0625 32.2266 30.3437 32.2266 34.3867Z" fill="#A8AFF1"/>
</g>
<defs>
<clipPath id="clip0_967_23591">
<rect width="50" height="50" fill="white" transform="translate(0 0.5)"/>
</clipPath>
</defs>
</svg>
