<svg width="50" height="51" viewBox="0 0 50 51" fill="none" xmlns="http://www.w3.org/2000/svg">
<g clip-path="url(#clip0_967_18692)">
<path d="M48.7177 45.0682L44.5745 49.2114C42.8965 50.8894 40.1205 50.9722 38.3597 49.2114L37.3238 48.1756L37.7382 45.3996L35.2523 46.104L33.1807 44.0324L33.9058 41.5258L31.109 41.9608L29.0374 39.8892L29.5346 37.0304L26.9658 37.8176L12.66 23.5117L13.1571 20.6943L10.5884 21.44L8.51681 19.3684L8.78614 16.6545L6.44523 17.2967L4.37355 15.2253L4.62208 12.9466L2.30187 13.1537L1.26613 12.1178C-0.401257 10.4505 -0.40116 7.57028 1.26613 5.903L5.40929 1.79889C7.23234 -0.0241533 10.0289 0.203679 11.6241 1.79889L48.7177 38.8534C50.4164 40.5521 50.4371 43.3487 48.7177 45.0682Z" fill="#FEA832"/>
<path d="M46.6461 47.1404L44.5745 49.212C42.8965 50.89 40.1205 50.9729 38.3597 49.212L37.3238 48.1762L37.7382 45.4002L35.2523 46.1046L33.1807 44.033L33.9058 41.5264L31.109 41.9614L29.0374 39.8898L29.5346 37.0311L26.9658 37.8183L12.66 23.5123L13.1571 20.6949L10.5884 21.4406L8.51681 19.369L8.78614 16.6551L6.44523 17.2974L4.37355 15.2259L4.62208 12.9472L2.30187 13.1543L1.26613 12.1185C-0.401257 10.4511 -0.40116 7.5709 1.26613 5.90361L3.33771 3.83203L46.6461 47.1404Z" fill="#FE9923"/>
<path d="M46.7978 9.24909L42.323 10.7406C41.8259 10.4091 41.3494 10.0156 40.9144 9.58054C40.2722 8.93835 39.7337 8.19245 39.3193 7.36394L41.2458 3.73865L47.579 0.630443C48.1383 0.361204 49.0498 0.526732 49.4849 0.961888C49.9613 1.43835 50.1271 2.10124 49.8992 2.70212L46.7978 9.24909Z" fill="#787780"/>
<path d="M42.3228 10.7396C41.8256 10.4081 41.3491 10.0146 40.9141 9.57959L49.4846 0.960938C49.961 1.4374 50.1268 2.10029 49.8989 2.70117L46.7975 9.24824L42.3228 10.7396Z" fill="#57555C"/>
<path d="M13.5691 47.324L12.5333 48.3599C9.69522 51.198 5.05488 51.198 2.17529 48.3599C2.17529 48.3599 2.17529 48.3599 2.15459 48.3392C0.787402 46.972 0.0208008 45.0868 0 43.1602C0 41.213 0.766504 39.3692 2.15459 37.9812L3.19043 36.9453L8.1001 37.7118L10.2131 40.2807L13.5277 44.341L13.5691 47.324Z" fill="#FF5F18"/>
<path d="M13.5688 47.3245L12.533 48.3604C9.69492 51.1984 5.05459 51.1984 2.175 48.3604C2.175 48.3604 2.175 48.3604 2.1543 48.3396L10.2127 40.2812L13.5273 44.3416L13.5688 47.3245Z" fill="#FC5112"/>
<path d="M41.7429 19.1106L19.7839 41.0695L15.6821 41.111L9.03223 34.4611L9.44658 30.7322L31.4056 8.77334C31.5919 8.58701 31.737 8.44189 31.9234 8.29688L31.9441 8.31758L35.0929 9.60186L40.7897 15.2987L42.1984 18.5719L42.1777 18.6341C42.0536 18.7998 41.9086 18.9448 41.7429 19.1106Z" fill="#00DA7C"/>
<path d="M15.682 41.1088L12.5332 37.96L37.9932 12.5L40.7897 15.2966L42.1984 18.5697L42.1777 18.6319C42.0536 18.7976 41.9085 18.9426 41.7428 19.1084L19.7838 41.0673L15.682 41.1088Z" fill="#00B77B"/>
<path d="M19.784 41.0678L9.44668 30.7305L4.24697 35.8888L3.19043 36.9453L13.5691 47.324L14.605 46.2882C14.6257 46.2675 14.6257 46.2675 14.6463 46.2469L19.784 41.0678Z" fill="#D9D9D9"/>
<path d="M7.48174 12.116L4.37432 15.2234L2.30273 13.1519L5.41016 10.0444C5.99023 9.46436 6.90166 9.46436 7.48174 10.0444C8.04111 10.6038 8.06182 11.5359 7.48174 12.116Z" fill="#E5741A"/>
<path d="M13.6959 14.1903L8.5169 19.3693L6.44531 17.2977L11.6243 12.1187C12.1837 11.5594 13.1158 11.5387 13.6959 12.1187C14.2553 12.678 14.2553 13.6309 13.6959 14.1903Z" fill="#FE8821"/>
<path d="M15.7679 20.4013L12.6604 23.5087L10.5889 21.4371L13.6963 18.3297C14.2557 17.7703 15.1878 17.7496 15.7679 18.3297C16.3272 18.889 16.3272 19.8419 15.7679 20.4013Z" fill="#E5741A"/>
<path d="M32.1458 36.7802L29.0384 39.8876L26.9668 37.816L30.0742 34.7086C30.6336 34.1492 31.5657 34.1285 32.1458 34.7086C32.7052 35.268 32.7052 36.2208 32.1458 36.7802Z" fill="#E5741A"/>
<path d="M38.36 38.8505L33.181 44.0295L31.1094 41.9579L36.2884 36.7789C36.8478 36.2195 37.7799 36.1988 38.36 36.7789C38.9193 37.3383 38.9193 38.2911 38.36 38.8505Z" fill="#FE8821"/>
<path d="M40.4319 45.0653L37.3245 48.1727L35.2529 46.1012L38.3604 42.9937C38.9197 42.4344 39.8519 42.4137 40.4319 42.9937C40.9913 43.553 40.9913 44.5059 40.4319 45.0653Z" fill="#E5741A"/>
<path d="M42.3437 18.4258L42.1986 18.5708L31.9443 8.3165L32.0894 8.17148C32.255 8.08857 32.4622 7.96426 32.6693 7.88135C40.5208 4.09043 38.8634 4.87764 41.2457 3.73828C41.3286 5.18828 41.9708 6.53506 42.9651 7.52939C43.9802 8.54443 45.3476 9.20723 46.7977 9.24883C45.5961 11.6933 46.404 10.0566 42.6751 17.8044C42.5302 18.0736 42.4266 18.2602 42.3437 18.4258Z" fill="#FEC478"/>
<path d="M42.198 18.5728L37.0605 13.4353L42.9646 7.53125C43.9796 8.54629 45.347 9.20908 46.7971 9.25068C45.5955 11.6951 46.4034 10.0585 42.6745 17.8062C42.5296 18.0756 42.4261 18.2621 42.3431 18.4277L42.198 18.5728Z" fill="#FEB756"/>
<path d="M14.646 46.2487C14.6254 46.2693 14.6254 46.2693 14.6047 46.29L13.5688 47.3259L8.36914 42.1262L14.6047 35.8906L19.7837 41.0696L14.646 46.2487Z" fill="#C8C6CD"/>
<path d="M13.6956 14.1888L11.624 12.1172L6.44514 17.2961L8.51672 19.3677L13.6956 14.1888Z" fill="#E5741A"/>
<path d="M33.1824 44.0304L38.3613 38.8516L36.2897 36.78L31.1109 41.9589L33.1824 44.0304Z" fill="#E5741A"/>
</g>
<defs>
<clipPath id="clip0_967_18692">
<rect width="50" height="50" fill="white" transform="translate(0 0.5)"/>
</clipPath>
</defs>
</svg>
