<svg xmlns="http://www.w3.org/2000/svg" width="16" height="14" fill="none"><path fill="currentColor" stroke="currentColor" stroke-width=".3" d="M14.813 4.33V7.46a.328.328 0 0 1-.657 0V5.123l-4.096 4.08a.996.996 0 0 1-1.41 0L6.827 7.382a.34.34 0 0 0-.37-.073.34.34 0 0 0-.111.073l-3.664 3.642a.329.329 0 0 1-.465-.465L5.86 6.917a.984.984 0 0 1 .706-.29.99.99 0 0 1 .705.29L9.11 8.755a.34.34 0 0 0 .48 0l4.102-4.102h-2.335a.328.328 0 1 1 0-.656h3.128a.328.328 0 0 1 .329.328v.005Z"/><path stroke="currentColor" stroke-linecap="round" stroke-linejoin="round" d="M.5 1v12h15"/></svg>