<svg viewBox="0 0 89 89" fill="none" xmlns="http://www.w3.org/2000/svg">
<path d="M0 28C0 12.536 12.536 0 28 0H61C76.464 0 89 12.536 89 28V61C89 76.464 76.464 89 61 89H28C12.536 89 0 76.464 0 61V28Z" fill="#EEF4FF"/>
<path d="M43.5 51H32C31.45 51 31 50.55 31 50V33C31 32.45 31.45 32 32 32H56.5C57.05 32 57.5 32.45 57.5 33V44.5C57.5 44.775 57.725 45 58 45C58.275 45 58.5 44.775 58.5 44.5V33C58.5 31.895 57.605 31 56.5 31H32C30.895 31 30 31.895 30 33V50C30 51.105 30.895 52 32 52H43.5C43.775 52 44 51.775 44 51.5C44 51.225 43.775 51 43.5 51Z" fill="#3538CD"/>
<path d="M53 44V48.025C54.575 48.245 55.815 49.52 55.985 51.12H60C59.815 47.315 56.79 44.245 53 44Z" fill="#3538CD"/>
<path d="M55.2456 53.6691L58.0806 56.5091C58.6606 55.8691 59.1156 55.1441 59.4406 54.3641C59.7306 53.6541 59.9156 52.8991 59.9806 52.1191H55.9456C55.8406 52.6841 55.6006 53.2141 55.2406 53.6641L55.2456 53.6691Z" fill="#3538CD"/>
<path d="M52.505 54.995C50.575 54.995 49.005 53.425 49.005 51.49C49.005 49.73 50.31 48.265 52 48.025V44C48.095 44.26 45 47.52 45 51.49C45 55.46 48.365 59 52.505 59C54.305 59 56.005 58.37 57.37 57.205L54.525 54.355C53.94 54.77 53.24 54.995 52.51 54.995H52.505Z" fill="#3538CD"/>
<path d="M45.5 39C45.5 38.735 45.425 38.485 45.3 38.27L46.945 36.39C47.115 36.46 47.3 36.5 47.495 36.5C47.69 36.5 47.875 36.46 48.045 36.39L49.69 38.27C49.57 38.485 49.49 38.735 49.49 39C49.49 39.825 50.165 40.5 50.99 40.5C51.815 40.5 52.49 39.825 52.49 39C52.49 38.735 52.415 38.485 52.29 38.27L53.935 36.39C54.105 36.46 54.29 36.5 54.485 36.5C55.31 36.5 55.985 35.825 55.985 35C55.985 34.175 55.31 33.5 54.485 33.5C53.66 33.5 52.985 34.175 52.985 35C52.985 35.265 53.06 35.515 53.185 35.73L51.54 37.61C51.37 37.54 51.185 37.5 50.99 37.5C50.795 37.5 50.61 37.54 50.44 37.61L48.795 35.73C48.915 35.515 48.995 35.265 48.995 35C48.995 34.175 48.32 33.5 47.495 33.5C46.67 33.5 45.995 34.175 45.995 35C45.995 35.265 46.07 35.515 46.195 35.73L44.55 37.61C44.38 37.54 44.195 37.5 44 37.5C43.175 37.5 42.5 38.175 42.5 39C42.5 39.825 43.175 40.5 44 40.5C44.825 40.5 45.5 39.825 45.5 39Z" fill="#3538CD"/>
<path d="M35 43H33C32.7239 43 32.5 43.2239 32.5 43.5V49C32.5 49.2761 32.7239 49.5 33 49.5H35C35.2761 49.5 35.5 49.2761 35.5 49V43.5C35.5 43.2239 35.2761 43 35 43Z" fill="#3538CD"/>
<path d="M39 41H37C36.7239 41 36.5 41.2239 36.5 41.5V49C36.5 49.2761 36.7239 49.5 37 49.5H39C39.2761 49.5 39.5 49.2761 39.5 49V41.5C39.5 41.2239 39.2761 41 39 41Z" fill="#3538CD"/>
<path d="M43 44.5H41C40.7239 44.5 40.5 44.7239 40.5 45V49C40.5 49.2761 40.7239 49.5 41 49.5H43C43.2761 49.5 43.5 49.2761 43.5 49V45C43.5 44.7239 43.2761 44.5 43 44.5Z" fill="#3538CD"/>
<path d="M33 34.5H34C34.275 34.5 34.5 34.275 34.5 34C34.5 33.725 34.275 33.5 34 33.5H33C32.725 33.5 32.5 33.725 32.5 34C32.5 34.275 32.725 34.5 33 34.5Z" fill="#3538CD"/>
<path d="M36 34.5H40C40.275 34.5 40.5 34.275 40.5 34C40.5 33.725 40.275 33.5 40 33.5H36C35.725 33.5 35.5 33.725 35.5 34C35.5 34.275 35.725 34.5 36 34.5Z" fill="#3538CD"/>
<path d="M33 37H34C34.275 37 34.5 36.775 34.5 36.5C34.5 36.225 34.275 36 34 36H33C32.725 36 32.5 36.225 32.5 36.5C32.5 36.775 32.725 37 33 37Z" fill="#3538CD"/>
<path d="M36 37H40C40.275 37 40.5 36.775 40.5 36.5C40.5 36.225 40.275 36 40 36H36C35.725 36 35.5 36.225 35.5 36.5C35.5 36.775 35.725 37 36 37Z" fill="#3538CD"/>
<path d="M33 39.5H34C34.275 39.5 34.5 39.275 34.5 39C34.5 38.725 34.275 38.5 34 38.5H33C32.725 38.5 32.5 38.725 32.5 39C32.5 39.275 32.725 39.5 33 39.5Z" fill="#3538CD"/>
<path d="M40.5 39C40.5 38.725 40.275 38.5 40 38.5H36C35.725 38.5 35.5 38.725 35.5 39C35.5 39.275 35.725 39.5 36 39.5H40C40.275 39.5 40.5 39.275 40.5 39Z" fill="#3538CD"/>
</svg>
