<svg viewBox="0 0 90 89" fill="none" xmlns="http://www.w3.org/2000/svg">
<path d="M0.875 28C0.875 12.536 13.411 0 28.875 0H61.875C77.339 0 89.875 12.536 89.875 28V61C89.875 76.464 77.339 89 61.875 89H28.875C13.411 89 0.875 76.464 0.875 61V28Z" fill="#ECFDF3"/>
<mask id="path-3-outside-1_1964_8590" maskUnits="userSpaceOnUse" x="31" y="30" width="29" height="30" fill="black">
<rect fill="white" x="31" y="30" width="29" height="30"/>
<path fill-rule="evenodd" clip-rule="evenodd" d="M40.5716 58.143V51.8572H32.8572V58.143H40.5716ZM32.4286 51H41.0002C41.1139 51 41.2229 51.0452 41.3033 51.1255C41.3836 51.2059 41.4288 51.3149 41.4288 51.4286V58.5716C41.4288 58.6853 41.3836 58.7943 41.3033 58.8747C41.2229 58.955 41.1139 59.0002 41.0002 59.0002H32.4286C32.3149 59.0002 32.2059 58.955 32.1255 58.8747C32.0452 58.7943 32 58.6853 32 58.5716V51.4286C32 51.3149 32.0452 51.2059 32.1255 51.1255C32.2059 51.0452 32.3149 51 32.4286 51ZM32.8572 33.2859V45.2861H39.5716C39.6853 45.2861 39.7943 45.3313 39.8747 45.4116C39.955 45.492 40.0002 45.601 40.0002 45.7147C40.0002 45.8284 39.955 45.9374 39.8747 46.0178C39.7943 46.0981 39.6853 46.1433 39.5716 46.1433H32.4286C32.3149 46.1433 32.2059 46.0981 32.1255 46.0178C32.0452 45.9374 32 45.8284 32 45.7147V32.8573C32 32.7436 32.0452 32.6346 32.1255 32.5542C32.2059 32.4739 32.3149 32.4287 32.4286 32.4287H39.5716C39.6853 32.4287 39.7943 32.4739 39.8747 32.5542C39.955 32.6346 40.0002 32.7436 40.0002 32.8573C40.0002 32.971 39.955 33.08 39.8747 33.1604C39.7943 33.2408 39.6853 33.2859 39.5716 33.2859H32.8572ZM47.1432 58.143H54.8576V51.4286C54.8576 51.3149 54.9028 51.2059 54.9831 51.1255C55.0635 51.0452 55.1725 51 55.2862 51C55.3999 51 55.5089 51.0452 55.5893 51.1255C55.6696 51.2059 55.7148 51.3149 55.7148 51.4286V58.5716C55.7148 58.6853 55.6696 58.7943 55.5893 58.8747C55.5089 58.955 55.3999 59.0002 55.2862 59.0002H46.7146C46.6009 59.0002 46.4919 58.955 46.4115 58.8747C46.3312 58.7943 46.286 58.6853 46.286 58.5716V51.4286C46.286 51.3149 46.3312 51.2059 46.4115 51.1255C46.4919 51.0452 46.6009 51 46.7146 51C46.8283 51 46.9373 51.0452 47.0177 51.1255C47.0981 51.2059 47.1432 51.3149 47.1432 51.4286V58.143ZM53.427 39.5696C53.5095 39.4871 53.5603 39.3787 53.5713 39.2631C53.5657 39.1577 53.5213 39.0577 53.4463 38.9827C53.366 38.9024 53.2569 38.8572 53.1433 38.8572H50.7147V36.4581C50.7051 36.34 50.6539 36.2289 50.5698 36.1448C50.4874 36.0624 50.379 36.0115 50.2634 36.0006C50.158 36.0062 50.058 36.0505 49.983 36.1255C49.9026 36.2059 49.8575 36.3149 49.8575 36.4286V38.8572H47.4584C47.3403 38.8667 47.2292 38.918 47.1451 39.002C47.0627 39.0845 47.0118 39.1929 47.0009 39.3085C47.0065 39.4139 47.0508 39.5138 47.1258 39.5889C47.2062 39.6692 47.3152 39.7144 47.4289 39.7144H49.8575V42.1135C49.867 42.2316 49.9182 42.3427 50.0023 42.4268C50.0847 42.5092 50.1932 42.5601 50.3088 42.571C50.4142 42.5654 50.5141 42.5211 50.5891 42.4461C50.6695 42.3657 50.7147 42.2567 50.7147 42.143V39.7144H53.1137C53.2319 39.7049 53.343 39.6536 53.427 39.5696ZM54.4132 33.1092C53.1916 32.2929 51.7553 31.8572 50.2861 31.8572C48.3159 31.8572 46.4263 32.6399 45.0332 34.033C43.64 35.4262 42.8574 37.3157 42.8574 39.2859C42.8574 40.7551 43.2931 42.1914 44.1093 43.4131C44.9256 44.6347 46.0858 45.5869 47.4432 46.1491C48.8007 46.7114 50.2943 46.8585 51.7353 46.5718C53.1764 46.2852 54.5 45.5777 55.539 44.5388C56.5779 43.4999 57.2854 42.1762 57.572 40.7352C57.8587 39.2941 57.7116 37.8005 57.1493 36.4431C56.587 35.0856 55.6349 33.9254 54.4132 33.1092ZM45.6827 32.3964C47.0453 31.486 48.6473 31 50.2861 31C52.4836 31 54.5912 31.873 56.1451 33.4269C57.699 34.9808 58.572 37.0883 58.572 39.2859C58.572 40.9247 58.086 42.5267 57.1755 43.8893C56.2651 45.2519 54.971 46.3139 53.457 46.9411C51.9429 47.5682 50.2769 47.7323 48.6696 47.4126C47.0623 47.0929 45.5859 46.3037 44.4271 45.1449C43.2683 43.9861 42.4791 42.5097 42.1594 40.9024C41.8397 39.2951 42.0038 37.6291 42.6309 36.115C43.2581 34.601 44.3201 33.3069 45.6827 32.3964Z"/>
</mask>
<path fill-rule="evenodd" clip-rule="evenodd" d="M40.5716 58.143V51.8572H32.8572V58.143H40.5716ZM32.4286 51H41.0002C41.1139 51 41.2229 51.0452 41.3033 51.1255C41.3836 51.2059 41.4288 51.3149 41.4288 51.4286V58.5716C41.4288 58.6853 41.3836 58.7943 41.3033 58.8747C41.2229 58.955 41.1139 59.0002 41.0002 59.0002H32.4286C32.3149 59.0002 32.2059 58.955 32.1255 58.8747C32.0452 58.7943 32 58.6853 32 58.5716V51.4286C32 51.3149 32.0452 51.2059 32.1255 51.1255C32.2059 51.0452 32.3149 51 32.4286 51ZM32.8572 33.2859V45.2861H39.5716C39.6853 45.2861 39.7943 45.3313 39.8747 45.4116C39.955 45.492 40.0002 45.601 40.0002 45.7147C40.0002 45.8284 39.955 45.9374 39.8747 46.0178C39.7943 46.0981 39.6853 46.1433 39.5716 46.1433H32.4286C32.3149 46.1433 32.2059 46.0981 32.1255 46.0178C32.0452 45.9374 32 45.8284 32 45.7147V32.8573C32 32.7436 32.0452 32.6346 32.1255 32.5542C32.2059 32.4739 32.3149 32.4287 32.4286 32.4287H39.5716C39.6853 32.4287 39.7943 32.4739 39.8747 32.5542C39.955 32.6346 40.0002 32.7436 40.0002 32.8573C40.0002 32.971 39.955 33.08 39.8747 33.1604C39.7943 33.2408 39.6853 33.2859 39.5716 33.2859H32.8572ZM47.1432 58.143H54.8576V51.4286C54.8576 51.3149 54.9028 51.2059 54.9831 51.1255C55.0635 51.0452 55.1725 51 55.2862 51C55.3999 51 55.5089 51.0452 55.5893 51.1255C55.6696 51.2059 55.7148 51.3149 55.7148 51.4286V58.5716C55.7148 58.6853 55.6696 58.7943 55.5893 58.8747C55.5089 58.955 55.3999 59.0002 55.2862 59.0002H46.7146C46.6009 59.0002 46.4919 58.955 46.4115 58.8747C46.3312 58.7943 46.286 58.6853 46.286 58.5716V51.4286C46.286 51.3149 46.3312 51.2059 46.4115 51.1255C46.4919 51.0452 46.6009 51 46.7146 51C46.8283 51 46.9373 51.0452 47.0177 51.1255C47.0981 51.2059 47.1432 51.3149 47.1432 51.4286V58.143ZM53.427 39.5696C53.5095 39.4871 53.5603 39.3787 53.5713 39.2631C53.5657 39.1577 53.5213 39.0577 53.4463 38.9827C53.366 38.9024 53.2569 38.8572 53.1433 38.8572H50.7147V36.4581C50.7051 36.34 50.6539 36.2289 50.5698 36.1448C50.4874 36.0624 50.379 36.0115 50.2634 36.0006C50.158 36.0062 50.058 36.0505 49.983 36.1255C49.9026 36.2059 49.8575 36.3149 49.8575 36.4286V38.8572H47.4584C47.3403 38.8667 47.2292 38.918 47.1451 39.002C47.0627 39.0845 47.0118 39.1929 47.0009 39.3085C47.0065 39.4139 47.0508 39.5138 47.1258 39.5889C47.2062 39.6692 47.3152 39.7144 47.4289 39.7144H49.8575V42.1135C49.867 42.2316 49.9182 42.3427 50.0023 42.4268C50.0847 42.5092 50.1932 42.5601 50.3088 42.571C50.4142 42.5654 50.5141 42.5211 50.5891 42.4461C50.6695 42.3657 50.7147 42.2567 50.7147 42.143V39.7144H53.1137C53.2319 39.7049 53.343 39.6536 53.427 39.5696ZM54.4132 33.1092C53.1916 32.2929 51.7553 31.8572 50.2861 31.8572C48.3159 31.8572 46.4263 32.6399 45.0332 34.033C43.64 35.4262 42.8574 37.3157 42.8574 39.2859C42.8574 40.7551 43.2931 42.1914 44.1093 43.4131C44.9256 44.6347 46.0858 45.5869 47.4432 46.1491C48.8007 46.7114 50.2943 46.8585 51.7353 46.5718C53.1764 46.2852 54.5 45.5777 55.539 44.5388C56.5779 43.4999 57.2854 42.1762 57.572 40.7352C57.8587 39.2941 57.7116 37.8005 57.1493 36.4431C56.587 35.0856 55.6349 33.9254 54.4132 33.1092ZM45.6827 32.3964C47.0453 31.486 48.6473 31 50.2861 31C52.4836 31 54.5912 31.873 56.1451 33.4269C57.699 34.9808 58.572 37.0883 58.572 39.2859C58.572 40.9247 58.086 42.5267 57.1755 43.8893C56.2651 45.2519 54.971 46.3139 53.457 46.9411C51.9429 47.5682 50.2769 47.7323 48.6696 47.4126C47.0623 47.0929 45.5859 46.3037 44.4271 45.1449C43.2683 43.9861 42.4791 42.5097 42.1594 40.9024C41.8397 39.2951 42.0038 37.6291 42.6309 36.115C43.2581 34.601 44.3201 33.3069 45.6827 32.3964Z" fill="#027A48"/>
<path d="M40.5716 51.8572H41.0716V51.3572H40.5716V51.8572ZM40.5716 58.143V58.643H41.0716V58.143H40.5716ZM32.8572 51.8572V51.3572H32.3572V51.8572H32.8572ZM32.8572 58.143H32.3572V58.643H32.8572V58.143ZM41.3033 51.1255L40.9497 51.4791L40.9497 51.4791L41.3033 51.1255ZM41.3033 58.8747L40.9497 58.5211L40.9497 58.5211L41.3033 58.8747ZM32.1255 58.8747L32.4791 58.5211L32.4791 58.5211L32.1255 58.8747ZM32.1255 51.1255L31.772 50.772H31.772L32.1255 51.1255ZM32.8572 45.2861H32.3572V45.7861H32.8572V45.2861ZM32.8572 33.2859V32.7859H32.3572V33.2859H32.8572ZM39.8747 46.0178L39.5211 45.6642L39.5211 45.6642L39.8747 46.0178ZM32.1255 46.0178L32.4791 45.6642L32.4791 45.6642L32.1255 46.0178ZM39.8747 32.5542L39.5211 32.9078L39.5211 32.9078L39.8747 32.5542ZM39.8747 33.1604L39.5211 32.8068L39.5211 32.8068L39.8747 33.1604ZM54.8576 58.143V58.643H55.3576V58.143H54.8576ZM47.1432 58.143H46.6432V58.643H47.1432V58.143ZM55.5893 58.8747L55.2357 58.5211L55.2357 58.5211L55.5893 58.8747ZM46.4115 58.8747L46.7651 58.5211L46.7651 58.5211L46.4115 58.8747ZM46.4115 51.1255L46.7651 51.4791L46.7651 51.4791L46.4115 51.1255ZM47.0177 51.1255L46.6641 51.4791L46.6641 51.4791L47.0177 51.1255ZM53.5713 39.2631L54.069 39.3102L54.0725 39.2735L54.0706 39.2367L53.5713 39.2631ZM53.427 39.5696L53.0735 39.216L53.0735 39.216L53.427 39.5696ZM53.4463 38.9827L53.0928 39.3363L53.0928 39.3363L53.4463 38.9827ZM50.7147 38.8572H50.2147V39.3572H50.7147V38.8572ZM50.7147 36.4581H51.2147V36.438L51.213 36.4179L50.7147 36.4581ZM50.5698 36.1448L50.9234 35.7913L50.9234 35.7913L50.5698 36.1448ZM50.2634 36.0006L50.3105 35.5028L50.2738 35.4993L50.2369 35.5013L50.2634 36.0006ZM49.983 36.1255L49.6295 35.772V35.772L49.983 36.1255ZM49.8575 38.8572V39.3572H50.3575V38.8572H49.8575ZM47.4584 38.8572V38.3572H47.4382L47.4181 38.3588L47.4584 38.8572ZM47.0009 39.3085L46.5031 39.2614L46.4996 39.2981L46.5016 39.3349L47.0009 39.3085ZM47.1258 39.5889L46.7723 39.9424L46.7723 39.9424L47.1258 39.5889ZM49.8575 39.7144H50.3575V39.2144H49.8575V39.7144ZM49.8575 42.1135H49.3575V42.1336L49.3591 42.1537L49.8575 42.1135ZM50.0023 42.4268L50.3559 42.0732L50.3559 42.0732L50.0023 42.4268ZM50.3088 42.571L50.2616 43.0688L50.2984 43.0722L50.3352 43.0703L50.3088 42.571ZM50.5891 42.4461L50.2356 42.0925L50.2356 42.0925L50.5891 42.4461ZM50.7147 39.7144V39.2144H50.2147V39.7144H50.7147ZM53.1137 39.7144V40.2144H53.1339L53.154 40.2128L53.1137 39.7144ZM54.4132 33.1092L54.691 32.6934L54.4132 33.1092ZM45.0332 34.033L45.3868 34.3866V34.3866L45.0332 34.033ZM44.1093 43.4131L43.6936 43.6908L44.1093 43.4131ZM47.4432 46.1491L47.2519 46.6111H47.2519L47.4432 46.1491ZM51.7353 46.5718L51.8329 47.0622L51.7353 46.5718ZM55.539 44.5388L55.8925 44.8923L55.539 44.5388ZM57.572 40.7352L57.0816 40.6376L57.572 40.7352ZM57.1493 36.4431L57.6112 36.2517H57.6112L57.1493 36.4431ZM45.6827 32.3964L45.4049 31.9807V31.9807L45.6827 32.3964ZM56.1451 33.4269L56.4986 33.0733V33.0733L56.1451 33.4269ZM57.1755 43.8893L57.5913 44.1671L57.1755 43.8893ZM53.457 46.9411L53.2656 46.4791L53.457 46.9411ZM44.4271 45.1449L44.0735 45.4985H44.0735L44.4271 45.1449ZM42.1594 40.9024L41.669 40.9999V40.9999L42.1594 40.9024ZM42.6309 36.115L42.169 35.9237V35.9237L42.6309 36.115ZM40.0716 51.8572V58.143H41.0716V51.8572H40.0716ZM32.8572 52.3572H40.5716V51.3572H32.8572V52.3572ZM33.3572 58.143V51.8572H32.3572V58.143H33.3572ZM40.5716 57.643H32.8572V58.643H40.5716V57.643ZM41.0002 50.5H32.4286V51.5H41.0002V50.5ZM41.6568 50.772C41.4827 50.5978 41.2465 50.5 41.0002 50.5V51.5C40.9813 51.5 40.9631 51.4925 40.9497 51.4791L41.6568 50.772ZM41.9288 51.4286C41.9288 51.1823 41.831 50.9461 41.6568 50.772L40.9497 51.4791C40.9363 51.4657 40.9288 51.4475 40.9288 51.4286H41.9288ZM41.9288 58.5716V51.4286H40.9288V58.5716H41.9288ZM41.6568 59.2282C41.831 59.0541 41.9288 58.8179 41.9288 58.5716H40.9288C40.9288 58.5527 40.9363 58.5345 40.9497 58.5211L41.6568 59.2282ZM41.0002 59.5002C41.2465 59.5002 41.4827 59.4024 41.6568 59.2282L40.9497 58.5211C40.9631 58.5077 40.9813 58.5002 41.0002 58.5002V59.5002ZM32.4286 59.5002H41.0002V58.5002H32.4286V59.5002ZM31.772 59.2282C31.9461 59.4024 32.1823 59.5002 32.4286 59.5002V58.5002C32.4475 58.5002 32.4657 58.5077 32.4791 58.5211L31.772 59.2282ZM31.5 58.5716C31.5 58.8179 31.5978 59.0541 31.772 59.2282L32.4791 58.5211C32.4925 58.5345 32.5 58.5527 32.5 58.5716H31.5ZM31.5 51.4286V58.5716H32.5V51.4286H31.5ZM31.772 50.772C31.5978 50.9461 31.5 51.1823 31.5 51.4286H32.5C32.5 51.4475 32.4925 51.4657 32.4791 51.4791L31.772 50.772ZM32.4286 50.5C32.1823 50.5 31.9461 50.5978 31.772 50.772L32.4791 51.4791C32.4657 51.4925 32.4475 51.5 32.4286 51.5V50.5ZM33.3572 45.2861V33.2859H32.3572V45.2861H33.3572ZM39.5716 44.7861H32.8572V45.7861H39.5716V44.7861ZM40.2282 45.0581C40.0541 44.8839 39.8179 44.7861 39.5716 44.7861V45.7861C39.5527 45.7861 39.5345 45.7786 39.5211 45.7652L40.2282 45.0581ZM40.5002 45.7147C40.5002 45.4684 40.4024 45.2322 40.2282 45.0581L39.5211 45.7652C39.5077 45.7518 39.5002 45.7336 39.5002 45.7147H40.5002ZM40.2282 46.3713C40.4024 46.1972 40.5002 45.961 40.5002 45.7147H39.5002C39.5002 45.6958 39.5077 45.6776 39.5211 45.6642L40.2282 46.3713ZM39.5716 46.6433C39.8179 46.6433 40.0541 46.5455 40.2282 46.3713L39.5211 45.6642C39.5345 45.6508 39.5527 45.6433 39.5716 45.6433V46.6433ZM32.4286 46.6433H39.5716V45.6433H32.4286V46.6433ZM31.772 46.3713C31.9461 46.5455 32.1823 46.6433 32.4286 46.6433V45.6433C32.4475 45.6433 32.4657 45.6508 32.4791 45.6642L31.772 46.3713ZM31.5 45.7147C31.5 45.961 31.5978 46.1972 31.772 46.3713L32.4791 45.6642C32.4925 45.6776 32.5 45.6958 32.5 45.7147H31.5ZM31.5 32.8573V45.7147H32.5V32.8573H31.5ZM31.772 32.2007C31.5978 32.3748 31.5 32.611 31.5 32.8573H32.5C32.5 32.8762 32.4925 32.8944 32.4791 32.9078L31.772 32.2007ZM32.4286 31.9287C32.1823 31.9287 31.9461 32.0265 31.772 32.2007L32.4791 32.9078C32.4657 32.9212 32.4475 32.9287 32.4286 32.9287V31.9287ZM39.5716 31.9287H32.4286V32.9287H39.5716V31.9287ZM40.2282 32.2007C40.0541 32.0265 39.8179 31.9287 39.5716 31.9287V32.9287C39.5527 32.9287 39.5345 32.9212 39.5211 32.9078L40.2282 32.2007ZM40.5002 32.8573C40.5002 32.611 40.4024 32.3748 40.2282 32.2007L39.5211 32.9078C39.5077 32.8944 39.5002 32.8762 39.5002 32.8573H40.5002ZM40.2282 33.5139C40.4024 33.3398 40.5002 33.1036 40.5002 32.8573H39.5002C39.5002 32.8384 39.5077 32.8202 39.5211 32.8068L40.2282 33.5139ZM39.5716 33.7859C39.8179 33.7859 40.0541 33.6881 40.2282 33.5139L39.5211 32.8068C39.5345 32.7934 39.5527 32.7859 39.5716 32.7859V33.7859ZM32.8572 33.7859H39.5716V32.7859H32.8572V33.7859ZM54.8576 57.643H47.1432V58.643H54.8576V57.643ZM54.3576 51.4286V58.143H55.3576V51.4286H54.3576ZM54.6296 50.772C54.4554 50.9461 54.3576 51.1823 54.3576 51.4286H55.3576C55.3576 51.4475 55.3501 51.4657 55.3367 51.4791L54.6296 50.772ZM55.2862 50.5C55.0399 50.5 54.8037 50.5978 54.6296 50.772L55.3367 51.4791C55.3233 51.4925 55.3051 51.5 55.2862 51.5V50.5ZM55.9428 50.772C55.7687 50.5978 55.5325 50.5 55.2862 50.5V51.5C55.2673 51.5 55.2491 51.4925 55.2357 51.4791L55.9428 50.772ZM56.2148 51.4286C56.2148 51.1823 56.117 50.9461 55.9428 50.772L55.2357 51.4791C55.2223 51.4657 55.2148 51.4475 55.2148 51.4286H56.2148ZM56.2148 58.5716V51.4286H55.2148V58.5716H56.2148ZM55.9428 59.2282C56.117 59.0541 56.2148 58.8179 56.2148 58.5716H55.2148C55.2148 58.5527 55.2223 58.5345 55.2357 58.5211L55.9428 59.2282ZM55.2862 59.5002C55.5325 59.5002 55.7687 59.4024 55.9428 59.2282L55.2357 58.5211C55.2491 58.5077 55.2673 58.5002 55.2862 58.5002V59.5002ZM46.7146 59.5002H55.2862V58.5002H46.7146V59.5002ZM46.058 59.2282C46.2321 59.4024 46.4683 59.5002 46.7146 59.5002V58.5002C46.7335 58.5002 46.7517 58.5077 46.7651 58.5211L46.058 59.2282ZM45.786 58.5716C45.786 58.8179 45.8838 59.0541 46.058 59.2282L46.7651 58.5211C46.7785 58.5345 46.786 58.5527 46.786 58.5716H45.786ZM45.786 51.4286V58.5716H46.786V51.4286H45.786ZM46.058 50.772C45.8838 50.9461 45.786 51.1823 45.786 51.4286H46.786C46.786 51.4475 46.7785 51.4657 46.7651 51.4791L46.058 50.772ZM46.7146 50.5C46.4683 50.5 46.2321 50.5978 46.058 50.772L46.7651 51.4791C46.7517 51.4925 46.7335 51.5 46.7146 51.5V50.5ZM47.3712 50.772C47.1971 50.5978 46.9609 50.5 46.7146 50.5V51.5C46.6957 51.5 46.6775 51.4925 46.6641 51.4791L47.3712 50.772ZM47.6432 51.4286C47.6432 51.1823 47.5454 50.9461 47.3712 50.772L46.6641 51.4791C46.6507 51.4657 46.6432 51.4475 46.6432 51.4286H47.6432ZM47.6432 58.143V51.4286H46.6432V58.143H47.6432ZM53.0735 39.216L53.0735 39.216L53.7806 39.9231C53.9455 39.7582 54.0472 39.5414 54.069 39.3102L53.0735 39.216ZM53.0928 39.3363C53.0803 39.3238 53.0729 39.3071 53.072 39.2896L54.0706 39.2367C54.0585 39.0083 53.9624 38.7917 53.7999 38.6292L53.0928 39.3363ZM53.1433 39.3572C53.1243 39.3572 53.1062 39.3497 53.0928 39.3363L53.7999 38.6292C53.6257 38.455 53.3895 38.3572 53.1433 38.3572V39.3572ZM50.7147 39.3572H53.1433V38.3572H50.7147V39.3572ZM50.2147 36.4581V38.8572H51.2147V36.4581H50.2147ZM50.2163 36.4984L50.2163 36.4984L51.213 36.4179C51.194 36.1816 51.0915 35.9594 50.9234 35.7913L50.2163 36.4984ZM50.2163 36.4984L50.2163 36.4984L50.9234 35.7913C50.7585 35.6264 50.5416 35.5247 50.3105 35.5028L50.2163 36.4984ZM50.3366 36.4791C50.3241 36.4916 50.3074 36.499 50.2898 36.4999L50.2369 35.5013C50.0086 35.5134 49.792 35.6094 49.6295 35.772L50.3366 36.4791ZM50.3575 36.4286C50.3575 36.4475 50.3499 36.4657 50.3366 36.4791L49.6295 35.772C49.4553 35.9461 49.3575 36.1823 49.3575 36.4286H50.3575ZM50.3575 38.8572V36.4286H49.3575V38.8572H50.3575ZM47.4584 39.3572H49.8575V38.3572H47.4584V39.3572ZM47.4987 39.3556L47.4987 39.3556L47.4181 38.3588C47.1819 38.3779 46.9597 38.4804 46.7916 38.6485L47.4987 39.3556ZM47.4987 39.3556L47.4987 39.3556L46.7916 38.6485C46.6267 38.8133 46.525 39.0302 46.5031 39.2614L47.4987 39.3556ZM47.4794 39.2353C47.4919 39.2478 47.4992 39.2645 47.5002 39.282L46.5016 39.3349C46.5137 39.5633 46.6097 39.7799 46.7723 39.9424L47.4794 39.2353ZM47.4289 39.2144C47.4478 39.2144 47.466 39.2219 47.4794 39.2353L46.7723 39.9424C46.9464 40.1166 47.1826 40.2144 47.4289 40.2144V39.2144ZM49.8575 39.2144H47.4289V40.2144H49.8575V39.2144ZM50.3575 42.1135V39.7144H49.3575V42.1135H50.3575ZM50.3559 42.0732L50.3558 42.0732L49.3591 42.1537C49.3782 42.39 49.4806 42.6122 49.6488 42.7803L50.3559 42.0732ZM50.3559 42.0732L50.3559 42.0732L49.6487 42.7803C49.8136 42.9452 50.0305 43.0469 50.2616 43.0688L50.3559 42.0732ZM50.2356 42.0925C50.2481 42.08 50.2647 42.0726 50.2823 42.0717L50.3352 43.0703C50.5636 43.0582 50.7802 42.9621 50.9427 42.7996L50.2356 42.0925ZM50.2147 42.143C50.2147 42.1241 50.2222 42.1059 50.2356 42.0925L50.9427 42.7996C51.1168 42.6255 51.2147 42.3893 51.2147 42.143H50.2147ZM50.2147 39.7144V42.143H51.2147V39.7144H50.2147ZM53.1137 39.2144H50.7147V40.2144H53.1137V39.2144ZM53.0735 39.216L53.0735 39.216L53.154 40.2128C53.3903 40.1937 53.6125 40.0912 53.7806 39.9231L53.0735 39.216ZM50.2861 32.3572C51.6564 32.3572 52.996 32.7636 54.1355 33.5249L54.691 32.6934C53.3872 31.8222 51.8542 31.3572 50.2861 31.3572V32.3572ZM45.3868 34.3866C46.6861 33.0872 48.4485 32.3572 50.2861 32.3572V31.3572C48.1833 31.3572 46.1666 32.1925 44.6796 33.6795L45.3868 34.3866ZM43.3574 39.2859C43.3574 37.4483 44.0874 35.6859 45.3868 34.3866L44.6796 33.6795C43.1927 35.1664 42.3574 37.1831 42.3574 39.2859H43.3574ZM44.5251 43.1353C43.7637 41.9958 43.3574 40.6563 43.3574 39.2859H42.3574C42.3574 40.854 42.8224 42.387 43.6936 43.6908L44.5251 43.1353ZM47.6346 45.6872C46.3685 45.1628 45.2864 44.2747 44.5251 43.1353L43.6936 43.6908C44.5648 44.9947 45.8031 46.0109 47.2519 46.6111L47.6346 45.6872ZM51.6378 46.0815C50.2938 46.3488 48.9006 46.2116 47.6346 45.6872L47.2519 46.6111C48.7007 47.2112 50.2949 47.3682 51.8329 47.0622L51.6378 46.0815ZM55.1854 44.1852C54.2164 45.1542 52.9818 45.8141 51.6378 46.0815L51.8329 47.0622C53.3709 46.7563 54.7837 46.0012 55.8925 44.8923L55.1854 44.1852ZM57.0816 40.6376C56.8143 41.9816 56.1544 43.2162 55.1854 44.1852L55.8925 44.8923C57.0014 43.7835 57.7565 42.3707 58.0624 40.8327L57.0816 40.6376ZM56.6874 36.6344C57.2118 37.9004 57.349 39.2936 57.0816 40.6376L58.0624 40.8327C58.3684 39.2947 58.2113 37.7005 57.6112 36.2517L56.6874 36.6344ZM54.1355 33.5249C55.2749 34.2862 56.1629 35.3683 56.6874 36.6344L57.6112 36.2517C57.0111 34.8029 55.9949 33.5646 54.691 32.6934L54.1355 33.5249ZM50.2861 30.5C48.5484 30.5 46.8497 31.0153 45.4049 31.9807L45.9605 32.8122C47.2409 31.9566 48.7462 31.5 50.2861 31.5V30.5ZM56.4986 33.0733C54.851 31.4257 52.6162 30.5 50.2861 30.5V31.5C52.351 31.5 54.3314 32.3203 55.7915 33.7804L56.4986 33.0733ZM59.072 39.2859C59.072 36.9557 58.1463 34.721 56.4986 33.0733L55.7915 33.7804C57.2517 35.2406 58.072 37.2209 58.072 39.2859H59.072ZM57.5913 44.1671C58.5567 42.7222 59.072 41.0236 59.072 39.2859H58.072C58.072 40.8258 57.6153 42.3311 56.7598 43.6115L57.5913 44.1671ZM53.6483 47.403C55.2537 46.738 56.6259 45.6119 57.5913 44.1671L56.7598 43.6115C55.9043 44.8919 54.6883 45.8898 53.2656 46.4791L53.6483 47.403ZM48.572 47.903C50.2763 48.242 52.0429 48.068 53.6483 47.403L53.2656 46.4791C51.8429 47.0684 50.2774 47.2226 48.7671 46.9222L48.572 47.903ZM44.0735 45.4985C45.3022 46.7272 46.8677 47.564 48.572 47.903L48.7671 46.9222C47.2568 46.6218 45.8695 45.8802 44.7806 44.7913L44.0735 45.4985ZM41.669 40.9999C42.008 42.7042 42.8448 44.2697 44.0735 45.4985L44.7806 44.7913C43.6917 43.7025 42.9502 42.3152 42.6498 40.8048L41.669 40.9999ZM42.169 35.9237C41.504 37.5291 41.33 39.2956 41.669 40.9999L42.6498 40.8048C42.3494 39.2945 42.5036 37.729 43.0929 36.3064L42.169 35.9237ZM45.4049 31.9807C43.9601 32.9461 42.834 34.3183 42.169 35.9237L43.0929 36.3064C43.6821 34.8837 44.6801 33.6677 45.9605 32.8122L45.4049 31.9807Z" fill="#0E793C" mask="url(#path-3-outside-1_1964_8590)"/>
</svg>
