<svg width="16" height="16" viewBox="0 0 16 16" fill="none" xmlns="http://www.w3.org/2000/svg">
<g clip-path="url(#clip0_7130_8668)">
<g filter="url(#filter0_d_7130_8668)">
<path d="M13.0847 2.31276L13.15 1.34822L13.1676 1.0027L12.824 1.07164L11.8673 1.27988C11.7515 1.30506 11.6367 1.23285 11.6111 1.11845C11.5856 1.00407 11.6588 0.890887 11.7747 0.865646L13.3611 0.520307C13.4273 0.506002 13.4963 0.523103 13.5476 0.566622C13.5989 0.610139 13.6264 0.674967 13.6219 0.741578L13.5137 2.34101C13.5065 2.44762 13.4206 2.53058 13.3156 2.53838C13.3055 2.53913 13.2953 2.53918 13.2849 2.53851C13.1664 2.5307 13.0768 2.42965 13.0847 2.31276Z" fill="#37352F"/>
<path d="M13.0847 2.31276L13.15 1.34822L13.1676 1.0027L12.824 1.07164L11.8673 1.27988C11.7515 1.30506 11.6367 1.23285 11.6111 1.11845C11.5856 1.00407 11.6588 0.890887 11.7747 0.865646L13.3611 0.520307C13.4273 0.506002 13.4963 0.523103 13.5476 0.566622C13.5989 0.610139 13.6264 0.674967 13.6219 0.741578L13.5137 2.34101C13.5065 2.44762 13.4206 2.53058 13.3156 2.53838C13.3055 2.53913 13.2953 2.53918 13.2849 2.53851C13.1664 2.5307 13.0768 2.42965 13.0847 2.31276Z" stroke="#37352F" stroke-width="0.3" stroke-linecap="round" stroke-linejoin="round"/>
</g>
<g filter="url(#filter1_d_7130_8668)">
<path d="M2.40491 6.10196C7.64327 6.10196 12.8816 1.40295 12.8816 1.40295" stroke="#37352F" stroke-width="0.8" stroke-linecap="round" stroke-linejoin="round"/>
</g>
<path d="M13.9526 15.0758H15.285C15.4038 15.0758 15.5 15.1707 15.5 15.2879C15.5 15.4051 15.4038 15.5 15.285 15.5H0.714951C0.596212 15.5 0.5 15.4051 0.5 15.2879C0.5 15.1707 0.596212 15.0758 0.714951 15.0758H1.97496M13.9526 15.0758V10.415M13.9526 15.0758V14.8551M13.9526 10.415C13.9526 10.2979 13.8564 10.2029 13.7377 10.2029C13.6189 10.2029 13.5227 10.2979 13.5227 10.415M13.9526 10.415V4.90739M13.9526 10.415V14.8551M13.5227 10.415V15.0758M13.5227 10.415V14.8551M13.5227 10.415V4.94212M13.5227 15.0758H11.9505V4.94212H13.5227M13.5227 15.0758V14.8551M13.5227 4.94212V14.8551M13.5227 14.8551C13.5227 14.9722 13.6189 15.0672 13.7377 15.0672C13.8564 15.0672 13.9526 15.0758 13.9526 14.8551M13.9526 14.8551V4.90739M13.9526 4.90739C13.9526 4.69263 13.7755 4.51791 13.5579 4.51791H11.9153C11.6977 4.51791 11.5206 4.69266 11.5206 4.90739V15.0758H9.25149V7.98159C9.25149 7.76683 9.0744 7.59215 8.85679 7.59215H7.16701C6.94936 7.59215 6.77233 7.76686 6.77233 7.98159V15.0758H4.58511V10.0055C4.58511 9.79079 4.40801 9.61607 4.1904 9.61607H2.52134C2.30369 9.61607 2.12663 9.79082 2.12663 10.0055V15.0758M2.12663 15.0758H3.73755M2.12663 15.0758H1.97496M3.73755 15.0758H3.30753M3.73755 15.0758H4.15512M1.97496 15.0758H2.40486H3.30753M3.30753 15.0758H2.55642M2.55642 15.0758V10.0402H4.15512V15.0758M2.55642 15.0758H4.15512M7.20215 15.0758V8.01635H8.82153V15.0758H7.20215Z" stroke="#37352F" stroke-width="0.5"/>
</g>
<defs>
<filter id="filter0_d_7130_8668" x="7.45593" y="0.365387" width="10.3165" height="10.3236" filterUnits="userSpaceOnUse" color-interpolation-filters="sRGB">
<feFlood flood-opacity="0" result="BackgroundImageFix"/>
<feColorMatrix in="SourceAlpha" type="matrix" values="0 0 0 0 0 0 0 0 0 0 0 0 0 0 0 0 0 0 127 0" result="hardAlpha"/>
<feOffset dy="4"/>
<feGaussianBlur stdDeviation="2"/>
<feComposite in2="hardAlpha" operator="out"/>
<feColorMatrix type="matrix" values="0 0 0 0 0 0 0 0 0 0 0 0 0 0 0 0 0 0 0.25 0"/>
<feBlend mode="normal" in2="BackgroundImageFix" result="effect1_dropShadow_7130_8668"/>
<feBlend mode="normal" in="SourceGraphic" in2="effect1_dropShadow_7130_8668" result="shape"/>
</filter>
<filter id="filter1_d_7130_8668" x="-1.99512" y="1.00296" width="19.2767" height="13.499" filterUnits="userSpaceOnUse" color-interpolation-filters="sRGB">
<feFlood flood-opacity="0" result="BackgroundImageFix"/>
<feColorMatrix in="SourceAlpha" type="matrix" values="0 0 0 0 0 0 0 0 0 0 0 0 0 0 0 0 0 0 127 0" result="hardAlpha"/>
<feOffset dy="4"/>
<feGaussianBlur stdDeviation="2"/>
<feComposite in2="hardAlpha" operator="out"/>
<feColorMatrix type="matrix" values="0 0 0 0 0 0 0 0 0 0 0 0 0 0 0 0 0 0 0.25 0"/>
<feBlend mode="normal" in2="BackgroundImageFix" result="effect1_dropShadow_7130_8668"/>
<feBlend mode="normal" in="SourceGraphic" in2="effect1_dropShadow_7130_8668" result="shape"/>
</filter>
<clipPath id="clip0_7130_8668">
<rect width="16" height="16" fill="white"/>
</clipPath>
</defs>
</svg>
