<svg xmlns="http://www.w3.org/2000/svg" width="16" height="14" viewBox="0 0 16 14" fill="none">
<path d="M14.8125 4.33042V7.45855C14.8125 7.54558 14.7779 7.62904 14.7164 7.69057C14.6549 7.75211 14.5714 7.78668 14.4844 7.78668C14.3974 7.78668 14.3139 7.75211 14.2524 7.69057C14.1908 7.62904 14.1563 7.54558 14.1563 7.45855V5.12339L10.0602 9.20309C9.96768 9.29601 9.85775 9.36975 9.73669 9.42007C9.61562 9.47038 9.4858 9.49629 9.3547 9.49629C9.22359 9.49629 9.09378 9.47038 8.97271 9.42007C8.85165 9.36975 8.74171 9.29601 8.64923 9.20309L6.82814 7.38199C6.79648 7.35056 6.75892 7.32568 6.71763 7.30879C6.67634 7.2919 6.63212 7.28332 6.58751 7.28355C6.5429 7.28332 6.49868 7.2919 6.45739 7.30879C6.4161 7.32568 6.37855 7.35056 6.34688 7.38199L2.68282 11.0242C2.62118 11.0858 2.53757 11.1205 2.4504 11.1205C2.36322 11.1205 2.27962 11.0858 2.21798 11.0242C2.15633 10.9625 2.1217 10.8789 2.1217 10.7918C2.1217 10.7046 2.15633 10.621 2.21798 10.5593L5.86017 6.91714C5.95256 6.82433 6.06255 6.75089 6.18369 6.70112C6.30483 6.65135 6.43468 6.62625 6.56564 6.6273C6.69655 6.62656 6.82631 6.6518 6.94741 6.70155C7.0685 6.7513 7.17852 6.82458 7.2711 6.91714L9.10861 8.75465C9.14012 8.78639 9.17761 8.81159 9.21891 8.82879C9.2602 8.84598 9.3045 8.85483 9.34923 8.85483C9.39396 8.85483 9.43826 8.84598 9.47955 8.82879C9.52085 8.81159 9.55834 8.78639 9.58986 8.75465L13.6914 4.65308H11.3563C11.2692 4.65308 11.1858 4.61851 11.1242 4.55697C11.0627 4.49544 11.0281 4.41198 11.0281 4.32495C11.0281 4.23793 11.0627 4.15447 11.1242 4.09293C11.1858 4.0314 11.2692 3.99683 11.3563 3.99683H14.4844C14.5714 3.99683 14.6549 4.0314 14.7164 4.09293C14.7779 4.15447 14.8125 4.23793 14.8125 4.32495V4.33042Z" fill="#37352F" stroke="#37352F" stroke-width="0.3"/>
<path d="M0.5 1V13H15.5" stroke="#37352F" stroke-linecap="round" stroke-linejoin="round"/>
</svg>