<svg id="Capa_1" width="55" height="55" enable-background="new 0 0 512 512" viewBox="0 0 512 512" xmlns="http://www.w3.org/2000/svg"><g><g><g><g><g><g><g><g><g><g><g><g><g><g><path d="m67.127 7.5c-17.062 0-30.893 13.831-30.893 30.893v397.945c0 17.062 13.831 30.893 30.893 30.893h290.456c17.062 0 30.893-13.831 30.893-30.893v-333.574c0-6.207-2.466-12.16-6.855-16.549l-71.86-71.86c-4.388-4.389-10.341-6.855-16.548-6.855z" fill="#f4f8f8"/><path d="m333.801 93.069c-2.326 0-4.589-.266-6.769-.753v344.022c0 17.062-13.832 30.893-30.894 30.893h61.445c17.062 0 30.893-13.832 30.893-30.893v-333.575c0-3.378-.735-6.678-2.109-9.694z" fill="#e7ecf1"/><path d="m381.622 86.214-71.86-71.86c-2.001-2.001-4.328-3.596-6.855-4.746v52.567c0 17.062 13.831 30.893 30.893 30.893h52.568c-1.15-2.525-2.746-4.853-4.746-6.854z" fill="#fc8086"/></g></g></g></g></g></g></g></g></g></g><g><g><g><g><g><path d="m413.147 409.314-110.344-65.344c-5.658-3.354-7.527-10.659-4.174-16.318 0 0 2.726-4.602 5.645-9.53l-22.324-13.207c-14.727-8.451-21.613-10.014-34.899-4.878l-14.48 5.598c-8.812 3.407-18.699 2.584-26.827-2.231l-38.757-22.851-55.046 92.915 49.627 29.291c3.362 1.992 6.314 4.604 8.7 7.698l16.723 21.688c9.237 10.803 28.3 24.817 40.528 32.061l63.827 37.813c8.425 4.991 19.301 2.208 24.292-6.217s2.207-19.301-6.217-24.292l19.941 11.814c8.425 4.991 19.301 2.208 24.292-6.217s2.208-19.301-6.217-24.292l13.294 7.876c8.425 4.991 19.301 2.208 24.292-6.217 4.991-8.425 2.208-19.301-6.217-24.292l16.269 9.638c8.424 4.991 19.299 2.207 24.29-6.217 4.989-8.423 2.206-19.298-6.218-24.289z" fill="#ffece3"/></g><path d="m413.147 409.314-38.027-22.519c-.837 3.253-2.451 6.403-5.085 9.138-6.745 7.003-17.573 8.142-25.938 3.187l-10.817-6.408c-.385-.228-.877-.159-1.184.167-.314.333-.339.836-.075 1.21 4.526 6.44 5.155 15.188.883 22.4-5.812 9.811-18.478 13.052-28.289 7.24l-8.498-5.072c-.335-.2-.765-.137-1.029.151-.27.294-.281.734-.04 1.052 4.988 6.583 5.755 15.817 1.129 23.313-5.959 9.656-18.797 12.421-28.559 6.637l-6.979-4.134c-1.385-.821-3.124-.751-4.439.179-1.315.93-1.965 2.547-1.642 4.125.991 4.843.264 10.051-2.454 14.639-2.325 3.924-5.754 6.776-9.65 8.439l48.491 28.728c8.55 5.066 19.957 2.37 24.862-6.273 4.756-8.382 1.94-19.065-6.387-23.999l19.541 11.577c8.551 5.066 19.957 2.37 24.862-6.274 4.756-8.383 1.94-19.065-6.387-23.999l12.894 7.639c8.55 5.066 19.957 2.371 24.862-6.273 4.756-8.382 1.941-19.066-6.387-23.999l15.869 9.402c8.55 5.065 19.955 2.37 24.86-6.273 4.755-8.384 1.94-19.067-6.387-24z" fill="#ffddce"/></g><g><path d="m403.59 286.104-29.766 17.302c-8.128 4.815-18.016 5.637-26.827 2.231l-16.33-6.415c-5.108-2.007-10.716-2.362-16.036-1.015l-25.02 6.332c-11.648 2.948-19.806 13.428-19.806 25.443v33.4c0 4.722 3.827 8.563 8.549 8.566 14.241.009 25.788-11.532 25.788-25.77v-1.414l107.097 63.422c1.984-2.113 4.258-3.941 6.761-5.423l40.637-23.742z" fill="#fcd0a3"/></g><g><path d="m419.468 312.905-5.723 21.223-64.118 37.571 61.611 36.485c1.984-2.113 4.259-3.941 6.761-5.423l40.637-23.742z" fill="#ffb983"/></g><g><g fill="#fcd0a3"><path d="m183.318 422.438-10.041 13.986c-5.709 7.952-16.784 9.771-24.736 4.062-7.952-5.709-9.771-16.784-4.062-24.736l10.041-13.986c5.709-7.952 16.784-9.771 24.736-4.062 7.952 5.709 9.771 16.784 4.062 24.736z"/><path d="m223.197 427.677-21.122 29.421c-5.709 7.952-16.784 9.771-24.736 4.062-7.952-5.709-9.771-16.784-4.062-24.736l21.122-29.421c5.709-7.952 16.784-9.771 24.736-4.062 7.952 5.709 9.771 16.784 4.062 24.736z"/><path d="m251.995 448.352-21.122 29.421c-5.709 7.952-16.784 9.771-24.736 4.062-7.952-5.709-9.771-16.784-4.062-24.736l21.122-29.421c5.709-7.952 16.784-9.771 24.736-4.062 7.952 5.709 9.771 16.783 4.062 24.736z"/></g><path d="m271.408 482.099-7.024 9.784c-5.709 7.952-16.784 9.771-24.736 4.062-7.952-5.709-9.771-16.784-4.062-24.736l7.024-9.784c5.709-7.952 16.784-9.771 24.736-4.062 7.952 5.709 9.771 16.784 4.062 24.736z" fill="#ffb983"/></g></g></g><g fill="#7c8b96"><path d="m187.734 270.894-15.525-9.197c-4.271-2.53-9.784-1.119-12.314 3.152l-63.827 107.737c-2.53 4.271-1.119 9.784 3.152 12.314l15.525 9.197c10.413 6.169 23.856 2.729 30.025-7.685l50.649-85.493c6.169-10.413 2.728-23.856-7.685-30.025z"/><path d="m398.368 261.697-15.525 9.197c-10.413 6.169-13.854 19.612-7.685 30.025l50.649 85.493c6.169 10.413 19.612 13.854 30.025 7.685l15.525-9.197c4.271-2.53 5.682-8.044 3.152-12.314l-63.827-107.737c-2.53-4.271-8.043-5.682-12.314-3.152z"/></g></g></g></g></g><g><g><g><path d="m334.954 137.804h-245.189c-4.16 0-7.532 3.372-7.532 7.532s3.372 7.532 7.532 7.532h245.19c4.16 0 7.532-3.372 7.532-7.532s-3.373-7.532-7.533-7.532z"/><path d="m89.765 100.621h122.594c4.16 0 7.532-3.372 7.532-7.532s-3.372-7.532-7.532-7.532h-122.594c-4.16 0-7.532 3.372-7.532 7.532 0 4.161 3.372 7.532 7.532 7.532z"/><path d="m334.954 184.096h-245.189c-4.16 0-7.532 3.372-7.532 7.532s3.372 7.532 7.532 7.532h245.19c4.16 0 7.532-3.372 7.532-7.532-.001-4.16-3.373-7.532-7.533-7.532z"/><path d="m145.618 459.668h-78.467c-12.879 0-23.358-10.478-23.358-23.357v-397.89c0-12.879 10.479-23.358 23.358-23.358h226.056c.73 0 1.449.067 2.16.163v46.974c0 21.186 17.236 38.421 38.421 38.421h46.973c.097.712.163 1.431.163 2.161v128.261c0 4.16 3.372 7.532 7.532 7.532s7.532-3.372 7.532-7.532v-128.26c0-8.262-3.218-16.03-9.06-21.873l-71.85-71.85c-5.842-5.842-13.609-9.06-21.871-9.06h-226.056c-21.186 0-38.421 17.236-38.421 38.421v397.89c0 21.185 17.236 38.42 38.421 38.42h78.467c4.16 0 7.532-3.372 7.532-7.532s-3.372-7.531-7.532-7.531zm224.655-374.11h-36.484c-12.879 0-23.358-10.479-23.358-23.358v-36.484z"/><path d="m480.958 368.729-63.818-107.72c-4.651-7.854-14.773-10.45-22.631-5.795l-15.523 9.197c-12.049 7.138-17.142 21.583-13.005 34.384-5.23 1.895-10.964 1.865-16.244-.176-12.256-3.856-21.574-11.613-36.963-7.721-26.13 6.653-25.336 6.32-27.7 7.13-15.3-8.711-24.497-11.303-40.739-5.02l-14.478 5.597c-6.703 2.59-14.089 1.976-20.283-1.694l-3.951-2.329c1.928-11.552-3.195-23.743-14.043-30.169 0 0 0 0-.001-.001l-15.522-9.196c-7.836-4.641-17.988-2.043-22.63 5.793l-63.82 107.721c-4.651 7.852-2.063 17.977 5.793 22.63l15.522 9.196c4.697 2.783 9.859 4.106 14.959 4.106 5.687 0 11.294-1.648 16.088-4.752l3.235 1.909-6.83 9.513c-8.139 11.338-5.553 27.104 5.787 35.244 5.244 3.764 11.832 5.483 18.645 4.413 1.081 6.319 4.543 12.233 10.149 16.259 5.265 3.78 11.823 5.501 18.648 4.426 1.084 6.314 4.544 12.223 10.147 16.246 7.53 5.405 16.892 6.03 24.693 2.698 1.707 4.434 4.674 8.438 8.813 11.41 10.808 7.757 25.696 5.734 34.094-4.316l18.15 10.752c12.003 7.113 27.49 3.16 34.607-8.857 1.82-3.072 2.949-6.42 3.362-9.861l.041.025c11.985 7.098 27.507 3.124 34.607-8.858 2.056-3.471 3.183-7.236 3.457-11.009 10.564 2.656 22.077-1.781 27.907-11.621 1.913-3.228 3.022-6.715 3.387-10.224 11.322 4.443 24.555.149 30.949-10.643 3.439-5.805 4.412-12.601 2.739-19.138-.957-3.74-2.717-7.135-5.133-10.002l10.004-5.845c8.463 3.474 18.121 2.918 26.215-1.876l15.52-9.196c7.856-4.65 10.451-14.773 5.796-22.63zm-362.358 18.868-15.522-9.197c-.69-.409-.919-1.303-.511-1.993l63.82-107.723c.411-.693 1.308-.918 1.994-.51l15.521 9.195c6.897 4.087 9.055 12.933 5.043 19.704l-50.641 85.48c-4.042 6.824-12.88 9.085-19.704 5.044zm34.345 46.742c-4.574-3.284-5.62-9.646-2.334-14.222l10.039-13.984c3.198-4.455 9.571-5.674 14.222-2.335 4.565 3.277 5.612 9.656 2.336 14.221l-10.04 13.984c-3.277 4.567-9.66 5.611-14.223 2.336zm28.795 20.673c-4.565-3.278-5.612-9.659-2.335-14.223l10.039-13.983s0 0 0-.001c0 0 0-.001.001-.001l11.079-15.432c1.588-2.211 3.941-3.673 6.627-4.113.558-.092 1.117-.137 1.672-.137 2.114 0 4.171.658 5.923 1.915 2.21 1.588 3.672 3.94 4.112 6.626.441 2.687-.19 5.384-1.778 7.595l-21.119 29.418c-3.282 4.575-9.645 5.622-14.221 2.336zm28.795 20.671c-4.563-3.276-5.611-9.652-2.34-14.216.001-.002.003-.004.004-.006l21.119-29.417c3.275-4.564 9.659-5.612 14.222-2.336 4.565 3.277 5.612 9.657 2.335 14.222l-9.383 13.071s0 0-.001.001l-11.735 16.346c-3.277 4.565-9.655 5.614-14.221 2.335zm33.506 14.108c-4.562-3.276-5.611-9.649-2.342-14.214l7.029-9.79c3.276-4.566 9.659-5.61 14.222-2.335 4.564 3.276 5.612 9.657 2.335 14.222l-7.023 9.781c-3.276 4.566-9.658 5.614-14.221 2.336zm168.819-60.052c-2.866 4.837-9.13 6.441-13.968 3.576-8.192-4.853-61.036-36.16-66.67-39.498-3.58-2.12-8.199-.939-10.319 2.64s-.939 8.199 2.64 10.319l50.403 29.861.001.001c4.839 2.866 6.453 9.111 3.576 13.969-2.867 4.839-9.134 6.44-13.97 3.577-18.642-11.044-33.779-20.012-50.43-29.877-3.581-2.12-8.199-.939-10.319 2.64s-.939 8.199 2.64 10.319l37.138 22.002.008.005c4.842 2.875 6.44 9.117 3.569 13.965-2.867 4.839-9.132 6.442-13.971 3.576l-19.931-11.807c-.002-.001-.005-.002-.007-.004-.002-.001-.004-.002-.006-.003l-14.545-8.618c-3.58-2.121-8.199-.94-10.319 2.64-2.12 3.579-.939 8.199 2.64 10.319l14.548 8.619c.002.001.004.003.006.004 4.839 2.866 6.453 9.11 3.576 13.968-2.867 4.839-9.132 6.442-13.971 3.576l-16.971-10.053c7.275-11.226 4.508-26.354-6.473-34.236-3.225-2.314-6.816-3.755-10.489-4.374 3.896-10.417.537-22.579-8.922-29.369-5.6-4.022-12.305-5.411-18.633-4.419-1.126-6.585-4.727-12.353-10.16-16.252-10.218-7.333-24.104-5.924-32.681 2.753-1.743-3.061-4.149-5.807-7.193-7.992-8.491-6.094-19.515-6.151-27.921-1.018l-3.451-2.037 47.37-79.959 2.255 1.33c9.96 5.9 22.114 7.13 33.378 2.774l14.478-5.597c8.285-3.202 12.854-3.411 21.049.456-5.362 6.024-8.545 13.933-8.545 22.457v33.395c0 8.87 7.211 16.091 16.074 16.097h.022c8.89 0 17.25-3.461 23.539-9.746 3.666-3.664 6.372-8.032 7.994-12.8 9.725 5.759 90.072 53.338 99.387 58.857 2.343 1.388 4.005 3.605 4.68 6.243.675 2.635.282 5.378-1.106 7.721zm54.628-51.339-15.523 9.197c-6.824 4.04-15.662 1.777-19.702-5.043l-23.736-40.065c-2.121-3.579-6.743-4.76-10.319-2.642-3.579 2.12-4.761 6.74-2.642 10.319l23.736 40.066c.447.754.932 1.471 1.434 2.17l-6.599 3.855c-1.334.79-2.617 1.66-3.844 2.605l-102.323-60.595c-5.013-2.967-11.369.65-11.369 6.48-.079.45.778 8.192-5.345 14.313-3.444 3.441-8.022 5.337-12.891 5.337-.004 0-.008 0-.012 0-.563 0-1.021-.464-1.021-1.034v-33.395c0-8.724 6.002-16.084 14.119-18.139l25.016-6.331c9.077-2.294 14.208 2.553 27.799 7.153 9.435 3.65 19.694 3.425 28.8-.464l4.546 7.674c2.121 3.581 6.741 4.761 10.319 2.642 3.579-2.12 4.761-6.74 2.642-10.319l-8.954-15.113c-4.051-6.838-1.794-15.65 5.043-19.703l15.522-9.195c.678-.403 1.575-.197 1.995.511l63.818 107.721c.412.695.185 1.584-.509 1.995z"/></g></g></g></g></svg>