<svg viewBox="0 0 120 120" fill="none" xmlns="http://www.w3.org/2000/svg">
<path fill-rule="evenodd" clip-rule="evenodd" d="M25.0167 11.1095C11.5625 17.2107 0.429583 22.3624 0.277083 22.5579C0.0495833 22.8496 0 27.7674 0 50.0072C0 75.5311 0.0210417 77.1241 0.364583 77.4945C0.777917 77.9402 49.4427 100 50.0127 100C50.59 100 99.2258 77.9471 99.6354 77.4995C99.9787 77.1245 100 75.5285 100 49.9916C100 24.4547 99.9787 22.8587 99.6354 22.4837C99.1715 21.9769 50.5373 -0.0224475 49.9308 1.71931e-05C49.6823 0.00919842 38.471 5.00848 25.0167 11.1095ZM72.6367 13.3233C84.8004 18.8254 94.7221 23.3565 94.6846 23.3926C94.6473 23.4288 91.7469 24.7639 88.2394 26.3597L81.8621 29.2608L78.5873 27.7484C76.786 26.9164 66.7598 22.3729 56.3062 17.6512C45.8529 12.9297 37.2981 9.0152 37.2958 8.9523C37.2875 8.72433 49.9042 3.12378 50.2083 3.22048C50.3802 3.27498 60.4729 7.82145 72.6367 13.3233ZM55.9608 20.7387C68.1437 26.245 78.1148 30.7942 78.1183 30.8484C78.1252 30.9494 69.3612 34.95 69.1331 34.95C69.0181 34.95 58.6046 30.2541 33.2694 18.7778L24.3512 14.7382L25.0402 14.4456C25.4192 14.2846 27.411 13.3821 29.4667 12.44C31.5223 11.498 33.3404 10.7272 33.5069 10.7272C33.6733 10.7272 43.7777 15.2325 55.9608 20.7387ZM44.2708 27.0051L67.6042 37.5889L67.6583 46.6612C67.7121 55.6598 67.7162 55.7369 68.1633 56.1833C68.4115 56.4308 68.8406 56.6334 69.1173 56.6334C69.7058 56.6334 81.7483 51.249 82.1342 50.8134C82.3325 50.5894 82.421 48.2984 82.5 41.3417L82.6042 32.1654L89.6758 28.9672C93.565 27.2081 96.776 25.7688 96.8112 25.7688C96.8462 25.7688 96.875 37.0017 96.875 50.7308V75.6926L74.4558 85.8441C62.1254 91.4273 51.9535 96.0247 51.8517 96.0605C51.7444 96.0984 51.6667 85.6226 51.6667 71.1477V46.1697L56.6094 43.9295C59.3279 42.6974 61.8356 41.5576 62.1821 41.3964C63.0673 40.9846 63.4408 40.1949 63.0823 39.4936C62.9319 39.1992 62.544 38.8392 62.2204 38.6938C61.6606 38.4422 61.4277 38.5215 57.4306 40.3248C55.1198 41.3673 52.5004 42.5343 51.6098 42.918L49.9906 43.6155L48.0681 42.7775C47.0108 42.3165 45.8915 41.8432 45.5804 41.7254C44.7775 41.4214 43.9456 41.7443 43.6233 42.4851C43.1883 43.4852 43.5812 43.9025 46.0933 45.108L48.3325 46.1824L48.3329 71.154C48.3331 84.8885 48.2542 96.0964 48.1573 96.0605C48.0604 96.0247 37.8885 91.4247 25.5531 85.8384L3.125 75.6815V50.7251C3.125 36.9992 3.15958 25.7688 3.20208 25.7688C3.24438 25.7688 11.0437 29.285 20.5337 33.5826C30.6706 38.173 38.0298 41.3964 38.3735 41.3964C38.6952 41.3964 39.1458 41.2206 39.375 41.0057C39.8981 40.5152 39.9267 39.4219 39.4271 39.0007C39.2265 38.8317 34.75 36.7449 29.4792 34.3632C12.6762 26.7707 11.6215 26.2921 8.39479 24.796L5.22729 23.327L12.874 19.8707C17.0798 17.9698 20.6146 16.4162 20.7292 16.418C20.8437 16.42 31.4375 21.1842 44.2708 27.0051ZM79.375 41.3654V48.953L75.2233 50.8396C72.9398 51.8775 71.0179 52.7264 70.9525 52.7264C70.8869 52.7264 70.8333 49.3015 70.8333 45.1154V37.5044L74.8437 35.6585C77.0494 34.6433 78.9715 33.8049 79.1146 33.7953C79.3187 33.7817 79.375 35.4163 79.375 41.3654ZM7.09854 60.2736C6.60854 60.8575 6.545 61.4853 6.92708 61.9637C7.29812 62.4285 21.2419 68.7395 21.904 68.7424C23.181 68.7479 23.8912 67.2267 23.0008 66.3936C22.375 65.8079 8.82146 59.7589 8.13521 59.7589C7.72979 59.7589 7.38771 59.9286 7.09854 60.2736ZM7.50354 66.8425C6.77167 67.1963 6.49167 68.0415 6.88479 68.7092C7.28229 69.3845 14.3187 72.7007 15.3915 72.7183C16.7156 72.74 17.3758 71.2038 16.4062 70.3567C15.9342 69.9444 9.25479 66.8624 8.45208 66.6866C8.215 66.6348 7.78792 66.7048 7.50354 66.8425Z" fill="currentColor"/>
</svg>
