<svg viewBox="0 0 90 89" fill="none" xmlns="http://www.w3.org/2000/svg">
<path d="M0.625 28C0.625 12.536 13.161 0 28.625 0H61.625C77.089 0 89.625 12.536 89.625 28V61C89.625 76.464 77.089 89 61.625 89H28.625C13.161 89 0.625 76.464 0.625 61V28Z" fill="#FFFAEB"/>
<path d="M54.7444 36.0257C55.3832 36.4414 56.1563 36.6092 56.9139 36.4965C57.6714 36.3838 58.3594 35.9987 58.8442 35.4158C59.3291 34.8329 59.5764 34.0938 59.538 33.3419C59.4997 32.59 59.1784 31.8789 58.6366 31.3465C58.0949 30.8142 57.3712 30.4985 56.6059 30.4608C55.8407 30.4232 55.0885 30.6661 54.4953 31.1425C53.902 31.619 53.51 32.2949 53.3954 33.0393C53.2807 33.7837 53.4514 34.5434 53.8746 35.171L48.6056 40.3464C48.5741 40.3778 48.5489 40.4148 48.5316 40.4555C48.0061 39.9637 47.3871 39.5786 46.71 39.3222C46.0329 39.0658 45.3109 38.9432 44.5855 38.9612C43.8601 38.9793 43.1454 39.1378 42.4824 39.4276C41.8194 39.7174 41.221 40.1328 40.7216 40.6501C40.679 40.6992 40.6346 40.741 40.592 40.7901L36.5834 38.5406C36.6609 38.2831 36.702 38.0163 36.7056 37.7478C36.7145 36.9347 36.3949 36.1514 35.8169 35.5695C35.2389 34.9876 34.4497 34.6547 33.6223 34.6436C32.7945 34.6349 31.997 34.9492 31.4048 35.5175C30.8125 36.0858 30.4739 36.8617 30.4631 37.675C30.4578 38.3134 30.655 38.9375 31.0274 39.4607C31.3998 39.9838 31.9288 40.3799 32.5409 40.5939C33.1531 40.8079 33.8178 40.8292 34.4428 40.6548C35.0678 40.4804 35.6219 40.119 36.0282 39.6208L39.8703 41.7775C39.3012 42.7851 39.0734 43.9446 39.2198 45.0879C39.3662 46.2312 39.8792 47.2991 40.6846 48.1368L36.7981 51.9428C36.4864 51.7736 36.1363 51.6841 35.7802 51.6828C35.2186 51.699 34.6855 51.9295 34.294 52.3256C33.9026 52.7216 33.6837 53.252 33.6837 53.8041C33.6837 54.3561 33.9026 54.8865 34.294 55.2825C34.6855 55.6786 35.2186 55.9092 35.7802 55.9253C36.9702 55.9253 37.94 54.9724 37.94 53.8031C37.94 53.4522 37.8474 53.1067 37.6735 52.803L41.6155 48.9242C42.5918 49.5746 43.7542 49.9013 44.9329 49.8565C46.1116 49.8117 47.2448 49.3977 48.167 48.675L51.4372 52.4266C50.6592 53.2503 50.2461 54.344 50.2888 55.467C50.31 56.0231 50.4424 56.5696 50.6784 57.0754C50.9145 57.5812 51.2497 58.0363 51.6648 58.4148C52.0799 58.7933 52.5668 59.0878 53.0978 59.2814C53.6287 59.475 54.1932 59.564 54.7592 59.5432C55.9021 59.5012 56.9812 59.0149 57.7592 58.1911C58.4592 57.4437 58.8627 56.474 58.8961 55.4587C58.9294 54.4434 58.5904 53.4502 57.9409 52.6599C57.2914 51.8696 56.3745 51.3349 55.3574 51.1533C54.3403 50.9716 53.2906 51.155 52.3996 51.6701L49.0424 47.8276C49.7932 46.9152 50.2231 45.7884 50.2678 44.6158C50.3125 43.4433 49.9696 42.288 49.2904 41.3229C49.3579 41.2916 49.4203 41.2505 49.4754 41.2011L54.7444 36.0257ZM56.447 31.6795C56.9379 31.6795 57.4086 31.8711 57.7557 32.2121C58.1028 32.5532 58.2978 33.0157 58.2978 33.498C58.2978 33.9803 58.1028 34.4428 57.7557 34.7838C57.4086 35.1249 56.9379 35.3165 56.447 35.3165C55.4218 35.3165 54.5963 34.5036 54.5963 33.498C54.5963 32.4924 55.4218 31.6795 56.447 31.6795ZM33.6204 39.559C32.5951 39.559 31.7697 38.7479 31.7697 37.7405C31.7697 36.7349 32.5951 35.922 33.6204 35.922C34.1113 35.922 34.582 36.1136 34.9291 36.4546C35.2762 36.7957 35.4711 37.2582 35.4711 37.7405C35.4711 38.2228 35.2762 38.6853 34.9291 39.0264C34.582 39.3674 34.1113 39.559 33.6204 39.559ZM35.7784 54.7124C35.6535 54.718 35.5288 54.6987 35.4117 54.6556C35.2946 54.6126 35.1876 54.5467 35.0972 54.4619C35.0068 54.3771 34.9348 54.2752 34.8855 54.1623C34.8363 54.0494 34.8108 53.9278 34.8107 53.805C34.8106 53.6822 34.8358 53.5606 34.8848 53.4476C34.9338 53.3346 35.0056 53.2326 35.0959 53.1476C35.1861 53.0626 35.293 52.9965 35.41 52.9532C35.5269 52.9099 35.6516 52.8904 35.7765 52.8957C36.0145 52.906 36.2394 53.006 36.4042 53.175C36.5691 53.3441 36.6612 53.5691 36.6614 53.8032C36.6617 54.0373 36.57 54.2625 36.4055 54.4318C36.241 54.6012 36.0164 54.7017 35.7784 54.7124ZM54.5926 52.2884C56.2953 52.2884 57.6778 53.6449 57.6778 55.3179C57.6758 56.1213 57.3501 56.8913 56.772 57.4594C56.1938 58.0274 55.4103 58.3474 54.5926 58.3493C53.7877 58.33 53.0224 58.0022 52.4601 57.436C51.8978 56.8698 51.5831 56.11 51.5831 55.3189C51.5831 54.5277 51.8978 53.768 52.4601 53.2017C53.0224 52.6355 53.7877 52.3077 54.5926 52.2884ZM44.7228 48.6514C44.1557 48.6519 43.594 48.5425 43.0699 48.3294C42.5459 48.1164 42.0697 47.8039 41.6687 47.4099C41.2676 47.0158 40.9496 46.5479 40.7328 46.033C40.516 45.518 40.4046 44.9661 40.4051 44.4089C40.4046 43.8516 40.516 43.2997 40.7328 42.7848C40.9496 42.2698 41.2676 41.8019 41.6687 41.4079C42.0697 41.0138 42.5459 40.7014 43.0699 40.4883C43.594 40.2753 44.1557 40.1659 44.7228 40.1664C45.2899 40.1661 45.8515 40.2757 46.3754 40.4888C46.8994 40.7019 47.3755 41.0144 47.7764 41.4084C48.1774 41.8024 48.4955 42.2702 48.7124 42.7851C48.9292 43.2999 49.0408 43.8517 49.0405 44.4089C49.0371 45.533 48.5811 46.6102 47.7721 47.4051C46.9631 48.2 45.8669 48.648 44.7228 48.6514Z" fill="#B54708" stroke="#B54708" stroke-width="0.1"/>
<path fill-rule="evenodd" clip-rule="evenodd" d="M53.4857 31.5612C53.8651 30.9994 54.4019 30.5575 55.0313 30.2889C55.6607 30.0204 56.3558 29.9366 57.0326 30.0478C57.7094 30.159 58.3389 30.4603 58.8452 30.9155C59.3515 31.3706 59.7128 31.96 59.8856 32.6125C60.0583 33.2651 60.0351 33.9528 59.8187 34.5926C59.6022 35.2325 59.2019 35.797 58.666 36.2182C58.1302 36.6393 57.4816 36.899 56.7988 36.9658C56.116 37.0326 55.4281 36.9037 54.8182 36.5948L49.9046 41.4228C50.4907 42.3996 50.7771 43.522 50.7295 44.655C50.6819 45.7879 50.3023 46.8833 49.6362 47.8093L52.5067 51.0953C53.3716 50.6791 54.3446 50.5302 55.2974 50.6681C56.2502 50.8061 57.1381 51.2245 57.8441 51.8682C58.5237 52.4874 59.0051 53.2874 59.2298 54.1709C59.4545 55.0543 59.4126 55.9829 59.1094 56.8434C58.8062 57.7039 58.2547 58.459 57.5222 59.0168C56.7896 59.5746 55.9078 59.9109 54.9841 59.9846C54.0604 60.0583 53.1348 59.8664 52.3203 59.4321C51.5057 58.9978 50.8374 58.34 50.3968 57.5389C49.9562 56.7378 49.7623 55.828 49.8389 54.9206C49.9155 54.0131 50.2592 53.1471 50.8281 52.4283L48.0946 49.2914C47.156 49.9202 46.0548 50.2739 44.9194 50.3112C43.784 50.3486 42.6612 50.068 41.6819 49.5023L38.2303 52.8993C38.3414 53.1848 38.4025 53.4921 38.4025 53.803C38.3714 54.4657 38.0817 55.0911 37.5934 55.5493C37.1052 56.0074 36.4561 56.2631 35.7809 56.2631C35.1058 56.2631 34.4567 56.0074 33.9684 55.5493C33.4802 55.0911 33.1905 54.4657 33.1594 53.803C33.1594 52.3828 34.3346 51.2281 35.78 51.2281C36.0946 51.2281 36.4074 51.2863 36.6998 51.3972L40.0496 48.1148C39.3469 47.2629 38.9005 46.2349 38.7609 45.1469C38.6212 44.0589 38.7939 42.9542 39.2593 41.9575L36.1224 40.199C35.445 40.8664 34.5123 41.2464 33.5425 41.2355C32.5914 41.2235 31.684 40.841 31.0198 40.172C30.3556 39.503 29.9889 38.6022 30.0003 37.6677C30.0125 36.7337 30.4013 35.8427 31.0813 35.1902C31.7614 34.5377 32.6772 34.1769 33.6276 34.1871C34.5778 34.1995 35.4841 34.5818 36.1478 35.25C36.8115 35.9181 37.1784 36.8177 37.168 37.7513V37.7549C37.1645 37.9422 37.1459 38.1288 37.1125 38.3132L40.5049 40.2172C41.5513 39.1944 42.9457 38.5877 44.4198 38.5139C45.8939 38.44 47.3437 38.9042 48.4907 39.8171L53.2932 35.0981C53.0026 34.5449 52.8674 33.9255 52.9015 33.3037C52.9357 32.682 53.138 32.0805 53.4876 31.5612H53.4857ZM49.1606 40.8718L54.685 35.4437L54.9996 35.6491C55.5428 36.0025 56.2001 36.1451 56.8442 36.0492C57.4883 35.9533 58.0732 35.6258 58.4854 35.1301C58.8977 34.6344 59.1078 34.006 59.0752 33.3667C59.0426 32.7274 58.7694 32.1228 58.3088 31.6702C57.8481 31.2176 57.2328 30.9492 56.5822 30.9171C55.9316 30.885 55.292 31.0915 54.7876 31.4966C54.2831 31.9016 53.9498 32.4763 53.8522 33.1092C53.7546 33.7421 53.8997 34.388 54.2593 34.9217L54.4684 35.2309L48.9515 40.6536L48.7757 41.0555L49.0995 40.91C49.1215 40.9 49.1421 40.8871 49.1606 40.8718ZM48.6147 41.1628L48.2131 40.7882C47.2421 39.8797 45.9437 39.3873 44.6033 39.4194C43.263 39.4514 41.9905 40.0053 41.0656 40.9591L40.999 41.03L40.9972 41.0318C40.9783 41.051 40.9598 41.0704 40.9416 41.09L40.6936 41.3701L36.0336 38.7569L36.139 38.4096C36.2048 38.1917 36.2397 37.9659 36.2427 37.7386C36.2491 37.0467 35.9764 36.3805 35.4843 35.8857C34.9922 35.3909 34.3206 35.1077 33.6165 35.0981C32.9115 35.0909 32.2323 35.3586 31.7278 35.8427C31.2234 36.3267 30.9349 36.9876 30.9256 37.6804C30.9222 38.2233 31.0908 38.7538 31.408 39.1984C31.7252 39.643 32.1753 39.9796 32.6959 40.1617C33.2164 40.3437 33.7818 40.3621 34.3135 40.2144C34.8452 40.0666 35.317 39.76 35.6634 39.337L35.9114 39.0315L40.4956 41.6047L40.2735 41.9975C39.7527 42.9209 39.5444 43.9832 39.6788 45.0307C39.8132 46.0781 40.2834 47.0564 41.0212 47.8239L41.3303 48.1457L36.8793 52.5046L36.5758 52.341C36.3323 52.208 36.0586 52.1373 35.78 52.1355C35.3436 52.1555 34.9319 52.34 34.6302 52.6505C34.3286 52.961 34.1603 53.3738 34.1603 53.803C34.1603 54.2323 34.3286 54.6451 34.6302 54.9556C34.9319 55.2661 35.3436 55.4506 35.78 55.4706C36.23 55.4701 36.6613 55.2943 36.9795 54.9816C37.2977 54.669 37.4766 54.2452 37.4771 53.803C37.4768 53.5305 37.4054 53.2625 37.2698 53.0247L37.0996 52.7247L41.5598 48.3367L41.8744 48.5476C42.7689 49.1439 43.8341 49.4435 44.9142 49.4026C45.9944 49.3617 47.0329 48.9825 47.8781 48.3203L48.2279 48.0475L52.057 52.4392L51.7757 52.7374C51.4319 53.1016 51.1645 53.5287 50.9887 53.9945C50.8129 54.4602 50.7322 54.9554 50.7512 55.4517C50.7702 55.9481 50.8885 56.4359 51.0994 56.8874C51.3102 57.3388 51.6095 57.745 51.9802 58.0828C52.3508 58.4206 52.7855 58.6834 53.2595 58.8561C53.7335 59.0288 54.2374 59.1081 54.7426 59.0894C55.2478 59.0708 55.7442 58.9545 56.2037 58.7473C56.6631 58.5402 57.0765 58.2461 57.4203 57.8819C58.0456 57.2146 58.4061 56.3487 58.4359 55.4421C58.4657 54.5354 58.163 53.6485 57.5828 52.9429C57.0027 52.2372 56.1838 51.76 55.2755 51.5981C54.3671 51.4362 53.4298 51.6005 52.6344 52.0609L52.3013 52.2555L48.4407 47.8366L48.6831 47.5402C49.3706 46.7041 49.7642 45.6717 49.8048 44.5975C49.8455 43.5233 49.5312 42.4651 48.9089 41.581L48.6147 41.1628ZM56.4468 32.1358C56.2645 32.1356 56.0839 32.1707 55.9154 32.2392C55.7469 32.3076 55.5938 32.4081 55.4648 32.5348C55.3359 32.6615 55.2336 32.8119 55.164 32.9775C55.0943 33.1431 55.0586 33.3205 55.0588 33.4997C55.0588 33.8614 55.2051 34.2083 55.4654 34.4641C55.7257 34.7199 56.0787 34.8636 56.4468 34.8636C56.815 34.8636 57.168 34.7199 57.4283 34.4641C57.6886 34.2083 57.8349 33.8614 57.8349 33.4997C57.8351 33.3205 57.7994 33.1431 57.7297 32.9775C57.66 32.8119 57.5578 32.6615 57.4289 32.5348C57.2999 32.4081 57.1468 32.3076 56.9783 32.2392C56.8098 32.1707 56.6292 32.1356 56.4468 32.1358ZM54.1335 33.4997C54.1335 32.8968 54.3772 32.3187 54.811 31.8924C55.2449 31.4661 55.8333 31.2266 56.4468 31.2266C57.0604 31.2266 57.6488 31.4661 58.0827 31.8924C58.5165 32.3187 58.7602 32.8968 58.7602 33.4997C58.7602 34.1026 58.5165 34.6807 58.0827 35.107C57.6488 35.5333 57.0604 35.7728 56.4468 35.7728C55.8333 35.7728 55.2449 35.5333 54.811 35.107C54.3772 34.6807 54.1335 34.1026 54.1335 33.4997ZM33.6221 36.3765C33.4397 36.3763 33.2591 36.4114 33.0906 36.4799C32.9221 36.5483 32.769 36.6488 32.6401 36.7755C32.5111 36.9022 32.4089 37.0526 32.3392 37.2182C32.2696 37.3838 32.2338 37.5612 32.2341 37.7404C32.2341 38.0101 32.3155 38.2738 32.468 38.4981C32.6205 38.7224 32.8373 38.8972 33.0909 39.0004C33.3445 39.1037 33.6236 39.1307 33.8929 39.078C34.1621 39.0254 34.4095 38.8955 34.6036 38.7048C34.7977 38.5141 34.9299 38.271 34.9834 38.0065C35.037 37.7419 35.0095 37.4677 34.9045 37.2185C34.7994 36.9693 34.6215 36.7562 34.3932 36.6064C34.165 36.4565 33.8966 36.3765 33.6221 36.3765ZM31.3087 37.7404C31.3087 36.4838 32.3414 35.4673 33.6221 35.4673C34.0796 35.4673 34.5269 35.6006 34.9073 35.8504C35.2878 36.1002 35.5843 36.4552 35.7594 36.8705C35.9345 37.2859 35.9803 37.7429 35.891 38.1839C35.8018 38.6248 35.5814 39.0298 35.2579 39.3477C34.9344 39.6656 34.5222 39.8821 34.0734 39.9698C33.6247 40.0575 33.1595 40.0125 32.7368 39.8405C32.3141 39.6684 31.9528 39.3771 31.6986 39.0033C31.4444 38.6295 31.3087 38.19 31.3087 37.7404ZM44.7263 40.6191C44.2196 40.6183 43.7178 40.7159 43.2495 40.9061C42.7812 41.0963 42.3558 41.3754 41.9975 41.7274C41.6392 42.0795 41.3551 42.4975 41.1616 42.9577C40.968 43.4178 40.8687 43.9109 40.8695 44.4088C40.8695 46.5018 42.5925 48.1967 44.7245 48.1967C45.7462 48.1933 46.725 47.7929 47.4473 47.0829C48.1695 46.3728 48.5766 45.4108 48.5795 44.4069C48.5797 43.9094 48.4802 43.4168 48.2865 42.9571C48.0929 42.4974 47.8089 42.0798 47.4509 41.728C47.0929 41.3762 46.6678 41.0972 46.2 40.9069C45.7322 40.7166 45.2326 40.6188 44.7263 40.6191ZM39.9422 44.4088C39.9418 43.7918 40.0651 43.1808 40.3051 42.6107C40.5452 42.0406 40.8973 41.5226 41.3413 41.0863C41.7853 40.6501 42.3125 40.3041 42.8927 40.0682C43.4729 39.8323 44.0947 39.7112 44.7226 39.7116C45.3505 39.7114 45.9722 39.8327 46.5523 40.0687C47.1324 40.3047 47.6595 40.6506 48.1034 41.0869C48.5473 41.5231 48.8995 42.041 49.1396 42.611C49.3798 43.181 49.5032 43.7919 49.503 44.4088C49.503 45.0256 49.3793 45.6364 49.1391 46.2063C48.8989 46.7762 48.5468 47.294 48.1029 47.7301C47.659 48.1663 47.132 48.5123 46.552 48.7484C45.972 48.9844 45.3504 49.1059 44.7226 49.1059C44.0949 49.1059 43.4732 48.9844 42.8933 48.7484C42.3133 48.5123 41.7863 48.1663 41.3424 47.7301C40.8985 47.294 40.5464 46.7762 40.3061 46.2063C40.0659 45.6364 39.9422 45.0256 39.9422 44.4088ZM54.5924 52.7429C53.9092 52.7607 53.2601 53.0399 52.7833 53.521C52.3065 54.0022 52.0396 54.6472 52.0396 55.3187C52.0396 55.9903 52.3065 56.6353 52.7833 57.1164C53.2601 57.5976 53.9092 57.8768 54.5924 57.8946C55.2874 57.8927 55.9533 57.6206 56.4446 57.1378C56.936 56.655 57.2129 56.0007 57.2149 55.3178C57.2149 53.8958 56.0397 52.7429 54.5924 52.7429ZM51.0465 55.3178C51.0677 54.4073 51.4506 53.5411 52.1135 52.9045C52.7764 52.2679 53.6665 51.9114 54.5934 51.9114C55.5203 51.9114 56.4104 52.2679 57.0732 52.9045C57.7361 53.5411 58.1191 54.4073 58.1402 55.3178C58.1378 56.2413 57.7635 57.1264 57.0991 57.7795C56.4347 58.4327 55.5342 58.801 54.5943 58.8039C53.6535 58.8034 52.7514 58.4359 52.0862 57.7823C51.4209 57.1286 51.047 56.2422 51.0465 55.3178ZM35.7782 53.3484C35.6555 53.3484 35.5378 53.3963 35.451 53.4816C35.3642 53.5668 35.3155 53.6825 35.3155 53.803C35.3155 53.9236 35.3642 54.0392 35.451 54.1245C35.5378 54.2098 35.6555 54.2577 35.7782 54.2577C35.9009 54.2577 36.0186 54.2098 36.1053 54.1245C36.1921 54.0392 36.2408 53.9236 36.2408 53.803C36.2408 53.6825 36.1921 53.5668 36.1053 53.4816C36.0186 53.3963 35.9009 53.3484 35.7782 53.3484ZM34.3901 53.803C34.3832 53.6199 34.4139 53.4372 34.4804 53.266C34.547 53.0947 34.6479 52.9384 34.7773 52.8064C34.9067 52.6743 35.0619 52.5693 35.2335 52.4975C35.4051 52.4257 35.5897 52.3886 35.7763 52.3885C35.9628 52.3884 36.1475 52.4252 36.3192 52.4968C36.4909 52.5683 36.6462 52.6732 36.7758 52.8051C36.9054 52.9369 37.0065 53.0931 37.0733 53.2643C37.1401 53.4354 37.171 53.618 37.1643 53.8012C37.1515 54.1541 36.9998 54.4883 36.7413 54.7336C36.4827 54.9788 36.1375 55.116 35.7781 55.1162C35.4188 55.1164 35.0733 54.9797 34.8145 54.7348C34.5556 54.4899 34.4035 54.1559 34.3901 53.803Z" fill="#B54708" stroke="#B54708" stroke-width="0.1"/>
</svg>
