<svg width="1em" height="1em" viewBox="0 0 24 24" fill="none" xmlns="http://www.w3.org/2000/svg">
<path d="M15.5 19.9001L19.3105 17.7001V13.3001L15.5 11.1001L11.6895 13.3001V17.7001L15.5 19.9001ZM15.5 19.9001V15.7751M15.5 15.7751L11.925 13.5751M15.5 15.7751L19.075 13.5751" stroke="#535862" stroke-linecap="round" stroke-linejoin="round"/>
<path d="M9.96615 8.02604C9.36865 8.02604 4.13281 7.96771 4.13281 5.94271C4.13281 3.91771 9.36865 3.85938 9.96615 3.85938C10.5636 3.85938 15.7995 3.91771 15.7995 5.94271C15.7995 7.96771 10.5636 8.02604 9.96615 8.02604ZM5.43615 5.94271C5.82865 6.27688 7.47531 6.77604 9.96615 6.77604C12.457 6.77604 14.1036 6.27688 14.4961 5.94271C14.1036 5.60854 12.457 5.10938 9.96615 5.10938C7.47531 5.10938 5.82865 5.60854 5.43615 5.94271Z" fill="#535862"/>
<path d="M9.96615 11.3598C9.36865 11.3598 4.13281 11.3015 4.13281 9.27647C4.13281 8.93147 4.41281 8.65147 4.75781 8.65147C5.10281 8.65147 5.38281 8.93147 5.38281 9.27647C5.56531 9.52564 7.27281 10.1098 9.96615 10.1098C12.6595 10.1098 14.367 9.52564 14.567 9.19814C14.567 8.8523 14.8378 8.6123 15.1828 8.6123C15.5286 8.6123 15.7995 8.93147 15.7995 9.27647C15.7995 11.3015 10.5636 11.3598 9.96615 11.3598Z" fill="#535862"/>
<path d="M9.96615 14.6927C9.36865 14.6927 4.13281 14.6344 4.13281 12.6094C4.13281 12.2644 4.41281 11.9844 4.75781 11.9844C5.08448 11.9844 5.35198 12.2344 5.38031 12.5527C5.63448 12.8827 7.32531 13.4427 9.96615 13.4427C10.617 13.4427 11.2303 13.4102 11.787 13.3469C12.127 13.311 12.4395 13.5544 12.4786 13.8969C12.5178 14.2402 12.272 14.5494 11.9286 14.5894C11.3253 14.6577 10.6653 14.6927 9.96615 14.6927Z" fill="#535862"/>
<path d="M15.1758 11.7757C14.8308 11.7757 14.5508 11.4957 14.5508 11.1507V5.94238C14.5508 5.59738 14.8308 5.31738 15.1758 5.31738C15.5208 5.31738 15.8008 5.59738 15.8008 5.94238V11.1507C15.8008 11.4957 15.5208 11.7757 15.1758 11.7757Z" fill="#535862"/>
<path d="M9.96615 18.0257C9.36865 18.0257 4.13281 17.9674 4.13281 15.9424V5.94238C4.13281 5.59738 4.41281 5.31738 4.75781 5.31738C5.10281 5.31738 5.38281 5.59738 5.38281 5.94238V15.9424C5.56448 16.1924 7.27031 16.7757 9.96615 16.7757C10.5803 16.7757 11.1903 16.7457 11.7795 16.6874C12.1145 16.6457 11.4286 16.9032 11.4628 17.2474C11.497 17.5907 12.2461 17.8965 11.9028 17.9307C11.2728 17.994 10.622 18.0257 9.96615 18.0257Z" fill="#535862"/>
</svg>
