<svg viewBox="0 0 50 50" fill="none" xmlns="http://www.w3.org/2000/svg">
<g clip-path="url(#clip0_12346_255970)">
<path d="M48.1017 15.4312H39.8897V18.8326C40.6775 20.7325 41.1133 22.8153 41.1133 25.0002L45.5566 30.8596L50 25.0002C50 21.6104 49.324 18.3789 48.1017 15.4312Z" fill="#1E8078"/>
<path d="M39.8898 18.8324L48.1017 15.431C46.8346 12.3755 44.9804 9.625 42.6777 7.32227H36.3939V13.6062C37.8779 15.0903 39.0731 16.8631 39.8898 18.8324Z" fill="#58AB65"/>
<path d="M42.6776 42.6778C38.1536 47.202 31.9035 50.0002 25 50.0002L19.1406 45.5568L25 41.1135C29.4495 41.1135 33.4778 39.31 36.3938 36.394H42.6777L42.6776 42.6778Z" fill="#E41D1A"/>
<path d="M50 25C50 31.9035 47.2017 38.1536 42.6776 42.6776L36.3937 36.3937C39.3098 33.4778 41.1133 29.4495 41.1133 25H50Z" fill="#00ADD2"/>
<path d="M42.6776 7.32236C38.1535 2.79824 31.9035 0 25 0L20.6055 4.44336L25 8.88672C29.4495 8.88672 33.4778 10.6902 36.3938 13.6062L42.6776 7.32236Z" fill="#92D652"/>
<path d="M25 8.88672V0C11.1929 0 0 11.1929 0 25L4.44336 30.8594L8.88672 25C8.88672 16.1009 16.1009 8.88672 25 8.88672Z" fill="#FFCD37"/>
<path d="M7.32236 42.6778C11.8464 47.202 18.0965 50.0002 25 50.0002V41.1135C20.5505 41.1135 16.5222 39.31 13.6061 36.394H7.32236V42.6778Z" fill="#F45E38"/>
<path d="M0 25C0 31.9035 2.79824 38.1536 7.32236 42.6776L13.6063 36.3937C10.6902 33.4778 8.88672 29.4495 8.88672 25H0Z" fill="#F88338"/>
<path d="M25 41.1133C33.8991 41.1133 41.1133 33.8991 41.1133 25C41.1133 16.1009 33.8991 8.88672 25 8.88672C16.1009 8.88672 8.88672 16.1009 8.88672 25C8.88672 33.8991 16.1009 41.1133 25 41.1133Z" fill="white"/>
<path d="M16.2109 23.5352H19.1406V26.4648H16.2109V23.5352Z" fill="#1E3E45"/>
<path d="M22.0703 23.5352V26.4648H25L26.4648 25L25 23.5352H22.0703Z" fill="#1E3E45"/>
<path d="M25 23.5352H33.7891V26.4648H25V23.5352Z" fill="#00232B"/>
<path d="M16.2109 17.6758H19.1406V20.6055H16.2109V17.6758Z" fill="#1E3E45"/>
<path d="M22.0703 17.6758V20.6055H25L26.4648 19.1406L25 17.6758H22.0703Z" fill="#1E3E45"/>
<path d="M25 17.6758H33.7891V20.6055H25V17.6758Z" fill="#00232B"/>
<path d="M16.2109 29.3945H19.1406V32.3242H16.2109V29.3945Z" fill="#1E3E45"/>
<path d="M22.0703 29.3945V32.3242H25L26.4648 30.8594L25 29.3945H22.0703Z" fill="#1E3E45"/>
<path d="M25 29.3945H33.7891V32.3242H25V29.3945Z" fill="#00232B"/>
</g>
<defs>
<clipPath id="clip0_12346_255970">
<rect width="50" height="50" fill="white"/>
</clipPath>
</defs>
</svg>
