<svg width="55" height="55" viewBox="0 0 55 55" fill="none" xmlns="http://www.w3.org/2000/svg">
<rect width="55" height="38" rx="4" fill="#FBF2DB"/>
<path d="M50.0342 51.2431H3.96581C3.43237 51.2431 3 50.8107 3 50.2772V49.0869C3 48.5535 3.43237 48.1211 3.96581 48.1211H50.0342C50.5676 48.1211 51 48.5535 51 49.0869V50.2772C51 50.8107 50.5676 51.2431 50.0342 51.2431Z" fill="#3D4FC3"/>
<path d="M50.0341 51.2431H48.6584V48.1211H50.0341C50.5676 48.1211 50.9999 48.5535 50.9999 49.0869V50.2772C50.9999 50.8107 50.5676 51.2431 50.0341 51.2431Z" fill="#3342AA"/>
<path d="M10.4245 35.0469H6.11217C5.57874 35.0469 5.14636 35.4793 5.14636 36.0127V48.12H11.3903V36.0127C11.3903 35.4793 10.9579 35.0469 10.4245 35.0469Z" fill="#9DC6FB"/>
<path d="M10.4245 35.0469H9.24402V48.12H11.3903V36.0127C11.3903 35.4793 10.958 35.0469 10.4245 35.0469Z" fill="#80B4FB"/>
<path d="M22.9122 22.3672H18.5998C18.0664 22.3672 17.634 22.7996 17.634 23.333V48.1233H23.878V23.333C23.878 22.7996 23.4456 22.3672 22.9122 22.3672Z" fill="#AC80DD"/>
<path d="M22.9122 22.3672H21.7317V48.1233H23.878V23.333C23.878 22.7996 23.4456 22.3672 22.9122 22.3672Z" fill="#9D66D5"/>
<path d="M35.4001 29.1953H31.0878C30.5543 29.1953 30.1219 29.6277 30.1219 30.1611V48.1221H36.3659V30.1611C36.3658 29.6277 35.9334 29.1953 35.4001 29.1953Z" fill="#E490D0"/>
<path d="M35.4001 29.1953H34.2196V48.1221H36.3659V30.1611C36.3658 29.6277 35.9334 29.1953 35.4001 29.1953Z" fill="#DF73C1"/>
<path d="M47.888 17.4883H43.5757C43.0422 17.4883 42.6099 17.9207 42.6099 18.4541V48.1224H48.8538V18.4541C48.8538 17.9207 48.4213 17.4883 47.888 17.4883Z" fill="#B3E59F"/>
<path d="M47.8879 17.4883H46.7074V48.1224H48.8537V18.4541C48.8537 17.9207 48.4212 17.4883 47.8879 17.4883Z" fill="#95D6A4"/>
<path d="M33.2433 20.5556C33.1258 20.5556 33.0068 20.527 32.8964 20.4666L20.4086 13.6374C20.0576 13.4455 19.9287 13.0053 20.1207 12.6543C20.3126 12.3033 20.7526 12.1742 21.1038 12.3664L33.5916 19.1956C33.9425 19.3876 34.0715 19.8277 33.8795 20.1787C33.7479 20.4194 33.4995 20.5556 33.2433 20.5556Z" fill="#FFC250"/>
<path d="M33.2441 20.5505C33.0509 20.5505 32.8581 20.4737 32.7155 20.3216C32.4418 20.0297 32.4566 19.5713 32.7485 19.2977L45.2363 7.59044C45.5282 7.31678 45.9865 7.33169 46.2602 7.62344C46.5338 7.91538 46.519 8.37372 46.2272 8.64738L33.7393 20.3546C33.5995 20.4856 33.4216 20.5505 33.2441 20.5505Z" fill="#FFC250"/>
<path d="M8.26839 26.4089C8.08492 26.4089 7.90136 26.3397 7.76017 26.2008C7.47517 25.9201 7.47161 25.4615 7.7522 25.1764L20.2401 12.4935C20.5207 12.2083 20.9793 12.205 21.2645 12.4855C21.5495 12.7662 21.553 13.2248 21.2725 13.5099L8.78458 26.1927C8.64283 26.3368 8.45561 26.4089 8.26839 26.4089Z" fill="#FFC250"/>
<path d="M8.26833 28.8025C9.99255 28.8025 11.3903 27.4048 11.3903 25.6806C11.3903 23.9563 9.99255 22.5586 8.26833 22.5586C6.54412 22.5586 5.14636 23.9563 5.14636 25.6806C5.14636 27.4048 6.54412 28.8025 8.26833 28.8025Z" fill="#FFD064"/>
<path d="M20.7561 16.1228C22.4803 16.1228 23.8781 14.7251 23.8781 13.0009C23.8781 11.2767 22.4803 9.87891 20.7561 9.87891C19.0319 9.87891 17.6342 11.2767 17.6342 13.0009C17.6342 14.7251 19.0319 16.1228 20.7561 16.1228Z" fill="#FFD064"/>
<path d="M33.2439 22.951C34.9681 22.951 36.3659 21.5532 36.3659 19.829C36.3659 18.1048 34.9681 16.707 33.2439 16.707C31.5197 16.707 30.1219 18.1048 30.1219 19.829C30.1219 21.5532 31.5197 22.951 33.2439 22.951Z" fill="#FFD064"/>
<path d="M45.7318 11.2439C47.456 11.2439 48.8538 9.84618 48.8538 8.12197C48.8538 6.39775 47.456 5 45.7318 5C44.0076 5 42.6099 6.39775 42.6099 8.12197C42.6099 9.84618 44.0076 11.2439 45.7318 11.2439Z" fill="#FFD064"/>
</svg>
