<svg viewBox="0 0 48 58" fill="none" xmlns="http://www.w3.org/2000/svg">
<path fill-rule="evenodd" clip-rule="evenodd" d="M1 6.9311C1 3.65545 3.65741 1 6.93548 1H41.0645C44.3426 1 47 3.65544 47 6.9311V50.8848C47 54.1605 44.3426 56.8159 41.0645 56.8159H6.93548C3.65741 56.8159 1 54.1605 1 50.8848V6.9311ZM6.93548 2.27095C4.35985 2.27095 2.27189 4.35737 2.27189 6.9311V50.8848C2.27189 53.4585 4.35985 55.545 6.93548 55.545H41.0645C43.6401 55.545 45.7281 53.4585 45.7281 50.8848V6.9311C45.7281 4.35737 43.6401 2.27095 41.0645 2.27095H6.93548Z" fill="#292929" stroke="#292929" stroke-width="0.8"/>
<path d="M8.50647 8.70631C8.50647 8.38742 8.76779 8.12891 9.09014 8.12891H38.9102C39.2326 8.12891 39.4939 8.38742 39.4939 8.70631C39.4939 9.0252 39.2326 9.28372 38.9102 9.28372H9.09014C8.76779 9.28372 8.50647 9.0252 8.50647 8.70631Z" fill="#292929"/>
<path d="M8.50647 12.5462C8.50647 12.2273 8.76748 11.9688 9.08945 11.9688H22.5511C22.8731 11.9688 23.1341 12.2273 23.1341 12.5462C23.1341 12.865 22.8731 13.1236 22.5511 13.1236H9.08945C8.76748 13.1236 8.50647 12.865 8.50647 12.5462Z" fill="#292929"/>
<path d="M24.866 37.1829C24.866 36.864 25.127 36.6055 25.449 36.6055H38.9106C39.2326 36.6055 39.4936 36.864 39.4936 37.1829C39.4936 37.5018 39.2326 37.7603 38.9106 37.7603H25.449C25.127 37.7603 24.866 37.5018 24.866 37.1829Z" fill="#292929"/>
<path d="M24.866 41.0422C24.866 40.7234 25.1245 40.4648 25.4434 40.4648H35.8367C36.1556 40.4648 36.4141 40.7234 36.4141 41.0422C36.4141 41.3611 36.1556 41.6197 35.8367 41.6197H25.4434C25.1245 41.6197 24.866 41.3611 24.866 41.0422Z" fill="#292929"/>
<path d="M24.866 44.8821C24.866 44.5632 25.1252 44.3047 25.4449 44.3047H37.7599C38.0796 44.3047 38.3388 44.5632 38.3388 44.8821C38.3388 45.201 38.0796 45.4595 37.7599 45.4595H25.4449C25.1252 45.4595 24.866 45.201 24.866 44.8821Z" fill="#292929"/>
<path d="M11.778 17.8448C11.778 17.786 11.8255 17.7383 11.8841 17.7383H14.7513C14.8099 17.7383 14.8575 17.786 14.8575 17.8448V29.5648C14.8575 29.6236 14.8099 29.6713 14.7513 29.6713H11.8841C11.8255 29.6713 11.778 29.6236 11.778 29.5648V17.8448Z" fill="#92E6FD"/>
<path fill-rule="evenodd" clip-rule="evenodd" d="M11.8917 16.5938H14.7447C15.4451 16.5938 16.0128 17.1648 16.0128 17.8692V29.561C16.0128 30.2654 15.4451 30.8364 14.7447 30.8364H11.8917C11.1914 30.8364 10.6237 30.2654 10.6237 29.561V17.8692C10.6237 17.1648 11.1914 16.5938 11.8917 16.5938ZM11.8917 17.7629C11.8333 17.7629 11.786 17.8105 11.786 17.8692V29.561C11.786 29.6197 11.8333 29.6673 11.8917 29.6673H14.7447C14.8031 29.6673 14.8504 29.6197 14.8504 29.561V17.8692C14.8504 17.8105 14.8031 17.7629 14.7447 17.7629H11.8917Z" fill="#292929"/>
<path d="M18.8998 22.28C18.8998 22.2225 18.9473 22.1758 19.006 22.1758H21.8731C21.9317 22.1758 21.9793 22.2225 21.9793 22.28V29.5778C21.9793 29.6354 21.9317 29.6821 21.8731 29.6821H19.006C18.9473 29.6821 18.8998 29.6354 18.8998 29.5778V22.28Z" fill="#F59977"/>
<path fill-rule="evenodd" clip-rule="evenodd" d="M19.0128 20.8164H21.8658C22.5662 20.8164 23.1339 21.3884 23.1339 22.0941V29.5471C23.1339 30.2527 22.5662 30.8248 21.8658 30.8248H19.0128C18.3125 30.8248 17.7448 30.2527 17.7448 29.5471V22.0941C17.7448 21.3884 18.3125 20.8164 19.0128 20.8164ZM19.0128 21.9876C18.9544 21.9876 18.9071 22.0353 18.9071 22.0941V29.5471C18.9071 29.6059 18.9544 29.6536 19.0128 29.6536H21.8658C21.9242 29.6536 21.9715 29.6059 21.9715 29.5471V22.0941C21.9715 22.0353 21.9242 21.9876 21.8658 21.9876H19.0128Z" fill="#292929"/>
<path d="M26.021 16.3162C26.021 16.2581 26.0685 16.2109 26.1272 16.2109H28.9943C29.053 16.2109 29.1005 16.2581 29.1005 16.3162V29.5785C29.1005 29.6366 29.053 29.6837 28.9943 29.6837H26.1272C26.0685 29.6837 26.021 29.6366 26.021 29.5785V16.3162Z" fill="#45A7CD"/>
<path fill-rule="evenodd" clip-rule="evenodd" d="M26.134 15.043H28.9871C29.6874 15.043 30.2551 15.6083 30.2551 16.3056V29.5628C30.2551 30.2601 29.6874 30.8254 28.9871 30.8254H26.134C25.4337 30.8254 24.866 30.2601 24.866 29.5628V16.3056C24.866 15.6083 25.4337 15.043 26.134 15.043ZM26.134 16.2003C26.0756 16.2003 26.0283 16.2475 26.0283 16.3056V29.5628C26.0283 29.6209 26.0756 29.668 26.134 29.668H28.9871C29.0454 29.668 29.0927 29.6209 29.0927 29.5628V16.3056C29.0927 16.2475 29.0454 16.2003 28.9871 16.2003H26.134Z" fill="#292929"/>
<path d="M33.3345 19.9688C33.3345 19.9105 33.382 19.8633 33.4407 19.8633H36.3078C36.3664 19.8633 36.414 19.9105 36.414 19.9688V29.5736C36.414 29.6319 36.3664 29.6792 36.3078 29.6792H33.4407C33.382 29.6792 33.3345 29.6319 33.3345 29.5736V19.9688Z" fill="#FED480"/>
<path fill-rule="evenodd" clip-rule="evenodd" d="M33.4481 18.7188H36.3011C37.0015 18.7188 37.5692 19.2852 37.5692 19.984V29.579C37.5692 30.2778 37.0015 30.8443 36.3011 30.8443H33.4481C32.7478 30.8443 32.1801 30.2778 32.1801 29.579V19.984C32.1801 19.2852 32.7478 18.7188 33.4481 18.7188ZM33.4481 19.8786C33.3897 19.8786 33.3424 19.9258 33.3424 19.984V29.579C33.3424 29.6372 33.3897 29.6844 33.4481 29.6844H36.3011C36.3595 29.6844 36.4068 29.6372 36.4068 29.579V19.984C36.4068 19.9258 36.3595 19.8786 36.3011 19.8786H33.4481Z" fill="#292929"/>
<path d="M15.6337 35.0781C16.7596 35.0781 17.8695 35.3455 18.872 35.8584C19.8746 36.3712 20.7412 37.1149 21.4007 38.0282C22.0602 38.9415 22.4937 39.9984 22.6656 41.1121C22.8376 42.2257 22.743 43.3643 22.3896 44.4343C22.0363 45.5042 21.4343 46.4749 20.6332 47.2667C19.832 48.0585 18.8546 48.6487 17.7811 48.9887C16.7077 49.3288 15.569 49.4091 14.4585 49.223C13.3481 49.0369 12.2976 48.5897 11.3934 47.9182L15.6337 42.1995V35.0781Z" fill="#92E6FD"/>
<path fill-rule="evenodd" clip-rule="evenodd" d="M15.0515 35.0645C15.0515 34.742 15.3128 34.4805 15.635 34.4805C16.852 34.4805 18.0517 34.7696 19.1354 35.324C20.2191 35.8784 21.1559 36.6824 21.8688 37.6698C22.5816 38.6571 23.0502 39.7997 23.2361 41.0037C23.4219 42.2076 23.3197 43.4385 22.9377 44.5952C22.5558 45.7519 21.9051 46.8014 21.0391 47.6573C20.1731 48.5133 19.1165 49.1513 17.9562 49.519C16.7959 49.8866 15.565 49.9734 14.3647 49.7722C13.1644 49.571 12.0289 49.0876 11.0516 48.3616C10.9273 48.2693 10.8448 48.1313 10.8221 47.9781C10.7994 47.8249 10.8385 47.6689 10.9307 47.5445L15.0515 41.9862V35.0645ZM16.2185 35.6747V42.1792C16.2185 42.3046 16.1782 42.4266 16.1036 42.5273L12.2311 47.7506C12.9422 48.1859 13.7318 48.4818 14.5575 48.6202C15.5757 48.7909 16.6198 48.7172 17.604 48.4054C18.5883 48.0935 19.4846 47.5522 20.2192 46.8262C20.9538 46.1001 21.5057 45.2098 21.8297 44.2286C22.1537 43.2475 22.2404 42.2033 22.0828 41.182C21.9252 40.1608 21.5277 39.1915 20.9229 38.3539C20.3182 37.5164 19.5236 36.8344 18.6043 36.3641C17.8589 35.9827 17.0487 35.7493 16.2185 35.6747Z" fill="#292929"/>
<path d="M11.3605 47.9577C10.48 47.2902 9.76407 46.4253 9.26891 45.4307C8.77375 44.4361 8.51278 43.3388 8.50647 42.225L15.6278 42.1836L11.3605 47.9577Z" fill="#45A7CD"/>
<path fill-rule="evenodd" clip-rule="evenodd" d="M16.1426 41.9335C16.2424 42.1334 16.2215 42.373 16.0887 42.5522L11.8288 48.302C11.7361 48.4271 11.5979 48.51 11.4447 48.5322C11.2915 48.5545 11.1358 48.5144 11.0119 48.4207C10.0608 47.7015 9.28744 46.7695 8.75256 45.6978C8.21768 44.6261 7.93578 43.4438 7.92896 42.2435C7.92808 42.0872 7.98871 41.9369 8.09752 41.8257C8.20633 41.7145 8.35441 41.6515 8.50919 41.6506L15.6182 41.6094C15.8397 41.6081 16.0429 41.7337 16.1426 41.9335ZM9.12561 42.8262C9.2026 43.6399 9.42892 44.4339 9.79475 45.1669C10.1606 45.8999 10.6579 46.5559 11.2597 47.1023L14.4507 42.7953L9.12561 42.8262Z" fill="#0950C5"/>
<path d="M8.50647 42.1995C8.50647 40.3108 9.25675 38.4994 10.5923 37.1639C11.9278 35.8284 13.7391 35.0781 15.6278 35.0781V42.1995L8.50647 42.1995Z" fill="#FED480"/>
<path fill-rule="evenodd" clip-rule="evenodd" d="M15.038 35.6737C13.5213 35.8099 12.0928 36.4734 11.0074 37.5589C9.92192 38.6443 9.25836 40.0728 9.12223 41.5895L15.038 41.5895V35.6737ZM10.1821 36.7336C11.6247 35.2909 13.5813 34.4805 15.6215 34.4805C15.7763 34.4805 15.9247 34.542 16.0342 34.6514C16.1436 34.7608 16.2051 34.9093 16.2051 35.064V42.173C16.2051 42.3278 16.1436 42.4763 16.0342 42.5857C15.9247 42.6951 15.7763 42.7566 15.6215 42.7566L8.51253 42.7566C8.35776 42.7566 8.20932 42.6951 8.09988 42.5857C7.99044 42.4763 7.92896 42.3278 7.92896 42.173C7.92896 40.1328 8.73942 38.1762 10.1821 36.7336Z" fill="#292929"/>
</svg>
