<svg viewBox="0 0 89 89" fill="none" xmlns="http://www.w3.org/2000/svg">
<path d="M0 28C0 12.536 12.536 0 28 0H61C76.464 0 89 12.536 89 28V61C89 76.464 76.464 89 61 89H28C12.536 89 0 76.464 0 61V28Z" fill="#F4F3FF"/>
<path d="M31.7301 40.1426L32.0001 40.2182V48.8181C32.0015 49.4893 32.4488 50.0778 33.0951 50.259L35.5 50.9346V58C35.5 59.1046 36.3954 60 37.5 60H52.4999C53.6044 60 54.4998 59.1046 54.4998 58V50.9345L56.9038 50.2615C57.5507 50.0806 57.9984 49.4917 57.9998 48.82V40.2201L58.2698 40.1446C59.5292 39.7923 60.2647 38.4857 59.9124 37.2263C59.8553 37.022 59.771 36.8264 59.6618 36.6445L57.9288 33.7446L57.9243 33.7476C57.8609 33.6377 57.7578 33.5563 57.6363 33.5201L45.541 30.0752C45.1871 29.9749 44.8124 29.9749 44.4585 30.0752L32.3636 33.5202C32.2421 33.5564 32.139 33.6378 32.0756 33.7477L32.0711 33.7447L30.3386 36.6447C29.665 37.7657 30.0277 39.2204 31.1487 39.894C31.3304 40.0032 31.5259 40.0875 31.7301 40.1446V40.1426ZM33.3641 49.3C33.1491 49.2393 33.0006 49.0434 33.0001 48.8201V40.5001L40.495 42.6001C41.5222 42.8873 42.6145 42.4523 43.163 41.5376L44.5 39.3066V45.0001H37.5C36.3955 45.0001 35.5001 45.8955 35.5001 47V49.896L33.3641 49.3ZM53.4999 58C53.4999 58.5523 53.0522 59 52.4999 59H37.5C36.9477 59 36.5 58.5523 36.5 58V47C36.5 46.4477 36.9477 46 37.5 46H52.4999C53.0522 46 53.4999 46.4477 53.4999 47V58ZM56.9999 48.8201C56.9987 49.043 56.8499 49.2381 56.6354 49.2985L54.4999 49.896V47C54.4999 45.8955 53.6045 45.0001 52.4999 45.0001H45.5V39.3066L46.8369 41.5356C47.386 42.4497 48.4774 42.8851 49.5049 42.6001L56.9999 40.5001V48.8201ZM58.8998 38.3701C58.7436 38.7663 58.4103 39.066 57.9998 39.1796L49.2355 41.6351C48.6423 41.7998 48.0121 41.5489 47.6945 41.0216L45.7654 37.8062L57.2654 34.5857L58.8023 37.1582C59.0232 37.5237 59.0594 37.9719 58.8998 38.3682V38.3701ZM44.7315 31.0372C44.9069 30.9877 45.0926 30.9877 45.2679 31.0372L55.6599 33.9971L45 36.9816L34.3401 33.9972L44.7315 31.0372ZM31.1966 37.1577L32.7331 34.5857L44.233 37.8062L42.304 41.0216C41.9865 41.5492 41.3562 41.8001 40.763 41.6351L32.0001 39.1796C31.2726 38.9756 30.8483 38.2205 31.0524 37.493C31.0854 37.3753 31.1341 37.2625 31.1971 37.1577H31.1966Z" fill="#5925DC"/>
<path d="M51.5001 56.9999H51.0001V52.4999C51.0001 51.9476 50.5524 51.4999 50.0001 51.4999H49.0001C48.4478 51.4999 48.0001 51.9476 48.0001 52.4999V56.9999H47V50.5C47 49.9477 46.5523 49.5 46 49.5H45C44.4477 49.5 44 49.9477 44 50.5V56.9999H43V52.9999C43 52.4476 42.5523 51.9999 42 51.9999H41C40.4477 51.9999 40 52.4476 40 52.9999V56.9999H39V48C39 47.7238 38.7761 47.5 38.5 47.5C38.2238 47.5 38 47.7238 38 48V56.9999C38 57.5522 38.4477 57.9999 39 57.9999H51.4999C51.776 57.9999 51.9999 57.776 51.9999 57.4999C52 57.2238 51.7762 56.9999 51.5001 56.9999ZM41.0002 56.9999V52.9999H42.0002V56.9999H41.0002ZM45.0001 56.9999V50.5H46.0001V56.9999H45.0001ZM49.0001 56.9999V52.4999H50.0001V56.9999H49.0001Z" fill="#5925DC"/>
</svg>
