<svg xmlns="http://www.w3.org/2000/svg" viewBox="0 0 16 16" fill="none"><path fill="currentColor" stroke="currentColor" stroke-width=".4" d="M5.735 13.152c.733.001 1.465-.057 2.188-.175a3.994 3.994 0 0 0 1.46 1.59 4.015 4.015 0 0 0 5.654-1.525A3.976 3.976 0 0 0 14.78 8.9a4.017 4.017 0 0 0-3.811-1.674V2.225C10.97.934 8.273.238 5.735.238 3.197.238.5.934.5 2.225v8.94c0 1.292 2.697 1.987 5.235 1.987Zm0-.496C2.943 12.656 1 11.87 1 11.166V9.07c.895.72 2.859 1.102 4.736 1.102.64 0 1.278-.043 1.91-.131a3.897 3.897 0 0 0 .074 2.465c-.657.1-1.32.15-1.984.15Zm9.224-1.49c0 .687-.205 1.36-.588 1.931a3.503 3.503 0 0 1-5.37.527 3.473 3.473 0 0 1-.756-3.789 3.48 3.48 0 0 1 1.285-1.56 3.5 3.5 0 0 1 4.406.433 3.474 3.474 0 0 1 1.023 2.457ZM5.735.735c2.792 0 4.737.785 4.737 1.49s-1.945 1.49-4.737 1.49S1 2.93 1 2.225 2.943.735 5.735.735ZM1 3.109c.895.721 2.859 1.103 4.736 1.103 1.878 0 3.842-.382 4.737-1.103v2.096c0 .705-1.945 1.49-4.737 1.49S1 5.91 1 5.205V3.11Zm0 2.98c.895.721 2.859 1.103 4.736 1.103 1.878 0 3.842-.381 4.737-1.102v1.233a4.004 4.004 0 0 0-2.623 2.185c-.699.113-1.406.169-2.114.167C2.943 9.675 1 8.89 1 8.185V6.09Z"/><path fill="currentColor" stroke="currentColor" stroke-width=".4" d="M1.64 4.987c.083.04.172.077.264.114a.25.25 0 0 0 .183-.464 4.05 4.05 0 0 1-.236-.102.25.25 0 0 0-.211.452ZM2.936 5.412c.084.02.17.038.257.056a.25.25 0 1 0 .1-.49 8.506 8.506 0 0 1-.242-.052.25.25 0 1 0-.113.486h-.002ZM10.794 12.83a.25.25 0 0 0 .176.073c.008 0 .016 0 .025-.002a.25.25 0 0 0 .183-.109l1.994-2.98a.248.248 0 0 0-.346-.344.248.248 0 0 0-.069.068l-1.826 2.729-.782-.78a.25.25 0 0 0-.422.177c-.001.065.024.128.07.174l.997.994Z"/></svg>