<svg viewBox="0 0 16 16" fill="currentColor" xmlns="http://www.w3.org/2000/svg">
<g clip-path="url(#clip0_19589_44407)">
<path d="M14.4559 10.5728C14.0435 10.3348 13.5305 10.425 13.2206 10.7616L11.1289 9.55397V6.44603L13.2204 5.23853C13.3475 5.37709 13.5113 5.47719 13.6973 5.52703C13.7822 5.54986 13.8697 5.56146 13.9577 5.56153C14.1309 5.56153 14.3019 5.51609 14.4559 5.42716C14.6872 5.29363 14.8527 5.078 14.9218 4.82003C14.9909 4.56206 14.9554 4.29263 14.8219 4.06131C14.6884 3.83003 14.4728 3.66456 14.2148 3.59544C13.9568 3.52631 13.6874 3.56181 13.4561 3.69531C13.2248 3.82884 13.0594 4.04447 12.9903 4.30244C12.9404 4.48844 12.9452 4.68031 13.0017 4.85966L11.1289 5.94088V5.17631C11.1289 4.45984 9.69901 4.06897 8.21863 4.03387V2.25684C8.66513 2.15678 8.99988 1.7575 8.99988 1.28125C8.99988 0.729844 8.55129 0.28125 7.99988 0.28125C7.44847 0.28125 6.99988 0.729844 6.99988 1.28125C6.99988 1.7575 7.33463 2.15678 7.78113 2.25684V4.03384C6.30076 4.06894 4.87082 4.45981 4.87082 5.17628V5.94084L2.9981 4.85962C3.05454 4.68031 3.05938 4.48841 3.00954 4.30241C2.94041 4.04444 2.77497 3.82881 2.54369 3.69528C2.31241 3.56175 2.04297 3.52622 1.78497 3.59538C1.52701 3.6645 1.31138 3.82994 1.17782 4.06125C0.902193 4.53872 1.06635 5.15144 1.54382 5.42709C1.69791 5.51606 1.86885 5.56147 2.0421 5.56147C2.12894 5.56147 2.21638 5.55006 2.30251 5.52697C2.48851 5.47713 2.65226 5.377 2.77935 5.23847L4.87082 6.44597V9.55391L2.77935 10.7614C2.65229 10.6229 2.48851 10.5227 2.30254 10.4729C2.04451 10.4038 1.7751 10.4393 1.54382 10.5728C1.31254 10.7063 1.1471 10.922 1.07797 11.1799C1.00882 11.4379 1.04432 11.7074 1.17782 11.9387C1.31135 12.1699 1.52701 12.3354 1.78497 12.4045C1.86989 12.4274 1.95744 12.439 2.04538 12.439C2.21866 12.439 2.38966 12.3936 2.54369 12.3047C2.77497 12.1711 2.94041 11.9555 3.00954 11.6975C3.05938 11.5115 3.05454 11.3197 2.9981 11.1403L4.87082 10.0591V10.8237C4.87082 11.5401 6.30076 11.931 7.78113 11.9661V13.7431C7.33463 13.8432 6.99988 14.2425 6.99988 14.7187C6.99988 15.2701 7.44847 15.7187 7.99988 15.7187C8.55129 15.7187 8.99988 15.2701 8.99988 14.7187C8.99988 14.2425 8.66513 13.8432 8.21863 13.7431V11.9661C9.69901 11.931 11.1289 11.5402 11.1289 10.8237V10.0591L13.0017 11.1403C12.9452 11.3196 12.9404 11.5115 12.9902 11.6975C13.0593 11.9555 13.2248 12.1711 13.4561 12.3046C13.6102 12.3936 13.7811 12.439 13.9543 12.439C14.0412 12.439 14.1287 12.4276 14.2148 12.4045C14.4728 12.3354 14.6884 12.1699 14.8219 11.9386C15.0976 11.4613 14.9334 10.8485 14.4559 10.5728ZM13.6748 4.07422C13.7387 4.03712 13.8094 4.01306 13.8826 4.00342C13.9559 3.99378 14.0303 3.99876 14.1016 4.01806C14.173 4.03699 14.24 4.0699 14.2986 4.11488C14.3572 4.15985 14.4063 4.21601 14.4431 4.28009C14.5981 4.54862 14.5058 4.89325 14.2372 5.04831C14.1733 5.08544 14.1027 5.10951 14.0295 5.11915C13.9562 5.12879 13.8818 5.1238 13.8105 5.10447C13.7391 5.08554 13.6721 5.05264 13.6135 5.00766C13.5549 4.96269 13.5058 4.90654 13.469 4.84247C13.3139 4.57387 13.4063 4.22925 13.6748 4.07422ZM2.53076 4.84241C2.494 4.90649 2.44489 4.96265 2.38627 5.00762C2.32766 5.0526 2.2607 5.08549 2.18929 5.10441C2.11798 5.12373 2.04355 5.12871 1.9703 5.11907C1.89706 5.10943 1.82645 5.08536 1.76257 5.04825C1.49401 4.89319 1.40166 4.54856 1.55672 4.28003C1.66076 4.09981 1.85019 3.99897 2.04469 3.99897C2.14004 3.99897 2.23663 4.02319 2.32494 4.07419C2.38903 4.11095 2.44519 4.16005 2.49016 4.21867C2.53513 4.27728 2.56803 4.34424 2.58694 4.41566C2.60626 4.48697 2.61124 4.56141 2.6016 4.63466C2.59196 4.70791 2.56788 4.77852 2.53076 4.84241ZM2.58694 11.5843C2.56802 11.6558 2.53513 11.7227 2.49015 11.7813C2.44518 11.8399 2.38903 11.8891 2.32494 11.9258C2.26106 11.9629 2.19045 11.987 2.1172 11.9966C2.04394 12.0063 1.96951 12.0013 1.89819 11.982C1.82678 11.9631 1.75983 11.9302 1.70121 11.8852C1.6426 11.8402 1.59349 11.7841 1.55672 11.72C1.40166 11.4514 1.49401 11.1068 1.76257 10.9517C1.82646 10.9147 1.89707 10.8906 1.97032 10.881C2.04357 10.8713 2.118 10.8763 2.18932 10.8956C2.33444 10.9345 2.45569 11.0275 2.53079 11.1576C2.60588 11.2877 2.62582 11.4392 2.58694 11.5843ZM7.43738 1.28125C7.43738 0.971094 7.68972 0.71875 7.99988 0.71875C8.31004 0.71875 8.56238 0.971094 8.56238 1.28125C8.56238 1.59141 8.31004 1.84375 7.99988 1.84375C7.68972 1.84375 7.43738 1.59141 7.43738 1.28125ZM7.99988 4.46875C9.74141 4.46875 10.6914 4.93616 10.6914 5.17628C10.6914 5.41641 9.74141 5.88384 7.99988 5.88384C6.25835 5.88384 5.30832 5.41644 5.30832 5.17628C5.30832 4.93613 6.25835 4.46875 7.99988 4.46875ZM5.30832 5.79028C5.88385 6.14066 6.94616 6.32134 7.99988 6.32134C9.0536 6.32134 10.1159 6.14066 10.6914 5.79028V7.05875C10.6914 7.29891 9.74141 7.76628 7.99988 7.76628C6.25835 7.76628 5.30832 7.29888 5.30832 7.05875V5.79028ZM5.30832 7.67275C5.88385 8.02312 6.94616 8.20381 7.99988 8.20381C9.0536 8.20381 10.1159 8.02312 10.6914 7.67275V8.94125C10.6914 9.18141 9.74141 9.64878 7.99988 9.64878C6.25835 9.64878 5.30832 9.18137 5.30832 8.94125V7.67275ZM8.56238 14.7188C8.56238 15.0289 8.31004 15.2812 7.99988 15.2812C7.68972 15.2812 7.43738 15.0289 7.43738 14.7188C7.43738 14.4086 7.68972 14.1562 7.99988 14.1562C8.31004 14.1562 8.56238 14.4086 8.56238 14.7188ZM7.99988 11.5312C6.25835 11.5312 5.30832 11.0638 5.30832 10.8237V9.55522C5.88385 9.90559 6.94616 10.0863 7.99988 10.0863C9.0536 10.0863 10.1159 9.90559 10.6914 9.55522V10.8237C10.6914 11.0638 9.74141 11.5312 7.99988 11.5312ZM14.443 11.7199C14.4063 11.784 14.3572 11.8402 14.2986 11.8852C14.2399 11.9301 14.173 11.963 14.1016 11.982C14.0303 12.0013 13.9558 12.0063 13.8826 11.9966C13.8093 11.987 13.7387 11.9629 13.6748 11.9258C13.6107 11.8891 13.5546 11.8399 13.5096 11.7813C13.4646 11.7227 13.4317 11.6558 13.4128 11.5843C13.3935 11.513 13.3885 11.4386 13.3982 11.3653C13.4078 11.2921 13.4319 11.2215 13.469 11.1576C13.573 10.9774 13.7624 10.8765 13.957 10.8765C14.0523 10.8765 14.1489 10.9007 14.2372 10.9517C14.5058 11.1068 14.5981 11.4514 14.443 11.7199ZM5.80913 6.73403C5.81728 6.70648 5.83077 6.68081 5.84884 6.65848C5.86691 6.63615 5.88921 6.6176 5.91445 6.60389C5.93969 6.59017 5.96738 6.58156 5.99595 6.57855C6.02452 6.57554 6.0534 6.57819 6.08094 6.58634C6.2596 6.63919 6.45972 6.6845 6.67576 6.72094C6.70408 6.72571 6.73119 6.73602 6.75553 6.75127C6.77987 6.76652 6.80097 6.78642 6.81762 6.80983C6.83427 6.83323 6.84615 6.85969 6.85257 6.88769C6.859 6.91569 6.85985 6.94468 6.85507 6.973C6.8454 7.0302 6.81342 7.08122 6.76614 7.11485C6.71887 7.14847 6.66018 7.16195 6.60297 7.15231C6.36963 7.11297 6.15222 7.06369 5.95676 7.00584C5.92921 6.9977 5.90354 6.9842 5.88121 6.96613C5.85888 6.94806 5.84034 6.92577 5.82663 6.90052C5.81292 6.87528 5.80432 6.84759 5.80131 6.81902C5.79831 6.79045 5.80097 6.76157 5.80913 6.73403ZM5.80913 8.61653C5.81728 8.58899 5.83077 8.56331 5.84884 8.54098C5.86691 8.51865 5.88921 8.5001 5.91445 8.48639C5.93969 8.47267 5.96738 8.46406 5.99595 8.46105C6.02452 8.45804 6.0534 8.46069 6.08094 8.46884C6.25963 8.52172 6.45976 8.567 6.67576 8.60341C6.73296 8.61306 6.78399 8.64504 6.81762 8.69232C6.85125 8.73959 6.86472 8.79829 6.85507 8.8555C6.84542 8.91271 6.81343 8.96374 6.76616 8.99737C6.71888 9.03099 6.66018 9.04446 6.60297 9.03481C6.36969 8.99547 6.15226 8.94622 5.95676 8.88834C5.92921 8.88019 5.90355 8.8667 5.88122 8.84862C5.85889 8.83055 5.84035 8.80826 5.82664 8.78302C5.81293 8.75778 5.80433 8.73008 5.80132 8.70152C5.79832 8.67295 5.80097 8.64407 5.80913 8.61653ZM6.85507 10.738C6.8454 10.7952 6.81342 10.8462 6.76614 10.8798C6.71887 10.9134 6.66018 10.9269 6.60297 10.9173C6.36963 10.8779 6.15222 10.8287 5.95676 10.7708C5.90112 10.7544 5.85431 10.7165 5.82661 10.6655C5.79891 10.6145 5.79259 10.5546 5.80905 10.499C5.82551 10.4434 5.8634 10.3965 5.91438 10.3688C5.96535 10.3411 6.02525 10.3348 6.08088 10.3513C6.25954 10.4041 6.45966 10.4494 6.67569 10.4859C6.70403 10.4906 6.73114 10.501 6.75549 10.5162C6.77984 10.5315 6.80094 10.5514 6.8176 10.5748C6.83426 10.5982 6.84614 10.6246 6.85257 10.6526C6.859 10.6806 6.85985 10.7096 6.85507 10.738Z" fill="currentColor" stroke="currentColor" stroke-width="0.2"/>
</g>
<defs>
<clipPath id="clip0_19589_44407">
<rect width="16" height="16" fill="white"/>
</clipPath>
</defs>
</svg>