<svg viewBox="0 0 60 47" fill="none" xmlns="http://www.w3.org/2000/svg">
<path fill-rule="evenodd" clip-rule="evenodd" d="M0 46.4423C0 46.1333 0.392272 45.8828 0.876163 45.8828H58.4334C58.9173 45.8828 59.3095 46.1333 59.3095 46.4423C59.3095 46.7514 58.9173 47.0019 58.4334 47.0019H0.876163C0.392272 47.0019 0 46.7514 0 46.4423Z" fill="black"/>
<path d="M1.11902 3.62964C1.11902 1.62504 2.7385 0 4.73622 0H54.5732C56.571 0 58.1905 1.62504 58.1905 3.62964V37.7751C58.1905 39.7797 56.571 41.4048 54.5732 41.4048H4.73622C2.7385 41.4048 1.11902 39.7797 1.11902 37.7751V3.62964Z" fill="#E9E9E9"/>
<path fill-rule="evenodd" clip-rule="evenodd" d="M54.5732 1.7476H4.73622C3.70036 1.7476 2.86064 2.59022 2.86064 3.62964V37.7751C2.86064 38.8145 3.70036 39.6572 4.73622 39.6572H54.5732C55.6091 39.6572 56.4488 38.8145 56.4488 37.7751V3.62964C56.4488 2.59022 55.6091 1.7476 54.5732 1.7476ZM4.73622 0C2.7385 0 1.11902 1.62504 1.11902 3.62964V37.7751C1.11902 39.7797 2.7385 41.4048 4.73622 41.4048H54.5732C56.571 41.4048 58.1905 39.7797 58.1905 37.7751V3.62964C58.1905 1.62504 56.571 0 54.5732 0H4.73622Z" fill="black"/>
<path fill-rule="evenodd" clip-rule="evenodd" d="M23.3049 10.0703L36.0045 22.5236L48.1702 10.5939L49.2381 11.6411L36.0045 24.6179L23.3049 12.1647L11.1393 24.0943L10.0714 23.0472L23.3049 10.0703Z" fill="black"/>
<path d="M14.5477 22.3806C14.5477 24.2347 13.0446 25.7377 11.1905 25.7377C9.33642 25.7377 7.83337 24.2347 7.83337 22.3806C7.83337 20.5265 9.33642 19.0234 11.1905 19.0234C13.0446 19.0234 14.5477 20.5265 14.5477 22.3806Z" fill="#48CA9E"/>
<path fill-rule="evenodd" clip-rule="evenodd" d="M11.1905 24.37C12.2892 24.37 13.1799 23.4793 13.1799 22.3806C13.1799 21.2819 12.2892 20.3912 11.1905 20.3912C10.0918 20.3912 9.2011 21.2819 9.2011 22.3806C9.2011 23.4793 10.0918 24.37 11.1905 24.37ZM11.1905 25.7377C13.0446 25.7377 14.5477 24.2347 14.5477 22.3806C14.5477 20.5265 13.0446 19.0234 11.1905 19.0234C9.33642 19.0234 7.83337 20.5265 7.83337 22.3806C7.83337 24.2347 9.33642 25.7377 11.1905 25.7377Z" fill="black"/>
<path d="M26.8571 11.1892C26.8571 13.0433 25.3541 14.5463 23.5 14.5463C21.6459 14.5463 20.1428 13.0433 20.1428 11.1892C20.1428 9.33508 21.6459 7.83203 23.5 7.83203C25.3541 7.83203 26.8571 9.33508 26.8571 11.1892Z" fill="#FFBF31"/>
<path fill-rule="evenodd" clip-rule="evenodd" d="M23.5 13.1786C24.5987 13.1786 25.4894 12.2879 25.4894 11.1892C25.4894 10.0904 24.5987 9.19976 23.5 9.19976C22.4012 9.19976 21.5105 10.0904 21.5105 11.1892C21.5105 12.2879 22.4012 13.1786 23.5 13.1786ZM23.5 14.5463C25.3541 14.5463 26.8571 13.0433 26.8571 11.1892C26.8571 9.33508 25.3541 7.83203 23.5 7.83203C21.6459 7.83203 20.1428 9.33508 20.1428 11.1892C20.1428 13.0433 21.6459 14.5463 23.5 14.5463Z" fill="black"/>
<path d="M39.1667 22.3806C39.1667 24.2347 37.6636 25.7377 35.8095 25.7377C33.9554 25.7377 32.4524 24.2347 32.4524 22.3806C32.4524 20.5265 33.9554 19.0234 35.8095 19.0234C37.6636 19.0234 39.1667 20.5265 39.1667 22.3806Z" fill="#E33F65"/>
<path fill-rule="evenodd" clip-rule="evenodd" d="M35.8095 24.37C36.9083 24.37 37.799 23.4793 37.799 22.3806C37.799 21.2819 36.9083 20.3912 35.8095 20.3912C34.7108 20.3912 33.8201 21.2819 33.8201 22.3806C33.8201 23.4793 34.7108 24.37 35.8095 24.37ZM35.8095 25.7377C37.6636 25.7377 39.1667 24.2347 39.1667 22.3806C39.1667 20.5265 37.6636 19.0234 35.8095 19.0234C33.9554 19.0234 32.4524 20.5265 32.4524 22.3806C32.4524 24.2347 33.9554 25.7377 35.8095 25.7377Z" fill="black"/>
<path d="M51.4762 11.1892C51.4762 13.0433 49.9732 14.5463 48.1191 14.5463C46.265 14.5463 44.762 13.0433 44.762 11.1892C44.762 9.33508 46.265 7.83203 48.1191 7.83203C49.9732 7.83203 51.4762 9.33508 51.4762 11.1892Z" fill="#60B7FE"/>
<path fill-rule="evenodd" clip-rule="evenodd" d="M48.1191 13.1786C49.2178 13.1786 50.1085 12.2879 50.1085 11.1892C50.1085 10.0904 49.2178 9.19976 48.1191 9.19976C47.0204 9.19976 46.1297 10.0904 46.1297 11.1892C46.1297 12.2879 47.0204 13.1786 48.1191 13.1786ZM48.1191 14.5463C49.9732 14.5463 51.4762 13.0433 51.4762 11.1892C51.4762 9.33508 49.9732 7.83203 48.1191 7.83203C46.265 7.83203 44.762 9.33508 44.762 11.1892C44.762 13.0433 46.265 14.5463 48.1191 14.5463Z" fill="black"/>
<path d="M8.95239 34.8331C8.95239 34.7548 9.01065 34.6914 9.08251 34.6914H14.4175C14.4894 34.6914 14.5476 34.7548 14.5476 34.8331V45.7402C14.5476 45.8185 14.4894 45.8819 14.4175 45.8819H9.08251C9.01065 45.8819 8.95239 45.8185 8.95239 45.7402V34.8331Z" fill="#48CA9E"/>
<path fill-rule="evenodd" clip-rule="evenodd" d="M9.42275 33.5703H14.0773C14.9551 33.5703 15.6667 34.3719 15.6667 35.3608V45.2084C15.6667 46.1973 14.9551 46.9989 14.0773 46.9989H9.42275C8.54496 46.9989 7.83337 46.1973 7.83337 45.2084V35.3608C7.83337 34.3719 8.54496 33.5703 9.42275 33.5703ZM9.42275 35.2329C9.36005 35.2329 9.30922 35.2902 9.30922 35.3608V45.2084C9.30922 45.279 9.36005 45.3363 9.42275 45.3363H14.0773C14.14 45.3363 14.1909 45.279 14.1909 45.2084V35.3608C14.1909 35.2902 14.14 35.2329 14.0773 35.2329H9.42275Z" fill="black"/>
<path d="M20.1428 22.5244C20.1428 22.4462 20.2127 22.3828 20.299 22.3828H26.701C26.7872 22.3828 26.8571 22.4462 26.8571 22.5244V45.7412C26.8571 45.8194 26.7872 45.8828 26.701 45.8828H20.299C20.2127 45.8828 20.1428 45.8194 20.1428 45.7412V22.5244Z" fill="#FFBF31"/>
<path fill-rule="evenodd" clip-rule="evenodd" d="M20.8402 21.2617H26.1598C27.1629 21.2617 27.9762 22.102 27.9762 23.1385V45.1231C27.9762 46.1596 27.163 46.9998 26.1598 46.9998H20.8402C19.837 46.9998 19.0238 46.1596 19.0238 45.1231V23.1385C19.0238 22.102 19.837 21.2617 20.8402 21.2617ZM20.8402 23.0044C20.7686 23.0044 20.7105 23.0644 20.7105 23.1385V45.1231C20.7105 45.1971 20.7686 45.2571 20.8402 45.2571H26.1598C26.2314 45.2571 26.2895 45.1971 26.2895 45.1231V23.1385C26.2895 23.0644 26.2314 23.0044 26.1598 23.0044H20.8402Z" fill="black"/>
<path d="M32.4524 31.4805C32.4524 31.3985 32.5223 31.332 32.6085 31.332H39.0105C39.0968 31.332 39.1667 31.3985 39.1667 31.4805V45.7312C39.1667 45.8132 39.0968 45.8796 39.0105 45.8796H32.6085C32.5223 45.8796 32.4524 45.8132 32.4524 45.7312V31.4805Z" fill="#E33F65"/>
<path fill-rule="evenodd" clip-rule="evenodd" d="M33.1498 30.2148H38.4693C39.4725 30.2148 40.2858 31.0633 40.2858 32.11V45.1054C40.2858 46.1521 39.4725 47.0006 38.4693 47.0006H33.1498C32.1466 47.0006 31.3334 46.1521 31.3334 45.1054V32.11C31.3334 31.0633 32.1466 30.2148 33.1498 30.2148ZM33.1498 31.9746C33.0781 31.9746 33.0201 32.0352 33.0201 32.11V45.1054C33.0201 45.1802 33.0781 45.2408 33.1498 45.2408H38.4693C38.541 45.2408 38.5991 45.1802 38.5991 45.1054V32.11C38.5991 32.0352 38.541 31.9746 38.4693 31.9746H33.1498Z" fill="black"/>
<path d="M44.762 20.2852C44.762 20.2075 44.8435 20.1445 44.9441 20.1445H52.4131C52.5137 20.1445 52.5953 20.2075 52.5953 20.2852V45.742C52.5953 45.8197 52.5137 45.8826 52.4131 45.8826H44.9441C44.8435 45.8826 44.762 45.8197 44.762 45.742V20.2852Z" fill="#60B7FE"/>
<path fill-rule="evenodd" clip-rule="evenodd" d="M45.6863 19.0234H51.6708C52.7994 19.0234 53.7143 19.8625 53.7143 20.8974V45.1256C53.7143 46.1606 52.7994 46.9996 51.6708 46.9996H45.6863C44.5577 46.9996 43.6428 46.1606 43.6428 45.1256V20.8974C43.6428 19.8625 44.5577 19.0234 45.6863 19.0234ZM45.6863 20.7636C45.6057 20.7636 45.5403 20.8235 45.5403 20.8974V45.1256C45.5403 45.1996 45.6057 45.2595 45.6863 45.2595H51.6708C51.7514 45.2595 51.8167 45.1996 51.8167 45.1256V20.8974C51.8167 20.8235 51.7514 20.7636 51.6708 20.7636H45.6863Z" fill="black"/>
</svg>
