<svg viewBox="0 0 90 89" fill="none" xmlns="http://www.w3.org/2000/svg">
<path d="M0.375 28C0.375 12.536 12.911 0 28.375 0H61.375C76.839 0 89.375 12.536 89.375 28V61C89.375 76.464 76.839 89 61.375 89H28.375C12.911 89 0.375 76.464 0.375 61V28Z" fill="#FEF3F2"/>
<path fill-rule="evenodd" clip-rule="evenodd" d="M48.1635 30.0573C44.8905 30.3027 42.3504 31.0419 41.3058 32.0526C40.7478 32.5926 40.7556 32.5575 40.7217 34.6746L40.6926 36.5121L38.964 36.5511C37.2066 36.591 36.5853 36.6411 35.265 36.8496C32.4858 37.2885 30.6066 38.1516 30.1374 39.2049L30 39.5133L30.0021 48.2409C30.0042 57.615 29.9898 57.1626 30.3 57.648C30.4746 57.9216 31.029 58.3632 31.5219 58.6215C33.1947 59.499 36.144 59.9991 39.6492 60C44.7753 60.0015 48.4557 58.9743 49.1637 57.3447C49.2633 57.1155 49.2741 56.9202 49.2753 55.3095L49.2765 53.5275L50.8731 53.4894C53.0703 53.4366 54.6483 53.2521 56.2491 52.8603C57.7332 52.4973 58.8969 51.9585 59.4708 51.3696C60.0186 50.8074 59.9994 50.9628 59.9994 47.0748C59.9994 43.779 59.9976 43.7226 59.8779 43.5639C59.79 43.4469 59.7024 43.4025 59.5599 43.4025C59.2356 43.4025 59.1204 43.6179 59.1204 44.2266C59.1204 44.7126 59.1144 44.7357 58.9119 44.9826C58.6539 45.2979 57.7734 45.7731 56.9619 46.0347C55.2507 46.587 52.953 46.8936 50.5239 46.8936H49.275L49.3056 42.1518L49.833 42.1683C50.5527 42.1908 52.7706 42.0714 53.7003 41.9601C56.1057 41.6721 58.0653 41.1096 58.9593 40.4505L59.1204 40.3317V41.0748C59.1204 41.4837 59.1459 41.8677 59.1768 41.9283C59.208 41.9886 59.3106 42.0717 59.4051 42.1128C59.5467 42.174 59.6082 42.1704 59.7519 42.0927C59.8479 42.0408 59.943 41.9538 59.9631 41.8992C59.9829 41.8446 59.9994 39.8364 59.9994 37.4367C59.9994 32.4108 60.0282 32.7012 59.4756 32.1327C58.7604 31.3971 57.5715 30.8895 55.6002 30.4788C54.0645 30.159 51.339 29.9058 51.147 30.0651C50.8863 30.2817 50.8983 30.6936 51.1695 30.8355C51.2406 30.8727 51.7335 30.9321 52.2654 30.9678C55.7595 31.2024 58.6848 32.0982 59.0613 33.0486C59.4372 33.9969 56.766 35.0559 52.998 35.4519C52.0056 35.5563 48.7383 35.5548 47.724 35.4492C44.7552 35.1408 42.501 34.4556 41.8005 33.6486C41.5446 33.3537 41.5386 33.1305 41.7786 32.8446C42.5508 31.9251 45.1596 31.1916 48.4566 30.9669C49.5624 30.8916 49.704 30.8358 49.7346 30.465C49.7487 30.2904 49.7214 30.2232 49.5945 30.1188C49.4199 29.9751 49.317 29.9709 48.1635 30.0573ZM43.461 35.5533C44.6643 35.9505 45.8244 36.1758 47.6655 36.3699C48.8064 36.4905 52.161 36.4716 53.3493 36.3381C54.8238 36.1725 56.0913 35.9271 57.0993 35.6127C57.6486 35.4411 58.5174 35.0634 58.8168 34.8657C58.9506 34.7775 59.0736 34.7052 59.0904 34.7052C59.1072 34.7052 59.1207 35.6844 59.1207 36.8808V39.0567L58.8837 39.3255C58.1763 40.1277 55.9659 40.8075 53.1147 41.0997C52.0248 41.2113 49.9149 41.2899 49.5492 41.2329L49.2768 41.19V40.3176C49.2768 39.5019 49.2669 39.4248 49.125 39.1272C48.735 38.3091 47.5176 37.6407 45.5469 37.1625C44.4858 36.9051 42.8799 36.6549 41.8644 36.5886L41.6301 36.5736L41.5977 34.7214L42.1557 35.0136C42.4626 35.1747 43.05 35.4177 43.461 35.5533ZM41.9229 37.5291C45.459 37.7916 48.3948 38.8137 48.3975 39.783C48.3987 40.314 47.3511 40.9296 45.6732 41.3832C41.8392 42.4194 36.2622 42.3201 32.8407 41.1552C31.6587 40.7529 30.8778 40.188 30.8778 39.7359C30.8778 39.6639 30.9738 39.4941 31.0914 39.3582C32.1036 38.1873 36.0816 37.3542 40.2237 37.4457C40.6749 37.4556 41.4396 37.4931 41.9229 37.5291ZM31.668 41.6622C34.3431 42.954 39.8373 43.3764 44.2956 42.6327C45.9207 42.3618 46.9686 42.0105 48.3543 41.2719C48.3783 41.259 48.3981 42.2298 48.3981 43.4292V45.6102L48.1641 45.8757C47.1942 46.9755 43.6764 47.751 39.6591 47.751C35.6493 47.751 32.2221 47.0055 31.1565 45.9015L30.8781 45.6132V41.1891L31.053 41.3196C31.1493 41.3913 31.4262 41.5455 31.668 41.6622ZM59.007 50.5323C58.623 51.1818 57.0111 51.8292 54.8145 52.2156C53.4975 52.4475 52.4046 52.539 50.8299 52.5492L49.3062 52.5588L49.2756 47.8122H50.58C53.8338 47.811 56.811 47.2647 58.5564 46.3479L59.0919 46.0668L59.1072 48.2019C59.1219 50.235 59.1171 50.3463 59.007 50.5323ZM32.6682 47.7384C33.759 48.0999 34.8594 48.33 36.4443 48.5274C37.6833 48.6819 41.6226 48.6819 42.8313 48.5274C45.3252 48.2085 47.1831 47.6934 48.1563 47.0514L48.3978 46.8921V51.324L48.1335 51.5889C47.331 52.3923 45.1347 53.043 42.2454 53.3328C41.0784 53.4498 37.9404 53.4327 36.7812 53.3028C34.2651 53.0214 32.424 52.515 31.4532 51.8373C30.8526 51.4179 30.8781 51.5415 30.8781 49.0614L30.8778 46.9119L31.4817 47.2284C31.8138 47.4024 32.3478 47.6319 32.6682 47.7384ZM31.2378 52.7784C33.7842 54.3477 40.5099 54.8424 45.2337 53.8077C46.0866 53.6211 47.2317 53.2203 47.8446 52.8939L48.3978 52.5996V57.0039L48.1362 57.2697C47.3502 58.0683 45.201 58.7016 42.2745 58.9971C41.0001 59.1258 38.3139 59.1252 37.0011 58.9962C34.0731 58.7082 31.8381 58.0302 31.1151 57.2097L30.8778 56.9409V54.765C30.8778 53.5683 30.8898 52.5894 30.9045 52.5894C30.9192 52.5894 31.0692 52.6743 31.2378 52.7784Z" fill="#B42318" stroke="#B42318" stroke-width="0.4"/>
</svg>
