<svg viewBox="0 0 512 512" xmlns="http://www.w3.org/2000/svg" xmlns:xlink="http://www.w3.org/1999/xlink"><linearGradient id="linear-gradient" gradientUnits="userSpaceOnUse" x1="449.13" x2="116.43" y1="252.97" y2="252.97"><stop offset="0" stop-color="#cacfdd"/><stop offset="1" stop-color="#eef0f1"/></linearGradient><linearGradient id="linear-gradient-2" x1="425.65" x2="74.52" xlink:href="#linear-gradient" y1="284.2" y2="284.2"/><linearGradient id="linear-gradient-3" gradientUnits="userSpaceOnUse" x1="110.93" x2="165.31" y1="450.67" y2="450.67"><stop offset="0" stop-color="#a9afc4"/><stop offset="1" stop-color="#d4d8e5"/></linearGradient><linearGradient id="linear-gradient-4" x1="110.93" x2="188.22" xlink:href="#linear-gradient" y1="208.03" y2="208.03"/><g isolation="isolate"><g id="File_Document" data-name="File Document"><path d="m143 71.29a12.68 12.68 0 0 1 -12.5-10.7c-1.78-11.19 10.92-18.84 20-12.25a12.69 12.69 0 0 1 -7.49 23zm-6.58-11.64a6.69 6.69 0 1 0 10.58-6.46 6.68 6.68 0 0 0 -10.55 6.46z" fill="#5e6175"/><path d="m101.91 107.5a9 9 0 1 1 5.31-16.29c6.98 5.07 3.46 16.29-5.31 16.29zm-2.91-8.5a3 3 0 1 0 4.74-2.9 3 3 0 0 0 -4.74 2.9z" fill="#5e6175"/><path d="m429.14 55.31h19.07v6h-19.07z" fill="#5e6175" transform="matrix(.707 -.707 .707 .707 87.22 327.23)"/><path d="m413.21 36h6v19.06h-6z" fill="#5e6175"/><path d="m442.44 76.62h19.06v6h-19.06z" fill="#5e6175"/><path d="m122.43 471.52-4.24-4.25 4.24-4.24 4.25 4.24zm-11.31-11.32-4.24-4.2 4.24-4.24 4.24 4.24zm-11.31-11.31c-2.6-2.6-3.33-3.29-4.34-4.46l4.54-3.92c.89 1 1.39 1.49 4 4.14zm-10-13.89a32.5 32.5 0 0 1 -1.76-6.37l5.92-1a26.61 26.61 0 0 0 1.43 5.19zm3.79-16.8h-6v-6h6zm0-16h-6v-6h6zm0-16h-6v-6h6zm0-16h-6v-6h6z" fill="#a9afc4"/><path d="m419.85 76.71v336.83h-196.47l-49.99-47.38v-289.45z" fill="#f5f5f5"/><path d="m404.16 92.4v321.14h-180.78l-49.99-47.37v-273.77z" fill="url(#linear-gradient)" mix-blend-mode="multiply"/><path d="m422.85 416.54h-200.67l-51.79-49.09v-293.74h252.46zm-198.27-6h192.27v-330.83h-240.46v285.16z" fill="#5e6175"/><path d="m388.62 107.94v336.83h-196.47l-49.99-47.38v-289.45z" fill="#f5f5f5"/><path d="m372.93 123.63v321.13h-180.78l-49.99-47.37v-273.76z" fill="url(#linear-gradient-2)" mix-blend-mode="multiply"/><path d="m391.62 447.77h-200.62l-51.79-49.09v-293.74h252.41zm-198.27-6h192.27v-330.83h-240.46v285.16z" fill="#5e6175"/><path d="m357.39 139.17v336.83h-196.47l-49.99-47.38v-289.45z" fill="#f5f5f5"/><g fill="#dee1ec"><path d="m193.27 191.12h30.82v13.8h-30.82z"/><path d="m244.85 191.12h75.22v13.8h-75.22z"/><path d="m184.71 229.08h135.36v13.8h-135.36z"/><path d="m152.75 267.05h112.64v13.8h-112.64z"/><path d="m286.19 267.05h33.87v13.8h-33.87z"/><path d="m152.75 305.01h167.31v13.8h-167.31z"/><path d="m152.75 342.98h48.27v13.8h-48.27z"/><path d="m221.2 342.98h98.87v13.8h-98.87z"/><path d="m152.75 380.94h167.31v13.8h-167.31z"/><path d="m261.03 418.91h59.03v13.8h-59.03z"/></g><path d="m165.31 425.29v50.71h-4.13c-.39 0 3.61 3.67-50.25-47.38v-3.33z" fill="url(#linear-gradient-3)"/><path d="m160.93 479.1c-1.55 0 .8 1.81-53-49.19v-7.62h60.38v56.71h-6.6a3.21 3.21 0 0 1 -.78.1zm1.21-6.1c.27 0 .17 3.45.17-44.71h-47.37c34.23 32.44 44.48 42.21 47.2 44.71z" fill="#5e6175"/><path d="m188.22 200.26a76.72 76.72 0 0 1 -76.63 76.63h-.66v-137.72h46.86a76.5 76.5 0 0 1 30.43 61.09z" fill="url(#linear-gradient-4)" mix-blend-mode="multiply"/><path d="m360.39 479h-200.67l-51.79-49.09v-293.74h252.46zm-198.28-6h192.28v-330.83h-240.46v285.16z" fill="#5e6175"/><circle cx="111.59" cy="200.26" fill="#f5f5f5" r="61.09"/><path d="m111.59 264.35a64.09 64.09 0 1 1 64.09-64.09 64.16 64.16 0 0 1 -64.09 64.09zm0-122.18a58.09 58.09 0 1 0 58.09 58.09 58.16 58.16 0 0 0 -58.09-58.09z" fill="#5e6175"/><path d="m100.97 229.12-25.66-25.67 8.86-8.87 16.8 16.8 38.04-38.03 8.87 8.87z" fill="#e1830e"/></g></g></svg>