<svg width="16" height="16" viewBox="0 0 16 16" fill="none" xmlns="http://www.w3.org/2000/svg">
<g clip-path="url(#clip0_19224_31090)">
<path d="M6.67742 12.837C5.09459 12.837 3.51177 12.2394 2.30706 11.0354C-0.102354 8.62729 -0.102354 4.69877 2.30706 2.29947C4.71647 -0.0998242 8.64716 -0.0998242 11.0566 2.29947C13.466 4.70756 13.466 8.63608 11.0566 11.0354C9.85187 12.2394 8.26904 12.837 6.67742 12.837ZM2.60604 2.59829C0.372495 4.84818 0.372495 8.50425 2.60604 10.7453C4.84838 12.9777 8.50647 12.9777 10.7576 10.7453C12.9823 8.50425 12.9823 4.84818 10.7576 2.59829C8.50647 0.357185 4.84838 0.357185 2.60604 2.59829Z" fill="currentColor" stroke="currentColor" stroke-width="0.3"/>
<path d="M6.67751 11.5713C5.42883 11.5713 4.17136 11.0967 3.22167 10.1388C1.31348 8.22283 1.31348 5.11165 3.22167 3.19573C5.12985 1.29739 8.24275 1.29739 10.1597 3.19573C12.0591 5.11165 12.0591 8.22283 10.1597 10.1388C9.19244 11.0967 7.93497 11.5713 6.67751 11.5713ZM3.51185 3.50333C1.77074 5.24348 1.77074 8.091 3.51185 9.83115C5.25296 11.5713 8.09326 11.5713 9.84316 9.83115C11.5843 8.091 11.5843 5.24348 9.84316 3.50333C8.11084 1.76318 5.27055 1.76318 3.51185 3.50333ZM14.1783 15.4822C13.853 15.4822 13.5452 15.3504 13.2902 15.0955L9.9223 11.7207C9.84316 11.6328 9.84316 11.501 9.9223 11.4131C10.0102 11.3252 10.1421 11.3252 10.2301 11.4131L13.598 14.7791C13.8882 15.0692 14.1783 15.0692 14.3894 15.0077C14.706 14.9286 14.9698 14.6561 15.0577 14.3397C15.1105 14.1464 15.1192 13.8388 14.8115 13.5487L11.4524 10.1827C11.3644 10.0948 11.3644 9.96298 11.4524 9.87509C11.5315 9.79599 11.6722 9.79599 11.7513 9.87509L15.1105 13.2763C15.7084 13.8739 15.5501 14.6297 15.0929 15.0955C14.8642 15.324 14.5565 15.4735 14.2575 15.4998C14.2311 15.4822 14.2047 15.4822 14.1783 15.4822Z" fill="currentColor" stroke="currentColor" stroke-width="0.3"/>
<path d="M4.29406 8.25812C4.17095 8.25812 4.07422 8.16144 4.07422 8.0384V5.93792C4.07422 5.82367 4.17095 5.72699 4.29406 5.72699C4.40837 5.72699 4.51389 5.82367 4.51389 5.93792V8.04719C4.49631 8.16144 4.39958 8.25812 4.29406 8.25812ZM5.88568 8.25812C5.76257 8.25812 5.66584 8.16144 5.66584 8.0384V4.84813C5.66584 4.72509 5.76257 4.62841 5.88568 4.62841C6.00879 4.62841 6.10551 4.72509 6.10551 4.84813V8.04719C6.09672 8.16144 5.99999 8.25812 5.88568 8.25812ZM7.48609 8.25812C7.36298 8.25812 7.26625 8.16144 7.26625 8.0384V5.93792C7.26625 5.82367 7.36298 5.72699 7.48609 5.72699C7.6092 5.72699 7.70593 5.82367 7.70593 5.93792V8.04719C7.69713 8.16144 7.59161 8.25812 7.48609 8.25812ZM9.0865 8.25812C8.9634 8.25812 8.86667 8.16144 8.86667 8.0384V4.72509C8.86667 4.60205 8.9634 4.50537 9.0865 4.50537C9.20082 4.50537 9.30634 4.60205 9.30634 4.72509V8.04719C9.28875 8.16144 9.19203 8.25812 9.0865 8.25812Z" fill="currentColor" stroke="currentColor" stroke-width="0.3"/>
<path d="M9.90471 8.25804H3.47667C3.35356 8.25804 3.25684 8.16136 3.25684 8.03832C3.25684 7.91528 3.35356 7.8186 3.47667 7.8186H9.90471C10.019 7.8186 10.1245 7.91528 10.1245 8.03832C10.1245 8.16136 10.0102 8.25804 9.90471 8.25804Z" fill="currentColor" stroke="currentColor" stroke-width="0.3"/>
</g>
<defs>
<clipPath id="clip0_19224_31090">
<rect width="16" height="16" fill="white"/>
</clipPath>
</defs>
</svg>