
<svg viewBox="0 0 30 30" fill="none" xmlns="http://www.w3.org/2000/svg">
<g clip-path="url(#clip0_3883_198641)">
<path fill-rule="evenodd" clip-rule="evenodd" d="M4.47336 0C2.00641 0 0 2.09216 0 4.66453C0 6.21883 0.732524 7.5978 1.85655 8.44587C1.66459 8.59102 1.48226 8.75312 1.31127 8.93141C0.465655 9.81317 0 10.9841 0 12.2286C0 13.7829 0.732524 15.1619 1.85655 16.01C1.66459 16.1551 1.48226 16.3172 1.31127 16.4955C0.465655 17.3773 0 18.5482 0 19.7927C0 22.3651 2.00641 24.4573 4.47336 24.4573H11.7275C12.1947 24.4573 12.5738 24.062 12.5738 23.5748C12.5738 23.0876 12.1947 22.6923 11.7275 22.6923H4.47336C2.93967 22.6923 1.69262 21.392 1.69262 19.7927C1.69262 19.02 1.9815 18.2912 2.50783 17.7436C3.03466 17.1954 3.73263 16.8932 4.47336 16.8932H11.7275C11.7859 16.8932 11.8429 16.887 11.898 16.8752C12.2835 16.7929 12.5738 16.437 12.5738 16.0107C12.5738 15.5235 12.1947 15.1282 11.7275 15.1282H4.47336C2.93967 15.1282 1.69262 13.8279 1.69262 12.2286C1.69262 11.4559 1.9815 10.7271 2.50783 10.1795C3.03466 9.63129 3.73262 9.32906 4.47336 9.32906H22.6086C23.2304 9.32906 23.8102 9.53538 24.2891 9.92498L24.2897 9.92545C24.6584 10.2235 25.1893 10.1548 25.4769 9.77199L25.4773 9.77155C25.765 9.3868 25.6989 8.83255 25.3301 8.53268C25.2946 8.50382 25.2588 8.47558 25.2226 8.44796C26.3482 7.60008 27.082 6.22011 27.082 4.66453C27.082 2.09216 25.0756 0 22.6086 0H4.47336ZM1.69262 4.66453C1.69262 3.0653 2.93967 1.76496 4.47336 1.76496H22.6086C24.1423 1.76496 25.3893 3.0653 25.3893 4.66453C25.3893 6.26376 24.1423 7.5641 22.6086 7.5641H4.47336C2.93967 7.5641 1.69262 6.26376 1.69262 4.66453ZM21.7335 11.3921C21.909 11.3305 22.0999 11.3303 22.275 11.3922L28.9242 13.7332C29.2686 13.8536 29.5 14.191 29.5 14.5697V19.8381C29.5 23.0416 27.7598 25.4134 26.0144 26.9864C24.2681 28.5604 22.4869 29.3627 22.3331 29.4308L22.3321 29.4312C22.2272 29.4771 22.1156 29.5 22.0041 29.5C21.8926 29.5 21.7809 29.4771 21.676 29.4312L21.6751 29.4308C21.5212 29.3627 19.7401 28.5604 17.9937 26.9864C16.2484 25.4134 14.5082 23.0416 14.5082 19.8381V14.5697C14.5082 14.1901 14.7407 13.8548 15.0837 13.7333L21.7335 11.3921ZM16.2008 19.8381V15.2045L22.0041 13.1604L27.8074 15.2045V19.8381C27.8074 22.1204 26.6318 23.9363 25.2881 25.2662C24.022 26.5194 22.6285 27.3185 22.0039 27.6422C21.3788 27.3193 19.9853 26.5231 18.7195 25.2714C17.3762 23.943 16.2008 22.1269 16.2008 19.8381ZM26.2289 17.2771C25.8987 16.9328 25.3623 16.9328 25.0321 17.2771L21.4692 20.9911L19.6431 18.6103L19.6423 18.6093C19.3491 18.2311 18.8203 18.1727 18.4552 18.471L18.4531 18.4727C18.0873 18.7782 18.0307 19.3329 18.3212 19.7132L20.7389 22.8646C20.8888 23.0611 21.1089 23.1789 21.3473 23.1946C21.3694 23.1967 21.3902 23.1966 21.3978 23.1966L21.3995 23.1966C21.623 23.1966 21.8401 23.1029 21.9982 22.9365L26.2289 18.525C26.5591 18.1807 26.5591 17.6214 26.2289 17.2771ZM5.6824 2.52137C4.549 2.52137 3.62708 3.48269 3.62708 4.66453C3.62708 5.84637 4.549 6.80769 5.6824 6.80769C6.8158 6.80769 7.73773 5.84637 7.73773 4.66453C7.73773 3.48269 6.8158 2.52137 5.6824 2.52137ZM5.3197 4.66453C5.3197 4.45709 5.48347 4.28632 5.6824 4.28632C5.88134 4.28632 6.04511 4.45709 6.04511 4.66453C6.04511 4.87197 5.88134 5.04273 5.6824 5.04273C5.48347 5.04273 5.3197 4.87197 5.3197 4.66453ZM11.7274 2.52137C10.594 2.52137 9.67212 3.48269 9.67212 4.66453C9.67212 5.84637 10.594 6.80769 11.7274 6.80769C12.8608 6.80769 13.7828 5.84637 13.7828 4.66453C13.7828 3.48269 12.8608 2.52137 11.7274 2.52137ZM11.3647 4.66453C11.3647 4.45709 11.5285 4.28632 11.7274 4.28632C11.9264 4.28632 12.0902 4.45709 12.0902 4.66453C12.0902 4.87197 11.9264 5.04273 11.7274 5.04273C11.5285 5.04273 11.3647 4.87197 11.3647 4.66453ZM5.6824 10.0855C4.549 10.0855 3.62708 11.0468 3.62708 12.2286C3.62708 13.4105 4.549 14.3718 5.6824 14.3718C6.8158 14.3718 7.73773 13.4105 7.73773 12.2286C7.73773 11.0468 6.8158 10.0855 5.6824 10.0855ZM5.3197 12.2286C5.3197 12.0212 5.48347 11.8504 5.6824 11.8504C5.88134 11.8504 6.04511 12.0212 6.04511 12.2286C6.04511 12.4361 5.88134 12.6068 5.6824 12.6068C5.48347 12.6068 5.3197 12.4361 5.3197 12.2286ZM11.7274 10.0855C10.594 10.0855 9.67212 11.0468 9.67212 12.2286C9.67212 13.4105 10.594 14.3718 11.7274 14.3718C12.8608 14.3718 13.7828 13.4105 13.7828 12.2286C13.7828 11.0468 12.8608 10.0855 11.7274 10.0855ZM11.3647 12.2286C11.3647 12.0212 11.5285 11.8504 11.7274 11.8504C11.9264 11.8504 12.0902 12.0212 12.0902 12.2286C12.0902 12.4361 11.9264 12.6068 11.7274 12.6068C11.5285 12.6068 11.3647 12.4361 11.3647 12.2286ZM5.6824 17.6496C4.549 17.6496 3.62708 18.6109 3.62708 19.7927C3.62708 20.9746 4.549 21.9359 5.6824 21.9359C6.8158 21.9359 7.73773 20.9746 7.73773 19.7927C7.73773 18.6109 6.8158 17.6496 5.6824 17.6496ZM5.3197 19.7927C5.3197 19.5853 5.48347 19.4145 5.6824 19.4145C5.88134 19.4145 6.04511 19.5853 6.04511 19.7927C6.04511 20.0002 5.88134 20.1709 5.6824 20.1709C5.48347 20.1709 5.3197 20.0002 5.3197 19.7927ZM11.7274 17.6496C10.594 17.6496 9.67212 18.6109 9.67212 19.7927C9.67212 20.9746 10.594 21.9359 11.7274 21.9359C12.8608 21.9359 13.7828 20.9746 13.7828 19.7927C13.7828 18.6109 12.8608 17.6496 11.7274 17.6496ZM11.3647 19.7927C11.3647 19.5853 11.5285 19.4145 11.7274 19.4145C11.9264 19.4145 12.0902 19.5853 12.0902 19.7927C12.0902 20.0002 11.9264 20.1709 11.7274 20.1709C11.5285 20.1709 11.3647 20.0002 11.3647 19.7927Z" fill="#757575"/>
</g>
<defs>
<clipPath id="clip0_3883_198641">
<rect width="30" height="30" fill="white"/>
</clipPath>
</defs>
</svg>
