<svg viewBox="0 0 14 14" fill="none" xmlns="http://www.w3.org/2000/svg">
<path d="M12.2502 9.33301H9.91683C9.59466 9.33301 9.3335 9.59418 9.3335 9.91634V12.2497C9.3335 12.5718 9.59466 12.833 9.91683 12.833H12.2502C12.5723 12.833 12.8335 12.5718 12.8335 12.2497V9.91634C12.8335 9.59418 12.5723 9.33301 12.2502 9.33301Z" stroke="currentColor" stroke-linecap="round" stroke-linejoin="round"/>
<path d="M4.08317 9.33301H1.74984C1.42767 9.33301 1.1665 9.59418 1.1665 9.91634V12.2497C1.1665 12.5718 1.42767 12.833 1.74984 12.833H4.08317C4.40534 12.833 4.6665 12.5718 4.6665 12.2497V9.91634C4.6665 9.59418 4.40534 9.33301 4.08317 9.33301Z" stroke="currentColor" stroke-linecap="round" stroke-linejoin="round"/>
<path d="M8.16667 1.16699H5.83333C5.51117 1.16699 5.25 1.42816 5.25 1.75033V4.08366C5.25 4.40582 5.51117 4.66699 5.83333 4.66699H8.16667C8.48883 4.66699 8.75 4.40582 8.75 4.08366V1.75033C8.75 1.42816 8.48883 1.16699 8.16667 1.16699Z" stroke="currentColor" stroke-linecap="round" stroke-linejoin="round"/>
<path d="M2.9165 9.33333V7.58333C2.9165 7.42862 2.97796 7.28025 3.08736 7.17085C3.19675 7.06146 3.34513 7 3.49984 7H10.4998C10.6545 7 10.8029 7.06146 10.9123 7.17085C11.0217 7.28025 11.0832 7.42862 11.0832 7.58333V9.33333" stroke="currentColor" stroke-linecap="round" stroke-linejoin="round"/>
<path d="M7 7.00033V4.66699" stroke="currentColor" stroke-linecap="round" stroke-linejoin="round"/>
</svg>
