<svg width="59" height="59" viewBox="0 0 59 59" fill="none" xmlns="http://www.w3.org/2000/svg">
<path d="M6.4801 15.3125H12.5895V34.7188H46.3707V15.3125H52.1207V40.8281H6.4801V15.3125Z" fill="#B2F0FB"/>
<g clip-path="url(#clip0_5768_29302)">
<rect x="1.74951" y="7.375" width="55.5" height="43.2813" rx="5" stroke="#020288" stroke-width="2"/>
<path d="M1.82764 41.2344H57.1714" stroke="#020288" stroke-width="2" stroke-linecap="round"/>
<path d="M17.2808 56.6875H41.7183" stroke="#020288" stroke-width="2" stroke-linecap="round"/>
<path d="M26.6245 45.9062H32.3745" stroke="#020288" stroke-width="2" stroke-linecap="round"/>
<path d="M34.5308 50.2188L36.687 56.6875" stroke="#020288" stroke-width="2" stroke-linecap="round"/>
<path d="M24.4683 50.2188L22.312 56.6875" stroke="#020288" stroke-width="2" stroke-linecap="round"/>
<path d="M13.3745 10.6586V3.13359V2.05859H45.9829V10.6586H13.3745Z" fill="white"/>
<path d="M13.7329 10.6562L45.9829 10.6562" stroke="#020288" stroke-width="2" stroke-linecap="round"/>
<rect x="12.5829" y="1.625" width="33.8334" height="33.8334" rx="4" stroke="#020288" stroke-width="2"/>
<circle cx="17.3163" cy="6.35911" r="1.43333" fill="#FF7C50"/>
<circle cx="21.6162" cy="6.35911" r="1.43333" fill="#FEB019"/>
<circle cx="25.9162" cy="6.35911" r="1.43333" fill="#48CA9E"/>
<path d="M33.7996 6.35547L41.6829 6.35547" stroke="#020288" stroke-width="3" stroke-linecap="round"/>
<path d="M20.8778 14.5139C20.8194 14.5264 20.7193 14.5556 20.6485 14.5764C19.8435 14.86 19.3139 15.4397 19.0887 16.2655C19.0261 16.5032 19.0261 19.7312 19.0887 19.9689C19.3055 20.7655 19.806 21.3202 20.5901 21.6288C20.9154 21.7539 21.7578 21.7539 22.0831 21.6288C22.8338 21.3327 23.3927 20.7113 23.5678 19.9648C23.6554 19.6019 23.6554 16.5908 23.5678 16.253C23.3635 15.4522 22.8714 14.9184 22.0247 14.5723C21.8954 14.5222 21.0655 14.4805 20.8778 14.5139ZM21.8579 15.8735C22.0873 16.0194 22.1916 16.1404 22.2916 16.3781C22.3751 16.5699 22.3792 16.6534 22.3751 18.1089C22.3709 19.7562 22.3709 19.7688 22.1457 20.0899C21.9705 20.3401 21.6953 20.4652 21.3366 20.4611C21.0196 20.4611 20.8278 20.3902 20.6234 20.19C20.3148 19.8897 20.3148 19.9022 20.3023 18.1798C20.2898 16.474 20.2981 16.3906 20.5317 16.1154C20.7819 15.8276 20.9904 15.74 21.3991 15.7567C21.6285 15.765 21.7286 15.7901 21.8579 15.8735Z" fill="#020288"/>
<path d="M35.7666 14.517C35.041 14.6463 34.3403 15.2093 34.0817 15.8682C33.8982 16.327 33.8899 16.4313 33.8899 18.112C33.8941 19.359 33.9066 19.7844 33.9525 19.9762C34.1401 20.7561 34.7657 21.4109 35.579 21.6695C35.7958 21.7404 36.5716 21.7404 36.7884 21.6695C37.4057 21.4735 37.9895 20.9939 38.2273 20.4892C38.4692 19.9721 38.4775 19.8928 38.4775 18.1162C38.4775 16.5689 38.4608 16.277 38.3482 16.0017C38.0604 15.2927 37.6559 14.9007 36.8718 14.5754C36.7467 14.5253 35.9627 14.4836 35.7666 14.517ZM36.7134 15.8808C36.9261 16.0142 37.0929 16.2186 37.1679 16.4354C37.2514 16.6773 37.2514 19.5925 37.1679 19.7927C37.0637 20.043 36.8677 20.2682 36.6675 20.3724C36.4214 20.4976 35.9918 20.5142 35.7625 20.4058C35.5539 20.3057 35.3371 20.0805 35.2328 19.8553C35.1452 19.6718 35.1411 19.6176 35.1411 18.1245C35.1411 16.6607 35.1452 16.5731 35.2286 16.3812C35.3246 16.1518 35.433 16.0226 35.6457 15.8891C35.8459 15.7598 35.9084 15.7473 36.2463 15.7598C36.4756 15.7682 36.5757 15.7932 36.7134 15.8808Z" fill="#020288"/>
<path d="M15.0474 14.7259C14.7304 14.9761 14.697 15.3515 14.9723 15.6559C15.1016 15.7977 15.2267 15.8394 15.6438 15.8644L16.0191 15.8895L16.0316 18.5544L16.04 21.2194L16.1484 21.3612C16.3945 21.6865 16.8282 21.7199 17.0993 21.4363C17.2911 21.2278 17.2911 21.2611 17.2911 18.1082C17.2911 14.8176 17.2995 14.9344 17.0284 14.7259C16.8866 14.6174 16.8866 14.6174 16.0358 14.6174H15.185L15.0474 14.7259Z" fill="#020288"/>
<path d="M25.6697 14.7128C25.3945 14.8963 25.3153 15.2258 25.4779 15.5094C25.6155 15.7513 25.8241 15.843 26.2703 15.8597L26.6331 15.8764L26.6373 18.5288C26.6373 20.9811 26.6457 21.1938 26.7124 21.3106C26.9084 21.6484 27.3797 21.7318 27.6591 21.4733C27.6883 21.4482 27.7508 21.3648 27.7967 21.2856C27.8843 21.1438 27.8843 21.1021 27.8843 18.1368C27.8843 14.8129 27.8926 14.9338 27.6216 14.7253C27.4798 14.6169 27.4756 14.6169 26.6457 14.6169C25.8449 14.6169 25.8074 14.621 25.6697 14.7128Z" fill="#020288"/>
<path d="M29.8946 14.7267C29.7528 14.8393 29.636 15.0645 29.636 15.223C29.636 15.3523 29.7403 15.5858 29.832 15.6693C29.9655 15.7902 30.2574 15.8694 30.5785 15.8694H30.8872V18.5261C30.8872 21.1076 30.8913 21.1911 30.9706 21.3245C31.2291 21.7457 31.8422 21.7124 32.0549 21.262C32.1383 21.0868 32.1383 21.0159 32.1383 18.0923C32.1341 14.7601 32.1467 14.9144 31.8505 14.7142C31.7129 14.6224 31.6754 14.6183 30.8705 14.6183C30.0322 14.6183 30.0322 14.6183 29.8946 14.7267Z" fill="#020288"/>
<path d="M40.5377 14.6949C40.3667 14.7991 40.2124 15.1161 40.2458 15.2912C40.3209 15.6749 40.5711 15.8376 41.1174 15.8584L41.4803 15.8751V18.4984C41.4803 21.2176 41.4803 21.2384 41.6554 21.4303C41.8848 21.6847 42.3269 21.6847 42.5563 21.4303C42.7314 21.2343 42.7314 21.2384 42.7314 18.0939C42.7314 14.7574 42.7439 14.9326 42.4687 14.7241C42.3269 14.6156 42.3227 14.6156 41.497 14.6156C40.7546 14.6156 40.6545 14.624 40.5377 14.6949Z" fill="#020288"/>
<path d="M21.2114 23.8708C20.5191 24.0042 19.8768 24.5172 19.5682 25.1803C19.3847 25.5849 19.3763 25.6516 19.3763 27.4658C19.3763 29.1131 19.3805 29.2132 19.4639 29.4676C19.7434 30.3268 20.4065 30.9065 21.2865 31.0733C21.9954 31.2068 22.7461 30.9649 23.28 30.431C23.5803 30.1308 23.8013 29.7304 23.9014 29.3175C23.9848 28.963 23.989 25.9686 23.9014 25.6141C23.8055 25.2137 23.5969 24.8425 23.2758 24.5172C23.0006 24.2419 22.7879 24.1085 22.3208 23.9208C22.1664 23.8583 21.4533 23.8249 21.2114 23.8708ZM22.1081 25.197C22.3249 25.3054 22.5418 25.5515 22.6294 25.7809C22.7086 25.9894 22.7128 26.1104 22.7128 27.4491C22.7128 28.4375 22.6961 28.9463 22.6627 29.0631C22.5877 29.3217 22.4 29.5719 22.179 29.7012C22.008 29.8013 21.9412 29.818 21.6493 29.818C21.3615 29.8138 21.2906 29.8013 21.1447 29.7054C20.9236 29.5636 20.7359 29.3342 20.6734 29.134C20.6442 29.0256 20.6275 28.4709 20.6275 27.4491C20.6275 25.7809 20.6317 25.7433 20.8903 25.4347C21.0112 25.2929 21.2948 25.1386 21.4825 25.1136C21.6701 25.0886 21.9663 25.1303 22.1081 25.197Z" fill="#020288"/>
<path d="M27.3004 23.8713C26.5038 24.009 25.7865 24.6095 25.5279 25.3561C25.3986 25.7231 25.3861 25.9358 25.3861 27.483C25.3861 29.1888 25.3986 29.3222 25.6071 29.781C26.0117 30.6652 27.0543 31.2365 27.9844 31.0906C28.9186 30.9404 29.6401 30.3232 29.907 29.439C29.9946 29.1429 29.9987 25.8273 29.907 25.5354C29.6818 24.7805 29.1521 24.2175 28.4431 23.9673C28.1679 23.8672 27.5965 23.8213 27.3004 23.8713ZM28.2012 25.2309C28.2972 25.2893 28.4264 25.3936 28.4848 25.4645C28.7142 25.7356 28.7184 25.7606 28.7184 27.4622C28.7184 29.2096 28.7184 29.1971 28.4431 29.5058C28.2554 29.7143 28.0928 29.7935 27.8009 29.8269C27.3463 29.8728 26.9667 29.6642 26.7666 29.2555L26.654 29.0261L26.6414 27.5581C26.6289 26.2944 26.6373 26.0609 26.6998 25.8565C26.8041 25.4937 27.0877 25.2143 27.4464 25.1225C27.6507 25.0683 28.0136 25.1183 28.2012 25.2309Z" fill="#020288"/>
<path d="M15.0891 24.0421C14.8013 24.2173 14.7096 24.5759 14.8764 24.8762C15.014 25.1181 15.1642 25.1848 15.6229 25.2099L16.0191 25.2307L16.04 27.9207C16.0567 30.0352 16.0734 30.6316 16.1151 30.7066C16.2694 30.9777 16.7657 31.057 17.0284 30.8568C17.2995 30.6483 17.2912 30.765 17.2912 27.4745C17.2912 24.3215 17.2912 24.3549 17.0993 24.1464C16.9325 23.9712 16.8616 23.9587 16.0317 23.9587C15.3018 23.9587 15.2142 23.967 15.0891 24.0421Z" fill="#020288"/>
<path d="M31.8964 24.0209C31.5795 24.1919 31.471 24.5672 31.642 24.8758C31.7755 25.1136 31.9298 25.1845 32.3886 25.2095L32.7848 25.2303L32.8056 27.8995C32.8265 30.3476 32.8306 30.5812 32.9015 30.7021C32.9975 30.8814 33.1685 30.9648 33.4354 30.9648C33.6022 30.9648 33.6856 30.9398 33.794 30.8564C34.0651 30.6479 34.0568 30.7647 34.0568 27.4783C34.0568 24.5714 34.0568 24.4963 33.9734 24.3212C33.915 24.2002 33.8316 24.1085 33.7273 24.0501C33.5772 23.9625 33.5146 23.9583 32.7806 23.9625C32.2259 23.9667 31.9632 23.9833 31.8964 24.0209Z" fill="#020288"/>
<path d="M36.3296 24.0381C36.0419 24.2132 35.9376 24.4676 36.0377 24.7512C36.1628 25.1099 36.3505 25.21 36.876 25.21H37.2263V27.8333C37.2263 30.7276 37.218 30.6526 37.489 30.8569C37.6892 31.0112 38.0145 31.0112 38.2147 30.8569C38.49 30.6484 38.4775 30.8236 38.4775 27.4538C38.4775 24.476 38.4733 24.3926 38.3941 24.2591C38.2272 23.9839 38.1313 23.9588 37.2472 23.9588C36.5465 23.9588 36.4381 23.9672 36.3296 24.0381Z" fill="#020288"/>
<path d="M40.5544 24.0506C40.4501 24.109 40.3667 24.2049 40.3083 24.33C40.2291 24.501 40.2249 24.5427 40.2666 24.7095C40.3667 25.0765 40.5961 25.21 41.1299 25.21H41.4803V27.8583C41.4803 30.7819 41.4678 30.6484 41.743 30.8569C41.9432 31.0112 42.2685 31.0112 42.4687 30.8569C42.7439 30.6484 42.7314 30.8236 42.7314 27.4871C42.7314 24.3425 42.7314 24.3467 42.5563 24.1507C42.3978 23.9755 42.2977 23.9588 41.4844 23.9588C40.7671 23.9588 40.6962 23.9672 40.5544 24.0506Z" fill="#020288"/>
</g>
<defs>
<clipPath id="clip0_5768_29302">
<rect width="57.5" height="57.5" fill="white" transform="translate(0.749512 0.625)"/>
</clipPath>
</defs>
</svg>
