<svg width="55" height="55" viewBox="0 0 55 55" fill="none" xmlns="http://www.w3.org/2000/svg">
<path fill-rule="evenodd" clip-rule="evenodd" d="M8.03623 1.71875H39.9255L47.5986 10.0504V52.6475C47.5984 52.8157 47.5313 52.9769 47.4123 53.0957C47.2933 53.2145 47.132 53.2813 46.9638 53.2812H8.03623C7.86804 53.2813 7.70672 53.2145 7.58769 53.0957C7.46866 52.9769 7.40165 52.8157 7.40137 52.6475V2.35254C7.40165 2.18435 7.46866 2.02315 7.58769 1.90432C7.70672 1.78549 7.86804 1.71875 8.03623 1.71875Z" fill="#E3E3E3"/>
<path fill-rule="evenodd" clip-rule="evenodd" d="M39.9255 1.71875L47.5987 10.0504H40.5593C40.3912 10.0498 40.2302 9.98272 40.1114 9.86375C39.9927 9.74478 39.9258 9.58363 39.9255 9.41553V1.71875Z" fill="#757575"/>
<path d="M19.1544 22.7816C23.4271 22.7816 26.8909 19.3179 26.8909 15.0451C26.8909 10.7724 23.4271 7.30859 19.1544 7.30859C14.8816 7.30859 11.4178 10.7724 11.4178 15.0451C11.4178 19.3179 14.8816 22.7816 19.1544 22.7816Z" fill="#8AC9FE"/>
<path d="M19.1544 19.6359C21.6912 19.6359 23.7478 17.5794 23.7478 15.0426C23.7478 12.5057 21.6912 10.4492 19.1544 10.4492C16.6176 10.4492 14.561 12.5057 14.561 15.0426C14.561 17.5794 16.6176 19.6359 19.1544 19.6359Z" fill="#F4F4F4"/>
<path fill-rule="evenodd" clip-rule="evenodd" d="M10.3362 31.8848C10.1083 31.8848 9.88968 31.7942 9.72851 31.6331C9.56735 31.4719 9.47681 31.2533 9.47681 31.0254C9.47681 30.7975 9.56735 30.5789 9.72851 30.4177C9.88968 30.2566 10.1083 30.166 10.3362 30.166H12.5136C12.7415 30.166 12.9601 30.2566 13.1213 30.4177C13.2825 30.5789 13.373 30.7975 13.373 31.0254C13.373 31.2533 13.2825 31.4719 13.1213 31.6331C12.9601 31.7942 12.7415 31.8848 12.5136 31.8848H10.3362ZM30.7345 12.6562C30.5066 12.6562 30.288 12.5657 30.1269 12.4045C29.9657 12.2434 29.8751 12.0248 29.8751 11.7969C29.8751 11.569 29.9657 11.3504 30.1269 11.1892C30.288 11.028 30.5066 10.9375 30.7345 10.9375H36.9865C37.2144 10.9375 37.433 11.028 37.5941 11.1892C37.7553 11.3504 37.8458 11.569 37.8458 11.7969C37.8458 12.0248 37.7553 12.2434 37.5941 12.4045C37.433 12.5657 37.2144 12.6562 36.9865 12.6562H30.7345ZM30.7345 21.25C30.5066 21.25 30.288 21.1595 30.1269 20.9983C29.9657 20.8371 29.8751 20.6185 29.8751 20.3906C29.8751 20.1627 29.9657 19.9441 30.1269 19.783C30.288 19.6218 30.5066 19.5312 30.7345 19.5312H43.4629C43.6909 19.5312 43.9094 19.6218 44.0706 19.783C44.2318 19.9441 44.3223 20.1627 44.3223 20.3906C44.3223 20.6185 44.2318 20.8371 44.0706 20.9983C43.9094 21.1595 43.6909 21.25 43.4629 21.25H30.7345ZM30.7345 16.9531C30.5066 16.9531 30.288 16.8626 30.1269 16.7014C29.9657 16.5403 29.8751 16.3217 29.8751 16.0938C29.8751 15.8658 29.9657 15.6472 30.1269 15.4861C30.288 15.3249 30.5066 15.2344 30.7345 15.2344H40.0072C40.2351 15.2344 40.4537 15.3249 40.6148 15.4861C40.776 15.6472 40.8665 15.8658 40.8665 16.0938C40.8665 16.3217 40.776 16.5403 40.6148 16.7014C40.4537 16.8626 40.2351 16.9531 40.0072 16.9531H30.7345ZM15.3861 31.8848C15.1582 31.8848 14.9396 31.7942 14.7784 31.6331C14.6173 31.4719 14.5267 31.2533 14.5267 31.0254C14.5267 30.7975 14.6173 30.5789 14.7784 30.4177C14.9396 30.2566 15.1582 30.166 15.3861 30.166H25.4461C25.6741 30.166 25.8926 30.2566 26.0538 30.4177C26.215 30.5789 26.3055 30.7975 26.3055 31.0254C26.3055 31.2533 26.215 31.4719 26.0538 31.6331C25.8926 31.7942 25.6741 31.8848 25.4461 31.8848H15.3861ZM15.3861 27.5879C15.1582 27.5879 14.9396 27.4974 14.7784 27.3362C14.6173 27.175 14.5267 26.9564 14.5267 26.7285C14.5267 26.5006 14.6173 26.282 14.7784 26.1208C14.9396 25.9597 15.1582 25.8691 15.3861 25.8691H25.4461C25.6741 25.8691 25.8926 25.9597 26.0538 26.1208C26.215 26.282 26.3055 26.5006 26.3055 26.7285C26.3055 26.9564 26.215 27.175 26.0538 27.3362C25.8926 27.4974 25.6741 27.5879 25.4461 27.5879H15.3861ZM10.3373 27.5879C10.1093 27.5879 9.89075 27.4974 9.72959 27.3362C9.56842 27.175 9.47788 26.9564 9.47788 26.7285C9.47788 26.5006 9.56842 26.282 9.72959 26.1208C9.89075 25.9597 10.1093 25.8691 10.3373 25.8691H12.5147C12.7426 25.8691 12.9612 25.9597 13.1224 26.1208C13.2835 26.282 13.3741 26.5006 13.3741 26.7285C13.3741 26.9564 13.2835 27.175 13.1224 27.3362C12.9612 27.4974 12.7426 27.5879 12.5147 27.5879H10.3373Z" fill="#8C8C8C"/>
<path fill-rule="evenodd" clip-rule="evenodd" d="M23.3976 21.5145C24.472 20.8102 25.3541 19.8495 25.9642 18.7189C26.5743 17.5884 26.8932 16.3237 26.8921 15.0391H23.7478C23.7484 15.7711 23.5737 16.4926 23.2384 17.1433C22.9032 17.794 22.4171 18.355 21.8207 18.7795L23.3976 21.5145Z" fill="#FFE177"/>
<path fill-rule="evenodd" clip-rule="evenodd" d="M23.7479 15.0391H26.8921C26.8921 12.9878 26.0772 11.0205 24.6267 9.57003C23.1763 8.11956 21.209 7.30469 19.1577 7.30469V10.45C20.3747 10.4506 21.5418 10.9342 22.4024 11.7947C23.2631 12.6551 23.747 13.822 23.7479 15.0391Z" fill="#98DB7C"/>
<path d="M25.3151 36.3086H21.6316C21.335 36.3086 21.0945 36.5491 21.0945 36.8457V48.9994C21.0945 49.2961 21.335 49.5365 21.6316 49.5365H25.3151C25.6117 49.5365 25.8522 49.2961 25.8522 48.9994V36.8457C25.8522 36.5491 25.6117 36.3086 25.3151 36.3086Z" fill="#FFE177"/>
<path d="M33.3673 31.1172H29.6838C29.3872 31.1172 29.1467 31.3577 29.1467 31.6543V48.9997C29.1467 49.2963 29.3872 49.5368 29.6838 49.5368H33.3673C33.664 49.5368 33.9044 49.2963 33.9044 48.9997V31.6543C33.9044 31.3577 33.664 31.1172 33.3673 31.1172Z" fill="#98DB7C"/>
<path d="M41.4208 26.6797H37.7373C37.4407 26.6797 37.2002 26.9202 37.2002 27.2168V49.0009C37.2002 49.2975 37.4407 49.538 37.7373 49.538H41.4208C41.7174 49.538 41.9579 49.2975 41.9579 49.0009V27.2168C41.9579 26.9202 41.7174 26.6797 41.4208 26.6797Z" fill="#8AC9FE"/>
<path d="M17.2627 41.418H13.5792C13.2826 41.418 13.0421 41.6584 13.0421 41.9551V48.9998C13.0421 49.2964 13.2826 49.5369 13.5792 49.5369H17.2627C17.5594 49.5369 17.7998 49.2964 17.7998 48.9998V41.9551C17.7998 41.6584 17.5594 41.418 17.2627 41.418Z" fill="#FE646F"/>
<path fill-rule="evenodd" clip-rule="evenodd" d="M12.2461 50.3945C12.0182 50.3945 11.7996 50.304 11.6384 50.1428C11.4773 49.9817 11.3867 49.7631 11.3867 49.5352C11.3867 49.3072 11.4773 49.0886 11.6384 48.9275C11.7996 48.7663 12.0182 48.6758 12.2461 48.6758H42.7539C42.9818 48.6758 43.2004 48.7663 43.3616 48.9275C43.5227 49.0886 43.6133 49.3072 43.6133 49.5352C43.6133 49.7631 43.5227 49.9817 43.3616 50.1428C43.2004 50.304 42.9818 50.3945 42.7539 50.3945H12.2461Z" fill="#675D67"/>
</svg>
