<svg viewBox="0 0 89 89" fill="none" xmlns="http://www.w3.org/2000/svg">
<path d="M0 28C0 12.536 12.536 0 28 0H61C76.464 0 89 12.536 89 28V61C89 76.464 76.464 89 61 89H28C12.536 89 0 76.464 0 61V28Z" fill="#FFF6ED"/>
<path d="M30.7301 39.6426L31.0001 39.7182V48.3181C31.0015 48.9893 31.4488 49.5778 32.0951 49.759L34.5 50.4346V57.5C34.5 58.6046 35.3954 59.5 36.5 59.5H51.4999C52.6044 59.5 53.4998 58.6046 53.4998 57.5V50.4345L55.9038 49.7615C56.5507 49.5806 56.9984 48.9917 56.9998 48.32V39.7201L57.2698 39.6446C58.5292 39.2923 59.2647 37.9857 58.9124 36.7263C58.8553 36.522 58.771 36.3264 58.6618 36.1445L56.9288 33.2446L56.9243 33.2476C56.8609 33.1377 56.7578 33.0563 56.6363 33.0201L44.541 29.5752C44.1871 29.4749 43.8124 29.4749 43.4585 29.5752L31.3636 33.0202C31.2421 33.0564 31.139 33.1378 31.0756 33.2477L31.0711 33.2447L29.3386 36.1447C28.665 37.2657 29.0277 38.7204 30.1487 39.394C30.3304 39.5032 30.5259 39.5875 30.7301 39.6446V39.6426ZM32.3641 48.8C32.1491 48.7393 32.0006 48.5434 32.0001 48.3201V40.0001L39.495 42.1001C40.5222 42.3873 41.6145 41.9523 42.163 41.0376L43.5 38.8066V44.5001H36.5C35.3955 44.5001 34.5001 45.3955 34.5001 46.5V49.396L32.3641 48.8ZM52.4999 57.5C52.4999 58.0523 52.0522 58.5 51.4999 58.5H36.5C35.9477 58.5 35.5 58.0523 35.5 57.5V46.5C35.5 45.9477 35.9477 45.5 36.5 45.5H51.4999C52.0522 45.5 52.4999 45.9477 52.4999 46.5V57.5ZM55.9999 48.3201C55.9987 48.543 55.8499 48.7381 55.6354 48.7985L53.4999 49.396V46.5C53.4999 45.3955 52.6045 44.5001 51.4999 44.5001H44.5V38.8066L45.8369 41.0356C46.386 41.9497 47.4774 42.3851 48.5049 42.1001L55.9999 40.0001V48.3201ZM57.8998 37.8701C57.7436 38.2663 57.4103 38.566 56.9998 38.6796L48.2355 41.1351C47.6423 41.2998 47.0121 41.0489 46.6945 40.5216L44.7654 37.3062L56.2654 34.0857L57.8023 36.6582C58.0232 37.0237 58.0594 37.4719 57.8998 37.8682V37.8701ZM43.7315 30.5372C43.9069 30.4877 44.0926 30.4877 44.2679 30.5372L54.6599 33.4971L44 36.4816L33.3401 33.4972L43.7315 30.5372ZM30.1966 36.6577L31.7331 34.0857L43.233 37.3062L41.304 40.5216C40.9865 41.0492 40.3562 41.3001 39.763 41.1351L31.0001 38.6796C30.2726 38.4756 29.8483 37.7205 30.0524 36.993C30.0854 36.8753 30.1335 36.7625 30.1966 36.6577Z" fill="#C4320A" stroke="#C4320A" stroke-width="0.7"/>
<path d="M49.375 56.2674H40.5361C39.8672 56.2674 39.5327 56.2674 39.2772 56.1716C39.0524 56.0874 38.8697 55.9529 38.7552 55.7875C38.625 55.5994 38.625 55.3533 38.625 54.8609V48.3557M41.0139 51.6523V54.7291M43.7014 49.4546V54.7291M46.3889 51.6523V54.7291M49.0764 49.4546V54.7291" stroke="#C4320A" stroke-width="1.5" stroke-linecap="round" stroke-linejoin="round"/>
</svg>
