<svg xmlns="http://www.w3.org/2000/svg" width="16" height="16" fill="none"><path fill="#37352F" d="M15.404 6.572a.65.65 0 0 0-.015-.003l-1.65-.324a5.965 5.965 0 0 0-.44-1.061l.938-1.397a.766.766 0 0 0-.1-.964l-.96-.96a.766.766 0 0 0-.964-.1l-1.397.938a5.965 5.965 0 0 0-1.06-.44L9.43.611A.766.766 0 0 0 8.678 0H7.322a.766.766 0 0 0-.753.611l-.324 1.65c-.367.112-.722.26-1.061.44l-1.397-.938a.766.766 0 0 0-.964.1l-.96.96a.766.766 0 0 0-.1.964l.938 1.397c-.18.339-.328.694-.44 1.06l-1.65.325A.766.766 0 0 0 0 7.322v1.356a.766.766 0 0 0 .611.753l1.65.324c.112.367.26.722.44 1.061l-.938 1.397a.766.766 0 0 0 .1.964l.96.96a.766.766 0 0 0 .964.1l1.397-.938c.339.18.694.328 1.06.44l.325 1.65a.766.766 0 0 0 .753.611h1.356a.766.766 0 0 0 .753-.611l.324-1.65c.367-.112.722-.26 1.061-.44l1.397.938a.766.766 0 0 0 .964-.1l.96-.96a.766.766 0 0 0 .1-.964l-.938-1.397c.18-.339.328-.694.44-1.06l1.65-.325A.766.766 0 0 0 16 8.678V7.322a.766.766 0 0 0-.596-.75Zm-.327 1.98-1.795.352a.462.462 0 0 0-.359.34 5.04 5.04 0 0 1-.562 1.357.462.462 0 0 0 .013.494l1.02 1.52-.78.78-1.52-1.021a.462.462 0 0 0-.493-.013c-.424.253-.88.442-1.357.562a.462.462 0 0 0-.34.359l-.352 1.795H7.448l-.352-1.795a.462.462 0 0 0-.34-.359 5.04 5.04 0 0 1-1.357-.562.462.462 0 0 0-.494.013l-1.52 1.02-.78-.78 1.021-1.52c.1-.147.105-.34.013-.493a5.044 5.044 0 0 1-.562-1.357.462.462 0 0 0-.359-.34L.923 8.552V7.448l1.795-.352a.462.462 0 0 0 .359-.34c.12-.477.31-.933.562-1.357a.462.462 0 0 0-.013-.494l-1.02-1.52.78-.78 1.52 1.021c.147.1.34.105.493.013.424-.253.88-.442 1.357-.562a.462.462 0 0 0 .34-.359L7.448.923h1.104l.352 1.795a.462.462 0 0 0 .34.359c.477.12.933.31 1.357.562a.461.461 0 0 0 .494-.013l1.52-1.02.78.78-1.021 1.52a.462.462 0 0 0-.013.493c.253.424.442.88.562 1.357a.462.462 0 0 0 .359.34l1.795.352v1.104Z"/><path fill="#37352F" d="M7.538 6.923h1.693a.462.462 0 1 0 0-.923h-.77v-.77a.461.461 0 0 0-.923 0V6c-.678 0-1.23.552-1.23 1.23 0 .68.552 1.232 1.23 1.232h.924a.308.308 0 0 1 0 .615H6.769a.462.462 0 1 0 0 .923h.77v.77a.461.461 0 0 0 .923 0V10c.678 0 1.23-.552 1.23-1.23 0-.68-.552-1.232-1.23-1.232h-.924a.308.308 0 0 1 0-.615Z"/></svg>