<svg viewBox="0 0 89 89" fill="none" xmlns="http://www.w3.org/2000/svg">
<path d="M0 28C0 12.536 12.536 0 28 0H61C76.464 0 89 12.536 89 28V61C89 76.464 76.464 89 61 89H28C12.536 89 0 76.464 0 61V28Z" fill="#FAFAFA"/>
<path fill-rule="evenodd" clip-rule="evenodd" d="M30.7694 44.25C31.1594 36.7286 37.3815 30.75 45 30.75C48.5378 30.75 51.7745 32.0392 54.2659 34.1735L51.7812 36.6582C49.9313 35.1526 47.5711 34.25 45 34.25C39.3151 34.25 34.6608 38.6628 34.2758 44.25H30.7694ZM52.8766 37.6841C53.5513 38.4102 54.1268 39.2296 54.5815 40.1209L57.7128 38.5553C57.0884 37.3261 56.2911 36.1997 55.3528 35.208L52.8766 37.6841ZM55.1688 41.5043L58.321 39.9282C58.8367 41.282 59.152 42.7347 59.2306 44.25H55.7242C55.6584 43.2951 55.4679 42.3744 55.1688 41.5043ZM54.25 45C54.25 39.8914 50.1086 35.75 45 35.75C39.8914 35.75 35.75 39.8914 35.75 45C35.75 50.1086 39.8914 54.25 45 54.25C47.2031 54.25 49.2263 53.4798 50.8151 52.194C50.8514 52.1126 50.9029 52.0364 50.9697 51.9697C51.0631 51.8762 51.1751 51.8126 51.2938 51.7788C53.1122 50.0896 54.25 47.6777 54.25 45ZM55.7242 45.75H59.2306C59.0428 49.3713 57.5031 52.6349 55.1066 55.0459L52.6317 52.571C54.3947 50.794 55.5413 48.4045 55.7242 45.75ZM60.75 45C60.75 53.6985 53.6985 60.75 45 60.75C36.3015 60.75 29.25 53.6985 29.25 45C29.25 36.3015 36.3015 29.25 45 29.25C53.6985 29.25 60.75 36.3015 60.75 45ZM51.5013 53.562L53.9934 56.0541C51.7216 57.9047 48.8684 59.0689 45.75 59.2306V55.7242C47.9033 55.5758 49.8823 54.7933 51.5013 53.562ZM44.25 55.7242V59.2306C36.9769 58.8535 31.1465 53.0231 30.7694 45.75H34.2758C34.6437 51.0894 38.9106 55.3563 44.25 55.7242ZM44.25 42C44.25 41.5858 44.5858 41.25 45 41.25H49C49.4142 41.25 49.75 41.5858 49.75 42C49.75 42.4142 49.4142 42.75 49 42.75H45C44.5858 42.75 44.25 42.4142 44.25 42ZM42 41.25C41.5858 41.25 41.25 41.5858 41.25 42C41.25 42.4142 41.5858 42.75 42 42.75H42.0001C42.4143 42.75 42.7501 42.4142 42.7501 42C42.7501 41.5858 42.4143 41.25 42.0001 41.25H42ZM44.25 45C44.25 44.5858 44.5858 44.25 45 44.25H49C49.4142 44.25 49.75 44.5858 49.75 45C49.75 45.4142 49.4142 45.75 49 45.75H45C44.5858 45.75 44.25 45.4142 44.25 45ZM42 44.25C41.5858 44.25 41.25 44.5858 41.25 45C41.25 45.4142 41.5858 45.75 42 45.75H42.0001C42.4143 45.75 42.7501 45.4142 42.7501 45C42.7501 44.5858 42.4143 44.25 42.0001 44.25H42ZM44.25 48C44.25 47.5858 44.5858 47.25 45 47.25H49C49.4142 47.25 49.75 47.5858 49.75 48C49.75 48.4142 49.4142 48.75 49 48.75H45C44.5858 48.75 44.25 48.4142 44.25 48ZM42 47.25C41.5858 47.25 41.25 47.5858 41.25 48C41.25 48.4142 41.5858 48.75 42 48.75H42.0001C42.4143 48.75 42.7501 48.4142 42.7501 48C42.7501 47.5858 42.4143 47.25 42.0001 47.25H42Z" fill="#414651"/>
</svg>
