<svg width="50" height="51" viewBox="0 0 50 51" fill="none" xmlns="http://www.w3.org/2000/svg">
<path d="M39.2101 13.9764C40.1417 14.5827 41.2692 14.8274 42.3739 14.6631C43.4787 14.4987 44.482 13.937 45.1891 13.087C45.8962 12.2369 46.2568 11.159 46.2008 10.0625C46.1449 8.96598 45.6764 7.92896 44.8863 7.15263C44.0962 6.37629 43.0408 5.91599 41.9249 5.86103C40.8089 5.80606 39.712 6.16035 38.8468 6.85515C37.9817 7.54996 37.41 8.53575 37.2428 9.62128C37.0755 10.7068 37.3246 11.8147 37.9416 12.73L30.2577 20.2774C30.2117 20.3232 30.1751 20.3772 30.1498 20.4366C29.3835 19.7194 28.4808 19.1578 27.4933 18.7839C26.5058 18.41 25.453 18.2311 24.3951 18.2574C23.3372 18.2838 22.295 18.5149 21.328 18.9375C20.3611 19.3601 19.4885 19.9659 18.7602 20.7203C18.6981 20.7919 18.6334 20.8529 18.5713 20.9245L12.7254 17.6441C12.8384 17.2685 12.8984 16.8794 12.9035 16.4878C12.9165 15.3021 12.4504 14.1597 11.6075 13.3112C10.7647 12.4626 9.61372 11.977 8.40706 11.9609C7.19989 11.9482 6.03688 12.4065 5.17317 13.2353C4.30947 14.064 3.81561 15.1956 3.79996 16.3817C3.79219 17.3127 4.07983 18.2229 4.6229 18.9858C5.16596 19.7486 5.93745 20.3263 6.83011 20.6384C7.72276 20.9505 8.6922 20.9816 9.60364 20.7272C10.5151 20.4729 11.3232 19.9458 11.9157 19.2193L17.5187 22.3645C16.6888 23.834 16.3566 25.5248 16.5701 27.1922C16.7836 28.8595 17.5318 30.4168 18.7062 31.6384L13.0385 37.1889C12.5839 36.9421 12.0734 36.8117 11.554 36.8097C10.735 36.8333 9.95756 37.1695 9.38671 37.7471C8.81586 38.3247 8.49655 39.0981 8.49655 39.9032C8.49655 40.7083 8.81586 41.4818 9.38671 42.0593C9.95756 42.6369 10.735 42.9732 11.554 42.9967C13.2895 42.9967 14.7037 41.6071 14.7037 39.9019C14.7037 39.3901 14.5688 38.8862 14.3151 38.4433L20.0638 32.7867C21.4876 33.7353 23.1827 34.2117 24.9016 34.1464C26.6206 34.081 28.2732 33.4773 29.6181 32.4234L34.3871 37.8944C33.2526 39.0957 32.6502 40.6906 32.7124 42.3284C32.7432 43.1393 32.9363 43.9363 33.2806 44.6739C33.6249 45.4115 34.1137 46.0752 34.7191 46.6272C35.3245 47.1792 36.0345 47.6087 36.8088 47.891C37.5831 48.1733 38.4064 48.3031 39.2317 48.2728C40.8984 48.2116 42.4722 47.5024 43.6067 46.301C44.6276 45.211 45.216 43.7968 45.2646 42.3162C45.3133 40.8356 44.819 39.3871 43.8717 38.2347C42.9245 37.0822 41.5874 36.3024 40.1041 36.0375C38.6208 35.7725 37.09 36.04 35.7906 36.7912L30.8947 31.1876C31.9896 29.8569 32.6166 28.2137 32.6818 26.5037C32.747 24.7937 32.2469 23.109 31.2563 21.7015C31.3548 21.6559 31.4458 21.596 31.5262 21.5239L39.2101 13.9764ZM41.6932 7.63824C42.409 7.63824 43.0955 7.91765 43.6016 8.41498C44.1078 8.91232 44.3921 9.58685 44.3921 10.2902C44.3921 10.9935 44.1078 11.6681 43.6016 12.1654C43.0955 12.6627 42.409 12.9421 41.6932 12.9421C40.1979 12.9421 38.9942 11.7567 38.9942 10.2902C38.9942 8.82367 40.1979 7.63824 41.6932 7.63824ZM8.40436 19.1292C6.90914 19.1292 5.70541 17.9464 5.70541 16.4772C5.70541 15.0107 6.90914 13.8252 8.40436 13.8252C9.12017 13.8252 9.80665 14.1046 10.3128 14.602C10.819 15.0993 11.1033 15.7739 11.1033 16.4772C11.1033 17.1805 10.819 17.8551 10.3128 18.3524C9.80665 18.8498 9.12017 19.1292 8.40436 19.1292ZM11.5513 41.2279C11.3692 41.236 11.1873 41.2079 11.0166 41.1451C10.8459 41.0823 10.6899 40.9862 10.558 40.8625C10.4261 40.7389 10.3211 40.5902 10.2493 40.4256C10.1775 40.2609 10.1404 40.0837 10.1402 39.9046C10.14 39.7255 10.1768 39.5482 10.2482 39.3834C10.3197 39.2186 10.4244 39.0698 10.556 38.9459C10.6877 38.8219 10.8435 38.7255 11.0141 38.6624C11.1847 38.5992 11.3665 38.5707 11.5486 38.5786C11.8958 38.5935 12.2237 38.7394 12.464 38.9859C12.7044 39.2324 12.8388 39.5605 12.8391 39.9019C12.8395 40.2434 12.7058 40.5717 12.4659 40.8187C12.226 41.0657 11.8984 41.2123 11.5513 41.2279ZM38.9888 37.6928C41.4719 37.6928 43.488 39.6712 43.488 42.111C43.4851 43.2826 43.0102 44.4054 42.167 45.2339C41.3239 46.0623 40.1812 46.529 38.9888 46.5318C37.815 46.5035 36.6989 46.0255 35.8789 45.1998C35.0589 44.374 34.5999 43.266 34.5999 42.1123C34.5999 40.9586 35.0589 39.8506 35.8789 39.0248C36.6989 38.1991 37.815 37.7211 38.9888 37.6928ZM24.5953 32.3889C23.7683 32.3896 22.9491 32.2301 22.1849 31.9194C21.4206 31.6087 20.7262 31.153 20.1414 30.5783C19.5565 30.0037 19.0927 29.3214 18.7766 28.5704C18.4604 27.8194 18.298 27.0146 18.2987 26.2019C18.298 25.3892 18.4604 24.5844 18.7766 23.8334C19.0927 23.0825 19.5565 22.4001 20.1414 21.8255C20.7262 21.2508 21.4206 20.7951 22.1849 20.4844C22.9491 20.1738 23.7683 20.0142 24.5953 20.0149C25.4223 20.0146 26.2413 20.1743 27.0054 20.4852C27.7695 20.796 28.4638 21.2517 29.0485 21.8263C29.6333 22.4008 30.0971 23.083 30.4134 23.8338C30.7297 24.5846 30.8923 25.3893 30.892 26.2019C30.887 27.8413 30.222 29.4121 29.0422 30.5714C27.8625 31.7306 26.2638 32.384 24.5953 32.3889Z" fill="#292929" stroke="#292929" stroke-width="0.1"/>
<path fill-rule="evenodd" clip-rule="evenodd" d="M37.375 7.46424C37.9282 6.64491 38.7111 6.00049 39.629 5.60884C40.5469 5.2172 41.5605 5.09507 42.5475 5.25721C43.5345 5.41935 44.4526 5.85882 45.1909 6.52255C45.9293 7.18627 46.4562 8.04586 46.7081 8.99746C46.96 9.94907 46.9261 10.952 46.6105 11.8851C46.2949 12.8182 45.7111 13.6415 44.9296 14.2557C44.1481 14.8698 43.2024 15.2485 42.2066 15.3459C41.2109 15.4434 40.2077 15.2555 39.3182 14.8048L32.1525 21.8458C33.0072 23.2703 33.4249 24.9071 33.3555 26.5593C33.2861 28.2116 32.7325 29.809 31.7612 31.1594L35.9473 35.9515C37.2086 35.3445 38.6276 35.1273 40.0171 35.3285C41.4066 35.5297 42.7015 36.1399 43.731 37.0786C44.722 37.9816 45.4241 39.1484 45.7518 40.4367C46.0794 41.725 46.0184 43.0792 45.5762 44.3341C45.134 45.589 44.3298 46.6903 43.2615 47.5037C42.1932 48.3171 40.9071 48.8075 39.5601 48.915C38.213 49.0226 36.8633 48.7426 35.6754 48.1093C34.4875 47.476 33.5128 46.5167 32.8703 45.3484C32.2277 44.1801 31.9451 42.8534 32.0568 41.53C32.1685 40.2066 32.6697 38.9437 33.4993 37.8954L29.513 33.3208C28.1441 34.2378 26.5382 34.7535 24.8825 34.808C23.2267 34.8625 21.5893 34.4534 20.1611 33.6284L15.1276 38.5822C15.2895 38.9986 15.3786 39.4468 15.3786 39.9003C15.3333 40.8666 14.9108 41.7787 14.1988 42.4468C13.4867 43.115 12.5401 43.4878 11.5555 43.4878C10.571 43.4878 9.62432 43.115 8.91231 42.4468C8.20031 41.7787 7.77775 40.8666 7.73248 39.9003C7.73248 37.8291 9.44631 36.1451 11.5542 36.1451C12.013 36.1451 12.4691 36.23 12.8956 36.3917L17.7807 31.605C16.7559 30.3625 16.1049 28.8634 15.9013 27.2767C15.6977 25.69 15.9494 24.079 16.6282 22.6255L12.0535 20.061C11.0657 21.0343 9.7054 21.5885 8.29116 21.5726C6.90412 21.5552 5.58089 20.9973 4.61225 20.0216C3.6436 19.046 3.10881 17.7324 3.12537 16.3695C3.14316 15.0075 3.71016 13.7082 4.70193 12.7565C5.69369 11.8049 7.02919 11.2788 8.41531 11.2937C9.80093 11.3118 11.1226 11.8693 12.0906 12.8437C13.0585 13.8181 13.5935 15.13 13.5784 16.4915V16.4968C13.5732 16.7698 13.5461 17.0421 13.4974 17.3109L18.4446 20.0875C19.9707 18.596 22.0041 17.7113 24.1538 17.6036C26.3036 17.4959 28.4179 18.1728 30.0905 19.5041L37.0943 12.6223C36.6704 11.8154 36.4732 10.9121 36.5231 10.0054C36.5729 9.09877 36.8679 8.22156 37.3777 7.46424H37.375ZM31.0676 21.0422L39.1239 13.1262L39.5827 13.4258C40.3749 13.9412 41.3335 14.1491 42.2729 14.0093C43.2122 13.8694 44.0651 13.3917 44.6663 12.6689C45.2674 11.9461 45.5739 11.0296 45.5263 10.0973C45.4787 9.16498 45.0804 8.28327 44.4086 7.62319C43.7369 6.96312 42.8395 6.57173 41.8907 6.52495C40.9418 6.47818 40.0092 6.77934 39.2735 7.37003C38.5379 7.96072 38.0517 8.79883 37.9094 9.72178C37.7671 10.6447 37.9787 11.5867 38.5032 12.365L38.8081 12.8159L30.7626 20.724L30.5062 21.3101L30.9785 21.0979C31.0106 21.0833 31.0405 21.0646 31.0676 21.0422ZM30.2714 21.4665L29.6857 20.9202C28.2697 19.5954 26.3762 18.8774 24.4215 18.9241C22.4668 18.9709 20.6111 19.7785 19.2624 21.1695L19.1652 21.273L19.1625 21.2756C19.1351 21.3035 19.1081 21.3318 19.0815 21.3605L18.7199 21.7689L11.9239 17.958L12.0778 17.4515C12.1737 17.1337 12.2245 16.8044 12.2289 16.4729C12.2383 15.464 11.8406 14.4925 11.1229 13.7708C10.4052 13.0492 9.42588 12.6363 8.39911 12.6223C7.3709 12.6117 6.38037 13.0021 5.64472 13.7081C4.90908 14.414 4.48837 15.3778 4.47485 16.3881C4.46994 17.1798 4.7158 17.9535 5.17836 18.6019C5.64092 19.2502 6.29728 19.7412 7.05647 20.0066C7.81566 20.2721 8.64008 20.2989 9.4155 20.0834C10.1909 19.868 10.8789 19.4208 11.3841 18.804L11.7458 18.3585L18.4311 22.111L18.1072 22.6838C17.3476 24.0304 17.0439 25.5797 17.2399 27.1072C17.4359 28.6348 18.1216 30.0614 19.1976 31.1806L19.6483 31.65L13.1574 38.0068L12.7147 37.7681C12.3596 37.5741 11.9605 37.471 11.5542 37.4684C10.9178 37.4976 10.3173 37.7666 9.87744 38.2195C9.43758 38.6723 9.19216 39.2743 9.19216 39.9003C9.19216 40.5263 9.43758 41.1282 9.87744 41.5811C10.3173 42.0339 10.9178 42.3029 11.5542 42.3321C12.2104 42.3314 12.8395 42.075 13.3034 41.6191C13.7674 41.1632 14.0284 40.545 14.0291 39.9003C14.0286 39.5028 13.9245 39.112 13.7268 38.7652L13.4785 38.3277L19.983 31.9285L20.4418 32.2361C21.7463 33.1057 23.2997 33.5426 24.8749 33.4829C26.4501 33.4233 27.9646 32.8703 29.1972 31.9046L29.7073 31.5068L35.2914 37.9113L34.8812 38.3462C34.3798 38.8773 33.9899 39.5002 33.7335 40.1794C33.4772 40.8586 33.3595 41.5807 33.3872 42.3046C33.4149 43.0285 33.5874 43.7399 33.8949 44.3983C34.2024 45.0566 34.6389 45.649 35.1794 46.1416C35.7199 46.6342 36.3539 47.0174 37.0451 47.2693C37.7363 47.5212 38.4713 47.6368 39.208 47.6096C39.9446 47.5824 40.6687 47.4129 41.3387 47.1107C42.0087 46.8086 42.6116 46.3797 43.113 45.8486C44.0249 44.8754 44.5505 43.6127 44.594 42.2905C44.6375 40.9683 44.196 39.6748 43.35 38.6458C42.5039 37.6168 41.3097 36.9208 39.985 36.6847C38.6603 36.4486 37.2934 36.6882 36.1335 37.3597L35.6477 37.6435L30.0177 31.1992L30.3712 30.7669C31.3738 29.5476 31.9477 28.042 32.0071 26.4755C32.0664 24.909 31.608 23.3657 30.7005 22.0765L30.2714 21.4665ZM41.6933 8.30226C41.4274 8.30191 41.164 8.35312 40.9183 8.45295C40.6725 8.55278 40.4492 8.69927 40.2612 8.88403C40.0732 9.0688 39.9241 9.2882 39.8225 9.52967C39.7209 9.77114 39.6688 10.0299 39.6691 10.2912C39.6691 10.8187 39.8824 11.3246 40.262 11.6976C40.6416 12.0706 41.1565 12.2802 41.6933 12.2802C42.2302 12.2802 42.745 12.0706 43.1246 11.6976C43.5043 11.3246 43.7175 10.8187 43.7175 10.2912C43.7179 10.0299 43.6658 9.77114 43.5642 9.52967C43.4626 9.2882 43.3135 9.0688 43.1254 8.88403C42.9374 8.69927 42.7141 8.55278 42.4684 8.45295C42.2226 8.35312 41.9592 8.30191 41.6933 8.30226ZM38.3196 10.2912C38.3196 9.41205 38.6751 8.56888 39.3078 7.94721C39.9404 7.32554 40.7986 6.97628 41.6933 6.97628C42.5881 6.97628 43.4462 7.32554 44.0789 7.94721C44.7116 8.56888 45.067 9.41205 45.067 10.2912C45.067 11.1704 44.7116 12.0136 44.0789 12.6352C43.4462 13.2569 42.5881 13.6062 41.6933 13.6062C40.7986 13.6062 39.9404 13.2569 39.3078 12.6352C38.6751 12.0136 38.3196 11.1704 38.3196 10.2912ZM8.40721 14.4866C8.14129 14.4863 7.87791 14.5375 7.63216 14.6373C7.38641 14.7371 7.16312 14.8836 6.97509 15.0684C6.78705 15.2531 6.63796 15.4725 6.53636 15.714C6.43476 15.9555 6.38265 16.2143 6.383 16.4756C6.383 16.869 6.50172 17.2535 6.72414 17.5806C6.94657 17.9077 7.2627 18.1626 7.63258 18.3131C8.00246 18.4637 8.40946 18.5031 8.80212 18.4263C9.19477 18.3496 9.55545 18.1601 9.83854 17.882C10.1216 17.6038 10.3144 17.2494 10.3925 16.8636C10.4706 16.4778 10.4305 16.0779 10.2773 15.7144C10.1241 15.351 9.86468 15.0404 9.5318 14.8218C9.19892 14.6033 8.80756 14.4866 8.40721 14.4866ZM5.03353 16.4756C5.03353 14.6431 6.53954 13.1606 8.40721 13.1606C9.07446 13.1606 9.72673 13.3551 10.2815 13.7193C10.8363 14.0836 11.2687 14.6013 11.5241 15.207C11.7794 15.8127 11.8462 16.4793 11.7161 17.1223C11.5859 17.7653 11.2646 18.356 10.7928 18.8196C10.3209 19.2832 9.71981 19.5989 9.06538 19.7268C8.41095 19.8547 7.73262 19.7891 7.11616 19.5382C6.4997 19.2873 5.9728 18.8624 5.6021 18.3173C5.23139 17.7721 5.03353 17.1312 5.03353 16.4756ZM24.6009 20.6736C23.862 20.6726 23.1301 20.8148 22.4472 21.0922C21.7643 21.3695 21.1438 21.7766 20.6213 22.29C20.0988 22.8034 19.6845 23.4131 19.4023 24.0841C19.12 24.7551 18.9752 25.4742 18.9763 26.2003C18.9763 29.2527 21.489 31.7243 24.5982 31.7243C26.0881 31.7194 27.5156 31.1355 28.5689 30.1C29.6222 29.0645 30.2158 27.6616 30.2201 26.1976C30.2204 25.4721 30.0753 24.7536 29.7929 24.0833C29.5105 23.4129 29.0964 22.8038 28.5743 22.2908C28.0522 21.7778 27.4323 21.3709 26.75 21.0934C26.0678 20.8159 25.3393 20.6733 24.6009 20.6736ZM17.6241 26.2003C17.6234 25.3005 17.8032 24.4095 18.1533 23.5781C18.5034 22.7467 19.0169 21.9913 19.6644 21.3551C20.3119 20.7188 21.0807 20.2143 21.9268 19.8703C22.7729 19.5263 23.6798 19.3496 24.5955 19.3503C25.5111 19.3499 26.4178 19.5269 27.2637 19.871C28.1097 20.2151 28.8784 20.7197 29.5258 21.3558C30.1732 21.992 30.6867 22.7473 31.0369 23.5785C31.3871 24.4097 31.5672 25.3006 31.5669 26.2003C31.5669 27.0998 31.3865 27.9906 31.0362 28.8217C30.6859 29.6527 30.1724 30.4079 29.525 31.044C28.8776 31.68 28.1091 32.1846 27.2633 32.5289C26.4175 32.8731 25.511 33.0503 24.5955 33.0503C23.68 33.0503 22.7735 32.8731 21.9277 32.5289C21.0819 32.1846 20.3133 31.68 19.666 31.044C19.0186 30.4079 18.5051 29.6527 18.1548 28.8217C17.8044 27.9906 17.6241 27.0998 17.6241 26.2003ZM38.989 38.3542C37.9926 38.3802 37.046 38.7874 36.3506 39.489C35.6553 40.1907 35.2662 41.1313 35.2662 42.1107C35.2662 43.09 35.6553 44.0307 36.3506 44.7323C37.046 45.434 37.9926 45.8411 38.989 45.8672C40.0024 45.8644 40.9735 45.4675 41.6901 44.7634C42.4067 44.0593 42.8105 43.1051 42.8134 42.1093C42.8134 40.0355 41.0995 38.3542 38.989 38.3542ZM33.8178 42.1093C33.8487 40.7815 34.4072 39.5182 35.3739 38.5898C36.3405 37.6615 37.6386 37.1417 38.9903 37.1417C40.3421 37.1417 41.6401 37.6615 42.6068 38.5898C43.5735 39.5182 44.132 40.7815 44.1628 42.1093C44.1593 43.4561 43.6134 44.7468 42.6445 45.6993C41.6755 46.6519 40.3623 47.1889 38.9917 47.1931C37.6197 47.1924 36.3041 46.6566 35.334 45.7034C34.3638 44.7501 33.8185 43.4574 33.8178 42.1093ZM11.5515 39.2373C11.3725 39.2373 11.2009 39.3071 11.0744 39.4315C10.9478 39.5558 10.8767 39.7244 10.8767 39.9003C10.8767 40.0761 10.9478 40.2447 11.0744 40.3691C11.2009 40.4934 11.3725 40.5633 11.5515 40.5633C11.7304 40.5633 11.9021 40.4934 12.0286 40.3691C12.1551 40.2447 12.2262 40.0761 12.2262 39.9003C12.2262 39.7244 12.1551 39.5558 12.0286 39.4315C11.9021 39.3071 11.7304 39.2373 11.5515 39.2373ZM9.52727 39.9003C9.51716 39.6331 9.56195 39.3668 9.65897 39.117C9.75599 38.8673 9.90324 38.6393 10.0919 38.4468C10.2806 38.2542 10.5069 38.101 10.7572 37.9963C11.0075 37.8916 11.2767 37.8376 11.5487 37.8374C11.8208 37.8372 12.0901 37.8909 12.3405 37.9953C12.591 38.0997 12.8174 38.2526 13.0064 38.4449C13.1953 38.6372 13.3429 38.8649 13.4402 39.1146C13.5376 39.3642 13.5827 39.6305 13.573 39.8976C13.5542 40.4122 13.333 40.8996 12.956 41.2573C12.579 41.6149 12.0755 41.815 11.5514 41.8153C11.0274 41.8156 10.5236 41.6163 10.1461 41.2591C9.76858 40.9019 9.54675 40.4148 9.52727 39.9003Z" fill="#292929" stroke="#292929" stroke-width="0.1"/>
</svg>
