
<svg viewBox="0 0 89 89" fill="none" xmlns="http://www.w3.org/2000/svg">
<path d="M0 28C0 12.536 12.536 0 28 0H61C76.464 0 89 12.536 89 28V61C89 76.464 76.464 89 61 89H28C12.536 89 0 76.464 0 61V28Z" fill="#FFF6ED"/>
<path fill-rule="evenodd" clip-rule="evenodd" d="M31.447 44.2857C31.8185 37.1225 37.7443 31.4286 45 31.4286C48.3694 31.4286 51.4519 32.6564 53.8247 34.6891L51.4583 37.0555C49.6965 35.6215 47.4486 34.7619 45 34.7619C39.5858 34.7619 35.1531 38.9646 34.7864 44.2857H31.447ZM52.5016 38.0325C53.1441 38.724 53.6922 39.5044 54.1253 40.3532L57.1074 38.8622C56.5128 37.6916 55.7534 36.6188 54.8598 35.6743L52.5016 38.0325ZM54.6846 41.6708L57.6867 40.1697C58.1778 41.4591 58.4781 42.8426 58.553 44.2857H55.2136C55.1509 43.3763 54.9694 42.4995 54.6846 41.6708ZM53.8095 45C53.8095 40.1346 49.8654 36.1905 45 36.1905C40.1349 36.1905 36.1909 40.1342 36.1905 44.9992L36.1905 45C36.1905 49.8654 40.1346 53.8095 45 53.8095C47.0982 53.8095 49.0251 53.076 50.5381 51.8514C50.5727 51.7739 50.6218 51.7014 50.6854 51.6378C50.7744 51.5488 50.881 51.4882 50.9941 51.456C52.7259 49.8473 53.8095 47.5502 53.8095 45ZM55.2136 45.7143H58.553C58.3741 49.1631 56.9077 52.2714 54.6253 54.5675L52.2683 52.2105C53.9473 50.5181 55.0393 48.2424 55.2136 45.7143ZM60 45.0023C59.9988 53.2847 53.2847 59.9988 45.0023 60H45H44.9977C36.7145 59.9988 30 53.2835 30 45C30 36.7157 36.7157 30 45 30C53.2835 30 59.9988 36.7145 60 44.9977V45V45.0023ZM51.1917 53.1543L53.5652 55.5277C51.4015 57.2902 48.6842 58.399 45.7143 58.553V55.2136C47.7651 55.0722 49.6498 54.3269 51.1917 53.1543ZM44.2857 55.2136V58.553C37.359 58.1938 31.8062 52.641 31.447 45.7143H34.7864C35.1369 50.7994 39.2006 54.8631 44.2857 55.2136ZM44.2857 42.1429C44.2857 41.7484 44.6055 41.4286 45 41.4286H48.8095C49.204 41.4286 49.5238 41.7484 49.5238 42.1429C49.5238 42.5373 49.204 42.8571 48.8095 42.8571H45C44.6055 42.8571 44.2857 42.5373 44.2857 42.1429ZM42.1429 41.4286C41.7484 41.4286 41.4286 41.7484 41.4286 42.1429C41.4286 42.5373 41.7484 42.8571 42.1429 42.8571H42.143C42.5374 42.8571 42.8572 42.5373 42.8572 42.1429C42.8572 41.7484 42.5374 41.4286 42.143 41.4286H42.1429ZM44.2857 45C44.2857 44.6055 44.6055 44.2857 45 44.2857H48.8095C49.204 44.2857 49.5238 44.6055 49.5238 45C49.5238 45.3945 49.204 45.7143 48.8095 45.7143H45C44.6055 45.7143 44.2857 45.3945 44.2857 45ZM42.1429 44.2857C41.7484 44.2857 41.4286 44.6055 41.4286 45C41.4286 45.3945 41.7484 45.7143 42.1429 45.7143H42.143C42.5374 45.7143 42.8572 45.3945 42.8572 45C42.8572 44.6055 42.5374 44.2857 42.143 44.2857H42.1429ZM44.2857 47.8571C44.2857 47.4627 44.6055 47.1429 45 47.1429H48.8095C49.204 47.1429 49.5238 47.4627 49.5238 47.8571C49.5238 48.2516 49.204 48.5714 48.8095 48.5714H45C44.6055 48.5714 44.2857 48.2516 44.2857 47.8571ZM42.1429 47.1429C41.7484 47.1429 41.4286 47.4627 41.4286 47.8571C41.4286 48.2516 41.7484 48.5714 42.1429 48.5714H42.143C42.5374 48.5714 42.8572 48.2516 42.8572 47.8571C42.8572 47.4627 42.5374 47.1429 42.143 47.1429H42.1429Z" fill="#C4320A"/>
</svg>
