<svg width="89" height="89" viewBox="0 0 89 89" fill="none" xmlns="http://www.w3.org/2000/svg">
<path d="M0 28C0 12.536 12.536 0 28 0H61C76.464 0 89 12.536 89 28V61C89 76.464 76.464 89 61 89H28C12.536 89 0 76.464 0 61V28Z" fill="#EFF8FF"/>
<path d="M35.8098 33.8903C34.0826 33.8903 32.6774 35.2531 32.6774 36.9281C32.6774 38.6032 34.0826 39.966 35.8098 39.966C37.5371 39.966 38.9423 38.6032 38.9423 36.9281C38.9423 35.2531 37.5371 33.8903 35.8098 33.8903ZM35.8098 38.9338C34.6694 38.9338 33.7418 38.0341 33.7418 36.9282C33.7418 35.8223 34.6694 34.9226 35.8098 34.9226C36.9502 34.9226 37.8779 35.8223 37.8779 36.9282C37.8779 38.0341 36.9502 38.9338 35.8098 38.9338ZM37.2506 35.9508C37.4482 36.1618 37.4319 36.4883 37.2141 36.6798L35.7812 37.9409C35.6796 38.0304 35.5515 38.0748 35.4236 38.0748C35.2871 38.0748 35.1509 38.0242 35.0473 37.9237L34.387 37.2834C34.1791 37.0818 34.1791 36.755 34.3869 36.5534C34.5948 36.3519 34.9317 36.3518 35.1395 36.5534L35.4413 36.8461L36.4988 35.9154C36.7164 35.7239 37.053 35.7397 37.2506 35.9508ZM35.8098 42.8286C34.0826 42.8286 32.6774 44.1915 32.6774 45.8666C32.6774 47.5417 34.0826 48.9045 35.8098 48.9045C37.5371 48.9045 38.9423 47.5417 38.9423 45.8666C38.9423 44.1915 37.5371 42.8286 35.8098 42.8286ZM35.8098 47.8722C34.6694 47.8722 33.7418 46.9725 33.7418 45.8666C33.7418 44.7606 34.6694 43.8609 35.8098 43.8609C36.9502 43.8609 37.8779 44.7606 37.8779 45.8666C37.8779 46.9725 36.9502 47.8722 35.8098 47.8722ZM37.2506 44.8892C37.4482 45.1002 37.4319 45.4266 37.2141 45.6182L35.7812 46.8793C35.6796 46.9688 35.5515 47.0132 35.4236 47.0132C35.2871 47.0132 35.1509 46.9626 35.0473 46.8621L34.387 46.2218C34.1791 46.0203 34.1791 45.6935 34.3869 45.4919C34.5948 45.2903 34.9317 45.2904 35.1395 45.4919L35.4413 45.7845L36.4988 44.8538C36.7164 44.6623 37.053 44.6781 37.2506 44.8892ZM35.8098 51.767C34.0826 51.767 32.6774 53.1299 32.6774 54.8049C32.6774 56.4799 34.0826 57.8428 35.8098 57.8428C37.5371 57.8428 38.9423 56.4799 38.9423 54.8049C38.9423 53.1299 37.5371 51.767 35.8098 51.767ZM35.8098 56.8106C34.6694 56.8106 33.7418 55.9108 33.7418 54.805C33.7418 53.6991 34.6694 52.7994 35.8098 52.7994C36.9502 52.7994 37.8779 53.6991 37.8779 54.805C37.8779 55.9108 36.9502 56.8106 35.8098 56.8106ZM37.2506 53.8275C37.4482 54.0386 37.4319 54.365 37.2141 54.5566L35.7812 55.8177C35.6796 55.9072 35.5515 55.9516 35.4236 55.9516C35.2871 55.9516 35.1509 55.901 35.0473 55.8005L34.387 55.1601C34.1791 54.9586 34.1791 54.6318 34.3869 54.4302C34.5949 54.2286 34.9319 54.2287 35.1395 54.4302L35.4413 54.7228L36.4988 53.7921C36.7164 53.6007 37.053 53.6165 37.2506 53.8275ZM46.578 52.8575C46.578 53.1426 46.3397 53.3737 46.0458 53.3737H41.1503C40.8564 53.3737 40.6181 53.1426 40.6181 52.8575C40.6181 52.5725 40.8564 52.3414 41.1503 52.3414H46.0458C46.3396 52.3414 46.578 52.5725 46.578 52.8575ZM46.578 54.805C46.578 55.09 46.3397 55.3211 46.0458 55.3211H41.1503C40.8564 55.3211 40.6181 55.09 40.6181 54.805C40.6181 54.5199 40.8564 54.2888 41.1503 54.2888H46.0458C46.3396 54.2888 46.578 54.5199 46.578 54.805ZM46.578 56.7524C46.578 57.0374 46.3397 57.2685 46.0458 57.2685H41.1503C40.8564 57.2685 40.6181 57.0374 40.6181 56.7524C40.6181 56.4674 40.8564 56.2363 41.1503 56.2363H46.0458C46.3396 56.2363 46.578 56.4673 46.578 56.7524ZM40.6181 45.8665C40.6181 45.5815 40.8564 45.3504 41.1503 45.3504H45.0114C45.3053 45.3504 45.5436 45.5815 45.5436 45.8665C45.5436 46.1515 45.3053 46.3826 45.0114 46.3826H41.1503C40.8564 46.3826 40.6181 46.1516 40.6181 45.8665ZM40.6181 43.9192C40.6181 43.6341 40.8564 43.403 41.1503 43.403H46.0458C46.3397 43.403 46.578 43.6341 46.578 43.9192C46.578 44.2042 46.3397 44.4353 46.0458 44.4353H41.1503C40.8564 44.4353 40.6181 44.2042 40.6181 43.9192ZM40.6181 47.814C40.6181 47.529 40.8564 47.2979 41.1503 47.2979H45.0114C45.3053 47.2979 45.5436 47.529 45.5436 47.814C45.5436 48.099 45.3053 48.3301 45.0114 48.3301H41.1503C40.8564 48.3301 40.6181 48.099 40.6181 47.814ZM40.6181 38.8756C40.6181 38.5906 40.8564 38.3595 41.1503 38.3595H48.7841C49.078 38.3595 49.3163 38.5906 49.3163 38.8756C49.3163 39.1606 49.078 39.3917 48.7841 39.3917H41.1503C40.8564 39.3917 40.6181 39.1606 40.6181 38.8756ZM40.6181 34.9807C40.6181 34.6957 40.8564 34.4646 41.1503 34.4646H51.6086C51.9025 34.4646 52.1408 34.6957 52.1408 34.9807C52.1408 35.2657 51.9025 35.4968 51.6086 35.4968H41.1503C40.8564 35.4968 40.6181 35.2658 40.6181 34.9807ZM40.6181 36.9281C40.6181 36.6431 40.8564 36.412 41.1503 36.412H50.3405C50.6344 36.412 50.8727 36.6431 50.8727 36.9281C50.8727 37.2132 50.6344 37.4443 50.3405 37.4443H41.1503C40.8564 37.4443 40.6181 37.2132 40.6181 36.9281ZM61.4092 37.4709C61.7902 37.1015 62 36.6094 62 36.0851C62 35.5608 61.7902 35.0686 61.4092 34.6992L60.9881 34.2908C60.2002 33.5268 58.9182 33.5268 58.1301 34.2908L55.4892 36.8521V31.1351C55.4892 30.5092 54.9641 30 54.3187 30H31.1704C30.525 30 30 30.5092 30 31.1351V60.598C30 61.2239 30.525 61.7331 31.1704 61.7331H50.475C51.3896 61.913 52.4266 62 53.4359 62C56.2465 62 59.2717 61.3257 59.2717 59.8454V53.1929C59.2717 52.0754 57.5452 51.4176 55.4892 51.1626V43.2123L61.4092 37.4709ZM48.0867 46.0252L49.3095 47.2112L47.6391 47.6452L48.0867 46.0252ZM50.3377 46.7484L48.5639 45.0281L57.2776 36.5775L59.0514 38.2977L50.3377 46.7484ZM58.8827 35.0208C59.2558 34.659 59.8626 34.6592 60.2355 35.0208L60.6566 35.4291C60.8365 35.6036 60.9355 35.8365 60.9355 36.085C60.9355 36.3335 60.8365 36.5665 60.6565 36.741L59.804 37.5677L58.0302 35.8475L58.8827 35.0208ZM57.0246 60.5125C56.074 60.8061 54.7995 60.9677 53.4359 60.9677C52.0724 60.9677 50.798 60.8061 49.8472 60.5125C48.8701 60.2108 48.6646 59.8956 48.6646 59.846V57.8305C49.7941 58.4033 51.6578 58.6731 53.436 58.6731C55.2142 58.6731 57.0779 58.4033 58.2074 57.8305V59.8454C58.2073 59.895 58.0017 60.2106 57.0246 60.5125ZM57.0247 57.1856C56.0738 57.4792 54.7993 57.6408 53.4359 57.6408C52.0726 57.6408 50.7981 57.4792 49.8471 57.1856C48.8701 56.8841 48.6646 56.5693 48.6646 56.5199V54.5035C49.7941 55.0763 51.6578 55.3461 53.436 55.3461C55.2142 55.3461 57.0779 55.0763 58.2074 54.5035V56.5199C58.2073 56.5693 58.0017 56.8841 57.0247 57.1856ZM58.2073 53.1929C58.2073 53.2424 58.0017 53.5571 57.0247 53.8586C56.0738 54.1522 54.7993 54.3138 53.4359 54.3138C52.0726 54.3138 50.7981 54.1522 49.8471 53.8586C48.8701 53.5571 48.6646 53.2423 48.6646 53.1929C48.6646 53.1435 48.8701 52.8287 49.8471 52.5272C50.7981 52.2336 52.0726 52.072 53.4359 52.072C54.7993 52.072 56.0738 52.2336 57.0247 52.5272C58.0017 52.8287 58.2073 53.1434 58.2073 53.1929ZM54.4248 51.0676C54.0957 51.049 53.7643 51.0397 53.4359 51.0397C50.6253 51.0397 47.6001 51.7135 47.6001 53.1929V59.846C47.6001 60.1688 47.7441 60.4534 47.9985 60.7008H31.1704C31.113 60.7008 31.0644 60.6537 31.0644 60.598V31.1351C31.0644 31.0794 31.1129 31.0323 31.1704 31.0323H54.3187C54.3762 31.0323 54.4248 31.0794 54.4248 31.1351V37.8843L47.4348 44.6632C47.3688 44.7272 47.3212 44.807 47.2971 44.8945L46.3724 48.2415C46.3232 48.4196 46.3757 48.6096 46.5101 48.74C46.6113 48.8381 46.7471 48.8912 46.8864 48.8912C46.9323 48.8912 46.9787 48.8854 47.0241 48.8736L50.4753 47.9768C50.5655 47.9533 50.6479 47.9072 50.7139 47.8432L54.4247 44.2445L54.4248 51.0676Z" fill="#175CD3" stroke="#175CD3" stroke-width="0.4"/>
</svg>
