<svg width="50" height="50" viewBox="0 0 50 50" fill="none" xmlns="http://www.w3.org/2000/svg">
<g clip-path="url(#clip0_7237_26050)">
<path d="M49.2427 5.49999V44.5C49.2427 47.1212 47.1214 49.2424 44.5002 49.2424H5.50024C2.87902 49.2424 0.757812 47.1212 0.757812 44.5V5.49999C0.757812 2.88636 2.87902 0.757568 5.50024 0.757568H44.5002C47.1214 0.757568 49.2427 2.88636 49.2427 5.49999Z" fill="#E5E5E5"/>
<path d="M46.9705 47.5379H3.03107C2.72047 47.5379 2.46289 47.2803 2.46289 46.9697C2.46289 46.6591 2.72047 46.4015 3.03107 46.4015H46.9705C47.2811 46.4015 47.5387 46.6591 47.5387 46.9697C47.5387 47.2803 47.2811 47.5379 46.9705 47.5379Z" fill="#C1C0C5"/>
<path d="M46.9705 44.1893H3.03107C2.72047 44.1893 2.46289 43.9318 2.46289 43.6212C2.46289 43.3106 2.72047 43.053 3.03107 43.053H46.9705C47.2811 43.053 47.5387 43.3106 47.5387 43.6212C47.5387 43.9318 47.2811 44.1893 46.9705 44.1893Z" fill="#C1C0C5"/>
<path d="M46.9705 40.841H3.03107C2.72047 40.841 2.46289 40.5834 2.46289 40.2728C2.46289 39.9622 2.72047 39.7046 3.03107 39.7046H46.9705C47.2811 39.7046 47.5387 39.9622 47.5387 40.2728C47.5387 40.5834 47.2811 40.841 46.9705 40.841Z" fill="#C1C0C5"/>
<path d="M46.9705 37.4924H3.03107C2.72047 37.4924 2.46289 37.2349 2.46289 36.9243C2.46289 36.6137 2.72047 36.3561 3.03107 36.3561H46.9705C47.2811 36.3561 47.5387 36.6137 47.5387 36.9243C47.5387 37.2349 47.2811 37.4924 46.9705 37.4924Z" fill="#C1C0C5"/>
<path d="M49.2427 9.46211V5.49999C49.2427 2.88636 47.1214 0.757568 44.5002 0.757568H5.50024C2.87902 0.757568 0.757812 2.88636 0.757812 5.49999V9.46211H49.2427Z" fill="#6E7FED"/>
<path d="M5.89453 6.85608C6.72296 6.85608 7.39453 6.18451 7.39453 5.35608C7.39453 4.52765 6.72296 3.85608 5.89453 3.85608C5.0661 3.85608 4.39453 4.52765 4.39453 5.35608C4.39453 6.18451 5.0661 6.85608 5.89453 6.85608Z" fill="white"/>
<path d="M9.81055 6.85608C10.639 6.85608 11.3105 6.18451 11.3105 5.35608C11.3105 4.52765 10.639 3.85608 9.81055 3.85608C8.98212 3.85608 8.31055 4.52765 8.31055 5.35608C8.31055 6.18451 8.98212 6.85608 9.81055 6.85608Z" fill="white"/>
<path d="M13.7363 6.85608C14.5648 6.85608 15.2363 6.18451 15.2363 5.35608C15.2363 4.52765 14.5648 3.85608 13.7363 3.85608C12.9079 3.85608 12.2363 4.52765 12.2363 5.35608C12.2363 6.18451 12.9079 6.85608 13.7363 6.85608Z" fill="white"/>
<path d="M45.0387 6.14393H26.7205C26.4099 6.14393 26.1523 5.88636 26.1523 5.57575C26.1523 5.26514 26.4099 5.00757 26.7205 5.00757H45.0463C45.3569 5.00757 45.6145 5.26514 45.6145 5.57575C45.6145 5.88636 45.3569 6.14393 45.0387 6.14393Z" fill="white"/>
<path d="M14.266 27.7651C16.9856 27.7651 19.1903 25.5605 19.1903 22.8409C19.1903 20.1213 16.9856 17.9166 14.266 17.9166C11.5465 17.9166 9.3418 20.1213 9.3418 22.8409C9.3418 25.5605 11.5465 27.7651 14.266 27.7651Z" fill="#C1C0C5"/>
<path d="M14.2734 15.053C16.5537 15.053 18.5992 16.0379 20.0159 17.5985L22.5613 15.2803C20.5083 13.0303 17.5613 11.6061 14.2734 11.6061V15.053Z" fill="#FC8068"/>
<path d="M25.5014 22.8333C25.5014 19.9166 24.3802 17.2727 22.562 15.2727L20.0166 17.5909C21.2817 18.9773 22.0545 20.8106 22.0545 22.8257C22.0545 25.553 20.6605 27.9469 18.5469 29.3409L20.4408 32.2197C23.4863 30.2197 25.5014 26.7651 25.5014 22.8333Z" fill="#FCD131"/>
<path d="M6.47822 22.8334C6.47822 18.5379 9.95549 15.053 14.2661 15.053V11.6061C8.06155 11.6061 3.03125 16.6364 3.03125 22.8334C3.03125 25.2273 3.78125 27.4394 5.06155 29.2652L7.88731 27.2955C7.00095 26.0303 6.47822 24.5 6.47822 22.8334Z" fill="#8C9FFA"/>
<path d="M14.2746 30.6287C11.6231 30.6287 9.28977 29.3106 7.88826 27.2954L5.0625 29.2651C7.0928 32.1742 10.4564 34.0757 14.2746 34.0757C16.5549 34.0757 18.6686 33.3939 20.4413 32.2272L18.5473 29.3484C17.3201 30.159 15.8504 30.6287 14.2746 30.6287Z" fill="#4EC4A5"/>
<path d="M32.0453 20.6061V32.0909C32.0453 32.6364 31.6059 33.0758 31.0605 33.0758H29.1059C28.5605 33.0758 28.1211 32.6364 28.1211 32.0909V20.6061C28.1211 20.0606 28.5605 19.6212 29.1059 19.6212H31.0605C31.6059 19.6212 32.0453 20.0606 32.0453 20.6061Z" fill="#4EC4A5"/>
<path d="M46.9694 17.9697V32.0909C46.9694 32.6364 46.53 33.0758 45.9846 33.0758H44.03C43.4921 33.0758 43.0527 32.6364 43.0527 32.0909V17.9697C43.0527 17.4318 43.4921 16.9924 44.03 16.9924H45.9846C46.53 16.9924 46.9694 17.4318 46.9694 17.9697Z" fill="#FCD131"/>
<path d="M36.8932 24.2575V32.0909C36.8932 32.6363 36.4538 33.0757 35.9084 33.0757H33.9538C33.416 33.0757 32.9766 32.6363 32.9766 32.0909V24.2575C32.9766 23.7197 33.416 23.2803 33.9538 23.2803H35.9084C36.4538 23.2803 36.8932 23.7197 36.8932 24.2575Z" fill="#FC8068"/>
<path d="M42.1589 13.3485V32.0909C42.1589 32.6364 41.7195 33.0758 41.1816 33.0758H39.227C38.6816 33.0758 38.2422 32.6364 38.2422 32.0909V13.3485C38.2422 12.803 38.6816 12.3712 39.227 12.3712H41.1816C41.7195 12.3712 42.1589 12.803 42.1589 13.3485Z" fill="#8C9FFA"/>
</g>
<defs>
<clipPath id="clip0_7237_26050">
<rect width="50" height="50" fill="white"/>
</clipPath>
</defs>
</svg>
