<svg xmlns="http://www.w3.org/2000/svg" width="512" height="512" fill="none"><path fill="#0968da" d="m492.93 199.477-49.172-5.938c-1.375-.164-2.524-1.113-3.004-2.477a195.127 195.127 0 0 0-8.25-19.859c-.598-1.246-.465-2.664.351-3.703l30.649-39.066c6.758-8.618 6.016-20.954-1.727-28.696l-49.511-49.511c-7.746-7.746-20.082-8.489-28.7-1.727l-39.062 30.648c-1.043.817-2.461.95-3.703.348a195.405 195.405 0 0 0-19.86-8.25c-1.367-.477-2.316-1.629-2.48-3l-5.938-49.176C311.211 8.2 301.961 0 291.012 0h-70.024c-10.949 0-20.199 8.2-21.511 19.07l-5.938 49.172c-.164 1.375-1.113 2.524-2.477 3.004a195.105 195.105 0 0 0-19.859 8.25c-1.246.598-2.664.465-3.703-.352l-39.066-30.648c-8.618-6.762-20.954-6.016-28.696 1.727L50.227 99.738c-7.746 7.742-8.489 20.078-1.727 28.696l30.648 39.062c.817 1.043.95 2.461.348 3.707a195.339 195.339 0 0 0-8.25 19.856c-.48 1.367-1.629 2.316-3 2.48l-49.176 5.938C8.2 200.789 0 210.039 0 220.988v70.024c0 10.953 8.2 20.199 19.07 21.511l49.172 5.938c1.375.164 2.524 1.113 3.004 2.477a195.55 195.55 0 0 0 8.25 19.863c.598 1.242.465 2.664-.352 3.703l-30.648 39.062c-6.758 8.618-6.016 20.954 1.727 28.7l49.511 49.511c7.746 7.743 20.082 8.485 28.7 1.727l39.062-30.652c1.039-.817 2.461-.95 3.703-.348a195.428 195.428 0 0 0 19.86 8.25c1.367.48 2.316 1.629 2.48 3l5.938 49.176c1.312 10.871 10.562 19.07 21.511 19.07h70.024c10.949 0 20.199-8.199 21.511-19.07l5.938-49.172c.164-1.375 1.113-2.524 2.477-3.004a195.127 195.127 0 0 0 19.859-8.25c1.246-.602 2.664-.465 3.703.351l39.066 30.649c8.618 6.758 20.954 6.016 28.696-1.727l49.511-49.511c7.747-7.746 8.489-20.082 1.727-28.7l-30.648-39.062c-.817-1.039-.95-2.457-.348-3.703a195.428 195.428 0 0 0 8.25-19.86c.48-1.363 1.629-2.312 3-2.48l49.176-5.938c10.871-1.312 19.07-10.562 19.07-21.511v-70.024c0-10.949-8.199-20.199-19.07-21.511Z"/><path fill="#fff" d="M382.145 256c0 69.668-56.477 126.145-126.145 126.145S129.855 325.668 129.855 256 186.332 129.855 256 129.855 382.145 186.332 382.145 256Z"/><path fill="#ECEDF4" d="M291.484 134.926c30.754 23.004 50.661 59.715 50.661 101.074 0 69.668-56.477 126.145-126.145 126.145-12.32 0-24.227-1.778-35.484-5.071 21.046 15.746 47.175 25.071 75.484 25.071 69.668 0 126.145-56.477 126.145-126.145 0-57.344-38.27-105.746-90.661-121.074Z"/><path fill="#35198E" d="m492.93 199.477-21.321-2.575c.254 1.328.391 2.696.391 4.086v70.024c0 10.953-8.199 20.199-19.07 21.511l-49.176 5.938c-1.371.164-2.52 1.113-3 2.48a195.362 195.362 0 0 1-8.25 19.856c-.602 1.246-.465 2.664.348 3.703l30.652 39.066c6.758 8.618 6.016 20.954-1.727 28.696l-49.511 49.511a21.585 21.585 0 0 1-9.387 5.497l20.687 16.23c8.618 6.762 20.954 6.02 28.7-1.727l49.511-49.511c7.743-7.742 8.485-20.078 1.727-28.696L432.852 344.5c-.813-1.039-.95-2.457-.348-3.703a195.362 195.362 0 0 0 8.25-19.856c.48-1.367 1.629-2.316 3-2.48l49.176-5.938c10.871-1.312 19.07-10.562 19.07-21.511v-70.024c0-10.949-8.199-20.199-19.07-21.511ZM304.5 412.852c-1.039-.817-2.457-.95-3.703-.348a195.127 195.127 0 0 1-19.859 8.25c-1.364.48-2.313 1.629-2.477 3l-5.938 49.176c-1.312 10.871-10.562 19.07-21.511 19.07h-51.645l.11.93c1.312 10.871 10.562 19.07 21.511 19.07h70.024c10.949 0 20.199-8.199 21.511-19.07l5.938-49.172c.164-1.375 1.113-2.524 2.477-3.004a194.358 194.358 0 0 0 12.734-5.012l-29.172-22.89Z"/><path fill="#B0BEC5" d="M230.203 292.246V379.5a126.697 126.697 0 0 0 25.793 2.645h.008c8.84 0 17.465-.915 25.793-2.645v-87.188l-51.594-.066Z"/><path fill="#B0BEC5" d="M282.48 176.676v44.203c0 1.449-.593 2.84-1.644 3.84l-21.676 20.719a5.314 5.314 0 0 1-7.433-.082l-20.649-20.649a5.307 5.307 0 0 1-1.558-3.761v-44.274c0-4.386-4.801-7.07-8.551-4.797-20.332 12.332-33.649 35.071-32.559 60.828 1.512 35.59 31.004 64.204 66.625 64.7 37.805.527 68.617-29.961 68.617-67.645 0-24.543-13.07-46.027-32.625-57.887-3.75-2.269-8.547.418-8.547 4.805Z"/><path fill="#78909C" d="M261.797 292.312v47.629c0 11.926-9.449 21.711-21.367 22.125-1.469.051-2.946.079-4.426.079h-.012c-1.941 0-3.871-.051-5.789-.141V379.5a126.658 126.658 0 0 0 25.789 2.645h.012c8.84 0 17.465-.915 25.793-2.645v-87.184h-20v-.004Z"/><path fill="#78909C" d="M256 324.695a7.5 7.5 0 0 0-7.5 7.5v49.719c2.48.145 4.977.231 7.496.231h.008c2.519 0 5.016-.086 7.496-.231v-49.719a7.5 7.5 0 0 0-7.5-7.5Z"/><path fill="#455A64" d="M259.727 382.086c-1.235.035-2.477.059-3.723.059h-.008c-1.246 0-2.488-.024-3.723-.059a136.912 136.912 0 0 1-3.773-.172V360.23c7.84-3.421 13.297-11.234 13.297-20.289v-12.507a7.487 7.487 0 0 1 1.703 4.761v49.719a138.016 138.016 0 0 1-3.773.172Z"/><path fill="#78909C" d="M291.027 171.871c-2.816-1.707-6.222-.614-7.746 1.894 6.567 10.426 10.371 22.762 10.371 35.992 0 37.684-30.812 68.172-68.617 67.645a66.78 66.78 0 0 1-20.062-3.387c12.261 14.09 30.207 23.11 50.062 23.387 37.805.527 68.617-29.961 68.617-67.645 0-24.539-13.07-46.027-32.625-57.886Z"/><path fill="#35198E" d="M421.773 79.739c7.747 7.742 8.489 20.078 1.727 28.695L392.852 147.5c-.813 1.039-.95 2.457-.348 3.703a195.05 195.05 0 0 1 8.25 19.86c.48 1.363 1.629 2.312 3 2.476l31.566 3.813c-.91-2.067-1.84-4.121-2.816-6.149-.602-1.246-.469-2.664.348-3.703l30.648-39.066c6.762-8.617 6.02-20.953-1.727-28.695l-49.511-49.512c-6.52-6.52-16.285-8.055-24.352-4.356l33.863 33.867Z"/></svg>