<svg viewBox="0 0 14 14" fill="none" xmlns="http://www.w3.org/2000/svg">
<path fill-rule="evenodd" clip-rule="evenodd" d="M5.83333 1.66699C5.65652 1.66699 5.48695 1.73723 5.36193 1.86225C5.2369 1.98728 5.16667 2.15685 5.16667 2.33366V3.00033H8.83333V2.33366C8.83333 2.15685 8.76309 1.98728 8.63807 1.86225C8.51305 1.73723 8.34348 1.66699 8.16667 1.66699H5.83333ZM9.83333 3.00033V2.33366C9.83333 1.89163 9.65774 1.46771 9.34518 1.15515C9.03262 0.842587 8.60869 0.666992 8.16667 0.666992H5.83333C5.39131 0.666992 4.96738 0.842587 4.65482 1.15515C4.34226 1.46771 4.16667 1.89163 4.16667 2.33366V3.00033H1.75C1.47386 3.00033 1.25 3.22418 1.25 3.50033C1.25 3.77647 1.47386 4.00033 1.75 4.00033H2.41667V11.667C2.41667 12.109 2.59226 12.5329 2.90482 12.8455C3.21738 13.1581 3.64131 13.3337 4.08333 13.3337H9.91667C10.3587 13.3337 10.7826 13.1581 11.0952 12.8455C11.4077 12.5329 11.5833 12.109 11.5833 11.667V4.00033H12.25C12.5261 4.00033 12.75 3.77647 12.75 3.50033C12.75 3.22418 12.5261 3.00033 12.25 3.00033H9.83333ZM3.41667 4.00033V11.667C3.41667 11.8438 3.4869 12.0134 3.61193 12.1384C3.73695 12.2634 3.90652 12.3337 4.08333 12.3337H9.91667C10.0935 12.3337 10.263 12.2634 10.3881 12.1384C10.5131 12.0134 10.5833 11.8438 10.5833 11.667V4.00033H3.41667ZM5.83333 5.91699C6.10948 5.91699 6.33333 6.14085 6.33333 6.41699V9.91699C6.33333 10.1931 6.10948 10.417 5.83333 10.417C5.55719 10.417 5.33333 10.1931 5.33333 9.91699V6.41699C5.33333 6.14085 5.55719 5.91699 5.83333 5.91699ZM8.16667 5.91699C8.44281 5.91699 8.66667 6.14085 8.66667 6.41699V9.91699C8.66667 10.1931 8.44281 10.417 8.16667 10.417C7.89052 10.417 7.66667 10.1931 7.66667 9.91699V6.41699C7.66667 6.14085 7.89052 5.91699 8.16667 5.91699Z" fill="#F04438"/>
</svg>