<svg xmlns="http://www.w3.org/2000/svg" width="29" height="32" fill="none"><path fill="url(#a)" d="M25.913 3.75h-4.688v-.938A2.816 2.816 0 0 0 18.412 0h-7.5A2.816 2.816 0 0 0 8.1 2.813v.937H3.412A2.816 2.816 0 0 0 .6 6.563c0 1.245.814 2.303 1.938 2.672L4.21 29.421A2.829 2.829 0 0 0 7.013 32h15.3a2.83 2.83 0 0 0 2.802-2.58l1.672-20.185a2.817 2.817 0 0 0 1.938-2.672 2.816 2.816 0 0 0-2.813-2.813ZM9.975 2.812c0-.516.42-.937.938-.937h7.5c.516 0 .937.42.937.938v.937H9.975v-.938Zm13.272 26.453a.943.943 0 0 1-.935.86h-15.3a.943.943 0 0 1-.933-.86L4.43 9.376h20.463l-1.647 19.89ZM25.913 7.5h-22.5a.939.939 0 0 1 0-1.875h22.5a.939.939 0 0 1 0 1.875Z"/><path fill="url(#b)" d="m11.248 27.255-.937-15.125a.938.938 0 0 0-1.871.116l.937 15.125a.937.937 0 1 0 1.871-.116Z"/><path fill="url(#c)" d="M15 11.25a.937.937 0 0 0-.938.938v15.124a.938.938 0 0 0 1.876 0V12.188A.937.937 0 0 0 15 11.25Z"/><path fill="url(#d)" d="M20.683 11.252a.938.938 0 0 0-.994.877l-.937 15.126a.938.938 0 0 0 1.871.116l.938-15.125a.937.937 0 0 0-.878-.994Z"/><defs><linearGradient id="a" x1="1.5" x2="29.001" y1=".5" y2="32" gradientUnits="userSpaceOnUse"><stop stop-color="#7147E8"/><stop offset=".396" stop-color="#5D57ED"/><stop offset="1" stop-color="#1890FF"/></linearGradient><linearGradient id="b" x1="9.844" x2="9.844" y1="11.25" y2="28.25" gradientUnits="userSpaceOnUse"><stop stop-color="#7147E8"/><stop offset="1" stop-color="#1890FF"/></linearGradient><linearGradient id="c" x1="15" x2="15" y1="11.25" y2="28.25" gradientUnits="userSpaceOnUse"><stop stop-color="#7147E8"/><stop offset="1" stop-color="#1890FF"/></linearGradient><linearGradient id="d" x1="20.5" x2="20" y1="11" y2="28" gradientUnits="userSpaceOnUse"><stop stop-color="#7147E8"/><stop offset="1" stop-color="#1890FF"/></linearGradient></defs></svg>