<svg xmlns="http://www.w3.org/2000/svg" width="14" height="15" fill="none"><path fill="#37352f" d="M11.492 3.406H9.734v-.351C9.734 2.473 9.261 2 8.68 2H5.867c-.581 0-1.054.473-1.054 1.055v.351H3.054a1.056 1.056 0 0 0-.328 2.057l.627 7.57a1.06 1.06 0 0 0 1.05.967h5.738c.544 0 1.006-.425 1.051-.967l.627-7.57a1.056 1.056 0 0 0-.328-2.057Zm-5.976-.351c0-.194.157-.352.351-.352H8.68c.194 0 .351.158.351.352v.351H5.516v-.351Zm4.976 9.92a.354.354 0 0 1-.35.322H4.405a.354.354 0 0 1-.35-.322l-.618-7.46h7.673l-.618 7.46Zm1-8.162H3.055a.352.352 0 0 1 0-.704h8.437a.352.352 0 0 1 0 .704Z"/><path fill="#37352f" d="M5.993 12.22 5.64 6.55a.352.352 0 0 0-.702.043l.352 5.672a.352.352 0 0 0 .702-.043ZM7.4 6.219a.352.352 0 0 0-.352.351v5.672a.352.352 0 0 0 .703 0V6.57a.352.352 0 0 0-.352-.351ZM9.53 6.22a.352.352 0 0 0-.372.329l-.352 5.671a.352.352 0 0 0 .702.044l.352-5.672a.352.352 0 0 0-.33-.373Z"/></svg>