<svg viewBox="0 0 15 15" fill="none" xmlns="http://www.w3.org/2000/svg">
<path d="M6.08182 12.6347L6.82076 11.4028L7.28047 11.8625C7.30073 11.8828 7.32316 11.8992 7.34696 11.9122L7.61224 13.7684C7.64657 14.0085 7.93976 14.1036 8.10936 13.9341L10.5952 11.4483C10.6423 11.4012 10.6718 11.3397 10.6792 11.2735L10.9787 8.57902L12.6355 6.92192C13.363 6.19443 13.9423 5.17717 14.3575 3.89841C14.9498 2.07365 14.9981 0.371809 14.9998 0.30017C15.0018 0.220061 14.9709 0.142585 14.9141 0.0858227C14.8575 0.0290602 14.7804 -0.00206762 14.6998 0.000106745C14.6282 0.00193779 12.9264 0.0501172 11.1015 0.642461C9.82277 1.05765 8.80551 1.63706 8.07801 2.36456L6.42137 4.0212L3.72641 4.32069C3.66026 4.32802 3.59869 4.35766 3.55166 4.40469L1.06578 6.89057C0.987276 6.96907 0.959925 7.08512 0.995058 7.19029C1.03008 7.29557 1.12163 7.37202 1.23149 7.3877L3.08772 7.65297C3.12377 7.71877 3.12686 7.70309 3.59709 8.17917L2.36525 8.91799C2.28789 8.96446 2.23628 9.04388 2.22529 9.13349C2.21419 9.22298 2.24509 9.3127 2.30883 9.37644L5.62349 12.6911C5.7575 12.8251 5.98329 12.7989 6.08182 12.6347ZM8.10936 13.1055L7.90211 11.6553L10.3154 9.2422L10.1082 11.1067L8.10936 13.1055ZM13.9393 3.25422L11.7457 1.06063C12.8647 0.749921 13.8952 0.640973 14.3959 0.604009C14.3591 1.1048 14.25 2.13534 13.9393 3.25422ZM8.49228 2.77884C9.12193 2.14918 10.0035 1.63775 11.1132 1.25678L13.7433 3.88673C13.3622 4.99646 12.8507 5.878 12.2211 6.50765L8.3165 10.4122L6.03788 8.13362C5.92344 8.01929 5.73793 8.01929 5.62349 8.13362C5.50905 8.24806 5.50905 8.43357 5.62349 8.54801L7.90211 10.8266L7.48772 11.2411L3.75891 7.51232L6.76286 4.50849L8.49228 2.77884ZM3.89326 4.89175L5.75807 4.6845L3.34464 7.09782L1.89445 6.89057L3.89326 4.89175ZM4.02418 8.60626L6.39367 10.9757L5.77249 12.0114L2.98861 9.22756L4.02418 8.60626Z" fill="currentColor"/>
<path d="M0.500105 14.9142L3.55166 11.8627C3.6661 11.7483 3.6661 11.5628 3.55166 11.4484C3.43722 11.3339 3.25183 11.3339 3.13739 11.4484L0.0858304 14.4999C-0.0286101 14.6144 -0.0286101 14.7999 0.0858304 14.9143C0.200271 15.0286 0.385664 15.0286 0.500105 14.9142Z" fill="currentColor"/>
<path d="M4.38073 12.2767C4.26629 12.1623 4.08078 12.1623 3.96634 12.2767L2.15761 14.0855C2.04317 14.1999 2.04317 14.3854 2.15761 14.4999C2.27205 14.6142 2.45744 14.6142 2.57188 14.4999L4.38073 12.691C4.49505 12.5766 4.49505 12.3911 4.38073 12.2767Z" fill="currentColor"/>
<path d="M2.30862 10.6195L0.499893 12.4283C0.385452 12.5427 0.385452 12.7282 0.499893 12.8426C0.614333 12.957 0.799727 12.957 0.914167 12.8426L2.72301 11.0338C2.83734 10.9195 2.83734 10.734 2.72301 10.6195C2.60857 10.5051 2.42306 10.5051 2.30862 10.6195Z" fill="currentColor"/>
<path d="M10.7712 6.71489C11.4564 6.02962 11.4564 4.91451 10.7711 4.2289C10.0856 3.54374 8.97053 3.54386 8.28526 4.22901C7.59862 4.91577 7.59793 6.0279 8.28526 6.71489C8.97202 7.40187 10.084 7.40199 10.7712 6.71489ZM8.69965 4.64329C9.15638 4.18655 9.8999 4.18655 10.3569 4.64329C10.8136 5.10025 10.8137 5.84377 10.3569 6.3005C9.89887 6.75849 9.15764 6.75883 8.69965 6.3005C8.24166 5.84274 8.24143 5.10139 8.69965 4.64329Z" fill="currentColor"/>
</svg>
