<svg xmlns="http://www.w3.org/2000/svg" width="32" height="32" fill="none"><path fill="#fff" d="M30.646.053.71 9.834c-.846.276-.968 1.426-.199 1.874l11.313 6.578c.357.207.803.182 1.134-.064l3.18-2.362-2.361 3.18a1.032 1.032 0 0 0-.064 1.135l6.578 11.313c.448.77 1.598.646 1.874-.199l9.782-29.935A1.033 1.033 0 0 0 30.646.053Zm-9.727 28.405-5.078-8.733 6.123-8.245a1.032 1.032 0 0 0-1.444-1.444l-8.245 6.123-8.733-5.078 25.811-8.434-8.434 25.811Zm-10.081-5.836-6.854 6.854a1.032 1.032 0 0 1-1.46-1.46l6.854-6.854a1.032 1.032 0 0 1 1.46 1.46Zm-9.055.26a1.032 1.032 0 0 1 0-1.46l2.705-2.705a1.032 1.032 0 0 1 1.46 1.46L3.243 22.88a1.032 1.032 0 0 1-1.46 0Zm11.5 3.17a1.032 1.032 0 0 1 0 1.46l-2.704 2.704a1.029 1.029 0 0 1-.73.303c-.912 0-1.382-1.11-.73-1.762l2.704-2.705a1.032 1.032 0 0 1 1.46 0Z"/></svg>