<svg width="18" height="18" viewBox="0 0 18 18" fill="none" xmlns="http://www.w3.org/2000/svg">
<path fill-rule="evenodd" clip-rule="evenodd" d="M2.8776 15.2006H3.6659V15.3592C3.6659 16.8155 4.95682 18 6.54351 18H7.81978H13.9106H14.4582H14.9735C16.5607 18 17.8516 16.8155 17.8516 15.3592V5.44032C17.8516 3.98435 16.5607 2.79943 14.9735 2.79943H14.1853V2.64094C14.1853 1.18442 12.8948 0 11.3076 0H10.2447H4.15387H2.8776C1.29091 0 0 1.18446 0 2.64094V12.5597C0 14.0156 1.29091 15.2006 2.8776 15.2006ZM14.9735 3.66394C16.0428 3.66394 16.9094 4.45927 16.9094 5.44032V15.3592C16.9094 16.3402 16.0428 17.1356 14.9735 17.1356H14.4582H13.9106H7.81983H6.54355C5.47466 17.1356 4.60814 16.3402 4.60814 15.3592V15.2006V14.3361V5.44032C4.60814 4.45923 5.47466 3.66394 6.54355 3.66394H7.81983H13.2435H13.9106H14.1852H14.9735ZM0.941687 2.64094C0.941687 1.65984 1.80821 0.864516 2.8776 0.864516H4.15387H10.2447H11.3076C12.377 0.864516 13.2435 1.65984 13.2435 2.64094V2.79943H7.81983H6.54355C4.95686 2.79943 3.66595 3.98435 3.66595 5.44032V14.3361H2.8776C1.80821 14.3361 0.941687 13.5403 0.941687 12.5597V2.64094ZM6.22156 6.35628C6.01463 6.35628 5.84711 6.52385 5.84711 6.73078C5.84711 6.93766 6.01463 7.10523 6.22156 7.10523H13.7118C13.9187 7.10523 14.0863 6.93766 14.0863 6.73078C14.0863 6.52385 13.9187 6.35628 13.7118 6.35628H6.22156ZM7.77998 9.64979C7.57305 9.64979 7.40498 9.48222 7.40498 9.2753C7.40498 9.06837 7.57305 8.90035 7.77998 8.90035H14.7989C15.0058 8.90035 15.1739 9.06837 15.1739 9.2753C15.1739 9.48222 15.0058 9.64979 14.7989 9.64979H7.77998ZM13.1744 11.8193C13.1744 11.6124 13.0067 11.4449 12.7999 11.4449H6.22156C6.01463 11.4449 5.84711 11.6124 5.84711 11.8193C5.84711 12.0262 6.01463 12.1944 6.22156 12.1944H12.7999C13.0067 12.1944 13.1744 12.0262 13.1744 11.8193ZM8.63438 13.9894H14.7989C15.0058 13.9894 15.1739 14.157 15.1739 14.3639C15.1739 14.5708 15.0058 14.7383 14.7989 14.7383H8.63438C8.4275 14.7383 8.25993 14.5708 8.25993 14.3639C8.25993 14.157 8.4275 13.9894 8.63438 13.9894Z" fill="#6B7280"/>
</svg>
