<svg id="Layer_1" xmlns="http://www.w3.org/2000/svg" version="1.1" viewBox="0 0 89 89">
  <!-- Generator: Adobe Illustrator 29.8.1, SVG Export Plug-In . SVG Version: 2.1.1 Build 2)  -->
  <defs>
    <style>
      .st0 {
        fill: none;
        stroke: #904d79;
        stroke-width: 2px;
      }

      .st1 {
        fill: #904d79;
      }

      .st2 {
        fill: #fef3fc;
      }
    </style>
  </defs>
  <path class="st2" d="M0,28C0,12.54,12.54,0,28,0h33c15.46,0,28,12.54,28,28v33c0,15.46-12.54,28-28,28H28c-15.46,0-28-12.54-28-28V28Z"/>
  <path class="st0" d="M58.11,60.32v-19.19c0-1.63-1.32-2.95-2.95-2.95h-11.76c-.88,0-1.71-.39-2.27-1.07l-2.36-2.84c-.56-.67-1.39-1.07-2.27-1.07h-7.55c-1.63,0-2.95,1.32-2.95,2.95v24.16c0,1.63,1.32,2.95,2.95,2.95h26.21c1.63,0,2.95-1.32,2.95-2.95Z"/>
  <path class="st0" d="M57.87,58.17h3.18c1.63,0,2.95-1.32,2.95-2.95v-21.3c0-1.63-1.32-2.95-2.95-2.95h-13.87c-.88,0-1.71-.39-2.27-1.07l-2.36-2.84c-.56-.68-1.39-1.07-2.27-1.07h-7.55c-1.63,0-2.95,1.32-2.95,2.95v4.69"/>
  <circle class="st1" cx="45.45" cy="57.82" r="2.11"/>
  <circle class="st1" cx="51.78" cy="57.82" r="2.11"/>
</svg>