<svg xmlns="http://www.w3.org/2000/svg" xml:space="preserve" width="512" height="512" style="enable-background:new 0 0 512 512"><g xmlns="http://www.w3.org/2000/svg" fill="#FFF"><path d="M88 456c-8.837 0-16-7.164-16-16V66c0-36.393 29.607-66 66-66h286c8.837 0 16 7.164 16 16v368c0 8.836-7.163 16-16 16s-16-7.164-16-16V32H138c-18.748 0-34 15.252-34 34v374c0 8.836-7.163 16-16 16z" data-original="#FFFFFF"/><path d="M424 512H144c-39.701 0-72-32.299-72-72s32.299-72 72-72h280c8.837 0 16 7.164 16 16s-7.163 16-16 16H144c-22.056 0-40 17.944-40 40s17.944 40 40 40h280c8.837 0 16 7.164 16 16s-7.163 16-16 16z" data-original="#FFFFFF"/><path d="M424 456H144c-8.837 0-16-7.164-16-16s7.163-16 16-16h280c8.837 0 16 7.164 16 16s-7.163 16-16 16zM160 400c-8.837 0-16-7.164-16-16V16c0-8.836 7.163-16 16-16s16 7.164 16 16v368c0 8.836-7.163 16-16 16z" data-original="#FFFFFF"/></g></svg>