
<svg viewBox="0 0 40 40" fill="none" xmlns="http://www.w3.org/2000/svg">
<path d="M10.1562 31.7188C9.63846 31.7188 9.21875 31.299 9.21875 30.7812V8.86719C9.21875 6.73479 10.9535 5 13.0859 5H29.8438C30.3615 5 30.7812 5.41977 30.7812 5.9375V27.5C30.7812 28.0177 30.3615 28.4375 29.8438 28.4375C29.326 28.4375 28.9062 28.0177 28.9062 27.5V6.875H13.0859C11.9874 6.875 11.0938 7.76867 11.0938 8.86719V30.7812C11.0938 31.299 10.674 31.7188 10.1562 31.7188Z" fill="currentColor"/>
<path d="M29.8438 35H13.4375C11.1113 35 9.21875 33.1075 9.21875 30.7812C9.21875 28.455 11.1113 26.5625 13.4375 26.5625H29.8438C30.3615 26.5625 30.7812 26.9823 30.7812 27.5C30.7812 28.0177 30.3615 28.4375 29.8438 28.4375H13.4375C12.1452 28.4375 11.0938 29.4889 11.0938 30.7812C11.0938 32.0736 12.1452 33.125 13.4375 33.125H29.8438C30.3615 33.125 30.7812 33.5448 30.7812 34.0625C30.7812 34.5802 30.3615 35 29.8438 35Z" fill="currentColor"/>
<path d="M29.8438 31.7188H13.4375C12.9197 31.7188 12.5 31.299 12.5 30.7812C12.5 30.2635 12.9197 29.8438 13.4375 29.8438H29.8438C30.3615 29.8438 30.7812 30.2635 30.7812 30.7812C30.7812 31.299 30.3615 31.7188 29.8438 31.7188ZM14.375 28.4375C13.8572 28.4375 13.4375 28.0177 13.4375 27.5V5.9375C13.4375 5.41977 13.8572 5 14.375 5C14.8928 5 15.3125 5.41977 15.3125 5.9375V27.5C15.3125 28.0177 14.8928 28.4375 14.375 28.4375Z" fill="currentColor"/>
</svg>
