<svg viewBox="0 0 16 16" fill="none" xmlns="http://www.w3.org/2000/svg">
<path fill-rule="evenodd" clip-rule="evenodd" d="M7.28897 0.733399H8.71108C9.93047 0.733384 10.9065 0.733372 11.6727 0.836381C12.4654 0.942957 13.1227 1.1696 13.6432 1.69018C14.1638 2.21077 14.3905 2.86802 14.497 3.66073C14.6001 4.4269 14.6 5.40296 14.6 6.62235V9.37778C14.6 10.5972 14.6001 11.5732 14.497 12.3394C14.3905 13.1321 14.1638 13.7894 13.6432 14.3099C13.1227 14.8305 12.4654 15.0572 11.6727 15.1638C10.9065 15.2668 9.93047 15.2667 8.71107 15.2667H7.28898C6.06958 15.2667 5.09352 15.2668 4.32735 15.1638C3.53465 15.0572 2.8774 14.8305 2.35681 14.3099C1.83622 13.7894 1.60958 13.1321 1.50301 12.3394C1.4 11.5732 1.40001 10.5972 1.40002 9.37778V6.62235C1.40001 5.40296 1.4 4.4269 1.50301 3.66073C1.60958 2.86802 1.83622 2.21077 2.35681 1.69018C2.8774 1.1696 3.53465 0.942957 4.32735 0.836381C5.09352 0.733372 6.06958 0.733384 7.28897 0.733399ZM4.48725 2.02568C3.82761 2.11437 3.4658 2.27825 3.20534 2.53871C2.94487 2.79917 2.78099 3.16099 2.69231 3.82062C2.6013 4.49752 2.60003 5.39269 2.60003 6.66673V9.3334C2.60003 10.6074 2.6013 11.5026 2.69231 12.1795C2.78099 12.8391 2.94487 13.201 3.20534 13.4614C3.4658 13.7219 3.82761 13.8858 4.48725 13.9745C5.16415 14.0655 6.05932 14.0667 7.33336 14.0667H8.66669C9.94073 14.0667 10.8359 14.0655 11.5128 13.9745C12.1724 13.8858 12.5342 13.7219 12.7947 13.4614C13.0552 13.201 13.2191 12.8391 13.3077 12.1795C13.3988 11.5026 13.4 10.6074 13.4 9.3334V6.66673C13.4 5.39269 13.3988 4.49752 13.3077 3.82062C13.2191 3.16099 13.0552 2.79917 12.7947 2.53871C12.5342 2.27825 12.1724 2.11437 11.5128 2.02568C10.8359 1.93467 9.94073 1.9334 8.66669 1.9334H7.33336C6.05932 1.9334 5.16415 1.93467 4.48725 2.02568Z" fill="#414651"/>
<path fill-rule="evenodd" clip-rule="evenodd" d="M4.73328 6.66641C4.73328 6.33504 5.00191 6.06641 5.33328 6.06641H10.6666C10.998 6.06641 11.2666 6.33504 11.2666 6.66641C11.2666 6.99778 10.998 7.26641 10.6666 7.26641H5.33328C5.00191 7.26641 4.73328 6.99778 4.73328 6.66641Z" fill="#414651"/>
<path fill-rule="evenodd" clip-rule="evenodd" d="M4.78333 9.3332C4.78333 9.02945 5.02957 8.7832 5.33333 8.7832H8.66666C8.97042 8.7832 9.21666 9.02945 9.21666 9.3332C9.21666 9.63696 8.97042 9.8832 8.66666 9.8832H5.33333C5.02957 9.8832 4.78333 9.63696 4.78333 9.3332Z" fill="#414651"/>
</svg>