<svg xmlns="http://www.w3.org/2000/svg" viewBox="0 0 24 24" fill="none">
<path d="M15.7917 6.30722C15.7748 6.35294 15.7724 6.40267 15.7849 6.44954C15.7974 6.4964 15.824 6.53808 15.8612 6.56882C18.7628 8.96162 21.002 12.1368 21.494 15.9312C21.8156 18.42 20.8892 20.7696 18.4244 21.6504C17.8292 21.8632 16.7844 21.9704 15.29 21.972C13.298 21.9752 11.3052 21.9784 9.31165 21.9816C7.57085 21.9832 6.36125 21.86 5.68285 21.612C3.14365 20.6832 2.36125 18.2712 2.72365 15.684C3.23005 12.0984 5.47885 8.90642 8.24125 6.65282C8.30419 6.60121 8.34939 6.53129 8.37049 6.45292C8.39159 6.37455 8.38752 6.29169 8.35885 6.21602L7.12525 2.92322C7.08415 2.8128 7.07031 2.69407 7.08492 2.57718C7.09953 2.46029 7.14215 2.34872 7.20914 2.25201C7.27613 2.1553 7.36549 2.07634 7.46958 2.02187C7.57367 1.96739 7.68939 1.93904 7.80685 1.93922L10.0052 1.93682C10.0685 1.93683 10.1294 1.91281 10.1756 1.86962C11.454 0.656822 12.738 0.656822 14.0276 1.86962C14.0739 1.91281 14.1348 1.93683 14.198 1.93682H16.3076C16.4336 1.93696 16.5576 1.96759 16.6691 2.02609C16.7807 2.08459 16.8764 2.16923 16.9481 2.27276C17.0198 2.3763 17.0653 2.49566 17.0809 2.62063C17.0964 2.74561 17.0814 2.87249 17.0372 2.99042L15.7917 6.30722ZM13.8092 3.42482C13.1996 3.41522 13.1396 2.87762 12.7148 2.64002C11.3804 1.88882 11.27 3.42482 10.2716 3.43442C9.87645 3.43602 9.49725 3.43682 9.13405 3.43682C9.11052 3.4368 9.08737 3.44253 9.06655 3.45353C9.04573 3.46453 9.02786 3.48047 9.01444 3.50001C9.00102 3.51955 8.99245 3.54211 8.98946 3.56579C8.98647 3.58946 8.98914 3.61355 8.99725 3.63602L9.78925 5.76722C9.81058 5.82293 9.84814 5.87086 9.89698 5.90471C9.94582 5.93856 10.0037 5.95673 10.0628 5.95682H14.1932C14.2315 5.95673 14.2687 5.94496 14.3 5.92308C14.3314 5.9012 14.3552 5.87026 14.3684 5.83442L15.2204 3.56642C15.2524 3.48162 15.2236 3.43922 15.134 3.43922C14.6812 3.43602 14.2396 3.43122 13.8092 3.42482ZM14.9732 7.74962C14.7812 7.55122 14.6012 7.45282 14.4332 7.45442C12.8844 7.45762 11.3284 7.45842 9.76525 7.45682C9.69059 7.45685 9.61719 7.48216 9.55645 7.52882C7.57885 9.09042 6.07565 10.9392 5.04685 13.0752C3.75805 15.7488 3.29245 20.4672 7.65565 20.4744C10.2748 20.4792 12.8949 20.4792 15.5157 20.4744C16.6276 20.4712 17.4084 20.396 17.858 20.2488C19.9796 19.5504 20.294 17.5224 19.8956 15.468C19.2356 12.072 17.2436 10.1016 14.9732 7.74962Z" fill="currentColor"/>
<path d="M15.0974 15.4637C15.0974 15.8333 15 16.176 14.8051 16.4918C14.6169 16.8009 14.3347 17.0563 13.9584 17.2579C13.5888 17.4528 13.1486 17.5603 12.6379 17.5805V18.3969H11.9928V17.5704C11.2804 17.5099 10.7059 17.2982 10.2691 16.9353C9.83228 16.5657 9.60044 16.0651 9.57356 15.4334H11.4081C11.4484 15.8366 11.6433 16.0953 11.9928 16.2096V14.6169C11.4686 14.4825 11.0486 14.3515 10.7328 14.2238C10.4236 14.0961 10.1515 13.8912 9.91628 13.6089C9.68108 13.3267 9.56348 12.9403 9.56348 12.4497C9.56348 11.8382 9.7886 11.3477 10.2388 10.9781C10.6958 10.6085 11.2804 10.4001 11.9928 10.3531V9.53662H12.6379V10.3531C13.3435 10.4069 13.9012 10.6118 14.3112 10.968C14.7211 11.3241 14.9496 11.8181 14.9966 12.4497H13.152C13.1116 12.0869 12.9403 11.8517 12.6379 11.7441V13.3065C13.1956 13.4611 13.6257 13.5989 13.9281 13.7198C14.2305 13.8408 14.4993 14.0424 14.7345 14.3246C14.9764 14.6001 15.0974 14.9798 15.0974 15.4637ZM11.388 12.3691C11.388 12.5371 11.4384 12.6782 11.5392 12.7925C11.6467 12.9067 11.7979 13.0075 11.9928 13.0949V11.6937C11.8046 11.7273 11.6568 11.8013 11.5492 11.9155C11.4417 12.023 11.388 12.1742 11.388 12.3691ZM12.6379 16.2398C12.8395 16.2062 12.9974 16.1256 13.1116 15.9979C13.2326 15.8702 13.2931 15.7123 13.2931 15.5241C13.2931 15.3494 13.236 15.2083 13.1217 15.1008C13.0142 14.9865 12.8529 14.8891 12.6379 14.8085V16.2398Z" fill="currentColor"/>
</svg>