<svg width="140" height="141" viewBox="0 0 140 141" fill="none" xmlns="http://www.w3.org/2000/svg">
<ellipse opacity="0.1" cx="70" cy="136.3" rx="70" ry="4.2" fill="#A4A7AE"/>
<path fill-rule="evenodd" clip-rule="evenodd" d="M85.0625 25.7023C84.8484 25.7059 84.6743 25.7999 84.5452 25.9711C84.4083 26.1524 84.3291 26.4185 84.3769 26.7113C84.4626 27.2361 85.036 27.7919 85.9166 27.8452C89.0254 28.0335 92.2553 29.2738 94.9838 31.1154C97.7098 32.9552 100.05 35.4734 101.272 38.3322C101.614 39.1328 102.297 39.4723 102.78 39.3933C103.054 39.3486 103.264 39.1993 103.382 39.0273C103.492 38.8663 103.521 38.6931 103.462 38.5108C101.082 31.1507 92.9255 25.5682 85.0625 25.7023ZM81.6135 27.1627C81.2809 25.1266 82.6707 22.9426 85.0147 22.9027C94.0393 22.7488 103.346 29.0513 106.126 37.6495C106.838 39.8524 105.226 41.8308 103.231 42.1567C101.12 42.5015 99.3876 41.0492 98.6968 39.4323C97.7371 37.1859 95.8153 35.0547 93.4174 33.4362C91.022 31.8195 88.2663 30.7926 85.7473 30.6401C83.9266 30.5298 81.9641 29.3088 81.6135 27.1627ZM70.8712 31.111C55.5902 31.111 42.8375 41.8342 39.9263 56.057C27.7703 57.2135 18.1997 67.2148 18.1997 79.536C18.1997 82.4954 18.7522 85.3307 19.7619 87.9453C17.8846 90.9522 16.7997 94.5049 16.7997 98.311C16.7997 109.136 25.5749 117.911 36.3997 117.911C47.2245 117.911 55.9997 109.136 55.9997 98.311C55.9997 87.4862 47.2245 78.711 36.3997 78.711C30.6003 78.711 25.3892 81.2298 21.8007 85.233C21.279 83.423 20.9997 81.5123 20.9997 79.536C20.9997 68.4003 29.9209 59.3364 41.175 58.7731C41.8319 58.7402 42.3773 58.2546 42.4859 57.6059C44.7285 44.2002 56.5665 33.911 70.8712 33.911C86.783 33.911 99.6754 46.6218 99.6754 62.211V67.161C99.6754 67.9342 100.302 68.561 101.075 68.561H103.265C112.22 68.561 119.484 75.7378 119.484 84.486C119.484 93.2343 112.22 100.411 103.265 100.411H90.3781C89.6049 100.411 88.9781 101.038 88.9781 101.811C88.9781 102.584 89.6049 103.211 90.3781 103.211H103.265C113.722 103.211 122.284 94.825 122.284 84.486C122.284 74.1471 113.722 65.761 103.265 65.761H102.475V62.211C102.475 45.0312 88.2848 31.111 70.8712 31.111ZM59.6402 80.1111C57.3105 80.1111 55.9998 77.4319 57.4296 75.5926L68.0309 61.9549C69.1519 60.5128 71.3312 60.5128 72.4522 61.9549L83.0535 75.5926C84.4832 77.4319 83.1725 80.1111 80.8428 80.1111H73.7415V99.3611C73.7415 100.907 72.4879 102.161 70.9415 102.161H69.5415C67.9951 102.161 66.7415 100.907 66.7415 99.3611V80.1111H59.6402ZM19.5997 98.311C19.5997 89.0326 27.1213 81.511 36.3997 81.511C45.6781 81.511 53.1997 89.0326 53.1997 98.311C53.1997 107.589 45.6781 115.111 36.3997 115.111C27.1213 115.111 19.5997 107.589 19.5997 98.311ZM32.8997 89.211C32.8997 87.278 34.4667 85.711 36.3997 85.711C38.3327 85.711 39.8997 87.278 39.8997 89.211V97.611C39.8997 99.544 38.3327 101.111 36.3997 101.111C34.4667 101.111 32.8997 99.544 32.8997 97.611V89.211ZM36.3997 88.511C36.0131 88.511 35.6997 88.8244 35.6997 89.211V97.611C35.6997 97.9976 36.0131 98.311 36.3997 98.311C36.7863 98.311 37.0997 97.9976 37.0997 97.611V89.211C37.0997 88.8244 36.7863 88.511 36.3997 88.511ZM36.3997 110.911C34.4667 110.911 32.8997 109.344 32.8997 107.411C32.8997 105.478 34.4667 103.911 36.3997 103.911C38.3327 103.911 39.8997 105.478 39.8997 107.411C39.8997 109.344 38.3327 110.911 36.3997 110.911ZM35.6997 107.411C35.6997 107.798 36.0131 108.111 36.3997 108.111C36.7863 108.111 37.0997 107.798 37.0997 107.411C37.0997 107.024 36.7863 106.711 36.3997 106.711C36.0131 106.711 35.6997 107.024 35.6997 107.411Z" fill="#A4A7AE"/>
</svg>
