<svg width="16" height="16" viewBox="0 0 16 16" fill="none" xmlns="http://www.w3.org/2000/svg">
<path d="M6.92943 0.0500078C3.30443 0.637508 0.575679 3.40001 0.0619285 7.00251C-0.0206428 7.75233 -0.0206428 8.50894 0.0619285 9.25876C0.553179 12.7088 3.07818 15.4 6.51193 16.1325C7.02068 16.2413 7.13318 16.25 8.12443 16.25C9.11568 16.25 9.22818 16.2413 9.73318 16.1375C10.7802 15.9163 11.7755 15.4976 12.6657 14.9038C13.612 14.2686 14.4144 13.4418 15.021 12.477C15.6275 11.5121 16.0248 10.4306 16.1869 9.30251C16.2607 8.77501 16.2744 7.61626 16.2082 7.08501C15.9957 5.34251 15.1519 3.63126 13.8832 2.36001C12.7565 1.22713 11.3201 0.452596 9.75443 0.133758C9.30693 0.037508 9.09818 0.0150079 8.27693 0.00250792C7.58568 -0.00624208 7.21193 0.00750775 6.92943 0.0500078ZM7.77693 2.43376V4.22376L7.00818 4.19751C6.07693 4.16626 4.98693 4.08001 4.93943 4.03501C4.89068 3.99251 5.16943 3.28751 5.41693 2.81626C6.00818 1.71001 6.69443 1.01251 7.47318 0.738758C7.62943 0.686258 7.76068 0.638758 7.76818 0.638758C7.77193 0.638758 7.77693 1.44376 7.77693 2.43376ZM8.87693 0.777508C9.75818 1.11751 10.6319 2.19001 11.1894 3.59626C11.2757 3.81876 11.3319 4.01876 11.3107 4.03626C11.2619 4.08376 10.1807 4.16626 9.22318 4.19751L8.42943 4.22251V0.640008L8.55068 0.665008C8.61568 0.683758 8.76318 0.731258 8.87568 0.778758L8.87693 0.777508ZM5.70818 1.21376C5.21693 1.74501 4.66068 2.72876 4.36068 3.58751C4.24818 3.91001 4.22193 3.95001 4.12568 3.95001C3.95193 3.95001 2.56193 3.70001 2.24443 3.61251C2.17443 3.59626 2.17443 3.58251 2.26193 3.46501C2.42193 3.23501 3.05318 2.59376 3.36568 2.33751C4.13025 1.72575 4.99691 1.25391 5.92568 0.943758C5.94318 0.943758 5.84693 1.06501 5.70818 1.21376ZM10.8369 1.13501C11.9019 1.54001 13.0407 2.35501 13.8057 3.24751C14.0182 3.50001 14.0657 3.58251 14.0182 3.61001C13.9432 3.65251 12.2882 3.94876 12.1269 3.94876C12.0232 3.94876 12.0019 3.91876 11.8932 3.59126C11.6019 2.75126 11.0319 1.74876 10.5407 1.21751C10.2632 0.912508 10.2632 0.917508 10.8369 1.13501ZM3.42193 4.51501C3.93068 4.59751 4.03943 4.62751 4.01693 4.68126C3.89568 5.00251 3.67443 6.49376 3.62193 7.31126L3.59193 7.82626H0.635679L0.666928 7.44626C0.731928 6.56251 0.979429 5.70876 1.43193 4.79376L1.73568 4.18001L2.26568 4.29751C2.56193 4.36251 3.07818 4.45876 3.42193 4.51501ZM14.8869 4.92876C15.2695 5.72803 15.505 6.58972 15.5819 7.47251L15.6132 7.82626H12.6619L12.6094 7.13751C12.5649 6.44567 12.4675 5.75825 12.3182 5.08126C12.2808 4.92705 12.2491 4.77153 12.2232 4.61501C12.2269 4.61501 12.5919 4.55001 13.0357 4.47626C13.4794 4.39751 13.9869 4.30126 14.1657 4.26376L14.4907 4.18376L14.5744 4.31501C14.6219 4.39001 14.7619 4.66376 14.8869 4.92876ZM5.60443 4.77626C5.87818 4.80251 6.48193 4.83376 6.94193 4.85126L7.77693 4.87626V7.82626H4.25693V7.68251C4.25693 7.11126 4.42193 5.87001 4.59068 5.15501L4.69943 4.68001L4.90443 4.70751C5.01318 4.72376 5.32943 4.75501 5.60443 4.77626ZM11.5969 4.85126C11.7619 5.46876 11.9194 6.53626 11.9719 7.35501L12.0007 7.82626H8.42818V4.87501L9.35443 4.84501C9.85818 4.82751 10.5319 4.78876 10.8419 4.75751C11.1544 4.72751 11.4407 4.69751 11.4794 4.69251C11.5319 4.68876 11.5669 4.74126 11.5969 4.85126ZM3.62193 8.94501C3.67443 9.76876 3.89693 11.2575 4.01693 11.58C4.03943 11.6325 3.90943 11.6675 3.33568 11.7588C2.94443 11.825 2.42693 11.925 2.17943 11.9813L1.73568 12.0813L1.43193 11.4675C0.979429 10.5525 0.731928 9.69876 0.666928 8.81501L0.635679 8.43501H3.59193L3.62193 8.94501ZM7.77693 9.90751V11.385L6.89943 11.41C6.41193 11.4275 5.72443 11.4725 5.36443 11.5063L4.70443 11.5713C4.69943 11.5713 4.64818 11.3625 4.58693 11.1013C4.43183 10.3838 4.32864 9.65607 4.27818 8.92376L4.24818 8.43626H7.77693V9.90751ZM11.9932 8.59626C11.9932 9.14626 11.8269 10.3963 11.6582 11.1063L11.5494 11.5813L11.3457 11.5538C10.6624 11.4787 9.97648 11.4312 9.28943 11.4113L8.42943 11.385V8.43501H11.9932V8.59751V8.59626ZM15.5819 8.81501C15.5169 9.67751 15.2657 10.5563 14.8182 11.4675L14.5132 12.0813L14.0482 11.9813C13.6685 11.9029 13.2876 11.8304 12.9057 11.7638C12.5357 11.7025 12.2269 11.6463 12.2232 11.6463C12.2182 11.6413 12.2619 11.4325 12.3182 11.18C12.4619 10.5475 12.5494 9.92501 12.6094 9.12001L12.6619 8.43501H15.6132L15.5819 8.81501ZM7.77693 13.8325V15.6138L7.61568 15.57C6.80818 15.3525 6.03818 14.6075 5.41693 13.445C5.22943 13.0925 4.90818 12.33 4.90818 12.2388C4.90818 12.2125 5.20443 12.1725 5.59568 12.1425C5.96943 12.1163 6.34693 12.0863 6.42943 12.0775C6.51193 12.0725 6.85068 12.06 7.18193 12.06L7.77693 12.0513V13.8325ZM10.6457 12.1425C10.9932 12.1675 11.2932 12.2075 11.3107 12.225C11.3319 12.2425 11.2757 12.4425 11.1882 12.665C10.5669 14.2463 9.56693 15.3575 8.55068 15.5963L8.42943 15.6225V12.0375L9.22443 12.0638C9.65818 12.0763 10.2982 12.1125 10.6457 12.1425ZM4.35693 12.6738C4.63068 13.475 5.19943 14.49 5.65193 14.9913C5.77693 15.1263 5.86443 15.2438 5.85193 15.2575C5.76443 15.3488 4.38193 14.67 3.80068 14.25C3.07443 13.7275 2.09193 12.73 2.22568 12.6525C2.26193 12.635 2.60943 12.5613 3.00068 12.49C3.89568 12.325 3.90068 12.325 4.08318 12.3163L4.23443 12.3125L4.35693 12.675V12.6738ZM13.1619 12.4688C13.4869 12.5313 13.8269 12.595 13.9182 12.6213L14.0832 12.665L13.9919 12.7963C13.8269 13.0263 13.2007 13.6675 12.8832 13.9238C12.2707 14.4238 11.5019 14.8688 10.7232 15.17C10.5895 15.226 10.4531 15.2752 10.3144 15.3175C10.3019 15.3175 10.4019 15.1963 10.5407 15.0425C11.0369 14.5125 11.6157 13.4925 11.8932 12.665L12.0144 12.3025L12.2932 12.33C12.4494 12.3475 12.8407 12.4088 13.1619 12.4688Z" fill="#292929"/>
</svg>
