<svg viewBox="0 0 89 89" fill="none" xmlns="http://www.w3.org/2000/svg">
<path d="M0 28C0 12.536 12.536 0 28 0H61C76.464 0 89 12.536 89 28V61C89 76.464 76.464 89 61 89H28C12.536 89 0 76.464 0 61V28Z" fill="#EFF8FF"/>
<path fill-rule="evenodd" clip-rule="evenodd" d="M29.7694 44.25H37.2768C37.5302 39.365 39.2887 34.6861 42.2974 30.8507C35.4738 31.6631 30.1299 37.2974 29.7694 44.25ZM44 31.1355C40.8798 34.8217 39.0461 39.4266 38.779 44.25H49.221C48.9539 39.4266 47.1202 34.8217 44 31.1355ZM49.221 45.75C48.9539 50.5734 47.1202 55.1783 44 58.8645C40.8798 55.1783 39.0461 50.5734 38.779 45.75H49.221ZM37.2768 45.75H29.7694C30.1299 52.7026 35.4738 58.3369 42.2974 59.1493C39.2887 55.3139 37.5302 50.635 37.2768 45.75ZM45.7026 59.1493C48.7113 55.3139 50.4698 50.635 50.7232 45.75H58.2306C57.8701 52.7026 52.5262 58.3369 45.7026 59.1493ZM58.2306 44.25H50.7232C50.4698 39.365 48.7113 34.6861 45.7026 30.8507C52.5262 31.6631 57.8701 37.2974 58.2306 44.25ZM28.25 45C28.25 36.3015 35.3015 29.25 44 29.25C52.6985 29.25 59.75 36.3015 59.75 45C59.75 53.6985 52.6985 60.75 44 60.75C35.3015 60.75 28.25 53.6985 28.25 45Z" fill="#175CD3"/>
</svg>
