<svg width="10" height="6" viewBox="0 0 10 6" fill="none" xmlns="http://www.w3.org/2000/svg">
<path fill-rule="evenodd" clip-rule="evenodd" d="M0.292433 0.304675C0.479735 0.117581 0.733736 0.0124767 0.998581 0.0124767C1.26342 0.0124767 1.51743 0.117581 1.70473 0.304675L4.99376 3.59106L8.28278 0.304675C8.37492 0.209357 8.48513 0.133328 8.60699 0.0810238C8.72885 0.0287201 8.85991 0.00118918 8.99253 3.76812e-05C9.12515 -0.00111382 9.25667 0.0241369 9.37941 0.0743168C9.50216 0.124497 9.61368 0.198601 9.70746 0.292305C9.80124 0.386009 9.8754 0.497437 9.92562 0.620086C9.97584 0.742736 10.0011 0.874151 9.99996 1.00666C9.99881 1.13918 9.97126 1.27013 9.91891 1.39189C9.86656 1.51365 9.79047 1.62377 9.69508 1.71583L5.6999 5.7078C5.5126 5.8949 5.2586 6 4.99376 6C4.72891 6 4.47491 5.8949 4.28761 5.7078L0.292433 1.71583C0.105189 1.52868 0 1.27489 0 1.01026C0 0.745624 0.105189 0.491826 0.292433 0.304675Z" fill="#37352F"/>
</svg>
