<svg viewBox="0 0 8 15" fill="none" xmlns="http://www.w3.org/2000/svg">
<path fill-rule="evenodd" clip-rule="evenodd" d="M3.18182 1.98909C3.18182 1.16818 2.46909 0.5 1.59091 0.5C0.712727 0.5 0 1.16818 0 1.98909C0 2.81127 0.712727 3.47818 1.59091 3.47818C2.46909 3.47818 3.18182 2.81127 3.18182 1.98909ZM3.18182 13.0109C3.18182 12.1887 2.46909 11.5218 1.59091 11.5218C0.712727 11.5218 0 12.1887 0 13.0109C0 13.8318 0.712727 14.5 1.59091 14.5C2.46909 14.5 3.18182 13.8318 3.18182 13.0109ZM1.59091 6.01091C2.46909 6.01091 3.18182 6.67909 3.18182 7.5C3.18182 8.32091 2.46909 8.98909 1.59091 8.98909C0.712727 8.98909 0 8.32091 0 7.5C0 6.67909 0.712727 6.01091 1.59091 6.01091ZM7.95455 1.98909C7.95455 1.16818 7.24182 0.5 6.36364 0.5C5.48546 0.5 4.77273 1.16818 4.77273 1.98909C4.77273 2.81127 5.48546 3.47818 6.36364 3.47818C7.24182 3.47818 7.95455 2.81127 7.95455 1.98909ZM6.36364 11.5218C7.24182 11.5218 7.95455 12.1887 7.95455 13.0109C7.95455 13.8318 7.24182 14.5 6.36364 14.5C5.48546 14.5 4.77273 13.8318 4.77273 13.0109C4.77273 12.1887 5.48546 11.5218 6.36364 11.5218ZM7.95455 7.5C7.95455 6.67909 7.24182 6.01091 6.36364 6.01091C5.48546 6.01091 4.77273 6.67909 4.77273 7.5C4.77273 8.32091 5.48546 8.98909 6.36364 8.98909C7.24182 8.98909 7.95455 8.32091 7.95455 7.5Z" fill="currentColor"/>
</svg>
