<svg width="8" height="12" viewBox="0 0 8 12" fill="none" xmlns="http://www.w3.org/2000/svg">
<path d="M1.83464 11.3334C1.51241 11.3334 1.23741 11.2195 1.00964 10.9917C0.781858 10.764 0.667969 10.489 0.667969 10.1667C0.667969 9.84453 0.781858 9.56953 1.00964 9.34175C1.23741 9.11397 1.51241 9.00008 1.83464 9.00008C2.15686 9.00008 2.43186 9.11397 2.65964 9.34175C2.88741 9.56953 3.0013 9.84453 3.0013 10.1667C3.0013 10.489 2.88741 10.764 2.65964 10.9917C2.43186 11.2195 2.15686 11.3334 1.83464 11.3334ZM6.16797 11.3334C5.84575 11.3334 5.57075 11.2195 5.34297 10.9917C5.11519 10.764 5.0013 10.489 5.0013 10.1667C5.0013 9.84453 5.11519 9.56953 5.34297 9.34175C5.57075 9.11397 5.84575 9.00008 6.16797 9.00008C6.49019 9.00008 6.76519 9.11397 6.99297 9.34175C7.22075 9.56953 7.33463 9.84453 7.33463 10.1667C7.33463 10.489 7.22075 10.764 6.99297 10.9917C6.76519 11.2195 6.49019 11.3334 6.16797 11.3334ZM1.83464 7.16675C1.51241 7.16675 1.23741 7.05286 1.00964 6.82508C0.781858 6.5973 0.667969 6.3223 0.667969 6.00008C0.667969 5.67786 0.781858 5.40286 1.00964 5.17508C1.23741 4.9473 1.51241 4.83342 1.83464 4.83342C2.15686 4.83342 2.43186 4.9473 2.65964 5.17508C2.88741 5.40286 3.0013 5.67786 3.0013 6.00008C3.0013 6.3223 2.88741 6.5973 2.65964 6.82508C2.43186 7.05286 2.15686 7.16675 1.83464 7.16675ZM6.16797 7.16675C5.84575 7.16675 5.57075 7.05286 5.34297 6.82508C5.11519 6.5973 5.0013 6.3223 5.0013 6.00008C5.0013 5.67786 5.11519 5.40286 5.34297 5.17508C5.57075 4.9473 5.84575 4.83342 6.16797 4.83342C6.49019 4.83342 6.76519 4.9473 6.99297 5.17508C7.22075 5.40286 7.33463 5.67786 7.33463 6.00008C7.33463 6.3223 7.22075 6.5973 6.99297 6.82508C6.76519 7.05286 6.49019 7.16675 6.16797 7.16675ZM1.83464 3.00008C1.51241 3.00008 1.23741 2.88619 1.00964 2.65841C0.781858 2.43064 0.667969 2.15564 0.667969 1.83341C0.667969 1.51119 0.781858 1.23619 1.00964 1.00841C1.23741 0.780637 1.51241 0.666748 1.83464 0.666748C2.15686 0.666748 2.43186 0.780637 2.65964 1.00841C2.88741 1.23619 3.0013 1.51119 3.0013 1.83341C3.0013 2.15564 2.88741 2.43064 2.65964 2.65841C2.43186 2.88619 2.15686 3.00008 1.83464 3.00008ZM6.16797 3.00008C5.84575 3.00008 5.57075 2.88619 5.34297 2.65841C5.11519 2.43064 5.0013 2.15564 5.0013 1.83341C5.0013 1.51119 5.11519 1.23619 5.34297 1.00841C5.57075 0.780637 5.84575 0.666748 6.16797 0.666748C6.49019 0.666748 6.76519 0.780637 6.99297 1.00841C7.22075 1.23619 7.33463 1.51119 7.33463 1.83341C7.33463 2.15564 7.22075 2.43064 6.99297 2.65841C6.76519 2.88619 6.49019 3.00008 6.16797 3.00008Z" fill="#76746F"/>
</svg>
