<svg viewBox="0 0 89 89" fill="none" xmlns="http://www.w3.org/2000/svg">
<path d="M0 28C0 12.536 12.536 0 28 0H61C76.464 0 89 12.536 89 28V61C89 76.464 76.464 89 61 89H28C12.536 89 0 76.464 0 61V28Z" fill="#F0FCF4"/>
<path d="M33.6287 55C24.1563 55 20.2095 44.2171 28.5767 37.9271C28.261 28.1926 38.0491 23.1007 45.9427 30.5888C52.4155 29.3907 56.2045 31.0381 58.7304 36.729C71.676 40.1735 68.0449 55 57.3096 55" stroke="#3F9066" stroke-width="2" stroke-linecap="round"/>
<path d="M53 58.0506V51C53 49.8954 52.1046 49 51 49L46.7962 49C46.1695 48.9999 45.5791 48.7063 45.2011 48.2065L44.4172 47.1701C43.8597 46.4331 42.989 46 42.0649 46L39 46C37.8954 46 37 46.8955 37 48L37 58.0506C37 59.6795 38.3205 61 39.9494 61H50.0506C51.6795 61 53 59.6795 53 58.0506Z" stroke="#3F9066" stroke-width="2"/>
</svg>
