<svg width="14" height="14" viewBox="0 0 14 14" fill="none" xmlns="http://www.w3.org/2000/svg">
<g clip-path="url(#clip0_19628_23090)">
<path d="M1.72277 9.91757C1.62289 9.91755 1.52525 9.88791 1.44221 9.83241C1.35916 9.77691 1.29444 9.69803 1.25622 9.60574C1.218 9.51346 1.20799 9.41192 1.22747 9.31395C1.24695 9.21598 1.29504 9.12599 1.36566 9.05535L9.259 1.16202C9.30559 1.11377 9.36133 1.07529 9.42295 1.04882C9.48458 1.02235 9.55086 1.00841 9.61793 1.00783C9.685 1.00725 9.75151 1.02003 9.81358 1.04543C9.87566 1.07082 9.93206 1.10833 9.97948 1.15576C10.0269 1.20318 10.0644 1.25958 10.0898 1.32165C10.1152 1.38373 10.128 1.45024 10.1274 1.51731C10.1268 1.58438 10.1129 1.65066 10.0864 1.71228C10.0599 1.77391 10.0215 1.82965 9.97322 1.87624L2.07989 9.76957C1.98139 9.86807 1.85208 9.91757 1.72277 9.91757Z" fill="currentColor"/>
<path d="M0.943012 13.5649C0.867642 13.565 0.793214 13.5482 0.725184 13.5157C0.657153 13.4833 0.597246 13.436 0.549853 13.3774C0.50246 13.3188 0.468783 13.2503 0.451291 13.177C0.433799 13.1037 0.432935 13.0274 0.448763 12.9537L1.22916 9.31618C1.24289 9.25115 1.26933 9.18947 1.30695 9.13467C1.34457 9.07988 1.39263 9.03305 1.44839 8.99687C1.50414 8.96069 1.56649 8.93586 1.63185 8.92382C1.69722 8.91178 1.76432 8.91276 1.82931 8.9267C1.89429 8.94064 1.95589 8.96727 2.01056 9.00506C2.06524 9.04286 2.11192 9.09107 2.14793 9.14693C2.18393 9.2028 2.20856 9.26523 2.2204 9.33063C2.23223 9.39603 2.23104 9.46313 2.2169 9.52807L1.4365 13.1656C1.4123 13.2786 1.35012 13.3798 1.26032 13.4525C1.17052 13.5251 1.05853 13.5648 0.943012 13.5649ZM4.58005 12.7845C4.48016 12.7845 4.38253 12.7549 4.29948 12.6993C4.21644 12.6438 4.15171 12.565 4.11349 12.4727C4.07527 12.3804 4.06527 12.2789 4.08475 12.1809C4.10423 12.0829 4.15232 11.9929 4.22294 11.9223L12.1163 4.0292C12.1629 3.98096 12.2186 3.94248 12.2802 3.91601C12.3419 3.88954 12.4081 3.8756 12.4752 3.87502C12.5423 3.87444 12.6088 3.88722 12.6709 3.91261C12.7329 3.93801 12.7893 3.97552 12.8368 4.02294C12.8842 4.07037 12.9217 4.12677 12.9471 4.18884C12.9725 4.25092 12.9853 4.31743 12.9847 4.3845C12.9841 4.45157 12.9702 4.51785 12.9437 4.57947C12.9172 4.6411 12.8787 4.69683 12.8305 4.74343L4.93741 12.6365C4.89054 12.6835 4.83484 12.7208 4.77351 12.7462C4.71218 12.7716 4.64643 12.7846 4.58005 12.7845Z" fill="currentColor"/>
<path d="M0.941691 13.5625C0.817227 13.562 0.697335 13.5155 0.604993 13.4321C0.51265 13.3486 0.454354 13.234 0.441275 13.1102C0.428197 12.9865 0.461256 12.8622 0.534118 12.7613C0.606979 12.6604 0.714518 12.5899 0.836124 12.5634L4.47366 11.783C4.60447 11.7554 4.74089 11.7807 4.85303 11.8535C4.96517 11.9263 5.04389 12.0405 5.07193 12.1713C5.09997 12.302 5.07505 12.4385 5.00263 12.5508C4.9302 12.6632 4.81618 12.7423 4.68556 12.7707L1.04802 13.5511C1.01309 13.5588 0.97744 13.5626 0.941691 13.5625ZM11.0444 6.31747C10.978 6.3176 10.9123 6.30458 10.851 6.27918C10.7897 6.25378 10.7341 6.21649 10.6873 6.16947L7.83011 3.31233C7.78187 3.26573 7.74339 3.21 7.71692 3.14837C7.69045 3.08675 7.67651 3.02046 7.67593 2.9534C7.67535 2.88633 7.68813 2.81982 7.71352 2.75774C7.73892 2.69566 7.77643 2.63927 7.82385 2.59184C7.87128 2.54442 7.92768 2.50691 7.98975 2.48151C8.05183 2.45612 8.11834 2.44334 8.18541 2.44392C8.25248 2.4445 8.31876 2.45843 8.38038 2.48491C8.44201 2.51138 8.49774 2.54986 8.54434 2.5981L11.4015 5.45525C11.4721 5.52589 11.5202 5.61588 11.5397 5.71385C11.5592 5.81182 11.5492 5.91336 11.5109 6.00564C11.4727 6.09793 11.408 6.17681 11.3249 6.23231C11.2419 6.28781 11.1443 6.31745 11.0444 6.31747ZM12.4731 4.88902C12.3731 4.8891 12.2754 4.85952 12.1922 4.80402C12.1091 4.74853 12.0443 4.66961 12.006 4.57727C11.9678 4.48492 11.9578 4.3833 11.9773 4.28526C11.9968 4.18723 12.045 4.09719 12.1157 4.02655C12.3968 3.74546 12.5516 3.36486 12.5516 2.95521C12.5516 2.54557 12.3968 2.16497 12.1157 1.88388C11.8344 1.60253 11.4538 1.44772 11.0441 1.44772C10.6345 1.44772 10.2539 1.60253 9.97278 1.88388C9.92587 1.93079 9.87018 1.96801 9.80888 1.99339C9.74759 2.01878 9.68189 2.03185 9.61555 2.03185C9.5492 2.03185 9.48351 2.01878 9.42221 1.99339C9.36092 1.96801 9.30522 1.93079 9.25831 1.88388C9.2114 1.83697 9.17418 1.78127 9.14879 1.71998C9.1234 1.65868 9.11033 1.59299 9.11033 1.52664C9.11033 1.4603 9.1234 1.3946 9.14879 1.3333C9.17418 1.27201 9.2114 1.21632 9.25831 1.1694C9.73008 0.697378 10.3642 0.4375 11.0441 0.4375C11.7237 0.4375 12.3582 0.697378 12.8299 1.1694C13.302 1.64117 13.5618 2.27534 13.5618 2.95521C13.5618 3.63509 13.302 4.26925 12.8299 4.74103C12.7832 4.78802 12.7275 4.82528 12.6663 4.85068C12.605 4.87608 12.5394 4.88911 12.4731 4.88902Z" fill="currentColor"/>
<line x1="6.1875" y1="13.0625" x2="13.0625" y2="13.0625" stroke="#6B7280" stroke-linecap="round"/>
</g>
<defs>
<clipPath id="clip0_19628_23090">
<rect width="14" height="14" fill="white"/>
</clipPath>
</defs>
</svg>
