<svg width="16" height="16" viewBox="0 0 16 16" fill="none" xmlns="http://www.w3.org/2000/svg">
<g clip-path="url(#clip0_18998_27172)">
<path d="M10.2025 11.135H1.5C1.23489 11.1346 0.980723 11.0269 0.793259 10.8354C0.605794 10.6439 0.500331 10.3842 0.5 10.1134V5.73085C0.500331 5.46 0.605794 5.20035 0.793259 5.00883C0.980723 4.81731 1.23489 4.70957 1.5 4.70923H10.2025C10.2688 4.70923 10.3324 4.73614 10.3793 4.78404C10.4262 4.83194 10.4525 4.8969 10.4525 4.96464C10.4525 5.03237 10.4262 5.09734 10.3793 5.14523C10.3324 5.19313 10.2688 5.22004 10.2025 5.22004H1.5C1.36743 5.22017 1.24033 5.27404 1.14659 5.3698C1.05285 5.46557 1.00013 5.59541 1 5.73085V10.1134C1.00013 10.2488 1.05285 10.3786 1.14659 10.4744C1.24033 10.5702 1.36743 10.624 1.5 10.6242H10.2025C10.2688 10.6242 10.3324 10.6511 10.3793 10.699C10.4262 10.7469 10.4525 10.8118 10.4525 10.8796C10.4525 10.9473 10.4262 11.0123 10.3793 11.0602C10.3324 11.1081 10.2688 11.135 10.2025 11.135ZM15.5 10.1134V5.73085C15.4997 5.46 15.3942 5.20035 15.2067 5.00883C15.0193 4.81731 14.7651 4.70957 14.5 4.70923H14.0775C14.0112 4.70923 13.9476 4.73614 13.9007 4.78404C13.8538 4.83194 13.8275 4.8969 13.8275 4.96464C13.8275 5.03237 13.8538 5.09734 13.9007 5.14523C13.9476 5.19313 14.0112 5.22004 14.0775 5.22004H14.5C14.6326 5.22017 14.7597 5.27404 14.8534 5.3698C14.9471 5.46557 14.9999 5.59541 15 5.73085V10.1134C14.9999 10.2488 14.9471 10.3786 14.8534 10.4744C14.7597 10.5702 14.6326 10.624 14.5 10.6242H14.0775C14.0112 10.6242 13.9476 10.6511 13.9007 10.699C13.8538 10.7469 13.8275 10.8118 13.8275 10.8796C13.8275 10.9473 13.8538 11.0123 13.9007 11.0602C13.9476 11.1081 14.0112 11.135 14.0775 11.135H14.5C14.7651 11.1346 15.0193 11.0269 15.2067 10.8354C15.3942 10.6439 15.4997 10.3842 15.5 10.1134ZM7.64375 9.01104V6.83342C7.64375 6.76568 7.61741 6.70072 7.57053 6.65282C7.52364 6.60493 7.46005 6.57802 7.39375 6.57802C7.32745 6.57802 7.26386 6.60493 7.21697 6.65282C7.17009 6.70072 7.14375 6.76568 7.14375 6.83342V9.01104C7.14375 9.07878 7.17009 9.14374 7.21697 9.19164C7.26386 9.23954 7.32745 9.26645 7.39375 9.26645C7.46005 9.26645 7.52364 9.23954 7.57053 9.19164C7.61741 9.14374 7.64375 9.07878 7.64375 9.01104ZM14.88 14.9892H12.39V1.01081H14.88C14.9463 1.01081 15.0099 0.983897 15.0568 0.936C15.1037 0.888102 15.13 0.82314 15.13 0.755403C15.13 0.687666 15.1037 0.622703 15.0568 0.574806C15.0099 0.526908 14.9463 0.5 14.88 0.5H9.4C9.3337 0.5 9.27011 0.526908 9.22322 0.574806C9.17634 0.622703 9.15 0.687666 9.15 0.755403C9.15 0.82314 9.17634 0.888102 9.22322 0.936C9.27011 0.983897 9.3337 1.01081 9.4 1.01081H11.89V14.9892H9.4C9.3337 14.9892 9.27011 15.0161 9.22322 15.064C9.17634 15.1119 9.15 15.1769 9.15 15.2446C9.15 15.3123 9.17634 15.3773 9.22322 15.4252C9.27011 15.4731 9.3337 15.5 9.4 15.5H14.88C14.9463 15.5 15.0099 15.4731 15.0568 15.4252C15.1037 15.3773 15.13 15.3123 15.13 15.2446C15.13 15.1769 15.1037 15.1119 15.0568 15.064C15.0099 15.0161 14.9463 14.9892 14.88 14.9892Z" fill="#37352F" stroke="#37352F" stroke-width="0.5"/>
</g>
<defs>
<clipPath id="clip0_18998_27172">
<rect width="16" height="16" fill="white"/>
</clipPath>
</defs>
</svg>