<svg width="11" height="11" viewBox="0 0 11 11" fill="none" xmlns="http://www.w3.org/2000/svg">
<path d="M5.17684 1.01843H3.39038C1.92118 1.01843 1 2.05858 1 3.53113V7.50347C1 8.97602 1.91688 10.0162 3.39038 10.0162H7.60639C9.08037 10.0162 9.99725 8.97602 9.99725 7.50347V5.57893" stroke="#21263C" stroke-linecap="round" stroke-linejoin="round"/>
<path fill-rule="evenodd" clip-rule="evenodd" d="M3.90373 4.90378L7.47425 1.33326C7.91907 0.888914 8.64006 0.888914 9.08488 1.33326L9.66635 1.91473C10.1112 2.35955 10.1112 3.08101 9.66635 3.52536L6.07863 7.11308C5.88417 7.30754 5.62043 7.41695 5.34522 7.41695H3.55542L3.60033 5.61091C3.60702 5.34526 3.71548 5.09203 3.90373 4.90378Z" stroke="#21263C" stroke-linecap="round" stroke-linejoin="round"/>
<path d="M6.93164 1.88489L9.11323 4.06647" stroke="#21263C" stroke-linecap="round" stroke-linejoin="round"/>
</svg>
