<svg  viewBox="0 0 12 13" fill="none" xmlns="http://www.w3.org/2000/svg">
<path fill-rule="evenodd" clip-rule="evenodd" d="M6.68216 0.398212C7.14369 0.136812 7.69023 0.0694717 8.20143 0.210998C8.42809 0.273752 8.62176 0.383072 8.80429 0.506545C8.97769 0.623812 9.17656 0.779065 9.40709 0.959005L9.44069 0.985258C9.67123 1.1652 9.87016 1.32045 10.026 1.46019C10.1901 1.60732 10.3432 1.76866 10.4591 1.97331C10.7205 2.43486 10.7878 2.98135 10.6463 3.49255C10.5836 3.71921 10.4742 3.9129 10.3508 4.09546C10.2335 4.26885 10.0782 4.46776 9.89823 4.69828L5.16309 10.7645C5.15109 10.7798 5.13929 10.7949 5.12763 10.8099C4.90536 11.0949 4.73729 11.3104 4.52923 11.4874C4.35313 11.6372 4.1583 11.7635 3.94964 11.863C3.70313 11.9806 3.43778 12.046 3.08679 12.1325C3.06839 12.1371 3.04975 12.1417 3.03087 12.1463L1.61432 12.496C1.51622 12.5203 1.40424 12.548 1.30546 12.5631C1.19534 12.5801 1.02482 12.5954 0.836488 12.5351C0.610088 12.4626 0.416914 12.3118 0.291621 12.1098C0.187394 11.9417 0.160874 11.7726 0.150561 11.6617C0.141308 11.5621 0.140981 11.4468 0.140694 11.3457C0.140674 11.3395 0.140661 11.3333 0.140641 11.3271L0.136061 9.88668C0.135994 9.86721 0.135928 9.84801 0.135861 9.82908C0.134561 9.46761 0.133581 9.19428 0.187828 8.92661C0.233748 8.70001 0.308934 8.48035 0.411501 8.27321C0.532674 8.02841 0.700921 7.81308 0.923468 7.52821C0.935134 7.51328 0.946954 7.49815 0.958928 7.48281L5.69409 1.41658C5.87403 1.18605 6.02929 0.987138 6.16903 0.831278C6.31616 0.667178 6.47749 0.514112 6.68216 0.398212ZM7.84563 1.49599C7.67523 1.44882 7.49309 1.47127 7.33923 1.5584C7.31309 1.5732 7.26349 1.60791 7.16183 1.72135C7.05609 1.83925 6.92876 2.00175 6.73203 2.2538L8.8341 3.89464C9.03089 3.6426 9.15756 3.47965 9.24629 3.34848C9.33169 3.22229 9.35329 3.16573 9.36129 3.13679C9.40849 2.96639 9.38603 2.78423 9.29889 2.63038C9.28409 2.60425 9.24936 2.55465 9.13596 2.45294C9.01803 2.34723 8.85556 2.21993 8.60349 2.02319C8.35143 1.82644 8.18849 1.69971 8.05736 1.61099C7.93116 1.52564 7.87456 1.50401 7.84563 1.49599ZM8.01369 4.94568L5.91163 3.30484L2.00997 8.30321C1.73679 8.65315 1.65976 8.75701 1.60643 8.86475C1.55515 8.96835 1.51755 9.07815 1.4946 9.19141C1.47073 9.30921 1.46797 9.43848 1.46939 9.88241L1.47344 11.1575L2.71129 10.8519C3.1423 10.7455 3.26702 10.7114 3.3755 10.6596C3.47983 10.6099 3.57725 10.5467 3.6653 10.4718C3.75685 10.3939 3.83887 10.294 4.11204 9.94408L8.01369 4.94568ZM5.89956 12.0003C5.89956 11.6321 6.19803 11.3337 6.56623 11.3337H11.2329C11.6011 11.3337 11.8996 11.6321 11.8996 12.0003C11.8996 12.3685 11.6011 12.667 11.2329 12.667H6.56623C6.19803 12.667 5.89956 12.3685 5.89956 12.0003Z" fill="#535862"/>
</svg>
