<svg viewBox="0 0 20 20" fill="none" xmlns="http://www.w3.org/2000/svg">
<circle cx="10" cy="10" r="9.5" fill="white" stroke="#FFBE0E"/>
<mask id="path-2-inside-1_7774_235812" fill="white">
<path fill-rule="evenodd" clip-rule="evenodd" d="M5.50257 14.9809C5.42861 15.0052 5.34897 15.0064 5.27433 14.9842C5.19969 14.962 5.13363 14.9175 5.085 14.8567C5.04899 14.812 5.02346 14.7597 5.01028 14.7038C4.99709 14.648 4.99659 14.5898 5.00881 14.5337L5.59706 11.7915C5.60703 11.7057 5.64569 11.6257 5.70678 11.5645L10.5964 6.67583C10.6159 6.6508 10.6385 6.62829 10.6635 6.60879L11.7219 5.55229C11.7378 5.53553 11.7551 5.52024 11.7737 5.50659C12.1297 5.17789 12.5974 4.99681 13.082 5.00004C13.6002 5.00004 14.0833 5.19809 14.4422 5.55762C14.8026 5.91715 14.9999 6.40008 14.9999 6.91805C15.0019 7.17062 14.9537 7.42107 14.858 7.65486C14.7624 7.88865 14.6213 8.10114 14.4429 8.28001L8.42859 14.2923C8.36653 14.3544 8.28504 14.3934 8.19771 14.4027L5.50257 14.9809ZM5.88585 14.1117L7.96683 13.6654L12.5387 9.09505L10.902 7.45887L6.3339 12.0261L5.88585 14.1117ZM11.446 6.91501L13.0828 8.55118L13.8737 7.76128C13.8814 7.75175 13.8896 7.7426 13.8981 7.73385C14.1122 7.51981 14.2303 7.2296 14.2303 6.91805C14.2303 6.60575 14.1122 6.31629 13.8981 6.10149C13.7908 5.99498 13.6634 5.91078 13.5233 5.85378C13.3832 5.79678 13.2333 5.76809 13.082 5.76938C12.7696 5.76938 12.4801 5.88745 12.2652 6.10149C12.2523 6.11438 12.2386 6.12634 12.224 6.13729L11.4468 6.91501H11.446Z"/>
</mask>
<path fill-rule="evenodd" clip-rule="evenodd" d="M5.50257 14.9809C5.42861 15.0052 5.34897 15.0064 5.27433 14.9842C5.19969 14.962 5.13363 14.9175 5.085 14.8567C5.04899 14.812 5.02346 14.7597 5.01028 14.7038C4.99709 14.648 4.99659 14.5898 5.00881 14.5337L5.59706 11.7915C5.60703 11.7057 5.64569 11.6257 5.70678 11.5645L10.5964 6.67583C10.6159 6.6508 10.6385 6.62829 10.6635 6.60879L11.7219 5.55229C11.7378 5.53553 11.7551 5.52024 11.7737 5.50659C12.1297 5.17789 12.5974 4.99681 13.082 5.00004C13.6002 5.00004 14.0833 5.19809 14.4422 5.55762C14.8026 5.91715 14.9999 6.40008 14.9999 6.91805C15.0019 7.17062 14.9537 7.42107 14.858 7.65486C14.7624 7.88865 14.6213 8.10114 14.4429 8.28001L8.42859 14.2923C8.36653 14.3544 8.28504 14.3934 8.19771 14.4027L5.50257 14.9809ZM5.88585 14.1117L7.96683 13.6654L12.5387 9.09505L10.902 7.45887L6.3339 12.0261L5.88585 14.1117ZM11.446 6.91501L13.0828 8.55118L13.8737 7.76128C13.8814 7.75175 13.8896 7.7426 13.8981 7.73385C14.1122 7.51981 14.2303 7.2296 14.2303 6.91805C14.2303 6.60575 14.1122 6.31629 13.8981 6.10149C13.7908 5.99498 13.6634 5.91078 13.5233 5.85378C13.3832 5.79678 13.2333 5.76809 13.082 5.76938C12.7696 5.76938 12.4801 5.88745 12.2652 6.10149C12.2523 6.11438 12.2386 6.12634 12.224 6.13729L11.4468 6.91501H11.446Z" fill="#292929"/>
<path d="M5.50257 14.9809L5.29283 14.0031L5.24062 14.0143L5.1899 14.031L5.50257 14.9809ZM5.085 14.8567L5.86594 14.2321L5.86399 14.2297L5.085 14.8567ZM5.00881 14.5337L5.98591 14.7465L5.98656 14.7435L5.00881 14.5337ZM5.59706 11.7915L6.57481 12.0013L6.58486 11.9545L6.59038 11.9069L5.59706 11.7915ZM5.70678 11.5645L4.99974 10.8574L4.99929 10.8578L5.70678 11.5645ZM10.5964 6.67583L11.3035 7.383L11.3472 7.3393L11.3852 7.29055L10.5964 6.67583ZM10.6635 6.60879L11.2779 7.39774L11.3265 7.35997L11.37 7.31653L10.6635 6.60879ZM11.7219 5.55229L12.4284 6.26003L12.4383 6.25006L12.448 6.23982L11.7219 5.55229ZM11.7737 5.50659L12.3652 6.3129L12.4106 6.27956L12.4521 6.24132L11.7737 5.50659ZM13.082 5.00004L13.0754 6.00004H13.082V5.00004ZM14.4422 5.55762L13.7344 6.2641L13.7359 6.2656L14.4422 5.55762ZM14.9999 6.91805H13.9999L14 6.92577L14.9999 6.91805ZM14.4429 8.28001L15.1499 8.98724L15.151 8.98619L14.4429 8.28001ZM8.42859 14.2923L7.72161 13.585L7.72113 13.5855L8.42859 14.2923ZM8.19771 14.4027L8.09135 13.4084L8.03922 13.414L7.98797 13.425L8.19771 14.4027ZM5.88585 14.1117L4.90816 13.9017L4.58329 15.4139L6.09558 15.0895L5.88585 14.1117ZM7.96683 13.6654L8.17656 14.6431L8.4651 14.5812L8.67381 14.3726L7.96683 13.6654ZM12.5387 9.09505L13.2457 9.80228L13.9532 9.09505L13.2457 8.38782L12.5387 9.09505ZM10.902 7.45887L11.609 6.75164L10.9019 6.04485L10.1949 6.7517L10.902 7.45887ZM6.3339 12.0261L5.62685 11.319L5.41818 11.5276L5.3562 11.8161L6.3339 12.0261ZM11.446 6.91501V5.91501H9.03124L10.7391 7.62224L11.446 6.91501ZM13.0828 8.55118L12.3758 9.25841L13.0825 9.96481L13.7894 9.25875L13.0828 8.55118ZM13.8737 7.76128L14.5804 8.46885L14.6181 8.43112L14.6517 8.38959L13.8737 7.76128ZM13.8981 7.73385L13.1911 7.02658L13.1832 7.03468L13.8981 7.73385ZM13.8981 6.10149L14.6064 5.39551L14.6025 5.39168L13.8981 6.10149ZM13.082 5.76938V6.76942L13.0906 6.76934L13.082 5.76938ZM12.2652 6.10149L11.5595 5.393L11.557 5.39549L12.2652 6.10149ZM12.224 6.13729L11.6228 5.33825L11.5665 5.38059L11.5167 5.43041L12.224 6.13729ZM11.4468 6.91501V7.91501H11.8612L12.1541 7.62189L11.4468 6.91501ZM5.1899 14.031C5.30963 13.9916 5.43854 13.9897 5.55934 14.0256L4.98932 15.9427C5.2594 16.023 5.54759 16.0188 5.81524 15.9307L5.1899 14.031ZM5.55934 14.0256C5.68016 14.0616 5.78715 14.1336 5.86594 14.2321L4.30407 15.4813C4.48011 15.7014 4.71923 15.8624 4.98932 15.9427L5.55934 14.0256ZM5.86399 14.2297C5.92159 14.3012 5.96245 14.3848 5.98355 14.4742L4.037 14.9335C4.08447 15.1347 4.1764 15.3227 4.30601 15.4837L5.86399 14.2297ZM5.98355 14.4742C6.00466 14.5637 6.00546 14.6567 5.98591 14.7465L4.0317 14.321C3.98771 14.523 3.98952 14.7323 4.037 14.9335L5.98355 14.4742ZM5.98656 14.7435L6.57481 12.0013L4.6193 11.5818L4.03105 14.324L5.98656 14.7435ZM6.59038 11.9069C6.57437 12.0448 6.51229 12.1731 6.41427 12.2713L4.99929 10.8578C4.77909 11.0783 4.63969 11.3666 4.60373 11.6762L6.59038 11.9069ZM6.41382 12.2717L11.3035 7.383L9.8894 5.96865L4.99974 10.8574L6.41382 12.2717ZM11.3852 7.29055C11.354 7.33058 11.318 7.36658 11.2779 7.39774L10.049 5.81984C9.95896 5.89 9.87789 5.97103 9.80769 6.0611L11.3852 7.29055ZM11.37 7.31653L12.4284 6.26003L11.0154 4.84455L9.95702 5.90106L11.37 7.31653ZM12.448 6.23982C12.4227 6.26663 12.3949 6.29108 12.3652 6.3129L11.1822 4.70027C11.1153 4.74939 11.0528 4.80444 10.9957 4.86476L12.448 6.23982ZM12.4521 6.24132C12.6216 6.08478 12.8444 5.99848 13.0754 6.00002L13.0887 4.00006C12.3504 3.99514 11.6378 4.27101 11.0953 4.77185L12.4521 6.24132ZM13.082 6.00004C13.3406 6.00004 13.5673 6.09665 13.7344 6.2641L15.1499 4.85114C14.5993 4.29953 13.8598 4.00004 13.082 4.00004V6.00004ZM13.7359 6.2656C13.9037 6.43294 13.9999 6.65916 13.9999 6.91805H15.9999C15.9999 6.141 15.7015 5.40137 15.1484 4.84964L13.7359 6.2656ZM14 6.92577C14.0009 7.04593 13.978 7.16508 13.9325 7.27632L15.7836 8.0334C15.9294 7.67706 16.0029 7.29532 15.9999 6.91034L14 6.92577ZM13.9325 7.27632C13.887 7.38756 13.8198 7.48869 13.7349 7.57383L15.151 8.98619C15.4228 8.7136 15.6379 8.38975 15.7836 8.0334L13.9325 7.27632ZM13.7359 7.57278L7.72161 13.585L9.13557 14.9995L15.1499 8.98724L13.7359 7.57278ZM7.72113 13.5855C7.82069 13.4858 7.95137 13.4234 8.09135 13.4084L8.30407 15.397C8.61871 15.3634 8.91236 15.2229 9.13606 14.999L7.72113 13.5855ZM7.98797 13.425L5.29283 14.0031L5.71231 15.9586L8.40745 15.3805L7.98797 13.425ZM6.09558 15.0895L8.17656 14.6431L7.7571 12.6876L5.67612 13.134L6.09558 15.0895ZM8.67381 14.3726L13.2457 9.80228L11.8318 8.38782L7.25984 12.9581L8.67381 14.3726ZM13.2457 8.38782L11.609 6.75164L10.195 8.1661L11.8318 9.80228L13.2457 8.38782ZM10.1949 6.7517L5.62685 11.319L7.04094 12.7333L11.609 8.16604L10.1949 6.7517ZM5.3562 11.8161L4.90816 13.9017L6.86354 14.3218L7.31159 12.2362L5.3562 11.8161ZM10.7391 7.62224L12.3758 9.25841L13.7898 7.84395L12.153 6.20778L10.7391 7.62224ZM13.7894 9.25875L14.5804 8.46885L13.1671 7.05371L12.3761 7.84361L13.7894 9.25875ZM14.6517 8.38959C14.6395 8.40466 14.6266 8.41915 14.6131 8.43303L13.1832 7.03468C13.1525 7.06606 13.1233 7.09885 13.0958 7.13296L14.6517 8.38959ZM14.6051 8.44108C15.013 8.0333 15.2303 7.48598 15.2303 6.91805H13.2303C13.2303 6.97321 13.2114 7.00632 13.1911 7.02662L14.6051 8.44108ZM15.2303 6.91805C15.2303 6.34868 15.0126 5.80307 14.6064 5.39552L13.1899 6.80746C13.2119 6.82951 13.2303 6.86282 13.2303 6.91805H15.2303ZM14.6025 5.39168C14.4014 5.19209 14.1627 5.03434 13.9003 4.92754L13.1464 6.78002C13.1641 6.78723 13.1802 6.79786 13.1937 6.8113L14.6025 5.39168ZM13.9003 4.92754C13.6378 4.82074 13.3568 4.767 13.0735 4.76942L13.0906 6.76934C13.1097 6.76918 13.1287 6.77281 13.1464 6.78002L13.9003 4.92754ZM13.082 4.76938C12.5128 4.76938 11.9671 4.98691 11.5595 5.393L12.9709 6.80997C12.993 6.78798 13.0265 6.76938 13.082 6.76938V4.76938ZM11.557 5.39549C11.5775 5.37488 11.5995 5.35575 11.6228 5.33825L12.8253 6.93633C12.8777 6.89694 12.9271 6.85388 12.9734 6.80748L11.557 5.39549ZM11.5167 5.43041L10.7395 6.20812L12.1541 7.62189L12.9314 6.84417L11.5167 5.43041ZM11.4468 5.91501H11.446V7.91501H11.4468V5.91501Z" fill="#FFBE0E" mask="url(#path-2-inside-1_7774_235812)"/>
<rect x="10.5241" y="14.3311" width="4.19105" height="0.38086" rx="0.19043" fill="#292929" stroke="#FFBE0E" stroke-width="0.38086"/>
</svg>