<svg width="19" height="19" viewBox="0 0 19 19" fill="none" xmlns="http://www.w3.org/2000/svg">
<rect x="1.00009" y="1" width="17" height="17" rx="3" fill="white"/>
<rect x="1.00009" y="1" width="17" height="17" rx="3" stroke="#EBEEF2" stroke-width="0.541667"/>
<path fill-rule="evenodd" clip-rule="evenodd" d="M10.087 5.29858C10.4332 5.10253 10.8431 5.05203 11.2265 5.15817C11.3965 5.20524 11.5417 5.28723 11.6786 5.37983C11.8087 5.46778 11.9578 5.58422 12.1307 5.71918L12.1559 5.73887C12.3288 5.87382 12.478 5.99026 12.5949 6.09507C12.718 6.20541 12.8328 6.32642 12.9197 6.47991C13.1158 6.82607 13.1663 7.23594 13.0601 7.61934C13.0131 7.78933 12.9311 7.9346 12.8385 8.07152C12.7505 8.20156 12.6341 8.35074 12.4991 8.52363L8.94773 13.0733C8.93873 13.0848 8.92988 13.0961 8.92113 13.1074C8.75443 13.3211 8.62838 13.4827 8.47233 13.6155C8.34026 13.7278 8.19414 13.8225 8.03764 13.8972C7.85276 13.9854 7.65375 14.0344 7.3905 14.0993C7.3767 14.1027 7.36272 14.1062 7.34856 14.1097L6.28615 14.3719C6.21258 14.3901 6.12859 14.4109 6.05451 14.4223C5.97192 14.435 5.84403 14.4465 5.70278 14.4013C5.53298 14.3469 5.3881 14.2338 5.29413 14.0823C5.21596 13.9562 5.19607 13.8294 5.18833 13.7462C5.18139 13.6715 5.18115 13.585 5.18093 13.5092C5.18092 13.5045 5.18091 13.4999 5.18089 13.4953L5.17746 12.4149C5.17741 12.4003 5.17736 12.3859 5.17731 12.3717C5.17633 12.1006 5.1756 11.8956 5.21628 11.6949C5.25072 11.5249 5.30711 11.3602 5.38404 11.2048C5.47492 11.0212 5.6011 10.8597 5.76801 10.6461C5.77676 10.6349 5.78563 10.6235 5.79461 10.612L9.34598 6.06236C9.48093 5.88946 9.59738 5.74028 9.70218 5.62338C9.81253 5.50031 9.93353 5.38551 10.087 5.29858ZM10.9596 6.12192C10.8318 6.08654 10.6952 6.10337 10.5798 6.16872C10.5602 6.17982 10.523 6.20586 10.4468 6.29093C10.3675 6.37936 10.272 6.50124 10.1244 6.69027L11.701 7.92091C11.8486 7.73187 11.9436 7.60966 12.0101 7.51129C12.0742 7.41664 12.0904 7.37422 12.0964 7.35252C12.1318 7.22472 12.1149 7.0881 12.0496 6.97271C12.0385 6.95311 12.0124 6.91591 11.9274 6.83963C11.8389 6.76035 11.7171 6.66487 11.528 6.51731C11.339 6.36975 11.2168 6.2747 11.1184 6.20817C11.0238 6.14415 10.9813 6.12793 10.9596 6.12192ZM11.0857 8.70918L9.50913 7.47855L6.58289 11.2273C6.37801 11.4898 6.32023 11.5677 6.28024 11.6485C6.24178 11.7262 6.21358 11.8085 6.19636 11.8935C6.17846 11.9818 6.17639 12.0788 6.17745 12.4117L6.18049 13.368L7.10888 13.1388C7.43214 13.059 7.52568 13.0335 7.60704 12.9946C7.68529 12.9573 7.75835 12.91 7.82439 12.8538C7.89305 12.7954 7.95457 12.7204 8.15944 12.458L11.0857 8.70918ZM9.50008 14.0002C9.50008 13.724 9.72393 13.5002 10.0001 13.5002H13.5001C13.7762 13.5002 14.0001 13.724 14.0001 14.0002C14.0001 14.2763 13.7762 14.5002 13.5001 14.5002H10.0001C9.72393 14.5002 9.50008 14.2763 9.50008 14.0002Z" fill="#535862"/>
</svg>
