<svg viewBox="0 0 16 16" fill="none" xmlns="http://www.w3.org/2000/svg">
<path fill-rule="evenodd" clip-rule="evenodd" d="M8.78105 2.39815C9.24259 2.13675 9.78912 2.06941 10.3003 2.21094C10.527 2.27369 10.7207 2.38301 10.9032 2.50648C11.0766 2.62375 11.2755 2.779 11.506 2.95894L11.5396 2.9852C11.7701 3.16514 11.9691 3.32039 12.1249 3.46013C12.289 3.60726 12.4421 3.7686 12.558 3.97325C12.8194 4.4348 12.8867 4.98129 12.7452 5.49249C12.6825 5.71915 12.5731 5.91284 12.4497 6.0954C12.3324 6.26879 12.1771 6.4677 11.9971 6.69822L7.26199 12.7644C7.24999 12.7798 7.23819 12.7949 7.22652 12.8099C7.00425 13.0949 6.83619 13.3104 6.62812 13.4874C6.45203 13.6372 6.25719 13.7634 6.04853 13.863C5.80202 13.9806 5.53667 14.0459 5.18568 14.1325C5.16728 14.137 5.14864 14.1416 5.12976 14.1463L3.71321 14.496C3.61511 14.5202 3.50313 14.548 3.40435 14.5631C3.29423 14.58 3.12371 14.5954 2.93538 14.5351C2.70898 14.4626 2.51581 14.3118 2.39051 14.1098C2.28629 13.9417 2.25977 13.7726 2.24945 13.6616C2.2402 13.5621 2.23987 13.4468 2.23959 13.3457C2.23957 13.3394 2.23955 13.3332 2.23953 13.3271L2.23495 11.8866C2.23489 11.8672 2.23482 11.848 2.23475 11.829C2.23345 11.4676 2.23247 11.1942 2.28672 10.9266C2.33264 10.7 2.40783 10.4803 2.51039 10.2732C2.63157 10.0284 2.79981 9.81302 3.02236 9.52815C3.03403 9.51322 3.04585 9.49808 3.05782 9.48275L7.79299 3.41652C7.97292 3.18599 8.12819 2.98708 8.26792 2.83122C8.41505 2.66712 8.57639 2.51405 8.78105 2.39815ZM9.94452 3.49593C9.77412 3.44876 9.59199 3.4712 9.43812 3.55834C9.41199 3.57314 9.36239 3.60785 9.26072 3.72128C9.15499 3.83919 9.02765 4.00169 8.83092 4.25374L10.933 5.89458C11.1298 5.64254 11.2565 5.47959 11.3452 5.34842C11.4306 5.22222 11.4522 5.16567 11.4602 5.13673C11.5074 4.96633 11.4849 4.78417 11.3978 4.63032C11.383 4.60419 11.3483 4.55458 11.2349 4.45288C11.1169 4.34717 10.9545 4.21987 10.7024 4.02312C10.4503 3.82638 10.2874 3.69964 10.1563 3.61093C10.0301 3.52558 9.97345 3.50394 9.94452 3.49593ZM10.1126 6.94562L8.01052 5.30478L4.10886 10.3032C3.83569 10.6531 3.75865 10.757 3.70533 10.8647C3.65405 10.9683 3.61645 11.0781 3.59349 11.1914C3.56962 11.3092 3.56687 11.4384 3.56828 11.8824L3.57233 13.1574L4.81019 12.8518C5.24119 12.7454 5.36591 12.7114 5.47439 12.6596C5.57873 12.6098 5.67614 12.5467 5.76419 12.4718C5.85574 12.3939 5.93777 12.294 6.21093 11.944L10.1126 6.94562ZM7.99845 14.0003C7.99845 13.6321 8.29692 13.3336 8.66512 13.3336H13.3318C13.7 13.3336 13.9985 13.6321 13.9985 14.0003C13.9985 14.3685 13.7 14.667 13.3318 14.667H8.66512C8.29692 14.667 7.99845 14.3685 7.99845 14.0003Z" fill="currentColor"/>
</svg>
