<svg viewBox="0 0 14 14" fill="none" xmlns="http://www.w3.org/2000/svg">
<path fill-rule="evenodd" clip-rule="evenodd" d="M8.20299 2.05174C7.98454 1.8697 7.65845 1.90625 7.48572 2.13213L6.99812 2.76975L9.25404 4.59656L9.74229 3.95809C9.90508 3.7452 9.87108 3.44182 9.6652 3.27025L8.20299 2.05174ZM1.76002 9.61958L6.39044 3.56442L8.64636 5.39123L3.99217 11.4775C3.93654 11.5502 3.86755 11.6006 3.79336 11.6278C3.47454 11.7446 2.91419 11.9362 2.39334 12.05C2.13084 12.1073 1.90115 12.1396 1.72756 12.1398C1.64708 12.14 1.5984 12.1332 1.57201 12.1279C1.56021 12.0967 1.53972 12.032 1.52377 11.9156C1.49821 11.7289 1.49432 11.4884 1.50709 11.2205C1.5325 10.6877 1.61977 10.1202 1.67295 9.81306C1.68437 9.74717 1.71314 9.68089 1.76002 9.61958ZM6.69136 1.52468C7.20956 0.847032 8.18783 0.737397 8.84318 1.28352L10.3054 2.50203C10.923 3.01673 11.025 3.92688 10.5366 4.56554L4.78653 12.0849C4.6231 12.2986 4.40171 12.47 4.13725 12.5668C3.80527 12.6884 3.19449 12.8986 2.60665 13.0269C2.31481 13.0907 2.00576 13.1394 1.72906 13.1398C1.48523 13.1402 1.12059 13.1058 0.868433 12.8536C0.642609 12.6278 0.566692 12.2971 0.533023 12.0513C0.495599 11.778 0.494121 11.4687 0.508228 11.1729C0.536575 10.5784 0.63205 9.96329 0.687623 9.64241C0.728279 9.40766 0.827195 9.1932 0.965662 9.01213L6.69136 1.52468ZM7.22168 11.8999C6.94554 11.8999 6.72168 12.1238 6.72168 12.3999C6.72168 12.676 6.94554 12.8999 7.22168 12.8999H12.2217C12.4978 12.8999 12.7217 12.676 12.7217 12.3999C12.7217 12.1238 12.4978 11.8999 12.2217 11.8999H7.22168Z" fill="currentColor"/>
</svg>