<svg  viewBox="0 0 13 13" fill="currentColor" xmlns="http://www.w3.org/2000/svg">
 <path fill-rule="evenodd" clip-rule="evenodd" d="M7.38078 0.398273C7.84232 0.136873 8.38885 0.0695327 8.90005 0.211059C9.12672 0.273813 9.32038 0.383133 9.50292 0.506606C9.67632 0.623873 9.87518 0.779126 10.1057 0.959066L10.1393 0.985319C10.3699 1.16526 10.5688 1.32051 10.7247 1.46025C10.8887 1.60738 11.0418 1.76873 11.1577 1.97337C11.4191 2.43492 11.4865 2.98141 11.3449 3.49261C11.2822 3.71927 11.1729 3.91296 11.0494 4.09552C10.9321 4.26891 10.7769 4.46782 10.5969 4.69834L5.86172 10.7645C5.84972 10.7799 5.83792 10.795 5.82625 10.81C5.60398 11.095 5.43592 11.3105 5.22785 11.4875C5.05176 11.6373 4.85692 11.7635 4.64826 11.8631C4.40175 11.9807 4.1364 12.0461 3.78541 12.1326C3.76701 12.1371 3.74837 12.1417 3.72949 12.1464L2.31294 12.4961C2.21484 12.5203 2.10286 12.5481 2.00408 12.5632C1.89396 12.5801 1.72344 12.5955 1.53511 12.5352C1.30871 12.4627 1.11554 12.3119 0.990245 12.1099C0.886018 11.9418 0.859498 11.7727 0.849185 11.6617C0.839931 11.5622 0.839605 11.4469 0.839318 11.3458C0.839298 11.3395 0.839285 11.3333 0.839265 11.3272L0.834685 9.88674C0.834618 9.86727 0.834551 9.84807 0.834485 9.82914C0.833185 9.46767 0.832205 9.19434 0.886451 8.92667C0.932371 8.70007 1.00756 8.48041 1.11012 8.27327C1.2313 8.02847 1.39954 7.81314 1.62209 7.52827C1.63376 7.51334 1.64558 7.49821 1.65755 7.48287L6.39272 1.41664C6.57265 1.18611 6.72792 0.987199 6.86765 0.831339C7.01478 0.667239 7.17612 0.514173 7.38078 0.398273ZM8.54425 1.49605C8.37385 1.44888 8.19172 1.47133 8.03785 1.55846C8.01172 1.57326 7.96212 1.60797 7.86045 1.72141C7.75472 1.83931 7.62738 2.00181 7.43065 2.25386L9.53272 3.89471C9.72952 3.64266 9.85618 3.47971 9.94492 3.34855C10.0303 3.22235 10.0519 3.16579 10.0599 3.13685C10.1071 2.96645 10.0847 2.78429 9.99752 2.63044C9.98272 2.60431 9.94799 2.55471 9.83459 2.45301C9.71665 2.34729 9.55418 2.21999 9.30212 2.02325C9.05005 1.8265 8.88712 1.69977 8.75598 1.61105C8.62979 1.5257 8.57318 1.50407 8.54425 1.49605ZM8.71232 4.94574L6.61025 3.3049L2.70859 8.30327C2.43542 8.65321 2.35838 8.75707 2.30506 8.86481C2.25378 8.96841 2.21618 9.07821 2.19322 9.19147C2.16935 9.30927 2.1666 9.43854 2.16801 9.88247L2.17206 11.1575L3.40992 10.8519C3.84092 10.7455 3.96564 10.7115 4.07412 10.6597C4.17846 10.6099 4.27587 10.5468 4.36392 10.4719C4.45547 10.394 4.5375 10.2941 4.81066 9.94414L8.71232 4.94574ZM6.59818 12.0004C6.59818 11.6322 6.89665 11.3337 7.26485 11.3337H11.9315C12.2997 11.3337 12.5982 11.6322 12.5982 12.0004C12.5982 12.3686 12.2997 12.6671 11.9315 12.6671H7.26485C6.89665 12.6671 6.59818 12.3686 6.59818 12.0004Z" fill="currentColor"/>
 </svg>