<svg xmlns="http://www.w3.org/2000/svg" width="14" height="14" fill="none"><path fill="#7147E8" stroke="#7147E8" stroke-width=".2" d="M.855 13.563a.418.418 0 0 1-.41-.5l.59-2.95A.41.41 0 0 1 1.15 9.9L10 1.048a2.087 2.087 0 0 1 2.95 2.95l-8.85 8.853a.415.415 0 0 1-.214.114l-2.95.59a.386.386 0 0 1-.082.008ZM1.83 10.4l-.442 2.214L3.6 12.17l8.76-8.762c.238-.237.368-.551.368-.886a1.252 1.252 0 0 0-2.136-.885L1.83 10.4Zm1.976 2.155h.008-.008Z"/><path fill="#7147E8" stroke="#7147E8" stroke-width=".2" d="M11.476 5.302a.42.42 0 0 1-.295-.122L8.82 2.82a.418.418 0 0 1 .59-.59l2.36 2.36a.418.418 0 0 1-.295.712Z"/></svg>