<svg xmlns="http://www.w3.org/2000/svg" width="16" height="16" viewBox="0 0 16 16" fill="none">
  <path fill-rule="evenodd" clip-rule="evenodd" d="M8.78301 2.39785C9.24454 2.13645 9.79107 2.06911 10.3023 2.21063C10.5289 2.27339 10.7226 2.38271 10.9051 2.50618C11.0785 2.62345 11.2774 2.7787 11.5079 2.95864L11.5415 2.98489C11.7721 3.16483 11.971 3.32009 12.1269 3.45983C12.2909 3.60695 12.444 3.7683 12.5599 3.97295C12.8213 4.43449 12.8887 4.98099 12.7471 5.49219C12.6844 5.71885 12.5751 5.91253 12.4516 6.09509C12.3343 6.26849 12.1791 6.46739 11.9991 6.69791L7.26394 12.7641C7.25194 12.7794 7.24014 12.7946 7.22847 12.8096C7.00621 13.0946 6.83814 13.31 6.63007 13.487C6.45398 13.6368 6.25915 13.7631 6.05049 13.8626C5.80397 13.9802 5.53863 14.0456 5.18763 14.1322C5.16923 14.1367 5.15059 14.1413 5.13171 14.146L3.71517 14.4956C3.61707 14.5199 3.50509 14.5476 3.40631 14.5628C3.29619 14.5797 3.12567 14.595 2.93733 14.5348C2.71093 14.4622 2.51776 14.3114 2.39247 14.1094C2.28824 13.9414 2.26172 13.7722 2.25141 13.6613C2.24215 13.5618 2.24183 13.4464 2.24154 13.3454C2.24152 13.3391 2.24151 13.3329 2.24149 13.3268L2.23691 11.8863C2.23684 11.8668 2.23677 11.8476 2.23671 11.8287C2.23541 11.4672 2.23443 11.1939 2.28867 10.9262C2.33459 10.6996 2.40978 10.48 2.51235 10.2728C2.63352 10.028 2.80177 9.81271 3.02431 9.52785C3.03598 9.51291 3.0478 9.49778 3.05977 9.48245L7.79494 3.41621C7.97487 3.18569 8.13014 2.98677 8.26987 2.83091C8.41701 2.66681 8.57834 2.51375 8.78301 2.39785ZM9.94647 3.49563C9.77607 3.44845 9.59394 3.4709 9.44007 3.55803C9.41394 3.57283 9.36434 3.60755 9.26267 3.72098C9.15694 3.83889 9.02961 4.00139 8.83287 4.25343L10.9349 5.89428C11.1317 5.64223 11.2584 5.47929 11.3471 5.34812C11.4325 5.22192 11.4541 5.16537 11.4621 5.13643C11.5093 4.96603 11.4869 4.78387 11.3997 4.63001C11.3849 4.60389 11.3502 4.55428 11.2368 4.45258C11.1189 4.34687 10.9564 4.21957 10.7043 4.02282C10.4523 3.82607 10.2893 3.69934 10.1582 3.61063C10.032 3.52527 9.97541 3.50364 9.94647 3.49563ZM10.1145 6.94531L8.01247 5.30447L4.11081 10.3028C3.83764 10.6528 3.76061 10.7566 3.70728 10.8644C3.656 10.968 3.6184 11.0778 3.59545 11.191C3.57157 11.3088 3.56882 11.4381 3.57023 11.882L3.57429 13.1571L4.81214 12.8515C5.24315 12.7451 5.36787 12.711 5.47635 12.6592C5.58068 12.6095 5.67809 12.5464 5.76615 12.4714C5.85769 12.3936 5.93972 12.2936 6.21289 11.9437L10.1145 6.94531ZM8.00041 14C8.00041 13.6318 8.29887 13.3333 8.66707 13.3333H13.3337C13.7019 13.3333 14.0004 13.6318 14.0004 14C14.0004 14.3682 13.7019 14.6666 13.3337 14.6666H8.66707C8.29887 14.6666 8.00041 14.3682 8.00041 14Z" fill="#414651"/>
</svg>