<svg viewBox="0 0 89 89" fill="none" xmlns="http://www.w3.org/2000/svg">
<path d="M0 28C0 12.536 12.536 0 28 0H61C76.464 0 89 12.536 89 28V61C89 76.464 76.464 89 61 89H28C12.536 89 0 76.464 0 61V28Z" fill="#EFF8FF"/>
<path fill-rule="evenodd" clip-rule="evenodd" d="M40.6784 41.9711L32.0371 37.0654L32.9628 35.4348L41.6041 40.3406C43.154 41.2205 44.1152 41.5626 45 41.5626C45.8847 41.5626 46.846 41.2205 48.3958 40.3406L57.0371 35.4348L57.9628 37.0654L49.3216 41.9711C47.7143 42.8836 46.3953 43.4376 45 43.4376C43.6046 43.4376 42.2856 42.8836 40.6784 41.9711Z" fill="#175CD3"/>
<path fill-rule="evenodd" clip-rule="evenodd" d="M48.6029 34.1079C46.193 34.0474 43.807 34.0474 41.3971 34.1079C39.4012 34.1581 38.0067 34.1955 36.9302 34.3831C35.8958 34.5634 35.2509 34.868 34.7205 35.4007C34.1864 35.9372 33.8866 36.5744 33.7121 37.5799C33.5298 38.6301 33.4985 39.985 33.457 41.9305C33.431 43.15 33.431 44.3622 33.457 45.5817C33.4985 47.5272 33.5298 48.8821 33.7121 49.9322C33.8866 50.9379 34.1864 51.5751 34.7205 52.1115C35.2509 52.6442 35.8958 52.9489 36.9302 53.1291C38.0067 53.3167 39.4012 53.3541 41.3971 53.4044C41.9783 53.4189 42.5581 53.43 43.1372 53.4376C43.655 53.4444 44.0691 53.8695 44.0624 54.3872C44.0556 54.905 43.6305 55.3191 43.1127 55.3124C42.5261 55.3048 41.9387 55.2935 41.35 55.2787L41.2773 55.2769C39.3712 55.229 37.8375 55.1905 36.6083 54.9763C35.3213 54.752 34.2754 54.3219 33.3918 53.4345C32.512 52.5508 32.0845 51.5195 31.8647 50.2529C31.6554 49.0469 31.6235 47.5498 31.584 45.6951L31.5824 45.6217C31.5559 44.3755 31.5559 43.1368 31.5824 41.8906L31.584 41.8172C31.6235 39.9625 31.6554 38.4654 31.8647 37.2593C32.0845 35.9927 32.512 34.9614 33.3918 34.0778C34.2754 33.1903 35.3213 32.7602 36.6083 32.536C37.8375 32.3218 39.3712 32.2832 41.2772 32.2354L41.35 32.2335C43.7912 32.1722 46.2087 32.1722 48.65 32.2335L48.7227 32.2354C50.6287 32.2833 52.1625 32.3218 53.3917 32.536C54.6787 32.7602 55.7246 33.1904 56.6081 34.0778C57.488 34.9615 57.9155 35.9928 58.1354 37.2593C58.3446 38.4654 58.3765 39.9625 58.416 41.8173L58.4176 41.8906C58.4187 41.9469 58.4199 42.0005 58.421 42.0515C58.4309 42.5114 58.4365 42.7714 58.4374 43.1226C58.4386 43.6404 58.02 44.0612 57.5022 44.0625C56.9845 44.0638 56.5637 43.6451 56.5624 43.1274C56.5615 42.7946 56.5564 42.5526 56.5464 42.0887C56.5454 42.0387 56.5442 41.9861 56.543 41.9305C56.5015 39.985 56.4702 38.6301 56.2879 37.58C56.1134 36.5744 55.8135 35.9372 55.2795 35.4007C54.7491 34.868 54.1041 34.5634 53.0699 34.3831C51.9934 34.1956 50.5987 34.1581 48.6029 34.1079Z" fill="#175CD3"/>
<path fill-rule="evenodd" clip-rule="evenodd" d="M51.875 46.5625C49.2861 46.5625 47.1875 48.6611 47.1875 51.25C47.1875 53.8389 49.2861 55.9375 51.875 55.9375C52.3927 55.9375 52.8125 56.3573 52.8125 56.875C52.8125 57.3927 52.3927 57.8125 51.875 57.8125C48.2506 57.8125 45.3125 54.8744 45.3125 51.25C45.3125 47.6256 48.2506 44.6875 51.875 44.6875C55.4994 44.6875 58.4375 47.6256 58.4375 51.25V51.875C58.4375 53.4283 57.1783 54.6875 55.625 54.6875C54.7253 54.6875 53.9241 54.265 53.4094 53.6075C52.9681 53.8952 52.4411 54.0625 51.875 54.0625C50.3218 54.0625 49.0625 52.8033 49.0625 51.25C49.0625 49.6968 50.3218 48.4375 51.875 48.4375C53.4283 48.4375 54.6875 49.6968 54.6875 51.25V51.875C54.6875 52.3927 55.1073 52.8125 55.625 52.8125C56.1427 52.8125 56.5625 52.3927 56.5625 51.875V51.25C56.5625 48.6611 54.4639 46.5625 51.875 46.5625ZM52.8125 51.25C52.8125 50.7323 52.3927 50.3125 51.875 50.3125C51.3573 50.3125 50.9375 50.7323 50.9375 51.25C50.9375 51.7677 51.3573 52.1875 51.875 52.1875C52.3927 52.1875 52.8125 51.7677 52.8125 51.25Z" fill="#175CD3"/>
</svg>
