<svg width="16" height="16" viewBox="0 0 16 16" fill="none" xmlns="http://www.w3.org/2000/svg">
<g clip-path="url(#clip0_19667_23119)">
<path d="M14 7V2C14 1.44772 13.5523 1 13 1H2C1.44772 1 1 1.44772 1 2V10C1 10.5523 1.44772 11 2 11H7" stroke="currentColor" stroke-linecap="round"/>
<path fill-rule="evenodd" clip-rule="evenodd" d="M7.54147 6.8068C7.28798 6.8068 7.03731 6.75452 6.80562 6.65335L1.37916 4.28103V3.5L7.09923 6.00143C7.23851 6.06213 7.38915 6.09349 7.54147 6.09349C7.6938 6.09349 7.84443 6.06213 7.98371 6.00143L13.7038 3.5V4.28103L8.27732 6.65335C8.04563 6.75452 7.79496 6.8068 7.54147 6.8068ZM14.55 11.5556L15.1372 11.9337C15.2197 11.9802 15.2919 12.0431 15.3498 12.1173C15.4076 12.1915 15.45 12.2762 15.4744 12.3666C15.5251 12.5521 15.499 12.7439 15.4019 12.9087L14.6943 14.1141C14.4935 14.4544 14.0483 14.5699 13.7047 14.3759L13.1102 14.0378L13.0993 14.0435L13.095 14.7867C13.095 14.9759 13.0186 15.1573 12.8826 15.2911C12.7467 15.4249 12.5623 15.5 12.37 15.5H10.9201C10.7278 15.5 10.5434 15.4249 10.4074 15.2911C10.2715 15.1573 10.1951 14.9759 10.1951 14.7867V14.0378L9.58609 14.3752C9.41934 14.4695 9.22135 14.495 9.03556 14.4459C8.84977 14.3968 8.69135 14.2773 8.59505 14.1134L7.88747 12.908C7.6881 12.5685 7.80627 12.1305 8.15209 11.9337L8.74584 11.5963L8.15281 11.2218C7.9864 11.127 7.86502 10.9711 7.81528 10.7883C7.76554 10.6055 7.7915 10.4108 7.88747 10.2468L8.59505 9.04137C8.64238 8.96006 8.70565 8.88881 8.78119 8.83175C8.85674 8.77469 8.94304 8.73296 9.03511 8.70899C9.1271 8.68406 9.22323 8.67746 9.31784 8.68959C9.41246 8.70171 9.50366 8.73232 9.58609 8.7796L10.1878 9.12197L10.1951 8.36805C10.1951 8.17888 10.2715 7.99745 10.4074 7.86369C10.5434 7.72993 10.7278 7.65478 10.9201 7.65478H12.37C12.5623 7.65478 12.7467 7.72993 12.8826 7.86369C13.0186 7.99745 13.095 8.17888 13.095 8.36805V9.09843L13.704 8.78031C13.8705 8.68564 14.0684 8.65988 14.2542 8.7087C14.4401 8.75751 14.5986 8.87691 14.695 9.04066L15.4026 10.2475C15.4505 10.3284 15.4816 10.4179 15.494 10.5107C15.5065 10.6035 15.5 10.6978 15.4751 10.7882C15.4508 10.8789 15.4085 10.964 15.3505 11.0384C15.2925 11.1129 15.22 11.1752 15.1372 11.2218L14.55 11.5556ZM13.4647 13.4151L14.0665 13.7575L14.7748 12.5514L14.1868 12.2175C14.0734 12.1521 13.9794 12.0586 13.9141 11.9464C13.8487 11.8342 13.8144 11.7071 13.8144 11.5777C13.8144 11.4484 13.8487 11.3213 13.9141 11.2091C13.9794 11.0969 14.0734 11.0034 14.1868 10.9379L14.7748 10.6041L14.0672 9.39729L13.4647 9.73966C13.2422 9.86591 12.9717 9.86305 12.7419 9.73181L12.7347 9.72825C12.6251 9.66652 12.5338 9.57772 12.4699 9.47064C12.4059 9.36355 12.3715 9.24189 12.37 9.11769V8.36805H10.9201V9.11769C10.9201 9.36591 10.7787 9.60057 10.5532 9.72967C10.3205 9.86091 10.0436 9.86448 9.82461 9.73966L9.2236 9.398L8.5153 10.6041L9.10833 10.9408C9.22048 11.0055 9.31311 11.0984 9.37668 11.21C9.44026 11.3215 9.4725 11.4477 9.4701 11.5756C9.4701 11.8488 9.33525 12.0863 9.10761 12.2147L8.5153 12.5514L9.22288 13.7582L9.82534 13.4158C9.93186 13.3556 10.0526 13.3241 10.1755 13.3245C10.3067 13.3248 10.4356 13.3593 10.5489 13.4244C10.7787 13.5549 10.9193 13.7896 10.9193 14.0378V14.7874H12.3693V14.0378C12.371 13.9137 12.4056 13.7921 12.4696 13.6851C12.5337 13.5782 12.6251 13.4895 12.7347 13.428C12.7434 13.4223 12.7521 13.418 12.7608 13.4137C12.868 13.3533 12.9894 13.3216 13.1129 13.3218C13.2365 13.3221 13.3578 13.3543 13.4647 13.4151ZM10.1951 11.5777C10.1951 10.791 10.8454 10.1512 11.645 10.1512C12.444 10.1512 13.095 10.791 13.095 11.5777C13.095 12.3645 12.4447 13.0043 11.645 13.0043C10.8454 13.0043 10.1951 12.3645 10.1951 11.5777ZM11.1324 12.0821C11.2684 12.2159 11.4528 12.291 11.645 12.291C11.8373 12.291 12.0217 12.2159 12.1577 12.0821C12.2936 11.9483 12.37 11.7669 12.37 11.5777C12.37 11.3886 12.2936 11.2072 12.1577 11.0734C12.0217 10.9396 11.8373 10.8645 11.645 10.8645C11.4528 10.8645 11.2684 10.9396 11.1324 11.0734C10.9964 11.2072 10.9201 11.3886 10.9201 11.5777C10.9201 11.7669 10.9964 11.9483 11.1324 12.0821Z" fill="currentColor" stroke="currentColor" stroke-width="0.2"/>
</g>
<defs>
<clipPath id="clip0_19667_23119">
<rect width="16" height="16" fill="white"/>
</clipPath>
</defs>
</svg>