<svg width="50" height="51" viewBox="0 0 50 51" fill="none" xmlns="http://www.w3.org/2000/svg">
<g clip-path="url(#clip0_967_10531)">
<path d="M48.5352 50.5H1.46484C0.655859 50.5 0 49.8441 0 49.0351V21.4961C0 21.0603 0.193945 20.6471 0.529395 20.3688L24.0646 0.837573C24.607 0.387476 25.3931 0.387476 25.9354 0.837573L49.4706 20.3688C49.8061 20.6471 50 21.0603 50 21.4961V49.0351C50 49.8441 49.3441 50.5 48.5352 50.5Z" fill="#FFCD14"/>
<path d="M49.4706 20.3688L25.9355 0.837598C25.6643 0.6125 25.3321 0.5 25 0.5V50.5H48.5352C49.3441 50.5 50 49.8441 50 49.0352V21.4961C50 21.0604 49.8061 20.6472 49.4706 20.3688Z" fill="#FFB400"/>
<path d="M41.6016 37.6094H8.39844C7.58945 37.6094 6.93359 36.9535 6.93359 36.1445V7.82422C6.93359 7.01523 7.58945 6.35938 8.39844 6.35938H41.6016C42.4105 6.35938 43.0664 7.01523 43.0664 7.82422V36.1445C43.0664 36.9535 42.4105 37.6094 41.6016 37.6094Z" fill="#DCF5FA"/>
<path d="M41.6016 6.35938H25V37.6094H41.6016C42.4105 37.6094 43.0664 36.9535 43.0664 36.1445V7.82422C43.0664 7.01523 42.4105 6.35938 41.6016 6.35938Z" fill="#BEDCE6"/>
<path d="M33.9471 18.3581C33.9444 18.3479 33.9415 18.3378 33.9384 18.3277C33.2148 15.9302 31.596 13.9671 29.3799 12.8C27.1642 11.6331 24.6289 11.4092 22.2407 12.1693C19.9777 12.8896 18.0951 14.4426 16.9396 16.5422C15.7837 18.6423 15.4798 21.0635 16.0837 23.36C16.6067 25.349 17.7362 27.0649 19.3501 28.3222C20.9038 29.5328 22.8392 30.2293 24.7997 30.2835C24.809 30.2838 24.818 30.2839 24.8271 30.2839C25.354 30.2839 25.7882 29.8642 25.8028 29.3342C25.8176 28.7951 25.3927 28.346 24.8536 28.3311C21.6253 28.2419 18.7957 25.9934 17.9724 22.8632C16.9811 19.0934 19.1161 15.2135 22.833 14.0303C24.7187 13.43 26.7206 13.6068 28.4696 14.528C30.2144 15.4469 31.4905 16.9911 32.064 18.8768C32.4271 20.25 32.3079 21.5258 31.6662 23.1391C31.4901 23.5818 30.9444 24.6114 29.6821 24.6114C29.4443 24.6114 29.2608 24.4626 29.1724 24.3739C28.962 24.1623 28.8372 23.8507 28.8387 23.54L28.8508 21.094C28.8528 21.0271 28.8549 20.9603 28.8549 20.8927C28.8549 20.8504 28.8532 20.8088 28.8525 20.7668L28.8749 16.2586C28.8775 15.7193 28.4424 15.2799 27.9032 15.2772C27.9014 15.2772 27.9 15.2772 27.8982 15.2772C27.3612 15.2772 26.9244 15.7113 26.9217 16.249L26.9201 16.5856C26.282 16.1261 25.5167 15.8676 24.6698 15.8676C22.4825 15.8676 20.2199 17.7568 20.2199 20.9182C20.2199 23.8005 22.1765 26.1453 24.5815 26.1453C25.6007 26.1453 26.5252 25.7268 27.252 25.0206C27.3936 25.2887 27.5736 25.536 27.7882 25.7515C28.3098 26.2758 28.9825 26.5645 29.6823 26.5645C31.6906 26.5645 32.9615 25.1678 33.4812 23.8609C34.2818 21.8478 34.4256 20.1506 33.9471 18.3581ZM24.5814 24.1924C23.4231 24.1924 22.1729 22.9407 22.1729 20.9184C22.1729 18.9796 23.4424 17.821 24.6697 17.821C25.9481 17.821 26.851 19.0164 26.8995 20.7463L26.8978 21.0803C26.8292 22.8128 25.8166 24.1924 24.5814 24.1924Z" fill="#696969"/>
<path d="M25.8029 29.3346C25.8164 28.8454 25.4675 28.4315 25 28.3477V30.2681C25.4457 30.1881 25.7898 29.8052 25.8029 29.3346Z" fill="#555555"/>
<path d="M33.9386 18.3273C33.2149 15.9299 31.5961 13.9667 29.38 12.7996C28.0059 12.0759 26.5088 11.7153 25 11.7268V13.681C26.1952 13.6699 27.3814 13.9546 28.4697 14.5277C30.2146 15.4467 31.4906 16.9908 32.0642 18.8765C32.4272 20.2497 32.308 21.5255 31.6663 23.1388C31.4902 23.5815 30.9445 24.6111 29.6822 24.6111C29.4444 24.6111 29.2609 24.4623 29.1726 24.3736C28.9621 24.162 28.8373 23.8504 28.8389 23.5397L28.851 21.0937C28.8529 21.0268 28.855 20.96 28.855 20.8925C28.855 20.8501 28.8533 20.8085 28.8526 20.7665L28.875 16.2583C28.8776 15.719 28.4426 15.2796 27.9033 15.2769C27.9016 15.2769 27.9001 15.2769 27.8983 15.2769C27.3613 15.2769 26.9245 15.711 26.9219 16.2487L26.9202 16.5853C26.3662 16.1864 25.7161 15.9392 25.0001 15.881V17.8487C26.1013 18.037 26.8555 19.1692 26.8996 20.7459L26.8979 21.08C26.8373 22.6119 26.0383 23.8672 25.0001 24.1374V26.1205C25.8534 26.0226 26.6262 25.6287 27.2521 25.0205C27.3937 25.2886 27.5736 25.5359 27.7882 25.7514C28.3099 26.2758 28.9825 26.5644 29.6823 26.5644C31.6906 26.5644 32.9615 25.1677 33.4812 23.8608C34.2819 21.8475 34.4257 20.1503 33.9473 18.3578C33.9445 18.3475 33.9417 18.3375 33.9386 18.3273Z" fill="#555555"/>
<path d="M48.5352 50.5H1.46484C0.655859 50.5 0 49.8442 0 49.0352V21.4961C0 20.9641 0.288477 20.4739 0.753516 20.2155C1.21855 19.9572 1.78711 19.9713 2.23887 20.2525L25 34.4192L47.7611 20.2525C48.2127 19.9713 48.7812 19.9572 49.2465 20.2155C49.7115 20.4739 50 20.9641 50 21.4961V49.0352C50 49.8442 49.3441 50.5 48.5352 50.5Z" fill="#FFF037"/>
<path d="M49.2465 20.2155C48.7812 19.9572 48.2127 19.9713 47.7611 20.2525L25 34.4192V50.5H48.5352C49.3441 50.5 50 49.8442 50 49.0352V21.4961C50 20.9641 49.7115 20.4739 49.2465 20.2155Z" fill="#FFCD14"/>
</g>
<defs>
<clipPath id="clip0_967_10531">
<rect width="50" height="50" fill="white" transform="translate(0 0.5)"/>
</clipPath>
</defs>
</svg>
