<svg viewBox="0 0 140 140" fill="none" xmlns="http://www.w3.org/2000/svg">
<ellipse opacity="0.1" cx="70" cy="135.801" rx="70" ry="4.2" fill="#B2DDFF"/>
<path fill-rule="evenodd" clip-rule="evenodd" d="M112.145 115.11L39.6385 122.392C36.3015 122.727 33.3545 120.28 33.0563 116.926L26.0361 37.9808C25.7379 34.627 28.2013 31.6365 31.5383 31.3013L74.3535 27.0015C75.9549 26.841 77.5475 27.326 78.7814 28.3499L104.549 49.747C105.782 50.7718 106.555 52.2514 106.699 53.8608L112.145 115.11Z" fill="#3C3E49" stroke="#3C3E49" stroke-width="0.606329" stroke-linecap="round" stroke-linejoin="round"/>
<path fill-rule="evenodd" clip-rule="evenodd" d="M106.122 51.6659L82.6033 54.028C79.2683 54.3629 78.111 53.9936 77.8129 50.6416L76.3466 26.9395" fill="#3C3E49"/>
<path d="M106.122 51.6659L82.6033 54.028C79.2683 54.3629 78.111 53.9936 77.8129 50.6416L76.3466 26.9395" stroke="#3C3E49" stroke-width="0.606329" stroke-linecap="round" stroke-linejoin="round"/>
<path d="M75.1848 26.1988C76.7545 26.0416 78.3158 26.5248 79.5257 27.5412L104.264 48.3384L104.485 48.534C105.566 49.5393 106.24 50.9231 106.374 52.4183L111.661 111.87C111.667 111.94 111.616 112.001 111.547 112.008L42.005 118.992C38.7334 119.321 35.8446 116.889 35.5491 113.567L28.7348 36.9378C28.4393 33.6149 30.8484 30.6514 34.12 30.3229L75.1848 26.1988Z" fill="#D2E5FF" stroke="#3C3E49" stroke-width="0.251626" stroke-linecap="round" stroke-linejoin="round"/>
<path fill-rule="evenodd" clip-rule="evenodd" d="M105.684 50.3025L83.1271 52.5679C79.9284 52.8891 78.8179 52.5294 78.5286 49.2757L77.0979 26.2694" fill="#83889E"/>
<mask id="mask0_369_33669" style="mask-type:alpha" maskUnits="userSpaceOnUse" x="28" y="26" width="84" height="94">
<path d="M75.177 26.1975C76.7467 26.0403 78.308 26.5234 79.5179 27.5399L104.256 48.337L104.477 48.5327C105.558 49.538 106.233 50.9217 106.366 52.4169L111.653 111.869C111.659 111.938 111.609 112 111.54 112.007L41.9972 118.991C38.7256 119.32 35.8368 116.888 35.5413 113.565L28.727 36.9364C28.4315 33.6136 30.8406 30.6501 34.1122 30.3215L75.177 26.1975Z" fill="#DFE0E6" stroke="#3C3E49" stroke-width="0.251626" stroke-linecap="round" stroke-linejoin="round"/>
<mask id="path-8-outside-1_369_33669" maskUnits="userSpaceOnUse" x="75.3969" y="22.5352" width="31.4242" height="31.7846" fill="black">
<rect fill="white" x="75.3969" y="22.5352" width="31.4242" height="31.7846"/>
<path fill-rule="evenodd" clip-rule="evenodd" d="M105.677 50.3011L83.1193 52.5666C79.9206 52.8878 78.8101 52.528 78.5208 49.2743L77.0901 26.2681"/>
</mask>
<path fill-rule="evenodd" clip-rule="evenodd" d="M105.677 50.3011L83.1193 52.5666C79.9206 52.8878 78.8101 52.528 78.5208 49.2743L77.0901 26.2681" fill="#83889E"/>
<path d="M105.699 50.5518C105.837 50.5379 105.939 50.4144 105.927 50.276C105.915 50.1375 105.793 50.0366 105.654 50.0505L105.699 50.5518ZM78.5208 49.2743L78.2698 49.2928L78.2704 49.2995L78.5208 49.2743ZM77.341 26.2496C77.3324 26.1108 77.2131 26.0066 77.0745 26.0168C76.9359 26.027 76.8306 26.1478 76.8392 26.2865L77.341 26.2496ZM105.677 50.3011L105.654 50.0505L83.097 52.3159L83.1193 52.5666L83.1416 52.8172L105.699 50.5518L105.677 50.3011ZM83.1193 52.5666L83.097 52.3159C82.3005 52.3959 81.6488 52.4318 81.1124 52.3939C80.577 52.3562 80.175 52.246 79.866 52.0483C79.259 51.66 78.9152 50.8688 78.7712 49.2492L78.5208 49.2743L78.2704 49.2995C78.4157 50.9336 78.7718 51.9491 79.5921 52.4738C79.9967 52.7326 80.4902 52.8555 81.0716 52.8965C81.6521 52.9375 82.3387 52.8978 83.1416 52.8172L83.1193 52.5666ZM78.5208 49.2743L78.7717 49.2559L77.341 26.2496L77.0901 26.2681L76.8392 26.2865L78.2699 49.2928L78.5208 49.2743Z" fill="#3C3E49" mask="url(#path-8-outside-1_369_33669)"/>
</mask>
<g mask="url(#mask0_369_33669)">
<rect width="7.27595" height="69.7278" transform="matrix(0.909226 0.416304 -0.416305 0.909225 61.3008 16.5704)" fill="white"/>
<rect width="2.42532" height="69.7278" transform="matrix(0.909226 0.416303 -0.416305 0.909225 56.8906 14.5506)" fill="white"/>
</g>
<path d="M75.1731 26.2006C76.7428 26.0433 78.3041 26.5265 79.514 27.543L104.252 48.3401L104.474 48.5357C105.554 49.541 106.229 50.9248 106.362 52.42L111.649 111.872C111.655 111.941 111.605 112.003 111.536 112.01L41.9933 118.994C38.7217 119.323 35.8329 116.891 35.5374 113.568L28.7231 36.9395C28.4276 33.6167 30.8367 30.6531 34.1083 30.3246L75.1731 26.2006Z" stroke="#3C3E49" stroke-width="0.251626" stroke-linecap="round" stroke-linejoin="round"/>
<path fill-rule="evenodd" clip-rule="evenodd" d="M105.63 49.6815L83.1278 52.567C79.9291 52.8883 78.209 52.5897 77.9197 49.336L77.0435 25.6484" fill="#1470EF"/>
<path d="M105.645 49.8064L105.769 49.7904L105.74 49.5405L105.615 49.5565L105.645 49.8064ZM83.1278 52.567L83.139 52.6924L83.1424 52.692L83.1278 52.567ZM77.9197 49.336L77.7939 49.3421L77.7945 49.3486L77.9197 49.336ZM77.1691 25.6423C77.1666 25.5728 77.1082 25.5192 77.0389 25.5226C76.9695 25.5259 76.9154 25.585 76.9179 25.6544L77.1691 25.6423ZM105.63 49.6815L105.615 49.5565L83.1133 52.4421L83.1278 52.567L83.1424 52.692L105.645 49.8064L105.63 49.6815ZM83.1278 52.567L83.1167 52.4417C81.5138 52.6027 80.3199 52.6022 79.4907 52.1797C78.6794 51.7664 78.1878 50.9303 78.0449 49.3235L77.9197 49.336L77.7945 49.3486C77.941 50.9955 78.4541 51.9355 79.3748 52.4046C80.2777 52.8645 81.5432 52.8526 83.139 52.6924L83.1278 52.567ZM77.9197 49.336L78.0453 49.33L77.1691 25.6423L77.0435 25.6484L76.9179 25.6544L77.7941 49.3421L77.9197 49.336Z" fill="#3C3E49"/>
<path fill-rule="evenodd" clip-rule="evenodd" d="M34.5195 45.6238L55.4497 43.1741L34.5195 45.6238Z" fill="#D2E5FF"/>
<path d="M34.5195 45.6238L55.4497 43.1741" stroke="#3C3E49" stroke-width="0.910181" stroke-linecap="round" stroke-linejoin="round"/>
<path fill-rule="evenodd" clip-rule="evenodd" d="M36.1289 61.7664L75.3789 57.143L36.1289 61.7664Z" fill="#D2E5FF"/>
<path d="M36.1289 61.7664L75.3789 57.143" stroke="#3C3E49" stroke-width="0.910181" stroke-linecap="round" stroke-linejoin="round"/>
<path fill-rule="evenodd" clip-rule="evenodd" d="M104.621 99.2343C113.41 99.2343 120.536 91.9904 120.536 83.0548C120.536 74.1191 113.41 66.8752 104.621 66.8752C95.8321 66.8752 88.707 74.1191 88.707 83.0548C88.707 91.9904 95.8321 99.2343 104.621 99.2343Z" fill="#D2E5FF" stroke="#3C3E49" stroke-width="0.595727" stroke-linecap="round" stroke-linejoin="round"/>
<path fill-rule="evenodd" clip-rule="evenodd" d="M104.617 104.291C116.154 104.291 125.507 94.7822 125.507 83.0526C125.507 71.323 116.154 61.8143 104.617 61.8143C93.0794 61.8143 83.7266 71.323 83.7266 83.0526C83.7266 94.7822 93.0794 104.291 104.617 104.291Z" fill="white" stroke="#3C3E49" stroke-width="0.107869" stroke-linecap="round" stroke-linejoin="round"/>
<path fill-rule="evenodd" clip-rule="evenodd" d="M104.269 97.0962C112.087 97.0962 118.424 90.6529 118.424 82.7047C118.424 74.7565 112.087 68.3132 104.269 68.3132C96.4509 68.3132 90.1133 74.7565 90.1133 82.7047C90.1133 90.6529 96.4509 97.0962 104.269 97.0962Z" fill="#1470EF" stroke="#3C3E49" stroke-width="0.35167" stroke-linecap="round" stroke-linejoin="round"/>
<path d="M104.613 74.9636V91.1431" stroke="white" stroke-width="1.40668" stroke-linecap="square" stroke-linejoin="round"/>
<path d="M96.6562 83.052H112.571" stroke="white" stroke-width="1.40668" stroke-linecap="square" stroke-linejoin="round"/>
</svg>
