<svg viewBox="0 0 31 31" fill="none" xmlns="http://www.w3.org/2000/svg">
<g clip-path="url(#clip0_10340_8639)">
<path fill-rule="evenodd" clip-rule="evenodd" d="M12.2893 -2.00586C11.6983 -2.00586 11.2191 -1.5267 11.2191 -0.935627C11.2191 -0.344552 11.6983 0.13461 12.2893 0.13461H18.7107C19.3018 0.13461 19.781 -0.344552 19.781 -0.935627C19.781 -1.5267 19.3018 -2.00586 18.7107 -2.00586H12.2893ZM15.5 4.41554C9.58928 4.41554 4.7977 9.20717 4.7977 15.1179C4.7977 21.0286 9.58928 25.8202 15.5 25.8202C21.4108 25.8202 26.2024 21.0286 26.2024 15.1179C26.2024 9.20717 21.4108 4.41554 15.5 4.41554ZM2.65723 15.1179C2.65723 8.02498 8.40714 2.27507 15.5 2.27507C22.5929 2.27507 28.3428 8.02498 28.3428 15.1179C28.3428 22.2108 22.5929 27.9607 15.5 27.9607C8.40714 27.9607 2.65723 22.2108 2.65723 15.1179ZM21.5545 9.06349C21.9724 9.48148 21.9724 10.1591 21.5545 10.577L16.2568 15.8747C15.8389 16.2927 15.1612 16.2927 14.7433 15.8747C14.3253 15.4567 14.3253 14.7791 14.7433 14.3611L20.0409 9.06349C20.4589 8.64554 21.1365 8.64554 21.5545 9.06349Z" fill="#292929"/>
</g>
<defs>
<clipPath id="clip0_10340_8639">
<rect width="30" height="30" fill="white" transform="translate(0.5 0.494141)"/>
</clipPath>
</defs>
</svg>