<svg viewBox="0 0 25 25" fill="none" xmlns="http://www.w3.org/2000/svg">
<path d="M6.28843 0L0 6.28843V18.7116L6.28843 25H18.7116L25 18.7116V6.28843L18.7116 0L6.28843 0ZM23.5352 18.1048L18.1048 23.5352H6.89517L1.46484 18.1048V6.89517L6.89517 1.46484H18.1048L23.5352 6.89517V18.1048Z" fill="currentColor"/>
<path d="M12.5 14.4297C11.9606 14.4297 11.5234 13.9925 11.5234 13.4531V7.59375C11.5234 7.05439 11.9606 6.61719 12.5 6.61719C13.0394 6.61719 13.4766 7.05439 13.4766 7.59375V13.4531C13.4766 13.9925 13.0394 14.4297 12.5 14.4297Z" fill="currentColor"/>
<path d="M12.5 18.3359C13.0393 18.3359 13.4766 17.8987 13.4766 17.3594C13.4766 16.82 13.0393 16.3828 12.5 16.3828C11.9607 16.3828 11.5234 16.82 11.5234 17.3594C11.5234 17.8987 11.9607 18.3359 12.5 18.3359Z" fill="currentColor"/>
</svg>
