<svg viewBox="0 0 24 25" fill="none" xmlns="http://www.w3.org/2000/svg">
<circle cx="12" cy="12.5" r="9.3" stroke="currentColor" stroke-width="1.4"/>
<mask id="path-2-outside-1_9527_3594" maskUnits="userSpaceOnUse" x="4.80536" y="5.63449" width="14.5003" height="13.6372" fill="black">
<rect fill="white" x="4.80536" y="5.63449" width="14.5003" height="13.6372"/>
<path fill-rule="evenodd" clip-rule="evenodd" d="M12.6519 13.5604L15.4612 9.50878L10.9249 11.4399L10.9247 11.4396L8.11543 15.4912L12.6517 13.5601L12.6519 13.5604Z"/>
</mask>
<path d="M15.4612 9.50878L16.6117 10.3065C16.967 9.79399 16.9405 9.10822 16.5467 8.62466C16.1529 8.1411 15.4866 7.97636 14.9128 8.22064L15.4612 9.50878ZM12.6519 13.5604L11.5664 14.4445C11.8443 14.7857 12.2663 14.9763 12.706 14.9594C13.1456 14.9424 13.5517 14.7197 13.8024 14.3581L12.6519 13.5604ZM10.9249 11.4399L9.83942 12.324C10.2333 12.8076 10.8995 12.9723 11.4733 12.728L10.9249 11.4399ZM10.9247 11.4396L12.0102 10.5555C11.7323 10.2143 11.3103 10.0236 10.8706 10.0406C10.431 10.0576 10.0249 10.2803 9.77418 10.6419L10.9247 11.4396ZM8.11543 15.4912L6.96493 14.6935C6.60957 15.206 6.63607 15.8917 7.02992 16.3753C7.42376 16.8589 8.08997 17.0236 8.66379 16.7793L8.11543 15.4912ZM12.6517 13.5601L13.7372 12.676C13.3434 12.1924 12.6771 12.0277 12.1033 12.2719L12.6517 13.5601ZM14.3107 8.71106L11.5014 12.7627L13.8024 14.3581L16.6117 10.3065L14.3107 8.71106ZM11.4733 12.728L16.0096 10.7969L14.9128 8.22064L10.3766 10.1517L11.4733 12.728ZM12.0104 10.5558L12.0102 10.5555L9.83916 12.3237L9.83942 12.324L12.0104 10.5558ZM9.77418 10.6419L6.96493 14.6935L9.26593 16.2889L12.0752 12.2373L9.77418 10.6419ZM8.66379 16.7793L13.2001 14.8482L12.1033 12.2719L7.56706 14.2031L8.66379 16.7793ZM13.7375 12.6763L13.7372 12.676L11.5662 14.4442L11.5664 14.4445L13.7375 12.6763Z" fill="currentColor" mask="url(#path-2-outside-1_9527_3594)"/>
<path d="M12 3.55273L12 4.60537" stroke="currentColor" stroke-width="1.6" stroke-linecap="round"/>
<path d="M12 20.3945L12 21.4472" stroke="currentColor" stroke-width="1.6" stroke-linecap="round"/>
<path d="M19.8948 12.481H20.9474" stroke="currentColor" stroke-width="1.6" stroke-linecap="round"/>
<path d="M3.05261 12.5186H4.10524" stroke="currentColor" stroke-width="1.6" stroke-linecap="round"/>
</svg>
