<svg viewBox="0 0 24 24" fill="none" xmlns="http://www.w3.org/2000/svg">
<circle cx="12" cy="12" r="9.4" stroke="currentColor" stroke-width="1.2"/>
<mask id="path-2-outside-1_9045_39208" maskUnits="userSpaceOnUse" x="4.80561" y="5.13436" width="13.8688" height="12.8619" fill="black">
<rect fill="white" x="4.80561" y="5.13436" width="13.8688" height="12.8619"/>
<path fill-rule="evenodd" clip-rule="evenodd" d="M12.6522 13.0603L15.4614 9.00866L10.9252 10.9398L10.9249 10.9395L8.11567 14.9911L12.6519 13.06L12.6522 13.0603Z"/>
</mask>
<path d="M15.4614 9.00866L16.4476 9.69241C16.7522 9.25312 16.7295 8.66532 16.3919 8.25084C16.0543 7.83636 15.4833 7.69516 14.9914 7.90454L15.4614 9.00866ZM12.6522 13.0603L11.7217 13.8181C11.9599 14.1105 12.3217 14.2739 12.6985 14.2594C13.0754 14.2448 13.4234 14.0539 13.6383 13.744L12.6522 13.0603ZM10.9252 10.9398L9.99473 11.6976C10.3323 12.1121 10.9034 12.2533 11.3952 12.0439L10.9252 10.9398ZM10.9249 10.9395L11.8554 10.1816C11.6172 9.88923 11.2554 9.72579 10.8786 9.74035C10.5017 9.75491 10.1537 9.94578 9.93878 10.2557L10.9249 10.9395ZM8.11567 14.9911L7.12953 14.3073C6.82494 14.7466 6.84765 15.3344 7.18523 15.7489C7.52281 16.1634 8.09385 16.3046 8.5857 16.0952L8.11567 14.9911ZM12.6519 13.06L13.5824 12.3021C13.2448 11.8877 12.6737 11.7465 12.1819 11.9558L12.6519 13.06ZM14.4753 8.3249L11.666 12.3765L13.6383 13.744L16.4476 9.69241L14.4753 8.3249ZM11.3952 12.0439L15.9315 10.1128L14.9914 7.90454L10.4551 9.83565L11.3952 12.0439ZM11.8556 10.1819L11.8554 10.1816L9.99448 11.6973L9.99473 11.6976L11.8556 10.1819ZM9.93878 10.2557L7.12953 14.3073L9.10181 15.6748L11.9111 11.6232L9.93878 10.2557ZM8.5857 16.0952L13.122 14.1641L12.1819 11.9558L7.64564 13.887L8.5857 16.0952ZM13.5826 12.3025L13.5824 12.3021L11.7215 13.8178L11.7217 13.8181L13.5826 12.3025Z" fill="currentColor" mask="url(#path-2-outside-1_9045_39208)"/>
<path d="M12 3.05261L12 4.10524" stroke="currentColor" stroke-width="1.2" stroke-linecap="round"/>
<path d="M12 19.8947L12 20.9473" stroke="currentColor" stroke-width="1.2" stroke-linecap="round"/>
<path d="M19.8945 11.9811H20.9472" stroke="currentColor" stroke-width="1.2" stroke-linecap="round"/>
<path d="M3.05273 12.0187H4.10537" stroke="currentColor" stroke-width="1.2" stroke-linecap="round"/>
</svg>
