<svg xmlns="http://www.w3.org/2000/svg" viewBox="0 0 16 16" fill="none"><g fill="#7147E8" stroke="#7147E8" stroke-width=".1" clip-path="url(#a)"><path d="M13.461 8.077a.461.461 0 0 0-.461.461v4.154a1.385 1.385 0 0 1-1.385 1.385H3.308a1.385 1.385 0 0 1-1.385-1.385V4.385A1.385 1.385 0 0 1 3.308 3h4.154a.462.462 0 1 0 0-.923H3.308A2.308 2.308 0 0 0 1 4.385v8.307A2.308 2.308 0 0 0 3.308 15h8.307a2.308 2.308 0 0 0 2.308-2.308V8.538a.461.461 0 0 0-.462-.461Z"/><path d="M10.385 2.154h2.648l-6.52 6.513a.577.577 0 0 0 .188.946.577.577 0 0 0 .632-.126l6.513-6.514v2.642a.577.577 0 0 0 1.154 0V1.577a.578.578 0 0 0-.355-.534.577.577 0 0 0-.222-.043h-4.038a.577.577 0 1 0 0 1.154Z"/></g><defs><clipPath id="a"><path fill="#fff" d="M0 0h16v16H0z"/></clipPath></defs></svg>