<svg viewBox="0 0 40 40" fill="none" xmlns="http://www.w3.org/2000/svg">
<g clip-path="url(#clip0_2439_39034)">
<mask id="mask0_2439_39034" style="mask-type:luminance" maskUnits="userSpaceOnUse" x="5" y="5" width="30" height="30">
<path d="M5 5H35V35H5V5Z" fill="white"/>
</mask>
<g mask="url(#mask0_2439_39034)">
<path d="M30.9725 20.1537C30.8505 20.1535 30.7297 20.1773 30.617 20.2239C30.5043 20.2704 30.4019 20.3388 30.3157 20.425C30.2294 20.5113 30.1611 20.6137 30.1145 20.7264C30.068 20.8391 30.0441 20.9599 30.0444 21.0819V29.4256C30.0446 29.7909 29.9729 30.1527 29.8332 30.4903C29.6936 30.8279 29.4888 31.1346 29.2306 31.393C28.9724 31.6514 28.6658 31.8564 28.3283 31.9963C27.9908 32.1361 27.6291 32.2081 27.2637 32.2081H10.5744C10.2089 32.2084 9.84697 32.1366 9.50927 31.9968C9.17157 31.8571 8.86473 31.6521 8.6063 31.3937C8.34787 31.1353 8.14292 30.8284 8.00318 30.4907C7.86343 30.153 7.79163 29.7911 7.79188 29.4256V12.7381C7.79188 12.0002 8.08503 11.2924 8.60685 10.7706C9.12867 10.2488 9.83641 9.95562 10.5744 9.95562H18.9181C19.1643 9.95562 19.4004 9.85783 19.5744 9.68377C19.7485 9.50972 19.8462 9.27364 19.8462 9.02749C19.8462 8.78134 19.7485 8.54526 19.5744 8.37121C19.4004 8.19715 19.1643 8.09937 18.9181 8.09937H10.5744C9.96529 8.09937 9.36218 8.21936 8.79949 8.45251C8.23679 8.68565 7.72554 9.02736 7.29495 9.45814C6.86435 9.88891 6.52284 10.4003 6.28992 10.9631C6.05701 11.5259 5.93725 12.129 5.9375 12.7381V29.4275C5.938 30.6569 6.42674 31.8359 7.29627 32.705C8.1658 33.5742 9.34492 34.0625 10.5744 34.0625H27.2619C28.4916 34.0625 29.6711 33.574 30.5406 32.7044C31.4102 31.8348 31.8987 30.6554 31.8987 29.4256V21.0819C31.899 20.9601 31.8752 20.8394 31.8288 20.7268C31.7823 20.6142 31.7142 20.5119 31.6281 20.4257C31.5421 20.3395 31.4399 20.2711 31.3274 20.2244C31.2149 20.1778 31.0943 20.1537 30.9725 20.1537Z" fill="currentColor" stroke="currentColor" stroke-width="0.0875"/>
<path d="M24.7906 8.25501H30.11L17.0131 21.3406C16.8763 21.4755 16.7752 21.6422 16.7188 21.8258C16.6624 22.0094 16.6526 22.2041 16.6902 22.3925C16.7277 22.5808 16.8115 22.7569 16.934 22.9049C17.0565 23.0528 17.2138 23.168 17.3919 23.24C17.6044 23.3285 17.8384 23.3517 18.0642 23.3066C18.2899 23.2615 18.4971 23.1502 18.6594 22.9869L31.745 9.90126V15.2094C31.745 15.5167 31.8671 15.8114 32.0844 16.0287C32.3017 16.2461 32.5964 16.3681 32.9037 16.3681C33.211 16.3681 33.5058 16.2461 33.7231 16.0287C33.9404 15.8114 34.0625 15.5167 34.0625 15.2094V7.09626C34.0636 6.78799 33.9422 6.49191 33.725 6.27314C33.6168 6.16599 33.4887 6.0812 33.3477 6.02362C33.2068 5.96603 33.056 5.93677 32.9037 5.93751H24.7906C24.4833 5.93751 24.1886 6.0596 23.9712 6.2769C23.7539 6.49421 23.6319 6.78894 23.6319 7.09626C23.6319 7.40358 23.7539 7.69832 23.9712 7.91562C24.1886 8.13293 24.4833 8.25501 24.7906 8.25501Z" fill="currentColor" stroke="currentColor" stroke-width="0.0875"/>
</g>
</g>
<defs>
<clipPath id="clip0_2439_39034">
<rect width="30" height="30" fill="white" transform="translate(5 5)"/>
</clipPath>
</defs>
</svg>