<svg viewBox="0 0 16 16" fill="none" xmlns="http://www.w3.org/2000/svg">
<g clip-path="url(#clip0_14106_20469)">
<path d="M13.8516 8.08238C13.7205 8.08238 13.5947 8.13448 13.502 8.22722C13.4092 8.31995 13.3571 8.44573 13.3571 8.57689V13.0274C13.3571 13.4209 13.2008 13.7982 12.9226 14.0764C12.6444 14.3547 12.2671 14.511 11.8736 14.511H2.97253C2.57907 14.511 2.20174 14.3547 1.92352 14.0764C1.64531 13.7982 1.48901 13.4209 1.48901 13.0274V4.12634C1.48901 3.73288 1.64531 3.35554 1.92352 3.07733C2.20174 2.79912 2.57907 2.64282 2.97253 2.64282H7.42308C7.55423 2.64282 7.68001 2.59072 7.77275 2.49798C7.86548 2.40524 7.91758 2.27947 7.91758 2.14831C7.91758 2.01716 7.86548 1.89138 7.77275 1.79865C7.68001 1.70591 7.55423 1.65381 7.42308 1.65381H2.97253C2.31677 1.65381 1.68788 1.91431 1.22419 2.378C0.760498 2.84168 0.5 3.47058 0.5 4.12634V13.0274C0.5 13.6832 0.760498 14.3121 1.22419 14.7758C1.68788 15.2395 2.31677 15.5 2.97253 15.5H11.8736C12.5294 15.5 13.1583 15.2395 13.622 14.7758C14.0857 14.3121 14.3462 13.6832 14.3462 13.0274V8.57689C14.3462 8.44573 14.2941 8.31995 14.2013 8.22722C14.1086 8.13448 13.9828 8.08238 13.8516 8.08238Z" fill="currentColor" stroke="currentColor" stroke-width="0.1"/>
<path d="M10.5551 1.73627H13.3923L6.40745 8.71498C6.34952 8.77244 6.30353 8.84081 6.27215 8.91613C6.24077 8.99146 6.22461 9.07225 6.22461 9.15385C6.22461 9.23545 6.24077 9.31625 6.27215 9.39157C6.30353 9.4669 6.34952 9.53526 6.40745 9.59272C6.46491 9.65066 6.53328 9.69665 6.60861 9.72803C6.68393 9.75941 6.76472 9.77557 6.84632 9.77557C6.92793 9.77557 7.00872 9.75941 7.08404 9.72803C7.15937 9.69665 7.22773 9.65066 7.2852 9.59272L14.2639 2.61402V5.44506C14.2639 5.609 14.329 5.76622 14.4449 5.88215C14.5609 5.99807 14.7181 6.06319 14.882 6.06319C15.046 6.06319 15.2032 5.99807 15.3191 5.88215C15.435 5.76622 15.5002 5.609 15.5002 5.44506V1.11814C15.5006 1.03679 15.485 0.956149 15.4543 0.880837C15.4235 0.805525 15.3782 0.737027 15.3209 0.679268C15.2631 0.621979 15.1947 0.576655 15.1193 0.545893C15.044 0.515132 14.9634 0.49954 14.882 0.50001H10.5551C10.3912 0.50001 10.234 0.565135 10.118 0.681057C10.0021 0.796979 9.93698 0.954203 9.93698 1.11814C9.93698 1.28208 10.0021 1.4393 10.118 1.55523C10.234 1.67115 10.3912 1.73627 10.5551 1.73627Z" fill="currentColor" stroke="currentColor" stroke-width="0.1"/>
</g>
<defs>
<clipPath id="clip0_14106_20469">
<rect width="16" height="16" fill="white"/>
</clipPath>
</defs>
</svg>