<svg viewBox="0 0 12 12" fill="none" xmlns="http://www.w3.org/2000/svg">
<g clip-path="url(#clip0_6975_15800)">
<path fill-rule="evenodd" clip-rule="evenodd" d="M1.36085 6C1.40034 6.06535 1.44583 6.13855 1.49722 6.21811C1.72189 6.56598 2.05425 7.02795 2.48465 7.48704C3.35914 8.41983 4.54963 9.25 6 9.25C7.45037 9.25 8.64086 8.41983 9.51535 7.48704C9.94575 7.02795 10.2781 6.56598 10.5028 6.21811C10.5542 6.13855 10.5997 6.06535 10.6392 6C10.5997 5.93464 10.5542 5.86145 10.5028 5.78189C10.2781 5.43402 9.94575 4.97205 9.51535 4.51296C8.64086 3.58017 7.45037 2.75 6 2.75C4.54963 2.75 3.35914 3.58017 2.48465 4.51296C2.05425 4.97205 1.72189 5.43402 1.49722 5.78189C1.44583 5.86145 1.40034 5.93465 1.36085 6ZM11.5 6C12.1708 5.66459 12.1707 5.66435 12.1706 5.66408L12.1695 5.66202L12.1675 5.65798L12.1612 5.64561C12.156 5.63548 12.1488 5.62162 12.1396 5.60429C12.1213 5.56963 12.095 5.52102 12.0609 5.46043C11.9928 5.33936 11.8932 5.16989 11.7628 4.96811C11.5031 4.56598 11.1167 4.02795 10.6097 3.48704C9.60914 2.41983 8.04963 1.25 6 1.25C3.95037 1.25 2.39086 2.41983 1.39035 3.48704C0.883251 4.02795 0.496861 4.56598 0.237158 4.96811C0.106841 5.16989 0.00719546 5.33936 -0.0609082 5.46043C-0.0949883 5.52102 -0.121254 5.56963 -0.139593 5.60429C-0.148764 5.62162 -0.155961 5.63548 -0.161169 5.64561L-0.167489 5.65798L-0.169529 5.66202L-0.170268 5.66349C-0.170398 5.66375 -0.17082 5.66459 0.5 6L-0.17082 5.66459C-0.276393 5.87574 -0.276393 6.12426 -0.17082 6.33541L0.5 6C-0.17082 6.33541 -0.170951 6.33515 -0.17082 6.33541L-0.170268 6.33651L-0.169529 6.33798L-0.167489 6.34202L-0.161169 6.35439C-0.155961 6.36452 -0.148764 6.37838 -0.139593 6.39571C-0.121254 6.43037 -0.0949883 6.47898 -0.0609082 6.53957C0.00719546 6.66064 0.106841 6.83011 0.237158 7.03189C0.496861 7.43402 0.883251 7.97205 1.39035 8.51296C2.39086 9.58017 3.95037 10.75 6 10.75C8.04963 10.75 9.60914 9.58017 10.6097 8.51296C11.1167 7.97205 11.5031 7.43402 11.7628 7.03189C11.8932 6.83011 11.9928 6.66064 12.0609 6.53957C12.095 6.47898 12.1213 6.43037 12.1396 6.39571C12.1488 6.37838 12.156 6.36452 12.1612 6.35439L12.1675 6.34202L12.1695 6.33798L12.1703 6.33651C12.1704 6.33625 12.1708 6.33541 11.5 6ZM11.5 6L12.1708 6.33541C12.2764 6.12426 12.2761 5.87523 12.1706 5.66408L11.5 6ZM6 5.25C5.58579 5.25 5.25 5.58579 5.25 6C5.25 6.41421 5.58579 6.75 6 6.75C6.41421 6.75 6.75 6.41421 6.75 6C6.75 5.58579 6.41421 5.25 6 5.25ZM3.75 6C3.75 4.75736 4.75736 3.75 6 3.75C7.24264 3.75 8.25 4.75736 8.25 6C8.25 7.24264 7.24264 8.25 6 8.25C4.75736 8.25 3.75 7.24264 3.75 6ZM1.17041 5.66378C1.17035 5.66364 1.17024 5.66344 1.17041 5.66378Z" fill="currentColor"/>
</g>
<defs>
<clipPath id="clip0_6975_15800">
<rect width="12" height="12" fill="white"/>
</clipPath>
</defs>
</svg>