
<svg viewBox="0 0 16 16" fill="none" xmlns="http://www.w3.org/2000/svg">
<g clip-path="url(#clip0_4686_128907)">
<path d="M8.00033 0.667969C3.95671 0.667969 0.666992 3.95768 0.666992 8.0013C0.666992 12.0449 3.95671 15.3346 8.00033 15.3346C12.0439 15.3346 15.3337 12.0449 15.3337 8.0013C15.3337 3.95768 12.0439 0.667969 8.00033 0.667969ZM8.00033 14.668C4.32438 14.668 1.33366 11.6774 1.33366 8.0013C1.33366 4.3252 4.32438 1.33464 8.00033 1.33464C11.6763 1.33464 14.667 4.3252 14.667 8.0013C14.667 11.6774 11.6763 14.668 8.00033 14.668ZM11.3001 5.17285L8.47168 8.0013L11.3001 10.8298C11.4303 10.96 11.4303 11.1709 11.3001 11.3011C11.235 11.3662 11.1497 11.3988 11.0645 11.3988C10.9792 11.3988 10.8939 11.3662 10.8288 11.3011L8.00033 8.47266L5.17188 11.3011C5.10677 11.3662 5.02148 11.3988 4.9362 11.3988C4.85091 11.3988 4.76562 11.3662 4.70052 11.3011C4.57031 11.1709 4.57031 10.96 4.70052 10.8298L7.52897 8.0013L4.70052 5.17285C4.57031 5.04264 4.57031 4.83171 4.70052 4.7015C4.83073 4.57129 5.04167 4.57129 5.17188 4.7015L8.00033 7.52995L10.8288 4.7015C10.959 4.57129 11.1699 4.57129 11.3001 4.7015C11.4303 4.83171 11.4303 5.04264 11.3001 5.17285Z" fill="#FF7C50"/>
</g>
<defs>
<clipPath id="clip0_4686_128907">
<rect width="16" height="16" fill="white"/>
</clipPath>
</defs>
</svg>
