<svg viewBox="0 0 20 21" fill="none" xmlns="http://www.w3.org/2000/svg">
<path d="M8.07734 18.1798H6.15734C4.56676 18.1798 3.27734 16.8904 3.27734 15.2998V5.69982C3.27734 4.10924 4.56676 2.81982 6.15734 2.81982H12.8773C14.4679 2.81982 15.7573 4.10924 15.7573 5.69982V8.09982M12.3973 12.8998V11.9398C12.3973 11.1445 13.0421 10.4998 13.8373 10.4998C14.6326 10.4998 15.2773 11.1445 15.2773 11.9398V13.3798M12.3973 6.65982H6.15734M9.51734 9.53982H6.15734M8.07734 12.4198H6.15734M11.9173 18.1798H15.7573C16.2875 18.1798 16.7173 17.75 16.7173 17.2198V14.3398C16.7173 13.8096 16.2875 13.3798 15.7573 13.3798H11.9173C11.3872 13.3798 10.9573 13.8096 10.9573 14.3398V17.2198C10.9573 17.75 11.3872 18.1798 11.9173 18.1798Z" stroke="currentColor" stroke-width="1.5" stroke-linecap="round" stroke-linejoin="round"/>
</svg>
