<svg id="Layer_1" xmlns="http://www.w3.org/2000/svg" version="1.1" viewBox="0 0 89 89">
  <path d="M0,28C0,12.54,12.54,0,28,0h33c15.46,0,28,12.54,28,28v33c0,15.46-12.54,28-28,28H28c-15.46,0-28-12.54-28-28V28Z" fill="#fbf7ff"/>
  <path d="M36.62,27.71v5.27c0,2.57-2.19,4.66-4.89,4.66h-5.25" stroke-linejoin="round" stroke-linecap="round"  fill="none" stroke="#4e1884" stroke-width="2" />
  <path d="M58.69,60.11v-27.15c0-3.53-2.87-6.4-6.4-6.4h-16.32c-2.13,0-4.13,1.06-5.31,2.83l-3.56,5.31c-.71,1.05-1.09,2.3-1.09,3.57v21.84c0,3.53,2.87,6.4,6.4,6.4h19.89c3.53,0,6.4-2.87,6.4-6.4Z" fill="none" stroke="#4e1884" stroke-width="2" />
  <path d="M57.35,63.35h.25c3.53,0,6.4-2.87,6.4-6.4v-28.55c0-3.53-2.87-6.4-6.4-6.4h-13.2c-2.66,0-4.82,2.16-4.82,4.82h0" fill="none" stroke="#4e1884" stroke-width="2" />
  <line x1="33.67" y1="49.34" x2="51.7" y2="49.34" stroke-linecap="round" fill="none" stroke="#4e1884" stroke-width="2" />
  <line x1="33.67" y1="55.5" x2="42.73" y2="55.5" stroke-linecap="round" fill="none" stroke="#4e1884" stroke-width="2" />
</svg>