<svg xmlns="http://www.w3.org/2000/svg" width="16" height="16" fill="none"><path fill="#7147E8" stroke="#7147E8" stroke-width=".3" d="M14.854.5H1.146a.646.646 0 0 0-.574.341.624.624 0 0 0 .05.663l5.023 6.902.005.007c.182.24.281.531.282.83v5.627a.618.618 0 0 0 .186.445.649.649 0 0 0 .708.136l2.822-1.05a.597.597 0 0 0 .42-.588v-4.57c.001-.299.1-.59.282-.83l.005-.007 5.022-6.902a.624.624 0 0 0 .05-.663.646.646 0 0 0-.573-.341ZM9.72 7.962c-.28.371-.432.82-.433 1.282v4.476l-2.576.958V9.244c0-.462-.152-.91-.433-1.282l-4.875-6.7h13.193l-4.876 6.7Z"/></svg>