<svg id="svg5" viewBox="0 0 32 32" xmlns="http://www.w3.org/2000/svg" xmlns:svg="http://www.w3.org/2000/svg"><g id="layer1" fill-rule="evenodd" stroke-linecap="round" stroke-linejoin="round" stroke-miterlimit="4.1" transform="translate(-300 -100)"><path id="path6012" d="m321 106.01215c-2.40719 0-4.43155 1.72541-4.89844 4h-13.10156c-.55228 0-1 .44772-1 1s.44772 1 1 1h13.10156c.46689 2.27459 2.49125 4 4.89844 4s4.43155-1.72541 4.89844-4h3.10156c.55228 0 1-.44772 1-1s-.44772-1-1-1h-3.10156c-.46689-2.27459-2.49125-4-4.89844-4zm0 2c1.66867 0 3 1.33133 3 3s-1.33133 3-3 3-3-1.33133-3-3 1.33133-3 3-3z"/><path id="path6014" d="m311 116.01215c-2.40719 0-4.43155 1.72541-4.89844 4h-3.10156c-.55228 0-1 .44772-1 1s.44772 1 1 1h3.10156c.46689 2.27459 2.49125 4 4.89844 4s4.43155-1.72541 4.89844-4h13.10156c.55228 0 1-.44772 1-1s-.44772-1-1-1h-13.10156c-.46689-2.27459-2.49125-4-4.89844-4zm0 2c1.66867 0 3 1.33133 3 3s-1.33133 3-3 3-3-1.33133-3-3 1.33133-3 3-3z"/></g></svg>