<svg xmlns="http://www.w3.org/2000/svg" width="16" height="16" fill="none"><g fill="#7147E8" stroke="#7147E8" stroke-width=".4" clip-path="url(#a)"><path d="M.94 6.086a.44.44 0 0 1-.44-.44V3.293A2.796 2.796 0 0 1 3.293.5h2.353a.44.44 0 0 1 0 .879H3.293a1.916 1.916 0 0 0-1.914 1.914v2.353a.44.44 0 0 1-.44.44ZM5.646 15.5H3.293A2.796 2.796 0 0 1 .5 12.709v-2.354a.44.44 0 1 1 .879 0v2.354c0 1.055.858 1.914 1.914 1.914h2.353a.44.44 0 1 1 0 .879ZM15.06 6.086a.44.44 0 0 1-.44-.44V3.293a1.916 1.916 0 0 0-1.914-1.914h-2.353a.44.44 0 1 1 0-.879h2.353A2.796 2.796 0 0 1 15.5 3.293v2.353a.44.44 0 0 1-.44.44ZM12.706 15.5h-2.353a.44.44 0 1 1 0-.878h2.353a1.916 1.916 0 0 0 1.914-1.914v-2.354a.44.44 0 0 1 .88 0v2.354a2.796 2.796 0 0 1-2.794 2.793ZM8 10.79a2.796 2.796 0 0 1-2.793-2.792 2.796 2.796 0 0 1 2.792-2.793 2.796 2.796 0 0 1 2.793 2.793A2.796 2.796 0 0 1 8 10.79Zm0-4.706a1.916 1.916 0 0 0-1.915 1.914c0 1.055.859 1.914 1.914 1.914a1.916 1.916 0 0 0 1.914-1.914A1.916 1.916 0 0 0 8 6.084Z"/></g><defs><clipPath id="a"><path fill="#fff" d="M0 0h16v16H0z"/></clipPath></defs></svg>