<svg viewBox="0 0 12 12" fill="none" xmlns="http://www.w3.org/2000/svg">
<path d="M7 3.5H9.82019C10.0438 3.5 10.1557 3.5 10.2211 3.54702C10.2781 3.58805 10.3153 3.6512 10.3234 3.721C10.3328 3.801 10.2785 3.89875 10.1699 4.09426L9.49681 5.30574C9.45742 5.37664 9.43772 5.41209 9.43 5.44964C9.42317 5.48286 9.42317 5.51714 9.43 5.55036C9.43772 5.58791 9.45742 5.62336 9.49681 5.69426L10.1699 6.90574C10.2785 7.10124 10.3328 7.199 10.3234 7.279C10.3153 7.34881 10.2781 7.41195 10.2211 7.45298C10.1557 7.5 10.0438 7.5 9.82019 7.5H6.3C6.01997 7.5 5.87996 7.5 5.773 7.4455C5.67892 7.39757 5.60243 7.32108 5.5545 7.227C5.5 7.12004 5.5 6.98003 5.5 6.7V5.5M2 10.5L2 2M2 5.5H6.2C6.48003 5.5 6.62004 5.5 6.72699 5.4455C6.82108 5.39757 6.89757 5.32108 6.9455 5.227C7 5.12004 7 4.98003 7 4.7V2.3C7 2.01997 7 1.87996 6.9455 1.773C6.89757 1.67892 6.82108 1.60243 6.72699 1.5545C6.62004 1.5 6.48003 1.5 6.2 1.5H2.8C2.51997 1.5 2.37996 1.5 2.273 1.5545C2.17892 1.60243 2.10243 1.67892 2.0545 1.773C2 1.87996 2 2.01997 2 2.3V5.5Z" stroke="#067647" stroke-linecap="round" stroke-linejoin="round"/>
</svg>
