<svg xmlns="http://www.w3.org/2000/svg" width="16" height="16" fill="none"><path fill="currentColor" d="M12.5 3h-7a.5.5 0 1 0 0 1h7a.5.5 0 0 0 0-1Z"/><path fill="currentColor" d="M12.5 5H5.57a1.695 1.695 0 0 1-1.5-1.035A1.5 1.5 0 0 1 5.5 2h7a.5.5 0 0 0 0-1h-7A2.5 2.5 0 0 0 3 3.54V14.5a.5.5 0 0 0 .5.5h9a.5.5 0 0 0 .5-.5v-9a.5.5 0 0 0-.5-.5ZM6 6h1v2.3l-.145-.15a.5.5 0 0 0-.71 0L6 8.3V6Zm6 8H4V5.445c.3.22.64.38 1 .47V9.5a.5.5 0 0 0 .599.49.5.5 0 0 0 .256-.135l.645-.65.645.65a.5.5 0 0 0 .77-.078A.5.5 0 0 0 8 9.5V6h4v8Z"/></svg>