<svg width="140" height="140" viewBox="0 0 140 140" fill="none" xmlns="http://www.w3.org/2000/svg">
<ellipse opacity="0.1" cx="70" cy="135.8" rx="70" ry="4.2" fill="#A4A7AE"/>
<path fill-rule="evenodd" clip-rule="evenodd" d="M76.324 40.5902H35.8125C32.9386 40.5902 30.6094 42.9338 30.6094 45.8253H110.391V38.4455C110.391 36.3393 108.694 34.6309 106.601 34.6309C101.257 34.6309 87.4726 34.6309 82.6406 34.6309C80.8265 34.6309 79.1528 35.6098 78.2527 37.1926L76.324 40.5902Z" fill="#1570EF"/>
<path fill-rule="evenodd" clip-rule="evenodd" d="M112.068 94.3833C113.739 82.2832 115.837 67.089 117.091 57.9973C117.402 55.748 116.729 53.4742 115.248 51.7606C113.765 50.0487 111.619 49.0645 109.361 49.0645C91.6774 49.0645 49.3239 49.0645 31.6403 49.0645C29.3821 49.0645 27.2367 50.0487 25.7538 51.7606C24.2726 53.4742 23.5997 55.748 23.9101 57.9973C24.5241 62.449 25.6619 70.6908 26.5308 76.987C26.5967 77.4651 27.0355 77.7984 27.509 77.7321C27.9825 77.6658 28.3155 77.2243 28.2496 76.7479L25.6272 57.7583C25.3861 56.008 25.9099 54.2385 27.0615 52.907C28.2149 51.5756 29.8851 50.8095 31.6403 50.8095H109.361C111.116 50.8095 112.786 51.5756 113.94 52.907C115.091 54.2385 115.615 56.008 115.374 57.7583L110.351 94.1425C110.285 94.6207 110.617 95.0604 111.09 95.1267C111.565 95.193 112.003 94.8597 112.068 94.3833Z" fill="#717680"/>
<path fill-rule="evenodd" clip-rule="evenodd" d="M27.3146 82.6703C28.598 91.9592 29.8607 101.107 30.655 106.858C31.1909 110.741 34.4897 113.631 38.3851 113.631H102.616C105.604 113.631 108.242 111.931 109.55 109.387C109.77 108.959 109.604 108.432 109.179 108.211C108.752 107.989 108.228 108.157 108.01 108.584C106.992 110.563 104.94 111.886 102.616 111.886C88.342 111.886 52.659 111.886 38.3851 111.886C35.3552 111.886 32.7883 109.638 32.372 106.619C31.5777 100.866 30.3151 91.7184 29.0334 82.4313C28.9675 81.9531 28.5287 81.6198 28.0552 81.6861C27.5817 81.7525 27.2504 82.1939 27.3146 82.6703Z" fill="#717680"/>
<path fill-rule="evenodd" clip-rule="evenodd" d="M41.0176 98.8429C41.0176 101.253 42.9601 103.206 45.3535 103.206H59.2285C61.6237 103.206 63.5645 101.253 63.5645 98.8429V95.3529C63.5645 92.9447 61.6237 90.9902 59.2285 90.9902H45.3535C43.7041 90.9902 42.2681 91.9186 41.5362 93.285C41.309 93.709 41.4668 94.2378 41.8882 94.4664C42.308 94.695 42.8352 94.5362 43.0624 94.1139C43.5012 93.2937 44.3632 92.7353 45.3535 92.7353H59.2285C60.6663 92.7353 61.8301 93.908 61.8301 95.3529V98.8429C61.8301 100.29 60.6663 101.461 59.2285 101.461H45.3535C43.9175 101.461 42.752 100.29 42.752 98.8429C42.752 98.3613 42.3635 97.9704 41.8848 97.9704C41.4061 97.9704 41.0176 98.3613 41.0176 98.8429Z" fill="#717680"/>
<path fill-rule="evenodd" clip-rule="evenodd" d="M88.7109 63.4434C79.1389 63.4434 71.3672 71.2629 71.3672 80.8938C71.3672 90.5247 79.1389 98.3443 88.7109 98.3443C98.283 98.3443 106.055 90.5247 106.055 80.8938C106.055 71.2629 98.283 63.4434 88.7109 63.4434ZM88.7109 66.9335C96.3682 66.9335 102.586 73.1894 102.586 80.8938C102.586 88.5982 96.3682 94.8542 88.7109 94.8542C81.0537 94.8542 74.8359 88.5982 74.8359 80.8938C74.8359 73.1894 81.0537 66.9335 88.7109 66.9335Z" fill="#1570EF"/>
<path fill-rule="evenodd" clip-rule="evenodd" d="M98.81 92.9304L114.988 109.208C115.665 109.889 116.764 109.889 117.441 109.208C118.117 108.528 118.117 107.421 117.441 106.741L101.262 90.4629C100.586 89.7806 99.4864 89.7806 98.81 90.4629C98.1336 91.1435 98.1336 92.2498 98.81 92.9304Z" fill="#1570EF"/>
</svg>
