<svg viewBox="0 0 25 32" fill="none" xmlns="http://www.w3.org/2000/svg">
<g clip-path="url(#clip0_19596_44593)">
<path d="M23.3002 4.75H6.50074C6.18249 4.75 5.87728 4.86853 5.65224 5.07951C5.42721 5.29048 5.30078 5.57663 5.30078 5.875C5.30078 6.17337 5.42721 6.45952 5.65224 6.67049C5.87728 6.88147 6.18249 7 6.50074 7H23.3002C23.6185 7 23.9237 6.88147 24.1487 6.67049C24.3737 6.45952 24.5002 6.17337 24.5002 5.875C24.5002 5.57663 24.3737 5.29048 24.1487 5.07951C23.9237 4.86853 23.6185 4.75 23.3002 4.75Z" fill="currentColor"/>
<path d="M23.3 9.25H6.66857C5.89427 9.22356 5.14413 8.99035 4.5064 8.5778C3.86867 8.16525 3.36987 7.59053 3.06869 6.92125C2.89223 6.41389 2.84662 5.87454 2.93559 5.34745C3.02456 4.82036 3.24558 4.32057 3.58051 3.88908C3.91544 3.4576 4.35473 3.10672 4.86233 2.86526C5.36993 2.62379 5.93137 2.49861 6.50058 2.5H23.3C23.6183 2.5 23.9235 2.38147 24.1485 2.1705C24.3736 1.95952 24.5 1.67337 24.5 1.375C24.5 1.07663 24.3736 0.790483 24.1485 0.579505C23.9235 0.368526 23.6183 0.25 23.3 0.25H6.50058C5.70453 0.249905 4.91642 0.398327 4.18216 0.686621C3.4479 0.974915 2.78217 1.39732 2.22377 1.92922C1.66536 2.46112 1.22544 3.09188 0.929626 3.78476C0.633815 4.47764 0.488031 5.21878 0.500768 5.965V30.625C0.500768 30.9234 0.627192 31.2095 0.852229 31.4205C1.07727 31.6315 1.38248 31.75 1.70073 31.75H23.3C23.6183 31.75 23.9235 31.6315 24.1485 31.4205C24.3736 31.2095 24.5 30.9234 24.5 30.625V10.375C24.5 10.0766 24.3736 9.79048 24.1485 9.57951C23.9235 9.36853 23.6183 9.25 23.3 9.25ZM7.70054 11.5H10.1005V16.675L9.75247 16.3375C9.64092 16.2321 9.5082 16.1484 9.36198 16.0912C9.21575 16.0341 9.05891 16.0047 8.9005 16.0047C8.74209 16.0047 8.58525 16.0341 8.43902 16.0912C8.29279 16.1484 8.16008 16.2321 8.04853 16.3375L7.70054 16.675V11.5ZM22.1001 29.5H2.90069V10.2513C3.62005 10.7462 4.43513 11.1053 5.30061 11.3087V19.375C5.3018 19.5971 5.37308 19.8139 5.50547 19.9981C5.63787 20.1823 5.82545 20.3256 6.04459 20.41C6.26312 20.4962 6.50396 20.5197 6.73674 20.4776C6.96952 20.4356 7.18381 20.3299 7.35255 20.1737L8.9005 18.7112L10.4484 20.1737C10.5606 20.278 10.6935 20.3605 10.8397 20.4165C10.9859 20.4725 11.1425 20.5009 11.3004 20.5C11.4578 20.5038 11.614 20.473 11.7564 20.41C11.9755 20.3256 12.1631 20.1823 12.2955 19.9981C12.4279 19.8139 12.4992 19.5971 12.5004 19.375V11.5H22.1001V29.5Z" fill="currentColor"/>
</g>
<defs>
<clipPath id="clip0_19596_44593">
<rect width="25" height="32" fill="white"/>
</clipPath>
</defs>
</svg>
