<svg viewBox="0 0 16 16" fill="none" xmlns="http://www.w3.org/2000/svg">
<g clip-path="url(#clip0_1_5)">
<path d="M12.6784 11.1168C11.8144 11.1168 11.1168 11.8208 11.1168 12.6784C11.1168 13.536 11.8208 14.24 12.6784 14.24C13.5424 14.24 14.24 13.536 14.24 12.6784C14.24 11.8208 13.5424 11.1168 12.6784 11.1168ZM12.6784 13.4592C12.2496 13.4592 11.904 13.1136 11.904 12.6848C11.904 12.256 12.2496 11.9104 12.6784 11.9104C13.1072 11.9104 13.4528 12.256 13.4528 12.6848C13.4592 13.1072 13.1072 13.4592 12.6784 13.4592Z" fill="#9F9F9F"/>
<path d="M12.6784 9.3632C11.5648 9.3632 10.5344 9.9264 9.9136 10.8672L9.5616 11.4048V6.0544H10.528V7.4176C10.528 7.6352 10.7072 7.808 10.9248 7.808H15.6032C15.8208 7.808 15.9936 7.6288 15.9936 7.4176V0.3968C15.9936 0.1792 15.8144 0.0064 15.6032 0.0064H10.9248C10.7072 0.0064 10.5344 0.1856 10.5344 0.3968V5.2672H9.1712C8.9536 5.2672 8.7808 5.4464 8.7808 5.6576V11.1168H7.2256V3.3152C7.2256 3.0976 7.0464 2.9248 6.8352 2.9248H5.4656V0.3904C5.4656 0.1728 5.2864 0 5.0752 0H0.3904C0.1792 0 0 0.1792 0 0.3904V7.4112C0 7.6288 0.1792 7.8016 0.3904 7.8016H5.0688C5.2864 7.8016 5.4592 7.6224 5.4592 7.4112V3.712H6.4256V11.1168H2.1376C2.0608 11.1168 1.984 11.1424 1.92 11.1808L0.1728 12.352C0.064 12.4288 0 12.5504 0 12.6784C0 12.8128 0.064 12.9344 0.1728 13.0048L1.9264 14.176C1.9904 14.2208 2.0672 14.24 2.144 14.24H3.808L3.8464 14.2592L4.896 14.784C4.9472 14.8096 5.0112 14.8224 5.0688 14.8224C5.1328 14.8224 5.1904 14.8096 5.248 14.7776L6.1568 14.3232L6.24 14.2784L6.3232 14.3232L7.232 14.7776C7.2832 14.8032 7.3472 14.8224 7.4048 14.8224C7.4688 14.8224 7.5264 14.8096 7.584 14.7776L8.6272 14.2528L8.6656 14.2336H9.7408L9.7984 14.3296C10.3872 15.3536 11.488 15.9872 12.672 15.9872C14.5024 15.9872 15.9936 14.496 15.9936 12.6656C16 10.848 14.5088 9.3632 12.6784 9.3632ZM11.3216 1.5616V0.7872H15.2192V1.7536H11.3216V1.5616ZM11.3216 6.8288V2.5408H15.2192V7.0208H11.3216V6.8288ZM0.7872 1.5616V0.7872H4.6848V1.7536H0.7872V1.5616ZM4.6784 2.7328V7.0208H0.7872V2.5408H4.6848L4.6784 2.7328ZM12.6784 15.2128C11.6736 15.2128 10.7648 14.6176 10.3616 13.696C10.2976 13.5552 10.1568 13.4592 10.0032 13.4592H8.5888C8.5248 13.4592 8.4672 13.472 8.416 13.4976L7.5072 13.952L7.424 13.9968L7.3408 13.952L6.432 13.4976C6.3808 13.472 6.3168 13.4592 6.2592 13.4592C6.1952 13.4592 6.1376 13.472 6.08 13.504L5.1584 13.952L5.0752 13.9968L4.992 13.952L4.0832 13.4976C4.032 13.472 3.968 13.4528 3.9104 13.4528H2.2656L2.2144 13.4208L1.344 12.8384L1.1072 12.6784L1.344 12.5184L2.2208 11.936L2.272 11.904H10.0032C10.1568 11.904 10.304 11.8144 10.3616 11.6672C10.7648 10.7456 11.6736 10.1504 12.6784 10.1504C14.0736 10.1504 15.2128 11.2896 15.2128 12.6848C15.2128 14.08 14.08 15.2128 12.6784 15.2128Z" fill="#9F9F9F"/>
<path d="M0 8H16" stroke="#808080"/>
</g>
<defs>
<clipPath id="clip0_1_5">
<rect width="16" height="16" fill="white"/>
</clipPath>
</defs>
</svg>
