<svg width="257" height="257" viewBox="0 0 257 257" fill="none" xmlns="http://www.w3.org/2000/svg">
<path d="M247.661 128.808H174.522L174.52 128.806C169.462 128.806 165.376 124.72 165.369 119.662V101.377H156.225V171.903C166.264 156.634 183.306 147.09 201.939 147.09C232.193 147.09 256.796 171.693 256.796 201.947C256.796 232.202 232.193 256.805 201.939 256.805C182.235 256.805 164.206 246.218 154.478 229.376H140.105L123.758 237.552C121.178 238.841 118.145 238.841 115.575 237.552L101.376 230.457L87.1882 237.559C84.6085 238.848 81.5752 238.848 79.0051 237.559L62.6481 229.376H37.3771C35.5768 229.376 33.8031 228.838 32.3021 227.841L4.87383 209.556C2.33277 207.855 0.805176 205.003 0.805176 201.95C0.805176 198.895 2.33271 196.043 4.87383 194.342L32.3021 176.056C33.8031 175.062 35.5768 174.522 37.3771 174.522H101.379V64.8097H92.2355V119.667C92.2355 124.723 88.1377 128.811 83.0917 128.811H9.95249C4.90391 128.811 0.808701 124.723 0.808701 119.667V9.95499C0.808701 4.89918 4.90645 0.811197 9.95249 0.811197H83.0917C88.1403 0.811197 92.2355 4.8993 92.2355 9.95499V46.5246H110.521C115.569 46.5246 119.664 50.6127 119.664 55.6684L119.662 174.523H137.947V92.2349C137.947 87.1791 142.035 83.0911 147.091 83.0911H165.376V9.95189C165.376 4.89609 169.464 0.808105 174.52 0.808105H247.659C252.715 0.808105 256.803 4.89621 256.803 9.95189L256.805 119.664C256.805 124.72 252.717 128.808 247.661 128.808ZM73.9516 19.0957H19.0944V28.2371L73.9516 28.2395V19.0957ZM19.0944 110.521H73.9491L73.9516 46.5252H19.0944V110.521ZM201.95 165.38C187.45 165.38 174.31 173.992 168.47 187.33L168.469 187.33C167.013 190.66 163.722 192.808 160.092 192.806H40.15L26.4358 201.949L40.15 211.093H64.8081C66.2247 211.093 67.634 211.424 68.8937 212.063L83.0928 219.158L97.2826 212.063C99.8623 210.775 102.896 210.775 105.466 212.063L119.665 219.158L133.862 212.053C135.124 211.421 136.533 211.093 137.949 211.093H160.093C163.723 211.093 167.015 213.243 168.47 216.571C174.312 229.911 187.449 238.524 201.95 238.524C222.12 238.524 238.523 222.121 238.523 201.952C238.523 181.782 222.12 165.38 201.95 165.38ZM183.663 110.521H238.52V46.5252H183.663V110.521ZM238.52 19.0957H183.663V28.2395H238.52V19.0957ZM229.38 201.948C229.38 217.069 217.073 229.376 201.952 229.376C186.828 229.376 174.523 217.071 174.523 201.948C174.523 186.827 186.83 174.52 201.952 174.52C217.073 174.52 229.38 186.827 229.38 201.948ZM211.096 201.951C211.096 196.902 206.998 192.807 201.952 192.807C196.903 192.807 192.808 196.902 192.808 201.951C192.808 206.999 196.906 211.094 201.952 211.094C207 211.094 211.096 206.997 211.096 201.951Z" fill="#37352f"/>
</svg>
