<svg xmlns="http://www.w3.org/2000/svg" xml:space="preserve" style="enable-background:new 0 0 250 250" viewBox="0 0 250 250"><path d="M198.1 173.7c-13.5 0-24.4 11-24.4 24.4s11 24.4 24.4 24.4c13.5 0 24.4-11 24.4-24.4s-10.9-24.4-24.4-24.4zm0 36.6c-6.7 0-12.1-5.4-12.1-12.1 0-6.7 5.4-12.1 12.1-12.1s12.1 5.4 12.1 12.1c.1 6.6-5.4 12.1-12.1 12.1z"/><path d="M198.1 146.3c-17.4 0-33.5 8.8-43.2 23.5l-5.5 8.4V94.6h15.1v21.3c0 3.4 2.8 6.1 6.2 6.1H243.8c3.4 0 6.1-2.8 6.1-6.1V6.2c0-3.4-2.8-6.1-6.1-6.1h-73.1c-3.4 0-6.1 2.8-6.1 6.1v76.1h-21.3c-3.4 0-6.1 2.8-6.1 6.1v85.3h-24.3V51.8c0-3.4-2.8-6.1-6.1-6.1H85.4V6.1c0-3.4-2.8-6.1-6.1-6.1H6.1C2.8 0 0 2.8 0 6.1v109.7c0 3.4 2.8 6.1 6.1 6.1h73.1c3.4 0 6.1-2.8 6.1-6.1V58h15.1v115.7h-67c-1.2 0-2.4.4-3.4 1L2.7 193C1 194.2 0 196.1 0 198.1c0 2.1 1 4 2.7 5.1l27.4 18.3c1 .7 2.2 1 3.4 1h26l.6.3 16.4 8.2c.8.4 1.8.6 2.7.6 1 0 1.9-.2 2.8-.7l14.2-7.1 1.3-.7 1.3.7 14.2 7.1c.8.4 1.8.7 2.7.7 1 0 1.9-.2 2.8-.7l16.3-8.2.6-.3h16.8l.9 1.5c9.2 16 26.4 25.9 44.9 25.9 28.6 0 51.9-23.3 51.9-51.9.1-28.4-23.2-51.6-51.8-51.6zM176.9 24.4V12.3h60.9v15.1h-60.9v-3zm0 82.3v-67h60.9v70h-60.9v-3zM12.3 24.4V12.3h60.9v15.1H12.3v-3zm60.8 18.3v67H12.3v-70h60.9l-.1 3zm125 195c-15.7 0-29.9-9.3-36.2-23.7-1-2.2-3.2-3.7-5.6-3.7h-22.1c-1 0-1.9.2-2.7.6l-14.2 7.1-1.3.7-1.3-.7-14.2-7.1c-.8-.4-1.8-.6-2.7-.6-1 0-1.9.2-2.8.7l-14.4 7-1.3.7-1.3-.7-14.2-7.1c-.8-.4-1.8-.7-2.7-.7H35.4l-.8-.5-13.6-9.1-3.7-2.5 3.7-2.5 13.7-9.1.8-.5H156.3c2.4 0 4.7-1.4 5.6-3.7 6.3-14.4 20.5-23.7 36.2-23.7 21.8 0 39.6 17.8 39.6 39.6s-17.7 39.5-39.6 39.5z"/></svg>