<svg xmlns="http://www.w3.org/2000/svg" width="16" height="16" fill="none"><g fill="#7147E8" stroke="#7147E8" stroke-width=".3" clip-path="url(#a)"><path d="M6.39 9.61a.375.375 0 0 0-.53 0L3.5 11.97V9.875a.375.375 0 0 0-.75 0v3a.375.375 0 0 0 .375.375h3a.375.375 0 0 0 0-.75H4.03l2.36-2.36a.375.375 0 0 0 0-.53ZM13.018 2.779a.393.393 0 0 0-.143-.029h-3a.375.375 0 0 0 0 .75h2.095L9.61 5.86a.375.375 0 0 0 .53.53l2.36-2.36v2.095a.375.375 0 0 0 .75 0v-3a.376.376 0 0 0-.232-.346Z"/><path d="M13.625.5H2.375C1.341.5.5 1.34.5 2.375v11.25c0 1.034.841 1.875 1.875 1.875h11.25c1.034 0 1.875-.84 1.875-1.875V2.375A1.877 1.877 0 0 0 13.625.5Zm1.125 13.125c0 .62-.505 1.125-1.125 1.125H2.375c-.62 0-1.125-.505-1.125-1.125V2.375c0-.62.505-1.125 1.125-1.125h11.25c.62 0 1.125.505 1.125 1.125v11.25Z"/></g><defs><clipPath id="a"><path fill="#fff" d="M0 0h16v16H0z"/></clipPath></defs></svg>