<svg  viewBox="0 0 25 27" fill="none" xmlns="http://www.w3.org/2000/svg">
<g clip-path="url(#clip0_4154_24860)">
<path d="M5.67376 14.5249V6.05078H1.97121C0.88131 6.05078 0 6.93731 0 8.02721V25.5439C0 26.4252 1.06383 26.8633 1.6844 26.2427L5.7572 22.1699H17.355C18.4449 22.1699 19.3262 21.2886 19.3262 20.1987V16.4961H7.65019C6.56028 16.4961 5.67376 15.6148 5.67376 14.5249Z" fill="#00AC47"/>
<path d="M23.0288 0.460938H7.65017C6.56026 0.460938 5.67896 1.34225 5.67896 2.43215V6.05126H17.355C18.4449 6.05126 19.3262 6.93257 19.3262 8.02247V16.4914H23.0288C24.1187 16.4914 25 15.6101 25 14.5202V2.43215C25 1.34225 24.1187 0.460938 23.0288 0.460938Z" fill="#5BB974"/>
<path d="M17.355 6.05078H5.67371V14.5197C5.67371 15.6096 6.55502 16.4909 7.64492 16.4909H19.321V8.02721C19.3262 6.93731 18.4449 6.05078 17.355 6.05078Z" fill="#00832D"/>
</g>
<defs>
<clipPath id="clip0_4154_24860">
<rect width="25" height="26.0743" fill="white" transform="translate(0 0.460938)"/>
</clipPath>
</defs>
</svg>
