<svg viewBox="0 0 20 20" fill="none" xmlns="http://www.w3.org/2000/svg">
<g clip-path="url(#clip0_19102_48964)">
<path d="M19.9761 1.49304C19.9328 0.698589 19.3009 0.0668311 18.5065 0.0234718C16.9034 -0.0641064 13.7666 0.0210891 10.767 1.57253C9.23792 2.36347 7.62073 3.70445 6.33015 5.25164C6.31425 5.2707 6.29878 5.28988 6.283 5.30898L3.35409 5.53523C2.87198 5.5725 2.44257 5.82519 2.17593 6.22847L0.177725 9.25082C-0.024502 9.55668 -0.0566504 9.93945 0.0916699 10.2747C0.240029 10.61 0.544873 10.8437 0.907178 10.8998L3.3748 11.282C3.36608 11.33 3.35733 11.3779 3.34933 11.4259C3.26718 11.9173 3.42999 12.4225 3.78491 12.7774L7.2221 16.2146C7.51636 16.5089 7.91397 16.6711 8.3214 16.6711C8.4053 16.6711 8.48968 16.6642 8.57366 16.6502C8.62163 16.6422 8.66956 16.6334 8.71753 16.6247L9.09972 19.0924C9.15585 19.4547 9.38952 19.7596 9.72476 19.9079C9.86425 19.9696 10.0119 20.0001 10.1588 20.0001C10.3652 20 10.5701 19.94 10.7487 19.8219L13.771 17.8236C14.1744 17.5569 14.427 17.1275 14.4642 16.6455L14.6905 13.7166C14.7096 13.7008 14.7288 13.6853 14.7478 13.6694C16.2951 12.3789 17.6361 10.7617 18.427 9.23254C19.9785 6.23289 20.0635 3.09597 19.9761 1.49304ZM13.1248 16.8461L10.2337 18.7575L9.8612 16.3526C11.0831 15.9934 12.2918 15.418 13.4433 14.6471L13.2959 16.5552C13.2867 16.6742 13.2243 16.7802 13.1248 16.8461ZM8.05073 15.386L4.61351 11.9488C4.52581 11.8611 4.48526 11.7378 4.50515 11.6191C4.60733 11.008 4.76612 10.4264 4.96269 9.87839L10.12 15.0357C9.4619 15.2715 8.87241 15.4121 8.38042 15.4944C8.26151 15.5141 8.13843 15.4737 8.05073 15.386ZM3.44437 6.70363L5.35233 6.55625C4.58147 7.70777 4.00608 8.91648 3.64683 10.1384L1.24198 9.76589L3.15347 6.8748C3.21933 6.77519 3.32538 6.71281 3.44437 6.70363ZM13.9973 12.7695C13.0507 13.5591 12.1318 14.1302 11.2849 14.5434L5.45593 8.71445C5.99726 7.60882 6.65792 6.68816 7.23003 6.0023C8.42437 4.57046 9.9098 3.33527 11.3055 2.61339C14.0584 1.18945 16.9588 1.11277 18.4427 1.19355C18.6391 1.20425 18.7953 1.36046 18.806 1.55691C18.8869 3.04082 18.8101 5.94121 17.3861 8.69414C16.6643 10.0898 15.4291 11.5752 13.9973 12.7695Z" fill="#535862"/>
<path d="M13.7001 9.22801C14.4502 9.22793 15.2006 8.94238 15.7716 8.37133C16.325 7.81801 16.6297 7.0823 16.6297 6.29981C16.6297 5.51731 16.325 4.7816 15.7716 4.22828C14.6294 3.08598 12.7708 3.08605 11.6286 4.22828C11.0752 4.7816 10.7705 5.51731 10.7705 6.29981C10.7705 7.0823 11.0753 7.81801 11.6286 8.37133C12.1998 8.9425 12.9498 9.22809 13.7001 9.22801ZM12.4571 5.05688C12.7998 4.71418 13.2499 4.54285 13.7 4.54285C14.1502 4.54285 14.6003 4.71418 14.943 5.05688C15.275 5.38887 15.4578 5.83027 15.4578 6.29977C15.4578 6.76926 15.275 7.2107 14.943 7.5427C14.2577 8.22805 13.1425 8.22801 12.4571 7.5427C12.1251 7.2107 11.9423 6.7693 11.9423 6.29981C11.9423 5.83031 12.1252 5.38887 12.4571 5.05688Z" fill="#535862"/>
<path d="M0.597637 16.4809C0.747598 16.4809 0.897559 16.4237 1.01193 16.3093L2.92494 14.3963C3.15377 14.1674 3.15377 13.7964 2.92494 13.5676C2.69615 13.3388 2.32514 13.3388 2.09631 13.5676L0.18334 15.4806C-0.0454883 15.7095 -0.0454883 16.0804 0.18334 16.3093C0.297715 16.4237 0.447676 16.4809 0.597637 16.4809Z" fill="#535862"/>
<path d="M4.67814 15.323C4.44936 15.0942 4.07834 15.0942 3.84951 15.323L0.171621 19.0009C-0.057207 19.2297 -0.057207 19.6007 0.171621 19.8296C0.286035 19.944 0.435957 20.0012 0.585918 20.0012C0.735879 20.0012 0.88584 19.944 1.00021 19.8295L4.67811 16.1516C4.90697 15.9228 4.90697 15.5518 4.67814 15.323Z" fill="#535862"/>
<path d="M5.6027 17.0759L3.68969 18.9889C3.46086 19.2178 3.46086 19.5887 3.68969 19.8176C3.8041 19.932 3.95406 19.9892 4.10398 19.9892C4.25391 19.9892 4.40391 19.932 4.51828 19.8176L6.43129 17.9046C6.66012 17.6757 6.66012 17.3047 6.43129 17.0759C6.2025 16.8471 5.83148 16.8471 5.6027 17.0759Z" fill="#535862"/>
</g>
<defs>
<clipPath id="clip0_19102_48964">
<rect width="20" height="20" fill="white"/>
</clipPath>
</defs>
</svg>
