<svg data-v-49ba913f="" width="80" height="75" viewBox="0 0 80 75" xmlns="http://www.w3.org/2000/svg"><g fill="none" fill-rule="evenodd"><path fill="#F6C247" d="M63.196 48.5l2.126 26.188-24.585-11.316-25.364 10.696 1.72-25.563L0 29.013l27.775-7.464L40.135 0l14.262 23.331L80 28.688 63.196 48.5"></path><path d="M60.097 48.955l1.657 20.42-15.109-6.954a1.755 1.755 0 01-1.022-1.61 995.1 995.1 0 00.036-6.576c0-1.89-.65-3.128-1.379-3.753 4.523-.503 9.268-2.216 9.268-10.004 0-2.212-.786-4.021-2.087-5.438.21-.513.906-2.574-.202-5.365 0 0-1.7-.545-5.575 2.078a19.514 19.514 0 00-5.08-.683 19.49 19.49 0 00-5.082.683c-3.877-2.623-5.58-2.078-5.58-2.078-1.106 2.79-.409 4.852-.2 5.365-1.298 1.417-2.09 3.226-2.09 5.438 0 7.77 4.738 9.507 9.246 10.02-.58.506-1.104 1.399-1.289 2.709-1.156.52-4.096 1.414-5.907-1.685 0 0-.717-1.643-2.754-1.787 0 0-1.982-.026-.14 1.232 0 0 1.314.754 1.9 2.126 0 0 1.19 3.942 6.837 2.718.006.981.014 3.32.02 5.113a1.756 1.756 0 01-1.075 1.624l-15.336 6.468 1.452-21.584-.973-1.11-13.54-15.443 22.64-6.085 1.43-.384L40.399 6.562l12.103 19.805 1.51.316 20.051 4.195-14.085 16.61.12 1.467" fill="#DE852E"></path></g></svg>