<svg viewBox="0 0 31 30" fill="none" xmlns="http://www.w3.org/2000/svg">
<path d="M27.9844 15C27.9844 8.1 22.3844 2.5 15.4844 2.5C8.58438 2.5 2.98438 8.1 2.98438 15C2.98438 21.9 8.58438 27.5 15.4844 27.5" stroke="currentColor" stroke-width="1.5" stroke-linecap="round" stroke-linejoin="round"/>
<g opacity="0.4">
<path d="M10.4843 3.75H11.7343C9.29688 11.052 9.29688 18.948 11.7343 26.25H10.4843M19.2343 3.75C20.4468 7.4 21.0593 11.2 21.0593 15" stroke="currentColor" stroke-width="1.5" stroke-linecap="round" stroke-linejoin="round"/>
<path d="M4.23438 20V18.75C7.88437 19.9625 11.6844 20.575 15.4844 20.575M4.23438 11.25C11.5363 8.81251 19.4324 8.81251 26.7344 11.25" stroke="currentColor" stroke-width="1.5" stroke-linecap="round" stroke-linejoin="round"/>
</g>
<path d="M27.9844 27.5L26.7344 26.25M23.2344 26.75C24.2952 26.75 25.3127 26.3286 26.0628 25.5784C26.8129 24.8283 27.2344 23.8109 27.2344 22.75C27.2344 21.6891 26.8129 20.6717 26.0628 19.9216C25.3127 19.1714 24.2952 18.75 23.2344 18.75C22.1735 18.75 21.1561 19.1714 20.4059 19.9216C19.6558 20.6717 19.2344 21.6891 19.2344 22.75C19.2344 23.8109 19.6558 24.8283 20.4059 25.5784C21.1561 26.3286 22.1735 26.75 23.2344 26.75Z" stroke="currentColor" stroke-width="1.5" stroke-linecap="round" stroke-linejoin="round"/>
</svg>
