<svg viewBox="0 0 27 32" fill="none" xmlns="http://www.w3.org/2000/svg">
<path d="M24.0035 5.9569V2C24.0035 1.44772 23.5558 1 23.0035 1H3.47396C2.64931 1.08621 1 1.68103 1 3.37069M1 3.37069C1 4.96659 2.47135 5.89341 3.32949 6.20927C3.42474 6.24433 3.52559 6.25862 3.62709 6.25862H25C25.5523 6.25862 26 6.70634 26 7.25862V30C26 30.5523 25.5523 31 25 31H3.47396C2.64931 30.8851 1 30.181 1 28.2845C1 26.3879 1 10.8851 1 3.37069Z" stroke="currentColor" stroke-width="1.5"/>
<path d="M10.1191 6.43103V14.3987C10.1191 15.2438 11.1023 15.7079 11.7547 15.1708L12.7904 14.3182C13.1559 14.0173 13.6823 14.0139 14.0516 14.3102L15.1775 15.2132C15.832 15.7383 16.8032 15.2723 16.8032 14.4332V6.43103" stroke="currentColor" stroke-opacity="0.4" stroke-width="1.5"/>
</svg>
