<svg viewBox="0 0 90 89" fill="none" xmlns="http://www.w3.org/2000/svg">
<path d="M0.625 28C0.625 12.536 13.161 0 28.625 0H61.625C77.089 0 89.625 12.536 89.625 28V61C89.625 76.464 77.089 89 61.625 89H28.625C13.161 89 0.625 76.464 0.625 61V28Z" fill="#EEF4FF"/>
<path d="M57.6042 34.9569V31C57.6042 30.4477 57.1565 30 56.6042 30H32.9687C31.9792 30.0862 30 30.681 30 32.3707M30 32.3707C30 33.9928 31.8241 34.9237 32.8455 35.2243C32.9274 35.2484 33.0119 35.2586 33.0973 35.2586H59C59.5523 35.2586 60 35.7063 60 36.2586V59C60 59.5523 59.5523 60 59 60H32.9687C31.9792 59.8851 30 59.181 30 57.2845C30 55.3879 30 39.8851 30 32.3707Z" stroke="#175CD3" stroke-width="1.5"/>
<path d="M40.8 35.4316V43.6191C40.8 44.4239 41.7021 44.899 42.3657 44.4437L44.1999 43.1854C44.5371 42.9541 44.9813 42.9514 45.3213 43.1787L47.2651 44.478C47.9296 44.9221 48.8208 44.4458 48.8208 43.6466V35.4316" stroke="#2E90FA" stroke-width="1.5"/>
</svg>
