<svg viewBox="0 0 40 40" fill="none" xmlns="http://www.w3.org/2000/svg">
<path d="M31.0035 9.9569V6C31.0035 5.44772 30.5558 5 30.0035 5H10.474C9.64931 5.08621 8 5.68103 8 7.37069M8 7.37069C8 8.96659 9.47135 9.89341 10.3295 10.2093C10.4247 10.2443 10.5256 10.2586 10.6271 10.2586H32C32.5523 10.2586 33 10.7063 33 11.2586V34C33 34.5523 32.5523 35 32 35H10.474C9.64931 34.8851 8 34.181 8 32.2845C8 30.3879 8 14.8851 8 7.37069Z" stroke="currentColor" stroke-width="1.5"/>
<path d="M17.1201 10.4316V18.3994C17.1201 19.2444 18.1033 19.7085 18.7557 19.1714L19.7913 18.3188C20.1569 18.0179 20.6833 18.0146 21.0526 18.3108L22.1784 19.2138C22.833 19.7389 23.8041 19.2729 23.8041 18.4338V10.4316" stroke="currentColor" stroke-opacity="0.4" stroke-width="1.5"/>
</svg>
