<svg viewBox="0 0 40 40" fill="none" xmlns="http://www.w3.org/2000/svg">
<g opacity="0.8">
<path d="M31.8438 9.39063V5C31.8438 4.44772 31.396 4 30.8437 4H9.67188C8.78125 4.09375 7 4.74063 7 6.57813M7 6.57813C7 8.32043 8.60146 9.32943 9.52664 9.66906C9.62255 9.70427 9.72386 9.71875 9.82602 9.71875H33C33.5523 9.71875 34 10.1665 34 10.7188V35.625C34 36.1773 33.5523 36.625 33 36.625H9.67188C8.78125 36.5 7 35.7344 7 33.6719C7 31.6094 7 14.75 7 6.57813Z" stroke="currentColor" stroke-width="1.5"/>
<path d="M16.8477 9.90625V18.7471C16.8477 19.5938 17.834 20.0573 18.4858 19.517L19.7802 18.4441C20.1466 18.1403 20.6764 18.1369 21.0467 18.436L22.4381 19.5598C23.0921 20.088 24.0664 19.6225 24.0664 18.7819V9.90625" stroke="currentColor" stroke-opacity="0.35" stroke-width="1.5"/>
</g>
</svg>
