<svg viewBox="0 0 50 50" fill="none" xmlns="http://www.w3.org/2000/svg">
<g clip-path="url(#clip0_12346_255990)">
<path fill-rule="evenodd" clip-rule="evenodd" d="M4.72754 21.458H9.92578V40.2656H4.72754V21.458Z" fill="#CDD2E1"/>
<path fill-rule="evenodd" clip-rule="evenodd" d="M3.16895 16.4258H11.4844V22.9971H3.16895V16.4258Z" fill="#9196AA"/>
<path fill-rule="evenodd" clip-rule="evenodd" d="M3.16895 38.7236H11.4844V45.2949H3.16895V38.7236Z" fill="#9196AA"/>
<path fill-rule="evenodd" clip-rule="evenodd" d="M22.3994 21.458H27.5977V40.2656H22.3994V21.458Z" fill="#CDD2E1"/>
<path fill-rule="evenodd" clip-rule="evenodd" d="M20.8408 16.4258H29.1592V22.9971H20.8408V16.4258Z" fill="#9196AA"/>
<path fill-rule="evenodd" clip-rule="evenodd" d="M20.8408 38.7236H29.1592V45.2949H20.8408V38.7236Z" fill="#9196AA"/>
<path fill-rule="evenodd" clip-rule="evenodd" d="M40.0742 21.458H45.2725V40.2656H40.0742V21.458Z" fill="#CDD2E1"/>
<path fill-rule="evenodd" clip-rule="evenodd" d="M38.5156 16.4258H46.8311V22.9971H38.5156V16.4258Z" fill="#9196AA"/>
<path fill-rule="evenodd" clip-rule="evenodd" d="M38.5156 38.7236H46.8311V45.2949H38.5156V38.7236Z" fill="#9196AA"/>
<path fill-rule="evenodd" clip-rule="evenodd" d="M0.0488281 43.7119H49.9512V49.9512H0.0488281V43.7119Z" fill="#CDD2E1"/>
<path fill-rule="evenodd" clip-rule="evenodd" d="M0.0488281 12.6025L24.999 0.0488281L49.9512 12.6025V17.7988H0.0488281V12.6025Z" fill="#CDD2E1"/>
<path fill-rule="evenodd" clip-rule="evenodd" d="M24.999 5.80371C26.7236 5.80371 28.1191 7.20117 28.1191 8.92383C28.1191 10.6465 26.7236 12.0439 24.999 12.0439C23.2773 12.0439 21.8818 10.6465 21.8818 8.92383C21.8818 7.20117 23.2764 5.80371 24.999 5.80371Z" fill="#9196AA"/>
</g>
<defs>
<clipPath id="clip0_12346_255990">
<rect width="50" height="50" fill="white"/>
</clipPath>
</defs>
</svg>
