
<svg viewBox="0 0 89 89" fill="none" xmlns="http://www.w3.org/2000/svg">
<path d="M0 28C0 12.536 12.536 0 28 0H61C76.464 0 89 12.536 89 28V61C89 76.464 76.464 89 61 89H28C12.536 89 0 76.464 0 61V28Z" fill="#FFF6ED"/>
<path fill-rule="evenodd" clip-rule="evenodd" d="M30.25 59.2412C30.25 58.6889 30.6977 58.2412 31.25 58.2412H58.4375C58.9898 58.2412 59.4375 58.6889 59.4375 59.2412C59.4375 59.7935 58.9898 60.2412 58.4375 60.2412H31.25C30.6977 60.2412 30.25 59.7935 30.25 59.2412Z" fill="#C4320A"/>
<path fill-rule="evenodd" clip-rule="evenodd" d="M54.875 44.5493H35.125V58H54.875V44.5493ZM33.125 42.5493V60H56.875V42.5493H33.125Z" fill="#C4320A"/>
<path fill-rule="evenodd" clip-rule="evenodd" d="M50.5 44.5493H39.5V58H50.5V44.5493ZM37.5 42.5493V60H52.5V42.5493H37.5Z" fill="#C4320A"/>
<path fill-rule="evenodd" clip-rule="evenodd" d="M46.125 49.1016L43.875 49.1016L43.875 57.9999L46.125 57.9999V49.1016ZM43.875 47.1016C42.7704 47.1016 41.875 47.997 41.875 49.1016V57.9999C41.875 59.1044 42.7704 59.9999 43.875 59.9999H46.125C47.2296 59.9999 48.125 59.1044 48.125 57.9999V49.1016C48.125 47.997 47.2296 47.1016 46.125 47.1016H43.875Z" fill="#C4320A"/>
<path fill-rule="evenodd" clip-rule="evenodd" d="M58 42.4157L58 40.8263L45 32.3846L32 40.8263L32 42.4157H58ZM30.9108 39.1489C30.3428 39.5178 30 40.149 30 40.8263V42.4157C30 43.5203 30.8954 44.4157 32 44.4157H58C59.1046 44.4157 60 43.5203 60 42.4157V40.8263C60 40.149 59.6572 39.5178 59.0892 39.1489L46.0892 30.7073C45.4268 30.2771 44.5732 30.2771 43.9108 30.7073L30.9108 39.1489Z" fill="#C4320A"/>
<path fill-rule="evenodd" clip-rule="evenodd" d="M45.0508 35.6875C44.9127 35.6875 44.8008 35.7994 44.8008 35.9375C44.8008 36.0756 44.9127 36.1875 45.0508 36.1875C45.1889 36.1875 45.3008 36.0756 45.3008 35.9375C45.3008 35.7994 45.1889 35.6875 45.0508 35.6875ZM42.8008 35.9375C42.8008 34.6949 43.8081 33.6875 45.0508 33.6875C46.2934 33.6875 47.3008 34.6949 47.3008 35.9375C47.3008 37.1801 46.2934 38.1875 45.0508 38.1875C43.8081 38.1875 42.8008 37.1801 42.8008 35.9375Z" fill="#C4320A"/>
</svg>
