<svg viewBox="0 0 89 89" fill="none" xmlns="http://www.w3.org/2000/svg">
<path d="M0 28C0 12.536 12.536 0 28 0H61C76.464 0 89 12.536 89 28V61C89 76.464 76.464 89 61 89H28C12.536 89 0 76.464 0 61V28Z" fill="#EFF8FF"/>
<path d="M45.0999 44.4566C46.9462 46.0155 47.2358 46.2818 47.6954 46.6768C48.2923 46.1637 48.3707 46.0793 50.2558 44.4844C53.9713 41.3412 56.4259 39.2647 56.4259 36.1447C56.4259 33.3401 54.4279 31 51.6173 31C49.9234 31 48.5826 31.8975 47.6599 33.2778C46.7661 31.89 45.4483 31 43.7578 31C40.9452 31 38.9492 33.3422 38.9492 36.1447C38.9492 39.4778 42.0181 41.8544 45.0999 44.4566ZM43.7578 32.7578C45.3774 32.7578 46.4427 34.2634 46.7861 35.539L47.5905 38.645L48.4804 35.5652C48.8573 34.2897 49.974 32.7577 51.6173 32.7577C53.3566 32.7577 54.6681 34.2138 54.6681 36.1446C54.6681 38.4493 52.58 40.2157 49.1206 43.1423C48.6598 43.532 48.1878 43.9313 47.6953 44.3535C47.1906 43.9211 46.7064 43.5123 46.234 43.1134C42.7874 40.2033 40.707 38.4467 40.707 36.1446C40.707 34.2138 42.0185 32.7578 43.7578 32.7578Z" fill="#175CD3"/>
<path d="M59.2069 50.5603C57.233 48.8324 54.2816 48.7792 52.2458 50.4737C50.9831 51.5209 51.0252 51.4975 50.8729 51.6065C50.295 49.8539 48.643 48.5849 46.6992 48.5849C45.0571 48.5849 43.3965 48.1775 41.8969 47.4067C39.7052 46.2804 37.601 46.8811 35.7883 48.5312H30V57.3739H36.0445C41.9768 58.8473 45.4933 59.0227 50.0783 59.1317L60 51.2545L59.2069 50.5603ZM35.2734 55.5625H31.7578V50.3427H35.2734V55.5625ZM49.4663 57.3732C46.7758 57.3599 42.6729 57.155 37.0312 55.8052V49.8296C38.6107 48.3701 39.9024 48.3581 41.0933 48.9702C42.8403 49.8681 44.7788 50.3427 46.6992 50.3427C47.845 50.3427 48.8219 51.0776 49.1847 52.0469H44.0625V53.8584H49.3375C51.5252 53.8584 52.5949 52.349 53.3702 51.8247C54.4505 50.9257 55.9022 50.7507 57.1253 51.2924L49.4663 57.3732Z" fill="#175CD3"/>
</svg>
