<svg xmlns="http://www.w3.org/2000/svg" width="24" height="18" fill="none"><path fill="#37352F" d="m14.98 9.202 1.363-1.363c.099.371.157.76.157 1.161 0 2.481-2.019 4.5-4.5 4.5-.402 0-.79-.058-1.161-.157l1.363-1.363a2.987 2.987 0 0 0 2.778-2.778Zm8.925-.566c-.092-.166-1.4-2.459-3.958-4.402l-1.091 1.092A15.01 15.01 0 0 1 22.368 9C21.478 10.355 17.992 15 12 15a11.02 11.02 0 0 1-2.52-.298l-1.233 1.232c1.133.348 2.379.566 3.753.566 7.851 0 11.744-6.844 11.905-7.136a.75.75 0 0 0 0-.728ZM20.78 1.28l-16.5 16.5a.748.748 0 0 1-1.06 0 .75.75 0 0 1 0-1.06l2.099-2.1C1.925 12.572.201 9.556.095 9.364a.75.75 0 0 1 0-.728C.256 8.345 4.149 1.5 12 1.5c2.03 0 3.788.463 5.292 1.148L19.72.22a.75.75 0 1 1 1.06 1.06ZM6.437 13.502l1.9-1.899A4.47 4.47 0 0 1 7.5 9c0-2.481 2.019-4.5 4.5-4.5.97 0 1.867.312 2.603.836l1.536-1.535A11.043 11.043 0 0 0 12 3C6.008 3 2.521 7.645 1.633 9c.564.855 2.186 3.02 4.804 4.503Zm2.988-2.988 4.09-4.089A2.966 2.966 0 0 0 12 6c-1.654 0-3 1.346-3 3 0 .555.162 1.068.425 1.514Z"/></svg>