
<svg viewBox="0 0 89 89" fill="none" xmlns="http://www.w3.org/2000/svg">
<path d="M0 28C0 12.536 12.536 0 28 0H61C76.464 0 89 12.536 89 28V61C89 76.464 76.464 89 61 89H28C12.536 89 0 76.464 0 61V28Z" fill="#FFF6ED"/>
<path fill-rule="evenodd" clip-rule="evenodd" d="M44.8899 29.2106C45.2485 28.9298 45.7507 28.9298 46.1093 29.2106L59.5162 39.7106C59.7581 39.9001 59.8996 40.1914 59.8996 40.5V57C59.8996 58.0609 59.4811 59.0783 58.7361 59.8284C57.9911 60.5786 56.9807 61 55.9272 61H35.072C34.0185 61 33.0081 60.5786 32.2631 59.8284C31.5181 59.0783 31.0996 58.0609 31.0996 57V40.5C31.0996 40.1914 31.2411 39.9001 31.483 39.7106L44.8899 29.2106ZM42.0237 59H48.9755V46H42.0237V59ZM50.9617 59V45C50.9617 44.4477 50.517 44 49.9686 44H41.0306C40.4822 44 40.0375 44.4477 40.0375 45V59H35.072C34.5452 59 34.04 58.7893 33.6676 58.4142C33.2951 58.0391 33.0858 57.5304 33.0858 57V40.9891L45.4996 31.2669L57.9134 40.9891V57C57.9134 57.5304 57.7041 58.0391 57.3317 58.4142C56.9592 58.7893 56.454 59 55.9272 59H50.9617Z" fill="#C4320A"/>
</svg>
