<svg width="50" height="50" viewBox="0 0 50 50" fill="none" xmlns="http://www.w3.org/2000/svg">
<path d="M49.6154 11.9229V42.769C49.6154 43.9998 48.6154 44.9998 47.3846 44.9998H2.61538C1.38461 44.9998 0.384613 43.9998 0.384613 42.769V11.9229H49.6154Z" fill="#F4F4F4"/>
<path d="M49.6154 7.23077C49.6154 6 48.6154 5 47.3846 5H2.61538C1.38461 5 0.384613 6 0.384613 7.23077V11.8462H49.6154V7.23077Z" fill="#909192"/>
<path d="M47.3846 5.07715H2.61538C1.38461 5.07715 0.384613 6.07715 0.384613 7.30792V8.00022C0.384613 6.76946 1.38461 5.76946 2.61538 5.76946H47.4615C48.6923 5.76946 49.6923 6.76946 49.6923 8.00022V7.23099C49.6154 6.07715 48.6154 5.07715 47.3846 5.07715Z" fill="#B2B2B2"/>
<path d="M4.84617 9.61531C5.48342 9.61531 6.00001 9.09872 6.00001 8.46146C6.00001 7.82421 5.48342 7.30762 4.84617 7.30762C4.20892 7.30762 3.69232 7.82421 3.69232 8.46146C3.69232 9.09872 4.20892 9.61531 4.84617 9.61531Z" fill="#DF4666"/>
<path d="M8.46152 9.61531C9.09878 9.61531 9.61537 9.09872 9.61537 8.46146C9.61537 7.82421 9.09878 7.30762 8.46152 7.30762C7.82427 7.30762 7.30768 7.82421 7.30768 8.46146C7.30768 9.09872 7.82427 9.61531 8.46152 9.61531Z" fill="#F1B974"/>
<path d="M12 9.61531C12.6373 9.61531 13.1539 9.09872 13.1539 8.46146C13.1539 7.82421 12.6373 7.30762 12 7.30762C11.3628 7.30762 10.8462 7.82421 10.8462 8.46146C10.8462 9.09872 11.3628 9.61531 12 9.61531Z" fill="#92CEBE"/>
<path d="M45.1539 7.38477H17.2308C16.6154 7.38477 16.0769 7.92323 16.0769 8.53861C16.0769 9.154 16.6154 9.69246 17.2308 9.69246H45.1539C45.7692 9.69246 46.3077 9.154 46.3077 8.53861C46.3077 7.8463 45.7692 7.38477 45.1539 7.38477Z" fill="#59595C"/>
<path d="M12 11.9229V44.9229H2.61538C1.38461 44.9229 0.384613 43.9228 0.384613 42.6921V11.9229H12Z" fill="#92CEBE"/>
<path d="M2.92307 15.1538H9.3846V17.4615H2.92307V15.1538Z" fill="#65AA96"/>
<path d="M2.92307 19.6924H9.3846V22.0001H2.92307V19.6924ZM2.92307 24.1539H9.3846V26.4616H2.92307V24.1539ZM2.92307 28.6924H9.3846V31.0001H2.92307V28.6924ZM2.92307 33.1539H9.3846V35.4616H2.92307V33.1539Z" fill="#EEEEEF"/>
<path d="M16.0769 15.1538H45.0769V25.3077H16.0769V15.1538Z" fill="#F1B974"/>
<path d="M16.0769 27.8462H45.0769V32.3077H16.0769V27.8462Z" fill="#D3D3D3"/>
<path d="M16.0769 34.5386H24.2308V41.077H16.0769V34.5386ZM26.9231 34.5386H34.6923V41.077H26.9231V34.5386ZM37.3077 34.5386H45.0769V41.077H37.3077V34.5386Z" fill="#7DA4C3"/>
</svg>
