<svg width="50" height="50" viewBox="0 0 50 50" fill="none" xmlns="http://www.w3.org/2000/svg">
<g clip-path="url(#clip0_7932_245998)">
<path d="M41.1025 7.399H0V1.88194C0 1.14554 0.596955 0.548584 1.33335 0.548584H39.7691C40.5055 0.548584 41.1025 1.14554 41.1025 1.88194V7.399Z" fill="#3A556A"/>
<path d="M39.7691 40.2811H1.33335C0.596955 40.2811 0 39.6842 0 38.9478V7.39917H41.1025V38.9478C41.1025 39.6842 40.5055 40.2811 39.7691 40.2811Z" fill="#ECF2FF"/>
<path d="M4.4527 5.68665C5.3986 5.68665 6.16541 4.91984 6.16541 3.97394C6.16541 3.02804 5.3986 2.26123 4.4527 2.26123C3.5068 2.26123 2.73999 3.02804 2.73999 3.97394C2.73999 4.91984 3.5068 5.68665 4.4527 5.68665Z" fill="#FCD462"/>
<path d="M9.93329 5.68665C10.8792 5.68665 11.646 4.91984 11.646 3.97394C11.646 3.02804 10.8792 2.26123 9.93329 2.26123C8.98739 2.26123 8.22058 3.02804 8.22058 3.97394C8.22058 4.91984 8.98739 5.68665 9.93329 5.68665Z" fill="#27A2DB"/>
<path d="M15.4133 5.68665C16.3592 5.68665 17.126 4.91984 17.126 3.97394C17.126 3.02804 16.3592 2.26123 15.4133 2.26123C14.4674 2.26123 13.7006 3.02804 13.7006 3.97394C13.7006 4.91984 14.4674 5.68665 15.4133 5.68665Z" fill="#44C4A1"/>
<path d="M46.9647 37.0393L50 36.2923V32.4684L46.9646 31.7215C46.6493 30.2887 46.0828 28.9528 45.317 27.7546L46.9379 25.0756L44.2339 22.3716L41.5547 23.9926C40.3566 23.2268 39.0208 22.6606 37.5882 22.3453L36.8411 19.3096H33.0171L32.27 22.3453C30.8371 22.6606 29.5013 23.227 28.3031 23.9929L25.6239 22.372L22.9199 25.076L24.5409 27.7551C23.7751 28.9533 23.2087 30.289 22.8935 31.7217L19.8579 32.4687V36.2926L22.8935 37.0396C23.2088 38.4724 23.7751 39.8082 24.541 41.0063L22.9202 43.6853L25.6242 46.3893L28.3031 44.7685C29.5013 45.5344 30.8373 46.1009 32.2701 46.4161L33.0171 49.4513H36.8411L37.5881 46.4161C39.021 46.1008 40.357 45.5344 41.5552 44.7684L44.234 46.389L46.9379 43.685L45.3171 41.0063C46.0829 39.8082 46.6494 38.4721 46.9647 37.0393Z" fill="#27A2DB"/>
<path d="M34.9293 43.9707C40.2261 43.9707 44.52 39.6768 44.52 34.38C44.52 29.0832 40.2261 24.7893 34.9293 24.7893C29.6325 24.7893 25.3386 29.0832 25.3386 34.38C25.3386 39.6768 29.6325 43.9707 34.9293 43.9707Z" fill="#DAE6FE"/>
<path d="M34.9294 39.8599C37.9559 39.8599 40.4094 37.4064 40.4094 34.3799C40.4094 31.3534 37.9559 28.8999 34.9294 28.8999C31.9028 28.8999 29.4493 31.3534 29.4493 34.3799C29.4493 37.4064 31.9028 39.8599 34.9294 39.8599Z" fill="#44C4A1"/>
<path d="M15.4981 12H12V22H14.3269V19.495H15.4981C17.4294 19.495 19 17.8134 19 15.7475C19 13.6808 17.4294 12 15.4981 12ZM15.4981 17.005H14.3269V14.49H15.4981C16.1457 14.49 16.6731 15.0536 16.6731 15.7475C16.6731 16.4406 16.1457 17.005 15.4981 17.005Z" fill="#27A2DB"/>
<path d="M15.4 12H13V22H14.196V19.495H15.4C17.3854 19.495 19 17.8134 19 15.7475C19 13.6808 17.3854 12 15.4 12ZM15.4 17.005H14.196V14.49H15.4C16.0658 14.49 16.608 15.0536 16.608 15.7475C16.608 16.4406 16.0658 17.005 15.4 17.005Z" fill="#27A2DB"/>
<path d="M6.5 12C4.57009 12 3 13.68 3 15.7451V21.9995H5.32687V19.4942H7.67313V22H10V15.745C10 13.68 8.42991 12 6.5 12ZM5.32687 17.0045V15.7451C5.32687 15.0529 5.85313 14.4898 6.5 14.4898C7.14687 14.4898 7.67313 15.0529 7.67313 15.7451V17.0045H5.32687Z" fill="#27A2DB"/>
<path d="M21 12H23V22H21V12Z" fill="#27A2DB"/>
<path d="M37.1025 5.30733H21.3132C20.5768 5.30733 19.9799 4.71038 19.9799 3.97398C19.9799 3.23758 20.5768 2.64062 21.3132 2.64062H37.1024C37.8388 2.64062 38.4357 3.23758 38.4357 3.97398C38.4357 4.71038 37.8388 5.30733 37.1025 5.30733Z" fill="#E1E6E9"/>
</g>
<defs>
<clipPath id="clip0_7932_245998">
<rect width="50" height="50" fill="white"/>
</clipPath>
</defs>
</svg>