
<svg  viewBox="0 0 40 40" fill="none" xmlns="http://www.w3.org/2000/svg">
<path d="M31.775 18.536C31.5421 18.5356 31.3189 18.4428 31.1544 18.278C30.9899 18.1132 30.8975 17.8899 30.8975 17.657C30.9021 16.0016 30.5784 14.3618 29.945 12.8324C29.3116 11.303 28.3812 9.91438 27.2075 8.74699C27.0428 8.58189 26.9504 8.35813 26.9507 8.12493C26.951 7.89173 27.0439 7.66819 27.209 7.50349C27.3741 7.33879 27.5979 7.24642 27.8311 7.2467C28.0643 7.24699 28.2878 7.33989 28.4525 7.50499C29.7893 8.83535 30.8491 10.4176 31.5705 12.1601C32.292 13.9027 32.6607 15.771 32.6555 17.657C32.6555 17.8901 32.5629 18.1137 32.398 18.2785C32.2332 18.4434 32.0081 18.536 31.775 18.536ZM7.754 18.536C7.63857 18.536 7.52427 18.5133 7.41762 18.4691C7.31098 18.4249 7.21408 18.3602 7.13245 18.2785C6.96761 18.1137 6.875 17.8901 6.875 17.657C6.875 13.8215 8.3675 10.217 11.0795 7.50499C11.2446 7.33989 11.4685 7.24714 11.702 7.24714C11.9355 7.24714 12.1594 7.33989 12.3245 7.50499C12.4896 7.67009 12.5823 7.89401 12.5823 8.12749C12.5823 8.36097 12.4896 8.58489 12.3245 8.74999C11.1506 9.91665 10.2198 11.3046 9.58619 12.8336C8.95252 14.3625 8.62854 16.002 8.633 17.657C8.633 17.7724 8.61026 17.8867 8.56609 17.9934C8.52192 18.1 8.45717 18.1969 8.37555 18.2785C8.29392 18.3602 8.19702 18.4249 8.09038 18.4691C7.98373 18.5133 7.86943 18.536 7.754 18.536ZM19.766 34.0625C18.6007 34.0613 17.4835 33.5979 16.6596 32.7739C15.8356 31.9499 15.3722 30.8328 15.371 29.6675C15.371 29.4344 15.4636 29.2108 15.6285 29.0459C15.7933 28.8811 16.0169 28.7885 16.25 28.7885C16.4831 28.7885 16.7067 28.8811 16.8715 29.0459C17.0364 29.2108 17.129 29.4344 17.129 29.6675C17.129 31.1225 18.311 32.3045 19.766 32.3045C20.4651 32.3037 21.1354 32.0256 21.6298 31.5313C22.1241 31.0369 22.4022 30.3666 22.403 29.6675C22.4124 29.4408 22.509 29.2266 22.6727 29.0695C22.8364 28.9125 23.0544 28.8248 23.2812 28.8248C23.5081 28.8248 23.7261 28.9125 23.8898 29.0695C24.0535 29.2266 24.1501 29.4408 24.1595 29.6675C24.1583 30.8328 23.6949 31.9499 22.8709 32.7739C22.047 33.5979 20.9313 34.0613 19.766 34.0625Z" fill="currentColor" stroke="currentColor" stroke-width="0.12"/>
<path d="M29.435 30.5465H10.097C9.67839 30.5454 9.27011 30.4163 8.9269 30.1766C8.58368 29.9369 8.32191 29.5981 8.17668 29.2055C8.03144 28.8128 8.00967 28.3852 8.11429 27.9798C8.21891 27.5745 8.44491 27.2108 8.76201 26.9375C9.63918 26.1999 10.3443 25.2792 10.8278 24.2401C11.3113 23.201 11.5616 22.0686 11.561 20.9225V17.657C11.5638 15.482 12.4292 13.397 13.9675 11.8593C15.5057 10.3217 17.591 9.457 19.766 9.45502C21.9407 9.4574 24.0257 10.3223 25.5636 11.8599C27.1015 13.3975 27.9667 15.4823 27.9695 17.657V20.9255C27.9695 23.2445 28.985 25.433 30.755 26.9315C31.0757 27.2026 31.3054 27.5655 31.4131 27.9713C31.5209 28.3771 31.5015 28.8062 31.3575 29.2006C31.2136 29.595 30.952 29.9357 30.6082 30.1767C30.2644 30.4176 29.8549 30.5458 29.435 30.5465ZM19.7645 11.2115C18.0558 11.2131 16.4175 11.8925 15.2091 13.1006C14.0008 14.3087 13.321 15.9468 13.319 17.6555V20.924C13.3201 22.3231 13.0155 23.7054 12.4266 24.9745C11.8377 26.2436 10.9786 27.3686 9.90952 28.271C9.86321 28.3095 9.82989 28.3613 9.81413 28.4194C9.79836 28.4775 9.8009 28.5391 9.82141 28.5957C9.84192 28.6523 9.87939 28.7012 9.92871 28.7357C9.97804 28.7702 10.0368 28.7886 10.097 28.7885H29.432C29.591 28.7885 29.7245 28.655 29.7245 28.496C29.7248 28.4538 29.7159 28.412 29.6982 28.3737C29.6806 28.3353 29.6548 28.3013 29.6225 28.274C28.5526 27.3714 27.6929 26.246 27.1034 24.9764C26.514 23.7068 26.2091 22.3238 26.21 20.924V17.6555C26.208 15.9468 25.5283 14.3087 24.3199 13.1006C23.1115 11.8925 21.4732 11.2131 19.7645 11.2115Z" fill="currentColor" stroke="currentColor" stroke-width="0.12"/>
<path d="M19.766 11.21C19.5332 11.21 19.3098 11.1176 19.145 10.9531C18.9802 10.7885 18.8874 10.5653 18.887 10.3325V6.81497C18.887 6.58185 18.9796 6.35827 19.1445 6.19343C19.3093 6.02858 19.5329 5.93597 19.766 5.93597C19.9991 5.93597 20.2227 6.02858 20.3876 6.19343C20.5524 6.35827 20.645 6.58185 20.645 6.81497V10.331C20.645 10.5641 20.5524 10.7877 20.3876 10.9525C20.2227 11.1174 19.9991 11.21 19.766 11.21Z" fill="currentColor" stroke="currentColor" stroke-width="0.12"/>
</svg>
