<svg xmlns="http://www.w3.org/2000/svg"  viewBox="0 0 16 17" fill="none">
<path fill-rule="evenodd" clip-rule="evenodd" d="M6.0026 4.50002C4.89804 4.50002 4.0026 5.39545 4.0026 6.50002C4.0026 7.60462 4.89804 8.50002 6.0026 8.50002C7.1072 8.50002 8.0026 7.60462 8.0026 6.50002C8.0026 5.39545 7.1072 4.50002 6.0026 4.50002ZM2.66927 6.50002C2.66927 4.65907 4.16166 3.16669 6.0026 3.16669C7.84354 3.16669 9.33594 4.65907 9.33594 6.50002C9.33594 8.34095 7.84354 9.83335 6.0026 9.83335C4.16166 9.83335 2.66927 8.34095 2.66927 6.50002ZM9.33594 3.83335C9.33594 3.46517 9.6344 3.16669 10.0026 3.16669C11.8435 3.16669 13.3359 4.65907 13.3359 6.50002C13.3359 8.34095 11.8435 9.83335 10.0026 9.83335C9.6344 9.83335 9.33594 9.53489 9.33594 9.16669C9.33594 8.79849 9.6344 8.50002 10.0026 8.50002C11.1072 8.50002 12.0026 7.60462 12.0026 6.50002C12.0026 5.39545 11.1072 4.50002 10.0026 4.50002C9.6344 4.50002 9.33594 4.20154 9.33594 3.83335ZM2.80438 11.393C3.65208 10.8279 4.78478 10.5 6.0026 10.5C7.2204 10.5 8.35314 10.8279 9.2008 11.393C10.0439 11.9551 10.6693 12.8047 10.6693 13.8334C10.6693 14.2016 10.3708 14.5 10.0026 14.5C9.6344 14.5 9.33594 14.2016 9.33594 13.8334C9.33594 13.3892 9.06587 12.9056 8.4612 12.5024C7.8612 12.1024 6.99394 11.8334 6.0026 11.8334C5.01129 11.8334 4.14398 12.1024 3.54398 12.5024C2.93931 12.9056 2.66927 13.3892 2.66927 13.8334C2.66927 14.2016 2.37079 14.5 2.0026 14.5C1.63442 14.5 1.33594 14.2016 1.33594 13.8334C1.33594 12.8047 1.96133 11.9551 2.80438 11.393ZM10.6871 11.1655C10.7715 10.8071 11.1305 10.585 11.4889 10.6695C13.1581 11.0628 14.6693 12.2062 14.6693 13.8333C14.6693 14.2015 14.3708 14.5 14.0026 14.5C13.6344 14.5 13.3359 14.2015 13.3359 13.8333C13.3359 13.1382 12.621 12.3061 11.183 11.9673C10.8247 11.8828 10.6026 11.5239 10.6871 11.1655Z" fill="#757575"/>
</svg>