<svg width="50" height="50" viewBox="0 0 50 50" fill="none" xmlns="http://www.w3.org/2000/svg">
<path d="M21.3577 2H24.1116V9.13721H21.3577V2Z" fill="#4E5F7F"/>
<path d="M26.8884 2H29.6423V9.13721H26.8884V2Z" fill="#3E4665"/>
<path d="M21.3577 41.8628H24.1116V49H21.3577V41.8628Z" fill="#4E5F7F"/>
<path d="M26.8884 41.8628H29.6423V49H26.8884V41.8628Z" fill="#3E4665"/>
<path d="M42.0923 24.123H49V26.877H42.0923V24.123Z" fill="#3E4665"/>
<path d="M2 24.123H8.90771V26.877H2V24.123Z" fill="#4E5F7F"/>
<path d="M2 15.8269H11.128V18.5808H2V15.8269Z" fill="#4E5F7F"/>
<path d="M2 32.4192H11.128V35.1731H2V32.4192Z" fill="#4E5F7F"/>
<path d="M39.8719 15.8269H49V18.5808H39.8719V15.8269Z" fill="#3E4665"/>
<path d="M39.8719 32.4192H49V35.1731H39.8719V32.4192Z" fill="#3E4665"/>
<path d="M16.7597 12.9796L12.9509 6.31445H6.09607V3.56055H14.5491L19.1507 11.6133L16.7597 12.9796Z" fill="#4E5F7F"/>
<path d="M34.2403 12.9796L31.8492 11.6133L36.4508 3.56055H44.9039V6.31445H38.049L34.2403 12.9796Z" fill="#3E4665"/>
<path d="M4.9375 7.875C6.55984 7.875 7.875 6.55984 7.875 4.9375C7.875 3.31516 6.55984 2 4.9375 2C3.31516 2 2 3.31516 2 4.9375C2 6.55984 3.31516 7.875 4.9375 7.875Z" fill="#27A2DB"/>
<path d="M14.5491 47.4396H6.09607V44.6857H12.9509L16.7597 38.0205L19.1507 39.3868L14.5491 47.4396Z" fill="#4E5F7F"/>
<path d="M44.9039 47.4396H36.4508L31.8492 39.3868L34.2403 38.0205L38.049 44.6857H44.9039V47.4396Z" fill="#3E4665"/>
<path d="M46.0625 7.875C47.6848 7.875 49 6.55984 49 4.9375C49 3.31516 47.6848 2 46.0625 2C44.4402 2 43.125 3.31516 43.125 4.9375C43.125 6.55984 44.4402 7.875 46.0625 7.875Z" fill="#FD7DA0"/>
<path d="M4.9375 49C6.55984 49 7.875 47.6848 7.875 46.0625C7.875 44.4402 6.55984 43.125 4.9375 43.125C3.31516 43.125 2 44.4402 2 46.0625C2 47.6848 3.31516 49 4.9375 49Z" fill="#44C4A1"/>
<path d="M25.5 43.125C35.234 43.125 43.125 35.234 43.125 25.5C43.125 15.766 35.234 7.875 25.5 7.875C15.766 7.875 7.875 15.766 7.875 25.5C7.875 35.234 15.766 43.125 25.5 43.125Z" fill="#ECF2FF"/>
<path d="M43 25.5C43 35.1651 34.9413 43 25 43V8C34.9413 8 43 15.8349 43 25.5Z" fill="#DAE6FE"/>
<path d="M27.9395 19.1172H23.5352V30.8828H26.4648V27.9355H27.9395C30.3711 27.9355 32.3486 25.957 32.3486 23.5264C32.3486 21.0947 30.3711 19.1172 27.9395 19.1172ZM27.9395 25.0059H26.4648V22.0469H27.9395C28.7549 22.0469 29.4189 22.71 29.4189 23.5264C29.4189 24.3418 28.7549 25.0059 27.9395 25.0059Z" fill="#18B2FF"/>
<path d="M27.9395 19.1172H25V30.8828H26.4648V27.9355H27.9395C30.3711 27.9355 32.3486 25.957 32.3486 23.5264C32.3486 21.0947 30.3711 19.1172 27.9395 19.1172ZM27.9395 25.0059H26.4648V22.0469H27.9395C28.7549 22.0469 29.4189 22.71 29.4189 23.5264C29.4189 24.3418 28.7549 25.0059 27.9395 25.0059Z" fill="#1588DF"/>
<path d="M16.7603 19.1167C14.3304 19.1167 12.3535 21.0936 12.3535 23.5234V30.8829H15.2832V27.935H18.2373V30.8835H21.167V23.5233C21.167 21.0936 19.1901 19.1167 16.7603 19.1167ZM15.2832 25.0054V23.5234C15.2832 22.709 15.9458 22.0464 16.7603 22.0464C17.5747 22.0464 18.2373 22.709 18.2373 23.5234V25.0054H15.2832Z" fill="#18B2FF"/>
<path d="M34.2635 19.1162H37.1932V30.8838H34.2635V19.1162Z" fill="#1588DF"/>
<path d="M46.875 50C48.6009 50 50 48.6009 50 46.875C50 45.1491 48.6009 43.75 46.875 43.75C45.1491 43.75 43.75 45.1491 43.75 46.875C43.75 48.6009 45.1491 50 46.875 50Z" fill="#FCD462"/>
</svg>
