<svg viewBox="0 0 16 17" fill="none" xmlns="http://www.w3.org/2000/svg">
<path d="M12.7627 14.9C12.3285 14.9 11.9121 14.7276 11.605 14.4205C11.298 14.1135 11.1255 13.6971 11.1255 13.2628V4.92796C11.127 4.81001 11.1746 4.69734 11.258 4.61393C11.3414 4.53053 11.4541 4.48299 11.572 4.48145H13.6557C13.8531 4.48145 14.0424 4.55985 14.1819 4.69941C14.3215 4.83897 14.3999 5.02826 14.3999 5.22563V13.2628C14.3999 13.6971 14.2274 14.1135 13.9204 14.4205C13.6133 14.7276 13.1969 14.9 12.7627 14.9ZM12.0185 5.37447V13.2628C12.0185 13.4602 12.0969 13.6495 12.2365 13.7891C12.376 13.9286 12.5653 14.007 12.7627 14.007C12.9601 14.007 13.1494 13.9286 13.2889 13.7891C13.4285 13.6495 13.5069 13.4602 13.5069 13.2628V5.37447H12.0185Z" fill="currentColor"/>
<path d="M9.78623 8.35121H3.83274C3.7148 8.34967 3.60212 8.30213 3.51872 8.21873C3.43531 8.13532 3.38777 8.02264 3.38623 7.9047V4.92796C3.38777 4.81001 3.43531 4.69734 3.51872 4.61393C3.60212 4.53053 3.7148 4.48299 3.83274 4.48145H9.78623C9.90417 4.48299 10.0169 4.53053 10.1003 4.61393C10.1837 4.69734 10.2312 4.81001 10.2327 4.92796V7.9047C10.2312 8.02264 10.1837 8.13532 10.1003 8.21873C10.0169 8.30213 9.90417 8.34967 9.78623 8.35121ZM4.27925 7.45819H9.33972V5.37447H4.27925V7.45819Z" fill="currentColor"/>
<path d="M7.40483 12.2209H3.83274C3.71432 12.2209 3.60075 12.1739 3.51701 12.0901C3.43327 12.0064 3.38623 11.8928 3.38623 11.7744C3.38623 11.656 3.43327 11.5424 3.51701 11.4587C3.60075 11.3749 3.71432 11.3279 3.83274 11.3279H7.40483C7.52326 11.3279 7.63683 11.3749 7.72057 11.4587C7.8043 11.5424 7.85135 11.656 7.85135 11.7744C7.85135 11.8928 7.8043 12.0064 7.72057 12.0901C7.63683 12.1739 7.52326 12.2209 7.40483 12.2209Z" fill="currentColor"/>
<path d="M9.78623 10.4349H3.83274C3.71432 10.4349 3.60075 10.3878 3.51701 10.3041C3.43327 10.2203 3.38623 10.1068 3.38623 9.98835C3.38623 9.86993 3.43327 9.75636 3.51701 9.67262C3.60075 9.58888 3.71432 9.54184 3.83274 9.54184H9.78623C9.90465 9.54184 10.0182 9.58888 10.102 9.67262C10.1857 9.75636 10.2327 9.86993 10.2327 9.98835C10.2327 10.1068 10.1857 10.2203 10.102 10.3041C10.0182 10.3878 9.90465 10.4349 9.78623 10.4349Z" fill="currentColor"/>
<path d="M12.7629 14.9H3.83266C3.24054 14.9 2.67268 14.6648 2.254 14.2461C1.83531 13.8274 1.6001 13.2596 1.6001 12.6674V2.84419C1.6001 2.64682 1.6785 2.45754 1.81806 2.31797C1.95763 2.17841 2.14691 2.10001 2.34428 2.10001H11.2745C11.4719 2.10001 11.6612 2.17841 11.8007 2.31797C11.9403 2.45754 12.0187 2.64682 12.0187 2.84419V13.2628C12.0187 13.4602 12.0971 13.6495 12.2367 13.789C12.3762 13.9286 12.5655 14.007 12.7629 14.007C12.8813 14.007 12.9949 14.054 13.0786 14.1378C13.1624 14.2215 13.2094 14.3351 13.2094 14.4535C13.2094 14.5719 13.1624 14.6855 13.0786 14.7692C12.9949 14.853 12.8813 14.9 12.7629 14.9ZM2.49312 2.99303V12.6674C2.49312 13.0227 2.63425 13.3634 2.88546 13.6146C3.13667 13.8659 3.47739 14.007 3.83266 14.007H11.3043C11.1866 13.7766 11.1254 13.5215 11.1257 13.2628V2.99303H2.49312Z" fill="currentColor"/>
</svg>
