<svg viewBox="0 0 25 23" fill="none" xmlns="http://www.w3.org/2000/svg">
<path d="M12.6016 12.2369C12.9898 12.2369 13.3047 11.9221 13.3047 11.5338V9.10254C13.3047 8.71426 12.9898 8.39941 12.6016 8.39941C12.2133 8.39941 11.8984 8.71426 11.8984 9.10254V11.5338C11.8984 11.9221 12.2133 12.2369 12.6016 12.2369Z" fill="currentColor"/>
<path d="M12.6016 15.1518C12.9898 15.1518 13.3047 14.8369 13.3047 14.4486V14.2432C13.3047 13.8549 12.9898 13.54 12.6016 13.54C12.2133 13.54 11.8984 13.8549 11.8984 14.2432V14.4486C11.8984 14.8369 12.2133 15.1518 12.6016 15.1518Z" fill="currentColor"/>
<path d="M19.768 16.5928V11.7475C19.768 7.7959 16.5531 4.58105 12.6016 4.58105C8.65 4.58105 5.43594 7.7959 5.43594 11.7475V16.5928C3.94844 16.9889 2.84375 18.335 2.84375 19.9451V20.4201C2.84375 21.6357 3.83203 22.624 5.04687 22.624H20.1562C21.3719 22.624 22.3602 21.635 22.3602 20.4201V19.9451C22.3602 18.335 21.2555 16.9896 19.768 16.5928ZM12.6016 5.98809C15.7773 5.98809 18.3609 8.57168 18.3609 11.7475V16.4631H6.84141V11.7475C6.84141 8.57168 9.42578 5.98809 12.6016 5.98809ZM20.9531 20.4209C20.9531 20.8607 20.5953 21.2186 20.1555 21.2186H5.04687C4.60703 21.2186 4.25 20.8607 4.25 20.4209V19.9459C4.25 18.8014 5.18125 17.8709 6.32578 17.8709H18.8789C20.0234 17.8709 20.9539 18.8014 20.9539 19.9459L20.9531 20.4209Z" fill="currentColor"/>
<path d="M12.6016 2.81641C12.9898 2.81641 13.3047 2.50156 13.3047 2.11328V1.07813C13.3047 0.689844 12.9898 0.375 12.6016 0.375C12.2133 0.375 11.8984 0.689844 11.8984 1.07813V2.1125C11.8984 2.50078 12.2133 2.81641 12.6016 2.81641Z" fill="currentColor"/>
<path d="M3.40156 12.0156C3.40156 11.6273 3.08672 11.3125 2.69844 11.3125H1.66406C1.27578 11.3125 0.960938 11.6273 0.960938 12.0156C0.960938 12.4039 1.27578 12.7187 1.66406 12.7187H2.69844C3.08672 12.7195 3.40156 12.4039 3.40156 12.0156Z" fill="currentColor"/>
<path d="M23.539 11.3125H22.5046C22.1164 11.3125 21.8015 11.6273 21.8015 12.0156C21.8015 12.4039 22.1164 12.7187 22.5046 12.7187H23.539C23.9273 12.7187 24.2421 12.4039 24.2421 12.0156C24.2421 11.6273 23.9273 11.3125 23.539 11.3125Z" fill="currentColor"/>
<path d="M5.10156 5.51035C5.23906 5.64863 5.41875 5.71738 5.59922 5.71738C5.77969 5.71738 5.95859 5.64863 6.09609 5.51113C6.37109 5.23613 6.37109 4.79082 6.09609 4.51738L5.36484 3.78535C5.09062 3.50879 4.64531 3.50957 4.37031 3.78457C4.09531 4.05957 4.09531 4.5041 4.37031 4.7791L5.10156 5.51035Z" fill="currentColor"/>
<path d="M19.604 5.71738C19.7837 5.71738 19.9642 5.64863 20.1017 5.51113L20.8337 4.7791C21.1087 4.5041 21.1087 4.05879 20.8337 3.78457C20.5587 3.51035 20.1134 3.50957 19.8392 3.78457L19.1071 4.5166C18.8321 4.7916 18.8321 5.23691 19.1071 5.51113C19.2438 5.64863 19.4235 5.71738 19.604 5.71738Z" fill="currentColor"/>
</svg>
