<svg viewBox="0 0 20 20" fill="none" xmlns="http://www.w3.org/2000/svg">
<path d="M10 5.36664V8.14164" stroke="currentColor" stroke-width="1.25" stroke-miterlimit="10" stroke-linecap="round"/>
<path d="M10.0167 1.66669C6.95004 1.66669 4.4667 4.15002 4.4667 7.21669V8.96669C4.4667 9.53335 4.23337 10.3834 3.9417 10.8667L2.88337 12.6334C2.23337 13.725 2.68337 14.9417 3.88337 15.3417C7.8667 16.6667 12.175 16.6667 16.1584 15.3417C17.2834 14.9667 17.7667 13.65 17.1584 12.6334L16.1 10.8667C15.8084 10.3834 15.575 9.52502 15.575 8.96669V7.21669C15.5667 4.16669 13.0667 1.66669 10.0167 1.66669Z" stroke="currentColor" stroke-width="1.25" stroke-miterlimit="10" stroke-linecap="round"/>
<path d="M12.775 15.6834C12.775 17.2084 11.525 18.4584 9.99998 18.4584C9.24164 18.4584 8.54164 18.1417 8.04164 17.6417C7.54164 17.1417 7.22498 16.4417 7.22498 15.6834" stroke="currentColor" stroke-width="1.25" stroke-miterlimit="10"/>
</svg>