<svg viewBox="0 0 16 16" fill="none" xmlns="http://www.w3.org/2000/svg">
<path d="M6.85033 2.056V3.02569H6.03309L5.95638 3.03137C5.88036 3.0431 5.80722 3.07168 5.74332 3.11565C5.67954 3.15956 5.62704 3.21756 5.58896 3.28421L5.55581 3.35428L5.12683 4.46223L5.06433 4.62416L3.43648 5.54745L3.29065 5.63078L1.95163 5.42529C1.85181 5.41232 1.75043 5.43024 1.65996 5.47453C1.56859 5.5193 1.49218 5.59006 1.44121 5.67813L1.44026 5.67718L1.04348 6.37415L1.04064 6.37983C0.988201 6.46911 0.963343 6.57199 0.970561 6.67528C0.977891 6.77881 1.01668 6.8782 1.08136 6.95937L1.93553 8.01807V10.0342L1.10408 11.0938L1.10124 11.0966C1.03671 11.1777 0.997837 11.2764 0.990448 11.3798C0.98495 11.4574 0.997744 11.5354 1.02643 11.6071L1.06052 11.6762L1.06336 11.6819L1.46109 12.3779C1.5121 12.466 1.58863 12.5368 1.67985 12.5815C1.77023 12.6258 1.8716 12.6427 1.97151 12.6298L3.31243 12.4252L3.45921 12.5095L5.06433 13.4337L5.12683 13.5938L5.55581 14.7008C5.593 14.7972 5.65894 14.8807 5.74426 14.9394C5.82937 14.998 5.92965 15.0299 6.03309 15.0303H6.86832C6.97184 15.03 7.07293 14.998 7.1581 14.9394L7.21776 14.8911C7.27389 14.8385 7.3177 14.774 7.3456 14.7017L7.34654 14.7008L7.77552 13.5938L7.83708 13.4337L7.98575 13.3485L9.44315 12.5095L9.58993 12.4252L10.9299 12.6298C11.03 12.6428 11.132 12.6258 11.2225 12.5815C11.3137 12.5368 11.3894 12.4658 11.4403 12.3779L11.838 11.6819L11.8418 11.6762C11.8942 11.5869 11.9182 11.4837 11.911 11.3807C11.9036 11.277 11.8648 11.1777 11.8002 11.0966L11.054 10.1705L10.946 10.037V9.14306H11.9157V9.6942L12.5568 10.4896L12.5587 10.4925C12.7456 10.7271 12.8566 11.0126 12.8778 11.3116C12.8989 11.6089 12.8288 11.9047 12.679 12.162L12.6799 12.1629L12.2812 12.8618L12.2803 12.8637C12.133 13.1181 11.9128 13.3234 11.6487 13.4527C11.3847 13.582 11.0884 13.6294 10.7973 13.59L10.7888 13.589L9.77932 13.4347L8.61738 14.1023L8.24996 15.0502C8.14241 15.329 7.9541 15.5693 7.70829 15.7387C7.4624 15.9077 7.17042 15.9989 6.87211 16H6.03025C5.76909 15.9992 5.51341 15.9291 5.28877 15.7983L5.19407 15.7387C4.97886 15.5905 4.80666 15.3885 4.69501 15.1534L4.65145 15.0512L4.28403 14.1023L3.12209 13.4347L2.11261 13.589L2.10504 13.59C1.81378 13.6295 1.51686 13.5821 1.25276 13.4527C0.98863 13.3233 0.769297 13.118 0.622075 12.8637L0.620181 12.8618L0.221504 12.1629L0.222451 12.162C0.0725904 11.9047 0.00254935 11.6086 0.0235864 11.3116C0.0447709 11.0126 0.155968 10.727 0.342717 10.4925L0.965826 9.69798V8.35993L0.324724 7.56542L0.322831 7.56353C0.136053 7.32907 0.0249114 7.04341 0.00369996 6.74441C-0.0174714 6.44537 0.0525804 6.14682 0.204459 5.88835L0.600294 5.19423L0.602188 5.19234C0.749467 4.93786 0.968841 4.7327 1.23287 4.60333C1.46385 4.49016 1.71979 4.43914 1.9753 4.45465L2.08515 4.46602L2.09273 4.46696L3.1041 4.62037L4.28403 3.95087L4.65145 3.00486L4.69501 2.90258C4.80663 2.66758 4.9787 2.46559 5.19407 2.31736C5.44014 2.14803 5.73156 2.0569 6.03025 2.056H6.85033ZM3.87115 9.02753C3.87136 7.60835 5.02198 6.45843 6.44124 6.45843C6.68695 6.45845 6.9253 6.4929 7.15147 6.55786L7.01794 7.02376L6.88347 7.48967C6.74356 7.44952 6.59537 7.42814 6.44124 7.42812C5.55754 7.42812 4.84106 8.1439 4.84085 9.02753C4.84085 9.91135 5.55742 10.6279 6.44124 10.6279C7.32491 10.6277 8.04162 9.91125 8.04162 9.02753C8.04161 8.96792 8.0375 8.90908 8.03121 8.8514L8.51322 8.79932L8.99523 8.74629C9.00533 8.83878 9.01131 8.93262 9.01133 9.02753C9.01133 10.4468 7.86048 11.5974 6.44124 11.5976C5.02184 11.5976 3.87115 10.4469 3.87115 9.02753Z" fill="#535862"/>
<path d="M12.121 0C12.58 0 12.9524 0.372394 12.9524 0.831433V1.75188C14.695 2.13247 15.9996 3.68409 15.9998 5.54067V6.09559C15.9996 7.01335 15.2556 7.75729 14.3379 7.75751H9.90413C8.98636 7.75729 8.24241 7.01335 8.24219 6.09559V5.54067C8.24238 3.68409 9.54705 2.13247 11.2896 1.75188V0.831433C11.2896 0.372394 11.662 9.3712e-08 12.121 0ZM11.4969 2.69884C10.1902 2.98413 9.21208 4.14938 9.21189 5.54067V6.09559C9.21211 6.47781 9.52191 6.7876 9.90413 6.78782H14.3379C14.7201 6.7876 15.0299 6.4778 15.0301 6.09559V5.54067C15.0299 4.14938 14.0518 2.98413 12.7451 2.69884L12.121 2.56153L11.4969 2.69884Z" fill="#535862"/>
<path d="M10.7362 4.15582C11.1951 4.15597 11.5667 4.52831 11.5667 4.98726C11.5666 5.44608 11.1951 5.81759 10.7362 5.81774C10.2773 5.81774 9.90493 5.44617 9.90479 4.98726C9.90479 4.52822 10.2772 4.15582 10.7362 4.15582ZM13.5061 4.15582C13.9652 4.15582 14.3376 4.52822 14.3376 4.98726C14.3374 5.44617 13.9651 5.81774 13.5061 5.81774C13.0474 5.81752 12.6758 5.44603 12.6756 4.98726C12.6756 4.52836 13.0473 4.15604 13.5061 4.15582ZM10.7362 4.84805C10.6597 4.84805 10.597 4.91075 10.597 4.98726L10.6084 5.04123C10.6295 5.09079 10.679 5.12551 10.7362 5.12551C10.7935 5.1254 10.843 5.09082 10.8641 5.04123L10.8745 4.98726L10.8641 4.93328C10.8501 4.90007 10.8233 4.87352 10.7902 4.85942L10.7362 4.84805ZM13.5061 4.84805C13.4298 4.84827 13.3679 4.91087 13.3679 4.98726L13.3792 5.04123C13.4003 5.09063 13.4491 5.12535 13.5061 5.12551C13.5634 5.12551 13.6129 5.09077 13.634 5.04123L13.6453 4.98726L13.634 4.93328C13.613 4.8835 13.5636 4.84805 13.5061 4.84805Z" fill="#535862"/>
</svg>
