<svg viewBox="0 0 24 24" fill="none" xmlns="http://www.w3.org/2000/svg">
<g clip-path="url(#clip0_9060_155384)">
<path d="M20.2031 20.8281H18.4453V19.0703C18.4453 18.7467 18.183 18.4844 17.8594 18.4844H17.2734V12C17.2734 9.09223 14.9078 6.72656 12 6.72656C9.09223 6.72656 6.72656 9.09223 6.72656 12V18.4844H6.14062C5.81703 18.4844 5.55469 18.7467 5.55469 19.0703V20.8281H3.79688C3.47328 20.8281 3.21094 21.0905 3.21094 21.4141C3.21094 21.7377 3.47328 22 3.79688 22H20.2031C20.5267 22 20.7891 21.7377 20.7891 21.4141C20.7891 21.0905 20.5267 20.8281 20.2031 20.8281ZM7.89844 12C7.89844 9.7384 9.7384 7.89844 12 7.89844C14.2616 7.89844 16.1016 9.7384 16.1016 12V18.4844H7.89844V12ZM6.72656 19.6562H17.2734V20.8281H6.72656V19.6562Z" fill="currentColor"/>
<path d="M12 16.1016C12.3236 16.1016 12.5859 15.8392 12.5859 15.5156C12.5859 15.192 12.3236 14.9297 12 14.9297C11.6764 14.9297 11.4141 15.192 11.4141 15.5156C11.4141 15.8392 11.6764 16.1016 12 16.1016Z" fill="currentColor"/>
<path d="M12 10.2422C11.6764 10.2422 11.4141 10.5045 11.4141 10.8281V13.1719C11.4141 13.4955 11.6764 13.7578 12 13.7578C12.3236 13.7578 12.5859 13.4955 12.5859 13.1719V10.8281C12.5859 10.5045 12.3236 10.2422 12 10.2422Z" fill="currentColor"/>
<path d="M4.38281 12C4.38281 11.6764 4.12047 11.4141 3.79688 11.4141H2.58594C2.26234 11.4141 2 11.6764 2 12C2 12.3236 2.26234 12.5859 2.58594 12.5859H3.79688C4.12047 12.5859 4.38281 12.3236 4.38281 12Z" fill="currentColor"/>
<path d="M21.4141 11.4141H20.2031C19.8795 11.4141 19.6172 11.6764 19.6172 12C19.6172 12.3236 19.8795 12.5859 20.2031 12.5859H21.4141C21.7377 12.5859 22 12.3236 22 12C22 11.6764 21.7377 11.4141 21.4141 11.4141Z" fill="currentColor"/>
<path d="M12 4.38281C12.3236 4.38281 12.5859 4.12047 12.5859 3.79688V2.58594C12.5859 2.26234 12.3236 2 12 2C11.6764 2 11.4141 2.26234 11.4141 2.58594V3.79688C11.4141 4.12047 11.6764 4.38281 12 4.38281Z" fill="currentColor"/>
<path d="M5.78541 6.6138C6.0142 6.84263 6.38521 6.84267 6.61404 6.6138C6.84287 6.38497 6.84287 6.01399 6.61404 5.78517L5.78541 4.95653C5.55662 4.72771 5.18561 4.72771 4.95678 4.95653C4.72795 5.18536 4.72795 5.55634 4.95678 5.78517L5.78541 6.6138Z" fill="currentColor"/>
<path d="M18.2151 6.6138L19.0437 5.78517C19.2726 5.55634 19.2726 5.18536 19.0437 4.95653C18.8149 4.72771 18.4439 4.72771 18.2151 4.95653L17.3865 5.78517C17.1576 6.01399 17.1576 6.38497 17.3865 6.6138C17.6152 6.84263 17.9863 6.84267 18.2151 6.6138Z" fill="currentColor"/>
</g>
<defs>
<clipPath id="clip0_9060_155384">
<rect width="20" height="20" fill="white" transform="translate(2 2)"/>
</clipPath>
</defs>
</svg>
