<svg  viewBox="0 0 20 20" fill="none" xmlns="http://www.w3.org/2000/svg">
<path d="M17.8507 9.02366C17.5273 9.02366 17.2648 8.76116 17.2648 8.43772C17.2648 6.19397 16.3915 4.08539 14.8055 2.49867C14.5766 2.26979 14.5766 1.89871 14.8055 1.66983C15.0343 1.44095 15.4054 1.44095 15.6344 1.66983C17.4415 3.47757 18.4367 5.88154 18.4367 8.43772C18.4367 8.76116 18.1742 9.02366 17.8507 9.02366Z" fill="currentColor" stroke="currentColor" stroke-width="0.2"/>
<path d="M1.83594 9.02353C1.5125 9.02353 1.25 8.76103 1.25 8.43759C1.25 5.88141 2.24535 3.47743 4.05309 1.67041C4.28197 1.44153 4.65319 1.44153 4.88207 1.67041C5.11095 1.89929 5.11095 2.27051 4.88207 2.49939C3.29535 4.08526 2.42188 6.19383 2.42188 8.43759C2.42188 8.76103 2.15938 9.02353 1.83594 9.02353Z" fill="currentColor" stroke="currentColor" stroke-width="0.2"/>
<path d="M9.84375 19.375C8.22813 19.375 6.91406 18.0609 6.91406 16.4453C6.91406 16.1219 7.17656 15.8594 7.5 15.8594C7.82344 15.8594 8.08594 16.1219 8.08594 16.4453C8.08594 17.4149 8.87415 18.2031 9.84375 18.2031C10.8132 18.2031 11.6016 17.4149 11.6016 16.4453C11.6016 16.1219 11.8641 15.8594 12.1875 15.8594C12.5109 15.8594 12.7734 16.1219 12.7734 16.4453C12.7734 18.0609 11.4594 19.375 9.84375 19.375Z" fill="currentColor" stroke="currentColor" stroke-width="0.2"/>
<path d="M16.2892 17.0312H3.39853C2.64451 17.0312 2.03125 16.418 2.03125 15.6641C2.03125 15.264 2.20549 14.8852 2.50947 14.625C3.69765 13.6211 4.375 12.1618 4.375 10.6157V8.43745C4.375 5.42193 6.82818 2.96875 9.84384 2.96875C12.8594 2.96875 15.3125 5.42193 15.3125 8.43745V10.6157C15.3125 12.1618 15.9899 13.6211 17.1704 14.6196C17.4821 14.8852 17.6563 15.264 17.6563 15.6641C17.6563 16.418 17.043 17.0312 16.2892 17.0312ZM9.84384 4.14062C7.4742 4.14062 5.54687 6.06795 5.54687 8.43745V10.6157C5.54687 12.507 4.71804 14.293 3.27351 15.514C3.24618 15.5375 3.20312 15.586 3.20312 15.6641C3.20312 15.7703 3.29225 15.8594 3.39853 15.8594H16.2892C16.3953 15.8594 16.4844 15.7703 16.4844 15.6641C16.4844 15.586 16.4415 15.5375 16.4156 15.5156C14.9695 14.293 14.1407 12.507 14.1407 10.6157V8.43745C14.1407 6.06795 12.2133 4.14062 9.84384 4.14062Z" fill="currentColor" stroke="currentColor" stroke-width="0.2"/>
<path d="M9.84375 4.14062C9.52031 4.14062 9.25781 3.87813 9.25781 3.55469V1.21094C9.25781 0.887499 9.52031 0.625 9.84375 0.625C10.1672 0.625 10.4297 0.887499 10.4297 1.21094V3.55469C10.4297 3.87813 10.1672 4.14062 9.84375 4.14062Z" fill="currentColor" stroke="currentColor" stroke-width="0.2"/>
</svg>
