<svg viewBox="0 0 25 24" fill="none" xmlns="http://www.w3.org/2000/svg">
<path d="M23.9639 16.9688H22.3232V14.7656C22.3232 14.3773 22.0084 14.0625 21.6201 14.0625H13.3701V12.6562H14.0732C14.4616 12.6562 14.7764 12.3414 14.7764 11.9531V11.6055C14.7764 11.1169 15.1042 10.875 15.2451 10.7936C15.3861 10.7122 15.7596 10.5494 16.1826 10.7936L16.4836 10.9674C16.82 11.1616 17.25 11.0463 17.4442 10.71L18.8504 8.27433C19.0446 7.938 18.9294 7.50797 18.593 7.31386L18.292 7.14005C17.8689 6.89578 17.8232 6.49087 17.8232 6.32812C17.8232 6.16538 17.8689 5.76047 18.292 5.51625L18.5931 5.34244C18.9294 5.14828 19.0446 4.71825 18.8504 4.38197L17.4442 1.94625C17.25 1.60992 16.82 1.4947 16.4836 1.68891L16.1826 1.86267C15.7595 2.10694 15.3861 1.94405 15.2451 1.86267C15.1042 1.7813 14.7764 1.53933 14.7764 1.0508V0.703125C14.7764 0.314812 14.4616 0 14.0732 0H11.2607C10.8724 0 10.5576 0.314812 10.5576 0.703125V1.0508C10.5576 1.53933 10.2298 1.7813 10.0889 1.86267C9.94791 1.94409 9.57446 2.10689 9.15137 1.86267L8.85034 1.68886C8.51401 1.49466 8.08398 1.60992 7.88982 1.9462L6.48357 4.38192C6.28941 4.71825 6.40463 5.14828 6.74096 5.34239L7.04199 5.5162C7.46504 5.76047 7.51074 6.16538 7.51074 6.32812C7.51074 6.49087 7.46504 6.89578 7.04199 7.14L6.74091 7.31381C6.40459 7.50797 6.28937 7.938 6.48357 8.27428L7.88982 10.71C8.08398 11.0463 8.51401 11.1615 8.85034 10.9673L9.15137 10.7935C9.57441 10.5493 9.94791 10.7122 10.0889 10.7935C10.2298 10.8749 10.5576 11.1169 10.5576 11.6054V11.9531C10.5576 12.3414 10.8724 12.6562 11.2607 12.6562H11.9639V14.0625H3.71387C3.32555 14.0625 3.01074 14.3773 3.01074 14.7656V16.9688H1.37012C0.981805 16.9688 0.666992 17.2836 0.666992 17.6719V23.2969C0.666992 23.6852 0.981805 24 1.37012 24H6.05762C6.44593 24 6.76074 23.6852 6.76074 23.2969V17.6719C6.76074 17.2836 6.44593 16.9688 6.05762 16.9688H4.41699V15.4688H11.9639V16.9688H10.3232C9.93493 16.9688 9.62012 17.2836 9.62012 17.6719V23.2969C9.62012 23.6852 9.93493 24 10.3232 24H15.0107C15.3991 24 15.7139 23.6852 15.7139 23.2969V17.6719C15.7139 17.2836 15.3991 16.9688 15.0107 16.9688H13.3701V15.4688H20.917V16.9688H19.2764C18.8881 16.9688 18.5732 17.2836 18.5732 17.6719V23.2969C18.5732 23.6852 18.8881 24 19.2764 24H23.9639C24.3522 24 24.667 23.6852 24.667 23.2969V17.6719C24.667 17.2836 24.3522 16.9688 23.9639 16.9688ZM5.35449 18.375V22.5938H2.07324V18.375H5.35449ZM14.3076 18.375V22.5938H11.0264V18.375H14.3076ZM11.9377 11.25C11.8332 10.5491 11.4214 9.93914 10.792 9.57572C10.1626 9.21234 9.4284 9.16069 8.7692 9.42066L8.03987 8.15747C8.59468 7.71656 8.91699 7.05492 8.91699 6.32812C8.91699 5.60138 8.59463 4.93969 8.03987 4.49878L8.7692 3.23559C9.4284 3.49561 10.1626 3.44395 10.792 3.08053C11.4214 2.71711 11.8333 2.10717 11.9377 1.40625H13.3963C13.5007 2.10717 13.9126 2.71711 14.5419 3.08053C15.1713 3.44391 15.9055 3.49556 16.5647 3.23559L17.2941 4.49878C16.7393 4.93969 16.417 5.60133 16.417 6.32812C16.417 7.05487 16.7394 7.71656 17.2941 8.15747L16.5648 9.42066C15.9056 9.16064 15.1714 9.21234 14.542 9.57572C13.9126 9.93914 13.5007 10.5491 13.3963 11.25H11.9377ZM23.2607 22.5938H19.9795V18.375H23.2607V22.5938Z" fill="currentColor"/>
<path d="M15.0107 6.32812C15.0107 5.03578 13.9593 3.98438 12.667 3.98438C11.3746 3.98438 10.3232 5.03578 10.3232 6.32812C10.3232 7.62047 11.3746 8.67188 12.667 8.67188C13.9593 8.67188 15.0107 7.62047 15.0107 6.32812ZM12.667 7.26562C12.1501 7.26562 11.7295 6.84506 11.7295 6.32812C11.7295 5.81119 12.1501 5.39062 12.667 5.39062C13.1839 5.39062 13.6045 5.81119 13.6045 6.32812C13.6045 6.84506 13.1839 7.26562 12.667 7.26562Z" fill="currentColor"/>
</svg>
