<svg viewBox="0 0 18 20" fill="none" xmlns="http://www.w3.org/2000/svg">
<path d="M12.0001 0.400024V4.00002C12.0001 4.66277 12.5373 5.20002 13.2001 5.20002H16.8001M5.40008 5.20002H7.80008M5.40008 8.80002H12.6001M5.40008 12.4H12.6001M15.0001 2.20002C14.466 1.72217 13.9118 1.1554 13.5619 0.787303C13.3291 0.542359 13.0074 0.400024 12.6695 0.400024H3.5998C2.27432 0.400024 1.19981 1.47453 1.1998 2.80001L1.19971 17.2C1.1997 18.5254 2.27421 19.6 3.5997 19.6L14.3997 19.6C15.7252 19.6 16.7997 18.5255 16.7998 17.2001L16.8001 4.47786C16.8001 4.17102 16.683 3.87606 16.4701 3.65516C16.0763 3.24667 15.4187 2.57454 15.0001 2.20002Z" stroke="#1570EF" stroke-width="0.8" stroke-linecap="round" stroke-linejoin="round"/>
</svg>
