<svg width="46" height="46" viewBox="0 0 46 46" fill="none" xmlns="http://www.w3.org/2000/svg">
<rect x="3" y="3" width="40" height="40" rx="20" fill="#FEF0C7"/>
<rect x="3" y="3" width="40" height="40" rx="20" stroke="#FFFAEB" stroke-width="6"/>
<path d="M22.9998 19.6667V23M22.9998 26.3333H23.0082M21.5748 15.3833L14.5165 27.1667C14.371 27.4187 14.294 27.7044 14.2931 27.9954C14.2923 28.2865 14.3677 28.5726 14.5118 28.8254C14.656 29.0783 14.8638 29.289 15.1146 29.4366C15.3654 29.5841 15.6505 29.6635 15.9415 29.6667H30.0582C30.3492 29.6635 30.6342 29.5841 30.8851 29.4366C31.1359 29.289 31.3437 29.0783 31.4878 28.8254C31.6319 28.5726 31.7073 28.2865 31.7065 27.9954C31.7057 27.7044 31.6287 27.4187 31.4832 27.1667L24.4248 15.3833C24.2763 15.1384 24.0671 14.9359 23.8175 14.7954C23.5679 14.6549 23.2863 14.5811 22.9998 14.5811C22.7134 14.5811 22.4318 14.6549 22.1822 14.7954C21.9326 14.9359 21.7234 15.1384 21.5748 15.3833Z" stroke="#DC6803" stroke-width="1.66667" stroke-linecap="round" stroke-linejoin="round"/>
</svg>
