
<svg viewBox="0 0 24 24" fill="none" xmlns="http://www.w3.org/2000/svg">
<g clip-path="url(#clip0_1206_12800)">
<path d="M21.8438 22.5438H19.7844V20.4844C19.7844 20.0684 19.4472 19.7312 19.0312 19.7312H18.3781V12C18.3781 8.48306 15.5169 5.62187 12 5.62187C8.48306 5.62187 5.62187 8.48306 5.62187 12V19.7312H4.96875C4.55282 19.7312 4.21563 20.0684 4.21563 20.4844V22.5438H2.15625C1.74032 22.5438 1.40312 22.8809 1.40312 23.2969C1.40312 23.7128 1.74032 24.05 2.15625 24.05H21.8438C22.2597 24.05 22.5969 23.7128 22.5969 23.2969C22.5969 22.8809 22.2597 22.5438 21.8438 22.5438ZM7.12813 12C7.12813 9.31369 9.31369 7.12812 12 7.12812C14.6863 7.12812 16.8719 9.31369 16.8719 12V19.7312H7.12813V12ZM18.2781 21.2375V22.5438H5.72188V21.2375H18.2781Z" fill="currentColor" stroke="black" stroke-width="0.1"/>
<path d="M12 16.9219C12.3883 16.9219 12.7031 16.6071 12.7031 16.2188C12.7031 15.8304 12.3883 15.5156 12 15.5156C11.6117 15.5156 11.2969 15.8304 11.2969 16.2188C11.2969 16.6071 11.6117 16.9219 12 16.9219Z" fill="currentColor" fill-opacity="0.4"/>
<path d="M12 9.89062C11.6117 9.89062 11.2969 10.2054 11.2969 10.5938V13.4062C11.2969 13.7946 11.6117 14.1094 12 14.1094C12.3883 14.1094 12.7031 13.7946 12.7031 13.4062V10.5938C12.7031 10.2054 12.3883 9.89062 12 9.89062Z" fill="currentColor" fill-opacity="0.4"/>
<path d="M2.85938 12C2.85938 11.6117 2.54456 11.2969 2.15625 11.2969H0.703125C0.314812 11.2969 0 11.6117 0 12C0 12.3883 0.314812 12.7031 0.703125 12.7031H2.15625C2.54456 12.7031 2.85938 12.3883 2.85938 12Z" fill="currentColor" fill-opacity="0.4"/>
<path d="M23.2969 11.2969H21.8438C21.4554 11.2969 21.1406 11.6117 21.1406 12C21.1406 12.3883 21.4554 12.7031 21.8438 12.7031H23.2969C23.6852 12.7031 24 12.3883 24 12C24 11.6117 23.6852 11.2969 23.2969 11.2969Z" fill="currentColor" fill-opacity="0.4"/>
<path d="M12 2.85938C12.3883 2.85938 12.7031 2.54456 12.7031 2.15625V0.703125C12.7031 0.314812 12.3883 0 12 0C11.6117 0 11.2969 0.314812 11.2969 0.703125V2.15625C11.2969 2.54456 11.6117 2.85938 12 2.85938Z" fill="currentColor" fill-opacity="0.4"/>
<path d="M4.5421 5.53646C4.81665 5.81105 5.26187 5.8111 5.53646 5.53646C5.81105 5.26187 5.81105 4.8167 5.53646 4.5421L4.5421 3.54774C4.26755 3.27315 3.82234 3.27315 3.54774 3.54774C3.27315 3.82234 3.27315 4.26751 3.54774 4.5421L4.5421 5.53646Z" fill="currentColor" fill-opacity="0.4"/>
<path d="M19.4581 5.53646L20.4525 4.5421C20.7271 4.26751 20.7271 3.82234 20.4525 3.54774C20.1779 3.27315 19.7327 3.27315 19.4581 3.54774L18.4638 4.5421C18.1892 4.8167 18.1892 5.26187 18.4638 5.53646C18.7383 5.81105 19.1835 5.8111 19.4581 5.53646Z" fill="currentColor" fill-opacity="0.4"/>
</g>
<defs>
<clipPath id="clip0_1206_12800">
<rect width="24" height="24" fill="white"/>
</clipPath>
</defs>
</svg>
