<svg xmlns="http://www.w3.org/2000/svg"  viewBox="0 0 16 16" fill="none">
  <mask id="mask0_890_13988" style="mask-type:luminance" maskUnits="userSpaceOnUse" x="0" y="0" width="16" height="16">
    <path d="M0 0H16V16H0V0Z" fill="white"/>
  </mask>
  <g mask="url(#mask0_890_13988)">
    <path fill-rule="evenodd" clip-rule="evenodd" d="M5.384 1.1697C5.1136 0.936095 5.1816 0.502495 5.52 0.390495C6.72102 0.00107789 7.99709 -0.0988973 9.2441 0.0987258C10.4911 0.296349 11.6737 0.785972 12.6955 1.52765C13.7173 2.26933 14.5492 3.24205 15.1235 4.36646C15.6978 5.49088 15.9981 6.73512 16 7.9977C16 12.4081 12.4104 15.9977 8 15.9977C3.5896 15.9977 0 12.4081 0 7.9977C0 6.5817 0.3704 5.2497 1.0184 4.0937C1.05342 4.03323 1.10203 3.98174 1.16039 3.94331C1.21874 3.90487 1.28524 3.88054 1.35462 3.87223C1.424 3.86393 1.49436 3.87188 1.56013 3.89546C1.62591 3.91904 1.6853 3.9576 1.7336 4.0081C1.8896 4.1641 1.916 4.4081 1.8096 4.6017C1.23631 5.64169 0.936277 6.81015 0.9376 7.9977C0.939717 9.87011 1.68447 11.6652 3.00847 12.9892C4.33247 14.3132 6.12758 15.058 8 15.0601C9.87242 15.058 11.6675 14.3132 12.9915 12.9892C14.3155 11.6652 15.0603 9.87011 15.0624 7.9977C15.0607 6.88836 14.798 5.79499 14.2956 4.80597C13.7931 3.81695 13.065 2.96004 12.17 2.30451C11.2751 1.64899 10.2385 1.21324 9.14397 1.0325C8.04946 0.851755 6.92777 0.931093 5.8696 1.2641C5.78734 1.2912 5.69951 1.29675 5.61449 1.28023C5.52947 1.2637 5.45011 1.22564 5.384 1.1697Z" fill="#52525B" stroke="#52525B" stroke-width="0.1"/>
    <path d="M5.26069 2.73995H3.54709V4.45595C3.54115 4.54292 3.5024 4.6244 3.4387 4.6839C3.37499 4.74341 3.29106 4.7765 3.20389 4.7765C3.11671 4.7765 3.03279 4.74341 2.96908 4.6839C2.90537 4.6244 2.86663 4.54292 2.86069 4.45595V2.73995H1.14709C1.05641 2.73953 0.969561 2.70332 0.905439 2.6392C0.841318 2.57508 0.805108 2.48823 0.804688 2.39755C0.805108 2.30687 0.841318 2.22002 0.905439 2.1559C0.969561 2.09178 1.05641 2.05557 1.14709 2.05515H2.86069V0.33995C2.86789 0.253986 2.90712 0.173865 2.97061 0.115467C3.03411 0.0570692 3.11722 0.0246582 3.20349 0.0246582C3.28975 0.0246582 3.37287 0.0570692 3.43636 0.115467C3.49985 0.173865 3.53909 0.253986 3.54629 0.33995V2.05595H5.26069C5.35164 2.05595 5.4389 2.09197 5.50337 2.15614C5.56783 2.22031 5.60426 2.30739 5.60469 2.39835C5.60426 2.48931 5.56783 2.57639 5.50337 2.64056C5.4389 2.70473 5.35164 2.74075 5.26069 2.74075V2.73995Z" fill="#52525B" stroke="#52525B" stroke-width="0.3"/>
    <path d="M10.3423 7.02551C10.4959 6.87087 10.6787 6.74821 10.88 6.66458C11.0813 6.58096 11.2971 6.53804 11.5151 6.53831C11.7336 6.53793 11.95 6.58078 12.1518 6.6644C12.3536 6.74802 12.5369 6.87074 12.6911 7.02551C12.7791 7.11345 12.8983 7.16286 13.0227 7.16286C13.1471 7.16286 13.2664 7.11345 13.3543 7.02551C13.4423 6.93756 13.4917 6.81828 13.4917 6.69391C13.4917 6.56953 13.4423 6.45025 13.3543 6.36231C13.1134 6.12051 12.827 5.92885 12.5116 5.7984C12.1962 5.66795 11.858 5.6013 11.5167 5.60231C10.8223 5.60231 10.1703 5.87191 9.67832 6.36231C9.59037 6.45036 9.54101 6.56974 9.54108 6.69419C9.54116 6.81864 9.59067 6.93796 9.67872 7.02591C9.76677 7.11385 9.88615 7.16322 10.0106 7.16314C10.1351 7.16307 10.2544 7.11356 10.3423 7.02551ZM3.31032 7.02551C3.46416 6.87072 3.64717 6.74796 3.84875 6.66434C4.05032 6.58071 4.26648 6.53788 4.48472 6.53831C4.92872 6.53831 5.34632 6.71191 5.65912 7.02551C5.70177 7.07288 5.75361 7.11108 5.8115 7.13777C5.86938 7.16447 5.9321 7.17909 5.99582 7.18077C6.05954 7.18244 6.12293 7.17112 6.18214 7.1475C6.24135 7.12389 6.29512 7.08846 6.3402 7.04339C6.38527 6.99831 6.4207 6.94453 6.44432 6.88533C6.46793 6.82612 6.47925 6.76273 6.47758 6.69901C6.47591 6.63528 6.46128 6.57257 6.43459 6.51468C6.40789 6.4568 6.3697 6.40495 6.32232 6.36231C6.08145 6.12047 5.79502 5.92879 5.47961 5.79834C5.16419 5.66789 4.82604 5.60126 4.48472 5.60231C3.79112 5.60231 3.13832 5.87191 2.64712 6.36231C2.55917 6.45025 2.50977 6.56953 2.50977 6.69391C2.50977 6.81828 2.55917 6.93756 2.64712 7.02551C2.73506 7.11345 2.85434 7.16286 2.97872 7.16286C3.10309 7.16286 3.22237 7.11345 3.31032 7.02551ZM12.3871 8.38791H3.60792C3.55406 8.3878 3.50071 8.39832 3.45093 8.41886C3.40114 8.43939 3.35589 8.46955 3.31777 8.50759C3.27965 8.54564 3.24941 8.59083 3.22877 8.64058C3.20814 8.69032 3.19752 8.74365 3.19752 8.79751C3.19752 10.0705 3.70323 11.2914 4.60341 12.1916C5.50358 13.0918 6.72448 13.5975 7.99752 13.5975C9.27056 13.5975 10.4915 13.0918 11.3916 12.1916C12.2918 11.2914 12.7975 10.0705 12.7975 8.79751C12.7975 8.68887 12.7544 8.58469 12.6776 8.50788C12.6007 8.43106 12.4958 8.38791 12.3871 8.38791ZM7.99672 12.7783C7.01183 12.7788 6.06176 12.414 5.33028 11.7544C4.59881 11.0949 4.1379 10.1876 4.03672 9.20791H11.9567C11.8557 10.1877 11.3949 11.0951 10.6633 11.7547C9.93183 12.4142 8.98166 12.7789 7.99672 12.7783Z" fill="#52525B" stroke="#52525B" stroke-width="0.1"/>
  </g>
</svg>