<svg viewBox="0 0 14 14" fill="none" xmlns="http://www.w3.org/2000/svg">
<path fill-rule="evenodd" clip-rule="evenodd" d="M5.30524 0.657545L5.65804 0L6.01082 0.657545C6.07371 0.774736 6.17072 0.87061 6.28933 0.932753L6.95475 1.28136L6.28933 1.62998C6.17072 1.69212 6.07371 1.78798 6.01082 1.90519L5.65804 2.56273L5.30524 1.90519C5.24235 1.78798 5.14535 1.69212 5.02674 1.62998L4.36131 1.28136L5.02674 0.932753C5.14535 0.87061 5.24235 0.774736 5.30524 0.657545ZM1.14143 13.8666L3.68795 12.909L2.11054 11.3503L1.14143 13.8666ZM10.6237 2.6237L2.49234 10.6588L4.38775 12.5317L12.5191 4.49668L10.6237 2.6237ZM11.0981 2.15487L11.809 1.45235C12.2021 1.06397 12.8393 1.06397 13.2324 1.45235L13.7045 1.91883C14.0975 2.30722 14.0975 2.93693 13.7045 3.32534L12.9935 4.02784L11.0981 2.15487ZM11.8646 9.77972L12.508 10.9789C12.5708 11.0961 12.6679 11.192 12.7865 11.2541L14 11.8899L12.7865 12.5256C12.6679 12.5878 12.5708 12.6836 12.508 12.8009L11.8646 14L11.2212 12.8009C11.1583 12.6837 11.0613 12.5878 10.9427 12.5256L9.72912 11.8899L10.9427 11.2541C11.0613 11.192 11.1583 11.0961 11.2212 10.9789L11.8646 9.77972ZM1.16316 4.68662L1.63218 3.81243L2.1012 4.68662C2.16408 4.80383 2.26111 4.89971 2.37972 4.96183L3.26438 5.42531L2.37972 5.88878C2.26111 5.95093 2.16408 6.0468 2.1012 6.16401L1.63218 7.03818L1.16316 6.16401C1.10023 6.0468 1.00328 5.95093 0.884683 5.88878L9.53674e-07 5.42531L0.884683 4.96183C1.00328 4.89971 1.10023 4.80383 1.16316 4.68662Z" fill="url(#paint0_linear_2359_2721)"/>
<defs>
<linearGradient id="paint0_linear_2359_2721" x1="14" y1="0" x2="0" y2="14" gradientUnits="userSpaceOnUse">
<stop stop-color="#43CBFF"/>
<stop offset="1" stop-color="#9708CC"/>
</linearGradient>
</defs>
</svg>
