<svg viewBox="0 0 30 30" fill="none" xmlns="http://www.w3.org/2000/svg">
<g clip-path="url(#clip0_8154_246674)">
<mask id="mask0_8154_246674" style="mask-type:luminance" maskUnits="userSpaceOnUse" x="0" y="0" width="30" height="30">
<path d="M30 0H0V30H30V0Z" fill="white"/>
</mask>
<g mask="url(#mask0_8154_246674)">
<path fill-rule="evenodd" clip-rule="evenodd" d="M6.48838 7.72991L6.48982 7.7299C6.61321 7.72904 6.73657 7.73439 6.85943 7.74592C7.17059 7.7773 7.46398 7.59544 7.57428 7.30277C8.46731 4.94503 10.7244 3.38445 13.2456 3.38161C15.7668 3.37877 18.0275 4.93425 18.9258 7.28997L18.9263 7.29127C19.0361 7.57355 19.3161 7.75224 19.6184 7.73301L19.6197 7.73292C19.6586 7.7302 19.6989 7.7299 19.7463 7.72991L19.7477 7.7299C21.615 7.71677 23.2849 8.88984 23.9058 10.6509C24.0034 10.927 24.2644 11.1118 24.5573 11.1118H24.6056C26.492 11.1118 28.0213 12.641 28.0213 14.5275C28.0213 16.4139 26.492 17.9431 24.6056 17.9431H6.48838C3.66808 17.9431 1.38177 15.6568 1.38177 12.8365C1.38177 10.0162 3.66808 7.7299 6.48838 7.72991ZM6.48838 19.3249H24.6055C27.1979 19.3263 29.3225 17.268 29.4032 14.6768C29.4826 12.1284 27.5566 9.97127 25.0315 9.74871C24.1381 7.76533 22.204 6.45236 20.0311 6.35383C18.8201 3.70503 16.173 2 13.2525 2C10.334 2 7.68863 3.70259 6.47641 6.34815C2.89848 6.35461 0 9.25708 0 12.8365C0 16.42 2.90495 19.3249 6.48838 19.3249Z" fill="currentColor"/>
<path d="M19.847 23.9665C20.6981 23.374 21.4377 22.6358 22.0317 21.7858C22.1616 21.6007 22.4026 21.5307 22.6115 21.6174M19.847 23.9665L19.7899 23.8843ZM19.847 23.9665C19.6604 24.0959 19.589 24.3378 19.6757 24.5477L20.4795 26.4952L20.3874 26.5335M19.847 23.9665L19.7899 23.8843ZM19.7899 23.8843C20.6313 23.2986 21.3624 22.5688 21.9497 21.7285C22.1065 21.505 22.3976 21.4203 22.6497 21.525M19.7899 23.8843C19.5648 24.0405 19.4788 24.3325 19.5833 24.5859L20.3874 26.5335M22.6497 21.525L22.6115 21.6174ZM22.6497 21.525L22.6115 21.6174ZM22.6497 21.525L24.5961 22.3304ZM22.6115 21.6174L24.6502 22.461ZM24.6502 22.461L24.5578 22.4227L24.5961 22.3304M24.6502 22.461L25.8531 19.5601ZM24.6502 22.461L24.6884 22.3686L24.5961 22.3304M24.5961 22.3304L25.7225 19.614ZM25.8531 19.5601L25.8147 19.6524L25.7225 19.614M25.8531 19.5601L24.6903 19.076ZM25.8531 19.5601L25.7608 19.5218L25.7225 19.614M25.7225 19.614L24.6533 19.169ZM24.6903 19.076L24.6551 19.1696L24.6533 19.169M24.6903 19.076C24.4721 18.9943 24.3432 18.7685 24.3841 18.5391C24.4249 18.3098 24.6239 18.1423 24.8568 18.141L26.3266 18.6024L25.0856 18.0857C25.0131 18.0564 24.9349 18.041 24.8568 18.041C24.5756 18.0426 24.335 18.2447 24.2857 18.5216C24.2365 18.7978 24.391 19.0698 24.6533 19.169M24.6903 19.076L24.6517 19.1683L24.6533 19.169M8.8581 26.6534L8.85738 26.6548Z" fill="currentColor"/>
<path d="M22.0317 21.7858C21.4377 22.6358 20.6981 23.374 19.847 23.9665C19.6604 24.0959 19.589 24.3378 19.6757 24.5477L20.4795 26.4952L20.3874 26.5335L17.6766 27.6574L16.8681 25.7101C16.7626 25.4574 16.4958 25.3118 16.2262 25.3599C15.2176 25.5425 14.1843 25.5439 13.1753 25.3641C12.9057 25.3163 12.6392 25.4625 12.5345 25.7154L11.7304 27.6591L9.01595 26.5337L9.81943 24.5912C9.92413 24.3386 9.83913 24.0471 9.61501 23.8904C8.7738 23.3017 8.04208 22.5701 7.4532 21.7289C7.29636 21.5057 7.0057 21.4209 6.75346 21.5248L4.80657 22.3288L3.68639 19.6125L5.22254 18.9798C5.41523 18.9005 5.55097 18.7244 5.5786 18.5178C5.60624 18.3113 5.52159 18.1057 5.35653 17.9785C5.19148 17.8513 4.97109 17.8218 4.7784 17.9011L3.06641 18.6067L3.06505 18.6073C2.56568 18.8218 2.33288 19.399 2.54357 19.8999L3.79521 22.9363C3.89651 23.1784 4.08971 23.3711 4.33223 23.4713C4.57522 23.5737 4.84919 23.5741 5.09252 23.4725L6.77726 22.7767C7.2952 23.4474 7.89673 24.0492 8.56723 24.5674L7.87718 26.2355C7.77002 26.4775 7.76585 26.7526 7.86567 26.9977C7.96656 27.2457 8.1627 27.4429 8.41016 27.5451L11.4312 28.7976C11.5552 28.8514 11.6898 28.8796 11.825 28.8797C12.2275 28.8788 12.5902 28.6353 12.7428 28.2629L13.4375 26.584C14.2773 26.692 15.1275 26.6908 15.967 26.5804L16.6645 28.2605C16.7641 28.5053 16.9575 28.7005 17.2015 28.802C17.4455 28.9035 17.7204 28.9031 17.9642 28.801L20.9909 27.5461C21.2392 27.4441 21.4362 27.2465 21.5373 26.9979C21.6366 26.7569 21.6341 26.486 21.5306 26.2469L20.8361 24.5643C21.5069 24.0479 22.1082 23.4472 22.6253 22.777L24.2971 23.469C24.5414 23.5743 24.8184 23.5774 25.0648 23.4769C25.3114 23.3763 25.5072 23.1808 25.608 22.9343L26.8648 19.9036C26.9653 19.6609 26.966 19.3882 26.8668 19.145C26.7674 18.8987 26.5724 18.7029 26.3266 18.6024L24.8568 18.141C24.6239 18.1423 24.4249 18.3098 24.3841 18.5391C24.3432 18.7685 24.4721 18.9943 24.6903 19.076L25.8531 19.5601L24.6502 22.461L22.6115 21.6174C22.4026 21.5307 22.1616 21.6007 22.0317 21.7858Z" fill="currentColor"/>
<path d="M19.847 23.9665C20.6981 23.374 21.4377 22.6358 22.0317 21.7858C22.1616 21.6007 22.4026 21.5307 22.6115 21.6174M19.847 23.9665L19.7899 23.8843M19.847 23.9665C19.6604 24.0959 19.589 24.3378 19.6757 24.5477L20.4795 26.4952L20.3874 26.5335M22.6115 21.6174L22.6497 21.525M22.6115 21.6174L24.6502 22.461M19.7899 23.8843C20.6313 23.2986 21.3624 22.5688 21.9497 21.7285C22.1065 21.505 22.3976 21.4203 22.6497 21.525M19.7899 23.8843C19.5648 24.0405 19.4788 24.3325 19.5833 24.5859L20.3874 26.5335M20.3874 26.5335L17.6766 27.6574L16.8681 25.7101C16.7626 25.4574 16.4958 25.3118 16.2262 25.3599C15.2176 25.5425 14.1843 25.5439 13.1753 25.3641C12.9057 25.3163 12.6392 25.4625 12.5345 25.7154L11.7304 27.6591L9.01595 26.5337L9.81943 24.5912C9.92413 24.3386 9.83913 24.0471 9.61501 23.8904C8.7738 23.3017 8.04208 22.5701 7.4532 21.7289C7.29636 21.5057 7.0057 21.4209 6.75346 21.5248L4.80657 22.3288L3.68639 19.6125L5.22254 18.9798C5.41523 18.9005 5.55097 18.7244 5.5786 18.5178C5.60624 18.3113 5.52159 18.1057 5.35653 17.9785C5.19148 17.8513 4.97109 17.8218 4.7784 17.9011L3.06641 18.6067L3.06505 18.6073C2.56568 18.8218 2.33288 19.399 2.54357 19.8999L3.79521 22.9363C3.89651 23.1784 4.08971 23.3711 4.33223 23.4713C4.57522 23.5737 4.84919 23.5741 5.09252 23.4725L6.77726 22.7767C7.2952 23.4474 7.89673 24.0492 8.56723 24.5674L7.87718 26.2355C7.77002 26.4775 7.76585 26.7526 7.86567 26.9977C7.96656 27.2457 8.1627 27.4429 8.41016 27.5451L11.4312 28.7976C11.5552 28.8514 11.6898 28.8796 11.825 28.8797C12.2275 28.8788 12.5902 28.6353 12.7428 28.2629L13.4375 26.584C14.2773 26.692 15.1275 26.6908 15.967 26.5804L16.6645 28.2605C16.7641 28.5053 16.9575 28.7005 17.2015 28.802C17.4455 28.9035 17.7204 28.9031 17.9642 28.801L20.9909 27.5461C21.2392 27.4441 21.4362 27.2465 21.5373 26.9979C21.6366 26.7569 21.6341 26.486 21.5306 26.2469L20.8361 24.5643C21.5069 24.0479 22.1082 23.4472 22.6253 22.777L24.2971 23.469C24.5414 23.5743 24.8184 23.5774 25.0648 23.4769C25.3114 23.3763 25.5072 23.1808 25.608 22.9343L26.8648 19.9036C26.9653 19.6609 26.966 19.3882 26.8668 19.145C26.7674 18.8987 26.5724 18.7029 26.3266 18.6024M22.6497 21.525L24.5961 22.3304M24.5961 22.3304L24.5578 22.4227L24.6502 22.461M24.5961 22.3304L24.6884 22.3686L24.6502 22.461M24.5961 22.3304L25.7225 19.614M24.6502 22.461L25.8531 19.5601M25.8531 19.5601L25.8147 19.6524L25.7225 19.614M25.8531 19.5601L24.6903 19.076M25.8531 19.5601L25.7608 19.5218L25.7225 19.614M25.7225 19.614L24.6533 19.169M24.6903 19.076L24.6551 19.1696L24.6533 19.169M24.6903 19.076C24.4721 18.9943 24.3432 18.7685 24.3841 18.5391C24.4249 18.3098 24.6239 18.1423 24.8568 18.141L26.3266 18.6024M24.6903 19.076L24.6517 19.1683L24.6533 19.169M24.6533 19.169C24.391 19.0698 24.2365 18.7978 24.2857 18.5216C24.335 18.2447 24.5756 18.0426 24.8568 18.041C24.9349 18.041 25.0131 18.0564 25.0856 18.0857L26.3266 18.6024M8.8581 26.6534L8.85738 26.6548" stroke="currentColor" stroke-width="0.2"/>
<path d="M3.47881 15.7352C3.33298 15.7354 3.19489 15.6696 3.10328 15.5561C2.26629 14.52 1.95198 13.1567 2.25087 11.8587C2.54976 10.5608 3.42866 9.47222 4.6345 8.90653C4.87578 8.79253 5.1638 8.89572 5.2778 9.137C5.3918 9.37829 5.28861 9.66631 5.04733 9.78031C3.86614 10.3406 3.11139 11.5291 3.10657 12.8364C3.1036 13.6056 3.36775 14.3519 3.85391 14.948C3.9711 15.0926 3.99472 15.2918 3.91463 15.4599C3.83454 15.6279 3.665 15.735 3.47881 15.7352Z" fill="currentColor"/>
<path d="M16.099 10H14.0929V15.3594H15.4273V14.0166H16.099C17.2064 14.0166 18.1073 13.1157 18.1073 12.0083C18.1073 10.9009 17.2064 10 16.099 10ZM16.099 12.6822H15.4273V11.3344H16.099C16.4706 11.3344 16.7729 11.6368 16.7729 12.0083C16.7729 12.3799 16.4706 12.6822 16.099 12.6822Z" fill="currentColor"/>
<path d="M11.0072 10C9.90044 10 9 10.9004 9 12.0072V15.3594H10.3344V14.0166H11.68V15.3596H13.0144V12.0072C13.0144 10.9004 12.114 10 11.0072 10ZM10.3344 12.6822V12.0072C10.3344 11.6362 10.6362 11.3344 11.0072 11.3344C11.3782 11.3344 11.68 11.6362 11.68 12.0072V12.6822H10.3344Z" fill="currentColor"/>
<path d="M18.9797 10H20.3142V15.36H18.9797V10Z" fill="currentColor"/>
<path d="M14.7011 23.5653C17.7415 23.5532 20.4644 21.6788 21.5603 18.8427C21.6367 18.6477 21.6027 18.4267 21.4711 18.2637C21.3394 18.1006 21.1304 18.0208 20.9235 18.0545C20.7168 18.0882 20.5441 18.2301 20.471 18.4263C19.5575 20.8187 17.2623 22.3991 14.7015 22.3991C12.1406 22.3991 9.84552 20.8187 8.93202 18.4263C8.85888 18.2301 8.68614 18.0882 8.47946 18.0545C8.27262 18.0208 8.06359 18.1006 7.93193 18.2637C7.80028 18.4267 7.76624 18.6479 7.84279 18.843C8.93859 21.6792 11.6606 23.5532 14.7011 23.5653Z" fill="currentColor"/>
<path d="M7.84279 18.843C7.76624 18.6479 7.80028 18.4267 7.93193 18.2637C8.06359 18.1006 8.27262 18.0208 8.47946 18.0545C8.68614 18.0882 8.85888 18.2301 8.93202 18.4263C9.84552 20.8187 12.1406 22.3991 14.7015 22.3991C17.2623 22.3991 19.5575 20.8187 20.471 18.4263C20.5441 18.2301 20.7168 18.0882 20.9235 18.0545C21.1304 18.0208 21.3394 18.1006 21.4711 18.2637C21.6027 18.4267 21.6367 18.6477 21.5603 18.8427C20.4644 21.6788 17.7415 23.5532 14.7011 23.5653C11.6606 23.5532 8.93859 21.6792 7.84279 18.843ZM7.84279 18.843L7.93588 18.8065" stroke="currentColor" stroke-width="0.2"/>
<path d="M9.3872 8.00538C9.23191 8.00516 9.08618 7.9304 8.99542 7.80441C8.90465 7.67842 8.87989 7.51651 8.92885 7.36915C9.99299 4.17695 12.6563 4.14014 12.7691 4.14014C13.0359 4.13948 13.2527 4.35526 13.2534 4.62208C13.254 4.8889 13.0383 5.10573 12.7714 5.10639C12.6778 5.10779 10.6811 5.16794 9.84554 7.67487C9.77983 7.87222 9.59519 8.00536 9.3872 8.00538Z" fill="currentColor"/>
</g>
</g>
<defs>
<clipPath id="clip0_8154_246674">
<rect width="30" height="30" fill="white"/>
</clipPath>
</defs>
</svg>
