
<svg viewBox="0 0 20 20" fill="none" xmlns="http://www.w3.org/2000/svg">
<path fill-rule="evenodd" clip-rule="evenodd" d="M3.54175 10C3.54175 9.65482 3.82157 9.375 4.16675 9.375H15.8334C16.1786 9.375 16.4584 9.65482 16.4584 10C16.4584 10.3452 16.1786 10.625 15.8334 10.625H4.16675C3.82157 10.625 3.54175 10.3452 3.54175 10Z" fill="currentColor"/>
<path fill-rule="evenodd" clip-rule="evenodd" d="M9.55806 3.72481C9.80214 3.48073 10.1979 3.48073 10.4419 3.72481L16.2753 9.55814C16.5194 9.80222 16.5194 10.1979 16.2753 10.442L10.4419 16.2754C10.1979 16.5194 9.80214 16.5194 9.55806 16.2754C9.31398 16.0313 9.31398 15.6356 9.55806 15.3915L14.9495 10.0001L9.55806 4.60869C9.31398 4.36461 9.31398 3.96888 9.55806 3.72481Z" fill="currentColor"/>
</svg>
