<svg width="20" height="20" viewBox="0 0 20 20" fill="none" xmlns="http://www.w3.org/2000/svg">
<g clip-path="url(#clip0_11810_75232)">
<path d="M10 4.70703C7.08145 4.70703 4.70703 7.08145 4.70703 10C4.70703 12.9186 7.08145 15.293 10 15.293C12.9186 15.293 15.293 12.9186 15.293 10C15.293 7.08145 12.9186 4.70703 10 4.70703ZM10 14.1211C7.72762 14.1211 5.87891 12.2724 5.87891 10C5.87891 7.72762 7.72762 5.87891 10 5.87891C12.2724 5.87891 14.1211 7.72762 14.1211 10C14.1211 12.2724 12.2724 14.1211 10 14.1211Z" fill="#3CA2F4"/>
<path d="M11.0305 8.56563L9.51722 10.1914L8.95488 9.62906C8.72609 9.40028 8.35507 9.40028 8.12624 9.62906C7.89745 9.85785 7.89745 10.2289 8.12624 10.4577L9.118 11.4495C9.22796 11.5594 9.37706 11.6211 9.5323 11.6211C9.53581 11.6211 9.53933 11.6211 9.54281 11.621C9.70183 11.6182 9.85284 11.5508 9.9612 11.4344L11.8883 9.36406C12.1088 9.12723 12.0955 8.75645 11.8586 8.53598C11.6218 8.31547 11.251 8.32875 11.0305 8.56563Z" fill="#3CA2F4"/>
<path d="M19.4141 9.41406H18.6352C18.4963 7.32277 17.6159 5.37574 16.1201 3.87988C14.6243 2.38406 12.6772 1.50367 10.5859 1.3648V0.585938C10.5859 0.262344 10.3236 0 10 0C9.67641 0 9.41406 0.262344 9.41406 0.585938V1.3648C7.32277 1.50371 5.37574 2.3841 3.87988 3.87992C2.38406 5.37574 1.50367 7.32277 1.3648 9.41406H0.585938C0.262344 9.41406 0 9.67641 0 10C0 10.3236 0.262344 10.5859 0.585938 10.5859H1.3648C1.50371 12.6772 2.38406 14.6243 3.87992 16.1201C5.37578 17.6159 7.32281 18.4963 9.4141 18.6352V19.4141C9.4141 19.7377 9.67645 20 10 20C10.3236 20 10.586 19.7377 10.586 19.4141V18.6352C12.6773 18.4963 14.6243 17.6159 16.1202 16.1201C17.616 14.6243 18.4964 12.6772 18.6353 10.5859H19.4141C19.7377 10.5859 20 10.3236 20 10C20 9.67641 19.7377 9.41406 19.4141 9.41406ZM10.5859 17.4604V16.7243C10.5859 16.4007 10.3236 16.1384 10 16.1384C9.67641 16.1384 9.41406 16.4007 9.41406 16.7243V17.4604C5.75398 17.1756 2.82441 14.246 2.53961 10.5859H3.27566C3.59926 10.5859 3.8616 10.3236 3.8616 10C3.8616 9.67641 3.59926 9.41406 3.27566 9.41406H2.53961C2.82441 5.75398 5.75398 2.82441 9.41406 2.53961V3.2757C9.41406 3.5993 9.67641 3.86164 10 3.86164C10.3236 3.86164 10.5859 3.5993 10.5859 3.2757V2.53961C14.246 2.82441 17.1756 5.75398 17.4604 9.41406H16.7243C16.4007 9.41406 16.1384 9.67641 16.1384 10C16.1384 10.3236 16.4007 10.5859 16.7243 10.5859H17.4604C17.1756 14.246 14.246 17.1756 10.5859 17.4604Z" fill="#3CA2F4"/>
</g>
<defs>
<clipPath id="clip0_11810_75232">
<rect width="20" height="20" fill="white"/>
</clipPath>
</defs>
</svg>
