<svg xmlns="http://www.w3.org/2000/svg" width="16" height="16" fill="none"><path fill="#515151" d="M14.28 7.22a.469.469 0 0 1-.468-.47A6.676 6.676 0 0 0 11.844 2a.469.469 0 1 1 .664-.663 7.609 7.609 0 0 1 2.241 5.414c0 .259-.21.469-.468.469ZM1.469 7.219A.469.469 0 0 1 1 6.75c0-2.045.796-3.968 2.242-5.413A.469.469 0 0 1 3.906 2a6.672 6.672 0 0 0-1.969 4.75c0 .259-.21.469-.468.469ZM7.875 15.5a2.346 2.346 0 0 1-2.344-2.344.469.469 0 0 1 .938 0c0 .776.63 1.406 1.406 1.406.776 0 1.406-.63 1.406-1.406a.469.469 0 0 1 .938 0A2.346 2.346 0 0 1 7.875 15.5Z"/><path fill="#515151" d="M13.031 13.625H2.72a1.095 1.095 0 0 1-.711-1.925A4.189 4.189 0 0 0 3.5 8.493V6.75a4.38 4.38 0 0 1 4.375-4.375A4.38 4.38 0 0 1 12.25 6.75v1.743c0 1.236.542 2.404 1.486 3.203a1.094 1.094 0 0 1-.705 1.929ZM7.875 3.312A3.441 3.441 0 0 0 4.437 6.75v1.743A5.122 5.122 0 0 1 2.62 12.41a.156.156 0 0 0 .1.277H13.03a.158.158 0 0 0 .156-.157.154.154 0 0 0-.054-.119 5.124 5.124 0 0 1-1.82-3.92V6.75a3.441 3.441 0 0 0-3.438-3.438Z"/><path fill="#515151" d="M7.875 3.313a.469.469 0 0 1-.469-.47V.97a.469.469 0 0 1 .938 0v1.875c0 .259-.21.469-.469.469Z"/></svg>