<svg viewBox="0 0 30 30" fill="none" xmlns="http://www.w3.org/2000/svg">
<path d="M9.93423 2.01589C8.97695 2.132 7.83949 2.45922 6.98357 2.86033C3.26148 4.60727 1.29625 8.53919 2.231 12.3497C2.46187 13.2997 2.811 14.0597 3.57681 15.2789C4.04419 16.023 4.60166 17.163 5.37311 18.9416C6.01504 20.4352 6.21776 20.8311 6.48805 21.1002C6.64571 21.2586 7.00047 21.4538 7.12998 21.4538C7.17503 21.4538 7.42843 22.1294 7.81697 23.2799C8.18861 24.3724 8.49832 25.1958 8.58841 25.333C8.86996 25.7499 8.8756 25.7552 10.9197 25.771C12.8455 25.7921 13.0257 25.771 13.2622 25.5388C13.4592 25.3435 13.4536 24.9899 13.2453 24.7946L13.0932 24.6521L11.3195 24.668L9.55132 24.6838L9.39928 24.2405C9.30918 24.003 9.23035 23.7708 9.21346 23.7338C9.19656 23.6863 9.4218 23.6705 10.2327 23.6705C11.2406 23.6705 11.2857 23.6652 11.4264 23.5491C11.5391 23.4647 11.5841 23.3644 11.6066 23.1902C11.6348 22.9738 11.6179 22.9263 11.4659 22.768L11.2969 22.5885L10.0581 22.5727L8.81928 22.5569L8.65599 22.0713L8.49269 21.5858L10.289 21.5594L12.0853 21.533L12.2204 21.3852C12.3725 21.2216 12.4062 20.8574 12.2824 20.7149C12.074 20.4722 12.1134 20.4775 9.73714 20.4511C7.88454 20.43 7.45658 20.4088 7.37775 20.3508C7.23134 20.2347 7.06241 19.8916 6.49931 18.5827C5.60961 16.4928 5.08029 15.4319 4.36515 14.3078C2.92925 12.0436 2.7941 9.44168 4.00477 7.17753C5.18165 4.98726 7.29328 3.54644 9.90607 3.15589C10.6381 3.05033 11.9389 3.08727 12.6653 3.24033C15.9932 3.93699 18.4089 6.42809 18.8312 9.60002C18.9101 10.1647 18.8819 11.1042 18.7749 11.7164C18.7299 11.9803 18.7242 12.1281 18.7693 12.2283C18.9044 12.5608 19.445 12.6664 19.7153 12.4131C19.9067 12.2389 20.0025 11.7744 20.0475 10.8403C20.2671 6.63392 17.2376 2.99755 12.806 2.12672C12.4119 2.05284 11.9895 2.02117 11.2012 2.00534C10.6156 1.99478 10.0412 2.00006 9.93423 2.01589Z" fill="currentColor"/>
<path d="M12.5517 7.90627C12.2139 8.05404 12.1294 8.53432 12.3997 8.78765C12.5461 8.91959 12.608 8.93543 13.1205 8.97237C13.4245 8.99348 13.8637 9.02515 14.089 9.04626L14.4944 9.07792L13.1711 10.3182L11.8478 11.5532L11.1834 10.9357C10.5133 10.3182 10.5133 10.3182 10.243 10.3182H9.96709L8.1539 12.0176C7.15158 12.9465 6.30693 13.7804 6.26751 13.8648C6.10421 14.2396 6.47023 14.6882 6.89256 14.6248C7.05585 14.5984 7.33177 14.3609 8.66632 13.1154L10.243 11.6376L10.8906 12.2446C11.555 12.8673 11.724 12.9623 12.028 12.8779C12.0956 12.8568 12.8727 12.176 13.7399 11.3632L15.3278 9.88542L15.3616 10.3763C15.4461 11.5637 15.4517 11.5954 15.6206 11.7537C15.8909 12.0071 16.3808 11.9332 16.5441 11.6165C16.6173 11.4687 16.6173 11.284 16.5216 9.93292C16.4146 8.36015 16.3921 8.23349 16.1443 8.10682C16.088 8.08043 15.4461 8.02238 14.7197 7.97488C13.9933 7.92738 13.2443 7.87988 13.0585 7.86404C12.8389 7.84821 12.6643 7.86404 12.5517 7.90627Z" fill="currentColor"/>
<path d="M19.4225 14.2237C17.8965 14.3873 16.4268 15.0523 15.34 16.0709C13.4874 17.8073 12.8511 20.4039 13.7126 22.7103C14.073 23.6603 14.5629 24.3886 15.3569 25.138C17.4347 27.1119 20.7176 27.5658 23.3754 26.2622C26.5795 24.6789 27.8859 21.0425 26.3711 17.8864C25.808 16.7042 24.5411 15.4798 23.2516 14.8675C22.7729 14.6459 22.0071 14.4031 21.4947 14.3081C20.9091 14.2078 19.9743 14.1656 19.4225 14.2237ZM21.5172 15.4639C22.7673 15.7648 23.8879 16.4509 24.6593 17.3903C26.4781 19.607 26.0952 22.8686 23.7978 24.6525C20.9879 26.8375 16.7703 26.0194 15.1373 22.9742C13.7633 20.4092 14.7938 17.3323 17.5023 15.9389C18.1048 15.6275 18.7862 15.4323 19.704 15.3109C20.0588 15.2634 21.0217 15.3478 21.5172 15.4639Z" fill="currentColor"/>
<path d="M21.7181 19.3529C21.1663 19.8226 20.4061 20.4771 20.0232 20.8043L19.3306 21.4007L18.5028 20.6882C17.6244 19.9282 17.4667 19.849 17.1345 19.9757C17.0444 20.0126 16.9318 20.0918 16.8867 20.1551C16.791 20.2765 16.7741 20.6196 16.8529 20.7568C16.9149 20.8676 18.9026 22.5618 19.0715 22.6515C19.2292 22.736 19.4432 22.736 19.6009 22.6515C19.7529 22.5723 23.2216 19.601 23.4187 19.3899C23.7509 19.0151 23.4919 18.4979 22.9738 18.4979C22.7261 18.4979 22.7035 18.5138 21.7181 19.3529Z" fill="currentColor"/>
</svg>
