<svg xmlns="http://www.w3.org/2000/svg" fill="none" viewBox="0 0 16 16"><path fill="#7147E8" stroke="#7147E8" stroke-width=".2" d="M13.894 4.356H8.187l-1.43-1.762A1.598 1.598 0 0 0 5.524 2h-3.42C1.223 2 .5 2.73.5 3.61v9.458c0 .876.723 1.606 1.603 1.606h11.795c.879 0 1.602-.73 1.602-1.61v-7.12a1.604 1.604 0 0 0-1.606-1.588Zm-12.73 8.709V3.609a.95.95 0 0 1 .939-.945h3.42a.93.93 0 0 1 .72.351l1.085 1.34h-3.53c-.876 0-1.606.71-1.606 1.59v8.066h-.09a.95.95 0 0 1-.938-.946Zm13.67 0a.953.953 0 0 1-.94.946H2.856V5.945a.94.94 0 0 1 .942-.926h10.096c.511 0 .94.415.94.926v7.12Z"/><path fill="#7147E8" stroke="#7147E8" stroke-width=".2" d="M10.166 10.657c.299-.394.478-.889.478-1.42a2.367 2.367 0 0 0-2.369-2.362 2.367 2.367 0 0 0-2.369 2.362 2.367 2.367 0 0 0 3.79 1.888l.975.972a.34.34 0 0 0 .235.097.33.33 0 0 0 .236-.564l-.976-.973ZM6.57 9.234a1.706 1.706 0 0 1 3.41 0c0 .464-.185.883-.49 1.191-.004.003-.01.007-.014.013a1.712 1.712 0 0 1-1.201.494A1.701 1.701 0 0 1 6.57 9.235Z"/></svg>