<svg viewBox="0 0 16 16" fill="none" xmlns="http://www.w3.org/2000/svg">
<path fill-rule="evenodd" clip-rule="evenodd" d="M10.4551 1C10.3018 1 10.1547 1.06142 10.0463 1.17075C9.93784 1.28007 9.87692 1.42835 9.87692 1.58296V2.98543H8.4859C8.33255 2.98543 8.18548 3.04684 8.07704 3.15617C7.96861 3.2655 7.90769 3.41377 7.90769 3.56839C7.90769 3.723 7.96861 3.87127 8.07704 3.9806C8.18548 4.08993 8.33255 4.15135 8.4859 4.15135H9.87692V5.55381C9.87692 5.70842 9.93784 5.8567 10.0463 5.96603C10.1547 6.07535 10.3018 6.13677 10.4551 6.13677C10.6085 6.13677 10.7555 6.07535 10.864 5.96603C10.9724 5.8567 11.0333 5.70842 11.0333 5.55381V4.15135H12.4244C12.5777 4.15135 12.7248 4.08993 12.8332 3.9806C12.9416 3.87127 13.0026 3.723 13.0026 3.56839C13.0026 3.41377 12.9416 3.2655 12.8332 3.15617C12.7248 3.04684 12.5777 2.98543 12.4244 2.98543H11.0333V1.58296C11.0333 1.42835 10.9724 1.28007 10.864 1.17075C10.7555 1.06142 10.6085 1 10.4551 1ZM3.56282 2.98543C3.14833 2.98543 2.75083 3.15143 2.45774 3.44693C2.16465 3.74242 2 4.1432 2 4.5611V13.8264C2 13.9347 2.0299 14.0408 2.08635 14.1329C2.14281 14.225 2.22358 14.2994 2.31962 14.3478C2.41567 14.3962 2.52319 14.4167 2.63013 14.407C2.73708 14.3973 2.83924 14.3578 2.92514 14.2928L6.51667 11.4976L10.1054 14.2907L10.1082 14.2928C10.1941 14.3577 10.2963 14.3973 10.4032 14.407C10.5101 14.4167 10.6177 14.3962 10.7137 14.3478C10.8098 14.2994 10.8905 14.225 10.947 14.1329C11.0034 14.0408 11.0333 13.9347 11.0333 13.8264V8.20104C11.0333 8.04643 10.9724 7.89816 10.864 7.78883C10.7555 7.6795 10.6085 7.61808 10.4551 7.61808C10.3018 7.61808 10.1547 7.6795 10.0463 7.78883C9.93784 7.89816 9.87692 8.04643 9.87692 8.20104V12.6395L6.86603 10.3043L6.86359 10.3025C6.7635 10.2268 6.64177 10.1859 6.51667 10.1859C6.39156 10.1859 6.26982 10.2268 6.16973 10.3025L3.15641 12.6395V4.5611C3.15641 4.45242 3.19923 4.3482 3.27545 4.27136C3.35166 4.19452 3.45503 4.15135 3.56282 4.15135H5.86026C6.01361 4.15135 6.16068 4.08993 6.26911 3.9806C6.37754 3.87127 6.43846 3.723 6.43846 3.56839C6.43846 3.41377 6.37754 3.2655 6.26911 3.15617C6.16068 3.04684 6.01361 2.98543 5.86026 2.98543H3.56282Z" fill="currentColor"/>
</svg>
