<svg viewBox="0 0 41 40" fill="none" xmlns="http://www.w3.org/2000/svg">
<path d="M40.5 38.667H0.5V40.0003H40.5V38.667Z" fill="#757575"/>
<path d="M3.16667 37.3333H9.83333C10.2015 37.3333 10.5 37.0348 10.5 36.6667V24.6667C10.5 24.2985 10.2015 24 9.83333 24H3.16667C2.7985 24 2.5 24.2985 2.5 24.6667V36.6667C2.5 37.0348 2.7985 37.3333 3.16667 37.3333ZM3.83333 25.3333H9.16667V36H3.83333V25.3333Z" fill="#757575"/>
<path d="M21.8334 37.3333H28.5001C28.8682 37.3333 29.1667 37.0348 29.1667 36.6667V16.6667C29.1667 16.2985 28.8682 16 28.5001 16H21.8334C21.4652 16 21.1667 16.2985 21.1667 16.6667V36.6667C21.1667 37.0348 21.4652 37.3333 21.8334 37.3333ZM22.5001 17.3333H27.8334V36H22.5001V17.3333Z" fill="#757575"/>
<path d="M12.4999 37.3333H19.1666C19.5348 37.3333 19.8333 37.0348 19.8333 36.6667V8.66667C19.8333 8.2985 19.5348 8 19.1666 8H12.4999C12.1318 8 11.8333 8.2985 11.8333 8.66667V36.6667C11.8333 37.0348 12.1318 37.3333 12.4999 37.3333ZM13.1666 9.33333H18.4999V36H13.1666V9.33333Z" fill="#757575"/>
<path d="M31.1667 37.3333H37.8333C38.2015 37.3333 38.5 37.0348 38.5 36.6667V0.666667C38.5 0.2985 38.2015 0 37.8333 0H31.1667C30.7985 0 30.5 0.2985 30.5 0.666667V36.6667C30.5 37.0348 30.7985 37.3333 31.1667 37.3333ZM31.8333 1.33333H37.1667V36H31.8333V1.33333Z" fill="#757575"/>
</svg>
