<svg viewBox="0 0 20 20" fill="none" xmlns="http://www.w3.org/2000/svg">
<path d="M5.85912 1.78774C5.85362 1.76086 5.81521 1.76086 5.80971 1.78774C5.52451 3.18315 4.43401 4.27364 3.03861 4.55885C3.01172 4.56434 3.01172 4.60276 3.03861 4.60825C4.43401 4.89346 5.52451 5.98396 5.80971 7.37936C5.81521 7.40625 5.85362 7.40625 5.85912 7.37936C6.14433 5.98396 7.23482 4.89346 8.63023 4.60825C8.65711 4.60276 8.65711 4.56434 8.63023 4.55885C7.23482 4.27364 6.14433 3.18315 5.85912 1.78774Z" stroke="url(#paint0_linear_5390_5649)" stroke-width="1.25"/>
<path d="M1.43197 0.313395C1.48411 0.0582955 1.8486 0.0582955 1.90074 0.313395C2.0159 0.876808 2.4562 1.31711 3.01961 1.43227C3.27471 1.48441 3.27471 1.8489 3.01961 1.90104C2.4562 2.01619 2.0159 2.4565 1.90074 3.01991C1.8486 3.27501 1.48411 3.27501 1.43197 3.01991C1.31681 2.4565 0.876512 2.01619 0.313099 1.90104C0.0579994 1.8489 0.0579994 1.48441 0.313099 1.43227C0.876512 1.31711 1.31681 0.876808 1.43197 0.313395Z" fill="url(#paint1_linear_5390_5649)"/>
<path d="M10 3.5C9.44772 3.5 9 3.05228 9 2.5C9 1.94772 9.44772 1.5 10 1.5V2.5V3.5ZM17.0011 12.6953L17.9343 13.0548H17.9343L17.0011 12.6953ZM17.0585 16.2629L18.0429 16.0871L17.0585 16.2629ZM16.7575 14.5772L17.7419 14.4014H17.7419L16.7575 14.5772ZM16.0408 17.2877L16.2098 16.302H16.2098L16.0408 17.2877ZM14.048 16.946L13.879 17.9317L13.879 17.9317L14.048 16.946ZM12.3536 17.1233L12.04 16.1737H12.04L12.3536 17.1233ZM13.4623 16.8648L13.4855 15.8651H13.4855L13.4623 16.8648ZM13.1188 16.8905L12.9473 15.9053L12.9473 15.9053L13.1188 16.8905ZM16.7009 13.54L17.6801 13.743H17.6801L16.7009 13.54ZM16.6643 13.9218L17.6642 13.9084L16.6643 13.9218ZM1.95493 7.25016C2.13352 6.72755 2.70196 6.44867 3.22457 6.62726C3.74719 6.80585 4.02607 7.37428 3.84748 7.8969L2.90121 7.57353L1.95493 7.25016ZM11.5688 11.2258C12.0424 10.9417 12.6567 11.0953 12.9408 11.5688C13.225 12.0424 13.0714 12.6567 12.5978 12.9408L12.0833 12.0833L11.5688 11.2258ZM7.40217 12.9408C6.92859 12.6567 6.77503 12.0424 7.05917 11.5688C7.34332 11.0953 7.95758 10.9417 8.43116 11.2258L7.91667 12.0833L7.40217 12.9408ZM2.5 10H3.5C3.5 13.5899 6.41015 16.5 10 16.5V17.5V18.5C5.30558 18.5 1.5 14.6944 1.5 10H2.5ZM17.5 10H16.5C16.5 6.41015 13.5899 3.5 10 3.5V2.5V1.5C14.6944 1.5 18.5 5.30558 18.5 10H17.5ZM17.0011 12.6953L16.068 12.3358C16.3467 11.6122 16.5 10.8252 16.5 10H17.5H18.5C18.5 11.0749 18.3 12.1054 17.9343 13.0548L17.0011 12.6953ZM17.0585 16.2629L16.0741 16.4387L15.773 14.753L16.7575 14.5772L17.7419 14.4014L18.0429 16.0871L17.0585 16.2629ZM16.0408 17.2877L16.2098 16.302C16.1294 16.2883 16.0597 16.3584 16.0741 16.4387L17.0585 16.2629L18.0429 16.0871C18.2722 17.3712 17.1576 18.4937 15.8718 18.2733L16.0408 17.2877ZM14.048 16.946L14.2169 15.9604L16.2098 16.302L16.0408 17.2877L15.8718 18.2733L13.879 17.9317L14.048 16.946ZM10 17.5V16.5C10.7143 16.5 11.3997 16.3852 12.04 16.1737L12.3536 17.1233L12.6672 18.0728C11.8271 18.3503 10.93 18.5 10 18.5V17.5ZM14.048 16.946L13.879 17.9317C13.5395 17.8735 13.4767 17.8655 13.4391 17.8646L13.4623 16.8648L13.4855 15.8651C13.707 15.8702 13.9484 15.9144 14.2169 15.9604L14.048 16.946ZM12.3536 17.1233L12.04 16.1737C12.4159 16.0496 12.7263 15.9438 12.9473 15.9053L13.1188 16.8905L13.2903 17.8757C13.2948 17.8749 13.2628 17.8809 13.1437 17.9178C13.0324 17.9523 12.8835 18.0014 12.6672 18.0728L12.3536 17.1233ZM13.4623 16.8648L13.4391 17.8646C13.3792 17.8632 13.3664 17.8643 13.3643 17.8645C13.3622 17.8646 13.3493 17.8654 13.2903 17.8757L13.1188 16.8905L12.9473 15.9053C13.1526 15.8696 13.2772 15.8603 13.4855 15.8651L13.4623 16.8648ZM17.0011 12.6953L17.9343 13.0548C17.8424 13.2934 17.7791 13.4578 17.7346 13.5808C17.6869 13.7125 17.679 13.7482 17.6801 13.743L16.7009 13.54L15.7217 13.337C15.7725 13.0921 15.9082 12.7506 16.068 12.3358L17.0011 12.6953ZM16.7575 14.5772L15.773 14.753C15.7193 14.4522 15.6677 14.1822 15.6644 13.9352L16.6643 13.9218L17.6642 13.9084C17.6648 13.9502 17.674 14.0209 17.7419 14.4014L16.7575 14.5772ZM16.7009 13.54L17.6801 13.743C17.6664 13.8087 17.6653 13.8228 17.6651 13.825C17.6649 13.8272 17.6633 13.8413 17.6642 13.9084L16.6643 13.9218L15.6644 13.9352C15.6613 13.7028 15.6745 13.5646 15.7217 13.337L16.7009 13.54ZM2.90121 7.57353L3.84748 7.8969C3.62251 8.55525 3.5 9.26228 3.5 10H2.5H1.5C1.5 9.03937 1.65975 8.11397 1.95493 7.25016L2.90121 7.57353ZM12.0833 12.0833L12.5978 12.9408C10.9988 13.9002 9.00119 13.9002 7.40217 12.9408L7.91667 12.0833L8.43116 11.2258C9.39681 11.8052 10.6032 11.8052 11.5688 11.2258L12.0833 12.0833Z" fill="#A4A7AE"/>
<defs>
<linearGradient id="paint0_linear_5390_5649" x1="8.65039" y1="1.76758" x2="3.01844" y2="1.76758" gradientUnits="userSpaceOnUse">
<stop stop-color="#535862"/>
<stop offset="1" stop-color="#717680"/>
</linearGradient>
<linearGradient id="paint1_linear_5390_5649" x1="3.21094" y1="0.12207" x2="0.121774" y2="0.12207" gradientUnits="userSpaceOnUse">
<stop stop-color="#535862"/>
<stop offset="1" stop-color="#717680"/>
</linearGradient>
</defs>
</svg>
