<svg viewBox="0 0 20 20" fill="none" xmlns="http://www.w3.org/2000/svg">
<g clip-path="url(#clip0_14565_5646)">
<path d="M4.65661 -0.0159128C4.69996 -0.0161232 4.74331 -0.0163336 4.78798 -0.0165503C4.93284 -0.017108 5.07769 -0.0168307 5.22256 -0.0165524C5.32658 -0.0167752 5.43061 -0.0170433 5.53464 -0.0173648C5.78765 -0.0180355 6.04065 -0.0180692 6.29366 -0.0178643C6.49941 -0.0177062 6.70516 -0.0177631 6.91091 -0.0179717C6.95489 -0.0180155 6.95489 -0.0180155 6.99976 -0.0180602C7.05934 -0.0181201 7.11891 -0.0181802 7.17848 -0.0182405C7.7368 -0.0187764 8.29511 -0.0185644 8.85343 -0.0181161C9.36362 -0.0177283 9.87381 -0.0182334 10.384 -0.0191682C10.9085 -0.0201219 11.4329 -0.0204961 11.9574 -0.0202365C12.2516 -0.0201002 12.5458 -0.020186 12.84 -0.0208713C13.0905 -0.0214475 13.3409 -0.0214697 13.5914 -0.0207904C13.7191 -0.0204588 13.8468 -0.0204573 13.9744 -0.0209721C14.1132 -0.0214887 14.2519 -0.0210364 14.3906 -0.0203474C14.4305 -0.0207226 14.4704 -0.0210978 14.5115 -0.0214844C14.944 -0.017083 15.2694 0.114507 15.5795 0.414728C15.8914 0.755988 15.9941 1.11222 15.9928 1.56665C15.9931 1.60912 15.9934 1.65158 15.9938 1.69534C15.9947 1.83493 15.9947 1.9745 15.9947 2.1141C15.995 2.21137 15.9953 2.30863 15.9956 2.4059C15.9961 2.60935 15.9962 2.81279 15.9959 3.01624C15.9958 3.22524 15.9963 3.43422 15.9975 3.64322C15.9991 3.89585 15.9996 4.14846 15.9995 4.40109C15.9995 4.49734 15.9999 4.59359 16.0006 4.68984C16.0015 4.82413 16.0011 4.95836 16.0004 5.09265C16.0009 5.13251 16.0014 5.17237 16.002 5.21343C15.9988 5.48194 15.9988 5.48194 15.8847 5.60985C15.758 5.67516 15.6872 5.68722 15.5467 5.66329C15.4567 5.59036 15.403 5.53218 15.3514 5.42892C15.3477 5.37369 15.3463 5.3183 15.3462 5.26295C15.346 5.21071 15.346 5.21071 15.3458 5.15742C15.3458 5.11911 15.3458 5.0808 15.3458 5.04133C15.3456 4.98091 15.3456 4.98091 15.3454 4.91928C15.3451 4.83157 15.3449 4.74386 15.3448 4.65615C15.3445 4.51724 15.3439 4.37833 15.3432 4.23942C15.3411 3.84437 15.3392 3.44932 15.3386 3.05427C15.3382 2.8128 15.3371 2.57134 15.3355 2.32988C15.335 2.2379 15.3348 2.14592 15.3349 2.05394C15.335 1.925 15.3341 1.79609 15.333 1.66715C15.3333 1.62931 15.3335 1.59148 15.3338 1.55249C15.3302 1.29184 15.284 1.07148 15.0995 0.877195C14.7997 0.616365 14.4989 0.618415 14.1188 0.619533C14.0773 0.6195 14.0358 0.619467 13.993 0.619432C13.8539 0.619368 13.7148 0.619583 13.5757 0.619796C13.476 0.619807 13.3763 0.619801 13.2766 0.619779C13.0619 0.61977 12.8473 0.619881 12.6326 0.620101C12.3223 0.620419 12.0119 0.62052 11.7015 0.620569C11.198 0.620655 10.6944 0.620914 10.1908 0.621284C9.70174 0.621643 9.21263 0.621919 8.72352 0.622085C8.69336 0.622095 8.66321 0.622106 8.63213 0.622116C8.48083 0.622167 8.32954 0.622217 8.17824 0.622265C6.92345 0.62267 5.66866 0.623358 4.41387 0.624231C4.41422 0.659088 4.41456 0.693945 4.41492 0.729859C4.41806 1.0597 4.42043 1.38953 4.42196 1.71938C4.42278 1.88893 4.42388 2.05847 4.42566 2.22801C4.42736 2.39188 4.42829 2.55574 4.42869 2.71962C4.42898 2.78188 4.42954 2.84414 4.43039 2.90639C4.43587 3.32512 4.42194 3.68826 4.13311 4.01779C3.88419 4.26859 3.57996 4.31271 3.24122 4.31423C3.14945 4.3138 3.05772 4.31259 2.96596 4.31136C2.90166 4.31107 2.83735 4.31085 2.77304 4.31069C2.60485 4.3101 2.43668 4.30857 2.26849 4.30683C2.09645 4.30523 1.9244 4.30452 1.75235 4.30374C1.41556 4.30207 1.07878 4.2994 0.741993 4.29611C0.739311 6.11644 0.737246 7.93676 0.736008 9.75709C0.735862 9.97198 0.73571 10.1869 0.735555 10.4018C0.735509 10.4659 0.735509 10.4659 0.735462 10.5314C0.734952 11.2242 0.734028 11.9169 0.732951 12.6097C0.731856 13.3205 0.731205 14.0313 0.730967 14.7421C0.730806 15.1808 0.730298 15.6194 0.729346 16.058C0.728727 16.3588 0.728539 16.6595 0.728692 16.9603C0.728767 17.1338 0.728651 17.3074 0.728023 17.4809C0.727452 17.6399 0.727425 17.7988 0.727825 17.9578C0.727874 18.0152 0.727727 18.0726 0.727358 18.13C0.72521 18.4854 0.739648 18.7844 0.925098 19.0935C1.17252 19.3275 1.46018 19.379 1.79281 19.3793C1.83826 19.3794 1.88371 19.3795 1.93053 19.3796C1.9801 19.3796 2.02966 19.3795 2.08073 19.3795C2.1342 19.3795 2.18768 19.3796 2.24115 19.3797C2.38788 19.38 2.53461 19.38 2.68134 19.3799C2.83967 19.3799 2.998 19.3801 3.15634 19.3803C3.46644 19.3806 3.77655 19.3807 4.08666 19.3808C4.33873 19.3808 4.59079 19.3809 4.84286 19.381C5.55755 19.3813 6.27224 19.3815 6.98693 19.3815C7.02545 19.3815 7.06398 19.3815 7.10367 19.3815C7.14224 19.3815 7.18081 19.3815 7.22055 19.3815C7.84576 19.3814 8.47096 19.3818 9.09617 19.3824C9.73817 19.3829 10.3802 19.3832 11.0222 19.3832C11.3826 19.3832 11.743 19.3833 12.1034 19.3837C12.4103 19.384 12.7171 19.3841 13.0239 19.3839C13.1805 19.3837 13.337 19.3837 13.4935 19.3841C13.6369 19.3844 13.7802 19.3843 13.9236 19.384C13.9999 19.3839 14.0761 19.3842 14.1524 19.3845C14.504 19.3831 14.7923 19.3671 15.0779 19.1399C15.3116 18.8867 15.3251 18.6567 15.331 18.3289C15.3374 18.1517 15.3553 18.0346 15.4686 17.8899C15.5893 17.8295 15.6871 17.8393 15.8201 17.8508C15.9059 17.9037 15.9059 17.9037 15.9764 18.007C16 18.1457 15.9981 18.2818 15.9959 18.4221C15.9965 18.4591 15.9971 18.4961 15.9977 18.5342C15.9954 18.9662 15.8323 19.3136 15.5418 19.6306C15.2831 19.8826 14.9692 20.0038 14.6127 20.0046C14.5652 20.0048 14.5177 20.005 14.4688 20.0052C14.416 20.0052 14.3632 20.0052 14.3104 20.0052C14.2543 20.0054 14.1983 20.0056 14.1423 20.0058C13.9881 20.0062 13.8339 20.0064 13.6797 20.0066C13.5135 20.0069 13.3473 20.0073 13.1811 20.0077C12.7795 20.0087 12.378 20.0093 11.9765 20.0098C11.863 20.0099 11.7496 20.0101 11.6362 20.0102C10.9316 20.0112 10.2271 20.0121 9.52252 20.0126C9.35933 20.0127 9.19614 20.0128 9.03295 20.0129C8.99239 20.0129 8.95183 20.013 8.91005 20.013C8.25323 20.0135 7.59643 20.0148 6.93962 20.0164C6.26514 20.0181 5.59065 20.019 4.91617 20.0192C4.53753 20.0193 4.1589 20.0198 3.78027 20.0211C3.45775 20.0222 3.13524 20.0226 2.81272 20.0222C2.64826 20.022 2.48382 20.0221 2.31936 20.023C2.16855 20.0239 2.01777 20.0239 1.86697 20.0231C1.81265 20.023 1.75834 20.0233 1.70403 20.0238C1.22936 20.0287 0.820976 19.9249 0.470234 19.5895C0.198767 19.2558 0.0733744 18.8848 0.0726871 18.4576C0.072513 18.4073 0.072339 18.3569 0.0721596 18.305C0.0721631 18.2494 0.0721704 18.1938 0.0721814 18.1382C0.0720524 18.0789 0.0719069 18.0196 0.0717462 17.9603C0.0713557 17.7975 0.0712095 17.6346 0.0711058 17.4718C0.0709531 17.2961 0.0705791 17.1205 0.0702382 16.9448C0.069467 16.5206 0.0690731 16.0965 0.0687255 15.6723C0.0685542 15.4724 0.0683444 15.2726 0.0681399 15.0727C0.0674754 14.4082 0.0669092 13.7437 0.0666262 13.0791C0.0665516 12.9068 0.0664767 12.7344 0.0664003 12.562C0.0663814 12.5192 0.0663625 12.4763 0.0663431 12.4322C0.0660189 11.7383 0.0650291 11.0444 0.0637604 10.3505C0.0624679 9.63772 0.061765 8.92497 0.0616403 8.21221C0.0615558 7.81216 0.061215 7.41211 0.060216 7.01206C0.0593671 6.67135 0.059054 6.33064 0.0594334 5.98993C0.0596107 5.81621 0.0595385 5.6425 0.0587787 5.46878C0.0580879 5.30947 0.0581304 5.15018 0.0587354 4.99087C0.0588279 4.93351 0.0586612 4.87615 0.0581954 4.81879C0.0517931 3.9776 0.387505 3.52167 0.952401 2.94744C1.09102 2.80731 1.23008 2.66762 1.36928 2.52807C1.39907 2.49817 1.42886 2.46827 1.45955 2.43747C1.61693 2.27951 1.77441 2.12166 1.932 1.9639C2.09385 1.80184 2.25533 1.63942 2.41673 1.47691C2.54184 1.35107 2.66721 1.2255 2.79265 1.1C2.85228 1.04025 2.91181 0.980404 2.97125 0.920456C3.90448 -0.020312 3.90448 -0.020312 4.65661 -0.0159128ZM3.69976 1.1386C3.66799 1.17067 3.66799 1.17067 3.63558 1.20339C3.59956 1.2396 3.59956 1.2396 3.56281 1.27655C3.53665 1.30303 3.51049 1.32952 3.48354 1.35681C3.44312 1.39745 3.44312 1.39745 3.40188 1.43892C3.2862 1.55523 3.17075 1.67177 3.05529 1.7883C2.97107 1.87323 2.88673 1.95804 2.80239 2.04284C2.77678 2.06877 2.75117 2.0947 2.72479 2.12142C2.57383 2.27316 2.41823 2.41675 2.25619 2.55658C2.12312 2.67218 1.99944 2.79708 1.87481 2.92159C1.835 2.96068 1.835 2.96068 1.79439 3.00056C1.76937 3.02551 1.74434 3.05046 1.71856 3.07617C1.696 3.09856 1.67344 3.12096 1.6502 3.14404C1.59301 3.19966 1.59301 3.19966 1.60137 3.28048C1.54336 3.29982 1.54336 3.29982 1.48418 3.31954C1.48418 3.34532 1.48418 3.37111 1.48418 3.39767C1.4584 3.39767 1.43262 3.39767 1.40606 3.39767C1.35235 3.46144 1.30033 3.52666 1.24981 3.59298C1.21113 3.63165 1.21113 3.63165 1.17168 3.67111C1.47321 3.67564 1.77474 3.67911 2.0763 3.68123C2.21634 3.68224 2.35636 3.68362 2.49639 3.68584C2.63164 3.68797 2.76687 3.68913 2.90214 3.68964C2.97861 3.69017 3.05508 3.69169 3.13153 3.69323C3.41607 3.7002 3.41607 3.7002 3.66365 3.57958C3.7876 3.43027 3.79371 3.32524 3.7933 3.13732C3.7933 3.09197 3.7933 3.04662 3.79329 2.9999C3.79309 2.95095 3.79289 2.90199 3.79268 2.85156C3.79263 2.80143 3.79257 2.75131 3.79252 2.69967C3.79237 2.56655 3.79198 2.43342 3.79155 2.3003C3.79115 2.16441 3.79097 2.02851 3.79078 1.89262C3.79036 1.62607 3.78969 1.35953 3.78887 1.09298C3.74333 1.0886 3.74333 1.0886 3.69976 1.1386Z" fill="#414651"/>
<path d="M16.3355 6.57646C16.4897 6.68682 16.6019 6.80312 16.7185 6.95304C16.8454 7.03489 16.9423 7.03883 17.0913 7.0333C17.1543 7.03187 17.1543 7.03187 17.2185 7.0304C17.306 7.02768 17.3935 7.02463 17.4809 7.02125C17.8761 7.01324 18.1557 7.10944 18.4455 7.38136C18.6595 7.62479 18.7321 7.89132 18.7634 8.20854C18.8092 8.40948 18.8977 8.52424 19.0704 8.63487C19.1171 8.65891 19.1641 8.6826 19.2112 8.70597C19.5549 8.89172 19.7359 9.06129 19.8606 9.43595C19.9667 9.83392 19.9152 10.1548 19.719 10.5151C19.7056 10.5374 19.6921 10.5597 19.6783 10.5827C19.615 10.7538 19.6342 10.9007 19.6981 11.0683C19.7302 11.1316 19.7302 11.1316 19.763 11.1962C19.9418 11.5523 19.9608 11.8518 19.8472 12.2352C19.7096 12.5846 19.461 12.7582 19.1404 12.9296C18.9761 13.0245 18.8765 13.1093 18.7888 13.2812C18.7654 13.3896 18.7654 13.3896 18.7547 13.5033C18.7007 13.8573 18.5731 14.1294 18.2912 14.3565C18.1308 14.461 17.9297 14.5702 17.7342 14.5702C17.7345 14.6223 17.7345 14.6223 17.7349 14.6754C17.7373 15.003 17.7391 15.3306 17.7402 15.6582C17.7408 15.8266 17.7417 15.995 17.743 16.1634C17.7443 16.326 17.745 16.4886 17.7453 16.6512C17.7455 16.7132 17.7459 16.7751 17.7465 16.8371C17.7474 16.924 17.7475 17.011 17.7475 17.0979C17.7478 17.1721 17.7478 17.1721 17.7482 17.2478C17.7302 17.4208 17.6761 17.5522 17.5584 17.6813C17.4061 17.7999 17.2941 17.8572 17.1018 17.8637C17.0739 17.8651 17.0459 17.8666 17.0171 17.8681C16.677 17.8133 16.3559 17.5452 16.0711 17.3637C16.036 17.3417 16.0009 17.3196 15.9647 17.2968C15.9332 17.2767 15.9016 17.2567 15.8691 17.236C15.7825 17.1882 15.7233 17.1565 15.6248 17.1484C15.5335 17.1865 15.5335 17.1865 15.4424 17.2488C15.3901 17.282 15.3901 17.282 15.3366 17.3159C15.3004 17.3396 15.2642 17.3632 15.2268 17.3876C14.799 17.6621 14.799 17.6621 14.6146 17.7691C14.5881 17.7845 14.5616 17.7999 14.5343 17.8158C14.3785 17.8841 14.2271 17.8843 14.0623 17.8515C13.8928 17.7837 13.7825 17.7108 13.6879 17.5529C13.6244 17.4025 13.6184 17.2963 13.6193 17.1334C13.6193 17.0916 13.6193 17.0916 13.6192 17.049C13.6193 16.9577 13.6202 16.8664 13.6211 16.7751C13.6214 16.7115 13.6215 16.6479 13.6216 16.5843C13.6221 16.4175 13.6232 16.2507 13.6245 16.0838C13.6257 15.9134 13.6263 15.7429 13.6269 15.5724C13.6281 15.2384 13.6301 14.9043 13.6326 14.5702C13.6083 14.5652 13.584 14.5601 13.559 14.5549C13.5113 14.5447 13.5113 14.5447 13.4627 14.5342C13.4312 14.5276 13.3996 14.5209 13.3672 14.514C13.1054 14.4474 12.8819 14.202 12.7341 13.9843C12.6445 13.8137 12.6103 13.6413 12.5803 13.4521C12.5473 13.2666 12.518 13.1464 12.3826 13.0077C12.267 12.9455 12.1491 12.89 12.0303 12.8342C11.735 12.6798 11.56 12.4292 11.4614 12.1149C11.386 11.7281 11.4563 11.4008 11.6406 11.0603C11.7284 10.8882 11.7213 10.7763 11.6721 10.5967C11.6305 10.4799 11.5787 10.3715 11.5194 10.2627C11.3872 10.0097 11.4096 9.65758 11.4817 9.38712C11.6351 9.00176 11.9476 8.78708 12.3115 8.61976C12.4393 8.54418 12.4798 8.49458 12.5388 8.35929C12.5589 8.2663 12.5758 8.17258 12.5901 8.07853C12.6575 7.70016 12.7983 7.42498 13.1123 7.19734C13.4605 7.00916 13.7447 7.02377 14.1326 7.04948C14.357 7.05708 14.4959 7.05365 14.6691 6.90177C14.7147 6.85419 14.7598 6.80618 14.8045 6.75773C15.2462 6.37936 15.8171 6.25545 16.3355 6.57646ZM15.0637 7.41187C14.7698 7.6631 14.4855 7.67471 14.1111 7.65861C14.0251 7.65526 13.939 7.65244 13.8529 7.65022C13.7964 7.6478 13.7964 7.6478 13.7388 7.64534C13.5664 7.66291 13.4635 7.75086 13.3347 7.86125C13.2144 8.01035 13.2017 8.18756 13.1698 8.37168C13.116 8.6676 13.0214 8.88398 12.783 9.07218C12.6699 9.14995 12.5526 9.21534 12.4314 9.2797C12.2609 9.37087 12.1573 9.4739 12.0701 9.64835C12.0337 9.92366 12.1256 10.1051 12.2494 10.3495C12.3872 10.6476 12.3596 10.9251 12.2628 11.2311C12.2284 11.3225 12.188 11.4039 12.1409 11.4892C12.0545 11.6547 12.0461 11.767 12.0701 11.953C12.1752 12.1764 12.3333 12.2648 12.5388 12.3827C12.8585 12.5735 13.0483 12.7355 13.1516 13.1005C13.1782 13.2062 13.2014 13.31 13.2177 13.4177C13.2523 13.6335 13.3152 13.7303 13.4898 13.8634C13.6868 13.9936 13.9113 13.9505 14.1355 13.9208C14.5133 13.8821 14.8156 13.9906 15.117 14.2187C15.1766 14.282 15.1766 14.282 15.2244 14.3432C15.3263 14.4706 15.3917 14.5196 15.5467 14.5702C15.7104 14.5858 15.8419 14.5699 15.9792 14.4755C16.0587 14.4051 16.1344 14.3316 16.2107 14.2577C16.2644 14.2136 16.3189 14.1704 16.3743 14.1283C16.3982 14.11 16.4221 14.0916 16.4468 14.0726C16.7273 13.8918 17.0632 13.8827 17.3826 13.9452C17.5647 13.9631 17.6959 13.9633 17.8635 13.8842C18.0645 13.702 18.1255 13.5456 18.1638 13.2836C18.2169 12.9257 18.3358 12.7271 18.6126 12.4924C18.7114 12.4213 18.8079 12.3702 18.9182 12.3193C19.0898 12.2393 19.1761 12.1692 19.2576 11.9921C19.3175 11.7725 19.2782 11.6415 19.1795 11.4452C19.0174 11.1183 18.952 10.7963 19.0545 10.4372C19.1026 10.315 19.1583 10.1983 19.2173 10.0809C19.3007 9.9068 19.3084 9.79566 19.2576 9.60929C19.1502 9.41536 19.0545 9.33558 18.8548 9.24308C18.5111 9.06704 18.3263 8.86432 18.1934 8.50196C18.1622 8.39279 18.144 8.28598 18.1272 8.17375C18.0947 7.97004 18.0415 7.87455 17.8904 7.73429C17.7625 7.65343 17.6675 7.64848 17.5176 7.65403C17.4547 7.65547 17.4547 7.65547 17.3904 7.65693C17.303 7.65965 17.2155 7.6627 17.128 7.66609C16.7387 7.67398 16.4786 7.5848 16.1909 7.3223C16.1422 7.27488 16.0945 7.22639 16.0471 7.17765C15.9291 7.06364 15.853 7.03422 15.6883 7.01896C15.3934 7.04438 15.2521 7.19977 15.0637 7.41187ZM14.2576 14.4921C14.2576 15.3944 14.2576 16.2968 14.2576 17.2265C14.6945 16.9776 14.6945 16.9776 15.1267 16.7211C15.3981 16.5568 15.5735 16.4606 15.8982 16.5234C16.1042 16.6129 16.2921 16.7389 16.4801 16.8608C16.5817 16.9266 16.6846 16.99 16.7877 17.0532C16.8516 17.0924 16.9151 17.1321 16.9785 17.1719C17.0579 17.2298 17.0579 17.2298 17.1092 17.2265C17.1092 16.3241 17.1092 15.4218 17.1092 14.4921C16.8317 14.5383 16.6981 14.6233 16.511 14.8241C16.2986 15.0441 16.0028 15.1592 15.698 15.1659C15.3423 15.1601 15.0677 15.04 14.8045 14.8046C14.7714 14.77 14.7384 14.7353 14.7044 14.6996C14.5806 14.5822 14.4344 14.4921 14.2576 14.4921Z" fill="#414651"/>
<path d="M6.93996 1.98234C6.96559 1.98216 6.99122 1.98198 7.01762 1.9818C7.1032 1.98131 7.18877 1.98137 7.27435 1.98143C7.33583 1.9812 7.39732 1.98093 7.4588 1.98064C7.62562 1.97995 7.79245 1.97976 7.95928 1.97971C8.06358 1.97966 8.16787 1.97949 8.27217 1.97929C8.63624 1.97856 9.0003 1.97824 9.36437 1.9783C9.70339 1.97835 10.0424 1.97753 10.3814 1.97629C10.6728 1.97527 10.9641 1.97485 11.2555 1.9749C11.4293 1.97492 11.6032 1.9747 11.7771 1.97387C11.9407 1.97312 12.1043 1.97311 12.2679 1.97368C12.3278 1.97376 12.3877 1.97358 12.4476 1.9731C12.7598 1.9708 13.0143 1.97077 13.2814 2.14903C13.5272 2.39485 13.5266 2.67276 13.5283 3.00253C13.5283 3.02878 13.5282 3.05502 13.5281 3.08206C13.528 3.16187 13.5289 3.24163 13.5299 3.32144C13.5301 3.87392 13.5301 3.87392 13.3314 4.10063C13.3085 4.11886 13.2855 4.13709 13.2619 4.15587C13.2389 4.1747 13.2159 4.19353 13.1923 4.21294C13.072 4.29443 12.9667 4.3025 12.8258 4.30322C12.7697 4.30364 12.7697 4.30364 12.7125 4.30406C12.6715 4.30417 12.6306 4.30427 12.5883 4.30438C12.5235 4.30477 12.5235 4.30477 12.4574 4.30516C12.3142 4.30593 12.1711 4.30639 12.0279 4.30678C11.9546 4.30702 11.9546 4.30702 11.8799 4.30726C11.6483 4.30799 11.4166 4.30856 11.185 4.30888C10.9176 4.30927 10.6503 4.3103 10.3829 4.31187C10.1513 4.31319 9.9197 4.31366 9.68808 4.31381C9.58954 4.31401 9.491 4.31446 9.39246 4.31518C9.25479 4.31613 9.11715 4.3161 8.97948 4.31583C8.93859 4.31633 8.89769 4.31683 8.85556 4.31734C8.57941 4.31535 8.57941 4.31535 8.45229 4.22293C8.39588 4.13713 8.36572 4.0875 8.35951 3.98497C8.40166 3.82785 8.45694 3.75765 8.59388 3.67247C8.67961 3.65744 8.67961 3.65744 8.77432 3.65689C8.81036 3.6564 8.8464 3.65591 8.88353 3.65541C8.92278 3.65547 8.96203 3.65552 9.00248 3.65558C9.04403 3.65518 9.08558 3.65478 9.12839 3.65437C9.26577 3.65319 9.40315 3.65283 9.54054 3.65248C9.63578 3.65182 9.73101 3.65111 9.82625 3.65036C10.077 3.6485 10.3277 3.64733 10.5784 3.64631C10.8342 3.64515 11.09 3.64333 11.3458 3.64157C11.8478 3.63821 12.3497 3.63564 12.8517 3.63341C12.8517 3.31114 12.8517 2.98888 12.8517 2.65684C10.8536 2.65684 8.8556 2.65684 6.79701 2.65684C6.78412 2.992 6.77123 3.32716 6.75795 3.67247C6.96772 3.66632 6.96772 3.66632 7.17744 3.65839C7.32824 3.65617 7.40655 3.66342 7.53981 3.74144C7.62127 3.83316 7.64328 3.8648 7.63929 3.98497C7.63937 4.02364 7.63937 4.02364 7.63945 4.06309C7.60459 4.18619 7.56831 4.22486 7.46107 4.29747C7.32083 4.32196 7.1832 4.32103 7.04115 4.31944C6.98465 4.32084 6.98465 4.32084 6.92701 4.32226C6.66881 4.32174 6.48038 4.28318 6.2892 4.10216C6.08077 3.86561 6.11039 3.54354 6.11472 3.24704C6.11586 3.16225 6.11552 3.07756 6.11502 2.99277C6.11755 2.42452 6.11755 2.42452 6.30598 2.19954C6.5183 2.03714 6.67326 1.9831 6.93996 1.98234Z" fill="#414651"/>
<path d="M17.1721 8.79837C17.6933 9.22225 18.0558 9.78182 18.1438 10.4583C18.1995 11.2762 17.9835 11.9081 17.4733 12.5428C17.0473 13.0102 16.4033 13.2423 15.7863 13.2902C15.1157 13.3106 14.5085 13.0766 13.9983 12.6479C13.5277 12.2033 13.2294 11.6332 13.195 10.9827C13.181 10.2357 13.3781 9.57478 13.9061 9.02367C14.782 8.18442 16.196 8.05131 17.1721 8.79837ZM14.1795 9.68773C13.895 10.1049 13.7887 10.5539 13.828 11.0549C13.9288 11.5547 14.1663 11.988 14.5702 12.3049C15.0568 12.6001 15.528 12.7375 16.0936 12.6101C16.572 12.4773 16.971 12.2288 17.2411 11.802C17.5132 11.3025 17.5982 10.8429 17.4606 10.286C17.3187 9.81335 17.027 9.44185 16.6063 9.17992C15.7496 8.72306 14.795 8.95156 14.1795 9.68773Z" fill="#414651"/>
<path d="M2.81612 7.05169C2.86358 7.05136 2.86358 7.05136 2.912 7.05103C3.01793 7.0505 3.12382 7.05109 3.22975 7.05167C3.30572 7.05152 3.3817 7.05131 3.45767 7.05103C3.66396 7.05048 3.87023 7.05092 4.07651 7.05156C4.29227 7.0521 4.50803 7.05185 4.7238 7.05172C5.0861 7.05161 5.44839 7.05214 5.81069 7.05304C6.22978 7.05408 6.64886 7.05415 7.06795 7.05369C7.47088 7.05327 7.87381 7.05351 8.27675 7.05406C8.44834 7.05429 8.61992 7.05429 8.79151 7.0541C8.99347 7.05391 9.19543 7.05431 9.39739 7.05515C9.47159 7.05537 9.54579 7.05539 9.61999 7.05519C9.72111 7.05496 9.82221 7.05545 9.92333 7.05612C9.95284 7.05589 9.98235 7.05565 10.0127 7.05541C10.1345 7.05689 10.2216 7.06435 10.3297 7.12257C10.4275 7.22818 10.4273 7.32128 10.4297 7.46189C10.3772 7.57703 10.3483 7.63934 10.2344 7.69627C10.1335 7.70034 10.0337 7.70204 9.93273 7.70201C9.88546 7.70223 9.88546 7.70223 9.83724 7.70245C9.73105 7.70288 9.62486 7.70303 9.51867 7.70318C9.44278 7.70342 9.36689 7.70368 9.29099 7.70396C9.08438 7.70464 8.87777 7.70505 8.67115 7.70537C8.54215 7.70557 8.41316 7.70581 8.28416 7.70606C7.88081 7.7068 7.47746 7.70736 7.07411 7.70768C6.60803 7.70806 6.14196 7.70909 5.67588 7.71067C5.31594 7.71185 4.956 7.71243 4.59606 7.71256C4.38094 7.71265 4.16582 7.713 3.9507 7.71398C3.74835 7.71489 3.54602 7.71506 3.34367 7.71465C3.26936 7.71463 3.19505 7.71488 3.12074 7.71542C3.01936 7.71611 2.91803 7.71583 2.81665 7.71532C2.78718 7.71575 2.75771 7.71618 2.72734 7.71662C2.58433 7.71486 2.50575 7.69993 2.38424 7.62183C2.30475 7.54002 2.30475 7.54002 2.27881 7.46189C2.27931 7.43611 2.27982 7.41033 2.28033 7.38377C2.27983 7.35798 2.27933 7.3322 2.27881 7.30564C2.36038 7.05996 2.59342 7.04885 2.81612 7.05169Z" fill="#414651"/>
<path d="M2.81458 13.2176C2.84606 13.2174 2.87754 13.2172 2.90998 13.2169C3.01537 13.2164 3.12071 13.2173 3.2261 13.2182C3.30169 13.2181 3.37728 13.218 3.45287 13.2177C3.65811 13.2174 3.86333 13.2182 4.06857 13.2193C4.28323 13.2202 4.4979 13.2201 4.71256 13.2201C5.07303 13.2203 5.43348 13.2212 5.79394 13.2226C6.2109 13.2242 6.62785 13.2249 7.0448 13.225C7.48845 13.2252 7.93209 13.2259 8.37573 13.2269C8.5037 13.2271 8.63166 13.2273 8.75962 13.2274C8.96056 13.2276 9.16149 13.2283 9.36242 13.2292C9.43624 13.2295 9.51007 13.2297 9.58389 13.2297C9.68449 13.2297 9.78509 13.2303 9.88569 13.2309C9.91505 13.2308 9.9444 13.2307 9.97464 13.2306C10.1189 13.2321 10.2306 13.2368 10.3516 13.3198C10.4329 13.4243 10.4295 13.4806 10.4248 13.6152C10.3906 13.7494 10.3906 13.7494 10.3298 13.8155C10.1961 13.8871 10.0712 13.8829 9.92327 13.8818C9.8759 13.8821 9.8759 13.8821 9.82758 13.8824C9.72163 13.883 9.6157 13.8827 9.50974 13.8824C9.43384 13.8826 9.35793 13.8829 9.28203 13.8832C9.07574 13.8839 8.86946 13.8839 8.66317 13.8837C8.49105 13.8835 8.31893 13.8838 8.14682 13.884C7.74082 13.8846 7.33483 13.8845 6.92883 13.8841C6.50977 13.8836 6.09072 13.8842 5.67165 13.8852C5.31204 13.8861 4.95244 13.8863 4.59282 13.8861C4.37796 13.886 4.16311 13.8861 3.94825 13.8867C3.74622 13.8873 3.54421 13.8872 3.34218 13.8864C3.268 13.8863 3.19381 13.8864 3.11963 13.8868C3.01842 13.8873 2.91727 13.8869 2.81606 13.8862C2.77193 13.8868 2.77193 13.8868 2.72692 13.8873C2.58642 13.8854 2.50495 13.8697 2.38412 13.7957C2.30469 13.7104 2.30469 13.7104 2.28027 13.5761C2.33374 13.2713 2.53487 13.2127 2.81458 13.2176Z" fill="#414651"/>
<path d="M2.77335 9.12107C2.80508 9.1208 2.83682 9.12053 2.86952 9.12025C2.97602 9.11953 3.08248 9.11994 3.18898 9.12034C3.26527 9.12006 3.34156 9.11972 3.41785 9.11932C3.62519 9.11844 3.83251 9.11855 4.03985 9.1189C4.21285 9.1191 4.38584 9.11881 4.55883 9.11853C4.96688 9.11786 5.37493 9.11801 5.78299 9.11866C6.20419 9.11932 6.62537 9.1187 7.04656 9.11744C7.408 9.1164 7.76943 9.11611 8.13086 9.11644C8.34682 9.11664 8.56276 9.11655 8.77871 9.11575C8.98177 9.11503 9.1848 9.11526 9.38786 9.11622C9.46242 9.11642 9.53698 9.11628 9.61155 9.11579C9.71327 9.11517 9.81493 9.11575 9.91665 9.11664C9.94622 9.11617 9.97579 9.11571 10.0063 9.11523C10.1594 9.11795 10.2289 9.13707 10.3517 9.23151C10.4295 9.33649 10.4295 9.33649 10.4295 9.47809C10.3926 9.60273 10.3762 9.65297 10.2733 9.72711C10.1534 9.78703 10.0279 9.77181 9.89639 9.77166C9.8652 9.77178 9.83401 9.77189 9.80187 9.77201C9.69676 9.77235 9.59165 9.77241 9.48655 9.77247C9.41142 9.77265 9.3363 9.77285 9.26117 9.77306C9.05666 9.77357 8.85214 9.77382 8.64763 9.77399C8.51994 9.77411 8.39225 9.77427 8.26456 9.77444C7.8653 9.77498 7.46603 9.77536 7.06677 9.77551C6.60543 9.77568 6.14409 9.77637 5.68274 9.7775C5.32645 9.77834 4.97016 9.77874 4.61387 9.77879C4.40093 9.77883 4.18799 9.77906 3.97505 9.77976C3.77476 9.7804 3.57448 9.78049 3.37418 9.78014C3.30063 9.78011 3.22708 9.78028 3.15352 9.78067C3.05318 9.78116 2.95285 9.78094 2.85251 9.78053C2.80876 9.781 2.80876 9.781 2.76412 9.78148C2.5914 9.77984 2.48085 9.75571 2.34357 9.64899C2.28319 9.52822 2.29304 9.43046 2.30451 9.29742C2.42938 9.11708 2.5697 9.11886 2.77335 9.12107Z" fill="#414651"/>
<path d="M2.87848 11.1661C2.92484 11.1659 2.92484 11.1659 2.97214 11.1657C3.07605 11.1654 3.17996 11.1653 3.28386 11.1653C3.35822 11.1651 3.43258 11.1649 3.50694 11.1647C3.7092 11.1642 3.91145 11.1639 4.1137 11.1637C4.24 11.1636 4.36629 11.1635 4.49259 11.1633C4.88756 11.1628 5.28252 11.1624 5.67749 11.1622C6.13377 11.1621 6.59005 11.1614 7.04633 11.1602C7.3988 11.1594 7.75128 11.159 8.10376 11.1589C8.31438 11.1589 8.525 11.1587 8.73563 11.158C8.93371 11.1573 9.13178 11.1572 9.32986 11.1576C9.4026 11.1576 9.47534 11.1574 9.54807 11.1571C9.6473 11.1566 9.74651 11.1568 9.84574 11.1572C9.87458 11.1569 9.90342 11.1566 9.93313 11.1562C10.1055 11.1579 10.2149 11.182 10.3514 11.2887C10.4296 11.4059 10.4296 11.4059 10.4222 11.5427C10.3799 11.725 10.3799 11.725 10.2733 11.7966C10.1672 11.8082 10.0699 11.8125 9.96369 11.8117C9.91585 11.812 9.91585 11.812 9.86704 11.8123C9.7598 11.8129 9.65258 11.8126 9.54534 11.8123C9.4686 11.8126 9.39187 11.8128 9.31514 11.8132C9.10643 11.8139 8.89772 11.8138 8.68902 11.8136C8.51495 11.8135 8.34089 11.8137 8.16683 11.8139C7.75629 11.8145 7.34575 11.8144 6.9352 11.814C6.51128 11.8135 6.08737 11.8141 5.66345 11.8151C5.29982 11.816 4.9362 11.8163 4.57258 11.816C4.35525 11.8159 4.13793 11.816 3.9206 11.8167C3.71627 11.8173 3.51195 11.8171 3.30761 11.8164C3.23253 11.8162 3.15745 11.8164 3.08237 11.8168C2.98003 11.8173 2.87775 11.8168 2.77542 11.8161C2.74555 11.8165 2.71569 11.8169 2.68492 11.8173C2.5503 11.8154 2.47416 11.8063 2.36426 11.7258C2.27676 11.6005 2.28328 11.5159 2.30457 11.3669C2.46233 11.1601 2.63604 11.1658 2.87848 11.1661Z" fill="#414651"/>
<path d="M2.70024 16.2439C2.73299 16.2437 2.76573 16.2435 2.79947 16.2432C2.85317 16.2432 2.85317 16.2432 2.90795 16.2431C2.94576 16.2429 2.98356 16.2427 3.02251 16.2425C3.14775 16.2419 3.27299 16.2417 3.39824 16.2415C3.48518 16.2412 3.57212 16.241 3.65907 16.2408C3.84145 16.2404 4.02383 16.2401 4.20621 16.24C4.43998 16.2398 4.67374 16.2389 4.90751 16.2377C5.08713 16.237 5.26674 16.2368 5.44636 16.2367C5.53255 16.2366 5.61874 16.2363 5.70493 16.2358C5.82547 16.2351 5.94598 16.2352 6.06652 16.2355C6.10216 16.2351 6.1378 16.2347 6.17452 16.2344C6.36147 16.2356 6.48986 16.243 6.64073 16.3666C6.69646 16.478 6.69191 16.5554 6.67979 16.6791C6.62516 16.783 6.62516 16.783 6.52354 16.8744C6.39445 16.9038 6.26728 16.9007 6.13536 16.899C6.09596 16.8993 6.05657 16.8996 6.01598 16.8999C5.88567 16.9005 5.75541 16.8998 5.6251 16.899C5.53462 16.899 5.44413 16.8991 5.35365 16.8992C5.16398 16.8994 4.97432 16.8988 4.78465 16.8977C4.54137 16.8964 4.29812 16.8966 4.05483 16.8973C3.86798 16.8978 3.68113 16.8974 3.49427 16.8968C3.40456 16.8966 3.31485 16.8966 3.22514 16.8969C3.09982 16.8971 2.97454 16.8963 2.84923 16.8952C2.81205 16.8955 2.77486 16.8957 2.73656 16.896C2.48674 16.8924 2.48674 16.8924 2.35972 16.8035C2.2793 16.6785 2.28662 16.5901 2.30479 16.4447C2.40078 16.271 2.51025 16.2447 2.70024 16.2439Z" fill="#414651"/>
</g>
<defs>
<clipPath id="clip0_14565_5646">
<rect width="20" height="20" fill="white"/>
</clipPath>
</defs>
</svg>
