<svg xmlns="http://www.w3.org/2000/svg" viewBox="0 0 24 24" fill="none">
  <path fill-rule="evenodd" clip-rule="evenodd" d="M4.9 3H4.87935C4.47687 2.99999 4.14468 2.99999 3.87409 3.0221C3.59304 3.04506 3.33469 3.09434 3.09202 3.21799C2.7157 3.40973 2.40973 3.7157 2.21799 4.09202C2.09434 4.33469 2.04506 4.59304 2.0221 4.87409C1.99999 5.14468 1.99999 5.47686 2 5.87934V5.9V8.5V16.1V16.1207C1.99999 16.5231 1.99999 16.8553 2.0221 17.1259C2.04506 17.407 2.09434 17.6653 2.21799 17.908C2.40973 18.2843 2.7157 18.5903 3.09202 18.782C3.33469 18.9057 3.59304 18.9549 3.87409 18.9779C4.14468 19 4.47686 19 4.87934 19H4.9H7.5H9C9.27614 19 9.5 18.7761 9.5 18.5C9.5 18.2239 9.27614 18 9 18H8V9H21V10.5C21 10.7761 21.2239 11 21.5 11C21.7761 11 22 10.7761 22 10.5V8.5V5.9V5.87934C22 5.47689 22 5.14467 21.9779 4.87409C21.9549 4.59304 21.9057 4.33469 21.782 4.09202C21.5903 3.7157 21.2843 3.40973 20.908 3.21799C20.6653 3.09434 20.407 3.04506 20.1259 3.0221C19.8553 2.99999 19.5231 2.99999 19.1207 3H19.1H7.5H4.9ZM7 9V18H4.9C4.47171 18 4.18056 17.9996 3.95552 17.9812C3.73631 17.9633 3.62421 17.9309 3.54601 17.891C3.35785 17.7951 3.20487 17.6422 3.10899 17.454C3.06915 17.3758 3.03669 17.2637 3.01878 17.0445C3.00039 16.8194 3 16.5283 3 16.1V9H7ZM7 8H3V5.9C3 5.47171 3.00039 5.18056 3.01878 4.95552C3.03669 4.73631 3.06915 4.62421 3.10899 4.54601C3.20487 4.35785 3.35785 4.20487 3.54601 4.10899C3.62421 4.06915 3.73631 4.03669 3.95552 4.01878C4.18056 4.00039 4.47171 4 4.9 4H7V8ZM8 8V4H19.1C19.5283 4 19.8194 4.00039 20.0445 4.01878C20.2637 4.03669 20.3758 4.06915 20.454 4.10899C20.6422 4.20487 20.7951 4.35785 20.891 4.54601C20.9309 4.62421 20.9633 4.73631 20.9812 4.95552C20.9996 5.18056 21 5.47171 21 5.9V8H8ZM15.5 11C15.3106 11 15.1375 11.107 15.0528 11.2764L14.2322 12.9177L12.6213 12.5149C12.3939 12.4581 12.1576 12.5668 12.0528 12.7764L11.0528 14.7764C10.9565 14.9689 10.9943 15.2014 11.1464 15.3536L12.2929 16.5L11.1464 17.6464C10.9943 17.7986 10.9565 18.0311 11.0528 18.2236L12.0528 20.2236C12.1576 20.4332 12.3939 20.5419 12.6213 20.4851L14.2322 20.0823L15.0528 21.7236C15.1375 21.893 15.3106 22 15.5 22H17.5C17.6894 22 17.8625 21.893 17.9472 21.7236L18.7678 20.0823L20.3787 20.4851C20.6061 20.5419 20.8424 20.4332 20.9472 20.2236L21.9472 18.2236C22.0435 18.0311 22.0057 17.7986 21.8536 17.6464L20.7071 16.5L21.8536 15.3536C22.0057 15.2014 22.0435 14.9689 21.9472 14.7764L20.9472 12.7764C20.8424 12.5668 20.6061 12.4581 20.3787 12.5149L18.7678 12.9177L17.9472 11.2764C17.8625 11.107 17.6894 11 17.5 11H15.5ZM14.9472 13.7236L15.809 12H17.191L18.0528 13.7236C18.1576 13.9332 18.3939 14.0419 18.6213 13.9851L20.2322 13.5823L20.8916 14.9013L19.6464 16.1464C19.4512 16.3417 19.4512 16.6583 19.6464 16.8536L20.8916 18.0987L20.2322 19.4177L18.6213 19.0149C18.3939 18.9581 18.1576 19.0668 18.0528 19.2764L17.191 21H15.809L14.9472 19.2764C14.8424 19.0668 14.6061 18.9581 14.3787 19.0149L12.7678 19.4177L12.1084 18.0987L13.3536 16.8536C13.5488 16.6583 13.5488 16.3417 13.3536 16.1464L12.1084 14.9013L12.7678 13.5823L14.3787 13.9851C14.6061 14.0419 14.8424 13.9332 14.9472 13.7236ZM16 16.5C16 16.2239 16.2239 16 16.5 16C16.7761 16 17 16.2239 17 16.5C17 16.7761 16.7761 17 16.5 17C16.2239 17 16 16.7761 16 16.5ZM16.5 15C15.6716 15 15 15.6716 15 16.5C15 17.3284 15.6716 18 16.5 18C17.3284 18 18 17.3284 18 16.5C18 15.6716 17.3284 15 16.5 15Z" fill="currentColor"/>
</svg>