<svg viewBox="0 0 16 16" fill="none" xmlns="http://www.w3.org/2000/svg">
<g clip-path="url(#clip0_1580_1322)">
<path d="M7.99967 14.6667C11.6816 14.6667 14.6663 11.6819 14.6663 8.00001C14.6663 4.31811 11.6816 1.33334 7.99967 1.33334C4.31778 1.33334 1.33301 4.31811 1.33301 8.00001C1.33301 11.6819 4.31778 14.6667 7.99967 14.6667Z" stroke="currentColor" stroke-linecap="round" stroke-linejoin="round"/>
<path d="M6.33301 5.9769C6.33301 5.65871 6.33301 5.49961 6.3995 5.4108C6.45745 5.33339 6.54615 5.28497 6.64259 5.27808C6.75326 5.27017 6.88709 5.35621 7.15475 5.52827L10.3018 7.55138C10.5341 7.70069 10.6502 7.77534 10.6903 7.87027C10.7254 7.95321 10.7254 8.04681 10.6903 8.12975C10.6502 8.22468 10.5341 8.29933 10.3018 8.44864L7.15475 10.4718C6.88709 10.6438 6.75326 10.7298 6.64259 10.7219C6.54615 10.7151 6.45745 10.6666 6.3995 10.5892C6.33301 10.5004 6.33301 10.3413 6.33301 10.0231V5.9769Z" stroke="currentColor" stroke-linecap="round" stroke-linejoin="round"/>
</g>
<defs>
<clipPath id="clip0_1580_1322">
<rect width="16" height="16" fill="white"/>
</clipPath>
</defs>
</svg>
