<svg id="Layer_2" data-name="Layer 2" xmlns="http://www.w3.org/2000/svg" viewBox="0 0 15 15.06">
  <defs>
    <style>
      .cls-1 {
        fill: #7fb3ff;
      }

      .cls-2 {
        fill: #9ec5ff;
      }

      .cls-3 {
        fill: #71a8ff;
      }

      .cls-4 {
        fill: #89b1fe;
      }

      .cls-5 {
        fill: #2c2c3e;
      }
    </style>
  </defs>
  <g id="Layer_2-2" data-name="Layer 2">
    <g>
      <path class="cls-1" d="m8.68,4.62c-.08.05-.16.03-.24.06-.22.06-.44.11-.64.19-.24.09-.46.17-.69.28-.16.09-.3.19-.45.3-.17.13-.31.29-.42.47-.09.15-.13.31-.13.48v3.56c0,.1-.02.11-.15.12-.17,0-.35.04-.52.07-.1.02-.22,0-.33.02-.09,0-.18,0-.26,0-.29.05-.59,0-.88,0-.15,0-.31,0-.46-.03-.29-.04-.59-.08-.88-.13-.47-.1-.93-.24-1.35-.46-.25-.13-.48-.28-.65-.52-.09-.12-.14-.26-.14-.42v-1.17c0-.06.02-.07.07-.04.11.08.22.17.34.24.26.14.51.28.79.38.19.07.38.13.58.17.1.02.21.06.32.06.07,0,.14.04.22.06.12.03.26.05.39.06.23.02.44.05.67.06.26.02.51.02.76,0,.1,0,.2.02.3,0,.2-.03.41,0,.61-.06.13-.04.24-.23.11-.38-.05-.06-.11-.07-.18-.08-.1,0-.22,0-.32.02-.1,0-.22,0-.32.02-.24,0-.48.03-.72,0-.28-.03-.57-.03-.84-.08-.15-.03-.31-.04-.46-.07-.24-.05-.47-.1-.7-.17-.12-.04-.25-.09-.37-.13-.26-.1-.52-.22-.76-.39-.13-.09-.26-.21-.35-.34-.09-.11-.12-.25-.12-.4v-1.06s0-.09,0-.13c0-.02,0-.04,0-.05.02,0,.03,0,.05.02.1.09.22.17.33.25.21.14.43.26.66.35.18.07.36.12.55.18.22.06.44.1.66.15.14.04.3.04.44.07.18.03.36.03.53.06.09,0,.18,0,.26.02h.94c.18,0,.36-.02.54-.04.13-.02.26-.15.24-.27-.03-.14-.16-.23-.32-.2-.09.02-.17.02-.26.02-.3.03-.61.02-.9.02-.26,0-.5-.03-.76-.06-.26-.02-.52-.06-.79-.11-.13-.03-.26-.07-.4-.1s-.26-.08-.39-.11c-.17-.05-.33-.12-.49-.2-.26-.11-.48-.26-.68-.45-.16-.16-.26-.35-.25-.59,0-.35,0-.7,0-1.05v-.08s-.02-.06,0-.07c.02-.02.05,0,.07.03.21.17.43.3.66.43.21.11.44.19.66.26.25.08.5.14.76.19.2.04.41.07.61.09.17.02.35.03.52.05.31.03.63.03.96.03.12,0,.26,0,.38-.02.09,0,.19,0,.27-.02.2,0,.41-.03.61-.07.34-.06.68-.12,1.01-.23.15-.05.3-.1.45-.16.13-.06.26-.12.39-.18.21-.09.39-.22.56-.37.02,0,.03-.04.06-.03.03,0,0,.04,0,.06v.87c0,.14.09.24.25.25v.5h.02Z"/>
      <path class="cls-1" d="m6.1,11.4v.77c0,.09,0,.11-.1.12-.26.04-.5.08-.76.1-.16.02-.33,0-.49.02h-.48c-.19,0-.39,0-.58-.02-.08,0-.15,0-.22-.03-.03-.02-.08,0-.11,0-.16,0-.31-.04-.46-.07-.23-.04-.44-.08-.66-.14s-.44-.14-.64-.23c-.23-.09-.44-.21-.65-.35-.19-.12-.34-.29-.43-.51-.03-.07-.03-.13-.03-.19v-1.08s-.02-.09-.02-.13c0-.02,0-.04,0-.06.02,0,.04,0,.06.02.08.04.13.1.2.15.27.18.56.34.87.45.26.09.53.17.8.23.24.06.46.09.7.12.22.03.44.07.65.07.32,0,.65.03.97,0h.2c.37,0,.74-.05,1.1-.11.06,0,.09,0,.08.07v.79h0Z"/>
      <path class="cls-3" d="m5.01,3.6s.34,4.85-3.64,8.2c0,0,.76,1.25,5.19.73l-.05-5.88c-.15-.41.04-.86.44-1.03l1.73-.74v-2.36s-1.43,1.11-3.67,1.08Z"/>
      <path class="cls-2" d="m2.18.53c.04.07.08.12.16.15.07.02.13.02.19,0,.2-.05.4-.09.61-.11.2-.03.4-.06.61-.07.09,0,.18,0,.26-.02.21-.02.42-.02.62,0,.2,0,.41.02.61.04.19,0,.39.04.58.07.19.03.38.07.56.1.28.07.56.14.83.25.33.12.65.28.93.51.15.12.26.27.28.46.03.15,0,.3-.09.44-.1.16-.26.28-.42.39-.33.22-.7.35-1.08.47-.31.09-.64.17-.97.22-.26.04-.52.07-.79.09-.24.02-.47,0-.71,0h-.44c-.17,0-.35-.03-.52-.05-.13-.02-.26-.03-.4-.05-.3-.05-.6-.1-.89-.2-.29-.09-.58-.19-.85-.33-.26-.13-.5-.28-.67-.53-.18-.26-.18-.42-.02-.68.06-.1.14-.18.22-.26.1-.09.13-.2.08-.33.13-.11.28-.21.46-.26.03,0,.03-.03.04-.06.05.11.14.18.24.17.15-.02.26-.15.22-.32.11-.02.23-.09.35-.09v-.02Z"/>
      <path class="cls-2" d="m6.58,7.36c.27.23.59.39.9.54.19.09.4.15.61.21.09.03.23-.04.26-.16.04-.11.02-.21-.09-.27-.02,0-.05-.03-.07-.03-.22-.07-.42-.14-.62-.24-.26-.12-.53-.26-.74-.47-.11-.11-.21-.25-.25-.42-.04-.18.03-.32.12-.45.15-.23.38-.37.62-.49.14-.08.28-.13.44-.2.28-.12.59-.19.89-.26.19-.05.38-.07.57-.1.12-.03.24,0,.36-.04s.26-.03.39-.03c.25-.02.5-.04.75-.03.2,0,.39,0,.59.03.23.03.45.05.69.09.35.06.68.13,1.02.23.32.09.62.24.92.39.12.07.23.16.35.24.09.07.17.17.21.27.09.23.08.44-.08.65-.15.2-.35.34-.58.46-.41.23-.85.37-1.31.47-.3.07-.62.12-.93.15-.22.03-.44.04-.66.05-.26.02-.51,0-.77,0-.11,0-.22.08-.26.18-.02.06.02.2.11.25.05.03.1.05.16.05h.82c.22,0,.43-.03.63-.05.21-.02.41-.05.61-.09.31-.06.62-.13.94-.23.28-.09.55-.22.81-.35.18-.09.33-.21.49-.33,0,0,.02-.03.05-.02,0,0,0,.03,0,.04v1.17c0,.35-.2.58-.47.77-.32.23-.67.37-1.04.48-.31.09-.62.16-.95.22-.22.04-.44.06-.65.09-.43.05-.84.05-1.27.04-.21,0-.43-.02-.63-.06-.07,0-.14,0-.21,0-.13,0-.26-.05-.39-.06-.29-.03-.57-.12-.84-.21-.08-.03-.17-.07-.25-.09-.13-.04-.26-.09-.37-.14-.31-.17-.62-.35-.81-.66-.06-.09-.09-.2-.09-.31v-1.25h.02Zm2.6.97c.15,0,.24-.09.25-.24,0-.09-.08-.21-.24-.22-.11,0-.24.12-.24.24,0,.12.1.22.23.22Z"/>
      <path class="cls-1" d="m6.58,11.78c.09.07.18.13.27.2.41.26.86.44,1.26.62.31-.02.62.13.93.14.12,0,.25.05.37.06.07,0,.14,0,.21.02.11,0,.22.02.33.02.32.02.64,0,.97,0,.21,0,.42-.02.62-.04.31-.03.62-.08.94-.14.32-.07.64-.14.95-.26.13-.05.26-.1.4-.16.09-.05.16-.1.19-.21.03-.09,0-.15-.07-.21-.06-.07-.13-.09-.22-.06-.14.05-.27.12-.42.17-.42.15-.84.25-1.27.31-.23.04-.44.07-.67.09-.35.03-.71.05-1.06.03-.25,0-.49-.02-.74-.05-.22-.03-.44-.05-.64-.09-.25-.05-.49-.1-.74-.18s-.47-.16-.71-.27c-.18-.09-.35-.2-.51-.32-.17-.13-.29-.29-.37-.5,0-.03-.02-.05-.02-.08v-1.33c.06.02.09.07.14.09.27.21.58.38.9.5.3.12.62.2.94.27.25.06.49.09.75.13.11.02.24.02.36.03.28.03.58.02.86.03.12,0,.24,0,.36,0,.2,0,.4,0,.6-.02.28-.03.57-.04.84-.11.12-.04.25-.03.37-.07.11-.04.23-.06.35-.09.25-.07.49-.15.72-.26.18-.09.34-.18.51-.28.07-.04.11-.09.18-.14.03-.02.06-.05.09-.04.05,0,.02.06.02.09v3.24c0,.34-.13.61-.4.8-.3.23-.64.38-1.01.5-.38.12-.77.21-1.15.27-.34.06-.68.09-1.03.1-.2,0-.4.02-.6,0-.26,0-.54-.02-.8-.05-.16-.02-.32-.03-.47-.06-.27-.05-.56-.09-.82-.18-.12-.04-.25-.08-.36-.12-.26-.1-.5-.19-.73-.35-.23-.15-.44-.33-.55-.59-.03-.07-.05-.13-.05-.2v-1.29.02Z"/>
      <path class="cls-1" d="m6.59,7.47c0,.35,0,.7,0,1.05,0,.24.09.43.25.59.2.2.43.34.68.45.16.08.32.15.49.2.13.04.26.08.39.11.13.04.26.08.4.1.26.06.52.09.79.11.26.03.5.06.76.06.29,0,.6,0,.9-.02.09,0,.17,0,.26-.02.15-.03.28.05.32.18.24-.05.48-.14.72-.21.08-.09.4,0,.5-.07.15-.11.5-.13.66-.21.23-.11.25-.24.49-.33.21-.08.28-.19.5-.24.08-.03.07-.18.14-.22h-.02v-.5c-.15,0-.25-.1-.25-.25v-.87s.03-.05,0-.06c-.03,0-.04.02-.06.03-.17.15-.35.27-.56.37-.12.06-.26.12-.39.18-.15.06-.3.11-.45.16-.33.1-.67.17-1.01.23-.2.04-.41.06-.61.07-.09,0-.18,0-.27.02-.12.02-.26.02-.38.02-.32,0-.64,0-.96-.03-.17-.02-.35-.03-.52-.05-.2-.02-.41-.05-.61-.09-.26-.05-.51-.11-.76-.19-.23-.08-.45-.15-.66-.26-.24-.12-.45-.26-.66-.43-.02-.03-.05-.05-.07-.03-.02,0,0,.04,0,.07v.08Z"/>
      <path class="cls-3" d="m8.53,14.63s3.19-2.33,2.96-6.49c0,0,2.49-.11,3.3-1.26v6.56s-1.53,1.94-6.26,1.19Z"/>
      <path class="cls-5" d="m2.18.53c0-.2.06-.27.27-.32.19-.04.38-.09.57-.1.21-.02.42-.07.62-.05.04,0,.08,0,.1-.02.04,0,.09.03.11-.04h1.34s-.04.02-.05.04c.04.02.09.02.12.02.26,0,.51.04.76.09.28.05.57.11.85.19.14.04.28.09.43.14.63.22,1.21.54,1.58,1.21v2.11c0,.06,0,.11-.03.16-.04.09-.09.15-.2.16-.15-.02-.25-.11-.25-.25v-.87s.02-.05,0-.06-.04.02-.06.03c-.17.14-.35.27-.56.37-.13.06-.26.12-.39.18-.15.06-.3.11-.45.16-.33.1-.67.17-1.01.23-.2.04-.41.06-.61.07-.09,0-.19,0-.27.02-.12.02-.26.02-.38.02-.32,0-.63,0-.96-.03-.17-.02-.35-.03-.52-.05-.2-.03-.41-.05-.61-.09-.26-.06-.51-.11-.76-.19-.23-.08-.45-.15-.66-.26-.24-.12-.45-.26-.66-.43-.02-.02-.04-.04-.07-.03-.02,0,0,.05,0,.07v.08c0,.35,0,.7,0,1.05,0,.24.09.43.25.59.2.2.44.34.68.45.16.08.32.15.49.2.13.04.26.08.39.11s.26.08.4.1c.26.05.52.09.79.11.26.02.5.06.76.06.3,0,.61,0,.9-.02.09,0,.17,0,.26-.02.16-.03.29.06.32.2.02.11-.09.26-.24.27-.18.03-.36.04-.54.04h-.94c-.09,0-.18,0-.26-.02-.18-.03-.36-.03-.53-.06-.15-.03-.3-.03-.44-.07-.22-.05-.44-.09-.66-.15-.19-.05-.37-.11-.55-.18-.24-.09-.45-.21-.66-.35-.11-.08-.23-.16-.33-.25,0,0-.03-.03-.05-.02-.03,0-.02.04,0,.05,0,.05,0,.09,0,.13v1.06c0,.14.04.27.12.4.09.13.22.25.35.34.23.17.49.28.76.39.12.05.25.09.37.13.23.08.46.12.7.17.15.03.31.04.46.07.28.05.57.06.84.08.24.02.48,0,.72,0,.1,0,.22,0,.32-.02.1,0,.21-.03.32-.02.07,0,.13.02.18.08.13.15.02.34-.11.38-.2.06-.41.03-.61.06-.09,0-.2,0-.3,0-.26,0-.51,0-.76,0-.23,0-.44-.04-.67-.06-.13,0-.26-.04-.39-.06-.08-.02-.15-.06-.22-.06-.11,0-.22-.04-.32-.06-.2-.04-.39-.1-.58-.17-.28-.09-.54-.24-.79-.38-.12-.07-.23-.16-.34-.24-.05-.03-.07-.02-.07.04v1.17c0,.16.05.29.14.42.17.23.41.39.65.52.43.22.89.36,1.35.46.28.07.59.09.88.13.15.02.31.03.46.03.29,0,.59.04.88,0,.09,0,.18,0,.26,0,.11,0,.22,0,.33-.02.17-.03.34-.06.52-.07.13,0,.15-.02.15-.12v-3.56c0-.17.05-.34.13-.48.1-.19.25-.35.42-.47.14-.1.29-.22.45-.3.22-.11.45-.2.69-.28.21-.08.43-.13.64-.19.08-.02.16,0,.24-.06.16-.03.32-.06.48-.09.1-.02.2-.03.3-.04.39-.05.79-.07,1.18-.07.25,0,.49.02.73.03.16,0,.32.05.49.07.06,0,.12,0,.18,0,.06,0,.11.03.17.04.25.05.5.09.75.16.35.1.7.23,1.03.41.09.05.17.09.25.14.09.07.2.13.27.22.05.05.1.09.15.14.13.13.23.29.28.47.03.09.04.18.04.27v6.58c0,.14,0,.28-.04.44-.06.16-.14.3-.26.43-.34.38-.79.6-1.25.78-.38.14-.77.24-1.16.32-.18.04-.36.05-.54.08-.46.09-.93.08-1.4.07-.17,0-.35,0-.52-.02-.11,0-.24-.02-.35-.05-.13-.03-.27-.04-.42-.06-.21-.03-.42-.06-.62-.11-.23-.07-.46-.12-.68-.2-.42-.15-.8-.33-1.15-.62-.18-.15-.32-.33-.42-.55-.09-.19-.09-.39-.09-.59,0-.13,0-.12-.13-.1-.14.02-.28.04-.44.06-.17.02-.34.03-.5.06h-.13c-.32.03-.64,0-.97,0-.16,0-.31-.03-.47-.04-.18,0-.35-.05-.53-.07-.23-.03-.44-.08-.66-.13-.09-.03-.2-.05-.29-.08-.33-.1-.66-.22-.97-.38-.24-.12-.46-.27-.65-.47-.17-.18-.29-.38-.35-.62,0-.06-.02-.12-.02-.19V2.09c0-.13,0-.26.05-.38.06-.19.16-.36.29-.5.05-.06.1-.1.15-.15.12-.12.27-.12.4,0,.06.13.03.24-.08.33-.09.08-.16.16-.22.26-.15.26-.15.42.02.68.17.25.42.4.67.53.27.14.56.25.85.33s.59.15.89.2c.13.02.26.04.4.05.17.02.35.05.52.05h.44c.24,0,.47,0,.71,0,.26-.02.53-.06.79-.09.33-.05.65-.11.97-.22.38-.11.75-.26,1.08-.47.16-.1.31-.23.42-.39.09-.14.11-.28.09-.44-.03-.19-.13-.34-.28-.46-.27-.23-.6-.39-.93-.51-.27-.09-.55-.18-.83-.25-.19-.04-.38-.09-.56-.1-.19-.03-.38-.05-.58-.07s-.41-.03-.61-.04c-.21,0-.42,0-.62,0-.09,0-.18.02-.26.02-.2,0-.41.04-.61.07-.2.03-.41.07-.61.11-.07.02-.13,0-.19,0-.09-.02-.11-.09-.16-.15l-.02.04Zm4.4,6.82v1.25c0,.11.04.22.09.31.19.31.5.5.81.66.11.06.24.1.37.14.08.02.16.07.25.09.27.09.55.18.84.21.13.02.26.06.39.06.07,0,.14,0,.21,0,.32.06.65.05,1,.08.25.02.49,0,.74-.03.27-.04.54-.06.82-.11.32-.06.63-.12.95-.22.37-.11.72-.26,1.04-.48.26-.19.46-.42.47-.77v-1.21s-.03,0-.05.02c-.16.12-.31.25-.49.33-.26.13-.53.26-.81.35-.31.09-.62.17-.94.23-.2.04-.41.07-.61.09-.21.02-.43.05-.63.05h-.82c-.06,0-.11-.02-.16-.05-.09-.05-.13-.19-.11-.25.04-.1.13-.18.26-.18.31-.01.62,0,.94,0l.23-.02c.4-.04.8-.1,1.19-.18.45-.1.9-.25,1.31-.47.22-.12.42-.26.58-.46.15-.2.17-.42.08-.65-.05-.11-.11-.21-.21-.27-.11-.08-.22-.17-.35-.24-.29-.16-.6-.29-.92-.39-.33-.1-.67-.18-1.02-.23-.23-.04-.45-.06-.69-.09-.19-.02-.39-.02-.59-.03-.26-.02-.5,0-.75.03-.13,0-.26,0-.39.03-.11.03-.24,0-.36.04-.19.05-.38.07-.57.1-.3.07-.6.14-.89.26-.15.06-.29.12-.44.2-.24.13-.46.26-.62.49-.09.13-.16.28-.12.45.04.17.13.3.25.42.21.22.46.35.74.47.2.09.41.17.62.24.02,0,.05.02.07.03.1.07.12.16.09.27-.04.12-.18.18-.26.16-.21-.06-.42-.11-.61-.21-.31-.16-.63-.31-.9-.54h-.02Zm0,4.43v1.29c0,.07.02.13.05.2.11.26.32.43.55.59.23.15.48.25.73.35.12.05.25.08.36.12.26.09.55.13.82.18.16.03.32.04.47.06.26.03.54.04.8.05h.6c.34-.02.69-.05,1.03-.1.39-.06.78-.15,1.15-.27.52-.16,1-.41,1.41-.87v-3.67s.02-.07-.02-.09c-.04,0-.07.02-.09.04-.06.05-.11.1-.18.14-.17.09-.34.2-.51.28-.23.11-.47.2-.72.26-.11.03-.24.06-.35.09-.12.04-.25.04-.37.07-.27.08-.56.09-.84.11-.2.02-.4.03-.6.02-.12,0-.24,0-.36,0-.28,0-.58,0-.86-.03-.12,0-.24,0-.36-.03-.25-.04-.5-.08-.75-.13-.32-.08-.63-.15-.94-.27-.32-.13-.62-.3-.9-.5-.05-.04-.09-.08-.14-.09v1.33s0,.05.02.08c.08.2.2.37.37.5.16.12.33.24.51.32.23.1.46.2.71.27.25.08.48.13.74.18.22.05.44.07.64.09.25.03.49.04.74.05.36.02.71,0,1.06-.03.23-.02.44-.06.67-.09.44-.07.86-.17,1.27-.31.14-.05.27-.12.42-.17.09-.03.16,0,.22.06s.09.12.07.21c-.03.09-.09.16-.19.21-.13.06-.26.11-.4.16-.31.11-.62.2-.95.26-.31.07-.62.1-.94.14-.21.02-.42.04-.62.04-.32,0-.64,0-.97,0-.11,0-.22-.02-.33-.02-.07,0-.14,0-.21-.02-.12,0-.25-.05-.37-.06-.17,0-.34-.06-.51-.09-.37-.09-.74-.18-1.09-.35-.2-.1-.4-.2-.59-.32-.09-.07-.18-.13-.27-.2v-.02Zm-.47-.38h0v-.79c0-.07-.03-.08-.08-.07-.36.07-.73.11-1.1.11h-.2c-.32.02-.65,0-.97,0-.22,0-.44-.05-.65-.07-.24-.03-.47-.07-.7-.12-.27-.07-.54-.14-.8-.23-.31-.1-.6-.27-.87-.45-.07-.05-.12-.11-.2-.15-.02,0-.04-.03-.06-.02s0,.04,0,.06c0,.05.02.09.02.13v1.08c0,.07,0,.13.03.19.09.22.24.39.43.51.21.13.43.26.65.35.21.09.43.16.64.23s.44.1.66.14c.15.02.3.06.46.07h.11c.08.03.15.02.22.03.19.03.38.02.58.02h.48c.16,0,.33,0,.49-.02.26-.03.5-.07.76-.1.09,0,.1-.03.1-.12,0-.26,0-.51,0-.77Z"/>
      <path class="cls-4" d="m3.87,0c-.02.08-.08.04-.11.04V0h.11Z"/>
      <path class="cls-5" d="m1.83.62c.05.17-.08.3-.22.32-.09,0-.2-.06-.24-.17,0-.19.09-.3.26-.29.09,0,.15.07.2.14h0Z"/>
      <path class="cls-5" d="m9.18,8.32c-.12,0-.23-.1-.23-.22s.12-.24.24-.24c.16,0,.24.11.24.22,0,.15-.09.24-.25.24Z"/>
    </g>
  </g>
</svg>