<svg viewBox="0 0 27 26" fill="none" xmlns="http://www.w3.org/2000/svg">
<rect x="0.851562" y="0.5" width="25" height="25.0001" rx="12.5" fill="#FFBE0E"/>
<rect x="0.851562" y="0.5" width="25" height="25.0001" rx="12.5" stroke="#FFFCF4"/>
<path d="M13.3516 14.9297C12.7993 14.9297 12.3516 14.4925 12.3516 13.9531V8.09375C12.3516 7.55439 12.7993 7.11719 13.3516 7.11719C13.9039 7.11719 14.3516 7.55439 14.3516 8.09375V13.9531C14.3516 14.4925 13.9039 14.9297 13.3516 14.9297Z" fill="#FFFCF4"/>
<path d="M13.3516 18.8828C13.9038 18.8828 14.3516 18.4351 14.3516 17.8828C14.3516 17.3305 13.9038 16.8828 13.3516 16.8828C12.7993 16.8828 12.3516 17.3305 12.3516 17.8828C12.3516 18.4351 12.7993 18.8828 13.3516 18.8828Z" fill="#FFFCF4"/>
</svg>
