<svg viewBox="0 0 28 28" fill="none" xmlns="http://www.w3.org/2000/svg">
<g opacity="0.3">
<path d="M13.999 5.19995C18.8591 5.19995 22.7987 9.13974 22.7988 13.9998C22.7988 18.8599 18.8591 22.7996 13.999 22.7996C9.13901 22.7995 5.19922 18.8598 5.19922 13.9998C5.19932 9.13981 9.13907 5.20006 13.999 5.19995Z" stroke="#D92D20" stroke-width="2"/>
</g>
<g opacity="0.1">
<path d="M13.999 1.69995C20.7921 1.69995 26.2987 7.20675 26.2988 13.9998C26.2988 20.7929 20.7921 26.2996 13.999 26.2996C7.20601 26.2995 1.69922 20.7928 1.69922 13.9998C1.69932 7.20681 7.20608 1.70006 13.999 1.69995Z" stroke="#D92D20" stroke-width="2"/>
</g>
<g clip-path="url(#clip0_3503_24357)">
<path d="M15.7513 12.2501L12.2513 15.7501M12.2513 12.2501L15.7513 15.7501M19.8346 14.0001C19.8346 17.2217 17.223 19.8334 14.0013 19.8334C10.7796 19.8334 8.16797 17.2217 8.16797 14.0001C8.16797 10.7784 10.7796 8.16675 14.0013 8.16675C17.223 8.16675 19.8346 10.7784 19.8346 14.0001Z" stroke="#D92D20" stroke-width="1.66667" stroke-linecap="round" stroke-linejoin="round"/>
</g>
<defs>
<clipPath id="clip0_3503_24357">
<rect width="14" height="14" fill="white" transform="translate(7 7)"/>
</clipPath>
</defs>
</svg>
