<svg width="10" height="10" viewBox="0 0 10 10" fill="none" xmlns="http://www.w3.org/2000/svg">
<path fill-rule="evenodd" clip-rule="evenodd" d="M1.9096 1.9096C2.23569 1.58352 2.76439 1.58352 3.09047 1.9096L5.00004 3.81917L6.90961 1.9096C7.23569 1.58352 7.76439 1.58352 8.09047 1.9096C8.41656 2.23569 8.41656 2.76439 8.09047 3.09047L6.18091 5.00004L8.09047 6.90961C8.41656 7.23569 8.41656 7.76439 8.09047 8.09047C7.76439 8.41656 7.23569 8.41656 6.90961 8.09047L5.00004 6.18091L3.09047 8.09047C2.76439 8.41656 2.23569 8.41656 1.9096 8.09047C1.58352 7.76439 1.58352 7.23569 1.9096 6.90961L3.81917 5.00004L1.9096 3.09047C1.58352 2.76439 1.58352 2.23569 1.9096 1.9096Z" fill="currentColor"/>
</svg>