<svg viewBox="0 0 17 15" fill="none" xmlns="http://www.w3.org/2000/svg">
<path d="M10.8333 15H5.83333V5.83333H10.8333V15ZM12.5 15V5.83333H16.6667V14.1667C16.6667 14.3877 16.5788 14.5997 16.4226 14.7559C16.2663 14.9122 16.0543 15 15.8333 15H12.5ZM4.16667 15H0.833333C0.612317 15 0.400358 14.9122 0.244075 14.7559C0.0878001 14.5997 0 14.3877 0 14.1667V5.83333H4.16667V15ZM16.6667 4.16667H0V0.833333C0 0.612317 0.0878001 0.400358 0.244075 0.244075C0.400358 0.0878001 0.612317 0 0.833333 0H15.8333C16.0543 0 16.2663 0.0878001 16.4226 0.244075C16.5788 0.400358 16.6667 0.612317 16.6667 0.833333V4.16667Z" fill="#2263D4"/>
</svg>
