<svg id="Layer_2" data-name="Layer 2" xmlns="http://www.w3.org/2000/svg" xmlns:xlink="http://www.w3.org/1999/xlink" viewBox="0 0 16 16">
  <defs>
    <style>
      .cls-1 {
        fill: none;
      }

      .cls-2 {
        clip-path: url(#clippath);
      }

      .cls-3 {
        fill: #7147e8;
      }

      .cls-4 {
        opacity: .5;
      }
    </style>
    <clipPath id="clippath">
      <rect class="cls-1" x=".5" y=".5" width="15" height="15"/>
    </clipPath>
  </defs>
  <g class="cls-2">
    <g>
      <g class="cls-4">
        <path class="cls-3" d="m8.03.9c1.28,0,2.52.34,3.61.98l-1.7,1.26-1.52,1.13v-1.4h-.4c-1.15.02-2.27.42-3.16,1.14-1.07.86-1.74,2.08-1.89,3.45-.13,1.22.17,2.43.86,3.43l-1.65,1.21c-.81-1.16-1.26-2.56-1.28-3.98-.03-1.9.69-3.7,2.02-5.07C4.25,1.69,6.03.93,7.93.9h.1m0-.4s-.07,0-.11,0C3.77.56.45,3.97.5,8.13c.02,1.65.58,3.24,1.6,4.54l2.29-1.68c-1.64-2.04-1.32-5.02.72-6.65.83-.67,1.85-1.03,2.92-1.05v1.79l2.16-1.61,2.16-1.61c-1.26-.89-2.77-1.36-4.31-1.36h0Z"/>
      </g>
      <path class="cls-3" d="m13.82,3.89c1.71,2.45,1.73,5.68,0,8.16-1.33,1.91-3.52,3.04-5.85,3.04-1.28,0-2.51-.34-3.61-.98l3.21-2.39v1.4h.4c1.15-.02,2.27-.42,3.16-1.14,1.07-.86,1.74-2.08,1.88-3.45.13-1.22-.17-2.43-.86-3.43l1.65-1.21m.08-.56h0s0,0,0,0h0Zm0,0l-2.29,1.68c1.64,2.04,1.32,5.01-.72,6.65-.83.67-1.86,1.03-2.92,1.05v-1.79l-4.32,3.21c1.31.92,2.82,1.36,4.31,1.36,2.37,0,4.71-1.12,6.18-3.21,1.9-2.71,1.8-6.34-.24-8.95h0Z"/>
    </g>
  </g>
</svg>