<svg width="16" height="16" viewBox="0 0 16 16" fill="none" xmlns="http://www.w3.org/2000/svg">
<g id="fi_1828778">
<path id="Vector" d="M9.09953 8.00009L13.7722 3.32729C14.0763 3.02334 14.0763 2.53191 13.7722 2.22796C13.4682 1.92401 12.9768 1.92401 12.6729 2.22796L8.00005 6.90076L3.3274 2.22796C3.02331 1.92401 2.53201 1.92401 2.22807 2.22796C1.92398 2.53191 1.92398 3.02334 2.22807 3.32729L6.90072 8.00009L2.22807 12.6729C1.92398 12.9768 1.92398 13.4683 2.22807 13.7722C2.37954 13.9238 2.57871 14 2.77773 14C2.97676 14 3.17578 13.9238 3.3274 13.7722L8.00005 9.09942L12.6729 13.7722C12.8245 13.9238 13.0235 14 13.2225 14C13.4215 14 13.6206 13.9238 13.7722 13.7722C14.0763 13.4683 14.0763 12.9768 13.7722 12.6729L9.09953 8.00009Z" fill="#757575"/>
</g>
</svg>
