<svg viewBox="0 0 89 89" fill="none" xmlns="http://www.w3.org/2000/svg">
<path d="M0 28C0 12.536 12.536 0 28 0H61C76.464 0 89 12.536 89 28V61C89 76.464 76.464 89 61 89H28C12.536 89 0 76.464 0 61V28Z" fill="#ECFDF3"/>
<path d="M50.0007 60H40.0007V41.6667H50.0007V60ZM53.334 60V41.6667H61.6673V58.3333C61.6673 58.7753 61.4917 59.1993 61.1792 59.5118C60.8667 59.8243 60.4427 60 60.0007 60H53.334ZM36.6673 60H30.0007C29.5586 60 29.1347 59.8243 28.8221 59.5118C28.5096 59.1993 28.334 58.7753 28.334 58.3333V41.6667H36.6673V60ZM61.6673 38.3333H28.334V31.6667C28.334 31.2246 28.5096 30.8007 28.8221 30.4882C29.1347 30.1756 29.5586 30 30.0007 30H60.0007C60.4427 30 60.8667 30.1756 61.1792 30.4882C61.4917 30.8007 61.6673 31.2246 61.6673 31.6667V38.3333Z" fill="#32D583"/>
</svg>
