<svg viewBox="0 0 28 28" fill="none" xmlns="http://www.w3.org/2000/svg">
<g opacity="0.3">
<path d="M13.999 5.19995C18.8591 5.19995 22.7987 9.13974 22.7988 13.9998C22.7988 18.8599 18.8591 22.7996 13.999 22.7996C9.13901 22.7995 5.19922 18.8598 5.19922 13.9998C5.19932 9.13981 9.13907 5.20006 13.999 5.19995Z" stroke="#B93815" stroke-width="2"/>
</g>
<g opacity="0.1">
<path d="M13.999 1.69995C20.7921 1.69995 26.2987 7.20675 26.2988 13.9998C26.2988 20.7929 20.7921 26.2996 13.999 26.2996C7.20601 26.2995 1.69922 20.7928 1.69922 13.9998C1.69932 7.20681 7.20608 1.70006 13.999 1.69995Z" stroke="#B93815" stroke-width="2"/>
</g>
<g clip-path="url(#clip0_3503_24363)">
<path d="M9.87714 9.87591L18.1255 18.1242M8.16797 11.9717V16.0285C8.16797 16.1712 8.16797 16.2425 8.18409 16.3096C8.19838 16.3692 8.22195 16.4261 8.25393 16.4782C8.29 16.5371 8.34045 16.5876 8.44134 16.6884L11.3129 19.56C11.4138 19.6609 11.4643 19.7114 11.5231 19.7475C11.5753 19.7794 11.6322 19.803 11.6918 19.8173C11.7589 19.8334 11.8302 19.8334 11.9729 19.8334H16.0297C16.1724 19.8334 16.2437 19.8334 16.3109 19.8173C16.3704 19.803 16.4273 19.7794 16.4795 19.7475C16.5383 19.7114 16.5888 19.6609 16.6897 19.56L19.5613 16.6884C19.6622 16.5876 19.7126 16.5371 19.7487 16.4782C19.7807 16.4261 19.8042 16.3692 19.8185 16.3096C19.8346 16.2425 19.8346 16.1712 19.8346 16.0285V11.9717C19.8346 11.829 19.8346 11.7577 19.8185 11.6905C19.8042 11.631 19.7807 11.5741 19.7487 11.5219C19.7126 11.463 19.6622 11.4126 19.5613 11.3117L16.6897 8.44012C16.5888 8.33923 16.5383 8.28878 16.4795 8.25271C16.4273 8.22072 16.3704 8.19716 16.3109 8.18287C16.2437 8.16675 16.1724 8.16675 16.0297 8.16675H11.9729C11.8302 8.16675 11.7589 8.16675 11.6918 8.18287C11.6322 8.19716 11.5753 8.22072 11.5231 8.25271C11.4643 8.28878 11.4138 8.33923 11.3129 8.44012L8.44134 11.3117C8.34045 11.4126 8.29 11.463 8.25393 11.5219C8.22195 11.5741 8.19838 11.631 8.18409 11.6905C8.16797 11.7577 8.16797 11.829 8.16797 11.9717Z" stroke="#B93815" stroke-width="1.66667" stroke-linecap="round" stroke-linejoin="round"/>
</g>
<defs>
<clipPath id="clip0_3503_24363">
<rect width="14" height="14" fill="white" transform="translate(7 7)"/>
</clipPath>
</defs>
</svg>
