<svg viewBox="0 0 28 28" fill="none" xmlns="http://www.w3.org/2000/svg">
<g opacity="0.3">
<path d="M13.999 5.19995C18.8591 5.19995 22.7987 9.13974 22.7988 13.9998C22.7988 18.8599 18.8591 22.7996 13.999 22.7996C9.13901 22.7995 5.19922 18.8598 5.19922 13.9998C5.19932 9.13981 9.13907 5.20006 13.999 5.19995Z" stroke="#175CD3" stroke-width="2"/>
</g>
<g opacity="0.1">
<path d="M13.999 1.69995C20.7921 1.69995 26.2987 7.20675 26.2988 13.9998C26.2988 20.7929 20.7921 26.2996 13.999 26.2996C7.20601 26.2995 1.69922 20.7928 1.69922 13.9998C1.69932 7.20681 7.20608 1.70006 13.999 1.69995Z" stroke="#175CD3" stroke-width="2"/>
</g>
<g clip-path="url(#clip0_3503_24387)">
<path d="M14 8.3125V9.77083M14 17.5V19.8333M10.3542 14H8.3125M19.3958 14H18.5208M17.7666 17.7666L17.3542 17.3542M17.8875 10.1592L17.0625 10.9842M9.87092 18.1291L11.5208 16.4792M9.99173 10.0384L11.2292 11.2758" stroke="#175CD3" stroke-width="1.5" stroke-linecap="round" stroke-linejoin="round"/>
</g>
<defs>
<clipPath id="clip0_3503_24387">
<rect width="14" height="14" fill="white" transform="translate(7 7)"/>
</clipPath>
</defs>
</svg>
