<svg width="20" height="20" viewBox="0 0 20 20" fill="none" xmlns="http://www.w3.org/2000/svg">
<g clip-path="url(#clip0_11810_75229)">
<path d="M1.42241 11.3802C1.49522 11.7177 1.28073 12.0502 0.943306 12.123C0.898853 12.1326 0.854556 12.1372 0.810845 12.1372C0.522798 12.1372 0.263736 11.9369 0.200532 11.6439C-0.664389 7.63563 1.33487 3.61059 4.91936 1.84199L3.2019 1.21188C2.87784 1.09301 2.71151 0.733947 2.83042 0.409885C2.94928 0.0858611 3.30838 -0.080467 3.63241 0.0384002L6.92374 1.2459C7.23096 1.3586 7.39924 1.68926 7.30952 2.00395L6.43299 5.07918C6.35471 5.35387 6.1044 5.53301 5.83225 5.53301C5.77553 5.53301 5.71788 5.52524 5.66061 5.50891C5.32866 5.4143 5.13624 5.06852 5.23088 4.73656L5.77686 2.82113C2.50967 4.25668 0.655454 7.82594 1.42241 11.3802ZM14.0253 15.3191C11.3619 17.8078 7.23393 18.0256 4.32026 15.8667L6.2121 15.3918C6.54686 15.3078 6.75014 14.9682 6.66612 14.6335C6.5821 14.2988 6.24276 14.0955 5.90776 14.1795L2.80627 14.958C2.48885 15.0377 2.28667 15.3487 2.34268 15.6711L2.9426 19.1253C2.99538 19.4291 3.25936 19.6434 3.55764 19.6434C3.59311 19.6434 3.62913 19.6404 3.66534 19.6341C4.00541 19.575 4.23323 19.2514 4.17413 18.9114L3.85409 17.0687C5.31491 18.0644 7.05506 18.6004 8.84397 18.6004C8.95467 18.6004 9.06573 18.5983 9.17674 18.5942C11.3085 18.5151 13.3335 17.6763 14.8787 16.2324C15.1309 15.9968 15.1444 15.6013 14.9087 15.3491C14.673 15.0968 14.2775 15.0834 14.0253 15.3191ZM19.9425 10.9501C19.7974 10.6369 19.4258 10.5005 19.1127 10.6457L17.5403 11.374C17.9336 9.23594 17.5326 7.04586 16.3992 5.17746C15.2136 3.22309 13.3463 1.82082 11.1412 1.22903C10.8079 1.13961 10.465 1.33727 10.3755 1.67067C10.2861 2.00406 10.4838 2.34688 10.8172 2.43633C14.7279 3.48586 17.1209 7.41449 16.2651 11.3803C16.2562 11.4215 16.2517 11.4625 16.2511 11.5031L15.1857 9.58817C15.0178 9.28653 14.6374 9.17809 14.3357 9.3459C14.034 9.51371 13.9256 9.89426 14.0934 10.1959L15.6481 12.9903C15.7617 13.1945 15.9742 13.3115 16.1946 13.3115C16.2827 13.3115 16.3721 13.2928 16.4569 13.2536L19.6381 11.78C19.9513 11.6348 20.0876 11.2633 19.9425 10.9501Z" fill="#F59E0B"/>
</g>
<defs>
<clipPath id="clip0_11810_75229">
<rect width="20" height="20" fill="white"/>
</clipPath>
</defs>
</svg>
