<svg viewBox="0 0 14 15" fill="none" xmlns="http://www.w3.org/2000/svg">
<g id="Outline / Security / Key">
<g id="Vector">
<path fill-rule="evenodd" clip-rule="evenodd" d="M9.14654 3.61983C8.19643 3.61983 7.42315 4.38738 7.42315 5.33797C7.42315 6.28856 8.19643 7.05611 9.14654 7.05611C10.0967 7.05611 10.8699 6.28856 10.8699 5.33797C10.8699 4.38738 10.0967 3.61983 9.14654 3.61983ZM8.29815 5.33797C8.29815 4.87401 8.6763 4.49483 9.14654 4.49483C9.61679 4.49483 9.99494 4.87401 9.99494 5.33797C9.99494 5.80194 9.61679 6.18111 9.14654 6.18111C8.6763 6.18111 8.29815 5.80194 8.29815 5.33797Z" fill="currentColor"/>
<path fill-rule="evenodd" clip-rule="evenodd" d="M5.55851 12.6791C5.75276 12.4083 5.81528 12.1334 5.81065 11.8887C6.03941 11.956 6.26576 11.9645 6.48255 11.9234C6.9308 11.8383 7.26248 11.555 7.43845 11.3213L7.44152 11.3172L7.44448 11.3131C7.75085 10.8859 7.75023 10.4484 7.67522 10.1346C7.63846 9.9809 7.58389 9.85445 7.53862 9.76609C7.51576 9.72146 7.49461 9.68527 7.47812 9.65873C7.47374 9.6517 7.46968 9.64531 7.46598 9.6396C7.41422 9.54298 7.3558 9.46705 7.30671 9.40974L7.31197 9.40448L7.58271 9.13484C7.80534 9.24127 8.04681 9.30834 8.25834 9.35213C8.60001 9.42286 8.93431 9.44659 9.14642 9.44659C11.4222 9.44659 13.2702 7.60876 13.2702 5.33792C13.2702 3.06708 11.4222 1.22925 9.14642 1.22925C6.87064 1.22925 5.02269 3.06708 5.02269 5.33792C5.02269 5.87287 5.14445 6.33101 5.26445 6.65367C5.29499 6.73581 5.32565 6.80978 5.35456 6.87469L1.12233 11.0896C0.972753 11.2386 0.797284 11.4976 0.744251 11.8221C0.686733 12.174 0.781196 12.5651 1.12233 12.9049L1.63669 13.4171C1.64462 13.425 1.65285 13.4326 1.66136 13.4399C1.80993 13.5667 2.05947 13.7133 2.35935 13.7576C2.681 13.8052 3.05326 13.7311 3.36856 13.4171L3.69904 13.088C4.0099 13.2663 4.33849 13.3069 4.64234 13.2487C5.03642 13.1732 5.36419 12.9373 5.55247 12.6873L5.55554 12.6833L5.55851 12.6791ZM5.89769 5.33792C5.89769 3.5537 7.35051 2.10425 9.14642 2.10425C10.9423 2.10425 12.3952 3.5537 12.3952 5.33792C12.3952 7.12214 10.9423 8.57159 9.14642 8.57159C8.98706 8.57159 8.7127 8.55263 8.43571 8.4953C8.14581 8.43529 7.91824 8.34615 7.79703 8.24555C7.62343 8.10147 7.36874 8.11302 7.2089 8.27222L6.69452 8.78449C6.57684 8.90169 6.46371 9.03455 6.40402 9.18787C6.32844 9.38199 6.35252 9.56876 6.43901 9.72381C6.49028 9.81573 6.57285 9.90356 6.60723 9.94014L6.61877 9.95251C6.65944 9.9974 6.68172 10.0268 6.69798 10.0591L6.71341 10.0899L6.73102 10.1144L6.73498 10.1207C6.74026 10.1291 6.74924 10.1443 6.75987 10.165C6.78158 10.2074 6.80737 10.2677 6.8242 10.3381C6.85608 10.4714 6.85573 10.63 6.73648 10.7989C6.65445 10.9058 6.4991 11.0296 6.31948 11.0637C6.16924 11.0922 5.92431 11.0736 5.59744 10.7481C5.42673 10.5781 5.1507 10.5781 4.97999 10.7481L4.80854 10.9189C4.64704 11.0797 4.63622 11.3374 4.783 11.5111C4.78382 11.5121 4.78606 11.515 4.78945 11.5194C4.79647 11.5287 4.80799 11.5447 4.82165 11.5662C4.84967 11.6103 4.8826 11.6714 4.90599 11.7412C4.95007 11.8729 4.95699 12.0136 4.85058 12.1648C4.7806 12.2554 4.63862 12.3585 4.47775 12.3893C4.34104 12.4155 4.16601 12.3961 3.96864 12.1995C3.79794 12.0295 3.5219 12.0295 3.35119 12.1995L2.75111 12.7971C2.65492 12.8929 2.56998 12.9043 2.4873 12.892C2.38943 12.8776 2.29379 12.8255 2.2398 12.7829L1.73978 12.2849C1.60085 12.1465 1.5953 12.0397 1.60779 11.9632C1.62477 11.8594 1.68933 11.7599 1.73978 11.7096L6.19894 7.26867C6.34293 7.12527 6.36846 6.90129 6.26043 6.72917L6.25915 6.72705C6.25756 6.7244 6.25453 6.71929 6.25026 6.71182C6.24171 6.69686 6.22826 6.67256 6.2115 6.63973C6.1779 6.57392 6.13145 6.47474 6.08457 6.34867C5.99025 6.09504 5.89769 5.7421 5.89769 5.33792ZM4.783 11.5111C4.7838 11.5121 4.78461 11.513 4.78542 11.514L4.78475 11.5132L4.783 11.5111Z" fill="currentColor"/>
</g>
</g>
</svg>
