<svg viewBox="0 0 512 512" fill="none" xmlns="http://www.w3.org/2000/svg">
<path d="M64.5 5.9C56.6 7.9 48.9 15 46.9 22.2C45.3 28.2 46.4 36.2 49.5 41.6C58.9 57.6 84.3 55.9 91.5 38.7L93 35H140.3C186.7 35.1 187.4 35.1 183 36.9C127.9 58.8 84.9 107.8 69.9 165.5C66.7 178.1 64 195.2 64 203.4V209H57C45.9 209 46 208.8 46 232.8C46 250.8 46.2 252.8 47.8 254.3C49.4 255.8 52.5 256 70.2 256C88.1 256 90.9 255.8 92.1 254.3C93.2 253.1 93.5 248.1 93.5 232.3C93.5 208.3 93.8 209 82.8 209H76.1L76.6 202.2C81.1 146.2 110 96.5 156 65.8C177.5 51.5 201 42.3 228.3 37.6L232 36.9V43C232 53 232.1 53 256 53C279.9 53 280 53 280 43V36.9L283.8 37.5C293.4 39.1 312.6 44.4 322 48C369.1 66.3 406.5 104.5 424.4 152.2C430.2 167.7 433.5 183.2 435.5 203.2L436 209H429.2C418.2 209 418.5 208.2 418.5 232.3C418.5 248.1 418.8 253.1 419.9 254.3C421.1 255.8 423.9 256 442 256C460.8 256 462.8 255.8 464.3 254.2C465.8 252.6 466 249.6 466 232.7C466 208.9 466.1 209 455.2 209H448.3L447.7 199.1C446.4 178.5 439.6 152.8 430.1 132.5C409.7 89.4 372.5 54.2 329 36.9C324.6 35.1 325.3 35.1 371.7 35H419L420.5 38.7C427.7 55.9 453.1 57.6 462.5 41.6C467.7 32.7 466.8 21.1 460.3 13.9C448.6 0.899996 428.3 3.3 421 18.5L418.8 23H349.4H280V16.5C280 10.8 279.7 9.6 277.5 7.5C275.1 5 274.9 5 256 5C237.1 5 236.9 5 234.5 7.5C232.3 9.6 232 10.8 232 16.5V23H162.6H93.2L91 18.5C88.2 12.8 82.9 8.4 76.6 6.5C71.3 4.9 69.2 4.8 64.5 5.9ZM75 19.5C78.2 21.2 81 25.6 81 29C81 34.8 75.3 40 68.9 40C64.1 40 59 34.4 59 29.2C59 20.7 67.4 15.6 75 19.5ZM267 29V40H256H245V29V18H256H267V29ZM450.3 22C454.3 26.5 454.1 32.1 449.6 36.6C445.8 40.4 441.9 41 437 38.5C426.3 33 431.5 17.1 443.5 18.4C446.4 18.7 448.3 19.8 450.3 22ZM81 233V244H70H59V233V222H70H81V233ZM453 233V244H442H431V233V222H442H453V233Z" fill="currentColor"/>
<path d="M241.2 75.7C239.3 76.4 128 299.5 128 302.5C128 303.9 138.8 326.6 152 353L176 401H165.2C150.2 401 151 399.7 151 424.4C151 436.1 151.4 444.9 152 446.1C152.9 447.7 154.2 448 160.5 448H168V475V502.1L170.5 504.5C173.4 507.5 175 507.6 178.4 504.9L181 502.9V475.4V448H256H331V475.2C331 490.2 331.4 503 331.8 503.6C332.7 504.9 336.4 507 338 507C338.6 507 340.2 505.9 341.5 504.5L344 502.1V475V448H351.5C357.8 448 359.1 447.7 360 446.1C360.6 444.9 361 436 361 424.2C361 399.7 361.8 401 346.7 401H336L360 353C373.2 326.6 384 303.9 384 302.5C384 301.1 358.8 249.6 328 188C280.1 92.2 271.7 76 269.6 75.4C266.1 74.6 263.5 75.7 262.2 78.6C261.3 80.4 261 106.7 261 176.6V272.1L263.4 274.3C264.7 275.5 267.6 277.7 269.7 279.1C277.8 284.5 280.9 297.7 276.3 306.5C265.2 327.5 233.8 320.5 233.6 297C233.5 289.7 236.9 282.7 242.3 279.1C244.4 277.7 247.3 275.5 248.6 274.3L251 272.1V176.5C251 80.3 250.9 78 247.6 75.8C246.4 74.9 243.2 74.9 241.2 75.7ZM231.7 271.3C223.7 279.1 221 285.5 221 296.5C221 310.6 228.4 322.6 240.9 328.7C245.8 331.2 247.7 331.5 256 331.5C264.3 331.5 266.2 331.2 271.1 328.7C283.6 322.6 291 310.6 291 296.5C291 285.5 288.3 279.1 280.3 271.3L274 265L274.2 187.5L274.5 110L322.7 206.3L370.8 302.7L346.5 351.8L322.1 401H256.3H190.5L165.9 351.8L141.3 302.5L189.4 206.2L237.5 110L237.8 187.5L238 265L231.7 271.3ZM349 425V436H256H163V425V414H256H349V425Z" fill="currentColor"/>
</svg>
