<svg width="20" height="20" viewBox="0 0 20 20" fill="none" xmlns="http://www.w3.org/2000/svg">
<path fill-rule="evenodd" clip-rule="evenodd" d="M7.92063 1.92C8.29948 1.17081 9.06708 0.698486 9.90692 0.698486C10.7468 0.698486 11.5144 1.17081 11.8932 1.92C11.9959 2.12323 12.1758 2.27761 12.3924 2.34771C12.6084 2.41852 12.8449 2.3994 13.0475 2.29531C13.7938 1.9115 14.6931 1.9809 15.3722 2.47446C16.0513 2.96803 16.3955 3.80149 16.2609 4.6307C16.2248 4.85518 16.28 5.08532 16.4132 5.26943C16.547 5.45355 16.7495 5.57676 16.974 5.61217C17.8039 5.74034 18.4908 6.32525 18.7507 7.1233C19.0099 7.92207 18.7974 8.79873 18.2019 9.39001C18.0404 9.55076 17.9498 9.76886 17.9498 9.99688C17.9498 10.2249 18.0404 10.443 18.2019 10.6037C18.7974 11.195 19.0099 12.0717 18.7507 12.8704C18.4908 13.6685 17.8039 14.2534 16.974 14.3816C16.7495 14.417 16.547 14.5402 16.4132 14.7243C16.2793 14.9084 16.2248 15.1386 16.2609 15.363C16.3955 16.1923 16.0513 17.0257 15.3722 17.5193C14.6931 18.0128 13.7938 18.0822 13.0475 17.6984C12.8449 17.5943 12.6084 17.5752 12.3924 17.646C12.1758 17.7161 11.9959 17.8705 11.8932 18.0737C11.5144 18.8229 10.7468 19.2953 9.90692 19.2953C9.06708 19.2953 8.29948 18.8229 7.92063 18.0737C7.81796 17.8705 7.63808 17.7161 7.42139 17.646C7.20542 17.5752 6.96891 17.5943 6.76639 17.6984C6.02002 18.0822 5.12071 18.0128 4.44162 17.5193C3.76253 17.0257 3.41838 16.1923 3.55292 15.363C3.58903 15.1386 3.5338 14.9084 3.40067 14.7243C3.26684 14.5402 3.0643 14.417 2.83982 14.3816C2.0099 14.2534 1.32302 13.6685 1.06314 12.8704C0.803962 12.0717 1.01642 11.195 1.61195 10.6037C1.7734 10.443 1.86403 10.2249 1.86403 9.99688C1.86403 9.76886 1.7734 9.55076 1.61195 9.39001C1.01642 8.79873 0.803962 7.92207 1.06314 7.1233C1.32302 6.32525 2.0099 5.74034 2.83982 5.61217C3.0643 5.57676 3.26684 5.45355 3.40067 5.26943C3.53451 5.08532 3.58903 4.85518 3.55292 4.6307C3.41838 3.80149 3.76253 2.96803 4.44162 2.47446C5.12071 1.9809 6.02002 1.9115 6.76639 2.29531C6.96891 2.3994 7.20542 2.41852 7.42139 2.34771C7.63808 2.27761 7.81796 2.12323 7.92063 1.92ZM9.03592 2.48367C8.78312 2.98431 8.34055 3.36316 7.80804 3.53665C7.27483 3.70943 6.69416 3.6627 6.19564 3.40706C5.86848 3.23853 5.47406 3.26898 5.17594 3.48496C4.87782 3.70164 4.7277 4.06775 4.78648 4.43101C4.8757 4.98406 4.74045 5.55056 4.41117 6.00376C4.08189 6.45767 3.58478 6.76074 3.03103 6.84643C2.66706 6.90308 2.36539 7.15942 2.25209 7.50994C2.13808 7.85975 2.23155 8.24427 2.49285 8.50344C2.89011 8.89857 3.11389 9.43604 3.11389 9.99688C3.11389 10.5577 2.89011 11.0952 2.49285 11.4903C2.23155 11.7495 2.13808 12.134 2.25209 12.4838C2.36539 12.8343 2.66706 13.0907 3.03103 13.1473C3.58478 13.233 4.08189 13.5361 4.41117 13.99C4.74045 14.4432 4.8757 15.0097 4.78648 15.5627C4.7277 15.926 4.87782 16.2921 5.17594 16.5088C5.47406 16.7248 5.86848 16.7552 6.19564 16.5867C6.69416 16.3311 7.27483 16.2843 7.80804 16.4571C8.34055 16.6306 8.78312 17.0094 9.03592 17.5101C9.20162 17.8387 9.53869 18.0454 9.90692 18.0454C10.2751 18.0454 10.6122 17.8387 10.7779 17.5101C11.0307 17.0094 11.4733 16.6306 12.0058 16.4571C12.539 16.2843 13.1197 16.3311 13.6182 16.5867C13.9454 16.7552 14.3398 16.7248 14.6379 16.5088C14.936 16.2921 15.0861 15.926 15.0274 15.5627C14.9381 15.0097 15.0734 14.4432 15.4027 13.99C15.7319 13.5361 16.2291 13.233 16.7828 13.1473C17.1468 13.0907 17.4484 12.8343 17.5617 12.4838C17.6758 12.134 17.5823 11.7495 17.321 11.4903C16.9237 11.0952 16.7 10.5577 16.7 9.99688C16.7 9.43604 16.9237 8.89857 17.321 8.50344C17.5823 8.24427 17.6758 7.85975 17.5617 7.50994C17.4484 7.15942 17.1468 6.90308 16.7828 6.84643C16.2291 6.76074 15.7319 6.45767 15.4027 6.00376C15.0734 5.55056 14.9381 4.98406 15.0274 4.43101C15.0861 4.06775 14.936 3.70164 14.6379 3.48496C14.3398 3.26898 13.9454 3.23853 13.6182 3.40706C13.1197 3.6627 12.539 3.70943 12.0058 3.53665C11.4733 3.36316 11.0307 2.98431 10.7779 2.48367C10.6122 2.1551 10.2751 1.94833 9.90692 1.94833C9.53869 1.94833 9.20162 2.1551 9.03592 2.48367ZM6.59573 9.74691C6.38825 9.47074 6.44419 9.07915 6.72036 8.87237C6.99653 8.6656 7.38811 8.72154 7.59488 8.997L9.03734 10.9203L12.9016 7.05603C13.1452 6.81173 13.5417 6.81173 13.7853 7.05603C14.0289 7.29963 14.0289 7.69547 13.7853 7.93977L9.41122 12.3132C9.28376 12.4413 9.10604 12.5072 8.92547 12.4944C8.7449 12.4817 8.57848 12.391 8.47014 12.2459L6.59573 9.74691Z" fill="#0950C5"/>
</svg>
