<svg xmlns="http://www.w3.org/2000/svg" width="16" height="16" viewBox="0 0 16 16" fill="none">
  <g clip-path="url(#clip0_725_17580)">
    <path d="M14.6673 7.38662V7.99995C14.6665 9.43756 14.201 10.8364 13.3402 11.9878C12.4794 13.1393 11.2695 13.9816 9.89089 14.3892C8.51227 14.7968 7.03882 14.7479 5.6903 14.2497C4.34177 13.7515 3.19042 12.8307 2.40796 11.6247C1.6255 10.4186 1.25385 8.99199 1.34844 7.55749C1.44303 6.12299 1.99879 4.7575 2.93284 3.66467C3.86689 2.57183 5.12917 1.81021 6.53144 1.49338C7.93371 1.17656 9.40083 1.32151 10.714 1.90662M14.6673 2.66662L8.00066 9.33995L6.00065 7.33995" stroke="#535862" stroke-width="2" stroke-linecap="round" stroke-linejoin="round"/>
  </g>
  <defs>
    <clipPath id="clip0_725_17580">
      <rect width="16" height="16" fill="white"/>
    </clipPath>
  </defs>
</svg>