<svg xmlns="http://www.w3.org/2000/svg" viewBox="0 0 18 14" fill="#7147e8"><path fill-rule="evenodd" d="M7.099 0h8.997C17.146 0 18 .843 18 1.88v5.005a1.89 1.89 0 0 1-1.6 1.855v2.077a.527.527 0 0 1-.533.527.538.538 0 0 1-.363-.14l-2.669-2.44H7.1c-1.05 0-1.904-.843-1.904-1.88V1.88C5.195.843 6.049 0 7.099 0Zm8.997 7.71c.461 0 .836-.37.836-.825V1.879a.831.831 0 0 0-.836-.825H7.1c-.461 0-.836.37-.836.825v5.006c0 .455.375.825.836.825h5.945c.135 0 .264.05.363.14l1.925 1.76V8.237a.53.53 0 0 1 .534-.527h.23Z" clip-rule="evenodd"/><path d="M4.148 4.134H1.904C.854 4.134 0 4.977 0 6.014V9.91c0 .854.579 1.576 1.37 1.804v1.758a.527.527 0 0 0 .534.527c.125 0 .249-.043.347-.127L4.71 11.79h4.506c1.05 0 1.904-.843 1.904-1.88v-.114h-1.068v.114a.831.831 0 0 1-.836.825H4.512a.538.538 0 0 0-.348.127l-1.726 1.463v-1.063a.53.53 0 0 0-.534-.527.831.831 0 0 1-.836-.825V6.013c0-.454.375-.825.836-.825h2.244V4.134Z"/></svg>