<svg viewBox="0 0 20 20" fill="none" xmlns="http://www.w3.org/2000/svg">
<path d="M0 10C0 4.47715 4.47715 0 10 0C15.5228 0 20 4.47715 20 10C20 15.5228 15.5228 20 10 20C4.47715 20 0 15.5228 0 10Z" fill="#079455"/>
<path fill-rule="evenodd" clip-rule="evenodd" d="M14.2468 6.15838L8.28017 11.9167L6.69684 10.2251C6.40518 9.95005 5.94684 9.93338 5.61351 10.1667C5.28851 10.4084 5.19684 10.8334 5.39684 11.1751L7.27184 14.2251C7.45518 14.5084 7.77184 14.6834 8.13017 14.6834C8.47184 14.6834 8.79684 14.5084 8.98018 14.2251C9.28018 13.8334 15.0052 7.00838 15.0052 7.00838C15.7552 6.24172 14.8468 5.56672 14.2468 6.15005V6.15838Z" fill="white"/>
</svg>
