<svg width="20" height="20" viewBox="0 0 20 20" fill="none" xmlns="http://www.w3.org/2000/svg">
<g clip-path="url(#clip0_11810_75229)">
<path d="M1.42204 11.5585C1.49485 11.8959 1.28036 12.2284 0.94294 12.3012C0.898487 12.3108 0.85419 12.3154 0.810479 12.3154C0.522432 12.3154 0.263369 12.1151 0.200166 11.8221C-0.664756 7.81385 1.3345 3.78881 4.91899 2.02022L3.20153 1.3901C2.87747 1.27123 2.71114 0.91217 2.83005 0.588107C2.94892 0.264084 3.30802 0.0977557 3.63204 0.216623L6.92337 1.42412C7.2306 1.53682 7.39888 1.86748 7.30915 2.18217L6.43263 5.2574C6.35435 5.53209 6.10403 5.71123 5.83189 5.71123C5.77517 5.71123 5.71751 5.70346 5.66024 5.68713C5.32829 5.59252 5.13587 5.24674 5.23052 4.91479L5.77649 2.99936C2.50931 4.4349 0.655088 8.00416 1.42204 11.5585ZM14.0249 15.4973C11.3615 17.986 7.23356 18.2038 4.31989 16.0449L6.21173 15.5701C6.54649 15.486 6.74978 15.1465 6.66575 14.8117C6.58173 14.477 6.24239 14.2737 5.90739 14.3577L2.80591 15.1362C2.48849 15.2159 2.2863 15.5269 2.34231 15.8494L2.94224 19.3035C2.99501 19.6074 3.25899 19.8217 3.55728 19.8217C3.59274 19.8217 3.62876 19.8186 3.66497 19.8123C4.00505 19.7533 4.23286 19.4297 4.17376 19.0896L3.85372 17.2469C5.31454 18.2426 7.0547 18.7786 8.8436 18.7786C8.95431 18.7786 9.06536 18.7765 9.17638 18.7724C11.3082 18.6933 13.3332 17.8545 14.8784 16.4106C15.1306 16.175 15.144 15.7795 14.9083 15.5273C14.6726 15.275 14.2771 15.2617 14.0249 15.4973ZM19.9422 11.1283C19.797 10.8151 19.4254 10.6788 19.1124 10.8239L17.54 11.5522C17.9332 9.41416 17.5322 7.22408 16.3988 5.35569C15.2133 3.40131 13.3459 1.99904 11.1408 1.40725C10.8075 1.31783 10.4647 1.51549 10.3752 1.84889C10.2857 2.18229 10.4834 2.5251 10.8168 2.61455C14.7275 3.66408 17.1205 7.59272 16.2647 11.5585C16.2558 11.5997 16.2514 11.6408 16.2508 11.6813L15.1853 9.76639C15.0175 9.46475 14.637 9.35631 14.3353 9.52412C14.0336 9.69194 13.9252 10.0725 14.093 10.3742L15.6477 13.1685C15.7614 13.3728 15.9738 13.4897 16.1942 13.4897C16.2823 13.4897 16.3717 13.471 16.4565 13.4318L19.6377 11.9583C19.9509 11.813 20.0872 11.4415 19.9422 11.1283Z" fill="#292929"/>
</g>
<defs>
<clipPath id="clip0_11810_75229">
<rect width="20" height="20" fill="white"/>
</clipPath>
</defs>
</svg>
