<svg width="118" height="98" viewBox="0 0 118 98" fill="none" xmlns="http://www.w3.org/2000/svg">
<path d="M0.5 96.5H118" stroke="#757575" stroke-width="2"/>
<path d="M61.2963 68.419C60.9128 68.1127 60.6965 68.0263 60.3071 68.0426C59.7469 68.07 59.1703 68.496 58.9774 69.0253C58.9207 69.1829 58.8893 69.8487 58.893 70.8991C58.8937 71.7905 58.8811 72.6067 58.8631 72.707C58.8156 72.9358 58.4884 73.2996 58.2395 73.3857C58.1408 73.4256 57.4776 73.4732 56.7663 73.499C55.3396 73.5467 55.1879 73.5133 54.8822 73.1162C54.7193 72.9081 54.7102 72.8448 54.6693 71.0797C54.6246 69.1078 54.6074 69.0369 54.1785 68.641C54.0532 68.5309 53.8439 68.3964 53.7117 68.3422C53.3833 68.2206 52.8078 68.2805 52.5052 68.4722C52.1792 68.6888 51.3178 69.6202 50.9735 70.1399C49.4806 72.391 49.4093 75.3943 50.7911 77.6326C51.1192 78.168 51.3346 78.4177 52.121 79.2205C53.3249 80.4475 53.3544 80.5378 53.3556 83.3749C53.3643 88.1099 53.3758 88.5114 53.4982 88.6813C53.8614 89.1795 54.5404 89.1232 54.8125 88.5747C54.8893 88.4282 54.9085 87.54 54.8933 84.8069C54.8846 82.8454 54.8517 81.08 54.8204 80.8943C54.7481 80.4278 54.5464 79.8473 54.3077 79.4116C54.1429 79.1081 53.9803 78.9159 53.2913 78.2205C52.7442 77.6663 52.3909 77.2713 52.2353 77.031C51.3227 75.6486 51.0922 73.9471 51.5916 72.3624C51.8168 71.6447 52.0856 71.132 52.54 70.5519C53.1536 69.7623 53.125 69.7197 53.1457 71.4737C53.155 72.8263 53.1752 73.0562 53.3048 73.397C53.5092 73.9097 53.8515 74.3491 54.2501 74.6149C54.8177 74.9852 55.1729 75.0539 56.5364 75.0327C57.8085 75.0113 58.2055 74.9788 58.601 74.8588C59.4075 74.6102 60.0317 73.9633 60.306 73.1043C60.4301 72.721 60.4451 72.4618 60.4331 71.177L60.4174 69.6933L60.7574 70.0134C62.0163 71.2063 62.5708 73.2205 62.1393 75.0332C61.8702 76.1706 61.5465 76.7253 60.541 77.8179C60.1395 78.2525 59.7423 78.7068 59.6611 78.8256C59.2468 79.4279 58.9524 80.2758 58.9025 81.0101C58.8494 81.7883 58.888 88.1297 58.9555 88.3338C59.1126 88.8724 59.8073 89.0184 60.205 88.5959C60.2867 88.501 60.3757 88.3659 60.3941 88.2896C60.4126 88.2132 60.4253 86.5453 60.4164 84.5759C60.4103 82.3279 60.4349 80.8744 60.4868 80.6733C60.6495 80.0139 60.8272 79.7359 61.6963 78.7883C62.5381 77.8697 62.7976 77.4967 63.157 76.7256C64.0782 74.7332 64.0398 72.4547 63.0417 70.5386C62.6374 69.7517 61.9986 68.9786 61.2963 68.419Z" fill="#757575"/>
<path d="M53.9995 81V88.5H59.9994V79.5C64.3994 73.9 63.5 71.5 59.9994 69L59.4994 74H53.9995L53.4995 69C49.0995 72.2 50.5 76.5 53.9995 81Z" fill="#757575" fill-opacity="0.5"/>
<path d="M41 29V38.2294C41 40.7348 41.9404 43.1489 43.6353 44.994L49.3621 51.2289C53.2407 55.4516 59.8684 55.555 63.8769 51.4554L70.1501 45.0397C71.977 43.1712 73 40.6618 73 38.0485V29" stroke="#757575" stroke-width="2" stroke-linecap="round"/>
<path d="M38 26L36.7812 26.8125C35.6684 27.5544 35 28.8033 35 30.1407V33.117C35 34.8387 36.1017 36.3672 37.7351 36.9117L41 38" stroke="#757575" stroke-width="2" stroke-linecap="round"/>
<path d="M47 49.5C47.5 52.5 47.8 58.6 45 59" stroke="#757575" stroke-width="2" stroke-linecap="round"/>
<path d="M66.3271 49.5C65.8271 52.5 65.5271 58.6 68.3271 59" stroke="#757575" stroke-width="2" stroke-linecap="round"/>
<path d="M21.0001 89C20.5001 84.8333 20.6001 75.4 25.0001 71" stroke="#757575" stroke-width="2" stroke-linecap="round"/>
<path d="M92.9999 89C93.4999 84.8333 93.3999 75.4 88.9999 71" stroke="#757575" stroke-width="2" stroke-linecap="round"/>
<path d="M25.9996 63.5L27.4996 89.5H87C87.5 81.3333 88.5 64.4 88.5 62C88.5 59.6 86.1667 58.6667 85 58.5H28.9996C26.1996 58.5 25.833 61.8333 25.9996 63.5Z" stroke="#757575" stroke-width="2" stroke-linecap="round"/>
<rect x="18" y="90" width="78" height="6" rx="3" stroke="#757575" stroke-width="2"/>
<path d="M76 26L77.2188 26.8125C78.3316 27.5544 79 28.8033 79 30.1407V33.117C79 34.8387 77.8983 36.3672 76.2649 36.9117L73 38" stroke="#757575" stroke-width="2" stroke-linecap="round"/>
<rect x="61" y="41" width="10" height="5" rx="2.5" fill="#D9D9D9" stroke="#757575" stroke-width="2"/>
<path d="M44.5722 6.24095C36.8746 9.41762 36.4176 19.2213 37.3537 25.1807C37.5338 26.3272 38.355 27.2493 39.4381 27.6659C41.7366 28.5499 44.2069 26.8533 44.2069 24.3907V21.1231C44.2069 18.5208 46.6524 16.6114 49.177 17.2425L57.4131 19.3015C57.9369 19.4325 58.4819 19.456 59.0152 19.3707L66.0751 18.2411C68.5054 17.8523 70.707 19.7296 70.707 22.1909V25.2292C70.707 27.2293 72.7742 28.5604 74.595 27.7327C75.5767 27.2865 76.207 26.3076 76.207 25.2292V16.3745C76.207 14.9108 75.4075 13.5639 74.1224 12.863L71.4128 11.385C70.947 11.1309 70.5363 10.7866 70.2048 10.3722L67.908 7.50122C67.1489 6.55236 65.9997 6 64.7845 6H45.8827C45.4353 6 44.9857 6.07029 44.5722 6.24095Z" stroke="#757575" stroke-width="2" stroke-linecap="round"/>
<path d="M90.1861 23.8198C90.1484 26.5836 90.0784 30.1328 90.1384 31.204C90.1517 31.4421 90.2719 31.3991 90.4009 31.1984L94.707 24.5L98.0261 19.337C98.7621 18.1921 100.03 17.5 101.391 17.5H111.707C113.916 17.5 115.707 15.7091 115.707 13.5V5C115.707 2.79086 113.916 1 111.707 1H87.207C84.9979 1 83.207 2.79086 83.207 5V15.1787C83.207 16.6141 83.9762 17.9395 85.2225 18.6517L88.1916 20.3483C89.4379 21.0605 90.2056 22.3845 90.1861 23.8198Z" stroke="#757575" stroke-width="2" stroke-linecap="round"/>
<path d="M78 36.5V40C78 42.2091 76.2091 44 74 44H70.5" stroke="#757575" stroke-width="2" stroke-linecap="round"/>
<path d="M88 7L93 7" stroke="#757575" stroke-opacity="0.3" stroke-width="2" stroke-linecap="round"/>
<path d="M96 7H111" stroke="#757575" stroke-opacity="0.3" stroke-width="2" stroke-linecap="round"/>
<path d="M88 12L111 12" stroke="#757575" stroke-opacity="0.3" stroke-width="2" stroke-linecap="round"/>
</svg>