
<svg viewBox="0 0 24 24" fill="none" xmlns="http://www.w3.org/2000/svg">
<path fill-rule="evenodd" clip-rule="evenodd" d="M2.00485 1.94124C2.57309 1.40666 3.36968 1.25 4.23 1.25H8.27C9.13032 1.25 9.92691 1.40666 10.4952 1.94124C11.0749 2.48664 11.25 3.26514 11.25 4.1V19.9C11.25 20.7349 11.0749 21.5134 10.4952 22.0588C9.92691 22.5933 9.13032 22.75 8.27 22.75H4.23C3.36968 22.75 2.57309 22.5933 2.00485 22.0588C1.4251 21.5134 1.25 20.7349 1.25 19.9V4.1C1.25 3.26514 1.4251 2.48664 2.00485 1.94124ZM3.03265 3.03376C2.8949 3.16336 2.75 3.43486 2.75 4.1V19.9C2.75 20.5651 2.8949 20.8366 3.03265 20.9662C3.18191 21.1067 3.50032 21.25 4.23 21.25H8.27C8.99969 21.25 9.31809 21.1067 9.46735 20.9662C9.6051 20.8366 9.75 20.5651 9.75 19.9V4.1C9.75 3.43486 9.6051 3.16336 9.46735 3.03376C9.31809 2.89334 8.99969 2.75 8.27 2.75H4.23C3.50032 2.75 3.18191 2.89334 3.03265 3.03376Z" fill="currentColor"/>
<path fill-rule="evenodd" clip-rule="evenodd" d="M13.5048 1.94124C14.0731 1.40666 14.8697 1.25 15.73 1.25H19.77C20.6303 1.25 21.4269 1.40666 21.9952 1.94124C22.5749 2.48664 22.75 3.26514 22.75 4.1V19.9C22.75 20.7349 22.5749 21.5134 21.9952 22.0588C21.4269 22.5933 20.6303 22.75 19.77 22.75H15.73C14.8697 22.75 14.0731 22.5933 13.5048 22.0588C12.9251 21.5134 12.75 20.7349 12.75 19.9V4.1C12.75 3.26514 12.9251 2.48664 13.5048 1.94124ZM14.5327 3.03376C14.3949 3.16336 14.25 3.43486 14.25 4.1V19.9C14.25 20.5651 14.3949 20.8366 14.5327 20.9662C14.6819 21.1067 15.0003 21.25 15.73 21.25H19.77C20.4997 21.25 20.8181 21.1067 20.9673 20.9662C21.1051 20.8366 21.25 20.5651 21.25 19.9V4.1C21.25 3.43486 21.1051 3.16336 20.9673 3.03376C20.8181 2.89334 20.4997 2.75 19.77 2.75H15.73C15.0003 2.75 14.6819 2.89334 14.5327 3.03376Z" fill="currentColor"/>
</svg>
