<svg width="16" height="16" fill="none" xmlns="http://www.w3.org/2000/svg">
<path d="M4.53333 2H4.13333C3.3866 2 3.01323 2 2.72801 2.14532C2.47713 2.27316 2.27316 2.47713 2.14532 2.72801C2 3.01323 2 3.3866 2 4.13333V11.8667C2 12.6134 2 12.9868 2.14532 13.272C2.27316 13.5229 2.47713 13.7268 2.72801 13.8547C3.01323 14 3.3866 14 4.13333 14H4.53333C5.28007 14 5.65344 14 5.93865 13.8547C6.18954 13.7268 6.39351 13.5229 6.52134 13.272C6.66667 12.9868 6.66667 12.6134 6.66667 11.8667V4.13333C6.66667 3.3866 6.66667 3.01323 6.52134 2.72801C6.39351 2.47713 6.18954 2.27316 5.93865 2.14532C5.65344 2 5.28007 2 4.53333 2Z" stroke="currentColor" stroke-width="1.5" stroke-linecap="round" stroke-linejoin="round"/>
<path d="M11.8667 2H11.4667C10.7199 2 10.3466 2 10.0613 2.14532C9.81046 2.27316 9.60649 2.47713 9.47866 2.72801C9.33333 3.01323 9.33333 3.3866 9.33333 4.13333V11.8667C9.33333 12.6134 9.33333 12.9868 9.47866 13.272C9.60649 13.5229 9.81046 13.7268 10.0613 13.8547C10.3466 14 10.7199 14 11.4667 14H11.8667C12.6134 14 12.9868 14 13.272 13.8547C13.5229 13.7268 13.7268 13.5229 13.8547 13.272C14 12.9868 14 12.6134 14 11.8667V4.13333C14 3.3866 14 3.01323 13.8547 2.72801C13.7268 2.47713 13.5229 2.27316 13.272 2.14532C12.9868 2 12.6134 2 11.8667 2Z" stroke="currentColor" stroke-width="1.5" stroke-linecap="round" stroke-linejoin="round"/>
</svg>
