<svg viewBox="0 0 36 36" fill="none" xmlns="http://www.w3.org/2000/svg">
<path d="M26.4905 23.3199L24.0161 20.8342C23.9592 20.7763 23.8902 20.7316 23.8141 20.7033C23.738 20.675 23.6565 20.6637 23.5756 20.6703C23.4946 20.6763 23.4159 20.6999 23.3449 20.7392C23.2739 20.7786 23.2122 20.8328 23.1641 20.8982C22.5289 21.7609 21.7619 22.5184 20.8914 23.1428C20.8252 23.1904 20.7703 23.2519 20.7302 23.3229C20.6902 23.3938 20.6661 23.4727 20.6595 23.5539C20.653 23.6352 20.6642 23.7168 20.6923 23.7933C20.7204 23.8698 20.7648 23.9393 20.8224 23.9969L23.3171 26.4917C23.3693 26.5439 23.4313 26.5853 23.4996 26.6136C23.5678 26.6419 23.641 26.6565 23.7148 26.6565C23.7887 26.6565 23.8618 26.6419 23.9301 26.6136C23.9983 26.5853 24.0603 26.5439 24.1125 26.4917L26.4897 24.1145C26.5951 24.0092 26.6543 23.8664 26.6545 23.7174C26.6546 23.5684 26.5957 23.4255 26.4905 23.3199Z" fill="#35198E"/>
<path d="M14.2734 27.2109C21.4186 27.2109 27.2109 21.4186 27.2109 14.2734C27.2109 7.12825 21.4186 1.33594 14.2734 1.33594C7.12825 1.33594 1.33594 7.12825 1.33594 14.2734C1.33594 21.4186 7.12825 27.2109 14.2734 27.2109Z" fill="#0968DA"/>
<path d="M14.2734 24.9609C20.176 24.9609 24.9609 20.176 24.9609 14.2734C24.9609 8.37089 20.176 3.58594 14.2734 3.58594C8.37089 3.58594 3.58594 8.37089 3.58594 14.2734C3.58594 20.176 8.37089 24.9609 14.2734 24.9609Z" fill="#EEEEEE"/>
<path d="M33.6515 28.8819L28.4794 23.7156L23.7135 28.482L28.8795 33.6541C29.192 33.9689 29.5639 34.2185 29.9735 34.3885C30.3832 34.5585 30.8225 34.6455 31.2661 34.6445H31.2677C31.9353 34.6445 32.5879 34.4464 33.143 34.0753C33.698 33.7042 34.1304 33.1769 34.3856 32.5599C34.6408 31.943 34.7073 31.2642 34.5766 30.6095C34.4459 29.9548 34.124 29.3536 33.6515 28.8819Z" fill="#0968DA"/>
<path d="M28.0805 23.3175C27.7636 23.002 27.3346 22.8247 26.8875 22.825C26.4403 22.8252 26.0115 23.0027 25.695 23.3186L23.3154 25.6977C22.9998 26.0143 22.8225 26.4432 22.8224 26.8903C22.8223 27.3374 22.9994 27.7663 23.3148 28.0831L24.5082 29.2781L29.2752 24.5109L28.0805 23.3175Z" fill="#35198E"/>
<path d="M21.0234 12.5859H20.2275C20.0963 12.1231 19.911 11.6774 19.6754 11.258L20.2393 10.6938C20.4492 10.4822 20.567 10.1963 20.567 9.89833C20.5671 9.60032 20.4494 9.31437 20.2396 9.10272L19.4442 8.30731C19.2331 8.0964 18.947 7.97793 18.6486 7.97793C18.3503 7.97793 18.0641 8.0964 17.8531 8.30731L17.2889 8.87146C16.8695 8.63595 16.4237 8.45064 15.9609 8.31937V7.52344C15.9606 7.22516 15.842 6.93919 15.6311 6.72827C15.4202 6.51736 15.1342 6.39874 14.8359 6.39844H13.7109C13.4127 6.39874 13.1267 6.51736 12.9158 6.72827C12.7049 6.93919 12.5862 7.22516 12.5859 7.52344V8.31937C12.1231 8.45059 11.6774 8.63589 11.258 8.87143L10.6938 8.30756C10.4796 8.10273 10.1947 7.9884 9.89833 7.98834C9.60196 7.98829 9.31699 8.10253 9.10272 8.30729L8.30731 9.1027C8.09757 9.3143 7.9799 9.60018 7.9799 9.89811C7.9799 10.196 8.09757 10.4819 8.30731 10.6935L8.87146 11.2579C8.6359 11.6774 8.45059 12.1231 8.31937 12.5859H7.52344C7.22516 12.5862 6.93919 12.7049 6.72827 12.9158C6.51736 13.1267 6.39874 13.4127 6.39844 13.7109V14.8359C6.39874 15.1342 6.51736 15.4202 6.72827 15.6311C6.93919 15.842 7.22516 15.9606 7.52344 15.9609H8.31937C8.45059 16.4237 8.63589 16.8695 8.87143 17.2889L8.30756 17.8531C8.09769 18.0646 7.97991 18.3505 7.97986 18.6485C7.97981 18.9466 8.09749 19.2325 8.30729 19.4442L9.1027 20.2396C9.31694 20.4442 9.60182 20.5584 9.89811 20.5584C10.1944 20.5584 10.4793 20.4442 10.6935 20.2396L11.2579 19.6754C11.6774 19.911 12.1231 20.0963 12.5859 20.2275V21.0234C12.5862 21.3217 12.7049 21.6077 12.9158 21.8186C13.1267 22.0295 13.4127 22.1481 13.7109 22.1484H14.8359C15.1342 22.1481 15.4202 22.0295 15.6311 21.8186C15.842 21.6077 15.9606 21.3217 15.9609 21.0234V20.2275C16.4237 20.0962 16.8695 19.9109 17.2889 19.6754L17.8531 20.2396C18.0641 20.4505 18.3502 20.569 18.6486 20.569C18.947 20.569 19.2331 20.4505 19.4442 20.2396L20.2396 19.4442C20.4493 19.2326 20.567 18.9467 20.567 18.6488C20.567 18.3508 20.4493 18.065 20.2396 17.8534L19.6754 17.2889C19.911 16.8695 20.0963 16.4238 20.2275 15.9609H21.0234C21.3217 15.9606 21.6077 15.842 21.8186 15.6311C22.0295 15.4202 22.1481 15.1342 22.1484 14.8359V13.7109C22.1481 13.4127 22.0295 13.1267 21.8186 12.9158C21.6077 12.7049 21.3217 12.5862 21.0234 12.5859Z" fill="#78909C"/>
<path d="M14.2734 17.6484C16.1374 17.6484 17.6484 16.1374 17.6484 14.2734C17.6484 12.4095 16.1374 10.8984 14.2734 10.8984C12.4095 10.8984 10.8984 12.4095 10.8984 14.2734C10.8984 16.1374 12.4095 17.6484 14.2734 17.6484Z" fill="#EEEEEE"/>
</svg>