<svg viewBox="0 0 24 22" fill="none" xmlns="http://www.w3.org/2000/svg">
<path d="M11.4951 1.71393C11.7017 1.29539 12.2985 1.29539 12.5051 1.71393L15.1791 7.13206C15.2611 7.29826 15.4196 7.41346 15.6031 7.44012L21.5823 8.30895C22.0442 8.37607 22.2286 8.94369 21.8944 9.26948L17.5678 13.4869C17.4351 13.6163 17.3745 13.8027 17.4058 13.9854L18.4272 19.9404C18.5061 20.4005 18.0233 20.7513 17.6101 20.5341L12.2621 17.7225C12.0981 17.6362 11.9021 17.6362 11.738 17.7225L6.39002 20.5341C5.97689 20.7513 5.49404 20.4005 5.57294 19.9404L6.59432 13.9854C6.62565 13.8027 6.56509 13.6163 6.43236 13.4869L2.10573 9.26948C1.7715 8.94369 1.95594 8.37607 2.41783 8.30895L8.39708 7.44012C8.5805 7.41346 8.73906 7.29826 8.82109 7.13206L11.4951 1.71393Z" stroke="#535862" stroke-width="2" stroke-linejoin="round"/>
</svg>
