<svg viewBox="0 0 22 22" fill="none" xmlns="http://www.w3.org/2000/svg">
<path fill-rule="evenodd" clip-rule="evenodd" d="M13.2781 0.241218C10.9215 0.417908 9.09258 0.950138 8.34046 1.67785C7.9387 2.06665 7.94431 2.04138 7.91991 3.56571L7.89895 4.88873L6.65435 4.91681C5.38901 4.94554 4.94166 4.98161 3.99104 5.13173C1.98999 5.44774 0.636952 6.06918 0.299124 6.82757L0.200195 7.04962L0.201707 13.3336C0.203219 20.083 0.192851 19.7573 0.416198 20.1067C0.541911 20.3037 0.941084 20.6217 1.29598 20.8077C2.50041 21.4395 4.62393 21.7996 7.1477 21.8002C10.8385 21.8013 13.4884 21.0617 13.9982 19.8884C14.0699 19.7233 14.0777 19.5827 14.0786 18.423L14.0794 17.14L15.229 17.1125C16.811 17.0745 17.9472 16.9417 19.0998 16.6596C20.1683 16.3982 21.0062 16.0103 21.4194 15.5862C21.8138 15.1815 21.8 15.2934 21.8 12.494C21.8 10.121 21.7987 10.0803 21.7125 9.96608C21.6492 9.88184 21.5862 9.84987 21.4836 9.84987C21.2501 9.84987 21.1671 10.005 21.1671 10.4432C21.1671 10.7932 21.1628 10.8098 21.017 10.9876C20.8312 11.2146 20.1973 11.5567 19.613 11.7451C18.3809 12.1427 16.7265 12.3635 14.9776 12.3635H14.0784L14.1004 8.94936L14.4801 8.96124C14.9983 8.97744 16.5952 8.89147 17.2646 8.81133C18.9965 8.60397 20.4074 8.19897 21.0511 7.72441L21.1671 7.63887V8.17391C21.1671 8.46832 21.1855 8.7448 21.2077 8.78844C21.2302 8.83185 21.3041 8.89168 21.3721 8.92128C21.4741 8.96534 21.5183 8.96275 21.6218 8.90681C21.6909 8.86944 21.7594 8.8068 21.7739 8.76748C21.7881 8.72817 21.8 7.28225 21.8 5.55445C21.8 1.93576 21.8207 2.14485 21.4229 1.73552C20.9079 1.20589 20.0519 0.840409 18.6325 0.544701C17.5268 0.314443 15.5644 0.132137 15.4262 0.246834C15.2385 0.402788 15.2471 0.699359 15.4424 0.801528C15.4936 0.828313 15.8485 0.871081 16.2315 0.896785C18.7472 1.0657 20.8535 1.71068 21.1246 2.39498C21.3952 3.07776 19.4719 3.84025 16.7589 4.12537C16.0444 4.20054 13.6919 4.19946 12.9616 4.12343C10.8241 3.90138 9.20102 3.40803 8.69665 2.82698C8.5124 2.61465 8.50808 2.45395 8.68088 2.2481C9.23687 1.58605 11.1152 1.05792 13.4891 0.896137C14.2853 0.841921 14.3872 0.801744 14.4093 0.534765C14.4194 0.409052 14.3998 0.360667 14.3084 0.285499C14.1827 0.182033 14.1086 0.179009 13.2781 0.241218ZM9.89223 4.19838C10.7586 4.48437 11.5939 4.64659 12.9195 4.78634C13.741 4.87317 16.1563 4.85957 17.0119 4.76345C18.0735 4.64421 18.9861 4.46752 19.7119 4.24115C20.1074 4.1176 20.733 3.84565 20.9485 3.70331C21.0449 3.6398 21.1334 3.58774 21.1455 3.58774C21.1576 3.58774 21.1673 4.29278 21.1673 5.15419V6.72086L20.9967 6.9144C20.4874 7.49199 18.8959 7.98145 16.843 8.19184C16.0582 8.27219 14.5391 8.32878 14.2758 8.28774L14.0796 8.25685V7.62872C14.0796 7.04141 14.0725 6.98589 13.9704 6.77162C13.6895 6.18258 12.813 5.70133 11.3941 5.35702C10.6301 5.17169 9.47383 4.99154 8.74266 4.94381L8.57396 4.93301L8.55063 3.59941L8.9524 3.80979C9.17337 3.92579 9.5963 4.10075 9.89223 4.19838ZM8.78478 5.62098C11.3308 5.80998 13.4446 6.5459 13.4465 7.2438C13.4474 7.62613 12.6931 8.06936 11.485 8.39596C8.72452 9.14203 4.70903 9.07053 2.24552 8.2318C1.39447 7.94214 0.832219 7.53541 0.832219 7.20989C0.832219 7.15805 0.901339 7.03579 0.986012 6.93794C1.7148 6.09488 4.579 5.49505 7.56134 5.56093C7.88621 5.56805 8.4368 5.59506 8.78478 5.62098ZM1.40117 8.59684C3.32726 9.52695 7.28313 9.83108 10.4931 9.29561C11.6632 9.10056 12.4177 8.84762 13.4154 8.31582C13.4327 8.30653 13.447 9.00552 13.447 9.8691V11.4394L13.2785 11.6306C12.5802 12.4225 10.0473 12.9808 7.15483 12.9808C4.26774 12.9808 1.80013 12.4441 1.03288 11.6492L0.832434 11.4416V8.25621L0.958364 8.35017C1.0277 8.40179 1.22707 8.51282 1.40117 8.59684ZM21.0855 14.9834C20.809 15.451 19.6484 15.9172 18.0668 16.1954C17.1186 16.3623 16.3317 16.4282 15.1979 16.4356L14.1008 16.4425L14.0788 13.0249H15.018C17.3607 13.024 19.5043 12.6307 20.761 11.9706L21.1466 11.7682L21.1576 13.3055C21.1682 14.7693 21.1647 14.8495 21.0855 14.9834ZM2.12132 12.9718C2.90671 13.232 3.699 13.3977 4.84014 13.5398C5.73223 13.6511 8.56856 13.6511 9.43884 13.5398C11.2345 13.3102 12.5722 12.9394 13.2729 12.4771L13.4468 12.3624V15.5534L13.2565 15.7441C12.6787 16.3226 11.0973 16.7911 9.01698 16.9998C8.17673 17.084 5.91735 17.0717 5.08271 16.9782C3.2711 16.7756 1.9455 16.4109 1.24651 15.923C0.814074 15.621 0.832434 15.71 0.832434 13.9243L0.832219 12.3767L1.26703 12.6046C1.50615 12.7298 1.89063 12.8951 2.12132 12.9718ZM1.09142 16.6006C2.92485 17.7305 7.76741 18.0867 11.1686 17.3417C11.7827 17.2073 12.6072 16.9188 13.0485 16.6838L13.4468 16.4719V19.643L13.2584 19.8344C12.6925 20.4094 11.145 20.8653 9.03794 21.0781C8.12036 21.1708 6.18627 21.1703 5.24104 21.0775C3.13286 20.8701 1.52364 20.3819 1.00308 19.7912L0.832219 19.5976V18.031C0.832219 17.1693 0.840859 16.4645 0.851443 16.4645C0.862027 16.4645 0.970028 16.5256 1.09142 16.6006Z" fill="currentColor" stroke="currentColor" stroke-width="0.4"/>
</svg>
