<svg viewBox="0 0 24 24" fill="none" xmlns="http://www.w3.org/2000/svg">
<path d="M15.8281 21.1671C15.7448 21.1671 15.6623 21.1504 15.584 21.1171C15.3898 21.0346 10.8281 19.0488 10.8281 14.9621V11.6138C10.8281 11.3463 10.9981 11.1088 11.2523 11.0221L15.6273 9.53375C15.7573 9.48875 15.899 9.48875 16.029 9.53375L20.404 11.0221C20.6581 11.1079 20.8281 11.3454 20.8281 11.6138V14.9621C20.8281 19.0488 16.2665 21.0354 16.0723 21.1179C15.994 21.1504 15.9115 21.1671 15.8281 21.1671ZM12.0781 12.0612V14.9621C12.0781 17.7521 14.9573 19.4129 15.8273 19.8504C16.6956 19.4104 19.5781 17.7413 19.5781 14.9621V12.0612L15.8281 10.7854L12.0781 12.0612Z" fill="currentColor"/>
<path d="M15.6196 17.4171C15.4546 17.4171 15.2946 17.3512 15.1779 17.2337L13.5113 15.5671C13.2671 15.3229 13.2671 14.9271 13.5113 14.6829C13.7554 14.4387 14.1512 14.4387 14.3954 14.6829L15.5529 15.8404L17.6196 13.0837C17.8246 12.8079 18.2171 12.7512 18.4946 12.9587C18.7704 13.1662 18.8263 13.5579 18.6188 13.8337L16.1188 17.1671C16.0104 17.3121 15.8446 17.4029 15.6629 17.4154C15.6487 17.4171 15.6346 17.4171 15.6196 17.4171Z" fill="currentColor"/>
<path d="M8.96615 7.02604C8.36865 7.02604 3.13281 6.96771 3.13281 4.94271C3.13281 2.91771 8.36865 2.85938 8.96615 2.85938C9.56365 2.85938 14.7995 2.91771 14.7995 4.94271C14.7995 6.96771 9.56365 7.02604 8.96615 7.02604ZM4.43615 4.94271C4.82865 5.27688 6.47531 5.77604 8.96615 5.77604C11.457 5.77604 13.1036 5.27688 13.4961 4.94271C13.1036 4.60854 11.457 4.10938 8.96615 4.10938C6.47531 4.10938 4.82865 4.60854 4.43615 4.94271Z" fill="currentColor"/>
<path d="M8.96615 10.3594C8.36865 10.3594 3.13281 10.301 3.13281 8.27604C3.13281 7.93104 3.41281 7.65104 3.75781 7.65104C4.10281 7.65104 4.38281 7.93104 4.38281 8.27604C4.56531 8.52521 6.27281 9.10938 8.96615 9.10938C11.6595 9.10938 13.367 8.52521 13.567 8.19771C13.567 7.85188 13.8378 7.61188 14.1828 7.61188C14.5286 7.61188 14.7995 7.93104 14.7995 8.27604C14.7995 10.301 9.56365 10.3594 8.96615 10.3594Z" fill="currentColor"/>
<path d="M8.96615 13.6927C8.36865 13.6927 3.13281 13.6344 3.13281 11.6094C3.13281 11.2644 3.41281 10.9844 3.75781 10.9844C4.08448 10.9844 4.35198 11.2344 4.38031 11.5527C4.63448 11.8827 6.32531 12.4427 8.96615 12.4427C9.61698 12.4427 10.2303 12.4102 10.787 12.3469C11.127 12.311 11.4395 12.5544 11.4786 12.8969C11.5178 13.2402 11.272 13.5494 10.9286 13.5894C10.3253 13.6577 9.66531 13.6927 8.96615 13.6927Z" fill="currentColor"/>
<path d="M14.1738 10.776C13.8288 10.776 13.5488 10.496 13.5488 10.151V4.94269C13.5488 4.59769 13.8288 4.31769 14.1738 4.31769C14.5188 4.31769 14.7988 4.59769 14.7988 4.94269V10.151C14.7988 10.496 14.5188 10.776 14.1738 10.776Z" fill="currentColor"/>
<path d="M8.96615 17.026C8.36865 17.026 3.13281 16.9677 3.13281 14.9427V4.94269C3.13281 4.59769 3.41281 4.31769 3.75781 4.31769C4.10281 4.31769 4.38281 4.59769 4.38281 4.94269V14.9427C4.56448 15.1927 6.27031 15.776 8.96615 15.776C9.58031 15.776 10.1903 15.746 10.7795 15.6877C11.1145 15.646 11.4286 15.9035 11.4628 16.2477C11.497 16.591 11.2461 16.8969 10.9028 16.931C10.2728 16.9944 9.62198 17.026 8.96615 17.026Z" fill="currentColor"/>
</svg>
