<svg viewBox="0 0 24 24" fill="none" xmlns="http://www.w3.org/2000/svg">
<path d="M13.4299 7.5116V5.0271C13.4299 3.1975 11.8632 1.7143 9.9306 1.7143C7.9980 1.7143 6.4313 3.1975 6.4313 5.0271V7.5116" stroke="currentColor" stroke-width="1.5" stroke-linecap="round" stroke-linejoin="round"/>
<path d="M17.0805 9.7092C16.9672 8.4233 16.9107 7.7804 16.6099 7.2938C16.3449 6.8652 15.9506 6.5217 15.4775 6.3074C14.9403 6.0640 14.2587 6.0640 12.8957 6.0640L6.6260 6.0640C5.2630 6.0640 4.5815 6.0640 4.0443 6.3074C3.5712 6.5217 3.1768 6.8652 2.9119 7.2938C2.6111 7.7804 2.5545 8.4233 2.4413 9.7092L1.8289 16.6660C1.6974 18.1605 1.6316 18.9078 1.8985 19.4842C2.1329 19.9907 2.5391 20.4087 3.0528 20.6719C3.6374 20.9715 4.4295 20.9715 6.0136 20.9715L7.8381 20.9715H10.0252" stroke="currentColor" stroke-width="1.5" stroke-linecap="round" stroke-linejoin="round"/>
<path d="M22.2857 12.9777C22.2857 13.8849 19.9552 14.6203 17.0805 14.6203C14.2057 14.6203 11.8752 13.8849 11.8752 12.9777M22.2857 12.9777C22.2857 12.0705 19.9552 11.3351 17.0805 11.3351C14.2057 11.3351 11.8752 12.0705 11.8752 12.9777M22.2857 12.9777V20.6432C22.2857 21.5520 19.9723 22.2857 17.0805 22.2857C14.1886 22.2857 11.8752 21.5520 11.8752 20.6432V12.9777M22.2857 16.8105C22.2857 17.7194 19.9723 18.4530 17.0805 18.4530C14.1886 18.4530 11.8752 17.7194 11.8752 16.8105" stroke="currentColor" stroke-width="1.5" stroke-linecap="round" stroke-linejoin="round"/>
</svg>
