<svg viewBox="0 0 30 30" fill="none" xmlns="http://www.w3.org/2000/svg">
<path d="M4.737 3.04395C4.10224 3.15137 3.46259 3.64453 3.1745 4.25L3.01825 4.58203L3.0036 6.4082C2.98896 8.51758 2.99872 8.60059 3.43818 9.18164L3.67743 9.49414L3.50653 9.69922C3.40888 9.81152 3.25751 10.0459 3.1745 10.2217L3.01825 10.5391V14.3965L3.14521 14.665C3.21357 14.8115 3.36493 15.0508 3.47724 15.1875L3.67743 15.4463L3.47724 15.7002C3.36493 15.8418 3.21357 16.0811 3.14521 16.2275L3.01825 16.4961V20.3535L3.1745 20.6855C3.47724 21.3203 4.08759 21.7744 4.80048 21.8867C5.00556 21.9209 7.14423 21.9404 10.8893 21.9404H16.6608L16.695 22.1699C16.7097 22.3018 16.7829 22.5801 16.8464 22.7949C17.1833 23.8789 17.8767 24.8115 18.7995 25.417C19.2438 25.71 22.1931 27.2139 22.3249 27.2139C22.4518 27.2139 25.2936 25.7734 25.7722 25.4658C26.5339 24.9775 27.1052 24.3428 27.5056 23.5273C27.9841 22.5605 27.9645 22.7607 27.9841 18.7373C27.9987 14.6211 28.0671 15.0459 27.3688 14.8311C26.3581 14.5234 25.5671 13.9668 24.9323 13.1172C24.7907 12.9219 24.6296 12.7412 24.5759 12.7119C24.5222 12.6826 23.946 12.6631 23.0915 12.6631H21.695V11.7695C21.695 10.5732 21.5925 10.1875 21.1481 9.7041L20.9479 9.48926L21.1481 9.27441C21.3874 9.01562 21.5241 8.75684 21.6218 8.38086C21.7243 7.99512 21.7292 5.00195 21.6267 4.62598C21.4069 3.80566 20.7136 3.17578 19.8884 3.04395C19.5075 2.98535 5.09345 2.98535 4.737 3.04395ZM20.0153 4.15234C20.279 4.29395 20.5524 4.60645 20.6159 4.83594C20.6501 4.94824 20.6696 5.61719 20.6696 6.53516C20.6696 8.01953 20.6647 8.05371 20.5524 8.29297C20.4304 8.55664 20.2058 8.78125 19.9518 8.88867C19.82 8.94238 18.4821 8.95215 12.3347 8.95215C5.20087 8.95215 4.86396 8.94727 4.67841 8.85938C4.43915 8.75195 4.23896 8.55664 4.09736 8.29297C3.9997 8.10254 3.99482 8.03906 3.99482 6.53516C3.99482 4.76758 4.00458 4.71875 4.33661 4.38184C4.72236 4.00098 4.13153 4.02539 12.4177 4.03516L19.8151 4.04492L20.0153 4.15234ZM20.0153 10.1094C20.2741 10.2461 20.5378 10.5537 20.611 10.8027C20.6452 10.9102 20.6696 11.335 20.6696 11.8281V12.6631H20.4206C20.2839 12.6631 20.1325 12.6875 20.0837 12.7119C20.03 12.7412 19.8591 12.9316 19.7028 13.1416C19.0632 13.9766 18.3454 14.4844 17.3395 14.8164L16.9001 14.958H11.0749C7.87665 14.958 5.15204 14.9434 5.02509 14.9287C4.66864 14.8799 4.32196 14.6406 4.14618 14.3232L3.99482 14.0547V10.8809L4.1413 10.6221C4.30243 10.3291 4.59052 10.0996 4.88349 10.0312C4.99091 10.0068 8.1745 9.99219 12.4421 9.99219L19.8151 10.002L20.0153 10.1094ZM24.1755 13.8545C24.3317 14.0791 24.9079 14.6553 25.2302 14.9043C25.6159 15.2021 26.2067 15.5244 26.6413 15.6807L27.0222 15.8125L27.0026 18.8398C26.9831 22.1309 26.9831 22.1064 26.6901 22.8193C26.4167 23.498 25.8601 24.1768 25.2643 24.5625C25.1081 24.665 24.3757 25.0508 23.6433 25.4219L22.3054 26.1006L20.904 25.3779C20.113 24.9727 19.3561 24.5479 19.1706 24.4062C18.3747 23.8008 17.8376 22.873 17.6911 21.8672C17.6667 21.6719 17.6423 20.2998 17.6423 18.6641V15.8027L17.8376 15.7441C18.697 15.4854 19.8298 14.6895 20.4108 13.9277L20.5915 13.6885H24.0632L24.1755 13.8545ZM16.6169 17.9365H10.0642L9.92255 18.0781C9.75654 18.2441 9.72724 18.5273 9.85907 18.7129C10.0349 18.9619 10.03 18.9619 13.4431 18.9619H16.6169V20.915H10.8405C4.33173 20.915 4.72236 20.9346 4.33661 20.5537C4.00458 20.2168 3.99482 20.168 3.99482 18.4004V16.8379L4.14618 16.5693C4.25849 16.3691 4.36591 16.2617 4.55634 16.1396L4.82001 15.9834H16.6169V17.9365Z" fill="currentColor"/>
<path d="M6.42646 6.00781C6.24579 6.04199 6.07001 6.2959 6.07001 6.52051C6.07001 6.66699 6.10419 6.74512 6.21161 6.85742C6.35321 6.99902 6.3581 6.99902 6.93915 6.99902C7.48603 6.99902 7.52997 6.99414 7.64716 6.88184C7.91571 6.63281 7.84247 6.18359 7.51044 6.04199C7.35419 5.97852 6.69501 5.9541 6.42646 6.00781Z" fill="currentColor"/>
<path d="M10.1374 6.00781C9.95673 6.04199 9.78095 6.2959 9.78095 6.52051C9.78095 6.66699 9.81513 6.74512 9.92255 6.85742L10.0642 6.99902H18.3112L18.4382 6.87207C18.6042 6.70605 18.6433 6.51562 18.5505 6.2959C18.4089 5.95898 18.5847 5.97363 14.1901 5.97852C12.0222 5.9834 10.196 5.99805 10.1374 6.00781Z" fill="currentColor"/>
<path d="M6.21161 12.1211C6.09931 12.2334 6.07001 12.3066 6.07001 12.4678C6.07001 12.6289 6.09931 12.7021 6.21161 12.8145C6.35321 12.9561 6.3581 12.9561 6.94892 12.9561C7.51044 12.9561 7.54462 12.9512 7.65693 12.8389C7.87665 12.6191 7.87665 12.3164 7.65693 12.0967C7.54462 11.9844 7.51044 11.9795 6.94892 11.9795C6.3581 11.9795 6.35321 11.9795 6.21161 12.1211Z" fill="currentColor"/>
<path d="M9.92255 12.1211C9.81025 12.2334 9.78095 12.3066 9.78095 12.4678C9.78095 12.6289 9.81025 12.7021 9.92255 12.8145L10.0642 12.9561H14.1852C18.7409 12.9561 18.4577 12.9756 18.57 12.6387C18.614 12.5117 18.614 12.4238 18.57 12.2969C18.4577 11.96 18.7409 11.9795 14.1852 11.9795H10.0642L9.92255 12.1211Z" fill="currentColor"/>
<path d="M23.7897 18.0293C23.7263 18.0781 23.3552 18.5273 22.9645 19.0303C22.5739 19.5283 22.237 19.9336 22.2175 19.9385C22.1931 19.9385 21.9489 19.7773 21.6755 19.5771C21.0798 19.1475 21.0065 19.1084 20.8454 19.1084C20.4499 19.1084 20.2009 19.5332 20.3913 19.8799C20.4743 20.0215 22.0563 21.1445 22.2321 21.1836C22.5104 21.2471 22.6325 21.1299 23.6188 19.8799C24.1413 19.2158 24.5808 18.6104 24.6003 18.5322C24.6931 18.0928 24.1413 17.7461 23.7897 18.0293Z" fill="currentColor"/>
<path d="M6.21161 18.0781C5.95282 18.3369 6.0456 18.7471 6.39228 18.8936C6.59247 18.9766 7.24677 18.9814 7.48603 18.8984C7.83271 18.7764 7.92548 18.3223 7.65693 18.0537C7.54462 17.9414 7.50556 17.9365 6.94892 17.9365C6.3581 17.9365 6.35321 17.9365 6.21161 18.0781Z" fill="currentColor"/>
</svg>