<svg viewBox="0 0 20 20" fill="none" xmlns="http://www.w3.org/2000/svg">
<path d="M9.83325 3.53125C10.0836 3.53125 10.3283 3.45702 10.5364 3.31795C10.7445 3.17889 10.9067 2.98122 11.0025 2.74996C11.0983 2.5187 11.1234 2.26422 11.0746 2.01871C11.0257 1.77321 10.9052 1.54769 10.7282 1.37069C10.5512 1.19369 10.3257 1.07315 10.0802 1.02432C9.83466 0.975485 9.58018 1.00055 9.34892 1.09634C9.11766 1.19213 8.91999 1.35435 8.78092 1.56248C8.64185 1.77061 8.56763 2.01531 8.56763 2.26563C8.56763 2.60129 8.70097 2.92321 8.93832 3.16056C9.17567 3.39791 9.49759 3.53125 9.83325 3.53125ZM9.83325 1.5625C9.97232 1.5625 10.1083 1.60374 10.2239 1.681C10.3395 1.75826 10.4296 1.86807 10.4829 1.99655C10.5361 2.12503 10.55 2.26641 10.5229 2.4028C10.4957 2.53919 10.4288 2.66448 10.3304 2.76281C10.2321 2.86114 10.1068 2.92811 9.97042 2.95524C9.83403 2.98237 9.69266 2.96845 9.56418 2.91523C9.4357 2.86201 9.32589 2.77189 9.24862 2.65626C9.17136 2.54063 9.13013 2.40469 9.13013 2.26563C9.13034 2.07921 9.20448 1.90049 9.3363 1.76867C9.46812 1.63686 9.64684 1.56271 9.83325 1.5625Z" fill="currentColor" stroke="currentColor" stroke-width="0.5"/>
<path d="M17.5676 8.73438C17.3173 8.73438 17.0726 8.8086 16.8645 8.94767C16.6564 9.08674 16.4941 9.2844 16.3983 9.51567C16.3025 9.74693 16.2775 10.0014 16.3263 10.2469C16.3752 10.4924 16.4957 10.7179 16.6727 10.8949C16.8497 11.0719 17.0752 11.1925 17.3207 11.2413C17.5662 11.2901 17.8207 11.2651 18.052 11.1693C18.2832 11.0735 18.4809 10.9113 18.62 10.7031C18.759 10.495 18.8333 10.2503 18.8333 10C18.8333 9.66434 18.6999 9.34242 18.4626 9.10507C18.2252 8.86772 17.9033 8.73438 17.5676 8.73438ZM17.5676 10.7031C17.4286 10.7031 17.2926 10.6619 17.177 10.5846C17.0614 10.5074 16.9712 10.3976 16.918 10.2691C16.8648 10.1406 16.8509 9.99922 16.878 9.86283C16.9051 9.72643 16.9721 9.60115 17.0704 9.50282C17.1688 9.40448 17.2941 9.33752 17.4305 9.31039C17.5668 9.28326 17.7082 9.29718 17.8367 9.3504C17.9652 9.40362 18.075 9.49374 18.1523 9.60936C18.2295 9.72499 18.2708 9.86093 18.2708 10C18.2705 10.1864 18.1964 10.3651 18.0646 10.497C17.9328 10.6288 17.754 10.7029 17.5676 10.7031Z" fill="currentColor" stroke="currentColor" stroke-width="0.5"/>
<path d="M2.09888 8.73438C1.84856 8.73438 1.60386 8.8086 1.39573 8.94767C1.1876 9.08674 1.02538 9.2844 0.929592 9.51567C0.8338 9.74693 0.808737 10.0014 0.857571 10.2469C0.906406 10.4924 1.02694 10.7179 1.20395 10.8949C1.38095 11.0719 1.60646 11.1925 1.85197 11.2413C2.09747 11.2901 2.35195 11.2651 2.58321 11.1693C2.81447 11.0735 3.01214 10.9113 3.15121 10.7031C3.29027 10.495 3.3645 10.2503 3.3645 10C3.3645 9.66434 3.23116 9.34242 2.99381 9.10507C2.75646 8.86772 2.43454 8.73438 2.09888 8.73438ZM2.09888 10.7031C1.95981 10.7031 1.82387 10.6619 1.70824 10.5846C1.59261 10.5074 1.50249 10.3976 1.44927 10.2691C1.39606 10.1406 1.38213 9.99922 1.40926 9.86283C1.43639 9.72643 1.50336 9.60115 1.60169 9.50282C1.70003 9.40448 1.82531 9.33752 1.9617 9.31039C2.0981 9.28326 2.23947 9.29718 2.36795 9.3504C2.49643 9.40362 2.60624 9.49374 2.6835 9.60936C2.76076 9.72499 2.802 9.86093 2.802 10C2.80179 10.1864 2.72765 10.3651 2.59583 10.497C2.46401 10.6288 2.28529 10.7029 2.09888 10.7031Z" fill="currentColor" stroke="currentColor" stroke-width="0.5"/>
<path d="M4.36426 5.79639C4.61457 5.79639 4.85927 5.72216 5.0674 5.58309C5.27553 5.44402 5.43775 5.24636 5.53354 5.0151C5.62933 4.78383 5.6544 4.52936 5.60556 4.28385C5.55673 4.03834 5.43619 3.81283 5.25919 3.63583C5.08219 3.45883 4.85668 3.33829 4.61117 3.28946C4.36566 3.24062 4.11119 3.26569 3.87992 3.36148C3.64866 3.45727 3.451 3.61949 3.31193 3.82762C3.17286 4.03575 3.09863 4.28045 3.09863 4.53076C3.09863 4.86643 3.23197 5.18834 3.46933 5.42569C3.70668 5.66305 4.02859 5.79639 4.36426 5.79639ZM4.36426 3.82764C4.50332 3.82764 4.63926 3.86887 4.75489 3.94614C4.87052 4.0234 4.96064 4.13321 5.01386 4.26169C5.06708 4.39017 5.081 4.53154 5.05387 4.66794C5.02674 4.80433 4.95978 4.92961 4.86144 5.02795C4.76311 5.12628 4.63782 5.19325 4.50143 5.22038C4.36504 5.24751 4.22366 5.23358 4.09518 5.18037C3.9667 5.12715 3.85689 5.03703 3.77963 4.9214C3.70237 4.80577 3.66113 4.66983 3.66113 4.53076C3.66134 4.34435 3.73549 4.16563 3.86731 4.03381C3.99912 3.90199 4.17784 3.82785 4.36426 3.82764Z" fill="currentColor" stroke="currentColor" stroke-width="0.5"/>
<path d="M15.3022 5.79639C15.5526 5.79639 15.7973 5.72216 16.0054 5.58309C16.2135 5.44402 16.3757 5.24636 16.4715 5.0151C16.5673 4.78383 16.5924 4.52936 16.5436 4.28385C16.4947 4.03834 16.3742 3.81283 16.1972 3.63583C16.0202 3.45883 15.7947 3.33829 15.5492 3.28946C15.3037 3.24062 15.0492 3.26569 14.8179 3.36148C14.5866 3.45727 14.389 3.61949 14.2499 3.82762C14.1108 4.03575 14.0366 4.28045 14.0366 4.53076C14.0366 4.86643 14.17 5.18834 14.4073 5.42569C14.6447 5.66305 14.9666 5.79639 15.3022 5.79639ZM15.3022 3.82764C15.4413 3.82764 15.5773 3.86887 15.6929 3.94614C15.8085 4.0234 15.8986 4.13321 15.9518 4.26169C16.0051 4.39017 16.019 4.53154 15.9919 4.66794C15.9647 4.80433 15.8978 4.92961 15.7994 5.02795C15.7011 5.12628 15.5758 5.19325 15.4394 5.22038C15.303 5.24751 15.1617 5.23358 15.0332 5.18037C14.9047 5.12715 14.7949 5.03703 14.7176 4.9214C14.6404 4.80577 14.5991 4.66983 14.5991 4.53076C14.5993 4.34435 14.6735 4.16563 14.8053 4.03381C14.9371 3.90199 15.1158 3.82785 15.3022 3.82764Z" fill="currentColor" stroke="currentColor" stroke-width="0.5"/>
<path d="M9.83325 16.4688C9.58294 16.4688 9.33824 16.543 9.13011 16.682C8.92198 16.8211 8.75976 17.0188 8.66397 17.25C8.56818 17.4813 8.54311 17.7358 8.59195 17.9813C8.64078 18.2268 8.76132 18.4523 8.93832 18.6293C9.11532 18.8063 9.34083 18.9268 9.58634 18.9757C9.83185 19.0245 10.0863 18.9995 10.3176 18.9037C10.5488 18.8079 10.7465 18.6456 10.8856 18.4375C11.0246 18.2294 11.0989 17.9847 11.0989 17.7344C11.0989 17.3987 10.9655 17.0768 10.7282 16.8394C10.4908 16.6021 10.1689 16.4688 9.83325 16.4688ZM9.83325 18.4375C9.69419 18.4375 9.55825 18.3963 9.44262 18.319C9.32699 18.2417 9.23687 18.1319 9.18365 18.0034C9.13043 17.875 9.11651 17.7336 9.14364 17.5972C9.17077 17.4608 9.23773 17.3355 9.33607 17.2372C9.4344 17.1389 9.55969 17.0719 9.69608 17.0448C9.83247 17.0176 9.97385 17.0316 10.1023 17.0848C10.2308 17.138 10.3406 17.2281 10.4179 17.3437C10.4951 17.4594 10.5364 17.5953 10.5364 17.7344C10.5362 17.9208 10.462 18.0995 10.3302 18.2313C10.1984 18.3631 10.0197 18.4373 9.83325 18.4375Z" fill="currentColor" stroke="currentColor" stroke-width="0.5"/>
<path d="M4.36426 14.2036C4.11394 14.2036 3.86925 14.2778 3.66111 14.4169C3.45298 14.556 3.29077 14.7536 3.19497 14.9849C3.09918 15.2162 3.07412 15.4706 3.12295 15.7161C3.17179 15.9617 3.29233 16.1872 3.46933 16.3642C3.64633 16.5412 3.87184 16.6617 4.11735 16.7105C4.36285 16.7594 4.61733 16.7343 4.84859 16.6385C5.07986 16.5427 5.27752 16.3805 5.41659 16.1724C5.55566 15.9643 5.62988 15.7196 5.62988 15.4692C5.62988 15.1336 5.49654 14.8117 5.25919 14.5743C5.02184 14.337 4.69992 14.2036 4.36426 14.2036ZM4.36426 16.1724C4.22519 16.1724 4.08925 16.1311 3.97362 16.0539C3.85799 15.9766 3.76787 15.8668 3.71466 15.7383C3.66144 15.6098 3.64751 15.4685 3.67464 15.3321C3.70177 15.1957 3.76874 15.0704 3.86707 14.9721C3.96541 14.8737 4.09069 14.8068 4.22709 14.7796C4.36348 14.7525 4.50485 14.7664 4.63333 14.8196C4.76181 14.8729 4.87163 14.963 4.94889 15.0786C5.02615 15.1942 5.06738 15.3302 5.06738 15.4692C5.06717 15.6557 4.99303 15.8344 4.86121 15.9662C4.72939 16.098 4.55067 16.1722 4.36426 16.1724Z" fill="currentColor" stroke="currentColor" stroke-width="0.5"/>
<path d="M15.3022 14.2036C15.0519 14.2036 14.8072 14.2778 14.5991 14.4169C14.391 14.556 14.2288 14.7536 14.133 14.9849C14.0372 15.2162 14.0121 15.4706 14.0609 15.7161C14.1098 15.9617 14.2303 16.1872 14.4073 16.3642C14.5843 16.5412 14.8098 16.6617 15.0553 16.7105C15.3008 16.7594 15.5553 16.7343 15.7866 16.6385C16.0178 16.5427 16.2155 16.3805 16.3546 16.1724C16.4936 15.9643 16.5679 15.7196 16.5679 15.4692C16.5679 15.1336 16.4345 14.8117 16.1972 14.5743C15.9598 14.337 15.6379 14.2036 15.3022 14.2036ZM15.3022 16.1724C15.1632 16.1724 15.0272 16.1311 14.9116 16.0539C14.796 15.9766 14.7059 15.8668 14.6526 15.7383C14.5994 15.6098 14.5855 15.4685 14.6126 15.3321C14.6398 15.1957 14.7067 15.0704 14.8051 14.9721C14.9034 14.8737 15.0287 14.8068 15.1651 14.7796C15.3015 14.7525 15.4428 14.7664 15.5713 14.8196C15.6998 14.8729 15.8096 14.963 15.8869 15.0786C15.9641 15.1942 16.0054 15.3302 16.0054 15.4692C16.0052 15.6557 15.931 15.8344 15.7992 15.9662C15.6674 16.098 15.4887 16.1722 15.3022 16.1724Z" fill="currentColor" stroke="currentColor" stroke-width="0.5"/>
<path d="M5.9721 7.07527C5.99119 7.14685 6.03714 7.20832 6.10039 7.24689C6.16364 7.28546 6.23933 7.29817 6.31171 7.28236C6.36079 7.27034 6.40571 7.24527 6.44169 7.20979C6.47767 7.17432 6.50339 7.12976 6.5161 7.08086L7.55667 8.12139C7.67639 7.97657 7.80955 7.84341 7.95436 7.72368L6.91381 6.68317C6.97433 6.66738 7.02782 6.63181 7.0658 6.58212C7.10378 6.53243 7.12406 6.47147 7.12341 6.40894C7.12277 6.3464 7.10124 6.28587 7.06224 6.23698C7.02325 6.18809 6.96903 6.15363 6.9082 6.13909L6.12082 5.94834C6.07397 5.93699 6.02498 5.93787 5.97856 5.9509C5.93214 5.96394 5.88986 5.98869 5.85576 6.02278C5.82167 6.05687 5.79691 6.09915 5.78387 6.14556C5.77082 6.19198 5.76993 6.24096 5.78127 6.28782L5.9721 7.07527Z" fill="currentColor" stroke="currentColor" stroke-width="0.5"/>
<path d="M13.6944 12.9245C13.6799 12.8637 13.6454 12.8095 13.5965 12.7705C13.5477 12.7315 13.4871 12.71 13.4246 12.7094C13.3621 12.7087 13.3011 12.729 13.2514 12.767C13.2018 12.805 13.1662 12.8584 13.1504 12.919L12.1099 11.8784C11.9901 12.0232 11.857 12.1564 11.7122 12.2761L12.7526 13.3165C12.6921 13.3324 12.6386 13.368 12.6007 13.4177C12.5627 13.4674 12.5425 13.5283 12.5432 13.5909C12.5438 13.6534 12.5654 13.7139 12.6043 13.7628C12.6433 13.8117 12.6975 13.8461 12.7583 13.8607C12.7583 13.8607 13.5451 14.0513 13.5457 14.0515C13.5926 14.0622 13.6414 14.061 13.6877 14.048C13.734 14.035 13.7763 14.0106 13.8108 13.977C13.8449 13.9429 13.8696 13.9007 13.8827 13.8542C13.8957 13.8078 13.8966 13.7588 13.8853 13.712L13.6944 12.9245Z" fill="currentColor" stroke="currentColor" stroke-width="0.5"/>
<path d="M14.2452 10.5681C14.285 10.6306 14.3475 10.6753 14.4196 10.6928C14.4917 10.7102 14.5677 10.6991 14.6318 10.6617L15.3234 10.2399C15.3646 10.2148 15.3986 10.1795 15.4222 10.1375C15.4458 10.0954 15.4582 10.048 15.4582 9.99981C15.4582 9.9516 15.4458 9.9042 15.4222 9.86216C15.3986 9.82012 15.3646 9.78486 15.3234 9.75976L14.6318 9.33788C14.5785 9.30514 14.5158 9.29115 14.4536 9.29815C14.3915 9.30514 14.3335 9.33271 14.2888 9.37648C14.2441 9.42024 14.2154 9.47769 14.2071 9.53967C14.1989 9.60166 14.2116 9.66463 14.2432 9.71856H12.7721C12.7809 9.81123 12.7863 9.90489 12.7863 9.99981C12.7863 10.0947 12.7809 10.1884 12.7721 10.2811H14.2432C14.2176 10.3246 14.2043 10.3743 14.2046 10.4248C14.205 10.4754 14.219 10.5249 14.2452 10.5681Z" fill="currentColor" stroke="currentColor" stroke-width="0.5"/>
<path d="M9.83324 7.04687C9.92818 7.04687 10.0218 7.05231 10.1145 7.06112V5.59073C10.1685 5.62237 10.2315 5.63505 10.2936 5.62674C10.3556 5.61843 10.4131 5.58962 10.4569 5.54488C10.5006 5.50013 10.5282 5.44204 10.5351 5.37983C10.5421 5.31763 10.5281 5.25488 10.4952 5.20158L10.0734 4.50985C10.0483 4.46867 10.013 4.43464 9.97094 4.41102C9.92889 4.3874 9.88147 4.375 9.83324 4.375C9.78502 4.375 9.7376 4.3874 9.69555 4.41102C9.6535 4.43464 9.61823 4.46867 9.59313 4.50985L9.17125 5.20158C9.13854 5.25486 9.12458 5.31756 9.13159 5.37968C9.1386 5.44181 9.16618 5.49982 9.20995 5.54447C9.25371 5.58912 9.31115 5.61786 9.37313 5.62612C9.4351 5.63438 9.49806 5.62168 9.55199 5.59005V7.06112C9.64466 7.05231 9.7383 7.04687 9.83324 7.04687Z" fill="currentColor" stroke="currentColor" stroke-width="0.5"/>
<path d="M12.1099 8.12138L13.1504 7.08085C13.1631 7.12975 13.1889 7.1743 13.2248 7.20978C13.2608 7.24526 13.3057 7.27033 13.3548 7.28235C13.4273 7.2992 13.5034 7.28694 13.5669 7.24821C13.6304 7.20948 13.6762 7.14738 13.6944 7.07526L13.8853 6.28781C13.8966 6.24096 13.8957 6.19197 13.8827 6.14556C13.8696 6.09914 13.8449 6.05686 13.8108 6.02278C13.7767 5.98869 13.7344 5.96394 13.688 5.9509C13.6415 5.93787 13.5926 5.93698 13.5457 5.94834L12.7583 6.13909C12.6975 6.15365 12.6433 6.18812 12.6043 6.23701C12.5653 6.2859 12.5438 6.34642 12.5431 6.40895C12.5425 6.47148 12.5627 6.53243 12.6007 6.58214C12.6386 6.63184 12.6921 6.66744 12.7526 6.68328L11.7122 7.72367C11.857 7.8434 11.9901 7.97656 12.1099 8.12138Z" fill="currentColor" stroke="currentColor" stroke-width="0.5"/>
<path d="M9.83325 7.60938C9.36043 7.60938 8.89823 7.74958 8.50509 8.01227C8.11196 8.27495 7.80554 8.64832 7.6246 9.08515C7.44366 9.52198 7.39632 10.0027 7.48856 10.4664C7.58081 10.9301 7.80849 11.3561 8.14283 11.6904C8.47716 12.0248 8.90313 12.2524 9.36687 12.3447C9.8306 12.4369 10.3113 12.3896 10.7481 12.2087C11.1849 12.0277 11.5583 11.7213 11.821 11.3282C12.0837 10.935 12.2239 10.4728 12.2239 10C12.2239 9.36597 11.972 8.7579 11.5237 8.30957C11.0754 7.86124 10.4673 7.60938 9.83325 7.60938ZM9.83325 11.8281C9.47168 11.8281 9.11824 11.7209 8.8176 11.52C8.51697 11.3192 8.28265 11.0336 8.14429 10.6996C8.00592 10.3655 7.96972 9.99797 8.04025 9.64335C8.11079 9.28873 8.28491 8.96299 8.54057 8.70732C8.79624 8.45165 9.12198 8.27754 9.4766 8.207C9.83123 8.13646 10.1988 8.17267 10.5328 8.31103C10.8669 8.4494 11.1524 8.68371 11.3533 8.98435C11.5542 9.28498 11.6614 9.63843 11.6614 10C11.6608 10.4847 11.468 10.9494 11.1253 11.2921C10.7826 11.6348 10.3179 11.8276 9.83325 11.8281Z" fill="currentColor" stroke="currentColor" stroke-width="0.5"/>
<path d="M5.42323 9.71855C5.45488 9.66462 5.46758 9.60165 5.45932 9.53966C5.45105 9.47768 5.4223 9.42024 5.37764 9.37647C5.33297 9.33271 5.27495 9.30514 5.21281 9.29815C5.15067 9.29115 5.08798 9.30514 5.0347 9.33788L4.34304 9.75975C4.30188 9.78485 4.26786 9.82011 4.24425 9.86215C4.22065 9.90419 4.20825 9.95159 4.20825 9.9998C4.20825 10.048 4.22065 10.0954 4.24425 10.1375C4.26786 10.1795 4.30188 10.2148 4.34304 10.2399L5.0347 10.6617C5.09866 10.6995 5.17481 10.7108 5.24698 10.6933C5.31915 10.6758 5.38167 10.6309 5.42128 10.5681C5.44749 10.5249 5.46151 10.4754 5.46186 10.4248C5.4622 10.3743 5.44885 10.3246 5.42323 10.2811H6.89437C6.88556 10.1884 6.88012 10.0947 6.88012 9.9998C6.88012 9.90488 6.88556 9.81121 6.89437 9.71855H5.42323Z" fill="currentColor" stroke="currentColor" stroke-width="0.5"/>
<path d="M7.55666 11.8784L6.51609 12.919C6.50031 12.8584 6.46475 12.805 6.41507 12.767C6.36539 12.729 6.30444 12.7087 6.24191 12.7094C6.17938 12.71 6.11886 12.7315 6.06997 12.7705C6.02108 12.8095 5.98663 12.8637 5.97209 12.9245L5.78127 13.712C5.76993 13.7588 5.77082 13.8078 5.78387 13.8542C5.79691 13.9007 5.82168 13.9429 5.85577 13.977C5.8902 14.0106 5.9325 14.035 5.97881 14.048C6.02511 14.061 6.07394 14.0622 6.12082 14.0515L6.9082 13.8607C6.96902 13.8462 7.02323 13.8117 7.06222 13.7628C7.10121 13.7139 7.12274 13.6534 7.1234 13.5909C7.12405 13.5283 7.10378 13.4674 7.06582 13.4177C7.02786 13.368 6.97438 13.3324 6.91387 13.3166L7.95436 12.2761C7.80955 12.1564 7.67639 12.0232 7.55666 11.8784Z" fill="currentColor" stroke="currentColor" stroke-width="0.5"/>
<path d="M9.83321 12.9537C9.73827 12.9537 9.64463 12.9483 9.55196 12.9395V14.4104C9.49802 14.3788 9.43506 14.3661 9.37309 14.3744C9.31112 14.3827 9.2537 14.4115 9.20994 14.4561C9.16619 14.5008 9.13861 14.5588 9.13159 14.6209C9.12458 14.683 9.13852 14.7457 9.17122 14.799L9.59309 15.4907C9.61819 15.5319 9.65346 15.5659 9.69551 15.5896C9.73756 15.6132 9.78498 15.6256 9.83321 15.6256C9.88144 15.6256 9.92885 15.6132 9.9709 15.5896C10.013 15.5659 10.0482 15.5319 10.0733 15.4907L10.4952 14.799C10.5279 14.7457 10.5418 14.683 10.5348 14.6209C10.5278 14.5588 10.5002 14.5008 10.4565 14.4561C10.4127 14.4114 10.3553 14.3827 10.2933 14.3744C10.2314 14.3661 10.1684 14.3788 10.1145 14.4104V12.9395C10.0218 12.9483 9.92815 12.9537 9.83321 12.9537Z" fill="currentColor" stroke="currentColor" stroke-width="0.5"/>
</svg>
