
<svg viewBox="0 0 20 20" fill="none" xmlns="http://www.w3.org/2000/svg">
<path d="M16.0511 3.87467H13.5396V3.40667C13.5396 2.63067 12.8639 2 12.0339 2H8.01535C7.18535 2 6.50963 2.63067 6.50963 3.40667V3.87467H3.99678C3.63989 3.87727 3.29555 3.99789 3.02495 4.21508C2.75436 4.43227 2.57502 4.73196 2.51882 5.06091C2.46262 5.38986 2.5332 5.72675 2.71801 6.01171C2.90282 6.29668 3.18989 6.51126 3.5282 6.61733L4.42392 16.7107C4.457 17.0613 4.6291 17.3878 4.90654 17.6263C5.18397 17.8648 5.54676 17.998 5.92392 18H14.1211C14.8982 18 15.5582 17.4333 15.6225 16.7107L16.5182 6.61733C16.8565 6.51126 17.1436 6.29668 17.3284 6.01171C17.5132 5.72675 17.5838 5.38986 17.5276 5.06091C17.4714 4.73196 17.2921 4.43227 17.0215 4.21508C16.7509 3.99789 16.4079 3.87727 16.0511 3.87467ZM7.51392 3.40667C7.51392 3.148 7.7382 2.93733 8.01535 2.93733H12.0339C12.3111 2.93733 12.5353 3.148 12.5353 3.40667V3.87467H7.51392V3.40667ZM14.6225 16.6333C14.6111 16.7501 14.5537 16.8587 14.4612 16.938C14.3688 17.0174 14.2481 17.0618 14.1225 17.0627H5.92678C5.8012 17.0618 5.68044 17.0174 5.58802 16.938C5.4956 16.8587 5.43812 16.7501 5.42678 16.6333L4.54392 6.68667H15.5053L14.6225 16.6333ZM16.0511 5.75067H3.9982C3.86484 5.75067 3.73693 5.70122 3.64263 5.6132C3.54833 5.52519 3.49535 5.40581 3.49535 5.28133C3.49535 5.15686 3.54833 5.03748 3.64263 4.94946C3.73693 4.86145 3.86484 4.812 3.9982 4.812H16.0511C16.1844 4.812 16.3123 4.86145 16.4066 4.94946C16.5009 5.03748 16.5539 5.15686 16.5539 5.28133C16.5539 5.40581 16.5009 5.52519 16.4066 5.6132C16.3123 5.70122 16.1844 5.75067 16.0511 5.75067Z" fill="#757575"/>
<path d="M7.75722 13.7513L7.25293 6.19133C7.23932 6.07111 7.17653 5.96042 7.07764 5.88234C6.97875 5.80426 6.8514 5.7648 6.72211 5.77219C6.59283 5.77959 6.47158 5.83325 6.38365 5.92202C6.29571 6.01078 6.24786 6.12779 6.25007 6.24867L6.75293 13.8113C6.76654 13.9316 6.82933 14.0422 6.92822 14.1203C7.02711 14.1984 7.15446 14.2379 7.28375 14.2305C7.41303 14.2231 7.53428 14.1694 7.62222 14.0806C7.71015 13.9919 7.758 13.8749 7.75579 13.754L7.75722 13.7513ZM9.76722 5.75C9.6341 5.75 9.50641 5.79926 9.41215 5.88699C9.31788 5.97472 9.26474 6.09376 9.26436 6.218V13.7807C9.27122 13.9006 9.32711 14.0136 9.42053 14.0963C9.51395 14.1789 9.63777 14.225 9.7665 14.225C9.89523 14.225 10.0191 14.1789 10.1125 14.0963C10.2059 14.0136 10.2618 13.9006 10.2686 13.7807V6.218C10.2683 6.09376 10.2151 5.97472 10.1209 5.88699C10.0266 5.79926 9.90034 5.75 9.76722 5.75ZM12.8101 5.75133C12.6774 5.74403 12.5469 5.78608 12.4473 5.86829C12.3478 5.95049 12.2871 6.06616 12.2786 6.19L11.7758 13.7513C11.7731 13.8724 11.8207 13.9897 11.9085 14.0788C11.9963 14.1678 12.1176 14.2218 12.2471 14.2294C12.3765 14.237 12.5041 14.1976 12.6032 14.1194C12.7022 14.0412 12.7651 13.9304 12.7786 13.81L13.2815 6.24733C13.2856 6.18578 13.2766 6.12408 13.2551 6.06577C13.2336 6.00746 13.2 5.95367 13.1562 5.90748C13.1124 5.86129 13.0593 5.82361 12.9999 5.79659C12.9405 5.76957 12.876 5.75507 12.8101 5.75133Z" fill="#757575"/>
</svg>
