
<svg viewBox="0 0 25 25" fill="none" xmlns="http://www.w3.org/2000/svg">
<g clip-path="url(#clip0_880_7077)">
<mask id="path-1-outside-1_880_7077" maskUnits="userSpaceOnUse" x="-1" y="-0.390625" width="27" height="26" fill="black">
<rect fill="white" x="-1" y="-0.390625" width="27" height="26"/>
<path d="M1.737 0.439453C1.10224 0.546875 0.462589 1.04004 0.174503 1.64551L0.0182533 1.97754L0.00360489 3.80371C-0.0110436 5.91309 -0.00127792 5.99609 0.438175 6.57715L0.677433 6.88965L0.506535 7.09473C0.408878 7.20703 0.257511 7.44141 0.174503 7.61719L0.0182533 7.93457V9.86328V11.792L0.145206 12.0605C0.213566 12.207 0.364933 12.4463 0.477238 12.583L0.677433 12.8418L0.477238 13.0957C0.364933 13.2373 0.213566 13.4766 0.145206 13.623L0.0182533 13.8916V15.8203V17.749L0.174503 18.0811C0.477238 18.7158 1.08759 19.1699 1.80048 19.2822C2.00556 19.3164 4.14423 19.3359 7.88935 19.3359H13.6608L13.695 19.5654C13.7097 19.6973 13.7829 19.9756 13.8464 20.1904C14.1833 21.2744 14.8767 22.207 15.7995 22.8125C16.2438 23.1055 19.1931 24.6094 19.3249 24.6094C19.4518 24.6094 22.2936 23.1689 22.7722 22.8613C23.5339 22.373 24.1052 21.7383 24.5056 20.9229C24.9841 19.9561 24.9645 20.1562 24.9841 16.1328C24.9987 12.0166 25.0671 12.4414 24.3688 12.2266C23.3581 11.9189 22.5671 11.3623 21.9323 10.5127C21.7907 10.3174 21.6296 10.1367 21.5759 10.1074C21.5222 10.0781 20.946 10.0586 20.0915 10.0586H18.695V9.16504C18.695 7.96875 18.5925 7.58301 18.1481 7.09961L17.9479 6.88477L18.1481 6.66992C18.3874 6.41113 18.5241 6.15234 18.6218 5.77637C18.7243 5.39062 18.7292 2.39746 18.6267 2.02148C18.4069 1.20117 17.7136 0.571289 16.8884 0.439453C16.5075 0.380859 2.09345 0.380859 1.737 0.439453ZM17.0153 1.54785C17.279 1.68945 17.5524 2.00195 17.6159 2.23145C17.6501 2.34375 17.6696 3.0127 17.6696 3.93066C17.6696 5.41504 17.6647 5.44922 17.5524 5.68848C17.4304 5.95215 17.2058 6.17676 16.9518 6.28418C16.82 6.33789 15.4821 6.34766 9.33466 6.34766C2.20087 6.34766 1.86396 6.34277 1.67841 6.25488C1.43915 6.14746 1.23896 5.95215 1.09736 5.68848C0.999699 5.49805 0.994816 5.43457 0.994816 3.93066C0.994816 2.16309 1.00458 2.11426 1.33661 1.77734C1.72236 1.39648 1.13153 1.4209 9.41767 1.43066L16.8151 1.44043L17.0153 1.54785ZM17.0153 7.50488C17.2741 7.6416 17.5378 7.94922 17.611 8.19824C17.6452 8.30566 17.6696 8.73047 17.6696 9.22363V10.0586H17.4206C17.2839 10.0586 17.1325 10.083 17.0837 10.1074C17.03 10.1367 16.8591 10.3271 16.7028 10.5371C16.0632 11.3721 15.3454 11.8799 14.3395 12.2119L13.9001 12.3535H8.07489C4.87665 12.3535 2.15204 12.3389 2.02509 12.3242C1.66864 12.2754 1.32196 12.0361 1.14618 11.7188L0.994816 11.4502V9.86328V8.27637L1.1413 8.01758C1.30243 7.72461 1.59052 7.49512 1.88349 7.42676C1.99091 7.40234 5.1745 7.3877 9.44208 7.3877L16.8151 7.39746L17.0153 7.50488ZM21.1755 11.25C21.3317 11.4746 21.9079 12.0508 22.2302 12.2998C22.6159 12.5977 23.2067 12.9199 23.6413 13.0762L24.0222 13.208L24.0026 16.2354C23.9831 19.5264 23.9831 19.502 23.6901 20.2148C23.4167 20.8936 22.8601 21.5723 22.2643 21.958C22.1081 22.0605 21.3757 22.4463 20.6433 22.8174L19.3054 23.4961L17.904 22.7734C17.113 22.3682 16.3561 21.9434 16.1706 21.8018C15.3747 21.1963 14.8376 20.2686 14.6911 19.2627C14.6667 19.0674 14.6423 17.6953 14.6423 16.0596V13.1982L14.8376 13.1396C15.697 12.8809 16.8298 12.085 17.4108 11.3232L17.5915 11.084H19.3298H21.0632L21.1755 11.25ZM13.6169 14.3555V15.332H10.3405H7.06415L6.92255 15.4736C6.75654 15.6396 6.72724 15.9229 6.85907 16.1084C7.03486 16.3574 7.02997 16.3574 10.4431 16.3574H13.6169V17.334V18.3105H7.84052C1.33173 18.3105 1.72236 18.3301 1.33661 17.9492C1.00458 17.6123 0.994816 17.5635 0.994816 15.7959V14.2334L1.14618 13.9648C1.25849 13.7646 1.36591 13.6572 1.55634 13.5352L1.82001 13.3789H7.71845H13.6169V14.3555Z"/>
</mask>
<path d="M1.737 0.439453C1.10224 0.546875 0.462589 1.04004 0.174503 1.64551L0.0182533 1.97754L0.00360489 3.80371C-0.0110436 5.91309 -0.00127792 5.99609 0.438175 6.57715L0.677433 6.88965L0.506535 7.09473C0.408878 7.20703 0.257511 7.44141 0.174503 7.61719L0.0182533 7.93457V9.86328V11.792L0.145206 12.0605C0.213566 12.207 0.364933 12.4463 0.477238 12.583L0.677433 12.8418L0.477238 13.0957C0.364933 13.2373 0.213566 13.4766 0.145206 13.623L0.0182533 13.8916V15.8203V17.749L0.174503 18.0811C0.477238 18.7158 1.08759 19.1699 1.80048 19.2822C2.00556 19.3164 4.14423 19.3359 7.88935 19.3359H13.6608L13.695 19.5654C13.7097 19.6973 13.7829 19.9756 13.8464 20.1904C14.1833 21.2744 14.8767 22.207 15.7995 22.8125C16.2438 23.1055 19.1931 24.6094 19.3249 24.6094C19.4518 24.6094 22.2936 23.1689 22.7722 22.8613C23.5339 22.373 24.1052 21.7383 24.5056 20.9229C24.9841 19.9561 24.9645 20.1562 24.9841 16.1328C24.9987 12.0166 25.0671 12.4414 24.3688 12.2266C23.3581 11.9189 22.5671 11.3623 21.9323 10.5127C21.7907 10.3174 21.6296 10.1367 21.5759 10.1074C21.5222 10.0781 20.946 10.0586 20.0915 10.0586H18.695V9.16504C18.695 7.96875 18.5925 7.58301 18.1481 7.09961L17.9479 6.88477L18.1481 6.66992C18.3874 6.41113 18.5241 6.15234 18.6218 5.77637C18.7243 5.39062 18.7292 2.39746 18.6267 2.02148C18.4069 1.20117 17.7136 0.571289 16.8884 0.439453C16.5075 0.380859 2.09345 0.380859 1.737 0.439453ZM17.0153 1.54785C17.279 1.68945 17.5524 2.00195 17.6159 2.23145C17.6501 2.34375 17.6696 3.0127 17.6696 3.93066C17.6696 5.41504 17.6647 5.44922 17.5524 5.68848C17.4304 5.95215 17.2058 6.17676 16.9518 6.28418C16.82 6.33789 15.4821 6.34766 9.33466 6.34766C2.20087 6.34766 1.86396 6.34277 1.67841 6.25488C1.43915 6.14746 1.23896 5.95215 1.09736 5.68848C0.999699 5.49805 0.994816 5.43457 0.994816 3.93066C0.994816 2.16309 1.00458 2.11426 1.33661 1.77734C1.72236 1.39648 1.13153 1.4209 9.41767 1.43066L16.8151 1.44043L17.0153 1.54785ZM17.0153 7.50488C17.2741 7.6416 17.5378 7.94922 17.611 8.19824C17.6452 8.30566 17.6696 8.73047 17.6696 9.22363V10.0586H17.4206C17.2839 10.0586 17.1325 10.083 17.0837 10.1074C17.03 10.1367 16.8591 10.3271 16.7028 10.5371C16.0632 11.3721 15.3454 11.8799 14.3395 12.2119L13.9001 12.3535H8.07489C4.87665 12.3535 2.15204 12.3389 2.02509 12.3242C1.66864 12.2754 1.32196 12.0361 1.14618 11.7188L0.994816 11.4502V9.86328V8.27637L1.1413 8.01758C1.30243 7.72461 1.59052 7.49512 1.88349 7.42676C1.99091 7.40234 5.1745 7.3877 9.44208 7.3877L16.8151 7.39746L17.0153 7.50488ZM21.1755 11.25C21.3317 11.4746 21.9079 12.0508 22.2302 12.2998C22.6159 12.5977 23.2067 12.9199 23.6413 13.0762L24.0222 13.208L24.0026 16.2354C23.9831 19.5264 23.9831 19.502 23.6901 20.2148C23.4167 20.8936 22.8601 21.5723 22.2643 21.958C22.1081 22.0605 21.3757 22.4463 20.6433 22.8174L19.3054 23.4961L17.904 22.7734C17.113 22.3682 16.3561 21.9434 16.1706 21.8018C15.3747 21.1963 14.8376 20.2686 14.6911 19.2627C14.6667 19.0674 14.6423 17.6953 14.6423 16.0596V13.1982L14.8376 13.1396C15.697 12.8809 16.8298 12.085 17.4108 11.3232L17.5915 11.084H19.3298H21.0632L21.1755 11.25ZM13.6169 14.3555V15.332H10.3405H7.06415L6.92255 15.4736C6.75654 15.6396 6.72724 15.9229 6.85907 16.1084C7.03486 16.3574 7.02997 16.3574 10.4431 16.3574H13.6169V17.334V18.3105H7.84052C1.33173 18.3105 1.72236 18.3301 1.33661 17.9492C1.00458 17.6123 0.994816 17.5635 0.994816 15.7959V14.2334L1.14618 13.9648C1.25849 13.7646 1.36591 13.6572 1.55634 13.5352L1.82001 13.3789H7.71845H13.6169V14.3555Z" fill="currentColor"/>
<path d="M1.737 0.439453C1.10224 0.546875 0.462589 1.04004 0.174503 1.64551L0.0182533 1.97754L0.00360489 3.80371C-0.0110436 5.91309 -0.00127792 5.99609 0.438175 6.57715L0.677433 6.88965L0.506535 7.09473C0.408878 7.20703 0.257511 7.44141 0.174503 7.61719L0.0182533 7.93457V9.86328V11.792L0.145206 12.0605C0.213566 12.207 0.364933 12.4463 0.477238 12.583L0.677433 12.8418L0.477238 13.0957C0.364933 13.2373 0.213566 13.4766 0.145206 13.623L0.0182533 13.8916V15.8203V17.749L0.174503 18.0811C0.477238 18.7158 1.08759 19.1699 1.80048 19.2822C2.00556 19.3164 4.14423 19.3359 7.88935 19.3359H13.6608L13.695 19.5654C13.7097 19.6973 13.7829 19.9756 13.8464 20.1904C14.1833 21.2744 14.8767 22.207 15.7995 22.8125C16.2438 23.1055 19.1931 24.6094 19.3249 24.6094C19.4518 24.6094 22.2936 23.1689 22.7722 22.8613C23.5339 22.373 24.1052 21.7383 24.5056 20.9229C24.9841 19.9561 24.9645 20.1562 24.9841 16.1328C24.9987 12.0166 25.0671 12.4414 24.3688 12.2266C23.3581 11.9189 22.5671 11.3623 21.9323 10.5127C21.7907 10.3174 21.6296 10.1367 21.5759 10.1074C21.5222 10.0781 20.946 10.0586 20.0915 10.0586H18.695V9.16504C18.695 7.96875 18.5925 7.58301 18.1481 7.09961L17.9479 6.88477L18.1481 6.66992C18.3874 6.41113 18.5241 6.15234 18.6218 5.77637C18.7243 5.39062 18.7292 2.39746 18.6267 2.02148C18.4069 1.20117 17.7136 0.571289 16.8884 0.439453C16.5075 0.380859 2.09345 0.380859 1.737 0.439453ZM17.0153 1.54785C17.279 1.68945 17.5524 2.00195 17.6159 2.23145C17.6501 2.34375 17.6696 3.0127 17.6696 3.93066C17.6696 5.41504 17.6647 5.44922 17.5524 5.68848C17.4304 5.95215 17.2058 6.17676 16.9518 6.28418C16.82 6.33789 15.4821 6.34766 9.33466 6.34766C2.20087 6.34766 1.86396 6.34277 1.67841 6.25488C1.43915 6.14746 1.23896 5.95215 1.09736 5.68848C0.999699 5.49805 0.994816 5.43457 0.994816 3.93066C0.994816 2.16309 1.00458 2.11426 1.33661 1.77734C1.72236 1.39648 1.13153 1.4209 9.41767 1.43066L16.8151 1.44043L17.0153 1.54785ZM17.0153 7.50488C17.2741 7.6416 17.5378 7.94922 17.611 8.19824C17.6452 8.30566 17.6696 8.73047 17.6696 9.22363V10.0586H17.4206C17.2839 10.0586 17.1325 10.083 17.0837 10.1074C17.03 10.1367 16.8591 10.3271 16.7028 10.5371C16.0632 11.3721 15.3454 11.8799 14.3395 12.2119L13.9001 12.3535H8.07489C4.87665 12.3535 2.15204 12.3389 2.02509 12.3242C1.66864 12.2754 1.32196 12.0361 1.14618 11.7188L0.994816 11.4502V9.86328V8.27637L1.1413 8.01758C1.30243 7.72461 1.59052 7.49512 1.88349 7.42676C1.99091 7.40234 5.1745 7.3877 9.44208 7.3877L16.8151 7.39746L17.0153 7.50488ZM21.1755 11.25C21.3317 11.4746 21.9079 12.0508 22.2302 12.2998C22.6159 12.5977 23.2067 12.9199 23.6413 13.0762L24.0222 13.208L24.0026 16.2354C23.9831 19.5264 23.9831 19.502 23.6901 20.2148C23.4167 20.8936 22.8601 21.5723 22.2643 21.958C22.1081 22.0605 21.3757 22.4463 20.6433 22.8174L19.3054 23.4961L17.904 22.7734C17.113 22.3682 16.3561 21.9434 16.1706 21.8018C15.3747 21.1963 14.8376 20.2686 14.6911 19.2627C14.6667 19.0674 14.6423 17.6953 14.6423 16.0596V13.1982L14.8376 13.1396C15.697 12.8809 16.8298 12.085 17.4108 11.3232L17.5915 11.084H19.3298H21.0632L21.1755 11.25ZM13.6169 14.3555V15.332H10.3405H7.06415L6.92255 15.4736C6.75654 15.6396 6.72724 15.9229 6.85907 16.1084C7.03486 16.3574 7.02997 16.3574 10.4431 16.3574H13.6169V17.334V18.3105H7.84052C1.33173 18.3105 1.72236 18.3301 1.33661 17.9492C1.00458 17.6123 0.994816 17.5635 0.994816 15.7959V14.2334L1.14618 13.9648C1.25849 13.7646 1.36591 13.6572 1.55634 13.5352L1.82001 13.3789H7.71845H13.6169V14.3555Z" stroke="black" stroke-width="0.2" mask="url(#path-1-outside-1_880_7077)"/>
<path d="M3.42676 3.40332C3.24609 3.4375 3.07031 3.69141 3.07031 3.91602C3.07031 4.0625 3.10449 4.14062 3.21191 4.25293C3.35352 4.39453 3.3584 4.39453 3.93945 4.39453C4.48633 4.39453 4.53027 4.38965 4.64746 4.27734C4.91602 4.02832 4.84277 3.5791 4.51074 3.4375C4.35449 3.37402 3.69531 3.34961 3.42676 3.40332Z" fill="currentColor" fill-opacity="0.4"/>
<path d="M7.1377 3.40332C6.95703 3.4375 6.78125 3.69141 6.78125 3.91602C6.78125 4.0625 6.81543 4.14062 6.92285 4.25293L7.06445 4.39453H11.1904H15.3115L15.4385 4.26758C15.6045 4.10156 15.6436 3.91113 15.5508 3.69141C15.4092 3.35449 15.585 3.36914 11.1904 3.37402C9.02246 3.37891 7.19629 3.39355 7.1377 3.40332Z" fill="currentColor" fill-opacity="0.4"/>
<path d="M3.21191 9.5166C3.09961 9.62891 3.07031 9.70215 3.07031 9.86328C3.07031 10.0244 3.09961 10.0977 3.21191 10.21C3.35352 10.3516 3.3584 10.3516 3.94922 10.3516C4.51074 10.3516 4.54492 10.3467 4.65723 10.2344C4.87695 10.0146 4.87695 9.71191 4.65723 9.49219C4.54492 9.37988 4.51074 9.375 3.94922 9.375C3.3584 9.375 3.35352 9.375 3.21191 9.5166Z" fill="currentColor" fill-opacity="0.4"/>
<path d="M6.92285 9.51639C6.81055 9.6287 6.78125 9.70194 6.78125 9.86307C6.78125 10.0242 6.81055 10.0974 6.92285 10.2098L7.06445 10.3514H11.1855C15.7412 10.3514 15.458 10.3709 15.5703 10.034C15.6143 9.90702 15.6143 9.81913 15.5703 9.69217C15.458 9.35526 15.7412 9.37479 11.1855 9.37479H7.06445L6.92285 9.51639Z" fill="currentColor" fill-opacity="0.4"/>
<path d="M20.7899 15.424C20.7264 15.4728 20.3553 15.922 19.9647 16.425C19.574 16.923 19.2371 17.3283 19.2176 17.3332C19.1932 17.3332 18.949 17.172 18.6756 16.9718C18.0799 16.5422 18.0067 16.5031 17.8455 16.5031C17.45 16.5031 17.201 16.9279 17.3914 17.2746C17.4744 17.4162 19.0565 18.5392 19.2322 18.5783C19.5106 18.6418 19.6326 18.5246 20.619 17.2746C21.1414 16.6105 21.5809 16.005 21.6004 15.9269C21.6932 15.4875 21.1414 15.1408 20.7899 15.424Z" fill="currentColor" fill-opacity="0.4"/>
<path d="M3.21164 15.4733C2.95285 15.7321 3.04562 16.1423 3.3923 16.2888C3.59249 16.3718 4.24679 16.3767 4.48605 16.2936C4.83273 16.1716 4.9255 15.7175 4.65695 15.4489C4.54464 15.3366 4.50558 15.3317 3.94894 15.3317C3.35812 15.3317 3.35324 15.3317 3.21164 15.4733Z" fill="currentColor" fill-opacity="0.4"/>
</g>
<defs>
<clipPath id="clip0_880_7077">
<rect width="25" height="25" fill="white"/>
</clipPath>
</defs>
</svg>
