<svg viewBox="0 0 89 89" fill="none" xmlns="http://www.w3.org/2000/svg">
<g opacity="0.4">
<path d="M52.967 28.5077V6C52.967 3.79086 51.1761 2 48.967 2H6C3.79086 2 2 3.79086 2 6V48.967C2 51.1761 3.79086 52.967 6 52.967H28.4654" stroke="#6B7280" stroke-width="2" stroke-linecap="round" stroke-dasharray="11 11"/>
<path d="M80.0432 52.1725V33.0781C80.0432 30.869 78.2523 29.0781 76.0432 29.0781H33.0762C30.867 29.0781 29.0762 30.869 29.0762 33.0781V76.0451C29.0762 78.2543 30.867 80.0451 33.0762 80.0451H51.3742" stroke="#6B7280" stroke-width="4" stroke-linecap="round"/>
<path d="M81.0913 69.3853L80.7912 69.5292C76.442 71.7045 71.7064 76.4407 69.5312 80.7893L69.3873 81.0893C68.5661 82.7324 67.8165 83.0294 67.5783 83.0202C67.3413 83.0086 66.6211 82.6626 65.9383 80.9571L57.4285 59.6692C57.0856 58.8112 56.9711 58.1339 56.9827 57.7156C56.9944 57.298 57.0856 57.1902 57.1395 57.1375C57.1915 57.0837 57.2993 56.9924 57.7176 56.9808C58.1359 56.9697 58.8138 57.0837 59.6705 57.4272L80.959 65.9364C82.6639 66.6192 83.0105 67.3393 83.0215 67.5763C83.0313 67.8146 82.7343 68.5641 81.0913 69.3853ZM82.1642 62.8989L60.8873 54.3897C59.7342 53.9274 58.6515 53.6855 57.6214 53.7131C56.5908 53.7425 55.562 54.0842 54.824 54.8221C54.0855 55.56 53.7444 56.5888 53.715 57.6195C53.6875 58.6501 53.9293 59.7322 54.3911 60.8854L62.9009 82.1622C63.8286 84.4814 65.3602 86.1991 67.446 86.2861C69.5324 86.3724 71.1871 84.7931 72.3041 82.5609L72.4609 82.2474C74.1609 78.8455 78.8475 74.1589 82.2493 72.4589L82.5629 72.3021C84.795 71.1852 86.3744 69.5305 86.2874 67.4441C86.2011 65.3583 84.4833 63.8267 82.1642 62.8989Z" fill="#6B7280" stroke="#6B7280"/>
</g>
</svg>
