<svg viewBox="0 0 40 40" fill="none" xmlns="http://www.w3.org/2000/svg">
<g clip-path="url(#clip0_1597_157968)">
<mask id="path-1-outside-1_1597_157968" maskUnits="userSpaceOnUse" x="4" y="4.53125" width="32" height="31" fill="black">
<rect fill="white" x="4" y="4.53125" width="32" height="31"/>
<path d="M7.0844 5.52734C6.32269 5.65625 5.55511 6.24805 5.2094 6.97461L5.0219 7.37305L5.00433 9.56445C4.98675 12.0957 4.99847 12.1953 5.52581 12.8926L5.81292 13.2676L5.60784 13.5137C5.49065 13.6484 5.30901 13.9297 5.2094 14.1406L5.0219 14.5215V16.8359V19.1504L5.17425 19.4727C5.25628 19.6484 5.43792 19.9355 5.57269 20.0996L5.81292 20.4102L5.57269 20.7148C5.43792 20.8848 5.25628 21.1719 5.17425 21.3477L5.0219 21.6699V23.9844V26.2988L5.2094 26.6973C5.57269 27.459 6.30511 28.0039 7.16058 28.1387C7.40667 28.1797 9.97308 28.2031 14.4672 28.2031H21.393L21.434 28.4785C21.4516 28.6367 21.5395 28.9707 21.6157 29.2285C22.02 30.5293 22.852 31.6484 23.9594 32.375C24.4926 32.7266 28.0317 34.5312 28.1899 34.5312C28.3422 34.5312 31.7524 32.8027 32.3266 32.4336C33.2407 31.8477 33.9262 31.0859 34.4067 30.1074C34.9809 28.9473 34.9575 29.1875 34.9809 24.3594C34.9985 19.4199 35.0805 19.9297 34.2426 19.6719C33.0297 19.3027 32.0805 18.6348 31.3188 17.6152C31.1489 17.3809 30.9555 17.1641 30.891 17.1289C30.8266 17.0937 30.1352 17.0703 29.1098 17.0703H27.434V15.998C27.434 14.5625 27.311 14.0996 26.7778 13.5195L26.5375 13.2617L26.7778 13.0039C27.0649 12.6934 27.2289 12.3828 27.3461 11.9316C27.4692 11.4687 27.475 7.87695 27.352 7.42578C27.0883 6.44141 26.2563 5.68555 25.266 5.52734C24.809 5.45703 7.51214 5.45703 7.0844 5.52734ZM25.4184 6.85742C25.7348 7.02734 26.0629 7.40234 26.1391 7.67773C26.1801 7.8125 26.2035 8.61523 26.2035 9.7168C26.2035 11.498 26.1977 11.5391 26.0629 11.8262C25.9164 12.1426 25.6469 12.4121 25.3422 12.541C25.184 12.6055 23.5785 12.6172 16.2016 12.6172C7.64104 12.6172 7.23675 12.6113 7.01409 12.5059C6.72698 12.377 6.48675 12.1426 6.31683 11.8262C6.19964 11.5977 6.19378 11.5215 6.19378 9.7168C6.19378 7.5957 6.2055 7.53711 6.60394 7.13281C7.06683 6.67578 6.35784 6.70508 16.3012 6.7168L25.1782 6.72851L25.4184 6.85742ZM25.4184 14.0059C25.7289 14.1699 26.0453 14.5391 26.1332 14.8379C26.1742 14.9668 26.2035 15.4766 26.2035 16.0684V17.0703H25.9047C25.7407 17.0703 25.559 17.0996 25.5004 17.1289C25.436 17.1641 25.2309 17.3926 25.0434 17.6445C24.2758 18.6465 23.4145 19.2559 22.2075 19.6543L21.6801 19.8242H14.6899C10.852 19.8242 7.58245 19.8066 7.43011 19.7891C7.00237 19.7305 6.58636 19.4434 6.37542 19.0625L6.19378 18.7402V16.8359V14.9316L6.36956 14.6211C6.56292 14.2695 6.90862 13.9941 7.26019 13.9121C7.38909 13.8828 11.2094 13.8652 16.3305 13.8652L25.1782 13.877L25.4184 14.0059ZM30.4106 18.5C30.5981 18.7695 31.2895 19.4609 31.6762 19.7598C32.1391 20.1172 32.8481 20.5039 33.3696 20.6914L33.8266 20.8496L33.8032 24.4824C33.7797 28.4316 33.7797 28.4023 33.4282 29.2578C33.1 30.0723 32.4321 30.8867 31.7172 31.3496C31.5297 31.4727 30.6508 31.9355 29.7719 32.3809L28.1664 33.1953L26.4848 32.3281C25.5356 31.8418 24.6274 31.332 24.4047 31.1621C23.4496 30.4355 22.8051 29.3223 22.6293 28.1152C22.6 27.8809 22.5707 26.2344 22.5707 24.2715V20.8379L22.8051 20.7676C23.8364 20.457 25.1957 19.502 25.893 18.5879L26.1098 18.3008H28.1957H30.2758L30.4106 18.5ZM21.3403 22.2266V23.3984H17.4086H13.477L13.3071 23.5684C13.1078 23.7676 13.0727 24.1074 13.2309 24.3301C13.4418 24.6289 13.436 24.6289 17.5317 24.6289H21.3403V25.8008V26.9727H14.4086C6.59808 26.9727 7.06683 26.9961 6.60394 26.5391C6.2055 26.1348 6.19378 26.0762 6.19378 23.9551V22.0801L6.37542 21.7578C6.51019 21.5176 6.63909 21.3887 6.86761 21.2422L7.18401 21.0547H14.2621H21.3403V22.2266Z"/>
</mask>
<path d="M7.0844 5.52734C6.32269 5.65625 5.55511 6.24805 5.2094 6.97461L5.0219 7.37305L5.00433 9.56445C4.98675 12.0957 4.99847 12.1953 5.52581 12.8926L5.81292 13.2676L5.60784 13.5137C5.49065 13.6484 5.30901 13.9297 5.2094 14.1406L5.0219 14.5215V16.8359V19.1504L5.17425 19.4727C5.25628 19.6484 5.43792 19.9355 5.57269 20.0996L5.81292 20.4102L5.57269 20.7148C5.43792 20.8848 5.25628 21.1719 5.17425 21.3477L5.0219 21.6699V23.9844V26.2988L5.2094 26.6973C5.57269 27.459 6.30511 28.0039 7.16058 28.1387C7.40667 28.1797 9.97308 28.2031 14.4672 28.2031H21.393L21.434 28.4785C21.4516 28.6367 21.5395 28.9707 21.6157 29.2285C22.02 30.5293 22.852 31.6484 23.9594 32.375C24.4926 32.7266 28.0317 34.5312 28.1899 34.5312C28.3422 34.5312 31.7524 32.8027 32.3266 32.4336C33.2407 31.8477 33.9262 31.0859 34.4067 30.1074C34.9809 28.9473 34.9575 29.1875 34.9809 24.3594C34.9985 19.4199 35.0805 19.9297 34.2426 19.6719C33.0297 19.3027 32.0805 18.6348 31.3188 17.6152C31.1489 17.3809 30.9555 17.1641 30.891 17.1289C30.8266 17.0937 30.1352 17.0703 29.1098 17.0703H27.434V15.998C27.434 14.5625 27.311 14.0996 26.7778 13.5195L26.5375 13.2617L26.7778 13.0039C27.0649 12.6934 27.2289 12.3828 27.3461 11.9316C27.4692 11.4687 27.475 7.87695 27.352 7.42578C27.0883 6.44141 26.2563 5.68555 25.266 5.52734C24.809 5.45703 7.51214 5.45703 7.0844 5.52734ZM25.4184 6.85742C25.7348 7.02734 26.0629 7.40234 26.1391 7.67773C26.1801 7.8125 26.2035 8.61523 26.2035 9.7168C26.2035 11.498 26.1977 11.5391 26.0629 11.8262C25.9164 12.1426 25.6469 12.4121 25.3422 12.541C25.184 12.6055 23.5785 12.6172 16.2016 12.6172C7.64104 12.6172 7.23675 12.6113 7.01409 12.5059C6.72698 12.377 6.48675 12.1426 6.31683 11.8262C6.19964 11.5977 6.19378 11.5215 6.19378 9.7168C6.19378 7.5957 6.2055 7.53711 6.60394 7.13281C7.06683 6.67578 6.35784 6.70508 16.3012 6.7168L25.1782 6.72851L25.4184 6.85742ZM25.4184 14.0059C25.7289 14.1699 26.0453 14.5391 26.1332 14.8379C26.1742 14.9668 26.2035 15.4766 26.2035 16.0684V17.0703H25.9047C25.7407 17.0703 25.559 17.0996 25.5004 17.1289C25.436 17.1641 25.2309 17.3926 25.0434 17.6445C24.2758 18.6465 23.4145 19.2559 22.2075 19.6543L21.6801 19.8242H14.6899C10.852 19.8242 7.58245 19.8066 7.43011 19.7891C7.00237 19.7305 6.58636 19.4434 6.37542 19.0625L6.19378 18.7402V16.8359V14.9316L6.36956 14.6211C6.56292 14.2695 6.90862 13.9941 7.26019 13.9121C7.38909 13.8828 11.2094 13.8652 16.3305 13.8652L25.1782 13.877L25.4184 14.0059ZM30.4106 18.5C30.5981 18.7695 31.2895 19.4609 31.6762 19.7598C32.1391 20.1172 32.8481 20.5039 33.3696 20.6914L33.8266 20.8496L33.8032 24.4824C33.7797 28.4316 33.7797 28.4023 33.4282 29.2578C33.1 30.0723 32.4321 30.8867 31.7172 31.3496C31.5297 31.4727 30.6508 31.9355 29.7719 32.3809L28.1664 33.1953L26.4848 32.3281C25.5356 31.8418 24.6274 31.332 24.4047 31.1621C23.4496 30.4355 22.8051 29.3223 22.6293 28.1152C22.6 27.8809 22.5707 26.2344 22.5707 24.2715V20.8379L22.8051 20.7676C23.8364 20.457 25.1957 19.502 25.893 18.5879L26.1098 18.3008H28.1957H30.2758L30.4106 18.5ZM21.3403 22.2266V23.3984H17.4086H13.477L13.3071 23.5684C13.1078 23.7676 13.0727 24.1074 13.2309 24.3301C13.4418 24.6289 13.436 24.6289 17.5317 24.6289H21.3403V25.8008V26.9727H14.4086C6.59808 26.9727 7.06683 26.9961 6.60394 26.5391C6.2055 26.1348 6.19378 26.0762 6.19378 23.9551V22.0801L6.37542 21.7578C6.51019 21.5176 6.63909 21.3887 6.86761 21.2422L7.18401 21.0547H14.2621H21.3403V22.2266Z" fill="currentColor"/>
<path d="M7.0844 5.52734C6.32269 5.65625 5.55511 6.24805 5.2094 6.97461L5.0219 7.37305L5.00433 9.56445C4.98675 12.0957 4.99847 12.1953 5.52581 12.8926L5.81292 13.2676L5.60784 13.5137C5.49065 13.6484 5.30901 13.9297 5.2094 14.1406L5.0219 14.5215V16.8359V19.1504L5.17425 19.4727C5.25628 19.6484 5.43792 19.9355 5.57269 20.0996L5.81292 20.4102L5.57269 20.7148C5.43792 20.8848 5.25628 21.1719 5.17425 21.3477L5.0219 21.6699V23.9844V26.2988L5.2094 26.6973C5.57269 27.459 6.30511 28.0039 7.16058 28.1387C7.40667 28.1797 9.97308 28.2031 14.4672 28.2031H21.393L21.434 28.4785C21.4516 28.6367 21.5395 28.9707 21.6157 29.2285C22.02 30.5293 22.852 31.6484 23.9594 32.375C24.4926 32.7266 28.0317 34.5312 28.1899 34.5312C28.3422 34.5312 31.7524 32.8027 32.3266 32.4336C33.2407 31.8477 33.9262 31.0859 34.4067 30.1074C34.9809 28.9473 34.9575 29.1875 34.9809 24.3594C34.9985 19.4199 35.0805 19.9297 34.2426 19.6719C33.0297 19.3027 32.0805 18.6348 31.3188 17.6152C31.1489 17.3809 30.9555 17.1641 30.891 17.1289C30.8266 17.0937 30.1352 17.0703 29.1098 17.0703H27.434V15.998C27.434 14.5625 27.311 14.0996 26.7778 13.5195L26.5375 13.2617L26.7778 13.0039C27.0649 12.6934 27.2289 12.3828 27.3461 11.9316C27.4692 11.4687 27.475 7.87695 27.352 7.42578C27.0883 6.44141 26.2563 5.68555 25.266 5.52734C24.809 5.45703 7.51214 5.45703 7.0844 5.52734ZM25.4184 6.85742C25.7348 7.02734 26.0629 7.40234 26.1391 7.67773C26.1801 7.8125 26.2035 8.61523 26.2035 9.7168C26.2035 11.498 26.1977 11.5391 26.0629 11.8262C25.9164 12.1426 25.6469 12.4121 25.3422 12.541C25.184 12.6055 23.5785 12.6172 16.2016 12.6172C7.64104 12.6172 7.23675 12.6113 7.01409 12.5059C6.72698 12.377 6.48675 12.1426 6.31683 11.8262C6.19964 11.5977 6.19378 11.5215 6.19378 9.7168C6.19378 7.5957 6.2055 7.53711 6.60394 7.13281C7.06683 6.67578 6.35784 6.70508 16.3012 6.7168L25.1782 6.72851L25.4184 6.85742ZM25.4184 14.0059C25.7289 14.1699 26.0453 14.5391 26.1332 14.8379C26.1742 14.9668 26.2035 15.4766 26.2035 16.0684V17.0703H25.9047C25.7407 17.0703 25.559 17.0996 25.5004 17.1289C25.436 17.1641 25.2309 17.3926 25.0434 17.6445C24.2758 18.6465 23.4145 19.2559 22.2075 19.6543L21.6801 19.8242H14.6899C10.852 19.8242 7.58245 19.8066 7.43011 19.7891C7.00237 19.7305 6.58636 19.4434 6.37542 19.0625L6.19378 18.7402V16.8359V14.9316L6.36956 14.6211C6.56292 14.2695 6.90862 13.9941 7.26019 13.9121C7.38909 13.8828 11.2094 13.8652 16.3305 13.8652L25.1782 13.877L25.4184 14.0059ZM30.4106 18.5C30.5981 18.7695 31.2895 19.4609 31.6762 19.7598C32.1391 20.1172 32.8481 20.5039 33.3696 20.6914L33.8266 20.8496L33.8032 24.4824C33.7797 28.4316 33.7797 28.4023 33.4282 29.2578C33.1 30.0723 32.4321 30.8867 31.7172 31.3496C31.5297 31.4727 30.6508 31.9355 29.7719 32.3809L28.1664 33.1953L26.4848 32.3281C25.5356 31.8418 24.6274 31.332 24.4047 31.1621C23.4496 30.4355 22.8051 29.3223 22.6293 28.1152C22.6 27.8809 22.5707 26.2344 22.5707 24.2715V20.8379L22.8051 20.7676C23.8364 20.457 25.1957 19.502 25.893 18.5879L26.1098 18.3008H28.1957H30.2758L30.4106 18.5ZM21.3403 22.2266V23.3984H17.4086H13.477L13.3071 23.5684C13.1078 23.7676 13.0727 24.1074 13.2309 24.3301C13.4418 24.6289 13.436 24.6289 17.5317 24.6289H21.3403V25.8008V26.9727H14.4086C6.59808 26.9727 7.06683 26.9961 6.60394 26.5391C6.2055 26.1348 6.19378 26.0762 6.19378 23.9551V22.0801L6.37542 21.7578C6.51019 21.5176 6.63909 21.3887 6.86761 21.2422L7.18401 21.0547H14.2621H21.3403V22.2266Z" stroke="currentColor" stroke-width="0.2" mask="url(#path-1-outside-1_1597_157968)"/>
<path d="M9.11133 9.08398C8.89453 9.125 8.68359 9.42969 8.68359 9.69922C8.68359 9.875 8.72461 9.96875 8.85352 10.1035C9.02344 10.2734 9.0293 10.2734 9.72656 10.2734C10.3828 10.2734 10.4355 10.2676 10.5762 10.1328C10.8984 9.83398 10.8105 9.29492 10.4121 9.125C10.2246 9.04883 9.43359 9.01953 9.11133 9.08398Z" fill="currentColor" fill-opacity="0.4"/>
<path d="M13.5645 9.08398C13.3477 9.125 13.1367 9.42969 13.1367 9.69922C13.1367 9.875 13.1777 9.96875 13.3066 10.1035L13.4766 10.2734H18.4277H23.373L23.5254 10.1211C23.7246 9.92187 23.7715 9.69336 23.6602 9.42969C23.4902 9.02539 23.7012 9.04297 18.4277 9.04883C15.8262 9.05469 13.6348 9.07227 13.5645 9.08398Z" fill="currentColor" fill-opacity="0.4"/>
<path d="M8.85352 16.4199C8.71875 16.5547 8.68359 16.6426 8.68359 16.8359C8.68359 17.0293 8.71875 17.1172 8.85352 17.252C9.02344 17.4219 9.0293 17.4219 9.73828 17.4219C10.4121 17.4219 10.4531 17.416 10.5879 17.2812C10.8516 17.0176 10.8516 16.6543 10.5879 16.3906C10.4531 16.2559 10.4121 16.25 9.73828 16.25C9.0293 16.25 9.02344 16.25 8.85352 16.4199Z" fill="currentColor" fill-opacity="0.4"/>
<path d="M13.3066 16.4197C13.1719 16.5544 13.1367 16.6423 13.1367 16.8357C13.1367 17.029 13.1719 17.1169 13.3066 17.2517L13.4766 17.4216H18.4219C23.8887 17.4216 23.5488 17.4451 23.6836 17.0408C23.7363 16.8884 23.7363 16.783 23.6836 16.6306C23.5488 16.2263 23.8887 16.2497 18.4219 16.2497H13.4766L13.3066 16.4197Z" fill="currentColor" fill-opacity="0.4"/>
<path d="M29.9474 23.5092C29.8713 23.5678 29.426 24.1068 28.9572 24.7104C28.4885 25.308 28.0842 25.7943 28.0607 25.8002C28.0314 25.8002 27.7385 25.6068 27.4103 25.3666C26.6955 24.851 26.6076 24.8041 26.4142 24.8041C25.9396 24.8041 25.6408 25.3139 25.8693 25.7299C25.9689 25.8998 27.8674 27.2475 28.0783 27.2943C28.4123 27.3705 28.5588 27.2299 29.7424 25.7299C30.3693 24.933 30.8967 24.2065 30.9201 24.1127C31.0314 23.5854 30.3693 23.1693 29.9474 23.5092Z" fill="currentColor" fill-opacity="0.4"/>
<path d="M8.85357 23.5688C8.54303 23.8793 8.65435 24.3715 9.07037 24.5473C9.3106 24.6469 10.0958 24.6528 10.3829 24.5532C10.7989 24.4067 10.9102 23.8618 10.5879 23.5395C10.4532 23.4047 10.4063 23.3989 9.73834 23.3989C9.02935 23.3989 9.02349 23.3989 8.85357 23.5688Z" fill="currentColor" fill-opacity="0.4"/>
</g>
<defs>
<clipPath id="clip0_1597_157968">
<rect width="30" height="30" fill="white" transform="translate(5 5)"/>
</clipPath>
</defs>
</svg>
