<svg viewBox="0 0 22 22" fill="none" xmlns="http://www.w3.org/2000/svg">
<path fill-rule="evenodd" clip-rule="evenodd" d="M13.1091 1.03821C10.9271 1.20181 9.23369 1.69462 8.53729 2.36843C8.16528 2.72843 8.17048 2.70503 8.14788 4.11645L8.12848 5.34146L6.97607 5.36746C5.80445 5.39406 5.39025 5.42746 4.51004 5.56646C2.65722 5.85907 1.4044 6.43447 1.0916 7.13668L1 7.34228L1.0014 13.1607C1.0028 19.4102 0.9932 19.1086 1.2 19.4322C1.3164 19.6146 1.68601 19.909 2.01461 20.0812C3.12982 20.6662 5.09605 20.9996 7.43287 21.0002C10.8503 21.0012 13.3039 20.3164 13.7759 19.23C13.8423 19.0772 13.8495 18.947 13.8503 17.8732L13.8511 16.6852L14.9156 16.6598C16.3804 16.6246 17.4324 16.5016 18.4996 16.2404C19.489 15.9984 20.2648 15.6392 20.6474 15.2466C21.0126 14.8718 20.9998 14.9754 20.9998 12.3833C20.9998 10.1861 20.9986 10.1485 20.9188 10.0427C20.8602 9.96471 20.8018 9.93511 20.7068 9.93511C20.4906 9.93511 20.4138 10.0787 20.4138 10.4845C20.4138 10.8085 20.4098 10.8239 20.2748 10.9885C20.1028 11.1987 19.5158 11.5155 18.9748 11.6899C17.834 12.0581 16.3022 12.2625 14.6828 12.2625H13.8501L13.8705 9.1013L14.2222 9.1123C14.702 9.1273 16.1806 9.0477 16.8004 8.9735C18.404 8.7815 19.7104 8.40649 20.3064 7.96709L20.4138 7.88789V8.38329C20.4138 8.6559 20.4308 8.9119 20.4514 8.9523C20.4722 8.9925 20.5406 9.0479 20.6036 9.0753C20.698 9.1161 20.739 9.1137 20.8348 9.0619C20.8988 9.0273 20.9622 8.9693 20.9756 8.9329C20.9888 8.8965 20.9998 7.55768 20.9998 5.95787C20.9998 2.60723 21.019 2.80083 20.6506 2.42183C20.1738 1.93142 19.3812 1.59302 18.067 1.31921C17.0432 1.10601 15.2262 0.937209 15.0982 1.04341C14.9244 1.18781 14.9324 1.46241 15.1132 1.55702C15.1606 1.58182 15.4892 1.62142 15.8438 1.64522C18.1732 1.80162 20.1234 2.39883 20.3744 3.03243C20.625 3.66464 18.8442 4.37065 16.3322 4.63465C15.6706 4.70425 13.4923 4.70325 12.8161 4.63285C10.8369 4.42725 9.3341 3.97044 8.86709 3.43244C8.69649 3.23583 8.69249 3.08703 8.85249 2.89643C9.3673 2.28342 11.1065 1.79442 13.3045 1.64462C14.0417 1.59442 14.1361 1.55722 14.1565 1.31001C14.1659 1.19361 14.1478 1.14881 14.0631 1.07921C13.9467 0.983409 13.8781 0.980609 13.1091 1.03821ZM9.9741 4.70225C10.7763 4.96705 11.5497 5.11726 12.7771 5.24666C13.5377 5.32706 15.7742 5.31446 16.5664 5.22546C17.5494 5.11506 18.3944 4.95145 19.0664 4.74185C19.4326 4.62745 20.0118 4.37565 20.2114 4.24385C20.3006 4.18505 20.3826 4.13685 20.3938 4.13685C20.405 4.13685 20.414 4.78965 20.414 5.58726V7.03788L20.256 7.21708C19.7844 7.75189 18.3108 8.20509 16.41 8.39989C15.6834 8.4743 14.2768 8.5267 14.0329 8.4887L13.8513 8.46009V7.87849C13.8513 7.33468 13.8447 7.28328 13.7501 7.08488C13.4901 6.53947 12.6785 6.09387 11.3647 5.77506C10.6573 5.60346 9.5867 5.43666 8.90969 5.39246L8.75349 5.38246L8.73189 4.14765L9.10389 4.34245C9.30849 4.44985 9.7001 4.61185 9.9741 4.70225ZM8.94869 6.01947C11.3061 6.19447 13.2633 6.87588 13.2651 7.52208C13.2659 7.87609 12.5675 8.28649 11.4489 8.5889C8.89289 9.27971 5.17485 9.2135 2.89382 8.43689C2.10581 8.16869 1.58521 7.79209 1.58521 7.49068C1.58521 7.44268 1.64921 7.32948 1.72761 7.23888C2.40242 6.45827 5.05445 5.90287 7.81588 5.96387C8.11668 5.97047 8.62649 5.99547 8.94869 6.01947ZM2.11201 8.7749C3.89543 9.63611 7.55828 9.91771 10.5305 9.42191C11.6139 9.2413 12.3125 9.0071 13.2363 8.5147C13.2523 8.5061 13.2655 9.1533 13.2655 9.95291V11.4069L13.1095 11.5839C12.4629 12.3171 10.1177 12.8341 7.43947 12.8341C4.76624 12.8341 2.48142 12.3371 1.77101 11.6011L1.58541 11.4089V8.4595L1.70201 8.5465C1.76621 8.5943 1.95081 8.6971 2.11201 8.7749ZM20.3382 14.6884C20.0822 15.1214 19.0076 15.553 17.5432 15.8106C16.6652 15.9652 15.9366 16.0262 14.8868 16.033L13.8709 16.0394L13.8505 12.8749H14.7202C16.8894 12.8741 18.8742 12.5099 20.0378 11.8987L20.3948 11.7113L20.405 13.1347C20.4148 14.4902 20.4116 14.5644 20.3382 14.6884ZM2.77882 12.8257C3.50603 13.0667 4.23964 13.2201 5.29625 13.3518C6.12226 13.4548 8.74849 13.4548 9.5543 13.3518C11.2169 13.1391 12.4555 12.7957 13.1043 12.3677L13.2653 12.2615V15.2162L13.0891 15.3928C12.5541 15.9284 11.0899 16.3622 9.16369 16.5554C8.38568 16.6334 6.29366 16.622 5.52085 16.5354C3.84343 16.3478 2.61602 16.0102 1.96881 15.5584C1.56841 15.2788 1.58541 15.3612 1.58541 13.7078L1.58521 12.2747L1.98781 12.4857C2.20921 12.6017 2.56522 12.7547 2.77882 12.8257ZM1.82521 16.1858C3.52283 17.232 8.00668 17.5618 11.1559 16.872C11.7245 16.7476 12.4879 16.4804 12.8965 16.2628L13.2653 16.0666V19.0028L13.0909 19.18C12.5669 19.7124 11.1341 20.1346 9.18309 20.3316C8.33348 20.4174 6.54266 20.417 5.66745 20.331C3.71543 20.139 2.22541 19.687 1.74341 19.14L1.58521 18.9608V17.5102C1.58521 16.7124 1.59321 16.0598 1.60301 16.0598C1.61281 16.0598 1.71281 16.1164 1.82521 16.1858Z" fill="#535862" stroke="#535862" stroke-width="0.2"/>
</svg>
