<svg width="28" height="28" viewBox="0 0 28 28" fill="none" xmlns="http://www.w3.org/2000/svg">
<path d="M15.5292 9.19995V6.54283C15.5292 4.58618 13.8537 3 11.7868 3C9.72 3 8.04449 4.58618 8.04449 6.54283V9.19995" stroke="currentColor" stroke-width="1.5" stroke-linecap="round" stroke-linejoin="round"/>
<path d="M19.4332 11.5501C19.3122 10.175 19.2517 9.48736 18.93 8.96694C18.6467 8.50866 18.2249 8.14124 17.719 7.91206C17.1444 7.6518 16.4156 7.6518 14.9579 7.6518L8.25283 7.65179C6.79517 7.65179 6.06634 7.65179 5.49179 7.91205C4.98586 8.14124 4.56405 8.50866 4.28078 8.96694C3.9591 9.48736 3.89857 10.175 3.77752 11.5501L3.12261 18.9901C2.98192 20.5883 2.91157 21.3875 3.19696 22.004C3.44769 22.5456 3.88213 22.9926 4.43147 23.2741C5.05671 23.5945 5.90378 23.5945 7.59792 23.5945L9.54912 23.5945H11.8881" stroke="currentColor" stroke-width="1.5" stroke-linecap="round" stroke-linejoin="round"/>
<path d="M25 15.0456C25 16.0158 22.5077 16.8023 19.4333 16.8023C16.3588 16.8023 13.8665 16.0158 13.8665 15.0456M25 15.0456C25 14.0755 22.5077 13.289 19.4333 13.289C16.3588 13.289 13.8665 14.0755 13.8665 15.0456M25 15.0456V23.2434C25 24.2154 22.5259 25 19.4333 25C16.3406 25 13.8665 24.2154 13.8665 23.2434V15.0456M25 19.1445C25 20.1165 22.5259 20.9011 19.4333 20.9011C16.3406 20.9011 13.8665 20.1165 13.8665 19.1445" stroke="currentColor" stroke-width="1.5" stroke-linecap="round" stroke-linejoin="round"/>
</svg>
