<svg id="Layer_1" xmlns="http://www.w3.org/2000/svg" version="1.1" viewBox="0 0 24 24" fill="none" >
  <path class="st0" d="M18.22,19.45v-9.11c0-.77-.63-1.4-1.4-1.4h-5.58c-.42,0-.81-.19-1.08-.51l-1.12-1.35c-.27-.32-.66-.51-1.08-.51h-3.58c-.77,0-1.4.63-1.4,1.4v11.47c0,.77.63,1.4,1.4,1.4h12.44c.77,0,1.4-.63,1.4-1.4Z" stroke="currentColor" />
  <path class="st0" d="M18.11,18.42h1.51c.77,0,1.4-.63,1.4-1.4V6.92c0-.77-.63-1.4-1.4-1.4h-6.58c-.42,0-.81-.19-1.08-.51l-1.12-1.35c-.27-.32-.66-.51-1.08-.51h-3.58c-.77,0-1.4.63-1.4,1.4v2.23" stroke="currentColor" />
  <circle cx="12.21" cy="18.26" r="1" fill="currentColor" />
  <circle cx="15.22" cy="18.26" r="1" fill="currentColor" />
</svg>