<svg xmlns="http://www.w3.org/2000/svg" xml:space="preserve" style="enable-background:new 0 0 512 512" viewBox="0 0 512 512"><path d="m511.676 498.752-12.8-51.2a74.345 74.345 0 0 0-48.747-52.885l-93.867-31.275c-22.891-9.536-33.365-46.4-35.627-60.395a88.703 88.703 0 0 0 31.36-57.664 17.391 17.391 0 0 1 2.581-10.987 10.665 10.665 0 0 0 7.317-6.4 159.447 159.447 0 0 0 11.435-46.613 10.254 10.254 0 0 0-.32-2.581 27.434 27.434 0 0 0-10.347-15.531v-56.555c0-34.368-10.496-48.469-21.547-56.64C339.004 33.472 321.276 0 255.996 0c-57.917 2.332-104.335 48.75-106.667 106.667v56.555a27.434 27.434 0 0 0-10.347 15.531 10.26 10.26 0 0 0-.32 2.581 159.454 159.454 0 0 0 11.435 46.635 9.067 9.067 0 0 0 6.4 6.123c1.195.597 3.435 3.691 3.435 11.243a88.683 88.683 0 0 0 31.531 57.771c-2.24 13.973-12.651 50.816-34.901 60.117l-94.699 31.445a74.346 74.346 0 0 0-48.725 52.843l-12.8 51.2c-1.449 5.71 2.005 11.514 7.715 12.963.853.217 1.73.327 2.61.328H501.33c5.891-.002 10.665-4.779 10.664-10.67a10.722 10.722 0 0 0-.318-2.58z" style="fill:#455a64"/></svg>