<svg xmlns="http://www.w3.org/2000/svg" fill="none" viewBox="0 0 24 24"><path fill="#37352F" d="M20.184 2.813H16.67v-.704C16.669.946 15.722 0 14.559 0H8.934C7.771 0 6.825.946 6.825 2.11v.703H3.309c-1.163 0-2.109.946-2.109 2.109 0 .934.61 1.728 1.453 2.004l1.254 15.14A2.122 2.122 0 0 0 6.01 24h11.474c1.089 0 2.012-.85 2.102-1.935L20.84 6.926a2.113 2.113 0 0 0 1.454-2.004c0-1.163-.947-2.11-2.11-2.11ZM8.231 2.109c0-.387.316-.703.703-.703h5.625c.388 0 .704.316.704.703v.704H8.23v-.704Zm9.954 19.84a.707.707 0 0 1-.7.645H6.01a.707.707 0 0 1-.701-.645L4.073 7.031h15.348L18.184 21.95Zm2-16.324H3.308a.704.704 0 0 1 0-1.406h16.875a.704.704 0 0 1 0 1.406Z"/><path fill="#37352F" d="M9.186 20.44 8.483 9.098a.704.704 0 0 0-1.404.087l.704 11.344a.703.703 0 1 0 1.403-.087ZM12 8.438a.703.703 0 0 0-.703.703v11.343a.703.703 0 0 0 1.406 0V9.141A.703.703 0 0 0 12 8.437ZM16.262 8.439a.704.704 0 0 0-.745.658l-.703 11.344a.703.703 0 0 0 1.403.087l.704-11.344a.703.703 0 0 0-.659-.745Z"/></svg>