<svg width="8" height="16" viewBox="0 0 8 16" fill="none" xmlns="http://www.w3.org/2000/svg">
<path d="M4.00001 10.2004C3.93026 10.2004 3.86044 10.2272 3.80719 10.2809L1.07993 13.0306C0.973358 13.1381 0.973358 13.312 1.07993 13.4194C1.18649 13.5268 1.35906 13.5269 1.46556 13.4194L4.00001 10.8641L6.53446 13.4194C6.64103 13.5269 6.8136 13.5269 6.9201 13.4194C7.0266 13.312 7.02667 13.138 6.9201 13.0306L4.19283 10.2809C4.13958 10.2272 4.06976 10.2004 4.00001 10.2004Z" fill="currentColor" stroke="currentColor" stroke-width="0.8"/>
<path d="M4.00001 5.79963C3.93026 5.79963 3.86044 5.77276 3.80719 5.71907L1.07993 2.96939C0.973358 2.86194 0.973358 2.68796 1.07993 2.58058C1.18649 2.47321 1.35906 2.47314 1.46556 2.58058L4.00001 5.13586L6.53446 2.58058C6.64103 2.47314 6.8136 2.47314 6.9201 2.58058C7.0266 2.68803 7.02667 2.86201 6.9201 2.96939L4.19283 5.71907C4.13958 5.77276 4.06976 5.79963 4.00001 5.79963Z" fill="currentColor" stroke="currentColor" stroke-width="0.8"/>
</svg>
