<svg width="16" height="16" viewBox="0 0 16 16" fill="none" xmlns="http://www.w3.org/2000/svg">
<path d="M5.86514 7.4651C5.72325 7.4651 5.58717 7.40873 5.48683 7.3084C5.3865 7.20807 5.33014 7.07199 5.33014 6.9301V5.3301C5.32293 5.25583 5.33134 5.18088 5.35482 5.11006C5.37831 5.03924 5.41634 4.97411 5.46649 4.91886C5.51664 4.86362 5.57779 4.81947 5.64601 4.78926C5.71424 4.75904 5.78802 4.74344 5.86264 4.74344C5.93725 4.74344 6.01104 4.75904 6.07926 4.78926C6.14749 4.81947 6.20864 4.86362 6.25878 4.91886C6.30893 4.97411 6.34697 5.03924 6.37045 5.11006C6.39393 5.18088 6.40234 5.25583 6.39514 5.3301V6.9301C6.39514 7.07113 6.33946 7.20645 6.24021 7.30664C6.14096 7.40683 6.00616 7.46378 5.86514 7.4651ZM8.00014 7.4651C7.85825 7.4651 7.72217 7.40873 7.62183 7.3084C7.5215 7.20807 7.46514 7.07199 7.46514 6.9301V4.8001C7.47797 4.66777 7.53962 4.54497 7.63806 4.45561C7.73651 4.36626 7.86469 4.31676 7.99764 4.31676C8.13058 4.31676 8.25877 4.36626 8.35721 4.45561C8.45565 4.54497 8.5173 4.66777 8.53014 4.8001V6.9351C8.52883 7.07526 8.47258 7.20931 8.37346 7.30842C8.27435 7.40754 8.1403 7.46379 8.00014 7.4651ZM10.1351 7.4651C9.99325 7.4651 9.85717 7.40873 9.75683 7.3084C9.6565 7.20807 9.60014 7.07199 9.60014 6.9301V3.7351C9.59293 3.66083 9.60134 3.58588 9.62482 3.51506C9.64831 3.44424 9.68634 3.37911 9.73649 3.32386C9.78664 3.26862 9.84779 3.22447 9.91601 3.19426C9.98423 3.16404 10.058 3.14844 10.1326 3.14844C10.2072 3.14844 10.281 3.16404 10.3493 3.19426C10.4175 3.22447 10.4786 3.26862 10.5288 3.32386C10.5789 3.37911 10.617 3.44424 10.6405 3.51506C10.6639 3.58588 10.6723 3.66083 10.6651 3.7351V6.9351C10.6638 7.07526 10.6076 7.20931 10.5085 7.30842C10.4093 7.40754 10.2753 7.46379 10.1351 7.4651Z" fill="currentColor"/>
<path d="M12.2651 16H3.7351C3.16886 16 2.62582 15.7751 2.22543 15.3747C1.82504 14.9743 1.6001 14.4312 1.6001 13.865V4.2C1.59949 3.80872 1.68522 3.42213 1.85115 3.06779C2.01709 2.71344 2.25916 2.40006 2.5601 2.15L4.4001 0.62C4.87886 0.221033 5.4819 0.00174642 6.1051 0L12.2651 0C12.8313 0 13.3744 0.224937 13.7748 0.625327C14.1752 1.02572 14.4001 1.56876 14.4001 2.135V13.865C14.4001 14.4312 14.1752 14.9743 13.7748 15.3747C13.3744 15.7751 12.8313 16 12.2651 16ZM6.1051 1.065C5.73934 1.07077 5.38653 1.20131 5.1051 1.435L3.2401 2.97C3.05967 3.12009 2.91458 3.30815 2.81518 3.52076C2.71579 3.73337 2.66455 3.9653 2.6651 4.2V13.865C2.66642 14.1471 2.77904 14.4172 2.97848 14.6166C3.17793 14.8161 3.44805 14.9287 3.7301 14.93H12.2651C12.5472 14.9287 12.8173 14.8161 13.0167 14.6166C13.2162 14.4172 13.3288 14.1471 13.3301 13.865V2.135C13.3288 1.85295 13.2162 1.58283 13.0167 1.38338C12.8173 1.18394 12.5472 1.07131 12.2651 1.07L6.1051 1.065Z" fill="currentColor"/>
<path d="M11.2 12.7999H4.80004C4.72577 12.8071 4.65082 12.7987 4.58 12.7752C4.50918 12.7517 4.44405 12.7137 4.3888 12.6635C4.33356 12.6134 4.28941 12.5522 4.2592 12.484C4.22899 12.4158 4.21338 12.342 4.21338 12.2674C4.21338 12.1928 4.22899 12.119 4.2592 12.0508C4.28941 11.9825 4.33356 11.9214 4.3888 11.8712C4.44405 11.8211 4.50918 11.7831 4.58 11.7596C4.65082 11.7361 4.72577 11.7277 4.80004 11.7349H11.2C11.2743 11.7277 11.3493 11.7361 11.4201 11.7596C11.4909 11.7831 11.556 11.8211 11.6113 11.8712C11.6665 11.9214 11.7107 11.9825 11.7409 12.0508C11.7711 12.119 11.7867 12.1928 11.7867 12.2674C11.7867 12.342 11.7711 12.4158 11.7409 12.484C11.7107 12.5522 11.6665 12.6134 11.6113 12.6635C11.556 12.7137 11.4909 12.7517 11.4201 12.7752C11.3493 12.7987 11.2743 12.8071 11.2 12.7999ZM11.2 10.1349H4.80004C4.66771 10.122 4.54491 10.0604 4.45555 9.96196C4.3662 9.86352 4.3167 9.73533 4.3167 9.60238C4.3167 9.46944 4.3662 9.34125 4.45555 9.24281C4.54491 9.14437 4.66771 9.08272 4.80004 9.06988H11.2C11.2743 9.06268 11.3493 9.07109 11.4201 9.09457C11.4909 9.11805 11.556 9.15609 11.6113 9.20624C11.6665 9.25639 11.7107 9.31753 11.7409 9.38576C11.7711 9.45398 11.7867 9.52777 11.7867 9.60238C11.7867 9.677 11.7711 9.75079 11.7409 9.81901C11.7107 9.88723 11.6665 9.94838 11.6113 9.99853C11.556 10.0487 11.4909 10.0867 11.4201 10.1102C11.3493 10.1337 11.2743 10.1421 11.2 10.1349Z" fill="currentColor"/>
</svg>