<svg width="18" height="20" viewBox="0 0 18 20" fill="none" xmlns="http://www.w3.org/2000/svg">
<path d="M15.8203 2.34375H12.8906V1.75781C12.8906 0.788555 12.1021 0 11.1328 0H6.44531C5.47605 0 4.6875 0.788555 4.6875 1.75781V2.34375H1.75781C0.788555 2.34375 0 3.1323 0 4.10156C0 4.88 0.508789 5.54145 1.21113 5.77191L2.25625 18.3881C2.33152 19.292 3.10098 20 4.00797 20H13.5702C14.4772 20 15.2466 19.292 15.322 18.3879L16.367 5.77187C17.0693 5.54145 17.5781 4.88 17.5781 4.10156C17.5781 3.1323 16.7896 2.34375 15.8203 2.34375ZM5.85938 1.75781C5.85938 1.43473 6.12223 1.17188 6.44531 1.17188H11.1328C11.4559 1.17188 11.7188 1.43473 11.7188 1.75781V2.34375H5.85938V1.75781ZM14.1541 18.2909C14.1289 18.5921 13.8725 18.8281 13.5702 18.8281H4.00797C3.70566 18.8281 3.44918 18.5921 3.42414 18.2911L2.3943 5.85938H15.1838L14.1541 18.2909ZM15.8203 4.6875H1.75781C1.43473 4.6875 1.17188 4.42465 1.17188 4.10156C1.17188 3.77848 1.43473 3.51562 1.75781 3.51562H15.8203C16.1434 3.51562 16.4062 3.77848 16.4062 4.10156C16.4062 4.42465 16.1434 4.6875 15.8203 4.6875Z" fill="#37352F"/>
<path d="M6.44423 17.034L5.85829 7.5809C5.83825 7.25789 5.55868 7.01222 5.23723 7.03234C4.91423 7.05238 4.66864 7.33043 4.68864 7.6534L5.27458 17.1066C5.29384 17.4172 5.5518 17.6562 5.85884 17.6562C6.19817 17.6562 6.46505 17.3705 6.44423 17.034Z" fill="#37352F"/>
<path d="M8.78906 7.03125C8.46547 7.03125 8.20312 7.29359 8.20312 7.61719V17.0703C8.20312 17.3939 8.46547 17.6562 8.78906 17.6562C9.11266 17.6562 9.375 17.3939 9.375 17.0703V7.61719C9.375 7.29359 9.11266 7.03125 8.78906 7.03125Z" fill="#37352F"/>
<path d="M12.3409 7.03239C12.0187 7.01236 11.7399 7.25794 11.7199 7.58095L11.1339 17.0341C11.114 17.357 11.3596 17.6351 11.6825 17.6551C12.0057 17.6751 12.2836 17.4294 12.3036 17.1066L12.8895 7.65345C12.9095 7.33044 12.6639 7.05239 12.3409 7.03239Z" fill="#37352F"/>
</svg>
