<svg viewBox="0 0 28 23" fill="none" xmlns="http://www.w3.org/2000/svg">
<path d="M6.04089 17.0965C0.802557 17.0965 0.125992 11.1335 4.75318 7.655C4.57857 2.27169 9.99151 -0.544199 14.3568 3.59681C17.9363 2.93425 20.0316 3.84527 21.4285 6.99244C28.5876 8.89731 27.5713 17.0965 21.6345 17.0965" stroke="currentColor" stroke-width="1" stroke-linecap="round"/>
<path d="M19.7018 20.0069V16.2868C19.7018 15.1822 18.8064 14.2868 17.7018 14.2868L15.2547 14.2867C14.6419 14.2867 14.063 14.0058 13.6837 13.5245L13.4622 13.2434C12.903 12.5336 12.0492 12.1194 11.1456 12.1194L9.66076 12.1194C8.55619 12.1194 7.66077 13.0148 7.66077 14.1194L7.66079 20.0069C7.6608 21.6358 8.98127 22.9563 10.6102 22.9563H16.7524C18.3813 22.9563 19.7018 21.6358 19.7018 20.0069Z" fill="currentColor" stroke-width="1" />
</svg>
