
<svg viewBox="0 0 16 17" fill="none" xmlns="http://www.w3.org/2000/svg">
<path d="M8 2.5V10.9C8 12.1601 8 12.7902 7.75476 13.2715C7.53905 13.6948 7.19484 14.039 6.77148 14.2548C6.29018 14.5 5.66012 14.5 4.4 14.5H4.25M4.25 14.5C4.25 15.3284 3.57843 16 2.75 16C1.92157 16 1.25 15.3284 1.25 14.5C1.25 13.6716 1.92157 13 2.75 13C3.57843 13 4.25 13.6716 4.25 14.5ZM11.75 2.5L4.25 2.5M11.75 2.5C11.75 3.32843 12.4216 4 13.25 4C14.0784 4 14.75 3.32843 14.75 2.5C14.75 1.67157 14.0784 1 13.25 1C12.4216 1 11.75 1.67157 11.75 2.5ZM4.25 2.5C4.25 3.32843 3.57843 4 2.75 4C1.92157 4 1.25 3.32843 1.25 2.5C1.25 1.67157 1.92157 1 2.75 1C3.57843 1 4.25 1.67157 4.25 2.5ZM8 8.5H4.25M4.25 8.5C4.25 9.32843 3.57843 10 2.75 10C1.92157 10 1.25 9.32843 1.25 8.5C1.25 7.67157 1.92157 7 2.75 7C3.57843 7 4.25 7.67157 4.25 8.5Z" stroke="currentColor" stroke-width="1.2" stroke-linecap="round" stroke-linejoin="round"/>
</svg>
