<svg viewBox="0 0 24 24" fill="none" xmlns="http://www.w3.org/2000/svg">
<path d="M15.1143 4.28571C15.1143 4.33867 15.0826 4.4846 14.804 4.70417C14.5322 4.91841 14.1016 5.13758 13.5161 5.33275C12.3514 5.721 10.7041 5.97143 8.85714 5.97143C7.01014 5.97143 5.36289 5.721 4.19815 5.33275C3.61264 5.13758 3.18209 4.91841 2.91025 4.70417C2.63165 4.4846 2.6 4.33867 2.6 4.28571C2.6 4.23276 2.63165 4.08682 2.91025 3.86726C3.18209 3.65302 3.61264 3.43385 4.19815 3.23868C5.36289 2.85043 7.01014 2.6 8.85714 2.6C10.7041 2.6 12.3514 2.85043 13.5161 3.23868C14.1016 3.43385 14.5322 3.65302 14.804 3.86726C15.0826 4.08682 15.1143 4.23276 15.1143 4.28571Z" stroke="currentColor" stroke-width="1.2"/>
<path d="M14.8687 7.71429C14.8687 7.72329 15.0052 7.83656 15.1437 7.71438C14.9833 7.87116 14.432 8.30077 14.0131 8.48163C13.1771 8.84259 11.9575 9.11832 10.5331 9.24253C9.11566 9.36614 7.61506 9.32926 6.27307 9.1393C4.9173 8.9474 3.20314 8.66011 2.57227 8.28572" stroke="currentColor" stroke-width="1.2"/>
<path d="M11.859 13.6458C11.0919 13.7762 10.2496 13.8559 9.38111 13.8788C8.51279 13.9017 7.6406 13.8673 6.81578 13.7782C5.99003 13.6889 5.2356 13.5473 4.5946 13.365C3.94854 13.1812 2.90381 12.5023 2.57227 12.2857" stroke="currentColor" stroke-width="1.2"/>
<path d="M11.9814 17.14C11.0755 17.3012 10.0623 17.3906 9.02407 17.3993C7.98595 17.408 6.95944 17.3356 6.02819 17.1894C5.094 17.0427 4.2981 16.8284 3.69702 16.573C3.07593 16.3092 2.76328 16.044 2.64935 15.8567" stroke="currentColor" stroke-width="1.2"/>
<path d="M2.68555 15.7143L2.68555 4.28571" stroke="currentColor" stroke-width="1.2" stroke-linecap="round"/>
<path d="M15.1426 10.5714V4.28571" stroke="currentColor" stroke-width="1.2"/>
<path d="M11.7141 11.7143L16.8569 10L21.4283 11.7143C21.4283 11.7143 22.2294 15.3457 21.4283 17.4286C20.522 19.785 16.8569 22 16.8569 22C16.8569 22 12.712 19.9235 11.7141 17.4286C10.8853 15.3566 11.7141 11.7143 11.7141 11.7143Z" stroke="currentColor" stroke-width="1.2"/>
<path d="M14.5723 15.7143L16.2866 17.4286L19.7151 14" stroke="currentColor" stroke-width="1.2" stroke-linecap="round"/>
</svg>
