<svg width="30" height="30" viewBox="0 0 30 30" fill="none" xmlns="http://www.w3.org/2000/svg">
<path d="M1.73008 10.1426L2.00007 10.2182V18.8181C2.00154 19.4893 2.44878 20.0778 3.09507 20.259L5.50003 20.9346V28C5.50003 29.1046 6.39545 30 7.49999 30H22.4999C23.6044 30 24.4998 29.1046 24.4998 28V20.9345L26.9038 20.2615C27.5507 20.0806 27.9984 19.4917 27.9998 18.82V10.2201L28.2698 10.1446C29.5292 9.7923 30.2647 8.48573 29.9124 7.22626C29.8553 7.02201 29.771 6.82636 29.6618 6.64455L27.9288 3.74459L27.9243 3.74758C27.8609 3.63772 27.7578 3.55633 27.6363 3.52006L15.541 0.0751898C15.1871 -0.0250633 14.8124 -0.0250633 14.4585 0.0751898L2.36359 3.52018C2.24206 3.55645 2.139 3.63784 2.0756 3.7477L2.07109 3.74471L0.338604 6.64467C-0.334984 7.76567 0.0277082 9.22043 1.14871 9.89401C1.33041 10.0032 1.52594 10.0875 1.73008 10.1446V10.1426ZM3.36407 19.3C3.14915 19.2393 3.00055 19.0434 3.00009 18.8201V10.5001L10.495 12.6001C11.5222 12.8873 12.6145 12.4523 13.163 11.5376L14.5 9.30662V15.0001H7.50005C6.39551 15.0001 5.50008 15.8955 5.50008 17V19.896L3.36407 19.3ZM23.4999 28C23.4999 28.5523 23.0522 29 22.4999 29H7.49999C6.94769 29 6.49998 28.5523 6.49998 28V17C6.49998 16.4477 6.94769 16 7.49999 16H22.4999C23.0522 16 23.4999 16.4477 23.4999 17V28ZM26.9999 18.8201C26.9987 19.043 26.8499 19.2381 26.6354 19.2985L24.4999 19.896V17C24.4999 15.8955 23.6045 15.0001 22.4999 15.0001H15.5V9.30662L16.8369 11.5356C17.386 12.4497 18.4774 12.8851 19.5049 12.6001L26.9999 10.5001V18.8201ZM28.8998 8.37012C28.7436 8.76627 28.4103 9.06603 27.9998 9.17959L19.2355 11.6351C18.6423 11.7998 18.0121 11.5489 17.6945 11.0216L15.7654 7.80616L27.2654 4.5857L28.8023 7.15818C29.0232 7.52374 29.0594 7.97192 28.8998 8.36819V8.37012ZM14.7315 1.03717C14.9069 0.987663 15.0926 0.987663 15.2679 1.03717L25.6599 3.99713L15 6.98164L4.34005 3.99719L14.7315 1.03717ZM1.19659 7.15765L2.73308 4.5857L14.233 7.80616L12.304 11.0216C11.9865 11.5492 11.3562 11.8001 10.763 11.6351L2.00007 9.17965C1.27264 8.97562 0.848307 8.22047 1.05239 7.49304C1.08543 7.37527 1.13354 7.26247 1.19659 7.15765Z" fill="#414651"/>
<path d="M21.5001 26.9999H21.0001V22.4999C21.0001 21.9476 20.5524 21.4999 20.0001 21.4999H19.0001C18.4478 21.4999 18.0001 21.9476 18.0001 22.4999V26.9999H17V20.5C17 19.9477 16.5523 19.5 16 19.5H15C14.4477 19.5 14 19.9477 14 20.5V26.9999H13V22.9999C13 22.4476 12.5523 21.9999 12 21.9999H11C10.4477 21.9999 9.99996 22.4476 9.99996 22.9999V26.9999H8.99995V18C8.99995 17.7238 8.77613 17.5 8.49998 17.5C8.22383 17.5 8 17.7238 8 18V26.9999C8 27.5522 8.44771 27.9999 9.00001 27.9999H21.4999C21.776 27.9999 21.9999 27.776 21.9999 27.4999C22 27.2238 21.7762 26.9999 21.5001 26.9999ZM11.0002 26.9999V22.9999H12.0002V26.9999H11.0002ZM15.0001 26.9999V20.5H16.0001V26.9999H15.0001ZM19.0001 26.9999V22.4999H20.0001V26.9999H19.0001Z" fill="#414651"/>
</svg>
