<svg viewBox="0 0 22 22" fill="none" xmlns="http://www.w3.org/2000/svg">
<path d="M11 21C16.5228 21 21 16.5228 21 11C21 5.47715 16.5228 1 11 1M11 21C5.47715 21 1 16.5228 1 11C1 5.47715 5.47715 1 11 1M11 21C8.58375 21 6.625 16.5228 6.625 11C6.625 5.47715 8.58375 1 11 1M11 21C13.4162 21 15.375 16.5228 15.375 11C15.375 5.47715 13.4162 1 11 1M2.875 15.8605C4.70703 14.8114 7.75081 14.125 11.196 14.125C14.7916 14.125 17.9501 14.8727 19.75 16M2.875 6.13954C4.70703 7.18861 7.75081 7.875 11.196 7.875C14.7916 7.875 17.9501 7.12734 19.75 6" stroke="#535862"/>
</svg>
