<svg viewBox="0 0 18 20" fill="none" xmlns="http://www.w3.org/2000/svg">
<path d="M16.2111 2.34333H13.2067V1.75833C13.2067 0.788333 12.3983 0 11.4054 0H6.598C5.60508 0 4.79672 0.788333 4.79672 1.75833V2.34333H1.79059C1.36365 2.34659 0.95172 2.49736 0.628003 2.76885C0.304286 3.04033 0.0897495 3.41496 0.0225187 3.82614C-0.0447121 4.23732 0.039717 4.65844 0.260802 5.01464C0.481888 5.37085 0.82531 5.63908 1.23004 5.77167L2.30158 18.3883C2.34116 18.8267 2.54704 19.2348 2.87894 19.5329C3.21083 19.831 3.64484 19.9975 4.09603 20H13.9023C14.832 20 15.6215 19.2917 15.6984 18.3883L16.77 5.77167C17.1747 5.63908 17.5181 5.37085 17.7392 5.01464C17.9603 4.65844 18.0447 4.23732 17.9775 3.82614C17.9102 3.41496 17.6957 3.04033 17.372 2.76885C17.0483 2.49736 16.6381 2.34659 16.2111 2.34333ZM5.99814 1.75833C5.99814 1.435 6.26646 1.17167 6.598 1.17167H11.4054C11.737 1.17167 12.0053 1.435 12.0053 1.75833V2.34333H5.99814V1.75833ZM14.5021 18.2917C14.4885 18.4376 14.4198 18.5733 14.3092 18.6725C14.1987 18.7717 14.0542 18.8273 13.904 18.8283H4.09945C3.94922 18.8273 3.80476 18.7717 3.6942 18.6725C3.58364 18.5733 3.51487 18.4376 3.5013 18.2917L2.44514 5.85833H15.5583L14.5021 18.2917ZM16.2111 4.68833H1.7923C1.63275 4.68833 1.47974 4.62652 1.36693 4.5165C1.25411 4.40648 1.19073 4.25726 1.19073 4.10167C1.19073 3.94607 1.25411 3.79685 1.36693 3.68683C1.47974 3.57681 1.63275 3.515 1.7923 3.515H16.2111C16.3707 3.515 16.5237 3.57681 16.6365 3.68683C16.7493 3.79685 16.8127 3.94607 16.8127 4.10167C16.8127 4.25726 16.7493 4.40648 16.6365 4.5165C16.5237 4.62652 16.3707 4.68833 16.2111 4.68833Z" fill="currentColor"/>
<path d="M6.71458 17.3774L6.14092 7.57239C6.12543 7.41647 6.054 7.27291 5.94151 7.17164C5.82902 7.07037 5.68414 7.0192 5.53707 7.02879C5.38999 7.03837 5.25207 7.10798 5.15203 7.2231C5.052 7.33822 4.99757 7.48998 5.00008 7.64675L5.57212 17.4553C5.58761 17.6112 5.65904 17.7547 5.77153 17.856C5.88402 17.9573 6.0289 18.0084 6.17597 17.9989C6.32305 17.9893 6.46097 17.9197 6.56101 17.8045C6.66104 17.6894 6.71548 17.5377 6.71296 17.3809L6.71458 17.3774ZM9.00113 7C8.84969 7 8.70444 7.06389 8.5972 7.17767C8.48997 7.29146 8.42951 7.44584 8.42908 7.60698V17.4155C8.43689 17.5711 8.50047 17.7176 8.60674 17.8248C8.71301 17.932 8.85387 17.9918 9.00031 17.9918C9.14675 17.9918 9.28761 17.932 9.39388 17.8248C9.50015 17.7176 9.56374 17.5711 9.57154 17.4155V7.60698C9.57111 7.44584 9.51065 7.29146 9.40342 7.17767C9.29619 7.06389 9.15256 7 9.00113 7ZM12.4626 7.00173C12.3116 6.99226 12.1633 7.0468 12.05 7.15342C11.9367 7.26003 11.8677 7.41005 11.8581 7.57066L11.286 17.3774C11.283 17.5344 11.3371 17.6866 11.437 17.8021C11.5369 17.9176 11.6749 17.9876 11.8222 17.9975C11.9694 18.0073 12.1146 17.9562 12.2273 17.8548C12.3399 17.7534 12.4115 17.6097 12.4269 17.4535L12.9989 7.64502C13.0035 7.56519 12.9933 7.48517 12.9689 7.40954C12.9444 7.33391 12.9062 7.26415 12.8564 7.20425C12.8066 7.14435 12.7462 7.09547 12.6786 7.06043C12.611 7.02538 12.5377 7.00658 12.4626 7.00173Z" fill="currentColor"/>
</svg>
