<svg viewBox="0 0 20 20" fill="none" xmlns="http://www.w3.org/2000/svg">
<path d="M10 19C14.9706 19 19 14.9706 19 10C19 5.02944 14.9706 1 10 1M10 19C5.02944 19 1 14.9706 1 10C1 5.02944 5.02944 1 10 1M10 19C7.82538 19 6.0625 14.9706 6.0625 10C6.0625 5.02944 7.82538 1 10 1M10 19C12.1746 19 13.9375 14.9706 13.9375 10C13.9375 5.02944 12.1746 1 10 1M2.6875 14.3744C4.33632 13.4302 7.07573 12.8125 10.1764 12.8125C13.4124 12.8125 16.255 13.4854 17.875 14.5M2.6875 5.62558C4.33632 6.56975 7.07573 7.1875 10.1764 7.1875C13.4124 7.1875 16.255 6.5146 17.875 5.5" stroke="#535862" stroke-width="2"/>
</svg>
