<svg viewBox="0 0 16 16" fill="none" xmlns="http://www.w3.org/2000/svg">
<path d="M6.54797 2.04037C3.64821 2.51081 1.46471 4.72011 1.05443 7.60196C0.988367 8.06543 0.988367 8.94358 1.05443 9.40704C1.44732 12.1669 3.46741 14.3205 6.21418 14.9059C6.62099 14.993 6.71139 15 7.50412 15C8.29686 15 8.38726 14.993 8.79059 14.9094C9.65634 14.7212 10.4352 14.3937 11.1375 13.9232C12.6674 12.8952 13.6965 11.2609 13.9538 9.44189C14.0129 9.02024 14.0234 8.09331 13.9712 7.66817C13.8008 6.27429 13.1263 4.9048 12.111 3.88727C11.2105 2.98124 10.091 2.37839 8.80797 2.10658C8.44985 2.02992 8.28296 2.01249 7.62582 2.00204C7.07299 1.99507 6.77397 2.00552 6.54797 2.04037ZM7.22597 3.94651V5.37872L6.61055 5.35781C5.86649 5.33342 4.99378 5.26373 4.95554 5.22888C4.91729 5.19403 5.13982 4.62951 5.338 4.25316C5.81086 3.36804 6.36022 2.81049 6.98259 2.59095C7.10775 2.54914 7.21206 2.51081 7.21902 2.51081C7.22249 2.51081 7.22597 3.15548 7.22597 3.94651ZM8.10563 2.62232C8.81145 2.89412 9.51031 3.75136 9.95536 4.87692C10.0249 5.05464 10.0701 5.21494 10.0527 5.22888C10.0145 5.26721 9.14871 5.33342 8.38379 5.35781L7.74751 5.37872V3.94302V2.51081L7.84486 2.53171C7.89702 2.54565 8.01523 2.58398 8.10563 2.62232ZM5.57095 2.97079C5.17806 3.39592 4.73302 4.18347 4.49311 4.86995C4.40271 5.12782 4.38185 5.15918 4.30535 5.15918C4.16628 5.15918 3.05366 4.96056 2.79985 4.89086C2.74421 4.87692 2.74421 4.86647 2.81375 4.77238C2.9424 4.58769 3.44655 4.07544 3.69689 3.86984C4.18366 3.47258 4.79212 3.12063 5.41797 2.87322C5.58138 2.81049 5.72742 2.75822 5.7448 2.75473C5.75871 2.75473 5.68222 2.85231 5.57095 2.97079ZM9.67373 2.90806C10.5256 3.23214 11.4365 3.88378 12.0485 4.59815C12.2188 4.80026 12.2571 4.86647 12.2188 4.88738C12.1597 4.92222 10.835 5.15918 10.7064 5.15918C10.6229 5.15918 10.6055 5.13479 10.5186 4.87344C10.2857 4.20089 9.83019 3.39941 9.43729 2.97427C9.21477 2.73034 9.21477 2.73383 9.67373 2.90806ZM3.74209 5.6122C4.14889 5.67841 4.23581 5.7028 4.21843 5.74461C4.12108 6.00248 3.94375 7.19425 3.90203 7.84938L3.87769 8.26057H2.69554H1.51338L1.53772 7.9574C1.58988 7.25001 1.78806 6.56701 2.14966 5.83522L2.39304 5.34387L2.81723 5.43796C3.05366 5.49023 3.46741 5.56689 3.74209 5.6122ZM12.9142 5.94324C13.2237 6.59488 13.4114 7.28137 13.4705 7.97831L13.4949 8.26057H12.3127H11.134L11.0923 7.70999C11.0436 7.0688 10.9741 6.57049 10.8594 6.06521C10.8142 5.8631 10.7794 5.69583 10.7829 5.69234C10.7863 5.69234 11.0784 5.64007 11.433 5.58083C11.7877 5.51811 12.1945 5.44145 12.337 5.41008L12.5978 5.34736L12.6639 5.4519C12.7021 5.51114 12.8134 5.73068 12.9142 5.94324ZM5.48751 5.82128C5.70655 5.84219 6.18985 5.86658 6.5584 5.88052L7.22597 5.90143V7.08274V8.26057H5.81782H4.40966V8.14558C4.40966 7.68908 4.54178 6.69594 4.67738 6.12445L4.76431 5.74461L4.92772 5.76552C5.01465 5.77946 5.26846 5.80385 5.48751 5.82128ZM10.2822 5.88052C10.4143 6.37535 10.5395 7.2291 10.5812 7.88423L10.6055 8.26057H9.17652H7.74751V7.08274V5.90143L8.48809 5.87703C8.89142 5.8631 9.43034 5.83173 9.6772 5.80734C9.92754 5.78295 10.157 5.75855 10.1883 5.75507C10.23 5.75158 10.2578 5.7934 10.2822 5.88052ZM3.90203 9.15614C3.94375 9.81475 4.12108 11.0065 4.21843 11.2644C4.23581 11.3062 4.13151 11.3341 3.67255 11.4073C3.35963 11.4595 2.94588 11.5397 2.74769 11.585L2.39304 11.6651L2.14966 11.1738C1.78806 10.442 1.58988 9.759 1.53772 9.0516L1.51338 8.74843H2.69554H3.87769L3.90203 9.15614ZM7.22597 9.92626V11.1076L6.52363 11.1285C6.13422 11.1424 5.58486 11.1773 5.29628 11.2052C5.01117 11.233 4.77126 11.2574 4.76778 11.2574C4.76431 11.2574 4.72258 11.0902 4.67391 10.8811C4.56612 10.4211 4.45834 9.66143 4.42705 9.13872L4.40271 8.74843H5.81434H7.22597V9.92626ZM10.5986 8.87737C10.5986 9.31644 10.4665 10.3166 10.3309 10.8846L10.2439 11.2644L10.0805 11.2435C9.71197 11.1947 9.07917 11.1529 8.43594 11.1285L7.74751 11.1076V9.92626V8.74843H9.17305H10.5986V8.87737ZM13.4705 9.0516C13.4184 9.74158 13.2167 10.4455 12.8586 11.1738L12.6152 11.6651L12.2432 11.585C12.0346 11.5397 11.6243 11.463 11.3287 11.4108C11.0332 11.362 10.7863 11.3167 10.7829 11.3167C10.7794 11.3132 10.8142 11.1459 10.8594 10.9438C10.9741 10.4385 11.0436 9.9402 11.0923 9.29553L11.134 8.74843H12.3127H13.4949L13.4705 9.0516ZM7.22597 13.066V14.4912L7.09732 14.4564C6.45062 14.2822 5.8352 13.6863 5.338 12.7558C5.18849 12.4736 4.9312 11.8638 4.9312 11.7906C4.9312 11.7697 5.16763 11.7383 5.48055 11.7139C5.77957 11.693 6.08206 11.6686 6.14812 11.6616C6.21418 11.6582 6.48538 11.6477 6.74963 11.6477L7.22597 11.6407V13.066ZM9.52074 11.7139C9.79889 11.7348 10.0388 11.7662 10.0527 11.7801C10.0701 11.7941 10.0249 11.9544 9.95536 12.1321C9.45816 13.397 8.65846 14.2856 7.84486 14.4773L7.74751 14.4982V13.066V11.6303L8.38379 11.6512C8.73148 11.6616 9.24259 11.6895 9.52074 11.7139ZM4.48963 12.1391C4.70868 12.7802 5.16415 13.5922 5.52575 13.9929C5.62658 14.1009 5.69612 14.195 5.68569 14.2055C5.61615 14.2787 4.51049 13.7351 4.04458 13.4005C3.46394 12.9824 2.67815 12.1844 2.78594 12.1216C2.81375 12.1077 3.09191 12.0485 3.40483 11.9927C4.12108 11.8603 4.12455 11.8603 4.27058 11.8533L4.39228 11.8498L4.48963 12.1391ZM11.5339 11.9753C11.7946 12.0241 12.0658 12.0763 12.1389 12.0972L12.271 12.1321L12.198 12.2366C12.0658 12.4213 11.5652 12.9336 11.3114 13.1392C10.8211 13.5399 10.2057 13.8953 9.58332 14.1358C9.41643 14.202 9.2704 14.2543 9.25649 14.2543C9.24606 14.2543 9.32603 14.1567 9.43729 14.0347C9.83366 13.6096 10.2961 12.7942 10.5186 12.1321L10.616 11.8429L10.8385 11.8638C10.9637 11.8777 11.2766 11.9265 11.5339 11.9753Z" fill="currentColor"/>
</svg>
