<svg viewBox="0 0 20 20" fill="none" xmlns="http://www.w3.org/2000/svg">
<path d="M1.39 0.0362968C0.882044 0.125025 0.370178 0.532366 0.139643 1.03247L0.0146069 1.30672L0.00288474 2.81508C-0.00883738 4.55737 -0.00102263 4.62593 0.350641 5.10587L0.542102 5.36399L0.405344 5.53337C0.327197 5.62613 0.206068 5.81972 0.139643 5.96491L0.0146069 6.22706V7.82012V9.41319L0.116199 9.63501C0.170902 9.756 0.29203 9.95362 0.3819 10.0665L0.542102 10.2803L0.3819 10.49C0.29203 10.607 0.170902 10.8046 0.116199 10.9256L0.0146069 11.1474V12.7405V14.3335L0.139643 14.6078C0.3819 15.1321 0.870321 15.5072 1.4408 15.5999C1.60491 15.6282 3.31634 15.6443 6.31329 15.6443H10.9318L10.9592 15.8338C10.9709 15.9427 11.0295 16.1726 11.0803 16.3501C11.3499 17.2454 11.9047 18.0157 12.6432 18.5158C12.9988 18.7578 15.3589 20 15.4644 20C15.5659 20 17.84 18.8102 18.223 18.5562C18.8325 18.1529 19.2897 17.6286 19.6101 16.955C19.993 16.1565 19.9774 16.3218 19.993 12.9986C20.0047 9.59871 20.0594 9.94959 19.5007 9.77213C18.6918 9.51805 18.0589 9.05828 17.5509 8.35652C17.4376 8.1952 17.3086 8.04598 17.2657 8.02178C17.2227 7.99758 16.7616 7.98145 16.0778 7.98145H14.9603V7.2434C14.9603 6.25529 14.8783 5.93668 14.5227 5.53741L14.3625 5.35995L14.5227 5.1825C14.7141 4.96874 14.8235 4.75499 14.9017 4.44444C14.9838 4.12583 14.9877 1.65356 14.9056 1.34301C14.7298 0.665457 14.1749 0.145191 13.5146 0.0362968C13.2098 -0.0120983 1.67524 -0.0120983 1.39 0.0362968ZM13.6162 0.951805C13.8272 1.06876 14.046 1.32688 14.0968 1.51644C14.1241 1.6092 14.1398 2.16173 14.1398 2.91994C14.1398 4.146 14.1359 4.17423 14.046 4.37185C13.9483 4.58963 13.7686 4.77516 13.5654 4.86388C13.4599 4.90825 12.3893 4.91631 7.46987 4.91631C1.7612 4.91631 1.49159 4.91228 1.34311 4.83969C1.15165 4.75096 0.99145 4.58963 0.878136 4.37185C0.799989 4.21456 0.796081 4.16213 0.796081 2.91994C0.796081 1.45997 0.803896 1.41964 1.0696 1.14136C1.37828 0.82678 0.905488 0.846945 7.5363 0.855011L13.456 0.863077L13.6162 0.951805ZM13.6162 5.87215C13.8233 5.98508 14.0343 6.23916 14.0929 6.44485C14.1202 6.53358 14.1398 6.88445 14.1398 7.29179V7.98145H13.9405C13.8311 7.98145 13.7099 8.00161 13.6709 8.02178C13.6279 8.04598 13.4911 8.20327 13.3661 8.37669C12.8542 9.06634 12.2798 9.48578 11.4749 9.76003L11.1233 9.87699H6.46177C3.90244 9.87699 1.72213 9.86489 1.62054 9.85279C1.3353 9.81246 1.05788 9.61484 0.91721 9.35269L0.796081 9.13087V7.82012V6.50938L0.913303 6.29562C1.04225 6.05364 1.27278 5.86409 1.50722 5.80762C1.59319 5.78746 4.14079 5.77536 7.55584 5.77536L13.456 5.78342L13.6162 5.87215ZM16.9453 8.96552C17.0703 9.15104 17.5314 9.62694 17.7892 9.83263C18.0979 10.0786 18.5707 10.3448 18.9185 10.4739L19.2233 10.5828L19.2076 13.0833C19.192 15.8016 19.192 15.7814 18.9576 16.3702C18.7387 16.9308 18.2933 17.4914 17.8166 17.81C17.6916 17.8947 17.1055 18.2133 16.5193 18.5199L15.4487 19.0805L14.3273 18.4836C13.6943 18.1488 13.0887 17.7979 12.9402 17.681C12.3033 17.1809 11.8735 16.4146 11.7563 15.5838C11.7367 15.4225 11.7172 14.2892 11.7172 12.9381V10.5747L11.8735 10.5263C12.5612 10.3126 13.4677 9.65517 13.9327 9.02601L14.0772 8.82839H15.4683H16.8554L16.9453 8.96552ZM10.8966 11.5306V12.3372H8.27479H5.65295L5.53963 12.4541C5.40678 12.5912 5.38334 12.8252 5.48884 12.9784C5.6295 13.1841 5.62559 13.1841 8.35685 13.1841H10.8966V13.9907V14.7973H6.27422C1.06569 14.7973 1.37828 14.8135 1.0696 14.4989C0.803896 14.2206 0.796081 14.1803 0.796081 12.7203V11.4297L0.91721 11.2079C1.00708 11.0425 1.09304 10.9538 1.24543 10.853L1.45643 10.7239H6.17653H10.8966V11.5306Z" fill="#535862"/>
<path d="M2.74178 2.48451C2.59721 2.51274 2.45654 2.72246 2.45654 2.90798C2.45654 3.02897 2.48389 3.0935 2.56986 3.18626C2.68317 3.30322 2.68708 3.30322 3.15206 3.30322C3.58968 3.30322 3.62485 3.29919 3.71862 3.20643C3.93353 3.00074 3.87492 2.6297 3.60922 2.51274C3.48418 2.46031 2.95669 2.44015 2.74178 2.48451Z" fill="#535862"/>
<path d="M5.71151 2.48451C5.56693 2.51274 5.42627 2.72246 5.42627 2.90798C5.42627 3.02897 5.45362 3.0935 5.53958 3.18626L5.6529 3.30322H8.95463H12.2524L12.354 3.19836C12.4869 3.06124 12.5181 2.90395 12.4439 2.72246C12.3306 2.44418 12.4713 2.45628 8.95463 2.46031C7.21975 2.46434 5.7584 2.47644 5.71151 2.48451Z" fill="#535862"/>
<path d="M2.56986 7.53398C2.47999 7.62674 2.45654 7.68723 2.45654 7.82033C2.45654 7.95342 2.47999 8.01391 2.56986 8.10667C2.68317 8.22363 2.68708 8.22363 3.15987 8.22363C3.60922 8.22363 3.63657 8.2196 3.72644 8.12684C3.90227 7.94535 3.90227 7.6953 3.72644 7.51381C3.63657 7.42105 3.60922 7.41702 3.15987 7.41702C2.68708 7.41702 2.68317 7.41702 2.56986 7.53398Z" fill="#535862"/>
<path d="M5.53958 7.5338C5.44971 7.62656 5.42627 7.68706 5.42627 7.82015C5.42627 7.95324 5.44971 8.01374 5.53958 8.1065L5.6529 8.22346H8.95072C12.5963 8.22346 12.3697 8.23959 12.4595 7.96131C12.4947 7.85645 12.4947 7.78385 12.4595 7.67899C12.3697 7.40071 12.5963 7.41684 8.95072 7.41684H5.6529L5.53958 7.5338Z" fill="#535862"/>
<path d="M16.6365 12.4138C16.5857 12.4541 16.2887 12.8251 15.9761 13.2405C15.6636 13.6519 15.3939 13.9867 15.3783 13.9907C15.3588 13.9907 15.1634 13.8576 14.9446 13.6922C14.4679 13.3373 14.4093 13.3051 14.2803 13.3051C13.9638 13.3051 13.7646 13.6559 13.917 13.9423C13.9834 14.0592 15.2494 14.9869 15.39 15.0191C15.6128 15.0715 15.7104 14.9748 16.4997 13.9423C16.9178 13.3938 17.2695 12.8937 17.2851 12.8292C17.3594 12.4662 16.9178 12.1798 16.6365 12.4138Z" fill="#535862"/>
<path d="M2.57022 12.4541C2.36313 12.6679 2.43737 13.0067 2.71479 13.1277C2.875 13.1962 3.39858 13.2003 3.59005 13.1317C3.86747 13.0309 3.94171 12.6558 3.7268 12.434C3.63693 12.3412 3.60567 12.3372 3.16023 12.3372C2.68744 12.3372 2.68354 12.3372 2.57022 12.4541Z" fill="#535862"/>
</svg>
