<svg width="50" height="50" viewBox="0 0 50 50" fill="none" xmlns="http://www.w3.org/2000/svg">
<g clip-path="url(#clip0_9681_52109)">
<path d="M45.8334 16.4032V31.3691C45.8325 31.732 45.7132 32.0847 45.4936 32.3736C45.274 32.6626 44.9661 32.8719 44.6167 32.9699L25.9 38.2116C25.3115 38.3774 24.6886 38.3774 24.1 38.2116L5.38335 32.9699C5.03392 32.8719 4.72602 32.6626 4.50643 32.3736C4.28683 32.0847 4.16754 31.732 4.16669 31.3691V16.4032L25 10.0007L45.8334 16.4032Z" fill="#BA8A5A"/>
<path d="M45.8334 6.66748L48.7217 11.5008C48.968 11.9118 49.1161 12.3741 49.1545 12.8517C49.193 13.3293 49.1207 13.8094 48.9433 14.2545C48.7659 14.6996 48.4882 15.0977 48.1318 15.418C47.7753 15.7382 47.3498 15.9719 46.8884 16.1008L32.2834 20.1958C31.6265 20.3798 30.9273 20.3428 30.2935 20.0904C29.6597 19.838 29.1265 19.3843 28.7759 18.7991L25 12.5008L21.2242 18.7975C20.8736 19.3827 20.3403 19.8364 19.7065 20.0887C19.0728 20.3411 18.3736 20.3781 17.7167 20.1941L3.10836 16.1033C2.64688 15.9744 2.22138 15.7407 1.86497 15.4205C1.50855 15.1002 1.23084 14.7021 1.05345 14.257C0.876051 13.8119 0.803756 13.3318 0.842187 12.8542C0.880619 12.3766 1.02874 11.9143 1.27502 11.5033L4.16669 6.66748H45.8334Z" fill="#D39F71"/>
<path d="M4.16669 6.6674L25 12.5007L45.8334 6.6674L25.675 0.928231C25.2337 0.80322 24.7663 0.80322 24.325 0.928231L4.16669 6.6674Z" fill="#A5754A"/>
<path d="M37.5 25.834H12.5C11.1193 25.834 10 26.9533 10 28.334V46.6673C10 48.048 11.1193 49.1673 12.5 49.1673H37.5C38.8807 49.1673 40 48.048 40 46.6673V28.334C40 26.9533 38.8807 25.834 37.5 25.834Z" fill="#E1EFFF"/>
<path d="M18.3333 37.5007H20C20.221 37.5007 20.433 37.5885 20.5893 37.7448C20.7455 37.9011 20.8333 38.1131 20.8333 38.3341V45.8341H17.5V38.3341C17.5 38.1131 17.5878 37.9011 17.7441 37.7448C17.9004 37.5885 18.1123 37.5007 18.3333 37.5007Z" fill="#4AB591"/>
<path d="M26.6667 33.334H25C24.779 33.334 24.567 33.4218 24.4108 33.5781C24.2545 33.7343 24.1667 33.9463 24.1667 34.1673V45.834H27.5V34.1673C27.5 33.9463 27.4122 33.7343 27.2559 33.5781C27.0997 33.4218 26.8877 33.334 26.6667 33.334Z" fill="#4184A9"/>
<path d="M31.6666 36.6675H33.3333C33.5543 36.6675 33.7663 36.7553 33.9226 36.9116C34.0788 37.0678 34.1666 37.2798 34.1666 37.5008V45.8341H30.8333V37.5008C30.8333 37.2798 30.9211 37.0678 31.0774 36.9116C31.2337 36.7553 31.4456 36.6675 31.6666 36.6675Z" fill="#CD4C60"/>
<path d="M24.1667 25.834V13.894L25 12.5032L25.8334 13.894V25.834H24.1667Z" fill="#A5754A"/>
<path d="M35.8333 46.6675H15C14.558 46.6675 14.134 46.4919 13.8215 46.1793C13.5089 45.8668 13.3333 45.4428 13.3333 45.0008V30.0008C13.3333 29.7798 13.4211 29.5678 13.5774 29.4116C13.7337 29.2553 13.9456 29.1675 14.1666 29.1675C14.3877 29.1675 14.5996 29.2553 14.7559 29.4116C14.9122 29.5678 15 29.7798 15 30.0008V45.0008H35.8333C36.0543 45.0008 36.2663 45.0886 36.4226 45.2449C36.5789 45.4012 36.6666 45.6131 36.6666 45.8341C36.6666 46.0552 36.5789 46.2671 36.4226 46.4234C36.2663 46.5797 36.0543 46.6675 35.8333 46.6675Z" fill="#9EBBCE"/>
</g>
<defs>
<clipPath id="clip0_9681_52109">
<rect width="50" height="50" fill="white" transform="translate(0 0.000732422)"/>
</clipPath>
</defs>
</svg>
