<svg viewBox="0 0 26 27" fill="none" xmlns="http://www.w3.org/2000/svg">
<path d="M14.1418 7.75V4.75C14.1418 2.54086 12.351 0.75 10.1418 0.75C7.93271 0.75 6.14185 2.54086 6.14185 4.75V7.75" stroke="currentColor" stroke-width="1.5" stroke-linecap="round" stroke-linejoin="round"/>
<path d="M18.3146 10.4034C18.1852 8.85081 18.1205 8.07449 17.7767 7.48692C17.4739 6.9695 17.0231 6.55466 16.4823 6.29591C15.8682 6.00206 15.0892 6.00206 13.5312 6.00206L6.36447 6.00206C4.80645 6.00206 4.02745 6.00206 3.41335 6.2959C2.87257 6.55466 2.42173 6.9695 2.11896 7.48692C1.77513 8.07449 1.71043 8.85081 1.58105 10.4034L0.881049 18.8034C0.730672 20.608 0.655483 21.5102 0.960515 22.2062C1.22852 22.8178 1.69286 23.3224 2.28002 23.6403C2.9483 24.0021 3.85369 24.0021 5.66447 24.0021L7.75 24.0021H10.25" stroke="currentColor" stroke-width="1.5" stroke-linecap="round" stroke-linejoin="round"/>
<path d="M24.2646 14.35C24.2646 15.4454 21.6007 16.3334 18.3146 16.3334C15.0285 16.3334 12.3646 15.4454 12.3646 14.35M24.2646 14.35C24.2646 13.2547 21.6007 12.3667 18.3146 12.3667C15.0285 12.3667 12.3646 13.2547 12.3646 14.35M24.2646 14.35V23.6056C24.2646 24.703 21.6202 25.5889 18.3146 25.5889C15.0091 25.5889 12.3646 24.703 12.3646 23.6056V14.35M24.2646 18.9778C24.2646 20.0752 21.6202 20.9611 18.3146 20.9611C15.0091 20.9611 12.3646 20.0752 12.3646 18.9778" stroke="currentColor" stroke-width="1.5" stroke-linecap="round" stroke-linejoin="round"/>
</svg>
