<svg width="40" height="40" viewBox="0 0 39 39" fill="none" xmlns="http://www.w3.org/2000/svg">
<rect width="39" height="39" rx="6" fill="#E4FBF2"/>
<g clip-path="url(#clip0_7108_2457)">
<path d="M23.9652 7.86956C23.4129 7.86956 22.9816 8.32982 22.799 8.85102C22.3934 10.0084 21.2909 10.8391 19.9957 10.8391C18.7004 10.8391 17.5979 10.0084 17.1923 8.85102C17.0097 8.32982 16.5784 7.86956 16.0261 7.86956H14.0391C12.8391 7.86956 11.8652 8.84348 11.8652 10.0435V27.9565C11.8652 29.1565 12.8391 30.1304 14.0391 30.1304H16.0261C16.5784 30.1304 17.0097 29.6702 17.1923 29.149C17.5979 27.9916 18.7004 27.1609 19.9957 27.1609C21.2909 27.1609 22.3934 27.9916 22.799 29.149C22.9816 29.6702 23.4129 30.1304 23.9652 30.1304H25.9522C27.1522 30.1304 28.1261 29.1565 28.1261 27.9565V10.0435C28.1261 8.84348 27.1522 7.86956 25.9522 7.86956H23.9652Z" fill="#A7EBD0"/>
<path d="M17.5 19.0328L19.1206 21.14L23.2664 17" stroke="#137C50" stroke-width="1.5" stroke-linecap="round" stroke-linejoin="round"/>
</g>
<defs>
<clipPath id="clip0_7108_2457">
<rect width="17.9957" height="24" fill="white" transform="translate(11 7)"/>
</clipPath>
</defs>
</svg>
