<svg xmlns="http://www.w3.org/2000/svg" fill="none" viewBox="0 0 16 16"><path fill="currentColor" stroke="currentColor" stroke-width=".05" d="M13.046 6.708a.479.479 0 0 0-.478.478v6.651c0 .403-.328.731-.73.731H2.162a.732.732 0 0 1-.731-.73V4.162c0-.403.328-.731.73-.731h6.652a.478.478 0 0 0 0-.957H2.163A1.69 1.69 0 0 0 .475 4.163v9.674c0 .93.757 1.688 1.688 1.688h9.674a1.69 1.69 0 0 0 1.688-1.688v-6.65a.478.478 0 0 0-.479-.48Z"/><path fill="currentColor" d="M15.181 1.704 14.298.82a1.095 1.095 0 0 0-1.547 0L5.679 7.89a.47.47 0 0 0-.128.24l-.442 2.21a.469.469 0 0 0 .552.551l2.21-.442a.47.47 0 0 0 .24-.128l7.07-7.071a1.095 1.095 0 0 0 0-1.547ZM7.548 9.559l-1.382.276.277-1.381 5.755-5.756 1.105 1.105L7.548 9.56Zm6.97-6.971-.552.552-1.105-1.105.553-.552c.06-.061.16-.061.22 0l.884.884c.061.06.061.16 0 .22Z"/></svg>