<svg width="16" height="16" viewBox="0 0 16 16" fill="none" xmlns="http://www.w3.org/2000/svg">
<g clip-path="url(#clip0_13519_22989)">
<mask id="mask0_13519_22989" style="mask-type:luminance" maskUnits="userSpaceOnUse" x="0" y="0" width="16" height="16">
<path d="M16 0H0V16H16V0Z" fill="white"/>
</mask>
<g mask="url(#mask0_13519_22989)">
<path d="M8 0C3.58879 0 0 3.58879 0 8C0 12.4112 3.58879 16 8 16C12.4111 16 16 12.4111 16 8C16 3.58887 12.4111 0 8 0ZM12.5051 6.57537L6.74413 12.3361C6.66655 12.4137 6.56867 12.4673 6.46148 12.4908L3.55454 13.1279C3.51434 13.1367 3.47311 13.1413 3.43196 13.1413C3.28012 13.1413 3.13419 13.0807 3.02674 12.9733C2.88862 12.8351 2.83024 12.6361 2.87204 12.4453L3.50916 9.53848C3.53263 9.43145 3.58616 9.33333 3.66367 9.25583L9.42463 3.4951C9.83599 3.08378 10.3832 2.85871 10.9649 2.85871C11.5465 2.85871 12.0937 3.08378 12.5051 3.4951C13.3544 4.3443 13.3543 5.72617 12.5051 6.57537ZM8.89869 5.64193L10.3582 7.1015L6.0523 11.407L4.18331 11.8167L4.59296 9.94789L8.89869 5.64193ZM11.6946 4.3052C12.097 4.70765 12.0969 5.36248 11.6946 5.76492L11.1687 6.29109L9.70918 4.83137L10.2351 4.30524C10.4298 4.1105 10.6897 4.00491 10.9649 4.00491C11.24 4.00488 11.5 4.1105 11.6946 4.3052Z" fill="#6B7280"/>
<path fill-rule="evenodd" clip-rule="evenodd" d="M12.5051 6.57537L6.74413 12.3361C6.66655 12.4137 6.56867 12.4673 6.46148 12.4908L3.55454 13.1279C3.51434 13.1367 3.47311 13.1413 3.43196 13.1413C3.28012 13.1413 3.13419 13.0807 3.02674 12.9733C2.88862 12.8351 2.83024 12.6361 2.87204 12.4453L3.50916 9.53848C3.53263 9.43145 3.58616 9.33333 3.66367 9.25583L9.42463 3.4951C9.83599 3.08378 10.3832 2.85871 10.9649 2.85871C11.5465 2.85871 12.0937 3.08378 12.5051 3.4951C13.3544 4.3443 13.3543 5.72617 12.5051 6.57537ZM10.3582 7.1015L8.89869 5.64193L4.59296 9.94789L4.18331 11.8167L6.0523 11.407L10.3582 7.1015ZM11.6946 5.76492C12.0969 5.36248 12.097 4.70765 11.6946 4.3052C11.5 4.1105 11.24 4.00488 10.9649 4.00491C10.6897 4.00491 10.4298 4.1105 10.2351 4.30524L9.70918 4.83137L11.1687 6.29109L11.6946 5.76492Z" fill="white"/>
</g>
</g>
<defs>
<clipPath id="clip0_13519_22989">
<rect width="16" height="16" fill="white"/>
</clipPath>
</defs>
</svg>