<svg xmlns="http://www.w3.org/2000/svg" width="18" height="18" fill="none"><path fill="#fff" fill-rule="evenodd" d="M15.54 0a2.46 2.46 0 0 1 1.74 4.201L8.811 12.67a.642.642 0 0 1-.252.155L4.703 14.11a.652.652 0 0 1-.406 0 .643.643 0 0 1-.407-.813L5.176 9.44a.65.65 0 0 1 .155-.252L13.8.721A2.443 2.443 0 0 1 15.539 0ZM8.012 11.65l8.357-8.357a1.17 1.17 0 0 0 0-1.658 1.176 1.176 0 0 0-1.662-.002L6.348 9.99l-.832 2.494 2.497-.834Zm6.13-2.007a.643.643 0 0 1 1.286 0v6.428a1.929 1.929 0 0 1-1.929 1.93H1.929A1.929 1.929 0 0 1 0 16.07V3.215C0 2.15.863 1.286 1.929 1.286h7.714a.643.643 0 1 1 0 1.285H1.929a.643.643 0 0 0-.643.643v12.858c0 .355.288.642.643.642H13.5a.643.643 0 0 0 .643-.642V9.643Z" clip-rule="evenodd"/></svg>