
<svg viewBox="0 0 14 14" fill="none" xmlns="http://www.w3.org/2000/svg">
<path d="M7 1V13M7 1H11.6667C12.0203 1 12.3594 1.14048 12.6095 1.39052C12.8595 1.64057 13 1.97971 13 2.33333V11.6667C13 12.0203 12.8595 12.3594 12.6095 12.6095C12.3594 12.8595 12.0203 13 11.6667 13H7V1ZM7 1H2.33333C1.97971 1 1.64057 1.14048 1.39052 1.39052C1.14048 1.64057 1 1.97971 1 2.33333V11.6667C1 12.0203 1.14048 12.3594 1.39052 12.6095C1.64057 12.8595 1.97971 13 2.33333 13H7V1Z" stroke="currentColor" stroke-width="1.33333" stroke-linecap="round" stroke-linejoin="round"/>
</svg>
