<svg viewBox="0 0 20 20" fill="none" xmlns="http://www.w3.org/2000/svg">
<g clip-path="url(#clip0_6441_9644)">
<path d="M17.0191 9.75553C17.077 9.7504 17.1349 9.74759 17.1932 9.74709C18.0289 9.7434 18.3907 10.2303 18.9296 10.7618C19.4584 11.2843 20.0048 11.7218 20.0002 12.5396C19.9958 13.2935 19.5686 13.6885 19.0817 14.1728L18.1394 15.0978L14.4099 18.8232C14.1737 19.0622 13.4589 19.8261 13.1932 19.9403C13.0579 19.9985 12.9209 19.9955 12.7767 19.9963C11.9996 19.9855 11.2064 20.0117 10.4293 19.986C10.3091 19.982 10.1725 19.9174 10.0746 19.8492C9.91943 19.7428 9.8143 19.5777 9.7833 19.3919C9.7578 19.235 9.76499 18.9772 9.76486 18.8088L9.76468 17.8981L9.76499 17.17C9.76493 17.0229 9.75899 16.8598 9.77574 16.7153C9.81036 16.4173 10.0384 16.2297 10.2386 16.0323C10.3762 15.8965 10.517 15.7617 10.6538 15.6241L12.3495 13.9235L14.0637 12.206C14.5436 11.7172 14.9889 11.228 15.4976 10.7613C16.0694 10.2367 16.1646 9.88953 17.0191 9.75553ZM11.2419 17.1283C11.2096 17.5827 11.2458 18.0617 11.2243 18.5171C11.5306 18.522 11.837 18.524 12.1432 18.523C12.2628 18.5228 12.5066 18.5279 12.6196 18.5123C12.7254 18.4343 13.1011 18.0438 13.2111 17.934L14.3987 16.7522L16.008 15.1541C16.2089 14.9519 16.4498 14.7313 16.6336 14.5221C16.6201 14.4535 15.3335 13.1379 15.2396 13.0917L12.4339 15.913L11.6345 16.7075C11.5324 16.8099 11.3182 17.0162 11.2419 17.1283ZM17.7075 13.4517C17.8431 13.386 18.2729 12.8645 18.4301 12.7455C18.4872 12.7023 18.5682 12.5403 18.517 12.4725C18.4803 12.4238 18.4439 12.3473 18.394 12.3043C18.0685 11.9654 17.7422 11.6237 17.3999 11.3022C17.3303 11.2368 17.2489 11.2254 17.1579 11.227C17.1161 11.2444 17.0762 11.2631 17.0401 11.291C16.907 11.3936 16.3685 11.9142 16.3141 12.0374C16.308 12.0515 16.3129 12.0623 16.3201 12.076C16.3809 12.1895 17.5544 13.3272 17.7075 13.4517Z" fill="currentColor"/>
<path d="M7.3925 0.00429265C9.68012 -0.0989644 11.6176 1.6732 11.7184 3.96094C11.8192 6.24869 10.0449 8.18431 7.75706 8.28256C5.47273 8.38069 3.54073 6.60975 3.44012 4.32554C3.33952 2.0413 5.10836 0.107373 7.3925 0.00429265ZM7.78462 6.81175C9.25806 6.69881 10.3612 5.41311 10.2489 3.93963C10.1365 2.46614 8.85131 1.3625 7.37775 1.4742C5.90333 1.58598 4.79889 2.87214 4.91128 4.34651C5.02367 5.82088 6.31031 6.92475 7.78462 6.81175Z" fill="currentColor"/>
<path d="M5.52537 9.74371C5.52679 9.74365 5.5282 9.74365 5.52962 9.74358C6.44819 9.73146 7.36806 9.74065 8.28681 9.74077C8.87838 9.7409 9.48506 9.7119 10.0741 9.76127C10.5061 9.7974 11.6236 9.9469 11.9241 10.245C12.071 10.3906 12.1584 10.5654 12.1569 10.7736C12.1556 10.9786 12.0724 11.1521 11.9264 11.2941C11.5116 11.6971 10.9962 11.3821 10.5229 11.289C10.2661 11.2385 9.97262 11.2259 9.70963 11.2215C8.73531 11.2054 7.75844 11.22 6.78388 11.22L5.80088 11.2183C5.36143 11.2163 4.87313 11.2031 4.44216 11.3058C3.76277 11.4621 3.13986 11.8032 2.64234 12.2915C1.89479 13.0096 1.47012 13.9999 1.46526 15.0366C1.44944 16.946 2.06326 17.6024 3.98269 17.5498C4.08071 17.5471 4.19404 17.5498 4.29383 17.5496L6.578 17.5491C6.82413 17.5491 7.50369 17.5341 7.71731 17.572C7.84588 17.5943 7.96519 17.6535 8.06075 17.7423C8.439 18.0878 8.36044 18.6463 7.94088 18.9126C7.80594 18.9982 7.6615 19.0244 7.50387 19.0253C6.762 19.0301 6.01957 19.027 5.2777 19.0271L4.18114 19.0279C3.07053 19.0283 1.8425 18.9456 1.0147 18.1257C-0.709643 16.4181 -0.0278056 12.9135 1.50586 11.3087C2.58983 10.1745 4.03402 9.78346 5.52537 9.74371Z" fill="currentColor"/>
</g>
<defs>
<clipPath id="clip0_6441_9644">
<rect fill="white" width="20" height="20"/>
</clipPath>
</defs>
</svg>
