
<svg viewBox="0 0 20 20" fill="none" xmlns="http://www.w3.org/2000/svg">
<mask id="mask0_2934_24322" style="mask-type:luminance" maskUnits="userSpaceOnUse" x="3" y="3" width="14" height="14">
<path d="M3 3H17V17H3V3Z" fill="white"/>
</mask>
<g mask="url(#mask0_2934_24322)">
<path d="M4.72262 12.9178C4.62256 12.918 4.52471 12.8884 4.44148 12.8329C4.35825 12.7773 4.2934 12.6983 4.25515 12.6059C4.2169 12.5134 4.20698 12.4117 4.22665 12.3136C4.24632 12.2155 4.29469 12.1254 4.36562 12.0548L12.2586 4.16183C12.3051 4.11321 12.3608 4.07438 12.4226 4.0476C12.4843 4.02082 12.5507 4.00664 12.618 4.00589C12.6852 4.00514 12.752 4.01783 12.8142 4.04323C12.8765 4.06862 12.9331 4.10621 12.9807 4.15377C13.0282 4.20133 13.0658 4.25792 13.0912 4.32021C13.1166 4.3825 13.1293 4.44923 13.1286 4.51649C13.1278 4.58376 13.1136 4.65019 13.0869 4.7119C13.0601 4.7736 13.0212 4.82934 12.9726 4.87583L5.07962 12.7698C5.03278 12.8168 4.97713 12.854 4.91587 12.8794C4.85461 12.9048 4.78894 12.9179 4.72262 12.9178Z" fill="#757575"/>
<path d="M3.94299 16.5651C3.86759 16.5653 3.79311 16.5486 3.72502 16.5162C3.65693 16.4838 3.59698 16.4366 3.54957 16.378C3.50217 16.3193 3.46853 16.2508 3.45112 16.1775C3.43371 16.1041 3.43298 16.0278 3.44899 15.9541L4.22899 12.3161C4.2571 12.1851 4.33611 12.0706 4.44863 11.9978C4.56115 11.9251 4.69797 11.9 4.82899 11.9281C4.96001 11.9562 5.07449 12.0352 5.14725 12.1477C5.22002 12.2603 5.2451 12.3971 5.21699 12.5281L4.43699 16.1661C4.41273 16.2791 4.35045 16.3803 4.26055 16.4529C4.17065 16.5256 4.05856 16.5651 3.94299 16.5651ZM7.57999 15.7851C7.47971 15.7857 7.38152 15.7565 7.29798 15.701C7.21443 15.6455 7.14933 15.5664 7.111 15.4738C7.07267 15.3811 7.06285 15.2791 7.0828 15.1808C7.10275 15.0826 7.15156 14.9925 7.22299 14.9221L15.116 7.02909C15.2107 6.93427 15.3391 6.88095 15.4731 6.88086C15.6071 6.88077 15.7357 6.93391 15.8305 7.02859C15.9253 7.12327 15.9786 7.25174 15.9787 7.38573C15.9788 7.51973 15.9257 7.64827 15.831 7.74309L7.93699 15.6361C7.89023 15.6832 7.83462 15.7206 7.77335 15.7462C7.71209 15.7718 7.64638 15.785 7.57999 15.7851Z" fill="#757575"/>
<path d="M3.94185 16.5631C3.81608 16.5646 3.69425 16.5192 3.60023 16.4356C3.5062 16.3521 3.44674 16.2364 3.43348 16.1113C3.42022 15.9863 3.45412 15.8607 3.52854 15.7593C3.60296 15.6579 3.71255 15.5879 3.83585 15.5631L7.47385 14.7831C7.60487 14.755 7.74169 14.78 7.85421 14.8528C7.96673 14.9256 8.04574 15.0401 8.07385 15.1711C8.10197 15.3021 8.07688 15.4389 8.00412 15.5514C7.93135 15.6639 7.81687 15.743 7.68585 15.7711L4.04785 16.5511C4.01303 16.5586 3.97748 16.5633 3.94185 16.5631ZM14.0439 9.31707C13.9775 9.31715 13.9118 9.30412 13.8506 9.27872C13.7893 9.25332 13.7337 9.21606 13.6869 9.16907L10.8299 6.31207C10.7812 6.26558 10.7424 6.20984 10.7156 6.14814C10.6888 6.08643 10.6747 6.02 10.6739 5.95273C10.6732 5.88547 10.6859 5.81874 10.7113 5.75645C10.7366 5.69416 10.7742 5.63757 10.8218 5.59001C10.8694 5.54245 10.9259 5.50486 10.9882 5.47947C11.0505 5.45407 11.1173 5.44138 11.1845 5.44213C11.2518 5.44288 11.3182 5.45706 11.3799 5.48384C11.4416 5.51062 11.4974 5.54945 11.5439 5.59807L14.4009 8.45507C14.4714 8.52569 14.5195 8.61566 14.539 8.7136C14.5585 8.81153 14.5485 8.91304 14.5102 9.0053C14.472 9.09755 14.4073 9.17641 14.3243 9.2319C14.2413 9.2874 14.1437 9.31703 14.0439 9.31707ZM15.4739 7.88907C15.3739 7.88923 15.2762 7.85974 15.193 7.80432C15.1098 7.7489 15.045 7.67006 15.0067 7.57776C14.9683 7.48547 14.9582 7.38387 14.9777 7.28584C14.9971 7.18781 15.0452 7.09775 15.1159 7.02707C15.3959 6.74507 15.5519 6.36507 15.5519 5.95507C15.5519 5.54507 15.3969 5.16507 15.1159 4.88407C14.9749 4.74412 14.8075 4.63352 14.6235 4.55868C14.4395 4.48384 14.2425 4.44624 14.0439 4.44807C13.6339 4.44807 13.2539 4.60307 12.9729 4.88407C12.878 4.97888 12.7494 5.03215 12.6154 5.03215C12.4813 5.03215 12.3527 4.97888 12.2579 4.88407C12.163 4.78925 12.1098 4.66066 12.1098 4.52657C12.1098 4.39248 12.163 4.26388 12.2579 4.16907C12.4923 3.93496 12.7709 3.74971 13.0775 3.62406C13.3841 3.49841 13.7125 3.43485 14.0439 3.43707C14.7239 3.43707 15.3579 3.69707 15.8299 4.16907C16.3019 4.64107 16.5619 5.27507 16.5619 5.95507C16.5619 6.63507 16.3019 7.26907 15.8299 7.74107C15.7831 7.7881 15.7274 7.8254 15.6662 7.8508C15.6049 7.8762 15.5392 7.88921 15.4729 7.88907H15.4739Z" fill="#757575"/>
<path d="M11.1895 16.063H16.0695" stroke="#757575" stroke-linecap="round"/>
</g>
</svg>
