<svg width="16" height="17" viewBox="0 0 16 17" fill="none" xmlns="http://www.w3.org/2000/svg">
<g id="edit">
<path id="Vector" fill-rule="evenodd" clip-rule="evenodd" d="M8.78301 2.89791C9.24454 2.63651 9.79107 2.56917 10.3023 2.71069C10.5289 2.77345 10.7226 2.88277 10.9051 3.00624C11.0785 3.12351 11.2774 3.27876 11.5079 3.4587L11.5415 3.48495C11.7721 3.66489 11.971 3.82015 12.1269 3.95989C12.2909 4.10701 12.444 4.26836 12.5599 4.47301C12.8213 4.93455 12.8887 5.48105 12.7471 5.99225C12.6844 6.21891 12.5751 6.41259 12.4516 6.59515C12.3343 6.76855 12.1791 6.96745 11.9991 7.19797L7.26394 13.2642C7.25194 13.2795 7.24014 13.2946 7.22847 13.3096C7.00621 13.5946 6.83814 13.8101 6.63007 13.9871C6.45398 14.1369 6.25915 14.2632 6.05049 14.3627C5.80397 14.4803 5.53863 14.5457 5.18763 14.6322C5.16923 14.6368 5.15059 14.6414 5.13171 14.646L3.71517 14.9957C3.61707 15.02 3.50509 15.0477 3.40631 15.0628C3.29619 15.0798 3.12567 15.0951 2.93733 15.0348C2.71093 14.9623 2.51776 14.8115 2.39247 14.6095C2.28824 14.4414 2.26172 14.2723 2.25141 14.1614C2.24215 14.0618 2.24183 13.9465 2.24154 13.8454C2.24152 13.8392 2.24151 13.833 2.24149 13.8268L2.23691 12.3864C2.23684 12.3669 2.23677 12.3477 2.23671 12.3288C2.23541 11.9673 2.23443 11.694 2.28867 11.4263C2.33459 11.1997 2.40978 10.98 2.51235 10.7729C2.63352 10.5281 2.80177 10.3128 3.02431 10.0279C3.03598 10.013 3.0478 9.99784 3.05977 9.98251L7.79494 3.91627C7.97487 3.68575 8.13014 3.48683 8.26987 3.33097C8.41701 3.16687 8.57834 3.01381 8.78301 2.89791ZM9.94647 3.99569C9.77607 3.94851 9.59394 3.97096 9.44007 4.05809C9.41394 4.07289 9.36434 4.10761 9.26267 4.22104C9.15694 4.33895 9.02961 4.50145 8.83287 4.75349L10.9349 6.39434C11.1317 6.14229 11.2584 5.97935 11.3471 5.84818C11.4325 5.72198 11.4541 5.66543 11.4621 5.63649C11.5093 5.46609 11.4869 5.28393 11.3997 5.13007C11.3849 5.10395 11.3502 5.05434 11.2368 4.95264C11.1189 4.84693 10.9564 4.71963 10.7043 4.52288C10.4523 4.32613 10.2893 4.1994 10.1582 4.11069C10.032 4.02533 9.97541 4.0037 9.94647 3.99569ZM10.1145 7.44537L8.01247 5.80453L4.11081 10.8029C3.83764 11.1528 3.76061 11.2567 3.70728 11.3644C3.656 11.468 3.6184 11.5778 3.59545 11.6911C3.57157 11.8089 3.56882 11.9382 3.57023 12.3821L3.57429 13.6572L4.81214 13.3516C5.24315 13.2452 5.36787 13.2111 5.47635 13.1593C5.58068 13.1096 5.67809 13.0464 5.76615 12.9715C5.85769 12.8936 5.93972 12.7937 6.21289 12.4438L10.1145 7.44537ZM8.00041 14.5C8.00041 14.1318 8.29887 13.8334 8.66707 13.8334H13.3337C13.7019 13.8334 14.0004 14.1318 14.0004 14.5C14.0004 14.8682 13.7019 15.1667 13.3337 15.1667H8.66707C8.29887 15.1667 8.00041 14.8682 8.00041 14.5Z" fill="#71717A"/>
</g>
</svg>
