<svg viewBox="0 0 25 25" fill="none" xmlns="http://www.w3.org/2000/svg">
<g clip-path="url(#clip0_6713_202785)">
<path d="M6.28843 0L0 6.28843V18.7116L6.28843 25H18.7116L25 18.7116V6.28843L18.7116 0L6.28843 0ZM23.5352 18.1048L18.1048 23.5352H6.89517L1.46484 18.1048V6.89517L6.89517 1.46484H18.1048L23.5352 6.89517V18.1048Z" fill="currentColor"/>
<path d="M12.5 14.428C11.9606 14.428 11.5234 13.9908 11.5234 13.4514V7.59204C11.5234 7.05269 11.9606 6.61548 12.5 6.61548C13.0394 6.61548 13.4766 7.05269 13.4766 7.59204V13.4514C13.4766 13.9908 13.0394 14.428 12.5 14.428Z" fill="currentColor"/>
<path d="M12.5 18.3342C13.0393 18.3342 13.4766 17.897 13.4766 17.3577C13.4766 16.8183 13.0393 16.3811 12.5 16.3811C11.9607 16.3811 11.5234 16.8183 11.5234 17.3577C11.5234 17.897 11.9607 18.3342 12.5 18.3342Z" fill="currentColor"/>
</g>
<defs>
<clipPath id="clip0_6713_202785">
<rect width="25" height="25" fill="white"/>
</clipPath>
</defs>
</svg>
