<svg xmlns="http://www.w3.org/2000/svg" width="14" height="15" viewBox="0 0 14 15" fill="none">
  <g clip-path="url(#clip0_2021_12393)">
    <path fill-rule="evenodd" clip-rule="evenodd" d="M0.659556 13.603C0.562491 13.635 0.457973 13.6365 0.360022 13.6073C0.262071 13.5782 0.175373 13.5198 0.111556 13.44C0.0642988 13.3813 0.0307892 13.3127 0.0134852 13.2393C-0.00381873 13.166 -0.004478 13.0897 0.0115558 13.016L0.783556 9.416C0.796642 9.30328 0.847379 9.19829 0.927556 9.118L7.34456 2.69999C7.37015 2.66715 7.39971 2.63759 7.43256 2.61199L8.82156 1.22499C8.84238 1.203 8.86514 1.18292 8.88956 1.16499C9.35677 0.733481 9.97057 0.495752 10.6066 0.499995C11.2866 0.499995 11.9206 0.759995 12.3916 1.23199C12.8646 1.70399 13.1236 2.33799 13.1236 3.01799C13.1261 3.34957 13.0628 3.67836 12.9373 3.98529C12.8118 4.29222 12.6267 4.57118 12.3926 4.80599L4.49956 12.699C4.41811 12.7806 4.31116 12.8317 4.19656 12.844L0.659556 13.603ZM1.16256 12.462L3.89356 11.876L9.89356 5.87599L7.74556 3.72799L1.75056 9.724L1.16256 12.462ZM8.45956 3.01399L10.6076 5.16199L11.6456 4.12499C11.6556 4.1125 11.6663 4.10048 11.6776 4.08899C11.9586 3.80799 12.1136 3.42699 12.1136 3.01799C12.1136 2.60799 11.9586 2.22799 11.6776 1.94599C11.5367 1.80616 11.3695 1.69563 11.1857 1.6208C11.0019 1.54596 10.805 1.5083 10.6066 1.50999C10.1966 1.50999 9.81656 1.66499 9.53456 1.94599C9.51769 1.96292 9.49964 1.97863 9.48056 1.99299L8.46056 3.01399H8.45956Z" fill="#757575"/>
    <path d="M7.75293 13.125H12.6329" stroke="#757575" stroke-linecap="round"/>
  </g>
  <defs>
    <clipPath id="clip0_2021_12393">
      <rect width="14" height="14" fill="white" transform="translate(0 0.5)"/>
    </clipPath>
  </defs>
</svg>