<svg xmlns="http://www.w3.org/2000/svg" viewBox="0 0 20 20" fill="none">
  <path d="M2.5 6.66667H2.66667C4.0668 6.66667 4.76686 6.66667 5.30164 6.39418C5.77205 6.1545 6.1545 5.77205 6.39418 5.30164C6.66667 4.76686 6.66667 4.0668 6.66667 2.66667V2.5M2.5 13.3333H2.66667C4.0668 13.3333 4.76686 13.3333 5.30164 13.6058C5.77205 13.8455 6.1545 14.228 6.39418 14.6984C6.66667 15.2331 6.66667 15.9332 6.66667 17.3333V17.5M13.3333 2.5V2.66667C13.3333 4.0668 13.3333 4.76686 13.6058 5.30164C13.8455 5.77205 14.228 6.1545 14.6984 6.39418C15.2331 6.66667 15.9332 6.66667 17.3333 6.66667H17.5M13.3333 17.5V17.3333C13.3333 15.9332 13.3333 15.2331 13.6058 14.6984C13.8455 14.228 14.228 13.8455 14.6984 13.6058C15.2331 13.3333 15.9332 13.3333 17.3333 13.3333H17.5" stroke="currentColor" stroke-width="1.66667" stroke-linecap="round" stroke-linejoin="round"/>
</svg>