<svg width="16" height="16" viewBox="0 0 16 16" fill="none" xmlns="http://www.w3.org/2000/svg">
<path d="M0.977552 15.5C0.852621 15.5 0.730552 15.4504 0.639953 15.3608C0.52742 15.2482 0.47783 15.0861 0.509301 14.9297L1.18354 11.5572C1.20262 11.4646 1.24649 11.3798 1.3142 11.314L11.4297 1.19744C12.3596 0.267521 13.8721 0.267521 14.801 1.19744C15.252 1.64761 15.5 2.24657 15.5 2.88368C15.5 3.52079 15.252 4.11975 14.8019 4.56993L4.68636 14.6864C4.62056 14.7532 4.53568 14.798 4.44223 14.8171L1.07101 15.4905C1.04049 15.4971 1.00902 15.5 0.977552 15.5V15.5ZM2.09143 11.8862L1.58599 14.4156L4.11416 13.9101L14.1267 3.89562C14.3976 3.62475 14.5463 3.26614 14.5463 2.88368C14.5463 2.50122 14.3976 2.14261 14.1277 1.87174C13.5707 1.31379 12.6619 1.31379 12.1049 1.87174L2.09143 11.8862ZM4.34972 14.3488H4.35926H4.34972Z" fill="#37352F" stroke="#37352F" stroke-width="0.1"/>
<path d="M13.1158 6.05876C12.9937 6.05876 12.8717 6.01202 12.7782 5.91951L10.0812 3.22133C9.89528 3.03534 9.89528 2.733 10.0812 2.54702C10.2672 2.36104 10.5695 2.36104 10.7555 2.54702L13.4524 5.2452C13.6384 5.43118 13.6384 5.73353 13.4524 5.91951C13.3599 6.01202 13.2379 6.05876 13.1158 6.05876Z" fill="#37352F" stroke="#37352F" stroke-width="0.1"/>
</svg>
