<svg xmlns="http://www.w3.org/2000/svg" width="20" height="20" fill="none"><g fill="#76746F" clip-path="url(#a)"><path d="M16.12 5.225a8.594 8.594 0 0 0-4.425-2.37A1.933 1.933 0 0 0 10 0a1.933 1.933 0 0 0-1.695 2.855 8.595 8.595 0 0 0-4.425 2.37 8.599 8.599 0 0 0-2.535 6.12c0 2.312.9 4.485 2.535 6.12A8.599 8.599 0 0 0 10 20c2.312 0 4.485-.9 6.12-2.535a8.599 8.599 0 0 0 2.535-6.12c0-2.312-.9-4.485-2.535-6.12Zm1.34 5.534h-1.523a5.976 5.976 0 0 0-5.351-5.35V3.883a7.495 7.495 0 0 1 6.874 6.875ZM10 16.139a4.799 4.799 0 0 1-4.793-4.794A4.799 4.799 0 0 1 10 6.55a4.799 4.799 0 0 1 4.794 4.794A4.799 4.799 0 0 1 10 16.138ZM9.241 1.93a.76.76 0 1 1 1.52.002.76.76 0 0 1-1.52-.002Zm.173 1.953v1.524a5.976 5.976 0 0 0-5.35 5.35H2.54a7.495 7.495 0 0 1 6.874-6.874ZM2.54 11.931h1.523a5.976 5.976 0 0 0 5.351 5.35v1.524a7.495 7.495 0 0 1-6.874-6.874Zm8.046 6.874v-1.524a5.976 5.976 0 0 0 5.35-5.35h1.524a7.495 7.495 0 0 1-6.874 6.874Z"/><path d="m7.172 14.173 4.242-1.414 1.414-4.242L8.586 9.93l-1.414 4.242Zm2.34-3.316 1.463-.488-.487 1.464-1.463.487.487-1.463Z"/></g><defs><clipPath id="a"><path fill="#fff" d="M0 0h20v20H0z"/></clipPath></defs></svg>