<svg width="24" height="24" viewBox="0 0 24 24" fill="none" xmlns="http://www.w3.org/2000/svg">
<g transform="translate(3 1)" stroke="currentColor" stroke-width="2" stroke-linecap="round" stroke-linejoin="round">
<path d="M13 3C13.93 3 14.395 3 14.7765 3.10222C15.8117 3.37962 16.6204 4.18827 16.8978 5.22354C17 5.60504 17 6.07003 17 7V16.2C17 17.8802 17 18.7202 16.673 19.362C16.3854 19.9265 15.9265 20.3854 15.362 20.673C14.7202 21 13.8802 21 12.2 21H5.8C4.11984 21 3.27976 21 2.63803 20.673C2.07354 20.3854 1.6146 19.9265 1.32698 19.362C1 18.7202 1 17.8802 1 16.2V7C1 6.07003 1 5.60504 1.10222 5.22354C1.37962 4.18827 2.18827 3.37962 3.22354 3.10222C3.60504 3 4.07003 3 5 3M6.6 5H11.4C11.9601 5 12.2401 5 12.454 4.89101C12.6422 4.79513 12.7951 4.64215 12.891 4.45399C13 4.24008 13 3.96005 13 3.4V2.6C13 2.03995 13 1.75992 12.891 1.54601C12.7951 1.35785 12.6422 1.20487 12.454 1.10899C12.2401 1 11.9601 1 11.4 1H6.6C6.03995 1 5.75992 1 5.54601 1.10899C5.35785 1.20487 5.20487 1.35785 5.10899 1.54601C5 1.75992 5 2.03995 5 2.6V3.4C5 3.96005 5 4.24008 5.10899 4.45399C5.20487 4.64215 5.35785 4.79513 5.54601 4.89101C5.75992 5 6.03995 5 6.6 5Z"/>
<line x1="5.5" y1="10" x2="12.5" y2="10"/>
<line x1="5.5" y1="15" x2="12.5" y2="15"/>
</g>
</svg>
