
<svg viewBox="0 0 20 20" fill="none" xmlns="http://www.w3.org/2000/svg">
<mask id="mask0_2934_24322" style="mask-type:luminance" maskUnits="userSpaceOnUse" x="0" y="0" width="20" height="20">
<path d="M0.952148 0.952148H19.9998V19.9998H0.952148V0.952148Z" fill="white"/>
</mask>
<g mask="url(#mask0_2934_24322)">
<path d="M3.29562 14.4459C3.15948 14.4462 3.02635 14.4059 2.91311 14.3304C2.79988 14.2548 2.71164 14.1473 2.6596 14.0215C2.60756 13.8957 2.59407 13.7573 2.62083 13.6238C2.64759 13.4903 2.7134 13.3678 2.80991 13.2718L13.5487 2.533C13.6119 2.46686 13.6878 2.41402 13.7717 2.37759C13.8557 2.34116 13.9461 2.32186 14.0376 2.32084C14.1291 2.31982 14.2199 2.33709 14.3046 2.37164C14.3894 2.40619 14.4664 2.45733 14.5311 2.52204C14.5958 2.58675 14.6469 2.66374 14.6815 2.74849C14.716 2.83324 14.7333 2.92403 14.7323 3.01554C14.7312 3.10706 14.712 3.19744 14.6755 3.2814C14.6391 3.36535 14.5863 3.44118 14.5201 3.50443L3.78133 14.2446C3.7176 14.3084 3.64189 14.3591 3.55854 14.3937C3.4752 14.4282 3.38585 14.446 3.29562 14.4459Z" fill="currentColor"/>
<path d="M2.23559 19.4082C2.13301 19.4085 2.03167 19.3858 1.93903 19.3418C1.8464 19.2977 1.76483 19.2334 1.70033 19.1537C1.63584 19.0739 1.59006 18.9807 1.56638 18.8809C1.54269 18.781 1.54171 18.6772 1.56348 18.577L2.62471 13.6273C2.66296 13.449 2.77045 13.2933 2.92354 13.1943C3.07663 13.0953 3.26278 13.0612 3.44103 13.0994C3.61929 13.1376 3.77505 13.2451 3.87405 13.3982C3.97305 13.5513 4.00717 13.7375 3.96893 13.9157L2.9077 18.8654C2.8747 19.0191 2.78997 19.1569 2.66765 19.2557C2.54533 19.3545 2.39283 19.4083 2.23559 19.4082ZM7.18389 18.347C7.04746 18.3479 6.91387 18.3081 6.8002 18.2326C6.68654 18.1572 6.59796 18.0495 6.54581 17.9234C6.49366 17.7974 6.4803 17.6586 6.50744 17.5249C6.53458 17.3912 6.60099 17.2686 6.69818 17.1729L17.437 6.43409C17.5658 6.30509 17.7406 6.23255 17.9229 6.23242C18.1052 6.23229 18.2801 6.30459 18.4091 6.43341C18.5381 6.56223 18.6106 6.73702 18.6107 6.91933C18.6109 7.10163 18.5386 7.27652 18.4097 7.40552L7.66961 18.1443C7.60599 18.2084 7.53033 18.2593 7.44697 18.2941C7.36362 18.3289 7.27421 18.3469 7.18389 18.347Z" fill="currentColor"/>
<path d="M2.23358 19.4059C2.06246 19.408 1.89671 19.3462 1.76878 19.2325C1.64086 19.1189 1.55995 18.9615 1.54192 18.7913C1.52388 18.6212 1.57 18.4504 1.67125 18.3124C1.77251 18.1744 1.9216 18.0792 2.08936 18.0454L7.03902 16.9842C7.21728 16.9459 7.40343 16.9801 7.55652 17.0791C7.70961 17.1781 7.8171 17.3338 7.85535 17.5121C7.8936 17.6903 7.85947 17.8765 7.76047 18.0296C7.66147 18.1826 7.50571 18.2901 7.32746 18.3284L2.3778 19.3896C2.33042 19.3999 2.28206 19.4062 2.23358 19.4059ZM15.9778 9.54744C15.8876 9.54756 15.7982 9.52983 15.7148 9.49527C15.6315 9.46071 15.5558 9.41001 15.4921 9.34608L11.605 5.459C11.5389 5.39575 11.486 5.31992 11.4496 5.23597C11.4132 5.15201 11.3939 5.06163 11.3929 4.97011C11.3918 4.8786 11.4091 4.78781 11.4437 4.70306C11.4782 4.61832 11.5293 4.54133 11.594 4.47661C11.6588 4.4119 11.7357 4.36077 11.8205 4.32622C11.9052 4.29167 11.996 4.27439 12.0875 4.27542C12.1791 4.27644 12.2694 4.29573 12.3534 4.33216C12.4374 4.3686 12.5132 4.42143 12.5764 4.48758L16.4635 8.37465C16.5596 8.47074 16.625 8.59314 16.6514 8.72639C16.6779 8.85964 16.6643 8.99775 16.6123 9.12326C16.5604 9.24878 16.4723 9.35607 16.3594 9.43157C16.2464 9.50707 16.1137 9.54739 15.9778 9.54744ZM17.9234 7.60458C17.7874 7.6048 17.6544 7.56468 17.5413 7.48928C17.4281 7.41388 17.3399 7.30661 17.2877 7.18104C17.2356 7.05546 17.2219 6.91724 17.2483 6.78387C17.2748 6.65049 17.3402 6.52796 17.4363 6.43179C17.8173 6.04812 18.0295 5.53111 18.0295 4.97329C18.0295 4.41547 17.8186 3.89846 17.4363 3.51615C17.2445 3.32574 17.0168 3.17526 16.7665 3.07344C16.5161 2.97162 16.2481 2.92047 15.9778 2.92295C15.42 2.92295 14.903 3.13383 14.5207 3.51615C14.3917 3.64515 14.2167 3.71762 14.0343 3.71762C13.8518 3.71762 13.6769 3.64515 13.5479 3.51615C13.4189 3.38715 13.3464 3.21219 13.3464 3.02975C13.3464 2.84732 13.4189 2.67236 13.5479 2.54336C13.8669 2.22485 14.2459 1.97281 14.663 1.80185C15.0801 1.6309 15.527 1.54442 15.9778 1.54744C16.903 1.54744 17.7656 1.90118 18.4077 2.54336C19.0499 3.18553 19.4036 4.04812 19.4036 4.97329C19.4036 5.89846 19.0499 6.76105 18.4077 7.40322C18.3441 7.46721 18.2684 7.51795 18.185 7.55252C18.1017 7.58708 18.0123 7.60477 17.922 7.60458H17.9234Z" fill="currentColor"/>
<path d="M12.0947 18.7256H18.7342" stroke="currentColor" stroke-linecap="round"/>
</g>
</svg>
