<svg width="12" height="12" viewBox="0 0 11 10" fill="none" xmlns="http://www.w3.org/2000/svg">
<g clip-path="url(#clip0_3259_73448)">
<path d="M5.38242 9.8875H2.52602C1.7093 9.8875 1.04492 9.22297 1.04492 8.40641V1.59047C1.04492 0.77375 1.7093 0.109375 2.52602 0.109375H5.38242C6.19914 0.109375 6.86352 0.77375 6.86352 1.59047V2.81094C6.86352 3.02672 6.68867 3.20156 6.47289 3.20156C6.25711 3.20156 6.08227 3.02672 6.08227 2.81094V1.59047C6.08227 1.20453 5.76836 0.890625 5.38242 0.890625H2.52602C2.14008 0.890625 1.82617 1.20453 1.82617 1.59047V8.40625C1.82617 8.79219 2.14008 9.10609 2.52602 9.10609H5.38242C5.76836 9.10609 6.08227 8.79203 6.08227 8.40625V7.18594C6.08227 6.97016 6.25711 6.79531 6.47289 6.79531C6.68867 6.79531 6.86352 6.97016 6.86352 7.18594V8.40641C6.86352 9.22297 6.19914 9.8875 5.38242 9.8875Z" fill="#0968da" stroke="#0968da" stroke-width="0.5"/>
<path d="M8.64381 6.21015L9.80443 5.30609C9.89943 5.23203 9.95506 5.11828 9.95506 4.99781C9.95506 4.87734 9.89959 4.76359 9.80443 4.68969L8.64381 3.78562C8.47365 3.65297 8.22818 3.68359 8.09568 3.85375C7.96318 4.02406 7.99365 4.26953 8.16381 4.40187L8.4274 4.60719H4.81006C4.59428 4.60719 4.41943 4.78203 4.41943 4.99781C4.41943 5.21359 4.59428 5.38844 4.81006 5.38844H8.42725L8.16381 5.59359C8.0649 5.67062 8.01318 5.78562 8.01318 5.90219C8.01318 5.98609 8.04006 6.07062 8.09568 6.14187C8.22818 6.31219 8.47365 6.3425 8.64381 6.21015Z" fill="#0968da" stroke="#0968da" stroke-width="0.5"/>
</g>
<defs>
<clipPath id="clip0_3259_73448">
<rect width="10" height="10" fill="white" transform="translate(0.5)"/>
</clipPath>
</defs>
</svg>