<svg width="29" height="29" viewBox="0 -1 29 29" fill="none" xmlns="http://www.w3.org/2000/svg">
<g filter="url(#filter0_di_8579_3118)">
<circle cx="14.5" cy="13.5" r="12" fill="#F0F9FF"/>
<circle cx="14.5" cy="13.5" r="12" stroke="#D1E9FF"/>
</g>
<path d="M14.0434 8.50412C14.1901 8.21834 14.2634 8.07545 14.363 8.02979C14.4497 7.99007 14.5503 7.99007 14.637 8.02979C14.7366 8.07545 14.8099 8.21834 14.9566 8.50412L16.3486 11.2154C16.3919 11.2998 16.4135 11.342 16.4452 11.3747C16.4732 11.4037 16.5068 11.4272 16.5442 11.4439C16.5863 11.4628 16.6347 11.4696 16.7316 11.4832L19.8451 11.9207C20.173 11.9668 20.3369 11.9899 20.4128 12.0669C20.4788 12.1339 20.5098 12.2259 20.4973 12.3174C20.4828 12.4225 20.3641 12.5337 20.1268 12.756L17.8746 14.8651C17.8044 14.9308 17.7693 14.9637 17.7467 15.0028C17.7266 15.0375 17.7138 15.0755 17.7088 15.1148C17.7032 15.1593 17.7115 15.2057 17.728 15.2986L18.2594 18.2776C18.3155 18.5918 18.3435 18.7489 18.2908 18.8422C18.245 18.9233 18.1636 18.9802 18.0692 18.997C17.9607 19.0163 17.8139 18.9421 17.5205 18.7937L14.737 17.3863C14.6503 17.3425 14.6069 17.3205 14.5613 17.3119C14.5208 17.3043 14.4792 17.3043 14.4387 17.3119C14.3931 17.3205 14.3497 17.3425 14.263 17.3863L11.4795 18.7937C11.1861 18.9421 11.0393 19.0163 10.9308 18.997C10.8364 18.9802 10.755 18.9233 10.7092 18.8422C10.6565 18.7489 10.6845 18.5918 10.7406 18.2776L11.272 15.2986C11.2885 15.2057 11.2968 15.1593 11.2912 15.1148C11.2863 15.0755 11.2734 15.0375 11.2533 15.0028C11.2307 14.9637 11.1956 14.9308 11.1254 14.8651L8.87324 12.756C8.63587 12.5337 8.51718 12.4225 8.50274 12.3174C8.49018 12.2259 8.52122 12.1339 8.58723 12.0669C8.66309 11.9899 8.82703 11.9668 9.1549 11.9207L12.2684 11.4832C12.3653 11.4696 12.4137 11.4628 12.4558 11.4439C12.4932 11.4272 12.5268 11.4037 12.5548 11.3747C12.5865 11.342 12.6081 11.2998 12.6514 11.2154L14.0434 8.50412Z" stroke="#1570EF" stroke-width="1.4" stroke-linecap="round" stroke-linejoin="round"/>
<defs>
<filter id="filter0_di_8579_3118" x="0" y="0" width="29" height="29" filterUnits="userSpaceOnUse" color-interpolation-filters="sRGB">
<feFlood flood-opacity="0" result="BackgroundImageFix"/>
<feColorMatrix in="SourceAlpha" type="matrix" values="0 0 0 0 0 0 0 0 0 0 0 0 0 0 0 0 0 0 127 0" result="hardAlpha"/>
<feOffset dy="1"/>
<feGaussianBlur stdDeviation="1"/>
<feColorMatrix type="matrix" values="0 0 0 0 0.0392157 0 0 0 0 0.0496732 0 0 0 0 0.0705882 0 0 0 0.05 0"/>
<feBlend mode="normal" in2="BackgroundImageFix" result="effect1_dropShadow_8579_3118"/>
<feBlend mode="normal" in="SourceGraphic" in2="effect1_dropShadow_8579_3118" result="shape"/>
<feColorMatrix in="SourceAlpha" type="matrix" values="0 0 0 0 0 0 0 0 0 0 0 0 0 0 0 0 0 0 127 0" result="hardAlpha"/>
<feMorphology radius="1" operator="erode" in="SourceAlpha" result="effect2_innerShadow_8579_3118"/>
<feOffset/>
<feComposite in2="hardAlpha" operator="arithmetic" k2="-1" k3="1"/>
<feColorMatrix type="matrix" values="0 0 0 0 0.0392157 0 0 0 0 0.0496732 0 0 0 0 0.0705882 0 0 0 0.18 0"/>
<feBlend mode="normal" in2="shape" result="effect2_innerShadow_8579_3118"/>
</filter>
</defs>
</svg>
