<svg viewBox="0 0 20 20" fill="none" xmlns="http://www.w3.org/2000/svg">
<path d="M6.66667 2.5H5.16667C4.23325 2.5 3.76654 2.5 3.41002 2.68166C3.09641 2.84144 2.84144 3.09641 2.68166 3.41002C2.5 3.76654 2.5 4.23325 2.5 5.16667V6.66667M6.66667 17.5H5.16667C4.23325 17.5 3.76654 17.5 3.41002 17.3183C3.09641 17.1586 2.84144 16.9036 2.68166 16.59C2.5 16.2335 2.5 15.7668 2.5 14.8333V13.3333M17.5 6.66667V5.16667C17.5 4.23325 17.5 3.76654 17.3183 3.41002C17.1586 3.09641 16.9036 2.84144 16.59 2.68166C16.2335 2.5 15.7668 2.5 14.8333 2.5H13.3333M17.5 13.3333V14.8333C17.5 15.7668 17.5 16.2335 17.3183 16.59C17.1586 16.9036 16.9036 17.1586 16.59 17.3183C16.2335 17.5 15.7668 17.5 14.8333 17.5H13.3333M13.3333 10C13.3333 11.8409 11.8409 13.3333 10 13.3333C8.15905 13.3333 6.66667 11.8409 6.66667 10C6.66667 8.15905 8.15905 6.66667 10 6.66667C11.8409 6.66667 13.3333 8.15905 13.3333 10Z" stroke="currentColor" stroke-width="1.66667" stroke-linecap="round" stroke-linejoin="round"/>
</svg>
