<svg xmlns="http://www.w3.org/2000/svg" width="28" height="28" viewBox="0 0 28 28" fill="none"><script xmlns=""/>
<path d="M22.3988 14.3575L17.4081 9.36625C17.1736 9.13187 16.8556 9.00021 16.5241 9.00021C16.1925 9.00021 15.8745 9.13187 15.64 9.36625L12.2912 12.715L9.625 5.25H8.375L5.25 14H6.5L7.12438 12.125H10.8744L11.3763 13.63L6.86625 18.14C6.75012 18.2561 6.658 18.3939 6.59515 18.5456C6.5323 18.6973 6.49995 18.8599 6.49995 19.0241C6.49995 19.1883 6.5323 19.3508 6.59515 19.5025C6.658 19.6542 6.75012 19.792 6.86625 19.9081L9.7075 22.75H15.7013L22.3988 16.0519C22.5101 15.9406 22.5984 15.8085 22.6587 15.6631C22.719 15.5177 22.75 15.3618 22.75 15.2044C22.75 15.047 22.719 14.8911 22.6587 14.7457C22.5984 14.6003 22.5101 14.4681 22.3988 14.3569V14.3575ZM7.54063 10.875L8.9975 6.5L10.4575 10.875H7.54063ZM15.1844 21.5H10.225L7.75 19.0238L11.695 15.0794L16.65 20.0337L15.1844 21.5ZM17.5344 19.15L12.5794 14.1956L16.5244 10.25L21.4788 15.2044L17.5344 19.15Z" fill="#212529"/>
</svg>