<svg viewBox="0 0 20 20" fill="none" xmlns="http://www.w3.org/2000/svg">
<path d="M5.00002 11.6667L6.25002 9.25008C6.38591 8.9802 6.59262 8.75233 6.84803 8.59087C7.10344 8.4294 7.39794 8.34041 7.70002 8.33341H16.6667M16.6667 8.33341C16.9213 8.33297 17.1726 8.39086 17.4014 8.50265C17.6301 8.61444 17.8302 8.77715 17.9863 8.9783C18.1424 9.17945 18.2504 9.41369 18.3018 9.66304C18.3533 9.91239 18.347 10.1702 18.2834 10.4167L17 15.4167C16.9072 15.7764 16.6969 16.0947 16.4025 16.3212C16.108 16.5476 15.7464 16.6693 15.375 16.6667H3.33335C2.89133 16.6667 2.4674 16.4912 2.15484 16.1786C1.84228 15.866 1.66669 15.4421 1.66669 15.0001V4.16675C1.66669 3.72472 1.84228 3.3008 2.15484 2.98824C2.4674 2.67567 2.89133 2.50008 3.33335 2.50008H6.58335C6.86209 2.49735 7.13706 2.56457 7.3831 2.6956C7.62914 2.82662 7.83839 3.01727 7.99169 3.25008L8.66669 4.25008C8.81844 4.48052 9.02504 4.66968 9.26794 4.80058C9.51083 4.93148 9.78243 5.00003 10.0584 5.00008H15C15.442 5.00008 15.866 5.17567 16.1785 5.48824C16.4911 5.8008 16.6667 6.22472 16.6667 6.66675V8.33341Z" stroke="currentColor" stroke-width="1.66667" stroke-linecap="round" stroke-linejoin="round"/>
</svg>
