<svg xmlns="http://www.w3.org/2000/svg" viewBox="0 0 14 14" fill="#7147e8"><path fill-rule="evenodd" d="M11.58 11.6H3.762c-.746 0-1.494-.573-1.702-1.304l-1.005-3.53c-.23-.807.284-1.506 1.109-1.506h.179V3.448c0-.8.635-1.448 1.42-1.448h2.842c.324 0 .68.21.84.496l.36.641c.033.06.153.13.22.13h3.553c.785 0 1.422.65 1.422 1.45v5.435a1.439 1.439 0 0 1-1.399 1.448h-.02Zm.71-2.91V4.717a.719.719 0 0 0-.712-.724H8.025c-.322 0-.678-.21-.838-.495l-.359-.642a.333.333 0 0 0-.223-.13H3.763a.716.716 0 0 0-.71.723V5.26h6.929c.746 0 1.494.574 1.702 1.305l.606 2.126ZM1.736 6.566c-.098-.345.075-.58.427-.58h7.818c.43 0 .9.36 1.02.782l1.005 3.529c.098.344-.075.58-.427.58H3.762c-.43 0-.9-.36-1.02-.782l-1.005-3.53Z" clip-rule="evenodd"/></svg>