<svg width="16" height="16" viewBox="0 0 16 16" fill="none" xmlns="http://www.w3.org/2000/svg">
<path d="M1.99988 3.33346L1.99988 11.3335C1.99988 11.7755 2.17547 12.1994 2.48803 12.512C2.80059 12.8245 3.22452 13.0001 3.66654 13.0001L10.3332 13.0001C10.7752 13.0001 11.1992 12.8245 11.5117 12.512C11.8243 12.1994 11.9999 11.7755 11.9999 11.3335V10.6668C11.9999 10.5784 11.9648 10.4936 11.9022 10.4311C11.8397 10.3686 11.7549 10.3335 11.6665 10.3335C11.5781 10.3335 11.4934 10.3686 11.4308 10.4311C11.3683 10.4936 11.3332 10.5784 11.3332 10.6668V11.3335C11.3332 11.5987 11.2279 11.853 11.0403 12.0406C10.8528 12.2281 10.5984 12.3335 10.3332 12.3335H7.33321L7.33321 2.33346H10.3332C10.5984 2.33346 10.8528 2.43881 11.0403 2.62635C11.2279 2.81389 11.3332 3.06824 11.3332 3.33346V4.00012C11.3332 4.08853 11.3683 4.17331 11.4308 4.23583C11.4934 4.29834 11.5781 4.33346 11.6665 4.33346C11.7549 4.33346 11.8397 4.29834 11.9022 4.23583C11.9648 4.17331 11.9999 4.08853 11.9999 4.00012V3.33346C11.9999 2.89143 11.8243 2.4675 11.5117 2.15494C11.1992 1.84238 10.7752 1.66679 10.3332 1.66679L3.66654 1.66679C3.22452 1.66679 2.80059 1.84238 2.48803 2.15494C2.17547 2.4675 1.99988 2.89143 1.99988 3.33346ZM6.66654 12.3335L3.66654 12.3335C3.40133 12.3335 3.14697 12.2281 2.95944 12.0406C2.7719 11.853 2.66654 11.5987 2.66654 11.3335L2.66654 3.33346C2.66654 3.06824 2.7719 2.81389 2.95944 2.62635C3.14697 2.43881 3.40133 2.33346 3.66654 2.33346L6.66654 2.33346L6.66654 12.3335ZM10.3332 7.00012H11.3332V6.00012C11.3332 5.91172 11.3683 5.82693 11.4308 5.76442C11.4934 5.70191 11.5781 5.66679 11.6665 5.66679C11.7549 5.66679 11.8397 5.70191 11.9022 5.76442C11.9648 5.82693 11.9999 5.91172 11.9999 6.00012V7.00012L12.9999 7.00012C13.0883 7.00012 13.1731 7.03524 13.2356 7.09775C13.2981 7.16027 13.3332 7.24505 13.3332 7.33346C13.3332 7.42186 13.2981 7.50665 13.2356 7.56916C13.1731 7.63167 13.0883 7.66679 12.9999 7.66679L11.9999 7.66679L11.9999 8.66679C11.9999 8.75519 11.9648 8.83998 11.9022 8.90249C11.8397 8.965 11.7549 9.00012 11.6665 9.00012C11.5781 9.00012 11.4934 8.965 11.4308 8.90249C11.3683 8.83998 11.3332 8.75519 11.3332 8.66679L11.3332 7.66679H10.3332C10.2448 7.66679 10.16 7.63167 10.0975 7.56916C10.035 7.50665 9.99988 7.42186 9.99988 7.33346C9.99988 7.24505 10.035 7.16027 10.0975 7.09775C10.16 7.03524 10.2448 7.00012 10.3332 7.00012Z" fill="#292929" stroke="#292929" stroke-width="0.5"/>
</svg>
