<svg viewBox="0 0 28 28" fill="none" xmlns="http://www.w3.org/2000/svg">
<path d="M22.2813 8.225C21.9329 7.8754 21.5189 7.59801 21.0631 7.40874C20.6073 7.21947 20.1186 7.12204 19.625 7.12204C19.1315 7.12204 18.6428 7.21947 18.187 7.40874C17.7312 7.59801 17.3172 7.8754 16.9688 8.225L17.8563 9.1125C18.089 8.87981 18.3652 8.69523 18.6692 8.56931C18.9733 8.44338 19.2991 8.37856 19.6282 8.37856C19.9572 8.37856 20.2831 8.44338 20.5871 8.56931C20.8911 8.69523 21.1674 8.87981 21.4 9.1125C21.6327 9.34518 21.8173 9.62142 21.9432 9.92544C22.0692 10.2295 22.134 10.5553 22.134 10.8844C22.134 11.2134 22.0692 11.5393 21.9432 11.8433C21.8173 12.1473 21.6327 12.4236 21.4 12.6562L16.4 17.6562C15.9309 18.1262 15.2944 18.3905 14.6304 18.3911C13.9664 18.3917 13.3293 18.1285 12.8594 17.6594C12.3895 17.1903 12.1252 16.5537 12.1246 15.8897C12.124 15.2257 12.3872 14.5887 12.8563 14.1187L13.7375 13.2312L12.8563 12.3437L11.9688 13.2312C11.6192 13.5796 11.3418 13.9936 11.1525 14.4494C10.9633 14.9052 10.8658 15.3939 10.8658 15.8875C10.8658 16.381 10.9633 16.8697 11.1525 17.3256C11.3418 17.7814 11.6192 18.1954 11.9688 18.5437C12.676 19.2419 13.6313 19.6308 14.625 19.625C15.1205 19.627 15.6114 19.5309 16.0695 19.3421C16.5276 19.1533 16.9437 18.8756 17.2938 18.525L22.2938 13.525C22.9944 12.8202 23.3866 11.8662 23.3842 10.8724C23.3819 9.87866 22.9852 8.92647 22.2813 8.225Z" fill="#212529"/>
<path d="M6.61879 19.5125C6.38541 19.2802 6.20022 19.0041 6.07386 18.7C5.94749 18.3959 5.88244 18.0699 5.88244 17.7406C5.88244 17.4113 5.94749 17.0853 6.07386 16.7812C6.20022 16.4772 6.38541 16.201 6.61879 15.9687L11.6188 10.9687C11.8511 10.7354 12.1272 10.5502 12.4313 10.4238C12.7353 10.2974 13.0614 10.2324 13.3907 10.2324C13.7199 10.2324 14.046 10.2974 14.3501 10.4238C14.6541 10.5502 14.9302 10.7354 15.1625 10.9687C15.3944 11.2029 15.577 11.4812 15.6994 11.7871C15.8218 12.0931 15.8815 12.4205 15.875 12.75C15.8769 13.0805 15.8133 13.4081 15.6878 13.7138C15.5623 14.0196 15.3774 14.2974 15.1438 14.5312L13.8188 15.875L14.7063 16.7625L16.0313 15.4375C16.7366 14.7322 17.1328 13.7756 17.1328 12.7781C17.1328 11.7807 16.7366 10.8241 16.0313 10.1187C15.326 9.41344 14.3694 9.0172 13.3719 9.0172C12.3745 9.0172 11.4179 9.41344 10.7125 10.1187L5.71254 15.1187C5.362 15.4672 5.08382 15.8816 4.89399 16.338C4.70417 16.7944 4.60645 17.2838 4.60645 17.7781C4.60645 18.2724 4.70417 18.7618 4.89399 19.2182C5.08382 19.6746 5.362 20.089 5.71254 20.4375C6.42431 21.1303 7.38185 21.5124 8.37504 21.5C9.37698 21.501 10.3386 21.1055 11.05 20.4L10.1625 19.5125C9.93025 19.7459 9.65413 19.9311 9.35006 20.0574C9.04599 20.1838 8.71995 20.2488 8.39067 20.2488C8.06138 20.2488 7.73534 20.1838 7.43127 20.0574C7.1272 19.9311 6.85109 19.7459 6.61879 19.5125Z" fill="#212529"/>
</svg>
