<svg width="16" height="16" viewBox="0 0 16 16" fill="none" xmlns="http://www.w3.org/2000/svg">
<path d="M11.6673 2.00012H3.66728C3.22525 2.00012 2.80133 2.17572 2.48877 2.48828C2.17621 2.80084 2.00061 3.22476 2.00061 3.66679V10.3335C2.00061 10.7755 2.17621 11.1994 2.48877 11.512C2.80133 11.8245 3.22525 12.0001 3.66728 12.0001H4.33394C4.42235 12.0001 4.50713 11.965 4.56965 11.9025C4.63216 11.84 4.66728 11.7552 4.66728 11.6668C4.66728 11.5784 4.63216 11.4936 4.56965 11.4311C4.50713 11.3686 4.42235 11.3335 4.33394 11.3335H3.66728C3.40206 11.3335 3.14771 11.2281 2.96017 11.0406C2.77263 10.853 2.66728 10.5987 2.66728 10.3335V7.33346H12.6673V10.3335C12.6673 10.5987 12.5619 10.853 12.3744 11.0406C12.1868 11.2281 11.9325 11.3335 11.6673 11.3335H11.0006C10.9122 11.3335 10.8274 11.3686 10.7649 11.4311C10.7024 11.4936 10.6673 11.5784 10.6673 11.6668C10.6673 11.7552 10.7024 11.84 10.7649 11.9025C10.8274 11.965 10.9122 12.0001 11.0006 12.0001H11.6673C12.1093 12.0001 12.5332 11.8245 12.8458 11.512C13.1583 11.1994 13.3339 10.7755 13.3339 10.3335V3.66679C13.3339 3.22476 13.1583 2.80084 12.8458 2.48828C12.5332 2.17572 12.1093 2.00012 11.6673 2.00012ZM2.66728 6.66679V3.66679C2.66728 3.40157 2.77263 3.14722 2.96017 2.95968C3.14771 2.77215 3.40206 2.66679 3.66728 2.66679H11.6673C11.9325 2.66679 12.1868 2.77215 12.3744 2.95968C12.5619 3.14722 12.6673 3.40157 12.6673 3.66679V6.66679H2.66728ZM8.00061 10.3335V11.3335H9.00061C9.08902 11.3335 9.1738 11.3686 9.23631 11.4311C9.29882 11.4936 9.33394 11.5784 9.33394 11.6668C9.33394 11.7552 9.29882 11.84 9.23631 11.9025C9.1738 11.965 9.08902 12.0001 9.00061 12.0001H8.00061V13.0001C8.00061 13.0885 7.96549 13.1733 7.90298 13.2358C7.84047 13.2983 7.75568 13.3335 7.66728 13.3335C7.57887 13.3335 7.49409 13.2983 7.43157 13.2358C7.36906 13.1733 7.33394 13.0885 7.33394 13.0001V12.0001H6.33394C6.24554 12.0001 6.16075 11.965 6.09824 11.9025C6.03573 11.84 6.00061 11.7552 6.00061 11.6668C6.00061 11.5784 6.03573 11.4936 6.09824 11.4311C6.16075 11.3686 6.24554 11.3335 6.33394 11.3335H7.33394V10.3335C7.33394 10.2451 7.36906 10.1603 7.43157 10.0978C7.49409 10.0352 7.57887 10.0001 7.66728 10.0001C7.75568 10.0001 7.84047 10.0352 7.90298 10.0978C7.96549 10.1603 8.00061 10.2451 8.00061 10.3335Z" fill="#292929" stroke="#292929" stroke-width="0.5"/>
</svg>
