<svg width="16" height="16" viewBox="0 0 16 16" fill="none" xmlns="http://www.w3.org/2000/svg">
<path d="M11.6673 3.00012H3.66728C3.22525 3.00012 2.80133 3.17572 2.48877 3.48828C2.17621 3.80084 2.00061 4.22476 2.00061 4.66679V11.3335C2.00061 11.7755 2.17621 12.1994 2.48877 12.512C2.80133 12.8245 3.22525 13.0001 3.66728 13.0001H4.33394C4.42235 13.0001 4.50713 12.965 4.56965 12.9025C4.63216 12.84 4.66728 12.7552 4.66728 12.6668C4.66728 12.5784 4.63216 12.4936 4.56965 12.4311C4.50713 12.3686 4.42235 12.3335 4.33394 12.3335H3.66728C3.40206 12.3335 3.14771 12.2281 2.96017 12.0406C2.77263 11.853 2.66728 11.5987 2.66728 11.3335V8.33346H12.6673V11.3335C12.6673 11.5987 12.5619 11.853 12.3744 12.0406C12.1868 12.2281 11.9325 12.3335 11.6673 12.3335H11.0006C10.9122 12.3335 10.8274 12.3686 10.7649 12.4311C10.7024 12.4936 10.6673 12.5784 10.6673 12.6668C10.6673 12.7552 10.7024 12.84 10.7649 12.9025C10.8274 12.965 10.9122 13.0001 11.0006 13.0001H11.6673C12.1093 13.0001 12.5332 12.8245 12.8458 12.512C13.1583 12.1994 13.3339 11.7755 13.3339 11.3335V4.66679C13.3339 4.22476 13.1583 3.80084 12.8458 3.48828C12.5332 3.17572 12.1093 3.00012 11.6673 3.00012ZM2.66728 7.66679V4.66679C2.66728 4.40157 2.77263 4.14722 2.96017 3.95968C3.14771 3.77215 3.40206 3.66679 3.66728 3.66679H11.6673C11.9325 3.66679 12.1868 3.77215 12.3744 3.95968C12.5619 4.14722 12.6673 4.40157 12.6673 4.66679V7.66679H2.66728ZM8.00061 12.3335H9.00061C9.08902 12.3335 9.1738 12.3686 9.23631 12.4311C9.29882 12.4936 9.33394 12.5784 9.33394 12.6668C9.33394 12.7552 9.29882 12.84 9.23631 12.9025C9.1738 12.965 9.08902 13.0001 9.00061 13.0001H8.00061C8.00061 13.0001 7.30729 13.0001 7.33394 13.0001H8.00061C7.9122 13.0001 7.31929 12.9877 7.33394 13.0001H6.33394C6.24554 13.0001 6.16075 12.965 6.09824 12.9025C6.03573 12.84 6.00061 12.7552 6.00061 12.6668C6.00061 12.5784 6.03573 12.4936 6.09824 12.4311C6.16075 12.3686 6.24554 12.3335 6.33394 12.3335H7.33394C7.42235 12.3335 7.83459 12.3336 7.83459 12.3336L8.00061 12.3335Z" fill="#292929"/>
<path d="M8.00061 13.0001H9.00061C9.08902 13.0001 9.1738 12.965 9.23631 12.9025C9.29882 12.84 9.33394 12.7552 9.33394 12.6668C9.33394 12.5784 9.29882 12.4936 9.23631 12.4311C9.1738 12.3686 9.08902 12.3335 9.00061 12.3335H8.00061L7.83459 12.3336C7.83459 12.3336 7.42235 12.3335 7.33394 12.3335H6.33394C6.24554 12.3335 6.16075 12.3686 6.09824 12.4311C6.03573 12.4936 6.00061 12.5784 6.00061 12.6668C6.00061 12.7552 6.03573 12.84 6.09824 12.9025C6.16075 12.965 6.24554 13.0001 6.33394 13.0001H7.33394M8.00061 13.0001C8.00061 13.0001 7.30729 13.0001 7.33394 13.0001M8.00061 13.0001H7.33394M8.00061 13.0001C7.9122 13.0001 7.31929 12.9877 7.33394 13.0001M11.6673 3.00012H3.66728C3.22525 3.00012 2.80133 3.17572 2.48877 3.48828C2.17621 3.80084 2.00061 4.22476 2.00061 4.66679V11.3335C2.00061 11.7755 2.17621 12.1994 2.48877 12.512C2.80133 12.8245 3.22525 13.0001 3.66728 13.0001H4.33394C4.42235 13.0001 4.50713 12.965 4.56965 12.9025C4.63216 12.84 4.66728 12.7552 4.66728 12.6668C4.66728 12.5784 4.63216 12.4936 4.56965 12.4311C4.50713 12.3686 4.42235 12.3335 4.33394 12.3335H3.66728C3.40206 12.3335 3.14771 12.2281 2.96017 12.0406C2.77263 11.853 2.66728 11.5987 2.66728 11.3335V8.33346H12.6673V11.3335C12.6673 11.5987 12.5619 11.853 12.3744 12.0406C12.1868 12.2281 11.9325 12.3335 11.6673 12.3335H11.0006C10.9122 12.3335 10.8274 12.3686 10.7649 12.4311C10.7024 12.4936 10.6673 12.5784 10.6673 12.6668C10.6673 12.7552 10.7024 12.84 10.7649 12.9025C10.8274 12.965 10.9122 13.0001 11.0006 13.0001H11.6673C12.1093 13.0001 12.5332 12.8245 12.8458 12.512C13.1583 12.1994 13.3339 11.7755 13.3339 11.3335V4.66679C13.3339 4.22476 13.1583 3.80084 12.8458 3.48828C12.5332 3.17572 12.1093 3.00012 11.6673 3.00012ZM2.66728 7.66679V4.66679C2.66728 4.40157 2.77263 4.14722 2.96017 3.95968C3.14771 3.77215 3.40206 3.66679 3.66728 3.66679H11.6673C11.9325 3.66679 12.1868 3.77215 12.3744 3.95968C12.5619 4.14722 12.6673 4.40157 12.6673 4.66679V7.66679H2.66728Z" stroke="#292929" stroke-width="0.5"/>
</svg>
