<svg width="16" height="16" viewBox="0 0 16 16" fill="none" xmlns="http://www.w3.org/2000/svg">
<path d="M7.8143 12.2046H3.55585C3.13368 12.2046 2.79051 11.8611 2.79051 11.4388V3.55998C2.79051 3.13536 3.13607 2.79052 3.56037 2.79052H11.139C11.5612 2.79052 11.9043 3.13406 11.9043 3.55587V8.04831C11.9043 8.28028 12.0924 8.46837 12.3244 8.46837C12.5563 8.46837 12.7444 8.28028 12.7444 8.04831V3.55587C12.7444 2.67055 12.0239 1.95 11.1386 1.95H3.56037C2.6722 1.95 1.95 2.67219 1.95 3.55998V11.4388C1.95 12.3245 2.67054 13.0451 3.55585 13.0451H7.81388C8.04585 13.0451 8.23393 12.857 8.23393 12.6251C8.23393 12.3932 8.0464 12.2046 7.8143 12.2046Z" fill="#757575" stroke="#757575" stroke-width="0.1"/>
<path d="M10.366 4.51323H4.32806C4.09609 4.51323 3.90801 4.70132 3.90801 4.93329C3.90801 5.16525 4.09609 5.35334 4.32806 5.35334H10.366C10.598 5.35334 10.7861 5.16525 10.7861 4.93329C10.7861 4.70132 10.598 4.51323 10.366 4.51323Z" fill="#757575" stroke="#757575" stroke-width="0.1"/>
<path d="M10.366 7.07647H4.32806C4.09609 7.07647 3.90801 7.26456 3.90801 7.49653C3.90801 7.72849 4.09609 7.91658 4.32806 7.91658H10.366C10.598 7.91658 10.7861 7.72849 10.7861 7.49653C10.7861 7.26456 10.598 7.07647 10.366 7.07647Z" fill="#757575" stroke="#757575" stroke-width="0.1"/>
<path d="M8.02444 9.63888H4.32806C4.09609 9.63888 3.90801 9.82697 3.90801 10.0589C3.90801 10.2909 4.09609 10.479 4.32806 10.479H8.02444C8.2564 10.479 8.44449 10.2909 8.44449 10.0589C8.44449 9.82697 8.2564 9.63888 8.02444 9.63888Z" fill="#757575" stroke="#757575" stroke-width="0.1"/>
<path d="M9.4775 13.5185L9.47751 13.5185C9.99962 14.0406 10.686 14.3016 11.3717 14.3016C12.0575 14.3016 12.7435 14.0406 13.266 13.5185L13.266 13.5185C13.7716 13.0124 14.0503 12.3398 14.0503 11.6243C14.0503 10.9087 13.7716 10.2357 13.266 9.73001C12.7603 9.22434 12.0873 8.94565 11.3717 8.94565C10.6562 8.94565 9.98358 9.22435 9.47753 9.72999C8.97143 10.2357 8.69316 10.9087 8.69316 11.6243C8.69316 12.3398 8.97186 13.0124 9.4775 13.5185ZM12.6715 12.9244L12.6714 12.9244C11.9554 13.6413 10.7881 13.6413 10.0721 12.9244L10.072 12.9244C9.72453 12.5773 9.53326 12.1155 9.53326 11.6243C9.53326 11.133 9.72452 10.6717 10.072 10.3246L10.0721 10.3245C10.4192 9.97703 10.8809 9.78576 11.3717 9.78576C11.8626 9.78576 12.3243 9.97703 12.6714 10.3245L12.6715 10.3246C13.019 10.6717 13.2102 11.1334 13.2102 11.6243C13.2102 12.1155 13.019 12.5773 12.6715 12.9244Z" fill="#757575" stroke="#757575" stroke-width="0.1"/>
<path d="M12.1807 10.8159C12.036 10.6712 11.8016 10.6712 11.6573 10.8159L11.3724 11.1008L11.0875 10.8159C10.9427 10.6712 10.7084 10.6712 10.564 10.8159C10.4197 10.9606 10.4193 11.195 10.564 11.3393L10.849 11.6243L10.5636 11.9092C10.4189 12.0539 10.4189 12.2883 10.5636 12.4326C10.636 12.505 10.7306 12.5412 10.8255 12.5412C10.9205 12.5412 11.0151 12.505 11.0875 12.4326L11.3724 12.1477L11.6573 12.4326C11.7297 12.505 11.8243 12.5412 11.9192 12.5412C12.0142 12.5412 12.1088 12.505 12.1812 12.4326C12.3259 12.2879 12.3259 12.0535 12.1812 11.9092L11.8962 11.6243L12.1812 11.3393C12.3255 11.195 12.3255 10.9606 12.1807 10.8159Z" fill="#757575"/>
<mask id="mask0_1843_8516" style="mask-type:alpha" maskUnits="userSpaceOnUse" x="10" y="10" width="3" height="3">
<path fill-rule="evenodd" clip-rule="evenodd" d="M10.5639 11.9092L10.8493 11.6243L10.5644 11.3393C10.4196 11.195 10.42 10.9606 10.5644 10.8159C10.7087 10.6712 10.943 10.6712 11.0878 10.8159L11.3727 11.1008L11.6576 10.8159C11.802 10.6712 12.0363 10.6712 12.1811 10.8159C12.3258 10.9606 12.3258 11.195 12.1815 11.3393L11.8965 11.6243L12.1815 11.9092C12.3262 12.0535 12.3262 12.2879 12.1815 12.4326C12.1091 12.505 12.0145 12.5412 11.9196 12.5412C11.8246 12.5412 11.73 12.505 11.6576 12.4326L11.3727 12.1477L11.0878 12.4326C11.0154 12.505 10.9208 12.5412 10.8259 12.5412C10.7309 12.5412 10.6363 12.505 10.5639 12.4326C10.4192 12.2883 10.4192 12.0539 10.5639 11.9092ZM11.3727 12.2891L11.5869 12.5033C11.6788 12.5952 11.7991 12.6412 11.9196 12.6412C12.04 12.6412 12.1603 12.5952 12.2522 12.5033C12.4359 12.3196 12.436 12.0218 12.2521 11.8384M12.0379 11.6243L12.2522 11.41C12.4356 11.2266 12.4355 10.9289 12.2518 10.7452C12.068 10.5615 11.7703 10.5613 11.5868 10.7453M11.3727 10.9594L11.1585 10.7452C10.9747 10.5615 10.677 10.5613 10.4935 10.7453C10.3105 10.9289 10.3096 11.2266 10.4937 11.4101" fill="#757575"/>
</mask>
<g mask="url(#mask0_1843_8516)">
</g>
</svg>
