<svg viewBox="0 0 14 14" width="16" height="16" fill="none" xmlns="http://www.w3.org/2000/svg">
<path d="M12.2939 3.40134L9.01272 0.120176C8.93613 0.0435586 8.83159 0 8.72266 0H2.98047C2.30199 0 1.75 0.551988 1.75 1.23047V12.7695C1.75 13.448 2.30199 14 2.98047 14H11.1836C11.8621 14 12.4141 13.448 12.4141 12.7695V3.69141C12.4141 3.57957 12.3671 3.47454 12.2939 3.40134ZM9.13281 1.40036L11.0137 3.28125H9.54297C9.31681 3.28125 9.13281 3.09725 9.13281 2.87109V1.40036ZM11.1836 13.1797H2.98047C2.75431 13.1797 2.57031 12.9957 2.57031 12.7695V1.23047C2.57031 1.00431 2.75431 0.820312 2.98047 0.820312H8.3125V2.87109C8.3125 3.54957 8.86449 4.10156 9.54297 4.10156H11.5938V12.7695C11.5938 12.9957 11.4098 13.1797 11.1836 13.1797Z" fill="#37352F"/>
<path d="M9.54297 5.79688H4.62109C4.39458 5.79688 4.21094 5.98052 4.21094 6.20703C4.21094 6.43355 4.39458 6.61719 4.62109 6.61719H9.54297C9.76948 6.61719 9.95312 6.43355 9.95312 6.20703C9.95312 5.98052 9.76948 5.79688 9.54297 5.79688Z" fill="#37352F"/>
<path d="M9.54297 8H4.62109C4.39458 8 4.21094 8.18364 4.21094 8.41016C4.21094 8.63667 4.39458 8.82031 4.62109 8.82031H9.54297C9.76948 8.82031 9.95312 8.63667 9.95312 8.41016C9.95312 8.18364 9.76948 8 9.54297 8Z" fill="#37352F"/>
<path d="M7.90234 10H4.62109C4.39458 10 4.21094 10.1836 4.21094 10.4102C4.21094 10.6367 4.39458 10.8203 4.62109 10.8203H7.90234C8.12886 10.8203 8.3125 10.6367 8.3125 10.4102C8.3125 10.1836 8.12886 10 7.90234 10Z" fill="#37352F"/>
</svg>