<svg width="16" height="16" viewBox="0 0 16 16" fill="none" xmlns="http://www.w3.org/2000/svg">
<path d="M11.8182 2H4.18182C2.98182 2 2 2.98182 2 4.18182V9.63636C2 10.8364 2.98182 11.8182 4.18182 11.8182H4.42727C4.59296 11.8182 4.72727 11.9525 4.72727 12.1182V13.5146C4.72727 13.7376 4.96197 13.8827 5.16144 13.7829L9.02757 11.8499C9.06922 11.829 9.11516 11.8182 9.16173 11.8182H11.8182C13.0182 11.8182 14 10.8364 14 9.63636V4.18182C14 2.98182 13.0182 2 11.8182 2ZM12.9091 9.63636C12.9091 10.2385 12.4198 10.7273 11.8182 10.7273H8.90427C8.8577 10.7273 8.81177 10.7381 8.77011 10.7589L6.25235 12.0178C6.05288 12.1176 5.81818 11.9725 5.81818 11.7495V11.0273C5.81818 10.8616 5.68387 10.7273 5.51818 10.7273H4.18182C3.58018 10.7273 3.09091 10.2385 3.09091 9.63636V4.18182C3.09091 3.57964 3.58018 3.09091 4.18182 3.09091H11.8182C12.4198 3.09091 12.9091 3.57964 12.9091 4.18182V9.63636ZM9.63031 4.9394C9.51316 4.82225 9.32321 4.82225 9.20605 4.9394L8.21213 5.93332C8.09497 6.05048 7.90503 6.05048 7.78787 5.93332L6.79395 4.9394C6.67679 4.82225 6.48684 4.82225 6.36969 4.9394L6.03031 5.27878C5.91316 5.39593 5.91316 5.58588 6.03031 5.70304L7.02423 6.69696C7.14139 6.81412 7.14139 7.00407 7.02423 7.12122L6.03031 8.11514C5.91316 8.2323 5.91316 8.42225 6.03031 8.53941L6.36969 8.87878C6.48684 8.99593 6.67679 8.99593 6.79395 8.87878L7.78787 7.88486C7.90503 7.7677 8.09497 7.7677 8.21213 7.88486L9.20605 8.87878C9.32321 8.99593 9.51316 8.99593 9.63031 8.87878L9.96969 8.53941C10.0868 8.42225 10.0868 8.2323 9.96969 8.11514L8.97577 7.12122C8.85861 7.00407 8.85861 6.81412 8.97577 6.69696L9.96969 5.70304C10.0868 5.58588 10.0868 5.39593 9.96969 5.27878L9.63031 4.9394Z" fill="#757575"/>
</svg>
