<svg height="1em" width="1em" viewBox="0 0 71 63" fill="none" xmlns="http://www.w3.org/2000/svg">
<path d="M59.4062 33.1257V24.4167C59.4062 11.2347 48.6821 0.510498 35.5 0.510498C22.3179 0.510498 11.5938 11.2347 11.5938 24.4167V33.1257C5.46313 35.0311 0.96875 40.6872 0.96875 47.4376C0.96875 55.7357 7.71917 62.4897 16.0208 62.4897H17.7917C21.2094 62.4897 23.9896 59.7095 23.9896 56.2917V38.5834C23.9896 35.1657 21.2094 32.3855 17.7917 32.3855H16.9062V24.4167C16.9062 14.1636 25.2469 5.823 35.5 5.823C45.7531 5.823 54.0938 14.1636 54.0938 24.4167V32.3855H53.2083C49.7906 32.3855 47.0104 35.1657 47.0104 38.5834V56.2917C47.0104 59.7095 49.7906 62.4897 53.2083 62.4897H54.9792C63.2808 62.4897 70.0312 55.7357 70.0312 47.4376C70.0312 40.6907 65.5369 35.0311 59.4062 33.1257ZM18.6771 38.5834V56.2917C18.6771 56.7805 18.2804 57.1772 17.7917 57.1772H16.0208C10.6481 57.1772 6.28125 52.8103 6.28125 47.4376C6.28125 42.0649 10.6481 37.698 16.0208 37.698H17.7917C18.2804 37.698 18.6771 38.0947 18.6771 38.5834ZM54.9792 57.1772H53.2083C52.7196 57.1772 52.3229 56.7805 52.3229 56.2917V38.5834C52.3229 38.0947 52.7196 37.698 53.2083 37.698H54.9792C60.3519 37.698 64.7188 42.0649 64.7188 47.4376C64.7188 52.8103 60.3519 57.1772 54.9792 57.1772Z" fill="#292929"/>
</svg>
