<svg xmlns="http://www.w3.org/2000/svg" width="20" height="20" fill="none"><path fill="#76746F" d="M19.257 0H.82a.781.781 0 0 0-.78.781A7.63 7.63 0 0 0 2.597 6.48L6.019 9.52c.594.528.934 1.286.934 2.08v7.618c0 .622.696.996 1.214.65l4.61-3.073a.781.781 0 0 0 .347-.65v-4.546c0-.793.34-1.551.934-2.079l3.421-3.04A7.63 7.63 0 0 0 20.038.78.781.781 0 0 0 19.257 0ZM16.44 5.311 13.02 8.353a4.348 4.348 0 0 0-1.458 3.246v4.128l-3.047 2.031v-6.159c0-1.24-.531-2.423-1.458-3.246L3.636 5.312a6.069 6.069 0 0 1-1.984-3.75h16.773a6.067 6.067 0 0 1-1.984 3.75Z"/></svg>