<svg xmlns="http://www.w3.org/2000/svg" width="16" height="16" fill="none"><path fill="currentColor" d="M3.858 16c1.308 0 2.002-1.168 2.206-1.857a1605.45 1605.45 0 0 1 1.804-7.396h2.007a.684.684 0 1 0 0-1.368H8.207c.18-.715.311-1.225.363-1.399l.058-.194c.212-.724.708-2.418 1.475-2.418.712 0 .818 1.096.823 1.149a.684.684 0 0 0 1.363-.108C12.225 1.576 11.686 0 10.103 0 8.311 0 7.64 2.297 7.315 3.4l-.055.187c-.065.219-.238.892-.462 1.792H4.405a.684.684 0 1 0 0 1.368H6.46c-.702 2.847-1.61 6.603-1.71 7.016-.037.109-.317.87-.89.87-.876 0-1.255-1.23-1.258-1.239a.683.683 0 1 0-1.314.38c.24.827 1.05 2.226 2.571 2.226ZM13.998 14.237c.403 0 .742-.287.742-.742 0-.212-.085-.403-.265-.615l-1.42-1.631 1.378-1.611c.127-.159.222-.329.222-.551 0-.403-.328-.7-.752-.7-.286 0-.509.18-.7.414l-1.07 1.398-1.049-1.398c-.212-.265-.434-.414-.752-.414-.403 0-.742.287-.742.742 0 .212.085.403.265.615l1.325 1.526-1.452 1.716a.805.805 0 0 0-.222.551c0 .403.328.7.752.7.286 0 .508-.18.699-.414l1.144-1.504 1.144 1.504c.213.265.436.414.753.414Z"/></svg>