<svg viewBox="0 0 28 28" fill="currentColor" xmlns="http://www.w3.org/2000/svg">
<path d="M21.5 13.375H15.2225C14.945 13.3004 14.6662 13.2306 14.3863 13.1656C12.6312 12.7506 11.6388 12.4469 11.6388 11.0262C11.6245 10.781 11.6608 10.5355 11.7454 10.3048C11.83 10.0742 11.9612 9.86345 12.1306 9.68562C12.6615 9.24906 13.3264 9.00851 14.0137 9.00437C15.7825 8.96062 16.5981 9.56063 17.265 10.4731L18.2744 9.73563C17.8019 9.0571 17.1578 8.51616 16.4078 8.16807C15.6578 7.81998 14.8288 7.67722 14.0056 7.75437C12.9944 7.76083 12.0189 8.12909 11.2556 8.7925C10.9663 9.08594 10.7402 9.43552 10.5913 9.8197C10.4423 10.2039 10.3736 10.6145 10.3894 11.0262C10.362 11.4768 10.4466 11.9271 10.6357 12.337C10.8248 12.7468 11.1125 13.1035 11.4731 13.375H6.5V14.625H15.0325C16.2619 14.9812 16.9969 15.445 17.0156 16.7237C17.0359 16.9969 16.9985 17.2713 16.9056 17.529C16.8128 17.7867 16.6667 18.0219 16.4769 18.2194C15.8155 18.7407 14.9938 19.0166 14.1519 19C13.5234 18.9818 12.9074 18.8209 12.3503 18.5295C11.7932 18.2382 11.3097 17.8239 10.9362 17.3181L9.97812 18.1206C10.4636 18.7676 11.0899 19.2955 11.8097 19.6645C12.5295 20.0334 13.3238 20.2336 14.1325 20.25H14.195C15.3492 20.2633 16.4695 19.8596 17.35 19.1131C17.6625 18.798 17.9054 18.4209 18.0632 18.0061C18.2209 17.5914 18.2898 17.1481 18.2656 16.705C18.289 15.947 18.0332 15.2069 17.5469 14.625H21.5V13.375Z"/>
</svg>
