<svg height="1em" width="1em" viewBox="0 0 71 71" fill="none" xmlns="http://www.w3.org/2000/svg">
<path d="M67.3039 25.8394L31.226 61.5168C25.2481 67.4288 15.5552 67.4288 9.57728 61.5168C3.5994 55.6048 3.5994 46.0209 9.57728 40.1088L42.0492 7.99947C46.0353 4.0589 52.4947 4.0589 56.4809 7.99947C60.467 11.9399 60.467 18.331 56.4809 22.2714L24.0089 54.3809C22.0171 56.3525 18.7861 56.3525 16.7918 54.3809C14.8 52.4119 14.8 49.2165 16.7918 47.2449L45.6552 18.7034L42.0466 15.1355L13.1859 43.6794C9.19978 47.62 9.19978 54.0109 13.1859 57.9514C17.172 61.8919 23.6314 61.8919 27.6175 57.9514L60.0895 25.8419C66.0674 19.93 66.0674 10.346 60.0895 4.43396C54.1115 -1.47799 44.4187 -1.47799 38.4408 4.43396L4.16449 38.3273L4.2887 38.4514C-1.93761 46.3679 -1.39024 57.812 5.96879 65.0872C13.3278 72.3626 24.8959 72.9074 32.9036 66.7471L33.0278 66.8713L70.91 29.4099L67.3039 25.8394Z" fill="black"/>
</svg>
