<svg viewBox="0 0 21 20" fill="none" xmlns="http://www.w3.org/2000/svg">
<path d="M1.00057 5V2.4C1.00057 1.6268 1.61458 1 2.372 1H6.60814C7.39129 1 8.12518 1.38211 8.57429 2.02369L10.6577 5M1.00057 5L1 16.9999C0.999937 18.3254 2.07447 19.4 3.4 19.4H17.8005C19.126 19.4 20.2005 18.3254 20.2005 16.9999L20.2 7.40003C20.1999 6.07461 19.1255 5.00017 17.8 5.00015L10.6577 5M1.00057 5H10.6577" stroke="#535862" stroke-width="1.2" stroke-linecap="round"/>
<path d="M10.3106 9.01762C10.3881 8.86066 10.6119 8.86066 10.6893 9.01762L11.6921 11.0494C11.7228 11.1117 11.7823 11.1549 11.8511 11.1649L14.0933 11.4908C14.2665 11.5159 14.3357 11.7288 14.2103 11.8509L12.5879 13.4325C12.5381 13.481 12.5154 13.5509 12.5271 13.6194L12.9101 15.8526C12.9397 16.0251 12.7587 16.1566 12.6037 16.0752L10.5982 15.0208C10.5367 14.9885 10.4632 14.9885 10.4017 15.0208L8.39619 16.0752C8.24127 16.1566 8.0602 16.0251 8.08979 15.8526L8.47281 13.6194C8.48456 13.5509 8.46185 13.481 8.41207 13.4325L6.78959 11.8509C6.66425 11.7288 6.73342 11.5159 6.90662 11.4908L9.14885 11.1649C9.21763 11.1549 9.27709 11.1117 9.30785 11.0494L10.3106 9.01762Z" stroke="#535862" stroke-linejoin="round"/>
</svg>
