<svg viewBox="0 0 22 21" fill="none" xmlns="http://www.w3.org/2000/svg">
<path d="M1.00057 5V2.4C1.00057 1.6268 1.61458 1 2.372 1H6.60814C7.39129 1 8.12518 1.38211 8.57429 2.02369L10.6577 5M1.00057 5L1 16.9999C0.999937 18.3254 2.07447 19.4 3.4 19.4H17.8005C19.126 19.4 20.2005 18.3254 20.2005 16.9999L20.2 7.40003C20.1999 6.07461 19.1255 5.00017 17.8 5.00015L10.6577 5M1.00057 5H10.6577" stroke="#535862" stroke-width="2" stroke-linecap="round"/>
<path d="M10.3106 9.01774C10.3881 8.86079 10.6119 8.86079 10.6893 9.01774L11.6921 11.0495C11.7228 11.1119 11.7823 11.1551 11.8511 11.1651L14.0933 11.4909C14.2665 11.516 14.3357 11.7289 14.2103 11.8511L12.5879 13.4326C12.5381 13.4811 12.5154 13.551 12.5271 13.6195L12.9101 15.8527C12.9397 16.0252 12.7587 16.1567 12.6037 16.0753L10.5982 15.0209C10.5367 14.9886 10.4632 14.9886 10.4017 15.0209L8.39619 16.0753C8.24127 16.1567 8.0602 16.0252 8.08979 15.8527L8.47281 13.6195C8.48456 13.551 8.46185 13.4811 8.41207 13.4326L6.78959 11.8511C6.66425 11.7289 6.73342 11.516 6.90662 11.4909L9.14885 11.1651C9.21763 11.1551 9.27709 11.1119 9.30785 11.0495L10.3106 9.01774Z" stroke="#535862" stroke-width="1.13" stroke-linejoin="round"/>
</svg>
