<svg viewBox="0 0 16 16" fill="none" xmlns="http://www.w3.org/2000/svg">
<path fill-rule="evenodd" clip-rule="evenodd" d="M0.728923 1.71946C0.838161 1.48401 1.07412 1.33337 1.33367 1.33337H14.667C14.9266 1.33337 15.1625 1.48401 15.2717 1.71946C15.381 1.9549 15.3436 2.23234 15.176 2.43052L10.0003 8.5508V14C10.0003 14.2311 9.8807 14.4457 9.68416 14.5671C9.48761 14.6886 9.24218 14.6997 9.03553 14.5963L6.36886 13.263C6.143 13.1501 6.00033 12.9192 6.00033 12.6667V8.55081L0.824621 2.43052C0.657023 2.23234 0.619684 1.9549 0.728923 1.71946ZM2.77054 2.66671L7.17605 7.87622C7.27782 7.99657 7.33367 8.14909 7.33367 8.30671V12.2547L8.667 12.9214V8.30671C8.667 8.14909 8.72285 7.99657 8.82462 7.87622L13.2301 2.66671H2.77054Z" fill="currentColor"/>
</svg>