<svg height="1em" width="1em" viewBox="0 0 77 57" fill="none" xmlns="http://www.w3.org/2000/svg">
<path d="M73.5625 7.98667C72.6616 7.54817 71.6544 7.37557 70.6589 7.48911C69.6634 7.60264 68.7209 7.99761 67.9419 8.62772L58.8646 15.8881V14.3333C59.0726 12.5389 58.8721 10.7207 58.2782 9.01469C57.6843 7.30868 56.7123 5.75904 55.435 4.4817C54.1576 3.20436 52.608 2.23238 50.902 1.63848C49.196 1.04457 47.3778 0.844109 45.5833 1.05209H13.7083C11.9139 0.844109 10.0957 1.04457 8.38969 1.63848C6.68368 2.23238 5.13404 3.20436 3.8567 4.4817C2.57936 5.75904 1.60738 7.30868 1.01348 9.01469C0.41957 10.7207 0.219109 12.5389 0.42709 14.3333V42.6667C0.219109 44.4611 0.41957 46.2793 1.01348 47.9853C1.60738 49.6913 2.57936 51.241 3.8567 52.5183C5.13404 53.7957 6.68368 54.7676 8.38969 55.3615C10.0957 55.9554 11.9139 56.1559 13.7083 55.9479H45.5833C47.3778 56.1559 49.196 55.9554 50.902 55.3615C52.608 54.7676 54.1576 53.7957 55.435 52.5183C56.7123 51.241 57.6843 49.6913 58.2782 47.9853C58.8721 46.2793 59.0726 44.4611 58.8646 42.6667V41.1119L67.9419 48.3723C68.8784 49.1287 70.0459 49.5413 71.2498 49.541C72.0504 49.5399 72.8406 49.3596 73.5625 49.0133C74.4672 48.5826 75.2307 47.9032 75.7638 47.0547C76.2969 46.2062 76.5775 45.2235 76.5729 44.2215V12.7785C76.5775 11.7765 76.2969 10.7938 75.7638 9.94531C75.2307 9.09679 74.4672 8.41747 73.5625 7.98667ZM53.5521 42.6667C53.5521 48.2519 51.1685 50.6354 45.5833 50.6354H13.7083C8.12313 50.6354 5.73959 48.2519 5.73959 42.6667V14.3333C5.73959 8.74813 8.12313 6.36459 13.7083 6.36459H45.5833C51.1685 6.36459 53.5521 8.74813 53.5521 14.3333V42.6667ZM71.2604 44.225L58.8646 34.3083V22.6917L71.2604 12.775V44.225Z" fill="#292929"/>
</svg>
