<svg viewBox="0 0 18 16" fill="none" xmlns="http://www.w3.org/2000/svg">
<path fill-rule="evenodd" clip-rule="evenodd" d="M5.875 5.65625C6.03175 5.65625 6.17806 5.73456 6.265 5.865L8.375 9.02994L9.235 7.74C9.32194 7.60956 9.46825 7.53125 9.625 7.53125H11.5C11.7589 7.53125 11.9688 7.74113 11.9688 8C11.9688 8.25887 11.7589 8.46875 11.5 8.46875H9.87587L8.765 10.135C8.67806 10.2654 8.53175 10.3438 8.375 10.3438C8.21825 10.3438 8.07194 10.2654 7.985 10.135L5.875 6.97006L5.01502 8.26C4.92809 8.39044 4.78173 8.46875 4.625 8.46875H1.5C1.24112 8.46875 1.03125 8.25887 1.03125 8C1.03125 7.74113 1.24112 7.53125 1.5 7.53125H4.37413L5.485 5.865C5.57194 5.73456 5.71825 5.65625 5.875 5.65625Z" fill="currentColor" stroke="currentColor" stroke-width="0.5"/>
<path fill-rule="evenodd" clip-rule="evenodd" d="M6.93913 2.01545C6.20581 1.62497 5.35988 1.50061 4.54521 1.66354C3.73056 1.82647 2.99751 2.26662 2.4708 2.90911C1.94409 3.55159 1.65625 4.35675 1.65625 5.1875C1.65625 5.29269 1.65649 5.38362 1.66268 5.46406C1.68254 5.72219 1.48939 5.9475 1.23126 5.96737C0.973144 5.98725 0.7478 5.79406 0.727944 5.53594C0.718738 5.41625 0.718744 5.29169 0.71875 5.19481V5.1875C0.71875 4.13999 1.08168 3.12483 1.74579 2.31474C2.40991 1.50466 3.33418 0.949686 4.36135 0.744249C5.3885 0.538818 6.45513 0.695611 7.37975 1.18795C8.03419 1.53644 8.58888 2.03781 9 2.64393C9.41113 2.03781 9.96581 1.53644 10.6203 1.18795C11.5449 0.695611 12.6115 0.538818 13.6386 0.744249C14.6658 0.949686 15.5901 1.50466 16.2542 2.31474C16.9183 3.12483 17.2812 4.13999 17.2812 5.1875C17.2812 8.0595 15.1861 10.6022 13.2198 12.3719C12.2225 13.2694 11.2274 13.9957 10.4825 14.4972C10.1096 14.7483 9.79838 14.9438 9.57938 15.0771C9.46988 15.1437 9.38338 15.1948 9.32375 15.2296C9.29388 15.247 9.27075 15.2602 9.25481 15.2694L9.23638 15.2799L9.23131 15.2827L9.22981 15.2836C9.22981 15.2836 9.22906 15.284 9 14.875C8.7705 15.2837 8.77038 15.2837 8.77038 15.2837L8.76719 15.2819L8.75938 15.2774L8.73069 15.261C8.70581 15.2467 8.66969 15.2257 8.62325 15.1983C8.53038 15.1435 8.39625 15.0628 8.22863 14.9581C7.89344 14.7486 7.42356 14.4422 6.88094 14.0527C5.79844 13.2755 4.41388 12.1581 3.23317 10.8087C3.06269 10.6139 3.08244 10.3177 3.27726 10.1472C3.47209 9.97675 3.76823 9.9965 3.93871 10.1913C5.05488 11.4669 6.37731 12.537 7.42769 13.2911C7.95144 13.6672 8.40438 13.9624 8.7255 14.1631C8.83256 14.23 8.92494 14.2864 9.00025 14.3316C9.0285 14.3147 9.05912 14.2962 9.092 14.2762C9.30031 14.1494 9.59938 13.9617 9.95888 13.7196C10.6789 13.2348 11.6369 12.5352 12.5927 11.675C14.5327 9.929 16.3438 7.628 16.3438 5.1875C16.3438 4.35675 16.0559 3.55159 15.5292 2.90911C15.0025 2.26662 14.2694 1.82647 13.4548 1.66354C12.6401 1.50061 11.7942 1.62497 11.0609 2.01545C10.3276 2.40593 9.75225 3.03841 9.43269 3.80529L9 3.625L8.56731 3.80529C8.24775 3.03841 7.67244 2.40593 6.93913 2.01545ZM9 14.875L8.77038 15.2837C8.91275 15.3636 9.08656 15.3637 9.22906 15.284L9 14.875Z" fill="currentColor"/>
<path d="M9 14.875C9.22906 15.284 9.22981 15.2836 9.22981 15.2836L9.23131 15.2827L9.23638 15.2799L9.25481 15.2694C9.27075 15.2602 9.29388 15.247 9.32375 15.2296C9.38338 15.1948 9.46988 15.1437 9.57938 15.0771C9.79838 14.9438 10.1096 14.7483 10.4825 14.4972C11.2274 13.9957 12.2225 13.2694 13.2198 12.3719C15.1861 10.6022 17.2812 8.0595 17.2812 5.1875C17.2812 4.13999 16.9183 3.12483 16.2542 2.31474C15.5901 1.50466 14.6658 0.949686 13.6386 0.744249C12.6115 0.538818 11.5449 0.695611 10.6203 1.18795C9.96581 1.53644 9.41113 2.03781 9 2.64393C8.58888 2.03781 8.03419 1.53644 7.37975 1.18795C6.45513 0.695611 5.3885 0.538818 4.36135 0.744249C3.33418 0.949686 2.40991 1.50466 1.74579 2.31474C1.08168 3.12483 0.71875 4.13999 0.71875 5.1875V5.19481C0.718744 5.29169 0.718738 5.41625 0.727944 5.53594C0.7478 5.79406 0.973144 5.98725 1.23126 5.96737C1.48939 5.9475 1.68254 5.72219 1.66268 5.46406C1.65649 5.38362 1.65625 5.29269 1.65625 5.1875C1.65625 4.35675 1.94409 3.55159 2.4708 2.90911C2.99751 2.26662 3.73056 1.82647 4.54521 1.66354C5.35988 1.50061 6.20581 1.62497 6.93913 2.01545C7.67244 2.40593 8.24775 3.03841 8.56731 3.80529L9 3.625L9.43269 3.80529C9.75225 3.03841 10.3276 2.40593 11.0609 2.01545C11.7942 1.62497 12.6401 1.50061 13.4548 1.66354C14.2694 1.82647 15.0025 2.26662 15.5292 2.90911C16.0559 3.55159 16.3438 4.35675 16.3438 5.1875C16.3438 7.628 14.5327 9.929 12.5927 11.675C11.6369 12.5352 10.6789 13.2348 9.95888 13.7196C9.59938 13.9617 9.30031 14.1494 9.092 14.2762C9.05913 14.2962 9.0285 14.3147 9.00025 14.3316C8.92494 14.2864 8.83256 14.23 8.7255 14.1631C8.40438 13.9624 7.95144 13.6672 7.42769 13.2911C6.37731 12.537 5.05488 11.4669 3.93871 10.1913C3.76823 9.9965 3.47209 9.97675 3.27726 10.1472C3.08244 10.3177 3.06269 10.6139 3.23317 10.8087C4.41388 12.1581 5.79844 13.2755 6.88094 14.0527C7.42356 14.4422 7.89344 14.7486 8.22863 14.9581C8.39625 15.0628 8.53038 15.1435 8.62325 15.1983C8.66969 15.2257 8.70581 15.2467 8.73069 15.261L8.75938 15.2774L8.76719 15.2819L8.77038 15.2837M9 14.875C8.7705 15.2837 8.77038 15.2837 8.77038 15.2837M9 14.875L8.77038 15.2837M9 14.875L9.22906 15.284C9.08656 15.3637 8.91275 15.3636 8.77038 15.2837" stroke="currentColor" stroke-width="0.5"/>
</svg>
