<svg viewBox="0 0 20 20" fill="none" xmlns="http://www.w3.org/2000/svg">
<path d="M7.5 2.5H3.33333C2.8731 2.5 2.5 2.8731 2.5 3.33333V9.16667C2.5 9.6269 2.8731 10 3.33333 10H7.5C7.96024 10 8.33333 9.6269 8.33333 9.16667V3.33333C8.33333 2.8731 7.96024 2.5 7.5 2.5Z" stroke="currentColor" stroke-width="1.66667" stroke-linecap="round" stroke-linejoin="round"/>
<path d="M16.6667 2.5H12.5C12.0398 2.5 11.6667 2.8731 11.6667 3.33333V5.83333C11.6667 6.29357 12.0398 6.66667 12.5 6.66667H16.6667C17.1269 6.66667 17.5 6.29357 17.5 5.83333V3.33333C17.5 2.8731 17.1269 2.5 16.6667 2.5Z" stroke="currentColor" stroke-width="1.66667" stroke-linecap="round" stroke-linejoin="round"/>
<path d="M16.6667 10H12.5C12.0398 10 11.6667 10.3731 11.6667 10.8333V16.6667C11.6667 17.1269 12.0398 17.5 12.5 17.5H16.6667C17.1269 17.5 17.5 17.1269 17.5 16.6667V10.8333C17.5 10.3731 17.1269 10 16.6667 10Z" stroke="currentColor" stroke-width="1.66667" stroke-linecap="round" stroke-linejoin="round"/>
<path d="M7.5 13.333H3.33333C2.8731 13.333 2.5 13.7061 2.5 14.1663V16.6663C2.5 17.1266 2.8731 17.4997 3.33333 17.4997H7.5C7.96024 17.4997 8.33333 17.1266 8.33333 16.6663V14.1663C8.33333 13.7061 7.96024 13.333 7.5 13.333Z" stroke="currentColor" stroke-width="1.66667" stroke-linecap="round" stroke-linejoin="round"/>
</svg>
