<svg width="15" height="15" viewBox="0 0 15 15" fill="none" xmlns="http://www.w3.org/2000/svg">
<path d="M2.44445 1C1.6467 1 1 1.63784 1 2.42465L1 4.85661C1 5.64343 1.6467 6.28127 2.44444 6.28127H4.61111C5.40885 6.28127 6.05555 5.64343 6.05555 4.85661L6.05556 2.42465C6.05556 1.63784 5.40886 1 4.61111 1L2.44445 1Z" stroke="#535862" stroke-linecap="round" stroke-linejoin="round"/>
<path d="M12.5556 1C13.3533 1 14 1.63784 14 2.42465L14 4.85661C14 5.64343 13.3533 6.28127 12.5555 6.28127H10.3889C9.59114 6.28127 8.94444 5.64343 8.94444 4.85661L8.94445 2.42465C8.94445 1.63784 9.59115 1 10.3889 1L12.5556 1Z" stroke="#535862" stroke-linecap="round" stroke-linejoin="round"/>
<path d="M2.44444 8.71876C1.64669 8.71876 1 9.3566 1 10.1434V12.5753C1 13.3622 1.64669 14 2.44444 14H4.61111C5.40885 14 6.05555 13.3622 6.05555 12.5753L6.05555 10.1434C6.05555 9.3566 5.40885 8.71876 4.61111 8.71876H2.44444Z" stroke="#535862" stroke-linecap="round" stroke-linejoin="round"/>
<path d="M12.5556 8.71876C13.3533 8.71876 14 9.3566 14 10.1434L14 12.5753C14 13.3622 13.3533 14 12.5555 14H10.3889C9.59114 14 8.94444 13.3622 8.94444 12.5753L8.94444 10.1434C8.94444 9.3566 9.59114 8.71876 10.3889 8.71876H12.5556Z" stroke="#535862" stroke-linecap="round" stroke-linejoin="round"/>
</svg>
