<svg width="20" height="21" viewBox="0 0 20 21" fill="none" xmlns="http://www.w3.org/2000/svg">
<path d="M4.44445 4C3.6467 4 3 4.63784 3 5.42465L3 7.85661C3 8.64343 3.6467 9.28127 4.44444 9.28127H6.61111C7.40885 9.28127 8.05555 8.64343 8.05555 7.85661L8.05556 5.42465C8.05556 4.63784 7.40886 4 6.61111 4L4.44445 4Z" stroke="#535862" stroke-linecap="round" stroke-linejoin="round"/>
<path d="M14.5556 4C15.3533 4 16 4.63784 16 5.42465L16 7.85661C16 8.64343 15.3533 9.28127 14.5555 9.28127H12.3889C11.5911 9.28127 10.9444 8.64343 10.9444 7.85661L10.9444 5.42465C10.9444 4.63784 11.5911 4 12.3889 4L14.5556 4Z" stroke="#535862" stroke-linecap="round" stroke-linejoin="round"/>
<path d="M4.44444 11.7188C3.64669 11.7188 3 12.3566 3 13.1434V15.5753C3 16.3622 3.64669 17 4.44444 17H6.61111C7.40885 17 8.05555 16.3622 8.05555 15.5753L8.05555 13.1434C8.05555 12.3566 7.40885 11.7188 6.61111 11.7188H4.44444Z" stroke="#535862" stroke-linecap="round" stroke-linejoin="round"/>
<path d="M14.5556 11.7188C15.3533 11.7188 16 12.3566 16 13.1434L16 15.5753C16 16.3622 15.3533 17 14.5555 17H12.3889C11.5911 17 10.9444 16.3622 10.9444 15.5753L10.9444 13.1434C10.9444 12.3566 11.5911 11.7188 12.3889 11.7188H14.5556Z" stroke="#535862" stroke-linecap="round" stroke-linejoin="round"/>
</svg>
