<svg viewBox="0 0 24 24" fill="none" xmlns="http://www.w3.org/2000/svg">
<path d="M11.9998 0.750031C5.78189 0.750031 0.749756 5.78159 0.749756 12C0.749756 18.2178 5.78132 23.25 11.9998 23.25C18.2176 23.25 23.2498 18.2185 23.2498 12C23.2498 5.78216 18.2182 0.750031 11.9998 0.750031ZM11.9998 21.6803C6.66207 21.6803 2.31953 17.3378 2.31953 12C2.31953 6.6623 6.66207 2.3198 11.9998 2.3198C17.3375 2.3198 21.68 6.6623 21.68 12C21.68 17.3378 17.3375 21.6803 11.9998 21.6803Z" fill="currentColor"/>
<path d="M11.6669 14.9825C11.045 14.9825 10.5415 15.5007 10.5415 16.1227C10.5415 16.7298 11.0302 17.2629 11.6669 17.2629C12.3037 17.2629 12.8071 16.7298 12.8071 16.1227C12.8071 15.5007 12.2889 14.9825 11.6669 14.9825Z" fill="currentColor"/>
<path d="M11.8587 6.34689C9.85951 6.34689 8.94141 7.53161 8.94141 8.33124C8.94141 8.90877 9.43008 9.17534 9.82989 9.17534C10.6296 9.17534 10.3038 8.03505 11.8142 8.03505C12.5546 8.03505 13.147 8.36086 13.147 9.04206C13.147 9.84169 12.3177 10.3007 11.8291 10.7154C11.3996 11.0855 10.8369 11.6927 10.8369 12.9662C10.8369 13.7363 11.0442 13.9584 11.6513 13.9584C12.3769 13.9584 12.525 13.6326 12.525 13.3512C12.525 12.5812 12.5398 12.137 13.3543 11.5002C13.7541 11.1892 15.0128 10.1822 15.0128 8.79025C15.0128 7.39828 13.7541 6.34689 11.8587 6.34689Z" fill="currentColor"/>
</svg>
