<svg viewBox="0 0 40 40" fill="none" xmlns="http://www.w3.org/2000/svg">
<g clip-path="url(#clip0_1621_79083)">
<path d="M20 5.9375C18.153 5.93652 16.3239 6.29958 14.6174 7.00594C12.9108 7.7123 11.3601 8.74809 10.0541 10.0541C8.74809 11.3601 7.7123 12.9108 7.00594 14.6174C6.29958 16.3239 5.93652 18.153 5.9375 20C5.9375 27.7725 12.225 34.0625 20 34.0625C27.7725 34.0625 34.0625 27.7725 34.0625 20C34.0625 12.2275 27.7725 5.9375 20 5.9375ZM20 32.1C13.3275 32.1 7.9 26.6725 7.9 20C7.9 13.3275 13.3275 7.9 20 7.9C26.6713 7.9 32.1 13.3275 32.1 20C32.1 26.6725 26.6713 32.1 20 32.1Z" fill="currentColor"/>
<path d="M19.5838 23.7275C18.8063 23.7275 18.1763 24.3763 18.1763 25.1525C18.1763 25.9125 18.7888 26.5775 19.5838 26.5775C19.9607 26.5743 20.3213 26.4231 20.5878 26.1565C20.8543 25.89 21.0055 25.5294 21.0088 25.1525C21.0055 24.7756 20.8543 24.415 20.5878 24.1485C20.3213 23.882 19.9607 23.7308 19.5838 23.7275ZM19.8238 12.9338C17.3238 12.9338 16.1763 14.415 16.1763 15.4138C16.1763 16.1363 16.7888 16.4688 17.2875 16.4688C18.2875 16.4688 17.88 15.0438 19.7675 15.0438C20.6925 15.0438 21.4338 15.4513 21.4338 16.3025C21.4338 17.3025 20.3963 17.8763 19.7863 18.3938C19.2488 18.8563 18.5463 19.6163 18.5463 21.2075C18.5463 22.17 18.805 22.4475 19.5638 22.4475C20.4713 22.4475 20.6563 22.0413 20.6563 21.6888C20.6563 20.7263 20.675 20.1713 21.6938 19.3763C22.1938 18.9863 23.7663 17.7275 23.7663 15.9888C23.7663 14.2475 22.1925 12.9338 19.8238 12.9338Z" fill="currentColor"/>
</g>
<defs>
<clipPath id="clip0_1621_79083">
<rect width="30" height="30" fill="white" transform="translate(5 5)"/>
</clipPath>
</defs>
</svg>