<svg viewBox="0 0 24 24" fill="none" xmlns="http://www.w3.org/2000/svg">
<path d="M3.6 10.4618C3.6 9.45277 4.04689 8.49791 4.82243 7.85627C5.89397 6.96972 7.38616 5.74125 8.67113 4.70559C9.31397 4.18747 9.90234 3.71972 10.3592 3.3678C10.588 3.19158 10.7805 3.04699 10.9287 2.94058C11.0029 2.88728 11.0628 2.84591 11.1086 2.81592C11.1525 2.78714 11.1708 2.77729 11.1707 2.77716C11.1707 2.77715 11.1704 2.77729 11.1698 2.77757C11.7005 2.52369 12.3318 2.56414 12.6794 2.75965C14.4359 3.74781 17.7657 6.32189 19.7192 7.87179C20.5136 8.50202 20.9714 9.46518 20.9714 10.4868V18C20.9714 19.8778 19.4492 21.4 17.5714 21.4H7C5.12223 21.4 3.6 19.8778 3.6 18V10.4618Z" stroke="currentColor" stroke-width="1.2"/>
<rect x="9.43398" y="13.4333" width="6.3" height="7.96667" rx="1.4" stroke="currentColor" stroke-width="1.2"/>
</svg>
