<svg viewBox="0 0 20 20" fill="none" xmlns="http://www.w3.org/2000/svg">
<g clip-path="url(#clip0_6502_18524)">
<path d="M10 0.625C4.81844 0.625 0.625 4.81797 0.625 10C0.625 15.1815 4.81797 19.375 10 19.375C15.1816 19.375 19.375 15.182 19.375 10C19.375 4.81844 15.182 0.625 10 0.625ZM10 18.0669C5.55193 18.0669 1.93314 14.4481 1.93314 10C1.93314 5.55189 5.55193 1.93314 10 1.93314C14.4481 1.93314 18.0669 5.55189 18.0669 10C18.0669 14.4481 14.4481 18.0669 10 18.0669Z" fill="currentColor"/>
<path d="M9.72302 12.4854C9.20472 12.4854 8.78516 12.9173 8.78516 13.4355C8.78516 13.9415 9.19238 14.3858 9.72302 14.3858C10.2537 14.3858 10.6732 13.9415 10.6732 13.4355C10.6732 12.9173 10.2413 12.4854 9.72302 12.4854Z" fill="currentColor"/>
<path d="M9.88223 5.28906C8.21626 5.28906 7.45117 6.27633 7.45117 6.94269C7.45117 7.42396 7.8584 7.64611 8.19158 7.64611C8.85797 7.64611 8.5865 6.69586 9.8452 6.69586C10.4622 6.69586 10.9558 6.96737 10.9558 7.53503C10.9558 8.20139 10.2648 8.58394 9.85754 8.92946C9.49965 9.23791 9.03075 9.74391 9.03075 10.8052C9.03075 11.4469 9.20353 11.632 9.70945 11.632C10.3141 11.632 10.4375 11.3605 10.4375 11.126C10.4375 10.4843 10.4499 10.1141 11.1286 9.58347C11.4618 9.32434 12.5107 8.48517 12.5107 7.32519C12.5107 6.16522 11.4618 5.28906 9.88223 5.28906Z" fill="currentColor"/>
</g>
<defs>
<clipPath id="clip0_6502_18524">
<rect width="20" height="20" fill="white"/>
</clipPath>
</defs>
</svg>
