<svg xmlns="http://www.w3.org/2000/svg" width="22" height="22" fill="none"><path fill="#76746F" stroke="#76746F" stroke-width=".5" d="m20.461 9.66-.002-.002L12.301 1.5a1.829 1.829 0 0 0-1.302-.54 1.83 1.83 0 0 0-1.302.54L1.543 9.654l-.008.009a1.843 1.843 0 0 0 .003 2.6 1.83 1.83 0 0 0 1.279.54h.325v6.003c0 1.188.967 2.155 2.155 2.155h3.192a.586.586 0 0 0 .586-.586v-4.707c0-.542.44-.983.983-.983h1.882c.543 0 .984.44.984.983v4.707c0 .323.262.586.585.586h3.192a2.157 2.157 0 0 0 2.155-2.155v-6.004h.302A1.844 1.844 0 0 0 20.46 9.66Zm-.83 1.774a.665.665 0 0 1-.473.197h-.888a.586.586 0 0 0-.585.585v6.59a.984.984 0 0 1-.984.983h-2.606v-4.121a2.157 2.157 0 0 0-2.155-2.155h-1.882a2.158 2.158 0 0 0-2.155 2.155v4.121H5.297a.984.984 0 0 1-.983-.983v-6.59a.586.586 0 0 0-.586-.585h-.873a.664.664 0 0 1-.488-.196.67.67 0 0 1 0-.947v-.001l8.159-8.158a.664.664 0 0 1 .473-.196c.179 0 .347.07.473.196l8.157 8.156.003.004a.67.67 0 0 1 0 .945Z"/></svg>