<svg viewBox="0 0 24 24" fill="none" xmlns="http://www.w3.org/2000/svg">
<path d="M3.7 10.4618C3.7 9.48237 4.13376 8.55583 4.88617 7.93332C5.95762 7.04685 7.44942 5.8187 8.73388 4.78345C9.37653 4.26548 9.96423 3.79827 10.4203 3.44702C10.6487 3.27109 10.8401 3.12728 10.987 3.02181C11.1263 2.92183 11.1934 2.88 11.209 2.87029C11.2119 2.86844 11.213 2.86775 11.2124 2.86806C11.7171 2.62638 12.3141 2.66888 12.6303 2.8468C14.3785 3.83023 17.7014 6.39855 19.657 7.95013C20.427 8.561 20.8714 9.49506 20.8714 10.4868V18C20.8714 19.8225 19.394 21.3 17.5714 21.3H7C5.17746 21.3 3.7 19.8225 3.7 18V10.4618Z" stroke="currentColor" stroke-width="1.4"/>
<rect x="9.53337" y="13.5335" width="6.1" height="7.76667" rx="1.3" stroke="currentColor" stroke-width="1.4"/>
</svg>
