<svg width="20" height="20" viewBox="0 0 20 20" fill="none" xmlns="http://www.w3.org/2000/svg">
<path d="M19.5854 10.0876C19.8079 9.68169 19.8503 9.21021 19.7073 8.78508L18.9451 5.15097C18.7213 4.34575 17.7823 3.91996 16.9512 4.20537C16.54 4.34575 16.2036 4.64175 16.0268 5.01721C15.8758 5.33838 15.8507 5.69132 15.954 6.02109L16.2963 8.42949C15.5461 8.14143 14.67 8.45266 14.2912 9.14531L12.4351 12.545C12.1325 13.0979 11.9749 13.7045 11.9822 14.3237L12.0086 16.6367L11.7405 16.7281C11.5696 16.7863 11.4299 16.9115 11.3544 17.0751C11.2782 17.2386 11.2723 17.426 11.3372 17.5942L11.8908 19.0193C11.9928 19.2815 12.2431 19.4417 12.5086 19.4417C12.5887 19.4417 12.6695 19.4278 12.7483 19.3974C13.0953 19.2636 13.2423 18.8809 13.1258 18.5398L12.8218 17.7578L17.6459 16.1089L17.9591 16.9161C18.0823 17.2717 18.4776 17.4545 18.8266 17.3194C19.1676 17.187 19.3365 16.8029 19.204 16.4619L18.6504 15.0368C18.5286 14.7236 18.1915 14.5634 17.873 14.6428L17.5889 13.9621C17.5558 13.882 17.5644 13.7873 17.6134 13.6985L19.5854 10.0876ZM13.3065 14.3038C13.3032 13.9111 13.4032 13.535 13.5966 13.18L15.4534 9.78036C15.5097 9.6552 15.8904 9.54726 15.8904 9.78896L14.6031 12.1464C14.4276 12.4675 14.5462 12.8701 14.8667 13.045C15.1872 13.2198 15.5904 13.1012 15.7653 12.7814L17.0526 10.4233C17.3817 9.81678 17.9035 9.05658 17.6194 8.33876L17.2552 5.77344C17.2314 5.63636 17.1982 5.50525 17.3784 5.45889C17.5101 5.41386 17.624 5.45691 17.6651 5.5026L18.42 9.10095C18.4617 9.21484 18.4889 9.36715 18.4233 9.45191L16.4506 13.0642C16.2096 13.5072 16.1785 14.0197 16.3665 14.4713L16.6135 15.0627L13.3277 16.1857L13.3065 14.3038Z" fill="#F44336"/>
<path d="M9.30026 16.7274L9.03273 16.636L9.05988 14.323C9.0665 13.7018 8.91023 13.0992 8.60694 12.5443L6.75082 9.14528C6.37271 8.45196 5.4953 8.14073 4.74636 8.42878L5.08872 6.01973C5.19136 5.68996 5.16553 5.33701 5.01521 5.01585C4.83775 4.64171 4.50069 4.34571 4.09079 4.20599C3.25908 3.9186 2.32009 4.34571 2.09627 5.15027L1.33343 8.78504C1.19039 9.21017 1.23344 9.68099 1.45527 10.0869L3.42728 13.6985C3.47628 13.7886 3.48489 13.8813 3.45178 13.9614L3.1677 14.6428C2.84786 14.5647 2.51279 14.7242 2.39095 15.0368L1.83669 16.4618C1.70426 16.8029 1.87311 17.1869 2.21414 17.3194C2.55319 17.4511 2.93858 17.2823 3.07102 16.9419L3.08095 16.9168L3.39417 16.1095L8.2189 17.7584L7.91561 18.5405C7.79841 18.8821 7.94607 19.2642 8.29306 19.398C8.37186 19.4285 8.45265 19.4424 8.53211 19.4424C8.79765 19.4424 9.04796 19.2821 9.14994 19.0199L9.70287 17.5948C9.76843 17.4266 9.7618 17.2392 9.68631 17.0757C9.61016 16.9115 9.4711 16.7856 9.30026 16.7274ZM2.59159 9.20024C2.60351 9.16779 2.61344 9.13468 2.62007 9.10157L3.37563 5.50256C3.41536 5.45621 3.53058 5.41382 3.66169 5.45885C3.79678 5.48931 3.84247 5.64228 3.78552 5.7734L3.42132 8.33806C3.28689 8.75657 3.33258 9.21745 3.55045 9.61609C3.85241 10.171 4.95495 12.1967 5.27612 12.7814C5.4516 13.1012 5.85421 13.2204 6.17471 13.0449C6.49521 12.8694 6.61374 12.4675 6.43826 12.1463L5.14037 9.73132C5.14898 9.70748 5.17811 9.6843 5.21784 9.66774C5.36088 9.61013 5.53437 9.68165 5.58867 9.78098L7.44546 13.1807C7.63948 13.5369 7.73947 13.9144 7.7355 14.3084L7.71364 16.1857L4.42785 15.0626L4.67419 14.4719C4.86291 14.0203 4.83245 13.5071 4.59009 13.0635L2.61742 9.45187C2.58497 9.39227 2.55385 9.30023 2.59159 9.20024Z" fill="#F44336"/>
<path d="M14.8216 3.39615V3.38754C14.8216 3.10081 14.6375 2.84653 14.3647 2.7578L10.8577 1.61552C10.6412 1.54466 10.4015 1.54466 10.1843 1.61552L6.67731 2.7578C6.40449 2.84653 6.2204 3.10942 6.2204 3.39615C6.2204 6.04028 7.29845 8.53277 9.17841 10.2339C9.56049 10.5803 10.0406 10.7538 10.5207 10.7538C11.0008 10.7538 11.4802 10.5803 11.8629 10.2339C13.7436 8.53211 14.8216 6.04028 14.8216 3.39615ZM10.0664 9.25191C8.57581 7.90303 7.6759 5.96281 7.55736 3.86366L10.5207 2.89885L13.4846 3.86432C13.3674 5.95817 12.4675 7.9017 10.9743 9.25257C10.7154 9.48633 10.3253 9.48633 10.0664 9.25191Z" fill="#F44336"/>
<path d="M12.0801 4.99265C11.8212 4.73373 11.4027 4.73373 11.1438 4.99265L10.2207 5.91641L9.89688 5.5926C9.63797 5.33368 9.21946 5.33368 8.96055 5.5926C8.70163 5.85151 8.70163 6.27002 8.96055 6.52893L9.75253 7.32092C9.87702 7.44541 10.0452 7.51494 10.2207 7.51494C10.3962 7.51494 10.565 7.44541 10.6889 7.32092L12.0801 5.92899C12.339 5.67073 12.339 5.2509 12.0801 4.99265Z" fill="#F44336"/>
</svg>
