<svg viewBox="0 0 8 8" fill="none" xmlns="http://www.w3.org/2000/svg">
<g clip-path="url(#clip0_9916_46685)">
<mask id="mask0_9916_46685" style="mask-type:luminance" maskUnits="userSpaceOnUse" x="0" y="0" width="8" height="8">
<path d="M7.20005 0.799988H0.800049V7.19999H7.20005V0.799988Z" fill="white"/>
</mask>
<g mask="url(#mask0_9916_46685)">
<path d="M1.59998 1.01668C1.27782 1.01668 1.01665 1.27785 1.01665 1.60001V3.33335C1.01665 3.65552 1.27782 3.91668 1.59998 3.91668H2.21665V4.95001C2.21665 5.41024 2.58974 5.78335 3.04998 5.78335H4.08332V6.40001C4.08332 6.7222 4.34448 6.98335 4.66665 6.98335H6.39998C6.72217 6.98335 6.98332 6.7222 6.98332 6.40001V4.66668C6.98332 4.34451 6.72217 4.08335 6.39998 4.08335H4.66665C4.34448 4.08335 4.08332 4.34451 4.08332 4.66668V5.28335H3.04998C2.86589 5.28335 2.71665 5.13409 2.71665 4.95001V3.91668H3.33332C3.65549 3.91668 3.91665 3.65552 3.91665 3.33335V1.60001C3.91665 1.27785 3.65549 1.01668 3.33332 1.01668H1.59998ZM1.51665 1.60001C1.51665 1.55399 1.55396 1.51668 1.59998 1.51668H3.33332C3.37934 1.51668 3.41665 1.55399 3.41665 1.60001V3.33335C3.41665 3.37937 3.37934 3.41668 3.33332 3.41668H1.59998C1.55396 3.41668 1.51665 3.37937 1.51665 3.33335V1.60001ZM4.58332 4.66668C4.58332 4.62067 4.62064 4.58335 4.66665 4.58335H6.39998C6.44601 4.58335 6.48332 4.62067 6.48332 4.66668V6.40001C6.48332 6.44604 6.44601 6.48335 6.39998 6.48335H4.66665C4.62063 6.48335 4.58332 6.44604 4.58332 6.40001V4.66668Z" fill="#175CD3" stroke="#175CD3" stroke-width="0.1"/>
</g>
</g>
<defs>
<clipPath id="clip0_9916_46685">
<rect width="8" height="8" fill="white"/>
</clipPath>
</defs>
</svg>