<svg viewBox="0 0 24 24" fill="none" xmlns="http://www.w3.org/2000/svg">
<path d="M9.49999 13.4744C9.49999 13.8777 9.16399 14.2051 8.74999 14.2051H5.75C5.336 14.2051 5 13.8777 5 13.4744C5 13.071 5.336 12.7436 5.75 12.7436H8.74999C9.16399 12.7436 9.49999 13.071 9.49999 13.4744ZM5.75 8.35897H12.75C13.164 8.35897 13.5 8.03159 13.5 7.62821C13.5 7.22482 13.164 6.89744 12.75 6.89744H5.75C5.336 6.89744 5 7.22482 5 7.62821C5 8.03159 5.336 8.35897 5.75 8.35897ZM5.75 11.2821H12.75C13.164 11.2821 13.5 10.9547 13.5 10.5513C13.5 10.1479 13.164 9.82051 12.75 9.82051H5.75C5.336 9.82051 5 10.1479 5 10.5513C5 10.9547 5.336 11.2821 5.75 11.2821ZM16.25 18.2244C15.836 18.2244 15.5 18.5517 15.5 18.9551C15.5 19.3585 15.836 19.6859 16.25 19.6859C16.664 19.6859 17 19.3585 17 18.9551C17 18.5517 16.664 18.2244 16.25 18.2244ZM16.25 14.3269C15.836 14.3269 15.5 14.6543 15.5 15.0577V17.0064C15.5 17.4098 15.836 17.7372 16.25 17.7372C16.664 17.7372 17 17.4098 17 17.0064V15.0577C17 14.6543 16.664 14.3269 16.25 14.3269ZM21.694 21.0588C21.32 21.6483 20.672 22 19.961 22H12.539C11.828 22 11.18 21.6483 10.806 21.0588C10.799 21.0481 10.797 21.0364 10.791 21.0256H4.75C3.233 21.0256 2 19.8243 2 18.3462V5.67949C2 4.20138 3.233 3 4.75 3H13.75C15.267 3 16.5 4.20138 16.5 5.67949V10.829C17.172 10.9098 17.764 11.2908 18.073 11.893L21.783 19.1266C22.101 19.7473 22.068 20.4693 21.694 21.0588ZM4.75 19.5641H10.559C10.595 19.415 10.644 19.2669 10.717 19.1256L14.427 11.892C14.565 11.6241 14.769 11.4107 15 11.2324V5.67851C15 5.00718 14.439 4.46056 13.75 4.46056H4.75C4.061 4.46056 3.5 5.00718 3.5 5.67851V18.3452C3.5 19.0165 4.061 19.5641 4.75 19.5641ZM20.441 19.7794L16.731 12.5458C16.597 12.2837 16.35 12.2564 16.25 12.2564C16.15 12.2564 15.903 12.2847 15.769 12.5458L12.059 19.7794C11.938 20.0152 12.035 20.215 12.082 20.29C12.129 20.365 12.269 20.5385 12.539 20.5385H19.961C20.231 20.5385 20.371 20.365 20.418 20.29C20.465 20.215 20.563 20.0152 20.441 19.7794Z" fill="currentColor"/>
</svg>
