<svg xmlns="http://www.w3.org/2000/svg" width="16" height="16" fill="none"><path fill="#37352F" d="M6.75 13.25c0 .173.14.313.313.313h1.875c.172 0 .312-.14.312-.313v-1.875a.313.313 0 0 0-.313-.313H7.063a.313.313 0 0 0-.313.313v1.875Zm.625-1.563h1.25v1.25h-1.25v-1.25ZM7.063 9.813h1.875c.172 0 .312-.14.312-.313V4.812a.313.313 0 0 0-.313-.312H7.063a.313.313 0 0 0-.313.313V9.5c0 .173.14.313.313.313Zm.312-4.688h1.25v4.063h-1.25V5.125ZM8 15.438a.312.312 0 1 0 0-.625.312.312 0 0 0 0 .624Z"/><path fill="#37352F" d="M9.512 1.464a1.718 1.718 0 0 0-3.023-.002L.207 12.901a1.72 1.72 0 0 0 1.512 2.537h4.875a.313.313 0 0 0 0-.626H1.719A1.095 1.095 0 0 1 .755 13.2L7.038 1.761a1.093 1.093 0 0 1 1.925.002l6.28 11.436a1.093 1.093 0 0 1-.962 1.614H9.406a.313.313 0 0 0 0 .624h4.875a1.72 1.72 0 0 0 1.511-2.537L9.512 1.464Z"/></svg>