<svg width="40" height="40" viewBox="0 0 40 40" fill="none" xmlns="http://www.w3.org/2000/svg">
<mask id="mask0_4315_6416" style="mask-type:alpha" maskUnits="userSpaceOnUse" x="4" y="0" width="32" height="40">
<path d="M4 4C4 1.79086 5.79086 0 8 0H24L36 12V36C36 38.2091 34.2091 40 32 40H8C5.79086 40 4 38.2091 4 36V4Z" fill="url(#paint0_linear_4315_6416)"/>
</mask>
<g mask="url(#mask0_4315_6416)">
<path d="M4 4C4 1.79086 5.79086 0 8 0H24L36 12V36C36 38.2091 34.2091 40 32 40H8C5.79086 40 4 38.2091 4 36V4Z" fill="#F5F5F5"/>
</g>
<path d="M24 0L36 12H28C25.7909 12 24 10.2091 24 8V0Z" fill="#E9EAEB"/>
<g clip-path="url(#clip0_4315_6416)">
<path d="M24.6667 30H25.3403C25.9877 30 26.3114 30 26.4899 29.865C26.6453 29.7474 26.7415 29.5677 26.7531 29.3731C26.7665 29.1497 26.5869 28.8804 26.2278 28.3417L24.2209 25.3313C23.9241 24.8862 23.7757 24.6636 23.5887 24.586C23.4252 24.5182 23.2415 24.5182 23.078 24.586C22.8909 24.6636 22.7426 24.8862 22.4458 25.3313L21.9497 26.0755M24.6667 30L19.5437 22.6001C19.2491 22.1745 19.1017 21.9618 18.9177 21.887C18.7568 21.8215 18.5766 21.8215 18.4156 21.887C18.2316 21.9618 18.0843 22.1745 17.7897 22.6001L13.8255 28.3262C13.4501 28.8684 13.2625 29.1394 13.2731 29.3649C13.2824 29.5612 13.3779 29.7435 13.5341 29.8629C13.7133 30 14.0431 30 14.7025 30H24.6667ZM26 20C26 21.1046 25.1046 22 24 22C22.8954 22 22 21.1046 22 20C22 18.8954 22.8954 18 24 18C25.1046 18 26 18.8954 26 20Z" stroke="#414651" stroke-width="1.5" stroke-linecap="round" stroke-linejoin="round"/>
</g>
<defs>
<linearGradient id="paint0_linear_4315_6416" x1="20" y1="0" x2="20" y2="40" gradientUnits="userSpaceOnUse">
<stop stop-opacity="0.4"/>
<stop offset="1"/>
</linearGradient>
<clipPath id="clip0_4315_6416">
<rect width="16" height="16" fill="white" transform="translate(12 16)"/>
</clipPath>
</defs>
</svg>
