<svg viewBox="0 0 25 25" fill="none" xmlns="http://www.w3.org/2000/svg">
<path d="M12.1491 10.5672C12.1491 10.0555 11.7343 9.64062 11.2225 9.64062C10.7107 9.64062 10.2959 10.0555 10.2959 10.5672V13.9027C10.2959 14.4144 10.7107 14.8293 11.2225 14.8293C11.7343 14.8293 12.1491 14.4144 12.1491 13.9027V10.5672Z" fill="currentColor" fill-opacity="0.4"/>
<path d="M12.1091 16.8389C11.9965 16.4721 11.6614 16.206 11.2776 16.1832C10.8902 16.1602 10.5216 16.3899 10.37 16.7467C10.2179 17.1049 10.3117 17.5327 10.6001 17.794C10.8825 18.0499 11.3069 18.1074 11.6459 17.9319C12.0382 17.7289 12.2389 17.2631 12.1091 16.8389Z" fill="currentColor" fill-opacity="0.4"/>
<path d="M8.78009 4.42308C9.87557 2.52564 12.6143 2.52564 13.7098 4.42308L21.1043 17.2308C22.1998 19.1282 20.8304 21.5 18.6394 21.5H3.8504C1.65943 21.5 0.290074 19.1282 1.38556 17.2308L8.78009 4.42308Z" stroke="currentColor" stroke-width="1.5"/>
<circle cx="18.8344" cy="8.69281" r="4.74359" fill="white" stroke="currentColor" stroke-width="1.5"/>
<path d="M18.835 7.74414V9.16722" stroke="currentColor" stroke-opacity="0.4" stroke-width="2" stroke-linecap="round"/>
</svg>