<svg viewBox="0 0 15 15" fill="none" xmlns="http://www.w3.org/2000/svg">
<g clip-path="url(#clip0_6122_197246)">
<path fill-rule="evenodd" clip-rule="evenodd" d="M0.625 1.875C0.625 1.18464 1.18464 0.625 1.875 0.625H5.9375C6.62787 0.625 7.1875 1.18464 7.1875 1.875V5.9375C7.1875 6.62787 6.62787 7.1875 5.9375 7.1875H4.375V9.72656C4.375 10.2227 4.77724 10.625 5.27344 10.625H7.8125V9.0625C7.8125 8.37213 8.37213 7.8125 9.0625 7.8125H13.125C13.8154 7.8125 14.375 8.37213 14.375 9.0625V13.125C14.375 13.8154 13.8154 14.375 13.125 14.375H9.0625C8.37213 14.375 7.8125 13.8154 7.8125 13.125V11.5625H5.27344C4.25947 11.5625 3.4375 10.7405 3.4375 9.72656V7.1875H1.875C1.18464 7.1875 0.625 6.62787 0.625 5.9375V1.875ZM1.875 1.5625C1.70241 1.5625 1.5625 1.70241 1.5625 1.875V5.9375C1.5625 6.11009 1.70241 6.25 1.875 6.25H5.9375C6.11009 6.25 6.25 6.11009 6.25 5.9375V1.875C6.25 1.70241 6.11009 1.5625 5.9375 1.5625H1.875ZM9.0625 8.75C8.88994 8.75 8.75 8.88994 8.75 9.0625V13.125C8.75 13.2976 8.88994 13.4375 9.0625 13.4375H13.125C13.2976 13.4375 13.4375 13.2976 13.4375 13.125V9.0625C13.4375 8.88994 13.2976 8.75 13.125 8.75H9.0625Z" fill="currentColor"/>
</g>
<defs>
<clipPath id="clip0_6122_197246">
<rect width="15" height="15" fill="white"/>
</clipPath>
</defs>
</svg>
