
<svg viewBox="0 0 19 19" fill="none" xmlns="http://www.w3.org/2000/svg">
<path d="M17.9546 0.988281H14.0059C13.756 0.988281 13.5535 1.18773 13.5535 1.43383V3.1269H11.6119C10.6128 3.12794 9.8031 3.92522 9.80204 4.90907V7.73619H8.41989C8.16997 7.73619 7.96742 7.93582 7.96742 8.18174V9.54274H5.26091V7.84967C5.26091 7.60357 5.05835 7.40412 4.80844 7.40412H0.859575C0.609656 7.40412 0.407104 7.60357 0.407104 7.84967V12.1269C0.407104 12.373 0.609656 12.5724 0.859575 12.5724H4.80844C5.05835 12.5724 5.26091 12.373 5.26091 12.1269V10.4338H7.96742V11.7948C7.96742 12.0407 8.16997 12.2404 8.41989 12.2404H9.80204V15.0675C9.8031 16.0513 10.6128 16.8486 11.6119 16.8497H13.5535V18.5427C13.5535 18.7888 13.756 18.9883 14.0059 18.9883H17.9546C18.2046 18.9883 18.4071 18.7888 18.4071 18.5427V14.2655C18.4071 14.0194 18.2046 13.82 17.9546 13.82H14.0059C13.756 13.82 13.5535 14.0194 13.5535 14.2655V15.9586H11.6119C11.1123 15.9581 10.7075 15.5593 10.707 15.0675V12.2404H11.8915C12.1415 12.2404 12.344 12.0407 12.344 11.7948V8.18174C12.344 7.93564 12.1415 7.73619 11.8915 7.73619H10.707V4.90907C10.7075 4.41723 11.1123 4.01851 11.6119 4.01798H13.5535V5.71105C13.5535 5.95715 13.756 6.1566 14.0059 6.1566H17.9546C18.2046 6.1566 18.4071 5.95715 18.4071 5.71105V1.43383C18.4071 1.18773 18.2046 0.988281 17.9546 0.988281ZM4.35597 11.6814H1.31204V8.29521H4.35597V11.6814ZM14.4584 14.7111H17.5022V18.0972H14.4584V14.7111ZM11.4391 11.3493H8.87236V8.62728H11.4391V11.3493ZM17.5022 5.26551H14.4584V1.87937H17.5022V5.26551Z" fill="currentColor"/>
</svg>
