<svg width="16" height="15" viewBox="0 0 16 15" fill="none" xmlns="http://www.w3.org/2000/svg">
<path fill-rule="evenodd" clip-rule="evenodd" d="M7.66927 1.33301C4.44761 1.33301 1.83594 3.94468 1.83594 7.16634C1.83594 10.388 4.44761 12.9997 7.66927 12.9997C10.8909 12.9997 13.5026 10.388 13.5026 7.16634C13.5026 3.94468 10.8909 1.33301 7.66927 1.33301ZM0.835938 7.16634C0.835938 3.3924 3.89533 0.333008 7.66927 0.333008C11.4432 0.333008 14.5026 3.3924 14.5026 7.16634C14.5026 10.9403 11.4432 13.9997 7.66927 13.9997C3.89533 13.9997 0.835938 10.9403 0.835938 7.16634Z" fill="#363636"/>
<path fill-rule="evenodd" clip-rule="evenodd" d="M12.9824 12.4795C13.1776 12.2842 13.4942 12.2842 13.6895 12.4795L15.0228 13.8128C15.2181 14.008 15.2181 14.3246 15.0228 14.5199C14.8276 14.7152 14.511 14.7152 14.3157 14.5199L12.9824 13.1866C12.7871 12.9913 12.7871 12.6747 12.9824 12.4795Z" fill="#363636"/>
</svg>
