<svg  viewBox="0 0 18 16" fill="none" xmlns="http://www.w3.org/2000/svg">
<path d="M16.2385 11.3242H15.751V10.7087C15.751 9.25138 14.5654 8.06583 13.1081 8.06583H12.0845H9.77318V5.7896H11.2352C11.9563 5.7896 12.5429 5.20298 12.5429 4.48191V1.30769C12.5429 0.586646 11.9563 0 11.2352 0H7.32902C6.60798 0 6.02137 0.586613 6.02137 1.30769V4.48188C6.02137 5.20292 6.60798 5.78956 7.32902 5.78956H8.79106V8.06579H6.51244H5.25964C3.80231 8.06579 2.61679 9.25138 2.61679 10.7087V11.3242H2.10749C1.38642 11.3242 0.799805 11.9108 0.799805 12.6319V14.1523C0.799805 14.8734 1.38642 15.46 2.10749 15.46H4.1081C4.82914 15.46 5.41575 14.8734 5.41575 14.1523V12.6319C5.41575 11.9108 4.82914 11.3242 4.1081 11.3242H3.59887V10.7087C3.59887 9.79299 4.34389 9.04798 5.2596 9.04798H6.51241H8.79103V11.3242H8.2818C7.56073 11.3242 6.97411 11.9108 6.97411 12.6319V14.1523C6.97411 14.8734 7.56073 15.46 8.2818 15.46H10.2824C11.0034 15.46 11.5901 14.8734 11.5901 14.1523V12.6319C11.5901 11.9108 11.0034 11.3242 10.2824 11.3242H9.77318V9.04798H12.0846H13.1082C14.0239 9.04798 14.769 9.79299 14.769 10.7087V11.3242H14.2379C13.5168 11.3242 12.9302 11.9108 12.9302 12.6319V14.1523C12.9302 14.8734 13.5168 15.46 14.2379 15.46H16.2385C16.9596 15.46 17.5462 14.8734 17.5462 14.1523V12.6319C17.5462 11.9108 16.9596 11.3242 16.2385 11.3242ZM4.10813 12.3063C4.28763 12.3063 4.43367 12.4524 4.43367 12.6319V14.1523C4.43367 14.3318 4.28763 14.4779 4.10813 14.4779H2.10753C1.92803 14.4779 1.78195 14.3318 1.78195 14.1523V12.6319C1.78195 12.4524 1.92803 12.3063 2.10753 12.3063H4.10813ZM10.2824 12.3063C10.4619 12.3063 10.608 12.4524 10.608 12.6319V14.1523C10.608 14.3318 10.4619 14.4779 10.2824 14.4779H8.28183C8.10233 14.4779 7.95626 14.3318 7.95626 14.1523V12.6319C7.95626 12.4524 8.10233 12.3063 8.28183 12.3063H10.2824ZM7.32902 4.80748C7.14952 4.80748 7.00348 4.66141 7.00348 4.48191V1.30769C7.00348 1.12819 7.14952 0.982115 7.32902 0.982115H11.2352C11.4147 0.982115 11.5607 1.12816 11.5607 1.30769V4.48188C11.5607 4.66138 11.4147 4.80745 11.2352 4.80745H7.32902V4.80748ZM16.5641 14.1524C16.5641 14.3319 16.418 14.4779 16.2385 14.4779H14.2379C14.0584 14.4779 13.9123 14.3319 13.9123 14.1524V12.6319C13.9123 12.4524 14.0584 12.3064 14.2379 12.3064H16.2385C16.418 12.3064 16.5641 12.4524 16.5641 12.6319V14.1524Z" fill="currentColor"/>
</svg>
