<svg viewBox="0 0 22 22" fill="none" xmlns="http://www.w3.org/2000/svg">
<path d="M20.6018 11.5882C20.6018 11.2569 20.3332 10.9882 20.0018 10.9882C19.6704 10.9882 19.4018 11.2569 19.4018 11.5882H20.6018ZM10.5009 2.77647C10.8323 2.77647 11.1009 2.50784 11.1009 2.17647C11.1009 1.8451 10.8323 1.57647 10.5009 1.57647V2.77647ZM15.8513 11.5882C15.8513 11.2569 15.5827 10.9882 15.2513 10.9882C14.92 10.9882 14.6513 11.2569 14.6513 11.5882H15.8513ZM10.5009 7.48235C10.8323 7.48235 11.1009 7.21372 11.1009 6.88235C11.1009 6.55098 10.8323 6.28235 10.5009 6.28235V7.48235ZM15.122 7.66534C15.3574 7.43214 15.3592 7.05224 15.126 6.81683C14.8928 6.58141 14.5129 6.57962 14.2775 6.81283L15.122 7.66534ZM10.0786 10.9723C9.84322 11.2055 9.84143 11.5854 10.0746 11.8208C10.3078 12.0562 10.6877 12.058 10.9232 11.8248L10.0786 10.9723ZM21 4.32756L21.4223 4.75382C21.5842 4.59342 21.6412 4.35513 21.5695 4.13879C21.4978 3.92245 21.3097 3.76542 21.0841 3.73348L21 4.32756ZM17.221 8.07107L17.0329 8.64081C17.2472 8.71156 17.483 8.65612 17.6433 8.49733L17.221 8.07107ZM13.862 4.74351L13.4397 4.31725C13.2771 4.47834 13.2203 4.71791 13.2933 4.93486L13.862 4.74351ZM17.6409 1L18.2348 0.91436C18.2024 0.690069 18.0465 0.503137 17.8316 0.431112C17.6168 0.359088 17.3797 0.41426 17.2187 0.573741L17.6409 1ZM14.7017 7.23918L14.1331 7.43053C14.1933 7.60952 14.3343 7.74971 14.5136 7.80892L14.7017 7.23918ZM18.0608 3.91162L17.467 3.99726C17.505 4.26119 17.7127 4.46833 17.9767 4.5057L18.0608 3.91162ZM20.0018 11.5882H19.4018C19.4018 16.4495 15.4221 20.4 10.5009 20.4V21V21.6C16.0741 21.6 20.6018 17.1229 20.6018 11.5882H20.0018ZM10.5009 21V20.4C5.57972 20.4 1.6 16.4495 1.6 11.5882H1H0.4C0.4 17.1229 4.92767 21.6 10.5009 21.6V21ZM1 11.5882H1.6C1.6 6.72695 5.57972 2.77647 10.5009 2.77647V2.17647V1.57647C4.92767 1.57647 0.4 6.05357 0.4 11.5882H1ZM15.2513 11.5882H14.6513C14.6513 13.8505 12.7985 15.6941 10.5009 15.6941V16.2941V16.8941C13.4505 16.8941 15.8513 14.5239 15.8513 11.5882H15.2513ZM10.5009 16.2941V15.6941C8.20332 15.6941 6.35045 13.8505 6.35045 11.5882H5.75045H5.15045C5.15045 14.5239 7.55127 16.8941 10.5009 16.8941V16.2941ZM5.75045 11.5882H6.35045C6.35045 9.32594 8.20332 7.48235 10.5009 7.48235V6.88235V6.28235C7.55127 6.28235 5.15045 8.65256 5.15045 11.5882H5.75045ZM14.6997 7.23909L14.2775 6.81283L10.0786 10.9723L10.5009 11.3985L10.9232 11.8248L15.122 7.66534L14.6997 7.23909ZM21 4.32756L20.5777 3.9013L16.7988 7.64481L17.221 8.07107L17.6433 8.49733L21.4223 4.75382L21 4.32756ZM13.862 4.74351L14.2842 5.16976L18.0632 1.42626L17.6409 1L17.2187 0.573741L13.4397 4.31725L13.862 4.74351ZM17.221 8.07107L17.4092 7.50133L14.8899 6.66944L14.7017 7.23918L14.5136 7.80892L17.0329 8.64081L17.221 8.07107ZM14.7017 7.23918L15.2704 7.04783L14.4306 4.55216L13.862 4.74351L13.2933 4.93486L14.1331 7.43053L14.7017 7.23918ZM17.6409 1L17.0471 1.08564L17.467 3.99726L18.0608 3.91162L18.6547 3.82598L18.2348 0.91436L17.6409 1ZM18.0608 3.91162L17.9767 4.5057L20.9159 4.92164L21 4.32756L21.0841 3.73348L18.1449 3.31754L18.0608 3.91162Z" fill="#535862"/>
</svg>
