<svg viewBox="0 0 24 24" fill="none" xmlns="http://www.w3.org/2000/svg">
<rect x="2.6" y="3.6" width="9.51408" height="15.1043" rx="2.4" stroke="currentColor" stroke-width="1.2"/>
<rect x="11.8871" y="3.6" width="9.51408" height="15.1043" rx="2.4" stroke="currentColor" stroke-width="1.2"/>
<path d="M5.52344 13.7142C5.52344 13.7142 7.3333 13.3333 9.0948 13.7142" stroke="currentColor" stroke-width="1.2" stroke-linecap="round"/>
<path d="M14.8574 13.7142C14.8574 13.7142 16.6673 13.3333 18.4288 13.7142" stroke="currentColor" stroke-width="1.2" stroke-linecap="round"/>
<path d="M5.52344 11.0476C5.52344 11.0476 7.3333 10.6667 9.0948 11.0476" stroke="currentColor" stroke-width="1.2" stroke-linecap="round"/>
<path d="M14.8574 11.0476C14.8574 11.0476 16.6673 10.6667 18.4288 11.0476" stroke="currentColor" stroke-width="1.2" stroke-linecap="round"/>
<path d="M5.52344 8.38098C5.52344 8.38098 7.3333 8.00004 9.0948 8.38098" stroke="currentColor" stroke-width="1.2" stroke-linecap="round"/>
<path d="M14.8574 8.38098C14.8574 8.38098 16.6673 8.00004 18.4288 8.38098" stroke="currentColor" stroke-width="1.2" stroke-linecap="round"/>
<ellipse cx="11.9989" cy="19.0714" rx="1.42854" ry="1.07143" fill="currentColor"/>
</svg>
