<svg viewBox="0 0 20 20" fill="none" xmlns="http://www.w3.org/2000/svg">
<rect x="0.5" y="0.5" width="9.71388" height="18.0217" rx="2.5" stroke="#535862"/>
<rect x="9.78613" y="0.5" width="9.71388" height="18.0217" rx="2.5" stroke="#535862"/>
<path d="M3.52344 12.4998C3.52344 12.4998 5.33326 12.0553 7.09473 12.4998" stroke="#535862" stroke-linecap="round"/>
<path d="M12.856 12.4998C12.856 12.4998 14.6658 12.0553 16.4272 12.4998" stroke="#535862" stroke-linecap="round"/>
<path d="M3.52344 9.38845C3.52344 9.38845 5.33326 8.94402 7.09473 9.38845" stroke="#535862" stroke-linecap="round"/>
<path d="M12.856 9.38845C12.856 9.38845 14.6658 8.94402 16.4272 9.38845" stroke="#535862" stroke-linecap="round"/>
<path d="M3.52344 6.2781C3.52344 6.2781 5.33326 5.83367 7.09473 6.2781" stroke="#535862" stroke-linecap="round"/>
<path d="M12.856 6.2781C12.856 6.2781 14.6658 5.83367 16.4272 6.2781" stroke="#535862" stroke-linecap="round"/>
<path d="M9.99854 18C10.576 18.0001 10.9272 18.3964 10.9272 18.75C10.9272 19.1036 10.576 19.4999 9.99854 19.5C9.42095 19.5 9.06982 19.1036 9.06982 18.75C9.06982 18.3964 9.42095 18 9.99854 18Z" fill="#535862" stroke="#535862"/>
</svg>
