<svg viewBox="0 0 50 51" fill="none" xmlns="http://www.w3.org/2000/svg">
<path d="M41.4645 35.3329C42.3334 33.4734 42.9188 31.4894 43.2003 29.4495L41.0698 29.1437C40.8189 30.9622 40.297 32.7309 39.5224 34.3887L41.4645 35.3329Z" fill="#757575"/>
<path d="M46.9784 25.9378C47.0524 21.2123 45.6014 16.5888 42.8405 12.753C40.0797 8.91714 36.1561 6.07327 31.6515 4.64314L29.8656 10.2684C33.1607 11.3145 36.0308 13.3948 38.0503 16.2007C40.0699 19.0066 41.1313 22.3887 41.0772 25.8454L46.9784 25.9378Z" fill="#1890FF"/>
<path d="M26.5077 6.62877C22.7543 6.05421 18.9182 6.59042 15.4548 8.17372C11.9914 9.75703 9.04618 12.3209 6.96897 15.5609C4.89176 18.8009 3.7698 22.5809 3.73631 26.452C3.70283 30.3232 4.75923 34.1228 6.78007 37.3997L8.6012 36.2312C6.79962 33.3099 5.85784 29.9225 5.88769 26.4714C5.91754 23.0203 6.91777 19.6504 8.7696 16.762C10.6214 13.8735 13.2471 11.5878 16.3347 10.1763C19.4223 8.76476 22.8423 8.28673 26.1884 8.79896L26.5077 6.62877Z" fill="#757575"/>
<path d="M21.8648 11.578C18.6725 12.0063 15.815 13.3916 13.5128 15.6134C11.2374 17.8085 9.77853 20.5456 9.17622 23.7178C8.99553 24.6881 8.92861 26.9033 9.04907 27.9406C9.35692 30.6509 10.334 33.1271 11.9468 35.2954C12.4889 36.0181 13.8675 37.4302 14.5769 37.9924C16.6783 39.6454 19.2815 40.7429 21.8848 41.0775C22.9355 41.2113 24.729 41.218 25.7597 41.0842C28.0417 40.7897 30.3171 39.9331 32.1374 38.6884L32.5724 38.3872L36.0524 41.8538C39.9874 45.7688 39.8603 45.6684 40.8507 45.7219C41.2991 45.742 41.5066 45.7219 41.7676 45.6282C42.2962 45.4409 42.6978 45.0929 42.9722 44.5976C43.2064 44.176 43.2131 44.1426 43.2131 43.4599C43.2131 42.8175 43.1997 42.7238 43.019 42.3892C42.8718 42.1014 42.0888 41.2716 39.365 38.5411L35.8984 35.0612L36.2264 34.5927C37.1834 33.2208 38.0199 31.2332 38.3947 29.4731C38.7025 28.041 38.7895 25.8124 38.6021 24.387C38.234 21.6565 37.1164 19.0533 35.3965 16.9251C35.1623 16.6307 34.6135 16.0484 34.1852 15.6402C31.8362 13.3581 29.0456 12.013 25.7797 11.5713C24.8964 11.4508 22.7682 11.4508 21.8648 11.578ZM25.0101 12.7424C27.0713 12.9298 29.1459 13.5991 30.8391 14.623C33.5963 16.2827 35.7311 18.8993 36.7417 21.8439C37.277 23.4032 37.4912 24.6814 37.4912 26.3545C37.4912 28.5429 37.0763 30.3431 36.1193 32.3173C34.7942 35.0478 32.5724 37.2696 29.8286 38.6147C28.4633 39.2773 26.9843 39.719 25.4451 39.9064C24.7157 40 23.0292 40 22.2998 39.9064C16.4039 39.1769 11.6524 34.8068 10.4879 29.0448C10.0128 26.6958 10.16 24.3134 10.9162 22.0447C12.2881 17.9423 15.5272 14.7167 19.6229 13.3849C21.4632 12.7893 23.2099 12.5818 25.0101 12.7424ZM35.4032 37.8853L34.6135 38.675L34.0915 38.153L33.5695 37.6377L34.3458 36.848L35.1154 36.065L35.6508 36.5803L36.1862 37.1023L35.4032 37.8853ZM41.9482 42.9848C42.0955 43.2859 42.0486 43.8414 41.8546 44.1091C41.5735 44.5039 40.931 44.6512 40.4826 44.4236C40.3622 44.3634 39.191 43.2458 37.8727 41.9341L35.4835 39.545L36.2665 38.762L37.0562 37.9723L39.4453 40.3614C40.7637 41.6798 41.888 42.8576 41.9482 42.9848Z" fill="#757575"/>
<path d="M22.6672 13.8199C18.7389 14.1946 15.1585 16.4432 13.1308 19.8028C11.4711 22.5533 10.929 25.7856 11.5915 28.9912C11.8793 30.3765 12.5686 32.0228 13.3784 33.2542C16.9253 38.6482 24.0793 40.4685 29.7878 37.4302C33.3481 35.5363 35.7372 32.1031 36.3262 28.0677C36.4801 26.9969 36.4265 24.9893 36.2191 23.952C35.3223 19.4548 32.1636 15.8543 27.8404 14.4021C26.8164 14.0608 26.5019 14.0407 26.2744 14.3017C26.0803 14.5292 26.0602 14.8772 26.2342 15.0713C26.3011 15.1583 26.7027 15.3256 27.2849 15.5197C30.8385 16.6775 33.4217 19.2004 34.6397 22.7072C36.4935 28.0275 34.0374 33.9837 28.9379 36.5334C26.2208 37.8919 23.1424 38.1061 20.2446 37.1357C16.4434 35.8642 13.5524 32.5984 12.7292 28.6499C11.9061 24.7149 13.3181 20.4921 16.323 17.8553C17.5276 16.8113 18.9463 15.9949 20.3919 15.5331C21.3622 15.2252 21.9913 15.1048 23.1959 14.9977C24.0994 14.9174 24.2065 14.8973 24.3135 14.7568C24.4608 14.5828 24.4808 14.1679 24.3537 14.0072C24.1462 13.7396 23.8785 13.7061 22.6672 13.8199Z" fill="#757575"/>
<path d="M28.3531 19.0504C28.1064 19.0778 27.9145 19.1271 27.8487 19.1874C27.613 19.3958 27.6788 19.8289 27.9638 19.9495L28.1174 20.0153L26.8455 21.2872L25.5736 22.559L23.8795 22.0108C22.9475 21.7093 22.1307 21.4626 22.0704 21.4626C22.0046 21.4681 21.9059 21.4955 21.8401 21.5339C21.577 21.6874 18.0847 24.4395 18.0354 24.5327C17.9477 24.6971 17.9696 24.889 18.0957 25.048C18.1834 25.1631 18.2547 25.1906 18.4356 25.1906C18.6494 25.1906 18.7591 25.1138 20.1406 24.0393C20.952 23.4033 21.7469 22.7893 21.9004 22.6687L22.1855 22.4494L23.8741 22.9976C24.806 23.2992 25.6503 23.5459 25.749 23.5459C25.908 23.5459 26.067 23.3978 27.3389 22.1205C28.5285 20.9144 28.7533 20.706 28.7862 20.7937C28.8904 21.0733 29.2851 21.1611 29.5208 20.9527C29.6469 20.8431 29.6688 20.7663 29.7401 20.1468C29.8443 19.2642 29.8443 19.2861 29.6853 19.1326C29.5702 19.012 29.5099 18.9956 29.1535 19.001C28.9342 19.0065 28.5724 19.0285 28.3531 19.0504Z" fill="#1890FF"/>
<path d="M28.0394 22.1476L27.9023 22.2792V26.8514C27.9023 31.3963 27.9023 31.4237 28.0175 31.5717L28.1271 31.7142H29.3277C30.4242 31.7142 30.5338 31.7033 30.649 31.6101L30.7805 31.5059L30.797 26.9885C30.8025 24.5105 30.797 22.4217 30.7805 22.3505C30.7641 22.2847 30.7038 22.1805 30.6435 22.1202C30.5393 22.0161 30.4571 22.0106 29.3552 22.0106C28.171 22.0106 28.171 22.0106 28.0394 22.1476ZM29.876 26.8898V30.8371H29.3552H28.8343V26.8898V22.9426H29.3552H29.876V26.8898Z" fill="#1890FF"/>
<path d="M20.7757 24.6969C20.666 24.8065 20.666 24.8778 20.666 28.1507C20.666 31.4237 20.666 31.4949 20.7757 31.6046C20.8798 31.7088 20.9566 31.7142 22.0804 31.7142C23.2591 31.7142 23.2811 31.7142 23.3962 31.5881L23.5168 31.462V28.1453V24.823L23.3907 24.7079C23.2701 24.5927 23.2208 24.5872 22.075 24.5872C20.9566 24.5872 20.8798 24.5927 20.7757 24.6969ZM22.5848 28.1782V30.8371H22.0914H21.598V28.1782V25.5192H22.0914H22.5848V28.1782Z" fill="#1890FF"/>
<path d="M24.6454 25.3931C24.5851 25.4096 24.4809 25.4699 24.4152 25.5357L24.2891 25.6453V28.5619V31.4785L24.4152 31.5936C24.5358 31.7088 24.5851 31.7142 25.7309 31.7142C26.8493 31.7142 26.926 31.7088 27.0302 31.6046C27.1344 31.5004 27.1399 31.4237 27.1399 28.5838C27.1399 26.7308 27.1179 25.6398 27.085 25.5741C27.0521 25.5138 26.937 25.4425 26.8219 25.4096C26.6245 25.3548 24.8592 25.3438 24.6454 25.3931ZM26.2079 28.5619V30.8371H25.7145H25.2211V28.5619V26.2868H25.7145H26.2079V28.5619Z" fill="#1890FF"/>
<path d="M17.1579 27.1091C17.0976 27.1694 17.0373 27.2736 17.0209 27.3394C17.0044 27.4106 16.9934 28.3755 17.0044 29.4829L17.0209 31.5059L17.1524 31.6101C17.2676 31.7033 17.3827 31.7142 18.4737 31.7142H19.6743L19.7839 31.5717C19.8936 31.4292 19.8991 31.3688 19.8991 29.3459V27.2681L19.762 27.1365C19.6304 26.9995 19.6304 26.9995 18.4463 26.9995C17.3443 26.9995 17.2621 27.0049 17.1579 27.1091ZM18.9671 29.3843V30.8371H18.4463H17.9254V29.3843V27.9314H18.4463H18.9671V29.3843Z" fill="#1890FF"/>
</svg>