<svg viewBox="0 0 20 20" fill="none" xmlns="http://www.w3.org/2000/svg">
<path d="M19.1016 10.5294C19.1016 9.97713 18.6539 9.52941 18.1016 9.52941C17.5493 9.52941 17.1016 9.97713 17.1016 10.5294H19.1016ZM9.5508 3.05882C10.1031 3.05882 10.5508 2.61111 10.5508 2.05882C10.5508 1.50654 10.1031 1.05882 9.5508 1.05882V3.05882ZM14.8262 10.5294C14.8262 9.97713 14.3785 9.52941 13.8262 9.52941C13.2739 9.52941 12.8262 9.97713 12.8262 10.5294H14.8262ZM9.5508 7.29412C10.1031 7.29412 10.5508 6.8464 10.5508 6.29412C10.5508 5.74183 10.1031 5.29412 9.5508 5.29412V7.29412ZM14.0335 7.32561C14.4259 6.93693 14.4289 6.30377 14.0402 5.91141C13.6515 5.51905 13.0184 5.51607 12.626 5.90475L14.0335 7.32561ZM8.84704 9.64825C8.45468 10.0369 8.45169 10.6701 8.84037 11.0625C9.22905 11.4548 9.86221 11.4578 10.2546 11.0691L8.84704 9.64825ZM19 3.99481L19.7038 4.70524C19.9736 4.43791 20.0687 4.04076 19.9492 3.68019C19.8297 3.31962 19.5162 3.0579 19.1401 3.00467L19 3.99481ZM15.5989 7.36396L15.2854 8.31353C15.6425 8.43145 16.0355 8.33905 16.3027 8.07439L15.5989 7.36396ZM12.5758 4.36916L11.872 3.65872C11.601 3.92721 11.5063 4.3265 11.628 4.68807L12.5758 4.36916ZM15.9768 1L16.9666 0.857266C16.9127 0.483449 16.6528 0.171895 16.2947 0.0518535C15.9366 -0.0681874 15.5414 0.0237669 15.2731 0.289569L15.9768 1ZM13.3316 6.61526L12.3838 6.93418C12.4842 7.23249 12.7191 7.46614 13.018 7.56483L13.3316 6.61526ZM16.3547 3.62045L15.365 3.76319C15.4284 4.20308 15.7746 4.54831 16.2146 4.61059L16.3547 3.62045ZM18.1016 10.5294H17.1016C17.1016 14.6464 13.7299 18 9.5508 18V19V20C14.8167 20 19.1016 15.7687 19.1016 10.5294H18.1016ZM9.5508 19V18C5.3717 18 2 14.6464 2 10.5294H1H0C0 15.7687 4.28495 20 9.5508 20V19ZM1 10.5294H2C2 6.41238 5.3717 3.05882 9.5508 3.05882V2.05882V1.05882C4.28495 1.05882 0 5.29009 0 10.5294H1ZM13.8262 10.5294H12.8262C12.8262 12.3074 11.3687 13.7647 9.5508 13.7647V14.7647V15.7647C12.4554 15.7647 14.8262 13.4297 14.8262 10.5294H13.8262ZM9.5508 14.7647V13.7647C7.73294 13.7647 6.2754 12.3074 6.2754 10.5294H5.2754H4.2754C4.2754 13.4297 6.64619 15.7647 9.5508 15.7647V14.7647ZM5.2754 10.5294H6.2754C6.2754 8.75147 7.73294 7.29412 9.5508 7.29412V6.29412V5.29412C6.64619 5.29412 4.2754 7.62917 4.2754 10.5294H5.2754ZM13.3298 6.61518L12.626 5.90475L8.84704 9.64825L9.5508 10.3587L10.2546 11.0691L14.0335 7.32561L13.3298 6.61518ZM19 3.99481L18.2962 3.28437L14.8952 6.65353L15.5989 7.36396L16.3027 8.07439L19.7038 4.70524L19 3.99481ZM12.5758 4.36916L13.2795 5.07959L16.6806 1.71043L15.9768 1L15.2731 0.289569L11.872 3.65872L12.5758 4.36916ZM15.5989 7.36396L15.9125 6.41439L13.6451 5.66569L13.3316 6.61526L13.018 7.56483L15.2854 8.31353L15.5989 7.36396ZM13.3316 6.61526L14.2793 6.29634L13.5236 4.05024L12.5758 4.36916L11.628 4.68807L12.3838 6.93418L13.3316 6.61526ZM15.9768 1L14.9871 1.14273L15.365 3.76319L16.3547 3.62045L17.3445 3.47772L16.9666 0.857266L15.9768 1ZM16.3547 3.62045L16.2146 4.61059L18.8599 4.98494L19 3.99481L19.1401 3.00467L16.4949 2.63032L16.3547 3.62045Z" fill="#535862"/>
</svg>
