<svg width="20" height="21" viewBox="0 0 20 21" fill="none" xmlns="http://www.w3.org/2000/svg">
<path fill-rule="evenodd" clip-rule="evenodd" d="M16.1989 4.26199C15.8465 3.93046 15.3525 3.83331 14.8189 3.83331H12.3135C11.78 3.83331 11.286 3.93046 10.9336 4.26199C10.574 4.60022 10.4654 5.08301 10.4654 5.60075V15.3992C10.4654 15.9169 10.574 16.3997 10.9336 16.738C11.286 17.0695 11.78 17.1666 12.3135 17.1666H14.8189C15.3525 17.1666 15.8465 17.0695 16.1989 16.738C16.5584 16.3997 16.667 15.9169 16.667 15.3992V5.60075C16.667 5.08301 16.5584 4.60022 16.1989 4.26199ZM15.5615 4.93952C15.6469 5.01989 15.7368 5.18826 15.7368 5.60075V15.3992C15.7368 15.8117 15.6469 15.9801 15.5615 16.0604C15.4689 16.1475 15.2714 16.2364 14.8189 16.2364H12.3135C11.861 16.2364 11.6635 16.1475 11.571 16.0604C11.4855 15.9801 11.3957 15.8117 11.3957 15.3992V5.60075C11.3957 5.18826 11.4855 5.01989 11.571 4.93952C11.6635 4.85244 11.861 4.76355 12.3135 4.76355H14.8189C15.2714 4.76355 15.4689 4.85244 15.5615 4.93952Z" fill="#0968DA"/>
<path fill-rule="evenodd" clip-rule="evenodd" d="M9.06704 4.26199C8.71464 3.93046 8.22062 3.83331 7.68709 3.83331H5.18167C4.64814 3.83331 4.15412 3.93046 3.80173 4.26199C3.44219 4.60022 3.33361 5.08301 3.33361 5.60075V15.3992C3.33361 15.9169 3.44219 16.3997 3.80173 16.738C4.15412 17.0695 4.64814 17.1666 5.18167 17.1666H7.68709C8.22062 17.1666 8.71464 17.0695 9.06704 16.738C9.42657 16.3997 9.53516 15.9169 9.53516 15.3992V5.60075C9.53516 5.08301 9.42657 4.60022 9.06704 4.26199ZM8.42963 4.93952C8.51506 5.01989 8.60492 5.18826 8.60492 5.60075V15.3992C8.60492 15.8117 8.51506 15.9801 8.42963 16.0604C8.33707 16.1475 8.13961 16.2364 7.68709 16.2364H5.18167C4.72915 16.2364 4.53169 16.1475 4.43913 16.0604C4.3537 15.9801 4.26384 15.8117 4.26384 15.3992V5.60075C4.26384 5.18826 4.3537 5.01989 4.43913 4.93952C4.53169 4.85244 4.72915 4.76355 5.18167 4.76355H7.68709C8.13961 4.76355 8.33707 4.85244 8.42963 4.93952Z" fill="#0968DA"/>
</svg>
