<svg viewBox="0 0 62 45" fill="none" xmlns="http://www.w3.org/2000/svg">
<path fill-rule="evenodd" clip-rule="evenodd" d="M3.75766 0.5C1.96101 0.5 0.5 1.96101 0.5 3.75766V41.3334C0.5 43.1301 1.96102 44.591 3.75766 44.591H58.2423C60.0391 44.591 61.5 43.13 61.5 41.3334V3.75766C61.5 1.96101 60.039 0.5 58.2423 0.5H3.75766ZM3.25781 3.75766C3.25781 3.48247 3.48251 3.25781 3.75766 3.25781H58.2423C58.5175 3.25781 58.7422 3.48251 58.7422 3.75766V8.01512H56.3636C55.6021 8.01512 54.9847 8.63249 54.9847 9.39402C54.9847 10.1556 55.6021 10.7729 56.3636 10.7729H58.7422V41.3332C58.7422 41.6085 58.5174 41.8332 58.2423 41.8332H3.75766C3.48247 41.8332 3.25781 41.6085 3.25781 41.3334V10.7729H52.606C53.3675 10.7729 53.9849 10.1556 53.9849 9.39402C53.9849 8.63249 53.3675 8.01512 52.606 8.01512H3.25781V3.75766ZM15.9697 4.25781C15.2082 4.25781 14.5908 4.87519 14.5908 5.63672C14.5908 6.39825 15.2082 7.01562 15.9697 7.01562H46.0303C46.7918 7.01562 47.4092 6.39825 47.4092 5.63672C47.4092 4.8751 46.7916 4.25781 46.0302 4.25781H15.9697ZM20.6667 13.6514C19.3879 13.6514 18.3484 14.6908 18.3484 15.9696V19.7271C18.3484 21.0059 19.3879 22.0454 20.6667 22.0454H28.1818C29.4606 22.0454 30.5001 21.0059 30.5001 19.7271V15.9696C30.5001 14.691 29.4605 13.6514 28.1818 13.6514H20.6667ZM21.1062 19.2877V16.4093H27.7423V19.2877H21.1062ZM20.6667 24.9238C19.9052 24.9238 19.2878 25.5412 19.2878 26.3027C19.2878 27.0643 19.9052 27.6816 20.6667 27.6816H28.1819C28.9434 27.6816 29.5608 27.0643 29.5608 26.3027C29.5608 25.5412 28.9434 24.9238 28.1819 24.9238H20.6667ZM20.6667 30.5605C19.9052 30.5605 19.2878 31.1779 19.2878 31.9395C19.2878 32.701 19.9052 33.3184 20.6667 33.3184H28.1819C28.9434 33.3184 29.5608 32.701 29.5608 31.9395C29.5608 31.1779 28.9434 30.5605 28.1819 30.5605H20.6667ZM20.6667 36.1973C19.9052 36.1973 19.2878 36.8146 19.2878 37.5762C19.2878 38.3377 19.9052 38.9551 20.6667 38.9551H28.1819C28.9434 38.9551 29.5608 38.3377 29.5608 37.5762C29.5608 36.8146 28.9434 36.1973 28.1819 36.1973H20.6667ZM33.818 13.6514C32.5392 13.6514 31.4998 14.6908 31.4998 15.9696V19.7271C31.4998 21.0059 32.5392 22.0454 33.818 22.0454H41.3332C42.612 22.0454 43.6514 21.0059 43.6514 19.7271V15.9696C43.6514 14.691 42.612 13.6514 41.3332 13.6514H33.818ZM34.2576 19.2877V16.4093H40.8936V19.2877H34.2576ZM33.8181 24.9238C33.0566 24.9238 32.4392 25.5412 32.4392 26.3027C32.4392 27.0643 33.0566 27.6816 33.8181 27.6816H41.3332C42.0948 27.6816 42.7121 27.0643 42.7121 26.3027C42.7121 25.5412 42.0948 24.9238 41.3332 24.9238H33.8181ZM33.8181 30.5605C33.0566 30.5605 32.4392 31.1779 32.4392 31.9395C32.4392 32.701 33.0566 33.3184 33.8181 33.3184H41.3332C42.0948 33.3184 42.7121 32.701 42.7121 31.9395C42.7121 31.1779 42.0948 30.5605 41.3332 30.5605H33.8181ZM33.8181 36.1973C33.0566 36.1973 32.4392 36.8146 32.4392 37.5762C32.4392 38.3377 33.0566 38.9551 33.8181 38.9551H41.3332C42.0948 38.9551 42.7121 38.3377 42.7121 37.5762C42.7121 36.8146 42.0948 36.1973 41.3332 36.1973H33.8181ZM46.9696 13.6514C45.6908 13.6514 44.6514 14.6908 44.6514 15.9696V19.7271C44.6514 21.0059 45.6908 22.0454 46.9696 22.0454H54.4848C55.7636 22.0454 56.803 21.0059 56.803 19.7271V15.9696C56.803 14.691 55.7636 13.6514 54.4848 13.6514H46.9696ZM47.4092 19.2877V16.4093H54.0452V19.2877H47.4092ZM46.9697 24.9238C46.2082 24.9238 45.5908 25.5412 45.5908 26.3027C45.5908 27.0643 46.2082 27.6816 46.9697 27.6816H54.4848C55.2464 27.6816 55.8638 27.0643 55.8638 26.3027C55.8638 25.5412 55.2464 24.9238 54.4848 24.9238H46.9697ZM46.9697 30.5605C46.2082 30.5605 45.5908 31.1779 45.5908 31.9395C45.5908 32.701 46.2082 33.3184 46.9697 33.3184H54.4848C55.2464 33.3184 55.8638 32.701 55.8638 31.9395C55.8638 31.1779 55.2464 30.5605 54.4848 30.5605H46.9697ZM46.9697 36.1973C46.2082 36.1973 45.5908 36.8146 45.5908 37.5762C45.5908 38.3377 46.2082 38.9551 46.9697 38.9551H54.4848C55.2464 38.9551 55.8638 38.3377 55.8638 37.5762C55.8638 36.8146 55.2464 36.1973 54.4848 36.1973H46.9697ZM7.5153 13.6514C6.2365 13.6514 5.19702 14.6908 5.19702 15.9696V19.7271C5.19702 21.0059 6.2365 22.0454 7.5153 22.0454C8.27684 22.0454 8.89421 21.4281 8.89421 20.6665C8.89421 20.0587 8.50087 19.5427 7.95483 19.3592V16.4092H14.5909V19.2876H11.2728C10.5113 19.2876 9.8939 19.905 9.8939 20.6665C9.8939 21.4281 10.5113 22.0454 11.2728 22.0454H15.0303C16.3091 22.0454 17.3486 21.0059 17.3486 19.7271V15.9696C17.3487 14.6909 16.3091 13.6514 15.0304 13.6514H7.5153ZM7.51514 24.9238C6.7536 24.9238 6.13623 25.5412 6.13623 26.3027C6.13623 27.0643 6.7536 27.6816 7.51514 27.6816H15.0303C15.7918 27.6816 16.4092 27.0643 16.4092 26.3027C16.4092 25.5412 15.7918 24.9238 15.0303 24.9238H7.51514ZM7.51514 30.5605C6.7536 30.5605 6.13623 31.1779 6.13623 31.9395C6.13623 32.701 6.7536 33.3184 7.51514 33.3184H15.0303C15.7918 33.3184 16.4092 32.701 16.4092 31.9395C16.4092 31.1779 15.7918 30.5605 15.0303 30.5605H7.51514ZM7.51514 36.1973C6.7536 36.1973 6.13623 36.8146 6.13623 37.5762C6.13623 38.3377 6.7536 38.9551 7.51514 38.9551H15.0303C15.7918 38.9551 16.4092 38.3377 16.4092 37.5762C16.4092 36.8146 15.7918 36.1973 15.0303 36.1973H7.51514Z" fill="currentColor"/>
</svg>
