<svg id="Layer_1" viewBox="0 0 100 100" xmlns="http://www.w3.org/2000/svg"><g><g fill="#006db7"><path d="m50 54.608c-1.15 0-2.083-.933-2.083-2.084v-18.862c0-1.151.933-2.084 2.083-2.084s2.083.933 2.083 2.084v18.862c0 1.152-.933 2.084-2.083 2.084z"/><path d="m50 54.608h-33.229c-1.15 0-2.083-.933-2.083-2.084 0-1.15.933-2.083 2.083-2.083h33.229c1.15 0 2.083.933 2.083 2.083 0 1.152-.933 2.084-2.083 2.084z"/><path d="m16.771 68.419c-1.15 0-2.083-.933-2.083-2.083v-13.812c0-1.15.933-2.083 2.083-2.083s2.083.933 2.083 2.083v13.812c.001 1.15-.932 2.083-2.083 2.083z"/><path d="m83.228 54.608h-33.228c-1.15 0-2.083-.933-2.083-2.084 0-1.15.933-2.083 2.083-2.083h33.228c1.15 0 2.083.933 2.083 2.083 0 1.152-.933 2.084-2.083 2.084z"/><path d="m83.228 68.419c-1.15 0-2.083-.933-2.083-2.083v-13.812c0-1.15.933-2.083 2.083-2.083s2.083.933 2.083 2.083v13.812c0 1.15-.933 2.083-2.083 2.083z"/></g><path d="m33.229 4.865h33.544v9.493h-33.544z" fill="#09afaa"/><path d="m33.229 14.358h33.544v19.304h-33.544z" fill="#0fd8ff"/><path d="m57.279 26.095h-14.557c-1.15 0-2.083-.934-2.083-2.084s.933-2.083 2.083-2.083h14.558c1.15 0 2.084.933 2.084 2.083s-.934 2.084-2.085 2.084z" fill="#61a8aa"/><path d="m0 66.336h33.544v9.496h-33.544z" fill="#09afaa"/><path d="m0 75.832h33.544v19.303h-33.544z" fill="#0fd8ff"/><path d="m24.051 87.565h-14.558c-1.151 0-2.083-.934-2.083-2.084s.933-2.083 2.083-2.083h14.558c1.15 0 2.083.933 2.083 2.083s-.933 2.084-2.083 2.084z" fill="#61a8aa"/><path d="m66.457 66.336h33.543v9.496h-33.543z" fill="#09afaa"/><path d="m66.457 75.832h33.543v19.303h-33.543z" fill="#0fd8ff"/><path d="m90.507 87.565h-14.557c-1.15 0-2.083-.934-2.083-2.084s.933-2.083 2.083-2.083h14.557c1.15 0 2.083.933 2.083 2.083s-.933 2.084-2.083 2.084z" fill="#61a8aa"/></g></svg>