<svg xmlns="http://www.w3.org/2000/svg" width="20" height="15" fill="none"><path fill="#CB2431" fill-rule="evenodd" d="M1.354.163A.474.474 0 0 0 1 0a.472.472 0 0 0-.353.163.6.6 0 0 0 0 .786l4 4.444a.465.465 0 0 0 .707 0l3.664-4.072L17.697 10H16c-.276 0-.5.248-.5.556 0 .307.224.555.5.555h3c.276 0 .5-.248.5-.555V7.222c0-.307-.224-.555-.5-.555s-.5.248-.5.555v2.086L9.335.142a.466.466 0 0 0-.689.021L5 4.214 1.354.163ZM.5 13.889h19c.276 0 .5.248.5.555 0 .307-.224.556-.5.556H.5c-.276 0-.5-.248-.5-.556 0-.307.224-.555.5-.555Z" clip-rule="evenodd"/></svg>