<svg width="14" height="15" viewBox="0 0 14 15" fill="none" xmlns="http://www.w3.org/2000/svg">
<path fill-rule="evenodd" clip-rule="evenodd" d="M13.1984 1.26193C12.846 0.930403 12.352 0.833252 11.8184 0.833252H9.31302C8.77949 0.833252 8.28547 0.930403 7.93307 1.26193C7.57354 1.60016 7.46495 2.08295 7.46495 2.60069V12.3991C7.46495 12.9169 7.57354 13.3997 7.93307 13.7379C8.28547 14.0694 8.77949 14.1666 9.31302 14.1666H11.8184C12.352 14.1666 12.846 14.0694 13.1984 13.7379C13.5579 13.3997 13.6665 12.9169 13.6665 12.3991V2.60069C13.6665 2.08295 13.5579 1.60016 13.1984 1.26193ZM12.561 1.93946C12.6464 2.01983 12.7363 2.1882 12.7363 2.60069V12.3991C12.7363 12.8116 12.6464 12.98 12.561 13.0604C12.4684 13.1475 12.271 13.2364 11.8184 13.2364H9.31302C8.8605 13.2364 8.66304 13.1475 8.57048 13.0604C8.48505 12.98 8.39519 12.8116 8.39519 12.3991V2.60069C8.39519 2.1882 8.48505 2.01983 8.57048 1.93946C8.66304 1.85238 8.8605 1.76348 9.31302 1.76348H11.8184C12.271 1.76348 12.4684 1.85238 12.561 1.93946Z" fill="#535862"/>
<path fill-rule="evenodd" clip-rule="evenodd" d="M6.06655 1.26193C5.71415 0.930403 5.22014 0.833252 4.68661 0.833252H2.18118C1.64765 0.833252 1.15364 0.930403 0.801239 1.26193C0.441706 1.60016 0.333117 2.08295 0.333117 2.60069V12.3991C0.333117 12.9169 0.441706 13.3997 0.801239 13.7379C1.15364 14.0694 1.64765 14.1666 2.18118 14.1666H4.68661C5.22014 14.1666 5.71415 14.0694 6.06655 13.7379C6.42608 13.3997 6.53467 12.9169 6.53467 12.3991V2.60069C6.53467 2.08295 6.42608 1.60016 6.06655 1.26193ZM5.42915 1.93946C5.51457 2.01983 5.60444 2.1882 5.60444 2.60069V12.3991C5.60444 12.8116 5.51457 12.98 5.42915 13.0604C5.33658 13.1475 5.13912 13.2364 4.68661 13.2364H2.18118C1.72866 13.2364 1.5312 13.1475 1.43864 13.0604C1.35321 12.98 1.26335 12.8116 1.26335 12.3991V2.60069C1.26335 2.1882 1.35321 2.01983 1.43864 1.93946C1.5312 1.85238 1.72866 1.76348 2.18118 1.76348H4.68661C5.13912 1.76348 5.33658 1.85238 5.42915 1.93946Z" fill="#535862"/>
</svg>
