<svg width="12" height="12" viewBox="0 0 12 12" fill="none" xmlns="http://www.w3.org/2000/svg">
<path d="M6.00018 6.92495C5.93518 6.92495 5.87018 6.90995 5.81518 6.87495C5.63518 6.76995 5.57518 6.53995 5.67518 6.36495L6.10018 5.62495H5.68018C5.43018 5.62495 5.22518 5.51495 5.11518 5.32995C5.00518 5.13995 5.01518 4.90995 5.14018 4.68995L5.67518 3.75995C5.78018 3.57995 6.01018 3.51995 6.18518 3.61995C6.36518 3.72495 6.42518 3.95495 6.32518 4.12995L5.90018 4.87495H6.32018C6.57018 4.87495 6.77518 4.98495 6.88518 5.16995C6.99518 5.35995 6.98518 5.58995 6.86018 5.80995L6.32518 6.73995C6.25518 6.85995 6.13018 6.92495 6.00018 6.92495Z" fill="currentColor"/>
<path d="M7.38506 9.8749H4.63006C4.41006 9.8749 4.13006 9.8499 3.94506 9.6599C3.76506 9.4749 3.77006 9.2449 3.77506 9.0899V8.6449C2.51506 7.8049 1.68506 6.3449 1.68506 4.9549C1.68506 3.6399 2.27506 2.4099 3.30006 1.5849C4.32506 0.759902 5.67006 0.449902 6.98506 0.739902C8.23506 1.0149 9.31506 1.8499 9.87506 2.9749C10.9601 5.1599 9.91506 7.5249 8.24506 8.6499V9.0249C8.25006 9.1699 8.25506 9.4349 8.05006 9.6449C7.89506 9.7949 7.67506 9.8749 7.38506 9.8749ZM4.52006 9.1199C4.54506 9.1199 4.58006 9.1249 4.62506 9.1249H7.38506C7.43506 9.1249 7.47006 9.1199 7.49006 9.1149C7.49006 9.0999 7.49006 9.0799 7.49006 9.0649V8.4349C7.49006 8.3049 7.56006 8.1799 7.67006 8.1149C9.15006 7.2199 10.1301 5.1749 9.19506 3.2999C8.73506 2.3749 7.84506 1.6899 6.81506 1.4649C5.72506 1.2249 4.61006 1.4799 3.76006 2.1649C2.91006 2.8499 2.42506 3.8649 2.42506 4.9549C2.42506 6.3449 3.38506 7.5449 4.33506 8.1199C4.45006 8.1899 4.51506 8.3099 4.51506 8.4399V9.1149C4.52006 9.1149 4.52006 9.1149 4.52006 9.1199Z" fill="currentColor"/>
<path d="M7.74964 11.375C7.71464 11.375 7.67964 11.37 7.64464 11.36C6.56464 11.05 5.42964 11.05 4.34964 11.36C4.14964 11.415 3.94464 11.3 3.88464 11.1C3.82464 10.9 3.94464 10.695 4.14464 10.635C5.35464 10.29 6.63964 10.29 7.84964 10.635C8.04964 10.69 8.16464 10.9 8.10964 11.1C8.06464 11.27 7.91464 11.375 7.74964 11.375Z" fill="currentColor"/>
</svg>
