<svg viewBox="0 0 20 22" fill="none" xmlns="http://www.w3.org/2000/svg">
<path d="M9.69981 20.6001H3.69979C2.37431 20.6001 1.2998 19.5256 1.2998 18.2001L1.2999 3.80013C1.29991 2.47466 2.37442 1.40015 3.6999 1.40015H14.5002C15.8256 1.40015 16.9002 2.47466 16.9002 3.80015V8.60015M5.50018 6.20015H12.7002M5.50018 9.80015H12.7002M12.7002 14.5541V17.4985C12.7002 18.9534 14.2516 20.2879 15.7065 20.2879C17.1615 20.2879 18.7002 18.9535 18.7002 17.4985V13.7793C18.7002 13.009 18.2574 12.2273 17.2723 12.2273C16.2186 12.2273 15.7065 13.009 15.7065 13.7793V17.3435M5.50018 13.4001H9.10018" stroke="#535862" stroke-width="2" stroke-linecap="round" stroke-linejoin="round"/>
</svg>
