<svg width="28" height="28" viewBox="0 0 28 28" fill="none" xmlns="http://www.w3.org/2000/svg">
<g filter="url(#filter0_d_595_10492)">
<rect x="2" y="1" width="24" height="24" rx="8" fill="#006FEE"/>
<rect x="2.5" y="1.5" width="23" height="23" rx="7.5" stroke="#006FEE"/>
<path d="M13.9993 16.3333C14.7357 16.3333 15.3327 16.9303 15.3327 17.6667C15.3327 18.403 14.7357 19 13.9993 19C13.263 19 12.666 18.403 12.666 17.6667C12.666 16.9303 13.263 16.3333 13.9993 16.3333Z" fill="white"/>
<path d="M13.9993 11.6667C14.7357 11.6667 15.3327 12.2636 15.3327 13C15.3327 13.7364 14.7357 14.3333 13.9993 14.3333C13.263 14.3333 12.666 13.7364 12.666 13C12.666 12.2636 13.263 11.6667 13.9993 11.6667Z" fill="white"/>
<path d="M13.9993 7C14.7357 7 15.3327 7.59695 15.3327 8.33333C15.3327 9.06971 14.7357 9.66667 13.9993 9.66667C13.263 9.66667 12.666 9.06971 12.666 8.33333C12.666 7.59695 13.263 7 13.9993 7Z" fill="white"/>
</g>
<defs>
<filter id="filter0_d_595_10492" x="0" y="0" width="28" height="28" filterUnits="userSpaceOnUse" color-interpolation-filters="sRGB">
<feFlood flood-opacity="0" result="BackgroundImageFix"/>
<feColorMatrix in="SourceAlpha" type="matrix" values="0 0 0 0 0 0 0 0 0 0 0 0 0 0 0 0 0 0 127 0" result="hardAlpha"/>
<feOffset dy="1"/>
<feGaussianBlur stdDeviation="1"/>
<feColorMatrix type="matrix" values="0 0 0 0 0.0392157 0 0 0 0 0.0496732 0 0 0 0 0.0705882 0 0 0 0.05 0"/>
<feBlend mode="normal" in2="BackgroundImageFix" result="effect1_dropShadow_595_10492"/>
<feBlend mode="normal" in="SourceGraphic" in2="effect1_dropShadow_595_10492" result="shape"/>
</filter>
</defs>
</svg>
