<svg xmlns="http://www.w3.org/2000/svg" width="14" height="14" fill="currentColor"><path stroke="currentColor" stroke-width=".2" d="M12.984 6.505C12.588 1.457 6.329-.854 2.769 2.75c-4.696 4.886.773 12.503 6.904 9.614a.315.315 0 0 0-.281-.565C3.906 14.383-.987 7.569 3.215 3.196 6.401-.026 12 2.037 12.355 6.554a5.376 5.376 0 0 1-.61 2.957.988.988 0 0 1-1.558.213 1.15 1.15 0 0 1-.34-.818V4.465a.316.316 0 0 0-.63 0v.744C7.567 3.144 4.17 4.313 4.168 6.99c.003 2.678 3.399 3.847 5.049 1.782-.09 1.044.847 2.044 1.915 1.857 1.555-.183 1.96-2.848 1.852-4.124ZM7.008 9.2a2.21 2.21 0 0 1-2.209-2.21c.122-2.931 4.297-2.93 4.418 0a2.213 2.213 0 0 1-2.21 2.21Z"/></svg>