<svg viewBox="0 0 22 22" fill="none" xmlns="http://www.w3.org/2000/svg">
<path d="M15.2631 9.97016V3.90125C15.2631 3.07443 14.478 2.32094 13.0526 1.77965C11.7286 1.2769 9.98094 1 8.13153 1C6.28211 1 4.53445 1.2769 3.21048 1.77961C1.78506 2.32094 1 3.07439 1 3.90125V16.3062C1 17.1349 1.78367 17.8889 3.2067 18.4293C4.5282 18.9311 6.27721 19.2074 8.13153 19.2074C8.8574 19.2074 9.57102 19.1645 10.2566 19.0805C11.3786 20.2552 13.038 21 14.8866 21C18.2575 21 21 18.5236 21 15.4797C21 12.55 18.4593 10.1464 15.2631 9.97016ZM8.77397 15.427C8.55713 15.4351 8.33912 15.4395 8.12215 15.4395C6.48063 15.4395 4.91141 15.211 3.70366 14.7961C2.60487 14.4187 1.89012 13.9116 1.73833 13.4033V11.4399C2.9113 12.3857 5.31057 13.005 8.12215 13.005C8.56977 13.005 9.01404 12.9886 9.4502 12.9565C9.02607 13.6985 8.78322 14.538 8.77397 15.427ZM1.73829 5.21749C2.10296 5.51784 2.59727 5.79004 3.21048 6.0229C4.53445 6.52565 6.28211 6.80255 8.13153 6.80255C9.98094 6.80255 11.7286 6.52565 13.0526 6.0229C13.6658 5.79004 14.1601 5.51784 14.5248 5.21749V7.13274L14.5232 7.13251C14.3215 8.14471 11.8168 9.23714 8.1221 9.23714C6.48058 9.23714 4.91141 9.00863 3.70362 8.59369C2.60482 8.21624 1.89007 7.70922 1.73829 7.2009V5.21749ZM9.93825 12.2421C9.34936 12.3057 8.73944 12.3384 8.12215 12.3384C6.48063 12.3384 4.91141 12.1098 3.70366 11.6949C2.60487 11.3175 1.89012 10.8105 1.73833 10.3022V8.33878C2.9113 9.28455 5.31057 9.90384 8.12215 9.90384C9.88866 9.90384 11.578 9.65047 12.879 9.19039C13.568 8.94674 14.1231 8.65243 14.5248 8.32345V9.96941C12.641 10.0691 10.9839 10.9425 9.93825 12.2421ZM3.49672 2.3942C4.73214 1.92506 6.37818 1.66667 8.13153 1.66667C9.88488 1.66667 11.5309 1.92502 12.7664 2.39416C13.8839 2.81851 14.5248 3.3678 14.5248 3.90122C14.5248 4.43467 13.8839 4.98396 12.7664 5.40831C11.531 5.87745 9.88492 6.1358 8.13153 6.1358C6.37813 6.1358 4.73214 5.87745 3.49672 5.40831C2.37921 4.98396 1.73829 4.43463 1.73829 3.90122C1.73829 3.36784 2.37921 2.81855 3.49672 2.3942ZM8.13153 18.5408C6.37327 18.5408 4.72589 18.283 3.4929 17.8147C2.37782 17.3913 1.73829 16.8415 1.73829 16.3062V14.5412C2.91126 15.4869 5.31052 16.1062 8.1221 16.1062C8.35141 16.1062 8.58193 16.1015 8.8111 16.0929C8.91763 16.9594 9.24687 17.766 9.7463 18.4648C9.22077 18.515 8.68008 18.5408 8.13153 18.5408ZM14.8866 20.3333C11.9227 20.3333 9.51148 18.156 9.51148 15.4797C9.51148 12.8034 11.9227 10.626 14.8866 10.626C17.8504 10.626 20.2617 12.8034 20.2617 15.4797C20.2617 18.156 17.8504 20.3333 14.8866 20.3333ZM16.1539 15.0925C16.5532 14.7747 16.8058 14.31 16.8058 13.7927C16.8058 12.8371 15.9448 12.0596 14.8866 12.0596C13.8284 12.0596 12.9674 12.8371 12.9674 13.7927C12.9674 14.31 13.22 14.7747 13.6193 15.0925C12.4624 15.5387 11.6494 16.5762 11.6494 17.7821C11.6494 17.9662 11.8147 18.1154 12.0186 18.1154H17.7546C17.9585 18.1154 18.1238 17.9662 18.1238 17.7821C18.1237 16.5762 17.3108 15.5387 16.1539 15.0925ZM13.7057 13.7926C13.7057 13.2046 14.2354 12.7263 14.8866 12.7263C15.5377 12.7263 16.0675 13.2046 16.0675 13.7926C16.0675 14.3804 15.5382 14.8586 14.8874 14.859H14.8857C14.235 14.8586 13.7057 14.3804 13.7057 13.7926ZM12.4149 17.4488C12.5938 16.3623 13.6336 15.5261 14.8857 15.5257H14.8875C16.1396 15.5261 17.1794 16.3623 17.3583 17.4488H12.4149Z" fill="#535862" stroke="#535862" stroke-width="0.5"/>
</svg>
