<svg viewBox="0 0 22 22" fill="none" xmlns="http://www.w3.org/2000/svg">
<path d="M10.0984 2.80369H4.4119C2.52756 2.80369 1 4.3312 1 6.21548V17.5882C1 19.4725 2.52756 21 4.4119 21H15.7849C17.6692 21 19.1968 19.4725 19.1968 17.5882L19.1968 11.9018M6.68649 15.3136L10.8244 14.4799C11.044 14.4356 11.2457 14.3274 11.4041 14.1689L20.6671 4.90116C21.1112 4.45682 21.1109 3.73657 20.6664 3.2926L18.7042 1.33264C18.2599 0.888856 17.54 0.889158 17.0961 1.33332L7.8321 10.6021C7.674 10.7602 7.56605 10.9615 7.52175 11.1807L6.68649 15.3136Z" stroke="#535862" stroke-width="2" stroke-linecap="round" stroke-linejoin="round"/>
</svg>
