<svg xmlns="http://www.w3.org/2000/svg" width="15" height="14" viewBox="0 0 15 14" fill="none">
  <g clip-path="url(#clip0_1047_4186)">
    <path d="M11.4759 13.2708H4.47591C3.74133 13.2699 3.03709 12.9776 2.51766 12.4582C1.99823 11.9388 1.706 11.2345 1.70508 10.5V3.49996C1.706 2.76537 1.99823 2.06114 2.51766 1.54171C3.03709 1.02228 3.74133 0.730052 4.47591 0.729126H11.4759C12.2105 0.730052 12.9147 1.02228 13.4342 1.54171C13.9536 2.06114 14.2458 2.76537 14.2467 3.49996V10.5C14.2458 11.2345 13.9536 11.9388 13.4342 12.4582C12.9147 12.9776 12.2105 13.2699 11.4759 13.2708ZM4.47591 1.60413C3.97329 1.60474 3.49144 1.80468 3.13604 2.16008C2.78063 2.51549 2.5807 2.99734 2.58008 3.49996V10.5C2.5807 11.0026 2.78063 11.4844 3.13604 11.8398C3.49144 12.1952 3.97329 12.3952 4.47591 12.3958H11.4759C11.9785 12.3952 12.4604 12.1952 12.8158 11.8398C13.1712 11.4844 13.3711 11.0026 13.3717 10.5V3.49996C13.3711 2.99734 13.1712 2.51549 12.8158 2.16008C12.4604 1.80468 11.9785 1.60474 11.4759 1.60413H4.47591Z" fill="#71717A"/>
    <path d="M7.97656 7.4375C7.54392 7.4375 7.12099 7.30921 6.76125 7.06884C6.40152 6.82848 6.12114 6.48683 5.95558 6.08712C5.79001 5.68741 5.74669 5.24757 5.8311 4.82324C5.9155 4.39891 6.12384 4.00913 6.42977 3.7032C6.73569 3.39728 7.12547 3.18894 7.5498 3.10453C7.97414 3.02013 8.41397 3.06345 8.81368 3.22901C9.2134 3.39458 9.55504 3.67496 9.7954 4.03469C10.0358 4.39442 10.1641 4.81735 10.1641 5.25C10.1634 5.82997 9.93278 6.38601 9.52268 6.79612C9.11258 7.20622 8.55654 7.43688 7.97656 7.4375ZM7.97656 3.9375C7.71698 3.9375 7.46322 4.01448 7.24738 4.1587C7.03154 4.30292 6.86331 4.5079 6.76397 4.74773C6.66463 4.98756 6.63864 5.25146 6.68928 5.50606C6.73993 5.76066 6.86493 5.99452 7.04849 6.17808C7.23204 6.36163 7.46591 6.48664 7.72051 6.53728C7.97511 6.58792 8.23901 6.56193 8.47884 6.46259C8.71866 6.36325 8.92365 6.19503 9.06787 5.97919C9.21209 5.76335 9.28906 5.50959 9.28906 5.25C9.28875 4.902 9.15037 4.56834 8.9043 4.32226C8.65823 4.07619 8.32457 3.93781 7.97656 3.9375Z" fill="#71717A"/>
    <path d="M5.04723 10.3979C5.02929 10.3979 5.01136 10.3967 4.99357 10.3944C4.93653 10.3874 4.88143 10.3692 4.83142 10.3409C4.78141 10.3126 4.73746 10.2747 4.70209 10.2294C4.66672 10.1842 4.64061 10.1324 4.62527 10.077C4.60992 10.0216 4.60563 9.96374 4.61265 9.90671C4.68701 9.30616 4.97815 8.75345 5.43135 8.35246C5.88455 7.95147 6.4686 7.7298 7.07373 7.72913H8.87623C9.4814 7.72967 10.0655 7.9513 10.5187 8.35231C10.972 8.75333 11.2631 9.30611 11.3373 9.90671C11.3515 10.0219 11.3193 10.138 11.2479 10.2294C11.1764 10.3209 11.0716 10.3802 10.9564 10.3944C10.8412 10.4085 10.7251 10.3764 10.6337 10.3049C10.5422 10.2335 10.4829 10.1286 10.4687 10.0135C10.4207 9.62481 10.2323 9.26711 9.93905 9.00758C9.64579 8.74805 9.26784 8.60458 8.87623 8.60413H7.07373C6.68213 8.60458 6.30417 8.74805 6.01092 9.00758C5.71766 9.26711 5.52929 9.62481 5.48123 10.0135C5.46815 10.1194 5.41684 10.2169 5.33692 10.2877C5.257 10.3585 5.15399 10.3977 5.04723 10.3979Z" fill="#71717A"/>
  </g>
  <defs>
    <clipPath id="clip0_1047_4186">
      <rect width="14" height="14" fill="#71717A" transform="translate(0.976562)"/>
    </clipPath>
  </defs>
</svg>