<svg xmlns="http://www.w3.org/2000/svg" width="16" height="16" fill="none"><path fill="#37352F" stroke="#37352F" stroke-width=".3" d="M14.25 2.37H1.75C1.06 2.37.5 2.93.5 3.62v8.75c0 .69.56 1.25 1.25 1.25h12.5c.69 0 1.25-.56 1.25-1.25V3.62c0-.69-.56-1.25-1.25-1.25Zm-12.5.625h12.5c.046 0 .087.017.13.026-1.082.99-4.67 4.274-5.926 5.405A.693.693 0 0 1 8 8.62a.693.693 0 0 1-.454-.194A1690.527 1690.527 0 0 1 1.62 3.02c.043-.009.084-.026.13-.026Zm-.625 9.375V3.62c0-.061.018-.117.035-.173.828.758 3.332 3.049 4.956 4.525-1.619 1.39-4.123 3.765-4.958 4.561-.015-.053-.033-.105-.033-.163Zm13.125.625H1.75c-.05 0-.094-.017-.14-.028.862-.823 3.382-3.21 4.972-4.571l.546.494c.257.232.559.355.872.355.313 0 .615-.123.872-.355.15-.134.339-.306.546-.494 1.59 1.36 4.11 3.748 4.973 4.57-.047.012-.091.03-.141.03Zm.625-.625c0 .058-.018.11-.033.163-.835-.796-3.34-3.17-4.958-4.56 1.624-1.477 4.127-3.767 4.956-4.526.017.056.035.112.035.173v8.75Z"/></svg>