<svg width="14" height="14" viewBox="0 0 14 14" fill="currentColor" xmlns="http://www.w3.org/2000/svg">
<path d="M12.9837 6.50454C12.5881 1.45736 6.32858 -0.853681 2.76866 2.74953C-1.92749 7.63607 3.5424 15.2534 9.67295 12.3643C9.74674 12.3264 9.80263 12.2609 9.82851 12.182C9.85439 12.1031 9.84818 12.0172 9.81122 11.9429C9.77427 11.8686 9.70954 11.8118 9.63106 11.7849C9.55257 11.758 9.46664 11.763 9.39186 11.799C3.90561 14.383 -0.986853 7.56816 3.21501 3.19579C6.40102 -0.0258955 12 2.03707 12.3547 6.55424C12.4379 7.57771 12.2264 8.6036 11.745 9.51054C11.6702 9.64323 11.5656 9.75681 11.4396 9.8424C11.3136 9.92799 11.1695 9.98328 11.0186 10.0039C10.8677 10.0246 10.7141 10.0101 10.5698 9.96151C10.4254 9.91293 10.2942 9.83163 10.1865 9.72394C10.0787 9.61668 9.99335 9.48913 9.9352 9.34865C9.87706 9.20817 9.84732 9.05756 9.84771 8.90551V4.46505C9.8465 4.38213 9.81272 4.30301 9.75368 4.24481C9.69463 4.1866 9.61507 4.15397 9.53217 4.15397C9.44928 4.15397 9.36971 4.1866 9.31067 4.24482C9.25163 4.30303 9.21786 4.38214 9.21665 4.46506V5.20861C7.56743 3.14413 4.17057 4.31335 4.16815 6.99041C4.17137 9.66763 7.56683 10.8368 9.21666 8.77206C9.12705 9.81623 10.0644 10.8156 11.1323 10.629C12.6865 10.4459 13.0913 7.7805 12.9837 6.50454ZM7.00792 9.20001C6.42234 9.19934 5.86093 8.96632 5.44686 8.55207C5.03279 8.13783 4.79987 7.57619 4.7992 6.99036C4.92057 4.05896 9.09578 4.05982 9.21665 6.99038C9.21599 7.57621 8.98307 8.13786 8.56899 8.5521C8.15492 8.96634 7.59351 9.19935 7.00792 9.20001Z" fill="currentColor" stroke="currentColor" stroke-width="0.2"/>
</svg>
