<svg xmlns="http://www.w3.org/2000/svg" viewBox="0 0 151 151" fill="none">
<ellipse opacity="0.1" cx="75.5007" cy="145.532" rx="75.0163" ry="4.50098" fill="#585858"/>
<path fill-rule="evenodd" clip-rule="evenodd" d="M107.948 24.5484C109.24 22.789 111.714 22.4106 113.474 23.703C115.233 24.9955 115.611 27.4694 114.319 29.2287L109.505 35.782C108.212 37.5413 105.738 37.9198 103.979 36.6273C102.22 35.3349 101.841 32.8609 103.134 31.1016L107.948 24.5484ZM111.697 26.1213C111.273 25.8099 110.677 25.9011 110.366 26.3249L105.552 32.8781C105.241 33.3019 105.332 33.8978 105.756 34.2091C106.179 34.5204 106.775 34.4292 107.087 34.0055L111.901 27.4522C112.212 27.0285 112.121 26.4326 111.697 26.1213ZM36.6666 63.3771C36.6666 44.1601 52.245 28.5817 71.462 28.5817C90.679 28.5817 106.257 44.1601 106.257 63.3771C106.257 82.5941 90.679 98.1725 71.462 98.1725C52.245 98.1725 36.6666 82.5941 36.6666 63.3771ZM71.462 25.581C50.5878 25.581 33.6659 42.5029 33.6659 63.3771C33.6659 84.2513 50.5878 101.173 71.462 101.173C78.3242 101.173 84.7592 99.3444 90.3063 96.1478L95.2121 101.054C95.0719 103.138 95.7986 105.271 97.3923 106.864L112.53 122.002C115.46 124.932 120.209 124.932 123.139 122.002L126.403 118.738C129.333 115.809 129.333 111.059 126.403 108.129L111.265 92.9914C109.671 91.3974 107.538 90.6707 105.453 90.8114L101.266 86.624C106.274 80.2124 109.258 72.1433 109.258 63.3771C109.258 42.5029 92.3362 25.581 71.462 25.581ZM102.201 91.8026L99.3195 88.9215C97.4008 91.0129 95.2495 92.8876 92.9068 94.5047L96.2029 97.8007C96.523 97.2484 96.9195 96.7283 97.3923 96.2555L100.656 92.9915C101.129 92.519 101.649 92.1227 102.201 91.8026ZM88.8092 58.8345C89.5503 58.464 89.8507 57.5628 89.4802 56.8216C89.1096 56.0805 88.2084 55.7801 87.4673 56.1507L75.6957 62.0365C75.1874 62.2906 74.8663 62.8101 74.8663 63.3784C74.8663 63.9467 75.1874 64.4662 75.6957 64.7203L87.4673 70.6061C88.2084 70.9767 89.1096 70.6763 89.4802 69.9352C89.8507 69.194 89.5503 68.2928 88.8092 67.9223L79.7215 63.3784L88.8092 58.8345ZM53.4424 56.8216C53.0718 57.5628 53.3722 58.464 54.1133 58.8345L63.2011 63.3784L54.1133 67.9223C53.3722 68.2928 53.0718 69.194 53.4424 69.9352C53.813 70.6763 54.7142 70.9767 55.4553 70.6061L67.2269 64.7203C67.7352 64.4662 68.0562 63.9467 68.0562 63.3784C68.0562 62.8101 67.7352 62.2906 67.2269 62.0365L55.4553 56.1507C54.7142 55.7801 53.813 56.0805 53.4424 56.8216ZM46.4759 63.3767C46.4759 49.5774 57.6624 38.3909 71.4616 38.3909C85.2609 38.3909 96.4474 49.5774 96.4474 63.3767C96.4474 77.1759 85.2609 88.3624 71.4616 88.3624C57.6624 88.3624 46.4759 77.1759 46.4759 63.3767ZM71.4616 35.3903C56.0051 35.3903 43.4752 47.9202 43.4752 63.3767C43.4752 78.8332 56.0051 91.3631 71.4616 91.3631C86.9181 91.3631 99.448 78.8332 99.448 63.3767C99.448 47.9202 86.9181 35.3903 71.4616 35.3903ZM124.61 39.0798C123.947 37 121.723 35.8521 119.643 36.5157L111.896 38.9877C109.817 39.6513 108.669 41.8752 109.332 43.955C109.996 46.0347 112.22 47.1826 114.3 46.519L122.046 44.0471C124.126 43.3834 125.274 41.1595 124.61 39.0798ZM120.555 39.3744C121.056 39.2145 121.592 39.491 121.752 39.992C121.911 40.4929 121.635 41.0286 121.134 41.1884L113.387 43.6604C112.886 43.8202 112.351 43.5437 112.191 43.0428C112.031 42.5418 112.308 42.0062 112.808 41.8463L120.555 39.3744ZM23.4319 85.7058C21.336 86.3165 20.1321 88.5107 20.7429 90.6065C21.3536 92.7024 23.5477 93.9063 25.6436 93.2956L33.4504 91.0207C35.5463 90.4099 36.7502 88.2158 36.1395 86.1199C35.5287 84.0241 33.3346 82.8201 31.2387 83.4309L23.4319 85.7058ZM23.6237 89.7671C23.4766 89.2622 23.7666 88.7337 24.2714 88.5866L32.0782 86.3117C32.583 86.1646 33.1115 86.4546 33.2586 86.9594C33.4057 87.4642 33.1157 87.9927 32.6109 88.1399L24.8041 90.4148C24.2993 90.5619 23.7708 90.2719 23.6237 89.7671ZM31.3686 106.342C29.6426 105.005 29.3269 102.523 30.6635 100.797L35.6422 94.3674C36.9788 92.6414 39.4616 92.3257 41.1876 93.6623C42.9136 94.9989 43.2293 97.4817 41.8927 99.2077L36.914 105.637C35.5774 107.363 33.0946 107.679 31.3686 106.342ZM33.036 102.634C32.714 103.05 32.7901 103.648 33.2058 103.969C33.6216 104.291 34.2196 104.215 34.5415 103.8L39.5202 97.3705C39.8421 96.9547 39.7661 96.3567 39.3504 96.0348C38.9346 95.7128 38.3366 95.7889 38.0147 96.2046L33.036 102.634Z" fill="currentColor"/>
</svg>