<svg width="1em" height="1em" viewBox="0 0 80 80" fill="none" xmlns="http://www.w3.org/2000/svg">
<ellipse opacity="0.1" cx="39.9999" cy="77.4416" rx="39.8314" ry="2.38988" fill="#B2DDFF"/>
<path fill-rule="evenodd" clip-rule="evenodd" d="M63.9804 65.6682L22.7226 69.8116C20.8238 70.0023 19.1469 68.6099 18.9772 66.7014L14.9826 21.7802C14.8129 19.8718 16.2146 18.1701 18.1134 17.9794L42.4761 15.5327C43.3874 15.4414 44.2936 15.7174 44.9957 16.3L59.6578 28.4754C60.3595 29.0585 60.7995 29.9004 60.8812 30.8162L63.9804 65.6682Z" fill="#3C3E49" stroke="#3C3E49" stroke-width="0.606329" stroke-linecap="round" stroke-linejoin="round"/>
<path fill-rule="evenodd" clip-rule="evenodd" d="M60.5533 29.5673L47.1704 30.9113C45.2727 31.1019 44.6142 30.8918 44.4446 28.9844L43.6102 15.4975" fill="#3C3E49"/>
<path d="M60.5533 29.5673L47.1704 30.9113C45.2727 31.1019 44.6142 30.8918 44.4446 28.9844L43.6102 15.4975" stroke="#3C3E49" stroke-width="0.606329" stroke-linecap="round" stroke-linejoin="round"/>
<path d="M42.9456 15.022C43.8534 14.9311 44.7564 15.2109 45.4558 15.7985L59.5324 27.6322L59.6602 27.7459C60.2845 28.327 60.6749 29.126 60.7519 29.9898L63.7602 63.8199C63.7662 63.8889 63.7151 63.951 63.646 63.9579L24.0756 67.9319C22.1836 68.1219 20.5139 66.7157 20.3429 64.7961L16.4654 21.1919C16.2947 19.2722 17.6871 17.5587 19.5793 17.3686L42.9456 15.022Z" fill="#D2E5FF" stroke="#3C3E49" stroke-width="0.251626" stroke-linecap="round" stroke-linejoin="round"/>
<path fill-rule="evenodd" clip-rule="evenodd" d="M60.3065 28.7916L47.471 30.0807C45.6509 30.2634 45.019 30.0587 44.8544 28.2073L44.0403 15.1163" fill="#83889E"/>
<mask id="mask0_152_8660" style="mask-type:alpha" maskUnits="userSpaceOnUse" x="16" y="14" width="48" height="55">
<path d="M42.9408 15.0212C43.8485 14.9302 44.7515 15.21 45.4509 15.7976L59.5275 27.6313L59.6553 27.7451C60.2796 28.3261 60.67 29.1251 60.747 29.9889L63.7554 63.819C63.7613 63.8881 63.7102 63.9501 63.6412 63.9571L24.0708 67.931C22.1787 68.121 20.509 66.7148 20.3381 64.7953L16.4605 21.1911C16.2899 19.2714 17.6822 17.5578 19.5744 17.3678L42.9408 15.0212Z" fill="#DFE0E6" stroke="#3C3E49" stroke-width="0.251626" stroke-linecap="round" stroke-linejoin="round"/>
<mask id="path-8-outside-1_152_8660" maskUnits="userSpaceOnUse" x="42.6049" y="12.5553" width="18.4211" height="18.6323" fill="black">
<rect fill="white" x="42.6049" y="12.5553" width="18.4211" height="18.6323"/>
<path fill-rule="evenodd" clip-rule="evenodd" d="M60.3016 28.7907L47.4661 30.0798C45.646 30.2626 45.0141 30.0579 44.8495 28.2065L44.0354 15.1154"/>
</mask>
<path fill-rule="evenodd" clip-rule="evenodd" d="M60.3016 28.7907L47.4661 30.0798C45.646 30.2626 45.0141 30.0579 44.8495 28.2065L44.0354 15.1154" fill="#83889E"/>
<path d="M60.3239 29.0414C60.4622 29.0275 60.5643 28.904 60.552 28.7656C60.5397 28.6271 60.4176 28.5262 60.2793 28.5401L60.3239 29.0414ZM44.8495 28.2065L44.5985 28.2249L44.5991 28.2316L44.8495 28.2065ZM44.2863 15.097C44.2776 14.9582 44.1583 14.854 44.0198 14.8642C43.8812 14.8744 43.7759 14.9952 43.7845 15.1339L44.2863 15.097ZM60.3016 28.7907L60.2793 28.5401L47.4438 29.8292L47.4661 30.0798L47.4884 30.3304L60.3239 29.0414L60.3016 28.7907ZM47.4661 30.0798L47.4438 29.8292C46.992 29.8745 46.6286 29.8941 46.333 29.8733C46.0382 29.8525 45.8291 29.7925 45.6739 29.6932C45.3745 29.5017 45.1815 29.0998 45.0998 28.1813L44.8495 28.2065L44.5991 28.2316C44.6821 29.1646 44.8873 29.7907 45.4 30.1187C45.6509 30.2792 45.9514 30.3518 46.2921 30.3758C46.632 30.3998 47.0301 30.3765 47.4884 30.3304L47.4661 30.0798ZM44.8495 28.2065L45.1003 28.188L44.2863 15.097L44.0354 15.1154L43.7845 15.1339L44.5986 28.2249L44.8495 28.2065Z" fill="#3C3E49" mask="url(#path-8-outside-1_152_8660)"/>
</mask>
<g mask="url(#mask0_152_8660)">
<rect width="7.27595" height="69.7278" transform="matrix(0.909226 0.416304 -0.416305 0.909225 50.4814 6.82617)" fill="white"/>
<rect width="2.42532" height="69.7278" transform="matrix(0.909226 0.416303 -0.416305 0.909225 46.0708 4.8064)" fill="white"/>
</g>
<path d="M42.9373 15.023C43.8451 14.9321 44.7481 15.2118 45.4475 15.7995L59.5241 27.6331L59.6519 27.7469C60.2762 28.328 60.6666 29.127 60.7436 29.9908L63.7519 63.8208C63.7579 63.8899 63.7068 63.952 63.6378 63.9589L24.0674 67.9328C22.1753 68.1229 20.5056 66.7167 20.3346 64.7971L16.4571 21.1929C16.2864 19.2732 17.6788 17.5596 19.571 17.3696L42.9373 15.023Z" stroke="#3C3E49" stroke-width="0.251626" stroke-linecap="round" stroke-linejoin="round"/>
<path fill-rule="evenodd" clip-rule="evenodd" d="M60.2731 28.4383L47.4689 30.0802C45.6488 30.263 44.67 30.0931 44.5054 28.2417L44.0068 14.763" fill="#1470EF"/>
<path d="M60.2877 28.5632L60.4125 28.5472L60.3833 28.2973L60.2585 28.3133L60.2877 28.5632ZM47.4689 30.0802L47.48 30.2056L47.4835 30.2052L47.4689 30.0802ZM44.5054 28.2417L44.3796 28.2478L44.3802 28.2543L44.5054 28.2417ZM44.1324 14.7569C44.1298 14.6874 44.0715 14.6338 44.0021 14.6372C43.9328 14.6405 43.8786 14.6996 43.8812 14.769L44.1324 14.7569ZM60.2731 28.4383L60.2585 28.3133L47.4543 29.9553L47.4689 30.0802L47.4835 30.2052L60.2877 28.5632L60.2731 28.4383ZM47.4689 30.0802L47.4577 29.9549C46.5441 30.0467 45.8802 30.0437 45.4243 29.8114C44.9862 29.5882 44.7111 29.1348 44.6305 28.2292L44.5054 28.2417L44.3802 28.2543C44.4643 29.2 44.7609 29.7573 45.3084 30.0362C45.838 30.306 46.5736 30.2966 47.48 30.2055L47.4689 30.0802ZM44.5054 28.2417L44.631 28.2357L44.1324 14.7569L44.0068 14.763L43.8812 14.769L44.3798 28.2478L44.5054 28.2417Z" fill="#3C3E49"/>
<path fill-rule="evenodd" clip-rule="evenodd" d="M19.812 26.1294L31.7217 24.7354L19.812 26.1294Z" fill="#D2E5FF"/>
<path d="M19.812 26.1294L31.7217 24.7354" stroke="#3C3E49" stroke-width="0.910181" stroke-linecap="round" stroke-linejoin="round"/>
<path fill-rule="evenodd" clip-rule="evenodd" d="M20.729 35.3148L43.063 32.684L20.729 35.3148Z" fill="#D2E5FF"/>
<path d="M20.729 35.3148L43.063 32.684" stroke="#3C3E49" stroke-width="0.910181" stroke-linecap="round" stroke-linejoin="round"/>
<path fill-rule="evenodd" clip-rule="evenodd" d="M59.7005 56.6346C64.7018 56.6346 68.7561 52.5127 68.7561 47.4281C68.7561 42.3436 64.7018 38.2217 59.7005 38.2217C54.6993 38.2217 50.645 42.3436 50.645 47.4281C50.645 52.5127 54.6993 56.6346 59.7005 56.6346Z" fill="#D2E5FF" stroke="#3C3E49" stroke-width="0.595727" stroke-linecap="round" stroke-linejoin="round"/>
<path fill-rule="evenodd" clip-rule="evenodd" d="M59.6984 59.512C66.2634 59.512 71.5853 54.1013 71.5853 47.427C71.5853 40.7526 66.2634 35.3419 59.6984 35.3419C53.1335 35.3419 47.8115 40.7526 47.8115 47.427C47.8115 54.1013 53.1335 59.512 59.6984 59.512Z" fill="white" stroke="#3C3E49" stroke-width="0.107869" stroke-linecap="round" stroke-linejoin="round"/>
<path fill-rule="evenodd" clip-rule="evenodd" d="M59.5001 55.418C63.9486 55.418 67.5549 51.7516 67.5549 47.229C67.5549 42.7063 63.9486 39.0399 59.5001 39.0399C55.0516 39.0399 51.4453 42.7063 51.4453 47.229C51.4453 51.7516 55.0516 55.418 59.5001 55.418Z" fill="#1470EF" stroke="#3C3E49" stroke-width="0.35167" stroke-linecap="round" stroke-linejoin="round"/>
<path d="M59.6973 42.8241V52.0306" stroke="white" stroke-width="1.40668" stroke-linecap="square" stroke-linejoin="round"/>
<path d="M55.1685 47.4265H64.224" stroke="white" stroke-width="1.40668" stroke-linecap="square" stroke-linejoin="round"/>
</svg>
