<svg width="39" height="39" viewBox="0 0 39 39" fill="none" xmlns="http://www.w3.org/2000/svg">
<rect width="39" height="39" rx="6" fill="#E4FBF2"/>
<path d="M18.6324 7.78691C19.1807 7.52283 19.8195 7.52283 20.3679 7.78691L28.1167 11.5186C28.6651 11.7826 29.0634 12.2821 29.1988 12.8755L31.1126 21.2604C31.2481 21.8538 31.1059 22.4766 30.7264 22.9524L25.3641 29.6766C24.9846 30.1525 24.4091 30.4296 23.8004 30.4296H15.1998C14.5912 30.4296 14.0157 30.1525 13.6362 29.6766L8.2738 22.9524C7.89432 22.4766 7.75217 21.8538 7.88761 21.2604L9.80142 12.8755C9.93686 12.2821 10.3351 11.7826 10.8835 11.5186L18.6324 7.78691Z" fill="#A7EBD0"/>
<circle cx="19.5" cy="19.5" r="5.5" fill="white"/>
<path d="M16.3605 24.6277C16.5875 24.8561 16.8576 25.0372 17.1551 25.1606C17.4526 25.2839 17.7716 25.347 18.0936 25.3462H20.9073C21.2294 25.347 21.5484 25.2839 21.8459 25.1606C22.1434 25.0372 22.4135 24.8561 22.6405 24.6277L24.6282 22.64C24.8565 22.4129 25.0376 22.1428 25.1609 21.8453C25.2842 21.5479 25.3474 21.2289 25.3467 20.9069V18.0931C25.3474 17.7711 25.2842 17.4521 25.1609 17.1547C25.0376 16.8572 24.8565 16.5871 24.6282 16.36L22.6405 14.3723C22.4135 14.1439 22.1434 13.9628 21.8459 13.8394C21.5484 13.7161 21.2294 13.653 20.9073 13.6538H18.0936C17.7716 13.653 17.4526 13.7161 17.1551 13.8394C16.8576 13.9628 16.5875 14.1439 16.3605 14.3723L14.3728 16.36C14.1445 16.5871 13.9634 16.8572 13.8401 17.1547C13.7167 17.4521 13.6536 17.7711 13.6543 18.0931V20.9069C13.6536 21.2289 13.7167 21.5479 13.8401 21.8453C13.9634 22.1428 14.1445 22.4129 14.3728 22.64L16.3605 24.6277ZM14.7858 18.0931C14.7858 17.9198 14.8199 17.7481 14.8863 17.5879C14.9526 17.4278 15.0498 17.2822 15.1724 17.1596L17.1601 15.1719C17.2827 15.0494 17.4283 14.9521 17.5884 14.8858C17.7486 14.8195 17.9203 14.7853 18.0936 14.7853H20.9073C21.0807 14.7853 21.2524 14.8195 21.4125 14.8858C21.5727 14.9521 21.7183 15.0494 21.8408 15.1719L23.8286 17.1596C23.9511 17.2822 24.0484 17.4278 24.1147 17.5879C24.181 17.7481 24.2152 17.9198 24.2152 18.0931V20.9069C24.2152 21.0802 24.181 21.2519 24.1147 21.4121C24.0484 21.5722 23.9511 21.7178 23.8286 21.8404L21.8408 23.8281C21.7183 23.9506 21.5727 24.0479 21.4125 24.1142C21.2524 24.1805 21.0807 24.2147 20.9073 24.2147H18.0936C17.9203 24.2147 17.7486 24.1805 17.5884 24.1142C17.4283 24.0479 17.2827 23.9506 17.1601 23.8281L15.1724 21.8404C15.0498 21.7178 14.9526 21.5722 14.8863 21.4121C14.8199 21.2519 14.7858 21.0802 14.7858 20.9069V18.0931Z" fill="#137C50"/>
<circle cx="19.5" cy="19.5" r="1.5" fill="#137C50"/>
</svg>
