<svg width="16" height="16" viewBox="0 0 16 16" fill="none" xmlns="http://www.w3.org/2000/svg">
<g clip-path="url(#clip0_18366_21935)">
<path d="M7.19881 2.31672H9.52381C9.58547 2.31672 9.64461 2.2895 9.68821 2.24105C9.73181 2.1926 9.75631 2.1269 9.75631 2.05838C9.75631 1.98987 9.73181 1.92416 9.68821 1.87571C9.64461 1.82727 9.58547 1.80005 9.52381 1.80005H7.19881C7.13715 1.80005 7.07801 1.82727 7.03441 1.87571C6.9908 1.92416 6.96631 1.98987 6.96631 2.05838C6.96631 2.1269 6.9908 2.1926 7.03441 2.24105C7.07801 2.2895 7.13715 2.31672 7.19881 2.31672ZM11.3838 3.86672H7.19881C7.13715 3.86672 7.07801 3.89393 7.03441 3.94238C6.9908 3.99083 6.96631 4.05653 6.96631 4.12505C6.96631 4.19356 6.9908 4.25927 7.03441 4.30772C7.07801 4.35617 7.13715 4.38338 7.19881 4.38338H11.3838C11.4455 4.38338 11.5046 4.35617 11.5482 4.30772C11.5918 4.25927 11.6163 4.19356 11.6163 4.12505C11.6163 4.05653 11.5918 3.99083 11.5482 3.94238C11.5046 3.89393 11.4455 3.86672 11.3838 3.86672ZM11.3838 4.90005H7.19881C7.13715 4.90005 7.07801 4.92727 7.03441 4.97571C6.9908 5.02416 6.96631 5.08987 6.96631 5.15838C6.96631 5.2269 6.9908 5.29261 7.03441 5.34105C7.07801 5.3895 7.13715 5.41672 7.19881 5.41672H11.3838C11.4455 5.41672 11.5046 5.3895 11.5482 5.34105C11.5918 5.29261 11.6163 5.2269 11.6163 5.15838C11.6163 5.08987 11.5918 5.02416 11.5482 4.97571C11.5046 4.92727 11.4455 4.90005 11.3838 4.90005Z" fill="currentColor" stroke="currentColor" stroke-width="0.15"/>
<path fill-rule="evenodd" clip-rule="evenodd" d="M13.6833 4.39342L15.6465 7.53519C15.6786 7.55919 15.7047 7.59034 15.7227 7.62618C15.7406 7.66203 15.75 7.70157 15.75 7.74167V15.4917C15.75 15.5602 15.7228 15.6259 15.6743 15.6743C15.6259 15.7228 15.5602 15.75 15.4917 15.75H0.508333C0.439819 15.75 0.374111 15.7228 0.325664 15.6743C0.277217 15.6259 0.25 15.5602 0.25 15.4917V7.74167C0.25001 7.70157 0.259373 7.66204 0.277345 7.6262C0.295317 7.59036 0.321209 7.55899 0.353333 7.535L2.544 4.39342V0.508333C2.544 0.439819 2.57822 0.374111 2.62667 0.325664C2.67511 0.277217 2.76482 0.25 2.83333 0.25L11.875 0.25C11.9435 0.24998 12.0092 0.277172 12.0577 0.325595L13.6077 1.87559C13.6317 1.89959 13.6507 1.92807 13.6637 1.95942C13.6767 1.99077 13.6833 2.02437 13.6833 2.0583V4.39342ZM13.6833 7.48333H15L13.6833 5.4V7.48333ZM12.8014 1.8L12.1333 1.13198V1.8H12.8014ZM11.6167 0.766667H5.93333V7.48333H13.1667V2.31667H11.875C11.8065 2.31667 11.7408 2.28945 11.6923 2.241C11.6439 2.19256 11.6167 2.12685 11.6167 2.05833V0.766667ZM4.53833 0.766667V7.48333H5.41667V0.766667H4.53833ZM3.97 0.766667H3.04V7.48333H3.97V0.766667ZM1.1 7.48333H2.544V5.4L1.1 7.48333ZM0.766667 15.2333H15.2333V8H0.766667V15.2333Z" fill="currentColor" stroke="currentColor" stroke-width="0.15"/>
<path d="M9.80869 9.0332H6.19202C5.91797 9.0332 5.65514 9.14207 5.46135 9.33586C5.26756 9.52965 5.15869 9.79248 5.15869 10.0665C5.15869 10.3406 5.26756 10.6034 5.46135 10.7972C5.65514 10.991 5.91797 11.0999 6.19202 11.0999H9.80869C10.0827 11.0999 10.3456 10.991 10.5394 10.7972C10.7332 10.6034 10.842 10.3406 10.842 10.0665C10.842 9.79248 10.7332 9.52965 10.5394 9.33586C10.3456 9.14207 10.0827 9.0332 9.80869 9.0332ZM9.80869 10.5832H6.19202C6.055 10.5832 5.92358 10.5288 5.82669 10.4319C5.72979 10.335 5.67536 10.2036 5.67536 10.0665C5.67536 9.92951 5.72979 9.79809 5.82669 9.7012C5.92358 9.6043 6.055 9.54987 6.19202 9.54987H9.80869C9.94572 9.54987 10.0771 9.6043 10.174 9.7012C10.2709 9.79809 10.3254 9.92951 10.3254 10.0665C10.3254 10.2036 10.2709 10.335 10.174 10.4319C10.0771 10.5288 9.94572 10.5832 9.80869 10.5832Z" fill="#37352F" stroke="currentColor" stroke-width="0.15"/>
</g>
<defs>
<clipPath id="clip0_18366_21935">
<rect width="16" height="16" fill="white"/>
</clipPath>
</defs>
</svg>
