
<svg viewBox="0 0 30 30" fill="none" xmlns="http://www.w3.org/2000/svg">
<path d="M11.4844 12.6562C11.8078 12.6562 12.0703 12.3937 12.0703 12.0703C12.0703 11.7453 11.805 11.4844 11.4844 11.4844C11.161 11.4844 10.8984 11.7469 10.8984 12.0703C10.8984 12.394 11.161 12.6562 11.4844 12.6562Z" fill="currentColor" fill-opacity="0.4" stroke="currentColor" stroke-opacity="0.4" stroke-width="0.2"/>
<path d="M15.0859 4.45312C15.0859 4.50062 15.0475 4.53906 15 4.53906C14.9525 4.53906 14.9141 4.50062 14.9141 4.45312V0.585938C14.9141 0.538441 14.9525 0.5 15 0.5C15.0475 0.5 15.0859 0.538441 15.0859 0.585938V4.45312Z" fill="currentColor" fill-opacity="0.4" stroke="currentColor"/>
<path d="M14.4141 25.5469V29.4141C14.4141 29.7377 14.6764 30 15 30C15.3236 30 15.5859 29.7377 15.5859 29.4141V25.5469C15.5859 25.2232 15.3236 24.9609 15 24.9609C14.6764 24.9609 14.4141 25.2232 14.4141 25.5469Z" fill="currentColor" fill-opacity="0.4"/>
<path d="M5.95563 7.95703C6.18451 8.18591 6.5553 8.18591 6.78441 7.95703C7.01306 7.72838 7.01306 7.35736 6.78441 7.12848L4.29807 4.64236C4.06941 4.41348 3.69839 4.41348 3.46951 4.64236C3.24063 4.87125 3.24063 5.24226 3.46951 5.47092L5.95563 7.95703Z" fill="currentColor" fill-opacity="0.4"/>
<path d="M23.2156 22.6285C22.9867 22.8574 22.9867 23.2284 23.2156 23.4573L25.7017 25.9434C25.9304 26.1721 26.3014 26.1723 26.5303 25.9434C26.7592 25.7145 26.7592 25.3435 26.5303 25.1146L24.0442 22.6285C23.8153 22.3999 23.4445 22.3999 23.2156 22.6285Z" fill="currentColor" fill-opacity="0.4"/>
<path d="M24.0442 7.95703L26.5303 5.47092C26.7592 5.24226 26.7592 4.87125 26.5303 4.64236C26.3014 4.41348 25.9306 4.41348 25.7017 4.64236L23.2156 7.12848C22.9867 7.35736 22.9867 7.72838 23.2156 7.95703C23.4445 8.18591 23.8153 8.18591 24.0442 7.95703Z" fill="currentColor" fill-opacity="0.4"/>
<path d="M5.95563 22.6287L3.46951 25.1148C3.24063 25.3435 3.24063 25.7145 3.46951 25.9434C3.69839 26.1722 4.06918 26.1722 4.29807 25.9434L6.78441 23.4572C7.01306 23.2284 7.01306 22.8573 6.78441 22.6287C6.55553 22.3998 6.18451 22.3998 5.95563 22.6287Z" fill="currentColor" fill-opacity="0.4"/>
<path d="M5.26377 19.2561C8.31728 21.8383 11.6841 23.2031 14.9999 23.2031C18.316 23.2031 21.6826 21.8383 24.7361 19.2561C27.024 17.3213 28.3227 15.4076 28.3767 15.3271C28.5097 15.1293 28.5097 14.8707 28.3767 14.6729C28.3227 14.5926 27.024 12.6787 24.7361 10.7439C21.6826 8.1617 18.316 6.79688 14.9999 6.79688C11.6841 6.79688 8.31728 8.1617 5.26377 10.7439C2.97609 12.6787 1.67742 14.5924 1.62317 14.6729C1.49019 14.8707 1.49019 15.1293 1.62317 15.3271C1.67742 15.4076 2.97609 17.3213 5.26377 19.2561ZM6.02045 11.6389C8.00028 9.9646 11.1653 7.96875 14.9999 7.96875C18.823 7.96875 21.9797 9.95316 23.9547 11.6178C25.586 12.9929 26.7061 14.385 27.168 15.0005C26.7098 15.6116 25.602 16.989 23.9794 18.3611C21.9996 20.0354 18.8346 22.0312 14.9999 22.0312C11.1769 22.0312 8.02019 20.0468 6.0454 18.3822C4.41393 17.0071 3.29355 15.6148 2.83213 14.9998C3.29012 14.3884 4.39791 13.011 6.02045 11.6389Z" fill="currentColor" stroke="black" stroke-width="0.2"/>
<path d="M15 20.2734C17.9258 20.2734 20.2734 17.8988 20.2734 15C20.2734 12.0923 17.9077 9.72656 15 9.72656C14.3843 9.72656 13.716 9.8394 13.1126 10.0745C12.811 10.1917 12.6615 10.5313 12.7787 10.833C12.889 11.1168 13.1971 11.2971 13.594 11.1459C14.0403 10.9788 14.5402 10.8984 15 10.8984C17.2616 10.8984 19.1016 12.7384 19.1016 15C19.1016 17.2549 17.2733 19.1016 15 19.1016C12.7384 19.1016 10.8984 17.2616 10.8984 15C10.8984 14.7265 10.9227 14.5161 10.9662 14.252C11.0264 13.9341 10.8174 13.6295 10.4995 13.5688C10.1825 13.5088 9.87488 13.7187 9.81422 14.0364C9.75426 14.3546 9.72656 14.6906 9.72656 15C9.72656 17.9077 12.0923 20.2734 15 20.2734Z" fill="currentColor" stroke="black" stroke-width="0.2"/>
<path d="M17.3438 15C17.3438 13.7077 16.2923 12.6562 15 12.6562C13.7077 12.6562 12.6562 13.7077 12.6562 15C12.6562 16.2923 13.7077 17.3438 15 17.3438C16.2923 17.3438 17.3438 16.2923 17.3438 15ZM13.8281 15C13.8281 14.3539 14.3539 13.8281 15 13.8281C15.6461 13.8281 16.1719 14.3539 16.1719 15C16.1719 15.6461 15.6461 16.1719 15 16.1719C14.3539 16.1719 13.8281 15.6461 13.8281 15Z" fill="currentColor" fill-opacity="0.4" stroke="currentColor" stroke-opacity="0.4" stroke-width="0.2"/>
</svg>
