<svg viewBox="0 0 40 40" fill="none" xmlns="http://www.w3.org/2000/svg">
<g clip-path="url(#clip0_2385_195866)">
<path fill-rule="evenodd" clip-rule="evenodd" d="M6.01172 20.9702C6.01172 12.7089 12.7089 6.01172 20.9702 6.01172C29.2316 6.01172 35.9286 12.7089 35.9286 20.9702C35.9286 29.2316 29.2316 35.9286 20.9702 35.9286C12.7089 35.9286 6.01172 29.2316 6.01172 20.9702ZM20.9702 8.31308C13.9798 8.31308 8.31299 13.9798 8.31299 20.9702C8.31299 27.9606 13.9798 33.6273 20.9702 33.6273C27.9606 33.6273 33.6273 27.9606 33.6273 20.9702C33.6273 13.9798 27.9606 8.31308 20.9702 8.31308ZM20.9702 24.4222C22.8766 24.4222 24.4222 22.8766 24.4222 20.9702C24.4222 19.0637 22.8766 17.5183 20.9702 17.5183C19.0637 17.5183 17.5183 19.0637 17.5183 20.9702C17.5183 22.8766 19.0637 24.4222 20.9702 24.4222Z" fill="#028376"/>
</g>
<defs>
<clipPath id="clip0_2385_195866">
<rect width="30" height="30" fill="white" transform="translate(6 6)"/>
</clipPath>
</defs>
</svg>
