<svg viewBox="0 0 40 40" fill="none" xmlns="http://www.w3.org/2000/svg">
<g clip-path="url(#clip0_1372_140391)">
<path d="M23.4886 0C14.382 0 6.97299 7.40883 6.97299 16.5156C6.9649 19.8203 7.95619 23.0501 9.81674 25.7812L8.73861 26.8594C8.33015 26.5975 7.84442 26.4831 7.36202 26.5353C6.87962 26.5874 6.42954 26.8029 6.08644 27.146C5.74335 27.4891 5.52786 27.9391 5.47574 28.4215C5.42361 28.9039 5.53798 29.3897 5.79986 29.7981L0.913689 34.6847C0.477566 35.12 0.180465 35.6749 0.0600297 36.2793C-0.0604057 36.8836 0.00124395 37.51 0.237168 38.0793C0.473092 38.6485 0.872673 39.1349 1.38528 39.4768C1.8979 39.8188 2.50047 40.0008 3.11666 40C3.52578 40.0016 3.93115 39.9221 4.30932 39.766C4.68748 39.6098 5.03093 39.3803 5.31978 39.0905L10.1936 34.2167C10.6031 34.507 11.1022 34.643 11.6024 34.6007C12.1025 34.5584 12.5716 34.3405 12.9266 33.9855C13.2815 33.6306 13.4995 33.1615 13.5418 32.6613C13.5841 32.1611 13.448 31.6621 13.1578 31.2526L14.223 30.1875C16.9542 32.0483 20.1843 33.0396 23.4891 33.0312C32.5956 33.0313 40.0047 25.6225 40.0047 16.5156C40.0047 7.40875 32.5954 0 23.4886 0ZM4.43564 38.2066C4.08543 38.5546 3.61156 38.7495 3.11787 38.7487C2.62419 38.7479 2.15095 38.5515 1.80186 38.2024C1.45277 37.8533 1.2563 37.38 1.2555 36.8864C1.2547 36.3927 1.44964 35.9188 1.7976 35.5686L6.64978 30.7163L9.28791 33.3545L4.43564 38.2066ZM12.0425 33.1016C11.8776 33.2649 11.6549 33.3565 11.4228 33.3565C11.1906 33.3565 10.9679 33.2649 10.803 33.1016L6.96869 29.2675C6.8043 29.1031 6.71194 28.8801 6.71194 28.6477C6.71194 28.4152 6.8043 28.1922 6.96869 28.0278C7.13308 27.8634 7.35605 27.7711 7.58853 27.7711C7.82102 27.7711 8.04398 27.8634 8.20838 28.0278L12.0425 31.862C12.2066 32.0265 12.2988 32.2494 12.2988 32.4818C12.2988 32.7141 12.2066 32.937 12.0425 33.1016ZM23.4886 31.7808C20.2653 31.7889 17.1234 30.7687 14.5199 28.8684C14.3995 28.7808 14.2518 28.739 14.1033 28.7507C13.9549 28.7623 13.8155 28.8265 13.7103 28.9318L12.2951 30.347L9.65697 27.7089L11.0721 26.2938C11.1774 26.1885 11.2417 26.0491 11.2533 25.9007C11.2649 25.7522 11.2232 25.6045 11.1356 25.4841C9.23549 22.8805 8.21525 19.7387 8.22322 16.5154C8.22346 8.09805 15.0714 1.25 23.4886 1.25C31.9058 1.25 38.7542 8.09805 38.7542 16.5156C38.7542 24.9332 31.9062 31.7808 23.4886 31.7808ZM23.4886 4.63688C16.9388 4.63688 11.61 9.96562 11.61 16.5154C11.61 23.0652 16.939 28.394 23.4886 28.394C30.0382 28.394 35.3674 23.0652 35.3674 16.5156C35.3674 9.96602 30.0386 4.63688 23.4886 4.63688ZM23.4886 27.144C17.628 27.144 12.86 22.376 12.86 16.5154C12.86 10.6548 17.6282 5.88687 23.4886 5.88687C29.349 5.88687 34.1174 10.6548 34.1174 16.5156C34.1174 22.3764 29.3494 27.144 23.4886 27.144Z" fill="black"/>
<path fill-rule="evenodd" clip-rule="evenodd" d="M30.0266 14.4234C30.0266 14.2577 29.9608 14.0987 29.8435 13.9815C29.7263 13.8643 29.5674 13.7984 29.4016 13.7984H26.0824V11.2559C26.0824 11.0901 26.0165 10.9311 25.8993 10.8139C25.7821 10.6967 25.6231 10.6309 25.4574 10.6309H21.5128C21.347 10.6309 21.188 10.6967 21.0708 10.8139C20.9536 10.9311 20.8878 11.0901 20.8878 11.2559V16.6672H17.5683C17.4026 16.6672 17.2436 16.733 17.1264 16.8502C17.0092 16.9675 16.9433 17.1264 16.9433 17.2922V21.1496H15.9248C15.759 21.1496 15.6001 21.2155 15.4829 21.3327C15.3657 21.4499 15.2998 21.6089 15.2998 21.7746C15.2998 21.9404 15.3657 22.0993 15.4829 22.2165C15.6001 22.3338 15.759 22.3996 15.9248 22.3996H31.0454C31.2111 22.3996 31.3701 22.3338 31.4873 22.2165C31.6045 22.0993 31.6704 21.9404 31.6704 21.7746C31.6704 21.6089 31.6045 21.4499 31.4873 21.3327C31.3701 21.2155 31.2111 21.1496 31.0454 21.1496H30.0268L30.0266 14.4234ZM22.1377 11.8809H24.8323V21.1496H22.1379L22.1377 11.8809ZM28.7763 21.15V15.0488H26.082V21.15H28.7763ZM18.1934 17.918H20.8878V21.1504H18.1936L18.1934 17.918Z" fill="#292929" fill-opacity="0.49"/>
</g>
<defs>
<clipPath id="clip0_1372_140391">
<rect width="40" height="40" fill="white"/>
</clipPath>
</defs>
</svg>
