<svg viewBox="0 0 24 24" fill="none" xmlns="http://www.w3.org/2000/svg">
<g clip-path="url(#clip0_9049_154851)">
<circle cx="15" cy="9" r="6.4" stroke="currentColor" stroke-width="1.2"/>
<path d="M12 9L11.54 8.61482L11.2175 9L11.54 9.38518L12 9ZM12 9C11.54 9.38518 11.54 9.38527 11.5401 9.38537L11.5403 9.38562L11.5409 9.38624L11.5424 9.38804L11.5472 9.39378L11.5641 9.41351C11.5784 9.43021 11.5989 9.45387 11.6251 9.48348C11.6775 9.54266 11.7527 9.6259 11.8469 9.72523C12.0344 9.92311 12.3005 10.1886 12.6128 10.4559C12.9232 10.7215 13.2918 10.9997 13.6845 11.2141C14.0703 11.4248 14.5264 11.6 15 11.6C15.4736 11.6 15.9297 11.4248 16.3155 11.2141C16.7082 10.9997 17.0768 10.7215 17.3872 10.4559C17.6995 10.1886 17.9656 9.92311 18.1531 9.72523C18.2473 9.6259 18.3225 9.54266 18.3749 9.48348C18.4011 9.45387 18.4216 9.43021 18.4359 9.41351L18.4528 9.39378L18.4576 9.38804L18.4591 9.38624L18.4597 9.38562L18.4599 9.38537C18.46 9.38527 18.46 9.38518 18 9M12 9C11.54 8.61482 11.54 8.61473 11.5401 8.61463L11.5403 8.61438L11.5409 8.61376L11.5424 8.61196L11.5472 8.60622L11.5641 8.58649C11.5784 8.56979 11.5989 8.54613 11.6251 8.51652C11.6775 8.45734 11.7527 8.3741 11.8469 8.27477C12.0344 8.07689 12.3005 7.8114 12.6128 7.54412C12.9232 7.27851 13.2918 7.00032 13.6845 6.78589C14.0703 6.57523 14.5264 6.4 15 6.4C15.4736 6.4 15.9297 6.57523 16.3155 6.78589C16.7082 7.00032 17.0768 7.27851 17.3872 7.54412C17.6995 7.8114 17.9656 8.07689 18.1531 8.27477C18.2473 8.3741 18.3225 8.45734 18.3749 8.51652C18.4011 8.54613 18.4216 8.56979 18.4359 8.58649L18.4528 8.60622L18.4576 8.61196L18.4591 8.61376L18.4597 8.61438L18.4599 8.61463C18.46 8.61473 18.46 8.61482 18 9M18 9L18.46 9.38518L18.7825 9L18.46 8.61482L18 9Z" stroke="currentColor" stroke-width="1.2"/>
<circle cx="15" cy="9" r="1" stroke="currentColor" stroke-width="1.2"/>
<path d="M10 16.4937L7.50631 14L3.5164 17.9898C2.82781 18.6785 2.82778 19.7949 3.5164 20.4835C4.20501 21.1721 5.3216 21.1722 6.01009 20.4835C6.50865 19.9848 10 16.4937 10 16.4937Z" stroke="currentColor" stroke-width="1.2" stroke-linecap="round" stroke-linejoin="round"/>
<path d="M9 15L10.5 13.5" stroke="currentColor" stroke-width="1.4" stroke-linecap="round" stroke-linejoin="round"/>
<path d="M6 16L8 18" stroke="currentColor" stroke-width="1.2" stroke-linecap="round" stroke-linejoin="round"/>
</g>
<defs>
<clipPath id="clip0_9049_154851">
<rect width="20" height="20" fill="white" transform="translate(2 2)"/>
</clipPath>
</defs>
</svg>
