<svg viewBox="0 0 28 28" fill="none" xmlns="http://www.w3.org/2000/svg">
<g clip-path="url(#clip0_2054_198239)">
<path fill-rule="evenodd" clip-rule="evenodd" d="M8.00391 13.9873C8.00391 10.6828 10.6828 8.00391 13.9873 8.00391C17.2918 8.00391 19.9707 10.6828 19.9707 13.9873C19.9707 17.2919 17.2918 19.9707 13.9873 19.9707C10.6828 19.9707 8.00391 17.2919 8.00391 13.9873ZM13.9873 8.92445C11.1912 8.92445 8.92442 11.1912 8.92442 13.9873C8.92442 16.7835 11.1911 19.0502 13.9873 19.0502C16.7835 19.0502 19.0501 16.7835 19.0501 13.9873C19.0501 11.1912 16.7835 8.92445 13.9873 8.92445ZM13.9873 15.3681C14.7499 15.3681 15.3681 14.7499 15.3681 13.9873C15.3681 13.2247 14.7499 12.6065 13.9873 12.6065C13.2247 12.6065 12.6065 13.2247 12.6065 13.9873C12.6065 14.7499 13.2247 15.3681 13.9873 15.3681Z" fill="#028376"/>
</g>
<defs>
<clipPath id="clip0_2054_198239">
<rect width="12" height="12" fill="white" transform="translate(8 8)"/>
</clipPath>
</defs>
</svg>
