<svg viewBox="0 0 12 13" fill="none" xmlns="http://www.w3.org/2000/svg">
<path fill-rule="evenodd" clip-rule="evenodd" d="M0.00439453 6.15452C0.00439453 2.85003 2.68325 0.171143 5.98777 0.171143C9.29233 0.171143 11.9712 2.85003 11.9712 6.15452C11.9712 9.45911 9.29233 12.1379 5.98777 12.1379C2.68325 12.1379 0.00439453 9.45911 0.00439453 6.15452ZM5.98777 1.09169C3.19164 1.09169 0.924904 3.35839 0.924904 6.15452C0.924904 8.95069 3.19161 11.2174 5.98777 11.2174C8.78394 11.2174 11.0506 8.95069 11.0506 6.15452C11.0506 3.35839 8.78394 1.09169 5.98777 1.09169ZM5.98777 7.53532C6.75036 7.53532 7.36857 6.9171 7.36857 6.15452C7.36857 5.39194 6.75036 4.77376 5.98777 4.77376C5.22519 4.77376 4.60701 5.39194 4.60701 6.15452C4.60701 6.9171 5.22519 7.53532 5.98777 7.53532Z" fill="#7147E8"/>
</svg>
