<svg viewBox="0 0 40 40" fill="none" xmlns="http://www.w3.org/2000/svg">
<g clip-path="url(#clip0_1597_157863)">
<path d="M22.0272 6C15.4257 6 10.0548 11.3714 10.0548 17.9738C10.049 20.3697 10.7676 22.7113 12.1163 24.6914L11.3347 25.473C11.0386 25.2832 10.6865 25.2003 10.3368 25.238C9.98714 25.2758 9.66087 25.4321 9.41215 25.6808C9.16344 25.9296 9.00723 26.2559 8.96944 26.6056C8.93166 26.9553 9.01456 27.3075 9.20441 27.6036L5.66235 31.1464C5.34619 31.462 5.13082 31.8643 5.04352 32.3024C4.95621 32.7406 5.0009 33.1947 5.17193 33.6074C5.34295 34.0201 5.63261 34.3728 6.00421 34.6207C6.37581 34.8686 6.81263 35.0006 7.25931 35C7.55589 35.0012 7.84975 34.9435 8.12389 34.8303C8.39803 34.7171 8.647 34.5507 8.85639 34.3406L12.3895 30.8071C12.6864 31.0176 13.0481 31.1162 13.4107 31.0855C13.7733 31.0548 14.1134 30.8968 14.3707 30.6395C14.628 30.3822 14.786 30.0421 14.8166 29.6794C14.8473 29.3168 14.7487 28.955 14.5383 28.6581L15.3105 27.8859C17.2903 29.235 19.6319 29.9537 22.0276 29.9476C28.6291 29.9476 34 24.5763 34 17.9738C34 11.3713 28.6289 6 22.0272 6ZM8.21546 33.6998C7.96159 33.9521 7.61807 34.0934 7.26019 34.0928C6.90231 34.0922 6.55926 33.9498 6.3062 33.6967C6.05314 33.4436 5.91071 33.1005 5.91013 32.7426C5.90955 32.3847 6.05087 32.0411 6.3031 31.7872L9.82053 28.2693L11.7329 30.182L8.21546 33.6998ZM13.7298 29.9986C13.6102 30.117 13.4488 30.1834 13.2805 30.1834C13.1123 30.1834 12.9508 30.117 12.8312 29.9986L10.0517 27.2189C9.93254 27.0997 9.86559 26.9381 9.86559 26.7695C9.86559 26.601 9.93254 26.4393 10.0517 26.3202C10.1709 26.201 10.3325 26.134 10.501 26.134C10.6696 26.134 10.8312 26.201 10.9504 26.3202L13.7298 29.0999C13.8488 29.2192 13.9156 29.3808 13.9156 29.5493C13.9156 29.7177 13.8488 29.8793 13.7298 29.9986ZM22.0272 29.0411C19.6906 29.047 17.413 28.3073 15.5257 26.9296C15.4384 26.8661 15.3313 26.8358 15.2237 26.8442C15.1161 26.8527 15.0151 26.8992 14.9388 26.9755L13.9129 28.0016L12.0005 26.0889L13.0263 25.063C13.1027 24.9866 13.1492 24.8856 13.1577 24.778C13.1661 24.6704 13.1359 24.5633 13.0724 24.476C11.6949 22.5883 10.9554 20.3105 10.9611 17.9737C10.9613 11.8711 15.9255 6.90625 22.0272 6.90625C28.129 6.90625 33.0935 11.8711 33.0935 17.9738C33.0935 24.0766 28.1293 29.0411 22.0272 29.0411ZM22.0272 9.36173C17.2792 9.36173 13.4163 13.2251 13.4163 17.9737C13.4163 22.7222 17.2793 26.5856 22.0272 26.5856C26.7752 26.5856 30.6383 22.7223 30.6383 17.9738C30.6383 13.2254 26.7754 9.36173 22.0272 9.36173ZM22.0272 25.6794C17.7788 25.6794 14.3224 22.2226 14.3224 17.9737C14.3224 13.7247 17.779 10.268 22.0272 10.268C26.2755 10.268 29.7322 13.7248 29.7322 17.9738C29.7322 22.2229 26.2758 25.6794 22.0272 25.6794Z" fill="currentColor" stroke="currentColor" stroke-width="0.3"/>
<path fill-rule="evenodd" clip-rule="evenodd" d="M26.7697 16.4567C26.7697 16.3365 26.722 16.2212 26.637 16.1362C26.552 16.0513 26.4368 16.0035 26.3166 16.0035H23.9101V14.1602C23.9101 14.04 23.8624 13.9247 23.7774 13.8397C23.6924 13.7548 23.5772 13.707 23.457 13.707H20.5972C20.477 13.707 20.3617 13.7548 20.2768 13.8397C20.1918 13.9247 20.1441 14.04 20.1441 14.1602V18.0834H17.7374C17.6173 18.0834 17.502 18.1311 17.417 18.2161C17.3321 18.3011 17.2843 18.4163 17.2843 18.5365V21.3331H16.5459C16.4257 21.3331 16.3105 21.3809 16.2255 21.4658C16.1405 21.5508 16.0928 21.6661 16.0928 21.7863C16.0928 21.9064 16.1405 22.0217 16.2255 22.1067C16.3105 22.1916 16.4257 22.2394 16.5459 22.2394H27.5083C27.6285 22.2394 27.7437 22.1916 27.8287 22.1067C27.9137 22.0217 27.9614 21.9064 27.9614 21.7863C27.9614 21.6661 27.9137 21.5508 27.8287 21.4658C27.7437 21.3809 27.6285 21.3331 27.5083 21.3331H26.7699L26.7697 16.4567ZM21.0507 14.6133H23.0043V21.3331H21.0509L21.0507 14.6133ZM25.8631 21.3326V16.9092H23.9098V21.3326H25.8631ZM18.1897 18.99H20.1432V21.3335H18.1899L18.1897 18.99Z" fill="currentColor" fill-opacity="0.49"/>
</g>
<defs>
<clipPath id="clip0_1597_157863">
<rect width="30" height="30" fill="white" transform="translate(5 5)"/>
</clipPath>
</defs>
</svg>
