<svg viewBox="0 0 100 100" fill="none" xmlns="http://www.w3.org/2000/svg">
<path d="M7 1.5H93C96.0376 1.5 98.5 3.96243 98.5 7V23V93C98.5 96.0376 96.0376 98.5 93 98.5H7C3.96243 98.5 1.5 96.0376 1.5 93V23V7C1.5 3.96243 3.96243 1.5 7 1.5Z" stroke="currentColor" stroke-width="3"/>
<path d="M85.4362 58H60.5638C59.7001 58 59 58.6618 59 59.4782V59.5218C59 60.3382 59.7001 61 60.5638 61H85.4362C86.2999 61 87 60.3382 87 59.5218V59.4782C87 58.6618 86.2999 58 85.4362 58Z" fill="currentColor"/>
<path d="M85.8272 38H67.1728C66.5251 38 66 38.6618 66 39.4782V39.5218C66 40.3382 66.5251 41 67.1728 41H85.8272C86.4749 41 87 40.3382 87 39.5218V39.4782C87 38.6618 86.4749 38 85.8272 38Z" fill="currentColor"/>
<path d="M85.6038 78H63.3962C62.6251 78 62 78.6618 62 79.4782V79.5218C62 80.3382 62.6251 81 63.3962 81H85.6038C86.3749 81 87 80.3382 87 79.5218V79.4782C87 78.6618 86.3749 78 85.6038 78Z" fill="currentColor"/>
<path d="M85.4921 48H61.5079C60.6751 48 60 48.6618 60 49.4782V49.5218C60 50.3382 60.6751 51 61.5079 51H85.4921C86.3249 51 87 50.3382 87 49.5218V49.4782C87 48.6618 86.3249 48 85.4921 48Z" fill="currentColor"/>
<path d="M85.2128 68H56.7872C55.8001 68 55 68.6618 55 69.4782V69.5218C55 70.3382 55.8001 71 56.7872 71H85.2128C86.1999 71 87 70.3382 87 69.5218V69.4782C87 68.6618 86.1999 68 85.2128 68Z" fill="currentColor"/>
<path d="M17.2368 15.2887L10.3117 15.2766C9.60024 15.2754 9.02447 14.6976 9.02572 13.9861L9.02591 13.8746C9.02715 13.1631 9.60493 12.5874 10.3164 12.5886L17.2415 12.6007C17.953 12.6019 18.5287 13.1797 18.5275 13.8912L18.5273 14.0027C18.526 14.7142 17.9483 15.2899 17.2368 15.2887Z" fill="currentColor"/>
<path d="M29.2368 15.2887L22.3117 15.2766C21.6002 15.2754 21.0245 14.6976 21.0257 13.9861L21.0259 13.8746C21.0272 13.1631 21.6049 12.5874 22.3164 12.5886L29.2415 12.6007C29.953 12.6019 30.5287 13.1797 30.5275 13.8912L30.5273 14.0027C30.526 14.7142 29.9483 15.2899 29.2368 15.2887Z" fill="currentColor"/>
<path d="M41.5318 15.2887L34.6108 15.2766C33.8993 15.2754 33.3235 14.6976 33.3248 13.9861L33.325 13.8746C33.3262 13.1631 33.904 12.5874 34.6154 12.5886L41.5365 12.6007C42.248 12.6019 42.8238 13.1797 42.8225 13.8912L42.8223 14.0027C42.8211 14.7142 42.2433 15.2899 41.5318 15.2887Z" fill="currentColor"/>
<path d="M88.2393 15.2887L59.2882 15.2766C58.5768 15.2754 58.001 14.6976 58.0022 13.9861L58.0024 13.8746C58.0037 13.1631 58.5815 12.5874 59.2929 12.5886L88.244 12.6007C88.9555 12.602 89.5312 13.1797 89.53 13.8912L89.5298 14.0027C89.5285 14.7142 88.9508 15.29 88.2393 15.2887Z" fill="currentColor"/>
<path d="M33.26 33H34.6312C38.1204 33.1467 41.4375 33.9554 44.5825 35.4262C45.365 35.7912 45.6375 36.4875 45.0625 37.2325C45.0325 37.2717 45.0417 37.2979 45.09 37.3113C48.8792 38.3171 51.8112 40.4679 53.8862 43.7638C54.2187 44.2913 54.045 44.8038 53.6362 45.2513C52.165 46.8563 51.7575 48.4813 51.7337 50.7013C51.7112 52.8304 51.7083 54.9608 51.725 57.0925C51.7287 57.5488 51.675 57.8562 51.3475 58.14C50.8237 58.5937 49.9725 58.4037 49.7075 57.7612C49.63 57.5729 49.5912 57.2471 49.5912 56.7838C49.5912 54.9313 49.5933 53.0787 49.5975 51.2262C49.6008 50.0271 49.6362 49.1954 49.7037 48.7312C49.9387 47.1154 50.5712 45.6592 51.6012 44.3625C51.6232 44.3347 51.6354 44.3006 51.6361 44.2654C51.6368 44.2301 51.6259 44.1957 51.605 44.1675C49.6767 41.5408 47.1242 39.9004 43.9475 39.2463C43.1075 39.0738 42.0687 38.9937 41.1312 38.8837C40.3862 38.7962 39.7937 38.2738 40.06 37.4675C40.255 36.8763 40.905 36.7187 41.4175 36.51C41.4242 36.5071 41.4299 36.5022 41.4338 36.4961C41.4376 36.4899 41.4396 36.4827 41.4393 36.4754C41.439 36.4681 41.4366 36.4611 41.4322 36.4552C41.4279 36.4493 41.4219 36.4449 41.415 36.4425C33.105 33.575 23.4237 35.155 19.8475 44.1663C18.2587 48.17 18.5112 52.5325 18.5337 56.7437C18.54 57.8325 18.6712 58.6638 19.6075 59.1863C19.7175 59.2479 19.7683 59.2158 19.76 59.09C19.69 58.0238 19.7487 56.7325 19.7487 55.9487C19.7487 54.2987 19.5737 52.2925 19.9212 50.7537C20.5512 47.9662 22.7475 45.7262 25.5537 45.0925C26.0896 44.9717 26.9183 44.9104 28.04 44.9087C32.005 44.9037 35.97 44.9037 39.935 44.9087C41.0592 44.9096 41.8846 44.9679 42.4112 45.0837C45.2587 45.705 47.4712 47.9937 48.0837 50.8C48.1954 51.3133 48.2512 52.0342 48.2512 52.9625C48.2512 55.5342 48.25 58.1067 48.2475 60.68C48.2475 61.7208 48.1996 62.5512 48.1037 63.1712C46.8075 71.6087 38.32 77.1025 30.075 74.7238C30.0618 74.72 30.0479 74.7193 30.0344 74.7215C30.0208 74.7237 30.008 74.7289 29.9966 74.7366C29.9853 74.7444 29.9758 74.7545 29.9688 74.7663C29.9619 74.7781 29.9576 74.7913 29.9562 74.805C29.8979 75.4992 29.7292 76.165 29.45 76.8025C29.4395 76.826 29.4379 76.8526 29.4455 76.8774C29.453 76.9021 29.4693 76.9235 29.4912 76.9375C31.3254 78.1092 33.2958 78.5258 35.4025 78.1875C35.7433 78.1325 35.9762 78.1137 36.1012 78.1312C37.0537 78.265 37.3287 79.5325 36.5225 80.05C36.3692 80.1483 36.1296 80.2246 35.8037 80.2788C33.1046 80.7271 30.6012 80.2 28.2937 78.6975C28.2779 78.6872 28.259 78.6827 28.2402 78.6848C28.2213 78.6868 28.2036 78.6953 28.19 78.7088C27.1767 79.7338 25.9792 80.38 24.5975 80.6475C24.3975 80.6858 23.8942 80.7258 23.0875 80.7675C18.2087 81.02 14.54 84.8575 14.5337 89.75C14.5312 91.7067 14.5304 93.6629 14.5312 95.6188C14.5312 96.3713 14.34 96.84 13.585 97H13.3412C12.5887 96.8275 12.41 96.3675 12.4075 95.6138C12.4042 93.8588 12.4046 92.1046 12.4087 90.3512C12.4104 89.2612 12.4587 88.4313 12.5537 87.8613C13.44 82.4975 17.8612 78.815 23.2812 78.6338C25.8625 78.5475 28.0012 76.69 27.8562 73.9388C27.8546 73.8963 27.8346 73.8658 27.7962 73.8475C23.0287 71.5212 20.0487 66.9313 19.7537 61.6238C19.7526 61.605 19.746 61.5871 19.7346 61.5724C19.7232 61.5577 19.7076 61.5468 19.69 61.5413C17.3687 60.8175 16.3975 59.1375 16.4025 56.815C16.4087 54.4425 16.2912 51.9525 16.4675 49.6275C17.1925 40.0238 23.4012 33.3462 33.26 33ZM40.7037 47.02H27.2987C25.855 47.02 24.4703 47.5935 23.4494 48.6144C22.4285 49.6353 21.855 51.02 21.855 52.4638V60.88C21.855 64.1349 23.1347 67.2564 25.4125 69.558C27.6904 71.8595 30.7799 73.1525 34.0012 73.1525C37.2226 73.1525 40.3121 71.8595 42.5899 69.558C44.8678 67.2564 46.1475 64.1349 46.1475 60.88V52.4638C46.1475 51.7489 46.0067 51.041 45.7331 50.3805C45.4595 49.7201 45.0586 49.1199 44.5531 48.6144C44.0476 48.1089 43.4474 47.708 42.787 47.4344C42.1265 47.1608 41.4186 47.02 40.7037 47.02Z" fill="currentColor"/>
<path d="M54.6462 97H54.4312C53.6437 96.845 53.4687 96.3475 53.4687 95.5762C53.4696 93.6337 53.4687 91.6916 53.4662 89.75C53.4612 84.8025 49.7775 81.03 44.8262 80.7612C44.2704 80.7304 43.9912 80.715 43.9887 80.715C41.9937 80.5183 40.3887 79.5871 39.1737 77.9212C38.085 76.4275 39.9325 75.23 40.7912 76.525C41.4737 77.555 42.3996 78.2116 43.5687 78.495C43.8046 78.5525 44.3042 78.6 45.0675 78.6375C50.2987 78.8975 54.6262 82.7225 55.45 87.89C55.5408 88.4583 55.5879 89.2891 55.5912 90.3825C55.5954 92.0891 55.5962 93.7954 55.5937 95.5012C55.5925 96.3025 55.4687 96.8187 54.6462 97Z" fill="currentColor"/>
<path d="M44.8256 91.5404L41.5631 91.5347C41.0032 91.5337 40.5486 91.9868 40.5476 92.5466L40.5474 92.6341C40.5464 93.194 40.9995 93.6487 41.5594 93.6497L44.8219 93.6554C45.3818 93.6563 45.8364 93.2033 45.8374 92.6434L45.8376 92.5559C45.8385 91.996 45.3855 91.5413 44.8256 91.5404Z" fill="currentColor"/>
</svg>
