<svg viewBox="0 0 24 24" fill="none" xmlns="http://www.w3.org/2000/svg">
<rect x="-0.6" y="0.6" width="4.72602" height="4.72592" rx="1.4" transform="matrix(-1 0 0 1 19.8 2)" stroke="currentColor" stroke-width="1.2"/>
<rect x="-0.6" y="0.6" width="4.72602" height="4.72592" rx="1.4" transform="matrix(-1 0 0 1 19.8 9.03705)" stroke="currentColor" stroke-width="1.2"/>
<rect x="-0.6" y="0.6" width="4.72602" height="4.72592" rx="1.4" transform="matrix(-1 0 0 1 19.8 16.074)" stroke="currentColor" stroke-width="1.2"/>
<rect x="-0.6" y="0.6" width="5.37418" height="5.37407" rx="1.4" transform="matrix(-1 0 0 1 7.94844 8.66669)" stroke="currentColor" stroke-width="1.2"/>
<path d="M8.87078 12.0463H15.2598" stroke="currentColor" stroke-width="1.2" stroke-linecap="round"/>
<path d="M15.3066 5.10187H13.8251C13.4239 5.1173 12.6214 5.37965 12.6214 6.30557C12.6214 7.23149 12.6214 8.63581 12.6214 9.22223C12.6214 10.1019 12.0751 10.4722 11.3714 10.4722C10.6677 10.4722 9.41149 10.4722 8.87135 10.4722" stroke="currentColor" stroke-width="1.2" stroke-linecap="round"/>
<path d="M15.3066 19.037H13.8251C13.4239 19.0216 12.6214 18.7592 12.6214 17.8333C12.6214 16.9074 12.6214 15.503 12.6214 14.9166C12.6214 14.037 12.0751 13.6666 11.3714 13.6666C10.6677 13.6666 9.41149 13.6666 8.87135 13.6666" stroke="currentColor" stroke-width="1.2" stroke-linecap="round"/>
</svg>
