<svg width="16" height="16" viewBox="0 0 16 16" fill="none" xmlns="http://www.w3.org/2000/svg">
<g id="persona">
<path id="Vector" d="M10.3327 8.00008H11.3327V2.33341C11.3327 1.78113 10.885 1.33341 10.3327 1.33341H4.33268C3.7804 1.33341 3.33268 1.78113 3.33268 2.33341V8.00008H4.33268V7.755C4.33268 7.16956 4.63985 6.62705 5.14186 6.32585L5.7885 5.93786C5.50372 5.5923 5.33268 5.1495 5.33268 4.66675C5.33268 3.56218 6.22811 2.66675 7.33268 2.66675C8.43725 2.66675 9.33268 3.56218 9.33268 4.66675C9.33268 5.1495 9.16165 5.5923 8.87686 5.93786L9.52351 6.32585C10.0255 6.62705 10.3327 7.16956 10.3327 7.755V8.00008ZM9.66602 8.00008V7.755C9.66602 7.40374 9.48172 7.07823 9.18051 6.89751L8.34146 6.39408C8.04531 6.5674 7.7006 6.66675 7.33268 6.66675C6.96477 6.66675 6.62005 6.5674 6.32391 6.39408L5.48485 6.89751C5.18365 7.07823 4.99935 7.40374 4.99935 7.755V8.00008H9.66602ZM11.3327 8.66675H3.33268V12.3334C3.33268 12.8857 3.7804 13.3334 4.33268 13.3334H10.3327C10.885 13.3334 11.3327 12.8857 11.3327 12.3334V8.66675ZM11.9714 2.028C12.746 2.17146 13.3327 2.85059 13.3327 3.66675V13.6667C13.3327 14.5872 12.5865 15.3334 11.666 15.3334H5.66602C4.84986 15.3334 4.17072 14.7468 4.02727 13.9722C3.25266 13.8287 2.66602 13.1496 2.66602 12.3334V2.33341C2.66602 1.41294 3.41221 0.666748 4.33268 0.666748H10.3327C11.1488 0.666748 11.828 1.25339 11.9714 2.028ZM4.72292 14.0001C4.8602 14.3885 5.23061 14.6667 5.66602 14.6667H11.666C12.2183 14.6667 12.666 14.219 12.666 13.6667V3.66675C12.666 3.23134 12.3877 2.86093 11.9993 2.72365V12.3334C11.9993 13.2539 11.2532 14.0001 10.3327 14.0001H4.72292ZM7.33268 6.00008C8.06906 6.00008 8.66602 5.40313 8.66602 4.66675C8.66602 3.93037 8.06906 3.33341 7.33268 3.33341C6.5963 3.33341 5.99935 3.93037 5.99935 4.66675C5.99935 5.40313 6.5963 6.00008 7.33268 6.00008ZM4.99935 10.6667C4.81525 10.6667 4.66602 10.5175 4.66602 10.3334C4.66602 10.1493 4.81525 10.0001 4.99935 10.0001H9.66602C9.85011 10.0001 9.99935 10.1493 9.99935 10.3334C9.99935 10.5175 9.85011 10.6667 9.66602 10.6667H4.99935ZM4.99935 12.0001C4.81525 12.0001 4.66602 11.8508 4.66602 11.6667C4.66602 11.4827 4.81525 11.3334 4.99935 11.3334H8.33268C8.51678 11.3334 8.66602 11.4827 8.66602 11.6667C8.66602 11.8508 8.51678 12.0001 8.33268 12.0001H4.99935Z" fill="#292929" stroke="#292929" stroke-width="0.2"/>
</g>
</svg>
