<svg viewBox="-15 -15 130 130" xmlns="http://www.w3.org/2000/svg"><path fill="currentColor" d="m58.988 25.051c0-1.104-.896-2-2-2h-13.975c-1.104 0-2 .896-2 2s.896 2 2 2h13.976c1.104 0 1.999-.896 1.999-2z"></path><path fill="currentColor" d="m11.113 86.063h13.976c1.104 0 2-.896 2-2s-.896-2-2-2h-13.976c-1.104 0-2 .896-2 2s.896 2 2 2z"></path><path fill="currentColor" d="m98 63.683h-14.102v-11.259c0-1.104-.896-2-2-2h-29.898v-14.109h14.102c1.104 0 2-.896 2-2v-18.531-9.113c0-1.104-.896-2-2-2h-32.203c-1.104 0-2 .896-2 2v9.113 18.531c0 1.104.896 2 2 2h14.101v14.108h-29.899c-1.104 0-2 .896-2 2v11.259h-14.101c-1.104 0-2 .896-2 2v9.116 18.53c0 1.104.896 2 2 2h32.203c1.104 0 2-.896 2-2v-18.53-9.116c0-1.104-.896-2-2-2h-14.102v-9.259h29.899 29.898v9.259h-14.1c-1.104 0-2 .896-2 2v9.116 18.53c0 1.104.896 2 2 2h32.202c1.104 0 2-.896 2-2v-18.53-9.116c0-1.104-.896-1.999-2-1.999zm-62.101-55.012h28.202v5.113h-28.202zm0 9.113h28.202v14.531h-28.202zm-3.696 73.545h-28.203v-14.53h28.203zm0-18.53h-28.203v-5.116h28.203zm35.596-5.116h28.201v5.116h-28.201zm28.201 23.646h-28.201v-14.53h28.201z"></path><path fill="currentColor" d="m74.912 86.063h13.975c1.104 0 2-.896 2-2s-.896-2-2-2h-13.975c-1.104 0-2 .896-2 2s.896 2 2 2z"></path></svg>