<svg  viewBox="0 0 12 16" fill="none" xmlns="http://www.w3.org/2000/svg">
<path d="M8.33366 8.00008H9.33366V2.33341C9.33366 1.78113 8.88594 1.33341 8.33366 1.33341H2.33366C1.78137 1.33341 1.33366 1.78113 1.33366 2.33341V8.00008H2.33366V7.755C2.33366 7.16956 2.64082 6.62705 3.14283 6.32585L3.78948 5.93786C3.5047 5.5923 3.33366 5.1495 3.33366 4.66675C3.33366 3.56218 4.22909 2.66675 5.33366 2.66675C6.43823 2.66675 7.33366 3.56218 7.33366 4.66675C7.33366 5.1495 7.16262 5.5923 6.87784 5.93786L7.52449 6.32585C8.02649 6.62705 8.33366 7.16956 8.33366 7.755V8.00008ZM7.66699 8.00008V7.755C7.66699 7.40374 7.48269 7.07823 7.18149 6.89751L6.34244 6.39408C6.04629 6.5674 5.70157 6.66675 5.33366 6.66675C4.96574 6.66675 4.62103 6.5674 4.32488 6.39408L3.48583 6.89751C3.18462 7.07823 3.00033 7.40374 3.00033 7.755V8.00008H7.66699ZM9.33366 8.66675H1.33366V12.3334C1.33366 12.8857 1.78137 13.3334 2.33366 13.3334H8.33366C8.88594 13.3334 9.33366 12.8857 9.33366 12.3334V8.66675ZM9.9724 2.028C10.747 2.17146 11.3337 2.85059 11.3337 3.66675V13.6667C11.3337 14.5872 10.5875 15.3334 9.66699 15.3334H3.66699C2.85084 15.3334 2.1717 14.7468 2.02825 13.9722C1.25363 13.8287 0.666992 13.1496 0.666992 12.3334V2.33341C0.666992 1.41294 1.41318 0.666748 2.33366 0.666748H8.33366C9.14981 0.666748 9.82895 1.25339 9.9724 2.028ZM2.72389 14.0001C2.86117 14.3885 3.23159 14.6667 3.66699 14.6667H9.66699C10.2193 14.6667 10.667 14.219 10.667 13.6667V3.66675C10.667 3.23134 10.3887 2.86093 10.0003 2.72365V12.3334C10.0003 13.2539 9.25413 14.0001 8.33366 14.0001H2.72389ZM5.33366 6.00008C6.07004 6.00008 6.66699 5.40313 6.66699 4.66675C6.66699 3.93037 6.07004 3.33341 5.33366 3.33341C4.59728 3.33341 4.00033 3.93037 4.00033 4.66675C4.00033 5.40313 4.59728 6.00008 5.33366 6.00008ZM3.00033 10.6667C2.81623 10.6667 2.66699 10.5175 2.66699 10.3334C2.66699 10.1493 2.81623 10.0001 3.00033 10.0001H7.66699C7.85109 10.0001 8.00033 10.1493 8.00033 10.3334C8.00033 10.5175 7.85109 10.6667 7.66699 10.6667H3.00033ZM3.00033 12.0001C2.81623 12.0001 2.66699 11.8508 2.66699 11.6667C2.66699 11.4827 2.81623 11.3334 3.00033 11.3334H6.33366C6.51775 11.3334 6.66699 11.4827 6.66699 11.6667C6.66699 11.8508 6.51775 12.0001 6.33366 12.0001H3.00033Z" fill="#292929" stroke="#292929" stroke-width="0.2"/>
</svg>
