<svg viewBox="0 0 20 20" fill="none" xmlns="http://www.w3.org/2000/svg">
<path d="M13.3337 4.17178C13.6651 4.17178 13.9337 3.90315 13.9337 3.57178C13.9337 3.24041 13.6651 2.97178 13.3337 2.97178V4.17178ZM9.51472 13.9242C9.70939 14.1924 10.0846 14.2519 10.3528 14.0573C10.6209 13.8626 10.6805 13.4874 10.4858 13.2192L9.51472 13.9242ZM6.66686 2.97178C6.33549 2.97178 6.06686 3.24041 6.06686 3.57178C6.06686 3.90315 6.33549 4.17178 6.66686 4.17178V2.97178ZM5.81904 6.79071L5.46656 6.30516L4.49547 7.01012L4.84795 7.49567L5.81904 6.79071ZM13.3337 3.57178V2.97178H6.66686V3.57178V4.17178H13.3337V3.57178ZM5.3335 7.14319L4.84795 7.49567L9.51472 13.9242L10.0003 13.5717L10.4858 13.2192L5.81904 6.79071L5.3335 7.14319Z" fill="#535862"/>
<rect x="13.933" y="0.6" width="5.46682" height="5.94282" rx="0.9" stroke="#535862" stroke-width="1.2" stroke-linejoin="round"/>
<rect x="0.6" y="0.6" width="5.46682" height="5.94282" rx="0.9" stroke="#535862" stroke-width="1.2" stroke-linejoin="round"/>
<rect x="9.9335" y="13.4574" width="5.46682" height="5.94282" rx="0.9" stroke="#535862" stroke-width="1.2" stroke-linejoin="round"/>
</svg>
