<svg viewBox="0 0 16 16" fill="none" xmlns="http://www.w3.org/2000/svg">
<path d="M12.7783 3.23349C12.7755 3.22549 12.7735 3.21799 12.77 3.21024C12.7578 3.18374 12.7425 3.15849 12.721 3.13699L10.1573 0.573244C10.1358 0.551744 10.1108 0.536494 10.0843 0.524494C10.0765 0.520744 10.0685 0.518744 10.0603 0.515994C10.0398 0.508994 10.0188 0.504994 9.99703 0.503494C9.99128 0.502994 9.98628 0.500244 9.98053 0.500244H1.98828C1.85003 0.500244 1.73828 0.612244 1.73828 0.750244V13.782C1.73828 13.92 1.85003 14.032 1.98828 14.032H6.69203C6.83028 14.032 6.94203 13.92 6.94203 13.782C6.94203 13.644 6.83028 13.532 6.69203 13.532H2.23828V0.999994H9.73053V3.31374C9.73053 3.45174 9.84228 3.56374 9.98053 3.56374H12.2943V7.88899C12.2943 8.02699 12.406 8.13899 12.5443 8.13899C12.6825 8.13899 12.7943 8.02699 12.7943 7.88899V3.31374C12.7943 3.30849 12.7915 3.30374 12.7913 3.29849C12.7898 3.27624 12.7855 3.25449 12.7783 3.23349ZM10.2305 3.06374V1.35349L11.9408 3.06374H10.2305Z" fill="currentColor"/>
<path d="M4.02051 5.06921H10.5115C10.6498 5.06921 10.7615 4.95721 10.7615 4.81921C10.7615 4.68121 10.6498 4.56921 10.5115 4.56921H4.02051C3.88226 4.56921 3.77051 4.68121 3.77051 4.81921C3.77051 4.95721 3.88226 5.06921 4.02051 5.06921Z" fill="currentColor"/>
<path d="M4.02051 7H10.5115C10.6498 7 10.7615 6.888 10.7615 6.75C10.7615 6.612 10.6498 6.5 10.5115 6.5H4.02051C3.88226 6.5 3.77051 6.612 3.77051 6.75C3.77051 6.888 3.88226 7 4.02051 7Z" fill="currentColor"/>
<path d="M4.02051 8.93079H7.97351C8.11176 8.93079 8.22351 8.81879 8.22351 8.68079C8.22351 8.54279 8.11176 8.43079 7.97351 8.43079H4.02051C3.88226 8.43079 3.77051 8.54279 3.77051 8.68079C3.77051 8.81879 3.88226 8.93079 4.02051 8.93079Z" fill="currentColor"/>
<path d="M4.02051 10.8612H6.69176C6.83001 10.8612 6.94176 10.7492 6.94176 10.6112C6.94176 10.4732 6.83001 10.3612 6.69176 10.3612H4.02051C3.88226 10.3612 3.77051 10.4732 3.77051 10.6112C3.77051 10.7492 3.88226 10.8612 4.02051 10.8612Z" fill="currentColor"/>
<path d="M10.7271 8.43079C8.77813 8.43079 7.19238 10.0165 7.19238 11.9655C7.19238 13.9145 8.77813 15.5003 10.7271 15.5003C12.6761 15.5003 14.2619 13.9145 14.2619 11.9655C14.2619 10.0165 12.6761 8.43079 10.7271 8.43079ZM10.7271 15C9.05388 15 7.69238 13.6388 7.69238 11.9653C7.69238 10.2918 9.05363 8.93054 10.7271 8.93054C12.4006 8.93054 13.7619 10.2918 13.7619 11.9653C13.7619 13.6388 12.4006 15 10.7271 15Z" fill="currentColor"/>
<path d="M12.155 12.4815L10.9775 11.8192V9.85596C10.9775 9.71796 10.8658 9.60596 10.7275 9.60596C10.5893 9.60596 10.4775 9.71796 10.4775 9.85596V11.9655C10.4775 12.0557 10.5263 12.139 10.605 12.1835L11.91 12.9175C11.9488 12.9392 11.9908 12.9495 12.0323 12.9495C12.1198 12.9495 12.2045 12.9035 12.2503 12.822C12.318 12.7017 12.2755 12.5492 12.155 12.4815Z" fill="currentColor"/>
</svg>
