<svg viewBox="0 0 16 16" fill="none" xmlns="http://www.w3.org/2000/svg">
<path d="M5.71436 15.9286C6.30604 15.9286 6.78557 15.449 6.78564 14.8573V11.4286C6.78564 10.8369 6.30609 10.3573 5.71436 10.3573H4.50049V8.1366C4.85847 8.37127 5.27986 8.4998 5.71436 8.49988H9.71436C10.1877 8.49999 10.6423 8.68861 10.9771 9.02332C11.3118 9.35816 11.5005 9.81254 11.5005 10.286V10.3573H10.2856C9.69398 10.3574 9.21436 10.8369 9.21436 11.4286V14.8573C9.21443 15.4489 9.69403 15.9285 10.2856 15.9286H13.7144C14.306 15.9286 14.7856 15.449 14.7856 14.8573V11.4286C14.7856 10.8368 14.306 10.3573 13.7144 10.3573H12.5005V10.286C12.5005 9.54751 12.2071 8.83865 11.6851 8.31628C11.1627 7.79395 10.453 7.49999 9.71436 7.49988H5.71436C5.3926 7.49977 5.08355 7.37185 4.85596 7.14441C4.62839 6.91677 4.50056 6.60789 4.50049 6.28601V5.64246H5.71436C6.30604 5.64246 6.78557 5.16283 6.78564 4.57117V1.14246C6.78542 0.550989 6.30597 0.071167 5.71436 0.071167H2.28564C1.69409 0.0712424 1.21458 0.551036 1.21436 1.14246V4.57117C1.21443 5.16279 1.69402 5.64238 2.28564 5.64246H3.50049V10.3573H2.28564C1.69398 10.3574 1.21436 10.8369 1.21436 11.4286V14.8573C1.21443 15.4489 1.69403 15.9285 2.28564 15.9286H5.71436ZM2.28564 4.64246C2.24631 4.64238 2.21443 4.6105 2.21436 4.57117V1.14246C2.21458 1.10327 2.24643 1.07124 2.28564 1.07117H5.71436C5.75364 1.07117 5.78542 1.10322 5.78564 1.14246V4.57117C5.78557 4.61055 5.75376 4.64246 5.71436 4.64246H2.28564ZM2.28564 14.9286C2.24631 14.9285 2.21443 14.8966 2.21436 14.8573V11.4286C2.21436 11.3892 2.24626 11.3574 2.28564 11.3573H5.71436C5.7538 11.3573 5.78564 11.3891 5.78564 11.4286V14.8573C5.78557 14.8967 5.75376 14.9286 5.71436 14.9286H2.28564ZM10.2856 14.9286C10.2463 14.9285 10.2144 14.8966 10.2144 14.8573V11.4286C10.2144 11.3892 10.2463 11.3574 10.2856 11.3573H13.7144C13.7538 11.3573 13.7856 11.3892 13.7856 11.4286V14.8573C13.7856 14.8967 13.7537 14.9286 13.7144 14.9286H10.2856Z" fill="#535862"/>
</svg>
