
<svg viewBox="0 0 40 40" fill="none" xmlns="http://www.w3.org/2000/svg">
<path fill-rule="evenodd" clip-rule="evenodd" d="M7.1 5.9C6.78174 5.9 6.47652 6.02643 6.25147 6.25147C6.02643 6.47652 5.9 6.78174 5.9 7.1V32.9C5.9 33.2183 6.02643 33.5235 6.25147 33.7485C6.47652 33.9736 6.78174 34.1 7.1 34.1H32.9C33.2183 34.1 33.5235 33.9736 33.7485 33.7485C33.9736 33.5235 34.1 33.2183 34.1 32.9V7.1C34.1 6.78174 33.9736 6.47652 33.7485 6.25147C33.5235 6.02643 33.2183 5.9 32.9 5.9H7.1ZM5.61508 5.61508C6.0089 5.22125 6.54305 5 7.1 5H32.9C33.457 5 33.9911 5.22125 34.3849 5.61508C34.7788 6.0089 35 6.54304 35 7.1V32.9C35 33.457 34.7788 33.9911 34.3849 34.3849C33.9911 34.7788 33.457 35 32.9 35H7.1C6.54304 35 6.0089 34.7788 5.61508 34.3849C5.22125 33.9911 5 33.457 5 32.9V7.1C5 6.54305 5.22125 6.0089 5.61508 5.61508Z" fill="#292929"/>
<path d="M30.6308 22.4H23.1692C22.91 22.4 22.7 22.5986 22.7 22.8434V22.8566C22.7 23.1014 22.91 23.3 23.1692 23.3H30.6308C30.89 23.3 31.1 23.1014 31.1 22.8566V22.8434C31.1 22.5986 30.89 22.4 30.6308 22.4ZM30.7481 16.4H25.1519C24.9575 16.4 24.8 16.5986 24.8 16.8434V16.8566C24.8 17.1014 24.9575 17.3 25.1519 17.3H30.7481C30.9425 17.3 31.1 17.1014 31.1 16.8566V16.8434C31.1 16.5986 30.9425 16.4 30.7481 16.4ZM30.6812 28.4H24.0188C23.7878 28.4 23.6 28.5986 23.6 28.8434V28.8566C23.6 29.1014 23.7875 29.3 24.0188 29.3H30.6812C30.9122 29.3 31.1 29.1014 31.1 28.8566V28.8434C31.1 28.5986 30.9125 28.4 30.6812 28.4ZM30.6476 19.4H23.4524C23.2025 19.4 23 19.5986 23 19.8434V19.8566C23 20.1014 23.2025 20.3 23.4524 20.3H30.6476C30.8975 20.3 31.1 20.1014 31.1 19.8566V19.8434C31.1 19.5986 30.8975 19.4 30.6476 19.4ZM30.5639 25.4H22.0361C21.74 25.4 21.5 25.5986 21.5 25.8434V25.8566C21.5 26.1014 21.74 26.3 22.0361 26.3H30.5639C30.86 26.3 31.1 26.1014 31.1 25.8566V25.8434C31.1 25.5986 30.86 25.4 30.5639 25.4ZM10.1711 9.5867L8.09363 9.5831C8.04288 9.58302 7.99265 9.57295 7.9458 9.55346C7.89895 9.53397 7.8564 9.50544 7.82057 9.46951C7.78475 9.43357 7.75635 9.39093 7.73701 9.34402C7.71766 9.29711 7.70775 9.24685 7.70783 9.1961V9.1625C7.7079 9.11176 7.71798 9.06153 7.73747 9.01468C7.75696 8.96783 7.78549 8.92528 7.82142 8.88945C7.85736 8.85363 7.9 8.82523 7.94691 8.80589C7.99382 8.78654 8.04408 8.77662 8.09483 8.7767L10.1723 8.7803C10.2231 8.78034 10.2734 8.79039 10.3202 8.80986C10.3671 8.82933 10.4097 8.85786 10.4456 8.8938C10.4814 8.92974 10.5098 8.97239 10.5292 9.01932C10.5486 9.06625 10.5585 9.11654 10.5584 9.1673V9.2009C10.5583 9.25167 10.5483 9.30193 10.5288 9.3488C10.5092 9.39567 10.4807 9.43823 10.4447 9.47406C10.4088 9.50989 10.3661 9.53828 10.3191 9.55761C10.2722 9.57693 10.2219 9.58682 10.1711 9.5867ZM13.7711 9.5867L11.6936 9.5831C11.6429 9.58302 11.5927 9.57295 11.5458 9.55346C11.499 9.53397 11.4564 9.50544 11.4206 9.46951C11.3848 9.43357 11.3564 9.39093 11.337 9.34402C11.3177 9.29711 11.3077 9.24685 11.3078 9.1961V9.1625C11.3079 9.11176 11.318 9.06153 11.3375 9.01468C11.357 8.96783 11.3855 8.92528 11.4214 8.88945C11.4574 8.85363 11.5 8.82523 11.5469 8.80589C11.5938 8.78654 11.6441 8.77662 11.6948 8.7767L13.7723 8.7803C13.8231 8.78034 13.8734 8.79039 13.9202 8.80986C13.9671 8.82933 14.0097 8.85786 14.0456 8.8938C14.0814 8.92974 14.1098 8.97239 14.1292 9.01932C14.1486 9.06625 14.1585 9.11654 14.1584 9.1673V9.2009C14.1583 9.25167 14.1483 9.30193 14.1288 9.3488C14.1092 9.39567 14.0807 9.43823 14.0447 9.47406C14.0088 9.50989 13.9661 9.53828 13.9191 9.55761C13.8722 9.57693 13.8219 9.58682 13.7711 9.5867ZM17.4596 9.5867L15.3833 9.5831C15.3326 9.58302 15.2824 9.57295 15.2355 9.55346C15.1887 9.53397 15.1461 9.50544 15.1103 9.46951C15.0745 9.43357 15.0461 9.39093 15.0267 9.34402C15.0074 9.29711 14.9974 9.24685 14.9975 9.1961V9.1625C14.9976 9.11176 15.0077 9.06153 15.0272 9.01468C15.0467 8.96783 15.0752 8.92528 15.1111 8.88945C15.1471 8.85363 15.1897 8.82523 15.2366 8.80589C15.2835 8.78654 15.3338 8.77662 15.3845 8.7767L17.4608 8.7803C17.5116 8.78038 17.5618 8.79045 17.6086 8.80995C17.6555 8.82944 17.6981 8.85797 17.7339 8.8939C17.7697 8.92984 17.7981 8.97248 17.8174 9.01939C17.8368 9.0663 17.8467 9.11656 17.8466 9.1673V9.2009C17.8465 9.25165 17.8365 9.30188 17.817 9.34873C17.7975 9.39558 17.769 9.43813 17.733 9.47395C17.6971 9.50978 17.6545 9.53817 17.6075 9.55752C17.5606 9.57687 17.5104 9.58678 17.4596 9.5867ZM31.472 9.5867L22.7864 9.5831C22.7357 9.58302 22.6855 9.57295 22.6386 9.55346C22.5918 9.53397 22.5492 9.50544 22.5134 9.46951C22.4776 9.43357 22.4492 9.39093 22.4298 9.34402C22.4105 9.29711 22.4005 9.24685 22.4006 9.1961V9.1625C22.4007 9.11176 22.4108 9.06153 22.4303 9.01468C22.4498 8.96783 22.4783 8.92528 22.5142 8.88945C22.5502 8.85363 22.5928 8.82523 22.6397 8.80589C22.6866 8.78654 22.7369 8.77662 22.7876 8.7767L31.4732 8.7803C31.524 8.78038 31.5742 8.79045 31.621 8.80995C31.6679 8.82944 31.7105 8.85797 31.7463 8.8939C31.7821 8.92984 31.8105 8.97248 31.8298 9.01939C31.8492 9.0663 31.8591 9.11656 31.859 9.1673V9.2009C31.8589 9.25165 31.8489 9.30188 31.8294 9.34873C31.8099 9.39558 31.7814 9.43813 31.7454 9.47395C31.7095 9.50978 31.6668 9.53817 31.6199 9.55752C31.573 9.57687 31.5228 9.58678 31.472 9.5867ZM14.978 14.9H15.3893C16.4363 14.9441 17.4311 15.1865 18.3749 15.6278C18.6095 15.7373 18.6914 15.9461 18.5189 16.1696C18.5099 16.1816 18.5126 16.1894 18.527 16.1936C19.664 16.4951 20.5433 17.1404 21.1658 18.1292C21.2657 18.2873 21.2135 18.4412 21.0908 18.5753C20.6495 19.0568 20.5271 19.5443 20.5202 20.2103C20.5134 20.8495 20.5125 21.4887 20.5175 22.1279C20.5187 22.2647 20.5025 22.3568 20.4041 22.442C20.2472 22.5782 19.9916 22.5212 19.9121 22.3283C19.889 22.2719 19.8773 22.1741 19.8773 22.0352C19.8773 21.4793 19.8779 20.9237 19.8791 20.3678C19.8803 20.0081 19.8911 19.7588 19.9112 19.6193C19.9796 19.1392 20.1762 18.6864 20.4803 18.3086C20.4869 18.3003 20.4905 18.2901 20.4907 18.2796C20.4909 18.269 20.4877 18.2587 20.4815 18.2501C19.9031 17.4623 19.1375 16.97 18.1844 16.7741C17.9324 16.7222 17.6204 16.6982 17.3393 16.6652C17.1158 16.6388 16.9382 16.4822 17.018 16.2404C17.0765 16.0628 17.2715 16.0154 17.4251 15.953C17.4272 15.9522 17.429 15.9507 17.4302 15.9488C17.4313 15.947 17.4318 15.9448 17.4317 15.9427C17.4316 15.9406 17.4309 15.9385 17.4296 15.9368C17.4284 15.9349 17.4266 15.9334 17.4245 15.9326C14.9315 15.0725 12.0272 15.5465 10.9544 18.2498C10.4774 19.451 10.5533 20.7599 10.5602 22.0232C10.562 22.3499 10.6013 22.5992 10.8824 22.7558C10.9154 22.7744 10.9304 22.7648 10.928 22.727C10.907 22.4072 10.9247 22.0196 10.9247 21.7847C10.9247 21.2897 10.8722 20.6876 10.9763 20.2262C11.1653 19.3898 11.8241 18.7178 12.6662 18.5279C12.827 18.4916 13.0754 18.473 13.412 18.4727C14.6015 18.4712 15.791 18.4712 16.9805 18.4727C17.3177 18.4727 17.5655 18.4904 17.7233 18.5252C18.5777 18.7115 19.2413 19.3982 19.4252 20.24C19.4585 20.3939 19.4753 20.6102 19.4753 20.8889L19.4744 23.204C19.4744 23.516 19.46 23.7653 19.4312 23.9513C19.0421 26.4827 16.496 28.1309 14.0225 27.4172C14.0186 27.4161 14.0144 27.4159 14.0104 27.4165C14.0063 27.4172 14.0025 27.4188 13.9991 27.4211C13.9958 27.4234 13.993 27.4265 13.9909 27.43C13.9888 27.4335 13.9875 27.4374 13.9871 27.4415C13.9699 27.6482 13.9185 27.8507 13.835 28.0406C13.832 28.0477 13.8316 28.0557 13.8338 28.0631C13.8361 28.0705 13.8409 28.0769 13.8473 28.0811C14.3975 28.4327 14.9888 28.5578 15.6209 28.4561C15.7229 28.4396 15.7928 28.4342 15.8303 28.4393C16.1162 28.4795 16.1987 28.8596 15.9569 29.015C15.9107 29.0444 15.839 29.0675 15.7409 29.0837C14.9315 29.2181 14.1803 29.06 13.4879 28.6094C13.4831 28.6063 13.4774 28.605 13.4717 28.6056C13.4661 28.6062 13.4608 28.6087 13.4567 28.6127C13.1531 28.9202 12.7937 29.114 12.3794 29.1941C12.3194 29.2058 12.1682 29.2178 11.9264 29.2301C10.4624 29.306 9.36203 30.4571 9.36023 31.925C9.35933 32.5121 9.35903 33.0989 9.35933 33.6857C9.35933 33.9113 9.30203 34.052 9.07553 34.1H9.00233C8.77673 34.0484 8.72303 33.9104 8.72243 33.6842C8.72123 33.1577 8.72153 32.6312 8.72243 32.1053C8.72303 31.7783 8.73743 31.5293 8.76623 31.3583C9.03203 29.7491 10.3583 28.6445 11.9843 28.5902C12.7589 28.5641 13.4003 28.007 13.3568 27.1817C13.3568 27.1759 13.3551 27.1702 13.3519 27.1654C13.3487 27.1605 13.3442 27.1567 13.3388 27.1544C11.9087 26.4563 11.0147 25.0793 10.9262 23.4872C10.9259 23.4816 10.9239 23.4762 10.9205 23.4718C10.917 23.4673 10.9124 23.464 10.907 23.4623C10.2107 23.2454 9.91913 22.7414 9.92063 22.0445C9.92273 21.3329 9.88763 20.5859 9.94043 19.8881C10.1576 17.0072 12.02 15.0041 14.978 14.9ZM17.2112 19.106H13.1897C12.9753 19.106 12.7629 19.1482 12.5647 19.2303C12.3666 19.3124 12.1865 19.4327 12.0349 19.5844C11.8832 19.736 11.7629 19.9161 11.6808 20.1142C11.5988 20.3124 11.5565 20.5247 11.5565 20.7392V23.264C11.5565 24.2405 11.9405 25.1768 12.6239 25.8674C12.9607 26.2085 13.3618 26.4794 13.804 26.6645C14.2462 26.8496 14.7207 26.9451 15.2 26.9456C16.1666 26.9456 17.0933 26.5577 17.7767 25.8674C18.4613 25.1739 18.8447 24.2384 18.8438 23.264V20.7392C18.8438 20.3061 18.6718 19.8907 18.3656 19.5845C18.0594 19.2782 17.6443 19.1061 17.2112 19.106Z" fill="#292929"/>
<path d="M21.3938 34.1H21.3293C21.0932 34.0535 21.0407 33.9041 21.0407 33.6728C21.0407 33.0902 21.0407 32.5076 21.0398 31.925C21.0383 30.4406 19.9334 29.309 18.4478 29.2283L18.1967 29.2145C17.5982 29.1554 17.1167 28.8761 16.7522 28.3763C16.4255 27.9281 16.9796 27.569 17.2373 27.9575C17.4422 28.2665 17.72 28.4636 18.0707 28.5485C18.1415 28.5656 18.2912 28.58 18.5201 28.5911C20.0897 28.6691 21.3881 29.8166 21.635 31.367C21.662 31.5374 21.6764 31.787 21.6773 32.1146C21.6785 32.6267 21.6788 33.1385 21.6782 33.6506C21.6776 33.8906 21.6407 34.0457 21.3938 34.1ZM18.4478 32.462L17.4689 32.4605C17.3883 32.4604 17.3109 32.4924 17.2538 32.5493C17.1967 32.6062 17.1646 32.6835 17.1644 32.7641V32.7902C17.1642 32.8708 17.1961 32.9482 17.253 33.0054C17.3098 33.0625 17.3871 33.0948 17.4677 33.095L18.4466 33.0965C18.6146 33.0968 18.7508 32.9609 18.7511 32.7929V32.7668C18.7517 32.5988 18.6155 32.4623 18.4478 32.462Z" fill="#292929"/>
</svg>
