<svg viewBox="0 0 31 31" fill="none" xmlns="http://www.w3.org/2000/svg">
<path d="M24.2344 11.3928C24.2344 13.2053 23.6969 14.8678 22.7719 16.2553C22.0941 17.2663 21.2124 18.1243 20.1835 18.7744C19.1545 19.4245 18.001 19.8523 16.7969 20.0303C16.3719 20.1053 15.9344 20.1428 15.4844 20.1428C15.0344 20.1428 14.5969 20.1053 14.1719 20.0303C12.9679 19.8523 11.8144 19.4245 10.7854 18.7744C9.75643 18.1243 8.87474 17.2663 8.19693 16.2553C7.23732 14.8157 6.72818 13.1229 6.73443 11.3928C6.73443 6.55532 10.6469 2.64282 15.4844 2.64282C20.3219 2.64282 24.2344 6.55532 24.2344 11.3928Z" stroke="currentColor" stroke-opacity="0.4" stroke-width="1.5" stroke-linecap="round" stroke-linejoin="round"/>
<path d="M27.0465 23.2278L24.984 23.7153C24.5215 23.8278 24.159 24.1778 24.059 24.6403L23.6215 26.4778C23.5678 26.7034 23.4525 26.9096 23.2883 27.0733C23.1242 27.2371 22.9178 27.352 22.6921 27.4052C22.4664 27.4583 22.2304 27.4477 22.0104 27.3745C21.7905 27.3012 21.5952 27.1682 21.4465 26.9903L15.484 20.1403L9.52146 27.0028C9.37274 27.1807 9.17747 27.3137 8.9575 27.3869C8.73752 27.4602 8.50151 27.4709 8.27583 27.4177C8.05016 27.3645 7.84372 27.2496 7.6796 27.0858C7.51547 26.9221 7.40013 26.7159 7.34646 26.4903L6.90896 24.6528C6.85579 24.428 6.7411 24.2224 6.57774 24.059C6.41438 23.8957 6.20879 23.781 5.98396 23.7278L3.92146 23.2403C3.70537 23.1885 3.50693 23.0802 3.34646 22.9265C3.18598 22.7728 3.06925 22.5792 3.0082 22.3655C2.94715 22.1519 2.94399 21.9258 2.99904 21.7105C3.05408 21.4953 3.16535 21.2985 3.32146 21.1403L8.19646 16.2653C8.87433 17.2762 9.75603 18.1342 10.785 18.7843C11.8139 19.4344 12.9674 19.8622 14.1715 20.0403C14.5965 20.1153 15.034 20.1528 15.484 20.1528C15.934 20.1528 16.3715 20.1153 16.7965 20.0403C19.284 19.6778 21.4215 18.2653 22.7715 16.2653L27.6465 21.1403C28.334 21.8153 27.9965 23.0028 27.0465 23.2278ZM16.209 7.61782L16.9465 9.09282C17.0465 9.29282 17.309 9.49282 17.5465 9.53032L18.884 9.75532C19.734 9.89282 19.934 10.5178 19.3215 11.1303L18.284 12.1678C18.109 12.3428 18.009 12.6803 18.0715 12.9303L18.3715 14.2178C18.609 15.2303 18.0715 15.6303 17.1715 15.0928L15.9215 14.3553C15.7945 14.2876 15.6528 14.2522 15.509 14.2522C15.3651 14.2522 15.2234 14.2876 15.0965 14.3553L13.8465 15.0928C12.9465 15.6178 12.409 15.2303 12.6465 14.2178L12.9465 12.9303C12.9965 12.6928 12.909 12.3428 12.734 12.1678L11.6965 11.1303C11.084 10.5178 11.284 9.90532 12.134 9.75532L13.4715 9.53032C13.6965 9.49282 13.959 9.29282 14.059 9.09282L14.7965 7.61782C15.159 6.81782 15.809 6.81782 16.209 7.61782Z" stroke="currentColor" stroke-width="1.5" stroke-linecap="round" stroke-linejoin="round"/>
</svg>
