<svg xmlns="http://www.w3.org/2000/svg" width="16" height="16" fill="none"><g fill="#76746F" clip-path="url(#a)"><path d="m9.81 6.514-2.404 2.27-1.154-1.187a.332.332 0 1 0-.477.464L7.16 9.48c.128.13.336.134.47.01l2.644-2.494a.332.332 0 0 0 .014-.47.34.34 0 0 0-.477-.013Z"/><path d="M8.026 3.02A4.986 4.986 0 0 0 3.044 8a4.986 4.986 0 0 0 4.982 4.982 4.986 4.986 0 0 0 4.982-4.981 4.986 4.986 0 0 0-4.982-4.982Zm0 9.296A4.32 4.32 0 0 1 3.71 8a4.315 4.315 0 1 1 4.315 4.315Z"/><path d="m14.881 6.167.11-1.977a.333.333 0 0 0-.183-.317l-1.76-.89-.89-1.761a.338.338 0 0 0-.318-.183l-1.98.106L8.21.055a.333.333 0 0 0-.368 0l-1.65 1.09-1.977-.11a.332.332 0 0 0-.317.184l-.89 1.76-1.76.89a.338.338 0 0 0-.184.317l.11 1.978-1.09 1.65a.333.333 0 0 0 0 .367L1.17 9.835l-.11 1.977a.332.332 0 0 0 .184.317l1.76.89.89 1.76c.061.119.185.19.317.184l1.978-.11 1.65 1.09c.11.076.256.076.367 0l1.65-1.09 1.978.11a.333.333 0 0 0 .316-.183l.89-1.76 1.761-.891a.338.338 0 0 0 .184-.317l-.11-1.977 1.09-1.65a.333.333 0 0 0 0-.368l-1.084-1.65Zm-.62 3.394a.313.313 0 0 0-.053.204l.103 1.87-1.664.84a.33.33 0 0 0-.146.147l-.84 1.664-1.871-.103a.363.363 0 0 0-.204.053l-1.56 1.03-1.56-1.03a.33.33 0 0 0-.184-.056h-.017l-1.87.103-.84-1.664a.328.328 0 0 0-.147-.147l-1.668-.837.104-1.87a.364.364 0 0 0-.054-.204L.76 8.001l1.03-1.56c.041-.06.06-.132.054-.204l-.104-1.87 1.664-.84a.329.329 0 0 0 .147-.148l.84-1.663 1.87.103a.366.366 0 0 0 .204-.053l1.56-1.03 1.561 1.03c.06.04.132.06.204.053l1.87-.103.84 1.663a.329.329 0 0 0 .147.147l1.664.84-.103 1.871a.366.366 0 0 0 .053.203L15.291 8l-1.03 1.561Z"/></g><defs><clipPath id="a"><path fill="#fff" d="M0 0h16v16H0z"/></clipPath></defs></svg>