<svg viewBox="0 0 40 40" fill="none" xmlns="http://www.w3.org/2000/svg">
<g opacity="0.8">
<path opacity="0.4" d="M31.6664 15C31.6664 17.4166 30.9498 19.6333 29.7164 21.4833C28.8127 22.8312 27.6371 23.9753 26.2651 24.8421C24.8932 25.7089 23.3551 26.2793 21.7498 26.5166C21.1831 26.6166 20.5998 26.6666 19.9998 26.6666C19.3998 26.6666 18.8164 26.6166 18.2498 26.5166C16.6444 26.2793 15.1063 25.7089 13.7344 24.8421C12.3624 23.9753 11.1868 22.8312 10.2831 21.4833C9.0036 19.5638 8.32474 17.3068 8.33308 15C8.33308 8.54998 13.5498 3.33331 19.9998 3.33331C26.4498 3.33331 31.6664 8.54998 31.6664 15Z" stroke="currentColor" stroke-width="1.5" stroke-linecap="round" stroke-linejoin="round"/>
<path d="M35.4171 30.78L32.6671 31.43C32.0504 31.58 31.5671 32.0467 31.4338 32.6634L30.8504 35.1134C30.7789 35.4141 30.6251 35.689 30.4063 35.9074C30.1874 36.1257 29.9122 36.2789 29.6113 36.3498C29.3104 36.4207 28.9957 36.4065 28.7024 36.3089C28.4091 36.2112 28.1487 36.0338 27.9504 35.7967L20.0004 26.6634L12.0504 35.8134C11.8521 36.0505 11.5918 36.2278 11.2985 36.3255C11.0052 36.4232 10.6905 36.4374 10.3896 36.3665C10.0887 36.2956 9.81344 36.1424 9.5946 35.924C9.37577 35.7057 9.22198 35.4308 9.15043 35.13L8.5671 32.68C8.49619 32.3803 8.34328 32.1061 8.12547 31.8883C7.90765 31.6705 7.63353 31.5176 7.33376 31.4467L4.58376 30.7967C4.29564 30.7276 4.03105 30.5832 3.81709 30.3783C3.60312 30.1733 3.44747 29.9152 3.36608 29.6303C3.28468 29.3454 3.28046 29.044 3.35386 28.757C3.42725 28.4699 3.57562 28.2075 3.78376 27.9967L10.2838 21.4967C11.1876 22.8445 12.3632 23.9885 13.7351 24.8553C15.1071 25.7221 16.6451 26.2926 18.2504 26.53C18.8171 26.63 19.4004 26.68 20.0004 26.68C20.6004 26.68 21.1838 26.63 21.7504 26.53C25.0671 26.0467 27.9171 24.1634 29.7171 21.4967L36.2171 27.9967C37.1338 28.8967 36.6838 30.48 35.4171 30.78ZM20.9671 9.96669L21.9504 11.9334C22.0838 12.2 22.4338 12.4667 22.7504 12.5167L24.5338 12.8167C25.6671 13 25.9338 13.8334 25.1171 14.65L23.7338 16.0334C23.5004 16.2667 23.3671 16.7167 23.4504 17.05L23.8504 18.7667C24.1671 20.1167 23.4504 20.65 22.2504 19.9334L20.5838 18.95C20.4145 18.8597 20.2256 18.8125 20.0338 18.8125C19.8419 18.8125 19.653 18.8597 19.4838 18.95L17.8171 19.9334C16.6171 20.6334 15.9004 20.1167 16.2171 18.7667L16.6171 17.05C16.6838 16.7334 16.5671 16.2667 16.3338 16.0334L14.9504 14.65C14.1338 13.8334 14.4004 13.0167 15.5338 12.8167L17.3171 12.5167C17.6171 12.4667 17.9671 12.2 18.1004 11.9334L19.0838 9.96669C19.5671 8.90002 20.4338 8.90002 20.9671 9.96669Z" stroke="currentColor" stroke-width="1.5" stroke-linecap="round" stroke-linejoin="round"/>
</g>
</svg>
