<svg width="41" height="40" viewBox="0 0 41 40" fill="none" xmlns="http://www.w3.org/2000/svg">
<g opacity="0.7">
<path opacity="0.4" d="M32.0835 15.186C32.0835 17.5406 31.3742 19.7003 30.1536 21.5028C29.2591 22.8161 28.0956 23.9308 26.7378 24.7753C25.38 25.6199 23.8578 26.1756 22.2689 26.4069C21.7081 26.5043 21.1307 26.553 20.5369 26.553C19.9431 26.553 19.3657 26.5043 18.8049 26.4069C17.216 26.1756 15.6938 25.6199 14.336 24.7753C12.9782 23.9308 11.8147 22.8161 10.9202 21.5028C9.65392 19.6326 8.98206 17.4336 8.99031 15.186C8.99031 8.90166 14.1533 3.81897 20.5369 3.81897C26.9205 3.81897 32.0835 8.90166 32.0835 15.186Z" stroke="currentColor" stroke-width="1.5" stroke-linecap="round" stroke-linejoin="round"/>
<path d="M35.7955 30.5608L33.0738 31.1941C32.4635 31.3403 31.9852 31.7949 31.8532 32.3958L31.2759 34.7828C31.2051 35.0759 31.0528 35.3437 30.8363 35.5565C30.6197 35.7692 30.3473 35.9185 30.0495 35.9876C29.7517 36.0566 29.4402 36.0428 29.1499 35.9476C28.8597 35.8525 28.602 35.6797 28.4057 35.4486L20.5375 26.5499L12.6694 35.4649C12.4731 35.6959 12.2154 35.8687 11.9252 35.9639C11.6349 36.0591 11.3234 36.0729 11.0256 36.0038C10.7278 35.9347 10.4554 35.7855 10.2388 35.5727C10.0222 35.36 9.87003 35.0921 9.79922 34.7991L9.22189 32.412C9.15171 32.1199 9.00037 31.8529 8.7848 31.6406C8.56923 31.4284 8.29793 31.2794 8.00125 31.2103L5.27955 30.577C4.99439 30.5097 4.73253 30.3691 4.52077 30.1694C4.309 29.9697 4.15496 29.7182 4.0744 29.4406C3.99384 29.1631 3.98967 28.8694 4.06231 28.5897C4.13494 28.31 4.28178 28.0544 4.48779 27.849L10.9209 21.5159C11.8154 22.8291 12.9789 23.9438 14.3367 24.7883C15.6946 25.6328 17.2167 26.1886 18.8056 26.42C19.3664 26.5174 19.9437 26.5661 20.5375 26.5661C21.1314 26.5661 21.7087 26.5174 22.2695 26.42C25.5521 25.949 28.3727 24.1141 30.1542 21.5159L36.5873 27.849C37.4945 28.7258 37.0492 30.2685 35.7955 30.5608ZM21.4943 10.282L22.4675 12.1982C22.5994 12.458 22.9458 12.7178 23.2592 12.7665L25.0242 13.0588C26.1459 13.2374 26.4098 14.0494 25.6015 14.8451L24.2325 16.1929C24.0015 16.4202 23.8696 16.8587 23.952 17.1834L24.3479 18.856C24.6613 20.1713 23.952 20.691 22.7644 19.9927L21.1149 19.0346C20.9474 18.9466 20.7604 18.9006 20.5705 18.9006C20.3807 18.9006 20.1937 18.9466 20.0262 19.0346L18.3767 19.9927C17.189 20.6747 16.4797 20.1713 16.7931 18.856L17.189 17.1834C17.255 16.8749 17.1395 16.4202 16.9086 16.1929L15.5395 14.8451C14.7313 14.0494 14.9952 13.2537 16.1168 13.0588L17.8818 12.7665C18.1787 12.7178 18.5251 12.458 18.6571 12.1982L19.6303 10.282C20.1087 9.24275 20.9664 9.24275 21.4943 10.282Z" stroke="currentColor" stroke-opacity="0.5" stroke-width="1.5" stroke-linecap="round" stroke-linejoin="round"/>
</g>
</svg>
