<svg viewBox="0 0 16 17" fill="none" xmlns="http://www.w3.org/2000/svg">
<path d="M8.00096 3.98877C5.89518 3.98946 4.33449 5.40839 3.91083 7.14161C3.54921 8.62018 3.97127 10.1294 5.03921 11.1791C5.43199 11.565 5.65721 12.1408 5.65721 12.7588V13.3498L6.48615 14.3186H8.00096H9.38746L10.3447 13.3498V12.7602C10.3447 12.1491 10.5809 11.5618 10.9934 11.1489C11.7844 10.356 12.2197 9.30636 12.2197 8.19355C12.2197 5.92471 10.4296 3.98814 8.00096 3.98877Z" fill="#FFDF40"/>
<path d="M10.3438 13.3498V12.7602C10.3438 12.1491 10.58 11.5618 10.9924 11.1489C11.7834 10.356 12.2188 9.30636 12.2188 8.19355C12.2188 5.92471 10.4286 3.98814 8 3.98877V14.3186H9.3865L10.3438 13.3498Z" fill="#FFBE40"/>
<path d="M1.4375 8.66235H0.46875C0.209656 8.66235 0 8.4527 0 8.1936C0 7.93451 0.209656 7.72485 0.46875 7.72485H1.4375C1.69659 7.72485 1.90625 7.93451 1.90625 8.1936C1.90625 8.4527 1.69659 8.66235 1.4375 8.66235Z" fill="#FFDF40"/>
<path d="M15.5312 8.66235H14.5625C14.3034 8.66235 14.0938 8.4527 14.0938 8.1936C14.0938 7.93451 14.3034 7.72485 14.5625 7.72485H15.5312C15.7903 7.72485 16 7.93451 16 8.1936C16 8.4527 15.7903 8.66235 15.5312 8.66235Z" fill="#FFBE40"/>
<path d="M1.09809 12.178C0.96853 11.9536 1.04544 11.6671 1.26975 11.5375L2.08181 11.0688C2.30519 10.9392 2.59222 11.0161 2.72222 11.2405C2.85178 11.4648 2.77487 11.7513 2.55056 11.8809L1.7385 12.3496C1.51669 12.4777 1.22909 12.4041 1.09809 12.178Z" fill="#FFDF40"/>
<path d="M13.2778 5.14665C13.1482 4.92234 13.2251 4.63578 13.4494 4.50625L14.2615 4.0375C14.4844 3.9075 14.7724 3.98484 14.9019 4.20915C15.0314 4.43346 14.9546 4.72003 14.7302 4.84956L13.9182 5.31831C13.6964 5.44643 13.4088 5.37281 13.2778 5.14665Z" fill="#FFBE40"/>
<path d="M11.0471 2.91655C10.8228 2.78699 10.7459 2.50046 10.8754 2.27615L11.3442 1.46408C11.4737 1.23977 11.7603 1.16287 11.9846 1.29243C12.2089 1.42199 12.2858 1.70852 12.1562 1.93283L11.6875 2.7449C11.5567 2.97068 11.2692 3.04487 11.0471 2.91655Z" fill="#FFBE40"/>
<path d="M4.31294 2.7449L3.84419 1.93283C3.71462 1.70852 3.79153 1.42196 4.01584 1.29243C4.23831 1.16287 4.52625 1.23977 4.65625 1.46408L5.125 2.27615C5.25456 2.50046 5.17766 2.78702 4.95334 2.91655C4.73153 3.04468 4.44394 2.97102 4.31294 2.7449Z" fill="#FFDF40"/>
<path d="M14.2615 12.3496L13.4494 11.8809C13.2251 11.7513 13.1482 11.4648 13.2778 11.2405C13.4073 11.0161 13.6943 10.9392 13.9182 11.0688L14.7302 11.5375C14.9546 11.6671 15.0315 11.9536 14.9019 12.178C14.7711 12.4038 14.4836 12.4779 14.2615 12.3496Z" fill="#FFBE40"/>
<path d="M2.08181 5.31831L1.26975 4.84956C1.04544 4.72 0.96853 4.43346 1.09809 4.20915C1.22766 3.98484 1.51466 3.9075 1.7385 4.0375L2.55056 4.50625C2.77487 4.63581 2.85178 4.92234 2.72222 5.14665C2.59131 5.37265 2.30378 5.44653 2.08181 5.31831Z" fill="#FFDF40"/>
<path d="M8 13.3499H5.65625V13.6826C5.65625 15.0733 6.68575 16.1936 8 16.1936C9.29228 16.1936 10.3438 15.1109 10.3438 13.8186V13.3499H8Z" fill="#FFFBE6"/>
<path d="M10.3438 13.8186V13.3499H8V16.1936C9.29228 16.1936 10.3438 15.1109 10.3438 13.8186Z" fill="#FFEDB3"/>
<path d="M8 0.193604C7.74091 0.193604 7.53125 0.40326 7.53125 0.662354V1.6311C7.53125 1.8902 7.74091 2.09985 8 2.09985C8.25909 2.09985 8.46875 1.8902 8.46875 1.6311V0.662354C8.46875 0.40326 8.25909 0.193604 8 0.193604Z" fill="#FFDF40"/>
<path d="M8.46875 1.6311V0.662354C8.46875 0.40326 8.25909 0.193604 8 0.193604V2.09985C8.25909 2.09985 8.46875 1.8902 8.46875 1.6311Z" fill="#FFBE40"/>
<path d="M8 6.3186C7.22456 6.3186 6.59375 6.94942 6.59375 7.72485C6.59375 7.98395 6.80341 8.1936 7.0625 8.1936C7.32159 8.1936 7.53125 7.98395 7.53125 7.72485C7.53125 7.46623 7.74137 7.2561 8 7.2561C8.25863 7.2561 8.46875 7.46623 8.46875 7.72485C8.46875 7.91804 8.35294 8.08923 8.17303 8.16063C8.10934 8.18598 8.05584 8.22548 8 8.26173C7.714 8.44751 7.53125 8.75995 7.53125 9.13107C7.53125 9.39017 7.74091 9.59982 8 9.59982C8.25909 9.59982 8.46875 9.39017 8.46875 9.13107L8.51956 9.03173C9.05834 8.81754 9.40625 8.30438 9.40625 7.72485C9.40625 6.94942 8.77544 6.3186 8 6.3186Z" fill="#804B40"/>
<path d="M8 11.4749C8.25888 11.4749 8.46875 11.265 8.46875 11.0061C8.46875 10.7472 8.25888 10.5374 8 10.5374C7.74112 10.5374 7.53125 10.7472 7.53125 11.0061C7.53125 11.265 7.74112 11.4749 8 11.4749Z" fill="#804B40"/>
<path d="M8.46875 9.1311L8.51956 9.03176C9.05834 8.81754 9.40625 8.30438 9.40625 7.72485C9.40625 6.94942 8.77544 6.3186 8 6.3186V7.2561C8.25863 7.2561 8.46875 7.46623 8.46875 7.72485C8.46875 7.91804 8.35294 8.08923 8.17303 8.16063C8.10934 8.18598 8.05584 8.22548 8 8.26173V9.59985C8.25909 9.59985 8.46875 9.3902 8.46875 9.1311Z" fill="#663733"/>
<path d="M8.46875 11.0061C8.46875 10.7472 8.25888 10.5374 8 10.5374V11.4749C8.25888 11.4749 8.46875 11.265 8.46875 11.0061Z" fill="#663733"/>
</svg>
