<svg viewBox="0 0 14 14" fill="none" xmlns="http://www.w3.org/2000/svg">
<g clip-path="url(#clip0_18531_17737)">
<path d="M7.00043 2.98796C6.72675 2.98796 6.50488 2.76612 6.50488 2.49241V0.495551C6.50488 0.22184 6.72675 0 7.00043 0C7.27412 0 7.49598 0.22184 7.49598 0.495551V2.49244C7.49598 2.76612 7.27412 2.98796 7.00043 2.98796Z" fill="currentColor"/>
<path opacity="0.52" d="M7.00043 14C6.72675 14 6.50488 13.7781 6.50488 13.5044V11.5075C6.50488 11.2338 6.72675 11.012 7.00043 11.012C7.27412 11.012 7.49598 11.2338 7.49598 11.5075V13.5044C7.49598 13.7781 7.27412 14 7.00043 14Z" fill="currentColor"/>
<path opacity="0.58" d="M9.45846 13.5177C9.26306 13.5177 9.07789 13.4014 8.9995 13.2094L8.24489 11.3606C8.14145 11.1072 8.26305 10.8179 8.51641 10.7145C8.76962 10.611 9.05902 10.7327 9.16246 10.986L9.91707 12.8348C10.0205 13.0882 9.89891 13.3775 9.64555 13.4809C9.58424 13.5059 9.52083 13.5177 9.45846 13.5177Z" fill="currentColor"/>
<path opacity="0.94" d="M8.7035 3.32233C8.64113 3.32233 8.57772 3.31052 8.51642 3.28545C8.26302 3.18209 8.14145 2.89279 8.24489 2.63939L8.9995 0.790602C9.10291 0.537207 9.39216 0.415282 9.64555 0.519106C9.89894 0.622465 10.0205 0.911762 9.91707 1.16516L9.16247 3.01395C9.08407 3.20601 8.8989 3.32233 8.7035 3.32233Z" fill="currentColor"/>
<path opacity="0.46" d="M4.54139 13.5178C4.47902 13.5178 4.41561 13.506 4.35431 13.4809C4.10091 13.3775 3.97934 13.0882 4.08278 12.8348L4.83739 10.986C4.94083 10.7326 5.23005 10.611 5.48344 10.7146C5.73684 10.8179 5.85841 11.1072 5.75496 11.3606L5.00036 13.2094C4.92196 13.4014 4.73679 13.5178 4.54139 13.5178Z" fill="currentColor"/>
<path opacity="0.36" d="M0.978274 9.95371C0.782875 9.95371 0.597703 9.83747 0.519309 9.64536C0.415867 9.39196 0.537438 9.10269 0.790805 8.99931L2.63957 8.24467C2.89294 8.14093 3.18221 8.26266 3.28565 8.51614C3.38909 8.76954 3.26752 9.05881 3.01415 9.16219L1.16539 9.91682C1.10408 9.9419 1.04064 9.95371 0.978274 9.95371Z" fill="currentColor"/>
<path opacity="0.82" d="M11.1736 5.79218C10.9782 5.79218 10.793 5.67594 10.7146 5.48382C10.6112 5.23043 10.7327 4.94116 10.9861 4.83777L12.8349 4.08314C13.0882 3.97948 13.3775 4.10113 13.481 4.35463C13.5844 4.60803 13.4628 4.8973 13.2095 5.00069L11.3607 5.75532C11.2994 5.78036 11.236 5.79218 11.1736 5.79218Z" fill="currentColor"/>
<path opacity="0.24" d="M2.82669 5.79222C2.76432 5.79222 2.70091 5.78041 2.63957 5.75533L0.790808 5.0007C0.537414 4.89734 0.415871 4.60805 0.519312 4.35465C0.622726 4.10126 0.911914 3.97971 1.16539 4.08316L3.01416 4.83779C3.26755 4.94115 3.38909 5.23044 3.28565 5.48384C3.20726 5.67587 3.02206 5.79222 2.82669 5.79222Z" fill="currentColor"/>
<path opacity="0.7" d="M13.022 9.95365C12.9596 9.95365 12.8962 9.94184 12.8349 9.91676L10.9861 9.16213C10.7327 9.05877 10.6112 8.76947 10.7146 8.51608C10.8181 8.26287 11.1073 8.14122 11.3607 8.24461L13.2095 8.99924C13.4629 9.1026 13.5844 9.3919 13.481 9.64529C13.4026 9.8373 13.2174 9.95365 13.022 9.95365Z" fill="currentColor"/>
<path opacity="0.88" d="M10.1869 4.30824C10.0601 4.30824 9.93332 4.25984 9.83655 4.16307C9.64304 3.96958 9.64301 3.65581 9.83653 3.46233L11.2485 2.05033C11.442 1.85676 11.7558 1.85676 11.9493 2.05033C12.1428 2.24381 12.1428 2.55758 11.9493 2.75106L10.5373 4.16307C10.4406 4.25984 10.3138 4.30824 10.1869 4.30824Z" fill="currentColor"/>
<path opacity="0.4" d="M2.4008 12.0949C2.27398 12.0949 2.14719 12.0465 2.05042 11.9497C1.85691 11.7562 1.85688 11.4424 2.05039 11.249L3.46237 9.83695C3.65588 9.64338 3.96965 9.64338 4.16316 9.83695C4.35667 10.0304 4.3567 10.3442 4.16319 10.5377L2.75121 11.9497C2.65444 12.0465 2.5276 12.0949 2.4008 12.0949Z" fill="currentColor"/>
<path opacity="0.18" d="M3.81279 4.30818C3.68594 4.30818 3.55918 4.25978 3.46238 4.16301L2.0504 2.751C1.85689 2.55752 1.85689 2.24375 2.05043 2.05026C2.24392 1.85678 2.55768 1.85678 2.75122 2.05026L4.1632 3.46227C4.35671 3.65575 4.35671 3.96952 4.16317 4.16301C4.06643 4.25978 3.93958 4.30818 3.81279 4.30818Z" fill="currentColor"/>
<path opacity="0.64" d="M11.5989 12.0949C11.4721 12.0949 11.3453 12.0465 11.2485 11.9497L9.83653 10.5377C9.64301 10.3443 9.64304 10.0305 9.83655 9.83701C10.0301 9.64352 10.3438 9.64352 10.5373 9.83701L11.9493 11.249C12.1428 11.4425 12.1428 11.7563 11.9493 11.9497C11.8526 12.0465 11.7257 12.0949 11.5989 12.0949Z" fill="currentColor"/>
<path opacity="0.3" d="M2.49236 7.4955H0.495551C0.221867 7.4955 0 7.27366 0 6.99995C0 6.72623 0.221867 6.50439 0.495551 6.50439H2.49236C2.76604 6.50439 2.98791 6.72623 2.98791 6.99995C2.98791 7.27366 2.76604 7.4955 2.49236 7.4955Z" fill="currentColor"/>
<path opacity="0.76" d="M13.5041 7.4955H11.5073C11.2336 7.4955 11.0117 7.27366 11.0117 6.99995C11.0117 6.72623 11.2336 6.50439 11.5073 6.50439H13.5041C13.7778 6.50439 13.9997 6.72623 13.9997 6.99995C13.9997 7.27366 13.7778 7.4955 13.5041 7.4955Z" fill="currentColor"/>
</g>
<defs>
<clipPath id="clip0_18531_17737">
<rect width="14" height="14" fill="white"/>
</clipPath>
</defs>
</svg>
