<svg xmlns="http://www.w3.org/2000/svg" viewBox="0 0 16 16" fill="none">
  <g clip-path="url(#clip0_5232_1804)">
    <path d="M7.33301 3.00004H12.1997C12.9464 3.00004 13.3198 3.00004 13.605 3.14537C13.8559 3.2732 14.0599 3.47717 14.1877 3.72805C14.333 4.01327 14.333 4.38664 14.333 5.13337V6.00004C14.333 6.6213 14.333 6.93192 14.2315 7.17695C14.0962 7.50366 13.8366 7.76322 13.5099 7.89855C13.2649 8.00004 12.9543 8.00004 12.333 8.00004M8.66634 13H3.79967C3.05294 13 2.67957 13 2.39435 12.8547C2.14347 12.7269 1.9395 12.5229 1.81167 12.272C1.66634 11.9868 1.66634 11.6134 1.66634 10.8667V10C1.66634 9.37879 1.66634 9.06816 1.76784 8.82313C1.90316 8.49643 2.16273 8.23686 2.48943 8.10153C2.73446 8.00004 3.04509 8.00004 3.66634 8.00004M6.86634 9.66671H9.13301C9.31969 9.66671 9.41303 9.66671 9.48434 9.63038C9.54706 9.59842 9.59805 9.54743 9.63001 9.4847C9.66634 9.4134 9.66634 9.32006 9.66634 9.13337V6.86671C9.66634 6.68002 9.66634 6.58668 9.63001 6.51538C9.59805 6.45266 9.54706 6.40166 9.48434 6.36971C9.41303 6.33337 9.31969 6.33337 9.13301 6.33337H6.86634C6.67966 6.33337 6.58631 6.33337 6.51501 6.36971C6.45229 6.40166 6.4013 6.45266 6.36934 6.51538C6.33301 6.58668 6.33301 6.68002 6.33301 6.86671V9.13337C6.33301 9.32006 6.33301 9.4134 6.36934 9.4847C6.4013 9.54743 6.45229 9.59842 6.51501 9.63038C6.58631 9.66671 6.67966 9.66671 6.86634 9.66671ZM11.8663 14.6667H14.133C14.3197 14.6667 14.413 14.6667 14.4843 14.6304C14.5471 14.5984 14.5981 14.5474 14.63 14.4847C14.6663 14.4134 14.6663 14.3201 14.6663 14.1334V11.8667C14.6663 11.68 14.6663 11.5867 14.63 11.5154C14.5981 11.4527 14.5471 11.4017 14.4843 11.3697C14.413 11.3334 14.3197 11.3334 14.133 11.3334H11.8663C11.6797 11.3334 11.5863 11.3334 11.515 11.3697C11.4523 11.4017 11.4013 11.4527 11.3693 11.5154C11.333 11.5867 11.333 11.68 11.333 11.8667V14.1334C11.333 14.3201 11.333 14.4134 11.3693 14.4847C11.4013 14.5474 11.4523 14.5984 11.515 14.6304C11.5863 14.6667 11.6797 14.6667 11.8663 14.6667ZM1.86634 4.66671H4.13301C4.31969 4.66671 4.41303 4.66671 4.48434 4.63038C4.54706 4.59842 4.59805 4.54743 4.63001 4.4847C4.66634 4.4134 4.66634 4.32006 4.66634 4.13337V1.86671C4.66634 1.68002 4.66634 1.58668 4.63001 1.51538C4.59805 1.45266 4.54706 1.40166 4.48434 1.36971C4.41303 1.33337 4.31969 1.33337 4.13301 1.33337H1.86634C1.67966 1.33337 1.58631 1.33337 1.51501 1.36971C1.45229 1.40166 1.4013 1.45266 1.36934 1.51538C1.33301 1.58668 1.33301 1.68002 1.33301 1.86671V4.13337C1.33301 4.32006 1.33301 4.4134 1.36934 4.4847C1.4013 4.54743 1.45229 4.59842 1.51501 4.63038C1.58631 4.66671 1.67966 4.66671 1.86634 4.66671Z" stroke="currentColor" stroke-width="1.5" stroke-linecap="round" stroke-linejoin="round"/>
  </g>
  <defs>
    <clipPath id="clip0_5232_1804">
      <rect width="16" height="16" fill="white"/>
    </clipPath>
  </defs>
</svg>