<svg viewBox="0 0 12 12" fill="none" xmlns="http://www.w3.org/2000/svg">
<g clip-path="url(#clip0_10513_12905)">
<path d="M6.66239 5.33761L2.72029 9.27971M3.14573 6.41876L1.21483 5.96266C1.00239 5.91248 0.927673 5.64874 1.08157 5.49429L2.61714 3.95872C2.72029 3.85557 2.86025 3.79646 3.00689 3.79535L4.73818 3.78029M6.91887 1.79921C8.20744 2.67796 9.32204 3.79256 10.2008 5.08113M5.58068 8.85427L6.03678 10.7852C6.08696 10.9976 6.3507 11.0723 6.50515 10.9184L8.04072 9.38286C8.14388 9.27971 8.20298 9.13975 8.2041 8.99311L8.21915 7.26182M10.5314 4.17506L10.982 2.00719C11.1046 1.41727 10.5827 0.895373 9.99281 1.01804L7.82494 1.46856C7.18651 1.60127 6.60105 1.91742 6.14049 2.37854L4.36181 4.15666C3.68323 4.83523 3.24163 5.7151 3.10224 6.66466L3.0961 6.70536C3.00801 7.31145 3.21096 7.92311 3.64365 8.35635C4.07633 8.78904 4.68855 8.992 5.29464 8.90334L5.33535 8.89721C6.2849 8.75837 7.16477 8.31621 7.84334 7.63763L9.62146 5.85951C10.0826 5.39895 10.3987 4.81349 10.5314 4.17506Z" stroke="#026AA2" stroke-linecap="round" stroke-linejoin="round"/>
</g>
<defs>
<clipPath id="clip0_10513_12905">
<rect width="12" height="12" fill="white"/>
</clipPath>
</defs>
</svg>
