<svg xmlns="http://www.w3.org/2000/svg" width="14" height="14" fill="none"><g clip-path="url(#a)"><path fill="#37352F" d="M11.812 2.382A6.762 6.762 0 0 0 7 .39c-.992 0-1.963.214-2.852.625l.141-.36a.479.479 0 0 0-.891-.35l-.59 1.51a.657.657 0 0 0 .413.864l1.547.485a.475.475 0 0 0 .6-.313.479.479 0 0 0-.313-.6l-.764-.24A5.831 5.831 0 0 1 7 1.347a5.81 5.81 0 0 1 4.135 1.713 5.81 5.81 0 0 1 1.713 4.135 5.81 5.81 0 0 1-1.713 4.135A5.81 5.81 0 0 1 7 13.043a5.81 5.81 0 0 1-4.136-1.713 5.81 5.81 0 0 1-1.712-4.135c0-.93.211-1.817.628-2.64a.479.479 0 0 0-.854-.433 6.733 6.733 0 0 0-.732 3.072 6.76 6.76 0 0 0 1.994 4.813A6.76 6.76 0 0 0 7 14a6.76 6.76 0 0 0 4.812-1.993 6.76 6.76 0 0 0 1.994-4.813 6.76 6.76 0 0 0-1.994-4.812Z"/></g><defs><clipPath id="a"><path fill="#fff" d="M0 0h14v14H0z"/></clipPath></defs></svg>