<svg viewBox="0 0 20 20" fill="none" xmlns="http://www.w3.org/2000/svg">
<path d="M17.4667 16.5366C17.3678 16.5365 17.2709 16.5095 17.1868 16.4586C17.1027 16.4077 17.0347 16.3349 16.9904 16.2483C16.002 14.3194 15.0678 12.4949 10.0011 12.3765V16.0157C10.0014 16.1175 9.97135 16.2172 9.91453 16.3024C9.8577 16.3876 9.77663 16.4546 9.68133 16.4952C9.58603 16.5358 9.48067 16.5482 9.37828 16.5308C9.27588 16.5134 9.18094 16.467 9.10517 16.3973L2.17275 10.1482C2.11833 10.0996 2.07486 10.0405 2.04511 9.97456C2.01536 9.90861 2 9.8373 2 9.7652C2 9.69311 2.01536 9.6218 2.04511 9.55585C2.07486 9.4899 2.11833 9.43076 2.17275 9.38221L9.10517 3.13588C9.18142 3.06825 9.27593 3.02353 9.37743 3.00706C9.47892 2.99059 9.5831 3.00307 9.67755 3.04301C9.772 3.08295 9.85272 3.14865 9.91008 3.23229C9.96745 3.31593 9.99903 3.41397 10.0011 3.5147V7.1664C17.3871 7.34606 18 11.2819 18 16.0143C17.9996 16.1526 17.9433 16.2851 17.8433 16.3827C17.7433 16.4804 17.6079 16.5366 17.4667 16.5366ZM3.32176 9.7666L8.93453 14.8263V11.8487C8.93453 11.5618 9.17343 11.3278 9.46779 11.3278C13.8903 11.3278 15.7717 12.5339 16.8766 13.9823C16.6277 10.4281 15.3593 8.20258 9.46779 8.20258C9.39795 8.20276 9.32875 8.18947 9.26416 8.16346C9.19956 8.13746 9.14082 8.09924 9.09131 8.051C9.04179 8.00276 9.00246 7.94545 8.97556 7.88232C8.94866 7.8192 8.93471 7.7515 8.93453 7.6831V4.70547L3.32176 9.7666Z" fill="currentColor"/>
</svg>
