<svg  viewBox="0 0 18 17" fill="none" xmlns="http://www.w3.org/2000/svg">
<g id="Group 42969">
<path id="Vector" fill-rule="evenodd" clip-rule="evenodd" d="M11.6172 15.3301C11.8876 15.5638 11.8196 15.9974 11.4812 16.1094C10.28 16.4989 9.00371 16.5989 7.75652 16.4013C6.50933 16.2036 5.32653 15.7139 4.30461 14.9721C3.2827 14.2303 2.45062 13.2575 1.87626 12.1329C1.3019 11.0083 1.00152 9.76391 0.999647 8.50115C0.999647 4.09012 4.58976 0.5 9.0008 0.5C13.4118 0.5 17.002 4.09012 17.002 8.50115C17.002 9.91736 16.6315 11.2495 15.9834 12.4057C15.9484 12.4662 15.8998 12.5177 15.8414 12.5561C15.783 12.5946 15.7165 12.6189 15.6471 12.6272C15.5778 12.6355 15.5074 12.6276 15.4416 12.604C15.3758 12.5804 15.3164 12.5418 15.2681 12.4913C15.1121 12.3353 15.0857 12.0913 15.1921 11.8976C15.7655 10.8575 16.0655 9.68887 16.0642 8.50115C16.0621 6.62847 15.3172 4.83309 13.9931 3.5089C12.6689 2.18471 10.8735 1.43985 9.0008 1.43773C7.12812 1.43985 5.33274 2.18471 4.00855 3.5089C2.68436 4.83309 1.9395 6.62847 1.93738 8.50115C1.93907 9.61065 2.20179 10.7042 2.70433 11.6933C3.20686 12.6825 3.93509 13.5395 4.83016 14.1952C5.72522 14.8508 6.762 15.2866 7.85666 15.4674C8.95133 15.6481 10.0732 15.5688 11.1315 15.2357C11.2138 15.2086 11.3016 15.2031 11.3867 15.2196C11.4717 15.2361 11.5511 15.2742 11.6172 15.3301Z" fill="#71717A" stroke="#71717A" stroke-width="0.1"/>
<path id="Vector (Stroke)" fill-rule="evenodd" clip-rule="evenodd" d="M5.5 7.49891C5.5 7.22273 5.72389 6.99884 6.00007 6.99884H13.0011C13.2773 6.99884 13.5012 7.22273 13.5012 7.49891C13.5012 7.77509 13.2773 7.99898 13.0011 7.99898H6.00007C5.72389 7.99898 5.5 7.77509 5.5 7.49891ZM5.5 10.4993C5.5 10.2232 5.72389 9.99927 6.00007 9.99927H11.5009C11.777 9.99927 12.0009 10.2232 12.0009 10.4993C12.0009 10.7755 11.777 10.9994 11.5009 10.9994H6.00007C5.72389 10.9994 5.5 10.7755 5.5 10.4993Z" fill="#71717A"/>
<path id="Vector 405" d="M11.502 15.5001L16.0065 16.0041L15.5025 11.9996" stroke="#71717A" stroke-linecap="round"/>
</g>
</svg>
