
<svg viewBox="0 0 20 20" fill="none" xmlns="http://www.w3.org/2000/svg">
<mask id="mask0_2934_24188" style="mask-type:luminance" maskUnits="userSpaceOnUse" x="0" y="0" width="20" height="20">
<path d="M0 0H20V20H0V0Z" fill="white"/>
</mask>
<g mask="url(#mask0_2934_24188)">
<path fill-rule="evenodd" clip-rule="evenodd" d="M6.73 1.46158C6.39167 1.16991 6.47667 0.628244 6.9 0.488244C8.40122 0.00141352 9.99627 -0.123621 11.555 0.123341C13.1138 0.370303 14.592 0.982266 15.8693 1.9093C17.1465 2.83634 18.1864 4.05219 18.9043 5.45766C19.6222 6.86312 19.9976 8.41839 20 9.99658C20 15.5099 15.5133 19.9966 10 19.9966C4.48667 19.9966 0 15.5099 0 9.99658C0 8.22658 0.463333 6.56158 1.27333 5.11658C1.31721 5.04119 1.37799 4.97703 1.45089 4.92914C1.52378 4.88124 1.60681 4.85093 1.69341 4.84059C1.78002 4.83025 1.86785 4.84016 1.94997 4.86954C2.0321 4.89893 2.10628 4.94698 2.16667 5.00991C2.36167 5.20491 2.395 5.50991 2.26167 5.75158C1.54506 7.05158 1.17003 8.51215 1.17167 9.99658C1.17431 12.3372 2.10529 14.5812 3.76035 16.2362C5.41541 17.8913 7.65939 18.8223 10 18.8249C12.3406 18.8223 14.5846 17.8913 16.2397 16.2362C17.8947 14.5812 18.8257 12.3372 18.8283 9.99658C18.8261 8.60989 18.4977 7.24317 17.8695 6.00691C17.2414 4.77065 16.3311 3.69954 15.2124 2.88017C14.0937 2.06079 12.7979 1.51615 11.4297 1.29027C10.0615 1.06439 8.6594 1.16361 7.33667 1.57991C7.23386 1.61365 7.12412 1.62049 7.01792 1.59978C6.91172 1.57906 6.81259 1.53148 6.73 1.46158Z" fill="currentColor" stroke="currentColor" stroke-width="0.1"/>
<path d="M6.57488 3.42538H4.43322V5.56871C4.43278 5.68218 4.38751 5.79087 4.30728 5.87111C4.22704 5.95134 4.11835 5.99661 4.00488 5.99705C3.89113 5.99705 3.78201 5.95197 3.70141 5.87169C3.62082 5.79141 3.57532 5.68247 3.57488 5.56871V3.42538H1.43322C1.31975 3.42494 1.21106 3.37967 1.13082 3.29944C1.05059 3.21921 1.00532 3.11051 1.00488 2.99705C1.00488 2.76205 1.19655 2.56871 1.43322 2.56871H3.57488V0.42538C3.58434 0.318301 3.63356 0.218647 3.71284 0.146057C3.79212 0.0734657 3.89572 0.0332031 4.00322 0.0332031C4.11071 0.0332031 4.21431 0.0734657 4.29359 0.146057C4.37288 0.218647 4.42209 0.318301 4.43155 0.42538V2.56871H6.57488C6.81155 2.56871 7.00488 2.76205 7.00488 2.99705C7.00444 3.1108 6.95894 3.21975 6.87835 3.30003C6.79776 3.38031 6.68864 3.42538 6.57488 3.42538Z" fill="currentColor" stroke="currentColor" stroke-width="0.3"/>
<path d="M12.9276 8.78177C13.3192 8.3901 13.8409 8.17343 14.3942 8.17343C14.9492 8.17343 15.4709 8.3901 15.8642 8.78177C15.9741 8.89161 16.1231 8.95332 16.2784 8.95332C16.4338 8.95332 16.5827 8.89161 16.6926 8.78177C16.8024 8.67192 16.8641 8.52294 16.8641 8.3676C16.8641 8.21226 16.8024 8.06328 16.6926 7.95343C16.3915 7.65119 16.0335 7.41162 15.6393 7.24856C15.2451 7.0855 14.8225 7.00218 14.3959 7.00343C13.5276 7.00343 12.7126 7.3401 12.0976 7.95343C12.0432 8.00793 12.0001 8.07261 11.9707 8.14377C11.9413 8.21494 11.9262 8.29119 11.9263 8.36819C11.9264 8.44518 11.9416 8.52141 11.9711 8.59251C12.0007 8.66362 12.0439 8.72821 12.0984 8.7826C12.1529 8.83699 12.2176 8.88011 12.2888 8.9095C12.3599 8.9389 12.4362 8.95399 12.5132 8.95391C12.5902 8.95383 12.6664 8.93859 12.7375 8.90905C12.8086 8.87952 12.8732 8.83626 12.9276 8.78177ZM4.13758 8.78177C4.52925 8.3901 5.05092 8.17343 5.60592 8.17343C6.16092 8.17343 6.68258 8.3901 7.07425 8.78177C7.12741 8.84134 7.19218 8.88944 7.26458 8.92311C7.33698 8.95678 7.41549 8.97532 7.49531 8.97758C7.57512 8.97985 7.65456 8.9658 7.72876 8.9363C7.80295 8.90679 7.87035 8.86245 7.92681 8.80599C7.98327 8.74953 8.02761 8.68214 8.05711 8.60794C8.08662 8.53375 8.10067 8.45431 8.0984 8.37449C8.09613 8.29468 8.0776 8.21616 8.04392 8.14376C8.01025 8.07136 7.96216 8.0066 7.90258 7.95343C7.60152 7.65119 7.24354 7.41162 6.84933 7.24856C6.45513 7.0855 6.03251 7.00218 5.60592 7.00343C4.73925 7.00343 3.92258 7.3401 3.30925 7.95343C3.25486 8.00782 3.21172 8.07239 3.18228 8.14345C3.15285 8.21452 3.1377 8.29068 3.1377 8.3676C3.1377 8.44452 3.15285 8.52068 3.18228 8.59174C3.21172 8.66281 3.25486 8.72738 3.30925 8.78177C3.36364 8.83615 3.42821 8.8793 3.49927 8.90873C3.57033 8.93817 3.6465 8.95332 3.72342 8.95332C3.80033 8.95332 3.8765 8.93817 3.94756 8.90873C4.01862 8.8793 4.08319 8.83615 4.13758 8.78177ZM15.4842 10.4851H4.50925C4.44192 10.4849 4.3752 10.498 4.31293 10.5236C4.25066 10.5492 4.19406 10.5868 4.14637 10.6344C4.09868 10.6819 4.06084 10.7384 4.03502 10.8006C4.0092 10.8628 3.99592 10.9294 3.99592 10.9968C3.99592 11.7847 4.15111 12.5649 4.45264 13.2929C4.75417 14.0208 5.19612 14.6823 5.75327 15.2394C6.31043 15.7966 6.97186 16.2385 7.69981 16.54C8.42777 16.8416 9.20798 16.9968 9.99592 16.9968C10.7838 16.9968 11.5641 16.8416 12.292 16.54C13.02 16.2385 13.6814 15.7966 14.2386 15.2394C14.7957 14.6823 15.2377 14.0208 15.5392 13.2929C15.8407 12.5649 15.9959 11.7847 15.9959 10.9968C15.9959 10.8611 15.942 10.7309 15.8461 10.635C15.7501 10.539 15.62 10.4851 15.4842 10.4851ZM9.99592 15.9734C8.76471 15.9741 7.577 15.5181 6.66261 14.6937C5.74823 13.8692 5.17217 12.7348 5.04592 11.5101H14.9459C14.8197 12.7348 14.2436 13.8692 13.3292 14.6937C12.4148 15.5181 11.2271 15.9741 9.99592 15.9734Z" fill="currentColor" stroke="currentColor" stroke-width="0.1"/>
</g>
</svg>
