<svg viewBox="0 0 16 16" fill="none" xmlns="http://www.w3.org/2000/svg">
<g clip-path="url(#clip0_13240_20739)">
<path d="M8 16C3.58887 16 0 12.4111 0 8C0 3.58887 3.58887 0 8 0C12.4111 0 16 3.58887 16 8C16 12.4111 12.4111 16 8 16ZM8 1C4.14013 1 1 4.14013 1 8C1 11.8599 4.14013 15 8 15C11.8599 15 15 11.8599 15 8C15 4.14013 11.8599 1 8 1ZM12 8C12 7.72363 11.7764 7.5 11.5 7.5H4.5C4.22363 7.5 4 7.72363 4 8C4 8.27637 4.22363 8.5 4.5 8.5H11.5C11.7764 8.5 12 8.27637 12 8Z" fill="currentColor"/>
</g>
<defs>
<clipPath id="clip0_13240_20739">
<rect width="16" height="16" fill="white"/>
</clipPath>
</defs>
</svg>
