
<svg viewBox="0 0 20 20" fill="none" xmlns="http://www.w3.org/2000/svg">
<mask id="mask0_2934_24188" style="mask-type:luminance" maskUnits="userSpaceOnUse" x="0" y="0">
<path d="M0 0H20V20H0V0Z" fill="white"/>
</mask>
<g mask="url(#mask0_2934_24188)">
<path fill-rule="evenodd" clip-rule="evenodd" d="M7.19728 2.70444C6.90728 2.45444 6.98014 1.99016 7.343 1.87016C8.62976 1.45287 9.99694 1.3457 11.333 1.55738C12.6691 1.76906 13.9362 2.2936 15.0309 3.08821C16.1257 3.88281 17.0171 4.92496 17.6324 6.12965C18.2477 7.33434 18.5695 8.66742 18.5716 10.0202C18.5716 14.7459 14.7259 18.5916 10.0001 18.5916C5.27442 18.5916 1.42871 14.7459 1.42871 10.0202C1.42871 8.50301 1.82585 7.07587 2.52014 5.8373C2.55775 5.77268 2.60984 5.71768 2.67233 5.67663C2.73481 5.63558 2.80597 5.6096 2.88021 5.60074C2.95444 5.59188 3.02972 5.60037 3.10011 5.62555C3.17051 5.65074 3.23409 5.69193 3.28585 5.74587C3.453 5.91301 3.48157 6.17444 3.36728 6.38158C2.75305 7.49587 2.43159 8.74779 2.433 10.0202C2.43527 12.0264 3.23324 13.9498 4.65187 15.3684C6.07049 16.787 7.9939 17.585 10.0001 17.5873C12.0064 17.585 13.9298 16.787 15.3484 15.3684C16.767 13.9498 17.565 12.0264 17.5673 10.0202C17.5654 8.83156 17.2839 7.66009 16.7455 6.60044C16.207 5.54079 15.4268 4.62269 14.4679 3.92037C13.509 3.21805 12.3983 2.75122 11.2256 2.55761C10.0529 2.364 8.85105 2.44904 7.71728 2.80587C7.62916 2.83479 7.5351 2.84065 7.44407 2.8229C7.35304 2.80514 7.26807 2.76436 7.19728 2.70444Z" fill="#757575" stroke="#757575" stroke-width="0.1"/>
<path d="M7.06432 4.38756H5.22861V6.2247C5.22823 6.32196 5.18943 6.41513 5.12066 6.4839C5.05189 6.55267 4.95872 6.59147 4.86147 6.59185C4.76396 6.59185 4.67043 6.55321 4.60135 6.4844C4.53227 6.41559 4.49327 6.32221 4.4929 6.2247V4.38756H2.65718C2.55993 4.38718 2.46676 4.34838 2.39799 4.27961C2.32922 4.21084 2.29042 4.11767 2.29004 4.02042C2.29004 3.81899 2.45432 3.65328 2.65718 3.65328H4.4929V1.81613C4.501 1.72435 4.54319 1.63893 4.61115 1.57671C4.6791 1.51449 4.7679 1.47998 4.86004 1.47998C4.95218 1.47998 5.04098 1.51449 5.10893 1.57671C5.17689 1.63893 5.21908 1.72435 5.22718 1.81613V3.65328H7.06432C7.26718 3.65328 7.4329 3.81899 7.4329 4.02042C7.43252 4.11792 7.39352 4.2113 7.32444 4.28011C7.25536 4.34893 7.16183 4.38756 7.06432 4.38756Z" fill="#757575" stroke="#757575" stroke-width="0.3"/>
<path d="M12.5095 8.97889C12.8452 8.64317 13.2924 8.45746 13.7666 8.45746C14.2424 8.45746 14.6895 8.64317 15.0266 8.97889C15.1208 9.07304 15.2485 9.12593 15.3816 9.12593C15.5148 9.12593 15.6425 9.07304 15.7366 8.97889C15.8308 8.88474 15.8837 8.75704 15.8837 8.62389C15.8837 8.49074 15.8308 8.36304 15.7366 8.26889C15.4786 8.00983 15.1717 7.80448 14.8339 7.66471C14.496 7.52494 14.1337 7.45353 13.7681 7.4546C13.0238 7.4546 12.3252 7.74317 11.7981 8.26889C11.7514 8.3156 11.7145 8.37104 11.6893 8.43204C11.6641 8.49303 11.6512 8.5584 11.6512 8.62439C11.6513 8.69039 11.6644 8.75573 11.6897 8.81667C11.715 8.87762 11.7521 8.93298 11.7988 8.9796C11.8455 9.02622 11.9009 9.06318 11.9619 9.08838C12.0229 9.11357 12.0883 9.1265 12.1543 9.12644C12.2203 9.12637 12.2856 9.11331 12.3466 9.08799C12.4075 9.06267 12.4629 9.0256 12.5095 8.97889ZM4.97521 8.97889C5.31092 8.64317 5.75807 8.45746 6.23378 8.45746C6.7095 8.45746 7.15664 8.64317 7.49235 8.97889C7.53792 9.02995 7.59343 9.07118 7.65549 9.10004C7.71755 9.1289 7.78485 9.14479 7.85326 9.14673C7.92167 9.14868 7.98976 9.13663 8.05336 9.11134C8.11696 9.08605 8.17472 9.04805 8.22312 8.99965C8.27151 8.95126 8.30952 8.89349 8.33481 8.8299C8.3601 8.7663 8.37214 8.69821 8.3702 8.6298C8.36825 8.56138 8.35236 8.49409 8.3235 8.43203C8.29464 8.36997 8.25342 8.31446 8.20235 8.26889C7.9443 8.00983 7.63746 7.80448 7.29957 7.66471C6.96168 7.52494 6.59944 7.45353 6.23378 7.4546C5.49092 7.4546 4.79092 7.74317 4.26521 8.26889C4.21859 8.31551 4.18161 8.37085 4.15638 8.43176C4.13115 8.49267 4.11816 8.55796 4.11816 8.62389C4.11816 8.68982 4.13115 8.7551 4.15638 8.81601C4.18161 8.87692 4.21859 8.93227 4.26521 8.97889C4.31183 9.02551 4.36717 9.06249 4.42809 9.08772C4.489 9.11295 4.55428 9.12593 4.62021 9.12593C4.68614 9.12593 4.75142 9.11295 4.81233 9.08772C4.87325 9.06249 4.92859 9.02551 4.97521 8.97889ZM14.7009 10.4389H5.29378C5.23607 10.4387 5.17888 10.4499 5.12551 10.4719C5.07213 10.4938 5.02362 10.5261 4.98274 10.5668C4.94186 10.6076 4.90943 10.656 4.8873 10.7093C4.86517 10.7626 4.85378 10.8197 4.85378 10.8775C4.85378 11.5528 4.98681 12.2216 5.24526 12.8455C5.50371 13.4695 5.88253 14.0364 6.36009 14.514C6.83765 14.9916 7.40459 15.3704 8.02855 15.6288C8.65251 15.8873 9.32127 16.0203 9.99664 16.0203C10.672 16.0203 11.3408 15.8873 11.9647 15.6288C12.5887 15.3704 13.1556 14.9916 13.6332 14.514C14.1107 14.0364 14.4896 13.4695 14.748 12.8455C15.0065 12.2216 15.1395 11.5528 15.1395 10.8775C15.1395 10.7611 15.0933 10.6496 15.011 10.5673C14.9288 10.4851 14.8172 10.4389 14.7009 10.4389ZM9.99664 15.1432C8.94132 15.1438 7.92328 14.7529 7.13952 14.0462C6.35576 13.3395 5.862 12.3672 5.75378 11.3175H14.2395C14.1313 12.3672 13.6375 13.3395 12.8538 14.0462C12.07 14.7529 11.052 15.1438 9.99664 15.1432Z" fill="#757575" stroke="#757575" stroke-width="0.1"/>
</g>
</svg>
