<svg viewBox="0 0 16 16" fill="none" xmlns="http://www.w3.org/2000/svg">
<path d="M10.0031 8.4988C9.61203 8.10739 9.15505 7.78793 8.65313 7.55505C9.36094 6.98162 9.8125 6.10662 9.8125 5.12537C9.8125 3.39412 8.36875 1.9738 6.6375 2.00037C4.93281 2.02693 3.55938 3.41599 3.55938 5.12537C3.55938 6.10662 4.0125 6.98162 4.71875 7.55505C4.21673 7.78776 3.75972 8.10724 3.36875 8.4988C2.51563 9.35349 2.03125 10.4816 2 11.6847C1.99958 11.7014 2.00251 11.718 2.0086 11.7335C2.0147 11.7491 2.02384 11.7632 2.03549 11.7752C2.04714 11.7871 2.06106 11.7966 2.07643 11.8031C2.0918 11.8095 2.10832 11.8129 2.125 11.8129H3C3.06719 11.8129 3.12344 11.7597 3.125 11.6926C3.15469 10.7863 3.52188 9.93787 4.16719 9.29412C4.49741 8.96214 4.89019 8.69896 5.3228 8.5198C5.75541 8.34064 6.21926 8.24906 6.6875 8.25037C7.63906 8.25037 8.32656 8.32693 9 9.00037C9.15179 9.15215 9.3797 9.32738 9.49996 9.5L10.5 9C10.5 9 10.4322 8.92708 10.0031 8.4988ZM6.6875 7.12537C6.15313 7.12537 5.65 6.91755 5.27344 6.53943C5.08446 6.35194 4.93518 6.1283 4.83451 5.88186C4.73384 5.63543 4.68384 5.37124 4.6875 5.10505C4.69219 4.59255 4.89688 4.09724 5.25469 3.73005C5.62969 3.34568 6.13125 3.13162 6.66719 3.12537C7.19688 3.12068 7.71094 3.32693 8.08906 3.69724C8.47656 4.07693 8.68906 4.58474 8.68906 5.12537C8.68906 5.65974 8.48125 6.1613 8.10312 6.53943C7.91761 6.72583 7.69698 6.87359 7.45399 6.97416C7.211 7.07474 6.95048 7.12613 6.6875 7.12537Z" fill="#292929"/>
<path fill-rule="evenodd" clip-rule="evenodd" d="M11.7 14.6667C11.5429 14.6667 11.4089 14.553 11.3833 14.398C11.3597 14.2726 11.2695 14.1702 11.148 14.131C11.049 14.097 10.9523 14.057 10.8583 14.011C10.7464 13.9538 10.6123 13.9624 10.5086 14.0333C10.3831 14.1235 10.2107 14.1096 10.1014 14.0003L9.67629 13.5752C9.56187 13.4607 9.54701 13.2804 9.64115 13.1487C9.71375 13.0427 9.72421 12.9059 9.66858 12.79C9.63192 12.7095 9.59959 12.6271 9.57172 12.5432C9.5318 12.4109 9.42163 12.3118 9.28586 12.286C9.12214 12.2599 9.00127 12.1193 9 11.9535V11.4216C8.99913 11.2305 9.13716 11.067 9.32572 11.0359C9.46876 11.0087 9.5882 10.9107 9.64286 10.7757C9.65915 10.7377 9.67629 10.7 9.69429 10.6626C9.76698 10.5227 9.75694 10.3541 9.66814 10.2237C9.5571 10.0694 9.57415 9.85736 9.70843 9.72275L10.0209 9.41032C10.175 9.25617 10.418 9.23622 10.5951 9.36318L10.605 9.37003C10.7373 9.45907 10.9056 9.4752 11.0524 9.41289C11.2095 9.35637 11.3252 9.22142 11.3571 9.05761L11.3615 9.04303C11.3967 8.82616 11.584 8.66684 11.8037 8.66675H12.1809C12.4065 8.66665 12.5991 8.82985 12.636 9.05246L12.6429 9.08246C12.6731 9.23939 12.7829 9.36927 12.9326 9.42532C13.0768 9.48724 13.2427 9.47107 13.3723 9.38246L13.3937 9.36703C13.5755 9.23604 13.8254 9.25618 13.9839 9.41461L14.2714 9.70261C14.4156 9.84753 14.4337 10.0754 14.3143 10.2413C14.2207 10.38 14.2088 10.5581 14.283 10.708L14.3015 10.7509C14.3615 10.8972 14.4915 11.0033 14.6469 11.0329C14.85 11.066 14.9993 11.2411 15 11.4469V11.9239C15 12.1053 14.8687 12.2601 14.6897 12.2899C14.5425 12.3181 14.4226 12.4247 14.3773 12.5676C14.3573 12.6247 14.335 12.6819 14.3104 12.739C14.2532 12.8646 14.2659 13.0109 14.3439 13.1247C14.4467 13.2678 14.4307 13.4643 14.3062 13.5889L13.9072 13.9883C13.7931 14.1024 13.6131 14.1171 13.482 14.023C13.3726 13.9482 13.2308 13.94 13.1135 14.0016C13.0298 14.043 12.944 14.0798 12.8563 14.1117C12.7337 14.154 12.6433 14.259 12.6197 14.3865C12.5947 14.5469 12.4572 14.6655 12.2949 14.6667H11.7Z" stroke="#292929" stroke-width="0.8" stroke-linecap="round" stroke-linejoin="round"/>
<path fill-rule="evenodd" clip-rule="evenodd" d="M12.9997 11.6669C12.9997 12.2191 12.5521 12.6667 11.9999 12.6667C11.4476 12.6667 11 12.2191 11 11.6669C11 11.1146 11.4476 10.667 11.9999 10.667C12.5521 10.667 12.9997 11.1146 12.9997 11.6669Z" stroke="#292929" stroke-width="0.8" stroke-linecap="round" stroke-linejoin="round"/>
</svg>
