<svg viewBox="0 0 26 26" fill="none" xmlns="http://www.w3.org/2000/svg">
<rect x="0.75" y="0.75" width="24.5" height="24.5" rx="4.25" fill="url(#paint0_radial_9199_6446)"/>
<rect x="0.75" y="0.75" width="24.5" height="24.5" rx="4.25" stroke="#D9C2FF" stroke-width="0.5"/>
<path fill-rule="evenodd" clip-rule="evenodd" d="M5.33048 8.81482C5.11661 8.73576 4.89436 8.67356 4.66532 8.6298C4.64851 8.6266 4.63166 8.62349 4.61477 8.62047C4.46174 8.59317 4.46174 8.37367 4.61477 8.34637C4.63166 8.34335 4.64851 8.34024 4.66532 8.33704C4.89436 8.29328 5.11661 8.23108 5.33048 8.15202C5.45848 8.1047 5.58347 8.05136 5.70512 7.99229C6.54757 7.58335 7.22984 6.90109 7.63879 6.05864C7.69784 5.93699 7.7512 5.81199 7.7985 5.684C7.87756 5.47013 7.93976 5.24788 7.98352 5.01884C7.98672 5.00202 7.98983 4.98517 7.99285 4.96828C8.02016 4.81526 8.23965 4.81526 8.26695 4.96828C8.26997 4.98517 8.27308 5.00202 8.27628 5.01884C8.32004 5.24788 8.38224 5.47013 8.46131 5.684C8.50863 5.81199 8.56197 5.93699 8.62103 6.05864C9.02997 6.90109 9.71223 7.58335 10.5547 7.99229C10.6763 8.05136 10.8013 8.1047 10.9293 8.15202C11.1432 8.23108 11.3654 8.29328 11.5945 8.33704C11.6113 8.34024 11.6282 8.34335 11.645 8.34637C11.7981 8.37367 11.7981 8.59317 11.645 8.62047C11.6282 8.62349 11.6113 8.6266 11.5945 8.6298C11.3654 8.67356 11.1432 8.73576 10.9293 8.81482C10.8013 8.86214 10.6763 8.91548 10.5547 8.97455C9.71223 9.38349 9.02997 10.0657 8.62103 10.9082C8.56197 11.0299 8.50863 11.1548 8.46131 11.2828C8.38224 11.4967 8.32004 11.719 8.27628 11.948C8.27308 11.9648 8.26997 11.9817 8.26695 11.9986C8.23965 12.1516 8.02016 12.1516 7.99285 11.9986C7.98983 11.9817 7.98672 11.9648 7.98352 11.948C7.93976 11.719 7.87756 11.4967 7.7985 11.2828C7.7512 11.1548 7.69784 11.0299 7.63879 10.9082C7.22984 10.0657 6.54757 9.38349 5.70512 8.97455C5.58347 8.91548 5.45848 8.86214 5.33048 8.81482ZM10.4437 14.2523C10.2941 14.212 10.1425 14.1766 9.9889 14.1464C9.96489 14.1417 9.94086 14.1371 9.91678 14.1326L9.90947 14.1312L9.8996 14.1294C9.8844 14.1266 9.86772 14.1237 9.83435 14.1177L9.8227 14.1156C9.57798 14.0693 9.57798 13.7189 9.8227 13.6726L9.83435 13.6705C9.86772 13.6645 9.8844 13.6615 9.8996 13.6588L9.90947 13.657L9.91678 13.6556C9.94086 13.6511 9.96489 13.6465 9.98887 13.6418C10.1424 13.6116 10.2941 13.5762 10.4437 13.5359C10.5715 13.5015 10.6977 13.4634 10.8223 13.4219C12.8386 12.7498 14.4252 11.1631 15.0974 9.14686C15.1389 9.02223 15.1769 8.89598 15.2114 8.7682C15.2517 8.61864 15.2871 8.46696 15.3173 8.31339C15.322 8.2894 15.3266 8.26537 15.3311 8.24129L15.3325 8.23399L15.3343 8.22411C15.337 8.2091 15.34 8.19262 15.3458 8.16L15.3481 8.14721C15.3944 7.90249 15.7448 7.90249 15.7911 8.14721L15.7932 8.15887C15.7992 8.19224 15.8021 8.20892 15.8049 8.22411L15.8067 8.23399L15.8081 8.24129C15.8125 8.26537 15.8171 8.2894 15.8219 8.31339C15.8521 8.46699 15.8875 8.61864 15.9278 8.7682C15.9622 8.89598 16.0003 9.02223 16.0418 9.14686C16.7139 11.1631 18.3005 12.7498 20.3168 13.4219C20.4414 13.4634 20.5677 13.5015 20.6955 13.5359C20.845 13.5762 20.9967 13.6116 21.1503 13.6418C21.1743 13.6465 21.1983 13.6511 21.2224 13.6556L21.2297 13.657L21.2396 13.6588C21.2548 13.6615 21.2714 13.6645 21.3048 13.6705L21.3165 13.6726C21.5612 13.7189 21.5612 14.0693 21.3165 14.1156L21.3048 14.1177L21.2695 14.124L21.2396 14.1294L21.2297 14.1312L21.2224 14.1326C21.1983 14.1371 21.1743 14.1417 21.1503 14.1464C20.9967 14.1766 20.845 14.212 20.6955 14.2523C20.5677 14.2867 20.4414 14.3248 20.3168 14.3663C18.3005 15.0384 16.7139 16.625 16.0418 18.6413C16.0003 18.766 15.9622 18.8922 15.9278 19.02C15.8875 19.1695 15.8521 19.3212 15.8219 19.4748C15.8171 19.4988 15.8125 19.5228 15.8081 19.5469L15.8067 19.5542L15.8049 19.5641L15.8009 19.5863L15.7934 19.628L15.7911 19.641C15.7448 19.8857 15.3944 19.8857 15.3481 19.641L15.346 19.6293C15.34 19.596 15.337 19.5792 15.3343 19.5641L15.3325 19.5542L15.3311 19.5469C15.3266 19.5228 15.322 19.4988 15.3173 19.4748C15.2871 19.3212 15.2517 19.1695 15.2114 19.02C15.1769 18.8922 15.1389 18.766 15.0974 18.6413C14.4252 16.625 12.8386 15.0384 10.8223 14.3663C10.6977 14.3248 10.5715 14.2867 10.4437 14.2523ZM7.06898 18.9463C7.32619 18.9955 7.56983 19.0814 7.79428 19.1986C7.89413 19.2507 7.99017 19.309 8.08191 19.373C8.33754 19.5512 8.5598 19.7735 8.73804 20.0291C8.802 20.1209 8.8603 20.2169 8.9124 20.3167C9.02958 20.5412 9.11555 20.7848 9.16467 21.042C9.1667 21.0527 9.16868 21.0633 9.17058 21.074C9.18782 21.1706 9.32645 21.1706 9.3437 21.074C9.34559 21.0633 9.34755 21.0527 9.34958 21.042C9.39873 20.7848 9.48469 20.5412 9.60185 20.3167C9.65398 20.2169 9.71228 20.1209 9.77624 20.0291C9.95445 19.7735 10.1767 19.5512 10.4324 19.373C10.5241 19.309 10.6201 19.2507 10.72 19.1986C10.9444 19.0814 11.1881 18.9955 11.4453 18.9463C11.4559 18.9443 11.4666 18.9423 11.4772 18.9404C11.5739 18.9232 11.5739 18.7846 11.4772 18.7673C11.4666 18.7654 11.4559 18.7635 11.4453 18.7614C11.1881 18.7123 10.9444 18.6263 10.72 18.5092C10.6201 18.457 10.5241 18.3988 10.4324 18.3348C10.1767 18.1566 9.95445 17.9343 9.77624 17.6787C9.71228 17.5869 9.65398 17.4909 9.60185 17.391C9.48469 17.1666 9.39873 16.9229 9.34958 16.6657C9.34755 16.6551 9.34559 16.6445 9.3437 16.6338C9.32645 16.5371 9.18782 16.5371 9.17058 16.6338C9.16868 16.6445 9.1667 16.6551 9.16467 16.6657C9.11555 16.9229 9.02958 17.1666 8.9124 17.391C8.8603 17.4909 8.802 17.5869 8.73804 17.6787C8.5598 17.9343 8.33754 18.1566 8.08191 18.3348C7.99017 18.3988 7.89413 18.457 7.79428 18.5092C7.56983 18.6263 7.32619 18.7123 7.06898 18.7614C7.05836 18.7635 7.04772 18.7654 7.03704 18.7673C6.94041 18.7846 6.94041 18.9232 7.03704 18.9404C7.04772 18.9423 7.05836 18.9443 7.06898 18.9463Z" fill="white"/>
<defs>
<radialGradient id="paint0_radial_9199_6446" cx="0" cy="0" r="1" gradientUnits="userSpaceOnUse" gradientTransform="translate(-0.5 13) scale(29.8954)">
<stop stop-color="#2575FC"/>
<stop offset="1" stop-color="#6008F1"/>
</radialGradient>
</defs>
</svg>
