<svg viewBox="0 0 20 20" fill="none" xmlns="http://www.w3.org/2000/svg">
<mask id="mask0_2491_32439" style="mask-type:luminance" maskUnits="userSpaceOnUse" x="0" y="0" width="20" height="20">
<path d="M20 0H0V20H20V0Z" fill="white"/>
</mask>
<g mask="url(#mask0_2491_32439)">
<path d="M9.35711 5.73338H11.3071C11.3588 5.73338 11.4084 5.71056 11.445 5.66992C11.4816 5.62928 11.5021 5.57418 11.5021 5.51671C11.5021 5.45925 11.4816 5.40414 11.445 5.36351C11.4084 5.32288 11.3588 5.30005 11.3071 5.30005H9.35711C9.30539 5.30005 9.25579 5.32288 9.21923 5.36351C9.18265 5.40414 9.16211 5.45925 9.16211 5.51671C9.16211 5.57418 9.18265 5.62928 9.21923 5.66992C9.25579 5.71056 9.30539 5.73338 9.35711 5.73338ZM12.8671 7.03338H9.35711C9.30539 7.03338 9.25579 7.05621 9.21923 7.09684C9.18265 7.13748 9.16211 7.19258 9.16211 7.25005C9.16211 7.30751 9.18265 7.36262 9.21923 7.40326C9.25579 7.44389 9.30539 7.46671 9.35711 7.46671H12.8671C12.9188 7.46671 12.9684 7.44389 13.005 7.40326C13.0416 7.36262 13.0621 7.30751 13.0621 7.25005C13.0621 7.19258 13.0416 7.13748 13.005 7.09684C12.9684 7.05621 12.9188 7.03338 12.8671 7.03338ZM12.8671 7.90005H9.35711C9.30539 7.90005 9.25579 7.92288 9.21923 7.96351C9.18265 8.00414 9.16211 8.05925 9.16211 8.11671C9.16211 8.17418 9.18265 8.22929 9.21923 8.26992C9.25579 8.31056 9.30539 8.33338 9.35711 8.33338H12.8671C12.9188 8.33338 12.9684 8.31056 13.005 8.26992C13.0416 8.22929 13.0621 8.17418 13.0621 8.11671C13.0621 8.05925 13.0416 8.00414 13.005 7.96351C12.9684 7.92288 12.9188 7.90005 12.8671 7.90005Z" fill="currentColor" stroke="currentColor" stroke-width="0.15"/>
<path fill-rule="evenodd" clip-rule="evenodd" d="M15.2666 7.47513L16.9132 10.1102C16.9401 10.1303 16.962 10.1564 16.9771 10.1865C16.9921 10.2165 17 10.2497 17 10.2833V16.7834C17 16.8408 16.9772 16.8959 16.9365 16.9365C16.8959 16.9772 16.8408 17 16.7834 17H4.21667C4.1592 17 4.10409 16.9772 4.06346 16.9365C4.02283 16.8959 4 16.8408 4 16.7834V10.2833C4.00001 10.2497 4.00786 10.2165 4.02293 10.1865C4.03801 10.1564 4.05972 10.1301 4.08667 10.11L5.924 7.47513V4.21667C5.924 4.1592 5.9527 4.10409 5.99334 4.06346C6.03396 4.02283 6.1092 4 6.16666 4H13.75C13.8075 3.99998 13.8626 4.02279 13.9032 4.0634L15.2032 5.3634C15.2234 5.38353 15.2393 5.40741 15.2502 5.43371C15.2611 5.46 15.2666 5.48818 15.2666 5.51664V7.47513ZM15.2666 10.0667H16.371L15.2666 8.31935V10.0667ZM14.527 5.3L13.9666 4.73973V5.3H14.527ZM13.5334 4.43333H8.76666V10.0667H14.8334V5.73334H13.75C13.6925 5.73334 13.6374 5.71051 13.5968 5.66987C13.5562 5.62924 13.5334 5.57413 13.5334 5.51666V4.43333ZM7.59666 4.43333V10.0667H8.33334V4.43333H7.59666ZM7.12 4.43333H6.34V10.0667H7.12V4.43333ZM4.7129 10.0667H5.924V8.31935L4.7129 10.0667ZM4.43333 16.5666H16.5666V10.5H4.43333V16.5666Z" fill="currentColor" stroke="currentColor" stroke-width="0.15"/>
<path d="M12.0289 11.3666H8.99557C8.76572 11.3666 8.54528 11.4579 8.38275 11.6204C8.22022 11.783 8.12891 12.0034 8.12891 12.2332C8.12891 12.4631 8.22022 12.6835 8.38275 12.8461C8.54528 13.0086 8.76572 13.0999 8.99557 13.0999H12.0289C12.2587 13.0999 12.4792 13.0086 12.6418 12.8461C12.8043 12.6835 12.8956 12.4631 12.8956 12.2332C12.8956 12.0034 12.8043 11.783 12.6418 11.6204C12.4792 11.4579 12.2587 11.3666 12.0289 11.3666ZM12.0289 12.6666H8.99557C8.88065 12.6666 8.77043 12.621 8.68916 12.5397C8.60789 12.4584 8.56224 12.3482 8.56224 12.2332C8.56224 12.1183 8.60789 12.0081 8.68916 11.9268C8.77043 11.8456 8.88065 11.7999 8.99557 11.7999H12.0289C12.1438 11.7999 12.254 11.8456 12.3353 11.9268C12.4166 12.0081 12.4623 12.1183 12.4623 12.2332C12.4623 12.3482 12.4166 12.4584 12.3353 12.5397C12.254 12.621 12.1438 12.6666 12.0289 12.6666Z" fill="currentColor" stroke="currentColor" stroke-width="0.15"/>
</g>
</svg>