<svg viewBox="0 0 40 40" fill="none" xmlns="http://www.w3.org/2000/svg">
<g clip-path="url(#clip0_2385_195876)">
<path d="M27.6465 5.09179C25.6367 5.53125 24.002 7.19531 23.5977 9.21093C23.4629 9.8789 23.5098 11.1094 23.6855 11.7305C23.7559 11.9648 23.8027 12.1699 23.7969 12.1758C23.7852 12.1875 21.8398 13.3535 19.4727 14.7773L15.1719 17.3613L14.8789 17.0625C14.5098 16.6875 14.0176 16.3535 13.4141 16.0723C12.6172 15.6973 12.3066 15.6328 11.2109 15.6328C10.1152 15.6328 9.80469 15.6973 9.00781 16.0723C7.79492 16.6348 6.96875 17.4609 6.40625 18.6738C6.03125 19.4707 5.9668 19.7812 5.9668 20.877C5.9668 21.9727 6.03125 22.2832 6.40625 23.0801C6.96875 24.293 7.79492 25.1191 9.00781 25.6816C9.79883 26.0508 10.1211 26.1152 11.1816 26.1211C12.3184 26.1211 12.8047 26.0098 13.7012 25.5469C14.1992 25.2891 14.3809 25.1484 14.9141 24.6211L15.541 24.0059L19.6016 26.0801C21.834 27.2227 23.6738 28.166 23.6797 28.1719C23.6914 28.1836 23.6563 28.3945 23.6035 28.6406C23.5215 28.998 23.5098 29.2676 23.5332 29.9238C23.5684 30.8555 23.6504 31.2187 23.9844 31.9277C24.5469 33.1406 25.373 33.9668 26.5859 34.5293C27.3828 34.9043 27.6934 34.9688 28.7891 34.9688C29.8848 34.9688 30.1953 34.9043 30.9922 34.5293C32.2051 33.9668 33.0313 33.1406 33.5938 31.9277C33.9688 31.1309 34.0332 30.8203 34.0332 29.7246C34.0332 28.6289 33.9688 28.3184 33.5938 27.5215C33.0313 26.3086 32.2051 25.4824 30.9922 24.9199C30.1953 24.5449 29.8848 24.4805 28.7891 24.4805C27.9395 24.4805 27.7637 24.498 27.3535 24.6211C26.334 24.9199 25.2852 25.6113 24.6875 26.3672L24.541 26.5547L20.4688 24.4687C18.2305 23.3262 16.3789 22.3711 16.3555 22.3477C16.332 22.3301 16.3555 22.1426 16.4023 21.9316C16.543 21.3516 16.4844 20.0039 16.2969 19.3828L16.1563 18.9082L20.4629 16.3184L24.7695 13.7285L25.0918 14.0566C25.6719 14.6426 26.5918 15.1699 27.4414 15.4102C27.9863 15.5566 29.5918 15.5566 30.1367 15.4102C31.3262 15.0762 32.4805 14.2676 33.1367 13.3008C33.4355 12.8555 33.7871 12.1113 33.9277 11.6191C34.0742 11.0742 34.0742 9.46875 33.9277 8.92382C33.5938 7.73437 32.7852 6.58007 31.8184 5.92382C31.3848 5.63085 30.6348 5.27343 30.166 5.14453C29.6621 5.0039 28.1914 4.96875 27.6465 5.09179ZM29.6387 6.90234C30.2539 7.06054 30.7109 7.33007 31.2207 7.83984C31.9473 8.56054 32.2461 9.27539 32.2461 10.2715C32.2461 11.2676 31.9473 11.9824 31.2207 12.7031C30.5 13.4297 29.7852 13.7285 28.7891 13.7285C27.793 13.7285 27.0781 13.4297 26.3574 12.7031C25.6309 11.9824 25.332 11.2676 25.332 10.2715C25.332 9.27539 25.6309 8.56054 26.3574 7.83984C26.8555 7.33593 27.3184 7.06054 27.9102 6.9082C28.3379 6.79687 29.2051 6.79101 29.6387 6.90234ZM12.0605 17.5078C12.6758 17.666 13.1328 17.9355 13.6426 18.4453C14.3691 19.166 14.668 19.8809 14.668 20.877C14.668 21.873 14.3691 22.5879 13.6426 23.3086C12.9219 24.0352 12.207 24.334 11.2109 24.334C10.2148 24.334 9.5 24.0352 8.7793 23.3086C8.05273 22.5879 7.75391 21.873 7.75391 20.877C7.75391 19.8809 8.05273 19.166 8.7793 18.4453C9.27734 17.9414 9.74023 17.666 10.332 17.5137C10.7598 17.4023 11.627 17.3965 12.0605 17.5078ZM29.6387 26.3555C30.2539 26.5137 30.7109 26.7832 31.2207 27.293C31.9473 28.0137 32.2461 28.7285 32.2461 29.7246C32.2461 30.7207 31.9473 31.4355 31.2207 32.1562C30.5 32.8828 29.7852 33.1816 28.7891 33.1816C27.793 33.1816 27.0781 32.8828 26.3574 32.1562C25.6309 31.4355 25.332 30.7207 25.332 29.7246C25.332 28.7285 25.6309 28.0137 26.3574 27.293C26.8555 26.7891 27.3184 26.5137 27.9102 26.3613C28.3379 26.25 29.2051 26.2441 29.6387 26.3555Z" fill="#35A6BA"/>
</g>
<defs>
<clipPath id="clip0_2385_195876">
<rect width="30" height="30" fill="white" transform="translate(5 5)"/>
</clipPath>
</defs>
</svg>
