<svg viewBox="0 0 14 14" fill="none" xmlns="http://www.w3.org/2000/svg">
<g clip-path="url(#clip0_6502_18496)">
<path fill-rule="evenodd" clip-rule="evenodd" d="M1.15149 3.5822C0.985477 3.52083 0.812957 3.47255 0.635167 3.43858C0.622114 3.4361 0.609033 3.43368 0.595922 3.43134C0.477141 3.41014 0.477141 3.23976 0.595922 3.21857C0.609033 3.21623 0.622114 3.21381 0.635167 3.21133C0.812957 3.17736 0.985477 3.12908 1.15149 3.0677C1.25085 3.03097 1.34787 2.98957 1.4423 2.94372C2.09625 2.62628 2.62585 2.09668 2.9433 1.44273C2.98914 1.3483 3.03056 1.25128 3.06727 1.15192C3.12865 0.985904 3.17693 0.813384 3.2109 0.635595C3.21338 0.622541 3.2158 0.60946 3.21814 0.596349C3.23933 0.477568 3.40971 0.477568 3.43091 0.596349C3.43325 0.60946 3.43567 0.622541 3.43815 0.635595C3.47212 0.813384 3.5204 0.985904 3.58177 1.15192C3.61851 1.25127 3.65991 1.3483 3.70576 1.44273C4.02319 2.09668 4.5528 2.62628 5.20675 2.94372C5.30118 2.98957 5.3982 3.03097 5.49755 3.0677C5.66357 3.12908 5.83609 3.17736 6.01389 3.21133C6.02694 3.21381 6.04002 3.21623 6.05312 3.21857C6.17191 3.23976 6.17191 3.41014 6.05312 3.43134C6.04002 3.43368 6.02694 3.4361 6.01389 3.43858C5.83609 3.47255 5.66357 3.52083 5.49755 3.5822C5.3982 3.61894 5.30118 3.66034 5.20675 3.70619C4.5528 4.02362 4.02319 4.55323 3.70576 5.20718C3.65991 5.30161 3.61851 5.39863 3.58177 5.49798C3.5204 5.664 3.47212 5.83652 3.43815 6.01432C3.43567 6.02736 3.43325 6.04045 3.43091 6.05355C3.40971 6.17234 3.23933 6.17234 3.21814 6.05355C3.2158 6.04045 3.21338 6.02736 3.2109 6.01432C3.17693 5.83652 3.12865 5.664 3.06727 5.49798C3.03056 5.39863 2.98914 5.30161 2.9433 5.20718C2.62585 4.55323 2.09625 4.02362 1.4423 3.70619C1.34787 3.66034 1.25085 3.61894 1.15149 3.5822ZM5.1206 7.80301C5.00449 7.77172 4.88677 7.74426 4.76756 7.72078C4.74892 7.71712 4.73026 7.71355 4.71157 7.71007L4.7059 7.70902L4.69824 7.70762C4.68644 7.70547 4.67349 7.70316 4.64759 7.69852L4.63855 7.69691C4.44858 7.66096 4.44858 7.38894 4.63855 7.353L4.64759 7.35139C4.67349 7.34675 4.68644 7.34444 4.69824 7.34229L4.7059 7.34089L4.71157 7.33984C4.73026 7.33636 4.74892 7.33279 4.76754 7.32913C4.88675 7.30564 5.00449 7.27819 5.1206 7.2469C5.21977 7.22017 5.31777 7.19063 5.41451 7.1584C6.97964 6.63667 8.21124 5.40507 8.73297 3.83994C8.7652 3.7432 8.79474 3.6452 8.82147 3.54601C8.85276 3.42992 8.88021 3.31218 8.9037 3.19297C8.90736 3.17435 8.91093 3.15569 8.91441 3.137L8.91546 3.13133L8.91686 3.12367C8.91899 3.11201 8.92129 3.09922 8.9258 3.0739L8.92596 3.07302L8.92757 3.06398C8.96351 2.87401 9.23553 2.87401 9.27148 3.06398L9.27311 3.07302C9.27773 3.09892 9.28004 3.11187 9.28219 3.12367L9.28359 3.13133L9.28464 3.137C9.28812 3.15569 9.29169 3.17435 9.29535 3.19297C9.31883 3.3122 9.34629 3.42992 9.37758 3.54601C9.4043 3.6452 9.43384 3.7432 9.46608 3.83994C9.98781 5.40507 11.2194 6.63667 12.7845 7.1584C12.8813 7.19063 12.9793 7.22017 13.0785 7.2469C13.1946 7.27819 13.3123 7.30564 13.4315 7.32913C13.4501 7.33279 13.4688 7.33636 13.4875 7.33984L13.4931 7.34089L13.5008 7.34229C13.5126 7.34444 13.5256 7.34675 13.5515 7.35139L13.5605 7.353C13.7505 7.38894 13.7505 7.66096 13.5605 7.69691L13.5515 7.69852L13.524 7.70342L13.5008 7.70762L13.4931 7.70902L13.4875 7.71007C13.4688 7.71355 13.4501 7.71712 13.4315 7.72078C13.3123 7.74426 13.1946 7.77172 13.0785 7.80301C12.9793 7.82973 12.8813 7.85927 12.7845 7.89151C11.2194 8.41324 9.98781 9.64483 9.46608 11.21C9.43384 11.3067 9.4043 11.4047 9.37758 11.5039C9.34629 11.62 9.31883 11.7377 9.29535 11.8569C9.29169 11.8756 9.28812 11.8942 9.28464 11.9129L9.28359 11.9186L9.28219 11.9262L9.27906 11.9435L9.27328 11.9759L9.27148 11.9859C9.23553 12.1759 8.96351 12.1759 8.92757 11.9859L8.92596 11.9769C8.92134 11.951 8.91901 11.938 8.91686 11.9262L8.91546 11.9186L8.91441 11.9129C8.91093 11.8942 8.90736 11.8756 8.9037 11.8569C8.88021 11.7377 8.85276 11.62 8.82147 11.5039C8.79474 11.4047 8.7652 11.3067 8.73297 11.21C8.21124 9.64483 6.97964 8.41324 5.41451 7.89151C5.31777 7.85927 5.21977 7.82973 5.1206 7.80301ZM2.50099 11.4467C2.70065 11.4849 2.88977 11.5516 3.064 11.6425C3.14151 11.683 3.21606 11.7282 3.28727 11.7779C3.4857 11.9162 3.65823 12.0888 3.79659 12.2872C3.84623 12.3584 3.89149 12.433 3.93193 12.5105C4.0229 12.6847 4.08962 12.8738 4.12776 13.0735C4.12933 13.0817 4.13087 13.09 4.13234 13.0983C4.14573 13.1733 4.25334 13.1733 4.26672 13.0983C4.26819 13.09 4.26972 13.0817 4.27129 13.0735C4.30944 12.8738 4.37617 12.6847 4.46712 12.5105C4.50758 12.433 4.55283 12.3584 4.60248 12.2872C4.74082 12.0888 4.91337 11.9162 5.1118 11.7779C5.18301 11.7282 5.25756 11.683 5.33505 11.6425C5.50929 11.5516 5.69842 11.4849 5.89807 11.4467C5.90632 11.4451 5.91458 11.4436 5.92285 11.4421C5.99788 11.4288 5.99788 11.3211 5.92285 11.3078C5.91458 11.3063 5.90632 11.3048 5.89807 11.3032C5.69842 11.2651 5.50929 11.1983 5.33505 11.1074C5.25756 11.0669 5.18301 11.0217 5.1118 10.972C4.91337 10.8337 4.74082 10.6611 4.60248 10.4627C4.55283 10.3915 4.50758 10.3169 4.46712 10.2394C4.37617 10.0652 4.30944 9.87606 4.27129 9.6764C4.26972 9.66816 4.26819 9.6599 4.26672 9.65162C4.25334 9.5766 4.14573 9.5766 4.13234 9.65162C4.13087 9.6599 4.12933 9.66816 4.12776 9.6764C4.08962 9.87606 4.0229 10.0652 3.93193 10.2394C3.89149 10.3169 3.84623 10.3915 3.79659 10.4627C3.65823 10.6611 3.4857 10.8337 3.28727 10.972C3.21606 11.0217 3.14151 11.0669 3.064 11.1074C2.88977 11.1983 2.70065 11.2651 2.50099 11.3032C2.49275 11.3048 2.48449 11.3063 2.47619 11.3078C2.40119 11.3211 2.40119 11.4288 2.47619 11.4421C2.48449 11.4436 2.49275 11.4451 2.50099 11.4467Z" fill="#1570EF"/>
</g>
<defs>
<clipPath id="clip0_6502_18496">
<rect width="14" height="14" fill="white"/>
</clipPath>
</defs>
</svg>
