<svg viewBox="0 0 14 14"  xmlns="http://www.w3.org/2000/svg">
<g clip-path="url(#clip0_2533_26407)">
<path d="M13.4352 7.21094C11.3498 7.21094 9.65332 5.52667 9.65332 3.45642V3.10938H8.83301V3.45642C8.83301 5.52667 7.14874 7.21094 5.07849 7.21094H4.73145V8.03125H5.07849C7.14874 8.03125 8.83301 9.71552 8.83301 11.7858V12.1328H9.65332V11.7858C9.65332 9.71552 11.3498 8.03125 13.4352 8.03125H13.7822V7.21094H13.4352ZM9.24439 9.89585C8.78666 8.89086 7.97567 8.07946 6.97104 7.62109C7.97567 7.16276 8.78666 6.35133 9.24439 5.34634C9.70486 6.35133 10.5207 7.16273 11.5313 7.62109C10.5207 8.07946 9.70486 8.89086 9.24439 9.89585Z" fill="currentColor"/>
<path d="M5.42383 2.48828C4.29303 2.48828 3.37305 1.55605 3.37305 0.410156V0H2.55273V0.410156C2.55273 1.53661 1.60106 2.48828 0.474609 2.48828H0.0644531V3.30859H0.474609C1.6205 3.30859 2.55273 4.22857 2.55273 5.35938V5.76953H3.37305V5.35938C3.37305 4.22857 4.29303 3.30859 5.42383 3.30859H5.83398V2.48828H5.42383ZM2.96092 3.88533C2.71442 3.47886 2.36926 3.13756 1.95847 2.89404C2.15929 2.77233 2.3473 2.62514 2.51842 2.45399C2.68954 2.28285 2.83675 2.09486 2.95846 1.89405C3.20201 2.30483 3.54332 2.64999 3.94975 2.8965C3.54468 3.13986 3.20428 3.48023 2.96092 3.88533Z" fill="currentColor"/>
<path d="M4.72071 11.5117C3.97759 11.5117 3.37305 10.9072 3.37305 10.1641V9.87109H2.55273V10.1641C2.55273 10.9072 1.94819 11.5117 1.20507 11.5117H0.912109V12.332H1.20507C1.94819 12.332 2.55273 12.9366 2.55273 13.6797V14H3.37305V13.6797C3.37305 12.9366 3.97759 12.332 4.72071 12.332H5.01367V11.5117H4.72071ZM2.96289 12.413C2.82647 12.2242 2.66052 12.0583 2.47174 11.9219C2.66055 11.7855 2.82647 11.6195 2.96289 11.4307C3.09931 11.6195 3.26526 11.7855 3.45404 11.9219C3.26526 12.0583 3.09931 12.2242 2.96289 12.413Z" fill="currentColor"/>
</g>
<defs>
<clipPath id="clip0_2533_26407">
<rect width="14" height="14" fill="white"/>
</clipPath>
</defs>
</svg>
