<svg xmlns="http://www.w3.org/2000/svg" width="16" height="16" fill="none"><g fill="currentColor" stroke="currentColor" stroke-width=".3" clip-path="url(#a)"><path d="M8.47 15.5h-.94c-.762 0-1.382-.62-1.382-1.38v-.32a6.06 6.06 0 0 1-.94-.39l-.226.226a1.38 1.38 0 0 1-1.953 0l-.665-.665a1.38 1.38 0 0 1 0-1.954l.226-.225a6.054 6.054 0 0 1-.39-.94h-.32C1.12 9.852.5 9.232.5 8.47v-.942c0-.761.62-1.38 1.38-1.38h.32c.103-.324.233-.639.39-.94l-.226-.227a1.38 1.38 0 0 1 0-1.953l.666-.665a1.38 1.38 0 0 1 1.953 0l.225.226a6.06 6.06 0 0 1 .94-.39v-.32c0-.76.62-1.38 1.381-1.38h.942c.761 0 1.38.62 1.38 1.38v.32c.324.103.639.233.94.39l.227-.226a1.38 1.38 0 0 1 1.953 0l.665.665a1.38 1.38 0 0 1 0 1.954l-.226.225c.157.302.287.617.39.94h.32c.76 0 1.38.62 1.38 1.381v.942c0 .761-.62 1.38-1.38 1.38h-.32a6.057 6.057 0 0 1-.39.94l.226.227a1.38 1.38 0 0 1 0 1.953l-.666.665a1.38 1.38 0 0 1-1.953 0l-.225-.226a6.056 6.056 0 0 1-.94.39v.32c0 .76-.62 1.38-1.381 1.38Zm-3.115-3.013c.42.249.871.436 1.343.558a.44.44 0 0 1 .33.425v.65c0 .276.225.501.501.501h.942a.503.503 0 0 0 .502-.502v-.649c0-.2.135-.375.33-.425a5.18 5.18 0 0 0 1.342-.558.44.44 0 0 1 .535.068l.46.46a.502.502 0 0 0 .709 0l.666-.666a.502.502 0 0 0 0-.71l-.46-.46a.44.44 0 0 1-.067-.534 5.18 5.18 0 0 0 .557-1.343.44.44 0 0 1 .425-.33h.65a.503.503 0 0 0 .501-.501v-.942a.503.503 0 0 0-.502-.502h-.649a.44.44 0 0 1-.425-.33 5.18 5.18 0 0 0-.557-1.342.44.44 0 0 1 .067-.534l.46-.46a.502.502 0 0 0 0-.71l-.666-.666a.502.502 0 0 0-.71 0l-.46.46a.44.44 0 0 1-.534.068 5.18 5.18 0 0 0-1.343-.558.44.44 0 0 1-.33-.425v-.65a.503.503 0 0 0-.501-.501h-.942a.503.503 0 0 0-.502.502v.649a.44.44 0 0 1-.33.425 5.18 5.18 0 0 0-1.342.558.44.44 0 0 1-.534-.068l-.46-.46a.502.502 0 0 0-.71 0l-.666.666a.502.502 0 0 0 0 .71l.46.46a.44.44 0 0 1 .068.534 5.18 5.18 0 0 0-.558 1.343.44.44 0 0 1-.425.33h-.65a.503.503 0 0 0-.501.501v.942c0 .276.225.502.502.502h.649c.2 0 .375.135.425.33.122.47.31.922.558 1.342a.44.44 0 0 1-.068.534l-.46.46a.502.502 0 0 0 0 .71l.666.665a.502.502 0 0 0 .71 0l.46-.46a.442.442 0 0 1 .534-.067Z"/><path d="M8 11.266a3.267 3.267 0 0 1-3.264-3.264c0-1.8 1.464-3.264 3.264-3.264 1.8 0 3.264 1.464 3.264 3.264 0 1.8-1.464 3.264-3.264 3.264Zm0-5.649a2.387 2.387 0 0 0-2.385 2.385A2.387 2.387 0 0 0 8 10.387a2.387 2.387 0 0 0 2.385-2.385A2.387 2.387 0 0 0 8 5.617Z"/></g><defs><clipPath id="a"><path fill="#fff" d="M0 0h16v16H0z"/></clipPath></defs></svg>