<svg width="28" height="28" viewBox="0 0 28 28" fill="none" xmlns="http://www.w3.org/2000/svg">
<path d="M13.6001 9.22112C13.9526 8.65712 14.774 8.65712 15.1265 9.22112L16.6793 11.7056C16.7977 11.8951 16.9823 12.0337 17.1973 12.0946L19.0324 12.6143C19.6588 12.7917 19.8954 13.5549 19.4793 14.0555L18.1079 15.7057C17.9516 15.8938 17.8785 16.1373 17.9055 16.3803L18.2014 19.0433C18.2756 19.7105 17.6195 20.2211 16.9909 19.9854L14.6793 19.1185C14.4755 19.0421 14.251 19.0421 14.0473 19.1185L11.7356 19.9854C11.1071 20.2211 10.451 19.7105 10.5251 19.0433L10.817 16.4164C10.8463 16.1524 10.7576 15.8889 10.5745 15.6965L9.05732 14.1024C8.58359 13.6046 8.81995 12.781 9.48556 12.6102L11.5146 12.0895C11.7384 12.032 11.9316 11.8907 12.0541 11.6947L13.6001 9.22112Z" fill="#DC7F2F" fill-opacity="0.4" stroke="#DC7F2F"/>
</svg>
