<svg xmlns="http://www.w3.org/2000/svg" width="16" height="16" fill="none"><path fill="#37352F" stroke="#37352F" stroke-width=".35" d="M15.4 6.734a.341.341 0 0 0-.482 0l-.805.805A6.13 6.13 0 0 0 2.795 4.75a.341.341 0 1 0 .579.361 5.452 5.452 0 0 1 10.055 2.38l-.757-.756a.341.341 0 0 0-.482.482l1.364 1.364a.34.34 0 0 0 .482 0L15.4 7.216a.341.341 0 0 0 0-.482ZM13.092 10.778a.342.342 0 0 0-.47.109A5.452 5.452 0 0 1 2.567 8.506l.757.757a.341.341 0 0 0 .482-.483L2.442 7.416a.34.34 0 0 0-.482 0L.596 8.78a.34.34 0 0 0 .482.483l.805-.806A6.13 6.13 0 0 0 13.2 11.248c.1-.16.052-.37-.108-.47Z"/></svg>