<svg width="16" height="16" viewBox="0 0 16 16" fill="none" xmlns="http://www.w3.org/2000/svg">
<mask id="path-1-outside-1_1843_8518" maskUnits="userSpaceOnUse" x="0" y="2" width="15" height="12" fill="black">
<rect fill="white" y="2" width="15" height="12"/>
<path d="M3.09459 13.5597C3.18639 13.5622 3.27779 13.5474 3.36328 13.5161C3.44877 13.4848 3.52658 13.4378 3.59202 13.3777L4.85637 12.199C4.97276 12.0886 5.04123 11.9419 5.04861 11.7872C5.05599 11.6326 5.00177 11.4808 4.89636 11.3612C4.3867 10.7456 4.11029 9.98991 4.11034 9.21233C4.11151 8.33394 4.4864 7.49184 5.15277 6.87073C5.81915 6.24961 6.72261 5.90019 7.665 5.89909C8.27579 5.89872 8.87615 6.04659 9.40701 6.32815L7.66078 7.32668C7.26828 7.3269 6.88453 7.43478 6.55736 7.63688C6.23019 7.83899 5.97407 8.12638 5.82093 8.46322C5.66778 8.80007 5.62439 9.17148 5.69616 9.53115C5.76793 9.89083 5.95168 10.2229 6.22451 10.4859C6.49734 10.7489 6.84719 10.9312 7.23044 11.0102C7.61369 11.0891 8.01339 11.0612 8.37973 10.9299C8.74607 10.7985 9.06283 10.5696 9.29055 10.2716C9.51826 9.97365 9.64685 9.61979 9.66028 9.25416L10.7582 7.58698C11.0609 8.08221 11.2199 8.64239 11.2197 9.21233C11.2196 9.98996 10.943 10.7456 10.4332 11.3612C10.328 11.4809 10.2739 11.6326 10.2814 11.7872C10.2889 11.9417 10.3574 12.0883 10.4739 12.1986L11.738 13.3775C11.8638 13.494 12.0339 13.5595 12.2112 13.5597H12.2354C12.3267 13.5565 12.4163 13.5358 12.4987 13.499C12.5811 13.4621 12.6545 13.4099 12.7144 13.3456C13.7595 12.1888 14.3318 10.7246 14.33 9.21233C14.33 7.56472 13.6278 5.98459 12.3779 4.81955C11.1279 3.65451 9.43267 3 7.665 3C5.89733 3 4.20207 3.65451 2.95214 4.81955C1.70221 5.98459 1 7.56472 1 9.21233C0.9983 10.7245 1.57068 12.1886 2.61582 13.3452C2.67558 13.4096 2.74892 13.4619 2.83128 13.4988C2.91365 13.5357 3.00327 13.5565 3.09459 13.5597ZM11.279 5.84256C11.2992 5.86013 11.312 5.88394 11.3149 5.90959C11.3178 5.93524 11.3106 5.96101 11.2948 5.98213L9.56386 8.61057C9.46755 8.3392 9.30579 8.09201 9.091 7.88801C8.87621 7.684 8.61411 7.5286 8.32484 7.43374L11.1308 5.82765C11.1533 5.81309 11.1807 5.80659 11.2079 5.80933C11.2351 5.81207 11.2603 5.82387 11.279 5.84256ZM7.665 10.6399C7.35742 10.6399 7.05674 10.5549 6.801 10.3956C6.54525 10.2364 6.34592 10.01 6.22821 9.7451C6.11051 9.48023 6.07971 9.18878 6.13972 8.90759C6.19972 8.62641 6.34784 8.36812 6.56533 8.1654C6.78283 7.96268 7.05993 7.82462 7.3616 7.76869C7.66327 7.71276 7.97597 7.74147 8.26014 7.85118C8.54431 7.96089 8.78719 8.14668 8.95807 8.38506C9.12896 8.62344 9.22017 8.90369 9.22017 9.19038C9.21964 9.57468 9.05562 9.94309 8.76408 10.2148C8.47255 10.4866 8.07729 10.6394 7.665 10.6399ZM12.3778 13.0747C12.3581 13.0961 12.3338 13.1135 12.3065 13.1256C12.2792 13.1378 12.2494 13.1445 12.2192 13.1454C12.1883 13.1471 12.1573 13.1426 12.1285 13.1321C12.0996 13.1215 12.0736 13.1053 12.0521 13.0845L10.7882 11.9058C10.7488 11.8679 10.726 11.8177 10.7244 11.7649C10.7228 11.7121 10.7425 11.6607 10.7796 11.6209C11.3519 10.9312 11.6629 10.0842 11.664 9.21233C11.6645 8.49467 11.4406 7.79243 11.0197 7.19146L11.6731 6.19935C11.7205 6.12954 11.7492 6.05018 11.7569 5.9679C11.7647 5.88562 11.7511 5.80281 11.7175 5.72639L12.2145 5.26315C13.2891 6.33418 13.8865 7.74597 13.8857 9.21233C13.8878 10.6253 13.3537 11.9935 12.3778 13.0747ZM11.9006 4.97014L11.4036 5.43358C11.3217 5.40236 11.233 5.38983 11.1449 5.39703C11.0567 5.40423 10.9717 5.43096 10.8969 5.47499L9.83179 6.08422C9.09801 5.63843 8.22671 5.43125 7.3535 5.49492C6.48029 5.55859 5.65415 5.88954 5.00367 6.43625L3.4294 4.97014C4.57852 3.96949 6.09242 3.4129 7.665 3.4129C9.23758 3.4129 10.7515 3.96949 11.9006 4.97014ZM3.11525 5.26315L4.68952 6.7303C4.03103 7.41134 3.66641 8.29553 3.666 9.21233C3.66711 10.084 3.97797 10.9308 4.55 11.6204C4.58726 11.6603 4.60711 11.7117 4.60563 11.7646C4.60414 11.8174 4.58144 11.8678 4.54201 11.9058L3.27788 13.0834C3.25639 13.1037 3.23065 13.1196 3.20226 13.1302C3.17388 13.1407 3.14346 13.1457 3.11291 13.1448C3.08236 13.1439 3.05234 13.1372 3.02472 13.125C2.99711 13.1128 2.97249 13.0954 2.9524 13.0739C1.97656 11.9929 1.44237 10.6251 1.44434 9.21233C1.44345 7.746 2.04079 6.33421 3.11525 5.26315Z"/>
</mask>
<path d="M3.09459 13.5597C3.18639 13.5622 3.27779 13.5474 3.36328 13.5161C3.44877 13.4848 3.52658 13.4378 3.59202 13.3777L4.85637 12.199C4.97276 12.0886 5.04123 11.9419 5.04861 11.7872C5.05599 11.6326 5.00177 11.4808 4.89636 11.3612C4.3867 10.7456 4.11029 9.98991 4.11034 9.21233C4.11151 8.33394 4.4864 7.49184 5.15277 6.87073C5.81915 6.24961 6.72261 5.90019 7.665 5.89909C8.27579 5.89872 8.87615 6.04659 9.40701 6.32815L7.66078 7.32668C7.26828 7.3269 6.88453 7.43478 6.55736 7.63688C6.23019 7.83899 5.97407 8.12638 5.82093 8.46322C5.66778 8.80007 5.62439 9.17148 5.69616 9.53115C5.76793 9.89083 5.95168 10.2229 6.22451 10.4859C6.49734 10.7489 6.84719 10.9312 7.23044 11.0102C7.61369 11.0891 8.01339 11.0612 8.37973 10.9299C8.74607 10.7985 9.06283 10.5696 9.29055 10.2716C9.51826 9.97365 9.64685 9.61979 9.66028 9.25416L10.7582 7.58698C11.0609 8.08221 11.2199 8.64239 11.2197 9.21233C11.2196 9.98996 10.943 10.7456 10.4332 11.3612C10.328 11.4809 10.2739 11.6326 10.2814 11.7872C10.2889 11.9417 10.3574 12.0883 10.4739 12.1986L11.738 13.3775C11.8638 13.494 12.0339 13.5595 12.2112 13.5597H12.2354C12.3267 13.5565 12.4163 13.5358 12.4987 13.499C12.5811 13.4621 12.6545 13.4099 12.7144 13.3456C13.7595 12.1888 14.3318 10.7246 14.33 9.21233C14.33 7.56472 13.6278 5.98459 12.3779 4.81955C11.1279 3.65451 9.43267 3 7.665 3C5.89733 3 4.20207 3.65451 2.95214 4.81955C1.70221 5.98459 1 7.56472 1 9.21233C0.9983 10.7245 1.57068 12.1886 2.61582 13.3452C2.67558 13.4096 2.74892 13.4619 2.83128 13.4988C2.91365 13.5357 3.00327 13.5565 3.09459 13.5597ZM11.279 5.84256C11.2992 5.86013 11.312 5.88394 11.3149 5.90959C11.3178 5.93524 11.3106 5.96101 11.2948 5.98213L9.56386 8.61057C9.46755 8.3392 9.30579 8.09201 9.091 7.88801C8.87621 7.684 8.61411 7.5286 8.32484 7.43374L11.1308 5.82765C11.1533 5.81309 11.1807 5.80659 11.2079 5.80933C11.2351 5.81207 11.2603 5.82387 11.279 5.84256ZM7.665 10.6399C7.35742 10.6399 7.05674 10.5549 6.801 10.3956C6.54525 10.2364 6.34592 10.01 6.22821 9.7451C6.11051 9.48023 6.07971 9.18878 6.13972 8.90759C6.19972 8.62641 6.34784 8.36812 6.56533 8.1654C6.78283 7.96268 7.05993 7.82462 7.3616 7.76869C7.66327 7.71276 7.97597 7.74147 8.26014 7.85118C8.54431 7.96089 8.78719 8.14668 8.95807 8.38506C9.12896 8.62344 9.22017 8.90369 9.22017 9.19038C9.21964 9.57468 9.05562 9.94309 8.76408 10.2148C8.47255 10.4866 8.07729 10.6394 7.665 10.6399ZM12.3778 13.0747C12.3581 13.0961 12.3338 13.1135 12.3065 13.1256C12.2792 13.1378 12.2494 13.1445 12.2192 13.1454C12.1883 13.1471 12.1573 13.1426 12.1285 13.1321C12.0996 13.1215 12.0736 13.1053 12.0521 13.0845L10.7882 11.9058C10.7488 11.8679 10.726 11.8177 10.7244 11.7649C10.7228 11.7121 10.7425 11.6607 10.7796 11.6209C11.3519 10.9312 11.6629 10.0842 11.664 9.21233C11.6645 8.49467 11.4406 7.79243 11.0197 7.19146L11.6731 6.19935C11.7205 6.12954 11.7492 6.05018 11.7569 5.9679C11.7647 5.88562 11.7511 5.80281 11.7175 5.72639L12.2145 5.26315C13.2891 6.33418 13.8865 7.74597 13.8857 9.21233C13.8878 10.6253 13.3537 11.9935 12.3778 13.0747ZM11.9006 4.97014L11.4036 5.43358C11.3217 5.40236 11.233 5.38983 11.1449 5.39703C11.0567 5.40423 10.9717 5.43096 10.8969 5.47499L9.83179 6.08422C9.09801 5.63843 8.22671 5.43125 7.3535 5.49492C6.48029 5.55859 5.65415 5.88954 5.00367 6.43625L3.4294 4.97014C4.57852 3.96949 6.09242 3.4129 7.665 3.4129C9.23758 3.4129 10.7515 3.96949 11.9006 4.97014ZM3.11525 5.26315L4.68952 6.7303C4.03103 7.41134 3.66641 8.29553 3.666 9.21233C3.66711 10.084 3.97797 10.9308 4.55 11.6204C4.58726 11.6603 4.60711 11.7117 4.60563 11.7646C4.60414 11.8174 4.58144 11.8678 4.54201 11.9058L3.27788 13.0834C3.25639 13.1037 3.23065 13.1196 3.20226 13.1302C3.17388 13.1407 3.14346 13.1457 3.11291 13.1448C3.08236 13.1439 3.05234 13.1372 3.02472 13.125C2.99711 13.1128 2.97249 13.0954 2.9524 13.0739C1.97656 11.9929 1.44237 10.6251 1.44434 9.21233C1.44345 7.746 2.04079 6.33421 3.11525 5.26315Z" fill="#757575"/>
<path d="M3.09459 13.5597L3.08747 13.7596L3.08911 13.7597L3.09459 13.5597ZM3.59202 13.3777L3.72725 13.5251L3.7284 13.524L3.59202 13.3777ZM4.85637 12.199L4.99276 12.3453L4.99404 12.3441L4.85637 12.199ZM4.89636 11.3612L4.74223 11.4888L4.74629 11.4934L4.89636 11.3612ZM4.11034 9.21233L3.91034 9.21207L3.91034 9.21232L4.11034 9.21233ZM7.665 5.89909L7.66488 5.69909H7.66477L7.665 5.89909ZM9.40701 6.32815L9.50629 6.50177C9.56956 6.46559 9.60814 6.39786 9.60698 6.32498C9.60582 6.2521 9.56511 6.18562 9.50072 6.15147L9.40701 6.32815ZM7.66078 7.32668L7.66089 7.52668C7.69568 7.52666 7.72986 7.51757 7.76006 7.5003L7.66078 7.32668ZM9.66028 9.25416L9.49325 9.14416C9.47311 9.17473 9.46176 9.21024 9.46041 9.24682L9.66028 9.25416ZM10.7582 7.58698L10.9289 7.48268C10.8932 7.42426 10.8301 7.38817 10.7616 7.38701C10.6931 7.38585 10.6289 7.4198 10.5912 7.47698L10.7582 7.58698ZM11.2197 9.21233L11.0197 9.21224V9.21231L11.2197 9.21233ZM10.4332 11.3612L10.5835 11.4933L10.5872 11.4888L10.4332 11.3612ZM10.4739 12.1986L10.3363 12.3438L10.3374 12.3449L10.4739 12.1986ZM11.738 13.3775L11.6016 13.5238L11.6021 13.5242L11.738 13.3775ZM12.2112 13.5597L12.2109 13.7597H12.2112V13.5597ZM12.2354 13.5597V13.7599L12.2425 13.7596L12.2354 13.5597ZM12.7144 13.3456L12.8608 13.4819L12.8628 13.4797L12.7144 13.3456ZM14.33 9.21233H14.13L14.13 9.21257L14.33 9.21233ZM7.665 3V2.8V3ZM1 9.21233L1.2 9.21256V9.21233H1ZM2.61582 13.3452L2.46742 13.4793L2.46917 13.4812L2.61582 13.3452ZM11.279 5.84256L11.1374 5.98378C11.1408 5.9872 11.1443 5.99049 11.1479 5.99365L11.279 5.84256ZM11.2948 5.98213L11.1346 5.86166L11.1277 5.87213L11.2948 5.98213ZM9.56386 8.61057L9.37537 8.67746C9.40076 8.74898 9.46444 8.79998 9.53978 8.80911C9.61513 8.81825 9.68915 8.78395 9.73089 8.72056L9.56386 8.61057ZM8.32484 7.43374L8.22548 7.26017C8.1569 7.29942 8.11786 7.37539 8.12586 7.45401C8.13387 7.53263 8.18742 7.59916 8.26252 7.62379L8.32484 7.43374ZM11.1308 5.82765L11.2303 6.00148L11.2395 5.99556L11.1308 5.82765ZM7.665 10.6399V10.8399L7.66524 10.8399L7.665 10.6399ZM9.22017 9.19038L9.42017 9.19066V9.19038H9.22017ZM12.3778 13.0747L12.5248 13.2104L12.5263 13.2088L12.3778 13.0747ZM12.2192 13.1454L12.2135 12.9454L12.2079 12.9457L12.2192 13.1454ZM12.0521 13.0845L12.1915 12.941L12.1885 12.9382L12.0521 13.0845ZM10.7882 11.9058L10.6497 12.0501L10.6518 12.0521L10.7882 11.9058ZM10.7796 11.6209L10.9262 11.7573L10.9335 11.7486L10.7796 11.6209ZM11.664 9.21233L11.864 9.21259V9.21246L11.664 9.21233ZM11.0197 7.19146L10.8527 7.08146C10.8076 7.14994 10.8089 7.23902 10.8559 7.30619L11.0197 7.19146ZM11.6731 6.19935L11.5076 6.08709L11.5061 6.08935L11.6731 6.19935ZM11.7175 5.72639L11.5812 5.58008C11.519 5.63807 11.5002 5.72905 11.5345 5.8069L11.7175 5.72639ZM12.2145 5.26315L12.3557 5.1215C12.2795 5.04554 12.1569 5.04349 12.0782 5.11685L12.2145 5.26315ZM13.8857 9.21233L13.6857 9.21222V9.21264L13.8857 9.21233ZM11.9006 4.97014L12.037 5.11641C12.0784 5.07777 12.1015 5.02338 12.1006 4.96673C12.0996 4.91009 12.0747 4.85651 12.0319 4.81931L11.9006 4.97014ZM11.4036 5.43358L11.3324 5.62046C11.4037 5.64764 11.4842 5.63188 11.54 5.57985L11.4036 5.43358ZM10.8969 5.47499L10.9962 5.64861L10.9983 5.64736L10.8969 5.47499ZM9.83179 6.08422L9.72795 6.25515C9.79013 6.29293 9.86793 6.29395 9.93109 6.25782L9.83179 6.08422ZM5.00367 6.43625L4.86736 6.58261C4.94131 6.65147 5.055 6.65437 5.13235 6.58935L5.00367 6.43625ZM3.4294 4.97014L3.29805 4.81931C3.25531 4.85653 3.23037 4.91013 3.22942 4.9668C3.22848 5.02347 3.25162 5.07787 3.29309 5.1165L3.4294 4.97014ZM3.11525 5.26315L3.25161 5.11684C3.1729 5.04349 3.05026 5.04555 2.97406 5.12151L3.11525 5.26315ZM4.68952 6.7303L4.83331 6.86932C4.87062 6.83073 4.89085 6.77876 4.88946 6.7251C4.88806 6.67143 4.86515 6.62059 4.82588 6.58399L4.68952 6.7303ZM3.666 9.21233L3.466 9.21224L3.466 9.21259L3.666 9.21233ZM4.55 11.6204L4.3958 11.7484L4.4039 11.757L4.55 11.6204ZM4.54201 11.9058L4.67835 12.0522L4.68075 12.0498L4.54201 11.9058ZM3.27788 13.0834L3.14155 12.9371L3.14068 12.9379L3.27788 13.0834ZM2.9524 13.0739L2.80392 13.208L2.80632 13.2105L2.9524 13.0739ZM1.44434 9.21233L1.64434 9.21261L1.64434 9.21221L1.44434 9.21233ZM3.08911 13.7597C3.20596 13.7629 3.32255 13.744 3.432 13.704L3.29455 13.3283C3.23302 13.3508 3.16682 13.3616 3.10007 13.3598L3.08911 13.7597ZM3.432 13.704C3.54147 13.6639 3.64201 13.6033 3.72725 13.5251L3.4568 13.2303C3.41114 13.2722 3.35606 13.3058 3.29455 13.3283L3.432 13.704ZM3.7284 13.524L4.99275 12.3453L4.71999 12.0527L3.45564 13.2314L3.7284 13.524ZM4.99404 12.3441C5.14632 12.1996 5.23844 12.005 5.24838 11.7968L4.84884 11.7777C4.84401 11.8788 4.79919 11.9776 4.7187 12.0539L4.99404 12.3441ZM5.24838 11.7968C5.25832 11.5885 5.18505 11.3863 5.04643 11.229L4.74629 11.4934C4.81848 11.5753 4.85366 11.6767 4.84884 11.7777L5.24838 11.7968ZM5.05042 11.2336C4.56956 10.6528 4.31029 9.94196 4.31034 9.21235L3.91034 9.21232C3.91028 10.0379 4.20385 10.8383 4.74231 11.4887L5.05042 11.2336ZM4.31034 9.2126C4.31143 8.39188 4.66159 7.60196 5.28914 7.01703L5.01641 6.72442C4.31121 7.38173 3.91159 8.27601 3.91034 9.21207L4.31034 9.2126ZM5.28914 7.01703C5.91716 6.43166 6.77144 6.10013 7.66523 6.09909L7.66477 5.69909C6.67377 5.70024 5.72113 6.06756 5.01641 6.72442L5.28914 7.01703ZM7.66512 6.09909C8.24376 6.09874 8.81183 6.23886 9.31329 6.50484L9.50072 6.15147C8.94047 5.85431 8.30782 5.6987 7.66488 5.69909L7.66512 6.09909ZM9.30773 6.15453L7.5615 7.15306L7.76006 7.5003L9.50629 6.50177L9.30773 6.15453ZM7.66067 7.12668C7.23189 7.12692 6.81165 7.24471 6.45225 7.46673L6.66247 7.80704C6.9574 7.62485 7.30467 7.52688 7.66089 7.52668L7.66067 7.12668ZM6.45225 7.46673C6.09273 7.68882 5.80909 8.00601 5.63886 8.38045L6.00299 8.546C6.13905 8.24674 6.36764 7.98916 6.66247 7.80704L6.45225 7.46673ZM5.63886 8.38045C5.46853 8.75509 5.41998 9.16912 5.50003 9.57029L5.89229 9.49202C5.82881 9.17384 5.86703 8.84505 6.00299 8.546L5.63886 8.38045ZM5.50003 9.57029C5.58005 9.97133 5.78456 10.3396 6.0857 10.6299L6.36331 10.3419C6.11879 10.1062 5.95581 9.81032 5.89229 9.49202L5.50003 9.57029ZM6.0857 10.6299C6.3867 10.92 6.77104 11.1197 7.19008 11.2061L7.27079 10.8143C6.92333 10.7427 6.60798 10.5777 6.36331 10.3419L6.0857 10.6299ZM7.19008 11.2061C7.60909 11.2924 8.04612 11.2619 8.44722 11.1181L8.31224 10.7416C7.98066 10.8605 7.61828 10.8859 7.27079 10.8143L7.19008 11.2061ZM8.44722 11.1181C8.84839 10.9743 9.19743 10.7229 9.44946 10.3931L9.13163 10.1502C8.92823 10.4164 8.64374 10.6227 8.31224 10.7416L8.44722 11.1181ZM9.44946 10.3931C9.70162 10.0631 9.84515 9.66958 9.86014 9.26151L9.46041 9.24682C9.44854 9.57 9.33489 9.88421 9.13163 10.1502L9.44946 10.3931ZM9.82731 9.36417L10.9253 7.69698L10.5912 7.47698L9.49325 9.14416L9.82731 9.36417ZM10.5876 7.69128C10.8714 8.15568 11.0199 8.67984 11.0197 9.21224L11.4197 9.21243C11.42 8.60494 11.2504 8.00873 10.9289 7.48268L10.5876 7.69128ZM11.0197 9.21231C11.0196 9.94198 10.7602 10.6528 10.2792 11.2336L10.5872 11.4888C11.1258 10.8384 11.4196 10.0379 11.4197 9.21235L11.0197 9.21231ZM10.283 11.2291C10.1446 11.3865 10.0715 11.5887 10.0816 11.7969L10.4812 11.7775C10.4763 11.6765 10.5113 11.5752 10.5834 11.4933L10.283 11.2291ZM10.0816 11.7969C10.0917 12.0049 10.184 12.1994 10.3363 12.3438L10.6114 12.0534C10.5309 11.9771 10.4861 11.8785 10.4812 11.7775L10.0816 11.7969ZM10.3374 12.3449L11.6016 13.5238L11.8744 13.2312L10.6103 12.0523L10.3374 12.3449ZM11.6021 13.5242C11.7662 13.6762 11.9852 13.7594 12.2109 13.7597L12.2115 13.3597C12.0825 13.3596 11.9614 13.3118 11.8739 13.2308L11.6021 13.5242ZM12.2112 13.7597H12.2354V13.3597H12.2112V13.7597ZM12.2425 13.7596C12.3592 13.7554 12.4742 13.729 12.5803 13.6815L12.4171 13.3164C12.3585 13.3426 12.2942 13.3575 12.2283 13.3599L12.2425 13.7596ZM12.5803 13.6815C12.6865 13.6341 12.7821 13.5664 12.8608 13.4819L12.568 13.2093C12.5269 13.2535 12.4757 13.2902 12.4171 13.3164L12.5803 13.6815ZM12.8628 13.4797C13.94 12.2873 14.5318 10.7757 14.53 9.2121L14.13 9.21257C14.1317 10.6736 13.5789 12.0903 12.566 13.2115L12.8628 13.4797ZM14.53 9.21233C14.53 7.50696 13.803 5.87453 12.5142 4.67325L12.2415 4.96585C13.4525 6.09465 14.13 7.62248 14.13 9.21233H14.53ZM12.5142 4.67325C11.2259 3.47241 9.48135 2.8 7.665 2.8V3.2C9.38399 3.2 11.03 3.83662 12.2415 4.96585L12.5142 4.67325ZM7.665 2.8C5.84865 2.8 4.10411 3.47241 2.81577 4.67325L3.0885 4.96585C4.30002 3.83662 5.94601 3.2 7.665 3.2V2.8ZM2.81577 4.67325C1.52695 5.87453 0.800004 7.50696 0.800004 9.21233H1.2C1.2 7.62248 1.87746 6.09465 3.0885 4.96585L2.81577 4.67325ZM0.800004 9.21211C0.798243 10.7756 1.39015 12.2871 2.46743 13.4793L2.76421 13.2111C1.75121 12.09 1.19836 10.6735 1.2 9.21256L0.800004 9.21211ZM2.46917 13.4812C2.54771 13.5659 2.64329 13.6338 2.7495 13.6814L2.91307 13.3163C2.85456 13.2901 2.80346 13.2534 2.76247 13.2092L2.46917 13.4812ZM2.7495 13.6814C2.8557 13.7289 2.9707 13.7554 3.08747 13.7596L3.10172 13.3599C3.03584 13.3575 2.9716 13.3426 2.91307 13.3163L2.7495 13.6814ZM11.1479 5.99365C11.1319 5.97976 11.1191 5.95834 11.1162 5.93205L11.5136 5.88713C11.5049 5.80953 11.4666 5.7405 11.41 5.69146L11.1479 5.99365ZM11.1162 5.93205C11.1132 5.9056 11.1209 5.88055 11.1349 5.8619L11.4546 6.10236C11.5004 6.04147 11.5224 5.96489 11.5136 5.88713L11.1162 5.93205ZM11.1277 5.87213L9.39682 8.50057L9.73089 8.72056L11.4618 6.09212L11.1277 5.87213ZM9.75234 8.54368C9.6452 8.24176 9.46568 7.96804 9.22874 7.74299L8.95327 8.03302C9.14591 8.21599 9.28991 8.43663 9.37537 8.67746L9.75234 8.54368ZM9.22874 7.74299C8.99185 7.518 8.70379 7.34753 8.38715 7.2437L8.26252 7.62379C8.52443 7.70967 8.76058 7.85 8.95327 8.03302L9.22874 7.74299ZM8.42419 7.60732L11.2302 6.00122L11.0314 5.65407L8.22548 7.26017L8.42419 7.60732ZM11.2395 5.99556C11.2229 6.00624 11.2048 6.01003 11.1879 6.00832L11.2279 5.61033C11.1565 5.60315 11.0836 5.61995 11.0221 5.65974L11.2395 5.99556ZM11.1879 6.00832C11.1709 6.00662 11.1526 5.99909 11.1374 5.98378L11.4206 5.70133C11.3681 5.64864 11.2993 5.61752 11.2279 5.61033L11.1879 6.00832ZM7.665 10.4399C7.39397 10.4399 7.13005 10.365 6.90673 10.2259L6.69527 10.5654C6.98343 10.7449 7.32087 10.8399 7.665 10.8399V10.4399ZM6.90673 10.2259C6.68352 10.0869 6.51178 9.89069 6.41098 9.66388L6.04545 9.82632C6.18007 10.1292 6.40698 10.3859 6.69527 10.5654L6.90673 10.2259ZM6.41098 9.66388C6.31028 9.43728 6.2842 9.18885 6.33531 8.94933L5.94412 8.86585C5.87522 9.18871 5.91074 9.52318 6.04545 9.82632L6.41098 9.66388ZM6.33531 8.94933C6.38646 8.70968 6.51311 8.48748 6.7017 8.3117L6.42897 8.0191C6.18257 8.24876 6.01299 8.54313 5.94412 8.86585L6.33531 8.94933ZM6.7017 8.3117C6.89043 8.13579 7.13254 8.01457 7.39806 7.96534L7.32514 7.57204C6.98732 7.63468 6.67522 7.78957 6.42897 8.0191L6.7017 8.3117ZM7.39806 7.96534C7.66361 7.91611 7.93873 7.94148 8.1881 8.03776L8.33217 7.6646C8.0132 7.54145 7.66294 7.50942 7.32514 7.57204L7.39806 7.96534ZM8.1881 8.03776C8.4374 8.13401 8.64825 8.29614 8.79553 8.50159L9.12062 8.26854C8.92613 7.99722 8.65121 7.78778 8.33217 7.6646L8.1881 8.03776ZM8.79553 8.50159C8.94266 8.70683 9.02017 8.94651 9.02017 9.19038H9.42017C9.42017 8.86087 9.31526 8.54005 9.12062 8.26854L8.79553 8.50159ZM9.02017 9.19011C9.01972 9.51674 8.88043 9.83297 8.62772 10.0685L8.90045 10.3611C9.23081 10.0532 9.41956 9.63261 9.42017 9.19066L9.02017 9.19011ZM8.62772 10.0685C8.37453 10.3045 8.02845 10.4395 7.66476 10.4399L7.66524 10.8399C8.12614 10.8394 8.57057 10.6686 8.90045 10.3611L8.62772 10.0685ZM12.2308 12.9391C12.23 12.94 12.2283 12.9415 12.2251 12.9429L12.3878 13.3083C12.4393 13.2854 12.4861 13.2523 12.5248 13.2104L12.2308 12.9391ZM12.2251 12.9429C12.222 12.9443 12.218 12.9453 12.2135 12.9454L12.2249 13.3453C12.2809 13.3437 12.3364 13.3312 12.3878 13.3083L12.2251 12.9429ZM12.2079 12.9457C12.2039 12.9459 12.2001 12.9453 12.1969 12.9441L12.06 13.32C12.1146 13.3398 12.1727 13.3483 12.2304 13.345L12.2079 12.9457ZM12.1969 12.9441C12.1938 12.943 12.1921 12.9416 12.1914 12.941L11.9128 13.228C11.955 13.269 12.0054 13.3001 12.06 13.32L12.1969 12.9441ZM12.1885 12.9382L10.9246 11.7595L10.6518 12.0521L11.9157 13.2307L12.1885 12.9382ZM10.9267 11.7615C10.9235 11.7584 10.9242 11.7572 10.9243 11.7588L10.5245 11.771C10.5277 11.8781 10.574 11.9774 10.6497 12.0501L10.9267 11.7615ZM10.9243 11.7588C10.9243 11.7605 10.9235 11.7598 10.926 11.757L10.6331 11.4847C10.5614 11.5617 10.5212 11.6638 10.5245 11.771L10.9243 11.7588ZM10.9335 11.7486C11.5346 11.0242 11.8628 10.1324 11.864 9.21259L11.464 9.21208C11.4629 10.036 11.1691 10.8382 10.6256 11.4931L10.9335 11.7486ZM11.864 9.21246C11.8645 8.45274 11.6274 7.71056 11.1835 7.07674L10.8559 7.30619C11.2537 7.8743 11.4644 8.5366 11.464 9.21221L11.864 9.21246ZM11.1867 7.30147L11.8401 6.30936L11.5061 6.08935L10.8527 7.08146L11.1867 7.30147ZM11.8386 6.31161C11.9045 6.21454 11.9451 6.10311 11.956 5.9866L11.5578 5.94919C11.5533 5.99724 11.5364 6.04454 11.5076 6.0871L11.8386 6.31161ZM11.956 5.9866C11.967 5.87006 11.9478 5.75313 11.9006 5.64587L11.5345 5.8069C11.5545 5.85249 11.5623 5.90117 11.5578 5.94919L11.956 5.9866ZM11.8539 5.87269L12.3509 5.40946L12.0782 5.11685L11.5812 5.58008L11.8539 5.87269ZM12.0733 5.40481C13.1117 6.43973 13.6865 7.80108 13.6857 9.21222L14.0857 9.21245C14.0865 7.69086 13.4665 6.22862 12.3557 5.1215L12.0733 5.40481ZM13.6857 9.21264C13.6877 10.5744 13.1731 11.8951 12.2293 12.9407L12.5263 13.2088C13.5343 12.0919 14.0879 10.6763 14.0857 9.21203L13.6857 9.21264ZM11.7642 4.82387L11.2672 5.28731L11.54 5.57985L12.037 5.11641L11.7642 4.82387ZM11.4749 5.2467C11.3648 5.20475 11.2462 5.18808 11.1286 5.19769L11.1611 5.59637C11.2198 5.59157 11.2786 5.59997 11.3324 5.62046L11.4749 5.2467ZM11.1286 5.19769C11.0109 5.20731 10.8967 5.24301 10.7954 5.30262L10.9983 5.64736C11.0466 5.61892 11.1025 5.60116 11.1611 5.59637L11.1286 5.19769ZM10.7976 5.30139L9.73249 5.91061L9.93109 6.25782L10.9962 5.6486L10.7976 5.30139ZM9.93563 5.91329C9.16558 5.44546 8.25276 5.22882 7.33896 5.29545L7.36804 5.69439C8.20066 5.63368 9.03045 5.8314 9.72795 6.25515L9.93563 5.91329ZM7.33896 5.29545C6.42513 5.36208 5.55872 5.70848 4.87499 6.28314L5.13235 6.58935C5.74958 6.07059 6.53544 5.7551 7.36804 5.69439L7.33896 5.29545ZM5.13997 6.28989L3.5657 4.82378L3.29309 5.1165L4.86736 6.58261L5.13997 6.28989ZM3.56074 5.12097C4.67219 4.15313 6.13901 3.6129 7.665 3.6129V3.2129C6.04584 3.2129 4.48484 3.78586 3.29805 4.81931L3.56074 5.12097ZM7.665 3.6129C9.19099 3.6129 10.6578 4.15313 11.7693 5.12097L12.0319 4.81931C10.8452 3.78586 9.28416 3.2129 7.665 3.2129V3.6129ZM2.9789 5.40947L4.55317 6.87661L4.82588 6.58399L3.25161 5.11684L2.9789 5.40947ZM4.54574 6.59128C3.85254 7.30821 3.46644 8.24171 3.466 9.21224L3.866 9.21242C3.86639 8.34935 4.20952 7.51447 4.83331 6.86932L4.54574 6.59128ZM3.466 9.21259C3.46717 10.1322 3.79522 11.0238 4.39607 11.7481L4.70394 11.4928C4.16072 10.8379 3.86705 10.0358 3.866 9.21208L3.466 9.21259ZM4.4039 11.757C4.40648 11.7598 4.40566 11.7606 4.4057 11.759L4.80555 11.7702C4.80856 11.6629 4.76803 11.5608 4.69611 11.4839L4.4039 11.757ZM4.4057 11.759C4.40575 11.7574 4.40646 11.7587 4.40326 11.7618L4.68075 12.0498C4.75642 11.977 4.80254 11.8774 4.80555 11.7702L4.4057 11.759ZM4.40568 11.7595L3.14155 12.9371L3.41421 13.2298L4.67833 12.0521L4.40568 11.7595ZM3.14068 12.9379C3.13915 12.9394 3.13649 12.9413 3.13251 12.9427L3.27202 13.3176C3.32481 13.298 3.37363 13.268 3.41508 13.229L3.14068 12.9379ZM3.13251 12.9427C3.12851 12.9442 3.12378 12.9451 3.11876 12.9449L3.10706 13.3448C3.16314 13.3464 3.21925 13.3373 3.27202 13.3176L3.13251 12.9427ZM3.11876 12.9449C3.11375 12.9448 3.10922 12.9437 3.10555 12.942L2.9439 13.3079C2.99547 13.3307 3.05098 13.3431 3.10706 13.3448L3.11876 12.9449ZM3.10555 12.942C3.1019 12.9404 3.09966 12.9386 3.09849 12.9373L2.80632 13.2105C2.84531 13.2522 2.89231 13.2851 2.9439 13.3079L3.10555 12.942ZM3.10086 12.9399C2.15713 11.8945 1.64244 10.5741 1.64434 9.21261L1.24434 9.21206C1.2423 10.6761 1.79599 12.0914 2.80395 13.2079L3.10086 12.9399ZM1.64434 9.21221C1.64349 7.8011 2.2182 6.43975 3.25645 5.4048L2.97406 5.12151C1.86338 6.22866 1.24342 7.6909 1.24434 9.21245L1.64434 9.21221Z" fill="#757575" mask="url(#path-1-outside-1_1843_8518)"/>
</svg>
