<svg width="14" height="14" viewBox="0 0 14 14" fill="none" xmlns="http://www.w3.org/2000/svg">
<path fill-rule="evenodd" clip-rule="evenodd" d="M9.25132 8.831C6.69244 8.831 4.62566 6.65131 4.62566 3.97192C4.62566 6.65131 2.55067 8.831 0 8.831C2.55067 8.831 4.62566 11.0021 4.62566 13.6815C4.62566 11.0021 6.69244 8.831 9.25132 8.831Z" fill="#00D2FF"/>
<path fill-rule="evenodd" clip-rule="evenodd" d="M14.0002 11.3379C12.5977 11.3379 11.4659 10.1404 11.4659 8.67578C11.4659 10.1404 10.3259 11.3379 8.93164 11.3379C10.3259 11.3379 11.4659 12.5269 11.4659 14.0001C11.4659 12.5269 12.5977 11.3379 14.0002 11.3379Z" fill="#016AFB"/>
<path fill-rule="evenodd" clip-rule="evenodd" d="M12.5401 3.23939C10.8342 3.23939 9.45633 1.792 9.45633 0C9.45633 1.792 8.07848 3.23939 6.37256 3.23939C8.07848 3.23939 9.45633 4.68677 9.45633 6.47877C9.45633 4.68677 10.8342 3.23939 12.5401 3.23939Z" fill="#03A0FF"/>
</svg>