
<svg viewBox="0 0 20 22" fill="none" xmlns="http://www.w3.org/2000/svg">
<path d="M7.60156 20.9386H5.20156C3.21334 20.9386 1.60156 19.3269 1.60156 17.3386V5.33865C1.60156 3.35042 3.21334 1.73865 5.20156 1.73865H13.6016C15.5898 1.73865 17.2016 3.35042 17.2016 5.33865V8.33865M13.0016 14.3386V13.1386C13.0016 12.1445 13.8075 11.3386 14.8016 11.3386C15.7957 11.3386 16.6016 12.1445 16.6016 13.1386V14.9386M13.0016 6.53865H5.20156M9.40156 10.1386H5.20156M7.60156 13.7386H5.20156M12.4016 20.9386H17.2016C17.8643 20.9386 18.4016 20.4014 18.4016 19.7386V16.1386C18.4016 15.4759 17.8643 14.9386 17.2016 14.9386H12.4016C11.7388 14.9386 11.2016 15.4759 11.2016 16.1386V19.7386C11.2016 20.4014 11.7388 20.9386 12.4016 20.9386Z" stroke="currentColor" stroke-width="1.5" stroke-linecap="round" stroke-linejoin="round"/>
</svg>
