<svg width="24" height="24" viewBox="0 0 24 24" fill="none" xmlns="http://www.w3.org/2000/svg">
<path d="M7 11C6.07003 11 5.60504 11 5.22354 11.1022C4.18827 11.3796 3.37962 12.1883 3.10222 13.2235C3 13.605 3 14.07 3 15V16.2C3 17.8802 3 18.7202 3.32698 19.362C3.6146 19.9265 4.07354 20.3854 4.63803 20.673C5.27976 21 6.11984 21 7.8 21H16.2C17.8802 21 18.7202 21 19.362 20.673C19.9265 20.3854 20.3854 19.9265 20.673 19.362C21 18.7202 21 17.8802 21 16.2V15C21 14.07 21 13.605 20.8978 13.2235C20.6204 12.1883 19.8117 11.3796 18.7765 11.1022C18.395 11 17.93 11 17 11M16 7L12 3M12 3L8 7M12 3V15" stroke="#535862" stroke-width="1.5" stroke-linecap="round" stroke-linejoin="round"/>
</svg>
