<svg viewBox="0 0 28 28" fill="none" xmlns="http://www.w3.org/2000/svg">
<g clip-path="url(#clip0_2054_198261)">
<path d="M17.0586 8.0375C16.2547 8.21328 15.6008 8.8789 15.4391 9.68515C15.3852 9.95234 15.4039 10.4445 15.4742 10.693C15.5023 10.7867 15.5211 10.8687 15.5188 10.8711C15.5141 10.8758 14.7359 11.3422 13.7891 11.9117L12.0688 12.9453L11.9516 12.8258C11.8039 12.6758 11.607 12.5422 11.3656 12.4297C11.0469 12.2797 10.9227 12.2539 10.4844 12.2539C10.0461 12.2539 9.92188 12.2797 9.60313 12.4297C9.11797 12.6547 8.7875 12.9852 8.5625 13.4703C8.4125 13.7891 8.38672 13.9133 8.38672 14.3516C8.38672 14.7898 8.4125 14.9141 8.5625 15.2328C8.7875 15.718 9.11797 16.0484 9.60313 16.2734C9.91953 16.4211 10.0484 16.4469 10.4727 16.4492C10.9273 16.4492 11.1219 16.4047 11.4805 16.2195C11.6797 16.1164 11.7523 16.0602 11.9656 15.8492L12.2164 15.6031L13.8406 16.4328C14.7336 16.8898 15.4695 17.2672 15.4719 17.2695C15.4766 17.2742 15.4625 17.3586 15.4414 17.457C15.4086 17.6 15.4039 17.7078 15.4133 17.9703C15.4273 18.343 15.4602 18.4883 15.5938 18.7719C15.8188 19.257 16.1492 19.5875 16.6344 19.8125C16.9531 19.9625 17.0773 19.9883 17.5156 19.9883C17.9539 19.9883 18.0781 19.9625 18.3969 19.8125C18.882 19.5875 19.2125 19.257 19.4375 18.7719C19.5875 18.4531 19.6133 18.3289 19.6133 17.8906C19.6133 17.4523 19.5875 17.3281 19.4375 17.0094C19.2125 16.5242 18.882 16.1937 18.3969 15.9687C18.0781 15.8187 17.9539 15.793 17.5156 15.793C17.1758 15.793 17.1055 15.8 16.9414 15.8492C16.5336 15.9687 16.1141 16.2453 15.875 16.5477L15.8164 16.6227L14.1875 15.7883C13.2922 15.3312 12.5516 14.9492 12.5422 14.9398C12.5328 14.9328 12.5422 14.8578 12.5609 14.7734C12.6172 14.5414 12.5938 14.0023 12.5188 13.7539L12.4625 13.5641L14.1852 12.5281L15.9078 11.4922L16.0367 11.6234C16.2688 11.8578 16.6367 12.0687 16.9766 12.1648C17.1945 12.2234 17.8367 12.2234 18.0547 12.1648C18.5305 12.0312 18.9922 11.7078 19.2547 11.3211C19.3742 11.143 19.5148 10.8453 19.5711 10.6484C19.6297 10.4305 19.6297 9.78828 19.5711 9.57031C19.4375 9.09453 19.1141 8.63281 18.7273 8.37031C18.5539 8.25312 18.2539 8.11015 18.0664 8.05859C17.8648 8.00234 17.2766 7.98828 17.0586 8.0375ZM17.8555 8.76172C18.1016 8.825 18.2844 8.93281 18.4883 9.13672C18.7789 9.425 18.8984 9.71094 18.8984 10.1094C18.8984 10.5078 18.7789 10.7937 18.4883 11.082C18.2 11.3727 17.9141 11.4922 17.5156 11.4922C17.1172 11.4922 16.8313 11.3727 16.543 11.082C16.2523 10.7937 16.1328 10.5078 16.1328 10.1094C16.1328 9.71094 16.2523 9.425 16.543 9.13672C16.7422 8.93515 16.9273 8.825 17.1641 8.76406C17.3352 8.71953 17.682 8.71719 17.8555 8.76172ZM10.8242 13.0039C11.0703 13.0672 11.2531 13.175 11.457 13.3789C11.7477 13.6672 11.8672 13.9531 11.8672 14.3516C11.8672 14.75 11.7477 15.0359 11.457 15.3242C11.1688 15.6148 10.8828 15.7344 10.4844 15.7344C10.0859 15.7344 9.8 15.6148 9.51172 15.3242C9.22109 15.0359 9.10156 14.75 9.10156 14.3516C9.10156 13.9531 9.22109 13.6672 9.51172 13.3789C9.71094 13.1773 9.89609 13.0672 10.1328 13.0062C10.3039 12.9617 10.6508 12.9594 10.8242 13.0039ZM17.8555 16.543C18.1016 16.6062 18.2844 16.7141 18.4883 16.918C18.7789 17.2062 18.8984 17.4922 18.8984 17.8906C18.8984 18.2891 18.7789 18.575 18.4883 18.8633C18.2 19.1539 17.9141 19.2734 17.5156 19.2734C17.1172 19.2734 16.8313 19.1539 16.543 18.8633C16.2523 18.575 16.1328 18.2891 16.1328 17.8906C16.1328 17.4922 16.2523 17.2062 16.543 16.918C16.7422 16.7164 16.9273 16.6062 17.1641 16.5453C17.3352 16.5008 17.682 16.4984 17.8555 16.543Z" fill="#35A6BA"/>
</g>
<defs>
<clipPath id="clip0_2054_198261">
<rect width="12" height="12" fill="white" transform="translate(8 8)"/>
</clipPath>
</defs>
</svg>
