<svg xmlns="http://www.w3.org/2000/svg" viewBox="0 0 19 19" fill="none">
  <path d="M17.2409 6.5837H16.9372C16.4972 6.58759 16.0883 6.35397 15.8703 5.96848C15.8352 5.90229 15.8002 5.83999 15.7573 5.77769C15.5354 5.4 15.5354 4.92885 15.7573 4.54727L15.9092 4.28638C16.3687 3.48427 16.0961 2.46411 15.2979 2.00075L13.2653 0.824839C12.4671 0.365377 11.4431 0.637939 10.9797 1.43616L10.8279 1.69704C10.5748 2.10199 10.1231 2.33951 9.64416 2.31615H9.63637C9.16523 2.33561 8.72134 2.0981 8.47603 1.69704L8.32807 1.43616C7.86471 0.637939 6.84455 0.361483 6.04244 0.824839L4.0099 2.00075C3.21168 2.46411 2.93912 3.48816 3.39858 4.28638L3.54265 4.53948C3.76459 4.93664 3.7568 5.42336 3.52318 5.81663C3.51539 5.82442 3.49203 5.86725 3.48814 5.87893L3.46867 5.91008C3.25062 6.31892 2.83009 6.57591 2.36674 6.5837H2.0747C1.15188 6.5837 0.404284 7.3313 0.400391 8.25801V10.6059C0.400391 11.5288 1.14799 12.2803 2.0747 12.2803H2.37452C2.81452 12.2764 3.22336 12.51 3.44141 12.8955C3.47645 12.9617 3.5115 13.024 3.55433 13.0863C3.77627 13.464 3.77627 13.9351 3.55433 14.3167L3.40247 14.5776C2.94301 15.3797 3.21557 16.3998 4.01379 16.8632L6.05022 18.0391C6.84844 18.4986 7.8725 18.226 8.33586 17.4278L8.48771 17.1669C8.74081 16.762 9.19248 16.5244 9.67141 16.5478H9.67531C10.1503 16.5128 10.602 16.7542 10.8395 17.1669L10.9875 17.4278C11.447 18.226 12.471 18.5025 13.2692 18.0391L15.3057 16.8632C16.1039 16.3998 16.3765 15.3758 15.917 14.5776L15.7729 14.3245C15.551 13.9273 15.5588 13.4406 15.7924 13.0473L15.8469 12.9539C16.065 12.545 16.4855 12.288 16.9449 12.2803H17.237C18.1598 12.2803 18.9074 11.5327 18.9113 10.6059V8.25801C18.9113 7.3313 18.1637 6.5837 17.2409 6.5837ZM17.4862 10.6059C17.4862 10.7422 17.3733 10.8551 17.237 10.8551H16.9449C15.9481 10.8707 15.037 11.4275 14.5659 12.3075C14.0675 13.1447 14.0519 14.1843 14.5308 15.0331L14.6749 15.2862C14.745 15.4069 14.7021 15.5588 14.5853 15.625L12.5489 16.8009C12.4905 16.832 12.4243 16.8437 12.362 16.8243C12.2997 16.8087 12.2452 16.7659 12.2101 16.7074L12.0622 16.4466C11.556 15.5977 10.6293 15.0876 9.64026 15.1149H9.62858C8.65125 15.0915 7.73622 15.6016 7.23782 16.4427L7.08596 16.7113C7.05481 16.7697 7.0003 16.8126 6.93411 16.8282C6.87181 16.8437 6.80172 16.8359 6.74721 16.8048L4.71856 15.6289C4.60175 15.5588 4.55892 15.4069 4.62511 15.2901L4.77697 15.0292C5.25979 14.1999 5.2559 13.1758 4.76529 12.3542L4.67573 12.2024C4.20459 11.3691 3.3207 10.8551 2.36674 10.859H2.06692C1.93063 10.859 1.81772 10.7461 1.81772 10.6098V8.2619C1.81772 8.12562 1.92674 8.0127 2.06692 8.0127H2.35895C3.34017 8.00102 4.23574 7.46368 4.70688 6.60317C4.71467 6.59148 4.73024 6.56033 4.73414 6.55644C5.23254 5.71928 5.24811 4.67965 4.76918 3.83081L4.62511 3.57772C4.55892 3.46091 4.59785 3.30905 4.71467 3.23896L6.7511 2.06305C6.8095 2.0319 6.8757 2.02022 6.938 2.03969C7.0003 2.05526 7.05481 2.0981 7.08986 2.1565L7.23782 2.41738C7.74401 3.26622 8.66682 3.7763 9.65584 3.74905H9.66752C10.6448 3.77241 11.5599 3.26233 12.0583 2.42128L12.2101 2.1604C12.2763 2.04358 12.4282 2.00075 12.5489 2.06695L14.5853 3.24286C14.7021 3.31295 14.745 3.4648 14.6788 3.58161L14.5269 3.8425C14.0441 4.67186 14.048 5.69592 14.5386 6.5175L14.6282 6.66936C15.0993 7.50262 15.9832 8.0166 16.9372 8.0127H17.237C17.3733 8.0127 17.4862 8.12562 17.4862 8.2619V10.6059Z" fill="currentColor"/>
  <path d="M9.65557 5.87128C7.68922 5.87128 6.09668 7.46382 6.09668 9.43017C6.09668 11.3965 7.68922 12.9891 9.65557 12.9891C11.6219 12.9891 13.2145 11.3965 13.2145 9.43017C13.2145 7.46382 11.6219 5.87128 9.65557 5.87128ZM9.65557 11.5678C8.47576 11.5678 7.5179 10.61 7.5179 9.43017C7.5179 8.25036 8.47576 7.2925 9.65557 7.2925C10.8354 7.2925 11.7932 8.25036 11.7932 9.43017C11.7932 10.61 10.8354 11.5678 9.65557 11.5678Z" fill="currentColor"/>
</svg>