<svg xmlns="http://www.w3.org/2000/svg" viewBox="0 0 14 14" fill="#7147e8"><path d="M10.272 12.99c-.166 0-.33-.04-.476-.118l-2.727-1.434a.146.146 0 0 0-.138 0l-2.726 1.434a1.023 1.023 0 0 1-1.485-1.079l.521-3.036a.148.148 0 0 0-.044-.13L.993 6.474a1.023 1.023 0 0 1 .569-1.745l3.046-.443a.147.147 0 0 0 .111-.08l1.362-2.763a1.022 1.022 0 0 1 1.835 0l1.363 2.762a.149.149 0 0 0 .11.08l3.05.443a1.023 1.023 0 0 1 .568 1.746l-2.206 2.15a.148.148 0 0 0-.044.13l.52 3.036a1.024 1.024 0 0 1-1.005 1.197v.002ZM7 10.546c.166 0 .33.04.476.118l2.727 1.433a.14.14 0 0 0 .155-.011.142.142 0 0 0 .06-.145l-.522-3.036A1.025 1.025 0 0 1 10.19 8l2.207-2.15a.148.148 0 0 0-.083-.253l-3.048-.443a1.022 1.022 0 0 1-.77-.56L7.13 1.833a.148.148 0 0 0-.265 0L5.504 4.594a1.022 1.022 0 0 1-.77.56l-3.048.443a.147.147 0 0 0-.082.252L3.81 8a1.025 1.025 0 0 1 .294.906l-.521 3.036a.148.148 0 0 0 .215.156l2.726-1.433c.147-.078.31-.118.476-.118Z"/></svg>