<svg width="14" height="14" viewBox="0 0 14 14" fill="none" xmlns="http://www.w3.org/2000/svg">
<g clip-path="url(#clip0_253_4060)">
<path d="M10.7735 13.125C10.6814 13.1254 10.5916 13.0967 10.5168 13.043L7.00007 10.4934L3.48339 13.043C3.40826 13.0975 3.31775 13.1267 3.22493 13.1263C3.13212 13.126 3.04182 13.0961 2.96709 13.0411C2.89235 12.9861 2.83706 12.9087 2.8092 12.8201C2.78134 12.7316 2.78236 12.6365 2.8121 12.5486L4.18367 8.48614L0.628977 6.04844C0.55198 5.9957 0.493868 5.91972 0.46313 5.83159C0.432392 5.74347 0.43064 5.64783 0.458129 5.55864C0.485619 5.46945 0.54091 5.39139 0.615924 5.33586C0.690937 5.28033 0.781742 5.25025 0.875071 5.25001H5.26046L6.5839 1.17715C6.61241 1.08922 6.66804 1.01258 6.74281 0.958224C6.81757 0.903867 6.90763 0.874588 7.00007 0.874588C7.09251 0.874588 7.18257 0.903867 7.25734 0.958224C7.33211 1.01258 7.38773 1.08922 7.41624 1.17715L8.73968 5.25137H13.1251C13.2185 5.25133 13.3095 5.2812 13.3848 5.33662C13.46 5.39204 13.5155 5.4701 13.5432 5.55936C13.5708 5.64861 13.5692 5.74438 13.5385 5.83264C13.5078 5.9209 13.4496 5.997 13.3725 6.04981L9.81648 8.48614L11.1872 12.5475C11.2094 12.6133 11.2157 12.6834 11.2054 12.752C11.1952 12.8206 11.1688 12.8859 11.1284 12.9423C11.088 12.9987 11.0347 13.0447 10.973 13.0765C10.9113 13.1082 10.8429 13.1249 10.7735 13.125Z" fill="#7147E8" stroke="#7147E8"/>
</g>
<defs>
<clipPath id="clip0_253_4060">
<rect width="14" height="14" fill="white"/>
</clipPath>
</defs>
</svg>
