<svg viewBox="0 0 25 24" fill="none" xmlns="http://www.w3.org/2000/svg">
<path d="M2.00101 0.645676C1.39146 0.748831 0.777221 1.2224 0.500579 1.80382L0.350536 2.12266L0.336469 3.87629C0.322403 5.90187 0.331781 5.98158 0.753777 6.53956L0.98353 6.83964L0.819421 7.03658C0.725644 7.14442 0.58029 7.36948 0.500579 7.53828L0.350536 7.84306V9.69515V11.5472L0.472446 11.8051C0.53809 11.9458 0.683444 12.1756 0.791288 12.3068L0.98353 12.5553L0.791288 12.7992C0.683444 12.9351 0.53809 13.1649 0.472446 13.3056L0.350536 13.5634V15.4155V17.2676L0.500579 17.5865C0.791288 18.196 1.37739 18.6321 2.06197 18.7399C2.2589 18.7728 4.31261 18.7915 7.90896 18.7915H13.4512L13.484 19.0119C13.4981 19.1385 13.5684 19.4058 13.6294 19.6121C13.9529 20.653 14.6187 21.5486 15.5049 22.13C15.9316 22.4113 18.7636 23.8555 18.8902 23.8555C19.0121 23.8555 21.7411 22.4723 22.2006 22.1769C22.932 21.708 23.4806 21.0984 23.8651 20.3154C24.3246 19.387 24.3059 19.5792 24.3246 15.7156C24.3387 11.7629 24.4043 12.1709 23.7338 11.9646C22.7632 11.6692 22.0036 11.1346 21.3941 10.3188C21.2581 10.1312 21.1034 9.95773 21.0518 9.92959C21.0002 9.90146 20.4469 9.8827 19.6264 9.8827H18.2854V9.02465C18.2854 7.87588 18.1869 7.50546 17.7602 7.04126L17.568 6.83495L17.7602 6.62864C17.99 6.38014 18.1213 6.13163 18.215 5.77059C18.3135 5.40017 18.3182 2.5259 18.2197 2.16486C18.0087 1.37714 17.3429 0.772274 16.5505 0.645676C16.1848 0.589409 2.3433 0.589409 2.00101 0.645676ZM16.6724 1.71004C16.9256 1.84602 17.1882 2.14611 17.2491 2.36648C17.282 2.47433 17.3007 3.1167 17.3007 3.9982C17.3007 5.42361 17.296 5.45643 17.1882 5.68619C17.071 5.93938 16.8553 6.15507 16.6115 6.25823C16.4849 6.3098 15.2001 6.31918 9.29686 6.31918C2.44645 6.31918 2.12292 6.31449 1.94474 6.23009C1.71499 6.12694 1.52275 5.93938 1.38677 5.68619C1.29299 5.50332 1.28831 5.44237 1.28831 3.9982C1.28831 2.30084 1.29768 2.25395 1.61652 1.93042C1.98694 1.56469 1.41959 1.58813 9.37657 1.59751L16.4802 1.60689L16.6724 1.71004ZM16.6724 7.43044C16.9209 7.56173 17.1741 7.85712 17.2445 8.09625C17.2773 8.19941 17.3007 8.60734 17.3007 9.08091V9.8827H17.0616C16.9303 9.8827 16.7849 9.90615 16.7381 9.92959C16.6865 9.95773 16.5224 10.1406 16.3723 10.3422C15.7581 11.144 15.0688 11.6316 14.1029 11.9505L13.6809 12.0865H8.08713C5.01594 12.0865 2.39956 12.0724 2.27765 12.0583C1.93537 12.0114 1.60246 11.7817 1.43366 11.4769L1.28831 11.219V9.69515V8.17128L1.42897 7.92277C1.5837 7.64144 1.86034 7.42106 2.14168 7.35542C2.24483 7.33197 5.30196 7.31791 9.40001 7.31791L16.4802 7.32728L16.6724 7.43044ZM20.6673 11.0268C20.8174 11.2425 21.3706 11.7958 21.6801 12.0349C22.0505 12.3209 22.6179 12.6304 23.0352 12.7804L23.4009 12.907L23.3822 15.8141C23.3634 18.9744 23.3634 18.9509 23.0821 19.6355C22.8195 20.2873 22.285 20.939 21.7129 21.3094C21.5629 21.4079 20.8596 21.7783 20.1562 22.1347L18.8715 22.7864L17.5258 22.0925C16.7662 21.7033 16.0394 21.2954 15.8612 21.1594C15.097 20.578 14.5812 19.6871 14.4405 18.7212C14.4171 18.5336 14.3936 17.2161 14.3936 15.6453V12.8976L14.5812 12.8414C15.4064 12.5929 16.4942 11.8286 17.0522 11.0971L17.2257 10.8674H18.8949H20.5595L20.6673 11.0268ZM13.409 14.0089V14.9467H10.2628H7.11654L6.98057 15.0826C6.82115 15.2421 6.79301 15.514 6.91961 15.6922C7.08841 15.9313 7.08372 15.9313 10.3612 15.9313H13.409V16.8691V17.8069H7.86207C1.61184 17.8069 1.98694 17.8256 1.61652 17.4599C1.29768 17.1364 1.28831 17.0895 1.28831 15.3921V13.8917L1.43366 13.6338C1.5415 13.4415 1.64466 13.3384 1.82752 13.2212L2.08072 13.0711H7.74485H13.409V14.0089Z" fill="currentColor"/>
<path d="M3.62354 3.49177C3.45005 3.52459 3.28125 3.76841 3.28125 3.9841C3.28125 4.12476 3.31407 4.19978 3.41723 4.30763C3.5532 4.4436 3.55789 4.4436 4.11586 4.4436C4.64102 4.4436 4.68322 4.43891 4.79575 4.33107C5.05363 4.09194 4.9833 3.66057 4.66446 3.52459C4.51442 3.46363 3.88142 3.44019 3.62354 3.49177Z" fill="currentColor"/>
<path d="M7.18799 3.49177C7.0145 3.52459 6.8457 3.76841 6.8457 3.9841C6.8457 4.12476 6.87853 4.19978 6.98168 4.30763L7.11766 4.4436H11.0797H15.0371L15.159 4.32169C15.3184 4.16227 15.356 3.97941 15.2669 3.76841C15.1309 3.44488 15.2997 3.45895 11.0797 3.46363C8.99788 3.46832 7.24426 3.48239 7.18799 3.49177Z" fill="currentColor"/>
<path d="M3.41723 9.36215C3.30938 9.46999 3.28125 9.54032 3.28125 9.69506C3.28125 9.84979 3.30938 9.92012 3.41723 10.028C3.5532 10.1639 3.55789 10.1639 4.12524 10.1639C4.66446 10.1639 4.69728 10.1593 4.80513 10.0514C5.01612 9.84041 5.01612 9.5497 4.80513 9.3387C4.69728 9.23086 4.66446 9.22617 4.12524 9.22617C3.55789 9.22617 3.5532 9.22617 3.41723 9.36215Z" fill="currentColor"/>
<path d="M6.98168 9.36219C6.87384 9.47003 6.8457 9.54037 6.8457 9.6951C6.8457 9.84983 6.87384 9.92016 6.98168 10.028L7.11766 10.164H11.075C15.4497 10.164 15.1778 10.1827 15.2856 9.85921C15.3278 9.7373 15.3278 9.6529 15.2856 9.53099C15.1778 9.20746 15.4497 9.22621 11.075 9.22621H7.11766L6.98168 9.36219Z" fill="currentColor"/>
<path d="M20.2978 15.0358C20.2368 15.0827 19.8805 15.5141 19.5054 15.997C19.1303 16.4753 18.8067 16.8644 18.788 16.8691C18.7645 16.8691 18.5301 16.7144 18.2675 16.5222C17.6955 16.1095 17.6251 16.072 17.4704 16.072C17.0906 16.072 16.8515 16.48 17.0343 16.8129C17.114 16.9488 18.6332 18.0273 18.802 18.0648C19.0693 18.1257 19.1865 18.0132 20.1337 16.8129C20.6354 16.1752 21.0574 15.5938 21.0761 15.5187C21.1652 15.0968 20.6354 14.7638 20.2978 15.0358Z" fill="currentColor"/>
<path d="M3.41669 15.0826C3.16818 15.3311 3.25727 15.725 3.59017 15.8657C3.78242 15.9454 4.41072 15.9501 4.64048 15.8704C4.97338 15.7531 5.06247 15.3171 4.80459 15.0592C4.69674 14.9514 4.65923 14.9467 4.1247 14.9467C3.55735 14.9467 3.55266 14.9467 3.41669 15.0826Z" fill="currentColor"/>
</svg>
