<svg id="Layer_1" xmlns="http://www.w3.org/2000/svg" version="1.1" viewBox="0 0 24 24">
  <line class="st1" x1="18.94" y1="14.39" x2="5.26" y2="14.39" fill="none" stroke="currentColor" />
  <rect class="st0" x="5.57" y="10.6" width="13.01" height="9.7" rx="1" ry="1" stroke-linejoin="round" stroke-linecap="round" fill="none" stroke="currentColor" />
  <line class="st1" x1="8.77" y1="10.6" x2="8.77" y2="20.54" fill="none" stroke="currentColor" />
  <path class="st0" d="M8.95,1.67v2.9c0,1.42-1.21,2.56-2.69,2.57h-2.89" stroke-linejoin="round" stroke-linecap="round" fill="none" stroke="currentColor" />
  <path class="st1" d="M21.1,20.04V4.04c0-1.66-1.34-3-3-3h-9.79c-1,0-1.93.5-2.49,1.33l-2.21,3.29c-.33.49-.51,1.08-.51,1.67v12.71c0,1.66,1.34,3,3,3h12c1.66,0,3-1.34,3-3Z" fill="none" stroke="currentColor" />
</svg>