<svg width="69" height="68" viewBox="0 0 69 68" fill="none" xmlns="http://www.w3.org/2000/svg">
<path d="M31.3241 1.72692C33.1805 0.655127 35.4677 0.655127 37.3241 1.72692L60.7734 15.2654C62.6299 16.3372 63.7734 18.318 63.7734 20.4616V47.5386C63.7734 49.6822 62.6299 51.663 60.7734 52.7348L37.3241 66.2733C35.4677 67.3451 33.1805 67.3451 31.3241 66.2733L7.87468 52.7348C6.01828 51.663 4.87468 49.6822 4.87468 47.5386V20.4616C4.87468 18.318 6.01828 16.3372 7.87468 15.2654L31.3241 1.72692Z" fill="#378BF7"/>
<path d="M43.3688 32.4039V28.6793C43.3688 23.6914 39.3118 19.6344 34.3239 19.6344C29.3359 19.6344 25.279 23.6914 25.279 28.6793V32.4039C23.8118 32.4039 22.6187 33.5971 22.6187 35.0642V45.7055C22.6187 47.1727 23.8118 48.3658 25.279 48.3658H43.3691C44.8363 48.3658 46.0294 47.1727 46.0294 45.7055V35.0642C46.0294 33.5971 44.8363 32.4039 43.3691 32.4039H43.3688ZM36.1487 44.6416H32.5001L33.1133 40.6592C32.387 40.2388 31.8922 39.462 31.8922 38.5615C31.8922 37.218 32.9816 36.13 34.3237 36.13C35.6672 36.13 36.7552 37.2194 36.7552 38.5615C36.7552 39.4607 36.2604 40.2375 35.5342 40.6592L36.1474 44.6416H36.1487ZM39.6445 32.4039H29.0032V28.6793C29.0032 25.745 31.3895 23.3587 34.3239 23.3587C37.2582 23.3587 39.6445 25.745 39.6445 28.6793V32.4039Z" fill="white"/>
</svg>
