<svg width="20" height="20" viewBox="0 0 20 20" fill="none" xmlns="http://www.w3.org/2000/svg">
<path d="M15.382 0.668828C13.9363 0.237539 12.0249 0 10 0C7.97509 0 6.06376 0.237539 4.61805 0.668828C3.44184 1.01973 2.03973 1.67191 2.03973 2.78598V17.214C2.03973 17.8289 2.48704 18.6954 4.61805 19.3311C6.06376 19.7625 7.97509 20 10 20C12.0249 20 13.9363 19.7625 15.382 19.3312C17.513 18.6954 17.9603 17.8289 17.9603 17.214V2.78598C17.9603 1.67191 16.5582 1.01973 15.382 0.668828ZM4.95309 1.7918C6.29305 1.39203 8.0854 1.17188 10 1.17188C11.9146 1.17188 13.707 1.39203 15.0469 1.7918C16.3627 2.18434 16.7884 2.63109 16.7884 2.78598C16.7884 2.94086 16.3627 3.38762 15.0469 3.78016C13.707 4.17992 11.9146 4.40008 10 4.40008C8.08544 4.40008 6.29305 4.17992 4.95309 3.78016C3.63731 3.38766 3.21161 2.94086 3.21161 2.78598C3.21161 2.63109 3.63731 2.18434 4.95309 1.7918ZM15.0469 18.2082C13.707 18.608 11.9146 18.8281 10 18.8281C8.0854 18.8281 6.29305 18.608 4.95309 18.2082C3.63731 17.8157 3.21161 17.3689 3.21161 17.214V13.9507C3.64809 14.1953 4.15079 14.3824 4.61805 14.5218C6.06376 14.9531 7.97509 15.1907 10 15.1907C12.0249 15.1907 13.9363 14.9531 15.382 14.5218C15.8492 14.3824 16.3519 14.1953 16.7884 13.9507V17.214C16.7884 17.3689 16.3627 17.8157 15.0469 18.2082ZM15.0469 13.3989C13.707 13.7986 11.9146 14.0188 10 14.0188C8.08544 14.0188 6.29305 13.7986 4.95309 13.3989C3.63731 13.0063 3.21161 12.5596 3.21161 12.4047V9.14137C3.64809 9.38594 4.15079 9.57309 4.61805 9.7125C6.06376 10.1438 7.97509 10.3813 10 10.3813C12.0249 10.3813 13.9363 10.1438 15.382 9.7125C15.8492 9.57309 16.3519 9.38594 16.7884 9.14137V12.4047C16.7884 12.5595 16.3627 13.0063 15.0469 13.3989ZM15.0469 8.58953C13.707 8.9893 11.9146 9.20945 10 9.20945C8.08544 9.20945 6.29305 8.9893 4.95309 8.58953C3.63731 8.19699 3.21161 7.75023 3.21161 7.59535V4.33203C3.64809 4.5766 4.15079 4.76375 4.61805 4.90316C6.06376 5.33445 7.97509 5.57199 10 5.57199C12.0249 5.57199 13.9363 5.33445 15.382 4.90316C15.8492 4.76375 16.3519 4.5766 16.7884 4.33203V7.59535C16.7884 7.7502 16.3627 8.19699 15.0469 8.58953Z" fill="#361A8F"/>
<path d="M8.21173 6.78955H9.38361V7.99186H8.21173V6.78955Z" fill="#361A8F"/>
<path d="M10.6164 6.78955H11.7883V7.99186H10.6164V6.78955Z" fill="#361A8F"/>
<path d="M8.21173 11.5989H9.38361V12.8012H8.21173V11.5989Z" fill="#361A8F"/>
<path d="M10.6164 11.5989H11.7883V12.8012H10.6164V11.5989Z" fill="#361A8F"/>
<path d="M8.21173 16.4082H9.38361V17.6105H8.21173V16.4082Z" fill="#361A8F"/>
<path d="M10.6164 16.4082H11.7883V17.6105H10.6164V16.4082Z" fill="#361A8F"/>
</svg>
