<svg viewBox="0 0 24 24" fill="none" xmlns="http://www.w3.org/2000/svg">
<path d="M19.2409 9.58373H18.9372C18.4972 9.58762 18.0883 9.354 17.8703 8.96852C17.8352 8.90232 17.8002 8.84002 17.7573 8.77772C17.5354 8.40003 17.5354 7.92888 17.7573 7.5473L17.9092 7.28641C18.3687 6.4843 18.0961 5.46414 17.2979 5.00078L15.2653 3.82487C14.4671 3.36541 13.4431 3.63797 12.9797 4.43619L12.8279 4.69707C12.5748 5.10202 12.1231 5.33954 11.6442 5.31618H11.6364C11.1652 5.33565 10.7213 5.09813 10.476 4.69707L10.3281 4.43619C9.86471 3.63797 8.84455 3.36151 8.04244 3.82487L6.0099 5.00078C5.21168 5.46414 4.93912 6.4882 5.39858 7.28641L5.54265 7.53951C5.76459 7.93667 5.7568 8.42339 5.52318 8.81666C5.51539 8.82445 5.49203 8.86728 5.48814 8.87896L5.46867 8.91011C5.25062 9.31895 4.83009 9.57594 4.36674 9.58373H4.0747C3.15188 9.58373 2.40428 10.3313 2.40039 11.258V13.606C2.40039 14.5288 3.14799 15.2803 4.0747 15.2803H4.37452C4.81452 15.2764 5.22336 15.51 5.44141 15.8955C5.47645 15.9617 5.5115 16.024 5.55433 16.0863C5.77627 16.464 5.77627 16.9351 5.55433 17.3167L5.40247 17.5776C4.94301 18.3797 5.21557 19.3999 6.01379 19.8632L8.05022 21.0391C8.84844 21.4986 9.8725 21.226 10.3359 20.4278L10.4877 20.1669C10.7408 19.762 11.1925 19.5245 11.6714 19.5478H11.6753C12.1503 19.5128 12.602 19.7542 12.8395 20.1669L12.9875 20.4278C13.447 21.226 14.471 21.5025 15.2692 21.0391L17.3057 19.8632C18.1039 19.3999 18.3765 18.3758 17.917 17.5776L17.7729 17.3245C17.551 16.9273 17.5588 16.4406 17.7924 16.0474L17.8469 15.9539C18.065 15.5451 18.4855 15.2881 18.9449 15.2803H19.237C20.1598 15.2803 20.9074 14.5327 20.9113 13.606V11.258C20.9113 10.3313 20.1637 9.58373 19.2409 9.58373ZM19.4862 13.606C19.4862 13.7423 19.3733 13.8552 19.237 13.8552H18.9449C17.9481 13.8707 17.037 14.4276 16.5659 15.3075C16.0675 16.1447 16.0519 17.1843 16.5308 18.0332L16.6749 18.2863C16.745 18.407 16.7021 18.5588 16.5853 18.625L14.5489 19.8009C14.4905 19.8321 14.4243 19.8438 14.362 19.8243C14.2997 19.8087 14.2452 19.7659 14.2101 19.7075L14.0622 19.4466C13.556 18.5978 12.6293 18.0877 11.6403 18.1149H11.6286C10.6512 18.0916 9.73622 18.6017 9.23782 19.4427L9.08596 19.7114C9.05481 19.7698 9.0003 19.8126 8.93411 19.8282C8.87181 19.8438 8.80172 19.836 8.74721 19.8048L6.71856 18.6289C6.60175 18.5588 6.55892 18.407 6.62511 18.2902L6.77697 18.0293C7.25979 17.1999 7.2559 16.1758 6.76529 15.3543L6.67573 15.2024C6.20459 14.3691 5.3207 13.8552 4.36674 13.8591H4.06692C3.93063 13.8591 3.81772 13.7461 3.81772 13.6099V11.2619C3.81772 11.1257 3.92674 11.0127 4.06692 11.0127H4.35895C5.34017 11.0011 6.23574 10.4637 6.70688 9.6032C6.71467 9.59152 6.73024 9.56036 6.73414 9.55647C7.23254 8.71931 7.24811 7.67968 6.76918 6.83085L6.62511 6.57775C6.55892 6.46094 6.59785 6.30908 6.71467 6.239L8.7511 5.06308C8.8095 5.03193 8.8757 5.02025 8.938 5.03972C9.0003 5.05529 9.05481 5.09813 9.08986 5.15653L9.23782 5.41741C9.74401 6.26625 10.6668 6.77633 11.6558 6.74908H11.6675C12.6448 6.77244 13.5599 6.26236 14.0583 5.42131L14.2101 5.16043C14.2763 5.04361 14.4282 5.00078 14.5489 5.06698L16.5853 6.24289C16.7021 6.31298 16.745 6.46483 16.6788 6.58165L16.5269 6.84253C16.0441 7.6719 16.048 8.69595 16.5386 9.51753L16.6282 9.66939C17.0993 10.5027 17.9832 11.0166 18.9372 11.0127H19.237C19.3733 11.0127 19.4862 11.1257 19.4862 11.2619V13.606Z" fill="currentColor"/>
<path d="M11.6556 8.87131C9.68922 8.87131 8.09668 10.4639 8.09668 12.4302C8.09668 14.3965 9.68922 15.9891 11.6556 15.9891C13.6219 15.9891 15.2145 14.3965 15.2145 12.4302C15.2145 10.4639 13.6219 8.87131 11.6556 8.87131ZM11.6556 14.5679C10.4758 14.5679 9.5179 13.61 9.5179 12.4302C9.5179 11.2504 10.4758 10.2925 11.6556 10.2925C12.8354 10.2925 13.7932 11.2504 13.7932 12.4302C13.7932 13.61 12.8354 14.5679 11.6556 14.5679Z" fill="currentColor"/>
</svg>
