<svg viewBox="0 0 40 40" fill="none" xmlns="http://www.w3.org/2000/svg">
<g opacity="0.8">
<path opacity="0.4" d="M36.667 10.8333H26.667" stroke="currentColor" stroke-width="1.5" stroke-miterlimit="10" stroke-linecap="round" stroke-linejoin="round"/>
<path d="M9.99967 10.8333H3.33301M16.6663 16.6667C17.4324 16.6667 18.1909 16.5158 18.8987 16.2226C19.6064 15.9295 20.2495 15.4998 20.7911 14.9581C21.3328 14.4164 21.7625 13.7734 22.0556 13.0657C22.3488 12.3579 22.4997 11.5994 22.4997 10.8333C22.4997 10.0673 22.3488 9.30874 22.0556 8.60101C21.7625 7.89328 21.3328 7.25022 20.7911 6.70854C20.2495 6.16687 19.6064 5.73719 18.8987 5.44404C18.1909 5.15088 17.4324 5 16.6663 5C15.1192 5 13.6355 5.61458 12.5416 6.70854C11.4476 7.80251 10.833 9.28624 10.833 10.8333C10.833 12.3804 11.4476 13.8642 12.5416 14.9581C13.6355 16.0521 15.1192 16.6667 16.6663 16.6667Z" stroke="currentColor" stroke-width="1.5" stroke-miterlimit="10" stroke-linecap="round" stroke-linejoin="round"/>
<path opacity="0.4" d="M13.333 29.1667H3.33301" stroke="currentColor" stroke-width="1.5" stroke-miterlimit="10" stroke-linecap="round" stroke-linejoin="round"/>
<path d="M36.6667 29.1666H30M23.3333 35C24.8804 35 26.3642 34.3854 27.4581 33.2914C28.5521 32.1975 29.1667 30.7137 29.1667 29.1666C29.1667 27.6195 28.5521 26.1358 27.4581 25.0419C26.3642 23.9479 24.8804 23.3333 23.3333 23.3333C21.7862 23.3333 20.3025 23.9479 19.2085 25.0419C18.1146 26.1358 17.5 27.6195 17.5 29.1666C17.5 30.7137 18.1146 32.1975 19.2085 33.2914C20.3025 34.3854 21.7862 35 23.3333 35Z" stroke="currentColor" stroke-width="1.5" stroke-miterlimit="10" stroke-linecap="round" stroke-linejoin="round"/>
</g>
</svg>
