<svg width="16" height="16" viewBox="0 0 16 16" fill="none" xmlns="http://www.w3.org/2000/svg">
<g clip-path="url(#clip0_635_4922)">
<path d="M12.0781 0.0499983C11.0063 0.284373 10.1344 1.17187 9.91875 2.24687C9.84688 2.60312 9.87188 3.25937 9.96563 3.59062C10.0031 3.71562 10.0281 3.825 10.025 3.82812C10.0188 3.83437 8.98125 4.45625 7.71875 5.21562L5.425 6.59375L5.26875 6.43437C5.07188 6.23437 4.80938 6.05625 4.4875 5.90625C4.0625 5.70625 3.89688 5.67187 3.3125 5.67187C2.72813 5.67187 2.5625 5.70625 2.1375 5.90625C1.49063 6.20625 1.05 6.64687 0.75 7.29375C0.55 7.71875 0.515625 7.88437 0.515625 8.46875C0.515625 9.05312 0.55 9.21875 0.75 9.64375C1.05 10.2906 1.49063 10.7312 2.1375 11.0312C2.55938 11.2281 2.73125 11.2625 3.29688 11.2656C3.90313 11.2656 4.1625 11.2062 4.64063 10.9594C4.90625 10.8219 5.00313 10.7469 5.2875 10.4656L5.62188 10.1375L7.7875 11.2437C8.97813 11.8531 9.95938 12.3562 9.9625 12.3594C9.96875 12.3656 9.95 12.4781 9.92188 12.6094C9.87813 12.8 9.87188 12.9437 9.88438 13.2937C9.90313 13.7906 9.94688 13.9844 10.125 14.3625C10.425 15.0094 10.8656 15.45 11.5125 15.75C11.9375 15.95 12.1031 15.9844 12.6875 15.9844C13.2719 15.9844 13.4375 15.95 13.8625 15.75C14.5094 15.45 14.95 15.0094 15.25 14.3625C15.45 13.9375 15.4844 13.7719 15.4844 13.1875C15.4844 12.6031 15.45 12.4375 15.25 12.0125C14.95 11.3656 14.5094 10.925 13.8625 10.625C13.4375 10.425 13.2719 10.3906 12.6875 10.3906C12.2344 10.3906 12.1406 10.4 11.9219 10.4656C11.3781 10.625 10.8188 10.9937 10.5 11.3969L10.4219 11.4969L8.25 10.3844C7.05625 9.775 6.06875 9.26562 6.05625 9.25312C6.04375 9.24375 6.05625 9.14375 6.08125 9.03125C6.15625 8.72187 6.125 8.00312 6.025 7.67187L5.95 7.41875L8.24688 6.0375L10.5438 4.65625L10.7156 4.83125C11.025 5.14375 11.5156 5.425 11.9688 5.55312C12.2594 5.63125 13.1156 5.63125 13.4063 5.55312C14.0406 5.375 14.6563 4.94375 15.0063 4.42812C15.1656 4.19062 15.3531 3.79375 15.4281 3.53125C15.5063 3.24062 15.5063 2.38437 15.4281 2.09375C15.25 1.45937 14.8188 0.843749 14.3031 0.493749C14.0719 0.337499 13.6719 0.146873 13.4219 0.078124C13.1531 0.00312328 12.3688 -0.0156269 12.0781 0.0499983ZM13.1406 1.01562C13.4688 1.1 13.7125 1.24375 13.9844 1.51562C14.3719 1.9 14.5313 2.28125 14.5313 2.8125C14.5313 3.34375 14.3719 3.725 13.9844 4.10937C13.6 4.49687 13.2188 4.65625 12.6875 4.65625C12.1563 4.65625 11.775 4.49687 11.3906 4.10937C11.0031 3.725 10.8438 3.34375 10.8438 2.8125C10.8438 2.28125 11.0031 1.9 11.3906 1.51562C11.6563 1.24687 11.9031 1.1 12.2188 1.01875C12.4469 0.959373 12.9094 0.956248 13.1406 1.01562ZM3.76563 6.67187C4.09375 6.75625 4.3375 6.9 4.60938 7.17187C4.99688 7.55625 5.15625 7.9375 5.15625 8.46875C5.15625 9 4.99688 9.38125 4.60938 9.76562C4.225 10.1531 3.84375 10.3125 3.3125 10.3125C2.78125 10.3125 2.4 10.1531 2.01563 9.76562C1.62813 9.38125 1.46875 9 1.46875 8.46875C1.46875 7.9375 1.62813 7.55625 2.01563 7.17187C2.28125 6.90312 2.52813 6.75625 2.84375 6.675C3.07188 6.61562 3.53438 6.6125 3.76563 6.67187ZM13.1406 11.3906C13.4688 11.475 13.7125 11.6187 13.9844 11.8906C14.3719 12.275 14.5313 12.6562 14.5313 13.1875C14.5313 13.7187 14.3719 14.1 13.9844 14.4844C13.6 14.8719 13.2188 15.0312 12.6875 15.0312C12.1563 15.0312 11.775 14.8719 11.3906 14.4844C11.0031 14.1 10.8438 13.7187 10.8438 13.1875C10.8438 12.6562 11.0031 12.275 11.3906 11.8906C11.6563 11.6219 11.9031 11.475 12.2188 11.3937C12.4469 11.3344 12.9094 11.3312 13.1406 11.3906Z" fill="#currentColor"/>
</g>
<defs>
<clipPath id="clip0_635_4922">
<rect width="16" height="16" fill="white"/>
</clipPath>
</defs>
</svg>
