<svg viewBox="0 0 20 20" fill="none" xmlns="http://www.w3.org/2000/svg">
<path d="M10.0089 7.46018C10.0089 8.72267 9.70565 9.85293 9.22814 10.6596C8.74866 11.4698 8.11725 11.9204 7.46019 11.9204C6.80312 11.9204 6.17171 11.4698 5.69223 10.6596C5.21472 9.85293 4.91151 8.72302 4.91151 7.46018C4.91151 6.19768 5.21472 5.06742 5.69223 4.26074C6.17171 3.45057 6.80312 3 7.46019 3C8.11725 3 8.74866 3.45057 9.22814 4.26074C9.70532 5.06707 10.0089 6.19768 10.0089 7.46018Z" stroke="#292929" stroke-opacity="0.4" stroke-width="0.6"/>
<path d="M3.39484 9.23071C4.84275 9.75337 8.53057 10.4844 11.7025 9.23071" stroke="#292929" stroke-opacity="0.4" stroke-width="0.6"/>
<path d="M11.7025 5.76921C10.2546 5.24656 6.56679 4.51553 3.39484 5.76921" stroke="#292929" stroke-opacity="0.35" stroke-width="0.6"/>
<path d="M7.5 12C9.98528 12 12 9.98528 12 7.5C12 5.01472 9.98528 3 7.5 3C5.01472 3 3 5.01472 3 7.5C3 9.98528 5.01472 12 7.5 12Z" stroke="#292929" stroke-width="0.6"/>
<path d="M3 7.20771H11.9204M7.46018 11.9204V3" stroke="#292929" stroke-opacity="0.4" stroke-width="0.6"/>
<path d="M15.6726 14.9735C15.6726 15.8151 15.4704 16.5686 15.1521 17.1064C14.8324 17.6465 14.4115 17.9469 13.9735 17.9469C13.5354 17.9469 13.1145 17.6465 12.7948 17.1064C12.4765 16.5686 12.2743 15.8153 12.2743 14.9735C12.2743 14.1318 12.4765 13.3783 12.7948 12.8405C13.1145 12.3004 13.5354 12 13.9735 12C14.4115 12 14.8324 12.3004 15.1521 12.8405C15.4702 13.378 15.6726 14.1318 15.6726 14.9735Z" stroke="#292929" stroke-opacity="0.4" stroke-width="0.5"/>
<path d="M11.2632 16.1538C12.2285 16.5022 14.6871 16.9896 16.8017 16.1538" stroke="#292929" stroke-opacity="0.4" stroke-width="0.5"/>
<path d="M16.8017 13.8462C15.8364 13.4977 13.3779 13.0104 11.2632 13.8462" stroke="#292929" stroke-opacity="0.35" stroke-width="0.5"/>
<path d="M14 18C15.6569 18 17 16.6569 17 15C17 13.3431 15.6569 12 14 12C12.3431 12 11 13.3431 11 15C11 16.6569 12.3431 18 14 18Z" stroke="#292929" stroke-width="0.5"/>
<path d="M11 14.8051H16.9469M13.9735 17.9469V12" stroke="#292929" stroke-opacity="0.4" stroke-width="0.5"/>
<path d="M8 13V14C8 14.5523 8.44772 15 9 15H10" stroke="black" stroke-width="0.5" stroke-linejoin="round"/>
</svg>
