<svg xmlns="http://www.w3.org/2000/svg" width="20" height="20" fill="none"><path fill="#76746F" d="M0 2.643v14.714h20V2.643H0Zm18.828 13.542H1.172V7.982h17.656v8.203Zm0-9.375H1.172V3.815h17.656V6.81Z"/><path fill="#76746F" d="M3.255 4.727H2.083v1.171h1.172V4.727ZM5.169 4.727H3.997v1.171H5.17V4.727ZM7.083 4.727H5.911v1.171h1.172V4.727ZM7.6 12.385a.96.96 0 0 0-.25-.348 1.61 1.61 0 0 0-.397-.25 4.254 4.254 0 0 0-.518-.193c-.12-.039-.23-.072-.325-.1a1.863 1.863 0 0 1-.243-.085.507.507 0 0 1-.153-.096.184.184 0 0 1-.052-.135c0-.074.03-.127.09-.158a.534.534 0 0 1 .244-.047c.125 0 .253.02.383.061a3.39 3.39 0 0 1 .718.32l.492-.943a8.445 8.445 0 0 0-.316-.15 3.987 3.987 0 0 0-.797-.257 2.236 2.236 0 0 0-.445-.044c-.207 0-.403.03-.589.09-.185.061-.35.15-.495.267a1.252 1.252 0 0 0-.343.44 1.399 1.399 0 0 0-.126.609c0 .152.021.287.062.404a.88.88 0 0 0 .19.313c.086.092.196.174.328.246.133.073.291.14.475.202.125.043.243.08.354.112.111.031.21.062.296.094a.663.663 0 0 1 .202.108c.05.04.073.09.073.15a.152.152 0 0 1-.073.131c-.049.033-.135.05-.26.05-.164 0-.325-.024-.484-.07a3.458 3.458 0 0 1-.852-.387l-.492 1.002c.125.074.26.14.407.199a4.165 4.165 0 0 0 .935.252c.16.023.316.035.468.035.191 0 .382-.022.571-.067a1.54 1.54 0 0 0 .51-.22c.15-.102.271-.237.363-.407.092-.17.138-.38.138-.63 0-.195-.03-.361-.088-.498ZM11.661 13.469a2.062 2.062 0 0 0 .527-1.377 2.158 2.158 0 0 0-.574-1.459c-.183-.199-.404-.36-.662-.483a1.973 1.973 0 0 0-.861-.185 2.08 2.08 0 0 0-.852.173 2.13 2.13 0 0 0-1.117 1.14 2.044 2.044 0 0 0-.158.79 2.164 2.164 0 0 0 .58 1.462 2.029 2.029 0 0 0 1.523.653 2.05 2.05 0 0 0 .973-.229l.188.2h1.066l-.633-.685Zm-.662-1.102c-.02.098-.05.192-.094.282l-.228-.252H9.61l.686.75a.849.849 0 0 1-.217.023.855.855 0 0 1-.72-.334 1.062 1.062 0 0 1-.176-.348 1.461 1.461 0 0 1-.003-.808c.037-.132.095-.249.173-.352a.903.903 0 0 1 .296-.252.882.882 0 0 1 .424-.097c.16 0 .3.03.42.09a.89.89 0 0 1 .298.244c.08.102.14.218.179.348.039.131.058.267.058.408 0 .101-.01.2-.029.298ZM13.817 13.158V9.995h-1.142v4.16h3.028v-.997h-1.886Z"/></svg>