<svg viewBox="0 0 40 40" fill="none" xmlns="http://www.w3.org/2000/svg">
<path fill-rule="evenodd" clip-rule="evenodd" d="M18.8296 5.68988C19.5738 4.49921 21.3078 4.49921 22.052 5.68988L27.1505 13.8475L33.9418 15.7709C35.2641 16.1454 35.7637 17.7565 34.8853 18.8134L29.9742 24.7225L30.9786 33.7622C31.1351 35.1708 29.7501 36.2487 28.4231 35.7511L20.4408 32.7577L12.4585 35.7511C11.1315 36.2487 9.74645 35.1708 9.90295 33.7622L10.9029 24.7626L5.33352 18.9105C4.33342 17.8596 4.83242 16.1209 6.23759 15.7603L13.7387 13.8354L18.8296 5.68988ZM20.4408 6.88556L15.4134 14.9293C15.1549 15.343 14.7471 15.6414 14.2745 15.7627L6.89978 17.6552L12.3838 23.4175C12.7703 23.8237 12.9577 24.3799 12.8958 24.9372L11.9087 33.8213L19.7736 30.8719C20.2038 30.7106 20.6778 30.7106 21.1079 30.8719L28.9729 33.8213L27.9817 24.9011C27.9247 24.3881 28.0789 23.8739 28.4089 23.4769L33.2489 17.6533L26.5684 15.7613C26.1146 15.6328 25.7249 15.3401 25.4749 14.9402L20.4408 6.88556Z" fill="#DC7F2F"/>
</svg>