<svg viewBox="0 0 50 50" fill="none" xmlns="http://www.w3.org/2000/svg">
<path d="M49.9968 27.3271C49.9968 29.8172 48.9894 32.0726 47.358 33.7012C45.7266 35.3356 43.4742 36.3428 40.984 36.3428H9.01282C4.03542 36.3428 0 32.3074 0 27.3271C0 24.8399 1.01034 22.5845 2.63876 20.953C3.88982 19.705 5.50932 18.8195 7.319 18.4777C7.31011 18.3262 7.30416 18.1717 7.30416 18.0171C7.30416 13.9965 10.564 10.7368 14.5845 10.7368C15.3809 10.7368 16.1476 10.8646 16.8667 11.1053C18.7715 6.98369 22.9435 4.125 27.7813 4.125C34.4198 4.125 39.8013 9.50648 39.8013 16.1451C39.8013 16.8849 39.7329 17.61 39.6052 18.3143H40.984C45.9614 18.3143 49.9968 22.3497 49.9968 27.3271Z" fill="#E5E8EF"/>
<path d="M50 27.3304C50 29.8144 48.9923 32.0722 47.3595 33.7048C45.7269 35.3377 43.4771 36.3451 40.985 36.3451H37.8602C40.3523 36.3451 42.6021 35.3377 44.2347 33.7048C45.8675 32.0722 46.8752 29.8144 46.8752 27.3304C46.8752 22.3461 42.8365 18.3154 37.8602 18.3154H36.4774C36.6103 17.612 36.6727 16.8857 36.6727 16.1434C36.6727 10.0266 32.1106 4.98806 26.2047 4.23013C26.7202 4.15994 27.2436 4.12866 27.7828 4.12866C34.4229 4.12866 39.7975 9.50323 39.7975 16.1434C39.7975 16.8857 39.7351 17.612 39.6022 18.3154H40.985C45.9613 18.3154 50 22.3461 50 27.3304Z" fill="#CDD4DF"/>
<g opacity="0.28">
<path d="M15.3514 17.7302C14.0468 19.0348 12.367 19.472 11.6014 18.7144C10.8436 17.9488 11.2811 16.2691 12.5857 14.9645C13.8904 13.6599 15.5702 13.222 16.3358 13.9799C17.0936 14.7456 16.656 16.4175 15.3514 17.7302Z" fill="white"/>
</g>
<path d="M39.3125 36.093H35.677V47.819H39.3125V36.093Z" fill="black"/>
<path fill-rule="evenodd" clip-rule="evenodd" d="M24.2529 36.093H30.2819C31.5972 36.093 32.5805 36.4035 33.2317 37.0289C33.8829 37.6542 34.2107 38.5469 34.2107 39.6984C34.2107 40.8843 33.8527 41.8116 33.1412 42.48C32.4296 43.1485 31.3385 43.4805 29.8765 43.4805H27.8884V47.819H24.2529V36.093ZM28.7811 41.1043H27.8884V38.4865H28.9277C29.6091 38.4865 30.0749 38.6159 30.3207 38.8703C30.5665 39.1248 30.6916 39.4396 30.6916 39.8062C30.6916 40.1814 30.5493 40.4962 30.2646 40.7377C29.98 40.9835 29.4841 41.1043 28.7811 41.1043Z" fill="black"/>
<path fill-rule="evenodd" clip-rule="evenodd" d="M19.0217 45.887H14.9161L14.3252 47.819H10.625L15.0368 36.093H19.0044L23.399 47.819H19.6039L19.0217 45.887ZM16.9732 39.1291L18.254 43.3469H15.688L16.9732 39.1291Z" fill="black"/>
<path d="M23.9294 26.5583H18.0427V33.6698H24.0372V32.0612H20.2508V30.6596H23.662V29.2105H20.2508V28.0763H23.9294V26.5583Z" fill="black"/>
<path d="M26.6464 31.19L24.5591 31.3194C24.6237 32.0353 24.8868 32.6261 25.3526 33.1005C25.8183 33.5663 26.6593 33.7992 27.8668 33.7992C28.5568 33.7992 29.1261 33.7 29.5789 33.5016C30.0318 33.3032 30.3854 33.0099 30.6355 32.6261C30.89 32.2423 31.015 31.824 31.015 31.3668C31.015 30.9787 30.9202 30.6251 30.7304 30.3146C30.545 29.9997 30.2388 29.7367 29.8248 29.5253C29.4107 29.314 28.7207 29.1027 27.759 28.8957C27.3709 28.8138 27.1294 28.7232 27.0259 28.6326C26.9224 28.5377 26.8663 28.4386 26.8663 28.3264C26.8663 28.1712 26.931 28.0375 27.0604 27.9297C27.1897 27.8219 27.3838 27.7658 27.6383 27.7658C27.9445 27.7658 28.1903 27.8391 28.3671 27.9857C28.5396 28.128 28.656 28.3652 28.7121 28.6887L30.7778 28.5636C30.6873 27.8219 30.4026 27.2871 29.9283 26.9464C29.4496 26.6057 28.7595 26.4375 27.8496 26.4375C27.1078 26.4375 26.5256 26.5281 26.0987 26.7135C25.6717 26.899 25.3526 27.1577 25.1413 27.4812C24.9299 27.8046 24.8221 28.1496 24.8221 28.5162C24.8221 29.0725 25.0291 29.5297 25.4431 29.8876C25.8571 30.2455 26.5429 30.5345 27.5046 30.7501C28.0954 30.8838 28.4706 31.0175 28.6302 31.1641C28.7897 31.3108 28.8717 31.4746 28.8717 31.6601C28.8717 31.8542 28.7854 32.0267 28.6172 32.1733C28.449 32.3199 28.2032 32.3932 27.8927 32.3932C27.4744 32.3932 27.1509 32.2466 26.9224 31.962C26.7844 31.7852 26.6895 31.5307 26.6464 31.19Z" fill="black"/>
<path d="M38.023 26.5583H31.3342V28.3178H33.581V33.6741H35.7805V28.3178H38.023V26.5583Z" fill="black"/>
<path fill-rule="evenodd" clip-rule="evenodd" d="M10.625 33.6741V26.5583H14.2907C14.9721 26.5583 15.4896 26.6143 15.8476 26.7351C16.2055 26.8515 16.4988 27.0671 16.7144 27.382C16.9344 27.7011 17.0465 28.0849 17.0465 28.5377C17.0465 28.9302 16.9602 29.2752 16.792 29.5598C16.6238 29.8488 16.391 30.0817 16.0977 30.2585C15.9123 30.3706 15.6535 30.4655 15.3257 30.5388C15.5888 30.6294 15.7786 30.7113 15.895 30.8019C15.977 30.8623 16.0934 30.9873 16.2443 31.1771C16.3953 31.3668 16.4988 31.5178 16.5505 31.6213L17.6201 33.6784H15.136L13.963 31.5091C13.812 31.2288 13.6826 31.0434 13.5662 30.9614C13.4066 30.8536 13.2255 30.7976 13.0271 30.7976H12.8331V33.6784H10.625V33.6741ZM13.7603 29.4477H12.8331V27.9944H13.7991C14.2002 27.9944 14.4719 28.0547 14.6185 28.1798C14.7651 28.3006 14.8384 28.4817 14.8384 28.7103C14.8384 28.8655 14.7953 29.0035 14.7004 29.1243C14.6099 29.245 14.4891 29.3183 14.3425 29.3485C14.0535 29.4132 13.8595 29.4477 13.7603 29.4477Z" fill="black"/>
<path d="M46.9491 13.2496L48.875 12.7756V10.3493L46.949 9.87538C46.7489 8.96629 46.3896 8.11865 45.9036 7.3584L46.9321 5.65857L45.2164 3.9429L43.5165 4.97142C42.7563 4.48548 41.9087 4.12622 40.9997 3.92616L40.5257 2H38.0994L37.6254 3.92616C36.7163 4.12622 35.8687 4.48561 35.1084 4.97156L33.4085 3.9431L31.6928 5.65884L32.7213 7.35874C32.2354 8.11899 31.8761 8.96649 31.6761 9.87551L29.75 10.3495V12.7758L31.6761 13.2498C31.8761 14.1588 32.2354 15.0064 32.7214 15.7667L31.693 17.4665L33.4087 19.1822L35.1084 18.1538C35.8687 18.6397 36.7163 18.9992 37.6255 19.1992L38.0994 21.125H40.5257L40.9997 19.1992C41.9089 18.9991 42.7566 18.6397 43.5168 18.1537L45.2165 19.182L46.9321 17.4663L45.9037 15.7667C46.3896 15.0064 46.749 14.1587 46.9491 13.2496Z" fill="#27A2DB"/>
<path d="M39.3125 16.875C42.2465 16.875 44.625 14.4965 44.625 11.5625C44.625 8.62849 42.2465 6.25 39.3125 6.25C36.3785 6.25 34 8.62849 34 11.5625C34 14.4965 36.3785 16.875 39.3125 16.875Z" fill="#DAE6FE"/>
<path d="M39.3125 14.75C41.0729 14.75 42.5 13.3229 42.5 11.5625C42.5 9.80209 41.0729 8.375 39.3125 8.375C37.5521 8.375 36.125 9.80209 36.125 11.5625C36.125 13.3229 37.5521 14.75 39.3125 14.75Z" fill="#44C4A1"/>
</svg>