<svg width="20" height="20" viewBox="0 0 20 20" fill="none" xmlns="http://www.w3.org/2000/svg">
<g clip-path="url(#clip0_11810_75227)">
<path d="M16.25 6.87501V4.37501C16.251 4.20888 16.1857 4.04919 16.0687 3.93126L12.3187 0.18126C12.2008 0.0642678 12.0411 -0.000927527 11.875 9.97262e-06H1.875C0.839453 9.97262e-06 0 0.839502 0 1.87501V18.125C0 19.1606 0.839453 20 1.875 20H6.25V18.75H1.875C1.5298 18.75 1.25 18.4702 1.25 18.125V1.87501C1.25 1.52981 1.5298 1.25001 1.875 1.25001H11.25V3.75001C11.25 4.44036 11.8096 5.00001 12.5 5.00001H15V6.87501H16.25Z" fill="#292929"/>
<path d="M5.625 11.25H6.875C7.2202 11.25 7.5 11.5298 7.5 11.875H8.75C8.75 10.8395 7.91055 10 6.875 10H5.625C4.58945 10 3.75 10.8395 3.75 11.875C3.75 12.9105 4.58945 13.75 5.625 13.75H6.875C7.2202 13.75 7.5 14.0298 7.5 14.375C7.5 14.7202 7.2202 15 6.875 15H5.625C5.2798 15 5 14.7202 5 14.375H3.75C3.75 15.4105 4.58945 16.25 5.625 16.25H6.875C7.91055 16.25 8.75 15.4105 8.75 14.375C8.75 13.3395 7.91055 12.5 6.875 12.5H5.625C5.2798 12.5 5 12.2202 5 11.875C5 11.5298 5.27984 11.25 5.625 11.25Z" fill="#292929"/>
<path d="M14.375 13.75V12.5C14.375 11.1193 13.2557 10 11.875 10C10.4943 10 9.375 11.1193 9.375 12.5V13.75C9.375 15.1307 10.4943 16.25 11.875 16.25H15V15H14.025C14.2497 14.6214 14.3704 14.1902 14.375 13.75ZM13.125 13.75C13.125 14.4404 12.5654 15 11.875 15C11.1846 15 10.625 14.4404 10.625 13.75V12.5C10.625 11.8096 11.1846 11.25 11.875 11.25C12.5654 11.25 13.125 11.8096 13.125 12.5V13.75Z" fill="#292929"/>
<path d="M16.875 15V10H15.625V15.625C15.625 15.9702 15.9048 16.25 16.25 16.25H20V15H16.875Z" fill="#292929"/>
</g>
<defs>
<clipPath id="clip0_11810_75227">
<rect width="20" height="20" fill="white"/>
</clipPath>
</defs>
</svg>
