<svg width="20" height="20" viewBox="0 0 20 20" fill="none" xmlns="http://www.w3.org/2000/svg">
<path d="M0 7.2093V12.7907C0 17.8419 2.15814 20 7.2093 20H12.7907C17.8419 20 20 17.8419 20 12.7907V7.2093C20 2.15814 17.8419 0 12.7907 0H7.2093C2.15814 0 0 2.14884 0 7.2093ZM18.6047 12.7907C18.6047 17.0791 17.0791 18.6047 12.7907 18.6047H7.2093C2.92093 18.6047 1.39535 17.0791 1.39535 12.7907V7.2093C1.39535 2.92093 2.92093 1.39535 7.2093 1.39535H12.7907C17.0791 1.39535 18.6047 2.92093 18.6047 7.2093V12.7907Z" fill="#717680"/>
<path d="M12.7907 0C12.4093 0 12.093 0.316278 12.093 0.697674V19.3023C12.093 19.6837 12.4093 20 12.7907 20C13.1721 20 13.4884 19.6837 13.4884 19.3023V0.697674C13.4884 0.316278 13.1814 0 12.7907 0Z" fill="#717680"/>
<path d="M6.2786 6.92132C6.10186 6.92132 5.92511 6.98643 5.78558 7.12597C5.51581 7.39573 5.51581 7.84225 5.78558 8.11201L7.67395 10.0004L5.78558 11.8888C5.51581 12.1585 5.51581 12.6051 5.78558 12.8748C6.05534 13.1446 6.50186 13.1446 6.77162 12.8748L9.15306 10.4934C9.42282 10.2236 9.42282 9.77713 9.15306 9.50736L6.77162 7.12597C6.64139 6.98643 6.46465 6.92132 6.2786 6.92132Z" fill="#717680"/>
</svg>
