<svg viewBox="0 0 30 30" fill="none" xmlns="http://www.w3.org/2000/svg">
<path opacity="0.4" d="M27.5 8.125H20" stroke="currentColor" stroke-width="1.5" stroke-miterlimit="10" stroke-linecap="round" stroke-linejoin="round"/>
<path d="M7.5 8.125H2.5M12.5 12.5C13.0745 12.5 13.6434 12.3868 14.1742 12.167C14.705 11.9471 15.1873 11.6248 15.5936 11.2186C15.9998 10.8123 16.3221 10.33 16.542 9.79924C16.7618 9.26844 16.875 8.69953 16.875 8.125C16.875 7.55047 16.7618 6.98156 16.542 6.45076C16.3221 5.91996 15.9998 5.43766 15.5936 5.03141C15.1873 4.62515 14.705 4.30289 14.1742 4.08303C13.6434 3.86316 13.0745 3.75 12.5 3.75C11.3397 3.75 10.2269 4.21094 9.40641 5.03141C8.58594 5.85188 8.125 6.96468 8.125 8.125C8.125 9.28532 8.58594 10.3981 9.40641 11.2186C10.2269 12.0391 11.3397 12.5 12.5 12.5Z" stroke="currentColor" stroke-width="1.5" stroke-miterlimit="10" stroke-linecap="round" stroke-linejoin="round"/>
<path opacity="0.4" d="M10 21.875H2.5" stroke="currentColor" stroke-width="1.5" stroke-miterlimit="10" stroke-linecap="round" stroke-linejoin="round"/>
<path d="M27.5 21.875H22.5M17.5 26.25C18.6603 26.25 19.7731 25.7891 20.5936 24.9686C21.4141 24.1481 21.875 23.0353 21.875 21.875C21.875 20.7147 21.4141 19.6019 20.5936 18.7814C19.7731 17.9609 18.6603 17.5 17.5 17.5C16.3397 17.5 15.2269 17.9609 14.4064 18.7814C13.5859 19.6019 13.125 20.7147 13.125 21.875C13.125 23.0353 13.5859 24.1481 14.4064 24.9686C15.2269 25.7891 16.3397 26.25 17.5 26.25Z" stroke="currentColor" stroke-width="1.5" stroke-miterlimit="10" stroke-linecap="round" stroke-linejoin="round"/>
</svg>
