<svg width="25" height="25" viewBox="0 0 25 25" fill="none" xmlns="http://www.w3.org/2000/svg">
<g clip-path="url(#clip0_6713_202783)">
<path d="M18.0256 8.53367C18.4071 8.91514 18.4071 9.5335 18.0256 9.91478L11.4742 16.4663C11.0928 16.8476 10.4746 16.8476 10.0931 16.4663L6.97441 13.3474C6.59294 12.9662 6.59294 12.3478 6.97441 11.9665C7.35569 11.585 7.97405 11.585 8.35533 11.9665L10.7836 14.3948L16.6445 8.53367C17.0259 8.15239 17.6443 8.15239 18.0256 8.53367ZM25 12.5C25 19.4094 19.4084 25 12.5 25C5.59063 25 0 19.4084 0 12.5C0 5.59063 5.59158 0 12.5 0C19.4094 0 25 5.59158 25 12.5ZM23.0469 12.5C23.0469 6.67019 18.329 1.95312 12.5 1.95312C6.67019 1.95312 1.95312 6.67095 1.95312 12.5C1.95312 18.3298 6.67095 23.0469 12.5 23.0469C18.3298 23.0469 23.0469 18.329 23.0469 12.5Z" fill="#1D7C4D"/>
</g>
<defs>
<clipPath id="clip0_6713_202783">
<rect width="25" height="25" fill="white"/>
</clipPath>
</defs>
</svg>
