<svg viewBox="0 0 16 16" fill="none" xmlns="http://www.w3.org/2000/svg">
<path fill-rule="evenodd" clip-rule="evenodd" d="M4.05167 9.4934C3.47907 8.90871 3.0907 8.16883 2.93473 7.36546C2.77747 6.55983 2.85823 5.72587 3.16712 4.9654C3.47338 4.20919 3.99625 3.56033 4.67006 3.1003C6.03717 2.1666 7.83692 2.1666 9.20399 3.1003C9.87786 3.56033 10.4007 4.20919 10.7069 4.9654C11.0159 5.72587 11.0966 6.55983 10.9393 7.36546C10.7834 8.16883 10.395 8.90871 9.82238 9.4934C9.06409 10.2715 8.02362 10.7104 6.93701 10.7104C5.85046 10.7104 4.80999 10.2715 4.05167 9.4934Z" stroke="#1570EF" stroke-width="1.2" stroke-linecap="round" stroke-linejoin="round"/>
<path d="M6.94135 3.85836C6.66864 3.88725 6.471 4.13176 6.49987 4.40448C6.5288 4.6772 6.77331 4.87485 7.04602 4.84596L6.94135 3.85836ZM8.16713 5.50643C8.27406 5.75899 8.56544 5.87704 8.81803 5.77012C9.07055 5.6632 9.1886 5.37181 9.08167 5.11926L8.16713 5.50643ZM10.2332 9.07822C10.0391 8.8845 9.72469 8.88476 9.53096 9.07888C9.33717 9.27294 9.3375 9.58737 9.53156 9.78109L10.2332 9.07822ZM12.8092 13.0548C13.0033 13.2486 13.3177 13.2483 13.5115 13.0542C13.7052 12.8601 13.7049 12.5457 13.5108 12.3519L12.8092 13.0548ZM7.04602 4.84596C7.52438 4.79527 7.97963 5.06345 8.16713 5.50643L9.08167 5.11926C8.72368 4.27357 7.85463 3.76159 6.94135 3.85836L7.04602 4.84596ZM9.53156 9.78109L12.8092 13.0548L13.5108 12.3519L10.2332 9.07822L9.53156 9.78109Z" fill="#1570EF"/>
<path d="M6.94135 3.85836C6.66864 3.88725 6.471 4.13176 6.49987 4.40448C6.5288 4.6772 6.77331 4.87485 7.04602 4.84596M6.94135 3.85836L7.04602 4.84596M6.94135 3.85836C7.85463 3.76159 8.72368 4.27357 9.08167 5.11926M7.04602 4.84596C7.52438 4.79527 7.97963 5.06345 8.16713 5.50643M8.16713 5.50643C8.27406 5.75899 8.56544 5.87704 8.81803 5.77012C9.07055 5.6632 9.1886 5.37181 9.08167 5.11926M8.16713 5.50643L9.08167 5.11926M10.2332 9.07822C10.0391 8.8845 9.72469 8.88476 9.53096 9.07888C9.33717 9.27294 9.3375 9.58737 9.53156 9.78109M10.2332 9.07822L9.53156 9.78109M10.2332 9.07822L13.5108 12.3519M9.53156 9.78109L12.8092 13.0548M12.8092 13.0548C13.0033 13.2486 13.3177 13.2483 13.5115 13.0542C13.7052 12.8601 13.7049 12.5457 13.5108 12.3519M12.8092 13.0548L13.5108 12.3519" stroke="#1570EF" stroke-width="0.2"/>
</svg>
