
<svg viewBox="0 0 16 15" fill="none" xmlns="http://www.w3.org/2000/svg">
<path d="M7.99992 0.25C8.13993 0.24991 8.27718 0.289014 8.39612 0.362887C8.51506 0.43676 8.61094 0.542452 8.67292 0.668L10.5549 4.483L14.7649 5.095C14.9034 5.11511 15.0335 5.17355 15.1404 5.26372C15.2474 5.35388 15.3271 5.47218 15.3703 5.60523C15.4136 5.73829 15.4188 5.8808 15.3853 6.01665C15.3519 6.1525 15.2811 6.27628 15.1809 6.374L12.1349 9.344L12.8539 13.536C12.8772 13.6738 12.8616 13.8154 12.8088 13.9449C12.756 14.0743 12.6681 14.1865 12.5551 14.2687C12.442 14.3509 12.3082 14.3999 12.1688 14.4102C12.0294 14.4205 11.8898 14.3917 11.7659 14.327L7.99992 12.347L4.23392 14.327C4.11011 14.392 3.97059 14.4211 3.83111 14.411C3.69163 14.4009 3.55776 14.352 3.4446 14.2699C3.33144 14.1877 3.24351 14.0755 3.19073 13.946C3.13796 13.8165 3.12243 13.6749 3.14592 13.537L3.86592 9.343L0.81792 6.374C0.717487 6.27632 0.64642 6.15247 0.612772 6.01647C0.579125 5.88047 0.584242 5.73777 0.627545 5.60453C0.670847 5.47129 0.750604 5.35284 0.857776 5.26261C0.964948 5.17238 1.09525 5.11397 1.23392 5.094L5.44392 4.483L7.32692 0.668C7.3889 0.542452 7.48479 0.43676 7.60372 0.362887C7.72266 0.289014 7.85991 0.24991 7.99992 0.25ZM7.99992 2.695L6.61492 5.5C6.56114 5.6089 6.48171 5.70311 6.38346 5.77453C6.28522 5.84595 6.1711 5.89244 6.05092 5.91L2.95392 6.36L5.19392 8.544C5.28107 8.62886 5.34628 8.73365 5.38391 8.84933C5.42154 8.96501 5.43046 9.0881 5.40992 9.208L4.88192 12.292L7.65092 10.836C7.75855 10.7794 7.87832 10.7499 7.99992 10.7499C8.12152 10.7499 8.24129 10.7794 8.34892 10.836L11.1189 12.292L10.5889 9.208C10.5684 9.0881 10.5773 8.96501 10.6149 8.84933C10.6526 8.73365 10.7178 8.62886 10.8049 8.544L13.0449 6.361L9.94892 5.911C9.82874 5.89344 9.71462 5.84695 9.61638 5.77553C9.51813 5.70411 9.4387 5.6099 9.38492 5.501L7.99992 2.695Z" fill="#24292F"/>
</svg>
