<svg viewBox="0 0 24 24" fill="none" xmlns="http://www.w3.org/2000/svg">
<path d="M12 0.375C18.4203 0.375 23.625 5.57969 23.625 12C23.625 18.4203 18.4203 23.625 12 23.625C5.57969 23.625 0.375 18.4203 0.375 12C0.375 5.57969 5.57969 0.375 12 0.375Z" fill="#ECFDF3"/>
<path d="M12 0.375C18.4203 0.375 23.625 5.57969 23.625 12C23.625 18.4203 18.4203 23.625 12 23.625C5.57969 23.625 0.375 18.4203 0.375 12C0.375 5.57969 5.57969 0.375 12 0.375Z" stroke="#ABEFC6" stroke-width="0.75"/>
<g clip-path="url(#clip0_18423_295747)">
<path d="M16.25 11.5429V12.0029C16.2494 13.0811 15.9003 14.1302 15.2547 14.9938C14.6091 15.8573 13.7016 16.4891 12.6677 16.7948C11.6337 17.1005 10.5286 17.0638 9.51724 16.6902C8.50584 16.3165 7.64233 15.6259 7.05548 14.7214C6.46863 13.8169 6.1899 12.7469 6.26084 11.671C6.33178 10.5951 6.7486 9.57103 7.44914 8.7514C8.14968 7.93177 9.09639 7.36055 10.1481 7.12293C11.1998 6.88532 12.3001 6.99403 13.285 7.43286M16.25 8L11.25 13.005L9.75 11.505" stroke="#067647" stroke-width="1.125" stroke-linecap="round" stroke-linejoin="round"/>
</g>
<defs>
<clipPath id="clip0_18423_295747">
<rect width="12" height="12" fill="white" transform="translate(5.25 6)"/>
</clipPath>
</defs>
</svg>
