<svg viewBox="0 0 26 29" fill="none" xmlns="http://www.w3.org/2000/svg">
<path d="M23.4346 7.26086L23.4346 16.6522" stroke="currentColor" stroke-width="1.5"/>
<path d="M12.4775 0.771484C15.5891 0.771484 18.4438 1.37028 20.5479 2.37207C22.5959 3.34732 24.1844 4.84219 24.1846 6.73926C24.1844 8.63626 22.5958 10.1302 20.5479 11.1055C18.4438 12.1073 15.5893 12.7061 12.4775 12.7061C9.36606 12.706 6.51208 12.1073 4.4082 11.1055C3.60094 10.721 2.86679 10.2534 2.27148 9.71484V11.9561C2.27148 12.8923 3.07734 14.028 5.05273 14.9688C6.98272 15.8878 9.65366 16.4237 12.4775 16.4238C13.5795 16.4238 14.6582 16.3406 15.6787 16.1865C14.9536 16.6174 14.3279 17.197 13.8418 17.8828C13.3906 17.9089 12.935 17.9238 12.4775 17.9238C9.49024 17.9237 6.58737 17.36 4.4082 16.3223C3.58514 15.9303 2.85672 15.4623 2.27148 14.9316V17.1738L2.28027 17.3506C2.32298 17.7674 2.51915 18.2157 2.9209 18.6777C3.3849 19.2112 4.09846 19.7311 5.05273 20.1855C6.00363 20.6384 7.15087 21.0054 8.43066 21.2578C9.709 21.5099 11.0848 21.6406 12.4775 21.6406V23.1406C10.9932 23.1406 9.51938 23.0016 8.13965 22.7295C6.76123 22.4576 5.49186 22.0561 4.4082 21.54C3.57664 21.144 2.85203 20.6776 2.27148 20.1504V21.6582L2.28418 21.6602C2.21294 22.2523 2.44339 22.9172 3.13477 23.6006C3.83425 24.2918 4.94127 24.9303 6.39258 25.4189C7.8366 25.9051 9.53432 26.2133 11.3242 26.3066C12.6188 26.3742 13.9223 26.3258 15.1689 26.1699C15.6558 26.531 16.1998 26.8182 16.7842 27.0195L16.8633 27.416C15.0844 27.7713 13.1526 27.9041 11.2461 27.8047C9.34044 27.7053 7.50573 27.3757 5.91406 26.8398C4.32979 26.3064 2.99564 25.5716 2.08105 24.668C1.33074 23.9265 0.856744 23.0599 0.782227 22.1299H0.771484V7.12988H0.794922C0.779882 7.00172 0.771499 6.87137 0.771484 6.73926C0.771627 4.84222 2.36023 3.34732 4.4082 2.37207C6.51207 1.37028 9.3661 0.771577 12.4775 0.771484ZM24.1846 11.9561C24.1846 13.5616 23.0288 14.9268 21.3057 15.9238C20.5982 15.5885 19.815 15.3873 18.9883 15.3535C19.3084 15.2336 19.6144 15.1063 19.9033 14.9688C21.8789 14.028 22.6846 12.8924 22.6846 11.9561H24.1846ZM12.4775 2.27148C9.53854 2.27158 6.91401 2.84024 5.05273 3.72656C3.13572 4.63949 2.27163 5.75507 2.27148 6.73926C2.27171 7.72337 3.136 8.83811 5.05273 9.75098C6.91401 10.6373 9.53854 11.206 12.4775 11.2061C15.4168 11.2061 18.0419 10.6373 19.9033 9.75098C21.8202 8.83809 22.6843 7.72342 22.6846 6.73926C22.6844 5.75505 21.8204 4.6395 19.9033 3.72656C18.0419 2.84025 15.4167 2.27148 12.4775 2.27148Z" fill="currentColor"/>
<path d="M25.0005 27.6087L21.9041 24.5123M23.5714 21.4159C23.5714 24.0468 21.4386 26.1796 18.8077 26.1796C16.1767 26.1796 14.0439 24.0468 14.0439 21.4159C14.0439 18.785 16.1767 16.6522 18.8077 16.6522C21.4386 16.6522 23.5714 18.785 23.5714 21.4159Z" stroke="currentColor"/>
</svg>
