<svg viewBox="0 0 40 40" fill="none" xmlns="http://www.w3.org/2000/svg">
<path d="M19.677 5.22112C20.0295 4.65712 20.8509 4.65712 21.2034 5.22112L26.3223 13.4115C26.4407 13.6009 26.6254 13.7395 26.8403 13.8004L33.6687 15.7343C34.295 15.9117 34.5317 16.6749 34.1156 17.1755L29.1774 23.1173C29.0211 23.3054 28.948 23.5489 28.975 23.7919L29.9841 32.8739C30.0583 33.5411 29.4022 34.0517 28.7736 33.816L20.7562 30.8095C20.5525 30.7331 20.3279 30.7331 20.1242 30.8095L12.1067 33.816C11.4782 34.0517 10.8221 33.5411 10.8962 32.8739L11.9013 23.828C11.9307 23.564 11.8419 23.3005 11.6588 23.1081L6.05732 17.2223C5.58359 16.7246 5.81995 15.9009 6.48556 15.7301L14.0254 13.7953C14.2492 13.7378 14.4424 13.5965 14.5649 13.4005L19.677 5.22112Z" fill="#DC7F2F" fill-opacity="0.4" stroke="#DC7F2F" stroke-width="2"/>
</svg>
