<svg viewBox="0 0 41 40" fill="none" xmlns="http://www.w3.org/2000/svg">
<g opacity="0.8">
<path opacity="0.4" d="M37.0328 11.21H27.1357" stroke="currentColor" stroke-opacity="0.5" stroke-width="1.5" stroke-miterlimit="10" stroke-linecap="round" stroke-linejoin="round"/>
<path d="M10.64 11.21H4.04199M17.2381 16.8428C17.9962 16.8428 18.747 16.6971 19.4474 16.414C20.1479 16.131 20.7843 15.7161 21.3204 15.193C21.8565 14.67 22.2818 14.049 22.5719 13.3656C22.8621 12.6822 23.0114 11.9497 23.0114 11.21C23.0114 10.4703 22.8621 9.73787 22.5719 9.05447C22.2818 8.37107 21.8565 7.75012 21.3204 7.22707C20.7843 6.70402 20.1479 6.28911 19.4474 6.00604C18.747 5.72297 17.9962 5.57727 17.2381 5.57727C15.7069 5.57727 14.2385 6.17072 13.1558 7.22707C12.0731 8.28342 11.4648 9.71614 11.4648 11.21C11.4648 12.7039 12.0731 14.1367 13.1558 15.193C14.2385 16.2494 15.7069 16.8428 17.2381 16.8428Z" stroke="currentColor" stroke-opacity="0.5" stroke-width="1.5" stroke-miterlimit="10" stroke-linecap="round" stroke-linejoin="round"/>
<path opacity="0.4" d="M13.9391 28.913H4.04199" stroke="currentColor" stroke-opacity="0.5" stroke-width="1.5" stroke-miterlimit="10" stroke-linecap="round" stroke-linejoin="round"/>
<path d="M37.0329 28.913H30.4348M23.8368 34.5458C25.3679 34.5458 26.8364 33.9524 27.9191 32.896C29.0018 31.8397 29.6101 30.4069 29.6101 28.913C29.6101 27.4191 29.0018 25.9864 27.9191 24.9301C26.8364 23.8737 25.3679 23.2803 23.8368 23.2803C22.3056 23.2803 20.8371 23.8737 19.7544 24.9301C18.6717 25.9864 18.0635 27.4191 18.0635 28.913C18.0635 30.4069 18.6717 31.8397 19.7544 32.896C20.8371 33.9524 22.3056 34.5458 23.8368 34.5458Z" stroke="currentColor" stroke-opacity="0.5" stroke-width="1.5" stroke-miterlimit="10" stroke-linecap="round" stroke-linejoin="round"/>
</g>
</svg>
