<svg xmlns="http://www.w3.org/2000/svg" width="14" height="14" fill="#7147e8"><path stroke="#7147e8" stroke-width=".2" d="M11.278 2.166H9.955v-.592c0-.191-.21-.278-.4-.278H8.526C8.283.599 7.674.25 6.977.25a1.584 1.584 0 0 0-1.549 1.045h-1.01c-.19 0-.382.087-.382.278v.592H2.712a1.48 1.48 0 0 0-1.462 1.41v8.85c0 .767.696 1.324 1.462 1.324h8.566c.766 0 1.462-.557 1.462-1.323v-8.85a1.48 1.48 0 0 0-1.462-1.41Zm-6.546-.174h.957a.383.383 0 0 0 .331-.313 1.01 1.01 0 0 1 .958-.784.992.992 0 0 1 .94.784c.031.171.174.3.348.313h.992v1.393H4.732V1.992Zm7.312 10.435c0 .383-.383.627-.766.627H2.712c-.383 0-.766-.244-.766-.627v-8.85a.783.783 0 0 1 .766-.714h1.324v.887a.366.366 0 0 0 .383.331h5.135c.2.011.374-.133.4-.33v-.888h1.324c.4.007.73.315.766.713v8.85Z"/><path stroke="#7147e8" stroke-width=".2" d="M5.663 9.526a.283.283 0 0 0-.397-.014l-.906.863-.382-.396a.283.283 0 0 0-.396-.014.297.297 0 0 0 0 .41l.58.595c.05.056.123.087.198.084a.283.283 0 0 0 .199-.085l1.104-1.047a.269.269 0 0 0 0-.396ZM10.243 10H7.368c-.138 0-.25.168-.25.375s.112.375.25.375h2.875c.138 0 .25-.168.25-.375S10.38 10 10.243 10ZM5.663 6.526a.283.283 0 0 0-.396-.014l-.906.863-.382-.396a.283.283 0 0 0-.397-.014.297.297 0 0 0 0 .41l.58.594c.05.057.123.088.199.085a.283.283 0 0 0 .198-.085l1.104-1.047a.269.269 0 0 0 0-.396ZM10.243 7H7.368c-.138 0-.25.168-.25.375s.112.375.25.375h2.875c.138 0 .25-.168.25-.375S10.38 7 10.243 7Z"/></svg>