
<svg  viewBox="0 0 37 37" fill="none" xmlns="http://www.w3.org/2000/svg">
<rect x="1" y="1" width="35" height="35" rx="6" stroke="#757575" stroke-width="1.5"/>
<path d="M13.1523 12.1719C12.9492 12.3906 12.9492 12.8125 13.1523 13.0156C13.293 13.1562 13.4102 13.1719 14.6367 13.1719C19.8633 13.1719 19.9805 13.1562 20.1211 13.0156C20.2148 12.9219 20.2773 12.7578 20.2773 12.5859C20.2773 12.4141 20.2148 12.25 20.1211 12.1562C19.9805 12.0156 19.8633 12 14.6367 12C13.3789 12 13.3086 12.0078 13.1523 12.1719Z" fill="#1890FF"/>
<path d="M13.1523 15.1562C12.9492 15.3594 12.9492 15.7812 13.1523 16L13.3164 16.1719H21.7773C30.207 16.1719 30.2383 16.1719 30.3789 16.0156C30.4648 15.9219 30.5273 15.7344 30.5273 15.5859C30.5273 15.4375 30.4648 15.25 30.3789 15.1562C30.2383 15 30.207 15 21.7695 15C13.4102 15 13.3086 15 13.1523 15.1562Z" fill="#757575" stroke="#757575" stroke-width="0.5"/>
<path d="M7 13.0909L8.09091 14.9091L11 12" stroke="#1890FF" stroke-width="1.5" stroke-linecap="round" stroke-linejoin="round"/>
<path d="M13.1523 20.3438C12.9492 20.5625 12.9492 20.9844 13.1523 21.1875C13.293 21.3281 13.4102 21.3438 14.6367 21.3438C19.8633 21.3438 19.9805 21.3281 20.1211 21.1875C20.2148 21.0938 20.2773 20.9297 20.2773 20.7578C20.2773 20.5859 20.2148 20.4219 20.1211 20.3281C19.9805 20.1875 19.8633 20.1719 14.6367 20.1719C13.3789 20.1719 13.3086 20.1797 13.1523 20.3438Z" fill="#1890FF"/>
<path d="M13.1523 23.5C12.9492 23.7031 12.9492 24.125 13.1523 24.3438L13.3164 24.5156H21.7773C30.207 24.5156 30.2383 24.5156 30.3789 24.3594C30.4648 24.2656 30.5273 24.0781 30.5273 23.9297C30.5273 23.7812 30.4648 23.5938 30.3789 23.5C30.2383 23.3438 30.207 23.3438 21.7695 23.3438C13.4102 23.3438 13.3086 23.3438 13.1523 23.5Z" fill="#757575" stroke="#757575" stroke-width="0.5"/>
<path d="M7 21.4347L8.09091 23.2528L11 20.3438" stroke="#1890FF" stroke-width="1.5" stroke-linecap="round" stroke-linejoin="round"/>
</svg>
