<svg width="14" height="15" viewBox="0 0 14 15" fill="none" xmlns="http://www.w3.org/2000/svg">
<g clip-path="url(#clip0_10824_11086)">
<path d="M11.0993 2.33426H9.8327V1.76764C9.8327 1.58432 9.63273 1.501 9.44941 1.501H8.46617C8.23286 0.834387 7.64956 0.501079 6.98295 0.501079C6.32367 0.476294 5.72401 0.880545 5.49973 1.501H4.53314C4.34982 1.501 4.1665 1.58432 4.1665 1.76764V2.33426H2.8999C2.14933 2.34226 1.53528 2.93437 1.5 3.68414V13.2334C1.5 13.9667 2.16662 14.5 2.8999 14.5H11.0993C11.8326 14.5 12.4992 13.9667 12.4992 13.2334V3.68417C12.4639 2.93437 11.8498 2.34226 11.0993 2.33426ZM4.83308 2.16762H5.74969C5.90969 2.1481 6.03821 2.02637 6.06634 1.86765C6.16504 1.43784 6.54211 1.12932 6.98295 1.11771C7.4197 1.13095 7.7911 1.44043 7.88287 1.86765C7.91276 2.03186 8.04976 2.15515 8.21618 2.16762H9.16612V3.50085H4.83308V2.16762ZM11.8326 13.2334C11.8326 13.6001 11.4659 13.8334 11.0993 13.8334H2.8999C2.53326 13.8334 2.16662 13.6001 2.16662 13.2334V3.68417C2.20062 3.30254 2.5168 3.00789 2.8999 3.00091H4.16646V3.85084C4.18407 4.03758 4.3458 4.17726 4.53311 4.1675H9.44938C9.64013 4.17793 9.80693 4.04016 9.83267 3.85084V3.00087H11.0992C11.4823 3.00789 11.7985 3.30251 11.8325 3.68414V13.2334H11.8326Z" fill="#37352F"/>
<path d="M5.71658 7.95157C5.59157 7.8198 5.38404 7.81236 5.24994 7.93492L4.18335 8.95149L3.73339 8.48485C3.60838 8.35307 3.40084 8.34567 3.26674 8.4682C3.13765 8.60345 3.13765 8.81624 3.26674 8.95149L3.95001 9.65144C4.00915 9.71766 4.09457 9.75428 4.18332 9.75144C4.27123 9.7502 4.35509 9.71425 4.41662 9.65144L5.71652 8.41821C5.84539 8.3 5.854 8.09967 5.73576 7.97083C5.72969 7.9641 5.72328 7.95769 5.71658 7.95157Z" fill="#37352F"/>
<path d="M10.4984 8.66797H6.66534C6.48125 8.66797 6.33203 8.81719 6.33203 9.00128C6.33203 9.18537 6.48125 9.33459 6.66534 9.33459H10.4984C10.6824 9.33459 10.8317 9.18537 10.8317 9.00128C10.8317 8.81719 10.6824 8.66797 10.4984 8.66797Z" fill="#37352F"/>
<path d="M5.71658 5.2836C5.59157 5.15183 5.38404 5.14439 5.24994 5.26695L4.18335 6.28353L3.73339 5.81688C3.60838 5.68511 3.40084 5.67768 3.26674 5.80023C3.13765 5.93548 3.13765 6.14828 3.26674 6.28353L3.95001 6.98348C4.00915 7.0497 4.09457 7.08632 4.18332 7.08348C4.27123 7.08224 4.35509 7.04629 4.41662 6.98348L5.71652 5.75024C5.84539 5.63203 5.854 5.4317 5.73576 5.30287C5.72969 5.29614 5.72328 5.28972 5.71658 5.2836Z" fill="#37352F"/>
<path d="M10.4984 6H6.66534C6.48125 6 6.33203 6.14922 6.33203 6.33331C6.33203 6.5174 6.48125 6.66662 6.66534 6.66662H10.4984C10.6824 6.66662 10.8317 6.5174 10.8317 6.33331C10.8317 6.14922 10.6824 6 10.4984 6Z" fill="#37352F"/>
<path d="M5.71658 10.6156C5.59157 10.4838 5.38404 10.4764 5.24994 10.599L4.18335 11.6155L3.73339 11.1489C3.60838 11.0171 3.40084 11.0097 3.26674 11.1322C3.13765 11.2675 3.13765 11.4803 3.26674 11.6155L3.95001 12.3155C4.00915 12.3817 4.09457 12.4183 4.18332 12.4155C4.27123 12.4142 4.35509 12.3783 4.41662 12.3155L5.71652 11.0823C5.84539 10.964 5.854 10.7637 5.73576 10.6349C5.72969 10.6282 5.72328 10.6218 5.71658 10.6156Z" fill="#37352F"/>
<path d="M10.4984 11.332H6.66534C6.48125 11.332 6.33203 11.4813 6.33203 11.6653C6.33203 11.8494 6.48125 11.9987 6.66534 11.9987H10.4984C10.6824 11.9987 10.8317 11.8494 10.8317 11.6653C10.8317 11.4813 10.6824 11.332 10.4984 11.332Z" fill="#37352F"/>
</g>
<defs>
<clipPath id="clip0_10824_11086">
<rect width="14" height="14" fill="white" transform="translate(0 0.5)"/>
</clipPath>
</defs>
</svg>
