
<svg  viewBox="0 0 105 65" fill="none" xmlns="http://www.w3.org/2000/svg">
<path d="M36.9019 2.53811C29.7245 1.986 15.3697 2.5371 15.3697 18.5493C15.3697 32.6833 21.995 36.9517 25.3076 37.3192V43.3924L10.4007 51.674C7.82417 53.1463 2.67114 57.416 2.67114 62.7162H25.3076L44.0794 52.7782V44.4966C36.9019 37.3192 35.2456 30.0108 35.2456 20.2038C35.2456 8.54045 41.3188 2.53811 52.9131 2.53811" stroke="currentColor" stroke-width="4" stroke-linecap="round"/>
<path d="M68.3725 2.53811C75.5499 1.986 89.9047 2.5371 89.9047 18.5493C89.9047 32.6833 83.2794 36.9517 79.9668 37.3192V43.3924L94.8737 51.674C97.4502 53.1463 102.603 57.416 102.603 62.7162H79.9668L61.195 52.7782V44.4966C68.3725 37.3192 70.0288 30.0108 70.0288 20.2038C70.0288 8.54045 63.9556 2.53811 52.3613 2.53811" stroke="currentColor" stroke-width="4" stroke-linecap="round"/>
</svg>
