<svg width="1em" height="1em" viewBox="0 0 12 12" fill="none" xmlns="http://www.w3.org/2000/svg">
<path fill-rule="evenodd" clip-rule="evenodd" d="M4.08464 1.82022C4.08475 1.82012 4.08454 1.82033 4.08464 1.82022L1.81393 4.08093C0.738826 5.16183 0.737806 6.90872 1.81464 7.98555L4.00964 10.1806L4.01036 10.1813C5.09125 11.2564 6.83814 11.2574 7.91497 10.1806L10.18 7.91555C10.7295 7.36607 11.0241 6.60877 10.9894 5.82874L10.9894 5.82741L10.8693 3.32657C10.8097 2.13919 9.86057 1.18979 8.66726 1.1358C8.66706 1.13579 8.66686 1.13578 8.66667 1.13577L6.16937 1.0159C6.1691 1.01589 6.16883 1.01587 6.16855 1.01586C5.39145 0.975498 4.63355 1.27149 4.08464 1.82022ZM4.61497 2.35055C5.01585 1.94967 5.56778 1.7355 6.13025 1.76488L6.13183 1.76496L8.63183 1.88496L8.63295 1.88501C9.43923 1.92129 10.0798 2.56157 10.1203 3.36382C10.1203 3.36395 10.1203 3.36369 10.1203 3.36382L10.2402 5.86204C10.2402 5.86225 10.2402 5.86246 10.2402 5.86267C10.2654 6.43241 10.05 6.98486 9.64964 7.38522L7.38464 9.65022C6.60159 10.4333 5.32874 10.4344 4.5396 9.64985C4.53972 9.64997 4.53949 9.64974 4.5396 9.64985L2.34497 7.45522C1.56201 6.67226 1.56079 5.39961 2.34508 4.61045C2.34528 4.61025 2.34548 4.61005 2.34568 4.60984L4.61439 2.35114L4.61497 2.35055Z" fill="currentColor"/>
<path fill-rule="evenodd" clip-rule="evenodd" d="M7.25 3.875C7.73325 3.875 8.125 4.26675 8.125 4.75C8.125 5.23325 7.73325 5.625 7.25 5.625C6.76675 5.625 6.375 5.23325 6.375 4.75C6.375 4.26675 6.76675 3.875 7.25 3.875ZM8.875 4.75C8.875 3.85254 8.14746 3.125 7.25 3.125C6.35254 3.125 5.625 3.85254 5.625 4.75C5.625 5.64746 6.35254 6.375 7.25 6.375C8.14746 6.375 8.875 5.64746 8.875 4.75Z" fill="currentColor"/>
</svg>
