<svg width="14" height="14" viewBox="0 0 14 14" fill="none" xmlns="http://www.w3.org/2000/svg">
<g clip-path="url(#clip0_635_4945)">
<path fill-rule="evenodd" clip-rule="evenodd" d="M0.00512695 6.98577C0.00512695 3.13053 3.13046 0.00515747 6.98574 0.00515747C10.841 0.00515747 13.9663 3.13053 13.9663 6.98577C13.9663 10.8411 10.841 13.9664 6.98574 13.9664C3.13046 13.9664 0.00512695 10.8411 0.00512695 6.98577ZM6.98574 1.07912C3.72358 1.07912 1.07905 3.72361 1.07905 6.98577C1.07905 10.248 3.72354 12.8924 6.98574 12.8924C10.2479 12.8924 12.8924 10.248 12.8924 6.98577C12.8924 3.72361 10.2479 1.07912 6.98574 1.07912ZM6.98574 8.5967C7.87541 8.5967 8.59667 7.87544 8.59667 6.98577C8.59667 6.09609 7.87541 5.37487 6.98574 5.37487C6.09606 5.37487 5.37484 6.09609 5.37484 6.98577C5.37484 7.87544 6.09606 8.5967 6.98574 8.5967Z" fill="#028376"/>
</g>
<defs>
<clipPath id="clip0_635_4945">
<rect width="14" height="14" fill="white"/>
</clipPath>
</defs>
</svg>
