<svg viewBox="0 0 14 15" fill="none" xmlns="http://www.w3.org/2000/svg">
<g id="Outline / Essentional, UI / Trash Bin Trash">
<g id="Vector">
<path fill-rule="evenodd" clip-rule="evenodd" d="M6.01314 1.81251H7.98565C8.11188 1.81243 8.22185 1.81236 8.3257 1.82894C8.73595 1.89445 9.09097 2.15034 9.28285 2.51882C9.33142 2.61209 9.36613 2.71644 9.40597 2.83622L9.47108 3.03157C9.4821 3.06464 9.48526 3.074 9.48793 3.08138C9.59008 3.36378 9.85493 3.55468 10.1551 3.56229C10.163 3.56249 10.1727 3.56252 10.2077 3.56252H11.9577C12.1994 3.56252 12.3952 3.7584 12.3952 4.00002C12.3952 4.24165 12.1994 4.43752 11.9577 4.43752H2.04102C1.79939 4.43752 1.60352 4.24165 1.60352 4.00002C1.60352 3.7584 1.79939 3.56252 2.04102 3.56252H3.79106C3.82609 3.56252 3.83576 3.56249 3.84365 3.56229C4.14386 3.55468 4.40871 3.36379 4.51086 3.08139C4.51355 3.07397 4.51664 3.06481 4.52771 3.03157L4.59282 2.83623C4.63266 2.71646 4.66737 2.61209 4.71594 2.51882C4.90782 2.15034 5.26284 1.89445 5.6731 1.82894C5.77694 1.81236 5.88691 1.81243 6.01314 1.81251ZM5.2541 3.56252C5.28415 3.50359 5.31078 3.44236 5.33368 3.37903C5.34064 3.3598 5.34746 3.33933 5.35623 3.31303L5.41445 3.13837C5.46763 2.97883 5.47987 2.94628 5.49202 2.92296C5.55598 2.80013 5.67432 2.71483 5.81107 2.693C5.83705 2.68885 5.87178 2.68752 6.03997 2.68752H7.95883C8.12701 2.68752 8.16175 2.68885 8.18772 2.693C8.32447 2.71483 8.44281 2.80013 8.50677 2.92296C8.51892 2.94628 8.53116 2.97882 8.58435 3.13837L8.64253 3.31292L8.66511 3.37904C8.68802 3.44236 8.71465 3.5036 8.74469 3.56252H5.2541Z" fill="currentColor"/>
<path d="M3.44982 5.42925C3.43375 5.18816 3.22527 5.00575 2.98418 5.02182C2.7431 5.0379 2.56068 5.24637 2.57676 5.48746L2.8471 9.54264C2.89697 10.2909 2.93726 10.8953 3.03174 11.3696C3.12998 11.8627 3.29705 12.2746 3.64215 12.5974C3.98725 12.9203 4.40932 13.0596 4.90786 13.1248C5.38738 13.1875 5.99312 13.1875 6.74303 13.1875H7.25572C8.00563 13.1875 8.61142 13.1875 9.09093 13.1248C9.58948 13.0596 10.0115 12.9203 10.3566 12.5974C10.7017 12.2746 10.8688 11.8627 10.9671 11.3696C11.0615 10.8953 11.1018 10.2909 11.1517 9.54265L11.422 5.48746C11.4381 5.24637 11.2557 5.0379 11.0146 5.02182C10.7735 5.00575 10.5651 5.18816 10.549 5.42925L10.2807 9.45374C10.2283 10.24 10.1909 10.787 10.1089 11.1987C10.0294 11.5979 9.91835 11.8093 9.75886 11.9585C9.59937 12.1077 9.38111 12.2044 8.97744 12.2572C8.56129 12.3116 8.01295 12.3125 7.22496 12.3125H6.77383C5.98584 12.3125 5.43751 12.3116 5.02135 12.2572C4.61769 12.2044 4.39943 12.1077 4.23994 11.9585C4.08045 11.8093 3.96942 11.5979 3.88988 11.1987C3.80788 10.787 3.77053 10.24 3.71812 9.45374L3.44982 5.42925Z" fill="currentColor"/>
<path d="M5.49754 6.48136C5.73796 6.45732 5.95235 6.63273 5.9764 6.87316L6.26806 9.78982C6.29211 10.0302 6.11669 10.2446 5.87627 10.2687C5.63584 10.2927 5.42145 10.1173 5.39741 9.87689L5.10574 6.96022C5.0817 6.7198 5.25711 6.5054 5.49754 6.48136Z" fill="currentColor"/>
<path d="M8.50127 6.48136C8.74169 6.5054 8.91711 6.7198 8.89306 6.96022L8.6014 9.87689C8.57735 10.1173 8.36296 10.2927 8.12254 10.2687C7.88211 10.2446 7.7067 10.0302 7.73074 9.78982L8.02241 6.87316C8.04645 6.63273 8.26084 6.45732 8.50127 6.48136Z" fill="currentColor"/>
</g>
</g>
</svg>
