<svg viewBox="0 0 17 12" fill="none" xmlns="http://www.w3.org/2000/svg">
<path d="M12.5939 10.7751C12.5939 9.98232 12.5939 9.58593 12.4961 9.26338C12.2758 8.53716 11.7075 7.96885 10.9814 7.74855C10.6589 7.65071 10.2626 7.65071 9.46988 7.65071H6.62987C5.83719 7.65071 5.44084 7.65071 5.11834 7.74855C4.3922 7.96885 3.82396 8.53716 3.60369 9.26338C3.50586 9.58593 3.50586 9.98232 3.50586 10.7751M10.6059 3.10613C10.6059 4.51795 9.46152 5.66246 8.04987 5.66246C6.63823 5.66246 5.49387 4.51795 5.49387 3.10613C5.49387 1.69431 6.63823 0.549805 8.04987 0.549805C9.46152 0.549805 10.6059 1.69431 10.6059 3.10613Z" stroke="currentColor" stroke-width="1.1" stroke-linecap="round" stroke-linejoin="round"/>
<path d="M13.5163 7.7336C14.0319 7.7336 14.2897 7.73359 14.4994 7.79723C14.9717 7.94051 15.3413 8.31013 15.4845 8.78246C15.5482 8.99225 15.5482 9.25006 15.5482 9.76568M12.5928 6.44045C13.5109 6.44045 14.2552 5.69608 14.2552 4.77784C14.2552 3.85961 13.5109 3.11523 12.5928 3.11523" stroke="currentColor" stroke-width="1.1" stroke-linecap="round" stroke-linejoin="round"/>
<path d="M2.5823 7.7336C2.06675 7.7336 1.80897 7.73359 1.59921 7.79723C1.12694 7.94051 0.757367 8.31013 0.614104 8.78246C0.550475 8.99225 0.550475 9.25006 0.550475 9.76568M3.50586 6.44045C2.58774 6.44045 1.84346 5.69608 1.84346 4.77784C1.84346 3.85961 2.58774 3.11523 3.50586 3.11523" stroke="currentColor" stroke-width="1.1" stroke-linecap="round" stroke-linejoin="round"/>
</svg>
