<svg width="12" height="12" viewBox="0 0 12 12" fill="none" xmlns="http://www.w3.org/2000/svg">
<path fill-rule="evenodd" clip-rule="evenodd" d="M4.08464 1.81974C4.08475 1.81963 4.08454 1.81984 4.08464 1.81974L1.81393 4.08044C0.738826 5.16134 0.737806 6.90823 1.81464 7.98507L4.00964 10.1801L4.01036 10.1808C5.09125 11.2559 6.83814 11.2569 7.91497 10.1801L10.18 7.91507C10.7295 7.36558 11.0241 6.60828 10.9894 5.82825L10.9894 5.82692L10.8693 3.32608C10.8097 2.13871 9.86057 1.18931 8.66726 1.13531C8.66706 1.1353 8.66686 1.13529 8.66667 1.13528L6.16937 1.01541C6.1691 1.0154 6.16883 1.01538 6.16855 1.01537C5.39145 0.97501 4.63355 1.27101 4.08464 1.81974ZM4.61497 2.35007C5.01585 1.94919 5.56778 1.73501 6.13025 1.76439L6.13183 1.76447L8.63183 1.88447L8.63295 1.88452C9.43923 1.9208 10.0798 2.56108 10.1203 3.36333C10.1203 3.36346 10.1203 3.3632 10.1203 3.36333L10.2402 5.86155C10.2402 5.86176 10.2402 5.86197 10.2402 5.86218C10.2654 6.43192 10.05 6.98437 9.64964 7.38474L7.38464 9.64974C6.60159 10.4328 5.32874 10.4339 4.5396 9.64937C4.53972 9.64948 4.53949 9.64925 4.5396 9.64937L2.34497 7.45474C1.56201 6.67178 1.56079 5.39912 2.34508 4.60996C2.34528 4.60976 2.34548 4.60956 2.34568 4.60935L4.61439 2.35065L4.61497 2.35007Z" fill="#404040"/>
<path fill-rule="evenodd" clip-rule="evenodd" d="M7.25 3.875C7.73325 3.875 8.125 4.26675 8.125 4.75C8.125 5.23325 7.73325 5.625 7.25 5.625C6.76675 5.625 6.375 5.23325 6.375 4.75C6.375 4.26675 6.76675 3.875 7.25 3.875ZM8.875 4.75C8.875 3.85254 8.14746 3.125 7.25 3.125C6.35254 3.125 5.625 3.85254 5.625 4.75C5.625 5.64746 6.35254 6.375 7.25 6.375C8.14746 6.375 8.875 5.64746 8.875 4.75Z" fill="#404040"/>
</svg>
