<svg xmlns="http://www.w3.org/2000/svg" width="16" height="16" fill="none"><g fill="#76746F" clip-path="url(#a)"><path d="M11.434 4.155a.469.469 0 0 0-.87.242 1.039 1.039 0 0 1-2.074 0V.47a.469.469 0 0 0-.8-.332c-.053.053-1.303 1.31-2.57 3.21-.746 1.12-1.342 2.231-1.77 3.302-.543 1.357-.819 2.656-.819 3.861A5.496 5.496 0 0 0 8.021 16a5.496 5.496 0 0 0 5.49-5.49c0-1.937-.7-4.075-2.076-6.355ZM8.021 15.062a4.557 4.557 0 0 1-4.552-4.552c0-2.47 1.317-4.968 2.421-6.628.599-.9 1.202-1.658 1.662-2.197v2.712a1.974 1.974 0 0 0 3.589 1.138c.95 1.79 1.432 3.46 1.432 4.975a4.557 4.557 0 0 1-4.552 4.553Z"/><path d="M10.68 7.912H8.672a.469.469 0 0 0 0 .937h.876l-2.002 2.003-1.09-1.09a.469.469 0 0 0-.662 0L4.73 10.829a.469.469 0 0 0 .663.663l.734-.734 1.088 1.089a.47.47 0 0 0 .663 0l2.334-2.334v.877a.469.469 0 0 0 .938 0V8.38a.469.469 0 0 0-.47-.469Z"/></g><defs><clipPath id="a"><path fill="#fff" d="M0 0h16v16H0z"/></clipPath></defs></svg>