<svg xmlns="http://www.w3.org/2000/svg" viewbox="0 0 20 20" fill="none"><path fill="#76746F" d="M18.23 9.432c.491-.466.799-1.124.799-1.852a2.557 2.557 0 0 0-2.554-2.554A2.557 2.557 0 0 0 13.92 7.58c0 .729.307 1.386.797 1.852-.382.22-.72.51-.994.853a4.148 4.148 0 0 0-1.816-1.888 2.947 2.947 0 0 0 1.045-2.25A2.956 2.956 0 0 0 10 3.194a2.956 2.956 0 0 0-2.953 2.953c0 .9.407 1.708 1.045 2.25a4.148 4.148 0 0 0-1.816 1.888 3.551 3.551 0 0 0-.994-.853c.49-.466.797-1.123.797-1.852a2.557 2.557 0 0 0-2.553-2.554A2.557 2.557 0 0 0 .972 7.58c0 .728.307 1.386.797 1.852A3.528 3.528 0 0 0 0 12.488v4.318h20v-4.318a3.528 3.528 0 0 0-1.77-3.056ZM3.526 6.198c.763 0 1.383.62 1.383 1.382a1.384 1.384 0 0 1-2.764 0c0-.762.62-1.382 1.381-1.382Zm2.354 9.436H1.172v-3.146a2.356 2.356 0 0 1 2.353-2.354 2.356 2.356 0 0 1 2.354 2.354v3.146ZM10 4.366c.982 0 1.78.8 1.78 1.78 0 .983-.798 1.782-1.78 1.782s-1.78-.8-1.78-1.781c0-.982.798-1.78 1.78-1.78Zm2.95 11.268h-5.9v-3.585A2.952 2.952 0 0 1 10 9.099a2.952 2.952 0 0 1 2.95 2.95v3.585Zm3.524-9.436c.763 0 1.383.62 1.383 1.382a1.384 1.384 0 0 1-2.764 0c0-.762.62-1.382 1.381-1.382Zm2.354 9.436h-4.707v-3.146a2.356 2.356 0 0 1 2.353-2.354 2.356 2.356 0 0 1 2.354 2.354v3.146Z"/></svg>