
<svg viewBox="0 0 22 22" fill="none" xmlns="http://www.w3.org/2000/svg">
<path fill-rule="evenodd" clip-rule="evenodd" d="M17.6 2.93334C17.6 1.3133 16.2867 0 14.6667 0H2.93334C1.3133 0 0 1.3133 0 2.93334V14.6667C0 16.2867 1.3133 17.6 2.93334 17.6H9.32135C9.22004 17.1272 9.16669 16.6365 9.16669 16.1334H6.96668V12.4667H10.2085C10.6991 11.6758 11.3435 10.9904 12.1 10.4523V7.33335H16.1334V9.16669C16.6365 9.16669 17.1272 9.22004 17.6 9.32135V2.93334ZM1.46667 14.6667V12.4667H5.50001V16.1334H2.93334C2.12332 16.1334 1.46667 15.4767 1.46667 14.6667ZM1.46667 11H5.50001V7.33335H1.46667V11ZM6.96668 11H10.6334V7.33335H6.96668V11ZM1.46667 5.86668H16.1334V2.93334C16.1334 2.12332 15.4767 1.46667 14.6667 1.46667H2.93334C2.12332 1.46667 1.46667 2.12332 1.46667 2.93334V5.86668Z" fill="currentColor"/>
<path d="M16.133 12.8333C16.538 12.8333 16.8663 13.1616 16.8663 13.5666V15.3999H18.6997C19.1047 15.3999 19.433 15.7282 19.433 16.1333C19.433 16.5383 19.1047 16.8666 18.6997 16.8666H16.8663V18.6999C16.8663 19.105 16.538 19.4333 16.133 19.4333C15.728 19.4333 15.3997 19.105 15.3997 18.6999V16.8666H13.5663C13.1613 16.8666 12.833 16.5383 12.833 16.1333C12.833 15.7282 13.1613 15.3999 13.5663 15.3999H15.3997V13.5666C15.3997 13.1616 15.728 12.8333 16.133 12.8333Z" fill="currentColor"/>
<path fill-rule="evenodd" clip-rule="evenodd" d="M16.1333 10.2667C19.3734 10.2667 22 12.8933 22 16.1334C22 19.3735 19.3734 22.0001 16.1333 22.0001C12.8932 22.0001 10.2666 19.3735 10.2666 16.1334C10.2666 12.8933 12.8932 10.2667 16.1333 10.2667ZM20.5333 16.1334C20.5333 13.7034 18.5633 11.7334 16.1333 11.7334C13.7032 11.7334 11.7333 13.7034 11.7333 16.1334C11.7333 18.5635 13.7032 20.5334 16.1333 20.5334C18.5633 20.5334 20.5333 18.5635 20.5333 16.1334Z" fill="currentColor"/>
</svg>
