<svg width="141" height="140" viewBox="0 0 141 140" fill="none" xmlns="http://www.w3.org/2000/svg">
<g id="Task_empty">
<ellipse id="Ellipse 1183" opacity="0.1" cx="70.5" cy="135.801" rx="70" ry="4.2" fill="#2B2A7F" fill-opacity="0.8"/>
<path id="Union" fill-rule="evenodd" clip-rule="evenodd" d="M28.1453 22.9899C27.2068 21.1819 24.9803 20.477 23.1723 21.4155C21.3643 22.354 20.6594 24.5804 21.5979 26.3884L25.0935 33.123C26.032 34.931 28.2584 35.6359 30.0665 34.6974C31.8745 33.759 32.5794 31.5325 31.6409 29.7245L28.1453 22.9899ZM24.4623 23.9007C24.8978 23.6746 25.4341 23.8444 25.6601 24.2799L29.1557 31.0145C29.3818 31.45 29.212 31.9862 28.7765 32.2123C28.341 32.4383 27.8047 32.2685 27.5787 31.833L24.083 25.0985C23.857 24.663 24.0268 24.1267 24.4623 23.9007ZM37.4081 39.0879C32.7689 39.0879 29.0081 42.8488 29.0081 47.4879V106.433C29.0081 111.072 32.7689 114.833 37.4081 114.833H93.4081C98.0473 114.833 101.808 111.072 101.808 106.433V97.3412C95.9497 93.9523 92.0081 87.6181 92.0081 80.3633C92.0081 73.1086 95.9497 66.7744 101.808 63.3855V47.4879C101.808 42.8487 98.0473 39.0879 93.4081 39.0879H87.6634V41.2116C87.6634 45.0776 84.5294 48.2116 80.6634 48.2116H52.9531C49.0871 48.2116 45.9531 45.0776 45.9531 41.2116V39.0879H37.4081ZM104.608 62.0503V47.4879C104.608 41.3023 99.5937 36.2879 93.4081 36.2879H75.006C74.0552 32.6488 70.7453 29.9633 66.8082 29.9633C62.8711 29.9633 59.5613 32.6488 58.6104 36.2879H37.4081C31.2225 36.2879 26.2081 41.3024 26.2081 47.4879V106.433C26.2081 112.618 31.2225 117.633 37.4081 117.633H93.4081C99.5937 117.633 104.608 112.618 104.608 106.433V98.6764C106.782 99.5078 109.142 99.9633 111.608 99.9633C122.433 99.9633 131.208 91.1881 131.208 80.3633C131.208 69.5385 122.433 60.7633 111.608 60.7633C109.142 60.7633 106.782 61.2188 104.608 62.0503ZM10.6911 33.9923C11.6022 32.1704 13.8177 31.432 15.6397 32.3431L22.4262 35.7368C24.2482 36.6479 24.9866 38.8635 24.0755 40.6854C23.1644 42.5074 20.9488 43.2458 19.1268 42.3347L12.3403 38.941C10.5184 38.0299 9.77998 35.8143 10.6911 33.9923ZM14.3874 34.8474C13.9485 34.628 13.4149 34.8058 13.1954 35.2447C12.9759 35.6835 13.1538 36.2172 13.5927 36.4366L20.3792 39.8303C20.818 40.0498 21.3517 39.8719 21.5711 39.4331C21.7906 38.9942 21.6127 38.4606 21.1739 38.2411L14.3874 34.8474ZM58.8907 67.2561C58.8907 65.3231 60.4578 63.7561 62.3907 63.7561H86.1907C88.1237 63.7561 89.6907 65.3231 89.6907 67.2561C89.6907 69.1891 88.1237 70.7561 86.1907 70.7561H62.3907C60.4578 70.7561 58.8907 69.1891 58.8907 67.2561ZM62.3907 80.1459C60.4578 80.1459 58.8907 81.713 58.8907 83.6459C58.8907 85.5789 60.4578 87.1459 62.3907 87.1459H86.1907C88.1237 87.1459 89.6907 85.5789 89.6907 83.6459C89.6907 81.713 88.1237 80.1459 86.1907 80.1459H62.3907ZM61.6908 83.6459C61.6908 83.2593 62.0042 82.9459 62.3907 82.9459H86.1907C86.5773 82.9459 86.8907 83.2593 86.8907 83.6459C86.8907 84.0325 86.5773 84.3459 86.1907 84.3459H62.3907C62.0042 84.3459 61.6908 84.0325 61.6908 83.6459ZM58.8907 100.784C58.8907 98.8506 60.4578 97.2836 62.3907 97.2836H86.1907C88.1237 97.2836 89.6907 98.8506 89.6907 100.784C89.6907 102.717 88.1237 104.284 86.1907 104.284H62.3907C60.4578 104.284 58.8907 102.717 58.8907 100.784ZM62.3907 100.084C62.0042 100.084 61.6908 100.397 61.6908 100.784C61.6908 101.17 62.0042 101.484 62.3907 101.484H86.1907C86.5773 101.484 86.8907 101.17 86.8907 100.784C86.8907 100.397 86.5773 100.084 86.1907 100.084H62.3907ZM43.2488 66.001C43.2488 63.6814 45.1292 61.801 47.4488 61.801H49.6695C51.9891 61.801 53.8694 63.6814 53.8694 66.001V68.2217C53.8694 70.5413 51.989 72.4217 49.6694 72.4217H47.4488C45.1292 72.4217 43.2488 70.5413 43.2488 68.2217V66.001ZM47.4488 78.1909C45.1292 78.1909 43.2488 80.0713 43.2488 82.3909V84.6116C43.2488 86.9312 45.1292 88.8116 47.4488 88.8116H49.6694C51.989 88.8116 53.8694 86.9312 53.8694 84.6116V82.3909C53.8694 80.0713 51.9891 78.1909 49.6695 78.1909H47.4488ZM46.0488 82.3909C46.0488 81.6177 46.6756 80.9909 47.4488 80.9909H49.6695C50.4427 80.9909 51.0694 81.6177 51.0694 82.3909V84.6116C51.0694 85.3848 50.4426 86.0116 49.6694 86.0116H47.4488C46.6756 86.0116 46.0488 85.3848 46.0488 84.6116V82.3909ZM43.2488 99.5286C43.2488 97.209 45.1292 95.3286 47.4488 95.3286H49.6695C51.9891 95.3286 53.8694 97.209 53.8694 99.5286V101.749C53.8694 104.069 51.989 105.949 49.6694 105.949H47.4488C45.1292 105.949 43.2488 104.069 43.2488 101.749V99.5286ZM47.4488 98.1286C46.6756 98.1286 46.0488 98.7554 46.0488 99.5286V101.749C46.0488 102.522 46.6756 103.149 47.4488 103.149H49.6694C50.4426 103.149 51.0694 102.522 51.0694 101.749V99.5286C51.0694 98.7554 50.4427 98.1286 49.6695 98.1286H47.4488ZM94.8081 80.3633C94.8081 71.0849 102.33 63.5633 111.608 63.5633C120.887 63.5633 128.408 71.0849 128.408 80.3633C128.408 89.6417 120.887 97.1633 111.608 97.1633C102.33 97.1633 94.8081 89.6417 94.8081 80.3633ZM108.108 71.2633C108.108 69.3303 109.675 67.7633 111.608 67.7633C113.541 67.7633 115.108 69.3303 115.108 71.2633V79.6633C115.108 81.5963 113.541 83.1633 111.608 83.1633C109.675 83.1633 108.108 81.5963 108.108 79.6633V71.2633ZM111.608 70.5633C111.222 70.5633 110.908 70.8767 110.908 71.2633V79.6633C110.908 80.0499 111.222 80.3633 111.608 80.3633C111.995 80.3633 112.308 80.0499 112.308 79.6633V71.2633C112.308 70.8767 111.995 70.5633 111.608 70.5633ZM111.608 92.9633C109.675 92.9633 108.108 91.3963 108.108 89.4633C108.108 87.5303 109.675 85.9633 111.608 85.9633C113.541 85.9633 115.108 87.5303 115.108 89.4633C115.108 91.3963 113.541 92.9633 111.608 92.9633ZM110.908 89.4633C110.908 89.8499 111.222 90.1633 111.608 90.1633C111.995 90.1633 112.308 89.8499 112.308 89.4633C112.308 89.0767 111.995 88.7633 111.608 88.7633C111.222 88.7633 110.908 89.0767 110.908 89.4633Z" fill="#A4A7AE"/>
</g>
</svg>
