<svg viewBox="0 0 28 28" fill="none" xmlns="http://www.w3.org/2000/svg">
<path d="M25 10.6996H3M7.4 20.0496L10.15 17.2996L7.4 14.5496M12.9 20.0496L17.3 20.0496M3 9.37961L3 18.6196C3 20.4678 3 21.3919 3.35968 22.0978C3.67606 22.7187 4.1809 23.2235 4.80183 23.5399C5.50774 23.8996 6.43183 23.8996 8.28 23.8996H19.72C21.5682 23.8996 22.4923 23.8996 23.1982 23.5399C23.8191 23.2235 24.3239 22.7187 24.6403 22.0978C25 21.3919 25 20.4678 25 18.6196V9.37961C25 7.53144 25 6.60735 24.6403 5.90144C24.3239 5.28051 23.8191 4.77567 23.1982 4.45929C22.4923 4.09961 21.5682 4.09961 19.72 4.09961L8.28 4.09961C6.43183 4.09961 5.50774 4.09961 4.80183 4.45929C4.1809 4.77567 3.67606 5.28051 3.35968 5.90144C3 6.60735 3 7.53144 3 9.37961Z" stroke="currentColor" stroke-width="1.5" stroke-linecap="round" stroke-linejoin="round"/>
</svg>
