<svg width="10" height="10" viewBox="0 0 10 10" fill="none" xmlns="http://www.w3.org/2000/svg">
<path fill-rule="evenodd" clip-rule="evenodd" d="M3.08464 0.820224C3.08475 0.820122 3.08454 0.820326 3.08464 0.820224L0.813931 3.08093C-0.261174 4.16183 -0.262194 5.90872 0.814644 6.98555L3.00964 9.18056L3.01036 9.18126C4.09125 10.2564 5.83814 10.2574 6.91497 9.18056L9.17997 6.91555C9.72946 6.36607 10.0241 5.60877 9.98944 4.82874L9.98938 4.82741L9.86934 2.32657C9.80967 1.13919 8.86057 0.189793 7.66726 0.135795C7.66706 0.135786 7.66686 0.135777 7.66667 0.135769L5.16937 0.0159C5.1691 0.0158858 5.16883 0.0158715 5.16855 0.0158573C4.39145 -0.024502 3.63355 0.271494 3.08464 0.820224ZM3.61497 1.35055C4.01585 0.949674 4.56778 0.735496 5.13025 0.764879L5.13183 0.764958L7.63183 0.884958L7.63295 0.88501C8.43923 0.921293 9.07975 1.56157 9.12026 2.36382C9.12027 2.36395 9.12026 2.36369 9.12026 2.36382L9.24018 4.86204C9.24019 4.86225 9.2402 4.86246 9.24021 4.86267C9.26535 5.43241 9.05001 5.98486 8.64964 6.38522L6.38464 8.65022C5.60159 9.43327 4.32874 9.43441 3.5396 8.64985C3.53972 8.64997 3.53949 8.64974 3.5396 8.64985L1.34497 6.45522C0.562015 5.67226 0.560794 4.39961 1.34508 3.61045C1.34528 3.61025 1.34548 3.61005 1.34568 3.60984L3.61439 1.35114L3.61497 1.35055Z" fill="#404040"/>
</svg>
