<svg width="20" height="20" viewBox="0 0 20 20" fill="none" xmlns="http://www.w3.org/2000/svg">
<path d="M3.33398 5.14706H16.6673M8.33398 13.9706V8.67647M11.6673 13.9706V8.67647M13.334 17.5H6.66732C5.74684 17.5 5.00065 16.7099 5.00065 15.7353V6.02941C5.00065 5.5421 5.37375 5.14706 5.83398 5.14706H14.1673C14.6276 5.14706 15.0007 5.5421 15.0007 6.02941V15.7353C15.0007 16.7099 14.2545 17.5 13.334 17.5ZM8.33398 5.14706H11.6673C12.1276 5.14706 12.5007 4.75202 12.5007 4.26471V3.38235C12.5007 2.89504 12.1276 2.5 11.6673 2.5H8.33398C7.87375 2.5 7.50065 2.89504 7.50065 3.38235V4.26471C7.50065 4.75202 7.87375 5.14706 8.33398 5.14706Z" stroke="black" stroke-linecap="round" stroke-linejoin="round"/>
</svg>
