<svg viewBox="0 0 14 14" fill="none" xmlns="http://www.w3.org/2000/svg">
<path d="M5.88839 1.39985C5.03401 1.62386 4.05949 2.23986 3.37866 2.93986L2.72452 3.62587V2.86986V2.09986H2.25729H1.79005V3.70987V5.31988H3.32526H4.86046V4.82987C4.86046 4.33987 4.86046 4.33987 4.25973 4.33987C3.92599 4.33987 3.659 4.28387 3.659 4.22787C3.659 3.96187 4.72697 3.06586 5.4612 2.70186C6.11533 2.37986 6.44907 2.30986 7.2634 2.30986C9.02555 2.30986 10.494 3.28987 11.295 5.01188C11.6688 5.80988 11.7355 6.08988 11.7355 6.99989C11.7355 7.90989 11.6688 8.1899 11.295 8.9879C9.91997 11.9139 6.51582 12.6139 4.21968 10.4299C3.5789 9.8279 2.91142 8.5119 2.77792 7.61589C2.69782 7.02789 2.68447 6.99989 2.21724 6.99989H1.75L1.84345 7.79789C2.04369 9.6319 3.28521 11.3819 4.96726 12.2219C5.79494 12.6419 5.96848 12.6699 7.2634 12.6699C8.55831 12.6699 8.73186 12.6419 9.55953 12.2219C10.7343 11.6479 11.6955 10.6399 12.2428 9.4079C12.6433 8.5399 12.67 8.3579 12.67 6.99989C12.67 5.64188 12.6433 5.45988 12.2428 4.59187C11.6955 3.37387 10.721 2.35186 9.58623 1.79186C8.86535 1.44186 8.50491 1.35785 7.55709 1.31585C6.91631 1.28785 6.16873 1.32985 5.88839 1.39985Z" fill="#0968da"/>
<path d="M5.92847 6.99984C5.92847 8.20385 5.98187 9.09985 6.04861 9.09985C6.20881 9.09985 9.39937 7.09784 9.39937 6.99984C9.39937 6.90184 6.20881 4.89983 6.04861 4.89983C5.98187 4.89983 5.92847 5.79583 5.92847 6.99984ZM7.39693 6.99984C7.39693 7.06984 7.27678 7.19584 7.12993 7.27984C6.88964 7.41984 6.86294 7.39184 6.86294 6.99984C6.86294 6.60784 6.88964 6.57984 7.12993 6.71984C7.27678 6.80384 7.39693 6.92984 7.39693 6.99984Z" fill="#0968da"/>
</svg>
