<svg width="14" height="14" viewBox="0 0 14 14" fill="currentColor" xmlns="http://www.w3.org/2000/svg">
<path d="M11.2778 2.16615H9.95472V1.57424C9.95472 1.38273 9.74582 1.29569 9.55432 1.29569H8.52718C8.28346 0.599316 7.67412 0.251127 6.97774 0.251127C6.28903 0.225235 5.66259 0.647534 5.4283 1.29569H4.41856C4.22705 1.29569 4.03554 1.38273 4.03554 1.57424V2.16615H2.7124C1.92832 2.17451 1.28685 2.79305 1.25 3.5763V12.4269C1.25 13.1929 1.94638 13.75 2.7124 13.75H11.2778C12.0439 13.75 12.7402 13.1929 12.7402 12.4269V3.57633C12.7034 2.79305 12.0619 2.17451 11.2778 2.16615ZM4.73189 1.99207H5.68942C5.85656 1.97168 5.99082 1.84452 6.02021 1.67871C6.12331 1.22972 6.51722 0.907418 6.97774 0.895289C7.43399 0.909118 7.82197 1.23241 7.91784 1.67871C7.94906 1.85025 8.09218 1.97904 8.26603 1.99207H9.25838V3.38483H4.73189V1.99207ZM12.0439 12.4269C12.0439 12.8099 11.6608 13.0537 11.2778 13.0537H2.7124C2.32939 13.0537 1.94638 12.8099 1.94638 12.4269V3.57633C1.9819 3.17766 2.31219 2.86986 2.7124 2.86256H4.03551V3.75045C4.05391 3.94552 4.22285 4.09144 4.41852 4.08124H9.55428C9.75355 4.09214 9.9278 3.94822 9.95469 3.75045V2.86253H11.2778C11.678 2.86986 12.0083 3.17763 12.0438 3.5763L12.0439 12.4269Z" fill="currentColor" stroke="currentColor" stroke-width="0.2"/>
<path d="M5.66269 9.52575C5.55651 9.41384 5.38025 9.40752 5.26636 9.51161L4.36048 10.375L3.97832 9.97868C3.87214 9.86676 3.69588 9.86048 3.58199 9.96454C3.47235 10.0794 3.47235 10.2601 3.58199 10.375L4.1623 10.9695C4.21253 11.0257 4.28508 11.0568 4.36045 11.0544C4.43512 11.0534 4.50634 11.0228 4.5586 10.9695L5.66263 9.92208C5.77208 9.82168 5.7794 9.65154 5.67897 9.54212C5.67382 9.5364 5.66838 9.53096 5.66269 9.52575Z" fill="currentColor" stroke="currentColor" stroke-width="0.2"/>
<path d="M10.2427 10H7.36768C7.2296 10 7.11768 10.1679 7.11768 10.375C7.11768 10.5821 7.2296 10.7499 7.36768 10.7499H10.2427C10.3808 10.7499 10.4927 10.5821 10.4927 10.375C10.4927 10.1679 10.3808 10 10.2427 10Z" fill="currentColor" stroke="currentColor" stroke-width="0.2"/>
<path d="M5.66293 6.52575C5.55676 6.41384 5.3805 6.40752 5.2666 6.51161L4.36072 7.37501L3.97856 6.97868C3.87239 6.86676 3.69613 6.86045 3.58223 6.96454C3.47259 7.07941 3.47259 7.26014 3.58223 7.37501L4.16254 7.96949C4.21277 8.02574 4.28532 8.05684 4.3607 8.05443C4.43536 8.05337 4.50659 8.02284 4.55885 7.96949L5.66288 6.92209C5.77233 6.82168 5.77964 6.65154 5.67921 6.54212C5.67407 6.5364 5.66862 6.53096 5.66293 6.52575Z" fill="currentColor" stroke="currentColor" stroke-width="0.2"/>
<path d="M10.2427 7H7.36768C7.2296 7 7.11768 7.16788 7.11768 7.37497C7.11768 7.58207 7.2296 7.74995 7.36768 7.74995H10.2427C10.3808 7.74995 10.4927 7.58207 10.4927 7.37497C10.4927 7.16788 10.3808 7 10.2427 7Z" fill="currentColor" stroke="currentColor" stroke-width="0.2"/>
</svg>
