<svg xmlns="http://www.w3.org/2000/svg" width="16" height="16" viewBox="0 0 16 16" fill="none">
<path d="M16 8C16 12.4183 12.4183 16 8 16C3.58172 16 0 12.4183 0 8C0 3.58172 3.58172 0 8 0C12.4183 0 16 3.58172 16 8Z" fill="#6B7280"/>
<path d="M7.04923 8L4.19691 5.14768C3.93436 4.88514 3.93436 4.45946 4.19691 4.19691C4.45946 3.93436 4.88514 3.93436 5.14768 4.19691L8 7.04923L10.8523 4.19691C11.1149 3.93436 11.5405 3.93436 11.8031 4.19691C12.0656 4.45946 12.0656 4.88514 11.8031 5.14769L8.95077 8L11.8031 10.8523C12.0656 11.1149 12.0656 11.5405 11.8031 11.8031C11.5405 12.0656 11.1149 12.0656 10.8523 11.8031L8 8.95077L5.14768 11.8031C4.88514 12.0656 4.45946 12.0656 4.19691 11.8031C3.93436 11.5405 3.93436 11.1149 4.19691 10.8523L7.04923 8Z" fill="white"/>
</svg>