<svg width="16" height="16" viewBox="0 0 16 16" fill="none" xmlns="http://www.w3.org/2000/svg">
<g id="fi_16998906">
<g id="Group">
<path id="Vector" fill-rule="evenodd" clip-rule="evenodd" d="M7.99935 6.66665C9.10395 6.66665 9.99935 5.77121 9.99935 4.66665C9.99935 3.56208 9.10395 2.66665 7.99935 2.66665C6.89475 2.66665 5.99935 3.56208 5.99935 4.66665C5.99935 5.77121 6.89475 6.66665 7.99935 6.66665ZM7.99935 7.99998C9.84028 7.99998 11.3327 6.50759 11.3327 4.66665C11.3327 2.8257 9.84028 1.33331 7.99935 1.33331C6.1584 1.33331 4.66602 2.8257 4.66602 4.66665C4.66602 6.50759 6.1584 7.99998 7.99935 7.99998Z" fill="#757575"/>
<path id="Vector_2" fill-rule="evenodd" clip-rule="evenodd" d="M6 10.6666C4.52724 10.6666 3.33333 11.8606 3.33333 13.3333V14C3.33333 14.3682 3.03485 14.6666 2.66667 14.6666C2.29848 14.6666 2 14.3682 2 14V13.3333C2 11.1242 3.79086 9.33331 6 9.33331H10C12.2091 9.33331 14 11.1242 14 13.3333V14C14 14.3682 13.7015 14.6666 13.3333 14.6666C12.9651 14.6666 12.6667 14.3682 12.6667 14V13.3333C12.6667 11.8606 11.4727 10.6666 10 10.6666H6Z" fill="#757575"/>
</g>
</g>
</svg>
