<svg width="20" height="20" viewBox="0 0 20 20" fill="none" xmlns="http://www.w3.org/2000/svg">
<path d="M15.0316 17.6481C14.8862 17.6482 14.7435 17.6084 14.6192 17.5329L10.193 14.8431L5.68424 17.3952C5.54998 17.4712 5.39646 17.5064 5.24248 17.4965C5.0885 17.4866 4.94076 17.432 4.81734 17.3394C4.69393 17.2468 4.6002 17.1202 4.54765 16.9752C4.49509 16.8301 4.48598 16.6729 4.52145 16.5227L5.71152 11.48L1.89065 7.98117C1.77689 7.87697 1.69599 7.74185 1.65786 7.59237C1.61972 7.44288 1.626 7.28552 1.67594 7.13956C1.72587 6.99359 1.81729 6.86536 1.939 6.77055C2.0607 6.67575 2.20741 6.6185 2.36116 6.60581L7.5244 6.1794L9.67168 1.46446C9.73561 1.32407 9.8391 1.20536 9.96946 1.12289C10.0998 1.04041 10.2514 0.997736 10.4057 1.00009C10.5599 1.00245 10.7101 1.04973 10.8379 1.13616C10.9657 1.22258 11.0655 1.34439 11.1251 1.48667L13.128 6.26538L18.2757 6.85042C18.429 6.86781 18.5739 6.92954 18.6927 7.02805C18.8115 7.12656 18.8989 7.25757 18.9443 7.40503C18.9898 7.55249 18.9912 7.71 18.9485 7.85826C18.9057 8.00652 18.8207 8.1391 18.7037 8.23975L14.7756 11.6196L15.8099 16.6959C15.8334 16.8112 15.831 16.9302 15.8029 17.0444C15.7747 17.1586 15.7215 17.2652 15.6471 17.3563C15.5727 17.4474 15.4789 17.5208 15.3727 17.5712C15.2664 17.6216 15.1502 17.6478 15.0326 17.6477L15.0316 17.6481ZM10.2069 13.1298C10.3524 13.1297 10.495 13.1695 10.6194 13.245L13.8936 15.2339L13.128 11.48C13.0998 11.3417 13.1091 11.1985 13.1548 11.0649C13.2004 10.9314 13.2809 10.8125 13.3879 10.7205L16.2912 8.22103L12.484 7.78827C12.3438 7.77237 12.2103 7.71935 12.0975 7.63469C11.9846 7.55003 11.8963 7.43679 11.8418 7.30666L10.3633 3.77355L8.77539 7.26034C8.71691 7.3887 8.62525 7.49915 8.50987 7.58029C8.39448 7.66143 8.25955 7.71034 8.11896 7.72196L4.30095 8.03733L7.12464 10.6247C7.22872 10.7199 7.30549 10.8413 7.34704 10.9761C7.38859 11.111 7.39341 11.2545 7.36101 11.3918L6.48249 15.1204L9.81636 13.2329C9.93546 13.1654 10.07 13.1299 10.2069 13.1298Z" fill="#361A8F"/>
<path d="M6.29334 5.38406C6.18915 5.38422 6.08596 5.36378 5.9897 5.32393C5.89343 5.28407 5.80599 5.22558 5.73241 5.15182L4.10387 3.52328C3.9551 3.37451 3.87152 3.17274 3.87152 2.96235C3.87152 2.75195 3.9551 2.55018 4.10387 2.40141C4.25264 2.25264 4.45441 2.16907 4.6648 2.16907C4.87519 2.16907 5.07696 2.25264 5.22573 2.40141L6.85427 4.02996C6.96523 4.14088 7.0408 4.28223 7.07141 4.43611C7.10203 4.58999 7.08632 4.74949 7.02628 4.89444C6.96623 5.03939 6.86455 5.16328 6.73408 5.25044C6.60362 5.33759 6.45024 5.38409 6.29334 5.38406Z" fill="#361A8F"/>
<path d="M10.119 19.9303C9.90868 19.9303 9.70693 19.8467 9.55818 19.6979C9.40943 19.5492 9.32587 19.3474 9.32587 19.1371V16.8337C9.32587 16.6233 9.40943 16.4216 9.55818 16.2728C9.70693 16.1241 9.90868 16.0405 10.119 16.0405C10.3294 16.0405 10.5311 16.1241 10.6799 16.2728C10.8286 16.4216 10.9122 16.6233 10.9122 16.8337V19.1371C10.9122 19.3474 10.8286 19.5492 10.6799 19.6979C10.5311 19.8467 10.3294 19.9303 10.119 19.9303Z" fill="#361A8F"/>
<path d="M18.6243 14.231C18.4974 14.2311 18.3723 14.2005 18.2598 14.1419L16.215 13.0819C16.0314 12.9834 15.8939 12.8165 15.8323 12.6175C15.7707 12.4184 15.7899 12.2031 15.8858 12.0181C15.9817 11.8331 16.1465 11.6933 16.3446 11.6288C16.5427 11.5643 16.7583 11.5804 16.9447 11.6735L18.9895 12.7335C19.1474 12.8153 19.2732 12.9477 19.3468 13.1096C19.4204 13.2715 19.4375 13.4534 19.3953 13.6261C19.3531 13.7988 19.2541 13.9524 19.1141 14.0621C18.9742 14.1718 18.8015 14.2313 18.6237 14.231H18.6243Z" fill="#361A8F"/>
<path d="M1.79425 14.2308C1.61644 14.231 1.44371 14.1715 1.30379 14.0618C1.16386 13.9521 1.06485 13.7986 1.02266 13.6258C0.980463 13.4531 0.99753 13.2712 1.07112 13.1093C1.14471 12.9475 1.27055 12.815 1.42844 12.7333L3.47324 11.6733C3.56587 11.6236 3.66746 11.5928 3.77211 11.5827C3.87675 11.5725 3.98236 11.5833 4.08279 11.6144C4.18323 11.6455 4.27648 11.6962 4.35713 11.7637C4.43778 11.8311 4.50422 11.9139 4.55259 12.0073C4.60095 12.1006 4.63028 12.2026 4.63886 12.3074C4.64744 12.4122 4.63511 12.5176 4.60257 12.6176C4.57004 12.7176 4.51796 12.8101 4.44936 12.8897C4.38075 12.9694 4.297 13.0346 4.20296 13.0816L2.15816 14.1416C2.04576 14.2001 1.92095 14.2307 1.79425 14.2308Z" fill="#361A8F"/>
<path d="M14.3783 5.38406C14.2214 5.38409 14.068 5.33759 13.9375 5.25044C13.8071 5.16328 13.7054 5.03939 13.6453 4.89444C13.5853 4.74949 13.5696 4.58999 13.6002 4.43611C13.6308 4.28223 13.7064 4.14088 13.8173 4.02996L15.4459 2.40141C15.5196 2.32775 15.607 2.26932 15.7033 2.22945C15.7995 2.18959 15.9027 2.16907 16.0068 2.16907C16.111 2.16907 16.2142 2.18959 16.3104 2.22945C16.4066 2.26932 16.4941 2.32775 16.5678 2.40141C16.6414 2.47508 16.6999 2.56253 16.7397 2.65877C16.7796 2.75502 16.8001 2.85817 16.8001 2.96235C16.8001 3.06652 16.7796 3.16968 16.7397 3.26592C16.6999 3.36217 16.6414 3.44961 16.5678 3.52328L14.9392 5.15182C14.8656 5.22558 14.7782 5.28407 14.6819 5.32393C14.5857 5.36378 14.4825 5.38422 14.3783 5.38406Z" fill="#361A8F"/>
</svg>
