<svg width="20" height="17" viewBox="0 0 20 17" fill="none" xmlns="http://www.w3.org/2000/svg">
<path d="M8.5 1.69531C10.3594 1.69531 12.0031 2.5931 13 3.96788C13.4531 3.75734 13.9625 3.63976 14.5 3.63976C16.4344 3.63976 18 5.16189 18 7.04253C18 7.36762 17.9531 7.65321 17.8656 7.9783C19.1344 8.62847 20 9.92578 20 11.4175C20 13.5655 18.2094 15.3064 16 15.3064H4.5C2.01469 15.3064 0 13.3468 0 10.9314C0 9.02344 1.25469 7.40408 3.00531 6.80252C3.13437 3.96181 5.54375 1.69531 8.5 1.69531ZM8.5 2.66753C6.08125 2.66753 4.10938 4.52083 4.00313 6.84505C3.9875 7.24306 3.72188 7.56207 3.3375 7.72005C1.97438 8.18793 1 9.44878 1 10.9314C1 12.8121 2.56687 14.3342 4.5 14.3342H16C17.6562 14.3342 19 13.0278 19 11.4175C19 10.2995 18.3531 9.32726 17.4 8.83811C16.9812 8.59505 16.775 8.15148 16.9031 7.68359C16.9656 7.49826 17 7.27648 17 7.04253C17 5.69965 15.8813 4.61198 14.5 4.61198C14.1156 4.61198 13.7531 4.69705 13.4281 4.84592C12.9906 5.04948 12.4625 4.91276 12.1812 4.52691C11.3656 3.40035 10.0219 2.66753 8.5 2.66753Z" fill="#757575"/>
</svg>
