<svg width="8" height="16" viewBox="0 0 8 16" fill="none" xmlns="http://www.w3.org/2000/svg">
<path d="M4.00001 13.7996C3.93026 13.7996 3.86044 13.7728 3.80719 13.7191L1.07993 10.9694C0.973358 10.8619 0.973358 10.688 1.07993 10.5806C1.18649 10.4732 1.35906 10.4731 1.46556 10.5806L4.00001 13.1359L6.53446 10.5806C6.64103 10.4731 6.8136 10.4731 6.9201 10.5806C7.0266 10.688 7.02667 10.862 6.9201 10.9694L4.19283 13.7191C4.13958 13.7728 4.06976 13.7996 4.00001 13.7996Z" fill="currentColor" stroke="currentColor" stroke-width="0.8"/>
<path d="M4.00001 2.20037C3.93026 2.20037 3.86044 2.22724 3.80719 2.28093L1.07993 5.03061C0.973358 5.13806 0.973358 5.31204 1.07993 5.41942C1.18649 5.52679 1.35906 5.52686 1.46556 5.41942L4.00001 2.86414L6.53446 5.41942C6.64103 5.52686 6.8136 5.52686 6.9201 5.41942C7.0266 5.31197 7.02667 5.13799 6.9201 5.03061L4.19283 2.28093C4.13958 2.22724 4.06976 2.20037 4.00001 2.20037Z" fill="currentColor" stroke="currentColor" stroke-width="0.8"/>
</svg>
