<svg width="42" height="42" viewBox="0 0 42 42" fill="none" xmlns="http://www.w3.org/2000/svg">
<path d="M0.65625 21C0.65625 9.76172 9.76172 0.65625 21 0.65625C32.2383 0.65625 41.3438 9.76172 41.3438 21C41.3438 32.2383 32.2383 41.3438 21 41.3438C9.76172 41.3438 0.65625 32.2383 0.65625 21ZM24.6094 30.5156V21H30.4254C31.3031 21 31.7461 19.9336 31.1227 19.3184L21.6973 9.94219C21.3117 9.55664 20.6965 9.55664 20.3109 9.94219L10.8773 19.3184C10.2539 19.9418 10.6969 21 11.5746 21H17.3906V30.5156C17.3906 31.057 17.8336 31.5 18.375 31.5H23.625C24.1664 31.5 24.6094 31.057 24.6094 30.5156Z" fill="#00A166"/>
</svg>
