<svg viewBox="0 0 20 20" fill="none" xmlns="http://www.w3.org/2000/svg">
<g clip-path="url(#clip0_3301_40999)">
<path d="M7.53125 0.234375C7.0625 0.34375 6.09375 0.71875 5.375 1.09375C3.45312 2.03125 1.96875 3.54688 1.03125 5.5C0.203125 7.21875 0 8.14062 0 10C0 11.8594 0.203125 12.7812 1.03125 14.5C2 16.5312 3.46875 18 5.5 18.9688C6.29688 19.3438 7.32812 19.7344 7.78125 19.8281C8.85938 20.0469 11.1562 20.0469 12.2188 19.8281C13.4062 19.5781 15.1562 18.7344 16.2656 17.875C18.375 16.25 20 13.1406 20 10.7031V10H19.0156H18.0469L17.8594 11.1719C17.25 14.9531 13.7656 17.9688 10 17.9688C5.76562 17.9688 2.03125 14.2344 2.03125 10C2.03125 5.5 6.15625 1.6875 10.5938 2.07812C12.2656 2.21875 14.125 3.03125 15.375 4.15625L15.8281 4.5625L14.5469 5.84375C13.8594 6.54688 13.2812 7.17188 13.2812 7.23438C13.2812 7.29688 14.7969 7.34375 16.6406 7.34375H20V3.875V0.390625L18.6875 1.70312L17.375 3.01562L16.4531 2.26562C15.4062 1.40625 13.4219 0.421875 12.2188 0.171875C11.125 -0.0625 8.57812 -0.03125 7.53125 0.234375Z" fill="#757575"/>
<path d="M7.96875 9.21875V12.0312H10.7812H13.5938V11.0156V10H11.7969H10V8.20312V6.40625H8.98438H7.96875V9.21875Z" fill="#757575"/>
</g>
<defs>
<clipPath id="clip0_3301_40999">
<rect width="20" height="20" fill="white"/>
</clipPath>
</defs>
</svg>
