<svg viewBox="0 0 40 40" fill="none" xmlns="http://www.w3.org/2000/svg">
<path fill-rule="evenodd" clip-rule="evenodd" d="M14.0977 7.12577C17.5793 5.39371 21.5849 5.03414 25.3193 6.11845C29.0537 7.20277 32.2438 9.65167 34.2564 12.979C36.2689 16.3063 36.9567 20.2688 36.1833 24.0797C35.4098 27.8906 33.2316 31.2714 30.081 33.5508C26.9305 35.8302 23.0381 36.8416 19.1764 36.3842C15.3148 35.9268 11.7663 34.034 9.23551 31.0817C6.70469 28.1293 5.37657 24.3332 5.51481 20.4471L7.51354 20.5182C7.39315 23.9027 8.54983 27.2088 10.754 29.78C12.9581 32.3513 16.0485 33.9997 19.4117 34.3981C22.7749 34.7965 26.1649 33.9156 28.9087 31.9304C31.6525 29.9453 33.5496 27.0009 34.2232 23.6819C34.8969 20.3629 34.2978 16.9119 32.5451 14.0141C30.7923 11.1163 28.014 8.98348 24.7616 8.03913C21.5092 7.09478 18.0207 7.40793 14.9885 8.91642C12.3797 10.2143 10.2729 12.3153 8.9656 14.8916L13.551 13.9745C14.0926 13.8662 14.6194 14.2175 14.7277 14.759C14.836 15.3006 14.4848 15.8274 13.9433 15.9357L6.92356 17.3397L6.55127 15.4782L6.52531 15.4683C6.53055 15.4546 6.5358 15.4409 6.54107 15.4272L5.51961 10.3199C5.4113 9.77838 5.76252 9.25155 6.30408 9.14324C6.84564 9.03493 7.37246 9.38615 7.48077 9.92771L8.0065 12.5563C9.50453 10.2508 11.6009 8.3679 14.0977 7.12577ZM20.9924 12.7469C21.5447 12.7469 21.9924 13.1946 21.9924 13.7469V20.5796L26.5308 25.118C26.9213 25.5086 26.9213 26.1417 26.5308 26.5322C26.1403 26.9228 25.5071 26.9228 25.1166 26.5322L19.9924 21.408V13.7469C19.9924 13.1946 20.4401 12.7469 20.9924 12.7469Z" fill="#1D02BC"/>
</svg>