<svg viewBox="0 0 28 28" fill="none" xmlns="http://www.w3.org/2000/svg">
<path d="M8.20618 13.7939C8.15445 15.248 8.65142 16.6685 9.59841 17.7732C10.5454 18.8779 11.8732 19.5862 13.3181 19.7573C14.7631 19.9285 16.2196 19.55 17.3985 18.6971C18.5773 17.8442 19.3924 16.5792 19.6818 15.1532C19.9712 13.7272 19.7139 12.2445 18.9608 10.9995C18.2077 9.75445 17.014 8.83811 15.6167 8.43238C14.2193 8.02665 12.7205 8.16119 11.4178 8.8093C10.115 9.45741 9.10358 10.5717 8.58429 11.9309" stroke="#1D02BC"/>
<path d="M8.20117 9.65234L8.6843 12.068L11.1 11.5849" stroke="#1D02BC" stroke-linecap="round"/>
<path d="M13.998 11.1016V14.0003L15.9306 15.9329" stroke="#1D02BC" stroke-linecap="round"/>
</svg>
