<svg  viewBox="0 0 14 16" fill="none" xmlns="http://www.w3.org/2000/svg">
<path fill-rule="evenodd" clip-rule="evenodd" d="M0.719971 8.87999C0.719971 5.41052 3.5305 2.59999 6.99997 2.59999C7.76125 2.59999 8.44961 2.72225 9.06981 2.90759C9.33439 2.98666 9.48477 3.26525 9.4057 3.52983C9.32663 3.79441 9.04805 3.94479 8.78347 3.86572C8.24366 3.7044 7.65202 3.59999 6.99997 3.59999C4.08278 3.59999 1.71997 5.9628 1.71997 8.87999C1.71997 11.8042 4.08316 14.1667 6.99997 14.1667C9.91716 14.1667 12.28 11.8038 12.28 8.88666C12.28 7.80241 11.9513 6.79168 11.3906 5.95067C11.2374 5.72091 11.2995 5.41048 11.5293 5.2573C11.7591 5.10412 12.0695 5.16621 12.2227 5.39597C12.8887 6.39497 13.28 7.59757 13.28 8.88666C13.28 12.3561 10.4694 15.1667 6.99997 15.1667C3.53012 15.1667 0.719971 12.3558 0.719971 8.87999Z" fill="currentColor"/>
<path fill-rule="evenodd" clip-rule="evenodd" d="M7.49838 0.956204C7.70667 0.774897 8.02249 0.796765 8.2038 1.00505L10.1305 3.21838C10.3118 3.42667 10.2899 3.74249 10.0816 3.9238C9.87334 4.10511 9.55751 4.08324 9.3762 3.87496L7.44954 1.66162C7.26823 1.45334 7.2901 1.13751 7.49838 0.956204Z" fill="currentColor"/>
<path fill-rule="evenodd" clip-rule="evenodd" d="M10.1571 3.25187C10.32 3.47491 10.2711 3.7877 10.0481 3.95051L7.80142 5.59051C7.57838 5.75333 7.26559 5.7045 7.10278 5.48146C6.93996 5.25842 6.98879 4.94563 7.21183 4.78282L9.45849 3.14282C9.68153 2.98 9.99433 3.02883 10.1571 3.25187Z" fill="currentColor"/>
</svg>
