<svg width="20" height="20" viewBox="0 0 20 20" fill="none" xmlns="http://www.w3.org/2000/svg">
<g clip-path="url(#clip0_11810_75230)">
<path d="M13.2312 7.16566L8.88123 11.5125L6.73123 9.37503C6.61396 9.25776 6.4549 9.19187 6.28904 9.19187C6.12319 9.19187 5.96413 9.25776 5.84686 9.37503C5.72958 9.49231 5.6637 9.65137 5.6637 9.81722C5.6637 9.98307 5.72958 10.1421 5.84686 10.2594L8.44061 12.8532C8.49865 12.9113 8.56758 12.9574 8.64346 12.9888C8.71933 13.0203 8.80066 13.0365 8.88279 13.0365C8.96493 13.0365 9.04626 13.0203 9.12213 12.9888C9.198 12.9574 9.26694 12.9113 9.32498 12.8532L14.1156 8.04691C14.2329 7.92963 14.2988 7.77057 14.2988 7.60472C14.2988 7.43887 14.2329 7.27981 14.1156 7.16253C13.9983 7.04526 13.8393 6.97937 13.6734 6.97937C13.5076 6.97937 13.3485 7.04526 13.2312 7.16253V7.16566Z" fill="#43A047"/>
<path d="M10 0.9375C8.20761 0.9375 6.45547 1.46901 4.96515 2.46481C3.47483 3.46061 2.31326 4.87598 1.62735 6.53193C0.941427 8.18789 0.761959 10.0101 1.11164 11.768C1.46132 13.526 2.32444 15.1407 3.59185 16.4082C4.85926 17.6756 6.47405 18.5387 8.232 18.8884C9.98995 19.238 11.8121 19.0586 13.4681 18.3727C15.124 17.6867 16.5394 16.5252 17.5352 15.0349C18.531 13.5445 19.0625 11.7924 19.0625 10C19.0625 7.59648 18.1077 5.29139 16.4082 3.59184C14.7086 1.8923 12.4035 0.9375 10 0.9375ZM10 17.8125C8.45484 17.8125 6.94437 17.3543 5.65961 16.4959C4.37485 15.6374 3.3735 14.4173 2.7822 12.9897C2.19089 11.5622 2.03617 9.99133 2.33762 8.47586C2.63907 6.96038 3.38313 5.56833 4.47573 4.47573C5.56833 3.38313 6.96038 2.63906 8.47586 2.33762C9.99134 2.03617 11.5622 2.19088 12.9897 2.78219C14.4173 3.3735 15.6374 4.37485 16.4959 5.65961C17.3543 6.94437 17.8125 8.45483 17.8125 10C17.8125 11.026 17.6104 12.0419 17.2178 12.9897C16.8252 13.9376 16.2497 14.7988 15.5243 15.5243C14.7988 16.2497 13.9376 16.8252 12.9897 17.2178C12.0419 17.6104 11.026 17.8125 10 17.8125Z" fill="#43A047"/>
</g>
<defs>
<clipPath id="clip0_11810_75230">
<rect width="20" height="20" fill="white"/>
</clipPath>
</defs>
</svg>
