<svg width="8" height="20" viewBox="0 0 8 20" fill="none" xmlns="http://www.w3.org/2000/svg">
<path d="M3.75 7.1875C5.30469 7.1875 6.5625 8.44531 6.5625 10C6.5625 11.5547 5.30469 12.8125 3.75 12.8125C2.19531 12.8125 0.9375 11.5547 0.9375 10C0.9375 8.44531 2.19531 7.1875 3.75 7.1875ZM0.9375 3.125C0.9375 4.67969 2.19531 5.9375 3.75 5.9375C5.30469 5.9375 6.5625 4.67969 6.5625 3.125C6.5625 1.57031 5.30469 0.3125 3.75 0.3125C2.19531 0.3125 0.9375 1.57031 0.9375 3.125ZM0.9375 16.875C0.9375 18.4297 2.19531 19.6875 3.75 19.6875C5.30469 19.6875 6.5625 18.4297 6.5625 16.875C6.5625 15.3203 5.30469 14.0625 3.75 14.0625C2.19531 14.0625 0.9375 15.3203 0.9375 16.875Z" fill="#CCCCCC"/>
</svg>
