<svg width="12" height="16" viewBox="0 0 12 16" fill="none" xmlns="http://www.w3.org/2000/svg">
<path d="M12 4.48676C12 3.10958 10.8812 1.99412 9.5 1.99412C8.11875 1.99412 7 3.10958 7 4.48676C7 5.62092 7.75937 6.57747 8.79687 6.87971C8.77812 7.38135 8.66562 7.76771 8.45312 8.02944C7.97187 8.62768 6.9125 8.72738 5.79062 8.8302C4.90937 8.91121 3.99688 8.99846 3.25 9.35677V4.87001C4.26562 4.5522 5 3.60811 5 2.49265C5 1.11546 3.88125 0 2.5 0C1.11875 0 0 1.11546 0 2.49265C0 3.60811 0.734375 4.5522 1.75 4.87001V11.0798C0.734375 11.4007 0 12.3448 0 13.4603C0 14.8375 1.11875 15.9529 2.5 15.9529C3.88125 15.9529 5 14.8375 5 13.4603C5 12.4009 4.3375 11.4942 3.4 11.1359C3.49687 10.9739 3.64375 10.8306 3.86562 10.7184C4.37187 10.4629 5.12813 10.3943 5.93125 10.3196C7.25 10.198 8.74375 10.0578 9.625 8.9673C10.0625 8.42515 10.2844 7.72721 10.3 6.85166C11.2875 6.51516 12 5.58353 12 4.48676ZM2.5 1.99412C2.775 1.99412 3 2.21846 3 2.49265C3 2.76684 2.775 2.99118 2.5 2.99118C2.225 2.99118 2 2.76684 2 2.49265C2 2.21846 2.225 1.99412 2.5 1.99412ZM2.5 13.9588C2.225 13.9588 2 13.7345 2 13.4603C2 13.1861 2.225 12.9618 2.5 12.9618C2.775 12.9618 3 13.1861 3 13.4603C3 13.7345 2.775 13.9588 2.5 13.9588ZM9.5 3.98824C9.775 3.98824 10 4.21257 10 4.48676C10 4.76096 9.775 4.98529 9.5 4.98529C9.225 4.98529 9 4.76096 9 4.48676C9 4.21257 9.225 3.98824 9.5 3.98824Z" fill="black" fill-opacity="0.7"/>
</svg>
