<svg viewBox="0 0 89 89" fill="none" xmlns="http://www.w3.org/2000/svg">
<path d="M0 28C0 12.536 12.536 0 28 0H61C76.464 0 89 12.536 89 28V61C89 76.464 76.464 89 61 89H28C12.536 89 0 76.464 0 61V28Z" fill="#F4F3FF"/>
<g transform="translate(29.5 29.5) scale(1.5)">
<path fill="#6938EF" d="M17.617 14.14V9.454h-7.031V5.938h2.344V0H7.07v5.938h2.344v3.515H2.383v4.688H0V20h5.898v-5.86H3.555v-3.515h5.86v3.516H7.07V20h5.86v-5.86h-2.344v-3.515h5.86v3.516h-2.344V20H20v-5.86h-2.383ZM8.242 1.173h3.516v3.594H8.242V1.172ZM4.727 18.828H1.172v-3.515h3.555v3.515Zm7.03 0H8.243v-3.515h3.516v3.515Zm7.071 0h-3.555v-3.515h3.555v3.515Z"/>
</g>
</svg>
