<svg width="20" height="20" viewBox="0 0 20 20" fill="none" xmlns="http://www.w3.org/2000/svg">
<path d="M17.6172 14.1406V9.45312H10.5859V5.9375H12.9297V0H7.07031V5.9375H9.41406V9.45312H2.38281V14.1406H0V20H5.89844V14.1406H3.55469V10.625H9.41406V14.1406H7.07031V20H12.9297V14.1406H10.5859V10.625H16.4453V14.1406H14.1016V20H20V14.1406H17.6172ZM8.24219 1.17188H11.7578V4.76562H8.24219V1.17188ZM4.72656 18.8281H1.17188V15.3125H4.72656V18.8281ZM11.7578 18.8281H8.24219V15.3125H11.7578V18.8281ZM18.8281 18.8281H15.2734V15.3125H18.8281V18.8281Z" fill="#76746F"/>
</svg>
