<svg viewBox="0 0 25 25" fill="none" xmlns="http://www.w3.org/2000/svg">
<path d="M21.0938 24.2172H3.90625C1.75234 24.2172 0 22.4648 0 20.3109C0 19.6425 0.171973 18.9826 0.497461 18.4023L9.08911 2.78103C9.09062 2.7783 9.09214 2.77561 9.09365 2.77288C10.5859 0.119898 14.4135 0.118921 15.9064 2.77288C15.9079 2.77556 15.9094 2.7783 15.9109 2.78103L24.5026 18.4023C24.828 18.9826 25 19.6425 25 20.3109C25 22.4648 23.2477 24.2172 21.0938 24.2172ZM10.798 3.72673L2.20674 19.3473C2.20522 19.35 2.20371 19.3528 2.2022 19.3554C2.03926 19.6451 1.95312 19.9755 1.95312 20.3109C1.95312 21.3879 2.8293 22.264 3.90625 22.264H21.0938C22.1707 22.264 23.0469 21.3879 23.0469 20.3109C23.0469 19.9755 22.9607 19.6451 22.7978 19.3554C22.7963 19.3528 22.7948 19.35 22.7933 19.3473L14.2021 3.72698C13.4545 2.40432 11.5465 2.40281 10.798 3.72673Z" fill="currentColor"/>
<path d="M12.5 15.4281C11.9606 15.4281 11.5234 14.9909 11.5234 14.4515V8.59216C11.5234 8.05281 11.9606 7.6156 12.5 7.6156C13.0394 7.6156 13.4766 8.05281 13.4766 8.59216V14.4515C13.4766 14.9909 13.0394 15.4281 12.5 15.4281Z" fill="currentColor"/>
<path d="M12.5 19.3344C13.0393 19.3344 13.4766 18.8971 13.4766 18.3578C13.4766 17.8184 13.0393 17.3812 12.5 17.3812C11.9607 17.3812 11.5234 17.8184 11.5234 18.3578C11.5234 18.8971 11.9607 19.3344 12.5 19.3344Z" fill="currentColor"/>
</svg>
