<svg width="25" height="25" viewBox="0 0 25 25" fill="none" xmlns="http://www.w3.org/2000/svg">
<g clip-path="url(#clip0_4791_131292)">
<path d="M21.0938 24.2156H3.90625C1.75234 24.2156 0 22.4633 0 20.3094C0 19.641 0.171973 18.9811 0.497461 18.4008L9.08911 2.7795C9.09062 2.77677 9.09214 2.77408 9.09365 2.77135C10.5859 0.118372 14.4135 0.117395 15.9064 2.77135C15.9079 2.77404 15.9094 2.77677 15.9109 2.7795L24.5026 18.4007C24.828 18.9811 25 19.6409 25 20.3094C25 22.4633 23.2477 24.2156 21.0938 24.2156ZM10.798 3.72521L2.20674 19.3458C2.20522 19.3485 2.20371 19.3512 2.2022 19.3539C2.03926 19.6436 1.95312 19.974 1.95312 20.3094C1.95312 21.3863 2.8293 22.2625 3.90625 22.2625H21.0938C22.1707 22.2625 23.0469 21.3863 23.0469 20.3094C23.0469 19.9739 22.9607 19.6436 22.7978 19.3539C22.7963 19.3512 22.7948 19.3485 22.7933 19.3458L14.2021 3.72545C13.4545 2.4028 11.5465 2.40128 10.798 3.72521Z" fill="#FFAB2A"/>
<path d="M12.5 15.4258C11.9606 15.4258 11.5234 14.9886 11.5234 14.4492V8.58984C11.5234 8.05049 11.9606 7.61328 12.5 7.61328C13.0394 7.61328 13.4766 8.05049 13.4766 8.58984V14.4492C13.4766 14.9886 13.0394 15.4258 12.5 15.4258Z" fill="#FFAB2A"/>
<path d="M12.5 19.332C13.0393 19.332 13.4766 18.8948 13.4766 18.3555C13.4766 17.8161 13.0393 17.3789 12.5 17.3789C11.9607 17.3789 11.5234 17.8161 11.5234 18.3555C11.5234 18.8948 11.9607 19.332 12.5 19.332Z" fill="#FFAB2A"/>
</g>
<defs>
<clipPath id="clip0_4791_131292">
<rect width="25" height="25" fill="white"/>
</clipPath>
</defs>
</svg>
