<svg  viewBox="0 0 18 18" fill="none" xmlns="http://www.w3.org/2000/svg">
<path d="M16.5907 13.6464C17.4487 12.2487 17.9018 10.6402 17.8995 9.0002C17.9018 7.36011 17.4487 5.75138 16.5907 4.3536L16.5859 4.3458C15.79 3.04844 14.6746 1.97689 13.3464 1.23352C12.0182 0.490155 10.5216 0.099823 8.99951 0.099823C7.47745 0.099823 5.98081 0.490155 4.65262 1.23352C3.32443 1.97689 2.20907 3.04844 1.41311 4.3458L1.40831 4.3536C0.552494 5.75232 0.0996094 7.36023 0.0996094 9C0.0996094 10.6398 0.552494 12.2477 1.40831 13.6464L1.41331 13.6544C2.2093 14.9517 3.32467 16.0232 4.65285 16.7665C5.98103 17.5098 7.47764 17.9001 8.99967 17.9001C10.5217 17.9001 12.0183 17.5098 13.3465 16.7664C14.6746 16.0231 15.79 14.9515 16.5859 13.6542L16.5907 13.6464ZM10.1371 16.3746C9.96749 16.5383 9.77225 16.6731 9.55911 16.7738C9.38423 16.8569 9.19304 16.9 8.99941 16.9C8.80579 16.9 8.6146 16.8569 8.43971 16.7738C8.03423 16.5667 7.68712 16.2613 7.43011 15.8854C6.90528 15.1269 6.51635 14.2829 6.28071 13.3912C7.18605 13.3355 8.09231 13.3071 8.99951 13.306C9.90631 13.306 10.8126 13.3344 11.7185 13.3912C11.5881 13.8497 11.4251 14.2983 11.2309 14.7336C10.9752 15.3458 10.6038 15.903 10.1371 16.3746ZM1.11691 9.5H4.70671C4.73011 10.5017 4.8387 11.4995 5.03131 12.4828C4.04998 12.5692 3.07118 12.6879 2.09491 12.8388C1.52316 11.8131 1.18895 10.6721 1.11691 9.5ZM2.09491 5.1614C3.07078 5.3126 4.04991 5.43127 5.03231 5.5174C4.83936 6.50055 4.73057 7.49837 4.70711 8.5H1.11691C1.18898 7.32797 1.52319 6.18706 2.09491 5.1614ZM7.86191 1.6254C8.03153 1.46172 8.22678 1.32687 8.43991 1.2262C8.6148 1.14311 8.80599 1.1 8.99961 1.1C9.19324 1.1 9.38443 1.14311 9.55931 1.2262C9.9648 1.43331 10.3119 1.73875 10.5689 2.1146C11.0937 2.87308 11.4827 3.71705 11.7183 4.6088C10.813 4.66453 9.90671 4.69293 8.99951 4.694C8.09271 4.694 7.18638 4.6656 6.28051 4.6088C6.41097 4.15032 6.57391 3.70172 6.76811 3.2664C7.02383 2.65417 7.39521 2.097 7.86191 1.6254ZM16.8821 8.5H13.2923C13.2689 7.49833 13.1603 6.50046 12.9677 5.5172C13.949 5.4308 14.9278 5.31213 15.9041 5.1612C16.4759 6.18692 16.8101 7.3279 16.8821 8.5ZM6.03711 12.405C5.84157 11.4483 5.73114 10.4762 5.70711 9.5H12.2921C12.2683 10.4762 12.1581 11.4484 11.9627 12.4052C10.976 12.3404 9.98831 12.3073 8.99951 12.306C8.01151 12.306 7.02405 12.339 6.03711 12.405ZM11.9619 5.595C12.1574 6.55169 12.2679 7.52382 12.2919 8.5H5.70711C5.73092 7.52377 5.84115 6.55157 6.03651 5.5948C7.02318 5.6596 8.01091 5.69267 8.99971 5.694C9.98771 5.694 10.9752 5.66093 11.9621 5.5948L11.9619 5.595ZM13.2919 9.5H16.8821C16.8101 10.672 16.4758 11.8129 15.9041 12.8386C14.9281 12.6874 13.949 12.5687 12.9667 12.4826C13.1597 11.4994 13.2685 10.5016 13.2919 9.5ZM15.3045 4.241C14.4512 4.36407 13.5954 4.46153 12.7371 4.5334C12.5829 3.95901 12.3839 3.39756 12.1421 2.8542C11.9213 2.35421 11.6435 1.88141 11.3141 1.4452C12.9056 1.93333 14.3022 2.91184 15.3045 4.241ZM3.41351 3.4138C4.3265 2.49994 5.44972 1.82399 6.68471 1.4452C6.66591 1.4696 6.64671 1.4928 6.62831 1.5174C5.99351 2.43118 5.53111 3.45332 5.26391 4.5334C4.40551 4.46073 3.54911 4.36327 2.69471 4.241C2.91504 3.94909 3.15521 3.6727 3.41351 3.4138ZM2.69471 13.759C3.54791 13.6359 4.40371 13.5385 5.26211 13.4666C5.41636 14.041 5.61529 14.6024 5.85711 15.1458C6.07793 15.6458 6.35578 16.1186 6.68511 16.5548C5.09359 16.0667 3.69698 15.0882 2.69471 13.759ZM14.5859 14.5862C13.6729 15.5001 12.5497 16.176 11.3147 16.5548C11.3335 16.5304 11.3527 16.5072 11.3711 16.4826C12.0059 15.5688 12.4683 14.5467 12.7355 13.4666C13.5939 13.5393 14.4503 13.6367 15.3047 13.759C15.0844 14.0509 14.8442 14.3273 14.5859 14.5862Z" fill="#37352F"/>
</svg>
