<svg width="16" height="16" viewBox="0 0 16 16" fill="none" xmlns="http://www.w3.org/2000/svg">
<g clip-path="url(#clip0_19769_22950)">
<path d="M8.00016 15.6693C6.48383 15.6693 5.00156 15.2196 3.74079 14.3772C2.48001 13.5348 1.49736 12.3374 0.917089 10.9365C0.336818 9.5356 0.184993 7.99409 0.480812 6.50691C0.776632 5.01972 1.50681 3.65365 2.57901 2.58145C3.65121 1.50925 5.01728 0.779073 6.50447 0.483254C7.99165 0.187434 9.53316 0.339259 10.9341 0.91953C12.335 1.4998 13.5323 2.48246 14.3747 3.74323C15.2172 5.00401 15.6668 6.48628 15.6668 8.0026C15.6636 8.56955 15.6026 9.1347 15.4847 9.68926C15.4709 9.75219 15.4448 9.81177 15.4079 9.86461C15.371 9.91745 15.3241 9.9625 15.2698 9.99721C15.2156 10.0319 15.155 10.0556 15.0915 10.0669C15.0281 10.0782 14.9631 10.0769 14.9001 10.063C14.8372 10.0492 14.7776 10.0231 14.7248 9.9862C14.672 9.94933 14.6269 9.90241 14.5922 9.84813C14.5575 9.79384 14.5338 9.73326 14.5225 9.66982C14.5112 9.60639 14.5126 9.54136 14.5264 9.47843C14.6401 8.99448 14.7011 8.49967 14.7085 8.0026C14.7074 6.53824 14.2273 5.11444 13.3413 3.94853C12.4553 2.78261 11.2121 1.93864 9.80152 1.54542C8.39094 1.1522 6.89044 1.23134 5.52905 1.77075C4.16766 2.31017 3.02017 3.28024 2.26172 4.53288C1.50328 5.78553 1.17555 7.25194 1.32855 8.70828C1.48156 10.1646 2.10689 11.5309 3.10911 12.5986C4.11133 13.6662 5.43537 14.3766 6.87914 14.6214C8.32291 14.8661 9.80709 14.6316 11.1052 13.9538C11.161 13.9156 11.2244 13.8896 11.291 13.8776C11.3577 13.8657 11.4261 13.8679 11.4918 13.8843C11.5575 13.9007 11.619 13.9308 11.6722 13.9727C11.7254 14.0146 11.7691 14.0673 11.8005 14.1273C11.8318 14.1873 11.8501 14.2532 11.8541 14.3208C11.8582 14.3884 11.8478 14.4561 11.8237 14.5194C11.7997 14.5827 11.7625 14.6402 11.7146 14.6881C11.6668 14.7359 11.6093 14.7731 11.546 14.7972C10.4528 15.3724 9.2355 15.6718 8.00016 15.6693Z" fill="#E7B85D" stroke="#E7B85D" stroke-width="0.5"/>
<path d="M13.2712 13.7526C13.1441 13.7526 13.0222 13.7021 12.9323 13.6123C12.8425 13.5224 12.792 13.4005 12.792 13.2734V9.4401C12.792 9.31302 12.8425 9.19114 12.9323 9.10128C13.0222 9.01142 13.1441 8.96094 13.2712 8.96094C13.3982 8.96094 13.5201 9.01142 13.61 9.10128C13.6998 9.19114 13.7503 9.31302 13.7503 9.4401V13.2734C13.7503 13.4005 13.6998 13.5224 13.61 13.6123C13.5201 13.7021 13.3982 13.7526 13.2712 13.7526Z" fill="#E7B85D" stroke="#E7B85D" stroke-width="0.5"/>
<path d="M13.2712 15.6693C13.5358 15.6693 13.7503 15.4547 13.7503 15.1901C13.7503 14.9255 13.5358 14.7109 13.2712 14.7109C13.0065 14.7109 12.792 14.9255 12.792 15.1901C12.792 15.4547 13.0065 15.6693 13.2712 15.6693Z" fill="#E7B85D" stroke="#E7B85D" stroke-width="0.5"/>
<path d="M5.2019 10.6668C5.13205 10.5596 5.10697 10.4294 5.13205 10.304C5.15713 10.1785 5.23038 10.068 5.33607 9.99594L8.00023 8.22302V3.6901C8.00023 3.56302 8.05072 3.44114 8.14058 3.35128C8.23044 3.26142 8.35232 3.21094 8.4794 3.21094C8.60648 3.21094 8.72836 3.26142 8.81822 3.35128C8.90808 3.44114 8.95856 3.56302 8.95856 3.6901V8.48177C8.95864 8.56092 8.93949 8.6389 8.90276 8.70901C8.86604 8.77912 8.81284 8.83926 8.74773 8.88427L5.87274 10.8009C5.76324 10.862 5.63555 10.8821 5.5126 10.8575C5.38965 10.8329 5.27949 10.7653 5.2019 10.6668Z" fill="#E7B85D" stroke="#E7B85D" stroke-width="0.5"/>
</g>
<defs>
<clipPath id="clip0_19769_22950">
<rect width="16" height="16" fill="white"/>
</clipPath>
</defs>
</svg>
