<svg width="18" height="18" viewBox="0 0 18 18" fill="none" xmlns="http://www.w3.org/2000/svg">
<rect width="18" height="18" rx="4" fill="#2C6FFF"/>
<path fill-rule="evenodd" clip-rule="evenodd" d="M9.46011 5.53209L10.2215 7.05323C10.2962 7.20257 10.4402 7.30611 10.6072 7.33008L12.3106 7.57526C12.7314 7.63602 12.8989 8.14606 12.5943 8.43831L11.3626 9.62185C11.2415 9.73824 11.1864 9.90554 11.2151 10.0698L11.5057 11.7408C11.5773 12.1541 11.1374 12.4695 10.7612 12.2739L9.23884 11.4845C9.08959 11.407 8.91084 11.407 8.76116 11.4845L7.23875 12.2739C6.8626 12.4695 6.42266 12.1541 6.49468 11.7408L6.78494 10.0698C6.81357 9.90554 6.75847 9.73824 6.63742 9.62185L5.4057 8.43831C5.10113 8.14606 5.2686 7.63602 5.68944 7.57526L7.39277 7.33008C7.55981 7.30611 7.70428 7.20257 7.77891 7.05323L8.53989 5.53209C8.72819 5.15597 9.27181 5.15597 9.46011 5.53209Z" stroke="white" stroke-width="1.2" stroke-linecap="round" stroke-linejoin="round"/>
</svg>
