<svg width="11" height="13" viewBox="0 0 11 13" fill="none" xmlns="http://www.w3.org/2000/svg">
<path d="M10.5 2.16667C10.5 3.08714 8.26142 3.83333 5.5 3.83333C2.73858 3.83333 0.5 3.08714 0.5 2.16667M10.5 2.16667C10.5 1.24619 8.26142 0.5 5.5 0.5C2.73858 0.5 0.5 1.24619 0.5 2.16667M10.5 2.16667V9.94444C10.5 10.8667 8.27778 11.6111 5.5 11.6111C2.72222 11.6111 0.5 10.8667 0.5 9.94444V2.16667M10.5 6.05556C10.5 6.97778 8.27778 7.72222 5.5 7.72222C2.72222 7.72222 0.5 6.97778 0.5 6.05556" stroke="#717680" stroke-linecap="round" stroke-linejoin="round"/>
</svg>
