<svg width="14" height="14" viewBox="0 0 14 14" fill="none" xmlns="http://www.w3.org/2000/svg">
<path d="M6.99984 0C3.13398 0 0 3.13398 0 6.99984C0 10.8657 3.13398 14 6.99984 14C10.8657 14 13.9997 10.866 13.9997 6.99984C13.9997 3.13366 10.8657 0 6.99984 0Z" fill="#408DFB"/>
<path d="M6.99984 0C3.13398 0 0 3.13398 0 6.99984C0 10.8657 3.13398 14 6.99984 14C10.8657 14 13.9997 10.866 13.9997 6.99984C13.9997 3.13366 10.8657 0 6.99984 0ZM10.3737 7.71075H7.71202V10.3727C7.71202 10.7675 7.39214 11.0874 6.9973 11.0874C6.60245 11.0874 6.28258 10.7675 6.28258 10.3727V7.71075H3.62063C3.2261 7.71075 2.90591 7.39087 2.90591 6.99603C2.90591 6.60118 3.2261 6.28131 3.62063 6.28131H6.28258V3.61968C6.28258 3.22483 6.60245 2.90495 6.9973 2.90495C7.39214 2.90495 7.71202 3.22483 7.71202 3.61968V6.28131H10.3737C10.7685 6.28131 11.0884 6.6015 11.0884 6.99603C11.0884 7.39056 10.7685 7.71075 10.3737 7.71075Z" fill="white"/>
</svg>
