<svg width="20" height="20" viewBox="0 0 20 20" fill="none" xmlns="http://www.w3.org/2000/svg">
<path d="M14.75 6.74994C14.75 6.23812 14.5547 5.7263 14.1642 5.33579C13.7737 4.94526 13.2618 4.75 12.75 4.75M12.75 12.75C16.0637 12.75 18.75 10.0637 18.75 6.75C18.75 3.43629 16.0637 0.75 12.75 0.75C9.43629 0.75 6.75 3.43629 6.75 6.75C6.75 7.02368 6.76832 7.29308 6.80381 7.55704C6.86218 7.99118 6.89136 8.20825 6.87172 8.34559C6.85125 8.48865 6.8252 8.56575 6.75469 8.6919C6.687 8.813 6.56771 8.93229 6.32913 9.17087L1.21863 14.2814C1.04568 14.4543 0.959202 14.5408 0.89736 14.6417C0.842531 14.7312 0.802127 14.8287 0.77763 14.9308C0.75 15.0459 0.75 15.1682 0.75 15.4127V17.15C0.75 17.7101 0.75 17.9901 0.858993 18.204C0.954867 18.3922 1.10785 18.5451 1.29601 18.641C1.50992 18.75 1.78995 18.75 2.35 18.75H4.75V16.75H6.75V14.75H8.75L10.3291 13.1709C10.5677 12.9323 10.687 12.813 10.8081 12.7453C10.9343 12.6748 11.0113 12.6487 11.1544 12.6283C11.2917 12.6086 11.5088 12.6378 11.943 12.6962C12.2069 12.7317 12.4763 12.75 12.75 12.75Z" stroke="#717680" stroke-width="1.5" stroke-linecap="round" stroke-linejoin="round"/>
</svg>
