<svg width="60" height="60" viewBox="0 0 60 60" fill="none" xmlns="http://www.w3.org/2000/svg">
<path d="M16.9489 36.0857C17.0396 36.082 17.1267 35.9877 17.2174 35.984C17.1267 35.9877 17.036 35.9913 16.9489 36.0857Z" fill="#4C526C"/>
<path d="M16.5027 36.2854C16.5462 36.2382 16.6805 36.1874 16.724 36.1402C16.6369 36.2346 16.5462 36.2382 16.5027 36.2854Z" fill="#4C526C"/>
<path d="M16.0164 36.623C16.06 36.5759 16.1942 36.525 16.2377 36.4778C16.1942 36.525 16.1035 36.5287 16.0164 36.623Z" fill="#4C526C"/>
<path d="M35.7634 15.8813C35.8179 16.1063 35.8761 16.422 35.8871 16.6941C35.8289 16.3784 35.7744 16.1534 35.7634 15.8813Z" fill="#4C526C"/>
<path d="M35.8728 17.4668C35.8618 17.1946 35.8508 16.9224 35.8399 16.6502C35.898 16.966 35.8618 17.1946 35.8728 17.4668Z" fill="#4C526C"/>
<path d="M35.5491 15.0722C35.6036 15.2971 35.6544 15.4314 35.6617 15.6129C35.6544 15.4314 35.5564 15.2536 35.5491 15.0722Z" fill="#4C526C"/>
<path d="M34.7937 13.2394C34.9389 13.4607 35.0406 13.7292 35.1423 13.9978C35.0406 13.7292 34.8954 13.5079 34.7937 13.2394Z" fill="#4C526C"/>
<path d="M22.4688 36.6357C22.6104 36.7663 22.7519 36.897 22.8935 37.0276C22.7955 36.8498 22.6539 36.7192 22.4688 36.6357Z" fill="#4C526C"/>
<path d="M35.5252 20.1162C35.4454 20.392 35.362 20.5771 35.2822 20.8529C35.4092 20.6206 35.4889 20.3448 35.5252 20.1162Z" fill="#4C526C"/>
<path d="M35.8259 18.5593C35.8332 18.7408 35.7498 18.9259 35.7571 19.1073C35.7934 18.8787 35.8332 18.7408 35.8259 18.5593Z" fill="#4C526C"/>
<path d="M20.019 35.5984C20.1097 35.5947 20.1569 35.6383 20.2948 35.6782C20.2476 35.6346 20.1569 35.6383 20.019 35.5984Z" fill="#4C526C"/>
<path d="M21.5833 36.0806C21.6776 36.1676 21.7684 36.164 21.8627 36.2511C21.7684 36.164 21.6304 36.1241 21.5833 36.0806Z" fill="#4C526C"/>
<path d="M20.5233 35.7144C20.614 35.7107 20.7084 35.7978 20.7991 35.7941C20.752 35.7506 20.6612 35.7542 20.5233 35.7144Z" fill="#4C526C"/>
<path d="M35.1988 21.0383C35.1154 21.2234 35.0755 21.3613 34.9921 21.5464C35.032 21.4085 35.1154 21.2234 35.1988 21.0383Z" fill="#4C526C"/>
<path d="M18.2822 15.0404C18.362 14.7646 18.4454 14.5795 18.5252 14.3037C18.4454 14.5795 18.3656 14.8553 18.2822 15.0404Z" fill="#4C526C"/>
<path d="M19.4138 12.6779C19.5407 12.4456 19.7149 12.2568 19.8418 12.0245C19.6677 12.2133 19.5407 12.4456 19.4138 12.6779Z" fill="#4C526C"/>
<path d="M18.6086 14.1186C18.692 13.9335 18.7319 13.7956 18.8153 13.6105C18.7754 13.7484 18.692 13.9335 18.6086 14.1186Z" fill="#4C526C"/>
<path d="M20.5819 11.2222C20.7125 11.0806 20.8431 10.939 21.0209 10.841C20.7996 10.9862 20.669 11.1278 20.5819 11.2222Z" fill="#4C526C"/>
<path d="M21.8553 10.1257C22.0767 9.98051 22.298 9.83528 22.6101 9.68641C22.3452 9.87882 22.0767 9.98051 21.8553 10.1257Z" fill="#4C526C"/>
<path d="M21.1951 10.6521C21.3257 10.5105 21.5035 10.4125 21.6813 10.3145C21.5035 10.4125 21.3729 10.5541 21.1951 10.6521Z" fill="#4C526C"/>
<path d="M18.9422 13.3783C19.0256 13.1932 19.1562 13.0517 19.2396 12.8666C19.1562 13.0517 19.0728 13.2368 18.9422 13.3783Z" fill="#4C526C"/>
<path d="M17.4388 35.8389C17.5295 35.8352 17.573 35.788 17.7073 35.7372C17.6202 35.8316 17.5295 35.8352 17.4388 35.8389Z" fill="#4C526C"/>
<path d="M18.1337 15.8642C18.1699 15.6356 18.2496 15.3598 18.3294 15.0839C18.2025 15.3162 18.1227 15.5921 18.1337 15.8642Z" fill="#4C526C"/>
<path d="M34.4408 22.5226C34.3138 22.7549 34.1397 22.9436 34.0127 23.1759C34.1397 22.9436 34.2666 22.7114 34.4408 22.5226Z" fill="#4C526C"/>
<path d="M18.6104 20.9337C18.5123 20.7559 18.505 20.5745 18.407 20.3967C18.4143 20.5781 18.5123 20.7559 18.6104 20.9337Z" fill="#4C526C"/>
<path d="M18.0873 19.2287C18.0873 19.2287 18.1345 19.2722 18.091 19.3194L18.0873 19.2287Z" fill="#4C526C"/>
<path d="M18.3052 20.1285C18.2507 19.9035 18.1999 19.7692 18.1926 19.5878C18.1999 19.7692 18.2072 19.9507 18.3052 20.1285Z" fill="#4C526C"/>
<path d="M21.0453 6.93254C19.8442 7.57158 18.832 8.38477 17.9613 9.32857C16.0457 11.4049 14.9723 14.0834 14.7625 16.7726C11.4423 17.8151 8.32903 19.4853 5.65511 21.9102C4.99842 22.5274 4.9479 23.529 5.51783 24.1421C6.13495 24.7988 7.13657 24.8493 7.74972 24.2794C9.85403 22.3772 12.3395 20.914 14.9413 20.0822C15.1702 21.2544 15.5807 22.4192 16.1689 23.4859C17.3961 25.7537 19.2837 27.4951 21.4614 28.5433L21.7674 32.7565C20.8456 32.4302 19.8875 32.3325 18.8895 32.3727C16.6214 32.464 14.4805 33.459 12.9133 35.1578C12.8697 35.205 12.8262 35.2522 12.7391 35.3466C11.6108 36.6642 11.6912 38.6602 12.9654 39.8356L23.819 49.8487C24.4796 50.4582 25.3543 50.741 26.2144 50.661L41.9387 49.6186C42.7987 49.5386 43.5571 49.19 44.0795 48.6237C44.5149 48.1518 44.8522 47.5021 44.8702 46.8198L46.2096 34.9525C46.6513 31.2544 44.2406 27.8075 40.6585 26.8613L36.0675 25.6832C39.4124 21.8681 40.006 16.301 37.5551 11.8561C34.3599 5.85099 26.9125 3.69742 21.0453 6.93254ZM43.103 34.5324L41.7636 46.3997L25.9921 47.3985L15.1385 37.3854C15.182 37.3382 15.182 37.3382 15.2255 37.291C15.2691 37.2438 15.3126 37.1967 15.3561 37.1495C15.3997 37.1023 15.4868 37.0079 15.5303 36.9607C15.5738 36.9135 15.6609 36.8191 15.7516 36.8155C15.7952 36.7683 15.8822 36.6739 15.9729 36.6703C16.0165 36.6231 16.1507 36.5722 16.1943 36.525C16.2378 36.4778 16.3721 36.427 16.4156 36.3798C16.4591 36.3326 16.5934 36.2818 16.6369 36.2346C16.6805 36.1874 16.8147 36.1366 16.8583 36.0894C16.949 36.0857 17.0361 35.9913 17.1268 35.9877C17.2175 35.984 17.3046 35.8896 17.3953 35.886C17.486 35.8823 17.5296 35.8351 17.6638 35.7843C17.7546 35.7807 17.7981 35.7335 17.9324 35.6826C18.0231 35.679 18.1138 35.6753 18.1573 35.6281C18.2481 35.6245 18.3388 35.6208 18.3823 35.5736C18.473 35.57 18.5638 35.5663 18.6545 35.5627C18.7452 35.559 18.8359 35.5553 18.9267 35.5517C19.0174 35.548 19.1081 35.5444 19.1988 35.5407C19.2896 35.5371 19.3803 35.5334 19.471 35.5298C19.5617 35.5261 19.6525 35.5225 19.6997 35.566C19.7904 35.5623 19.8811 35.5587 19.9283 35.6022C20.019 35.5986 20.0662 35.6421 20.2041 35.682C20.2949 35.6783 20.342 35.7219 20.4328 35.7182C20.5235 35.7146 20.6179 35.8016 20.7086 35.798C20.7993 35.7943 20.8465 35.8379 20.9844 35.8777C21.0751 35.8741 21.1695 35.9611 21.2603 35.9575C21.3074 36.001 21.3982 35.9974 21.4925 36.0844C21.5869 36.1715 21.6777 36.1679 21.772 36.2549C21.8192 36.2985 21.9099 36.2948 21.9571 36.3383C22.0515 36.4254 22.1894 36.4653 22.2838 36.5524C22.331 36.5959 22.3782 36.6394 22.4254 36.683C22.5669 36.8136 22.7085 36.9442 22.8501 37.0748L25.3511 39.3822L25.2455 37.887L24.6222 28.0525L24.0204 17.6265C23.9876 16.8099 24.2305 16.0732 24.7529 15.5069C25.2318 14.9878 25.8995 14.6429 26.6253 14.6136C27.9861 14.5588 29.2021 15.4186 29.5254 16.6777C29.5327 16.8592 29.6308 17.037 29.6381 17.2184L30.2175 25.9643L30.3232 27.4594L39.9191 29.9353C41.9841 30.4428 43.3347 32.3876 43.103 34.5324ZM35.8728 17.4671C35.8765 17.5578 35.8801 17.6486 35.8838 17.7393C35.8911 17.9207 35.8984 18.1022 35.8622 18.3308C35.8658 18.4215 35.8695 18.5123 35.8731 18.603C35.8805 18.7844 35.797 18.9695 35.8043 19.151C35.808 19.2417 35.7645 19.2889 35.7681 19.3796C35.7319 19.6083 35.6521 19.8841 35.5724 20.1599C35.4926 20.4358 35.4092 20.6209 35.3294 20.8967C35.2859 20.9439 35.2896 21.0346 35.2025 21.129C35.1191 21.3141 35.0792 21.452 34.9958 21.6371C34.9522 21.6843 34.9124 21.8222 34.8688 21.8694C34.7382 22.011 34.6983 22.1489 34.5677 22.2905C34.5242 22.3376 34.5278 22.4284 34.4408 22.5227C34.3138 22.755 34.1397 22.9438 34.0127 23.1761C34.0127 23.1761 34.0127 23.1761 33.9692 23.2233C33.8386 23.3649 33.6644 23.5536 33.5338 23.6952C33.4903 23.7424 33.4903 23.7424 33.4468 23.7896C33.4032 23.8368 33.3597 23.8839 33.3162 23.9311L32.857 17.0434C32.7477 15.4575 32.0069 13.9879 30.8272 12.8996C29.6039 11.8584 28.0832 11.329 26.4502 11.3947C24.9078 11.4569 23.4818 12.1504 22.3934 13.3301C21.2615 14.5571 20.7358 16.1685 20.8015 17.8016L21.2571 24.5986C21.0683 24.4245 20.8796 24.2503 20.6908 24.0762C20.0301 23.4667 19.5001 22.7156 19.0608 21.9609C18.9155 21.7396 18.8139 21.4711 18.7122 21.2026C18.7085 21.1118 18.6613 21.0683 18.6105 20.934C18.5124 20.7562 18.5051 20.5748 18.4071 20.397C18.4035 20.3063 18.3091 20.2192 18.3054 20.1285C18.2509 19.9035 18.2001 19.7692 18.1928 19.5878C18.1891 19.4971 18.1419 19.4535 18.1383 19.3628C18.1383 19.3628 18.0911 19.3193 18.1346 19.2721C18.0801 19.0471 18.0692 18.7749 18.0147 18.5499C18.0037 18.2778 17.9927 18.0056 17.9818 17.7334C17.9781 17.6427 17.9745 17.552 17.9708 17.4612C17.9635 17.2798 17.9562 17.0983 17.9924 16.8697C17.9888 16.779 17.9851 16.6882 17.9814 16.5975C17.9741 16.4161 18.0576 16.231 18.0502 16.0495C18.0466 15.9588 18.0901 15.9116 18.0865 15.8209C18.1227 15.5922 18.2025 15.3164 18.2822 15.0406C18.362 14.7647 18.4454 14.5796 18.5252 14.3038C18.5687 14.2566 18.565 14.1659 18.6521 14.0715C18.7355 13.8864 18.7754 13.7485 18.8588 13.5634C18.9024 13.5162 18.9422 13.3783 18.9858 13.3311C19.0692 13.146 19.1998 13.0044 19.2832 12.8193C19.3267 12.7721 19.3231 12.6814 19.4102 12.587C19.5371 12.3547 19.7113 12.166 19.8382 11.9337C19.8382 11.9337 19.8382 11.9337 19.8817 11.8865C20.0124 11.7449 20.1865 11.5562 20.3171 11.4146C20.3606 11.3674 20.3606 11.3674 20.4042 11.3202C20.4477 11.273 20.5348 11.1787 20.5783 11.1315C20.7089 10.9899 20.8395 10.8483 21.0173 10.7503C21.0608 10.7031 21.1479 10.6087 21.2386 10.6051C21.3693 10.4635 21.547 10.3655 21.7248 10.2674C21.7684 10.2202 21.9026 10.1694 21.9462 10.1222C22.1675 9.97698 22.3888 9.83176 22.7009 9.68288C27.0587 7.32642 32.5281 8.87812 34.8845 13.2359C35.0298 13.4573 35.1315 13.7258 35.2331 13.9943C35.2368 14.085 35.284 14.1286 35.3348 14.2628C35.4329 14.4406 35.4402 14.6221 35.5382 14.7999C35.5419 14.8906 35.6362 14.9777 35.6399 15.0684C35.6944 15.2934 35.7452 15.4276 35.7526 15.6091C35.7562 15.6998 35.8034 15.7433 35.807 15.8341C35.8615 16.059 35.9197 16.3747 35.9307 16.6469C35.8981 16.9663 35.8619 17.1949 35.8728 17.4671Z" fill="#4C526C"/>
<path d="M4.07721 24.4726C3.98649 24.4763 3.84857 24.4364 3.75785 24.4401C3.66712 24.4437 3.5764 24.4474 3.44214 24.4982C3.35141 24.5019 3.21715 24.5527 3.17362 24.5999C3.08289 24.6036 2.99582 24.6979 2.90875 24.7923C2.73096 24.8904 2.55682 25.0791 2.4734 25.2642C2.38633 25.3586 2.38999 25.4493 2.30292 25.5437C2.26303 25.6816 2.2195 25.7288 2.22315 25.8195C2.22681 25.9103 2.18693 26.0482 2.19058 26.1389C2.19424 26.2296 2.19789 26.3203 2.24873 26.4546C2.25239 26.5453 2.30323 26.6796 2.35042 26.7231C2.35408 26.8139 2.44846 26.9009 2.54283 26.988C2.63721 27.0751 2.6844 27.1186 2.77878 27.2057C3.06192 27.4669 3.52285 27.6301 3.93294 27.659C4.38657 27.6407 4.74216 27.4446 5.0469 27.1143C5.30811 26.8312 5.47129 26.3702 5.50021 25.9601C5.48194 25.5065 5.28587 25.1509 4.95554 24.8462C4.86116 24.7591 4.81397 24.7156 4.71959 24.6285C4.62522 24.5414 4.53449 24.5451 4.44011 24.458C4.25866 24.4653 4.16794 24.469 4.07721 24.4726Z" fill="#4C526C"/>
</svg>
