<svg width="14" height="14" viewBox="0 0 14 14" fill="none" xmlns="http://www.w3.org/2000/svg">
<path fill-rule="evenodd" clip-rule="evenodd" d="M9.51839 1.05594C9.51839 1.05594 4.40261 1.0586 4.39461 1.0586C2.55541 1.06993 1.41656 2.28008 1.41656 4.12594V10.254C1.41656 12.1092 2.56407 13.324 4.41926 13.324C4.41926 13.324 9.53438 13.322 9.54305 13.322C11.3822 13.3106 12.5218 12.0998 12.5218 10.254V4.12594C12.5218 2.27075 11.3736 1.05594 9.51839 1.05594Z" stroke="#9AA3C0" stroke-linecap="round" stroke-linejoin="round"/>
<path d="M10.2067 5.2009H7.28265" stroke="#2C6FFF" stroke-linecap="round" stroke-linejoin="round"/>
<path d="M3.73166 5.4465L4.25496 6.11932L5.56323 4.54941" stroke="#2C6FFF" stroke-linecap="round" stroke-linejoin="round"/>
<path d="M10.2067 9.07911H7.28265" stroke="#2C6FFF" stroke-linecap="round" stroke-linejoin="round"/>
<path d="M3.73166 9.1577L4.25496 9.83052L5.56323 8.2606" stroke="#2C6FFF" stroke-linecap="round" stroke-linejoin="round"/>
</svg>
