<svg width="31" height="32" viewBox="0 0 31 32" fill="none" xmlns="http://www.w3.org/2000/svg">
<circle cx="15.5" cy="15.823" r="15.5" fill="#F3D6D6"/>
<path d="M16.9393 8.23083C16.7812 8.21902 16.6411 8.30564 16.5308 8.40715L15.8334 9.26682C15.1242 10.1355 14.1582 10.7865 13.0666 11.1215L13.0547 11.1304C11.8647 11.4834 10.8093 12.1644 9.99859 13.0719L9.71844 13.3942L9.63781 13.2869C9.4676 13.0603 9.14539 13.0039 8.90688 13.1831C8.66838 13.3623 8.62388 13.6755 8.80305 13.914L9.25994 14.5222L12.7359 19.1492L16.2477 23.8238C16.4179 24.0504 16.7401 24.1068 16.9786 23.9277C17.2171 23.7485 17.2616 23.4352 17.0824 23.1967L13.8125 18.844L14.2179 18.3903C14.9153 17.6052 15.8157 17.0407 16.8148 16.7565L16.8596 16.7416C17.6171 16.5083 18.3268 16.1617 18.9588 15.6869C19.3881 15.3644 19.7935 14.9852 20.1332 14.5434L20.8306 13.6838C20.9736 13.5017 20.9794 13.2362 20.845 13.0573L17.369 8.43035C17.2586 8.30813 17.0974 8.24263 16.9393 8.23083Z" fill="#BF1919"/>
</svg>
