<svg width="25" height="25" viewBox="0 0 25 25" fill="none" xmlns="http://www.w3.org/2000/svg">
<rect x="0.627686" y="0.0868759" width="24" height="24" rx="4" fill="#F0A656"/>
<path fill-rule="evenodd" clip-rule="evenodd" d="M16.0267 3.90817C16.0267 3.90817 9.20566 3.91173 9.195 3.91173C6.74273 3.92683 5.22427 5.54035 5.22427 8.00151V16.1722C5.22427 18.6458 6.75428 20.2655 9.22787 20.2655C9.22787 20.2655 16.048 20.2629 16.0596 20.2629C18.5119 20.2478 20.0312 18.6334 20.0312 16.1722V8.00151C20.0312 5.52792 18.5003 3.90817 16.0267 3.90817Z" stroke="white" stroke-linecap="round" stroke-linejoin="round"/>
<path d="M16.9444 9.43479H13.0457" stroke="white" stroke-linecap="round" stroke-linejoin="round"/>
<path d="M8.311 9.76226L9.00874 10.6593L10.7531 8.56613" stroke="white" stroke-linecap="round" stroke-linejoin="round"/>
<path d="M16.9444 14.6057H13.0457" stroke="white" stroke-linecap="round" stroke-linejoin="round"/>
<path d="M8.311 14.7105L9.00874 15.6076L10.7531 13.5144" stroke="white" stroke-linecap="round" stroke-linejoin="round"/>
</svg>
