<svg width="25" height="25" viewBox="0 0 25 25" fill="none" xmlns="http://www.w3.org/2000/svg">
<rect x="0.627686" y="0.601929" width="24" height="24" rx="4" fill="#AAC436"/>
<path fill-rule="evenodd" clip-rule="evenodd" d="M15.2065 10.3668L17.5502 8.02724C16.1837 7.08291 14.5729 6.55348 12.9119 6.50382V9.72528C13.716 9.76613 14.5018 9.98558 15.2106 10.3668L15.2065 10.3668ZM7.41481 13.6186H4.09883C3.80648 15.2397 3.98109 16.9114 4.60182 18.4372L4.70435 18.4676L7.40274 16.7415C7.116 15.7187 7.116 14.6374 7.40274 13.6146L7.41481 13.6186ZM17.6671 13.0611C17.2586 12.0896 16.577 11.2574 15.7047 10.6662L18.001 8.36356C19.5044 9.55058 20.5721 11.203 21.0359 13.0611H17.6671ZM21.1737 13.6186H17.8539C18.1398 14.6414 18.1398 15.7228 17.8539 16.7455L20.5812 18.4804L20.6404 18.462C20.6468 18.4548 20.6516 18.4468 20.6548 18.4372C21.274 16.9105 21.4486 15.2397 21.157 13.6186L21.1737 13.6186ZM9.55343 10.6664C8.68439 11.2591 8.00438 12.0905 7.59749 13.0613H4.22224C4.68599 11.2031 5.75368 9.55072 7.25711 8.36372L9.55343 10.6664ZM7.70803 8.02724L10.0517 10.3668C10.7613 9.98554 11.5463 9.76608 12.3504 9.72524V6.50378C10.6885 6.55264 9.07609 7.08211 7.70803 8.02724Z" fill="white"/>
<path d="M13.9608 13.1692C14.2387 12.891 14.7722 13.1952 14.6689 13.5794L13.537 17.7571C13.3961 18.2768 12.8688 18.6113 12.37 18.6839H12.3642C12.0157 18.7349 11.6594 18.6667 11.3544 18.4905C10.5138 18.0021 10.3321 16.8192 10.9081 16.2386L13.9608 13.1692Z" fill="white"/>
</svg>
