<svg width="16" height="16" viewBox="0 0 16 16" fill="none" xmlns="http://www.w3.org/2000/svg">
<path d="M2.54712 4.25814C2.54712 3.31311 3.31283 2.5474 4.25786 2.54665H5.03643C5.48814 2.54665 5.92093 2.36733 6.24174 2.04954L6.78575 1.50477C7.45234 0.8344 8.53583 0.831373 9.2062 1.49796L9.20696 1.49872L9.21377 1.50477L9.75854 2.04954C10.0794 2.36808 10.5121 2.54665 10.9638 2.54665H11.7417C12.6867 2.54665 13.4532 3.31235 13.4532 4.25814V5.0352C13.4532 5.4869 13.6317 5.92045 13.9503 6.24126L14.495 6.78603C15.1654 7.45262 15.1692 8.53611 14.5026 9.20648L14.5018 9.20724L14.495 9.21405L13.9503 9.75882C13.6317 10.0789 13.4532 10.5117 13.4532 10.9634V11.7419C13.4532 12.687 12.6874 13.4527 11.7424 13.4527H11.7417H10.9623C10.5106 13.4527 10.0771 13.632 9.75703 13.9505L9.21226 14.4946C8.54642 15.1649 7.46369 15.1687 6.79332 14.5036C6.79256 14.5029 6.7918 14.5021 6.79105 14.5014L6.78424 14.4946L6.24022 13.9505C5.92017 13.632 5.48662 13.4534 5.03492 13.4527H4.25786C3.31283 13.4527 2.54712 12.687 2.54712 11.7419V10.9619C2.54712 10.5102 2.3678 10.0774 2.04926 9.75731L1.50525 9.21254C0.834876 8.5467 0.831093 7.46397 1.49693 6.7936C1.49693 6.79284 1.49768 6.79208 1.49844 6.79133L1.50525 6.78452L2.04926 6.23975C2.3678 5.91894 2.54712 5.48615 2.54712 5.03368V4.25814" stroke="#636676" stroke-width="1.2" stroke-linecap="round" stroke-linejoin="round"/>
<path d="M6.05544 9.94449L9.9445 6.05542" stroke="#636676" stroke-width="1.2" stroke-linecap="round" stroke-linejoin="round"/>
<path d="M9.88697 9.89052H9.89377" stroke="#636676" stroke-width="1.5" stroke-linecap="round" stroke-linejoin="round"/>
<path d="M6.1038 6.10732H6.11061" stroke="#636676" stroke-width="1.5" stroke-linecap="round" stroke-linejoin="round"/>
</svg>
