<svg width="14" height="10" viewBox="0 0 14 10" fill="none" xmlns="http://www.w3.org/2000/svg">
<path fill-rule="evenodd" clip-rule="evenodd" d="M8.90329 3.72152L10.661 1.96685C9.63621 1.2586 8.4281 0.861526 7.1823 0.82428V3.24037C7.78543 3.27101 8.37472 3.4356 8.90637 3.72155L8.90329 3.72152ZM3.05952 6.16037H0.572527C0.353262 7.37622 0.484221 8.62998 0.949773 9.77429L1.02667 9.79711L3.05046 8.50256C2.83541 7.73545 2.83541 6.92444 3.05046 6.15736L3.05952 6.16037ZM10.7487 5.74227C10.4423 5.01359 9.93112 4.38945 9.27694 3.94607L10.9992 2.21908C12.1267 3.10935 12.9275 4.34868 13.2753 5.74227H10.7487ZM13.3787 6.16037H10.8888C11.1032 6.92749 11.1032 7.7385 10.8888 8.50557L12.9343 9.80672L12.9787 9.7929C12.9835 9.7875 12.9871 9.78149 12.9895 9.77428C13.4539 8.62932 13.5848 7.37618 13.3662 6.16037L13.3787 6.16037ZM4.66348 3.9462C4.0117 4.39072 3.50169 5.01427 3.19652 5.74239H0.665089C1.0129 4.34872 1.81367 3.10946 2.94124 2.21921L4.66348 3.9462ZM3.27943 1.96685L5.03717 3.72152C5.5694 3.43557 6.15812 3.27098 6.76124 3.24034V0.824249C5.51475 0.860893 4.30547 1.258 3.27943 1.96685Z" fill="#9AA3C0"/>
<path d="M7.96826 5.82324C8.17661 5.61403 8.57711 5.84252 8.49951 6.13086L7.65088 9.26465C7.54497 9.65413 7.14983 9.90457 6.77588 9.95898H6.771C6.50976 9.99715 6.24283 9.9465 6.01416 9.81445C5.38374 9.44813 5.24815 8.56149 5.68018 8.12598L7.96826 5.82324Z" fill="#2C6FFF"/>
</svg>
