<svg width="18" height="18" viewBox="0 0 18 18" fill="none" xmlns="http://www.w3.org/2000/svg">
<circle cx="8.60294" cy="9.11156" r="7.83295" fill="white" stroke="#9AA3C0" stroke-width="1.2" stroke-linecap="round" stroke-linejoin="round"/>
<path d="M9.68272 5.12926C9.59978 5.12307 9.52628 5.1685 9.46843 5.22175L9.10264 5.67267C8.73061 6.12829 8.22391 6.46979 7.65137 6.64549L7.64512 6.65019C7.02095 6.83532 6.46733 7.19251 6.04211 7.66851L5.89516 7.83762L5.85287 7.78132C5.76359 7.66248 5.59458 7.63288 5.46948 7.72686C5.34438 7.82084 5.32103 7.98515 5.41502 8.11025L5.65467 8.42926L7.47789 10.8562L9.31992 13.3082C9.4092 13.4271 9.57821 13.4567 9.70331 13.3627C9.82841 13.2687 9.85175 13.1044 9.75777 12.9793L8.04262 10.6962L8.25523 10.4582C8.62105 10.0464 9.09335 9.75028 9.61741 9.60122L9.64087 9.59337C10.0382 9.47101 10.4105 9.28921 10.742 9.04017C10.9672 8.871 11.1798 8.67212 11.358 8.4404L11.7238 7.98948C11.7988 7.89397 11.8018 7.75471 11.7313 7.66088L9.90812 5.23392C9.85017 5.16981 9.76565 5.13545 9.68272 5.12926Z" fill="#BF1919"/>
</svg>
