<svg viewBox="0 0 14 16" fill="none" xmlns="http://www.w3.org/2000/svg">
<path d="M3.27451 5.6286C3.27451 7.1785 4.53128 8.43512 6.08115 8.43524H8.42295V9.63544H6.08115C3.86854 9.63531 2.07529 7.84124 2.07529 5.6286H3.27451Z" fill="#2C6FFF"/>
<path d="M3.27451 10.9193L2.07529 10.9193L2.07529 4.56281L3.27451 4.56281L3.27451 10.9193Z" fill="#2C6FFF"/>
<path d="M4.15039 2.6748C4.15034 1.86007 3.48955 1.19922 2.6748 1.19922C1.8601 1.19927 1.19927 1.8601 1.19922 2.6748C1.19922 3.48955 1.86007 4.15034 2.6748 4.15039C3.48959 4.15039 4.15039 3.48959 4.15039 2.6748ZM5.35059 2.6748C5.35059 4.15233 4.15233 5.35059 2.6748 5.35059C1.19733 5.35053 0 4.1523 0 2.6748C5.36073e-05 1.19736 1.19736 5.3607e-05 2.6748 0C4.1523 0 5.35053 1.19733 5.35059 2.6748Z" fill="#9AA3C0"/>
<path d="M11.9734 8.84387C11.9734 8.02914 11.3126 7.36829 10.4978 7.36829C9.68312 7.36834 9.02229 8.02917 9.02224 8.84387C9.02224 9.65862 9.68308 10.3194 10.4978 10.3195C11.3126 10.3195 11.9734 9.65865 11.9734 8.84387ZM13.1736 8.84387C13.1736 10.3214 11.9753 11.5197 10.4978 11.5197C9.02034 11.5196 7.82302 10.3214 7.82302 8.84387C7.82307 7.36643 9.02038 6.16912 10.4978 6.16907C11.9753 6.16907 13.1735 7.36639 13.1736 8.84387Z" fill="#9AA3C0"/>
<path d="M4.15039 12.9944C4.15034 12.1797 3.48955 11.5189 2.6748 11.5189C1.8601 11.5189 1.19927 12.1797 1.19922 12.9944C1.19922 13.8092 1.86007 14.47 2.6748 14.47C3.48959 14.47 4.15039 13.8092 4.15039 12.9944ZM5.35059 12.9944C5.35059 14.472 4.15233 15.6702 2.6748 15.6702C1.19733 15.6702 0 14.4719 0 12.9944C5.36073e-05 11.517 1.19736 10.3197 2.6748 10.3196C4.1523 10.3196 5.35053 11.517 5.35059 12.9944Z" fill="#9AA3C0"/>
</svg>
