<svg viewBox="0 0 24 24" fill="none" xmlns="http://www.w3.org/2000/svg">
<rect width="24" height="24" rx="4" fill="#9E56F0"/>
<path d="M9.70563 9.6286C9.70563 11.1785 10.9624 12.4351 12.5123 12.4352H14.8541V13.6354H12.5123C10.2997 13.6353 8.50641 11.8412 8.50641 9.6286H9.70563Z" fill="white"/>
<path d="M9.70563 14.9193L8.50641 14.9193L8.50641 8.56281L9.70563 8.56281L9.70563 14.9193Z" fill="white"/>
<path d="M10.5815 6.6748C10.5815 5.86007 9.92068 5.19922 9.10593 5.19922C8.29122 5.19927 7.63039 5.8601 7.63034 6.6748C7.63034 7.48955 8.29119 8.15034 9.10593 8.15039C9.92071 8.15039 10.5815 7.48959 10.5815 6.6748ZM11.7817 6.6748C11.7817 8.15233 10.5835 9.35059 9.10593 9.35059C7.62845 9.35053 6.43112 8.1523 6.43112 6.6748C6.43118 5.19736 7.62848 4.00005 9.10593 4C10.5834 4 11.7817 5.19733 11.7817 6.6748Z" fill="white"/>
<path d="M18.4045 12.8439C18.4045 12.0291 17.7437 11.3683 16.929 11.3683C16.1143 11.3683 15.4534 12.0292 15.4534 12.8439C15.4534 13.6586 16.1142 14.3194 16.929 14.3195C17.7437 14.3195 18.4045 13.6587 18.4045 12.8439ZM19.6047 12.8439C19.6047 14.3214 18.4065 15.5197 16.929 15.5197C15.4515 15.5196 14.2542 14.3214 14.2542 12.8439C14.2542 11.3664 15.4515 10.1691 16.929 10.1691C18.4064 10.1691 19.6047 11.3664 19.6047 12.8439Z" fill="white"/>
<path d="M10.5815 16.9944C10.5815 16.1797 9.92068 15.5189 9.10593 15.5189C8.29122 15.5189 7.63039 16.1797 7.63034 16.9944C7.63034 17.8092 8.29119 18.47 9.10593 18.47C9.92071 18.47 10.5815 17.8092 10.5815 16.9944ZM11.7817 16.9944C11.7817 18.472 10.5835 19.6702 9.10593 19.6702C7.62845 19.6702 6.43112 18.4719 6.43112 16.9944C6.43118 15.517 7.62848 14.3197 9.10593 14.3196C10.5834 14.3196 11.7817 15.517 11.7817 16.9944Z" fill="white"/>
</svg>
