<svg width="15" height="15" viewBox="0 0 15 15" fill="none" xmlns="http://www.w3.org/2000/svg">
<path d="M6.00064 8.21277L7.12552 9.65903L9.93772 6.28439" stroke="#2C6FFF" stroke-linecap="round" stroke-linejoin="round"/>
<path d="M2.9057 4.49719C2.9057 3.61966 3.61671 2.90865 4.49424 2.90794H5.2172C5.63664 2.90794 6.03852 2.74143 6.33641 2.44635L6.84157 1.94049C7.46054 1.318 8.46664 1.31519 9.08913 1.93416L9.08983 1.93487L9.09616 1.94049L9.60202 2.44635C9.89991 2.74213 10.3018 2.90794 10.7212 2.90794H11.4435C12.321 2.90794 13.0327 3.61896 13.0327 4.49719V5.21874C13.0327 5.63818 13.1985 6.04076 13.4943 6.33866L14.0002 6.84452C14.6227 7.46349 14.6262 8.46959 14.0072 9.09208L14.0065 9.09278L14.0002 9.0991L13.4943 9.60496C13.1985 9.90216 13.0327 10.304 13.0327 10.7235V11.4464C13.0327 12.324 12.3217 13.035 11.4442 13.035H11.4435H10.7198C10.3004 13.035 9.8978 13.2015 9.60061 13.4973L9.09475 14.0024C8.47648 14.6249 7.47108 14.6284 6.84859 14.0109C6.84789 14.0102 6.84719 14.0095 6.84649 14.0088L6.84016 14.0024L6.33501 13.4973C6.03781 13.2015 5.63523 13.0357 5.21579 13.035H4.49424C3.61671 13.035 2.9057 12.324 2.9057 11.4464V10.7221C2.9057 10.3026 2.73919 9.90075 2.4434 9.60356L1.93824 9.0977C1.31576 8.47943 1.31224 7.47403 1.93052 6.85154C1.93052 6.85084 1.93122 6.85014 1.93192 6.84943L1.93824 6.84311L2.4434 6.33725C2.73919 6.03936 2.9057 5.63748 2.9057 5.21733V4.49719" stroke="#9AA3C0" stroke-linecap="round" stroke-linejoin="round"/>
</svg>
