<svg width="11" height="12" viewBox="0 0 11 12" fill="none" xmlns="http://www.w3.org/2000/svg">
<path d="M9.99181 6.55894C9.74916 6.55894 9.55063 6.75747 9.55063 7.00012C9.55063 9.21703 7.74622 11.0214 5.52931 11.0214C3.3124 11.0214 1.51019 9.21703 1.51019 7.00012C1.51019 4.78321 3.3146 2.981 5.53151 2.981H8.97931L8.22931 3.731C8.05725 3.90306 8.05725 4.18321 8.22931 4.35526C8.31534 4.44129 8.42784 4.48541 8.54034 4.48541C8.65284 4.48541 8.76534 4.44129 8.85137 4.35526L10.347 2.85968C10.4308 2.77585 10.4771 2.66556 10.4771 2.54865C10.4771 2.43173 10.4308 2.31923 10.347 2.23762L8.85137 0.739823C8.67931 0.567764 8.39916 0.567764 8.2271 0.739823C8.05504 0.911882 8.05504 1.19203 8.2271 1.36409L8.96166 2.09865H5.52931C4.21901 2.09865 2.98813 2.60821 2.06166 3.53468C1.1374 4.46115 0.627838 5.69203 0.627838 7.00012C0.627838 8.30821 1.1374 9.54129 2.06387 10.4678C2.99034 11.3942 4.22122 11.9038 5.53151 11.9038C6.84181 11.9038 8.07269 11.3942 8.99916 10.4678C9.92563 9.54129 10.4352 8.31041 10.4352 7.00012C10.4352 6.77512 10.2367 6.55894 9.99401 6.55894H9.99181Z" fill="#545A84"/>
</svg>
