<svg width="12" height="17" viewBox="0 0 12 17" fill="none" xmlns="http://www.w3.org/2000/svg">
<path d="M6.30957 13.0596C7.23873 13.0598 8.00391 13.8278 8.00391 14.7803C8.00374 15.7341 7.23712 16.4998 6.30957 16.5C5.38036 16.5 4.61442 15.7327 4.61426 14.7803C4.61426 14.18 4.91897 13.6509 5.37988 13.3428L5.48633 13.2715L5.60352 13.2168C5.81909 13.1162 6.0591 13.0596 6.30957 13.0596ZM2.6416 6.32812C3.01329 6.32816 3.36342 6.42447 3.66895 6.59473L3.79395 6.66406L3.89551 6.73926C4.39663 7.10851 4.73528 7.69311 4.77539 8.35645L4.78418 8.5L4.77539 8.64258C4.73338 9.30708 4.3963 9.8903 3.89453 10.2617L3.80176 10.3301L3.66797 10.4053C3.36551 10.5749 3.01598 10.6718 2.6416 10.6719C1.46716 10.6719 0.5 9.70207 0.5 8.5C0.500001 7.29793 1.46716 6.32812 2.6416 6.32812ZM9.80273 6.77539C10.7305 6.77539 11.4981 7.54165 11.5 8.50488C11.4997 9.45862 10.7331 10.2244 9.80566 10.2246C8.92123 10.2246 8.18224 9.5275 8.11523 8.63672L8.10352 8.48633L8.11328 8.36328C8.18028 7.47264 8.91849 6.77561 9.80273 6.77539ZM6.30957 0.5C7.23863 0.500185 8.00374 1.26741 8.00391 2.21973C8.00391 3.17372 7.23722 3.94024 6.30957 3.94043C6.0591 3.94043 5.81909 3.88385 5.60352 3.7832L5.48633 3.72754L5.37988 3.65723C4.91897 3.34911 4.61426 2.82003 4.61426 2.21973C4.61442 1.26576 5.38187 0.5 6.30957 0.5Z" stroke="currentColor"/>
</svg>
