<svg width="25" height="25" viewBox="0 0 25 25" fill="none" xmlns="http://www.w3.org/2000/svg">
<rect x="0.627686" y="0.344402" width="24" height="24" rx="4" fill="#2C6FFF"/>
<path fill-rule="evenodd" clip-rule="evenodd" d="M11.734 11.7123C12.522 11.3571 13.3219 12.186 12.9791 13.0026L10.3905 19.1586C10.0122 20.0596 8.733 19.8868 8.58849 18.9164L8.27459 16.8C8.25752 16.6898 8.17478 16.604 8.0697 16.5877L6.02612 16.261C5.08968 16.1113 4.92419 14.787 5.79234 14.3936L11.734 11.7123Z" fill="white"/>
<path fill-rule="evenodd" clip-rule="evenodd" d="M6.21196 12.3437C6.21196 8.80192 9.08527 5.92862 12.6285 5.92862C16.1717 5.92862 19.0435 8.80192 19.0435 12.3437C19.0435 15.8854 16.1702 18.7602 12.6285 18.7602C12.3548 18.7602 12.1339 18.9811 12.1339 19.2533C12.1339 19.5255 12.3548 19.7479 12.6285 19.7479C16.716 19.7479 20.0312 16.4327 20.0312 12.3437C20.0312 8.25463 16.716 4.94093 12.6285 4.94093C8.54089 4.94093 5.22427 8.25609 5.22427 12.3437C5.22427 12.6173 5.44518 12.8382 5.71883 12.8382C5.99248 12.8382 6.21196 12.6173 6.21196 12.3437ZM12.6285 8.6308C10.9509 8.6308 9.53423 9.74107 9.0725 11.2675C8.99411 11.5297 8.71761 11.6765 8.45679 11.5982C8.19454 11.5198 8.04774 11.2433 8.12613 10.9824C8.71048 9.04976 10.5034 7.64302 12.6286 7.64302C15.224 7.64302 17.3291 9.74811 17.3291 12.3436C17.3291 14.4614 15.9309 16.2502 14.0098 16.8402C13.7489 16.92 13.4724 16.7732 13.3926 16.5123C13.3114 16.2515 13.4582 15.975 13.719 15.8952C15.2383 15.4292 16.3415 14.0153 16.3415 12.3434C16.3415 10.2925 14.6781 8.6308 12.6285 8.6308Z" fill="white"/>
</svg>
