<svg width="14" height="14" viewBox="0 0 14 14" fill="none" xmlns="http://www.w3.org/2000/svg">
<path fill-rule="evenodd" clip-rule="evenodd" d="M6.1845 6.01916C6.87637 5.70727 7.57862 6.43502 7.27765 7.15199L5.00492 12.5568C4.67282 13.3479 3.54968 13.1962 3.4228 12.3441L3.1472 10.486C3.13221 10.3892 3.05956 10.314 2.96731 10.2996L1.17309 10.0128C0.350918 9.88137 0.205621 8.71867 0.967839 8.37328L6.1845 6.01916Z" fill="#2C6FFF"/>
<path fill-rule="evenodd" clip-rule="evenodd" d="M1.33625 6.57346C1.33625 3.46389 3.85896 0.94119 6.96981 0.94119C10.0807 0.94119 12.6021 3.46389 12.6021 6.57346C12.6021 9.68304 10.0794 12.207 6.96981 12.207C6.72955 12.207 6.5356 12.401 6.5356 12.64C6.5356 12.879 6.72955 13.0742 6.96981 13.0742C10.5586 13.0742 13.4693 10.1636 13.4693 6.57346C13.4693 2.98338 10.5586 0.0740204 6.96981 0.0740204C3.38101 0.0740204 0.469086 2.98466 0.469086 6.57346C0.469086 6.81372 0.663038 7.00767 0.903295 7.00767C1.14355 7.00767 1.33625 6.81372 1.33625 6.57346ZM6.96981 3.31365C5.49698 3.31365 4.25314 4.28844 3.84775 5.62861C3.77892 5.85886 3.53616 5.98775 3.30717 5.91892C3.07692 5.8501 2.94803 5.60734 3.01686 5.37834C3.5299 3.68149 5.10405 2.4464 6.96989 2.4464C9.24865 2.4464 11.0969 4.29462 11.0969 6.57338C11.0969 8.43282 9.8693 10.0033 8.18255 10.5213C7.95355 10.5914 7.7108 10.4625 7.64072 10.2335C7.5694 10.0045 7.69828 9.76173 7.92728 9.69165C9.26121 9.28246 10.2298 8.04108 10.2298 6.57327C10.2298 4.77262 8.76931 3.31365 6.96981 3.31365Z" fill="#9AA3C0"/>
</svg>
