<svg width="18" height="18" viewBox="0 0 18 18" fill="none" xmlns="http://www.w3.org/2000/svg">
<rect width="18" height="18" rx="4" fill="#2C6FFF"/>
<path fill-rule="evenodd" clip-rule="evenodd" d="M9.46011 5.53202L10.2215 7.05317C10.2962 7.2025 10.4402 7.30605 10.6072 7.33002L12.3106 7.5752C12.7314 7.63596 12.8989 8.146 12.5943 8.43825L11.3626 9.62179C11.2415 9.73818 11.1864 9.90548 11.2151 10.0698L11.5057 11.7407C11.5773 12.154 11.1374 12.4694 10.7612 12.2738L9.23884 11.4844C9.08959 11.4069 8.91084 11.4069 8.76116 11.4844L7.23875 12.2738C6.8626 12.4694 6.42266 12.154 6.49468 11.7407L6.78494 10.0698C6.81357 9.90548 6.75847 9.73818 6.63742 9.62179L5.4057 8.43825C5.10113 8.146 5.2686 7.63596 5.68944 7.5752L7.39277 7.33002C7.55981 7.30605 7.70428 7.2025 7.77891 7.05317L8.53989 5.53202C8.72819 5.15591 9.27181 5.15591 9.46011 5.53202Z" stroke="white" stroke-width="1.2" stroke-linecap="round" stroke-linejoin="round"/>
</svg>
