<svg viewBox="0 0 20 20" fill="none" xmlns="http://www.w3.org/2000/svg">
<path d="M2 4C2 1.79086 3.79086 0 6 0H12L18 6V16C18 18.2091 16.2091 20 14 20H6C3.79086 20 2 18.2091 2 16V4Z" fill="#155EEF"/>
<path opacity="0.3" d="M12 0L18 6H16C13.7909 6 12 4.20914 12 2V0Z" fill="white"/>
<g clip-path="url(#clip0_35_8296)">
<path d="M10.0003 15.3334C11.8413 15.3334 13.3337 13.841 13.3337 12C13.3337 10.1591 11.8413 8.66669 10.0003 8.66669C8.15938 8.66669 6.66699 10.1591 6.66699 12C6.66699 13.841 8.15938 15.3334 10.0003 15.3334Z" stroke="white" stroke-linecap="round" stroke-linejoin="round"/>
<path d="M9.16699 10.9885C9.16699 10.8294 9.16699 10.7498 9.20024 10.7054C9.22921 10.6667 9.27356 10.6425 9.32178 10.6391C9.37712 10.6351 9.44403 10.6781 9.57786 10.7642L11.1514 11.7757C11.2675 11.8504 11.3256 11.8877 11.3456 11.9352C11.3632 11.9766 11.3632 12.0234 11.3456 12.0649C11.3256 12.1124 11.2675 12.1497 11.1514 12.2243L9.57786 13.2359C9.44403 13.3219 9.37712 13.3649 9.32178 13.361C9.27356 13.3575 9.22921 13.3333 9.20024 13.2946C9.16699 13.2502 9.16699 13.1707 9.16699 13.0116V10.9885Z" stroke="white" stroke-linecap="round" stroke-linejoin="round"/>
</g>
<defs>
<clipPath id="clip0_35_8296">
<rect width="8" height="8" fill="white" transform="translate(6 8)"/>
</clipPath>
</defs>
</svg>
