<svg width="20" height="16" viewBox="0 0 20 16" fill="none" xmlns="http://www.w3.org/2000/svg">
<path d="M6.15 4.25V3.375M6.15 8.1875V7.3125M6.15 12.125V11.25M5.07 14.75H14.43C15.9421 14.75 16.6982 14.75 17.2758 14.4639C17.7838 14.2122 18.1969 13.8107 18.4557 13.3167C18.75 12.7552 18.75 12.0201 18.75 10.55V4.95C18.75 3.47986 18.75 2.74479 18.4557 2.18327C18.1969 1.68935 17.7838 1.28778 17.2758 1.03611C16.6982 0.75 15.9421 0.75 14.43 0.75H5.07C3.55786 0.75 2.80179 0.75 2.22423 1.03611C1.71619 1.28778 1.30314 1.68935 1.04428 2.18327C0.75 2.74479 0.75 3.47986 0.75 4.95V10.55C0.75 12.0201 0.75 12.7552 1.04428 13.3167C1.30314 13.8107 1.71619 14.2122 2.22423 14.4639C2.80179 14.75 3.55786 14.75 5.07 14.75Z" stroke="#717680" stroke-width="1.5" stroke-linecap="round" stroke-linejoin="round"/>
</svg>
