<svg width="25" height="25" viewBox="0 0 25 25" fill="none" xmlns="http://www.w3.org/2000/svg">
<rect x="0.627686" y="0.116989" width="24" height="24" rx="4" fill="#C15FD7"/>
<path d="M10.4435 12.3844L11.6916 13.9892L14.8119 10.2448" stroke="white" stroke-linecap="round" stroke-linejoin="round"/>
<path d="M7.00947 8.26179C7.00947 7.28812 7.79838 6.49921 8.77205 6.49843H9.57421C10.0396 6.49843 10.4855 6.31368 10.816 5.98626L11.3765 5.42498C12.0633 4.7343 13.1797 4.73118 13.8703 5.41797L13.8711 5.41875L13.8781 5.42498L14.4394 5.98626C14.77 6.31446 15.2159 6.49843 15.6813 6.49843H16.4826C17.4563 6.49843 18.246 7.28734 18.246 8.26179V9.06239C18.246 9.52779 18.43 9.97447 18.7582 10.305L19.3194 10.8663C20.0101 11.5531 20.014 12.6694 19.3272 13.3601L19.3265 13.3609L19.3194 13.3679L18.7582 13.9292C18.43 14.2589 18.246 14.7048 18.246 15.1702V15.9724C18.246 16.946 17.4571 17.735 16.4834 17.735H16.4826H15.6797C15.2143 17.735 14.7676 17.9197 14.4379 18.2479L13.8766 18.8084C13.1906 19.4991 12.075 19.503 11.3843 18.8178C11.3836 18.817 11.3828 18.8162 11.382 18.8154L11.375 18.8084L10.8145 18.2479C10.4847 17.9197 10.038 17.7357 9.57265 17.735H8.77205C7.79838 17.735 7.00947 16.946 7.00947 15.9724V15.1687C7.00947 14.7033 6.82472 14.2574 6.49653 13.9276L5.93603 13.3663C5.24534 12.6803 5.24144 11.5648 5.92745 10.8741C5.92745 10.8733 5.92823 10.8725 5.92901 10.8717L5.93603 10.8647L6.49653 10.3034C6.82472 9.97291 7.00947 9.52701 7.00947 9.06083V8.26179" stroke="white" stroke-linecap="round" stroke-linejoin="round"/>
</svg>
