<svg width="11" height="12" viewBox="0 0 11 12" fill="none" xmlns="http://www.w3.org/2000/svg">
<path d="M1.11287 6.55992C1.35551 6.55992 1.55404 6.75845 1.55404 7.00109C1.55404 9.21801 3.35845 11.0224 5.57537 11.0224C7.79228 11.0224 9.59448 9.21801 9.59448 7.00109C9.59448 4.78418 7.79007 2.98198 5.57316 2.98198H2.12537L2.87537 3.73198C3.04743 3.90403 3.04743 4.18418 2.87537 4.35624C2.78934 4.44227 2.67684 4.48639 2.56434 4.48639C2.45184 4.48639 2.33934 4.44227 2.25331 4.35624L0.757719 2.86065C0.673896 2.77683 0.627572 2.66653 0.627572 2.54962C0.627572 2.43271 0.673896 2.32021 0.757719 2.23859L2.25331 0.740799C2.42537 0.568741 2.70551 0.568741 2.87757 0.740799C3.04963 0.912858 3.04963 1.19301 2.87757 1.36506L2.14301 2.09962H5.57537C6.88566 2.09962 8.11654 2.60918 9.04301 3.53565C9.96728 4.46212 10.4768 5.69301 10.4768 7.00109C10.4768 8.30918 9.96728 9.54227 9.04081 10.4687C8.11434 11.3952 6.88345 11.9048 5.57316 11.9048C4.26287 11.9048 3.03198 11.3952 2.10551 10.4687C1.17904 9.54227 0.669484 8.31139 0.669484 7.00109C0.669484 6.77609 0.868013 6.55992 1.11066 6.55992H1.11287Z" fill="#545A84"/>
</svg>
