<svg viewBox="0 0 20 20" fill="none" xmlns="http://www.w3.org/2000/svg">
<path d="M2 4C2 1.79086 3.79086 0 6 0H12L18 6V16C18 18.2091 16.2091 20 14 20H6C3.79086 20 2 18.2091 2 16V4Z" fill="#D92D20"/>
<path opacity="0.3" d="M12 0L18 6H16C13.7909 6 12 4.20914 12 2V0Z" fill="white"/>
<g clip-path="url(#clip0_35_8319)">
<path fill-rule="evenodd" clip-rule="evenodd" d="M14.4776 9.01423C14.6327 9.17039 14.7441 9.36455 14.8007 9.57729C15.0098 10.3625 15.0098 12 15.0098 12C15.0098 12 15.0098 13.6375 14.8007 14.4227C14.7441 14.6355 14.6327 14.8297 14.4776 14.9858C14.3224 15.142 14.129 15.2546 13.9166 15.3125C13.1348 15.5227 10.0098 15.5227 10.0098 15.5227C10.0098 15.5227 6.88477 15.5227 6.10295 15.3125C5.89057 15.2546 5.69712 15.142 5.54197 14.9858C5.38681 14.8297 5.27539 14.6355 5.21886 14.4227C5.00977 13.6375 5.00977 12 5.00977 12C5.00977 12 5.00977 10.3625 5.21886 9.57729C5.27539 9.36455 5.38681 9.17039 5.54197 9.01423C5.69712 8.85808 5.89057 8.74542 6.10295 8.68752C6.88477 8.47729 10.0098 8.47729 10.0098 8.47729C10.0098 8.47729 13.1348 8.47729 13.9166 8.68752C14.129 8.74542 14.3224 8.85808 14.4776 9.01423ZM11.6007 12L8.98702 10.5131V13.487L11.6007 12Z" fill="white"/>
</g>
<defs>
<clipPath id="clip0_35_8319">
<rect width="10" height="10" fill="white" transform="translate(5 7)"/>
</clipPath>
</defs>
</svg>
