<svg viewBox="0 0 16 16" fill="none" xmlns="http://www.w3.org/2000/svg">
<g clip-path="url(#clip0_13308_352330)">
<path d="M8.5 5.5C8.5 5.22385 8.27615 5 8 5C7.72385 5 7.5 5.22385 7.5 5.5V6C7.5 6.27615 7.72385 6.5 8 6.5C8.27615 6.5 8.5 6.27615 8.5 6V5.5Z" fill="currentColor"/>
<path fill-rule="evenodd" clip-rule="evenodd" d="M4.75 4.5C4.75 3.94772 5.19772 3.5 5.75 3.5V2.75C5.75 1.50736 6.75735 0.5 8 0.5C9.24265 0.5 10.25 1.50736 10.25 2.75V3.5C10.8023 3.5 11.25 3.94772 11.25 4.5V7C11.25 7.55228 10.8023 8 10.25 8H8.5V9H13.5C13.7761 9 14 9.22385 14 9.5V11.563C14.8626 11.785 15.5 12.5681 15.5 13.5C15.5 14.6046 14.6046 15.5 13.5 15.5C12.3954 15.5 11.5 14.6046 11.5 13.5C11.5 12.5681 12.1374 11.785 13 11.563V10H8.5V11.563C9.36263 11.785 10 12.5681 10 13.5C10 14.6046 9.10458 15.5 8 15.5C6.89542 15.5 6 14.6046 6 13.5C6 12.5681 6.63737 11.785 7.5 11.563V10H3V11.563C3.86263 11.785 4.5 12.5681 4.5 13.5C4.5 14.6046 3.60458 15.5 2.5 15.5C1.39543 15.5 0.5 14.6046 0.5 13.5C0.5 12.5681 1.13739 11.785 2 11.563V9.5C2 9.22385 2.22386 9 2.5 9H7.5V8H5.75C5.19772 8 4.75 7.55228 4.75 7V4.5ZM8 12.5C7.44772 12.5 7 12.9477 7 13.5C7 14.0523 7.44772 14.5 8 14.5C8.55228 14.5 9 14.0523 9 13.5C9 12.9477 8.55228 12.5 8 12.5ZM10.25 7V4.5H5.75V7H10.25ZM9.25 2.75V3.5H6.75V2.75C6.75 2.05964 7.30965 1.5 8 1.5C8.69035 1.5 9.25 2.05964 9.25 2.75ZM1.5 13.5C1.5 12.9477 1.94771 12.5 2.5 12.5C3.05228 12.5 3.5 12.9477 3.5 13.5C3.5 14.0523 3.05228 14.5 2.5 14.5C1.94771 14.5 1.5 14.0523 1.5 13.5ZM12.5 13.5C12.5 12.9477 12.9477 12.5 13.5 12.5C14.0523 12.5 14.5 12.9477 14.5 13.5C14.5 14.0523 14.0523 14.5 13.5 14.5C12.9477 14.5 12.5 14.0523 12.5 13.5Z" fill="currentColor"/>
</g>
<defs>
<clipPath id="clip0_13308_352330">
<rect width="16" height="16" fill="white"/>
</clipPath>
</defs>
</svg>
