<svg xmlns="http://www.w3.org/2000/svg" width="14" height="14" fill="none"><path fill="#6B7280" d="M7.802 9.455a.584.584 0 0 1-.352-.08.365.365 0 0 1-.1-.3c.002-.091.013-.182.032-.272a3 3 0 0 1 .071-.306l.322-1.107c.033-.11.055-.222.065-.335 0-.123.017-.208.017-.257a.717.717 0 0 0-.254-.57 1.066 1.066 0 0 0-.72-.218c-.185.003-.369.033-.545.09a8.88 8.88 0 0 0-.609.216l-.092.36c.062-.022.139-.047.226-.074a.928.928 0 0 1 .256-.038.524.524 0 0 1 .347.084c.07.083.102.19.09.298 0 .091-.01.183-.03.272-.02.096-.044.197-.074.303l-.324 1.113a3.177 3.177 0 0 0-.063.313c-.013.09-.02.182-.02.273 0 .22.1.429.274.565.208.16.468.24.73.223.185.004.37-.023.546-.079.154-.053.36-.128.619-.226l.087-.344c-.07.03-.142.053-.215.071-.093.021-.189.03-.284.025ZM8.142 4.205A.777.777 0 0 0 7.597 4a.783.783 0 0 0-.546.205.652.652 0 0 0 0 .987c.311.278.78.278 1.091 0a.655.655 0 0 0 0-.987Z"/><path fill="#6B7280" stroke="#6B7280" stroke-width=".2" d="M7 1a6 6 0 1 0 0 12A6 6 0 0 0 7 1Zm0 11.454A5.454 5.454 0 1 1 7 1.546a5.454 5.454 0 0 1 0 10.909Z"/></svg>