<svg viewBox="0 0 16 16" fill="none" xmlns="http://www.w3.org/2000/svg">
<path d="M1.15185 10.2705C0.953613 10.4629 0.94873 10.7793 1.14111 10.9775L3.06396 12.9595C3.06409 12.9596 3.06427 12.9597 3.06439 12.9598C3.15527 13.0538 3.28155 13.1133 3.42285 13.1133C3.56415 13.1133 3.69043 13.0538 3.78131 12.9598C3.78143 12.9597 3.78162 12.9596 3.78174 12.9595L5.70508 10.9775C5.89746 10.7793 5.89258 10.4629 5.69434 10.2705C5.49609 10.0781 5.17969 10.083 4.9873 10.2812L3.92285 11.3783V3.38672C3.92285 3.11035 3.69922 2.88672 3.42285 2.88672C3.14648 2.88672 2.92285 3.11035 2.92285 3.38672V11.3781L1.85889 10.2812C1.6665 10.083 1.3501 10.0781 1.15185 10.2705Z" fill="#9F9F9F"/>
<path d="M13.4399 6.46143C13.4399 6.18506 13.2163 5.96143 12.9399 5.96143H7.51416C7.23779 5.96143 7.01416 6.18506 7.01416 6.46143C7.01416 6.73779 7.23779 6.96143 7.51416 6.96143H12.9399C13.2163 6.96143 13.4399 6.73779 13.4399 6.46143Z" fill="#9F9F9F"/>
<path d="M11.8799 9.53662C11.8799 9.26025 11.6562 9.03662 11.3799 9.03662H7.51416C7.23779 9.03662 7.01416 9.26025 7.01416 9.53662C7.01416 9.81299 7.23779 10.0366 7.51416 10.0366H11.3799C11.6562 10.0366 11.8799 9.81299 11.8799 9.53662Z" fill="#9F9F9F"/>
<path d="M1 8H15" stroke="#808080" stroke-linecap="round"/>
<path d="M7.51416 12.1133C7.23779 12.1133 7.01416 12.3369 7.01416 12.6133C7.01416 12.8896 7.23779 13.1133 7.51416 13.1133H9.81982C10.0962 13.1133 10.3198 12.8896 10.3198 12.6133C10.3198 12.3369 10.0962 12.1133 9.81982 12.1133H7.51416Z" fill="#9F9F9F"/>
<path d="M14.5 2.88672H7.51416C7.23779 2.88672 7.01416 3.11035 7.01416 3.38672C7.01416 3.66309 7.23779 3.88672 7.51416 3.88672H14.5C14.7764 3.88672 15 3.66309 15 3.38672C15 3.11035 14.7764 2.88672 14.5 2.88672Z" fill="#9F9F9F"/>
</svg>