<svg viewBox="0 0 16 16" fill="none" xmlns="http://www.w3.org/2000/svg">
<g clip-path="url(#clip0_1_15)">
<path d="M10.4679 0C7.48608 0 5.06014 2.42594 5.06014 5.40778C5.06014 6.07069 5.17792 6.71487 5.41049 7.32662L0.239736 12.4978C0.165833 12.5717 0.12431 12.6719 0.124298 12.7764V15.6059C0.124298 15.8236 0.300736 16 0.518392 16H2.85014C2.95455 16 3.05469 15.9586 3.12858 15.8848L3.91436 15.1002C3.95103 15.0636 3.98012 15.0201 3.99996 14.9723C4.01981 14.9244 4.03002 14.8731 4.03002 14.8213V13.8564H4.99367C5.21133 13.8564 5.38777 13.68 5.38777 13.4623V13.0761H5.77405C5.99167 13.0761 6.16814 12.8997 6.16814 12.682V11.834H7.01614C7.12064 11.834 7.22086 11.7925 7.2948 11.7186L8.54858 10.4648C9.16042 10.6976 9.8047 10.8155 10.4679 10.8155C13.4497 10.8155 15.8756 8.38956 15.8756 5.40772C15.8757 2.42594 13.4498 0 10.4679 0ZM10.4679 10.0273C9.82286 10.0273 9.19899 9.89703 8.61358 9.64003C8.4622 9.57359 8.29174 9.61016 8.18011 9.71894C8.17889 9.72009 8.1777 9.72103 8.17652 9.72225L6.85295 11.0458H5.77411C5.55645 11.0458 5.38002 11.2222 5.38002 11.4399V12.2879H4.99374C4.77611 12.2879 4.59964 12.4643 4.59964 12.682V13.0682H3.63595C3.41833 13.0682 3.24186 13.2447 3.24186 13.4623V14.6579L2.68708 15.2118H0.912548V14.6549L5.72945 9.838C5.86799 9.69947 5.86799 9.47491 5.72945 9.33641C5.59092 9.19791 5.36642 9.19784 5.2278 9.33641L0.912548 13.6517V12.9397L6.15305 7.69881C6.15424 7.69762 6.15514 7.69653 6.15624 7.69537C6.26505 7.58384 6.30174 7.41338 6.2353 7.26188C5.97855 6.6765 5.84842 6.05266 5.84842 5.40781C5.84842 2.86056 7.92077 0.788219 10.468 0.788219C13.0153 0.788219 15.0875 2.86053 15.0875 5.40781C15.0875 7.955 13.0151 10.0273 10.4679 10.0273Z" fill="#9F9F9F"/>
<path d="M12.1137 2.28574C11.2997 2.28574 10.6375 2.94792 10.6375 3.76189C10.6375 4.57586 11.2997 5.23805 12.1137 5.23805C12.9277 5.23805 13.5899 4.57586 13.5899 3.76189C13.5899 2.94792 12.9277 2.28574 12.1137 2.28574ZM12.1137 4.44986C11.7344 4.44986 11.4257 4.14124 11.4257 3.76189C11.4257 3.38255 11.7344 3.07392 12.1137 3.07392C12.493 3.07392 12.8017 3.38255 12.8017 3.76189C12.8017 4.14124 12.493 4.44986 12.1137 4.44986Z" fill="#9F9F9F"/>
<path d="M0 8H16" stroke="#808080"/>
</g>
<defs>
<clipPath id="clip0_1_15">
<rect width="16" height="16" fill="white"/>
</clipPath>
</defs>
</svg>
