<svg xmlns="http://www.w3.org/2000/svg" width="513" height="513" fill="none"><path fill="#37352F" d="M437.021 437.021a256.003 256.003 0 0 1-362.04 0 256.002 256.002 0 1 1 362.04 0Zm-181.02-405.02c-123.514 0-224 100.486-224 224s100.486 224 224 224 224-100.486 224-224-100.486-224-224-224Zm112.634 275.973a16.003 16.003 0 0 0 0-22.627l-101.321-101.32a16.002 16.002 0 0 0-22.626 0l-101.32 101.32a15.998 15.998 0 0 0 .068 22.558 16.002 16.002 0 0 0 22.559.069l90.006-90.006 90.007 90.006a16 16 0 0 0 22.627 0Z"/></svg>