<svg viewBox="0 0 16 16" fill="none" xmlns="http://www.w3.org/2000/svg">
<g clip-path="url(#clip0_1_9)">
<line x1="0.46967" y1="15.4697" x2="15.4697" y2="0.46967" stroke="#9F9F9F" stroke-width="1.5"/>
<mask id="path-2-inside-1_1_9" fill="white">
<path d="M15 8C15 11.866 11.866 15 8 15C4.13401 15 1 11.866 1 8C1 4.13401 4.13401 1 8 1C11.866 1 15 4.13401 15 8ZM2.30927 8C2.30927 11.1429 4.8571 13.6907 8 13.6907C11.1429 13.6907 13.6907 11.1429 13.6907 8C13.6907 4.8571 11.1429 2.30927 8 2.30927C4.8571 2.30927 2.30927 4.8571 2.30927 8Z"/>
</mask>
<path d="M15 8C15 11.866 11.866 15 8 15C4.13401 15 1 11.866 1 8C1 4.13401 4.13401 1 8 1C11.866 1 15 4.13401 15 8ZM2.30927 8C2.30927 11.1429 4.8571 13.6907 8 13.6907C11.1429 13.6907 13.6907 11.1429 13.6907 8C13.6907 4.8571 11.1429 2.30927 8 2.30927C4.8571 2.30927 2.30927 4.8571 2.30927 8Z" stroke="#9F9F9F" stroke-width="2" mask="url(#path-2-inside-1_1_9)"/>
</g>
<defs>
<clipPath id="clip0_1_9">
<rect width="16" height="16" fill="white"/>
</clipPath>
</defs>
<line x1='0' y1='8' x2='16' y2='8' stroke-width='1.5' stroke='currentColor'/>
</svg>
