<svg xmlns="http://www.w3.org/2000/svg" xml:space="preserve" width="512" height="512" style="enable-background:new 0 0 512 512"><path xmlns="http://www.w3.org/2000/svg" fill="#37352f" d="M334.974 0c-95.419 0-173.049 77.63-173.049 173.049 0 21.213 3.769 41.827 11.211 61.403L7.672 399.928a12.613 12.613 0 0 0-3.694 8.917v90.544c0 6.965 5.646 12.611 12.611 12.611h74.616a12.61 12.61 0 0 0 8.91-3.686l25.145-25.107a12.61 12.61 0 0 0 3.701-8.925v-30.876h30.837c6.965 0 12.611-5.646 12.611-12.611v-12.36h12.361c6.964 0 12.611-5.646 12.611-12.611v-27.136h27.136c3.344 0 6.551-1.329 8.917-3.694l40.121-40.121c19.579 7.449 40.196 11.223 61.417 11.223 95.419 0 173.049-77.63 173.049-173.049C508.022 77.63 430.393 0 334.974 0zm0 320.874c-20.642 0-40.606-4.169-59.339-12.393-4.844-2.126-10.299-.956-13.871 2.525-.039.037-.077.067-.115.106l-42.354 42.354h-34.523c-6.965 0-12.611 5.646-12.611 12.611v27.136H159.8c-6.964 0-12.611 5.646-12.611 12.611v12.36h-30.838c-6.964 0-12.611 5.646-12.611 12.611v38.257l-17.753 17.725H29.202v-17.821l154.141-154.14c4.433-4.433 4.433-11.619 0-16.051s-11.617-4.434-16.053 0L29.202 436.854V414.07l167.696-167.708c.038-.038.067-.073.102-.11 3.482-3.569 4.656-9.024 2.53-13.872-8.216-18.732-12.38-38.695-12.38-59.33 0-81.512 66.315-147.827 147.827-147.827S482.802 91.537 482.802 173.05c-.002 81.51-66.318 147.824-147.828 147.824z" data-original="#37352f"/><path xmlns="http://www.w3.org/2000/svg" d="M387.638 73.144c-26.047 0-47.237 21.19-47.237 47.237s21.19 47.237 47.237 47.237 47.237-21.19 47.237-47.237-21.189-47.237-47.237-47.237zm0 69.252c-12.139 0-22.015-9.876-22.015-22.015s9.876-22.015 22.015-22.015 22.015 9.876 22.015 22.015-9.876 22.015-22.015 22.015z" data-original="#000000"/></svg>