<svg xmlns="http://www.w3.org/2000/svg" xml:space="preserve" width="512" height="512" style="enable-background:new 0 0 512 512"><g xmlns="http://www.w3.org/2000/svg" fill="#37352F"><path d="M165.764 30.754 0 63.687v420.586l166.236-33.027 180 30L512 448.313V27.727L345.764 60.754zM181 63.707l150 25v240.794c-12.575-2.529-24.206-8.226-34.104-16.808l-19.652 22.666c15.176 13.158 33.969 21.677 53.756 24.546v88.388l-150-25zM30 88.313l121-24.04v87.795a104.487 104.487 0 0 0-41.783 15.597l16.242 25.223A74.49 74.49 0 0 1 151 182.514v241.173l-121 24.04zm452 335.374-121 24.04V88.313l121-24.04z" data-original="#000000"/><path d="m209.639 160.474-12.48 27.281c15.222 6.964 27.84 18.999 35.53 33.888l26.655-13.767c-10.756-20.825-28.408-37.659-49.705-47.402zM61 256h30c0-17.004 5.545-33.034 16.037-46.356l-23.569-18.561C68.769 209.748 61 232.196 61 256zM375.591 356.768c22.438-6.58 42.308-20.736 55.946-39.86l-24.425-17.419c-9.753 13.676-23.945 23.795-39.963 28.492zM451 256.002V226h-30v29.998a75.178 75.178 0 0 1-3.016 21.136l28.791 8.434A105.174 105.174 0 0 0 451 256.002zM271 256.002c0-4.99-.354-10.011-1.053-14.921l-29.7 4.23c.5 3.513.754 7.109.753 10.689 0 18.462 4.864 36.625 14.065 52.526L281.03 293.5c-6.561-11.34-10.03-24.307-10.03-37.498z" data-original="#000000"/></g></svg>