<svg viewBox="0 0 16 16" fill="none" xmlns="http://www.w3.org/2000/svg">
<path d="M14.727 11.2542L13.1018 10.3159L14.5102 9.48552C14.5719 9.4491 14.6259 9.40087 14.669 9.34358C14.7122 9.2863 14.7436 9.22108 14.7615 9.15166C14.7794 9.08223 14.7835 9.00996 14.7735 8.93896C14.7635 8.86796 14.7396 8.79963 14.7032 8.73786C14.6667 8.6761 14.6185 8.62211 14.5612 8.57899C14.5039 8.53586 14.4387 8.50444 14.3693 8.48652C14.2999 8.4686 14.2276 8.46453 14.1566 8.47454C14.0856 8.48455 14.0173 8.50845 13.9555 8.54487L12.0155 9.68877L9.09043 7.99996L12.015 6.31145L13.9556 7.4552C14.0173 7.49163 14.0857 7.51553 14.1567 7.52554C14.2277 7.53554 14.3 7.53145 14.3694 7.51351C14.4388 7.49557 14.504 7.46412 14.5613 7.42096C14.6186 7.37781 14.6668 7.32379 14.7032 7.26199C14.7767 7.13723 14.7976 6.98838 14.7614 6.84817C14.7252 6.70796 14.6348 6.58788 14.51 6.51434L13.1015 5.6842L14.727 4.74574C14.8513 4.67282 14.9418 4.55367 14.9787 4.41428C15.0155 4.27489 14.9958 4.12658 14.9237 4.00171C14.8516 3.87685 14.733 3.78557 14.5939 3.7478C14.4547 3.71002 14.3063 3.72881 14.181 3.80007L12.5558 4.73839L12.541 3.10323C12.5383 2.8017 12.291 2.55804 11.9902 2.56219C11.9185 2.56282 11.8476 2.57758 11.7816 2.60561C11.7156 2.63364 11.6558 2.6744 11.6055 2.72555C11.5553 2.77671 11.5156 2.83726 11.4888 2.90375C11.4619 2.97024 11.4484 3.04136 11.4491 3.11306L11.4694 5.36556L8.54449 7.0543V3.67711L10.5055 2.56881C10.568 2.53353 10.6228 2.4863 10.667 2.42981C10.7112 2.37333 10.7438 2.3087 10.763 2.23961C10.7822 2.17052 10.7876 2.09833 10.7788 2.02716C10.7701 1.95598 10.7475 1.88722 10.7122 1.8248C10.6769 1.76238 10.6297 1.70751 10.5732 1.66334C10.5167 1.61917 10.4521 1.58656 10.383 1.56737C10.3139 1.54818 10.2417 1.54278 10.1705 1.55149C10.0994 1.5602 10.0306 1.58284 9.96819 1.61812L8.54449 2.42278V0.545998C8.54449 0.40119 8.48697 0.262314 8.38457 0.159919C8.28217 0.0575246 8.1433 0 7.99849 0C7.85368 0 7.7148 0.0575246 7.6124 0.159919C7.51001 0.262314 7.45248 0.40119 7.45248 0.545998V2.42278L6.02879 1.61819C5.90271 1.54694 5.7535 1.52868 5.61397 1.56744C5.47444 1.6062 5.35602 1.6988 5.28476 1.82487C5.21351 1.95094 5.19525 2.10015 5.23401 2.23968C5.27277 2.37921 5.36537 2.49763 5.49144 2.56888L7.45241 3.67719V7.0543L4.52749 5.36556L4.5478 3.11306C4.54845 3.04136 4.53497 2.97024 4.50814 2.90375C4.4813 2.83726 4.44162 2.77671 4.39138 2.72555C4.34114 2.6744 4.28131 2.63364 4.21531 2.60561C4.14932 2.57758 4.07844 2.56282 4.00674 2.56219H4.00172C3.85778 2.56222 3.71967 2.61909 3.61744 2.72043C3.51522 2.82177 3.45714 2.95937 3.45586 3.10331L3.44108 4.73839L1.81595 3.80007C1.69061 3.72881 1.54217 3.71002 1.40302 3.7478C1.26388 3.78557 1.14532 3.87685 1.07323 4.00171C1.00114 4.12658 0.981358 4.27489 1.01821 4.41428C1.05506 4.55367 1.14556 4.67282 1.26994 4.74574L2.89537 5.6842L1.4866 6.51448C1.36294 6.58856 1.27358 6.70853 1.23802 6.84823C1.20246 6.98792 1.22358 7.13601 1.29678 7.2602C1.36997 7.38438 1.4893 7.47459 1.62873 7.51115C1.76817 7.54771 1.91641 7.52765 2.04112 7.45535L3.98192 6.31159L6.90655 8.00011L3.98141 9.68892L2.04112 8.5448C1.91638 8.47126 1.76753 8.45029 1.62732 8.48648C1.48712 8.52267 1.36702 8.61307 1.29346 8.73779C1.25704 8.79955 1.23314 8.86787 1.22313 8.93887C1.21312 9.00986 1.21719 9.08213 1.23511 9.15155C1.25303 9.22097 1.28445 9.28618 1.32758 9.34346C1.3707 9.40074 1.42469 9.44896 1.48645 9.48537L2.895 10.3159L1.26987 11.2541C1.14548 11.327 1.05499 11.4462 1.01814 11.5856C0.981285 11.725 1.00106 11.8733 1.07316 11.9981C1.14525 12.123 1.2638 12.2143 1.40295 12.2521C1.54209 12.2898 1.69053 12.271 1.81587 12.1998L3.44101 11.2615L3.45579 12.8967C3.45707 13.0406 3.51514 13.1782 3.61737 13.2796C3.7196 13.3809 3.8577 13.4378 4.00165 13.4378L4.00667 13.4377C4.07837 13.4371 4.14924 13.4223 4.21524 13.3943C4.28124 13.3663 4.34106 13.3255 4.39131 13.2744C4.44155 13.2232 4.48122 13.1627 4.50806 13.0962C4.5349 13.0297 4.54838 12.9586 4.54773 12.8869L4.52741 10.6343L7.45241 8.94556V12.3228L5.49144 13.4311C5.36537 13.5024 5.27277 13.6208 5.23401 13.7603C5.19525 13.8998 5.21351 14.0491 5.28476 14.1751C5.35602 14.3012 5.47444 14.3938 5.61397 14.4326C5.7535 14.4713 5.90271 14.4531 6.02879 14.3818L7.45248 13.5772V15.454C7.45248 15.5988 7.51001 15.7377 7.6124 15.8401C7.7148 15.9425 7.85368 16 7.99849 16C8.1433 16 8.28217 15.9425 8.38457 15.8401C8.48697 15.7377 8.54449 15.5988 8.54449 15.454V13.5772L9.96819 14.3818C10.0306 14.4171 10.0994 14.4398 10.1705 14.4485C10.2417 14.4572 10.3139 14.4518 10.383 14.4326C10.4521 14.4134 10.5168 14.3808 10.5732 14.3366C10.6297 14.2924 10.6769 14.2376 10.7122 14.1751C10.7475 14.1127 10.7701 14.0439 10.7788 13.9728C10.7876 13.9016 10.7822 13.8294 10.763 13.7603C10.7438 13.6912 10.7112 13.6266 10.667 13.5701C10.6228 13.5136 10.568 13.4664 10.5055 13.4311L8.54449 12.3228V8.94563L11.4694 10.6343L11.4486 12.8868C11.4479 12.9585 11.4614 13.0296 11.4882 13.0961C11.515 13.1626 11.5547 13.2232 11.6049 13.2743C11.6551 13.3255 11.715 13.3663 11.7809 13.3943C11.8469 13.4224 11.9178 13.4372 11.9895 13.4378L11.9947 13.4379C12.1386 13.4379 12.2767 13.381 12.3789 13.2797C12.4811 13.1784 12.5392 13.0408 12.5405 12.8969L12.5557 11.2615L14.181 12.1999C14.2431 12.2357 14.3117 12.259 14.3828 12.2684C14.4538 12.2777 14.5261 12.273 14.5953 12.2544C14.6646 12.2359 14.7295 12.2039 14.7864 12.1602C14.8433 12.1165 14.891 12.0621 14.9269 12C14.9627 11.9379 14.986 11.8694 14.9953 11.7983C15.0047 11.7272 14.9999 11.655 14.9814 11.5857C14.9628 11.5164 14.9308 11.4515 14.8871 11.3946C14.8435 11.3378 14.7891 11.29 14.727 11.2542Z" fill="#9F9F9F"/>
<line x1='0' y1='8' x2='16' y2='8' stroke-width='1.5' stroke='currentColor'/>
</svg>
