<svg xmlns="http://www.w3.org/2000/svg" width="16" height="16" fill="none"><path fill="#7147E8" stroke="#7147E8" stroke-width=".05" d="M13.046 6.708a.479.479 0 0 0-.478.478v6.651c0 .403-.328.731-.73.731H2.162a.732.732 0 0 1-.731-.73V4.162c0-.403.328-.731.73-.731h6.652a.478.478 0 0 0 0-.957H2.163A1.69 1.69 0 0 0 .475 4.163v9.674c0 .93.757 1.688 1.688 1.688h9.674a1.69 1.69 0 0 0 1.688-1.688v-6.65a.478.478 0 0 0-.479-.48Z"/><path fill="#7147E8" d="M15.18 1.704 14.298.82a1.095 1.095 0 0 0-1.547 0L5.68 7.89a.47.47 0 0 0-.128.24l-.442 2.21a.469.469 0 0 0 .551.551l2.21-.442a.47.47 0 0 0 .24-.128l7.07-7.071h.001a1.095 1.095 0 0 0 0-1.547ZM7.548 9.559l-1.381.276.276-1.381 5.756-5.756 1.105 1.105L7.547 9.56Zm6.971-6.971-.552.552-1.105-1.105.552-.552c.061-.061.16-.061.221 0l.884.884c.06.06.06.16 0 .22Z"/></svg>