<svg xmlns="http://www.w3.org/2000/svg" version="1.1" xmlns:xlink="http://www.w3.org/1999/xlink" xmlns:svgjs="http://svgjs.com/svgjs" width="512" height="512" x="0" y="0" viewBox="0 0 512 512" style="enable-background:new 0 0 512 512" xml:space="preserve" class=""><g><g xmlns="http://www.w3.org/2000/svg"><path d="m165.764 30.754-165.764 32.933v420.586l166.236-33.027 180 30 165.764-32.933v-420.586l-166.236 33.027zm15.236 32.953 150 25v240.794c-12.575-2.529-24.206-8.226-34.104-16.808l-19.652 22.666c15.176 13.158 33.969 21.677 53.756 24.546v88.388l-150-25zm-151 24.606 121-24.04v87.795c-14.852 2.13-29.08 7.417-41.783 15.597l16.242 25.223c7.834-5.045 16.487-8.536 25.541-10.374v241.173l-121 24.04zm452 335.374-121 24.04v-359.414l121-24.04z" fill="#000000" data-original="#000000" style="" class=""></path><path d="m209.639 160.474-12.48 27.281c15.222 6.964 27.84 18.999 35.53 33.888l26.655-13.767c-10.756-20.825-28.408-37.659-49.705-47.402z" fill="#000000" data-original="#000000" style="" class=""></path><path d="m61 256h30c0-17.004 5.545-33.034 16.037-46.356l-23.569-18.561c-14.699 18.665-22.468 41.113-22.468 64.917z" fill="#000000" data-original="#000000" style="" class=""></path><path d="m375.591 356.768c22.438-6.58 42.308-20.736 55.946-39.86l-24.425-17.419c-9.753 13.676-23.945 23.795-39.963 28.492z" fill="#000000" data-original="#000000" style="" class=""></path><path d="m451 256.002c0-.101 0-.102 0-.002v-30h-30v29.998c-.001 7.198-1.016 14.309-3.016 21.136l28.791 8.434c2.802-9.567 4.224-19.514 4.225-29.566z" fill="#000000" data-original="#000000" style="" class=""></path><path d="m271 256.002c0-4.99-.354-10.011-1.053-14.921l-29.7 4.23c.5 3.513.754 7.109.753 10.689 0 18.462 4.864 36.625 14.065 52.526l25.965-15.026c-6.561-11.34-10.03-24.307-10.03-37.498z" fill="#000000" data-original="#000000" style="" class=""></path></g></g></svg>