<svg xmlns="http://www.w3.org/2000/svg" width="16" height="16" fill="currentColor"><path stroke="currentColor" stroke-width=".4" d="M3.275 13.79a.242.242 0 0 1-.242-.241v-1.166a.242.242 0 1 1 .484 0v1.166a.242.242 0 0 1-.242.242Z"/><path stroke="currentColor" stroke-width=".4" d="M8.369 14.146H.742a.242.242 0 0 1-.242-.242v-2.37C.5 9.352 1.838 7.4 3.83 6.676a.24.24 0 0 1 .24.044c.55.47 1.243.73 1.952.73.713 0 1.409-.261 1.958-.735a.243.243 0 0 1 .241-.044c.514.187.994.46 1.425.81a.241.241 0 0 1-.013.386l-.03.02-.133-.19-.13.159a4.453 4.453 0 0 0-1.156-.681c-.619.49-1.38.759-2.162.759a3.484 3.484 0 0 1-2.154-.754C2.138 7.87.984 9.602.984 11.534v2.128h7.385v.484Z"/><path stroke="currentColor" stroke-width=".4" d="M6.022 7.933c-1.968 0-3.569-1.667-3.569-3.716C2.453 2.167 4.053.5 6.022.5 7.99.5 9.59 2.167 9.59 4.216c0 2.05-1.601 3.717-3.57 3.717Zm0-6.95c-1.701 0-3.085 1.451-3.085 3.233C2.937 6 4.321 7.45 6.022 7.45c1.7 0 3.085-1.45 3.085-3.233 0-1.782-1.384-3.232-3.085-3.232Z"/><path stroke="currentColor" stroke-width=".3" d="M11.29 12.933a1.69 1.69 0 0 1-1.396-.75 1.737 1.737 0 0 1-.277-1.288 1.72 1.72 0 0 1 .71-1.107c.377-.265.83-.365 1.274-.284.445.083.832.339 1.092.722l.002.003c.257.388.355.845.276 1.285a1.72 1.72 0 0 1-.71 1.107 1.686 1.686 0 0 1-.97.312ZM11.3 9.96c-.245 0-.485.076-.694.224-.272.19-.453.474-.511.797-.058.323.013.654.201.93.187.276.465.46.78.519.315.058.638-.014.909-.205.271-.19.453-.473.51-.797a1.281 1.281 0 0 0-.202-.932 1.206 1.206 0 0 0-.993-.536Z"/><path stroke="currentColor" stroke-width=".3" d="M11.352 15.499a.515.515 0 0 1-.093-.009l-1.418-.263a.492.492 0 0 1-.395-.577l.113-.63a.787.787 0 0 1-.045-.031l-.018-.012-.523.368a.465.465 0 0 1-.355.083.492.492 0 0 1-.327-.209l-.817-1.202a.473.473 0 0 1-.08-.356.499.499 0 0 1 .203-.326l.513-.37a1.726 1.726 0 0 1-.016-.084l-.618-.115a.482.482 0 0 1-.38-.586l.258-1.43a.488.488 0 0 1 .574-.4l.613.114.03-.043.015-.025-.365-.537a.474.474 0 0 1-.08-.356.5.5 0 0 1 .203-.326l1.184-.832a.472.472 0 0 1 .355-.083.492.492 0 0 1 .326.209l.364.534.02-.006a.452.452 0 0 1 .05-.01l.114-.631a.488.488 0 0 1 .574-.4l1.41.261c.272.05.445.304.396.577l-.113.63c.016.01.03.021.045.032l.018.012.523-.368a.47.47 0 0 1 .355-.083.492.492 0 0 1 .327.209l.81 1.201c.072.096.102.225.081.355a.5.5 0 0 1-.204.327l-.528.37a.684.684 0 0 0 .012.053l.005.028.618.115a.523.523 0 0 1 .409.58l-.26 1.441a.494.494 0 0 1-.204.323.492.492 0 0 1-.37.077l-.613-.114a.797.797 0 0 1-.03.044l-.014.024.365.537a.473.473 0 0 1 .08.356.499.499 0 0 1-.204.327l-1.183.831a.467.467 0 0 1-.355.084.495.495 0 0 1-.327-.209l-.361-.532a3.064 3.064 0 0 1-.046.01c-.01 0-.018.002-.027.004l-.113.63a.488.488 0 0 1-.481.408Zm-1.854-2.061c.06 0 .118.021.164.064.025.023.053.04.082.059l.055.037a.69.69 0 0 0 .13.074c.1.047.156.154.137.263l-.144.8 1.425.28.154-.812a.242.242 0 0 1 .18-.192c.05-.012.1-.019.146-.024l.058-.008c.03-.006.1-.02.146-.037a.242.242 0 0 1 .29.088l.46.675 1.186-.83-.458-.69a.242.242 0 0 1 .02-.297c.023-.025.04-.054.058-.083l.036-.056a.73.73 0 0 0 .075-.134.242.242 0 0 1 .264-.139l.788.146.265-1.429c-.003-.025-.013-.04-.018-.04l-.787-.146a.242.242 0 0 1-.191-.183c-.012-.05-.018-.099-.024-.146l-.007-.05a1.341 1.341 0 0 1-.017-.078c-.006-.028-.01-.057-.02-.082a.242.242 0 0 1 .085-.287l.664-.466-.809-1.216-.667.466a.242.242 0 0 1-.304-.02c-.024-.023-.053-.04-.08-.06l-.056-.036a.68.68 0 0 0-.13-.075.242.242 0 0 1-.137-.262l.144-.801-1.419-.277-.153.81a.242.242 0 0 1-.18.193c-.05.012-.098.019-.146.024l-.048.007a1.543 1.543 0 0 1-.077.018c-.027.006-.054.01-.078.02a.241.241 0 0 1-.292-.088l-.459-.675-1.186.83.458.69a.242.242 0 0 1-.02.297c-.023.025-.04.054-.058.082l-.036.057a.727.727 0 0 0-.075.134.242.242 0 0 1-.264.139l-.788-.146-.269 1.451.782.16a.242.242 0 0 1 .19.18c.013.051.02.1.025.148l.008.06c.005.028.018.102.037.15.04.103.005.22-.084.284l-.65.47.812 1.218.668-.466a.244.244 0 0 1 .139-.043Z"/></svg>