<svg width="16" height="16" viewBox="0 0 16 16" fill="none" xmlns="http://www.w3.org/2000/svg">
<rect x="0.5" y="0.5" width="15" height="15" rx="1.5" stroke="#7147E8"/>
<path d="M11.9175 8.6532H8.65222V11.9185C8.65222 12.2777 8.35835 12.5716 7.99916 12.5716C7.63998 12.5716 7.3461 12.2777 7.3461 11.9185V8.6532H4.0808C3.72161 8.6532 3.42773 8.35932 3.42773 8.00014C3.42773 7.64096 3.72161 7.34708 4.0808 7.34708H7.3461V4.08177C7.3461 3.72259 7.63998 3.42871 7.99916 3.42871C8.35835 3.42871 8.65222 3.72259 8.65222 4.08177V7.34708H11.9175C12.2767 7.34708 12.5706 7.64096 12.5706 8.00014C12.5706 8.35932 12.2767 8.6532 11.9175 8.6532Z" fill="#7147E8"/>
</svg>
