<svg viewBox="0 0 18 18" fill="none" xmlns="http://www.w3.org/2000/svg">
<g clip-path="url(#clip0_13041_312566)">
<path d="M8.99975 12.3357C8.49653 12.3357 8.07471 12.7575 8.07471 13.2607C8.07471 13.764 8.49653 14.1858 8.99975 14.1858C9.48448 14.1858 9.9248 13.764 9.90259 13.2829C9.9248 12.7538 9.50668 12.3357 8.99975 12.3357Z" fill="currentColor"/>
<path d="M17.562 15.6141C18.1429 14.6114 18.1466 13.4162 17.5694 12.4172L11.7749 2.38228C11.2014 1.37213 10.1653 0.772705 9.00348 0.772705C7.84162 0.772705 6.80557 1.37583 6.23204 2.37858L0.430163 12.4246C-0.147064 13.4347 -0.143364 14.6373 0.441264 15.64C1.01849 16.6317 2.05084 17.2274 3.2053 17.2274H14.7795C15.9376 17.2274 16.9774 16.6243 17.562 15.6141ZM16.3039 14.8889C15.982 15.4439 15.4122 15.7732 14.7758 15.7732H3.2016C2.57257 15.7732 2.00644 15.4513 1.69192 14.9074C1.37371 14.3561 1.37001 13.6974 1.68822 13.1424L7.4901 3.10012C7.80462 2.54879 8.36705 2.22318 9.00348 2.22318C9.63621 2.22318 10.2023 2.55249 10.5168 3.10382L16.315 13.1461C16.6258 13.6863 16.6221 14.3376 16.3039 14.8889Z" fill="currentColor"/>
<path d="M8.77035 5.84203C8.33003 5.96784 8.05621 6.36746 8.05621 6.85218C8.07841 7.1445 8.09692 7.44051 8.11912 7.73282C8.18202 8.84658 8.24492 9.93813 8.30783 11.0519C8.33003 11.4293 8.62234 11.7031 8.99976 11.7031C9.37718 11.7031 9.67319 11.4108 9.69169 11.0297C9.69169 10.8003 9.69169 10.5894 9.71389 10.3563C9.75459 9.64212 9.799 8.92798 9.8397 8.21385C9.8619 7.75133 9.9026 7.2888 9.9248 6.82628C9.9248 6.65977 9.9026 6.51177 9.8397 6.36376C9.65099 5.94934 9.21067 5.73843 8.77035 5.84203Z" fill="currentColor"/>
</g>
<defs>
<clipPath id="clip0_13041_312566">
<rect width="18" height="18" fill="white"/>
</clipPath>
</defs>
</svg>