<svg width="25" height="25" viewBox="0 0 25 25" fill="none" xmlns="http://www.w3.org/2000/svg">
<g clip-path="url(#clip0_6713_202773)">
<path d="M12.5 0C5.59126 0 0 5.59063 0 12.5C0 19.4086 5.59063 25 12.5 25C19.4087 25 25 19.4094 25 12.5C25 5.59136 19.4094 0 12.5 0ZM12.5 23.2558C6.56924 23.2558 1.74419 18.4308 1.74419 12.5C1.74419 6.56919 6.56924 1.74419 12.5 1.74419C18.4308 1.74419 23.2558 6.56919 23.2558 12.5C23.2558 18.4308 18.4308 23.2558 12.5 23.2558Z" fill="#0950C5"/>
<path d="M12.5003 10.4197C11.7599 10.4197 11.2334 10.7324 11.2334 11.1931V17.4619C11.2334 17.8568 11.7599 18.2517 12.5003 18.2517C13.2079 18.2517 13.7837 17.8568 13.7837 17.4619V11.193C13.7837 10.7323 13.2079 10.4197 12.5003 10.4197Z" fill="#0950C5"/>
<path d="M12.5005 6.55322C11.7437 6.55322 11.1514 7.09619 11.1514 7.72144C11.1514 8.34673 11.7437 8.90615 12.5005 8.90615C13.241 8.90615 13.8333 8.34673 13.8333 7.72144C13.8333 7.09619 13.2409 6.55322 12.5005 6.55322Z" fill="#0950C5"/>
</g>
<defs>
<clipPath id="clip0_6713_202773">
<rect width="25" height="25" fill="white"/>
</clipPath>
</defs>
</svg>
