<svg width="89" height="89" viewBox="0 0 89 89" fill="none" xmlns="http://www.w3.org/2000/svg">
<path d="M0 28C0 12.536 12.536 0 28 0H61C76.464 0 89 12.536 89 28V61C89 76.464 76.464 89 61 89H28C12.536 89 0 76.464 0 61V28Z" fill="#EFF8FF"/>
<g clip-path="url(#clip0_9191_2082)">
<path d="M44.1211 49.99C42.867 49.8998 41.9627 49.6182 41.5694 49.4044C41.3559 49.2885 41.0894 49.3674 40.9733 49.5807C40.8574 49.7939 40.9364 50.0607 41.1496 50.1766C41.3888 50.3066 42.3055 50.7406 44.0581 50.8666C44.3007 50.884 44.5106 50.7015 44.5279 50.4598C44.5453 50.2177 44.3632 50.0073 44.1211 49.99Z" fill="#175CD3" stroke="#175CD3" stroke-width="0.5"/>
<path d="M48.6406 50.2496C48.8833 50.2496 49.0801 50.0529 49.0801 49.8102C49.0801 49.5675 48.8833 49.3707 48.6406 49.3707C48.3979 49.3707 48.2012 49.5675 48.2012 49.8102C48.2012 50.0529 48.3979 50.2496 48.6406 50.2496Z" fill="#175CD3" stroke="#175CD3" stroke-width="0.5"/>
<path d="M46.8203 50.7601C47.063 50.7601 47.2598 50.5634 47.2598 50.3207C47.2598 50.078 47.063 49.8812 46.8203 49.8812C46.5776 49.8812 46.3809 50.078 46.3809 50.3207C46.3809 50.5634 46.5776 50.7601 46.8203 50.7601Z" fill="#175CD3" stroke="#175CD3" stroke-width="0.5"/>
<path d="M44.1211 53.6307C42.867 53.5406 41.9627 53.2589 41.5694 53.0452C41.3559 52.9292 41.0894 53.0081 40.9733 53.2214C40.8574 53.4346 40.9364 53.7015 41.1496 53.8174C41.3888 53.9474 42.3055 54.3814 44.0581 54.5074C44.3007 54.5248 44.5106 54.3423 44.5279 54.1006C44.5453 53.8585 44.3632 53.6482 44.1211 53.6307Z" fill="#175CD3" stroke="#175CD3" stroke-width="0.5"/>
<path d="M48.6406 53.8904C48.8833 53.8904 49.0801 53.6936 49.0801 53.4509C49.0801 53.2082 48.8833 53.0115 48.6406 53.0115C48.3979 53.0115 48.2012 53.2082 48.2012 53.4509C48.2012 53.6936 48.3979 53.8904 48.6406 53.8904Z" fill="#175CD3" stroke="#175CD3" stroke-width="0.5"/>
<path d="M46.8203 54.4009C47.063 54.4009 47.2598 54.2041 47.2598 53.9614C47.2598 53.7187 47.063 53.522 46.8203 53.522C46.5776 53.522 46.3809 53.7187 46.3809 53.9614C46.3809 54.2041 46.5776 54.4009 46.8203 54.4009Z" fill="#175CD3" stroke="#175CD3" stroke-width="0.5"/>
<path d="M44.1211 57.2661C42.867 57.1759 41.9627 56.8943 41.5693 56.6805C41.356 56.5646 41.0892 56.6435 40.9733 56.8567C40.8574 57.07 40.9364 57.3368 41.1497 57.4527C41.3888 57.5827 42.3056 58.0167 44.0581 58.1426C44.3006 58.1601 44.5106 57.9775 44.5279 57.7358C44.5453 57.4938 44.3632 57.2835 44.1211 57.2661Z" fill="#175CD3" stroke="#175CD3" stroke-width="0.5"/>
<path d="M48.6406 57.5259C48.8833 57.5259 49.0801 57.3291 49.0801 57.0864C49.0801 56.8437 48.8833 56.647 48.6406 56.647C48.3979 56.647 48.2012 56.8437 48.2012 57.0864C48.2012 57.3291 48.3979 57.5259 48.6406 57.5259Z" fill="#175CD3" stroke="#175CD3" stroke-width="0.5"/>
<path d="M46.8203 58.0363C47.063 58.0363 47.2598 57.8395 47.2598 57.5968C47.2598 57.3541 47.063 57.1573 46.8203 57.1573C46.5776 57.1573 46.3809 57.3541 46.3809 57.5968C46.3809 57.8395 46.5776 58.0363 46.8203 58.0363Z" fill="#175CD3" stroke="#175CD3" stroke-width="0.5"/>
<path d="M59.0901 31.8045C59.0901 30.8095 58.2806 30 57.2856 30C56.2906 30 55.4811 30.8095 55.4811 31.8045C55.4811 32.648 56.0628 33.3581 56.8462 33.5549V34.5502H53.1904C53.0739 34.5502 52.9621 34.5965 52.8796 34.6789L49.3682 38.1904H48.1696V35.3992L50.2163 33.3525C50.4873 33.5153 50.8043 33.609 51.1428 33.609C52.1378 33.609 52.9473 32.7996 52.9473 31.8045C52.9473 30.8095 52.1378 30 51.1429 30C50.1479 30 49.3384 30.8095 49.3384 31.8045C49.3384 32.143 49.4321 32.46 49.5949 32.731L47.4195 34.9064C47.3371 34.9888 47.2908 35.1006 47.2908 35.2171V38.1903H45.4396V33.5549C46.2229 33.3581 46.8046 32.648 46.8046 31.8045C46.8046 30.8095 45.9951 30 45.0001 30C44.0052 30 43.1956 30.8095 43.1956 31.8045C43.1956 32.648 43.7773 33.3581 44.5607 33.5549V38.1904H42.7095V35.2171C42.7095 35.1006 42.6632 34.9888 42.5808 34.9064L40.4054 32.731C40.5682 32.46 40.6619 32.143 40.6619 31.8045C40.6619 30.8095 39.8524 30 38.8574 30C37.8624 30 37.0529 30.8095 37.0529 31.8045C37.0529 32.7996 37.8624 33.609 38.8574 33.609C39.1959 33.609 39.5129 33.5153 39.7839 33.3525L41.8306 35.3992V38.1904H40.632L37.1206 34.6789C37.0381 34.5965 36.9264 34.5502 36.8098 34.5502H33.1541V33.5549C33.9375 33.3581 34.5192 32.648 34.5192 31.8045C34.5192 30.8095 33.7097 30 32.7147 30C31.7196 30 30.9102 30.8095 30.9102 31.8045C30.9102 32.648 31.4919 33.3581 32.2752 33.5549V34.9897C32.2752 35.2324 32.4719 35.4291 32.7147 35.4291H36.6278L39.389 38.1904H37.7199C37.4771 38.1904 37.2804 38.3871 37.2804 38.6298C37.2804 38.8725 37.4771 39.0693 37.7199 39.0693H38.4478L39.792 40.4134C39.9637 40.585 40.2419 40.585 40.4135 40.4134C40.5851 40.2418 40.5851 39.9635 40.4135 39.792L39.6908 39.0693H50.3094L46.0285 43.3503C45.6688 43.7099 45.4707 44.1882 45.4707 44.6968V45.6386L44.5296 46.1091V44.6968C44.5296 44.1882 44.3315 43.7099 43.9718 43.3503L41.8698 41.2482C41.6981 41.0766 41.4199 41.0766 41.2483 41.2482C41.0766 41.4199 41.0766 41.6981 41.2483 41.8697L43.3503 43.9717C43.4137 44.0351 43.4677 44.1052 43.5117 44.1806C41.2362 44.4159 39.1005 45.221 39.1005 46.5926V57.513C39.1005 58.2564 39.7698 58.9167 40.9849 59.3723C42.0644 59.7771 43.4902 60 45.0001 60C46.51 60 47.9359 59.7771 49.0154 59.3723C50.2305 58.9166 50.8998 58.2563 50.8998 57.513V46.5926C50.8998 45.221 48.7641 44.4159 46.4885 44.1805C46.5326 44.1052 46.5866 44.035 46.65 43.9717L51.5524 39.0693H52.2804C52.5231 39.0693 52.7198 38.8725 52.7198 38.6298C52.7198 38.3871 52.5231 38.1904 52.2804 38.1904H50.6112L53.3724 35.4291H57.2855C57.5283 35.4291 57.725 35.2324 57.725 34.9897V33.5549C58.5084 33.3581 59.0901 32.648 59.0901 31.8045ZM51.1429 30.8789C51.6532 30.8789 52.0685 31.2941 52.0685 31.8045C52.0685 32.3149 51.6532 32.7301 51.1429 32.7301C50.6325 32.7301 50.2173 32.3149 50.2173 31.8045C50.2173 31.2941 50.6325 30.8789 51.1429 30.8789ZM44.0745 31.8045C44.0745 31.2941 44.4898 30.8789 45.0001 30.8789C45.5105 30.8789 45.9257 31.2941 45.9257 31.8045C45.9257 32.3149 45.5105 32.7301 45.0001 32.7301C44.4898 32.7301 44.0745 32.3149 44.0745 31.8045ZM37.9318 31.8045C37.9318 31.2942 38.3471 30.8789 38.8574 30.8789C39.3678 30.8789 39.783 31.2941 39.783 31.8045C39.783 32.3149 39.3678 32.7301 38.8574 32.7301C38.3471 32.7301 37.9318 32.3149 37.9318 31.8045ZM31.7891 31.8045C31.7891 31.2942 32.2043 30.8789 32.7147 30.8789C33.225 30.8789 33.6403 31.2941 33.6403 31.8045C33.6403 32.3149 33.225 32.7301 32.7147 32.7301C32.2043 32.7301 31.7891 32.3149 31.7891 31.8045ZM50.0209 53.8729C50.0209 54.5285 48.0651 55.481 45.0001 55.481C41.9352 55.481 39.9794 54.5285 39.9794 53.8729V51.5885C40.2543 51.7751 40.5909 51.9443 40.9849 52.0921C42.0643 52.4968 43.4902 52.7198 45.0001 52.7198C46.5099 52.7198 47.9359 52.4968 49.0153 52.0921C49.4093 51.9444 49.7458 51.7751 50.0208 51.5885L50.0209 53.8729ZM45.0001 59.1211C41.9352 59.1211 39.9794 58.1687 39.9794 57.513V55.2286C40.2543 55.4152 40.5909 55.5844 40.9849 55.7322C42.0643 56.137 43.4902 56.3599 45.0001 56.3599C46.5099 56.3599 47.9359 56.137 49.0153 55.7322C49.4093 55.5845 49.7458 55.4152 50.0208 55.2286V57.513C50.0209 58.1687 48.0651 59.1211 45.0001 59.1211ZM50.0209 46.5926C50.0209 46.8699 49.664 47.2014 49.0662 47.4791C48.8461 47.5814 48.7505 47.8427 48.8528 48.0628C48.9551 48.2829 49.2164 48.3785 49.4365 48.2762C49.6634 48.1708 49.8566 48.0618 50.0209 47.9513V50.2328C50.0209 50.8884 48.0651 51.8409 45.0001 51.8409C41.9352 51.8409 39.9794 50.8884 39.9794 50.2328V47.9484C40.2543 48.135 40.5909 48.3042 40.9848 48.4519C42.0643 48.8567 43.4902 49.0796 45.0001 49.0796C45.8139 49.0796 46.6002 49.0158 47.3369 48.8898C47.5762 48.8489 47.7369 48.6218 47.696 48.3826C47.6551 48.1433 47.4277 47.9825 47.1888 48.0235C46.5008 48.1411 45.7644 48.2007 45.0001 48.2007C41.9352 48.2007 39.9794 47.2483 39.9794 46.5926C39.9794 46.0722 41.252 45.2825 43.6506 45.0492V46.3461C43.6506 46.6018 43.7804 46.8347 43.998 46.9691C44.2154 47.1035 44.4818 47.1156 44.7106 47.0012L45.9447 46.3841C46.1945 46.2592 46.3496 46.0082 46.3496 45.729V45.0492C48.7483 45.2825 50.0209 46.0721 50.0209 46.5926ZM57.2856 32.7301C56.7753 32.7301 56.36 32.3149 56.36 31.8045C56.36 31.2941 56.7753 30.8789 57.2856 30.8789C57.796 30.8789 58.2112 31.2941 58.2112 31.8045C58.2112 32.3149 57.796 32.7301 57.2856 32.7301Z" fill="#175CD3"/>
<path d="M56.8462 33.5549H57.0962V33.3599L56.9071 33.3124L56.8462 33.5549ZM56.8462 34.5502V34.8002H57.0962V34.5502H56.8462ZM52.8796 34.6789L52.7029 34.5021L52.7029 34.5022L52.8796 34.6789ZM49.3682 38.1904V38.4404H49.4718L49.545 38.3671L49.3682 38.1904ZM48.1696 38.1904H47.9196V38.4404H48.1696V38.1904ZM48.1696 35.3992L47.9929 35.2224L47.9196 35.2956V35.3992H48.1696ZM50.2163 33.3525L50.3451 33.1382L50.1777 33.0376L50.0396 33.1757L50.2163 33.3525ZM49.5949 32.731L49.7717 32.9078L49.9098 32.7697L49.8092 32.6022L49.5949 32.731ZM47.4195 34.9064L47.5963 35.0832L47.4195 34.9064ZM47.2908 38.1903V38.4403H47.5408V38.1903H47.2908ZM45.4396 38.1903H45.1896V38.4403H45.4396V38.1903ZM45.4396 33.5549L45.3787 33.3124L45.1896 33.3599V33.5549H45.4396ZM44.5607 33.5549H44.8107V33.3599L44.6216 33.3124L44.5607 33.5549ZM44.5607 38.1904V38.4404H44.8107V38.1904H44.5607ZM42.7095 38.1904H42.4595V38.4404H42.7095V38.1904ZM42.5808 34.9064L42.7576 34.7296L42.5808 34.9064ZM40.4054 32.731L40.1911 32.6023L40.0905 32.7697L40.2286 32.9078L40.4054 32.731ZM39.7839 33.3525L39.9607 33.1757L39.8225 33.0376L39.6551 33.1382L39.7839 33.3525ZM41.8306 35.3992H42.0806V35.2956L42.0073 35.2224L41.8306 35.3992ZM41.8306 38.1904V38.4404H42.0806V38.1904H41.8306ZM40.632 38.1904L40.4552 38.3671L40.5284 38.4404H40.632V38.1904ZM37.1206 34.6789L37.2973 34.5022L37.1206 34.6789ZM33.1541 34.5502H32.9041V34.8002H33.1541V34.5502ZM33.1541 33.5549L33.0932 33.3124L32.9041 33.3599V33.5549H33.1541ZM32.2752 33.5549H32.5252V33.3599L32.3361 33.3124L32.2752 33.5549ZM36.6278 35.4291L36.8046 35.2523L36.7313 35.1791H36.6278V35.4291ZM39.389 38.1904V38.4404H39.9926L39.5658 38.0136L39.389 38.1904ZM38.4478 39.0693L38.6246 38.8925L38.5514 38.8193H38.4478V39.0693ZM39.792 40.4134L39.6152 40.5902L39.6152 40.5902L39.792 40.4134ZM40.4135 39.792L40.2367 39.9687L40.2367 39.9688L40.4135 39.792ZM39.6908 39.0693V38.8193H39.0873L39.5141 39.2461L39.6908 39.0693ZM50.3094 39.0693L50.4862 39.2461L50.913 38.8193H50.3094V39.0693ZM46.0285 43.3503L45.8517 43.1735L46.0285 43.3503ZM45.4707 45.6386L45.5825 45.8622L45.7207 45.7931V45.6386H45.4707ZM44.5296 46.1091H44.2796V46.5136L44.6414 46.3327L44.5296 46.1091ZM41.8698 41.2482L42.0465 41.0715L42.0465 41.0714L41.8698 41.2482ZM41.2483 41.8697L41.425 41.6929L41.425 41.6929L41.2483 41.8697ZM43.5117 44.1806L43.5375 44.4292L43.9234 44.3893L43.7275 44.0544L43.5117 44.1806ZM40.9849 59.3723L40.8971 59.6064L40.8971 59.6064L40.9849 59.3723ZM49.0154 59.3723L49.1032 59.6064L49.1032 59.6064L49.0154 59.3723ZM46.4885 44.1805L46.2727 44.0543L46.0769 44.3893L46.4628 44.4292L46.4885 44.1805ZM51.5524 39.0693V38.8193H51.4488L51.3756 38.8925L51.5524 39.0693ZM50.6112 38.1904L50.4344 38.0136L50.0076 38.4404H50.6112V38.1904ZM53.3724 35.4291V35.1791H53.2689L53.1956 35.2523L53.3724 35.4291ZM57.725 33.5549L57.6641 33.3124L57.475 33.3599V33.5549H57.725ZM50.0209 53.8729H50.2709V53.8728L50.0209 53.8729ZM39.9794 51.5885L40.1197 51.3816L39.7294 51.1167V51.5885H39.9794ZM40.9849 52.0921L40.8971 52.3261L40.8971 52.3262L40.9849 52.0921ZM49.0153 52.0921L48.9275 51.858L48.9275 51.858L49.0153 52.0921ZM50.0208 51.5885L50.2708 51.5884L50.2708 51.1167L49.8804 51.3816L50.0208 51.5885ZM39.9794 55.2286L40.1197 55.0217L39.7294 54.7568V55.2286H39.9794ZM40.9849 55.7322L40.8971 55.9663L40.8971 55.9663L40.9849 55.7322ZM49.0153 55.7322L48.9275 55.4981L48.9275 55.4981L49.0153 55.7322ZM50.0208 55.2286H50.2708V54.7568L49.8804 55.0217L50.0208 55.2286ZM50.0208 57.513H49.7708V57.513L50.0208 57.513ZM49.0662 47.4791L48.9609 47.2524L48.9608 47.2524L49.0662 47.4791ZM48.8528 48.0628L48.6261 48.1681L48.6261 48.1682L48.8528 48.0628ZM49.4365 48.2762L49.5418 48.5029L49.5418 48.5029L49.4365 48.2762ZM50.0209 47.9513H50.2709V47.4817L49.8813 47.7438L50.0209 47.9513ZM39.9794 47.9484L40.1197 47.7415L39.7294 47.4766V47.9484H39.9794ZM40.9848 48.4519L40.897 48.686L40.897 48.686L40.9848 48.4519ZM47.3369 48.8898L47.2948 48.6434L47.2948 48.6434L47.3369 48.8898ZM47.1888 48.0235L47.231 48.2699L47.2312 48.2699L47.1888 48.0235ZM43.6506 45.0492H43.9006V44.7737L43.6264 44.8004L43.6506 45.0492ZM43.998 46.9691L44.1294 46.7564L44.1294 46.7564L43.998 46.9691ZM44.7106 47.0012L44.8224 47.2248H44.8224L44.7106 47.0012ZM45.9447 46.3841L45.8329 46.1605H45.8329L45.9447 46.3841ZM46.3496 45.0492L46.3737 44.8004L46.0996 44.7737V45.0492H46.3496ZM59.3401 31.8045C59.3401 30.6714 58.4187 29.75 57.2856 29.75V30.25C58.1425 30.25 58.8401 30.9475 58.8401 31.8045H59.3401ZM57.2856 29.75C56.1526 29.75 55.2311 30.6714 55.2311 31.8045H55.7311C55.7311 30.9475 56.4287 30.25 57.2856 30.25V29.75ZM55.2311 31.8045C55.2311 32.7655 55.8936 33.5734 56.7852 33.7974L56.9071 33.3124C56.232 33.1429 55.7311 32.5304 55.7311 31.8045H55.2311ZM56.5962 33.5549V34.5502H57.0962V33.5549H56.5962ZM56.8462 34.3002H53.1904V34.8002H56.8462V34.3002ZM53.1904 34.3002C53.0075 34.3002 52.8323 34.3729 52.7029 34.5021L53.0564 34.8558C53.092 34.8201 53.1402 34.8002 53.1904 34.8002V34.3002ZM52.7029 34.5022L49.1915 38.0136L49.545 38.3671L53.0564 34.8557L52.7029 34.5022ZM49.3682 37.9404H48.1696V38.4404H49.3682V37.9404ZM48.4196 38.1904V35.3992H47.9196V38.1904H48.4196ZM48.3464 35.576L50.3931 33.5293L50.0396 33.1757L47.9929 35.2224L48.3464 35.576ZM50.0876 33.5668C50.3963 33.7523 50.7576 33.859 51.1428 33.859V33.359C50.8511 33.359 50.5784 33.2784 50.3451 33.1382L50.0876 33.5668ZM51.1428 33.859C52.2759 33.859 53.1973 32.9376 53.1973 31.8045H52.6973C52.6973 32.6615 51.9997 33.359 51.1428 33.359V33.859ZM53.1973 31.8045C53.1973 30.6714 52.2759 29.75 51.1429 29.75V30.25C51.9998 30.25 52.6973 30.9475 52.6973 31.8045H53.1973ZM51.1429 29.75C50.0098 29.75 49.0884 30.6714 49.0884 31.8045H49.5884C49.5884 30.9475 50.286 30.25 51.1429 30.25V29.75ZM49.0884 31.8045C49.0884 32.1897 49.1951 32.5511 49.3806 32.8598L49.8092 32.6022C49.669 32.3689 49.5884 32.0963 49.5884 31.8045H49.0884ZM49.4181 32.5542L47.2427 34.7296L47.5963 35.0832L49.7717 32.9078L49.4181 32.5542ZM47.2427 34.7296C47.1134 34.8589 47.0408 35.0343 47.0408 35.2171H47.5408C47.5408 35.1669 47.5608 35.1187 47.5963 35.0832L47.2427 34.7296ZM47.0408 35.2171V38.1903H47.5408V35.2171H47.0408ZM47.2908 37.9403H45.4396V38.4403H47.2908V37.9403ZM45.6896 38.1903V33.5549H45.1896V38.1903H45.6896ZM45.5005 33.7974C46.3921 33.5734 47.0546 32.7656 47.0546 31.8045H46.5546C46.5546 32.5305 46.0538 33.1429 45.3787 33.3124L45.5005 33.7974ZM47.0546 31.8045C47.0546 30.6714 46.1332 29.75 45.0001 29.75V30.25C45.8571 30.25 46.5546 30.9475 46.5546 31.8045H47.0546ZM45.0001 29.75C43.8671 29.75 42.9456 30.6714 42.9456 31.8045H43.4456C43.4456 30.9475 44.1432 30.25 45.0001 30.25V29.75ZM42.9456 31.8045C42.9456 32.7655 43.6082 33.5734 44.4998 33.7974L44.6216 33.3124C43.9465 33.1429 43.4456 32.5304 43.4456 31.8045H42.9456ZM44.3107 33.5549V38.1904H44.8107V33.5549H44.3107ZM44.5607 37.9404H42.7095V38.4404H44.5607V37.9404ZM42.9595 38.1904V35.2171H42.4595V38.1904H42.9595ZM42.9595 35.2171C42.9595 35.0343 42.8869 34.8589 42.7576 34.7296L42.404 35.0832C42.4395 35.1187 42.4595 35.1669 42.4595 35.2171H42.9595ZM42.7576 34.7296L40.5822 32.5542L40.2286 32.9078L42.404 35.0832L42.7576 34.7296ZM40.6197 32.8597C40.8051 32.5511 40.9119 32.1898 40.9119 31.8045H40.4119C40.4119 32.0962 40.3312 32.3689 40.1911 32.6023L40.6197 32.8597ZM40.9119 31.8045C40.9119 30.6714 39.9905 29.75 38.8574 29.75V30.25C39.7144 30.25 40.4119 30.9475 40.4119 31.8045H40.9119ZM38.8574 29.75C37.7243 29.75 36.8029 30.6714 36.8029 31.8045H37.3029C37.3029 30.9475 38.0004 30.25 38.8574 30.25V29.75ZM36.8029 31.8045C36.8029 32.9376 37.7243 33.859 38.8574 33.859V33.359C38.0004 33.359 37.3029 32.6615 37.3029 31.8045H36.8029ZM38.8574 33.859C39.2426 33.859 39.604 33.7523 39.9127 33.5668L39.6551 33.1382C39.4219 33.2784 39.1492 33.359 38.8574 33.359V33.859ZM39.6071 33.5293L41.6538 35.576L42.0073 35.2224L39.9607 33.1757L39.6071 33.5293ZM41.5806 35.3992V38.1904H42.0806V35.3992H41.5806ZM41.8306 37.9404H40.632V38.4404H41.8306V37.9404ZM40.8087 38.0136L37.2973 34.5022L36.9438 34.8557L40.4552 38.3671L40.8087 38.0136ZM37.2973 34.5022C37.168 34.3728 36.9927 34.3002 36.8098 34.3002V34.8002C36.8601 34.8002 36.9082 34.8202 36.9438 34.8557L37.2973 34.5022ZM36.8098 34.3002H33.1541V34.8002H36.8098V34.3002ZM33.4041 34.5502V33.5549H32.9041V34.5502H33.4041ZM33.215 33.7974C34.1066 33.5734 34.7692 32.7656 34.7692 31.8045H34.2692C34.2692 32.5305 33.7683 33.1429 33.0932 33.3124L33.215 33.7974ZM34.7692 31.8045C34.7692 30.6714 33.8478 29.75 32.7147 29.75V30.25C33.5716 30.25 34.2692 30.9475 34.2692 31.8045H34.7692ZM32.7147 29.75C31.5816 29.75 30.6602 30.6714 30.6602 31.8045H31.1602C31.1602 30.9475 31.8577 30.25 32.7147 30.25V29.75ZM30.6602 31.8045C30.6602 32.7655 31.3227 33.5734 32.2143 33.7974L32.3361 33.3124C31.6611 33.1429 31.1602 32.5304 31.1602 31.8045H30.6602ZM32.0252 33.5549V34.9897H32.5252V33.5549H32.0252ZM32.0252 34.9897C32.0252 35.3704 32.3338 35.6791 32.7147 35.6791V35.1791C32.61 35.1791 32.5252 35.0943 32.5252 34.9897H32.0252ZM32.7147 35.6791H36.6278V35.1791H32.7147V35.6791ZM36.451 35.6059L39.2122 38.3671L39.5658 38.0136L36.8046 35.2523L36.451 35.6059ZM39.389 37.9404H37.7199V38.4404H39.389V37.9404ZM37.7199 37.9404C37.339 37.9404 37.0304 38.2491 37.0304 38.6298H37.5304C37.5304 38.5252 37.6152 38.4404 37.7199 38.4404V37.9404ZM37.0304 38.6298C37.0304 39.0105 37.339 39.3193 37.7199 39.3193V38.8193C37.6152 38.8193 37.5304 38.7345 37.5304 38.6298H37.0304ZM37.7199 39.3193H38.4478V38.8193H37.7199V39.3193ZM38.2711 39.246L39.6152 40.5902L39.9687 40.2366L38.6246 38.8925L38.2711 39.246ZM39.6152 40.5902C39.8845 40.8594 40.321 40.8594 40.5903 40.5902L40.2367 40.2366C40.1627 40.3106 40.0428 40.3106 39.9687 40.2366L39.6152 40.5902ZM40.5903 40.5902C40.8595 40.3209 40.8595 39.8844 40.5902 39.6151L40.2367 39.9688C40.3107 40.0427 40.3107 40.1626 40.2367 40.2366L40.5903 40.5902ZM40.5903 39.6152L39.8676 38.8925L39.5141 39.2461L40.2367 39.9687L40.5903 39.6152ZM39.6908 39.3193H50.3094V38.8193H39.6908V39.3193ZM50.1327 38.8925L45.8517 43.1735L46.2052 43.5271L50.4862 39.2461L50.1327 38.8925ZM45.8517 43.1735C45.4451 43.58 45.2207 44.1219 45.2207 44.6968H45.7207C45.7207 44.2545 45.8925 43.8398 46.2052 43.5271L45.8517 43.1735ZM45.2207 44.6968V45.6386H45.7207V44.6968H45.2207ZM45.3589 45.4149L44.4178 45.8855L44.6414 46.3327L45.5825 45.8622L45.3589 45.4149ZM44.7796 46.1091V44.6968H44.2796V46.1091H44.7796ZM44.7796 44.6968C44.7796 44.1219 44.5551 43.58 44.1486 43.1735L43.795 43.5271C44.1078 43.8398 44.2796 44.2545 44.2796 44.6968H44.7796ZM44.1486 43.1735L42.0465 41.0715L41.693 41.425L43.795 43.5271L44.1486 43.1735ZM42.0465 41.0714C41.7772 40.8022 41.3408 40.8022 41.0715 41.0715L41.425 41.425C41.499 41.351 41.6189 41.351 41.693 41.425L42.0465 41.0714ZM41.0715 41.0715C40.8022 41.3407 40.8022 41.7773 41.0715 42.0465L41.425 41.6929C41.3511 41.619 41.351 41.499 41.425 41.425L41.0715 41.0715ZM41.0715 42.0465L43.1735 44.1485L43.5271 43.795L41.425 41.6929L41.0715 42.0465ZM43.1735 44.1485C43.2218 44.1968 43.2627 44.25 43.2959 44.3068L43.7275 44.0544C43.6726 43.9605 43.6055 43.8733 43.5271 43.795L43.1735 44.1485ZM43.486 43.9319C42.3318 44.0513 41.197 44.3162 40.3425 44.7361C39.5007 45.1498 38.8505 45.7578 38.8505 46.5926H39.3505C39.3505 46.0558 39.7681 45.5755 40.5631 45.1849C41.3453 44.8005 42.4161 44.5452 43.5375 44.4292L43.486 43.9319ZM38.8505 46.5926V57.513H39.3505V46.5926H38.8505ZM38.8505 57.513C38.8505 58.4255 39.6641 59.1441 40.8971 59.6064L41.0727 59.1383C39.8754 58.6893 39.3505 58.0872 39.3505 57.513H38.8505ZM40.8971 59.6064C42.0118 60.0244 43.469 60.25 45.0001 60.25V59.75C43.5114 59.75 42.1169 59.5297 41.0726 59.1383L40.8971 59.6064ZM45.0001 60.25C46.5312 60.25 47.9884 60.0244 49.1032 59.6064L48.9276 59.1382C47.8834 59.5297 46.4888 59.75 45.0001 59.75V60.25ZM49.1032 59.6064C50.3361 59.144 51.1498 58.4255 51.1498 57.513H50.6498C50.6498 58.0872 50.1249 58.6892 48.9276 59.1382L49.1032 59.6064ZM51.1498 57.513V46.5926H50.6498V57.513H51.1498ZM51.1498 46.5926C51.1498 45.7578 50.4995 45.1497 49.6577 44.7361C48.8033 44.3162 47.6685 44.0512 46.5143 43.9318L46.4628 44.4292C47.5841 44.5452 48.655 44.8004 49.4372 45.1848C50.2321 45.5754 50.6498 46.0558 50.6498 46.5926H51.1498ZM46.7043 44.3067C46.7376 44.2499 46.7784 44.1968 46.8267 44.1485L46.4732 43.7949C46.3948 43.8733 46.3276 43.9604 46.2727 44.0543L46.7043 44.3067ZM46.8267 44.1485L51.7292 39.246L51.3756 38.8925L46.4732 43.7949L46.8267 44.1485ZM51.5524 39.3193H52.2804V38.8193H51.5524V39.3193ZM52.2804 39.3193C52.6612 39.3193 52.9698 39.0105 52.9698 38.6298H52.4698C52.4698 38.7345 52.385 38.8193 52.2804 38.8193V39.3193ZM52.9698 38.6298C52.9698 38.2491 52.6612 37.9404 52.2804 37.9404V38.4404C52.385 38.4404 52.4698 38.5252 52.4698 38.6298H52.9698ZM52.2804 37.9404H50.6112V38.4404H52.2804V37.9404ZM50.788 38.3671L53.5492 35.6059L53.1956 35.2523L50.4344 38.0136L50.788 38.3671ZM53.3724 35.6791H57.2855V35.1791H53.3724V35.6791ZM57.2855 35.6791C57.6664 35.6791 57.975 35.3704 57.975 34.9897H57.475C57.475 35.0943 57.3902 35.1791 57.2855 35.1791V35.6791ZM57.975 34.9897V33.5549H57.475V34.9897H57.975ZM57.7859 33.7974C58.6776 33.5734 59.3401 32.7655 59.3401 31.8045H58.8401C58.8401 32.5304 58.3392 33.1429 57.6641 33.3124L57.7859 33.7974ZM51.1429 31.1289C51.5152 31.1289 51.8185 31.4322 51.8185 31.8045H52.3185C52.3185 31.156 51.7913 30.6289 51.1429 30.6289V31.1289ZM51.8185 31.8045C51.8185 32.1768 51.5152 32.4801 51.1429 32.4801V32.9801C51.7913 32.9801 52.3185 32.453 52.3185 31.8045H51.8185ZM51.1429 32.4801C50.7706 32.4801 50.4673 32.1768 50.4673 31.8045H49.9673C49.9673 32.453 50.4945 32.9801 51.1429 32.9801V32.4801ZM50.4673 31.8045C50.4673 31.4322 50.7706 31.1289 51.1429 31.1289V30.6289C50.4945 30.6289 49.9673 31.156 49.9673 31.8045H50.4673ZM44.3245 31.8045C44.3245 31.4322 44.6278 31.1289 45.0001 31.1289V30.6289C44.3517 30.6289 43.8245 31.156 43.8245 31.8045H44.3245ZM45.0001 31.1289C45.3724 31.1289 45.6757 31.4322 45.6757 31.8045H46.1757C46.1757 31.156 45.6485 30.6289 45.0001 30.6289V31.1289ZM45.6757 31.8045C45.6757 32.1768 45.3724 32.4801 45.0001 32.4801V32.9801C45.6485 32.9801 46.1757 32.453 46.1757 31.8045H45.6757ZM45.0001 32.4801C44.6279 32.4801 44.3245 32.1768 44.3245 31.8045H43.8245C43.8245 32.4529 44.3517 32.9801 45.0001 32.9801V32.4801ZM38.1818 31.8045C38.1818 31.4322 38.4851 31.1289 38.8574 31.1289V30.6289C38.209 30.6289 37.6818 31.1561 37.6818 31.8045H38.1818ZM38.8574 31.1289C39.2297 31.1289 39.533 31.4322 39.533 31.8045H40.033C40.033 31.156 39.5058 30.6289 38.8574 30.6289V31.1289ZM39.533 31.8045C39.533 32.1768 39.2297 32.4801 38.8574 32.4801V32.9801C39.5058 32.9801 40.033 32.453 40.033 31.8045H39.533ZM38.8574 32.4801C38.4851 32.4801 38.1818 32.1768 38.1818 31.8045H37.6818C37.6818 32.4529 38.209 32.9801 38.8574 32.9801V32.4801ZM32.0391 31.8045C32.0391 31.4322 32.3424 31.1289 32.7147 31.1289V30.6289C32.0662 30.6289 31.5391 31.1561 31.5391 31.8045H32.0391ZM32.7147 31.1289C33.087 31.1289 33.3903 31.4322 33.3903 31.8045H33.8903C33.8903 31.156 33.3631 30.6289 32.7147 30.6289V31.1289ZM33.3903 31.8045C33.3903 32.1768 33.087 32.4801 32.7147 32.4801V32.9801C33.3631 32.9801 33.8903 32.453 33.8903 31.8045H33.3903ZM32.7147 32.4801C32.3424 32.4801 32.0391 32.1768 32.0391 31.8045H31.5391C31.5391 32.4529 32.0662 32.9801 32.7147 32.9801V32.4801ZM49.7709 53.8729C49.7709 53.9164 49.7295 54.0342 49.5131 54.2041C49.3092 54.3641 48.9949 54.5335 48.5737 54.6881C47.7339 54.9963 46.5086 55.231 45.0001 55.231V55.731C46.5566 55.731 47.8417 55.4894 48.746 55.1575C49.197 54.992 49.5631 54.8004 49.8218 54.5974C50.0678 54.4043 50.2709 54.1571 50.2709 53.8729H49.7709ZM45.0001 55.231C43.4917 55.231 42.2664 54.9963 41.4265 54.6881C41.0054 54.5335 40.6911 54.3641 40.4872 54.2041C40.2707 54.0342 40.2294 53.9164 40.2294 53.8729H39.7294C39.7294 54.1571 39.9325 54.4043 40.1785 54.5974C40.4371 54.8004 40.8033 54.992 41.2543 55.1575C42.1586 55.4894 43.4437 55.731 45.0001 55.731V55.231ZM40.2294 53.8729V51.5885H39.7294V53.8729H40.2294ZM39.839 51.7953C40.1337 51.9954 40.4888 52.173 40.8971 52.3261L41.0727 51.858C40.693 51.7156 40.375 51.5548 40.1197 51.3816L39.839 51.7953ZM40.8971 52.3262C42.0118 52.7441 43.469 52.9698 45.0001 52.9698V52.4698C43.5114 52.4698 42.1168 52.2495 41.0727 51.858L40.8971 52.3262ZM45.0001 52.9698C46.5311 52.9698 47.9884 52.7441 49.1031 52.3262L48.9275 51.858C47.8833 52.2495 46.4887 52.4698 45.0001 52.4698V52.9698ZM49.103 52.3262C49.5114 52.1731 49.8665 51.9953 50.1612 51.7953L49.8804 51.3816C49.6252 51.5548 49.3072 51.7156 48.9275 51.858L49.103 52.3262ZM49.7708 51.5885L49.7709 53.8729L50.2709 53.8728L50.2708 51.5884L49.7708 51.5885ZM45.0001 58.8711C43.4917 58.8711 42.2664 58.6365 41.4265 58.3282C41.0054 58.1737 40.6911 58.0042 40.4872 57.8442C40.2707 57.6743 40.2294 57.5565 40.2294 57.513H39.7294C39.7294 57.7973 39.9325 58.0444 40.1785 58.2375C40.4371 58.4405 40.8033 58.6321 41.2543 58.7976C42.1586 59.1295 43.4437 59.3711 45.0001 59.3711V58.8711ZM40.2294 57.513V55.2286H39.7294V57.513H40.2294ZM39.839 55.4355C40.1337 55.6355 40.4888 55.8131 40.8971 55.9663L41.0727 55.4981C40.693 55.3557 40.375 55.1949 40.1197 55.0217L39.839 55.4355ZM40.8971 55.9663C42.0118 56.3843 43.469 56.6099 45.0001 56.6099V56.1099C43.5114 56.1099 42.1168 55.8897 41.0727 55.4981L40.8971 55.9663ZM45.0001 56.6099C46.5311 56.6099 47.9884 56.3843 49.1031 55.9663L48.9275 55.4981C47.8833 55.8897 46.4887 56.1099 45.0001 56.1099V56.6099ZM49.103 55.9663C49.5114 55.8132 49.8665 55.6355 50.1612 55.4355L49.8804 55.0217C49.6252 55.195 49.3072 55.3558 48.9275 55.4981L49.103 55.9663ZM49.7708 55.2286V57.513H50.2708V55.2286H49.7708ZM49.7708 57.513C49.7708 57.5566 49.7295 57.6743 49.513 57.8442C49.3092 58.0042 48.9948 58.1737 48.5737 58.3282C47.7339 58.6365 46.5086 58.8711 45.0001 58.8711V59.3711C46.5566 59.3711 47.8417 59.1295 48.746 58.7976C49.1969 58.6321 49.5631 58.4405 49.8217 58.2375C50.0678 58.0444 50.2709 57.7972 50.2708 57.5129L49.7708 57.513ZM49.7709 46.5926C49.7709 46.6266 49.7438 46.7167 49.5976 46.8525C49.4589 46.9813 49.245 47.1204 48.9609 47.2524L49.1715 47.7058C49.4852 47.5601 49.7486 47.3946 49.9379 47.2189C50.1196 47.0502 50.2709 46.8358 50.2709 46.5926H49.7709ZM48.9608 47.2524C48.6155 47.4129 48.4656 47.8228 48.6261 48.1681L49.0795 47.9575C49.0355 47.8626 49.0766 47.7499 49.1716 47.7058L48.9608 47.2524ZM48.6261 48.1682C48.7866 48.5135 49.1965 48.6634 49.5418 48.5029L49.3312 48.0495C49.2363 48.0936 49.1236 48.0524 49.0795 47.9575L48.6261 48.1682ZM49.5418 48.5029C49.7792 48.3927 49.9841 48.2774 50.1605 48.1587L49.8813 47.7438C49.7292 47.8462 49.5476 47.9489 49.3312 48.0495L49.5418 48.5029ZM49.7709 47.9513V50.2328H50.2709V47.9513H49.7709ZM49.7709 50.2328C49.7709 50.2763 49.7295 50.3941 49.5131 50.564C49.3092 50.724 48.9949 50.8934 48.5737 51.048C47.7339 51.3562 46.5086 51.5909 45.0001 51.5909V52.0909C46.5566 52.0909 47.8417 51.8493 48.746 51.5174C49.197 51.3519 49.5631 51.1603 49.8218 50.9573C50.0678 50.7642 50.2709 50.517 50.2709 50.2328H49.7709ZM45.0001 51.5909C43.4917 51.5909 42.2664 51.3562 41.4265 51.048C41.0054 50.8934 40.6911 50.724 40.4872 50.564C40.2707 50.3941 40.2294 50.2763 40.2294 50.2328H39.7294C39.7294 50.517 39.9325 50.7642 40.1785 50.9573C40.4371 51.1603 40.8033 51.3519 41.2543 51.5174C42.1586 51.8493 43.4437 52.0909 45.0001 52.0909V51.5909ZM40.2294 50.2328V47.9484H39.7294V50.2328H40.2294ZM39.839 48.1552C40.1337 48.3553 40.4888 48.5329 40.897 48.686L41.0726 48.2178C40.693 48.0755 40.375 47.9147 40.1197 47.7415L39.839 48.1552ZM40.897 48.686C42.0118 49.104 43.469 49.3296 45.0001 49.3296V48.8296C43.5114 48.8296 42.1168 48.6094 41.0726 48.2178L40.897 48.686ZM45.0001 49.3296C45.8268 49.3296 46.6272 49.2648 47.379 49.1362L47.2948 48.6434C46.5731 48.7668 45.8011 48.8296 45.0001 48.8296V49.3296ZM47.379 49.1362C47.7544 49.0721 48.0066 48.7158 47.9425 48.3404L47.4496 48.4247C47.4672 48.5278 47.3979 48.6257 47.2948 48.6434L47.379 49.1362ZM47.9425 48.3404C47.8783 47.9651 47.5217 47.7127 47.1465 47.7771L47.2312 48.2699C47.3338 48.2523 47.432 48.3215 47.4496 48.4247L47.9425 48.3404ZM47.1467 47.7771C46.4739 47.8921 45.7516 47.9507 45.0001 47.9507V48.4507C45.7772 48.4507 46.5278 48.3901 47.231 48.2699L47.1467 47.7771ZM45.0001 47.9507C43.4917 47.9507 42.2664 47.7161 41.4265 47.4079C41.0054 47.2533 40.6911 47.0838 40.4872 46.9238C40.2707 46.754 40.2294 46.6362 40.2294 46.5926H39.7294C39.7294 46.8769 39.9325 47.1241 40.1785 47.3172C40.4371 47.5202 40.8033 47.7118 41.2543 47.8773C42.1586 48.2092 43.4437 48.4507 45.0001 48.4507V47.9507ZM40.2294 46.5926C40.2294 46.5625 40.2521 46.4767 40.389 46.3449C40.5201 46.2188 40.7286 46.0779 41.0222 45.9394C41.6078 45.663 42.4961 45.4127 43.6748 45.298L43.6264 44.8004C42.4065 44.9191 41.4592 45.1803 40.8088 45.4872C40.4844 45.6402 40.2249 45.8089 40.0423 45.9846C39.8657 46.1545 39.7294 46.3626 39.7294 46.5926H40.2294ZM43.4006 45.0492V46.3461H43.9006V45.0492H43.4006ZM43.4006 46.3461C43.4006 46.6884 43.5753 47.0018 43.8666 47.1818L44.1294 46.7564C43.9856 46.6676 43.9006 46.5151 43.9006 46.3461H43.4006ZM43.8666 47.1818C44.1576 47.3616 44.516 47.378 44.8224 47.2248L44.5988 46.7775C44.4475 46.8532 44.2732 46.8453 44.1294 46.7564L43.8666 47.1818ZM44.8224 47.2248L46.0565 46.6077L45.8329 46.1605L44.5988 46.7775L44.8224 47.2248ZM46.0565 46.6077C46.391 46.4405 46.5996 46.1029 46.5996 45.729H46.0996C46.0996 45.9136 45.9979 46.078 45.8329 46.1605L46.0565 46.6077ZM46.5996 45.729V45.0492H46.0996V45.729H46.5996ZM46.3254 45.298C47.5041 45.4127 48.3924 45.6629 48.9781 45.9393C49.2717 46.0779 49.4802 46.2187 49.6112 46.3448C49.7482 46.4766 49.7709 46.5624 49.7709 46.5926H50.2709C50.2709 46.3625 50.1345 46.1545 49.9579 45.9845C49.7754 45.8089 49.5158 45.6402 49.1914 45.4871C48.5411 45.1802 47.5937 44.919 46.3737 44.8004L46.3254 45.298ZM57.2856 32.4801C56.9133 32.4801 56.61 32.1768 56.61 31.8045H56.11C56.11 32.453 56.6372 32.9801 57.2856 32.9801V32.4801ZM56.61 31.8045C56.61 31.4322 56.9133 31.1289 57.2856 31.1289V30.6289C56.6372 30.6289 56.11 31.156 56.11 31.8045H56.61ZM57.2856 31.1289C57.6579 31.1289 57.9612 31.4322 57.9612 31.8045H58.4612C58.4612 31.156 57.934 30.6289 57.2856 30.6289V31.1289ZM57.9612 31.8045C57.9612 32.1768 57.6579 32.4801 57.2856 32.4801V32.9801C57.934 32.9801 58.4612 32.453 58.4612 31.8045H57.9612Z" fill="#175CD3"/>
</g>
<defs>
<clipPath id="clip0_9191_2082">
<rect width="30" height="30" fill="white" transform="translate(30 30)"/>
</clipPath>
</defs>
</svg>
