<svg xmlns="http://www.w3.org/2000/svg" width="16" height="16" fill="none"><path fill="#37352F" d="M8.5.5a.5.5 0 0 0-1 0h1Zm-.853 6.916a.5.5 0 0 0 .707 0l3.182-3.182a.5.5 0 0 0-.707-.707L8 6.355 5.172 3.527a.5.5 0 1 0-.707.707l3.182 3.182ZM7.5.5v6.563h1V.5h-1ZM.5 8.5a.5.5 0 0 1 0-1v1Zm0-1c1.495 0 2.321.112 3.005.805.308.314.573.732.876 1.227.31.51.682 1.138 1.221 1.939l-.83.558c-.554-.824-.94-1.476-1.245-1.976-.312-.511-.52-.828-.735-1.046C2.43 8.638 2.005 8.5.5 8.5v-1Z"/><path stroke="#37352F" stroke-linecap="round" stroke-linejoin="round" d="m6.125 9.406-.833 2.813-2.917-.469"/><path fill="#37352F" d="M15.5 8.5a.5.5 0 0 0 0-1v1Zm0-1c-1.495 0-2.321.112-3.005.805-.308.314-.573.732-.876 1.227-.31.51-.682 1.138-1.221 1.939l.83.558c.554-.824.94-1.476 1.245-1.976.312-.511.52-.828.735-1.046.363-.369.787-.507 2.292-.507v-1Z"/><path stroke="#37352F" stroke-linecap="round" stroke-linejoin="round" d="m9.875 9.406.833 2.813 2.917-.469M.5 13.09v2.41h15v-2.813"/></svg>