<svg width="400" height="399" viewBox="0 0 400 399" fill="none" xmlns="http://www.w3.org/2000/svg">
<path d="M400 190.5V150.5H354C318 150.5 285.333 203.167 274 229.5L240.5 211L254.5 309.5L342.5 270L308.5 249.5C308.5 249.5 328 190.5 364 190.5H400Z" fill="#6b7280"/>
<path d="M0.5 190.5V150.5H46.5C82.5 150.5 115.167 203.167 126.5 229.5L160 211L146 309.5L58 270L92 249.5C92 249.5 72.5 190.5 36.5 190.5H0.5Z" fill="#6b7280"/>
<path d="M219 0H179.5V109H129.5L200.5 192.5L268 109H219V0Z" fill="#6b7280"/>
<path fill-rule="evenodd" clip-rule="evenodd" d="M399 310V381.807C399 391.302 391.292 399 381.784 399H18.2163C8.70799 399 1 391.302 1 381.807V310.399H39.2886V361H361.5V310H399Z" fill="#6b7280"/>
</svg>
