<svg width="42" height="43" viewBox="0 0 42 43" fill="none" xmlns="http://www.w3.org/2000/svg">
<path d="M7.08485 0.604709C7.38083 0.223229 7.83654 0 8.31938 0H34.0138C34.4973 0 34.9538 0.223958 35.2496 0.606521L40.5279 7.43048C41.056 8.11306 40.9306 9.0944 40.2481 9.62238C39.5654 10.1504 38.5842 10.025 38.0563 9.34244L33.2469 3.125H9.08473L4.2595 9.34425C3.73052 10.0261 2.74898 10.15 2.06719 9.62098C1.38538 9.092 1.26148 8.11046 1.79046 7.42865L7.08485 0.604709Z" fill="#292929"/>
<path d="M4.49996 9.375C4.21229 9.375 3.97913 9.60817 3.97913 9.89583V38.0208C3.97913 38.8838 4.67867 39.5833 5.54163 39.5833H36.7916C37.6545 39.5833 38.3541 38.8838 38.3541 38.0208V9.89583C38.3541 9.60815 38.121 9.375 37.8333 9.375H4.49996ZM0.854126 9.89583C0.854126 7.88225 2.48644 6.25 4.49996 6.25H37.8333C39.8468 6.25 41.4791 7.88227 41.4791 9.89583V38.0208C41.4791 40.6098 39.3806 42.7083 36.7916 42.7083H5.54163C2.95281 42.7083 0.854126 40.6098 0.854126 38.0208V9.89583Z" fill="#292929"/>
<path d="M11.7284 23.3737C12.3386 22.7635 13.3279 22.7635 13.9381 23.3737L21.1666 30.602L28.3951 23.3737C29.0053 22.7635 29.9945 22.7635 30.6047 23.3737C31.2149 23.9839 31.2149 24.973 30.6047 25.5833L22.2714 33.9166C21.6612 34.5268 20.672 34.5268 20.0618 33.9166L11.7284 25.5833C11.1182 24.973 11.1182 23.9839 11.7284 23.3737Z" fill="#757575"/>
<path d="M21.1578 14.584C22.021 14.584 22.7203 15.2835 22.7203 16.1465V32.8132C22.7203 33.6761 22.021 34.3757 21.1578 34.3757C20.2949 34.3757 19.5953 33.6761 19.5953 32.8132V16.1465C19.5953 15.2835 20.2949 14.584 21.1578 14.584Z" fill="#757575"/>
</svg>
