<svg viewBox="0 0 24 24" fill="currentColor" xmlns="http://www.w3.org/2000/svg" role="img" height="20" width="20" style="vertical-align: middle;"><path d="M22.59 4.411a4.793 4.793 0 0 0-5.233-1.044A4.792 4.792 0 0 0 15.8 4.41l1.135 1.136a3.202 3.202 0 0 1 5.467 2.268 3.207 3.207 0 0 1-.938 2.267l-6.39 6.398a3.198 3.198 0 0 1-5.465-2.26c0-.85.336-1.665.935-2.266l1.126-1.136-1.126-1.136-1.134 1.136a4.801 4.801 0 0 0 0 6.798A4.79 4.79 0 0 0 12.805 19a4.788 4.788 0 0 0 3.41-1.408l6.391-6.398a4.801 4.801 0 0 0-.016-6.783Z" fill="currentColor"></path><path d="M2.57 18.452a3.206 3.206 0 0 1-.696-3.5c.162-.39.398-.744.696-1.042l6.387-6.409a3.195 3.195 0 0 1 2.263-.943 3.183 3.183 0 0 1 2.263.943 3.16 3.16 0 0 1 .91 2.283 3.214 3.214 0 0 1-.934 2.284l-1.692 1.722 1.134 1.137 1.692-1.698a4.829 4.829 0 0 0 0-6.817 4.795 4.795 0 0 0-6.794 0L1.413 12.82A4.808 4.808 0 0 0 0 16.23a4.821 4.821 0 0 0 1.413 3.408A4.781 4.781 0 0 0 4.813 21a4.837 4.837 0 0 0 3.417-1.41l-1.133-1.138a3.191 3.191 0 0 1-3.489.699 3.192 3.192 0 0 1-1.038-.699Z" fill="currentColor"></path></svg> 