<svg viewBox="0 0 31 23" fill="none" xmlns="http://www.w3.org/2000/svg">
<path d="M30.1357 8.4258C29.6995 7.76591 29.0317 7.31884 28.2554 7.16691C27.4789 7.01486 26.6921 7.17722 26.0396 7.62388L21.0869 11.0111C20.6326 10.3156 19.8477 9.85467 18.9567 9.85467H15.8187C15.2874 9.33547 14.0982 8.52459 11.8531 8.52459C8.99307 8.52459 7.76407 9.73537 7.51504 10.0195L6.51989 11.0369L5.98569 10.0136L0.625 12.8123L5.80405 22.7323L11.1647 19.9337L10.6098 18.8709H20.357L29.3934 12.4243C30.6835 11.504 31.0094 9.74761 30.1357 8.4258ZM6.55018 20.3558L3.00162 13.5585L5.23955 12.3901L8.78817 19.1874L6.55018 20.3558ZM28.3706 10.9903L19.7932 17.1095H9.69022L7.37729 12.6792L8.79473 11.2302L8.81436 11.2179L8.84735 11.1723C8.93993 11.0742 9.74987 10.286 11.8531 10.286C13.8872 10.286 14.5966 11.1077 14.6822 11.2174L14.9038 11.6161H18.9567C19.3878 11.6161 19.7386 11.9668 19.7386 12.3979C19.7386 12.8291 19.3878 13.1798 18.9567 13.1798H13.6667V14.9411H18.9567C20.1885 14.9411 21.2183 14.0608 21.4506 12.8963L27.0341 9.07765C27.2943 8.89959 27.608 8.83502 27.9171 8.89549C28.2265 8.95601 28.4926 9.1342 28.6663 9.39711C29.0145 9.92375 28.8846 10.6236 28.3706 10.9903Z" fill="currentColor"/>
<path d="M20.6229 0C18.7413 0 17.163 1.31906 16.7614 3.08074H7.75323L7.75305 5.96461H9.51438V4.84207H11.0702V6.31899H12.8316V4.84207H16.7613C17.163 6.60381 18.7412 7.92288 20.6228 7.92288C22.8071 7.92288 24.5843 6.14578 24.5843 3.96141C24.5844 1.77709 22.8073 0 20.6229 0ZM20.6229 6.16149C19.4097 6.16149 18.4229 5.17453 18.4229 3.96135C18.4229 2.74822 19.4098 1.76127 20.6229 1.76127C21.8359 1.76127 22.823 2.74822 22.823 3.96135C22.823 5.17453 21.836 6.16149 20.6229 6.16149Z" fill="currentColor"/>
</svg>
