<svg viewBox="0 0 30 30" fill="none" xmlns="http://www.w3.org/2000/svg">
<path d="M15.1458 11.0236H23.358M2.96338 7.11552H26.7288M15.1447 15.4765H23.357M6.39085 19.3268H23.357M6.39085 23.1172H14.6031M4.10551 27.69H25.5845C26.747 27.69 27.69 26.748 27.69 25.5845V4.10551C27.69 2.94304 26.748 2 25.5845 2H4.10551C2.94304 2 2 2.94197 2 4.10551V25.5845C2 26.747 2.94197 27.69 4.10551 27.69ZM6.39192 16.1991H12.2278C12.4269 16.1991 12.5886 16.0374 12.5886 15.8373V10.543C12.5886 10.4473 12.5506 10.3556 12.4829 10.2879C12.4153 10.2203 12.3235 10.1823 12.2278 10.1823H6.39192C6.19282 10.1823 6.1104 10.3439 6.1104 10.543V15.8373C6.1104 16.0374 6.19282 16.1991 6.39192 16.1991Z" stroke="#757575" stroke-width="1.5" stroke-linecap="round"/>
</svg>
