<svg xmlns="http://www.w3.org/2000/svg" viewBox="0 0 30 30" fill="none">
<path d="M26.632 7.79463H24.8406V6.16334C24.8406 6.11823 24.8311 6.07355 24.8126 6.03187C24.7941 5.99019 24.767 5.95232 24.7329 5.92042C24.6987 5.88853 24.6581 5.86323 24.6134 5.84598C24.5688 5.82873 24.5209 5.81986 24.4726 5.81989C19.0279 5.81989 15.3365 7.3662 14.5 7.75224C13.6635 7.3662 9.97192 5.81989 4.52742 5.81989C4.47909 5.81986 4.43122 5.82873 4.38656 5.84598C4.3419 5.86323 4.30132 5.88853 4.26714 5.92042C4.23297 5.95232 4.20586 5.99019 4.18738 6.03187C4.16889 6.07355 4.15939 6.11823 4.15942 6.16334V7.79463H2.368C2.2704 7.79463 2.1768 7.83081 2.10778 7.89522C2.03877 7.95963 2 8.04699 2 8.13808V25.6566C1.99997 25.7017 2.00947 25.7463 2.02796 25.788C2.04644 25.8297 2.07355 25.8676 2.10772 25.8995C2.1419 25.9314 2.18248 25.9567 2.22714 25.9739C2.2718 25.9912 2.31967 26 2.368 26H26.632C26.6803 26 26.7282 25.9912 26.7729 25.9739C26.8175 25.9567 26.8581 25.9314 26.8923 25.8995C26.9265 25.8676 26.9536 25.8297 26.972 25.788C26.9905 25.7463 27 25.7017 27 25.6566V8.13906C27.0001 8.09387 26.9907 8.04911 26.9723 8.00733C26.9539 7.96554 26.9268 7.92757 26.8926 7.89557C26.8584 7.86357 26.8178 7.83819 26.7731 7.82087C26.7284 7.80354 26.6804 7.79463 26.632 7.79463ZM24.1046 23.3407C19.4362 23.4006 16.1175 24.5842 14.868 25.1094V8.35082C15.6955 7.97931 19.1399 6.57685 24.1046 6.50973V23.3407ZM4.89542 6.51012C9.84954 6.57744 13.3026 7.98009 14.132 8.35141V25.11C12.8825 24.5848 9.56271 23.4012 4.89542 23.3413V6.51012ZM2.736 8.48153H4.15942V23.6818C4.15942 23.7729 4.19819 23.8603 4.26721 23.9247C4.33622 23.9891 4.42982 24.0253 4.52742 24.0253C7.306 24.016 10.0657 24.4516 12.6865 25.3131H2.736V8.48153ZM26.264 25.3131H16.311C18.9324 24.4509 21.6931 24.0152 24.4726 24.0253C24.5702 24.0253 24.6638 23.9891 24.7328 23.9247C24.8018 23.8603 24.8406 23.7729 24.8406 23.6818V8.48153H26.264V25.3131Z" fill="currentColor" stroke="currentColor" stroke-width="0.2"/>
<path d="M22.3239 20.3811C20.3427 20.5297 18.3878 20.8996 16.5011 21.4827C16.4086 21.5118 16.3322 21.574 16.2889 21.6556C16.2455 21.7372 16.2386 21.8315 16.2698 21.9178C16.3009 22.0042 16.3675 22.0754 16.455 22.1159C16.5424 22.1564 16.6435 22.1628 16.736 22.1337C18.5662 21.5684 20.4625 21.2101 22.3842 21.0665C22.4328 21.0632 22.4802 21.0511 22.5236 21.0306C22.5671 21.0102 22.6058 20.9819 22.6375 20.9474C22.6691 20.913 22.6932 20.873 22.7082 20.8298C22.7232 20.7865 22.7288 20.741 22.7249 20.6957C22.7209 20.6504 22.7073 20.6064 22.6849 20.566C22.6626 20.5257 22.6318 20.4899 22.5945 20.4607C22.5573 20.4315 22.5141 20.4095 22.4677 20.396C22.4212 20.3825 22.3723 20.3777 22.3239 20.3819V20.3811Z" fill="currentColor" fill-opacity="0.4"/>
<path d="M16.6184 19.791C16.6584 19.7909 16.6981 19.7848 16.736 19.773C18.5662 19.2076 20.4625 18.8492 22.3842 18.7057C22.4328 18.7025 22.4802 18.6903 22.5236 18.6699C22.5671 18.6494 22.6058 18.6212 22.6375 18.5867C22.6691 18.5522 22.6932 18.5122 22.7082 18.469C22.7232 18.4258 22.7288 18.3802 22.7249 18.335C22.7209 18.2897 22.7073 18.2456 22.6849 18.2053C22.6626 18.1649 22.6318 18.1291 22.5945 18.0999C22.5573 18.0708 22.5141 18.0488 22.4677 18.0352C22.4212 18.0217 22.3723 18.0169 22.3239 18.0212C20.3427 18.1693 18.3878 18.5389 16.5011 19.122C16.4183 19.1479 16.3481 19.2005 16.303 19.2703C16.2579 19.3401 16.2409 19.4226 16.255 19.503C16.2691 19.5835 16.3134 19.6566 16.38 19.7094C16.4466 19.7621 16.5311 19.7911 16.6184 19.791Z" fill="currentColor" fill-opacity="0.4"/>
<path d="M16.6184 17.4308C16.6584 17.4308 16.6981 17.4248 16.736 17.413C18.5661 16.8474 20.4625 16.4891 22.3842 16.3457C22.4815 16.3383 22.5717 16.295 22.6348 16.2255C22.6979 16.156 22.7289 16.066 22.7209 15.9752C22.7129 15.8844 22.6666 15.8003 22.5921 15.7413C22.5177 15.6824 22.4212 15.6535 22.3239 15.661C20.3428 15.8093 18.3879 16.1789 16.5011 16.7618C16.4183 16.7877 16.3481 16.8403 16.303 16.9101C16.2579 16.9799 16.2409 17.0624 16.255 17.1429C16.2691 17.2233 16.3134 17.2964 16.38 17.3492C16.4466 17.4019 16.5311 17.4309 16.6184 17.4308Z" fill="currentColor" fill-opacity="0.4"/>
<path d="M6.61577 11.6255C8.53753 11.7692 10.4339 12.1274 12.2642 12.6926C12.3564 12.7203 12.4565 12.713 12.5428 12.6723C12.6292 12.6316 12.695 12.5608 12.7259 12.4752C12.7567 12.3896 12.7502 12.2961 12.7077 12.2149C12.6653 12.1338 12.5902 12.0715 12.4989 12.0416C10.612 11.4587 8.65708 11.0892 6.67591 10.9408C6.57862 10.9333 6.48214 10.9623 6.4077 11.0212C6.33327 11.0801 6.28697 11.1643 6.27899 11.2551C6.27102 11.3459 6.30202 11.4359 6.36518 11.5054C6.42833 11.5749 6.51847 11.6181 6.61577 11.6255Z" fill="currentColor" fill-opacity="0.4"/>
<path d="M6.61577 13.9857C8.53756 14.1293 10.434 14.4876 12.2642 15.0529C12.3564 15.0806 12.4565 15.0733 12.5428 15.0327C12.6292 14.992 12.695 14.9212 12.7259 14.8356C12.7567 14.75 12.7502 14.6565 12.7077 14.5753C12.6653 14.4941 12.5902 14.4319 12.4989 14.402C10.6121 13.8191 8.65709 13.4495 6.67591 13.3012C6.57936 13.2949 6.48408 13.3245 6.4107 13.3833C6.33731 13.4422 6.29173 13.5257 6.28382 13.6157C6.27592 13.7057 6.30632 13.795 6.36845 13.8643C6.43057 13.9335 6.51943 13.9772 6.61577 13.9857Z" fill="currentColor" fill-opacity="0.4"/>
<path d="M6.61577 21.0657C8.53754 21.2094 10.4339 21.5677 12.2642 22.1329C12.3552 22.157 12.4525 22.1475 12.5362 22.1064C12.6198 22.0653 12.6833 21.9958 12.7135 21.9122C12.7437 21.8286 12.7382 21.7373 12.6983 21.6574C12.6583 21.5774 12.5869 21.5149 12.4989 21.4827C10.6121 20.8998 8.65723 20.5303 6.67612 20.3819C6.62766 20.3777 6.57879 20.3825 6.53233 20.396C6.48587 20.4095 6.44274 20.4315 6.40545 20.4607C6.36816 20.4899 6.33744 20.5257 6.31507 20.566C6.2927 20.6064 6.27913 20.6504 6.27514 20.6957C6.27115 20.741 6.27682 20.7865 6.29182 20.8298C6.30682 20.873 6.33086 20.913 6.36254 20.9474C6.39422 20.9819 6.43291 21.0102 6.47638 21.0306C6.51984 21.0511 6.56722 21.0632 6.61577 21.0665V21.0657Z" fill="currentColor" fill-opacity="0.4"/>
<path d="M6.61577 18.7057C8.53756 18.8493 10.4339 19.2076 12.2642 19.773C12.3564 19.8006 12.4565 19.7934 12.5428 19.7527C12.6292 19.712 12.695 19.6412 12.7259 19.5556C12.7567 19.47 12.7502 19.3765 12.7077 19.2953C12.6653 19.2141 12.5902 19.1519 12.4989 19.122C10.6122 18.5389 8.65726 18.1693 6.67612 18.0212C6.62766 18.0169 6.57879 18.0217 6.53233 18.0352C6.48587 18.0488 6.44274 18.0708 6.40545 18.0999C6.36816 18.1291 6.33744 18.1649 6.31507 18.2053C6.2927 18.2456 6.27913 18.2897 6.27514 18.335C6.27115 18.3802 6.27682 18.4258 6.29182 18.469C6.30682 18.5122 6.33086 18.5522 6.36254 18.5867C6.39422 18.6212 6.43291 18.6494 6.47638 18.6699C6.51984 18.6903 6.56722 18.7025 6.61577 18.7057Z" fill="currentColor" fill-opacity="0.4"/>
<path d="M6.61577 16.3457C8.53758 16.4892 10.434 16.8475 12.2642 17.413C12.3568 17.442 12.4579 17.4356 12.5453 17.395C12.6327 17.3545 12.6993 17.2832 12.7304 17.1969C12.7616 17.1105 12.7547 17.0162 12.7112 16.9346C12.6678 16.853 12.5914 16.7908 12.4989 16.7618C10.6121 16.1789 8.65709 15.8093 6.67591 15.661C6.57862 15.6535 6.48214 15.6825 6.4077 15.7414C6.33327 15.8003 6.28697 15.8845 6.27899 15.9753C6.27102 16.0661 6.30202 16.1561 6.36518 16.2256C6.42833 16.2951 6.51847 16.3383 6.61577 16.3457Z" fill="currentColor" fill-opacity="0.4"/>
<path d="M18.9794 4.14955C19.1972 4.14955 19.3737 3.9848 19.3737 3.78157V3.36798C19.3737 3.16476 19.1972 3 18.9794 3C18.7617 3 18.5851 3.16476 18.5851 3.36798V3.78157C18.5851 3.9848 18.7617 4.14955 18.9794 4.14955Z" fill="currentColor" fill-opacity="0.4"/>
<path d="M22.7533 4.60508L22.4233 4.91306C22.2693 5.05677 22.2693 5.28975 22.4233 5.43346C22.5003 5.50531 22.6012 5.54125 22.7021 5.54125C22.803 5.54125 22.9039 5.50534 22.9809 5.43346L23.3109 5.12548C23.4649 4.98177 23.4649 4.74879 23.3109 4.60508C23.1569 4.46137 22.9073 4.46137 22.7533 4.60508Z" fill="currentColor" fill-opacity="0.4"/>
<path d="M24.5645 8.27965H24.1214C23.9036 8.27965 23.7271 8.44441 23.7271 8.64763C23.7271 8.85086 23.9036 9.01561 24.1214 9.01561H24.5645C24.7823 9.01561 24.9588 8.85086 24.9588 8.64763C24.9588 8.44441 24.7823 8.27965 24.5645 8.27965Z" fill="currentColor" fill-opacity="0.4"/>
<path d="M13.8375 8.27965H13.3943C13.1765 8.27965 13 8.44441 13 8.64763C13 8.85086 13.1765 9.01561 13.3943 9.01561H13.8374C14.0552 9.01561 14.2317 8.85086 14.2317 8.64763C14.2317 8.44441 14.0552 8.27965 13.8375 8.27965Z" fill="currentColor" fill-opacity="0.4"/>
<path d="M15.2567 5.54124C15.3576 5.54124 15.4585 5.50532 15.5355 5.43344C15.6895 5.28974 15.6895 5.05675 15.5355 4.91304L15.2055 4.60507C15.0515 4.46136 14.8019 4.46136 14.6479 4.60507C14.4939 4.74878 14.4939 4.98176 14.6479 5.12547L14.9779 5.43344C15.0549 5.50532 15.1558 5.54124 15.2567 5.54124Z" fill="currentColor" fill-opacity="0.4"/>
<path d="M18.9794 4.85432C16.7235 4.85432 14.8883 6.56719 14.8883 8.67256C14.8883 9.88885 15.5038 11.0216 16.545 11.7414L16.5535 13.137C16.5562 13.4359 16.7906 13.6849 17.0959 13.7356V14.5826C17.0959 15.1218 17.5659 15.5605 18.1436 15.5605H19.8152C20.3929 15.5605 20.8629 15.1218 20.8629 14.5826V13.7381C21.1778 13.6929 21.4196 13.4383 21.4196 13.132V11.7373C22.4572 11.0174 23.0705 9.88617 23.0705 8.67259C23.0706 6.56719 21.2353 4.85432 18.9794 4.85432ZM20.0743 14.5826C20.0743 14.716 19.9581 14.8245 19.8152 14.8245H18.1436C18.0007 14.8245 17.8845 14.716 17.8845 14.5826V13.7453H20.0744L20.0743 14.5826ZM20.8069 11.2402C20.697 11.3084 20.6311 11.4234 20.6311 11.5465V13.0093H19.3737V9.37539C19.7165 9.28795 20.0186 9.08834 20.221 8.80482C20.3417 8.63567 20.2927 8.40722 20.1115 8.29455C19.9302 8.18187 19.6854 8.22765 19.5647 8.39677C19.432 8.58265 19.2187 8.68925 18.9794 8.68925C18.7401 8.68925 18.5267 8.58263 18.3941 8.39677C18.2734 8.22762 18.0285 8.18187 17.8473 8.29455C17.6661 8.40722 17.617 8.63567 17.7378 8.80482C17.9402 9.08836 18.2423 9.28795 18.5851 9.37539V13.0093H17.3413L17.3324 11.5473C17.3317 11.4247 17.2656 11.3105 17.1561 11.2428C16.2298 10.6691 15.6768 9.70829 15.6768 8.67256C15.6768 6.973 17.1583 5.59029 18.9794 5.59029C20.8005 5.59029 22.282 6.973 22.282 8.67256C22.282 9.7064 21.7305 10.6662 20.8069 11.2402Z" fill="currentColor"/>
<path d="M18.9794 4.85432C16.7235 4.85432 14.8883 6.56719 14.8883 8.67256C14.8883 9.88885 15.5038 11.0216 16.545 11.7414L16.5535 13.137C16.5562 13.4359 16.7906 13.6849 17.0959 13.7356V14.5826C17.0959 15.1218 17.5659 15.5605 18.1436 15.5605H19.8152C20.3929 15.5605 20.8629 15.1218 20.8629 14.5826V13.7381C21.1778 13.6929 21.4196 13.4383 21.4196 13.132V11.7373C22.4572 11.0174 23.0705 9.88617 23.0705 8.67259C23.0706 6.56719 21.2353 4.85432 18.9794 4.85432ZM20.0743 14.5826C20.0743 14.716 19.9581 14.8245 19.8152 14.8245H18.1436C18.0007 14.8245 17.8845 14.716 17.8845 14.5826V13.7453H20.0744L20.0743 14.5826ZM20.8069 11.2402C20.697 11.3084 20.6311 11.4234 20.6311 11.5465V13.0093H19.3737V9.37539C19.7165 9.28795 20.0186 9.08834 20.221 8.80482C20.3417 8.63567 20.2927 8.40722 20.1115 8.29455C19.9302 8.18187 19.6854 8.22765 19.5647 8.39677C19.432 8.58265 19.2187 8.68925 18.9794 8.68925C18.7401 8.68925 18.5267 8.58263 18.3941 8.39677C18.2734 8.22762 18.0285 8.18187 17.8473 8.29455C17.6661 8.40722 17.617 8.63567 17.7378 8.80482C17.9402 9.08836 18.2423 9.28795 18.5851 9.37539V13.0093H17.3413L17.3324 11.5473C17.3317 11.4247 17.2656 11.3105 17.1561 11.2428C16.2298 10.6691 15.6768 9.70829 15.6768 8.67256C15.6768 6.973 17.1583 5.59029 18.9794 5.59029C20.8005 5.59029 22.282 6.973 22.282 8.67256C22.282 9.7064 21.7305 10.6662 20.8069 11.2402Z" fill="currentColor"/>
<path d="M18.9794 4.85432C16.7235 4.85432 14.8883 6.56719 14.8883 8.67256C14.8883 9.88885 15.5038 11.0216 16.545 11.7414L16.5535 13.137C16.5562 13.4359 16.7906 13.6849 17.0959 13.7356V14.5826C17.0959 15.1218 17.5659 15.5605 18.1436 15.5605H19.8152C20.3929 15.5605 20.8629 15.1218 20.8629 14.5826V13.7381C21.1778 13.6929 21.4196 13.4383 21.4196 13.132V11.7373C22.4572 11.0174 23.0705 9.88617 23.0705 8.67259C23.0706 6.56719 21.2353 4.85432 18.9794 4.85432ZM20.0743 14.5826C20.0743 14.716 19.9581 14.8245 19.8152 14.8245H18.1436C18.0007 14.8245 17.8845 14.716 17.8845 14.5826V13.7453H20.0744L20.0743 14.5826ZM20.8069 11.2402C20.697 11.3084 20.6311 11.4234 20.6311 11.5465V13.0093H19.3737V9.37539C19.7165 9.28795 20.0186 9.08834 20.221 8.80482C20.3417 8.63567 20.2927 8.40722 20.1115 8.29455C19.9302 8.18187 19.6854 8.22765 19.5647 8.39677C19.432 8.58265 19.2187 8.68925 18.9794 8.68925C18.7401 8.68925 18.5267 8.58263 18.3941 8.39677C18.2734 8.22762 18.0285 8.18187 17.8473 8.29455C17.6661 8.40722 17.617 8.63567 17.7378 8.80482C17.9402 9.08836 18.2423 9.28795 18.5851 9.37539V13.0093H17.3413L17.3324 11.5473C17.3317 11.4247 17.2656 11.3105 17.1561 11.2428C16.2298 10.6691 15.6768 9.70829 15.6768 8.67256C15.6768 6.973 17.1583 5.59029 18.9794 5.59029C20.8005 5.59029 22.282 6.973 22.282 8.67256C22.282 9.7064 21.7305 10.6662 20.8069 11.2402Z" stroke="currentColor" stroke-width="0.2"/>
<path d="M20.6459 11.4683C20.6459 11.3452 20.7119 11.2302 20.8217 11.162C21.7454 10.5881 22.2968 9.62821 22.2968 8.59437C22.2968 6.89481 20.8153 5.5121 18.9942 5.5121C17.1732 5.5121 15.6917 6.89481 15.6917 8.59437C15.6917 9.6301 16.2447 10.5909 17.171 11.1646C17.2804 11.2323 17.3465 11.3465 17.3473 11.4691L17.3562 12.9311H18.5999V9.2972C18.2571 9.20976 17.955 9.01017 17.7526 8.72663C17.6319 8.55748 17.6809 8.32903 17.8622 8.21636C18.0434 8.10368 18.2882 8.14943 18.4089 8.31858C18.5416 8.50444 18.7549 8.61106 18.9942 8.61106C19.2335 8.61106 19.4469 8.50446 19.5796 8.31858C19.7003 8.14946 19.9451 8.10368 20.1263 8.21636C20.3075 8.32903 20.3566 8.55748 20.2358 8.72663C20.0335 9.01015 19.7314 9.20976 19.3885 9.2972V12.9311H20.6459V11.4683Z" fill="white"/>
</svg>