<svg xmlns="http://www.w3.org/2000/svg" viewBox="0 0 14 14" fill="none"><g clip-path="url(#a)"><path stroke="currentColor" stroke-linecap="round" stroke-linejoin="round" stroke-miterlimit="10" stroke-width=".6" d="M6.538 7.462 5.33 6.254a.654.654 0 0 1 .925-.925l.746.746 2.68-2.68a.654.654 0 0 1 .924.925L7.463 7.462a.654.654 0 0 1-.925 0Z"/><path stroke="currentColor" stroke-linecap="round" stroke-linejoin="round" stroke-miterlimit="10" stroke-width=".7" d="M9.5 3.5c-.703-.515-1.56-.754-2.5-.754A4.253 4.253 0 1 0 11.255 7c0-.94-.24-1.797-.754-2.5"/><path stroke="currentColor" stroke-linecap="round" stroke-linejoin="round" stroke-miterlimit="10" stroke-width=".7" d="M9.148.863a6.5 6.5 0 0 0-6.08 11.315M3.84 12.68a6.5 6.5 0 1 0 6.163-11.45M11.254 7H13.5"/><path fill="currentColor" d="M11.845 2.645a.35.35 0 0 0-.496-.493l.496.493Zm-1.093.108-.247.249.497.493.246-.248-.496-.494Zm.597-.601-.597.601.496.494.598-.602-.497-.493Z"/><path stroke="currentColor" stroke-linecap="round" stroke-linejoin="round" stroke-miterlimit="10" stroke-width=".7" d="M7 .5v2.247M3.993 3.987l-1.59-1.589M.5 7h2.247"/><path stroke="currentColor" stroke-linecap="round" stroke-linejoin="round" stroke-miterlimit="10" stroke-width=".5" d="M5.324 8.484v1.507M6.135 8.5l-.763.7.816.788M8.677 8.484v1.507M6.998 8.484v1.507M6.998 8.484h.42c.235 0 .434.19.434.426a.433.433 0 0 1-.434.425l-.417.002"/></g><defs><clipPath id="a"><path fill="#fff" d="M0 0h14v14H0z"/></clipPath></defs></svg>