<svg viewBox="0 0 24 24" fill="none" xmlns="http://www.w3.org/2000/svg">
<path d="M10.3611 16.7005C10.3611 16.7004 10.3611 16.7004 10.3611 16.7003L10.3609 16.6999L10.3575 16.6938L10.3419 16.6654C10.3275 16.6396 10.3054 16.6005 10.2763 16.5506C10.2179 16.4507 10.1319 16.3086 10.0236 16.1442C9.80397 15.8107 9.50627 15.406 9.17416 15.0739C8.3783 14.2781 7.58845 13.3103 7.45553 11.8152C7.38886 11.0654 7.45433 10.3917 7.68926 9.75433C7.92321 9.11957 8.30873 8.56552 8.81758 8.03119C10.764 5.98726 14.0882 5.98726 16.0346 8.03119C16.5424 8.56434 16.9307 9.11822 17.1662 9.75334C17.4031 10.392 17.4688 11.0676 17.3962 11.8204C17.25 13.3377 16.4563 14.2269 15.6091 15.0739C15.2552 15.4278 14.9994 15.8171 14.8315 16.1224C14.7483 16.2738 14.6885 16.401 14.6505 16.4878C14.6316 16.5311 14.6182 16.564 14.6101 16.5845L14.602 16.6056L14.6017 16.6063C14.6016 16.6064 14.6016 16.6065 14.6016 16.6066M10.3611 16.7005L13.9425 16.3709C14.6017 16.6063 14.6016 16.6065 14.6016 16.6066M10.3611 16.7005L10.3612 16.7006C10.3612 16.7006 10.3613 16.7007 10.3613 16.7007C10.483 16.9286 10.7203 17.0709 10.9787 17.0709H13.9425C14.2382 17.0709 14.502 16.885 14.6016 16.6066M10.3611 16.7005L14.6016 16.6066" stroke="currentColor" stroke-width="1.4" stroke-linecap="round" stroke-linejoin="round"/>
<path d="M12.3824 10.2653L11.1973 11.9718H13.3306L12.3824 13.4651" stroke="currentColor" stroke-width="1.4" stroke-linecap="round" stroke-linejoin="round"/>
<rect x="8.70234" y="17.06" width="7.69999" height="2.84" rx="1.42" stroke="currentColor" stroke-width="1.4"/>
<path d="M5.80117 5.70007L6.70117 6.60007" stroke="currentColor" stroke-width="1.4" stroke-linecap="round" stroke-linejoin="round"/>
<path d="M17.5023 15.6001L18.4023 16.5001" stroke="currentColor" stroke-width="1.4" stroke-linecap="round" stroke-linejoin="round"/>
<rect x="10.4973" y="19.7888" width="3.95605" height="1.91118" rx="0.95559" stroke="currentColor" stroke-width="1.4"/>
<path d="M17.502 4.79995L16.602 5.69995" stroke="currentColor" stroke-width="1.4" stroke-linecap="round" stroke-linejoin="round"/>
<path d="M7.60352 16.5L6.70352 17.4" stroke="currentColor" stroke-width="1.4" stroke-linecap="round" stroke-linejoin="round"/>
<path d="M11.7917 2.99995L11.8 4.29496" stroke="currentColor" stroke-width="1.4" stroke-linecap="round" stroke-linejoin="round"/>
<path d="M20.5672 10.9462L19.2721 10.9545" stroke="currentColor" stroke-width="1.4" stroke-linecap="round" stroke-linejoin="round"/>
<path d="M5.29575 11.771L4.00065 11.7792" stroke="currentColor" stroke-width="1.4" stroke-linecap="round" stroke-linejoin="round"/>
</svg>
