
<svg viewBox="0 0 40 40" fill="none" xmlns="http://www.w3.org/2000/svg">
<path d="M20.75 11.5059L17 17.1309H19.5V20.8809L23.25 15.2559H20.75V11.5059Z" fill="currentColor" fill-opacity="0.4"/>
<path d="M15.2375 26.0551V24.6051C12.3625 22.8676 10 19.4801 10 15.8801C10 9.6926 15.6875 4.8426 22.1125 6.2426C24.9375 6.8676 27.4125 8.7426 28.7 11.3301C31.3125 16.5801 28.5625 22.1551 24.525 24.5926V26.0426C24.525 26.4051 24.6625 27.2426 23.325 27.2426H16.4375C15.0625 27.2551 15.2375 26.7176 15.2375 26.0551Z" stroke="currentColor" stroke-width="1.5" stroke-linecap="round" stroke-linejoin="round"/>
<path d="M15.375 30C15.375 29.655 15.655 29.375 16 29.375H23.5C23.6658 29.375 23.8247 29.4408 23.9419 29.5581C24.0592 29.6753 24.125 29.8342 24.125 30C24.125 30.1658 24.0592 30.3247 23.9419 30.4419C23.8247 30.5592 23.6658 30.625 23.5 30.625H16C15.8342 30.625 15.6753 30.5592 15.5581 30.4419C15.4408 30.3247 15.375 30.1658 15.375 30Z" fill="currentColor" fill-opacity="0.4"/>
<path fill-rule="evenodd" clip-rule="evenodd" d="M15.375 31.875H24.125V33.75C24.125 34.44 23.565 35 22.875 35H16.625C15.935 35 15.375 34.44 15.375 33.75V31.875ZM16.625 33.125H22.875V33.75H16.625V33.125Z" fill="currentColor" fill-opacity="0.4"/>
</svg>
