<svg width="30" height="30" viewBox="0 0 30 30" fill="none" xmlns="http://www.w3.org/2000/svg">
<path opacity="0.7" d="M15.625 7.5L11.875 13.125H14.375V16.875L18.125 11.25H15.625V7.5Z" fill="currentColor"/>
<path fill-rule="evenodd" clip-rule="evenodd" d="M23.6934 12.0453C23.5062 13.6497 22.8601 15.1698 21.8296 16.4303C21.228 17.1642 19.6998 19.2621 19.375 20.625H10.625C10.3002 19.261 8.77024 17.1632 8.16868 16.4282C7.13855 15.1674 6.49299 13.6471 6.3063 12.0426C6.11959 10.438 6.39943 8.81444 7.11349 7.35888C7.82749 5.90332 8.9468 4.67497 10.3423 3.81533C11.7379 2.95569 13.3529 2.49974 15.0014 2.5C16.6499 2.50026 18.2648 2.95672 19.6601 3.81679C21.0553 4.67687 22.1742 5.90557 22.8877 7.36138C23.6013 8.81713 23.8806 10.4408 23.6934 12.0453ZM18.4898 19.375H11.5102C11.2438 18.7603 10.8879 18.145 10.5566 17.6219C10.0296 16.7897 9.46699 16.041 9.13668 15.6373C8.25636 14.5598 7.70674 13.2635 7.54793 11.8981C7.38905 10.5328 7.62686 9.15044 8.23568 7.90944C8.84461 6.66819 9.80099 5.61692 10.9979 4.87961C12.1951 4.14217 13.5829 3.74978 15.0012 3.75C16.4196 3.75023 17.8072 4.14305 19.0041 4.88087C20.2008 5.61855 21.1568 6.67006 21.7653 7.9115C22.3737 9.15269 22.6111 10.5352 22.4518 11.9004C22.2925 13.2656 21.7426 14.5617 20.8621 15.6388C20.5311 16.0428 19.9688 16.7914 19.4423 17.6233C19.1114 18.1461 18.756 18.7609 18.4898 19.375Z" fill="currentColor"/>
<path opacity="0.7" d="M10.625 22.5C10.625 22.1548 10.9048 21.875 11.25 21.875H18.75C19.0952 21.875 19.375 22.1548 19.375 22.5C19.375 22.8452 19.0952 23.125 18.75 23.125H11.25C10.9048 23.125 10.625 22.8452 10.625 22.5Z" fill="currentColor"/>
<path opacity="0.7" fill-rule="evenodd" clip-rule="evenodd" d="M10.625 24.375H19.375V26.25C19.375 26.9404 18.8154 27.5 18.125 27.5H11.875C11.1846 27.5 10.625 26.9404 10.625 26.25V24.375ZM11.875 25.625H18.125V26.25H11.875V25.625Z" fill="currentColor"/>
</svg>