<svg viewBox="0 0 89 89" fill="none" xmlns="http://www.w3.org/2000/svg">
<path d="M0 28C0 12.536 12.536 0 28 0H61C76.464 0 89 12.536 89 28V61C89 76.464 76.464 89 61 89H28C12.536 89 0 76.464 0 61V28Z" fill="#EFF8FF"/>
<path fill-rule="evenodd" clip-rule="evenodd" d="M33.2862 50.0147H30.3512C29.5713 50.0147 28.9382 49.3816 28.9382 48.6018V41.314C28.9382 40.5342 29.5713 39.9011 30.3512 39.9011H33.2862V34.9848C33.2862 34.1338 33.9829 33.4372 34.8338 33.4372H48.9881V32.2831C48.9881 31.7851 49.395 31.3782 49.893 31.3782H56.9124C57.1594 31.3782 57.3774 31.4647 57.5544 31.6468L59.7961 33.8884C59.9716 34.0639 60.0618 34.2819 60.0618 34.5276V44.1147C60.0618 44.6127 59.6549 45.0196 59.1568 45.0196H58.3011V52.0139C58.3011 52.8632 57.6062 53.5601 56.7549 53.5601H55.0269V56.2453C55.0269 57.005 54.4101 57.6218 53.6504 57.6218H43.3022C42.5425 57.6218 41.9257 57.005 41.9257 56.2453V53.5601H34.8338C33.9827 53.5601 33.2862 52.863 33.2862 52.0139V50.0147ZM34.2901 39.9011H38.5951C39.3749 39.9011 40.008 40.5342 40.008 41.314V48.6018C40.008 49.3816 39.3749 50.0147 38.5951 50.0147H34.2901V52.0139C34.2901 52.3119 34.535 52.5562 34.8338 52.5562H41.9257V49.2491C41.9257 48.4894 42.5425 47.8726 43.3022 47.8726H53.6504C54.4101 47.8726 55.0269 48.4894 55.0269 49.2491V52.5562H56.7549C57.0534 52.5562 57.2971 52.3118 57.2971 52.0139V45.0196H49.893C49.395 45.0196 48.9881 44.6127 48.9881 44.1147V38.1722H34.2901V39.9011ZM48.9881 34.4411H34.8338C34.5348 34.4411 34.2901 34.6858 34.2901 34.9848V37.1682H48.9881V34.4411ZM39.0041 41.314C39.0041 41.0883 38.8208 40.905 38.5951 40.905H30.3512C30.1254 40.905 29.9422 41.0883 29.9422 41.314V48.6018C29.9422 48.8275 30.1254 49.0108 30.3512 49.0108H38.5951C38.8208 49.0108 39.0041 48.8275 39.0041 48.6018V41.314ZM37.1244 45.632L33.8764 47.9512C33.6238 48.1315 33.2918 48.1556 33.0159 48.0136C32.74 47.8716 32.5667 47.5874 32.5667 47.2771V42.6387C32.5667 42.3284 32.74 42.0442 33.0159 41.9022C33.2918 41.7602 33.6238 41.7843 33.8764 41.9646L37.1244 44.2838C37.3421 44.4393 37.4714 44.6903 37.4714 44.9579C37.4714 45.2255 37.3421 45.4766 37.1244 45.632ZM33.5706 42.9798V46.936L36.3409 44.9579L33.5706 42.9798ZM56.5732 32.386H49.9959V44.0118H59.0539V34.8667H57.2792C56.8882 34.8667 56.5732 34.5518 56.5732 34.1608V32.386ZM58.3413 33.8589L57.5811 33.0987V33.8589H58.3413ZM51.7054 34.8077C51.4273 34.8077 51.2014 34.5819 51.2014 34.3038C51.2014 34.0256 51.4273 33.7998 51.7054 33.7998H55.2493C55.5274 33.7998 55.7532 34.0256 55.7532 34.3038C55.7532 34.5819 55.5274 34.8077 55.2493 34.8077H51.7054ZM51.7054 39.9992C51.4273 39.9992 51.2014 39.7733 51.2014 39.4952C51.2014 39.2171 51.4273 38.9913 51.7054 38.9913H57.3445C57.6226 38.9913 57.8484 39.2171 57.8484 39.4952C57.8484 39.7733 57.6226 39.9992 57.3445 39.9992H51.7054ZM51.7054 37.4035C51.4273 37.4035 51.2014 37.1776 51.2014 36.8995C51.2014 36.6213 51.4273 36.3956 51.7054 36.3956H57.3445C57.6226 36.3956 57.8484 36.6213 57.8484 36.8995C57.8484 37.1776 57.6226 37.4035 57.3445 37.4035H51.7054ZM51.7054 42.5949C51.4273 42.5949 51.2014 42.3691 51.2014 42.091C51.2014 41.8128 51.4273 41.587 51.7054 41.587H57.3445C57.6226 41.587 57.8484 41.8128 57.8484 42.091C57.8484 42.3691 57.6226 42.5949 57.3445 42.5949H51.7054ZM38.9737 36.4146C38.6376 36.4146 38.3631 36.1415 38.3631 35.8053C38.3631 35.4692 38.6376 35.1947 38.9737 35.1947C39.3099 35.1947 39.5831 35.4692 39.5831 35.8053C39.5831 36.1415 39.3099 36.4146 38.9737 36.4146ZM41.3161 36.4146C40.98 36.4146 40.7055 36.1415 40.7055 35.8053C40.7055 35.4692 40.98 35.1947 41.3161 35.1947C41.6523 35.1947 41.9268 35.4692 41.9268 35.8053C41.9268 36.1415 41.6523 36.4146 41.3161 36.4146ZM36.63 36.4146C36.2938 36.4146 36.0194 36.1415 36.0194 35.8053C36.0194 35.4692 36.2938 35.1947 36.63 35.1947C36.9662 35.1947 37.2407 35.4692 37.2407 35.8053C37.2407 36.1415 36.9662 36.4146 36.63 36.4146ZM54.023 55.8452V49.2491C54.023 49.0434 53.856 48.8765 53.6504 48.8765H43.3022C43.0966 48.8765 42.9296 49.0434 42.9296 49.2491V56.0199L45.7572 52.8731C45.8524 52.7672 45.9881 52.7066 46.1305 52.7066C46.2729 52.7066 46.4087 52.7672 46.5039 52.8731L48.3199 54.8942L50.4176 52.0386C50.5121 51.9099 50.6623 51.8338 50.8221 51.8338C50.9818 51.8338 51.132 51.9099 51.2266 52.0386L54.023 55.8452ZM48.2993 56.6179H53.3449L50.8221 53.1837L48.2993 56.6179ZM43.742 56.6179H47.0536L47.7128 55.7206L46.1305 53.9596L43.742 56.6179ZM48.0076 50.2842C48.5737 50.2842 49.0334 50.7438 49.0334 51.31C49.0334 51.8761 48.5737 52.3358 48.0076 52.3358C47.4414 52.3358 46.9818 51.8761 46.9818 51.31C46.9818 50.7438 47.4414 50.2842 48.0076 50.2842Z" fill="#175CD3"/>
</svg>
