<svg width="72" height="72" viewBox="0 0 72 72" fill="none" xmlns="http://www.w3.org/2000/svg">
<path d="M0 12C0 5.37258 5.37258 0 12 0H60C66.6274 0 72 5.37258 72 12V60C72 66.6274 66.6274 72 60 72H12C5.37258 72 0 66.6274 0 60V12Z" fill="#EFF8FF"/>
<path fill-rule="evenodd" clip-rule="evenodd" d="M24.7862 41.5147H21.8512C21.0713 41.5147 20.4382 40.8816 20.4382 40.1018V32.814C20.4382 32.0342 21.0713 31.4011 21.8512 31.4011H24.7862V26.4848C24.7862 25.6338 25.4829 24.9372 26.3338 24.9372H40.4881V23.7831C40.4881 23.2851 40.895 22.8782 41.393 22.8782H48.4124C48.6594 22.8782 48.8774 22.9647 49.0544 23.1468L51.2961 25.3884C51.4716 25.5639 51.5618 25.7819 51.5618 26.0276V35.6147C51.5618 36.1127 51.1549 36.5196 50.6568 36.5196H49.8011V43.5139C49.8011 44.3632 49.1062 45.0601 48.2549 45.0601H46.5269V47.7453C46.5269 48.505 45.9101 49.1218 45.1504 49.1218H34.8022C34.0425 49.1218 33.4257 48.505 33.4257 47.7453V45.0601H26.3338C25.4827 45.0601 24.7862 44.363 24.7862 43.5139V41.5147ZM25.7901 31.4011H30.0951C30.8749 31.4011 31.508 32.0342 31.508 32.814V40.1018C31.508 40.8816 30.8749 41.5147 30.0951 41.5147H25.7901V43.5139C25.7901 43.8119 26.035 44.0562 26.3338 44.0562H33.4257V40.7491C33.4257 39.9894 34.0425 39.3726 34.8022 39.3726H45.1504C45.9101 39.3726 46.5269 39.9894 46.5269 40.7491V44.0562H48.2549C48.5534 44.0562 48.7971 43.8118 48.7971 43.5139V36.5196H41.393C40.895 36.5196 40.4881 36.1127 40.4881 35.6147V29.6722H25.7901V31.4011ZM40.4881 25.9411H26.3338C26.0348 25.9411 25.7901 26.1858 25.7901 26.4848V28.6682H40.4881V25.9411ZM30.5041 32.814C30.5041 32.5883 30.3208 32.405 30.0951 32.405H21.8512C21.6254 32.405 21.4422 32.5883 21.4422 32.814V40.1018C21.4422 40.3275 21.6254 40.5108 21.8512 40.5108H30.0951C30.3208 40.5108 30.5041 40.3275 30.5041 40.1018V32.814ZM28.6244 37.132L25.3764 39.4512C25.1238 39.6315 24.7918 39.6556 24.5159 39.5136C24.24 39.3716 24.0667 39.0874 24.0667 38.7771V34.1387C24.0667 33.8284 24.24 33.5442 24.5159 33.4022C24.7918 33.2602 25.1238 33.2843 25.3764 33.4646L28.6244 35.7838C28.8421 35.9393 28.9714 36.1903 28.9714 36.4579C28.9714 36.7255 28.8421 36.9766 28.6244 37.132ZM25.0706 34.4798V38.436L27.8409 36.4579L25.0706 34.4798ZM48.0732 23.886H41.4959V35.5118H50.5539V26.3667H48.7792C48.3882 26.3667 48.0732 26.0518 48.0732 25.6608V23.886ZM49.8413 25.3589L49.0811 24.5987V25.3589H49.8413ZM43.2054 26.3077C42.9273 26.3077 42.7014 26.0819 42.7014 25.8038C42.7014 25.5256 42.9273 25.2998 43.2054 25.2998H46.7493C47.0274 25.2998 47.2532 25.5256 47.2532 25.8038C47.2532 26.0819 47.0274 26.3077 46.7493 26.3077H43.2054ZM43.2054 31.4992C42.9273 31.4992 42.7014 31.2733 42.7014 30.9952C42.7014 30.7171 42.9273 30.4913 43.2054 30.4913H48.8445C49.1226 30.4913 49.3484 30.7171 49.3484 30.9952C49.3484 31.2733 49.1226 31.4992 48.8445 31.4992H43.2054ZM43.2054 28.9035C42.9273 28.9035 42.7014 28.6776 42.7014 28.3995C42.7014 28.1213 42.9273 27.8956 43.2054 27.8956H48.8445C49.1226 27.8956 49.3484 28.1213 49.3484 28.3995C49.3484 28.6776 49.1226 28.9035 48.8445 28.9035H43.2054ZM43.2054 34.0949C42.9273 34.0949 42.7014 33.8691 42.7014 33.591C42.7014 33.3128 42.9273 33.087 43.2054 33.087H48.8445C49.1226 33.087 49.3484 33.3128 49.3484 33.591C49.3484 33.8691 49.1226 34.0949 48.8445 34.0949H43.2054ZM30.4737 27.9146C30.1376 27.9146 29.8631 27.6415 29.8631 27.3053C29.8631 26.9692 30.1376 26.6947 30.4737 26.6947C30.8099 26.6947 31.0831 26.9692 31.0831 27.3053C31.0831 27.6415 30.8099 27.9146 30.4737 27.9146ZM32.8161 27.9146C32.48 27.9146 32.2055 27.6415 32.2055 27.3053C32.2055 26.9692 32.48 26.6947 32.8161 26.6947C33.1523 26.6947 33.4268 26.9692 33.4268 27.3053C33.4268 27.6415 33.1523 27.9146 32.8161 27.9146ZM28.13 27.9146C27.7938 27.9146 27.5194 27.6415 27.5194 27.3053C27.5194 26.9692 27.7938 26.6947 28.13 26.6947C28.4662 26.6947 28.7407 26.9692 28.7407 27.3053C28.7407 27.6415 28.4662 27.9146 28.13 27.9146ZM45.523 47.3452V40.7491C45.523 40.5434 45.356 40.3765 45.1504 40.3765H34.8022C34.5966 40.3765 34.4296 40.5434 34.4296 40.7491V47.5199L37.2572 44.3731C37.3524 44.2672 37.4881 44.2066 37.6305 44.2066C37.7729 44.2066 37.9087 44.2672 38.0039 44.3731L39.8199 46.3942L41.9176 43.5386C42.0121 43.4099 42.1623 43.3338 42.3221 43.3338C42.4818 43.3338 42.632 43.4099 42.7266 43.5386L45.523 47.3452ZM39.7993 48.1179H44.8449L42.3221 44.6837L39.7993 48.1179ZM35.242 48.1179H38.5536L39.2128 47.2206L37.6305 45.4596L35.242 48.1179ZM39.5076 41.7842C40.0737 41.7842 40.5334 42.2438 40.5334 42.81C40.5334 43.3761 40.0737 43.8358 39.5076 43.8358C38.9414 43.8358 38.4818 43.3761 38.4818 42.81C38.4818 42.2438 38.9414 41.7842 39.5076 41.7842Z" fill="#175CD3"/>
</svg>
