<svg viewBox="0 0 89 89" fill="none" xmlns="http://www.w3.org/2000/svg">
<path d="M0 28C0 12.536 12.536 0 28 0H61C76.464 0 89 12.536 89 28V61C89 76.464 76.464 89 61 89H28C12.536 89 0 76.464 0 61V28Z" fill="#EFF8FF"/>
<path d="M56 30H33C31.3431 30 30 31.3431 30 33V58C30 59.6569 31.3431 61 33 61H56C57.6569 61 59 59.6569 59 58V33C59 31.3431 57.6569 30 56 30Z" stroke="#175CD3" stroke-width="1.5" stroke-linecap="round" stroke-linejoin="round"/>
<path d="M36 38H53" stroke="#175CD3" stroke-width="1.5" stroke-linecap="round"/>
<path d="M36 44H53" stroke="#175CD3" stroke-width="1.5" stroke-linecap="round"/>
<path d="M36 50H46" stroke="#175CD3" stroke-width="1.5" stroke-linecap="round"/>
<path d="M44.5 24L51 28L44.5 32L38 28L44.5 24Z" stroke="#175CD3" stroke-width="1.5" stroke-linecap="round" stroke-linejoin="round"/>
<path d="M38 28V34" stroke="#175CD3" stroke-width="1.5" stroke-linecap="round"/>
<path d="M51 28V34" stroke="#175CD3" stroke-width="1.5" stroke-linecap="round"/>
<circle cx="51" cy="52" r="6" fill="#EFF8FF" stroke="#175CD3" stroke-width="1.5"/>
<path d="M49 52L50.5 53.5L53.5 50.5" stroke="#175CD3" stroke-width="1.5" stroke-linecap="round" stroke-linejoin="round"/>
</svg>
