<svg xmlns="http://www.w3.org/2000/svg" width="16" height="16" fill="none"><path fill="#7147E8" d="M14.4.8a1.597 1.597 0 0 0-1.15 2.708l-2.923 5.845a1.545 1.545 0 0 0-.194-.02c-.206 0-.41.041-.602.12L7.261 6.9c.133-.234.204-.498.206-.768a1.6 1.6 0 0 0-3.2 0c.001.382.14.75.392 1.038L1.886 12.03A1.595 1.595 0 0 0 1.6 12a1.6 1.6 0 1 0 1.6 1.6 1.586 1.586 0 0 0-.393-1.038l2.774-4.857c.298.058.606.027.886-.091l2.269 2.552a1.58 1.58 0 0 0-.203.767 1.6 1.6 0 1 0 2.75-1.107l2.923-5.846c.065.011.13.018.194.02a1.6 1.6 0 1 0 0-3.2ZM1.6 14.133a.533.533 0 1 1 0-1.066.533.533 0 0 1 0 1.066Zm4.267-7.466a.533.533 0 1 1 0-1.067.533.533 0 0 1 0 1.067Zm4.266 4.8a.533.533 0 1 1 0-1.067.533.533 0 0 1 0 1.067ZM14.4 2.933a.533.533 0 1 1 0-1.066.533.533 0 0 1 0 1.066Z"/></svg>