<svg width="53" height="51" viewBox="0 0 53 51" fill="none" xmlns="http://www.w3.org/2000/svg">
<path d="M37.619 33.833H17.1429V15.2615C17.1429 15.1306 17.0357 15.0234 16.9048 15.0234H15.2381C15.1071 15.0234 15 15.1306 15 15.2615V35.7377C15 35.8687 15.1071 35.9759 15.2381 35.9759H37.619C37.75 35.9759 37.8572 35.8687 37.8572 35.7377V34.071C37.8572 33.94 37.75 33.833 37.619 33.833ZM20.2917 29.2407C20.3839 29.333 20.5328 29.333 20.628 29.2407L24.744 25.1455L28.5417 28.9669C28.6339 29.0592 28.7857 29.0592 28.878 28.9669L37.0744 20.7734C37.1667 20.6812 37.1667 20.5294 37.0744 20.4371L35.8959 19.2586C35.851 19.2143 35.7907 19.1894 35.7277 19.1894C35.6647 19.1894 35.6042 19.2143 35.5595 19.2586L28.7144 26.1009L24.9227 22.2854C24.8779 22.241 24.8174 22.2162 24.7545 22.2162C24.6915 22.2162 24.631 22.241 24.5864 22.2854L19.1161 27.7229C19.0718 27.7675 19.0469 27.828 19.0469 27.891C19.0469 27.954 19.0718 28.0144 19.1161 28.0592L20.2917 29.2407Z" fill="#757575"/>
</svg>
