<svg viewBox="0 0 18 14" fill="none" xmlns="http://www.w3.org/2000/svg">
<path d="M11.2781 13.2007C11.1001 13.2007 10.922 13.1339 10.7815 12.9909C10.5097 12.7145 10.5097 12.2569 10.7815 11.9805L15.9729 6.69945L10.7815 1.41844C10.5097 1.14199 10.5097 0.68443 10.7815 0.407986C11.0532 0.131542 11.503 0.131542 11.7748 0.407986L17.4629 6.19423C17.7346 6.47067 17.7346 6.92823 17.4629 7.20468L11.7748 12.9909C11.6342 13.1339 11.4562 13.2007 11.2781 13.2007Z" fill="currentColor"/>
<path d="M16.8073 7.41452H1.03619C0.651982 7.41452 0.333374 7.09041 0.333374 6.69958C0.333374 6.30874 0.651982 5.98464 1.03619 5.98464H16.8073C17.1915 5.98464 17.5101 6.30874 17.5101 6.69958C17.5101 7.09041 17.1915 7.41452 16.8073 7.41452Z" fill="currentColor"/>
</svg>
