<svg width="16" height="16" viewBox="0 0 16 16" fill="none" xmlns="http://www.w3.org/2000/svg">
<path d="M9.22688 7.35377C9.15091 7.35391 9.07566 7.33901 9.00548 7.30992C8.9353 7.28084 8.87157 7.23814 8.81797 7.18431C7.91601 6.28234 6.4484 6.28205 5.54614 7.18431C5.49279 7.23955 5.42897 7.28361 5.3584 7.31392C5.28784 7.34423 5.21195 7.36019 5.13515 7.36085C5.05836 7.36152 4.9822 7.34689 4.91112 7.31781C4.84004 7.28872 4.77546 7.24578 4.72116 7.19147C4.66685 7.13717 4.62391 7.07259 4.59483 7.00151C4.56575 6.93043 4.55111 6.85428 4.55178 6.77748C4.55245 6.70068 4.5684 6.62479 4.59871 6.55423C4.62903 6.48366 4.67309 6.41984 4.72833 6.36649C6.08142 5.01311 8.28298 5.0134 9.63579 6.36649C9.71665 6.44738 9.77171 6.55042 9.79402 6.6626C9.81633 6.77477 9.80487 6.89105 9.76111 6.99671C9.71734 7.10238 9.64323 7.1927 9.54814 7.25626C9.45305 7.31981 9.34125 7.35374 9.22688 7.35377ZM8.81797 10.6531C7.92931 10.6531 7.04065 10.3147 6.36424 9.63832C6.309 9.58497 6.26494 9.52115 6.23463 9.45059C6.20432 9.38003 6.18836 9.30413 6.1877 9.22734C6.18703 9.15054 6.20166 9.07438 6.23074 9.0033C6.25982 8.93222 6.30277 8.86765 6.35707 8.81334C6.41138 8.75904 6.47595 8.71609 6.54703 8.68701C6.61811 8.65793 6.69427 8.6433 6.77107 8.64396C6.84786 8.64463 6.92376 8.66059 6.99432 8.6909C7.06488 8.72121 7.1287 8.76527 7.18206 8.82051C8.08402 9.72248 9.55163 9.72277 10.4539 8.82051C10.5072 8.76527 10.5711 8.72121 10.6416 8.6909C10.7122 8.66059 10.7881 8.64463 10.8649 8.64396C10.9417 8.6433 11.0178 8.65793 11.0889 8.68701C11.16 8.71609 11.2246 8.75904 11.2789 8.81334C11.3332 8.86765 11.3761 8.93222 11.4052 9.0033C11.4343 9.07438 11.4489 9.15054 11.4483 9.22734C11.4476 9.30413 11.4316 9.38003 11.4013 9.45059C11.371 9.52115 11.3269 9.58497 11.2717 9.63832C10.9497 9.96069 10.5671 10.2163 10.146 10.3904C9.72496 10.5646 9.27364 10.6538 8.81797 10.6531Z" fill="#37352F"/>
<path d="M10.8624 9.80525C10.748 9.80523 10.6362 9.77129 10.5412 9.70774C10.4461 9.64419 10.372 9.55387 10.3282 9.4482C10.2844 9.34253 10.273 9.22626 10.2953 9.11408C10.3176 9.00191 10.3726 8.89886 10.4535 8.81798L13.6843 5.58721C13.7376 5.53197 13.8014 5.48791 13.872 5.45759C13.9426 5.42728 14.0185 5.41133 14.0953 5.41066C14.1721 5.40999 14.2482 5.42463 14.3193 5.45371C14.3904 5.48279 14.455 5.52573 14.5093 5.58004C14.5636 5.63434 14.6065 5.69892 14.6356 5.77C14.6647 5.84108 14.6793 5.91724 14.6786 5.99403C14.678 6.07083 14.662 6.14672 14.6317 6.21728C14.6014 6.28785 14.5573 6.35167 14.5021 6.40502L11.2713 9.63579C11.2177 9.68963 11.154 9.73232 11.0838 9.76141C11.0136 9.79049 10.9384 9.80539 10.8624 9.80525ZM5.99602 14.6716C5.88164 14.6716 5.76985 14.6377 5.67476 14.5741C5.57967 14.5106 5.50556 14.4203 5.46179 14.3146C5.41803 14.2089 5.40657 14.0927 5.42888 13.9805C5.45118 13.8683 5.50625 13.7653 5.58711 13.6844L7.39307 11.8784C7.44642 11.8232 7.51024 11.7791 7.5808 11.7488C7.65137 11.7185 7.72726 11.7025 7.80406 11.7019C7.88085 11.7012 7.95701 11.7158 8.02809 11.7449C8.09917 11.774 8.16375 11.8169 8.21805 11.8712C8.27236 11.9256 8.3153 11.9901 8.34438 12.0612C8.37346 12.1323 8.3881 12.2084 8.38743 12.2852C8.38676 12.362 8.37081 12.4379 8.3405 12.5085C8.31018 12.5791 8.26612 12.6429 8.21088 12.6962L6.40492 14.5022C6.35133 14.556 6.2876 14.5987 6.21742 14.6278C6.14723 14.6569 6.07199 14.6718 5.99602 14.6716ZM1.90637 10.582C1.792 10.582 1.6802 10.548 1.58511 10.4845C1.49002 10.4209 1.41591 10.3306 1.37214 10.2249C1.32838 10.1193 1.31693 10.003 1.33923 9.89083C1.36154 9.77866 1.4166 9.67561 1.49746 9.59472L4.72823 6.36425C4.78159 6.30901 4.84541 6.26494 4.91597 6.23463C4.98653 6.20432 5.06243 6.18837 5.13922 6.1877C5.21602 6.18703 5.29218 6.20166 5.36326 6.23075C5.43433 6.25983 5.49891 6.30277 5.55322 6.35708C5.60752 6.41138 5.65047 6.47596 5.67955 6.54704C5.70863 6.61812 5.72326 6.69428 5.72259 6.77107C5.72193 6.84787 5.70597 6.92376 5.67566 6.99432C5.64535 7.06489 5.60129 7.12871 5.54605 7.18206L2.31528 10.4125C2.20221 10.5253 2.05414 10.582 1.90637 10.582ZM8.19758 4.29108C8.08321 4.29106 7.97141 4.25712 7.87632 4.19357C7.78123 4.13002 7.70712 4.0397 7.66335 3.93403C7.61959 3.82836 7.60813 3.71209 7.63044 3.59991C7.65275 3.48774 7.70781 3.38469 7.78867 3.30381L9.59463 1.49756C9.70312 1.38907 9.85026 1.32812 10.0037 1.32812C10.1571 1.32812 10.3042 1.38907 10.4127 1.49756C10.5212 1.60605 10.5822 1.75319 10.5822 1.90661C10.5822 2.06003 10.5212 2.20718 10.4127 2.31566L8.60677 4.12191C8.49816 4.23027 8.351 4.29111 8.19758 4.29108Z" fill="#37352F"/>
<path d="M3.95142 15.5C3.05697 15.5 2.16252 15.1674 1.49769 14.5023C0.167438 13.1721 0.167438 10.9248 1.49769 9.59456C1.55104 9.53932 1.61486 9.49526 1.68542 9.46495C1.75599 9.43464 1.83188 9.41868 1.90867 9.41802C1.98547 9.41735 2.06163 9.43198 2.13271 9.46106C2.20379 9.49014 2.26836 9.53309 2.32267 9.58739C2.37697 9.6417 2.41992 9.70627 2.449 9.77735C2.47808 9.84843 2.49271 9.92459 2.49205 10.0014C2.49138 10.0782 2.47542 10.1541 2.44511 10.2246C2.4148 10.2952 2.37074 10.359 2.3155 10.4124C1.42886 11.299 1.42886 12.7976 2.3155 13.6842C3.20214 14.5708 4.70069 14.5708 5.58733 13.6842C5.64069 13.629 5.70451 13.5849 5.77507 13.5546C5.84563 13.5243 5.92153 13.5083 5.99832 13.5077C6.07512 13.507 6.15128 13.5216 6.22236 13.5507C6.29343 13.5798 6.35801 13.6227 6.41232 13.677C6.46662 13.7313 6.50957 13.7959 6.53865 13.867C6.56773 13.9381 6.58236 14.0142 6.58169 14.091C6.58103 14.1678 6.56507 14.2437 6.53476 14.3143C6.50445 14.3849 6.46039 14.4487 6.40515 14.502C5.74031 15.1674 4.84586 15.5 3.95142 15.5ZM14.0934 6.57461C13.979 6.57458 13.8672 6.54065 13.7721 6.4771C13.6771 6.41354 13.6029 6.32322 13.5592 6.21756C13.5154 6.11189 13.504 5.99562 13.5263 5.88344C13.5486 5.77126 13.6036 5.66822 13.6845 5.58733C14.5711 4.70069 14.5711 3.20214 13.6845 2.3155C12.7979 1.42886 11.2993 1.42886 10.4127 2.3155C10.3593 2.37074 10.2955 2.4148 10.2249 2.44511C10.1544 2.47542 10.0785 2.49138 10.0017 2.49205C9.92488 2.49271 9.84872 2.47808 9.77764 2.449C9.70656 2.41992 9.64199 2.37697 9.58768 2.32267C9.53338 2.26836 9.49043 2.20379 9.46135 2.13271C9.43227 2.06163 9.41764 1.98547 9.4183 1.90867C9.41897 1.83188 9.43493 1.75599 9.46524 1.68542C9.49555 1.61486 9.53961 1.55104 9.59485 1.49769C10.9251 0.167438 13.1724 0.167438 14.5026 1.49769C15.8329 2.82793 15.8329 5.07519 14.5026 6.40544C14.3895 6.51822 14.2415 6.57461 14.0934 6.57461Z" fill="#37352F"/>
</svg>
