
<svg viewBox="0 0 16 16" fill="none" xmlns="http://www.w3.org/2000/svg">
<g clip-path="url(#clip0_8108_4894)">
<path d="M6.66656 8.66673C6.95286 9.04948 7.31813 9.36618 7.73759 9.59535C8.15705 9.82452 8.62089 9.9608 9.09766 9.99495C9.57442 10.0291 10.0529 9.9603 10.5008 9.79325C10.9486 9.62619 11.3553 9.36477 11.6932 9.02673L13.6932 7.02673C14.3004 6.39805 14.6364 5.55604 14.6288 4.68205C14.6212 3.80807 14.2706 2.97202 13.6526 2.354C13.0346 1.73597 12.1985 1.38541 11.3246 1.37781C10.4506 1.37022 9.60856 1.7062 8.97989 2.31339L7.83322 3.45339M9.33322 7.33339C9.04692 6.95064 8.68165 6.63394 8.26219 6.40477C7.84273 6.17559 7.37888 6.03931 6.90212 6.00517C6.42536 5.97102 5.94683 6.03981 5.49899 6.20687C5.05115 6.37393 4.64448 6.63534 4.30656 6.97339L2.30656 8.97339C1.69936 9.60207 1.36338 10.4441 1.37098 11.3181C1.37857 12.1921 1.72913 13.0281 2.34716 13.6461C2.96519 14.2641 3.80123 14.6147 4.67522 14.6223C5.54921 14.6299 6.39121 14.2939 7.01989 13.6867L8.15989 12.5467" stroke="#1570EF" stroke-width="1.33333" stroke-linecap="round" stroke-linejoin="round"/>
</g>
<defs>
<clipPath id="clip0_8108_4894">
<rect width="16" height="16" fill="white"/>
</clipPath>
</defs>
</svg>