<svg viewBox="0 0 16 16" fill="none" xmlns="http://www.w3.org/2000/svg">
<path d="M7.99995 0C4.74085 0 2.08948 2.65137 2.08948 5.91047C2.08948 6.9834 2.57066 8.13733 2.59082 8.18601C2.74624 8.55489 3.05288 9.12786 3.27401 9.46371L7.32651 15.604C7.49235 15.8557 7.7378 16 7.99995 16C8.2621 16 8.50756 15.8557 8.6734 15.6043L12.7262 9.46371C12.9477 9.12786 13.254 8.55489 13.4094 8.18601C13.4296 8.13768 13.9104 6.98375 13.9104 5.91047C13.9104 2.65137 11.2591 0 7.99995 0ZM12.7683 7.91621C12.6296 8.24685 12.3441 8.77983 12.1456 9.08092L8.09278 15.2216C8.01282 15.3429 7.98743 15.3429 7.90747 15.2216L3.85462 9.08092C3.6561 8.77983 3.37066 8.2465 3.23194 7.91586C3.22603 7.90161 2.78483 6.83946 2.78483 5.91047C2.78483 3.03485 5.12433 0.69535 7.99995 0.69535C10.8756 0.69535 13.2151 3.03485 13.2151 5.91047C13.2151 6.84085 12.7728 7.90578 12.7683 7.91621Z" fill="black"/>
<path d="M7.99992 2.78174C6.27441 2.78174 4.87085 4.18565 4.87085 5.91081C4.87085 7.63598 6.27441 9.03989 7.99992 9.03989C9.72543 9.03989 11.129 7.63598 11.129 5.91081C11.129 4.18565 9.72543 2.78174 7.99992 2.78174ZM7.99992 8.34454C6.65825 8.34454 5.5662 7.25284 5.5662 5.91081C5.5662 4.56879 6.65825 3.47709 7.99992 3.47709C9.3416 3.47709 10.4336 4.56879 10.4336 5.91081C10.4336 7.25284 9.3416 8.34454 7.99992 8.34454Z" fill="black"/>
</svg>
