<svg viewBox="0 0 89 89" fill="none" xmlns="http://www.w3.org/2000/svg">
<path d="M0 28C0 12.536 12.536 0 28 0H61C76.464 0 89 12.536 89 28V61C89 76.464 76.464 89 61 89H28C12.536 89 0 76.464 0 61V28Z" fill="#EFF8FF"/>
<path d="M38.1445 50.5664H51.9141C52.5613 50.5664 53.0859 50.0418 53.0859 49.3945V40.7812C53.0859 38.8426 51.5089 37.2656 49.5703 37.2656H49.5689V34.4843C49.5689 32.0116 47.5186 30 44.9986 30C42.4784 30 40.4283 32.0116 40.4283 34.4843V37.2672C38.5174 37.2995 36.9727 38.863 36.9727 40.7812V49.3945C36.9727 50.0418 37.4973 50.5664 38.1445 50.5664ZM44.9986 32.3438C46.2263 32.3438 47.2252 33.3039 47.2252 34.4843V37.2656H42.7721V34.4843C42.7721 33.3039 43.7709 32.3438 44.9986 32.3438ZM39.3164 40.7812C39.3164 40.1351 39.8421 39.6094 40.4883 39.6094H49.5703C50.2164 39.6094 50.7422 40.1351 50.7422 40.7812V48.2227H39.3164V40.7812ZM60 52.8516V55.3711C60 57.9236 57.9236 60 55.3711 60H34.6289C32.0764 60 30 57.9236 30 55.3711V52.8516C30 50.8436 31.2817 49.075 33.1892 48.4511C33.8042 48.2501 34.4662 48.5857 34.6674 49.2007C34.8685 49.8159 34.533 50.4776 33.9178 50.679C32.9764 50.9869 32.3438 51.8598 32.3438 52.8516V55.3711C32.3438 56.6311 33.3689 57.6562 34.6289 57.6562H55.3711C56.6311 57.6562 57.6562 56.6311 57.6562 55.3711V52.8516C57.6562 51.8479 56.9854 50.947 56.0248 50.6609C55.4045 50.4762 55.0516 49.8237 55.2363 49.2034C55.421 48.5831 56.0733 48.23 56.6938 48.4147C57.6302 48.6935 58.4715 49.2778 59.0634 50.0597C59.6761 50.869 60 51.8344 60 52.8516ZM42.6562 52.9688C43.3035 52.9688 43.8281 53.4933 43.8281 54.1406C43.8281 54.7879 43.3035 55.3125 42.6562 55.3125C42.009 55.3125 41.4844 54.7879 41.4844 54.1406C41.4844 53.4933 42.009 52.9688 42.6562 52.9688ZM36.7969 54.1406C36.7969 53.4933 37.3215 52.9688 37.9688 52.9688C38.616 52.9688 39.1406 53.4933 39.1406 54.1406C39.1406 54.7879 38.616 55.3125 37.9688 55.3125C37.3215 55.3125 36.7969 54.7879 36.7969 54.1406ZM47.3438 52.9688C47.991 52.9688 48.5156 53.4933 48.5156 54.1406C48.5156 54.7879 47.991 55.3125 47.3438 55.3125C46.6965 55.3125 46.1719 54.7879 46.1719 54.1406C46.1719 53.4933 46.6965 52.9688 47.3438 52.9688ZM53.2031 54.1406C53.2031 54.7879 52.6785 55.3125 52.0312 55.3125C51.384 55.3125 50.8594 54.7879 50.8594 54.1406C50.8594 53.4933 51.384 52.9688 52.0312 52.9688C52.6785 52.9688 53.2031 53.4933 53.2031 54.1406ZM46.1719 43.8867C46.1719 44.534 45.6473 45.0586 45 45.0586C44.3527 45.0586 43.8281 44.534 43.8281 43.8867C43.8281 43.2394 44.3527 42.7148 45 42.7148C45.6473 42.7148 46.1719 43.2394 46.1719 43.8867Z" fill="#175CD3"/>
</svg>
