<svg width="50" height="51" viewBox="0 0 50 51" fill="none" xmlns="http://www.w3.org/2000/svg">
<g clip-path="url(#clip0_967_19782)">
<path d="M35.2539 10.7539V15.1484H27.9297V10.7539C27.9297 9.13867 26.6152 7.82422 25 7.82422C23.3848 7.82422 22.0703 9.13867 22.0703 10.7539V19.543H14.7461V10.7539C14.7461 5.09961 19.3457 0.5 25 0.5C30.6543 0.5 35.2539 5.09961 35.2539 10.7539Z" fill="#613D5C"/>
<path d="M35.2539 10.7539V15.1484H27.9297V10.7539C27.9297 9.13867 26.6152 7.82422 25 7.82422V0.5C30.6543 0.5 35.2539 5.09961 35.2539 10.7539Z" fill="#4B2746"/>
<path d="M0 35.8516V50.5H50V35.8516H0Z" fill="#FFF5F5"/>
<path d="M25 35.8516H50V50.5H25V35.8516Z" fill="#D5E8FE"/>
<path d="M8.88672 41.7109H11.8164V44.6406H8.88672V41.7109Z" fill="#613D5C"/>
<path d="M14.7461 41.7109H17.6758V44.6406H14.7461V41.7109Z" fill="#613D5C"/>
<path d="M20.6055 41.7109H23.5352V44.6406H20.6055V41.7109Z" fill="#613D5C"/>
<path d="M26.4648 41.7109H29.3945V44.6406H26.4648V41.7109Z" fill="#4B2746"/>
<path d="M32.3242 41.7109H35.2539V44.6406H32.3242V41.7109Z" fill="#4B2746"/>
<path d="M38.1836 41.7109H41.1133V44.6406H38.1836V41.7109Z" fill="#4B2746"/>
<path d="M11.8164 18.0781V32.9219H38.1836V18.0781H11.8164Z" fill="#FABE2C"/>
<path d="M25 18.0781H38.1836V32.9219H25V18.0781Z" fill="#FF9100"/>
</g>
<defs>
<clipPath id="clip0_967_19782">
<rect width="50" height="50" fill="white" transform="translate(0 0.5)"/>
</clipPath>
</defs>
</svg>
