<svg viewBox="0 0 200 76" fill="none" xmlns="http://www.w3.org/2000/svg">
<path d="M12.9153 17.7827H12.9146V58.8459H12.9153C13.0398 66.8911 25.9742 73.3939 41.9103 73.3939C57.8463 73.3939 70.7807 66.8911 70.9052 58.8459L70.906 17.7827C70.7815 25.828 57.8463 32.3308 41.9103 32.3308C25.9742 32.3308 13.0398 25.828 12.9153 17.7827Z" fill="url(#paint0_linear_6038_39486)"/>
<path fill-rule="evenodd" clip-rule="evenodd" d="M41.9103 32.3308C57.9236 32.3308 70.906 25.7646 70.906 17.6654C70.906 9.56619 57.9236 3 41.9103 3C25.8969 3 12.9146 9.56619 12.9146 17.6654C12.9146 25.7646 25.8969 32.3308 41.9103 32.3308ZM42.0262 25.1741C50.0329 25.1741 56.5241 21.8914 56.5241 17.8414C56.5241 13.7914 50.0329 10.5087 42.0262 10.5087C34.0196 10.5087 27.5284 13.7914 27.5284 17.8414C27.5284 21.8914 34.0196 25.1741 42.0262 25.1741Z" fill="#8D6AF1"/>
<path d="M32.6315 52.7129V63.3643C32.6314 63.5013 32.5958 63.6358 32.5282 63.7545C32.4606 63.8732 32.3634 63.9718 32.2463 64.0406C32.1292 64.1093 31.9963 64.1457 31.8609 64.1462C31.7255 64.1467 31.5923 64.1112 31.4747 64.0432L23.2786 59.3057C23.1603 59.2373 23.0619 59.1385 22.9935 59.0193C22.925 58.9001 22.889 58.7647 22.8889 58.6268V35.5978C22.8889 35.459 22.9255 35.3227 22.9948 35.2028C23.0641 35.083 23.1637 34.984 23.2834 34.916C23.403 34.848 23.5384 34.8135 23.6757 34.8159C23.8129 34.8183 23.947 34.8577 24.0642 34.9299L41.3975 45.5789C41.5173 45.6527 41.6547 45.6921 41.795 45.6929C41.9353 45.6938 42.0732 45.656 42.1939 45.5836L59.9957 34.9079C60.1131 34.8375 60.2468 34.7998 60.3833 34.7986C60.5198 34.7974 60.6541 34.8328 60.7727 34.9011C60.8913 34.9694 60.9899 35.0683 61.0585 35.1876C61.1271 35.307 61.1632 35.4425 61.1633 35.5806V59.0765C61.1633 59.2193 61.1247 59.3594 61.0516 59.4815C60.9786 59.6037 60.8738 59.7033 60.7488 59.7695L52.5527 64.1121C52.4348 64.1745 52.303 64.2051 52.1701 64.201C52.0371 64.1968 51.9074 64.158 51.7936 64.0883C51.6797 64.0187 51.5856 63.9205 51.5203 63.8032C51.455 63.686 51.4207 63.5536 51.4207 63.4191V52.6785C51.4207 52.5417 51.3852 52.4074 51.3179 52.2888C51.2505 52.1702 51.1536 52.0716 51.0368 52.0027C50.92 51.9339 50.7873 51.8972 50.6522 51.8964C50.517 51.8956 50.3839 51.9306 50.2663 51.998L42.1846 56.6276C42.066 56.6957 41.9317 56.7308 41.7954 56.7294C41.6591 56.728 41.5255 56.6902 41.4083 56.6198L33.7998 52.0403C33.6824 51.9697 33.5486 51.9318 33.412 51.9305C33.2754 51.9292 33.1409 51.9645 33.0222 52.0328C32.9035 52.1012 32.8048 52.2001 32.7362 52.3196C32.6675 52.439 32.6314 52.5748 32.6315 52.7129Z" fill="white"/>
<path d="M87.1467 32.8752C85.7317 32.8752 84.4327 32.5388 83.2497 31.8678C82.0824 31.2122 81.1104 30.2516 80.4352 29.0864C79.7424 27.8897 79.396 26.5389 79.396 25.0349C79.396 23.5456 79.7424 22.2097 80.4352 21.0271C81.1054 19.8523 82.0781 18.8835 83.2497 18.2238C84.4327 17.552 85.7317 17.2164 87.1467 17.2164C88.5756 17.2164 89.8747 17.5528 91.0438 18.2238C92.2123 18.8801 93.1788 19.8502 93.8366 21.0271C94.5294 22.2097 94.8758 23.5456 94.8758 25.0349C94.8758 26.5389 94.5294 27.8897 93.8366 29.0864C93.1738 30.2538 92.208 31.2156 91.0438 31.8678C89.8607 32.5396 88.5617 32.8752 87.1467 32.8752ZM87.1467 30.1376C88.056 30.1376 88.8571 29.9335 89.5499 29.5244C90.2427 29.1013 90.784 28.5021 91.1737 27.7286C91.5634 26.9543 91.7582 26.0571 91.7582 25.0349C91.7582 24.0126 91.5634 23.1225 91.1737 22.363C90.784 21.5887 90.2427 20.9982 89.5499 20.5891C88.8571 20.18 88.056 19.9759 87.1467 19.9759C86.2374 19.9759 85.4294 20.18 84.7219 20.5891C84.0291 20.9982 83.4879 21.5895 83.0982 22.363C82.7085 23.1217 82.5136 24.0134 82.5136 25.0349C82.5136 26.0571 82.7085 26.955 83.0982 27.7286C83.4879 28.5029 84.0291 29.1013 84.7219 29.5244C85.4294 29.9335 86.2374 30.1376 87.1467 30.1376ZM100.162 22.3411C100.551 21.7858 101.086 21.3267 101.764 20.9614C102.456 20.582 103.244 20.392 104.124 20.392C105.149 20.392 106.072 20.6477 106.895 21.1585C107.732 21.6692 108.389 22.3998 108.865 23.3485C109.356 24.2832 109.601 25.3704 109.601 26.6117C109.601 27.853 109.356 28.955 108.865 29.9186C108.389 30.8674 107.732 31.605 106.895 32.1306C106.072 32.6562 105.149 32.919 104.124 32.919C103.244 32.919 102.464 32.7367 101.785 32.3715C101.122 32.0062 100.581 31.5463 100.162 30.9917V38.5036H97.1305V20.5891H100.162V22.3411ZM106.505 26.6117C106.505 25.8819 106.353 25.2539 106.05 24.7282C105.762 24.1886 105.372 23.7795 104.881 23.5018C104.408 23.2251 103.869 23.0815 103.322 23.0857C102.774 23.0857 102.255 23.232 101.764 23.5237C101.287 23.8014 100.898 24.2097 100.595 24.7501C100.306 25.2898 100.162 25.9257 100.162 26.6555C100.162 27.3852 100.306 28.0203 100.595 28.5608C100.898 29.1005 101.287 29.5174 101.764 29.8091C102.239 30.0823 102.776 30.2257 103.322 30.2252C103.885 30.2252 104.405 30.079 104.881 29.7872C105.378 29.4891 105.783 29.0568 106.05 28.5389C106.353 27.9992 106.505 27.3563 106.505 26.6117ZM122.954 26.3927C122.954 26.8307 122.925 27.2249 122.867 27.5753H114.099C114.171 28.4513 114.474 29.1373 115.008 29.6339C115.542 30.1306 116.199 30.3785 116.978 30.3785C118.104 30.3785 118.905 29.8897 119.381 28.9112H122.651C122.304 30.079 121.64 31.0426 120.659 31.8021C119.678 32.5467 118.472 32.919 117.043 32.919C115.889 32.919 114.85 32.6632 113.926 32.1525C113.021 31.6319 112.279 30.8657 111.782 29.9405C111.277 28.9918 111.025 27.8968 111.025 26.6555C111.025 25.4001 111.277 24.2973 111.782 23.3485C112.263 22.4246 113.001 21.6633 113.904 21.1585C114.813 20.6477 115.859 20.392 117.043 20.392C118.184 20.392 119.201 20.6399 120.096 21.1366C120.99 21.6173 121.721 22.357 122.196 23.2609C122.701 24.1659 122.954 25.2101 122.954 26.3927ZM119.814 25.5167C119.8 24.7282 119.518 24.101 118.97 23.6332C118.422 23.1514 117.751 22.9105 116.957 22.9105C116.206 22.9105 115.571 23.1444 115.051 23.6113C114.547 24.0642 114.236 24.6985 114.12 25.5167H119.814ZM131.813 20.4139C133.241 20.4139 134.397 20.8738 135.277 21.7936C136.157 22.6986 136.597 23.9688 136.597 25.6043V32.7219H133.566V26.0204C133.566 25.0568 133.328 24.3192 132.852 23.8084C132.375 23.2828 131.726 23.02 130.903 23.02C130.067 23.02 129.402 23.2828 128.911 23.8084C128.435 24.3192 128.197 25.0568 128.197 26.0204V32.7219H125.166V20.5891H128.197V22.1002C128.604 21.5723 129.132 21.1516 129.734 20.8738C130.384 20.564 131.094 20.4068 131.813 20.4139Z" fill="#8D6AF1"/>
<path d="M96.6078 45.593V60.8795H93.5768V50.9367L89.5282 60.8795H87.2333L83.1631 50.9367V60.8795H80.1321V45.593H83.5745L88.3808 56.9593L93.1871 45.593H96.6078ZM110.755 54.5503C110.755 54.9883 110.725 55.3825 110.668 55.7329H101.9C101.972 56.6089 102.275 57.2949 102.809 57.7915C103.343 58.2882 104 58.5361 104.779 58.5361C105.905 58.5361 106.706 58.0473 107.182 57.0688H110.452C110.105 58.2366 109.441 59.2002 108.46 59.9597C107.478 60.7043 106.273 61.0766 104.844 61.0766C103.689 61.0766 102.65 60.8208 101.727 60.3101C100.822 59.7895 100.08 59.0233 99.5832 58.0981C99.0775 57.1494 98.8254 56.0544 98.8254 54.8131C98.8254 53.5577 99.0775 52.4549 99.5832 51.5061C100.064 50.5822 100.801 49.8209 101.705 49.3161C102.614 48.8053 103.66 48.5496 104.844 48.5496C105.984 48.5496 107.001 48.7975 107.897 49.2942C108.79 49.7749 109.522 50.5146 109.997 51.4185C110.502 52.3235 110.755 53.3677 110.755 54.5503ZM107.615 53.6743C107.601 52.8858 107.319 52.2586 106.771 51.7908C106.222 51.309 105.551 51.0681 104.758 51.0681C104.007 51.0681 103.372 51.302 102.852 51.7689C102.347 52.2218 102.037 52.8561 101.921 53.6743H107.615ZM116.496 51.2652V57.1345C116.496 57.5436 116.589 57.8424 116.777 58.0324C116.979 58.2076 117.312 58.2952 117.773 58.2952H119.18V60.8795H117.275C114.72 60.8795 113.443 59.6241 113.443 57.1126V51.2652H112.014V48.7467H113.443V45.7463H116.496V48.7467H119.18V51.2652H116.496ZM120.581 54.7693C120.581 53.5429 120.819 52.4549 121.295 51.5061C121.786 50.5574 122.443 49.8268 123.265 49.3161C124.103 48.8053 125.034 48.5496 126.058 48.5496C126.954 48.5496 127.733 48.7318 128.396 49.0971C129.075 49.4624 129.617 49.9223 130.02 50.4768V48.7467H133.073V60.8795H130.02V59.1055C129.63 59.675 129.089 60.1497 128.396 60.5291C127.718 60.8943 126.932 61.0766 126.037 61.0766C125.058 61.0854 124.096 60.8119 123.265 60.2882C122.443 59.7626 121.786 59.025 121.295 58.0762C120.819 57.1126 120.581 56.0106 120.581 54.7693ZM130.02 54.8131C130.02 54.0685 129.876 53.4334 129.587 52.9077C129.299 52.3681 128.909 51.959 128.418 51.6813C127.94 51.3929 127.394 51.2414 126.838 51.2433C126.275 51.2433 125.755 51.3818 125.279 51.6594C124.802 51.9371 124.413 52.3454 124.11 52.8858C123.821 53.4115 123.677 54.0395 123.677 54.7693C123.677 55.499 123.821 56.142 124.11 56.6965C124.413 57.2362 124.802 57.6531 125.279 57.9448C125.77 58.2366 126.289 58.3828 126.838 58.3828C127.401 58.3828 127.928 58.2444 128.418 57.9667C128.911 57.673 129.315 57.249 129.587 56.7403C129.876 56.2006 130.02 55.5577 130.02 54.8131ZM135.254 54.7693C135.254 53.5429 135.492 52.4549 135.969 51.5061C136.46 50.5574 137.123 49.8268 137.96 49.3161C138.798 48.8053 139.729 48.5496 140.753 48.5496C141.533 48.5496 142.276 48.7248 142.983 49.0752C143.691 49.4115 144.254 49.8636 144.672 50.433V44.6732H147.746V60.8795H144.672V59.0836C144.297 59.682 143.77 60.1638 143.091 60.5291C142.413 60.8943 141.626 61.0766 140.732 61.0766C139.753 61.0855 138.791 60.812 137.96 60.2882C137.123 59.7626 136.46 59.025 135.969 58.0762C135.492 57.1126 135.254 56.0106 135.254 54.7693ZM144.694 54.8131C144.694 54.0685 144.549 53.4334 144.261 52.9077C143.972 52.3681 143.582 51.959 143.091 51.6813C142.614 51.393 142.067 51.2416 141.511 51.2433C140.948 51.2433 140.428 51.3818 139.952 51.6594C139.476 51.9371 139.086 52.3454 138.783 52.8858C138.495 53.4115 138.35 54.0395 138.35 54.7693C138.35 55.499 138.495 56.142 138.783 56.6965C139.086 57.2362 139.476 57.6531 139.952 57.9448C140.443 58.2366 140.963 58.3828 141.511 58.3828C142.074 58.3828 142.6 58.2444 143.091 57.9667C143.584 57.673 143.988 57.249 144.261 56.7403C144.549 56.2006 144.694 55.5577 144.694 54.8131ZM149.927 54.7693C149.927 53.5429 150.165 52.4549 150.641 51.5061C151.132 50.5574 151.789 49.8268 152.611 49.3161C153.449 48.8053 154.38 48.5496 155.404 48.5496C156.3 48.5496 157.079 48.7318 157.742 49.0971C158.421 49.4624 158.963 49.9223 159.366 50.4768V48.7467H162.419V60.8795H159.366V59.1055C158.976 59.675 158.435 60.1497 157.742 60.5291C157.064 60.8943 156.278 61.0766 155.383 61.0766C154.404 61.0854 153.442 60.8119 152.611 60.2882C151.789 59.7626 151.132 59.025 150.641 58.0762C150.165 57.1126 149.927 56.0106 149.927 54.7693ZM159.366 54.8131C159.366 54.0685 159.222 53.4334 158.933 52.9077C158.645 52.3681 158.255 51.959 157.764 51.6813C157.286 51.3929 156.74 51.2414 156.184 51.2433C155.621 51.2433 155.101 51.3818 154.625 51.6594C154.148 51.9371 153.759 52.3454 153.456 52.8858C153.167 53.4115 153.023 54.0395 153.023 54.7693C153.023 55.499 153.167 56.142 153.456 56.6965C153.759 57.2362 154.148 57.6531 154.625 57.9448C155.116 58.2366 155.635 58.3828 156.184 58.3828C156.746 58.3828 157.274 58.2444 157.764 57.9667C158.257 57.673 158.661 57.249 158.933 56.7403C159.222 56.2006 159.366 55.5577 159.366 54.8131ZM168.908 51.2652V57.1345C168.908 57.5436 169.002 57.8424 169.19 58.0324C169.392 58.2076 169.724 58.2952 170.186 58.2952H171.593V60.8795H169.688C167.133 60.8795 165.856 59.6241 165.856 57.1126V51.2652H164.427V48.7467H165.856V45.7463H168.908V48.7467H171.593V51.2652H168.908ZM172.993 54.7693C172.993 53.5429 173.232 52.4549 173.708 51.5061C174.199 50.5574 174.855 49.8268 175.678 49.3161C176.515 48.8053 177.446 48.5496 178.471 48.5496C179.366 48.5496 180.146 48.7318 180.809 49.0971C181.488 49.4624 182.029 49.9223 182.433 50.4768V48.7467H185.485V60.8795H182.433V59.1055C182.043 59.675 181.502 60.1497 180.809 60.5291C180.131 60.8943 179.345 61.0766 178.449 61.0766C177.47 61.0854 176.509 60.8119 175.678 60.2882C174.855 59.7626 174.199 59.025 173.708 58.0762C173.232 57.1126 172.993 56.0106 172.993 54.7693ZM182.433 54.8131C182.433 54.0685 182.289 53.4334 182 52.9077C181.711 52.3681 181.322 51.959 180.831 51.6813C180.353 51.3929 179.807 51.2414 179.25 51.2433C178.687 51.2433 178.168 51.3818 177.691 51.6594C177.215 51.9371 176.825 52.3454 176.522 52.8858C176.234 53.4115 176.089 54.0395 176.089 54.7693C176.089 55.499 176.234 56.142 176.522 56.6965C176.825 57.2362 177.215 57.6531 177.691 57.9448C178.182 58.2366 178.702 58.3828 179.25 58.3828C179.813 58.3828 180.34 58.2444 180.831 57.9667C181.323 57.673 181.728 57.249 182 56.7403C182.289 56.2006 182.433 55.5577 182.433 54.8131Z" fill="#7147E8"/>
<defs>
<linearGradient id="paint0_linear_6038_39486" x1="41.9103" y1="24.1182" x2="41.9103" y2="73.3939" gradientUnits="userSpaceOnUse">
<stop stop-color="#35198E"/>
<stop offset="1" stop-color="#8D6AF1"/>
</linearGradient>
</defs>
</svg>
