<svg viewBox="0 0 64 64" fill="none" xmlns="http://www.w3.org/2000/svg">
<path d="M5.00084 13.44H5V50.7734H5.00084C5.11547 58.088 17.0103 64 31.6667 64C46.3231 64 58.2179 58.088 58.3325 50.7734H58.3334V13.44H58.3325C58.2179 20.7547 46.3231 26.6667 31.6667 26.6667C17.0103 26.6667 5.11547 20.7547 5.00084 13.44Z" fill="url(#paint0_linear_17126_21558)"/>
<path fill-rule="evenodd" clip-rule="evenodd" d="M31.6667 26.6667C46.3943 26.6667 58.3334 20.6971 58.3334 13.3333C58.3334 5.96954 46.3943 0 31.6667 0C16.9391 0 5 5.96954 5 13.3333C5 20.6971 16.9391 26.6667 31.6667 26.6667ZM31.7733 20.16C39.1371 20.16 45.1067 17.1752 45.1067 13.4933C45.1067 9.81144 39.1371 6.82667 31.7733 6.82667C24.4095 6.82667 18.44 9.81144 18.44 13.4933C18.44 17.1752 24.4095 20.16 31.7733 20.16Z" fill="#8D6AF1"/>
<ellipse cx="31.6667" cy="13.5111" rx="13.8667" ry="7.11111" fill="white"/>
<path d="M23.1333 45.7052V54.3835C23.1333 55.1513 22.3039 55.6326 21.6372 55.2517L14.6772 51.2745C14.3656 51.0965 14.1733 50.7652 14.1733 50.4063V30.1506C14.1733 29.3709 15.026 28.8912 15.6925 29.2959L31.0471 38.6218C31.3628 38.8135 31.7585 38.8156 32.0762 38.6273L47.8634 29.2684C48.53 28.8732 49.3734 29.3537 49.3734 30.1286V50.8082C49.3734 51.1802 49.1669 51.5215 48.8374 51.6941L41.8774 55.3398C41.2115 55.6885 40.4133 55.2056 40.4133 54.4539V45.6621C40.4133 44.896 39.5872 44.4144 38.9206 44.7919L32.0652 48.6739C31.7528 48.8508 31.3696 48.8467 31.0611 48.6632L24.6446 44.8458C23.9781 44.4492 23.1333 44.9295 23.1333 45.7052Z" fill="white"/>
<defs>
<linearGradient id="paint0_linear_17126_21558" x1="31.6667" y1="19.2" x2="31.6667" y2="64" gradientUnits="userSpaceOnUse">
<stop stop-color="#35198E"/>
<stop offset="1" stop-color="#8D6AF1"/>
</linearGradient>
</defs>
</svg>
