<svg xmlns="http://www.w3.org/2000/svg" width="25" height="30" fill="none" viewBox="0 0 250 300"><path fill="url(#a)" d="M.004 63H0v175h.004C.54 272.288 56.298 300 125 300s124.459-27.712 124.996-62H250V63h-.004c-.537 34.288-56.294 62-124.996 62S.541 97.288.004 63Z"/><path fill="url(#b)" stroke="#35198E" stroke-width="5" d="M247.5 63c0 15.653-12.86 30.51-35.223 41.601C190.07 115.616 159.217 122.5 125 122.5s-65.07-6.884-87.278-17.899C15.36 93.509 2.5 78.653 2.5 63c0-15.653 12.86-30.51 35.222-41.601C59.93 10.384 90.784 3.5 125 3.5c34.217 0 65.07 6.884 87.277 17.899C234.64 32.491 247.5 47.347 247.5 63Z"/><path fill="#8D6AF1" fill-rule="evenodd" d="M125 125c69.036 0 125-27.982 125-62.5S194.036 0 125 0 0 27.982 0 62.5 55.964 125 125 125Zm.5-30.5c34.518 0 62.5-13.991 62.5-31.25S160.018 32 125.5 32 63 45.991 63 63.25 90.982 94.5 125.5 94.5Z" clip-rule="evenodd"/><path fill="#fff" d="M85 214.793v39.591c0 3.839-4.147 6.246-7.48 4.341l-32-18.285a5.001 5.001 0 0 1-2.52-4.342v-94.211c0-3.899 4.264-6.298 7.596-4.274l71.34 43.329a4.998 4.998 0 0 0 5.145.028l73.369-43.494c3.333-1.976 7.55.426 7.55 4.301v96.198a4.999 4.999 0 0 1-2.68 4.429l-32 16.762c-3.329 1.744-7.32-.671-7.32-4.429v-40.16c0-3.83-4.131-6.238-7.464-4.351l-31.51 17.844a5 5 0 0 1-5.02-.054l-29.45-17.52c-3.332-1.983-7.556.419-7.556 4.297Z"/><defs><linearGradient id="a" x1="125" x2="125" y1="90" y2="300" gradientUnits="userSpaceOnUse"><stop stop-color="#35198E"/><stop offset="1" stop-color="#8D6AF1"/></linearGradient><linearGradient id="b" x1="125" x2="125" y1="1" y2="125" gradientUnits="userSpaceOnUse"><stop stop-color="#8D6AF1" stop-opacity=".2"/><stop offset="1" stop-color="#fff"/></linearGradient></defs></svg>