<svg xmlns="http://www.w3.org/2000/svg" width="16" height="16" fill="none"><path fill="#7147E8" d="M12.768 7.68a.867.867 0 0 1-.612-.555 5.51 5.51 0 0 0-.152-.366.867.867 0 0 1 .04-.826 1.45 1.45 0 0 0-.228-1.75 1.45 1.45 0 0 0-1.75-.227.867.867 0 0 1-.825.04 5.576 5.576 0 0 0-.366-.152.867.867 0 0 1-.555-.611 1.45 1.45 0 0 0-1.398-1.077c-.655 0-1.23.443-1.398 1.077a.867.867 0 0 1-.555.611 5.586 5.586 0 0 0-.366.152.867.867 0 0 1-.826-.04 1.449 1.449 0 0 0-1.75.228 1.448 1.448 0 0 0 0 2.045l.057.057a5.512 5.512 0 0 0-.558 1.346h-.08C.65 7.632 0 8.28 0 9.078c0 .655.442 1.23 1.076 1.398.294.079.505.27.612.555.046.123.097.247.152.366a.867.867 0 0 1-.04.826 1.449 1.449 0 0 0 .227 1.75 1.45 1.45 0 0 0 1.75.227.867.867 0 0 1 .826-.04c.12.055.243.106.366.152a.867.867 0 0 1 .555.612A1.45 1.45 0 0 0 6.922 16c.655 0 1.23-.442 1.398-1.076a.867.867 0 0 1 .555-.612c.123-.046.247-.097.366-.152a.867.867 0 0 1 .826.04 1.45 1.45 0 0 0 1.75-.227 1.449 1.449 0 0 0 .227-1.75.867.867 0 0 1-.04-.826 5.5 5.5 0 0 0 .152-.366.867.867 0 0 1 .612-.555 1.45 1.45 0 0 0 1.076-1.398 1.45 1.45 0 0 0-1.076-1.398Zm-.241 1.89a1.794 1.794 0 0 0-1.25 1.133c-.038.103-.08.205-.126.305a1.793 1.793 0 0 0 .082 1.685.51.51 0 0 1-.696.696 1.793 1.793 0 0 0-1.686-.081c-.1.045-.201.088-.304.126a1.793 1.793 0 0 0-1.133 1.25.51.51 0 0 1-.984-.001 1.794 1.794 0 0 0-1.133-1.249 4.667 4.667 0 0 1-.305-.126 1.841 1.841 0 0 0-.768-.172c-.314 0-.626.085-.917.253a.51.51 0 0 1-.696-.696c.307-.53.336-1.128.081-1.685a4.664 4.664 0 0 1-.126-.305A1.793 1.793 0 0 0 1.317 9.57a.51.51 0 0 1 .13-1.001h.452c.224 0 .417-.159.46-.38a4.597 4.597 0 0 1 .708-1.708.469.469 0 0 0-.056-.594l-.32-.32a.51.51 0 0 1 .616-.8c.53.307 1.128.336 1.685.082.1-.046.202-.088.305-.126a1.793 1.793 0 0 0 1.133-1.25.51.51 0 0 1 .984 0c.157.592.56 1.036 1.133 1.25.102.038.205.08.304.126a1.793 1.793 0 0 0 1.686-.082.51.51 0 0 1 .696.696 1.793 1.793 0 0 0-.082 1.686c.046.1.088.202.127.304.214.573.657.976 1.248 1.133a.51.51 0 0 1 0 .984ZM15.63 2.69l-.165-.084c.029-.14.04-.283.034-.426l.176-.057a.469.469 0 1 0-.288-.892l-.176.057a1.73 1.73 0 0 0-.277-.326l.085-.164a.469.469 0 0 0-.835-.427L14.1.536a1.742 1.742 0 0 0-.426-.034l-.057-.177a.469.469 0 1 0-.892.288l.057.177c-.118.078-.228.17-.325.276L12.29.982a.469.469 0 0 0-.427.834l.165.084c-.03.14-.04.283-.035.426l-.175.057a.469.469 0 0 0 .287.892l.176-.056c.079.12.172.228.277.325l-.084.165a.469.469 0 1 0 .835.427l.084-.165a1.73 1.73 0 0 0 .426.035l.057.176a.469.469 0 0 0 .892-.288l-.057-.176a1.73 1.73 0 0 0 .325-.277l.165.084a.466.466 0 0 0 .63-.204.469.469 0 0 0-.203-.63Zm-1.157-.065a.817.817 0 0 1-1.453-.744.817.817 0 0 1 1.453.744Z"/><path fill="#7147E8" d="M6.922 5.416a3.667 3.667 0 0 0-3.663 3.662 3.667 3.667 0 0 0 3.663 3.663 3.667 3.667 0 0 0 3.662-3.663 3.667 3.667 0 0 0-3.662-3.662Zm0 6.387c-.456 0-.886-.112-1.264-.311.269-.435.744-.707 1.264-.707.517 0 .995.278 1.263.707a2.708 2.708 0 0 1-1.263.311Zm-.737-2.725a.738.738 0 1 1 1.475.002.738.738 0 0 1-1.475-.002Zm2.744 1.841a2.454 2.454 0 0 0-.76-.724 1.677 1.677 0 0 0-1.246-2.792c-.925 0-1.676.752-1.676 1.675 0 .429.162.82.427 1.116-.3.18-.561.427-.761.724a2.715 2.715 0 0 1-.716-1.84 2.728 2.728 0 0 1 2.725-2.725 2.728 2.728 0 0 1 2.725 2.725c0 .71-.272 1.356-.718 1.841Z"/></svg>