<svg width="310" height="237" viewBox="0 0 310 237" fill="none" xmlns="http://www.w3.org/2000/svg">
<path d="M99.3034 176.525C94.2748 174.886 89.3204 173.009 84.5058 170.736C74.4076 165.975 65.0254 159.939 58.7459 150.41C49.1414 135.842 50.6722 112.214 65.7331 101.673C80.3496 91.4363 93.3201 78.8937 103.863 64.2346C114.043 50.0778 119.533 32.6022 130.265 18.5937C142.297 2.88867 160.378 -3.91382 179.562 2.26278C193.002 6.59463 203.602 16.5184 214.145 25.4785C224.424 34.2081 236.564 40.64 249.509 44.3789C257.937 46.8166 266.554 47.4013 275.228 48.3731C286.767 49.6661 298.28 54.8956 304.338 65.2476C312.132 78.5643 311.218 94.854 305.663 108.813C302.157 117.617 296.634 125.498 290.026 132.251C281.771 140.693 272.249 147.824 264.29 156.571C256.34 165.317 251.336 176.13 246.119 186.605C241.23 196.43 236.045 208.133 226.432 214.186C208.466 225.501 187.924 210.15 172.74 200.951C167.687 197.888 162.551 194.824 157.029 192.675C138.379 185.395 118.282 182.693 99.3116 176.517L99.3034 176.525Z" fill="#D9EAFE"/>
<path d="M50.1372 137.668V138.582" stroke="#AFC7DB" stroke-width="1.66" stroke-miterlimit="10" stroke-linecap="round"/>
<path d="M50.1372 143.146V202.754C50.1372 207.588 54.0547 211.508 58.8857 211.508H159.926C164.757 211.508 168.674 207.588 168.674 202.754V55.4379C168.674 50.6037 172.592 46.6836 177.423 46.6836H250.612C255.443 46.6836 259.361 50.6037 259.361 55.4379V89.4586" stroke="#AFC7DB" stroke-width="1.66" stroke-miterlimit="10" stroke-linecap="round"/>
<path d="M259.361 91.7383V92.6524" stroke="#AFC7DB" stroke-width="1.66" stroke-miterlimit="10" stroke-linecap="round"/>
<path d="M69.0088 196.39C64.6469 196.39 61.0997 192.84 61.0997 188.476V66.5332C61.0997 62.5225 64.3588 59.2695 68.3668 59.2695H242.366C246.374 59.2695 249.625 62.5308 249.625 66.5497V188.484C249.625 192.849 246.078 196.398 241.716 196.398H69.0088V196.39Z" fill="white"/>
<path d="M242.358 59.7227C246.11 59.7227 249.164 62.7863 249.164 66.5417V188.476C249.164 192.585 245.822 195.937 241.707 195.937H69.0087C64.9019 195.937 61.5523 192.594 61.5523 188.476V66.5335C61.5523 62.7781 64.6057 59.7227 68.3585 59.7227H242.358ZM242.358 58.8086H68.3585C64.0954 58.8086 60.6388 62.2675 60.6388 66.5335V188.476C60.6388 193.104 64.3917 196.851 69.0087 196.851H241.707C246.333 196.851 250.077 193.104 250.077 188.476V66.5417C250.077 62.2675 246.621 58.8086 242.358 58.8086Z" fill="#3676E2"/>
<path d="M250.077 66.5413V75.4438H60.6388V66.5413C60.6388 62.2753 64.0954 58.8164 68.3503 58.8164H242.349C246.612 58.8164 250.069 62.2753 250.069 66.5413H250.077Z" fill="#3676E2"/>
<path d="M221.889 67.3229C221.889 68.237 221.149 68.97 220.243 68.97C219.338 68.97 218.597 68.2288 218.597 67.3229C218.597 66.417 219.338 65.6758 220.243 65.6758C221.149 65.6758 221.889 66.417 221.889 67.3229Z" fill="white"/>
<path d="M229.864 68.97C230.773 68.97 231.51 68.2325 231.51 67.3229C231.51 66.4132 230.773 65.6758 229.864 65.6758C228.955 65.6758 228.218 66.4132 228.218 67.3229C228.218 68.2325 228.955 68.97 229.864 68.97Z" fill="white"/>
<path d="M239.477 68.97C240.386 68.97 241.123 68.2325 241.123 67.3229C241.123 66.4132 240.386 65.6758 239.477 65.6758C238.568 65.6758 237.831 66.4132 237.831 67.3229C237.831 68.2325 238.568 68.97 239.477 68.97Z" fill="white"/>
<path style="mix-blend-mode:multiply" d="M109.846 58.809V123.622C109.846 125.269 108.513 126.595 106.875 126.595H60.6388V66.5256C60.6388 62.2597 64.0954 58.8008 68.3585 58.8008H109.846V58.809Z" fill="url(#paint0_linear_5940_28052)"/>
<path d="M103.213 36.6875H9.3246C7.6792 36.6875 6.34534 38.0222 6.34534 39.6687V119.973C6.34534 121.619 7.6792 122.954 9.3246 122.954H103.213C104.858 122.954 106.192 121.619 106.192 119.973V39.6687C106.192 38.0222 104.858 36.6875 103.213 36.6875Z" fill="url(#paint1_linear_5940_28052)"/>
<path d="M9.31637 36.6875H103.213C104.859 36.6875 106.192 38.0216 106.192 39.6687V46.0924H6.34534V39.6687C6.34534 38.0216 7.6786 36.6875 9.3246 36.6875H9.31637Z" fill="#3676E2"/>
<g style="mix-blend-mode:multiply">
<path d="M93.1391 59.5547H21.2252V60.4688H93.1391V59.5547Z" fill="url(#paint2_linear_5940_28052)"/>
<path d="M93.1391 83.6523H21.2252V84.5665H93.1391V83.6523Z" fill="url(#paint3_linear_5940_28052)"/>
<path d="M93.1391 107.75H21.2252V108.664H93.1391V107.75Z" fill="url(#paint4_linear_5940_28052)"/>
<path d="M40.7057 59.8608C40.7057 62.315 38.7223 64.2997 36.2697 64.2997C33.8172 64.2997 31.8337 62.315 31.8337 59.8608C31.8337 57.4066 33.8172 55.4219 36.2697 55.4219C38.7223 55.4219 40.7057 57.4066 40.7057 59.8608Z" fill="url(#paint5_linear_5940_28052)"/>
<path d="M39.4547 59.8594C39.4547 61.6218 38.0227 63.0548 36.2615 63.0548C34.5003 63.0548 33.0682 61.6218 33.0682 59.8594C33.0682 58.097 34.5003 56.6641 36.2615 56.6641C38.0227 56.6641 39.4547 58.097 39.4547 59.8594Z" fill="url(#paint6_linear_5940_28052)"/>
<path d="M82.5883 84.31C82.5883 86.7642 80.6048 88.7489 78.1523 88.7489C75.6997 88.7489 73.7163 86.7642 73.7163 84.31C73.7163 81.8558 75.6997 79.8711 78.1523 79.8711C80.6048 79.8711 82.5883 81.8558 82.5883 84.31Z" fill="url(#paint7_linear_5940_28052)"/>
<path d="M81.3373 84.3125C81.3373 86.0749 79.9053 87.5079 78.144 87.5079C76.3828 87.5079 74.9508 86.0749 74.9508 84.3125C74.9508 82.5502 76.3828 81.1172 78.144 81.1172C79.9053 81.1172 81.3373 82.5502 81.3373 84.3125Z" fill="url(#paint8_linear_5940_28052)"/>
<path d="M54.9107 112.429C57.3606 112.429 59.3467 110.441 59.3467 107.99C59.3467 105.538 57.3606 103.551 54.9107 103.551C52.4608 103.551 50.4747 105.538 50.4747 107.99C50.4747 110.441 52.4608 112.429 54.9107 112.429Z" fill="url(#paint9_linear_5940_28052)"/>
<path d="M58.1039 107.988C58.1039 109.751 56.6719 111.184 54.9107 111.184C53.1494 111.184 51.7174 109.751 51.7174 107.988C51.7174 106.226 53.1494 104.793 54.9107 104.793C56.6719 104.793 58.1039 106.226 58.1039 107.988Z" fill="url(#paint10_linear_5940_28052)"/>
</g>
<path d="M92.2255 58.6406H20.3116V59.5548H92.2255V58.6406Z" fill="white"/>
<path d="M92.2255 82.7383H20.3116V83.6524H92.2255V82.7383Z" fill="white"/>
<path d="M92.2255 106.836H20.3116V107.75H92.2255V106.836Z" fill="white"/>
<path d="M39.7921 58.9467C39.7921 61.4009 37.8087 63.3856 35.3561 63.3856C32.9036 63.3856 30.9202 61.4009 30.9202 58.9467C30.9202 56.4926 32.9036 54.5078 35.3561 54.5078C37.8087 54.5078 39.7921 56.4926 39.7921 58.9467Z" fill="white"/>
<path d="M38.5493 58.9454C38.5493 60.7077 37.1173 62.1407 35.3561 62.1407C33.5949 62.1407 32.1628 60.7077 32.1628 58.9454C32.1628 57.183 33.5949 55.75 35.3561 55.75C37.1173 55.75 38.5493 57.183 38.5493 58.9454Z" fill="#3676E2"/>
<path d="M77.2387 87.8466C79.6886 87.8466 81.6747 85.8592 81.6747 83.4077C81.6747 80.9561 79.6886 78.9688 77.2387 78.9688C74.7888 78.9688 72.8027 80.9561 72.8027 83.4077C72.8027 85.8592 74.7888 87.8466 77.2387 87.8466Z" fill="white"/>
<path d="M80.4319 83.4063C80.4319 85.1687 78.9999 86.6017 77.2387 86.6017C75.4774 86.6017 74.0454 85.1687 74.0454 83.4063C74.0454 81.6439 75.4774 80.2109 77.2387 80.2109C78.9999 80.2109 80.4319 81.6439 80.4319 83.4063Z" fill="#3676E2"/>
<path d="M53.9971 111.515C56.4471 111.515 58.4331 109.527 58.4331 107.076C58.4331 104.624 56.4471 102.637 53.9971 102.637C51.5472 102.637 49.5612 104.624 49.5612 107.076C49.5612 109.527 51.5472 111.515 53.9971 111.515Z" fill="white"/>
<path d="M57.1903 107.074C57.1903 108.837 55.7583 110.27 53.9971 110.27C52.2359 110.27 50.8038 108.837 50.8038 107.074C50.8038 105.312 52.2359 103.879 53.9971 103.879C55.7583 103.879 57.1903 105.312 57.1903 107.074Z" fill="#3676E2"/>
<path d="M85.6168 42.4777C86.1895 42.4777 86.6538 42.0131 86.6538 41.44C86.6538 40.8669 86.1895 40.4023 85.6168 40.4023C85.0441 40.4023 84.5798 40.8669 84.5798 41.44C84.5798 42.0131 85.0441 42.4777 85.6168 42.4777Z" fill="white"/>
<path d="M91.6659 42.4777C92.2386 42.4777 92.7029 42.0131 92.7029 41.44C92.7029 40.8669 92.2386 40.4023 91.6659 40.4023C91.0932 40.4023 90.6289 40.8669 90.6289 41.44C90.6289 42.0131 91.0932 42.4777 91.6659 42.4777Z" fill="white"/>
<path d="M97.715 42.4777C98.2877 42.4777 98.7519 42.0131 98.7519 41.44C98.7519 40.8669 98.2877 40.4023 97.715 40.4023C97.1423 40.4023 96.678 40.8669 96.678 41.44C96.678 42.0131 97.1423 42.4777 97.715 42.4777Z" fill="white"/>
<path d="M15.9827 125.953L16.1144 122.683C16.1144 122.683 11.2258 114.736 15.1762 112.652C19.1266 110.569 22.863 113.797 22.863 117.413C22.863 121.028 22.5749 121.909 20.9207 122.123L21.2499 125.063" fill="#EAA192"/>
<path d="M19.25 120.845C19.0525 122.121 18.8961 122.583 17.6369 122.756C15.8757 123.003 14.5671 122.624 13.0363 119.445C11.5056 116.274 10.7155 112.494 14.847 111.193C18.9784 109.892 19.9742 107.709 20.8466 108.475C21.7272 109.241 23.5378 114.232 22.147 115.105C20.7561 115.986 18.9126 115.846 19.1759 117.263C19.4475 118.696 19.5216 119.058 19.2418 120.837L19.25 120.845Z" fill="url(#paint11_linear_5940_28052)"/>
<path d="M15.7687 164.444C15.6124 164.683 15.2667 164.608 14.7894 164.271H14.7811C14.3285 163.958 13.7606 163.431 13.1187 162.747C12.3121 161.907 11.3904 160.82 10.411 159.585C5.89271 153.944 0.255147 145.453 0.543198 144.687C0.962929 143.583 0.913549 142.579 3.38255 143.205C3.81874 143.312 4.19733 143.575 4.44423 143.954C5.72811 145.856 10.2135 152.544 13.1598 157.798C13.7771 158.893 14.3285 159.931 14.7647 160.837C15.6288 162.64 16.0732 163.983 15.777 164.444H15.7687Z" fill="#EAA192"/>
<path d="M8.6333 149.613L15.4066 161.11L12.8964 162.914L4.50183 152.084L8.6333 149.613Z" fill="#EAA192"/>
<path d="M19.7109 166.495C19.7109 166.495 19.6615 166.536 19.6368 166.553L18.427 166.907C18.246 167.03 17.5876 166.981 17.3818 166.882L16.4683 166.536C15.6453 166.149 14.8963 165.597 14.2873 164.93L13.1187 163.168L12.8635 162.797L13.2915 162.377L14.6247 161.109L14.921 160.812H14.9293H15.1268L16.5506 160.911C16.9785 160.944 17.3736 161.068 17.7275 161.29L19.0196 162.624C19.0196 162.624 18.6575 162.838 18.0896 162.608C17.8345 162.501 17.4394 162.501 17.0773 162.534L17.8838 163.184L19.752 164.938C20.2047 165.358 20.1718 166.091 19.7027 166.478L19.7109 166.495Z" fill="#EAA192"/>
<path d="M12.378 127.179C11.3246 126.957 11.6044 125.672 10.946 126.504C7.96672 130.259 -1.81054 142.991 0.839529 145.313C3.95871 148.039 11.95 136.238 13.8265 132.54C15.3902 129.46 14.9211 127.722 12.378 127.179Z" fill="#EAA192"/>
<path d="M9.99951 126.543C8.55925 128.149 6.69927 130.916 3.76116 135.487C3.56364 135.8 3.34966 136.13 3.13568 136.467C3.13568 136.467 3.10276 136.525 3.0616 136.607C2.50196 137.464 -0.790042 142.924 0.16464 146.136C0.5103 147.231 2.18922 149.38 3.93399 151.785C4.00806 151.876 4.08213 151.966 4.14797 152.073L6.15609 150.698L8.04899 149.405L8.61687 148.993C7.37413 146.737 6.36184 144.9 6.3783 144.744C6.39476 144.587 9.05306 140.906 11.127 137.826C11.1353 137.81 11.1435 137.785 11.1517 137.768C12.1393 136.319 13.0693 134.944 13.6701 134.029C14.3614 133.041 14.8634 131.913 15.0445 130.711C15.3902 128.479 14.5919 127.112 13.6701 126.305C12.6002 125.349 10.9542 125.465 9.99128 126.552L9.99951 126.543Z" fill="url(#paint12_linear_5940_28052)"/>
<path d="M3.89287 151.803L8.39469 148.674C8.49345 148.608 8.62513 148.633 8.69097 148.723L9.09424 149.3C9.16008 149.399 9.14362 149.53 9.04486 149.596L4.56773 152.775C4.46897 152.841 4.33729 152.825 4.26322 152.726L3.82703 152.1C3.76119 152.001 3.78588 151.869 3.88464 151.803H3.89287Z" fill="white"/>
<path style="mix-blend-mode:multiply" d="M3.76116 135.488C3.56364 135.801 3.34966 136.131 3.13568 136.468C3.13568 136.468 3.10276 136.526 3.0616 136.608C2.50196 137.465 -0.790042 142.925 0.16464 146.137C0.5103 147.232 2.18922 149.381 3.93399 151.786C4.00806 151.877 4.08213 151.967 4.14797 152.074L6.15609 150.699L8.31236 148.805C8.31236 148.805 4.55947 150.287 3.0863 148.336C1.62958 146.4 -1.08632 144.959 3.76116 135.497V135.488Z" fill="url(#paint13_linear_5940_28052)"/>
<path d="M25.5707 162.235C23.0934 162.491 21.3157 164.937 21.6943 167.547C21.9906 169.622 22.6819 172.332 24.1469 175.61C27.801 183.787 29.9243 194.279 33.4221 194.807C36.9198 195.334 38.1461 189.165 36.0886 180.633C34.2286 172.917 33.99 163.232 31.5045 162.351C30.2453 161.906 27.7351 162.021 25.5624 162.244L25.5707 162.235Z" fill="#EAA192"/>
<path d="M35.8829 192.561C29.1425 188.468 32.0148 220.298 34.3768 228.772C36.7471 237.246 38.0968 230.007 38.3025 216.164C38.5001 202.32 38.533 194.175 35.8829 192.561Z" fill="#EAA192"/>
<path d="M16.6164 161.956C14.1474 161.602 11.8348 163.545 11.5632 166.164C11.3492 168.248 11.3574 171.048 11.9829 174.581C13.5466 183.409 13.0528 194.099 16.3201 195.458C19.5874 196.816 22.2787 191.134 22.3527 182.355C22.4268 174.424 24.5501 164.962 22.3527 163.504C21.2417 162.763 18.7727 162.269 16.6164 161.956Z" fill="#EAA192"/>
<path d="M19.176 192.939C12.7236 188.401 13.4808 220.363 15.2749 228.977C17.0773 237.591 18.9044 230.451 20.0237 216.657C21.1429 202.854 21.7108 194.726 19.176 192.947V192.939Z" fill="#EAA192"/>
<path d="M32.9119 225.757L33.3234 230.04H38.3108L38.2367 225.387L32.9119 225.757Z" fill="#EAA192"/>
<path d="M14.5178 225.757L14.7236 230.04H19.711L19.6369 225.387L14.5178 225.757Z" fill="#EAA192"/>
<path d="M38.64 226.449H32.4345L30.2289 195.591L23.3404 174.755C23.3404 174.755 22.2375 193.548 21.9824 196.348C21.859 197.699 21.3652 204.749 20.8796 211.716C20.3693 219.218 19.8591 226.622 19.8591 226.622H14.2544L12.9788 194.578L12.8059 192.7L10.2546 164.049L31.7597 161.512L32.5168 161.422C32.5168 161.422 38.64 185.313 38.9774 193.301C39.3148 201.298 38.64 226.457 38.64 226.457V226.449Z" fill="url(#paint14_linear_5940_28052)"/>
<g style="mix-blend-mode:multiply" opacity="0.5">
<path d="M38.64 226.449H32.4346C38.8128 225.494 38.9774 193.293 38.9774 193.293C39.3149 201.29 38.64 226.449 38.64 226.449Z" fill="#C3D3DD"/>
</g>
<g style="mix-blend-mode:multiply">
<path d="M12.7319 170.958C12.9047 174.623 13.8347 181.409 12.8059 192.692L10.2546 164.04L31.7597 161.504L32.2041 161.57C32.2041 161.57 27.2496 165.696 20.3446 166.486C13.4397 167.269 12.5426 167.005 12.7319 170.95V170.958Z" fill="#C3D3DD"/>
</g>
<path d="M33.2493 161.217C33.2493 161.217 25.8752 165.54 17.6534 165.705C14.8964 165.763 12.0488 165.359 9.34933 164.165C9.34933 164.165 9.57977 151.021 9.23411 143.988C8.89668 136.955 8.13952 127.451 11.0118 125.582C12.2216 124.791 14.5507 124.61 16.0239 124.569C16.3778 124.569 16.9209 124.865 18.0649 124.857C19.892 124.841 21.0936 124.445 21.0936 124.445C23.9823 124.47 30.2207 125.178 30.3935 131.569V131.643C30.6239 139.706 30.6568 154.324 33.2575 161.208L33.2493 161.217Z" fill="url(#paint15_linear_5940_28052)"/>
<path style="mix-blend-mode:multiply" d="M30.3934 131.641C30.6239 139.654 30.6568 154.115 33.1999 161.066C31.8666 158.472 30.8049 155.548 30.3605 152.567C29.6445 147.782 29.0108 143.483 29.1918 138.715C29.3811 133.947 24.2456 132.481 24.2456 132.481L30.3852 131.641H30.3934Z" fill="url(#paint16_linear_5940_28052)"/>
<g style="mix-blend-mode:multiply" opacity="0.5">
<path d="M33.2822 161.231L33.2493 161.215C33.2328 161.165 33.2081 161.124 33.1917 161.066C33.2246 161.124 33.2493 161.173 33.2739 161.231H33.2822Z" fill="#C3D3DD"/>
</g>
<path d="M53.4293 110.864C53.7174 110.914 53.7832 111.26 53.668 111.836C53.5692 112.38 53.3141 113.121 52.952 113.977C52.5076 115.056 51.8821 116.341 51.1578 117.733C47.8165 124.148 42.3188 132.729 41.5123 132.771C40.3354 132.828 39.4301 133.281 39.0103 130.769C38.9363 130.333 39.0186 129.872 39.2655 129.493C40.4917 127.549 44.796 120.747 48.409 115.937C49.1579 114.933 49.8904 114.01 50.5406 113.244C51.8409 111.729 52.8944 110.782 53.4376 110.864H53.4293Z" fill="#EAA192"/>
<path d="M54.3922 108.623C54.3922 108.623 54.4498 108.681 54.491 108.747C54.9436 109.471 55.0177 110.369 54.7461 111.176C54.5815 111.654 54.384 112.131 54.2441 112.477C54.203 112.584 54.1536 112.675 54.0877 112.774L53.1742 114.207L52.9602 114.544L52.4746 114.347L50.985 113.729L50.6476 113.597L50.5817 113.424L50.1538 112.247C50.0303 111.892 49.9892 111.53 50.0386 111.168L50.6558 109.661C50.6558 109.661 50.9521 109.875 50.9686 110.41C50.9686 110.649 51.1167 110.97 51.2648 111.25L51.5035 110.369L51.7751 109.447C51.9562 108.936 53.3059 107.874 54.3922 108.631V108.623Z" fill="#EAA192"/>
<path d="M42.2448 124.203L50.5159 113.02L53.1577 114.238L46.1869 127.325L42.2448 124.203Z" fill="#EAA192"/>
<path d="M20.715 128.997C20.9372 130.051 19.6451 130.314 20.6739 130.578C25.3074 131.797 40.895 135.618 41.9485 132.25C43.183 128.297 29.1755 125.727 25.0358 125.505C21.5874 125.315 20.1883 126.444 20.715 128.997Z" fill="#EAA192"/>
<path d="M46.7877 127.015C45.2898 129.543 43.8249 131.791 42.969 132.532C40.4176 134.707 34.097 133.891 33.0847 133.727C32.9942 133.727 32.9366 133.727 32.9366 133.727C28.7228 133.488 23.6778 132.812 21.4886 132.096C20.1142 131.651 18.9455 129.535 19.39 128.159C19.7603 126.982 20.0237 124.289 22.2705 124.462C23.7766 124.577 25.2662 124.824 26.4513 125.046C29.7845 125.656 38.5906 127.245 38.8128 127.171C38.9609 127.114 40.3518 125.582 42.039 123.762L46.7877 127.015Z" fill="url(#paint17_linear_5940_28052)"/>
<path d="M41.6933 124.287L46.5325 127.425C46.6148 127.482 46.7301 127.458 46.7877 127.367L47.2403 126.659C47.2979 126.576 47.2732 126.461 47.1909 126.412L42.4093 123.266C42.327 123.208 42.22 123.233 42.1624 123.315L41.6521 124.032C41.5945 124.114 41.611 124.229 41.7015 124.287H41.6933Z" fill="white"/>
<path d="M33.2328 235.441V229.124C33.2328 229.124 35.1998 229.898 38.3107 228.91C38.3107 228.91 40.6069 231.315 42.8043 231.529C45.0017 231.743 46.1457 232.707 46.1704 233.991C46.2197 236.289 33.2328 235.433 33.2328 235.433V235.441Z" fill="url(#paint18_linear_5940_28052)"/>
<path d="M14.6824 229.404C14.6824 229.404 18.4435 229.709 19.7027 229.141C19.7027 229.141 20.2953 231.076 20.5916 231.776C20.8879 232.476 21.1018 232.954 22.3939 233.3C23.8424 233.687 24.1223 235.556 22.7808 235.68C21.4393 235.811 14.6742 235.68 14.6742 235.68V229.396L14.6824 229.404Z" fill="url(#paint19_linear_5940_28052)"/>
<path d="M268.257 164.277C270.965 163.643 276.677 170.808 279.508 178.105C281.359 182.873 284.191 192.97 278.076 195.416C271.846 197.903 269.056 190.944 267.599 187.271C266.142 183.598 265.632 178.582 265.525 176.384C265.418 174.251 265.163 165.019 268.265 164.286L268.257 164.277Z" fill="#1F9F97"/>
<path d="M268.776 166.551C268.776 166.551 275.549 180.864 278.076 195.416C280.602 209.968 280.701 217.438 280.701 217.438" stroke="#1F9F97" stroke-width="0.33" stroke-linecap="round" stroke-linejoin="round"/>
<path d="M286.009 197.97C281.006 187.882 287.606 178.798 292.437 174.293C299.622 167.59 305.243 166.453 305.243 166.453C305.243 166.453 306.338 173.009 304.05 179.333C299.959 190.608 294.429 200.037 286.009 197.97Z" fill="#1F9F97"/>
<path d="M298.247 177.512C298.247 177.512 288.766 185.937 285.705 198.1C282.643 210.264 284.363 222.938 284.363 222.938" stroke="#1F9F97" stroke-width="0.33" stroke-linecap="round" stroke-linejoin="round"/>
<path d="M282.726 151.785C282.726 151.785 280.438 153.218 277.36 164.023C274.784 173.074 271.895 194.321 282.619 194.321H282.833C293.556 194.321 290.668 173.066 288.092 164.023C285.014 153.218 282.726 151.785 282.726 151.785Z" fill="url(#paint20_linear_5940_28052)"/>
<path d="M282.726 158.242V219.119" stroke="#1F9F97" stroke-width="0.33" stroke-linecap="round" stroke-linejoin="round"/>
<path d="M282.726 175.917L287.721 170.918" stroke="#1F9F97" stroke-width="0.33" stroke-linecap="round" stroke-linejoin="round"/>
<path d="M282.726 172.176L287.063 167.836" stroke="#1F9F97" stroke-width="0.33" stroke-linecap="round" stroke-linejoin="round"/>
<path d="M282.783 162.187L285.121 159.84" stroke="#1F9F97" stroke-width="0.33" stroke-linecap="round" stroke-linejoin="round"/>
<path d="M282.783 187.117L288.404 181.492" stroke="#1F9F97" stroke-width="0.33" stroke-linecap="round" stroke-linejoin="round"/>
<path d="M282.726 164.657L279.598 161.527" stroke="#1F9F97" stroke-width="0.33" stroke-linecap="round" stroke-linejoin="round"/>
<path d="M282.726 173.863L278.026 169.152" stroke="#1F9F97" stroke-width="0.33" stroke-linecap="round" stroke-linejoin="round"/>
<path d="M282.726 184.801L276.866 178.938" stroke="#1F9F97" stroke-width="0.33" stroke-linecap="round" stroke-linejoin="round"/>
<path d="M274.948 198.013C278.207 190.123 272.743 183.601 268.85 180.438C263.064 175.744 258.76 175.176 258.76 175.176C258.76 175.176 258.274 180.191 260.34 184.852C264.019 193.162 268.702 200.006 274.957 198.004L274.948 198.013Z" fill="url(#paint21_linear_5940_28052)"/>
<path d="M261.015 178.34C261.015 178.34 271.056 186.089 274.948 198.014C278.841 209.939 279.993 222.49 279.993 222.49" stroke="#1F9F97" stroke-width="0.33" stroke-linecap="round" stroke-linejoin="round"/>
<path d="M265.904 179.863C265.904 179.863 266.323 181.099 266.373 183.47" stroke="#1F9F97" stroke-width="0.33" stroke-linecap="round" stroke-linejoin="round"/>
<path d="M267.722 181.148C267.722 181.148 268.224 183.38 268.01 185.439" stroke="#1F9F97" stroke-width="0.33" stroke-linecap="round" stroke-linejoin="round"/>
<path d="M264.694 181.672C264.694 181.672 263.434 182.042 260.727 182.117" stroke="#1F9F97" stroke-width="0.33" stroke-linecap="round" stroke-linejoin="round"/>
<path d="M270.874 189.49C270.874 189.49 271.796 187.571 271.821 185.281" stroke="#1F9F97" stroke-width="0.33" stroke-linecap="round" stroke-linejoin="round"/>
<path d="M268.899 186.672C268.899 186.672 266.299 187.668 263.089 187.248" stroke="#1F9F97" stroke-width="0.33" stroke-linecap="round" stroke-linejoin="round"/>
<path d="M270.035 188.172C270.035 188.172 267.961 189.432 263.887 189.144" stroke="#1F9F97" stroke-width="0.33" stroke-linecap="round" stroke-linejoin="round"/>
<path d="M273.031 193.254C273.031 193.254 270.825 193.913 267.039 193.303" stroke="#1F9F97" stroke-width="0.33" stroke-linecap="round" stroke-linejoin="round"/>
<path d="M273.533 194.407C273.533 194.407 274.693 192.645 274.743 191.195" stroke="#1F9F97" stroke-width="0.33" stroke-linecap="round" stroke-linejoin="round"/>
<path d="M303.062 179.826C300.527 178.681 293.548 184.635 289.384 191.248C286.66 195.58 281.96 204.952 287.499 208.518C293.145 212.15 297.202 205.85 299.334 202.523C301.465 199.195 302.922 194.369 303.449 192.228C303.959 190.153 305.967 181.135 303.062 179.826Z" fill="url(#paint22_linear_5940_28052)"/>
<path d="M302.124 181.949C302.124 181.949 292.75 194.714 287.507 208.509C282.265 222.303 282.635 229.995 282.635 229.995" stroke="#1F9F97" stroke-width="0.33" stroke-linecap="round" stroke-linejoin="round"/>
<path d="M298.486 183.508C298.486 183.508 298.453 185.402 298.906 186.547" stroke="#1F9F97" stroke-width="0.33" stroke-linecap="round" stroke-linejoin="round"/>
<path d="M294.519 186.621C294.519 186.621 295.104 189.792 295.82 191.562" stroke="#1F9F97" stroke-width="0.33" stroke-linecap="round" stroke-linejoin="round"/>
<path d="M289.162 193.34C289.162 193.34 289.869 197.219 291.581 199.352" stroke="#1F9F97" stroke-width="0.33" stroke-linecap="round" stroke-linejoin="round"/>
<path d="M293.499 195.86C293.499 195.86 297.852 196.881 300.239 195.547" stroke="#1F9F97" stroke-width="0.33" stroke-linecap="round" stroke-linejoin="round"/>
<path d="M297.309 189.278C297.309 189.278 300.437 190.16 302.7 189.105" stroke="#1F9F97" stroke-width="0.33" stroke-linecap="round" stroke-linejoin="round"/>
<path d="M289.639 203.502C289.639 203.502 293.153 204.334 296.453 203" stroke="#1F9F97" stroke-width="0.33" stroke-linecap="round" stroke-linejoin="round"/>
<path d="M292.157 215.758C292.157 215.758 292.157 215.758 292.157 215.766L291.787 218.492L291.68 219.266L291.507 220.518L291.4 221.292L289.466 235.473H274.586L274.076 231.751L272.652 221.292L272.545 220.518L272.372 219.266L272.265 218.492L271.895 215.758H292.149H292.157Z" fill="url(#paint23_linear_5940_28052)"/>
<path d="M291.787 218.492L291.68 219.258H272.38L272.273 218.492H291.787Z" fill="white"/>
<path d="M291.507 220.512L291.4 221.286H272.652L272.545 220.512H291.507Z" fill="white"/>
<g style="mix-blend-mode:multiply">
<path d="M292.157 215.766L291.787 218.492L291.68 219.266L291.507 220.517L291.4 221.292L289.466 235.473H274.586L274.076 231.751C288.116 231.528 292.034 216.252 292.149 215.774L292.157 215.766Z" fill="#DBE7EE"/>
</g>
<path d="M302.922 235.383H8.72388V236.989H302.922V235.383Z" fill="url(#paint24_linear_5940_28052)"/>
<path d="M271.895 98.0156H239.148C237.543 98.0156 236.243 99.3172 236.243 100.923V133.692C236.243 135.297 237.543 136.599 239.148 136.599H271.895C273.499 136.599 274.8 135.297 274.8 133.692V100.923C274.8 99.3172 273.499 98.0156 271.895 98.0156Z" fill="url(#paint25_linear_5940_28052)"/>
<path d="M255.526 118.81C259.248 118.81 262.266 115.79 262.266 112.065C262.266 108.34 259.248 105.32 255.526 105.32C251.803 105.32 248.785 108.34 248.785 112.065C248.785 115.79 251.803 118.81 255.526 118.81Z" fill="white"/>
<path d="M247.04 119.617H264.002C265.122 119.617 266.027 120.523 266.027 121.643V129.294H245.024V121.643C245.024 120.523 245.929 119.617 247.049 119.617H247.04Z" fill="white"/>
<path d="M176.493 170.539L177.151 166.15C179.34 165.491 181.348 164.494 183.134 163.226L186.994 165.4C188.22 166.092 189.768 165.787 190.64 164.675L193.438 161.118C194.311 160.014 194.245 158.433 193.282 157.412L190.262 154.159C191.085 152.108 191.578 149.917 191.702 147.661L195.817 145.997C197.117 145.47 197.841 144.07 197.52 142.695L196.483 138.289C196.162 136.922 194.895 135.983 193.488 136.09L189.068 136.428C187.949 134.46 186.533 132.722 184.887 131.248L186.147 126.99C186.55 125.639 185.908 124.198 184.632 123.597L180.542 121.662C179.274 121.06 177.752 121.472 176.962 122.633L174.468 126.298C172.312 125.952 170.073 125.952 167.81 126.339L165.267 122.699C164.46 121.546 162.938 121.151 161.67 121.769L157.605 123.753C156.337 124.371 155.712 125.821 156.132 127.163L157.448 131.404C155.794 132.92 154.403 134.69 153.333 136.634L148.906 136.354C147.498 136.263 146.239 137.21 145.935 138.586L144.955 143C144.651 144.375 145.391 145.767 146.7 146.277L150.832 147.892C150.906 148.987 151.07 150.09 151.325 151.194C151.58 152.298 151.926 153.36 152.354 154.373L149.375 157.659C148.428 158.696 148.387 160.278 149.268 161.373L152.107 164.898C152.988 165.993 154.543 166.281 155.761 165.573L159.596 163.35C161.424 164.618 163.456 165.581 165.613 166.199L166.32 170.58C166.543 171.972 167.744 172.985 169.152 172.977L173.678 172.952C175.085 172.944 176.279 171.914 176.484 170.523L176.493 170.539ZM159.596 149.267C158.082 142.819 162.082 136.362 168.534 134.847C174.978 133.331 181.431 137.334 182.945 143.782C184.459 150.23 180.46 156.687 174.015 158.202C167.571 159.718 161.119 155.715 159.605 149.259L159.596 149.267Z" fill="url(#paint26_linear_5940_28052)"/>
<path d="M140.807 137.498L141.309 134.154C142.98 133.652 144.503 132.894 145.861 131.931L148.799 133.586C149.729 134.113 150.906 133.874 151.572 133.034L153.704 130.325C154.362 129.485 154.321 128.282 153.589 127.5L151.292 125.021C151.918 123.465 152.296 121.793 152.395 120.072L155.523 118.803C156.51 118.4 157.062 117.338 156.823 116.292L156.033 112.94C155.786 111.894 154.823 111.186 153.753 111.268L150.387 111.523C149.539 110.024 148.461 108.699 147.202 107.579L148.165 104.334C148.47 103.304 147.984 102.209 147.013 101.756L143.902 100.282C142.931 99.8207 141.778 100.134 141.178 101.023L139.277 103.815C137.631 103.551 135.927 103.551 134.215 103.848L132.281 101.081C131.672 100.2 130.512 99.9031 129.549 100.373L126.454 101.888C125.491 102.357 125.014 103.461 125.335 104.482L126.331 107.71C125.072 108.863 124.018 110.206 123.195 111.696L119.829 111.482C118.759 111.416 117.804 112.133 117.566 113.179L116.825 116.539C116.595 117.585 117.154 118.647 118.158 119.034L121.302 120.269C121.36 121.101 121.483 121.941 121.681 122.781C121.878 123.621 122.142 124.428 122.463 125.202L120.191 127.706C119.475 128.497 119.434 129.699 120.109 130.531L122.273 133.207C122.948 134.039 124.125 134.261 125.055 133.726L127.977 132.03C129.368 132.993 130.915 133.726 132.553 134.204L133.096 137.539C133.269 138.593 134.182 139.367 135.252 139.367L138.692 139.343C139.762 139.343 140.667 138.552 140.824 137.49L140.807 137.498ZM127.944 121.315C126.792 116.407 129.837 111.49 134.742 110.346C139.647 109.193 144.56 112.24 145.704 117.148C146.856 122.056 143.811 126.973 138.906 128.126C134.001 129.279 129.088 126.232 127.936 121.324L127.944 121.315Z" fill="url(#paint27_linear_5940_28052)"/>
<path d="M174.666 168.711L175.324 164.321C177.513 163.663 179.521 162.666 181.307 161.398L185.167 163.572C186.393 164.264 187.941 163.959 188.813 162.847L191.611 159.29C192.484 158.186 192.418 156.605 191.455 155.584L188.434 152.331C189.257 150.28 189.751 148.089 189.875 145.833L193.99 144.169C195.29 143.642 196.014 142.242 195.693 140.867L194.656 136.461C194.335 135.094 193.068 134.155 191.661 134.262L187.241 134.6C186.122 132.631 184.706 130.894 183.06 129.42L184.319 125.162C184.723 123.811 184.081 122.37 182.805 121.769L178.715 119.834C177.447 119.232 175.925 119.644 175.135 120.805L172.641 124.47C170.485 124.124 168.246 124.124 165.983 124.511L163.44 120.871C162.633 119.718 161.111 119.323 159.843 119.941L155.778 121.925C154.51 122.543 153.885 123.992 154.305 125.335L155.621 129.576C153.967 131.091 152.576 132.862 151.506 134.806L147.079 134.526C145.671 134.435 144.412 135.382 144.108 136.757L143.128 141.172C142.824 142.547 143.564 143.939 144.873 144.449L149.004 146.063C149.078 147.159 149.243 148.262 149.498 149.366C149.753 150.469 150.099 151.532 150.527 152.545L147.548 155.831C146.601 156.868 146.56 158.45 147.441 159.545L150.28 163.07C151.161 164.165 152.716 164.453 153.934 163.745L157.769 161.521C159.596 162.79 161.629 163.753 163.785 164.371L164.493 168.752C164.715 170.144 165.917 171.157 167.324 171.149L171.851 171.124C173.258 171.116 174.452 170.086 174.657 168.694L174.666 168.711ZM157.769 147.439C156.255 140.99 160.255 134.534 166.707 133.018C173.151 131.503 179.604 135.506 181.118 141.954C182.632 148.402 178.632 154.859 172.188 156.374C165.744 157.89 159.292 153.887 157.778 147.431L157.769 147.439Z" fill="url(#paint28_linear_5940_28052)"/>
<path d="M138.989 135.678L139.491 132.334C141.161 131.832 142.684 131.074 144.042 130.11L146.98 131.766C147.91 132.293 149.087 132.054 149.753 131.214L151.885 128.505C152.543 127.665 152.502 126.462 151.77 125.68L149.474 123.201C150.099 121.644 150.478 119.973 150.576 118.251L153.704 116.983C154.691 116.58 155.243 115.517 155.004 114.471L154.214 111.12C153.967 110.074 153.004 109.365 151.934 109.448L148.568 109.703C147.721 108.204 146.642 106.878 145.383 105.758L146.346 102.513C146.651 101.484 146.165 100.389 145.194 99.9358L142.083 98.4616C141.112 98.0004 139.96 98.3134 139.359 99.2028L137.458 101.995C135.812 101.731 134.108 101.731 132.396 102.028L130.462 99.2522C129.853 98.371 128.693 98.0745 127.73 98.544L124.635 100.059C123.672 100.529 123.195 101.632 123.516 102.653L124.512 105.882C123.253 107.035 122.199 108.377 121.376 109.868L118.01 109.654C116.94 109.588 115.986 110.304 115.747 111.35L115.006 114.71C114.776 115.756 115.335 116.818 116.34 117.206L119.483 118.441C119.541 119.273 119.664 120.113 119.862 120.953C120.059 121.793 120.323 122.6 120.644 123.374L118.372 125.877C117.656 126.668 117.615 127.87 118.29 128.702L120.455 131.379C121.129 132.211 122.306 132.433 123.236 131.898L126.158 130.201C127.549 131.165 129.096 131.898 130.734 132.375L131.277 135.711C131.45 136.765 132.363 137.539 133.433 137.539L136.873 137.514C137.943 137.514 138.849 136.724 139.005 135.661L138.989 135.678ZM126.125 119.495C124.973 114.587 128.018 109.67 132.923 108.525C137.828 107.372 142.741 110.419 143.885 115.328C145.038 120.236 141.992 125.153 137.087 126.306C132.182 127.459 127.269 124.412 126.117 119.503L126.125 119.495Z" fill="url(#paint29_linear_5940_28052)"/>
<defs>
<linearGradient id="paint0_linear_5940_28052" x1="60.6388" y1="92.7062" x2="109.846" y2="92.7062" gradientUnits="userSpaceOnUse">
<stop stop-color="#E2F4FF"/>
<stop offset="1" stop-color="#D7ECFF"/>
</linearGradient>
<linearGradient id="paint1_linear_5940_28052" x1="56.2686" y1="45.7383" x2="56.2686" y2="114.348" gradientUnits="userSpaceOnUse">
<stop stop-color="#8AD3FF"/>
<stop offset="1" stop-color="#5F9CFF"/>
</linearGradient>
<linearGradient id="paint2_linear_5940_28052" x1="21.2252" y1="60.0076" x2="93.1391" y2="60.0076" gradientUnits="userSpaceOnUse">
<stop stop-color="#E2F4FF"/>
<stop offset="1" stop-color="#D7ECFF"/>
</linearGradient>
<linearGradient id="paint3_linear_5940_28052" x1="21.2252" y1="84.1053" x2="93.1391" y2="84.1053" gradientUnits="userSpaceOnUse">
<stop stop-color="#E2F4FF"/>
<stop offset="1" stop-color="#D7ECFF"/>
</linearGradient>
<linearGradient id="paint4_linear_5940_28052" x1="21.2252" y1="108.203" x2="93.1391" y2="108.203" gradientUnits="userSpaceOnUse">
<stop stop-color="#E2F4FF"/>
<stop offset="1" stop-color="#D7ECFF"/>
</linearGradient>
<linearGradient id="paint5_linear_5940_28052" x1="31.8255" y1="59.8608" x2="40.7057" y2="59.8608" gradientUnits="userSpaceOnUse">
<stop stop-color="#E2F4FF"/>
<stop offset="1" stop-color="#D7ECFF"/>
</linearGradient>
<linearGradient id="paint6_linear_5940_28052" x1="33.0682" y1="59.8594" x2="39.4547" y2="59.8594" gradientUnits="userSpaceOnUse">
<stop stop-color="#E2F4FF"/>
<stop offset="1" stop-color="#D7ECFF"/>
</linearGradient>
<linearGradient id="paint7_linear_5940_28052" x1="73.7081" y1="84.31" x2="82.5883" y2="84.31" gradientUnits="userSpaceOnUse">
<stop stop-color="#E2F4FF"/>
<stop offset="1" stop-color="#D7ECFF"/>
</linearGradient>
<linearGradient id="paint8_linear_5940_28052" x1="74.9508" y1="84.3125" x2="81.3373" y2="84.3125" gradientUnits="userSpaceOnUse">
<stop stop-color="#E2F4FF"/>
<stop offset="1" stop-color="#D7ECFF"/>
</linearGradient>
<linearGradient id="paint9_linear_5940_28052" x1="50.4665" y1="107.99" x2="59.3467" y2="107.99" gradientUnits="userSpaceOnUse">
<stop stop-color="#E2F4FF"/>
<stop offset="1" stop-color="#D7ECFF"/>
</linearGradient>
<linearGradient id="paint10_linear_5940_28052" x1="51.7174" y1="107.988" x2="58.1039" y2="107.988" gradientUnits="userSpaceOnUse">
<stop stop-color="#E2F4FF"/>
<stop offset="1" stop-color="#D7ECFF"/>
</linearGradient>
<linearGradient id="paint11_linear_5940_28052" x1="11.7936" y1="115.574" x2="22.6572" y2="115.574" gradientUnits="userSpaceOnUse">
<stop stop-color="#294698"/>
<stop offset="1" stop-color="#0E4BA6"/>
</linearGradient>
<linearGradient id="paint12_linear_5940_28052" x1="7.57165" y1="124.987" x2="7.57165" y2="166.625" gradientUnits="userSpaceOnUse">
<stop offset="0.02" stop-color="#45D8C3"/>
<stop offset="1" stop-color="#34C8BE"/>
</linearGradient>
<linearGradient id="paint13_linear_5940_28052" x1="8.41849" y1="138.573" x2="0.904101" y2="149.902" gradientUnits="userSpaceOnUse">
<stop stop-color="#E2F4FF"/>
<stop offset="1" stop-color="#D7ECFF"/>
</linearGradient>
<linearGradient id="paint14_linear_5940_28052" x1="10.2546" y1="194.018" x2="39.0679" y2="194.018" gradientUnits="userSpaceOnUse">
<stop stop-color="#294698"/>
<stop offset="1" stop-color="#0E4BA6"/>
</linearGradient>
<linearGradient id="paint15_linear_5940_28052" x1="21.0689" y1="124.989" x2="21.0689" y2="166.619" gradientUnits="userSpaceOnUse">
<stop offset="0.02" stop-color="#45D8C3"/>
<stop offset="1" stop-color="#34C8BE"/>
</linearGradient>
<linearGradient id="paint16_linear_5940_28052" x1="24.2456" y1="146.357" x2="33.1999" y2="146.357" gradientUnits="userSpaceOnUse">
<stop stop-color="#E2F4FF"/>
<stop offset="1" stop-color="#D7ECFF"/>
</linearGradient>
<linearGradient id="paint17_linear_5940_28052" x1="33.0353" y1="124.989" x2="33.0353" y2="166.619" gradientUnits="userSpaceOnUse">
<stop offset="0.02" stop-color="#45D8C3"/>
<stop offset="1" stop-color="#34C8BE"/>
</linearGradient>
<linearGradient id="paint18_linear_5940_28052" x1="33.2328" y1="232.254" x2="46.1704" y2="232.254" gradientUnits="userSpaceOnUse">
<stop stop-color="#294698"/>
<stop offset="1" stop-color="#0E4BA6"/>
</linearGradient>
<linearGradient id="paint19_linear_5940_28052" x1="14.666" y1="232.443" x2="23.6449" y2="232.443" gradientUnits="userSpaceOnUse">
<stop stop-color="#294698"/>
<stop offset="1" stop-color="#0E4BA6"/>
</linearGradient>
<linearGradient id="paint20_linear_5940_28052" x1="274.965" y1="173.057" x2="290.495" y2="173.057" gradientUnits="userSpaceOnUse">
<stop offset="0.02" stop-color="#45D8C3"/>
<stop offset="1" stop-color="#34C8BE"/>
</linearGradient>
<linearGradient id="paint21_linear_5940_28052" x1="258.702" y1="186.771" x2="275.944" y2="186.771" gradientUnits="userSpaceOnUse">
<stop offset="0.02" stop-color="#45D8C3"/>
<stop offset="1" stop-color="#34C8BE"/>
</linearGradient>
<linearGradient id="paint22_linear_5940_28052" x1="284.923" y1="194.641" x2="304.601" y2="194.641" gradientUnits="userSpaceOnUse">
<stop offset="0.02" stop-color="#45D8C3"/>
<stop offset="1" stop-color="#34C8BE"/>
</linearGradient>
<linearGradient id="paint23_linear_5940_28052" x1="271.903" y1="225.607" x2="292.157" y2="225.607" gradientUnits="userSpaceOnUse">
<stop stop-color="#294698"/>
<stop offset="1" stop-color="#0E4BA6"/>
</linearGradient>
<linearGradient id="paint24_linear_5940_28052" x1="8.72388" y1="236.19" x2="302.922" y2="236.19" gradientUnits="userSpaceOnUse">
<stop stop-color="#8AD3FF"/>
<stop offset="1" stop-color="#5F9CFF"/>
</linearGradient>
<linearGradient id="paint25_linear_5940_28052" x1="255.525" y1="101.944" x2="255.525" y2="136.961" gradientUnits="userSpaceOnUse">
<stop offset="0.02" stop-color="#45D8C3"/>
<stop offset="1" stop-color="#34C8BE"/>
</linearGradient>
<linearGradient id="paint26_linear_5940_28052" x1="144.898" y1="147.192" x2="197.594" y2="147.192" gradientUnits="userSpaceOnUse">
<stop stop-color="#E2F4FF"/>
<stop offset="1" stop-color="#D7ECFF"/>
</linearGradient>
<linearGradient id="paint27_linear_5940_28052" x1="116.767" y1="119.734" x2="156.872" y2="119.734" gradientUnits="userSpaceOnUse">
<stop stop-color="#E2F4FF"/>
<stop offset="1" stop-color="#D7ECFF"/>
</linearGradient>
<linearGradient id="paint28_linear_5940_28052" x1="164.123" y1="118.86" x2="176.172" y2="170.195" gradientUnits="userSpaceOnUse">
<stop stop-color="#294698"/>
<stop offset="1" stop-color="#0E4BA6"/>
</linearGradient>
<linearGradient id="paint29_linear_5940_28052" x1="130.978" y1="97.7256" x2="140.147" y2="136.794" gradientUnits="userSpaceOnUse">
<stop stop-color="#294698"/>
<stop offset="1" stop-color="#0E4BA6"/>
</linearGradient>
</defs>
</svg>
