<svg width="320" height="235" viewBox="0 0 320 235" fill="none" xmlns="http://www.w3.org/2000/svg">
<g clip-path="url(#clip0_5349_49108)">
<path d="M181.591 79.8209L180.438 76.9948C182.111 75.7575 183.643 74.2812 184.979 72.5518C186.245 70.9209 187.257 69.1915 188.03 67.3777L191.138 67.8136C191.686 67.8839 192.192 67.5043 192.263 66.97L193.641 57.0436C193.711 56.4953 193.331 55.9891 192.797 55.9188L189.774 55.497C189.31 51.4336 187.777 47.4827 185.246 44.1083L187.173 41.6338C187.51 41.1979 187.426 40.5793 187.004 40.2418L179.102 34.0835C178.666 33.7461 178.047 33.8304 177.71 34.2522L175.84 36.6565C171.973 34.9693 167.769 34.4069 163.705 34.8849L162.524 31.9745C162.313 31.4683 161.737 31.2152 161.23 31.4262L151.95 35.1942C151.444 35.4052 151.191 35.9816 151.402 36.4878L152.555 39.3138C150.881 40.5511 149.349 42.0274 148.013 43.7568C146.748 45.3878 145.735 47.1172 144.962 48.9309L141.854 48.4951C141.306 48.4248 140.8 48.8044 140.729 49.3387L139.352 59.2651C139.281 59.8134 139.661 60.3196 140.195 60.3899L143.218 60.8117C143.682 64.8751 145.215 68.8259 147.746 72.2003L145.82 74.6749C145.482 75.1108 145.566 75.7294 145.988 76.0669L153.891 82.2252C154.326 82.5626 154.945 82.4783 155.283 82.0565L157.153 79.6522C161.019 81.3394 165.224 81.9018 169.287 81.4238L170.468 84.3342C170.679 84.8403 171.256 85.0934 171.762 84.8825L181.042 81.1144C181.548 80.9035 181.801 80.3271 181.591 79.8209ZM157.35 69.9086C150.853 64.861 149.686 55.497 154.748 49.0153C159.796 42.5195 169.161 41.3526 175.643 46.4142C182.139 51.4617 183.306 60.8258 178.244 67.3074C173.196 73.8032 163.832 74.9702 157.35 69.9086Z" fill="#FFEC91"/>
<path d="M132.124 49.4052C137.369 30.7475 156.745 19.8791 175.39 25.1094C194.049 30.3538 204.918 49.7286 199.687 68.3722C194.442 87.03 205.325 106.405 223.984 111.635C242.643 116.879 262.019 105.997 267.25 87.3393" stroke="#FFEC91" stroke-miterlimit="10"/>
<path d="M283.363 91.8827C298.282 87.7912 313.693 96.5787 317.785 111.496C321.876 126.414 313.088 141.824 298.17 145.915C283.251 150.007 274.463 165.417 278.555 180.335C282.646 195.252 298.057 204.04 312.976 199.948" stroke="#FFEC91" stroke-miterlimit="10"/>
<path d="M217.137 184.973H178.624V211.321H217.137V184.973Z" fill="#E6E6E6"/>
<path d="M216.434 185.676V210.618H179.327V185.676H216.434ZM217.84 184.27H177.921V212.024H217.84V184.27Z" fill="#808080"/>
<path d="M121.227 71.4805H273.31C281.971 71.4805 289.002 78.5105 289.002 87.1715V177.268C289.002 185.929 281.971 192.959 273.31 192.959H121.227C112.565 192.959 105.535 185.929 105.535 177.268V87.1715C105.535 78.5105 112.565 71.4805 121.227 71.4805Z" fill="#E6E6E6"/>
<path d="M273.31 72.1834C281.578 72.1834 288.299 78.9041 288.299 87.1714V177.268C288.299 185.536 281.578 192.256 273.31 192.256H121.227C112.959 192.256 106.238 185.536 106.238 177.268V87.1714C106.238 78.9041 112.959 72.1834 121.227 72.1834H273.31ZM273.31 70.7773H121.227C112.172 70.7773 104.832 78.1167 104.832 87.1714V177.268C104.832 186.323 112.172 193.662 121.227 193.662H273.31C282.365 193.662 289.705 186.323 289.705 177.268V87.1714C289.705 78.1167 282.365 70.7773 273.31 70.7773Z" fill="#808080"/>
<path d="M280.242 80.2266H114.281V176.861H280.242V80.2266Z" fill="white"/>
<path d="M201.473 187.362H194.119C192.952 187.362 192.024 186.42 192.024 185.267C192.024 184.1 192.966 183.172 194.119 183.172H201.473C202.64 183.172 203.568 184.114 203.568 185.267C203.568 186.434 202.626 187.362 201.473 187.362Z" fill="#808080"/>
<path d="M164.45 218.253C162.749 218.253 161.357 216.875 161.357 215.16C161.357 213.444 162.735 212.066 164.45 212.066H231.605C233.307 212.066 234.699 213.458 234.699 215.16C234.699 216.861 233.307 218.253 231.605 218.253H164.45Z" fill="#E6E6E6"/>
<path d="M231.605 212.785C232.927 212.785 233.996 213.853 233.996 215.175C233.996 216.497 232.927 217.565 231.605 217.565H164.45C163.129 217.565 162.06 216.497 162.06 215.175C162.06 213.853 163.129 212.785 164.45 212.785H231.605ZM231.605 211.379H164.45C162.355 211.379 160.654 213.08 160.654 215.175C160.654 217.27 162.355 218.971 164.45 218.971H231.605C233.7 218.971 235.402 217.27 235.402 215.175C235.402 213.08 233.7 211.379 231.605 211.379Z" fill="#808080"/>
<path d="M177.879 201.466V193.648H217.713L177.879 201.466Z" fill="#808080"/>
<g opacity="0.57">
<path d="M280.2 80.2266H114.281V88.5501H280.2V80.2266Z" fill="url(#paint0_linear_5349_49108)"/>
</g>
<path d="M113.887 138.152V143.467" stroke="#808080" stroke-miterlimit="10" stroke-linecap="round"/>
<path d="M113.887 98.9258V131.826" stroke="#808080" stroke-miterlimit="10" stroke-linecap="round"/>
<path d="M231.83 176.621H226.515" stroke="#808080" stroke-miterlimit="10" stroke-linecap="round"/>
<path d="M271.06 176.621H238.158" stroke="#808080" stroke-miterlimit="10" stroke-linecap="round"/>
<path d="M179.439 80.1992H174.124" stroke="#808080" stroke-miterlimit="10" stroke-linecap="round"/>
<path d="M218.669 80.1992H185.767" stroke="#808080" stroke-miterlimit="10" stroke-linecap="round"/>
<path d="M226.009 80.1992H280.129V121.198" stroke="#808080" stroke-miterlimit="10" stroke-linecap="round"/>
<path d="M151.261 149.345C160.067 149.345 167.206 142.207 167.206 133.401C167.206 124.595 160.067 117.457 151.261 117.457C142.455 117.457 135.316 124.595 135.316 133.401C135.316 142.207 142.455 149.345 151.261 149.345Z" stroke="#D2EFFD" stroke-width="6" stroke-miterlimit="10"/>
<path opacity="0.65" d="M135.316 133.401C135.316 142.203 142.459 149.345 151.261 149.345C160.063 149.345 167.206 142.203 167.206 133.401C167.206 124.6 160.063 117.457 151.261 117.457" stroke="#0950C5" stroke-opacity="0.5" stroke-width="6" stroke-miterlimit="10" stroke-linecap="round"/>
<path d="M197.269 149.345C206.075 149.345 213.214 142.207 213.214 133.401C213.214 124.595 206.075 117.457 197.269 117.457C188.462 117.457 181.323 124.595 181.323 133.401C181.323 142.207 188.462 149.345 197.269 149.345Z" stroke="#FFEC91" stroke-width="6" stroke-miterlimit="10"/>
<path opacity="0.65" d="M197.269 149.345C206.071 149.345 213.214 142.203 213.214 133.401C213.214 124.6 206.071 117.457 197.269 117.457" stroke="#FFE14F" stroke-width="6" stroke-miterlimit="10" stroke-linecap="round"/>
<path d="M243.29 149.345C252.096 149.345 259.235 142.207 259.235 133.401C259.235 124.595 252.096 117.457 243.29 117.457C234.484 117.457 227.345 124.595 227.345 133.401C227.345 142.207 234.484 149.345 243.29 149.345Z" stroke="#D2EFFD" stroke-width="6" stroke-miterlimit="10"/>
<path opacity="0.65" d="M259.235 133.401C259.235 124.6 252.092 117.457 243.29 117.457" stroke="#0950C5" stroke-opacity="0.5" stroke-width="6" stroke-miterlimit="10" stroke-linecap="round"/>
<g opacity="0.57">
<path d="M109.528 40.8315C109.528 33.1828 103.328 26.9823 95.6784 26.9823C94.2864 26.9823 92.9365 27.1932 91.671 27.5729C89.3229 17.8995 80.6332 10.7148 70.2422 10.7148C59.8512 10.7148 51.3021 17.7871 48.8696 27.3198C47.8853 27.0948 46.873 26.9683 45.8184 26.9683C38.1692 26.9683 31.9684 33.1688 31.9684 40.8175C31.9684 48.4661 37.5928 54.048 44.7216 54.6104C44.806 54.6104 96.4096 54.6385 96.4096 54.6385C103.707 54.2589 109.514 48.2271 109.514 40.8315H109.528Z" fill="url(#paint1_linear_5349_49108)"/>
</g>
<path d="M226.375 1.40601C231.113 1.40601 235.191 4.62576 236.316 9.22341L236.667 10.6716L238.087 10.2357C238.65 10.067 239.212 9.98265 239.789 9.98265C243.037 9.98265 245.68 12.6259 245.68 15.8738C245.68 19.1217 243.248 21.5681 240.126 21.7509C238.973 21.7509 214.226 21.7509 212.96 21.7509C209.937 21.4838 207.575 18.9249 207.575 15.8879C207.575 12.64 210.219 9.99671 213.467 9.99671C213.889 9.99671 214.324 10.0529 214.76 10.1514L216.096 10.4466L216.434 9.12499C217.587 4.58358 221.664 1.42007 226.346 1.42007M226.346 0.0140601C220.919 0.0140601 216.363 3.73998 215.07 8.77348C214.549 8.661 214.015 8.5907 213.467 8.5907C209.431 8.5907 206.169 11.8667 206.169 15.8879C206.169 19.9091 209.136 22.8617 212.89 23.1569C212.932 23.1569 240.154 23.1569 240.154 23.1569C244.007 22.9601 247.072 19.7685 247.072 15.8738C247.072 11.9792 243.796 8.57664 239.775 8.57664C239.043 8.57664 238.326 8.68912 237.666 8.88596C236.428 3.78216 231.844 0 226.361 0L226.346 0.0140601Z" fill="#808080"/>
<g opacity="0.57">
<path d="M311.204 46.1735C311.204 40.4791 306.592 35.8674 300.897 35.8674C299.857 35.8674 298.859 36.0221 297.917 36.3033C296.173 29.1045 289.705 23.7617 281.971 23.7617C274.238 23.7617 267.882 29.0202 266.069 36.1205C265.337 35.9518 264.578 35.8674 263.805 35.8674C258.11 35.8674 253.498 40.4791 253.498 46.1735C253.498 51.8678 257.674 56.0155 262.989 56.4373C263.059 56.4373 301.46 56.4514 301.46 56.4514C306.901 56.1702 311.218 51.685 311.218 46.1735H311.204Z" fill="url(#paint2_linear_5349_49108)"/>
</g>
<path d="M40.0533 114.224L38.5629 112.818C39.2378 111.595 39.758 110.273 40.0955 108.839C40.4189 107.489 40.5455 106.154 40.5173 104.832L42.528 104.227C42.8796 104.115 43.0764 103.749 42.978 103.398L41.0517 96.9582C40.9392 96.6067 40.5736 96.4099 40.2221 96.5083L38.2535 97.0988C36.8334 94.7508 34.7945 92.7683 32.3198 91.4185L32.7979 89.3658C32.8823 89.0002 32.6573 88.6487 32.3058 88.5644L25.7674 87.0177C25.4018 86.9334 25.0503 87.1584 24.966 87.5099L24.5019 89.4923C21.6757 89.5486 18.9619 90.364 16.6138 91.7982L15.0811 90.35C14.814 90.0969 14.3921 90.111 14.1391 90.3781L9.52707 95.271C9.27398 95.5382 9.28804 95.96 9.5552 96.213L11.0457 97.619C10.3707 98.8423 9.85047 100.164 9.51301 101.598C9.18961 102.948 9.06306 104.284 9.09118 105.605L7.08047 106.21C6.72895 106.322 6.5321 106.688 6.63052 107.039L8.55687 113.479C8.66936 113.83 9.03494 114.027 9.38646 113.929L11.355 113.338C12.7751 115.686 14.814 117.669 17.2887 119.018L16.8106 121.071C16.7263 121.437 16.9512 121.788 17.3028 121.873L23.8411 123.419C24.2067 123.504 24.5582 123.279 24.6426 122.927L25.1066 120.945C27.9328 120.888 30.6466 120.073 32.9947 118.639L34.5274 120.087C34.7945 120.34 35.2164 120.326 35.4695 120.059L40.0814 115.166C40.3345 114.899 40.3205 114.477 40.0533 114.224ZM22.5053 114.941C17.134 113.676 13.8157 108.291 15.0811 102.92C16.3466 97.5487 21.7319 94.2306 27.1032 95.496C32.4745 96.7614 35.7929 102.146 34.5274 107.517C33.2619 112.888 27.8766 116.206 22.5053 114.941Z" fill="#FFEC91"/>
<path d="M88.0152 75.25C93.3724 86.948 88.2261 100.755 76.5274 106.112C64.8287 111.469 51.0209 106.323 45.6637 94.6248C40.3065 82.9268 26.4987 77.7949 14.8 83.1377C3.10132 88.4805 -2.03092 102.302 3.31223 114" stroke="#FFEC91" stroke-miterlimit="10"/>
<path d="M33.4307 144.523H146.424C150.333 144.523 153.511 147.701 153.511 151.61V221.502C153.511 225.411 150.333 228.589 146.424 228.589H33.4307C29.5218 228.589 26.344 225.411 26.344 221.502V151.61C26.344 147.701 29.5218 144.523 33.4307 144.523Z" fill="#E6E6E6"/>
<path d="M146.41 145.226C149.925 145.226 152.794 148.095 152.794 151.61V221.502C152.794 225.017 149.925 227.885 146.41 227.885H33.4307C29.9155 227.885 27.0471 225.017 27.0471 221.502V151.61C27.0471 148.095 29.9155 145.226 33.4307 145.226H146.424M146.424 143.82H33.4307C29.1281 143.82 25.641 147.307 25.641 151.61V221.502C25.641 225.805 29.1281 229.291 33.4307 229.291H146.424C150.727 229.291 154.214 225.805 154.214 221.502V151.61C154.214 147.307 150.727 143.82 146.424 143.82Z" fill="#808080"/>
<path d="M147.633 150.387H32.2214V217.58H147.633V150.387Z" fill="white"/>
<g opacity="0.57">
<path d="M147.999 149.895H32.123V158.218H147.999V149.895Z" fill="url(#paint3_linear_5349_49108)"/>
</g>
<path d="M131.224 154.674C131.224 155.532 130.521 156.235 129.664 156.235C128.806 156.235 128.103 155.532 128.103 154.674C128.103 153.816 128.806 153.113 129.664 153.113C130.521 153.113 131.224 153.816 131.224 154.674Z" fill="white"/>
<path d="M134.922 156.235C135.784 156.235 136.483 155.536 136.483 154.674C136.483 153.812 135.784 153.113 134.922 153.113C134.06 153.113 133.362 153.812 133.362 154.674C133.362 155.536 134.06 156.235 134.922 156.235Z" fill="white"/>
<path d="M141.742 154.674C141.742 155.532 141.039 156.235 140.181 156.235C139.324 156.235 138.62 155.532 138.62 154.674C138.62 153.816 139.324 153.113 140.181 153.113C141.039 153.113 141.742 153.816 141.742 154.674Z" fill="white"/>
<path d="M92.8381 224.342H87.7199C86.9184 224.342 86.2576 223.682 86.2576 222.88C86.2576 222.079 86.9184 221.418 87.7199 221.418H92.8381C93.6395 221.418 94.3004 222.079 94.3004 222.88C94.3004 223.682 93.6395 224.342 92.8381 224.342Z" fill="#808080"/>
<path d="M22.3789 234.297C18.9199 234.297 16.0655 231.667 15.714 228.293H164C163.649 231.653 160.795 234.297 157.336 234.297H22.3789Z" fill="#E6E6E6"/>
<path d="M163.171 228.996C162.538 231.625 160.162 233.593 157.335 233.593H22.3788C19.5526 233.593 17.1763 231.639 16.5435 228.996H163.157M164.732 227.59H14.9828C14.9828 231.681 18.3012 235 22.3929 235H157.35C161.441 235 164.76 231.681 164.76 227.59H164.732Z" fill="#808080"/>
<path d="M79.8176 228.138C79.8176 229.558 81.519 230.697 83.6281 230.697H96.9438C99.0389 230.697 100.754 229.544 100.754 228.138C100.754 227.955 100.726 227.773 100.656 227.59H79.902C79.8458 227.773 79.8176 227.955 79.8176 228.138Z" fill="#808080"/>
<path d="M32.2496 199.145V204.459" stroke="#808080" stroke-miterlimit="10" stroke-linecap="round"/>
<path d="M32.2496 159.918V192.819" stroke="#808080" stroke-miterlimit="10" stroke-linecap="round"/>
<path d="M73.7574 217.367H79.0725" stroke="#808080" stroke-miterlimit="10" stroke-linecap="round"/>
<path d="M34.5275 217.367H67.43" stroke="#808080" stroke-miterlimit="10" stroke-linecap="round"/>
<path d="M93.4989 150.051H147.619V191.05" stroke="#808080" stroke-miterlimit="10" stroke-linecap="round"/>
<path d="M64.8541 195.053C69.5326 190.374 69.5326 182.79 64.8541 178.111C60.1757 173.433 52.5904 173.433 47.912 178.111C43.2335 182.79 43.2335 190.374 47.912 195.053C52.5904 199.731 60.1757 199.731 64.8541 195.053Z" stroke="#D2EFFD" stroke-width="4" stroke-miterlimit="10"/>
<path opacity="0.65" d="M44.3982 186.577C44.3982 193.199 49.7695 198.556 56.3781 198.556C62.9867 198.556 68.358 193.185 68.358 186.577C68.358 179.969 62.9867 174.598 56.3781 174.598" stroke="#0950C5" stroke-opacity="0.5" stroke-width="4" stroke-miterlimit="10" stroke-linecap="round"/>
<path d="M92.7884 198.428C99.327 197.417 103.808 191.298 102.797 184.759C101.786 178.221 95.6656 173.74 89.127 174.751C82.5884 175.762 78.1075 181.882 79.1185 188.421C80.1296 194.959 86.2498 199.439 92.7884 198.428Z" stroke="#FFEC91" stroke-width="4" stroke-miterlimit="10"/>
<path opacity="0.65" d="M90.968 198.556C97.5907 198.556 102.948 193.185 102.948 186.577C102.948 179.969 97.5766 174.598 90.968 174.598" stroke="#FFE14F" stroke-width="4" stroke-miterlimit="10" stroke-linecap="round"/>
<path d="M128.299 198.245C134.739 196.731 138.733 190.282 137.219 183.842C135.705 177.402 129.256 173.408 122.815 174.922C116.374 176.437 112.381 182.885 113.895 189.325C115.409 195.766 121.858 199.759 128.299 198.245Z" stroke="#D2EFFD" stroke-width="4" stroke-miterlimit="10"/>
<path opacity="0.65" d="M137.552 186.577C137.552 179.955 132.181 174.598 125.572 174.598" stroke="#0950C5" stroke-opacity="0.5" stroke-width="4" stroke-miterlimit="10" stroke-linecap="round"/>
</g>
<defs>
<linearGradient id="paint0_linear_5349_49108" x1="304.61" y1="31.8881" x2="155.131" y2="104.993" gradientUnits="userSpaceOnUse">
<stop stop-color="#CEE8FB"/>
<stop offset="0.24" stop-color="#C0E3F8"/>
<stop offset="0.57" stop-color="#A7DCF5"/>
<stop offset="0.87" stop-color="#A7DCF5"/>
<stop offset="0.99" stop-color="#8CD4F5"/>
</linearGradient>
<linearGradient id="paint1_linear_5349_49108" x1="23.8412" y1="11.924" x2="189.431" y2="109.355" gradientUnits="userSpaceOnUse">
<stop stop-color="#CEE8FB"/>
<stop offset="0.24" stop-color="#C0E3F8"/>
<stop offset="0.57" stop-color="#A7DCF5"/>
<stop offset="0.87" stop-color="#A7DCF5"/>
<stop offset="0.99" stop-color="#8CD4F5"/>
</linearGradient>
<linearGradient id="paint2_linear_5349_49108" x1="247.438" y1="24.6616" x2="370.65" y2="97.1618" gradientUnits="userSpaceOnUse">
<stop stop-color="#CEE8FB"/>
<stop offset="0.24" stop-color="#C0E3F8"/>
<stop offset="0.57" stop-color="#A7DCF5"/>
<stop offset="0.87" stop-color="#A7DCF5"/>
<stop offset="0.99" stop-color="#8CD4F5"/>
</linearGradient>
<linearGradient id="paint3_linear_5349_49108" x1="165.828" y1="117.008" x2="60.3458" y2="168.599" gradientUnits="userSpaceOnUse">
<stop stop-color="#CEE8FB"/>
<stop offset="0.24" stop-color="#C0E3F8"/>
<stop offset="0.57" stop-color="#A7DCF5"/>
<stop offset="0.87" stop-color="#A7DCF5"/>
<stop offset="0.99" stop-color="#8CD4F5"/>
</linearGradient>
<clipPath id="clip0_5349_49108">
<rect width="319" height="235" fill="white" transform="translate(0.5)"/>
</clipPath>
</defs>
</svg>
