<?xml version="1.0" encoding="UTF-8"?><svg id="a" xmlns="http://www.w3.org/2000/svg" viewBox="0 0 55 55"><rect width="55" height="55" style="fill:none;"/><path d="M36.95,7.99c1.62,1.75,2.11,4.41,1.59,6.7l.05.08c1.96-.6,3.9.14,5.48,1.23.68.54,1.14,1.04,1.63,1.74,2.1,3.07,1.72,7.15-.98,9.75-1.32,1.43-2.67,2.81-4.03,4.14-.04.04-.07.07-.11.11-.03,0-.05.02-.08.03-.06.04-.11.09-.16.14-2.02,2.04-4.05,4.08-6.1,6.1-.05.05-.09.09-.09.16-.04.04-.07.07-.11.11l-.16.09c-1.03,1.03-2.07,2.04-3.14,3.03-1.03,1.06-.74,1.52.21,2.47.88.76,1.71,1.58,2.47,2.45,1.6,2.13-.83,4.58-3.06,2.71-1.1-.92-2.14-2.09-3.01-3.18-1.93-2.05-1.92-5.11.18-7.07,1.63-1.62,3.26-3.22,4.88-4.8.95-.96,1.88-1.93,2.83-2.89.9-.82,2.11-2.04,2.97-3l.03-.05c.59-.61,1.21-1.19,1.8-1.8.23-.16.64-.58.91-.87,1.14-1.2,2.15-2.29,1.73-4.07-.02-.1-.19-.66-.24-.51-.68-1.46-2.39-2.13-3.92-1.74-.51.02-1.13.45-1.5.81-.68.65-1.37,1.33-2.04,2.01-2.5,2.6-5.03,5.15-7.62,7.65-1.38,1.33-2.96,2.16-4.78,1.18-.08-.05-.14-.1-.22-.16l.02-.05c-1.1-1.01-1.15-2.47-.07-3.5.3-.25.55-.53.76-.81.07-.07.15-.14.22-.22l.08-.04c3.29-3.17,6.89-6.69,10.01-10.14,3.2-4.22-1.8-7.81-5.2-4.47-2.42,2.26-4.76,4.59-7.04,6.99-.04.13-.09.24-.17.33-.62.68-1.31,1.4-1.98,2.02-.09.08-.2.13-.33.17-.66.69-1.33,1.34-2,1.95l-.07.14c-.84.83-1.67,1.67-2.5,2.51-.8.8-1.67,1.65-2.61,2.56-1.97,1.67-4.59-.91-3.11-2.98,2.32-2.39,4.67-4.75,7.03-7.1.65-.75,1.34-1.46,2.07-2.12.98-1.05,1.97-2.09,2.99-3.11,1.49-1.53,2.99-3.04,4.49-4.54l.03-.09c.33-.31,1.19-1.27,1.58-1.36,3.21-2.19,7.85-1.81,10.39,1.31Z" style="fill:#002c98;"/><path d="M23.29,25.97c2.56-2.58,5.2-5.09,7.73-7.71,1.04-1.08,2.79-2.67,3.18-4.12.77-2.88-1.76-4.82-4.43-3.84-.74.27-1.31.81-1.88,1.33-3.83,3.55-7.58,7.57-11.29,11.28-.13-.14.22-.3.3-.38,3.82-3.58,7.35-7.72,11.21-11.22.28-.25.62-.56.94-.75,2.71-1.65,6.12.23,5.28,3.54-.38,1.49-1.64,2.5-2.65,3.56-2.61,2.72-5.42,5.71-8.19,8.26-.04.04-.14.18-.19.05Z" style="fill:#11155d;"/><path d="M15.4,17.91c-2.33,2.38-4.66,4.76-6.99,7.13-1.09,1.48.09,3.55,1.91,3.43.47-.03.77-.3,1.17-.49.02.02.02.03,0,.05-2.13,1.72-4.74-1.14-3.08-3.16,2.34-2.35,4.67-4.71,6.99-7.08.06,0,.06.03,0,.11Z" style="fill:#101559;"/><path d="M36.95,7.94c.07.09.2.16.29.28,1.41,1.8,1.86,4.32,1.34,6.53,1.93-.61,3.96.05,5.5,1.25-.05.13-.15-.02-.19-.05-1.64-1.07-3.47-1.78-5.41-1.04.03-.5.19-.99.22-1.5.11-1.86-.53-4-1.74-5.42v-.05Z" style="fill:#111a65;"/><path d="M36.95,7.94v.05c-2.08-2.43-5.67-3.3-8.65-2.15-.53.2-1.32.75-1.74.84,3.06-2.28,7.54-1.81,10.15.93.09.09.16.23.24.33Z" style="fill:#0e155d;"/><path d="M44.73,27.55v-.05c2.51-2.79,3.14-6.28,1.02-9.55-.03-.05-.16-.17-.04-.2,1.91,2.72,1.87,6.09-.06,8.79-.26.36-.56.77-.92,1.02Z" style="fill:#0c1057;"/><path d="M20.46,12.68v-.05c1.5-1.53,2.97-3.09,4.52-4.58.13.05-.01.15-.05.19-1.42,1.52-3.01,2.95-4.46,4.44Z" style="fill:#12185e;"/><path d="M20.46,12.68c-.93,1.07-1.99,2.08-2.99,3.11-.06,0-.06-.03,0-.11,1-1.02,1.99-2.04,2.99-3.05v.05Z" style="fill:#12175e;"/><path d="M14.09,25.42c-.83.83-1.72,1.89-2.61,2.61v-.05c.8-.85,1.63-1.66,2.45-2.48.03-.03.14-.19.16-.08Z" style="fill:#1b1e5e;"/><path d="M17.47,15.78c-.69.71-1.38,1.42-2.07,2.12v-.11c.69-.71,1.38-1.42,2.07-2.12v.11Z" style="fill:#13195d;"/><path d="M33.2,6.41c.09.12,0,.17-.14.16l-.48-.04c-.18.2-.46.44-.54.05-.14.17-.28.23-.43.17-.13.1-.27.19-.42.27.54-.48.47.28.07.3-.32.02-.36-.34-.07-.3-.07.07-.14.11-.2.02-.18.17-.49.39-.51.02-.09,0-.15.06-.15.18-.28.04-.6.12-.91.2l-1.42.85c-.29.17-1.45.94-1.46,1.26.03.17.04.33.01.46l-1.04.87c-.03.24-.18.46-.43.64.02.16,0,.32-.15.41-.22.04-.35.19-.41.4-.03.11,1.4-1.4,1.57-1.59.11-.12.85-.93.89-.65,0,.03,0,.06-.02.09l-.14.23c-4.85,4.93-9.89,10.03-14.76,14.81-.45.41-.92.83-1.46,1.1-.3.15-.74.33-1.05.2l-.07.09c-.43-.19-.54-.18-.56.3h-.13c-.26-.64-.11-1.1.3-1.59.96-1.15,2.38-2.35,3.46-3.46,1.89-1.93,3.71-3.93,5.66-5.8l1.58-1.58c.09-.1.18-.22.27-.33l2.67-2.67c1.15-1.16,2.33-2.49,3.54-3.57,1.92-1.72,4.49-2.15,6.97-1.5Z" style="fill:#147af6;"/><path d="M31.62,8.26c.28-.22.86.05,1.17.22.37.2.69.49.96.82v.16c.21.08.3.19.26.33.15-.01.16,0,.05.11.08.16.22.38,0,.49-.99-1.05-2.87-1.31-4.2-.91-1.01.3-1.72,1.01-2.44,1.7-4.81,4.68-9.47,9.51-14.23,14.25-.54.54-2.07,2.12-2.7,2.31s-1.48-.22-1.74-.84c.23-.2-.21-.42.22-.44l-.06-.11c.08-.06.52.15.6.16.09.11.52.03.72-.05.68-.28,1.24-.72,1.78-1.24l7.65-7.58c2.4-2.48,4.87-4.96,7.3-7.37,1.28-1.27,2.77-2.19,4.65-2.01Z" style="fill:#0660d9;"/><path d="M26.94,10.17c-.05-.13-.15.01-.19.05-.89.82-1.64,1.78-2.56,2.56-.09-.15.42-.41.14-.46.16-.06.17-.29.24-.36.12-.12.28-.08.36-.19.08-.11,0-.23.03-.3.06-.16.48-.34.44-.65l1.11-.95c-.25-.12-.1-.11-.09-.19.01-.07-.01-.14,0-.18.19-.62,1.89-1.57,2.47-1.88.16-.09.33-.24.51-.31.25-.09.54-.05.73-.25.15.31.1.01.11,0,.14-.23.55-.12.3.08.08.08.47-.26.49-.33-.28-.2.04-.29.19-.41.08-.06.07-.26.24-.14-.33.19-.18.46-.38.71,0,.05.07.03.11.03-.02.03-.12.15-.11.16.22.11.32-.04.44-.22-.15-.07-.21.03-.33.05.08-.11.35-.36.46-.44.14-.09-.03.2.11.11.11-.07.23-.33.4-.15,0,0-.05.19.09.15.03,0,.3-.29.38-.33l.03.11c.18-.08.29-.01.46,0,.04,0,.08-.05.09-.05.25.03.58.23.82.33-.12.03.07.09.03.16-.03.07-.18.12-.19.22l.27-.05-.11.22c.22-.02.25-.34.49-.14l-.16.16.11.05-.16.16c-.02.05.13,0,.11.05-.06.15-.47.28-.54.46.42-.15.72-.48,1.06-.76l.03.11.16.03-.6.46c.21.06.26-.15.44-.16l-.22.24c.2.03-.04.14.14.14l.41-.33-.93.87c.49-.14.85-.6,1.28-.87.08.19-.31.29-.35.41-.05.1.1.07.1.11s-.05.07-.02.14c.08.15.41-.26.46-.3.09-.07.06-.12.16,0-.35.27-.64.57-1.03.79.05-.08.2-.23.14-.33l-.52.38c.2-.03-.04.12.13.11.06-.12.16-.12.25-.16-.06.09-.13.17-.22.25.16.08.34-.32.54-.27-.15.29-.62.41-.79.57-.11.1-.18.37-.41.44-.02-.03-.04-.08-.05-.11-.02-.15-.11-.26-.27-.33-.49-.65-1.27-1.19-2.12-1.2-1.92-.19-3.1.69-4.48,1.85-.06.05-.12.07-.2.06Z" style="fill:#0c6de6;"/><path d="M37.17,12.84c.09-.59.15-1.22.05-1.71-.02-.1-.08-.17-.09-.27-.01-.14.05-.65.23-.63.16.02.42,1.17.46,1.36.02,0,.04-.05.05-.06.03,0,.04,0,.05.03.23,1.32.12,3.06-.49,4.28-.25-.33-.41.22-.65.19.2-.38.87-.45.79-.9-.17.05-.35.43-.41.46-.08.05-.17-.03-.16-.06,0-.1.59-.47.65-.6.01-.02.01-.09-.03-.08-.12.07-.24.36-.41.3l.49-.52c-.31.13-.53.49-.79.71-.01,0-.08-.13-.08-.14,0-.04.53-.43.62-.52.06-.05.41-.38.35-.44-.43.39-.89.76-1.31,1.17-.03.03-.14.19-.16.08l-.05-.04c.09-.14.14-.29.16-.45.11-.22.3-.55.38-.76.2-.38.33-.96.33-1.42Z" style="fill:#0a69e3;"/><path d="M20.03,14.15c.86-.92,1.78-1.78,2.67-2.67l-2.67,2.67Z" style="fill:#2aa6ff;"/><path d="M18.18,16.05l1.58-1.58c-.52.56-1.03,1.06-1.58,1.58Z" style="fill:#32b4ff;"/><path d="M31.62,8.26c-2.59-.03-3.47,1.01-5.17,2.64-4.12,3.98-8.07,8.15-12.16,12.18-1.03,1.01-2.9,3.16-4.26,3.47-.15.03-.39.06-.54.03l.04-.07c1.28.2,2.86-1.82,3.67-2.61,2.79-2.75,5.68-5.43,8.41-8.25,1.76-1.82,3.45-3.76,5.33-5.48,1.36-1.24,2.74-2.11,4.68-1.91Z" style="fill:#001986;"/><path d="M37.17,12.84c.11.05.04.19.03.27-.05.33-.14.75-.26,1.05-.01.04-.05.22-.1.09.16-.42.26-.97.33-1.42Z" style="fill:#012ca2;"/><path d="M33.74,9.46l.38.11-.11.22c-.05-.08-.2-.23-.27-.33Z" style="fill:#147af6;"/><path d="M34.07,38.28c-.29.29-.55.59-.84.87-.8.79-1.99,1.73-2.67,2.56-.43.53-.56.95-.11,1.53.85,1.09,3.14,2.62,3.48,3.87.56,2.01-1.71,3.49-3.35,2.15-.98-.81-2.45-2.37-3.26-3.35-.07-.08-.04-.11.05-.05.62.76,2.74,3.04,3.5,3.5,1.52.92,3.26-.23,3.02-1.99-.18-1.32-2.81-3.09-3.63-4.21-.34-.46-.17-1.01.16-1.42.98-1.18,2.45-2.21,3.46-3.4l.19-.05Z" style="fill:#101459;"/><path d="M38.53,19.05c-.52.13-.95.41-1.36.73-3.61,3.54-7.08,7.24-10.78,10.67-1.21.71-2.56,1.09-3.8.25.03-.11.16.01.21.04,1.6.81,3.12.09,4.34-1.02,3.32-2.99,6.36-6.57,9.61-9.67.42-.4.97-.86,1.53-1.03.08-.02.21-.08.26.02Z" style="fill:#101359;"/><path d="M27.37,45.85l-.05.05c-1.84-2.2-2.01-4.8.03-6.97,1.58-1.7,3.44-3.3,5.09-4.96.11.02-.06.14-.08.16-1.63,1.63-3.64,3.36-5.12,5.07-1.82,2.1-1.54,4.59.14,6.65Z" style="fill:#101962;"/><path d="M40.6,31.74c-2.14,2.14-4.27,4.3-6.42,6.43-.1-.01.03-.17.05-.19,2.09-1.96,4.09-4.04,6.1-6.1.02-.02.24-.22.27-.14Z" style="fill:#192062;"/><path d="M40.05,26.24c1.43-1.48,3.47-3.16,2.39-5.45-.02-.17.05-.12.1-.01,1.09,2.3-.89,3.94-2.33,5.38-.03.03-.14.19-.16.08Z" style="fill:#0e1762;"/><path d="M23.07,26.19c.12.04,0,.15-.05.19-1.4,1.31-2.14,2.36-.63,4.06.07.08.15.12-.03.11-.78-.69-1.1-1.66-.73-2.67.26-.7.94-1.17,1.44-1.69Z" style="fill:#101965;"/><path d="M44.73,27.55c-1.25,1.43-2.68,2.74-4.03,4.09-.11-.02.06-.14.08-.16,1.3-1.3,2.72-2.62,3.95-3.98v.05Z" style="fill:#141b61;"/><path d="M35.26,31.09c1-1.01,2-2.03,2.99-3.05.13.05-.01.15-.05.19-.88.94-1.86,1.86-2.78,2.78-.03.03-.14.19-.16.08Z" style="fill:#0c1561;"/><path d="M37.88,11.53c.08.17-.08.18-.17.03-.02-.13-.3-1.21-.36-1.2-.07,0-.17.6-.03.7.11.54.05,1.11-.02,1.65l-.13.13c0,.47-.11,1-.33,1.42.14.15-.19.75-.38.76-.47,1.24-1.39,2.48-2.31,3.43-2.75,2.76-5.5,5.52-8.23,8.29-.51.5-1.09,1.06-1.7,1.36v.13c-.13.14-.7.52-.89.54-.18-.06-.38-.07-.58-.02-.05.15-.17.11-.19-.04l-.12.14c.02.16,0,.32-.18.23-.17-1.2,1.08-2.09,1.85-2.89l2.94-2.94c2.15-2.17,4.58-4.4,6.61-6.65,1.61-1.78,2.21-4.29.41-6.21.02-.14,0-.26-.07-.38l.07-.11c.12-.26.32-.58.61-.7.03-.1.11-.2.26-.28l-.17.14c-.09.19-.22.15-.26-.05-.06-.36,1.19-.78.43-.08.21-.19.48-.47.19-.62-.11.1-.61.47-.72.44-.11-.03-.11-.1-.11-.2.42-.32.5-.5.22-.54-.07-.05-.07-.11-.07-.19-.56.56-1.02.23-.22-.19-.01-.13.01-.27.07-.4-.11.17-.32.26-.37,0-.23-.02-.21-.22-.03-.33-.05-.12-.03-.19.1-.15,2,.87,3.49,2.61,3.86,4.79Z" style="fill:#147af6;"/><path d="M36.35,15.51s.05-.02.07-.04c.23-.29,1.09-1.24,1.4-1.27.13,0,0,.35-.08.39,0,.34-.08.77-.32,1.06.07.03.06.1.03.18-.04.08-.1.13-.16.19.2.02,0,.21-.06.32-.45.68-1.3,1.46-1.87,2.05-2.26,2.35-4.66,4.78-7.02,7.03-.22.21-.85.86-1.04.98-.05.03-.07.04-.14.05.11-.12.2-.25.33-.35l-.11-.05c.11-.15.35-.27.38-.46l-.71.68.11.03-.11.16s.07,0,.11,0c-.67.77-1.74,1.49-2.18,2.34,0-.06-.21.03-.22.04-.07.06-.09.15-.16.21-.32.28-.63.57-.95.84l.19-.27-.22-.08.65-.6-.11-.05c.17-.12.37-.31.43-.52-.29.16-.86.97-1.12,1.03-.04,0-.13.02-.13-.03.19-.25.56-.32.54-.68l-.2.07-.81.74-.08-.03c.14-.04.18-.29.19-.3.12-.12.09-.05.22-.22.04-.06.15-.02.13-.11-.13.01-.11,0-.05-.11-.18.02-.3,0-.46.11l.03-.11s-.07,0-.11,0c.08-.19.27-.04.45-.06.35-.05.75-.38,1.02-.59.63-.36,1.22-.83,1.76-1.42,2.69-2.73,5.4-5.46,8.12-8.18.81-.89,1.58-1.84,2.14-2.91l.11-.08Z" style="fill:#0459d0;"/><path d="M28.3,45.8s-.1-.18-.1-.19c0-.05.18-.16.15-.19-.1-.03-.19.12-.27.08-.06-.03-.24-.21-.19-.3.1-.19,1.16-.84,1.23-1.06-.17-.05.01-.12-.16-.16l.52-.46.03.11c.3.04.16.1.18.15,0,.01.05,0,.08.04,0,.01-.11.16.18.08.77.83,2.9,2.45,3.22,3.4.1.28.13.58.03.87-.03.1-.13.13-.17.2-.03.07,0,.14-.09.25-.14.17-.46.33-.68.35-.66.06-1.07-.24-1.53-.65-.42-.38-2.25-2.14-2.42-2.51Z" style="fill:#0966df;"/><path d="M24.11,26.19c.96-1,1.96-1.96,2.94-2.94l-2.94,2.94Z" style="fill:#26a6ff;"/><path d="M46.04,20.25s-.08.08-.13.03c.15.8.06,1.59-.16,2.37l-.14.1c-.04.36-.16.71-.38,1.04.11.15.02.36-.16.38-.44.85-1.05,1.64-1.86,2.38-4.54,4.49-9,8.95-13.35,13.35-.81.99-1,1.8-.62,3.06h.12c.07.17.16.34.26.49.12.15.22.32.33.44-.05.26-.3.1-.35-.13-.21-.15-.55.21-.38.43-.36.39-.77.74-1.21,1.05l.13.16c.23-.19.45.01.22.21.02.08.04.13-.04.19-1.21-1.08-1.84-2.45-1.56-4.1.25-1.48,1.01-2,1.97-2.98,3.47-3.54,7-7.01,10.48-10.54,1.19-1.21,3.92-3.64,4.27-5.2.37-1.64-.39-3.3-1.77-4.2-.1-.14.02-.16.17-.14.1-.2.33-.44.46-.17.13-.27.34-.4.63-.42.51-.53.64-.02.15.32l-.6.49c.1-.1.18-.11.26-.03.32-.31.65-.61.99-.92-.02-.23.4-.66.61-.61.9.94,1.3,1.71,1.69,2.94Z" style="fill:#1479f4;"/><path d="M44.46,17.91l-.33.3.22.11-.57.57.14-.25-.11-.03c.26-.35-.12-.05-.25.11l-.03-.11c-.23.13-.19-.06-.08-.21.13-.17.49-.39.7-.44l.05.11.25-.16Z" style="fill:#0a67e0;"/><path d="M44.2,17.68s.14-.09.16-.02c-.21.26-.57.21-.19-.08.05-.02.01.08.03.1Z" style="fill:#0a67e0;"/><path d="M44.68,18.18c-.11.13-.25.35-.44.38.11-.13.25-.35.44-.38Z" style="fill:#0a67e0;"/><path d="M36.35,15.51c-.91,1.97-2.81,3.65-4.33,5.17s-2.9,2.92-4.35,4.36c-.92.91-2.11,2.31-3.16,2.99-.05.03-.24.17-.29.06.37-.29.82-.66,1.17-.98,2.99-2.75,5.73-5.93,8.71-8.72.93-1.08,1.74-2.09,2.37-3.38.1.08-.06.38-.11.49Z" style="fill:#001986;"/><path d="M44.35,17.31l-.54.52.11.05c-.14.2-.39.32-.55.49-.35.36-.18.34-.68.63-.07.04-.15.24-.24.14l.27-.3-.3.22c-.17,0,.06-.1-.14-.14.02-.06.63-.52.74-.63.05-.05.36-.32.3-.38-.14.02-.24.2-.33.24-.1.05-.21-.02-.4.14s-.25.55-.52.52l.16-.35c-.18-.04-.29.29-.33.32-.04.03-.18-.1-.21,0-1.78-1.16-3.79-.64-5.22.74-2.35,2.26-4.61,4.61-6.91,6.92-1.33,1.33-3.25,3.67-5.1,3.99-.86.15-2.06-.41-2.19-1.35.13-.06.05-.19.08-.27.09-.18.62-.59.3-.06.04,0,.07,0,.11,0,.18-.03.38-.04.58-.05l.11.16c.16-.18.5-.42.56-.06.17-.21.74-.83.63-.23-.15.15-.26.31-.31.48-.79.68-.43.54.22-.09.08-.18.39-.43.44-.16-.13.26-.22.55-.33.82l.68-.1c.74-.74,1.43-1.56,2.17-2.3,2.76-2.73,5.62-5.39,8.41-8.09.3-.29.65-.62.93-.93.32-.35.53-.79.92-1.09l-.11-.05c.11-.11.22-.21.31-.35.22-.33.39-.97.71-1.14,1.76-.92,4.44.43,5.68,1.73Z" style="fill:#0a67e0;"/><rect x="26.89" y="26.59" width="4.39" height=".12" transform="translate(-10.33 28.35) rotate(-44.96)" style="fill:#0139ad;"/><path d="M45.6,22.76c.14-.48.27-1.11.27-1.61,0-.47-.14-.97-.11-1.44l.14.43.13.12c1.72,5.55-4.14,8.71-7.24,12.23-2.91,3.06-5.97,5.97-8.98,8.94-.45.64-.36,1.32-.22,2.04,0,0-.08,0-.13-.05-.05-.05-.21-.36-.25-.44-.35-1.22-.22-2.03.63-3.07,1.6-1.59,3.22-3.22,4.84-4.89l5.65-5.58c.27-.36.58-.66.93-.9.73-.72,1.5-1.51,2.22-2.28.61-.65,1.18-1.26,1.57-2.08.06-.12.11-.26.16-.38.22-.33.35-.67.38-1.04Z" style="fill:#055bd4;"/><path d="M45.06,24.17c-.7,1.56-1.83,2.48-3.02,3.65-.22.21-.63.79-.87.93-.07.04-.15,0-.19.02-.06.05-.43.61-.57.74-2.73,2.65-5.47,5.26-8.11,8.01-.24.25-.17.22-.32.44-.14.21-.52.41-.71.6-.78.73-2.03,1.84-2.14,2.92-.02.23-.07.79.09.92v.57c-.88-2.17.8-3.3,2.08-4.6,4.35-4.43,8.79-8.77,13.14-13.22l.63-.97Z" style="fill:#00208f;"/><path d="M45.22,23.79c.15-.37.27-.64.38-1.04.1.05.04.18.02.26-.08.24-.21.6-.4.77Z" style="fill:#00208f;"/><rect x="38.07" y="31.58" width=".46" height=".08" transform="translate(-11.14 36.32) rotate(-44.97)" style="fill:#00208f;"/><path d="M21.11,21.39c2.8-2.83,5.61-5.65,8.43-8.46,1.82-1.8,3.95.1,2.86,2.18-2.65,2.79-5.36,5.51-8.15,8.16-1.22,1.21-2.42,2.45-3.57,3.73-3.24,3.63.36,7.91,4.51,6.43.51-.17.96-.49,1.41-.76l6.86-6.86c1.38-1.39,2.84-3.06,4.3-4.33.78-.68,1.51-.99,2.45-.35.9.83.98,1.92.16,2.95-.47.5-.95.99-1.41,1.46-.88.9-1.78,1.78-2.67,2.67-2.71,2.74-5.47,5.43-8.27,8.06-.03.02-.06.07-.11.11-1.73,1.23-3.78,2-6.02,1.7-4.3-.57-7.51-5.23-6.39-9.45.33-1.23.98-2.23,1.69-3.2.04-.05.08-.08.11-.11,1.12-1.15,2.29-2.36,3.46-3.5l.03-.1c.11-.11.22-.22.33-.33Z" style="fill:#002d98;"/><path d="M17.31,25.32c1.09-1.27,2.29-2.42,3.48-3.6.13.05-.01.15-.05.19-1,1.08-2.14,2.04-3.1,3.16l-.33.24Z" style="fill:#0d1764;"/><path d="M23.4,38.17c-.28.09-.71.09-.98,0,.3.02.68.02.98,0Z" style="fill:#929ed7;"/><path d="M25.2,33.43l.04.07c-3.83,1.33-7.47-2.16-5.09-5.91,3.87-4.34,8.26-8.24,12.23-12.49,1.01-2.13-.99-3.87-2.85-2.09-2.84,2.71-5.62,5.65-8.41,8.39l8.71-8.79c1.99-1.51,3.93,1.08,2.39,2.83-3.53,3.84-7.71,7.33-11.18,11.2-1.17,1.3-1.99,2.85-1.3,4.63.83,2.16,3.4,2.88,5.47,2.18Z" style="fill:#121c65;"/><path d="M27.92,36.37c-1.35,1.03-2.79,1.7-4.52,1.8-.32.05-.66.05-.98,0-4.33-.23-7.75-4.64-7.11-8.89.23-1.52.92-2.71,1.89-3.86.13.05-.02.15-.05.19-2.18,2.77-2.47,6.07-.45,9.06,2.64,3.89,7.28,4.44,11.03,1.76.05-.03.15-.18.19-.05Z" style="fill:#0f1359;"/><path d="M36.3,28.2c-2.21,2.21-4.41,4.5-6.67,6.65-.53.5-1.04.96-1.61,1.41l8.27-8.06Z" style="fill:#0d1560;"/><path d="M26.61,32.67c2.31-2.26,4.58-4.57,6.86-6.86l-6.86,6.86Z" style="fill:#101a65;"/><path d="M38.97,25.53c-.11-.02.06-.14.08-.16.53-.53,1.65-1.51,1.8-2.23s-.02-1.33-.55-1.86c-.03-.02-.19-.14-.08-.16.73.49.9,1.28.68,2.12s-1.32,1.66-1.93,2.29Z" style="fill:#0f1a66;"/><path d="M16.54,32.94c.16-.11-.06-.3-.04-.4.01-.07.13-.1.1-.2-.47.07.2-.56.27-.49-.05.11-.23.26-.27.35s.08.11.11.08c.04-.04.15-.41.33-.46l-.11-.05c.11-.09.21-.25.33-.33.26-.19-.12.23-.11.25.28.11.13-.08.24-.17.06-.05.33-.05.3-.27l-.22.03c.04-.1.35-.56.35-.24,0,.13-.19.11.08.24l-.22.19c.12.08.51-.36.49-.38-.11-.11-.23.09-.33.03l.79-.74c.1.2.07.44.12.66.03.11.12.23.13.36s-.16.02-.11.18c.24-.12.12-.02.19.11s.07,0,.08,0c.06.02.45.82.6,1.01.65.82,2.05,1.65,3.1,1.77l-.08.11.08.05c.23.1.28-.08.49-.03-.15.38-.5.52-.76.82l.22.11-.74.74-.13-.03.16-.19-.33.14c.14-.26.67-.22.54-.57l-.82.65c-.36-.02-.78-.15-1.09-.33-.04-.02-.1-.1-.17-.13-.62-.29-1.11-.6-1.68-.96l.16-.14-.22.03c.25-.33-.06-.05-.11-.08-.07-.03-.22-.24-.29-.28-.32-.21-.54-.35-.85-.59-.08-.06-.12-.17-.11.03-.17-.29-.36-.55-.49-.87Z" style="fill:#0e70eb;"/><path d="M32,14.42c-.12.42-.58.91-.93,1.17l.08.08-10.8,10.57c-.04-.05-.03-.09,0-.14.66-1.03,1.34-1.88,2.24-2.85,2.84-3.09,5.82-5.98,8.84-8.79l.13-.05c.02.1.14-.01.17-.04.06-.07.1-.2.22-.23l.05.27Z" style="fill:#055bd3;"/><path d="M40.27,22.65c-.04.21-.23.3-.22.05l-.05-.06c-3.35,3.32-6.89,6.84-10.23,10.22-2.16,2.14-5.03,4.11-8.18,3.46-.07.06-.11.04-.11-.05-.04.03-.08.04-.11,0-.02-.04-.04-.1-.02-.12.11-.11.75-.63.85-.6.11.33.39.09.18-.11.17-.24.39-.47.64-.69-.25.12-.69-.16-.29-.27.09,0,.18,0,.27,0,.23.05.47.05.71,0,3.17-.15,4.96-2.73,7.02-4.82,2.42-2.44,4.98-5.36,7.53-7.6.2-.17.47-.43.72-.48.7-.12,1.26.38,1.27,1.08Z" style="fill:#1479f5;"/><path d="M23.73,34.47c-.17.09-.54.09-.71,0,.22.01.49.01.71,0Z" style="fill:#0e70eb;"/><polygon points="23.13 35.34 22.69 35.8 22.09 36.26 22.47 35.86 23.13 35.34" style="fill:#0e70eb;"/><path d="M31.51,13.11l-.07.09c-.38-.1-.47-.07-.72.22-.18,0-.29.12-.34.33-.12.14-.57.53-.66.26-.03-.02-.55.53-.15.46.35.21-.58.92-.71.48l-1.54,1.59c0,.17-.11.33-.31.47.04.32-.47.96-.77.74-.43.2-.8.54-1.09,1.03-.7.54-1.36,1.16-1.97,1.86.19.16.08.48-.05.66.1.32-.54,1.06-.88.88-.1.03-.71.49-.51.62.06-.33.48-.47.37-.07.17.22-.07.42-.31.43-.08.26-.25.49-.51.68.16.18.09.32-.24.42l-.77.7.07.17c-.16.32-.14.33.08.02.48-.33.79-.69,1.04-1.23.03-.15.79-.73.85-.71s.06.07.03.13l-.08.2c-.86,1.02-1.65,2.09-2.42,3.18-.3.5-.63.99-.83,1.54-.38,1.09-.36,2.33.01,3.41.08.31-.57-.16-.27-.32-.11-.25-.17-.52-.19-.79l-.4.38c.25.23-.3.72-.53.57l-.19.07c-.04.21-.19.3-.37.16-.11.29-.27.55-.48.8.09.16.19.46-.07.38-.63-1.52-.63-3.44-.04-4.97.7-1.81,2.92-3.79,4.28-5.19,2.67-2.73,5.43-5.38,8.11-8.11.31-.31,1.25-1.46,1.56-1.59.24-.1.84-.14,1.05.04Z" style="fill:#177df8;"/><path d="M21.11,22.65c.06.14-.15.25-.15.3,0,.04.09.07.07.14-.05.13-.27.03-.33.16-.22-.16.3-.41.41-.6Z" style="fill:#1177f3;"/><path d="M20.95,23.3c-.14.16-.32.38-.49.52-.09.07-.06.12-.16,0l.65-.52Z" style="fill:#1177f3;"/><rect x="21.01" y="23" width=".46" height=".08" transform="translate(-10.07 21.75) rotate(-44.97)" style="fill:#1177f3;"/><path d="M17.03,33.81c-.06-.11-.06-.17.01-.19.07-.02,1.14.74,1.26.91.22-.13.34.09.37.32.55.34,1.1.66,1.65.96l-.02.12c.32.16.81.38,1.2.33.05,0,.12-.02.11.05,3.18.66,6.08-1.37,8.25-3.53,3.21-3.27,6.51-6.56,9.81-9.81l.39-.28c.08.09.14,0,.22-.05,0,.35-.09.55-.3.82-.74.95-2.15,2.14-3.05,3.05-1.76,1.78-3.55,3.57-5.34,5.34-1.42,1.41-2.95,3.11-4.58,4.24-3.55,2.46-7.82,1.33-9.98-2.28Z" style="fill:#065fd7;"/><path d="M21.6,36.32c1.16.12,2.38.13,3.48-.3,2.91-1.14,4.65-3.28,6.78-5.42,1.96-1.97,3.95-3.89,5.93-5.83.65-.63,1.24-1.36,1.9-1.96.06-.06.41-.37.44-.38.02-.01.09-.01.08.03l-.16.25c-2.35,2.33-4.75,4.64-7.02,7-1.29,1.34-2.75,2.88-4.13,4.09-1.97,1.72-4.66,3.14-7.35,2.58l.05-.05Z" style="fill:#001885;"/><path d="M20.3,35.94c.32.14.75.25,1.09.33.03,0,.08,0,.11,0-.05.1-.19.05-.27.03-.32-.07-.65-.19-.96-.3l.03-.06Z" style="fill:#001885;"/><path d="M30.2,33l.33-.35-.11-.05,1.55-1.5.05.11.68-.65-.11.19c-.64.59-1.23,1.3-1.88,1.88-.14.13-.34.31-.52.38Z" style="fill:#0135a8;"/><rect x="38.51" y="24.42" width=".62" height=".08" transform="translate(-5.93 34.59) rotate(-44.97)" style="fill:#002d98;"/><path d="M31.51,13.11c.49.16.62.86.49,1.31-.07.02-.12.01-.13-.06-.08.17-.37.32-.31.06l-.05-.05c-2.97,2.75-5.84,5.6-8.62,8.55-.16.17-.33.32-.52.44-.02-.11-.14.06-.16.08-.18.18-.39.24-.52.41-.18.23-.34.59-.49.81-.16.24-.7.53-.79.74-.01.02-.01.09.03.08l.22-.22.03.08-.92,1.36c-.1.07-.05-.1-.03-.14.04-.08.16-.1.13-.22-.03-.03-.42.43-.54.35l.76-.71-.11-.05c.06-.09.27-.22.3-.3.03-.06-.13-.2-.12-.3.02-.14.26-.05-.02-.38.16-.09.27-.24.41-.36.13-.11.3-.28.46-.41.09-.07.25-.06.33-.21l-.22.03c-.07-.11.48-.58.55-.68.05-.09,0-.16.04-.22.06-.09.31.02.39-.27,0-.02-.25-.02,0-.22-.19-.11-.21.2-.27.27-.15.19-.32.32-.54.41-.08-.08.33-.36.36-.43.03-.08-.09-.14-.06-.22s.55-.52.65-.56c.14-.05.18.08.26.04.09-.04.51-.52.57-.63.03-.05.03-.1.03-.16-.15.07-.26.37-.38.11.39-.1.49-.34.49-.71-.2.04-.19.32-.23.37-.02.02-.12.02-.18.06-.13.09-.13.22-.35.08.77-.76,1.52-1.53,2.28-2.29.1-.09.23-.12.33-.21.33-.3.69-1.08,1.22-1.1.06,0,.12.08.16.07.05,0,.44-.42.47-.5.05-.12-.02-.18.04-.28s.26-.22.33-.33l-.11-.05,1.77-1.82.08.27c.14.05.64-.4.6-.44-.1-.04-.16.11-.19.11-.14,0,.08-.38-.19-.11-.11-.16.61-.84.76-.9.34-.12-.24.34-.14.41.09-.15.35-.29.45-.39.01-.02.11-.31.19-.36.03-.02.1.04.15.01.12-.06.25-.26.28-.28.09-.05.47,0,.59.04Z" style="fill:#1177f3;"/><path d="M22.37,23.35c2.94-3.3,6.24-6.22,9.36-9.34.31-.07-.08.31-.16.41-.88,1.06-2.15,2.01-3.16,2.97-2.38,2.27-4.72,4.64-6.8,7.19-.17.21-.59.56-.71.76-.18.3-.28.57-.54.9-.11.15-.2.19-.34.4-.02.03-.12.21-.15.09.73-1.22,1.56-2.32,2.5-3.38Z" style="fill:#001886;"/><path d="M20.24,25.42c.04-.24.36-.26.11-.52.27-.09.38-.33.62-.46.07.06.1.07.06.16-.09.17-.64.61-.79.82Z" style="fill:#177df8;"/><rect x="21.05" y="24.22" width=".35" height=".12" transform="translate(-10.95 22.1) rotate(-44.97)" style="fill:#177df8;"/></svg>