<svg version="1.1" xmlns="http://www.w3.org/2000/svg" viewBox="0 0 200 200" preserveAspectRatio="xMidYMid meet">
    <path d="M0 0 C66 0 132 0 200 0 C200 66 200 132 200 200 C134 200 68 200 0 200 C0 134 0 68 0 0 Z " fill="#FDFDFD" transform="translate(0,0)"/>
    <path d="M0 0 C6.921 3.759 12.908 9.372 15.727 16.812 C16.721 21.271 16.571 25.696 16.266 30.23 C16.944 30.172 17.622 30.114 18.32 30.055 C26.821 29.643 32.579 31.612 39.305 36.805 C44.792 41.813 47.763 47.179 48.68 54.566 C49.077 64.197 47.082 71.192 40.485 78.405 C37.59 81.422 34.603 84.343 31.595 87.247 C29.582 89.19 27.587 91.149 25.596 93.113 C20.655 97.979 15.689 102.82 10.719 107.656 C6.502 111.762 2.296 115.88 -1.893 120.015 C-3.86 121.946 -5.843 123.859 -7.828 125.773 C-9.026 126.952 -10.223 128.132 -11.419 129.314 C-11.976 129.841 -12.533 130.368 -13.107 130.912 C-14.811 132.551 -14.811 132.551 -16.734 135.23 C-16.718 139.11 -15.919 140.033 -13.23 142.914 C-11.707 144.314 -10.158 145.68 -8.596 147.037 C-5.921 149.508 -4.791 150.787 -4.324 154.457 C-4.734 157.23 -4.734 157.23 -5.859 159.168 C-7.734 160.23 -7.734 160.23 -10.434 160.184 C-14.958 158.877 -17.231 156.397 -20.422 153.043 C-21.274 152.195 -21.274 152.195 -22.143 151.33 C-26.18 147.198 -29.138 143.212 -30.297 137.418 C-28.455 126.978 -17.754 118.9 -10.531 111.805 C-9.243 110.528 -7.956 109.25 -6.67 107.971 C-3.304 104.627 0.071 101.292 3.448 97.959 C8.868 92.61 14.28 87.252 19.683 81.886 C21.568 80.018 23.458 78.157 25.35 76.296 C26.503 75.153 27.657 74.01 28.81 72.866 C29.598 72.095 29.598 72.095 30.403 71.309 C34.525 67.2 36.549 64.265 36.641 58.418 C36.51 53.487 35.7 49.878 32.266 46.23 C27.92 42.925 23.127 41.371 17.664 41.76 C9.148 43.432 2.535 51.642 -3.176 57.6 C-4.682 59.168 -6.199 60.723 -7.721 62.276 C-12.039 66.684 -16.342 71.108 -20.62 75.555 C-23.252 78.289 -25.904 81.004 -28.568 83.706 C-29.575 84.735 -30.574 85.772 -31.565 86.815 C-32.947 88.27 -34.357 89.698 -35.768 91.125 C-36.56 91.944 -37.353 92.763 -38.169 93.607 C-40.734 95.23 -40.734 95.23 -44.545 94.987 C-45.597 94.737 -46.65 94.488 -47.734 94.23 C-48.504 91.053 -48.504 91.053 -48.734 87.23 C-47.021 84.582 -47.021 84.582 -44.413 82.065 C-43.706 81.366 -43.706 81.366 -42.985 80.652 C-41.426 79.119 -39.84 77.615 -38.254 76.109 C-37.161 75.042 -36.071 73.973 -34.983 72.901 C-32.112 70.084 -29.22 67.29 -26.322 64.502 C-21.696 60.048 -17.096 55.568 -12.51 51.074 C-10.911 49.515 -9.298 47.971 -7.684 46.428 C-1.905 40.84 3.075 35.844 4.797 27.727 C4.716 22.381 3.854 18.328 0.266 14.23 C-3.764 10.702 -8.029 9.468 -13.353 9.807 C-20.309 11.045 -25.696 16.782 -30.406 21.689 C-31.021 22.316 -31.635 22.942 -32.268 23.588 C-33.588 24.936 -34.905 26.288 -36.219 27.642 C-38.3 29.785 -40.393 31.916 -42.49 34.044 C-48.445 40.091 -54.386 46.152 -60.302 52.237 C-63.932 55.968 -67.58 59.68 -71.242 63.38 C-72.631 64.792 -74.013 66.21 -75.386 67.636 C-77.303 69.626 -79.244 71.589 -81.192 73.548 C-81.752 74.143 -82.313 74.737 -82.891 75.349 C-85.918 78.339 -87.25 79.233 -91.581 79.211 C-92.621 78.887 -93.662 78.564 -94.734 78.23 C-96.208 75.284 -96.163 73.512 -95.734 70.23 C-94.098 67.701 -92.012 65.688 -89.866 63.586 C-89.242 62.951 -88.617 62.316 -87.974 61.662 C-85.904 59.565 -83.812 57.491 -81.719 55.418 C-80.267 53.962 -78.816 52.505 -77.366 51.048 C-74.319 47.992 -71.261 44.947 -68.195 41.909 C-64.288 38.036 -60.408 34.137 -56.536 30.228 C-53.541 27.211 -50.531 24.209 -47.517 21.21 C-46.082 19.779 -44.652 18.344 -43.226 16.904 C-31.098 4.683 -18.359 -7.033 0 0 Z " fill="#050505" transform="translate(122.734375,22.76953125)"/>
    <path d="M0 0 C2 3 2 3 1.911 5.868 C0.795 9.706 -0.733 11.326 -3.58 14.116 C-4.055 14.588 -4.53 15.06 -5.019 15.547 C-6.583 17.098 -8.165 18.631 -9.746 20.164 C-10.84 21.243 -11.932 22.324 -13.023 23.405 C-15.894 26.246 -18.778 29.071 -21.667 31.893 C-26.289 36.414 -30.893 40.953 -35.492 45.497 C-37.099 47.08 -38.713 48.655 -40.328 50.23 C-41.316 51.201 -42.303 52.172 -43.291 53.143 C-44.154 53.987 -45.017 54.83 -45.906 55.699 C-50.157 60.37 -50.439 64.149 -50.316 70.309 C-49.869 74.112 -48.546 76.179 -46 79 C-45.319 79.784 -44.639 80.567 -43.938 81.375 C-39.472 83.845 -34.993 83.769 -30 83 C-25.478 81.056 -22.431 78.783 -19.008 75.269 C-18.548 74.802 -18.089 74.335 -17.616 73.854 C-16.627 72.847 -15.642 71.837 -14.66 70.824 C-13.103 69.219 -11.536 67.625 -9.965 66.034 C-5.506 61.51 -1.064 56.968 3.369 52.418 C6.089 49.629 8.82 46.853 11.56 44.083 C12.598 43.028 13.631 41.968 14.66 40.903 C16.098 39.415 17.551 37.942 19.008 36.472 C19.829 35.631 20.65 34.789 21.497 33.922 C24.423 31.675 26.336 31.153 30 31 C32.438 32.625 32.438 32.625 34 35 C33.763 39.701 31.679 41.827 28.439 45.078 C27.966 45.559 27.493 46.039 27.005 46.534 C25.44 48.116 23.861 49.683 22.281 51.25 C21.183 52.351 20.085 53.453 18.987 54.556 C16.683 56.865 14.373 59.168 12.057 61.465 C9.106 64.393 6.173 67.339 3.245 70.291 C0.979 72.572 -1.297 74.843 -3.576 77.111 C-4.66 78.193 -5.741 79.277 -6.819 80.364 C-21.92 95.568 -21.92 95.568 -32.43 95.644 C-33.134 95.617 -33.838 95.59 -34.562 95.562 C-35.305 95.545 -36.047 95.528 -36.812 95.51 C-42.424 95.267 -46.608 94.528 -51 91 C-51.61 90.537 -52.219 90.074 -52.848 89.598 C-58.814 84.417 -62.028 77.287 -63.445 69.578 C-63.923 60.605 -59.874 53.822 -54.139 47.345 C-47.202 39.738 -39.874 32.484 -32.63 25.17 C-30.534 23.052 -28.448 20.923 -26.37 18.787 C-23.842 16.188 -21.297 13.606 -18.74 11.037 C-17.774 10.06 -16.814 9.078 -15.86 8.089 C-14.528 6.711 -13.172 5.357 -11.814 4.004 C-11.052 3.229 -10.289 2.453 -9.503 1.655 C-6.148 -0.563 -3.939 -0.519 0 0 Z " fill="#060606" transform="translate(115,44)"/>
</svg>