
<svg viewBox="0 0 16 17" fill="none" xmlns="http://www.w3.org/2000/svg">
<rect width="16" height="16" transform="translate(0 0.5)" fill="white"/>
<path d="M11.6931 6.37333C12.7829 6.37333 13.6664 5.48984 13.6664 4.4C13.6664 3.31016 12.7829 2.42667 11.6931 2.42667C10.6032 2.42667 9.71973 3.31016 9.71973 4.4C9.71973 5.48984 10.6032 6.37333 11.6931 6.37333Z" fill="currentColor"/>
<path d="M4.30634 6.37333C5.39618 6.37333 6.27967 5.48984 6.27967 4.4C6.27967 3.31016 5.39618 2.42667 4.30634 2.42667C3.2165 2.42667 2.33301 3.31016 2.33301 4.4C2.33301 5.48984 3.2165 6.37333 4.30634 6.37333Z" fill="currentColor"/>
<path d="M11.6931 14.5733C12.7829 14.5733 13.6664 13.6899 13.6664 12.6C13.6664 11.5102 12.7829 10.6267 11.6931 10.6267C10.6032 10.6267 9.71973 11.5102 9.71973 12.6C9.71973 13.6899 10.6032 14.5733 11.6931 14.5733Z" fill="currentColor"/>
<path d="M4.30634 14.5733C5.39618 14.5733 6.27967 13.6899 6.27967 12.6C6.27967 11.5102 5.39618 10.6267 4.30634 10.6267C3.2165 10.6267 2.33301 11.5102 2.33301 12.6C2.33301 13.6899 3.2165 14.5733 4.30634 14.5733Z" fill="currentColor"/>
</svg>
