<svg width="14" height="7" viewBox="0 0 14 7" fill="none" xmlns="http://www.w3.org/2000/svg">
<path d="M13 2.16671H0.99998C0.823169 2.16671 0.653599 2.09647 0.528575 1.97144C0.403551 1.84642 0.333313 1.67685 0.333313 1.50004C0.333313 1.32323 0.403551 1.15366 0.528575 1.02864C0.653599 0.903612 0.823169 0.833374 0.99998 0.833374H13C13.1768 0.833374 13.3464 0.903612 13.4714 1.02864C13.5964 1.15366 13.6667 1.32323 13.6667 1.50004C13.6667 1.67685 13.5964 1.84642 13.4714 1.97144C13.3464 2.09647 13.1768 2.16671 13 2.16671ZM13.6667 5.50004C13.6667 5.32323 13.5964 5.15366 13.4714 5.02863C13.3464 4.90361 13.1768 4.83337 13 4.83337H0.99998C0.823169 4.83337 0.653599 4.90361 0.528575 5.02863C0.403551 5.15366 0.333313 5.32323 0.333313 5.50004C0.333313 5.67685 0.403551 5.84642 0.528575 5.97144C0.653599 6.09647 0.823169 6.16671 0.99998 6.16671H13C13.1768 6.16671 13.3464 6.09647 13.4714 5.97144C13.5964 5.84642 13.6667 5.67685 13.6667 5.50004Z" fill="#757575"/>
</svg>
