<svg xmlns="http://www.w3.org/2000/svg" width="16" height="16" viewBox="0 0 16 16" fill="none">
  <path d="M7.99935 11.3333C8.73573 11.3333 9.33268 11.9303 9.33268 12.6667C9.33268 13.403 8.73573 14 7.99935 14C7.26297 14 6.66602 13.403 6.66602 12.6667C6.66602 11.9303 7.26297 11.3333 7.99935 11.3333Z" fill="white"/>
  <path d="M7.99935 6.66667C8.73573 6.66667 9.33268 7.26362 9.33268 8C9.33268 8.73638 8.73573 9.33333 7.99935 9.33333C7.26297 9.33333 6.66602 8.73638 6.66602 8C6.66602 7.26362 7.26297 6.66667 7.99935 6.66667Z" fill="white"/>
  <path d="M7.99935 2C8.73573 2 9.33268 2.59695 9.33268 3.33333C9.33268 4.06971 8.73573 4.66667 7.99935 4.66667C7.26297 4.66667 6.66602 4.06971 6.66602 3.33333C6.66602 2.59695 7.26297 2 7.99935 2Z" fill="white"/>
</svg>