<svg viewBox="0 0 90 89" fill="none" xmlns="http://www.w3.org/2000/svg">
<path d="M0.375 28C0.375 12.536 12.911 0 28.375 0H61.375C76.839 0 89.375 12.536 89.375 28V61C89.375 76.464 76.839 89 61.375 89H28.375C12.911 89 0.375 76.464 0.375 61V28Z" fill="#F0F9FF"/>
<path fill-rule="evenodd" clip-rule="evenodd" d="M33.043 33.6674C32.3523 33.6674 31.7924 34.2273 31.7924 34.918V55.7611C31.7924 56.4517 32.3523 57.0116 33.043 57.0116H55.9704C56.661 57.0116 57.2209 56.4517 57.2209 55.7611V39.6077C57.2209 38.917 56.661 38.3571 55.9704 38.3571H45.4584C44.6122 38.3571 43.8076 37.9897 43.2533 37.3502L43.8834 36.8042L43.2533 37.3502L40.4356 34.099C40.1981 33.8249 39.8532 33.6674 39.4905 33.6674H33.043ZM30.125 34.918C30.125 33.3064 31.4314 32 33.043 32H39.4905C40.3368 32 41.1414 32.3674 41.6957 33.0069L44.5134 36.2581L43.9286 36.765L44.5134 36.2581C44.7509 36.5322 45.0958 36.6897 45.4584 36.6897H55.9704C57.5819 36.6897 58.8884 37.9961 58.8884 39.6077V55.7611C58.8884 57.3726 57.5819 58.6791 55.9704 58.6791H33.043C31.4314 58.6791 30.125 57.3726 30.125 55.7611V34.918Z" fill="#026AA2"/>
<path fill-rule="evenodd" clip-rule="evenodd" d="M35.1816 44.1991C35.1816 43.5368 35.6696 43 36.2717 43H54.0704C54.6724 43 55.1605 43.5368 55.1605 44.1991C55.1605 44.8613 54.6724 45.3981 54.0704 45.3981H36.2717C35.6696 45.3981 35.1816 44.8613 35.1816 44.1991Z" fill="#0BA5EC"/>
<path fill-rule="evenodd" clip-rule="evenodd" d="M35.125 51.5975C35.125 50.9353 35.6618 50.3984 36.3241 50.3984H49.8603C50.5225 50.3984 51.0594 50.9353 51.0594 51.5975C51.0594 52.2597 50.5225 52.7966 49.8603 52.7966H36.3241C35.6618 52.7966 35.125 52.2597 35.125 51.5975Z" fill="#0BA5EC"/>
</svg>
