<svg viewBox="0 0 89 89" fill="none" xmlns="http://www.w3.org/2000/svg">
<path d="M0 28C0 12.536 12.536 0 28 0H61C76.464 0 89 12.536 89 28V61C89 76.464 76.464 89 61 89H28C12.536 89 0 76.464 0 61V28Z" fill="#F0F9FF"/>
<path d="M30 35.2712V55.0353C30 56.2848 31.0156 57.3065 32.2712 57.3065H57.7349C58.9844 57.3065 60 56.2909 60 55.0353V35.2712C60 34.0217 58.9844 33 57.7349 33H32.2712C31.0217 33 30 34.0156 30 35.2712ZM57.7288 55.7924H32.2712C31.8527 55.7924 31.508 55.4538 31.508 55.0291V40.2076H58.4858V55.0353C58.492 55.4477 58.1473 55.7924 57.7288 55.7924ZM58.492 35.2712V38.6996H31.508V35.2712C31.508 34.8527 31.8465 34.508 32.2712 34.508H57.7349C58.1473 34.508 58.492 34.8527 58.492 35.2712Z" fill="#026AA2"/>
<path d="M33.6072 37.3584C33.8042 37.3584 34.0012 37.2784 34.1427 37.1369C34.2843 36.9953 34.3643 36.8045 34.3643 36.6014C34.3643 36.4044 34.2843 36.2074 34.1427 36.0659C33.8596 35.7827 33.3549 35.7827 33.0779 36.0659C32.9363 36.2074 32.8563 36.3982 32.8563 36.6014C32.8563 36.7983 32.9363 36.9953 33.0779 37.1369C33.2133 37.2784 33.4041 37.3584 33.6072 37.3584Z" fill="#026AA2"/>
<path d="M36.457 37.3584C36.654 37.3584 36.851 37.2784 36.9864 37.1369C37.1279 36.9953 37.208 36.8045 37.208 36.6014C37.208 36.4044 37.1279 36.2074 36.9864 36.0659C36.7032 35.7827 36.2047 35.7827 35.9215 36.0659C35.78 36.2074 35.7 36.3982 35.7 36.6014C35.7 36.7983 35.78 36.9953 35.9215 37.1369C36.0569 37.2784 36.2539 37.3584 36.457 37.3584Z" fill="#026AA2"/>
<path d="M39.301 37.3584C39.4979 37.3584 39.6949 37.2784 39.8365 37.1369C39.978 36.9953 40.0581 36.8045 40.0581 36.6014C40.0581 36.4044 39.978 36.2074 39.8365 36.0659C39.5533 35.7827 39.0486 35.7827 38.7716 36.0659C38.6301 36.2074 38.55 36.3982 38.55 36.6014C38.55 36.7983 38.6301 36.9953 38.7716 37.1369C38.907 37.2784 39.104 37.3584 39.301 37.3584Z" fill="#026AA2"/>
<path d="M50.0216 43.6906C49.7015 43.4198 49.2276 43.4628 48.9568 43.7768C48.686 44.0968 48.729 44.5708 49.043 44.8416L52.8468 48.0607L49.043 51.2921C48.7229 51.563 48.686 52.0369 48.9568 52.357C49.1045 52.5355 49.3199 52.6216 49.5292 52.6216C49.7015 52.6216 49.8739 52.5601 50.0155 52.4431L54.5025 48.6393C54.6687 48.4977 54.7672 48.2884 54.7672 48.0607C54.7672 47.8391 54.6687 47.6298 54.5025 47.4883L50.0216 43.6906Z" fill="#026AA2"/>
<path d="M37.1455 48.0608L40.9432 44.8417C41.2633 44.5708 41.3002 44.0969 41.0294 43.7768C40.7586 43.4568 40.2846 43.4198 39.9646 43.6907L35.4837 47.4822C35.3175 47.6238 35.219 47.8331 35.219 48.0546C35.219 48.2762 35.3175 48.4855 35.4837 48.6271L39.9646 52.4309C40.1062 52.554 40.2785 52.6094 40.4508 52.6094C40.6663 52.6094 40.8755 52.5171 41.0233 52.3447C41.2941 52.0247 41.2572 51.5507 40.9371 51.2799L37.1455 48.0608Z" fill="#026AA2"/>
<path d="M47.161 42.6206C46.7732 42.4667 46.3362 42.6513 46.1823 43.0391L42.3846 52.5365C42.2307 52.9242 42.4154 53.3612 42.8032 53.5151C42.8955 53.552 42.9878 53.5705 43.0801 53.5705C43.3817 53.5705 43.6649 53.392 43.7818 53.0966L47.5795 43.5992C47.7396 43.2115 47.5487 42.7745 47.161 42.6206Z" fill="#026AA2"/>
</svg>
