<svg viewBox="0 0 31 30" fill="none" xmlns="http://www.w3.org/2000/svg">
<path d="M15.3979 30C7.12698 30 0.398438 23.2711 0.398438 15.0002C0.398438 6.72933 7.12698 0 15.3979 0C23.6688 0 30.3984 6.72917 30.3984 15.0002C30.3984 23.2713 23.6693 30 15.3979 30Z" fill="#0950C5"/>
<path d="M15.0182 8.96743V6.69274C14.5804 6.53726 16.2117 6.53824 15.7731 6.69405V8.96743C16.6561 8.96743 18.0137 10.3968 18.0137 11.945H12.7793C12.7793 10.3968 13.9073 8.96743 15.0182 8.96743Z" fill="white"/>
<path fill-rule="evenodd" clip-rule="evenodd" d="M20.186 23.0629C23.4765 23.0629 24.7781 21.7618 24.7781 18.4699V13.974C24.7781 10.6821 23.4767 9.3811 20.186 9.3811H10.6123C7.32162 9.3811 6.02197 10.6821 6.02197 13.974V18.4699C6.02197 21.7618 7.32162 23.0629 10.6123 23.0629H16.654V25.4997L19.0896 23.0629H20.186Z" fill="white"/>
<path d="M20.1872 9.38159H19.2131C22.5038 9.38159 23.8051 10.6825 23.8051 13.9745V18.4703C23.8051 21.7623 22.5036 23.0634 19.2131 23.0634H20.1872C23.4778 23.0634 24.7793 21.7623 24.7793 18.4703V13.9745C24.7793 10.6825 23.4777 9.38159 20.1872 9.38159Z" fill="#CAE7FF"/>
<path d="M23.8176 13.4954C25.0211 13.66 25.8974 13.6886 25.8974 16.06C25.8974 18.4314 25.1007 18.3953 23.9835 18.5972L23.8176 13.4954Z" fill="#CAE7FF"/>
<path d="M6.97723 13.4954C5.77341 13.66 4.89746 13.6886 4.89746 16.06C4.89746 18.4314 5.69399 18.3953 6.81116 18.5972L6.97723 13.4954Z" fill="white"/>
<path d="M11.0264 19.8942C9.0023 19.8942 8.32983 19.2207 8.32983 17.1957V15.2469C8.32983 13.2221 9.0023 12.5493 11.0264 12.5493H19.7656C21.775 12.5493 22.4373 13.1975 22.4615 15.2015C22.4615 15.2166 22.4615 17.1956 22.4615 17.1956C22.4615 19.2205 21.7901 19.894 19.7654 19.894H11.0263L11.0264 19.8942Z" fill="#CAE7FF"/>
<path d="M17.7087 16.2222C17.7087 15.6791 18.15 15.2397 18.6914 15.2397C19.2327 15.2397 19.6753 15.6793 19.6753 16.2222C19.6753 16.7651 19.2357 17.2046 18.6914 17.2046C18.147 17.2046 17.7087 16.7661 17.7087 16.2222Z" fill="#0950C5"/>
<path d="M11.1255 16.2224C11.1255 15.6793 11.5648 15.24 12.1071 15.24C12.6495 15.24 13.0897 15.6795 13.0897 16.2224C13.0897 16.7654 12.6501 17.2049 12.1071 17.2049C11.5641 17.2049 11.1255 16.7664 11.1255 16.2224Z" fill="#0950C5"/>
<path d="M16.5282 5.62996C16.5282 5.00575 16.0229 4.50024 15.3993 4.50024C14.7758 4.50024 14.2705 5.00575 14.2705 5.62996C14.2705 6.25416 14.7759 6.7595 15.3993 6.7595C16.0227 6.7595 16.5282 6.25383 16.5282 5.62996Z" fill="white"/>
</svg>
