<svg xmlns="http://www.w3.org/2000/svg" width="16" height="16" fill="none"><path stroke="#37352F" stroke-width=".9" d="M2 3.426v9.04c.026 1.678 2.755 3.034 6.116 3.034 3.362 0 6.09-1.356 6.116-3.034v-9.04c0 1.772-2.58 3.17-5.942 3.17C4.93 6.597 2 5.34 2 3.427Z"/><path stroke="#37352F" stroke-width=".9" d="M8.116 6.616c3.378 0 6.117-1.369 6.117-3.058C14.233 1.87 11.494.5 8.116.5S2 1.87 2 3.558c0 1.69 2.738 3.058 6.116 3.058Zm.025-1.492c1.689 0 3.058-.685 3.058-1.53 0-.844-1.37-1.528-3.058-1.528-1.69 0-3.058.684-3.058 1.529 0 .844 1.369 1.529 3.058 1.529Z" clip-rule="evenodd"/><path stroke="#37352F" stroke-width=".9" d="M6.16 11.252v2.093a.2.2 0 0 1-.3.173l-1.655-.945a.2.2 0 0 1-.101-.174V7.684a.2.2 0 0 1 .304-.171l3.581 2.175a.2.2 0 0 0 .206.001l3.68-2.182a.2.2 0 0 1 .303.172v4.813a.2.2 0 0 1-.108.177l-1.655.867a.2.2 0 0 1-.292-.177v-2.116a.2.2 0 0 0-.3-.174l-1.63.924a.2.2 0 0 1-.2-.002l-1.532-.91a.2.2 0 0 0-.302.171Z"/></svg>