<svg width="20" height="20" viewBox="0 0 20 20" fill="none" xmlns="http://www.w3.org/2000/svg">
<g clip-path="url(#clip0_14845_2277)">
<path d="M11.1038 8.89537L4.53366 15.4655M5.24272 10.6973L2.02455 9.93712C1.67049 9.85348 1.54596 9.41392 1.80245 9.15651L4.36174 6.59721C4.53366 6.42529 4.76691 6.32679 5.01132 6.32493L7.8968 6.29984M11.5313 2.99803C13.6789 4.46261 15.5366 6.32028 17.0012 8.4679M9.30097 14.7565L10.0611 17.9746C10.1448 18.3287 10.5843 18.4532 10.8418 18.1967L13.401 15.6374C13.573 15.4655 13.6715 15.2323 13.6733 14.9879L13.6984 12.1024M17.5522 6.95778L18.3031 3.34466C18.5075 2.36146 17.6377 1.49164 16.6545 1.69608L13.0414 2.44696C11.9774 2.66813 11.0016 3.19504 10.234 3.96358L7.26952 6.92712C6.13856 8.05807 5.40256 9.52451 5.17023 11.1071L5.16001 11.1749C5.01318 12.1851 5.35144 13.2045 6.07258 13.9266C6.79372 14.6477 7.81409 14.986 8.82424 14.8382L8.89208 14.828C10.4747 14.5966 11.9411 13.8597 13.0721 12.7287L16.0356 9.7652C16.8041 8.9976 17.3311 8.02183 17.5522 6.95778Z" stroke="white" stroke-width="1.67" stroke-linecap="round" stroke-linejoin="round"/>
</g>
<defs>
<clipPath id="clip0_14845_2277">
<rect width="20" height="20" fill="white"/>
</clipPath>
</defs>
</svg>
