<svg width="50" height="50" viewBox="0 0 50 50" fill="none" xmlns="http://www.w3.org/2000/svg">
<path d="M12.2852 35.405H4.29883V45.9822H12.2852V35.405Z" fill="#FFDB0C"/>
<path d="M23.4238 24.1628H15.4375V45.9822H23.4238V24.1628Z" fill="#FFA900"/>
<path d="M45.7012 16.3796H37.7148V45.9822H45.7012V16.3796Z" fill="#DE0418"/>
<path d="M34.5625 28.9529H26.5762V45.9832H34.5625V28.9529Z" fill="#FF6536"/>
<path d="M50 44.5173H0V47.447H50V44.5173Z" fill="#808080"/>
<path d="M50 44.5173H25V47.447H50V44.5173Z" fill="#666666"/>
<path d="M7.25193 24.4554L9.33318 26.5173L20.4716 15.2744L18.3904 13.2125L7.25193 24.4554Z" fill="#333333"/>
<path d="M18.8525 15.589L29.9919 20.3784L31.1492 17.6868L20.0098 12.8974L18.8525 15.589Z" fill="#333333"/>
<path d="M29.4741 18.0615L31.6669 20.0042L42.8047 7.43198L40.6119 5.48937L29.4741 18.0615Z" fill="#333333"/>
<path d="M8.29199 29.3923C10.4494 29.3923 12.1982 27.6434 12.1982 25.4861C12.1982 23.3287 10.4494 21.5798 8.29199 21.5798C6.13463 21.5798 4.38574 23.3287 4.38574 25.4861C4.38574 27.6434 6.13463 29.3923 8.29199 29.3923Z" fill="#E6E6E6"/>
<path d="M19.4307 18.1501C21.588 18.1501 23.3369 16.4013 23.3369 14.2439C23.3369 12.0865 21.588 10.3376 19.4307 10.3376C17.2733 10.3376 15.5244 12.0865 15.5244 14.2439C15.5244 16.4013 17.2733 18.1501 19.4307 18.1501Z" fill="#B3B3B3"/>
<path d="M41.708 10.3669C43.8654 10.3669 45.6143 8.61806 45.6143 6.46069C45.6143 4.30333 43.8654 2.55444 41.708 2.55444C39.5506 2.55444 37.8018 4.30333 37.8018 6.46069C37.8018 8.61806 39.5506 10.3669 41.708 10.3669Z" fill="#4D4D4D"/>
<path d="M30.5693 22.9392C32.7267 22.9392 34.4756 21.1903 34.4756 19.033C34.4756 16.8756 32.7267 15.1267 30.5693 15.1267C28.412 15.1267 26.6631 16.8756 26.6631 19.033C26.6631 21.1903 28.412 22.9392 30.5693 22.9392Z" fill="#808080"/>
</svg>
