<svg viewBox="0 0 40 40" fill="none" xmlns="http://www.w3.org/2000/svg">
<path fill-rule="evenodd" clip-rule="evenodd" d="M6.64223 22.75C5.76078 22.75 5 23.4104 5 24.2748V31.7254C5 32.5897 5.76081 33.25 6.64223 33.25H9.78195C10.6636 33.25 11.4244 32.5897 11.4244 31.7254V24.2748C11.4244 23.4103 10.6636 22.75 9.78195 22.75H6.64223ZM6.40452 24.2748C6.40452 24.1919 6.48728 24.0817 6.64223 24.0817H9.78195C9.93722 24.0817 10.0199 24.192 10.0199 24.2748V31.7254C10.0199 31.8079 9.9373 31.9183 9.78195 31.9183H6.64223C6.4872 31.9183 6.40452 31.808 6.40452 31.7254V24.2748Z" fill="currentColor" fill-opacity="0.4"/>
<path fill-rule="evenodd" clip-rule="evenodd" d="M14.1763 16.75C13.3689 16.75 12.75 17.4612 12.75 18.2875V20.6759V31.7125C12.75 32.5388 13.3689 33.25 14.1763 33.25H16.8237C17.6311 33.25 18.25 32.5388 18.25 31.7125V18.2877C18.25 17.4613 17.6312 16.75 16.8237 16.75H14.1763ZM14.0176 31.7125V20.6759V18.2875C14.0176 18.1572 14.1098 18.0901 14.1763 18.0901H16.8237C16.8902 18.0901 16.9824 18.1572 16.9824 18.2875V31.7125C16.9824 31.8428 16.8902 31.9099 16.8237 31.9099H14.1763C14.1098 31.9099 14.0176 31.8428 14.0176 31.7125Z" fill="currentColor"/>
<path fill-rule="evenodd" clip-rule="evenodd" d="M22.2237 19.75C21.4163 19.75 20.814 20.4967 20.814 21.3433V31.6567C20.814 32.5033 21.4163 33.25 22.2237 33.25H24.8401C25.6476 33.25 26.25 32.5033 26.25 31.6567V21.3433C26.25 20.4967 25.6476 19.75 24.8401 19.75H22.2237ZM22.0668 21.3433C22.0668 21.1917 22.1671 21.1265 22.2237 21.1265H24.8401C24.8968 21.1265 24.9972 21.1918 24.9972 21.3433V31.6567C24.9972 31.808 24.8968 31.8735 24.8401 31.8735H22.2237C22.1671 31.8735 22.0668 31.8082 22.0668 31.6567V21.3433Z" fill="currentColor" fill-opacity="0.4"/>
<path fill-rule="evenodd" clip-rule="evenodd" d="M27.75 15.291C27.75 14.4205 28.5169 13.75 29.4118 13.75H32.5884C33.4834 13.75 34.25 14.4205 34.25 15.291V31.709C34.25 32.5795 33.4834 33.25 32.5884 33.25H29.4118C28.5169 33.25 27.75 32.5795 27.75 31.709L27.75 27.6681L28.5 28L29.171 27.6681L29.171 31.709C29.171 31.7976 29.2577 31.9076 29.4118 31.9076H32.5884C32.7422 31.9076 32.829 31.7976 32.829 31.709V15.291C32.829 15.2022 32.7423 15.0924 32.5884 15.0924H29.4118C29.2577 15.0924 29.171 15.2023 29.171 15.291L29.171 27.6681L28.5 28L27.75 27.6681L27.75 15.291Z" fill="currentColor"/>
<path d="M8.57696 14.7961C7.15611 14.7961 6 15.9633 6 17.3979C6 18.8327 7.15611 20 8.57696 20C9.99803 20 11.1541 18.8327 11.1541 17.3979C11.1541 17.284 11.146 17.1722 11.132 17.0621L15.1953 13.933C15.502 14.0635 15.8391 14.136 16.1924 14.136C16.7494 14.136 17.2654 13.9559 17.6873 13.6514L21.2421 15.2937C21.3631 16.6156 22.4673 17.6543 23.8076 17.6543C25.2287 17.6543 26.3848 16.4871 26.3848 15.0525C26.3848 14.897 26.3704 14.7449 26.3445 14.597L30.5371 11.0454C30.8134 11.1481 31.112 11.2039 31.423 11.2039C32.8439 11.2039 34 10.0367 34 8.60186C34 7.16728 32.8439 6 31.423 6C30.002 6 28.8459 7.16728 28.8459 8.60186C28.8459 8.75737 28.8603 8.9094 28.8861 9.05729L24.6934 12.6089C24.4172 12.5065 24.1187 12.4504 23.8076 12.4504C23.2506 12.4504 22.7346 12.6305 22.3127 12.9352L18.7579 11.2927C18.6369 9.97076 17.5329 8.93202 16.1924 8.93202C14.7713 8.93202 13.6154 10.0993 13.6154 11.5339C13.6154 11.6478 13.6234 11.7599 13.6376 11.8699L9.5741 14.9988C9.26714 14.8683 8.93045 14.7961 8.57696 14.7961ZM31.423 6.83517C32.3879 6.83517 33.1728 7.62771 33.1728 8.60186C33.1728 9.57601 32.3879 10.3688 31.423 10.3688C30.4726 10.3688 29.673 9.56144 29.673 8.60186C29.673 7.62771 30.458 6.83517 31.423 6.83517ZM29.1862 9.89334C29.1931 9.90551 29.2006 9.91726 29.2078 9.92922C29.3572 10.1835 29.5496 10.4118 29.7745 10.6013L26.0444 13.7608C26.0375 13.7486 25.9245 13.5672 25.8691 13.4926C25.7489 13.3308 25.6104 13.1829 25.4561 13.0529L29.1862 9.89334ZM22.058 15.0264C22.0723 14.0794 22.8643 13.2856 23.8076 13.2856C24.7481 13.2856 25.5574 14.0975 25.5574 15.0525C25.5574 16.0266 24.7724 16.8192 23.8076 16.8192C22.8428 16.8192 22.0578 16.0266 22.0578 15.0525C22.0578 15.0438 22.0578 15.0351 22.058 15.0264ZM18.3174 13.0037C18.4867 12.7527 18.6145 12.4737 18.689 12.1794L21.6927 13.567C21.5398 13.7895 21.4202 14.0366 21.342 14.2958C21.3308 14.3326 21.3205 14.3696 21.311 14.4067L18.3073 13.0191C18.3107 13.0141 18.314 13.0089 18.3174 13.0037ZM16.1924 9.76719C17.1572 9.76719 17.9422 10.5597 17.9422 11.5339C17.9422 12.4856 17.1335 13.3008 16.1924 13.3008C15.2508 13.3008 14.4424 12.49 14.4424 11.5339C14.4424 10.5597 15.2274 9.76719 16.1924 9.76719ZM13.8985 12.7192C13.9034 12.7288 13.909 12.7384 13.914 12.7479C14.0523 13.012 14.2356 13.2521 14.4538 13.4537L10.8709 16.2128C10.8045 16.0823 10.7266 15.957 10.6395 15.8398C10.543 15.7097 10.4349 15.5884 10.3155 15.4781L13.8985 12.7192ZM9.61977 15.9944C10.0443 16.3207 10.327 16.8344 10.327 17.3979C10.327 18.3723 9.54201 19.1648 8.57696 19.1648C7.61214 19.1648 6.82718 18.3723 6.82718 17.3979C6.82718 16.4238 7.61214 15.6312 8.57696 15.6312C8.96169 15.6312 9.32509 15.7676 9.61977 15.9944Z" fill="currentColor" stroke="currentColor" stroke-width="0.5"/>
</svg>