<svg viewBox="0 0 89 89" fill="none" xmlns="http://www.w3.org/2000/svg">
<path d="M0 28C0 12.536 12.536 0 28 0H61C76.464 0 89 12.536 89 28V61C89 76.464 76.464 89 61 89H28C12.536 89 0 76.464 0 61V28Z" fill="#EEF4FF"/>
<path fill-rule="evenodd" clip-rule="evenodd" d="M57.988 42.5343L53.2283 47.4961C53.0821 47.6486 52.8538 47.6887 52.6642 47.5954L47.7233 45.1618L42.7382 49.4985C42.5366 49.674 42.2303 49.6529 42.0547 49.4515C41.8791 49.2501 41.9002 48.9443 42.1018 48.7689L47.3301 44.2205C47.4774 44.0923 47.6874 44.065 47.8626 44.1514L52.7743 46.5706L57.3359 41.8152H56.4926C56.2252 41.8152 56.0081 41.5984 56.0081 41.3314C56.0081 41.0643 56.2252 40.8475 56.4926 40.8475H58.4725C58.74 40.8475 58.957 41.0641 58.957 41.3314V43.3088C58.957 43.5758 58.7398 43.7926 58.4725 43.7926C58.2051 43.7926 57.988 43.5758 57.988 43.3088C57.988 43.3088 57.988 42.9167 57.988 42.5343ZM37.1546 44.4434C37.3502 44.8568 37.2731 45.3685 36.9273 45.7035L33.2078 49.3081C32.7735 49.7289 32.0735 49.7185 31.6522 49.2847L30.3093 47.9026C29.8878 47.4689 29.8985 46.7698 30.3327 46.3489L34.0521 42.7443C34.3861 42.4204 34.8778 42.352 35.2786 42.5352L36.7995 41.0612C36.098 39.9504 35.6924 38.6379 35.6924 37.2326C35.6924 33.242 38.9626 30 42.9931 30C45.7264 30 48.11 31.491 49.3612 33.6954L50.0102 32.8413C50.1018 32.7207 50.2446 32.65 50.3961 32.65H54.0432C54.3106 32.65 54.5277 32.8668 54.5277 33.1339C54.5277 33.4009 54.3106 33.6177 54.0432 33.6177H50.6366L49.8266 34.6837C50.1285 35.4766 50.2937 36.3357 50.2937 37.2326C50.2937 41.2232 47.0235 44.4652 42.9931 44.4652C41.3532 44.4652 39.8392 43.9285 38.6201 43.0231L37.1546 44.4434ZM36.0067 43.178L36.5217 43.7082L37.8793 42.3925C37.7025 42.2205 37.5346 42.0397 37.3761 41.8508L36.0067 43.178ZM48.7141 34.5468C48.4716 34.0423 48.1628 33.5748 47.799 33.1555L46.5894 34.3531C47.1359 35.0224 47.496 35.8469 47.5917 36.7487H49.3061C49.2762 36.3624 49.2109 35.986 49.1133 35.6224L48.8393 35.9829C48.6777 36.1956 48.3735 36.2373 48.1605 36.0758C47.9475 35.9144 47.9058 35.6106 48.0675 35.3979L48.7141 34.5468ZM47.1104 32.4746C46.1178 31.6328 44.8591 31.0895 43.4776 30.9858V32.6748C44.3909 32.7693 45.2253 33.1275 45.9019 33.6711L47.1104 32.4746ZM42.5086 30.9858C39.4023 31.2189 36.9178 33.6741 36.68 36.7487H38.3944C38.6219 34.6052 40.3435 32.8986 42.5086 32.6748V30.9858ZM36.68 37.7165C36.93 40.9494 39.6641 43.4975 42.9931 43.4975C44.5642 43.4975 46.0028 42.9299 47.1104 41.9906L45.9019 40.7941C45.1073 41.4325 44.0951 41.8152 42.9931 41.8152C40.6047 41.8152 38.6386 40.0177 38.3944 37.7165H36.68ZM47.799 41.3097C48.6504 40.3283 49.2003 39.0836 49.3061 37.7165H47.5917C47.496 38.6183 47.1359 39.4428 46.5894 40.1121L47.799 41.3097ZM32.3475 48.6108C32.3978 48.6626 32.4814 48.6637 32.5332 48.6135L36.2525 45.009C36.3043 44.9588 36.3056 44.8753 36.2553 44.8236L34.9125 43.4415C34.8622 43.3897 34.7787 43.3885 34.7269 43.4387L31.0075 47.0433C30.9557 47.0935 30.9544 47.1769 31.0046 47.2286L32.3475 48.6108ZM42.9931 33.6177C40.9768 33.6177 39.3378 35.2363 39.3378 37.2326C39.3378 39.2289 40.9768 40.8475 42.9931 40.8475C45.0093 40.8475 46.6483 39.2289 46.6483 37.2326C46.6483 35.2363 45.0093 33.6177 42.9931 33.6177ZM45.757 59.5161V49.3747C45.757 49.1075 45.9738 48.8908 46.2414 48.8908H49.0571C49.3246 48.8908 49.5416 49.1075 49.5416 49.3747V59.5161C49.5416 59.7833 49.3246 60 49.0571 60H46.2414C45.9738 60 45.757 59.7833 45.757 59.5161ZM46.7259 59.0323H48.5726V49.8585H46.7259V59.0323ZM50.9852 59.5161V51.2921C50.9852 51.0249 51.2022 50.8082 51.4697 50.8082H54.2854C54.553 50.8082 54.7698 51.0249 54.7698 51.2921V59.5161C54.7698 59.7833 54.553 60 54.2854 60H51.4697C51.2022 60 50.9852 59.7833 50.9852 59.5161ZM51.9542 59.0323H53.8009V51.7759H51.9542V59.0323ZM56.2154 59.5161V45.6844C56.2154 45.4172 56.4323 45.2005 56.6999 45.2005H59.5155C59.7831 45.2005 60 45.4172 60 45.6844V59.5161C60 59.7833 59.7831 60 59.5155 60H56.6999C56.4323 60 56.2154 59.7833 56.2154 59.5161ZM57.1843 59.0323H59.031V46.1682H57.1843V59.0323ZM40.5268 59.5161V54.1207C40.5268 53.8534 40.7437 53.6368 41.0113 53.6368H43.8288C44.0964 53.6368 44.3132 53.8534 44.3132 54.1207V59.5161C44.3132 59.7833 44.0964 60 43.8288 60H41.0113C40.7437 60 40.5268 59.7833 40.5268 59.5161ZM41.4958 59.0323H43.3443V54.6045H41.4958V59.0323ZM55.5696 31.5669C55.3021 31.5669 55.0851 31.3501 55.0851 31.083C55.0851 30.816 55.3021 30.5992 55.5696 30.5992H59.5155C59.7829 30.5992 60 30.816 60 31.083C60 31.3501 59.7829 31.5669 59.5155 31.5669H55.5696ZM55.5696 33.6177C55.3021 33.6177 55.0851 33.4009 55.0851 33.1339C55.0851 32.8668 55.3021 32.65 55.5696 32.65H59.5155C59.7829 32.65 60 32.8668 60 33.1339C60 33.4009 59.7829 33.6177 59.5155 33.6177H55.5696ZM55.5696 35.6685C55.3021 35.6685 55.0851 35.4517 55.0851 35.1846C55.0851 34.9176 55.3021 34.7007 55.5696 34.7007H59.5155C59.7829 34.7007 60 34.9176 60 35.1846C60 35.4517 59.7829 35.6685 59.5155 35.6685H55.5696Z" fill="#3538CD"/>
</svg>
