<svg viewBox="0 0 89 89" fill="none" xmlns="http://www.w3.org/2000/svg">
<path d="M0 28C0 12.536 12.536 0 28 0H61C76.464 0 89 12.536 89 28V61C89 76.464 76.464 89 61 89H28C12.536 89 0 76.464 0 61V28Z" fill="#FFF6ED"/>
<path d="M35.732 47.4C35.207 47.1465 34.621 47 34 47C31.7945 47 30 48.7945 30 51C30 53.2055 31.7945 55 34 55C35.384 55 36.6055 54.293 37.324 53.2215L41.1025 55.113C41.0375 55.3985 41 55.695 41 56C41 58.2055 42.7945 60 45 60C47.2055 60 49 58.2055 49 56C49 55.171 48.7465 54.4005 48.3125 53.761L53.622 48.2095C54.288 48.7035 55.109 49 56 49C58.2055 49 60 47.2055 60 45C60 42.7945 58.2055 41 56 41C55.077 41 54.229 41.317 53.551 41.844L48.156 36.449C48.683 35.771 49 34.923 49 34C49 31.7945 47.2055 30 45 30C42.7945 30 41 31.7945 41 34C41 34.304 41.037 34.5995 41.102 34.8845L37.556 36.1765C36.891 34.886 35.5485 34 34 34C31.7945 34 30 35.7945 30 38C30 40.2055 31.7945 42 34 42C34.569 42 35.1095 41.879 35.6 41.6635L37.4405 44.761L35.732 47.4ZM34 54C32.3455 54 31 52.6545 31 51C31 49.3455 32.3455 48 34 48C35.6545 48 37 49.3455 37 51C37 52.6545 35.6545 54 34 54ZM37.7695 52.3255C37.916 51.91 38 51.465 38 51C38 49.7735 37.444 48.6755 36.5725 47.9415L38.0105 45.7205L42.346 53.016C41.981 53.341 41.6755 53.73 41.449 54.1675L37.7695 52.3255ZM45 38C45.923 38 46.771 37.683 47.449 37.156L52.8445 42.5515C52.521 42.9675 52.279 43.448 52.1395 43.971L48.9985 43.539C48.998 43.526 49 43.513 49 43.5C49 41.2945 47.2055 39.5 45 39.5C43.616 39.5 42.394 40.207 41.676 41.2785L41.0795 40.9805L43.2685 37.6C43.793 37.8535 44.379 38 45 38ZM45.5 52.0345V47.465C47.125 47.261 48.447 46.08 48.861 44.529L52.002 44.961C52.002 44.974 52 44.987 52 45C52 45.955 52.337 46.8315 52.8975 47.52L47.6475 53.0095C47.059 52.488 46.3185 52.1375 45.5 52.0345ZM45 40.5C46.6545 40.5 48 41.8455 48 43.5C48 45.1545 46.6545 46.5 45 46.5C43.3455 46.5 42 45.1545 42 43.5C42 41.8455 43.3455 40.5 45 40.5ZM41.2305 42.1745C41.084 42.59 41 43.035 41 43.5C41 45.536 42.53 47.218 44.5 47.4655V52.035C44.026 52.0945 43.5785 52.2365 43.171 52.447L38.617 44.7835L40.5325 41.8255L41.2305 42.1745ZM45 59C43.3455 59 42 57.6545 42 56C42 54.3455 43.3455 53 45 53C46.6545 53 48 54.3455 48 56C48 57.6545 46.6545 59 45 59ZM56 42C57.6545 42 59 43.3455 59 45C59 46.6545 57.6545 48 56 48C54.3455 48 53 46.6545 53 45C53 43.3455 54.3455 42 56 42ZM45 31C46.6545 31 48 32.3455 48 34C48 35.6545 46.6545 37 45 37C43.3455 37 42 35.6545 42 34C42 32.3455 43.3455 31 45 31ZM41.444 35.8235C41.6885 36.298 42.023 36.7175 42.4275 37.0585L40.1795 40.5305L37.7695 39.3255C37.916 38.91 38 38.465 38 38C38 37.696 37.963 37.4005 37.898 37.1155L41.444 35.8235ZM31 38C31 36.3455 32.3455 35 34 35C35.6545 35 37 36.3455 37 38C37 39.6545 35.6545 41 34 41C32.3455 41 31 39.6545 31 38ZM36.4575 41.1495C36.7925 40.8875 37.0865 40.5755 37.324 40.2215L39.6325 41.3755L38.047 43.824L36.4575 41.1495Z" fill="#C4320A"/>
</svg>
