<svg xmlns="http://www.w3.org/2000/svg" width="16" height="16" fill="currentColor"><path stroke="currentColor" stroke-width=".3" d="M3.366 9.2A1.985 1.985 0 0 0 2.5 9c-1.103 0-2 .897-2 2s.897 2 2 2a2 2 0 0 0 1.662-.89l1.89.947A2.002 2.002 0 0 0 8 15.5c1.102-.001 1.999-.898 1.999-2.001 0-.415-.127-.8-.344-1.12l2.655-2.775A1.99 1.99 0 0 0 13.5 10c1.103 0 2-.897 2-2s-.897-2-2-2c-.461 0-.886.159-1.225.422L9.578 3.725C9.842 3.385 10 2.96 10 2.5c0-1.103-.897-2-2-2a2.002 2.002 0 0 0-1.949 2.442l-1.773.646A2 2 0 0 0 2.5 2.5c-1.103 0-2 .897-2 2a2.002 2.002 0 0 0 2.8 1.832l.92 1.548-.854 1.32ZM2.5 12.5c-.827 0-1.5-.673-1.5-1.5s.673-1.5 1.5-1.5S4 10.173 4 11s-.673 1.5-1.5 1.5Zm1.885-.837a1.989 1.989 0 0 0-.599-2.192l.72-1.11 2.167 3.647a2.008 2.008 0 0 0-.449.576l-1.84-.921ZM8 4.5c.461 0 .886-.159 1.225-.422l2.697 2.698a1.993 1.993 0 0 0-.352.71L10 7.27v-.02a1.999 1.999 0 0 0-3.662-1.11l-.298-.15L7.134 4.3c.262.127.555.2.866.2Zm.25 7.017V9.233a2.003 2.003 0 0 0 1.68-1.469l1.571.216L11.5 8c0 .477.168.916.449 1.26l-2.625 2.745a1.991 1.991 0 0 0-1.074-.488ZM8 5.75c.827 0 1.5.673 1.5 1.5s-.673 1.5-1.5 1.5-1.5-.673-1.5-1.5.673-1.5 1.5-1.5Zm-1.885.837c-.073.208-.115.43-.115.663 0 1.018.765 1.859 1.75 1.983v2.284c-.237.03-.46.101-.665.207L4.81 7.891l.957-1.48.35.175ZM8 15c-.827 0-1.5-.673-1.5-1.5S7.173 12 8 12s1.5.673 1.5 1.5S8.827 15 8 15Zm5.5-8.5c.827 0 1.5.673 1.5 1.5s-.673 1.5-1.5 1.5S12 8.827 12 8s.673-1.5 1.5-1.5ZM8 1c.827 0 1.5.673 1.5 1.5S8.827 4 8 4s-1.5-.673-1.5-1.5S7.173 1 8 1ZM6.222 3.412c.122.237.29.447.492.617L5.59 5.765l-1.205-.602a1.988 1.988 0 0 0 .064-1.105l1.773-.646ZM1 4.5C1 3.673 1.673 3 2.5 3S4 3.673 4 4.5 3.327 6 2.5 6 1 5.327 1 4.5Zm2.729 1.575c.167-.131.314-.287.433-.464l1.154.577-.792 1.224-.795-1.337Z"/></svg>