<svg xmlns="http://www.w3.org/2000/svg" fill="none" viewBox="0 0 33 32"><g clip-path="url(#a)"><path fill="#5558AF" d="M27.394 12.221c.265.265.578.476.923.623.72.301 1.532.301 2.253 0a2.918 2.918 0 0 0 1.545-1.546 2.918 2.918 0 0 0 0-2.253A2.919 2.919 0 0 0 30.57 7.5a2.918 2.918 0 0 0-2.253 0c-.696.296-1.25.849-1.546 1.545a2.918 2.918 0 0 0 0 2.253c.147.344.36.658.623.923Zm-.848 2.688v8.727H28c.5-.003.998-.049 1.488-.141a4.64 4.64 0 0 0 1.41-.492 3.143 3.143 0 0 0 1.05-.927c.29-.425.435-.933.415-1.448V14.91h-5.817Zm-4.713-3.658c.386.002.769-.075 1.125-.227a2.916 2.916 0 0 0 1.544-1.546 2.912 2.912 0 0 0-.002-2.253 2.918 2.918 0 0 0-1.545-1.545 2.816 2.816 0 0 0-1.127-.227 2.776 2.776 0 0 0-1.118.227c-.264.112-.347.26-.71.436v4.471c.365.178.446.324.71.437.355.153.737.23 1.123.227ZM20 25.944c.364.079.494.14.752.175.283.041.569.061.854.063a6.44 6.44 0 0 0 1.312-.142c.439-.088.86-.252 1.243-.485.377-.23.693-.546.927-.92.258-.436.385-.94.366-1.446V13.091H20v12.853ZM0 28.727 18.91 32V0L0 3.273v25.454Z"/><path fill="#fff" d="m13.817 9.818-8.727.532v2.013l3.273-.132v9.333l2.18.128v-9.547L13.818 12V9.818Z"/></g><defs><clipPath id="a"><path fill="#fff" d="M0 0h32.366v32H0z"/></clipPath></defs></svg>