<svg width="140" height="141" viewBox="0 0 140 141" fill="none" xmlns="http://www.w3.org/2000/svg">
<ellipse opacity="0.1" cx="70" cy="136.3" rx="70" ry="4.2" fill="#A4A7AE"/>
<path fill-rule="evenodd" clip-rule="evenodd" d="M33.5997 35.5C33.5997 30.8609 37.3605 27.1 41.9997 27.1H81.1404C81.4162 27.1 81.6905 27.1136 81.9626 27.1404V45.9376C81.9626 49.0303 84.4698 51.5376 87.5626 51.5376H105V86.3511C103.647 86.0557 102.241 85.9001 100.8 85.9001C89.9749 85.9001 81.1997 94.6753 81.1997 105.5C81.1997 108.704 81.9687 111.729 83.3322 114.4H41.9997C37.3605 114.4 33.5997 110.639 33.5997 106V35.5ZM85.0734 117.2H41.9997C35.8141 117.2 30.7997 112.186 30.7997 106V35.5C30.7997 29.3145 35.8141 24.3 41.9997 24.3H81.1404C84.1108 24.3 86.9596 25.48 89.06 27.5805L104.519 43.0397C106.62 45.1402 107.8 47.9889 107.8 50.9593V51.438L107.8 51.5376H107.8V87.187C115.168 90.005 120.4 97.1415 120.4 105.5C120.4 116.325 111.624 125.1 100.8 125.1C94.3604 125.1 88.6464 121.995 85.0734 117.2ZM46.6097 44.3101C47.1565 43.7634 48.0429 43.7634 48.5896 44.3101L53.5497 49.2702L58.5097 44.3101C59.0565 43.7634 59.9429 43.7634 60.4896 44.3101C61.0364 44.8568 61.0364 45.7433 60.4896 46.29L55.5296 51.2501L60.4896 56.2101C61.0364 56.7568 61.0364 57.6433 60.4896 58.19C59.9429 58.7367 59.0565 58.7367 58.5097 58.19L53.5497 53.23L48.5896 58.19C48.0429 58.7367 47.1565 58.7367 46.6097 58.19C46.063 57.6433 46.063 56.7568 46.6097 56.2101L51.5698 51.2501L46.6097 46.29C46.063 45.7433 46.063 44.8568 46.6097 44.3101ZM46.1997 71.2001C46.1997 69.2671 47.7667 67.7001 49.6997 67.7001H70.6997C72.6327 67.7001 74.1997 69.2671 74.1997 71.2001C74.1997 73.133 72.6327 74.7001 70.6997 74.7001H49.6997C47.7667 74.7001 46.1997 73.133 46.1997 71.2001ZM49.6997 70.5001C49.3131 70.5001 48.9997 70.8135 48.9997 71.2001C48.9997 71.5867 49.3131 71.9001 49.6997 71.9001H70.6997C71.0863 71.9001 71.3997 71.5867 71.3997 71.2001C71.3997 70.8135 71.0863 70.5001 70.6997 70.5001H49.6997ZM49.6997 78.9001C47.7667 78.9001 46.1997 80.4671 46.1997 82.4001C46.1997 84.333 47.7667 85.9001 49.6997 85.9001H88.8997C90.8327 85.9001 92.3997 84.333 92.3997 82.4001C92.3997 80.4671 90.8327 78.9001 88.8997 78.9001H49.6997ZM48.9997 82.4001C48.9997 82.0135 49.3131 81.7001 49.6997 81.7001H88.8997C89.2863 81.7001 89.5997 82.0135 89.5997 82.4001C89.5997 82.7867 89.2863 83.1001 88.8997 83.1001H49.6997C49.3131 83.1001 48.9997 82.7867 48.9997 82.4001ZM112.114 35.8161C111.195 34.5114 109.539 33.9479 108.015 34.4209C105.63 35.1612 104.659 38.0125 106.098 40.0545L109.149 44.3855C110.094 45.7277 110.606 47.3274 110.615 48.9693L110.645 54.2917C110.656 56.3274 112.315 57.9692 114.35 57.9602C116.389 57.9512 118.033 56.291 118.023 54.2528L117.995 48.472C117.981 45.6475 117.101 42.8952 115.474 40.5862L112.114 35.8161ZM108.845 37.0951C109.209 36.982 109.605 37.1167 109.825 37.4286L113.185 42.1987C114.482 44.0396 115.184 46.234 115.195 48.4858L115.223 54.2667C115.226 54.7579 114.829 55.158 114.338 55.1602C113.847 55.1624 113.448 54.7667 113.445 54.276L113.415 48.9537C113.403 46.7398 112.713 44.5828 111.438 42.7729L108.387 38.442C108.043 37.9538 108.275 37.2721 108.845 37.0951ZM83.9997 105.5C83.9997 96.2217 91.5213 88.7001 100.8 88.7001C110.078 88.7001 117.6 96.2217 117.6 105.5C117.6 114.778 110.078 122.3 100.8 122.3C91.5213 122.3 83.9997 114.778 83.9997 105.5ZM97.2997 96.4001C97.2997 94.4671 98.8667 92.9001 100.8 92.9001C102.733 92.9001 104.3 94.4671 104.3 96.4001V104.8C104.3 106.733 102.733 108.3 100.8 108.3C98.8667 108.3 97.2997 106.733 97.2997 104.8V96.4001ZM100.8 95.7001C100.413 95.7001 100.1 96.0135 100.1 96.4001V104.8C100.1 105.187 100.413 105.5 100.8 105.5C101.186 105.5 101.5 105.187 101.5 104.8V96.4001C101.5 96.0135 101.186 95.7001 100.8 95.7001ZM100.8 118.1C98.8667 118.1 97.2997 116.533 97.2997 114.6C97.2997 112.667 98.8667 111.1 100.8 111.1C102.733 111.1 104.3 112.667 104.3 114.6C104.3 116.533 102.733 118.1 100.8 118.1ZM100.1 114.6C100.1 114.987 100.413 115.3 100.8 115.3C101.186 115.3 101.5 114.987 101.5 114.6C101.5 114.213 101.186 113.9 100.8 113.9C100.413 113.9 100.1 114.213 100.1 114.6Z" fill="#A4A7AE"/>
</svg>
