<svg width="141" height="141" viewBox="0 0 141 141" fill="none" xmlns="http://www.w3.org/2000/svg">
<ellipse opacity="0.1" cx="70.5" cy="136.299" rx="70" ry="4.2" fill="#A4A7AE"/>
<path fill-rule="evenodd" clip-rule="evenodd" d="M107.507 21.7328C107.507 19.6958 105.856 18.0444 103.819 18.0444C101.782 18.0444 100.13 19.6958 100.13 21.7328V29.3206C100.13 31.3576 101.782 33.009 103.819 33.009C105.856 33.009 107.507 31.3576 107.507 29.3206V21.7328ZM103.819 20.8444C104.309 20.8444 104.707 21.2422 104.707 21.7328V29.3206C104.707 29.8112 104.309 30.209 103.819 30.209C103.328 30.209 102.93 29.8112 102.93 29.3206V21.7328C102.93 21.2422 103.328 20.8444 103.819 20.8444ZM14.5 48.0992C14.5 41.1405 20.1412 35.4993 27.1 35.4993H91.5C98.4588 35.4993 104.1 41.1405 104.1 48.0992V59.2992H115.3C120.712 59.2992 125.1 63.6868 125.1 69.0992V103.819C125.1 109.231 120.712 113.619 115.3 113.619H111.651V118.691C111.651 122.355 107.287 124.262 104.598 121.773L95.7902 113.619H57.9C52.4876 113.619 48.1 109.231 48.1 103.819V99.3944L37.2982 109.476C34.6135 111.982 30.2325 110.078 30.2325 106.406V99.0591H27.1C20.1412 99.0591 14.5 93.4179 14.5 86.4591V48.0992ZM104.1 86.4591V62.0992H115.3C119.166 62.0992 122.3 65.2332 122.3 69.0992V103.819C122.3 107.685 119.166 110.819 115.3 110.819H110.251C109.478 110.819 108.851 111.446 108.851 112.219V118.691C108.851 119.913 107.396 120.548 106.5 119.718L97.2898 111.192C97.0311 110.952 96.6914 110.819 96.3387 110.819H57.9C54.034 110.819 50.9 107.685 50.9 103.819V99.0591H91.5C98.4588 99.0591 104.1 93.4179 104.1 86.4591ZM91.5 96.2591L50.9 96.2591H48.1L47.9075 96.2591C47.5529 96.2591 47.2115 96.3936 46.9523 96.6356L35.3877 107.429C34.4928 108.264 33.0325 107.63 33.0325 106.406V97.6591C33.0325 96.8859 32.4057 96.2591 31.6325 96.2591H27.1C21.6876 96.2591 17.3 91.8715 17.3 86.4591V48.0992C17.3 42.6868 21.6876 38.2993 27.1 38.2993H91.5C96.9124 38.2993 101.3 42.6869 101.3 48.0992V86.4591C101.3 91.8715 96.9124 96.2591 91.5 96.2591ZM38.685 73.7889C42.2804 73.7889 45.195 70.8743 45.195 67.2789C45.195 63.6835 42.2804 60.7689 38.685 60.7689C35.0896 60.7689 32.175 63.6835 32.175 67.2789C32.175 70.8743 35.0896 73.7889 38.685 73.7889ZM65.8095 67.2789C65.8095 70.8743 62.8948 73.7889 59.2995 73.7889C55.7041 73.7889 52.7895 70.8743 52.7895 67.2789C52.7895 63.6835 55.7041 60.7689 59.2995 60.7689C62.8948 60.7689 65.8095 63.6835 65.8095 67.2789ZM79.9153 73.7889C83.5106 73.7889 86.4253 70.8743 86.4253 67.2789C86.4253 63.6835 83.5106 60.7689 79.9153 60.7689C76.3199 60.7689 73.4053 63.6835 73.4053 67.2789C73.4053 70.8743 76.3199 73.7889 79.9153 73.7889ZM107.381 37.3917C107.381 39.4287 109.033 41.0801 111.07 41.0801H118.657C120.694 41.0801 122.346 39.4287 122.346 37.3917C122.346 35.3546 120.694 33.7033 118.657 33.7033H111.07C109.033 33.7033 107.381 35.3546 107.381 37.3917ZM111.07 38.2801C110.579 38.2801 110.181 37.8824 110.181 37.3917C110.181 36.901 110.579 36.5033 111.07 36.5033H118.657C119.148 36.5033 119.546 36.901 119.546 37.3917C119.546 37.8824 119.148 38.2801 118.657 38.2801H111.07Z" fill="#A4A7AE"/>
</svg>
