<svg viewBox="0 0 50 50" fill="none" xmlns="http://www.w3.org/2000/svg">
<path d="M25 46.9727C37.1352 46.9727 46.9727 37.1352 46.9727 25C46.9727 12.8648 37.1352 3.02734 25 3.02734C12.8648 3.02734 3.02734 12.8648 3.02734 25C3.02734 37.1352 12.8648 46.9727 25 46.9727Z" fill="#60B7FF"/>
<path fill-rule="evenodd" clip-rule="evenodd" d="M25 1.46484C31.4989 1.46484 37.3827 4.09922 41.6417 8.3582C45.9009 12.6173 48.5352 18.5012 48.5352 25C48.5352 31.4989 45.9009 37.3827 41.6418 41.6418C37.3827 45.9009 31.4988 48.5352 25 48.5352C18.5012 48.5352 12.6174 45.9009 8.3583 41.6418C4.09922 37.3827 1.46484 31.4988 1.46484 25C1.46484 18.5012 4.09922 12.6173 8.3582 8.3583C12.6174 4.09922 18.5012 1.46484 25 1.46484ZM39.4322 10.5677C35.7389 6.87432 30.6362 4.58984 25 4.58984C19.3638 4.58984 14.2611 6.87432 10.5678 10.5678C6.87432 14.2611 4.58984 19.3638 4.58984 25C4.58984 30.6362 6.87432 35.7389 10.5678 39.4323C14.2611 43.1257 19.3638 45.4102 25 45.4102C30.6362 45.4102 35.7389 43.1257 39.4322 39.4322C43.1257 35.7389 45.4102 30.6362 45.4102 25C45.4102 19.3638 43.1257 14.2611 39.4322 10.5677Z" fill="#DFE2EB"/>
<path fill-rule="evenodd" clip-rule="evenodd" d="M31.2875 16.0547C32.1504 16.0547 32.85 16.7542 32.85 17.6172C32.85 18.4802 32.1505 19.1797 31.2875 19.1797H18.7125C17.8495 19.1797 17.15 18.4802 17.15 17.6172C17.15 16.7543 17.8495 16.0547 18.7125 16.0547H31.2875ZM31.2875 30.8203C32.1504 30.8203 32.85 31.5198 32.85 32.3828C32.85 33.2458 32.1505 33.9453 31.2875 33.9453H18.7125C17.8495 33.9453 17.15 33.2458 17.15 32.3828C17.15 31.5199 17.8495 30.8203 18.7125 30.8203H31.2875ZM31.2875 23.4375C32.1504 23.4375 32.85 24.137 32.85 25C32.85 25.863 32.1505 26.5625 31.2875 26.5625H18.7125C17.8495 26.5625 17.15 25.863 17.15 25C17.15 24.1371 17.8495 23.4375 18.7125 23.4375H31.2875Z" fill="#EFEFEF"/>
</svg>
