
<svg  viewBox="0 0 89 89" fill="none" xmlns="http://www.w3.org/2000/svg">
<path d="M0 28C0 12.536 12.536 0 28 0H61C76.464 0 89 12.536 89 28V61C89 76.464 76.464 89 61 89H28C12.536 89 0 76.464 0 61V28Z" fill="#FFF6ED"/>
<path fill-rule="evenodd" clip-rule="evenodd" d="M28.2012 35C28.2012 34.3373 28.7583 33.8 29.4456 33.8H60.5567C61.244 33.8 61.8012 34.3373 61.8012 35C61.8012 35.6628 61.244 36.2 60.5567 36.2H29.4456C28.7583 36.2 28.2012 35.6628 28.2012 35ZM28.2012 45C28.2012 44.3373 28.7583 43.8 29.4456 43.8H53.6431C54.3304 43.8 54.8876 44.3373 54.8876 45C54.8876 45.6628 54.3304 46.2 53.6431 46.2H29.4456C28.7583 46.2 28.2012 45.6628 28.2012 45ZM28.2012 55C28.2012 54.3373 28.7583 53.8 29.4456 53.8H60.5567C61.244 53.8 61.8012 54.3373 61.8012 55C61.8012 55.6628 61.244 56.2 60.5567 56.2H29.4456C28.7583 56.2 28.2012 55.6628 28.2012 55Z" fill="#C4320A"/>
</svg>
