
<svg viewBox="0 0 50 50" fill="none" xmlns="http://www.w3.org/2000/svg">
<path d="M5.85875 7.02751C5.41312 7.07796 4.85818 7.24612 4.55549 7.42269C4.0426 7.70857 3.48767 8.31395 3.23543 8.85207L3 9.36496V23.0281V36.6912L3.23543 37.1705C3.67265 38.0617 4.49664 38.7007 5.46357 38.9109C5.77466 38.9782 8.25505 39.0034 13.7119 39.0034H21.5062L21.6071 39.5079C21.8845 40.9961 23.0953 42.148 24.6088 42.3666C25.3403 42.4675 42.1144 42.476 42.9131 42.3751C44.1155 42.2153 45.1917 41.4418 45.7046 40.3571L45.9653 39.8022L45.9905 30.1329C46.0157 20.0768 46.0157 20.1105 45.6626 19.4126C45.0488 18.1766 43.8464 17.4788 42.3414 17.4788H41.5594L41.5342 13.5017C41.509 9.59198 41.509 9.52471 41.3156 9.05386C40.9709 8.19624 40.1973 7.44792 39.3397 7.16204C38.9277 7.01911 37.9355 7.0107 22.5067 7.00229C13.4933 6.99388 6.00168 7.0107 5.85875 7.02751ZM39.0706 8.58301C39.449 8.7848 39.7853 9.15476 39.9619 9.53312C40.0964 9.819 40.1216 10.0965 40.1216 11.4418V13.0225H25.7775C15.0404 13.0225 11.3913 13.0477 11.2567 13.1234C10.9036 13.3083 10.7691 13.6867 10.912 14.0735C11.0633 14.4687 10.4832 14.4518 25.7859 14.4518H40.1216V15.9653V17.4788H32.2769C23.5914 17.4788 24.0875 17.4451 23.1794 18.0253C22.4142 18.5129 21.8929 19.236 21.6575 20.1273C21.4894 20.7327 21.4894 32.6721 21.6575 32.8823C21.935 33.2439 22.5992 33.2187 22.8262 32.8319C22.9019 32.6974 22.9355 31.1419 22.9692 26.4754L23.0112 20.2955L23.2382 19.9507C23.4989 19.5471 23.9025 19.1856 24.3145 19.0006C24.5751 18.8829 25.5589 18.8661 33.7736 18.8661C42.8879 18.8661 42.9384 18.8661 43.3167 19.0427C43.8044 19.2613 44.2248 19.6817 44.4434 20.1693C44.62 20.5477 44.62 20.5897 44.62 29.9647C44.62 38.995 44.6116 39.3902 44.4602 39.6761C44.1743 40.2142 43.9305 40.4748 43.4765 40.7271L43.0224 40.9793H33.8156C24.6424 40.9793 24.6088 40.9793 24.2304 40.8027C24.0202 40.7103 23.7259 40.5001 23.5746 40.3403C23.028 39.7854 23.0112 39.7265 22.9692 37.717L22.9271 35.8756L22.6917 35.6738C22.3806 35.4132 22.0107 35.4132 21.75 35.6822C21.5566 35.8672 21.5398 35.9429 21.5398 36.7332V37.574H19.5555C17.6973 37.574 17.5712 37.5656 17.63 37.4227C17.6637 37.347 17.7225 37.1789 17.7646 37.0612C17.8403 36.8762 17.9159 36.8341 18.4372 36.7585C19.1687 36.6407 19.5975 36.3717 19.917 35.8336C20.1525 35.43 20.1525 35.4132 20.1777 33.782C20.2113 31.7893 20.1609 31.5455 19.6144 31.0073C19.2276 30.6122 19.1855 30.5953 18.042 30.3767C17.9075 30.3515 17.7982 30.1749 17.5964 29.6957C17.361 29.1071 17.3442 29.0399 17.4619 28.8801C18 28.1402 18.042 28.0477 18.0757 27.5264C18.1345 26.6604 18.0336 26.4838 16.7556 25.189C16.125 24.5499 15.4608 23.9446 15.2758 23.8437C15.0404 23.7259 14.7797 23.6755 14.435 23.6755C13.8969 23.6755 13.5605 23.8016 13.0476 24.2136L12.745 24.4575L12.1228 24.1968C11.778 24.0455 11.4669 23.8941 11.4417 23.8521C11.4081 23.8016 11.366 23.5578 11.3324 23.3055C11.2735 22.7674 11.139 22.4984 10.7775 22.1284C10.2898 21.6407 10.0039 21.5819 8.02803 21.6155L6.26233 21.6407L5.9176 21.8762C5.41312 22.2041 5.14406 22.6581 5.04316 23.3476C4.95908 23.8941 4.93386 23.9362 4.68161 24.0286C4.53868 24.0791 4.39574 24.1211 4.36211 24.1211C4.32848 24.1211 4.30325 21.9434 4.30325 19.2865V14.4518H6.07736C7.86828 14.4518 8.08688 14.4182 8.3139 14.1239C8.44843 13.9474 8.44843 13.527 8.3139 13.3504C8.08688 13.0561 7.86828 13.0225 6.07736 13.0225H4.30325V11.5847C4.30325 10.7691 4.34529 9.98716 4.40415 9.76014C4.52186 9.28929 5.11043 8.65027 5.56446 8.50734C5.77466 8.44007 10.4243 8.41485 22.3386 8.42326C37.5067 8.44007 38.8352 8.44848 39.0706 8.58301ZM9.79372 23.171C9.8694 23.2635 9.96189 23.6251 10.0207 24.037C10.1385 24.9031 10.2562 25.0544 11.0213 25.3067C11.324 25.4076 11.7948 25.6009 12.0555 25.7271C12.7702 26.0886 12.9888 26.055 13.7119 25.5085C14.0482 25.2562 14.3845 25.046 14.4602 25.046C14.6368 25.046 16.7472 27.1564 16.7472 27.3246C16.7472 27.4003 16.5454 27.7198 16.2932 28.0393C16.0493 28.3588 15.8223 28.7035 15.7887 28.8044C15.7466 28.939 15.8307 29.2248 16.0661 29.7545C16.2595 30.1665 16.4109 30.5281 16.4109 30.5533C16.4109 30.7299 16.7892 31.537 16.907 31.5959C16.9826 31.6379 17.3694 31.722 17.7562 31.7725C18.7988 31.9154 18.7651 31.8566 18.7651 33.5802C18.7651 34.6144 18.7315 35.06 18.6558 35.1693C18.5802 35.2702 18.3279 35.3459 17.773 35.4216C16.8397 35.5477 16.764 35.6066 16.4613 36.4642C16.3436 36.8005 16.1839 37.1873 16.1166 37.3218L15.9821 37.574H14.6031C13.838 37.574 13.2158 37.5572 13.2158 37.5404C13.2158 37.5152 13.3335 37.3302 13.4681 37.12C14.4686 35.6402 14.7797 33.5634 14.2668 31.8145C13.8044 30.2254 12.8374 28.9726 11.4417 28.1486C10.0039 27.291 8.22141 27.0303 6.60706 27.4423C6.06895 27.5853 5.02635 28.0477 4.63957 28.3252C4.51345 28.4177 4.37892 28.4933 4.3537 28.4933C4.32848 28.4933 4.30325 27.8711 4.30325 27.106V25.7271L4.6648 25.5673C4.85818 25.4832 5.21973 25.3403 5.46357 25.2646C6.16984 25.0292 6.23711 24.9367 6.35482 24.0623C6.41368 23.6335 6.51458 23.2299 6.57343 23.1626C6.65751 23.0533 6.92657 23.0281 8.17097 23.0281C9.48263 23.0281 9.67601 23.0449 9.79372 23.171ZM9.70964 28.9053C11.7528 29.62 13.1233 31.5202 13.1317 33.6307C13.1317 34.2613 12.8627 35.2786 12.5263 35.9177C12.375 36.2035 12.005 36.6912 11.7024 37.0023L11.1558 37.574H8.45684H5.76626L5.33744 37.3638C4.85818 37.12 4.49664 36.6744 4.37892 36.1699C4.33688 35.9933 4.30325 34.6564 4.30325 33.1934V30.5449L4.69843 30.1413C5.37108 29.4603 6.1278 29.0314 7.07792 28.7792C7.72534 28.6194 9.07063 28.6783 9.70964 28.9053Z" fill="#757575"/>
<path d="M6.696 9.97057C6.04017 10.0967 5.93086 11.215 6.55306 11.5008C6.91461 11.669 7.24252 11.6101 7.51158 11.3495C7.94039 10.9207 7.78905 10.1976 7.23412 10.0042C7.09118 9.95375 6.94824 9.92012 6.92302 9.92012C6.89779 9.92853 6.78849 9.95375 6.696 9.97057Z" fill="#757575"/>
<path d="M9.68174 10.0036C9.13522 10.2223 9.00069 10.9285 9.42109 11.3489C9.7406 11.6684 10.1526 11.6768 10.5057 11.3826C10.9766 10.9874 10.8757 10.2643 10.3208 10.0373C9.98443 9.89434 9.96762 9.89434 9.68174 10.0036Z" fill="#757575"/>
<path d="M12.627 9.97007C11.9712 10.2223 11.8703 11.164 12.4673 11.4667C13.3333 11.9207 14.1405 10.8361 13.4426 10.1719C13.2408 9.98689 12.8372 9.88599 12.627 9.97007Z" fill="#757575"/>
<path d="M37.3044 9.9872C36.4973 10.3235 36.7159 11.5931 37.5903 11.5931C38.4563 11.5931 38.7506 10.4076 37.9771 10.0376C37.6744 9.89471 37.5567 9.8863 37.3044 9.9872Z" fill="#757575"/>
<path d="M15.6595 10.2226C15.5586 10.3067 15.4577 10.5085 15.4324 10.6767C15.3904 10.9205 15.424 11.0214 15.5922 11.2232L15.8024 11.467H21.604H27.4055L27.6242 11.2652C27.9184 10.9878 27.9184 10.5674 27.6326 10.2899L27.4308 10.0797H21.6376C16.2396 10.0797 15.8276 10.0881 15.6595 10.2226Z" fill="#757575"/>
<path d="M33.3572 23.1876C33.2227 23.2716 33.0461 23.4146 32.9705 23.4986C32.8948 23.5827 31.457 26.1556 29.7754 29.2077L26.7148 34.7571V35.2615C26.7148 35.6567 26.7569 35.8249 26.9082 36.0435C27.337 36.6405 26.9166 36.6068 34.0719 36.6068C40.4116 36.6068 40.5125 36.6068 40.7984 36.4303C41.4206 36.0687 41.6644 35.2531 41.3365 34.6057C41.0758 34.1096 35.4004 23.9947 35.1902 23.6752C35.0809 23.4986 34.8707 23.28 34.7193 23.196C34.3662 22.9773 33.702 22.9773 33.3572 23.1876ZM39.7305 34.6478L40.05 35.2195H34.0719H28.0854L28.2451 34.942C28.3292 34.7991 29.6661 32.3776 31.2132 29.5693L34.0215 24.474L36.7205 29.275C38.2003 31.9235 39.5624 34.3367 39.7305 34.6478Z" fill="#1890FF"/>
<path d="M33.557 27.5768C33.3889 27.7449 33.3889 27.8038 33.4477 29.6956C33.5066 31.9574 33.5318 32.0247 34.1036 32.0247C34.7174 32.0247 34.7258 31.9994 34.7426 29.8386C34.7678 27.5768 34.7762 27.6945 34.608 27.5347C34.4147 27.333 33.7756 27.3582 33.557 27.5768Z" fill="#1890FF"/>
<path d="M33.6103 32.7895C33.2992 33.0333 33.2992 33.5462 33.6103 33.8321C34.2829 34.4543 35.2162 33.5546 34.6445 32.8315C34.4259 32.5541 33.9382 32.5288 33.6103 32.7895Z" fill="#1890FF"/>
</svg>
