<svg viewBox="0 0 126 126" fill="none" xmlns="http://www.w3.org/2000/svg">
<path d="M19.7458 97.3555H18.5769C13.5102 97.3492 9.40287 93.2432 9.39734 88.1754V15.3441C9.39629 14.2839 9.58012 13.2315 9.9406 12.2344C8.16441 12.8763 6.62897 14.0496 5.54303 15.5947C4.45709 17.1399 3.87332 18.9821 3.87109 20.8707V93.7019C3.87662 98.7698 7.98366 102.876 13.0504 102.882H14.2192C16.1084 102.879 17.9511 102.295 19.4968 101.209C21.0425 100.123 22.2163 98.5872 22.8588 96.8106C21.8607 97.1716 20.8072 97.356 19.7458 97.3555ZM85.111 97.3555H29.0101C31.4365 94.9166 32.7977 91.6157 32.7958 88.1754V41.5238C32.7958 40.4627 32.9793 39.4102 33.3396 38.413C31.5633 39.055 30.0277 40.2285 28.9416 41.7739C27.8556 43.3192 27.2717 45.1615 27.2693 47.0504V93.7019C27.2712 97.1422 25.91 100.443 23.4836 102.882H82.3541C82.351 102.786 85.111 97.3555 85.111 97.3555Z" fill="#CCD1DA"/>
<path d="M90.2951 34.1786H89.7153V33.8506C89.7068 26.6468 83.8705 20.808 76.6664 20.7997H55.8071C55.5695 20.7997 55.3429 20.6991 55.1843 20.5234L47.6157 12.2463C46.392 10.9098 44.904 9.84216 43.2459 9.11117C41.5878 8.38019 39.7959 8.0018 37.9838 8H13.0478C5.84485 8.00774 0.00828978 13.8451 0 21.0478V93.8791C0.00856611 101.082 5.84485 106.919 13.0478 106.927H79.8582V103.058H23.4814C25.9077 100.62 27.2692 97.3192 27.2679 93.8791V47.2275C27.2734 42.1597 31.3793 38.0535 36.4469 38.0471H90.2951C95.3629 38.0527 99.4699 42.1589 99.4763 47.2275V77.0837H103.345V47.2275C103.336 40.0237 97.4989 34.1874 90.2951 34.1786ZM85.8468 34.1786H36.4469C29.2441 34.1874 23.4079 40.0248 23.3993 47.2275V93.8791C23.3927 98.9469 19.2856 103.054 14.217 103.058H13.0478C7.98113 103.053 3.87382 98.9469 3.86857 93.8791V21.0478C3.87409 15.9811 7.98113 11.8738 13.0478 11.8686H37.9841C39.2589 11.87 40.5196 12.1363 41.6861 12.6506C42.8526 13.165 43.8995 13.9161 44.7604 14.8565L52.3251 23.1311C52.7667 23.6154 53.3045 24.0022 53.9041 24.2669C54.5037 24.5316 55.1519 24.6683 55.8074 24.6683H76.6667C81.7345 24.6746 85.8415 28.7817 85.846 33.8506L85.8468 34.1786Z" fill="#6B7280"/>
<path d="M107.468 78.3028C106.801 77.2239 105.869 76.3339 104.76 75.7181C103.651 75.1022 102.402 74.781 101.134 74.7852C99.8656 74.7813 98.6174 75.1026 97.5085 75.7184C96.3997 76.3343 95.4672 77.224 94.8 78.3028L77.397 106.255C76.6936 107.384 76.3051 108.682 76.2719 110.012C76.2386 111.342 76.5618 112.657 77.208 113.821C77.854 114.984 78.7995 115.954 79.9465 116.629C81.0935 117.304 82.4001 117.659 83.731 117.659H118.538C119.869 117.659 121.175 117.303 122.322 116.629C123.469 115.954 124.414 114.984 125.06 113.821C125.706 112.657 126.029 111.342 125.996 110.012C125.963 108.682 125.574 107.384 124.871 106.255L107.468 78.3028ZM121.678 111.942C121.371 112.505 120.917 112.975 120.364 113.3C119.811 113.626 119.18 113.795 118.538 113.79H83.731C83.0901 113.791 82.4608 113.619 81.9084 113.294C81.356 112.969 80.9007 112.503 80.5897 111.942C80.2785 111.382 80.1228 110.749 80.1387 110.109C80.1547 109.468 80.3417 108.844 80.6803 108.3L98.0847 80.3482C98.4071 79.83 98.8563 79.4025 99.3899 79.1062C99.9234 78.8098 100.524 78.6544 101.134 78.6546C102.374 78.6546 103.527 79.2948 104.183 80.3485L121.588 108.301C121.931 108.843 122.12 109.468 122.136 110.109C122.152 110.75 121.994 111.384 121.678 111.942V111.942Z" fill="#1890FF"/>
<path d="M101.134 87.2812C100.065 87.2812 99.1992 88.147 99.1992 89.2155V101.848C99.1992 102.916 100.065 103.782 101.134 103.782C102.202 103.782 103.068 102.916 103.068 101.848V89.2155C103.068 88.147 102.202 87.2812 101.134 87.2812ZM101.134 104.851C100.065 104.851 99.1992 105.716 99.1992 106.785V108.203C99.1992 109.272 100.065 110.138 101.134 110.138C102.202 110.138 103.068 109.272 103.068 108.203V106.785C103.068 105.716 102.202 104.851 101.134 104.851Z" fill="#1890FF"/>
</svg>
