<svg xmlns="http://www.w3.org/2000/svg" width="32" height="32" fill="none"><g clip-path="url(#a)"><g fill-rule="evenodd" clip-rule="evenodd" filter="url(#b)"><path fill="#9CA3AF" d="m27.479 21.209-5.83-7.051a1.474 1.474 0 0 0-1.12-.533H7.993c-.43 0-.84.2-1.119.533l-5.83 7.05v3.684h26.435V21.21Z"/><path fill="#DCE3EC" d="M5.984 4.523h16.554c.259 0 .507.101.69.281a.95.95 0 0 1 .285.677v22.353a.95.95 0 0 1-.285.677.984.984 0 0 1-.69.28H5.985a.984.984 0 0 1-.69-.28.95.95 0 0 1-.285-.677V5.48a.95.95 0 0 1 .285-.677c.183-.18.431-.28.69-.28Z"/><path fill="#C9D2DD" d="M27.425 29.674a1.703 1.703 0 0 1-1.641 1.284H2.739a1.702 1.702 0 0 1-1.695-1.713v-8.038h6.413c.709 0 1.28.587 1.28 1.298v.01c0 .711.577 1.286 1.286 1.286H18.5a1.29 1.29 0 0 0 1.286-1.292v-.003c0-.711.57-1.299 1.28-1.299h6.413v8.038c0 .148-.019.292-.054.429Z"/><path fill="#9CA3AF" d="M8.14 6.906h12.242c.13 0 .254.05.345.14.091.09.143.212.143.34v5.975a.475.475 0 0 1-.143.34.492.492 0 0 1-.345.14H8.14a.492.492 0 0 1-.345-.14.475.475 0 0 1-.143-.34V7.385c0-.127.052-.249.143-.338a.492.492 0 0 1 .345-.14Zm.064 9.534h12.114c.147 0 .287.057.39.159a.537.537 0 0 1 0 .766.556.556 0 0 1-.39.159H8.204a.556.556 0 0 1-.39-.16.537.537 0 0 1 0-.765.556.556 0 0 1 .39-.159Zm0 2.817h12.114c.147 0 .287.057.39.159a.537.537 0 0 1 0 .766.556.556 0 0 1-.39.159H8.204a.556.556 0 0 1-.39-.16.537.537 0 0 1 0-.765.556.556 0 0 1 .39-.159Z"/></g><g filter="url(#c)"><path fill="#1890FF" fill-rule="evenodd" d="m23.978 7.442-1.367.51a.208.208 0 0 1-.209-.04.185.185 0 0 1-.054-.198l.387-1.192c-.518-.566-.822-1.256-.822-2 0-1.922 2.025-3.479 4.522-3.479 2.497 0 4.522 1.557 4.522 3.478C30.957 6.442 28.932 8 26.435 8a5.52 5.52 0 0 1-2.457-.557Z" clip-rule="evenodd"/><path fill="#fff" d="M28.085 4.938a.56.56 0 0 0 .564-.557.56.56 0 0 0-.564-.557.56.56 0 0 0-.564.557.56.56 0 0 0 .564.557Z"/><path fill="#fff" fill-rule="evenodd" d="M25.127 4.869H24l.573-.974.554.974Zm.704-.974h.986v.974h-.986v-.974Z" clip-rule="evenodd"/></g></g><defs><filter id="b" width="30.435" height="30.434" x="-.956" y="2.523" color-interpolation-filters="sRGB" filterUnits="userSpaceOnUse"><feFlood flood-opacity="0" result="BackgroundImageFix"/><feColorMatrix in="SourceAlpha" result="hardAlpha" values="0 0 0 0 0 0 0 0 0 0 0 0 0 0 0 0 0 0 127 0"/><feOffset/><feGaussianBlur stdDeviation="1"/><feComposite in2="hardAlpha" operator="out"/><feColorMatrix values="0 0 0 0 0 0 0 0 0 0 0 0 0 0 0 0 0 0 0.12 0"/><feBlend in2="BackgroundImageFix" result="effect1_dropShadow_13827_30653"/><feBlend in="SourceGraphic" in2="effect1_dropShadow_13827_30653" result="shape"/></filter><filter id="c" width="17.044" height="14.957" x="17.913" y="-.957" color-interpolation-filters="sRGB" filterUnits="userSpaceOnUse"><feFlood flood-opacity="0" result="BackgroundImageFix"/><feColorMatrix in="SourceAlpha" result="hardAlpha" values="0 0 0 0 0 0 0 0 0 0 0 0 0 0 0 0 0 0 127 0"/><feOffset dy="2"/><feGaussianBlur stdDeviation="2"/><feComposite in2="hardAlpha" operator="out"/><feColorMatrix values="0 0 0 0 0 0 0 0 0 0 0 0 0 0 0 0 0 0 0.1 0"/><feBlend in2="BackgroundImageFix" result="effect1_dropShadow_13827_30653"/><feBlend in="SourceGraphic" in2="effect1_dropShadow_13827_30653" result="shape"/></filter><clipPath id="a"><path fill="#fff" d="M0 0h32v32H0z"/></clipPath></defs></svg>