<svg viewBox="0 0 20 20" fill="none" xmlns="http://www.w3.org/2000/svg">
<g clip-path="url(#clip0_13077_320457)">
<path d="M7.49998 10.8335H2.49998C1.58331 10.8335 0.833313 11.5835 0.833313 12.5002V17.5002C0.833313 18.4168 1.58331 19.1668 2.49998 19.1668H7.49998C8.41665 19.1668 9.16665 18.4168 9.16665 17.5002V12.5002C9.16665 11.5835 8.41665 10.8335 7.49998 10.8335ZM7.49998 17.5002H2.49998V12.5002H7.49998V17.5002ZM7.49998 0.833496H2.49998C1.58331 0.833496 0.833313 1.5835 0.833313 2.50016V7.50016C0.833313 8.41683 1.58331 9.16683 2.49998 9.16683H7.49998C8.41665 9.16683 9.16665 8.41683 9.16665 7.50016V2.50016C9.16665 1.5835 8.41665 0.833496 7.49998 0.833496ZM7.49998 7.50016H2.49998V2.50016H7.49998V7.50016ZM18.3333 10.8335H11.6666C11.1666 10.8335 10.8333 11.1668 10.8333 11.6668C10.8333 12.1668 11.1666 12.5002 11.6666 12.5002H18.3333C18.8333 12.5002 19.1666 12.1668 19.1666 11.6668C19.1666 11.1668 18.8333 10.8335 18.3333 10.8335ZM18.3333 17.5002H11.6666C11.1666 17.5002 10.8333 17.8335 10.8333 18.3335C10.8333 18.8335 11.1666 19.1668 11.6666 19.1668H18.3333C18.8333 19.1668 19.1666 18.8335 19.1666 18.3335C19.1666 17.8335 18.8333 17.5002 18.3333 17.5002ZM17.5 0.833496H12.5C11.5833 0.833496 10.8333 1.5835 10.8333 2.50016V7.50016C10.8333 8.41683 11.5833 9.16683 12.5 9.16683H17.5C18.4166 9.16683 19.1666 8.41683 19.1666 7.50016V2.50016C19.1666 1.5835 18.4166 0.833496 17.5 0.833496ZM17.5 7.50016H12.5V2.50016H17.5V7.50016ZM18.3333 14.1668H15C14.5 14.1668 14.1666 14.5002 14.1666 15.0002C14.1666 15.5002 14.5 15.8335 15 15.8335H18.3333C18.8333 15.8335 19.1666 15.5002 19.1666 15.0002C19.1666 14.5002 18.8333 14.1668 18.3333 14.1668Z" fill="#0950C5"/>
</g>
<defs>
<clipPath id="clip0_13077_320457">
<rect width="20" height="20" fill="white"/>
</clipPath>
</defs>
</svg>