
<svg viewBox="0 0 126 126" fill="none" xmlns="http://www.w3.org/2000/svg">
<path d="M14.7621 110.259L14.5433 110.208C9.01839 108.903 6.72435 105.569 5.77526 103.001C4.88764 100.604 5.01058 98.4301 5.05976 97.8779C5.03271 94.2479 4.59259 34.9053 5.06222 25.6765C5.34498 20.108 8.40862 17.4263 10.9264 16.1565C13.5794 14.8215 16.1612 14.7539 16.6529 14.7539H43.1979C45.9935 14.7539 48.2999 15.376 50.0604 16.6015C51.098 17.3238 51.661 18.074 51.9192 18.4934L58.6686 25.4948C60.4831 27.3773 61.9978 27.6383 62.2412 27.6686H82.8949C87.2912 27.6686 90.6868 28.8452 92.9932 31.1634C96.0175 34.2063 95.9855 38.1345 95.9609 38.717V97.8127C96.1502 98.966 96.851 104.416 93.8734 107.771C92.4276 109.399 90.3205 110.259 87.7781 110.259H14.7621Z" fill="white"/>
<path d="M16.6527 16.4949H16.6699H43.1977C48.9685 16.4949 50.4069 19.5098 50.4069 19.5098C50.4069 19.5098 54.7368 24.0018 57.3062 26.6672C59.8757 29.3326 62.1599 29.4095 62.1599 29.4095H82.8948C94.7043 29.4095 94.1166 38.6756 94.1166 38.6756V97.9507C94.1166 97.9507 96.0517 108.507 87.7779 108.507H14.9881C5.83655 106.348 6.90366 97.9507 6.90366 97.9507C6.90366 97.9507 6.42666 35.1318 6.90366 25.7562C7.36837 16.6067 16.2224 16.4949 16.6527 16.4949ZM16.6527 13C12.2269 13 3.72692 15.6305 3.21795 25.5861C2.74832 34.8009 3.17861 93.4563 3.21303 97.8039C3.14665 98.6147 3.06797 100.966 4.03181 103.575C5.13334 106.548 7.77161 110.406 14.0956 111.897L14.5357 112H87.7779C91.6997 112 94.0232 110.308 95.2846 108.89C98.6482 105.101 98.0409 99.2461 97.8048 97.6804V38.7501C97.8392 37.8112 97.7999 33.4472 94.3355 29.9617C91.6677 27.2777 87.8197 25.917 82.8948 25.917H62.423C62.1451 25.8471 61.2083 25.5349 60.0306 24.3117L53.3845 17.4152C52.4305 16.0126 49.6422 13 43.1953 13H16.6527Z" fill="#6B7280"/>
<path d="M58.3098 45.7656L37.3019 97.4599C37.3019 97.4599 36.5717 99.6417 32.1631 103.095L98.0805 103.414C98.0805 103.414 94.9554 108.438 87.2177 108.619C79.0004 108.811 22.6992 107.673 22.6992 107.673C22.6992 107.673 29.6207 105.898 46.933 56.3721C46.933 56.3721 50.5695 47.7811 58.3098 45.7656Z" fill="#CCD1DA"/>
<path d="M23.6639 103.392H22.3733C16.7823 103.387 12.2498 99.2179 12.2421 94.076V20.1568C12.2421 19.0811 12.4436 18.0124 12.8415 17C10.8801 17.6515 9.18647 18.8421 7.98767 20.4099C6.78887 21.9778 6.14611 23.848 6.14355 25.765V99.6842C6.14866 104.828 10.6811 108.995 16.2747 109H17.5653C19.6492 109 21.6846 108.405 23.3884 107.303C25.0948 106.202 26.3905 104.641 27.0996 102.839C25.9977 103.204 24.8346 103.392 23.6639 103.392Z" fill="#CCD1DA"/>
<path d="M15.3218 109.374C15.3218 109.374 23.569 110.489 29.6491 98.6429C34.9317 88.3542 46.1548 55.7571 46.1548 55.7571C46.1548 55.7571 51.6479 43.2346 63.006 43.1779C74.364 43.1211 112.594 42.9301 112.594 42.9301C112.594 42.9301 124.398 43.4235 119.775 55.3892C116.36 64.2309 108.161 87.1932 102.756 99.4494C97.9481 110.348 88.8711 110.165 88.8711 110.165L15.3218 109.377L15.3218 109.374Z" fill="white"/>
<path d="M56.9623 51C58.7402 48.2851 60.804 46.5 62.2011 45C54.6568 45 49.0206 53 47.0081 58.5C43.1662 69 34.2249 91.7 31.2911 98.5C28.3572 105.3 23.9565 108.5 22.3848 109C38.2764 109 73.2824 108.336 82.6334 109.5C94.6831 111 97.4773 104.5 98.8744 103C76.5212 103.667 31.9198 104.6 34.4345 103C36.9492 101.4 38.1018 99.7567 38.6255 98.5C44.7377 83.8333 54.3427 55 56.9623 51Z" fill="#CCD1DA"/>
<path d="M88.9269 111.893C88.8809 111.894 88.8495 111.894 88.8325 111.894L16.4385 112.118C15.6497 112.159 15.1556 112.099 15.0653 111.088L15.0653 109L16.4385 109C17.1739 108.95 18.2745 108.409 19.6941 107.766C22.9002 106.319 25.775 102.245 28.0164 97.8768C33.1817 87.8129 44.317 55.5375 44.429 55.2133L44.4791 55.086C44.7229 54.5324 50.5787 41.5042 62.9944 41.4422L112.626 41.1942L112.669 41.1939C112.904 41.2043 118.441 41.4794 121.195 45.4342C123.054 48.1038 123.148 51.6535 121.475 55.984C120.518 58.4596 119.183 62.0557 117.635 66.2215C113.709 76.79 108.331 91.2626 104.425 100.116C99.4045 111.497 90.0281 111.888 88.9221 111.893L88.9269 111.893ZM22.9084 109L88.8909 108.427C88.92 108.426 90.9167 108.426 93.3935 107.248C96.7103 105.669 99.2988 102.818 101.082 98.7713C104.948 90.0083 110.305 75.5913 114.216 65.0622C115.766 60.8871 117.107 57.2817 118.071 54.7853C119.316 51.5594 119.354 49.0653 118.183 47.3677C116.553 45.0067 112.935 44.6873 112.541 44.6593L63.0158 44.9067C53.3713 44.9549 48.2523 55.5178 47.8528 56.3727C47.1071 58.5352 36.4789 89.2734 31.2776 99.4022C29.2469 103.358 26.9645 105.992 24.7644 107.739L22.9084 109Z" fill="#6B7280"/>
</svg>
