<svg width="775" height="370" viewBox="0 0 775 370" fill="none" xmlns="http://www.w3.org/2000/svg">
<g clip-path="url(#clip0)">
<path d="M219.922 341.244H497.94V342.394C497.94 355.814 486.82 366.741 473.014 366.741H194.996" fill="white"/>
<path d="M473.015 370H194.996V363.674H473.015C484.327 363.674 493.53 355.238 494.681 344.503H219.922V338.176H501.2V342.585C501.008 357.539 488.545 370 473.015 370Z" fill="#76746F"/>
<path d="M123.862 337.984V358.497C123.862 364.824 129.039 370 135.366 370H194.996C210.527 370 222.99 357.731 222.99 342.394V337.984H123.862Z" fill="#76746F"/>
<path d="M127.121 341.244H438.885V169.088C438.885 157.969 429.874 148.959 418.753 148.959H147.062C135.941 148.959 126.93 157.969 126.93 169.088V341.244H127.121Z" fill="white"/>
<path d="M441.953 344.311H123.862V169.088C123.862 156.244 134.407 145.699 147.254 145.699H418.753C431.599 145.699 442.145 156.244 442.145 169.088V344.311H441.953ZM130.189 337.984H435.626V169.088C435.626 159.694 427.956 152.218 418.753 152.218H147.062C137.667 152.218 130.189 159.886 130.189 169.088V337.984Z" fill="#76746F"/>
<path d="M429.682 344.311H136.133V169.472C136.133 163.145 141.31 157.969 147.637 157.969H418.178C424.505 157.969 429.682 163.145 429.682 169.472V344.311ZM142.46 337.984H423.163V169.472C423.163 166.596 420.862 164.295 417.986 164.295H147.637C144.761 164.295 142.46 166.596 142.46 169.472V337.984Z" fill="#76746F"/>
<path d="M328.829 351.596H381.748C387.117 351.596 391.527 347.187 391.527 341.819V341.244H319.05V341.819C319.05 347.187 323.46 351.596 328.829 351.596Z" fill="#76746F"/>
<path d="M141.118 366.741H82.0634C75.3526 366.741 69.7922 361.181 69.7922 354.472V212.798C69.7922 206.088 75.3526 200.528 82.0634 200.528H141.118C147.829 200.528 153.389 206.088 153.389 212.798V354.472C153.389 361.181 147.829 366.741 141.118 366.741Z" fill="white"/>
<path d="M141.118 197.461H82.0633H78.8038C70.3674 197.461 63.4648 204.363 63.4648 212.798V354.471C63.4648 362.907 70.3674 369.808 78.8038 369.808H82.0633H141.118C149.555 369.808 156.457 362.907 156.457 354.471V212.798C156.457 204.363 149.555 197.461 141.118 197.461ZM150.13 354.471C150.13 359.456 146.103 363.482 141.118 363.482H91.2667H81.8716C76.8864 363.482 72.8599 359.456 72.8599 354.471V212.798C72.8599 207.813 76.8864 203.788 81.8716 203.788H91.2667H141.118C146.103 203.788 150.13 207.813 150.13 212.798V354.471Z" fill="#76746F"/>
<path d="M118.11 352.554C118.11 356.197 115.234 359.073 111.591 359.073C107.948 359.073 105.072 356.197 105.072 352.554C105.072 348.912 107.948 346.036 111.591 346.036C115.234 346.036 118.11 348.912 118.11 352.554Z" fill="#76746F"/>
<path d="M121.945 200.72C121.945 206.471 117.343 211.073 111.591 211.073C105.839 211.073 101.237 206.471 101.237 200.72H121.945Z" fill="#76746F"/>
<path d="M134.216 305.777C132.49 305.777 130.956 304.435 130.956 302.518C130.956 291.782 122.136 283.155 111.591 283.155C100.854 283.155 92.2253 291.974 92.2253 302.518C92.2253 304.244 90.8832 305.777 88.9658 305.777C87.2402 305.777 85.7063 304.435 85.7063 302.518C85.7063 288.332 97.2105 276.637 111.591 276.637C125.971 276.637 137.475 288.14 137.475 302.518C137.475 304.435 135.941 305.777 134.216 305.777Z" fill="#76746F"/>
<path d="M100.087 255.933C99.3196 255.933 98.3609 255.549 97.7857 254.974L88.5823 245.005C87.4319 243.663 87.4319 241.746 88.774 240.404C90.1162 239.254 92.0336 239.254 93.3757 240.596L102.579 250.565C103.729 251.907 103.73 253.824 102.387 255.166C101.62 255.549 100.853 255.933 100.087 255.933Z" fill="#76746F"/>
<path d="M90.8831 255.933C90.1162 255.933 89.3492 255.741 88.774 255.166C87.4319 254.016 87.4319 251.907 88.5823 250.565L97.7857 240.596C98.9361 239.254 101.045 239.254 102.387 240.404C103.73 241.554 103.729 243.663 102.579 245.005L93.3757 254.974C92.6088 255.549 91.6501 255.933 90.8831 255.933Z" fill="#76746F"/>
<path d="M132.298 255.933C131.531 255.933 130.573 255.549 129.997 254.974L120.794 245.005C119.644 243.663 119.644 241.746 120.986 240.404C122.328 239.254 124.245 239.254 125.588 240.596L134.791 250.565C135.941 251.907 135.941 253.824 134.599 255.166C133.832 255.549 133.065 255.933 132.298 255.933Z" fill="#76746F"/>
<path d="M123.095 255.933C122.328 255.933 121.561 255.741 120.986 255.166C119.644 254.016 119.644 251.907 120.794 250.565L129.997 240.596C131.148 239.254 133.257 239.254 134.599 240.404C135.941 241.554 135.941 243.663 134.791 245.005L125.588 254.974C124.821 255.549 124.054 255.933 123.095 255.933Z" fill="#76746F"/>
<path d="M775 364.249H0V370H775V364.249Z" fill="#76746F"/>
<path d="M284.921 117.135C252.517 117.135 226.249 90.8705 226.249 58.4715C226.249 26.0725 252.517 -0.191711 284.921 -0.191711C317.324 -0.191711 343.592 26.0725 343.592 58.4715C343.592 90.8705 317.324 117.135 284.921 117.135Z" fill="#76746F"/>
<path d="M288.18 114.067C318.784 114.067 343.592 89.2621 343.592 58.6632C343.592 28.0643 318.784 3.25906 288.18 3.25906C257.577 3.25906 232.768 28.0643 232.768 58.6632C232.768 89.2621 257.577 114.067 288.18 114.067Z" fill="white"/>
<path d="M288.18 117.135C255.777 117.135 229.509 90.8705 229.509 58.4715C229.509 26.0725 255.777 -0.191711 288.18 -0.191711C320.584 -0.191711 346.852 26.0725 346.852 58.4715C346.852 90.8705 320.584 117.135 288.18 117.135ZM288.18 6.32642C259.42 6.32642 236.028 29.715 236.028 58.4715C236.028 87.228 259.42 110.617 288.18 110.617C316.941 110.617 340.333 87.228 340.333 58.4715C340.333 29.715 316.941 6.32642 288.18 6.32642Z" fill="#76746F"/>
<path d="M312.148 90.1036C310.422 90.1036 308.888 88.7617 308.888 86.8446C308.888 75.1503 299.493 65.7565 287.797 65.7565C276.101 65.7565 266.706 75.1503 266.706 86.8446C266.706 88.5699 265.364 90.1036 263.446 90.1036C261.721 90.1036 260.187 88.7617 260.187 86.8446C260.187 71.6995 272.458 59.2383 287.797 59.2383C302.944 59.2383 315.407 71.5078 315.407 86.8446C315.215 88.5699 313.873 90.1036 312.148 90.1036Z" fill="#76746F"/>
<path d="M268.623 43.7098C262.488 43.7098 257.119 41.0259 254.818 37C254.051 35.4663 254.626 33.5492 256.16 32.7824C257.694 32.0155 259.612 32.5907 260.379 34.1244C261.337 35.8497 264.213 37.5751 268.432 37.5751C272.65 37.5751 275.526 35.8497 276.484 34.1244C277.251 32.5907 279.169 32.0155 280.703 32.7824C282.237 33.5492 282.812 35.4663 282.045 37C280.127 41.0259 274.759 43.7098 268.623 43.7098Z" fill="#76746F"/>
<path d="M306.971 43.7098C300.835 43.7098 295.466 41.0259 293.166 37C292.399 35.4663 292.974 33.5492 294.508 32.7824C296.042 32.0155 297.959 32.5907 298.726 34.1244C299.685 35.8497 302.561 37.5751 306.779 37.5751C310.997 37.5751 313.873 35.8497 314.832 34.1244C315.599 32.5907 317.516 32.0155 319.05 32.7824C320.584 33.5492 321.159 35.4663 320.392 37C318.475 41.0259 313.106 43.7098 306.971 43.7098Z" fill="#76746F"/>
<path d="M566.007 218.741H508.678C506.76 218.741 505.035 217.782 503.884 216.057L475.124 166.404C474.165 164.679 474.165 162.57 475.124 161.036L503.884 111.383C504.843 109.658 506.568 108.699 508.678 108.699H566.007C567.924 108.699 569.65 109.658 570.8 111.383L599.561 161.036C600.52 162.762 600.52 164.87 599.561 166.404L570.8 216.057C569.842 217.591 567.924 218.741 566.007 218.741Z" fill="#76746F"/>
<path d="M570.609 111.383H513.279C512.321 111.383 511.554 111.767 511.17 112.725L482.41 162.378C482.026 163.145 482.026 164.104 482.41 164.87L511.17 214.523C511.554 215.29 512.512 215.865 513.279 215.865H570.609C571.567 215.865 572.334 215.482 572.718 214.523L601.478 164.87C601.862 164.104 601.862 163.145 601.478 162.378L572.718 112.725C572.334 111.959 571.567 111.383 570.609 111.383Z" fill="white"/>
<path d="M570.609 218.741H513.279C511.362 218.741 509.636 217.782 508.486 216.057L479.725 166.404C478.767 164.679 478.767 162.57 479.725 161.036L508.486 111.383C509.445 109.658 511.17 108.699 513.279 108.699H570.609C572.526 108.699 574.252 109.658 575.402 111.383L604.163 161.036C605.121 162.762 605.121 164.87 604.163 166.404L575.402 216.057C574.252 217.591 572.526 218.741 570.609 218.741ZM513.471 212.798H570.417L598.794 163.529L570.417 114.259H513.471L485.094 163.529L513.471 212.798Z" fill="#76746F"/>
<path d="M534.37 189.601C534.37 188.642 534.562 187.684 534.946 186.725C535.329 185.767 535.904 185 536.479 184.425C537.246 183.85 538.013 183.275 538.972 182.891C539.931 182.508 540.889 182.316 542.04 182.316C543.19 182.316 544.149 182.508 545.108 182.891C546.066 183.275 546.833 183.85 547.6 184.425C548.367 185 548.751 185.959 549.134 186.725C549.518 187.684 549.709 188.642 549.709 189.601C549.709 190.56 549.518 191.518 549.134 192.477C548.751 193.435 548.175 194.202 547.6 194.777C546.833 195.352 546.066 195.927 545.108 196.311C544.149 196.694 543.19 196.886 542.04 196.886C540.889 196.886 539.931 196.694 538.972 196.311C538.013 195.927 537.246 195.352 536.479 194.777C535.712 194.202 535.329 193.244 534.946 192.477C534.562 191.71 534.37 190.751 534.37 189.601ZM548.367 130.171V160.845C548.367 163.528 548.175 166.212 547.984 168.705C547.6 171.389 547.217 174.073 546.641 176.756H537.63C537.055 174.073 536.671 171.389 536.288 168.705C535.904 166.021 535.904 163.528 535.904 160.845V130.171H548.367Z" fill="#76746F"/>
<path d="M540.698 212.798H528.427V369.808H540.698V212.798Z" fill="#76746F"/>
<path d="M546.258 215.865H533.987V367.124H546.258V215.865Z" fill="white"/>
<path d="M549.134 370H531.111V212.798H549.134V370ZM537.055 364.057H543.382V218.741H537.055V364.057Z" fill="#76746F"/>
<path d="M578.853 97.9637C580.387 98.9223 582.496 98.3471 583.263 96.6218L586.331 91.2539C587.29 89.7202 586.715 87.6114 584.989 86.8445C583.455 85.886 581.346 86.4611 580.579 88.1865L577.511 93.5544C576.744 95.0881 577.319 97.0052 578.853 97.9637Z" fill="#76746F"/>
<path d="M593.809 116.943C594.576 117.326 595.534 117.518 596.301 117.326L602.245 115.601C603.012 115.409 603.779 114.834 604.163 114.067C604.546 113.301 604.738 112.342 604.546 111.575C604.163 109.85 602.245 108.891 600.52 109.275L594.576 111C592.85 111.575 591.891 113.301 592.275 115.026C592.467 115.793 593.042 116.56 593.809 116.943Z" fill="#76746F"/>
<path d="M553.352 92.4042C553.544 93.3627 554.119 93.9378 554.886 94.3213C555.653 94.7047 556.42 94.8964 557.379 94.7047C559.104 94.1295 560.063 92.4042 559.68 90.6788L557.954 84.7358C557.379 83.0104 555.653 82.0518 553.927 82.4352C552.202 83.0104 551.243 84.7358 551.627 86.4611L553.352 92.4042Z" fill="#76746F"/>
<path d="M228.666 234V199.998H231.886L241.545 222.577V199.998H245.503V234H242.468L232.665 210.765V234H228.666ZM257.09 234.349C255.764 234.349 254.636 234.144 253.706 233.733C252.79 233.323 252.065 232.715 251.532 231.908C250.999 231.102 250.609 230.172 250.363 229.119C250.131 228.053 250.015 226.809 250.015 225.387V218.353C250.015 216.931 250.131 215.693 250.363 214.641C250.609 213.574 250.999 212.638 251.532 211.831C252.065 211.024 252.79 210.416 253.706 210.006C254.636 209.596 255.764 209.391 257.09 209.391C259.646 209.391 261.465 210.156 262.545 211.688C263.625 213.219 264.165 215.44 264.165 218.353V225.387C264.165 228.299 263.625 230.521 262.545 232.052C261.465 233.583 259.646 234.349 257.09 234.349ZM257.09 231.026C257.5 231.026 257.855 230.965 258.156 230.842C258.471 230.719 258.717 230.514 258.895 230.227C259.072 229.939 259.216 229.666 259.325 229.406C259.435 229.133 259.51 228.75 259.551 228.258C259.605 227.752 259.633 227.349 259.633 227.048C259.646 226.733 259.653 226.275 259.653 225.674V218.065C259.653 217.546 259.646 217.156 259.633 216.896C259.633 216.637 259.619 216.281 259.592 215.83C259.564 215.379 259.517 215.037 259.448 214.805C259.394 214.559 259.305 214.278 259.182 213.964C259.059 213.649 258.901 213.417 258.71 213.267C258.532 213.116 258.307 212.986 258.033 212.877C257.76 212.754 257.445 212.692 257.09 212.692C256.734 212.692 256.413 212.754 256.126 212.877C255.853 212.986 255.627 213.116 255.449 213.267C255.271 213.417 255.114 213.649 254.978 213.964C254.854 214.278 254.759 214.559 254.69 214.805C254.636 215.037 254.595 215.379 254.567 215.83C254.54 216.281 254.52 216.637 254.506 216.896C254.506 217.156 254.506 217.546 254.506 218.065V225.674C254.506 226.193 254.506 226.583 254.506 226.843C254.52 227.103 254.54 227.458 254.567 227.909C254.595 228.36 254.636 228.709 254.69 228.955C254.759 229.188 254.854 229.461 254.978 229.775C255.114 230.076 255.271 230.309 255.449 230.473C255.627 230.623 255.853 230.753 256.126 230.862C256.413 230.972 256.734 231.026 257.09 231.026ZM278.254 234V199.998H285.637C289.314 199.998 291.905 200.832 293.409 202.5C294.927 204.168 295.686 206.793 295.686 210.375V222.885C295.686 226.617 294.934 229.406 293.43 231.252C291.939 233.084 289.458 234 285.985 234H278.254ZM282.991 230.596H285.657C286.382 230.596 287.018 230.527 287.564 230.391C288.125 230.24 288.59 230.069 288.959 229.878C289.328 229.673 289.636 229.352 289.882 228.914C290.142 228.477 290.333 228.073 290.456 227.704C290.593 227.335 290.695 226.788 290.764 226.063C290.832 225.339 290.873 224.724 290.887 224.218C290.9 223.698 290.907 222.953 290.907 221.982V210.929C290.907 210.108 290.894 209.418 290.866 208.857C290.839 208.297 290.784 207.736 290.702 207.176C290.62 206.615 290.497 206.157 290.333 205.802C290.169 205.446 289.957 205.111 289.697 204.797C289.438 204.469 289.116 204.223 288.733 204.059C288.351 203.881 287.899 203.744 287.38 203.648C286.86 203.553 286.252 203.505 285.555 203.505H282.991V230.596ZM306.145 230.452C306.719 230.452 307.279 230.227 307.826 229.775C308.387 229.324 308.804 228.88 309.077 228.442V221.572C307.505 222.461 306.466 223.117 305.96 223.541C304.647 224.607 303.991 225.872 303.991 227.335C303.991 228.319 304.176 229.085 304.545 229.632C304.914 230.179 305.447 230.452 306.145 230.452ZM304.36 234.349C302.979 234.349 301.817 233.781 300.874 232.646C299.944 231.498 299.479 230.186 299.479 228.709C299.479 227.561 299.664 226.521 300.033 225.592C300.416 224.648 300.819 223.89 301.243 223.315C301.667 222.741 302.398 222.146 303.438 221.531C304.49 220.902 305.304 220.458 305.878 220.198C306.452 219.938 307.457 219.515 308.893 218.927C308.975 218.886 309.036 218.858 309.077 218.845V217.102C309.077 215.529 308.913 214.415 308.585 213.759C308.271 213.089 307.621 212.754 306.637 212.754C304.941 212.754 304.094 213.902 304.094 216.199V217.409L299.644 217.245C299.644 216.999 299.657 216.698 299.685 216.343C299.821 213.923 300.498 212.159 301.715 211.052C302.932 209.944 304.675 209.391 306.944 209.391C309.282 209.391 310.971 210.033 312.01 211.318C313.049 212.59 313.568 214.511 313.568 217.081V228.176C313.568 230.008 313.705 231.949 313.979 234H309.877C309.59 232.646 309.392 231.45 309.282 230.411C308.94 231.505 308.353 232.435 307.519 233.2C306.698 233.966 305.646 234.349 304.36 234.349ZM323.986 234.349C322.141 234.349 320.808 233.863 319.987 232.893C319.181 231.922 318.764 230.473 318.736 228.545V212.713H316.193V209.719H318.736V202.644H323.228V209.719H327.124V212.713H323.228V228.237C323.228 229.208 323.378 229.892 323.679 230.288C323.993 230.685 324.581 230.883 325.442 230.883C326.085 230.883 326.639 230.849 327.104 230.78V234.103C325.791 234.267 324.752 234.349 323.986 234.349ZM336.619 230.452C337.193 230.452 337.754 230.227 338.301 229.775C338.861 229.324 339.278 228.88 339.552 228.442V221.572C337.979 222.461 336.94 223.117 336.435 223.541C335.122 224.607 334.466 225.872 334.466 227.335C334.466 228.319 334.65 229.085 335.02 229.632C335.389 230.179 335.922 230.452 336.619 230.452ZM334.835 234.349C333.454 234.349 332.292 233.781 331.349 232.646C330.419 231.498 329.954 230.186 329.954 228.709C329.954 227.561 330.139 226.521 330.508 225.592C330.891 224.648 331.294 223.89 331.718 223.315C332.142 222.741 332.873 222.146 333.912 221.531C334.965 220.902 335.778 220.458 336.353 220.198C336.927 219.938 337.932 219.515 339.367 218.927C339.449 218.886 339.511 218.858 339.552 218.845V217.102C339.552 215.529 339.388 214.415 339.06 213.759C338.745 213.089 338.096 212.754 337.111 212.754C335.416 212.754 334.568 213.902 334.568 216.199V217.409L330.118 217.245C330.118 216.999 330.132 216.698 330.159 216.343C330.296 213.923 330.973 212.159 332.189 211.052C333.406 209.944 335.149 209.391 337.419 209.391C339.757 209.391 341.445 210.033 342.484 211.318C343.523 212.59 344.043 214.511 344.043 217.081V228.176C344.043 230.008 344.18 231.949 344.453 234H340.352C340.064 232.646 339.866 231.45 339.757 230.411C339.415 231.505 338.827 232.435 337.993 233.2C337.173 233.966 336.12 234.349 334.835 234.349ZM228.666 291V256.998H241.791V260.402H233.403V271.702H239.904V275.086H233.403V291H228.666ZM251.266 291.349C249.939 291.349 248.812 291.144 247.882 290.733C246.966 290.323 246.241 289.715 245.708 288.908C245.175 288.102 244.785 287.172 244.539 286.119C244.307 285.053 244.19 283.809 244.19 282.387V275.353C244.19 273.931 244.307 272.693 244.539 271.641C244.785 270.574 245.175 269.638 245.708 268.831C246.241 268.024 246.966 267.416 247.882 267.006C248.812 266.596 249.939 266.391 251.266 266.391C253.822 266.391 255.641 267.156 256.721 268.688C257.801 270.219 258.341 272.44 258.341 275.353V282.387C258.341 285.299 257.801 287.521 256.721 289.052C255.641 290.583 253.822 291.349 251.266 291.349ZM251.266 288.026C251.676 288.026 252.031 287.965 252.332 287.842C252.646 287.719 252.893 287.514 253.07 287.227C253.248 286.939 253.392 286.666 253.501 286.406C253.61 286.133 253.686 285.75 253.727 285.258C253.781 284.752 253.809 284.349 253.809 284.048C253.822 283.733 253.829 283.275 253.829 282.674V275.065C253.829 274.546 253.822 274.156 253.809 273.896C253.809 273.637 253.795 273.281 253.768 272.83C253.74 272.379 253.692 272.037 253.624 271.805C253.569 271.559 253.48 271.278 253.357 270.964C253.234 270.649 253.077 270.417 252.886 270.267C252.708 270.116 252.482 269.986 252.209 269.877C251.936 269.754 251.621 269.692 251.266 269.692C250.91 269.692 250.589 269.754 250.302 269.877C250.028 269.986 249.803 270.116 249.625 270.267C249.447 270.417 249.29 270.649 249.153 270.964C249.03 271.278 248.935 271.559 248.866 271.805C248.812 272.037 248.771 272.379 248.743 272.83C248.716 273.281 248.695 273.637 248.682 273.896C248.682 274.156 248.682 274.546 248.682 275.065V282.674C248.682 283.193 248.682 283.583 248.682 283.843C248.695 284.103 248.716 284.458 248.743 284.909C248.771 285.36 248.812 285.709 248.866 285.955C248.935 286.188 249.03 286.461 249.153 286.775C249.29 287.076 249.447 287.309 249.625 287.473C249.803 287.623 250.028 287.753 250.302 287.862C250.589 287.972 250.91 288.026 251.266 288.026ZM265.908 291.328C265.225 291.328 264.63 291.185 264.124 290.897C263.632 290.61 263.256 290.221 262.996 289.729C262.736 289.223 262.552 288.696 262.442 288.149C262.333 287.603 262.278 287.008 262.278 286.365V266.719H266.77V285.053C266.77 285.982 266.906 286.673 267.18 287.124C267.453 287.575 267.959 287.801 268.697 287.801C269.6 287.801 270.646 287.302 271.835 286.304V266.719H276.326V291H271.835V288.601C269.921 290.419 267.945 291.328 265.908 291.328ZM280.94 291V266.719H285.432V269.118C287.346 267.3 289.321 266.391 291.358 266.391C292.042 266.391 292.63 266.534 293.122 266.821C293.628 267.108 294.011 267.505 294.271 268.011C294.53 268.503 294.715 269.022 294.824 269.569C294.934 270.116 294.988 270.711 294.988 271.354V291H290.497V272.666C290.497 271.736 290.36 271.046 290.087 270.595C289.813 270.144 289.308 269.918 288.569 269.918C287.667 269.918 286.621 270.417 285.432 271.415V291H280.94ZM306.165 287.801C307.04 287.801 307.956 287.5 308.913 286.898V270.984C307.929 270.273 306.985 269.918 306.083 269.918C304.319 269.918 303.438 271.606 303.438 274.983V281.854C303.438 282.619 303.451 283.269 303.479 283.802C303.52 284.335 303.595 284.875 303.704 285.422C303.813 285.955 303.964 286.386 304.155 286.714C304.347 287.028 304.613 287.288 304.955 287.493C305.297 287.698 305.7 287.801 306.165 287.801ZM305.037 291.349C302.932 291.362 301.387 290.604 300.402 289.072C299.432 287.541 298.946 285.005 298.946 281.464V276.747C298.946 275.544 298.987 274.471 299.069 273.527C299.165 272.584 299.343 271.654 299.603 270.738C299.876 269.809 300.225 269.043 300.648 268.441C301.072 267.826 301.64 267.334 302.351 266.965C303.075 266.582 303.916 266.391 304.873 266.391C306.336 266.391 307.683 267.02 308.913 268.277V256.998H313.404V291H308.913V289.441C307.737 290.713 306.445 291.349 305.037 291.349ZM317.752 291V286.017H322.264V291H317.752ZM325.668 291V286.017H330.18V291H325.668ZM333.584 291V286.017H338.096V291H333.584Z" fill="#76746F"/>
</g>
<defs>
<clipPath id="clip0">
<rect width="775" height="370" fill="white"/>
</clipPath>
</defs>
</svg>
