
<svg viewBox="0 0 50 50" fill="none" xmlns="http://www.w3.org/2000/svg">
<path d="M4.92282 26.3027L4.03551 19.2042C3.88762 18.0211 4.12424 15.6549 6.25379 15.6549C8.38335 15.6549 28.1403 15.6549 37.7526 15.6549C38.64 15.6549 40.4146 16.1873 40.4146 18.3169C40.4146 20.4464 38.64 32.2181 37.7526 37.8378C37.6048 38.7251 36.8653 40.4997 35.0907 40.4997C33.3161 40.4997 17.1965 40.4997 9.35855 40.4997C8.61884 40.4997 7.05086 40.0561 6.69661 38.2814C6.34236 36.5068 5.66169 31.035 5.36563 28.521" stroke="#757575" stroke-width="1.2" stroke-linecap="round"/>
<path d="M38.1973 13.4366H6.25391C6.25391 11.6619 7.73277 11.2183 8.47219 11.2183H24.8875C25.2425 9.44366 26.5143 9 27.1058 9H36.4226C37.8423 9 38.1973 10.1831 38.1973 10.7746V13.4366Z" fill="#1890FF"/>
<circle cx="35.8677" cy="29.5791" r="6.83449" fill="white"/>
<path d="M35.0156 22.3377C32.7309 22.5556 30.6486 23.8634 29.4693 25.8173C28.504 27.417 28.1888 29.2969 28.5741 31.1612C28.7414 31.9669 29.1423 32.9244 29.6133 33.6405C31.6761 36.7776 35.8368 37.8363 39.1569 36.0692C41.2275 34.9677 42.617 32.9711 42.9595 30.6241C43.049 30.0013 43.0179 28.8337 42.8972 28.2304C42.3757 25.6149 40.5386 23.5209 38.0242 22.6763C37.4287 22.4778 37.2458 22.4661 37.1135 22.6179C37.0006 22.7503 36.9889 22.9526 37.0901 23.0655C37.129 23.1161 37.3626 23.2134 37.7012 23.3263C39.7679 23.9996 41.2703 25.467 41.9787 27.5065C43.0568 30.6007 41.6284 34.0648 38.6625 35.5477C37.0823 36.3378 35.2919 36.4623 33.6066 35.898C31.3959 35.1585 29.7145 33.2591 29.2357 30.9627C28.757 28.6741 29.5783 26.2182 31.3258 24.6847C32.0264 24.0775 32.8516 23.6026 33.6923 23.3341C34.2566 23.155 34.6225 23.085 35.3231 23.0227C35.8485 22.976 35.9108 22.9643 35.9731 22.8826C36.0587 22.7814 36.0704 22.5401 35.9964 22.4467C35.8758 22.291 35.7201 22.2715 35.0156 22.3377Z" fill="#757575"/>
<path d="M46.6956 39.6028L43.191 35.9254L42.7024 36.4135L42.2151 37.3898L45.1437 40.319L45.4223 40.4179C46.011 40.6269 46.6389 40.225 46.6956 39.6028Z" fill="#1890FF"/>
<path d="M34.5591 21.0348C32.7026 21.2839 31.0406 22.0896 29.7017 23.3818C28.3784 24.6584 27.5299 26.2503 27.1796 28.0952C27.0745 28.6596 27.0356 29.9479 27.1057 30.5512C27.2847 32.1275 27.853 33.5676 28.791 34.8286C29.1062 35.249 29.908 36.0702 30.3206 36.3972C31.5427 37.3585 33.0568 37.9968 34.5708 38.1915C35.1819 38.2693 36.225 38.2732 36.8244 38.1953C38.1516 38.0241 39.4749 37.5259 40.5336 36.802L40.7866 36.6268L42.8105 38.6429C45.0991 40.9199 45.0252 40.8615 45.6012 40.8926C45.862 40.9043 45.9826 40.8926 46.1344 40.8381C46.4419 40.7291 46.6754 40.5268 46.835 40.2387C46.9712 39.9935 46.9751 39.9741 46.9751 39.5771C46.9751 39.2034 46.9673 39.1489 46.8623 38.9543C46.7766 38.787 46.3212 38.3043 44.7371 36.7163L42.721 34.6924L42.9117 34.42C43.4683 33.6221 43.9548 32.4661 44.1728 31.4425C44.3518 30.6095 44.4024 29.3134 44.2934 28.4844C44.0794 26.8964 43.4294 25.3824 42.4291 24.1447C42.2929 23.9734 41.9737 23.6348 41.7246 23.3974C40.3585 22.0701 38.7354 21.2878 36.8361 21.0309C36.3223 20.9609 35.0846 20.9609 34.5591 21.0348ZM36.3885 21.7121C37.5872 21.821 38.7938 22.2103 39.7785 22.8058C41.3821 23.771 42.6237 25.2928 43.2114 27.0054C43.5228 27.9123 43.6473 28.6557 43.6473 29.6287C43.6473 30.9014 43.406 31.9484 42.8494 33.0966C42.0788 34.6846 40.7866 35.9768 39.1908 36.7591C38.3968 37.1445 37.5366 37.4013 36.6415 37.5103C36.2172 37.5648 35.2364 37.5648 34.8121 37.5103C31.3831 37.0861 28.6197 34.5445 27.9425 31.1934C27.6661 29.8272 27.7518 28.4416 28.1916 27.1222C28.9895 24.7363 30.8733 22.8603 33.2553 22.0857C34.3256 21.7393 35.3415 21.6187 36.3885 21.7121ZM42.433 36.3349L41.9737 36.7942L41.6701 36.4906L41.3665 36.1909L41.818 35.7316L42.2656 35.2762L42.577 35.5759L42.8884 35.8795L42.433 36.3349ZM46.2395 39.3007C46.3251 39.4759 46.2979 39.7989 46.185 39.9546C46.0215 40.1842 45.6479 40.2699 45.3871 40.1375C45.3171 40.1025 44.6359 39.4525 43.8692 38.6897L42.4797 37.3002L42.9351 36.8448L43.1647 36.6151L43.3943 36.3855L44.7838 37.775C45.5506 38.5418 46.2045 39.2268 46.2395 39.3007Z" fill="#757575"/>
<path d="M33.2812 27.1899L39.1338 33.0424" stroke="#1890FF" stroke-linecap="round"/>
<path d="M39.1348 27.1899L33.2823 33.0424" stroke="#1890FF" stroke-linecap="round"/>
<rect x="10.4977" y="31.0266" width="9.18584" height="5.63658" rx="1.6" stroke="#757575" stroke-width="1.2"/>
</svg>
