<svg xmlns="http://www.w3.org/2000/svg" width="775" height="370" fill="none"><g clip-path="url(#a)"><path fill="#fff" d="M219.922 341.244H497.94v1.15c0 13.42-11.12 24.347-24.926 24.347H194.996"/><path fill="#76746F" d="M473.015 370H194.996v-6.326h278.019c11.312 0 20.515-8.436 21.666-19.171H219.922v-6.327H501.2v4.409C501.008 357.539 488.545 370 473.015 370Z"/><path fill="#76746F" d="M123.862 337.984v20.513c0 6.327 5.177 11.503 11.504 11.503h59.63c15.531 0 27.994-12.269 27.994-27.606v-4.41h-99.128Z"/><path fill="#fff" d="M127.121 341.244h311.764V169.088c0-11.119-9.011-20.129-20.132-20.129H147.062c-11.121 0-20.132 9.01-20.132 20.129v172.156h.191Z"/><path fill="#76746F" d="M441.953 344.311H123.862V169.088c0-12.844 10.545-23.389 23.392-23.389h271.499c12.846 0 23.392 10.545 23.392 23.389v175.223h-.192Zm-311.764-6.327h305.437V169.088c0-9.394-7.67-16.87-16.873-16.87H147.062c-9.395 0-16.873 7.668-16.873 16.87v168.896Z"/><path fill="#76746F" d="M429.682 344.311H136.133V169.472c0-6.327 5.177-11.503 11.504-11.503h270.541c6.327 0 11.504 5.176 11.504 11.503v174.839Zm-287.222-6.327h280.703V169.472a5.156 5.156 0 0 0-5.177-5.177H147.637a5.156 5.156 0 0 0-5.177 5.177v168.512Z"/><path fill="#76746F" d="M328.829 351.596h52.919c5.369 0 9.779-4.409 9.779-9.777v-.575H319.05v.575c0 5.368 4.41 9.777 9.779 9.777Z"/><path fill="#fff" d="M141.118 366.741H82.063c-6.71 0-12.27-5.56-12.27-12.269V212.798c0-6.71 5.56-12.27 12.27-12.27h59.055c6.711 0 12.271 5.56 12.271 12.27v141.674c0 6.709-5.56 12.269-12.271 12.269Z"/><path fill="#76746F" d="M141.118 197.461H78.803c-8.436 0-15.338 6.902-15.338 15.337v141.673c0 8.436 6.902 15.337 15.339 15.337h62.314c8.437 0 15.339-6.901 15.339-15.337V212.798c0-8.435-6.902-15.337-15.339-15.337Zm9.012 157.01a9.001 9.001 0 0 1-9.012 9.011H81.872a9 9 0 0 1-9.012-9.011V212.798a9 9 0 0 1 9.012-9.01H141.118a9 9 0 0 1 9.012 9.01v141.673Z"/><path fill="#76746F" d="M118.11 352.554c0 3.643-2.876 6.519-6.519 6.519-3.643 0-6.519-2.876-6.519-6.519 0-3.642 2.876-6.518 6.519-6.518 3.643 0 6.519 2.876 6.519 6.518ZM121.945 200.72a10.311 10.311 0 0 1-10.354 10.353 10.311 10.311 0 0 1-10.354-10.353h20.708ZM134.216 305.777c-1.726 0-3.26-1.342-3.26-3.259 0-10.736-8.82-19.363-19.365-19.363-10.737 0-19.366 8.819-19.366 19.363 0 1.726-1.342 3.259-3.26 3.259-1.725 0-3.259-1.342-3.259-3.259 0-14.186 11.504-25.881 25.885-25.881a25.775 25.775 0 0 1 25.884 25.881c0 1.917-1.534 3.259-3.259 3.259ZM100.087 255.933c-.767 0-1.726-.384-2.301-.959l-9.204-9.969c-1.15-1.342-1.15-3.259.192-4.601 1.342-1.15 3.26-1.15 4.602.192l9.203 9.969c1.15 1.342 1.151 3.259-.192 4.601-.767.383-1.534.767-2.3.767Z"/><path fill="#76746F" d="M90.883 255.933c-.767 0-1.534-.192-2.109-.767-1.342-1.15-1.342-3.259-.192-4.601l9.204-9.969c1.15-1.342 3.259-1.342 4.601-.192 1.343 1.15 1.342 3.259.192 4.601l-9.203 9.969c-.767.575-1.726.959-2.493.959ZM132.298 255.933c-.767 0-1.725-.384-2.301-.959l-9.203-9.969c-1.15-1.342-1.15-3.259.192-4.601 1.342-1.15 3.259-1.15 4.602.192l9.203 9.969c1.15 1.342 1.15 3.259-.192 4.601-.767.383-1.534.767-2.301.767Z"/><path fill="#76746F" d="M123.095 255.933c-.767 0-1.534-.192-2.109-.767-1.342-1.15-1.342-3.259-.192-4.601l9.203-9.969c1.151-1.342 3.26-1.342 4.602-.192 1.342 1.15 1.342 3.259.192 4.601l-9.203 9.969c-.767.575-1.534.959-2.493.959ZM775 364.249H0V370h775v-5.751ZM284.921 117.135c-32.404 0-58.672-26.264-58.672-58.664 0-32.398 26.268-58.663 58.672-58.663 32.403 0 58.671 26.265 58.671 58.663 0 32.4-26.268 58.664-58.671 58.664Z"/><path fill="#fff" d="M288.18 114.067c30.604 0 55.412-24.805 55.412-55.404 0-30.599-24.808-55.404-55.412-55.404-30.603 0-55.412 24.805-55.412 55.404 0 30.6 24.809 55.404 55.412 55.404Z"/><path fill="#76746F" d="M288.18 117.135c-32.403 0-58.671-26.264-58.671-58.664 0-32.398 26.268-58.663 58.671-58.663 32.404 0 58.672 26.265 58.672 58.663 0 32.4-26.268 58.664-58.672 58.664Zm0-110.809c-28.76 0-52.152 23.389-52.152 52.145 0 28.757 23.392 52.146 52.152 52.146 28.761 0 52.153-23.389 52.153-52.146 0-28.756-23.392-52.145-52.153-52.145Z"/><path fill="#76746F" d="M312.148 90.104c-1.726 0-3.26-1.342-3.26-3.26a21.029 21.029 0 0 0-21.091-21.087 21.029 21.029 0 0 0-21.091 21.088c0 1.725-1.342 3.259-3.26 3.259-1.725 0-3.259-1.342-3.259-3.26 0-15.144 12.271-27.606 27.61-27.606 15.147 0 27.61 12.27 27.61 27.607-.192 1.725-1.534 3.259-3.259 3.259ZM268.623 43.71c-6.135 0-11.504-2.684-13.805-6.71-.767-1.534-.192-3.45 1.342-4.218 1.534-.766 3.452-.191 4.219 1.342.958 1.726 3.834 3.451 8.053 3.451 4.218 0 7.094-1.725 8.052-3.45.767-1.534 2.685-2.11 4.219-1.343 1.534.767 2.109 2.684 1.342 4.218-1.918 4.026-7.286 6.71-13.422 6.71ZM306.971 43.71c-6.136 0-11.505-2.684-13.805-6.71-.767-1.534-.192-3.45 1.342-4.218 1.534-.766 3.451-.191 4.218 1.342.959 1.726 3.835 3.451 8.053 3.451 4.218 0 7.094-1.725 8.053-3.45.767-1.534 2.684-2.11 4.218-1.343 1.534.767 2.109 2.684 1.342 4.218-1.917 4.026-7.286 6.71-13.421 6.71ZM566.007 218.741h-57.329c-1.918 0-3.643-.959-4.794-2.684l-28.76-49.653c-.959-1.725-.959-3.834 0-5.368l28.76-49.653c.959-1.725 2.684-2.684 4.794-2.684h57.329c1.917 0 3.643.959 4.793 2.684l28.761 49.653c.959 1.726.959 3.834 0 5.368L570.8 216.057c-.958 1.534-2.876 2.684-4.793 2.684Z"/><path fill="#fff" d="M570.609 111.383h-57.33c-.958 0-1.725.384-2.109 1.342l-28.76 49.653a2.84 2.84 0 0 0 0 2.492l28.76 49.653c.384.767 1.342 1.342 2.109 1.342h57.33c.958 0 1.725-.383 2.109-1.342l28.76-49.653a2.84 2.84 0 0 0 0-2.492l-28.76-49.653c-.384-.766-1.151-1.342-2.109-1.342Z"/><path fill="#76746F" d="M570.609 218.741h-57.33c-1.917 0-3.643-.959-4.793-2.684l-28.761-49.653c-.958-1.725-.958-3.834 0-5.368l28.761-49.653c.959-1.725 2.684-2.684 4.793-2.684h57.33c1.917 0 3.643.959 4.793 2.684l28.761 49.653c.958 1.726.958 3.834 0 5.368l-28.761 49.653c-1.15 1.534-2.876 2.684-4.793 2.684Zm-57.138-5.943h56.946l28.377-49.269-28.377-49.27h-56.946l-28.377 49.27 28.377 49.269Z"/><path fill="#76746F" d="M534.37 189.601c0-.959.192-1.917.576-2.876a6.89 6.89 0 0 1 1.533-2.3c.767-.575 1.534-1.15 2.493-1.534.959-.383 1.917-.575 3.068-.575 1.15 0 2.109.192 3.068.575.958.384 1.725.959 2.492 1.534.767.575 1.151 1.534 1.534 2.3.384.959.575 1.917.575 2.876 0 .959-.191 1.917-.575 2.876a6.892 6.892 0 0 1-1.534 2.3c-.767.575-1.534 1.15-2.492 1.534-.959.383-1.918.575-3.068.575-1.151 0-2.109-.192-3.068-.575-.959-.384-1.726-.959-2.493-1.534-.767-.575-1.15-1.533-1.533-2.3-.384-.767-.576-1.726-.576-2.876Zm13.997-59.43v30.674c0 2.683-.192 5.367-.383 7.86-.384 2.684-.767 5.368-1.343 8.051h-9.011c-.575-2.683-.959-5.367-1.342-8.051-.384-2.684-.384-5.177-.384-7.86v-30.674h12.463ZM540.698 212.798h-12.271v157.01h12.271v-157.01Z"/><path fill="#fff" d="M546.258 215.865h-12.271v151.259h12.271V215.865Z"/><path fill="#76746F" d="M549.134 370h-18.023V212.798h18.023V370Zm-12.079-5.943h6.327V218.741h-6.327v145.316ZM578.853 97.964c1.534.958 3.643.383 4.41-1.342l3.068-5.368c.959-1.534.384-3.643-1.342-4.41-1.534-.958-3.643-.383-4.41 1.343l-3.068 5.367c-.767 1.534-.192 3.451 1.342 4.41ZM593.809 116.943c.767.383 1.725.575 2.492.383l5.944-1.725c.767-.192 1.534-.767 1.918-1.534.383-.766.575-1.725.383-2.492-.383-1.725-2.301-2.684-4.026-2.3L594.576 111c-1.726.575-2.685 2.301-2.301 4.026.192.767.767 1.534 1.534 1.917ZM553.352 92.404c.192.959.767 1.534 1.534 1.917.767.384 1.534.575 2.493.384 1.725-.576 2.684-2.3 2.301-4.026l-1.726-5.943c-.575-1.726-2.301-2.684-4.027-2.3-1.725.574-2.684 2.3-2.3 4.025l1.725 5.943ZM228.666 234v-34.002h3.22l9.659 22.579v-22.579h3.958V234h-3.035l-9.803-23.235V234h-3.999Zm28.424.349c-1.326 0-2.454-.205-3.384-.616a4.983 4.983 0 0 1-2.174-1.825c-.533-.806-.923-1.736-1.169-2.789-.232-1.066-.348-2.31-.348-3.732v-7.034c0-1.422.116-2.66.348-3.712.246-1.067.636-2.003 1.169-2.81a4.983 4.983 0 0 1 2.174-1.825c.93-.41 2.058-.615 3.384-.615 2.556 0 4.375.765 5.455 2.297 1.08 1.531 1.62 3.752 1.62 6.665v7.034c0 2.912-.54 5.134-1.62 6.665-1.08 1.531-2.899 2.297-5.455 2.297Zm0-3.323c.41 0 .765-.061 1.066-.184.315-.123.561-.328.739-.615.177-.288.321-.561.43-.821.11-.273.185-.656.226-1.148.054-.506.082-.909.082-1.21.013-.315.02-.773.02-1.374v-7.609c0-.519-.007-.909-.02-1.169 0-.259-.014-.615-.041-1.066-.028-.451-.075-.793-.144-1.025a5.706 5.706 0 0 0-.266-.841c-.123-.315-.281-.547-.472-.697a2.42 2.42 0 0 0-.677-.39 2.277 2.277 0 0 0-.943-.185c-.356 0-.677.062-.964.185a2.435 2.435 0 0 0-.677.39c-.178.15-.335.382-.471.697a8.743 8.743 0 0 0-.288.841 6.688 6.688 0 0 0-.123 1.025c-.027.451-.047.807-.061 1.066V226.843c.014.26.034.615.061 1.066.028.451.069.8.123 1.046.069.233.164.506.288.82.136.301.293.534.471.698.178.15.404.28.677.389.287.11.608.164.964.164ZM278.254 234v-34.002h7.383c3.677 0 6.268.834 7.772 2.502 1.518 1.668 2.277 4.293 2.277 7.875v12.51c0 3.732-.752 6.521-2.256 8.367-1.491 1.832-3.972 2.748-7.445 2.748h-7.731Zm4.737-3.404h2.666c.725 0 1.361-.069 1.907-.205.561-.151 1.026-.322 1.395-.513.369-.205.677-.526.923-.964.26-.437.451-.841.574-1.21.137-.369.239-.916.308-1.641.068-.724.109-1.339.123-1.845.013-.52.02-1.265.02-2.236v-11.053c0-.821-.013-1.511-.041-2.072a17.381 17.381 0 0 0-.164-1.681c-.082-.561-.205-1.019-.369-1.374a4.571 4.571 0 0 0-.636-1.005 2.428 2.428 0 0 0-.964-.738 5.64 5.64 0 0 0-1.353-.411 10.263 10.263 0 0 0-1.825-.143h-2.564v27.091Zm23.154-.144c.574 0 1.134-.225 1.681-.677.561-.451.978-.895 1.251-1.333v-6.87c-1.572.889-2.611 1.545-3.117 1.969-1.313 1.066-1.969 2.331-1.969 3.794 0 .984.185 1.75.554 2.297.369.547.902.82 1.6.82Zm-1.785 3.897c-1.381 0-2.543-.568-3.486-1.703a6.08 6.08 0 0 1-1.395-3.937c0-1.148.185-2.188.554-3.117.383-.944.786-1.702 1.21-2.277.424-.574 1.155-1.169 2.195-1.784 1.052-.629 1.866-1.073 2.44-1.333.574-.26 1.579-.683 3.015-1.271.082-.041.143-.069.184-.082v-1.743c0-1.573-.164-2.687-.492-3.343-.314-.67-.964-1.005-1.948-1.005-1.696 0-2.543 1.148-2.543 3.445v1.21l-4.45-.164c0-.246.013-.547.041-.902.136-2.42.813-4.184 2.03-5.291 1.217-1.108 2.96-1.661 5.229-1.661 2.338 0 4.027.642 5.066 1.927 1.039 1.272 1.558 3.193 1.558 5.763v11.095c0 1.832.137 3.773.411 5.824h-4.102a35.686 35.686 0 0 1-.595-3.589 6.244 6.244 0 0 1-1.763 2.789c-.821.766-1.873 1.149-3.159 1.149Zm19.626 0c-1.845 0-3.178-.486-3.999-1.456-.806-.971-1.223-2.42-1.251-4.348v-15.832h-2.543v-2.994h2.543v-7.075h4.492v7.075h3.896v2.994h-3.896v15.524c0 .971.15 1.655.451 2.051.314.397.902.595 1.763.595.643 0 1.197-.034 1.662-.103v3.323c-1.313.164-2.352.246-3.118.246Zm12.633-3.897c.574 0 1.135-.225 1.682-.677.56-.451.977-.895 1.251-1.333v-6.87c-1.573.889-2.612 1.545-3.117 1.969-1.313 1.066-1.969 2.331-1.969 3.794 0 .984.184 1.75.554 2.297.369.547.902.82 1.599.82Zm-1.784 3.897c-1.381 0-2.543-.568-3.486-1.703a6.08 6.08 0 0 1-1.395-3.937c0-1.148.185-2.188.554-3.117.383-.944.786-1.702 1.21-2.277.424-.574 1.155-1.169 2.194-1.784 1.053-.629 1.866-1.073 2.441-1.333.574-.26 1.579-.683 3.014-1.271.082-.041.144-.069.185-.082v-1.743c0-1.573-.164-2.687-.492-3.343-.315-.67-.964-1.005-1.949-1.005-1.695 0-2.543 1.148-2.543 3.445v1.21l-4.45-.164c0-.246.014-.547.041-.902.137-2.42.814-4.184 2.03-5.291 1.217-1.108 2.96-1.661 5.23-1.661 2.338 0 4.026.642 5.065 1.927 1.039 1.272 1.559 3.193 1.559 5.763v11.095c0 1.832.137 3.773.41 5.824h-4.101a35.124 35.124 0 0 1-.595-3.589 6.246 6.246 0 0 1-1.764 2.789c-.82.766-1.873 1.149-3.158 1.149ZM228.666 291v-34.002h13.125v3.404h-8.388v11.3h6.501v3.384h-6.501V291h-4.737Zm22.6.349c-1.327 0-2.454-.205-3.384-.616a4.983 4.983 0 0 1-2.174-1.825c-.533-.806-.923-1.736-1.169-2.789-.232-1.066-.349-2.31-.349-3.732v-7.034c0-1.422.117-2.66.349-3.712.246-1.067.636-2.003 1.169-2.81a4.983 4.983 0 0 1 2.174-1.825c.93-.41 2.057-.615 3.384-.615 2.556 0 4.375.765 5.455 2.297 1.08 1.531 1.62 3.752 1.62 6.665v7.034c0 2.912-.54 5.134-1.62 6.665-1.08 1.531-2.899 2.297-5.455 2.297Zm0-3.323c.41 0 .765-.061 1.066-.184a1.48 1.48 0 0 0 .738-.615c.178-.288.322-.561.431-.821.109-.273.185-.656.226-1.148.054-.506.082-.909.082-1.21.013-.315.02-.773.02-1.374v-7.609c0-.519-.007-.909-.02-1.169 0-.259-.014-.615-.041-1.066-.028-.451-.076-.793-.144-1.025a5.844 5.844 0 0 0-.267-.841c-.123-.315-.28-.547-.471-.697a2.435 2.435 0 0 0-.677-.39 2.277 2.277 0 0 0-.943-.185c-.356 0-.677.062-.964.185a2.42 2.42 0 0 0-.677.39c-.178.15-.335.382-.472.697a8.994 8.994 0 0 0-.287.841 6.688 6.688 0 0 0-.123 1.025c-.027.451-.048.807-.061 1.066V283.843c.013.26.034.615.061 1.066.028.451.069.8.123 1.046.069.233.164.506.287.82.137.301.294.534.472.698.178.15.403.28.677.389.287.11.608.164.964.164Zm14.642 3.302c-.683 0-1.278-.143-1.784-.431a2.9 2.9 0 0 1-1.128-1.168 6.053 6.053 0 0 1-.554-1.58 9.121 9.121 0 0 1-.164-1.784v-19.646h4.492v18.334c0 .929.136 1.62.41 2.071.273.451.779.677 1.517.677.903 0 1.949-.499 3.138-1.497v-19.585h4.491V291h-4.491v-2.399c-1.914 1.818-3.89 2.727-5.927 2.727ZM280.94 291v-24.281h4.492v2.399c1.914-1.818 3.889-2.727 5.926-2.727.684 0 1.272.143 1.764.43.506.287.889.684 1.149 1.19.259.492.444 1.011.553 1.558.11.547.164 1.142.164 1.785V291h-4.491v-18.334c0-.93-.137-1.62-.41-2.071-.274-.451-.779-.677-1.518-.677-.902 0-1.948.499-3.137 1.497V291h-4.492Zm25.225-3.199c.875 0 1.791-.301 2.748-.903v-15.914c-.984-.711-1.928-1.066-2.83-1.066-1.764 0-2.645 1.688-2.645 5.065v6.871c0 .765.013 1.415.041 1.948.041.533.116 1.073.225 1.62.109.533.26.964.451 1.292.192.314.458.574.8.779.342.205.745.308 1.21.308Zm-1.128 3.548c-2.105.013-3.65-.745-4.635-2.277-.97-1.531-1.456-4.067-1.456-7.608v-4.717c0-1.203.041-2.276.123-3.22.096-.943.274-1.873.534-2.789.273-.929.622-1.695 1.045-2.297a4.597 4.597 0 0 1 1.703-1.476c.724-.383 1.565-.574 2.522-.574 1.463 0 2.81.629 4.04 1.886v-11.279h4.491V291h-4.491v-1.559c-1.176 1.272-2.468 1.908-3.876 1.908Zm12.715-.349v-4.983h4.512V291h-4.512Zm7.916 0v-4.983h4.512V291h-4.512Zm7.916 0v-4.983h4.512V291h-4.512Z"/></g><defs><clipPath id="a"><path fill="#fff" d="M0 0h775v370H0z"/></clipPath></defs></svg>