
<svg viewBox="0 0 126 126" fill="none" xmlns="http://www.w3.org/2000/svg">
<path d="M17.2258 110.259L17.0169 110.208C11.7441 108.903 9.5547 105.569 8.64891 103.001C7.80179 100.604 7.91912 98.4301 7.96605 97.8779C7.94024 94.2479 7.5202 34.9053 7.9684 25.6765C8.23826 20.108 11.1621 17.4263 13.5651 16.1565C16.097 14.8215 18.561 14.7539 19.0303 14.7539H44.3643C47.0324 14.7539 49.2335 15.376 50.9137 16.6015C51.9039 17.3238 52.4413 18.074 52.6877 18.4934L59.1291 25.4948C60.8609 27.3773 62.3064 27.6383 62.5387 27.6686H82.2503C86.446 27.6686 89.6867 28.8452 91.8878 31.1634C94.7741 34.2063 94.7436 38.1345 94.7201 38.717V97.8127C94.9008 98.966 95.5696 104.416 92.7279 107.771C91.3481 109.399 89.337 110.259 86.9106 110.259H17.2258Z" fill="white"/>
<path d="M19.0299 16.4949H19.0463H44.3638C49.8713 16.4949 51.2441 19.5098 51.2441 19.5098C51.2441 19.5098 55.3765 24.0018 57.8287 26.6672C60.2809 29.3326 62.4609 29.4095 62.4609 29.4095H82.2498C93.5206 29.4095 92.9597 38.6756 92.9597 38.6756V97.9507C92.9597 97.9507 94.8065 108.507 86.9102 108.507H17.4412C8.70714 106.348 9.72557 97.9507 9.72557 97.9507C9.72557 97.9507 9.27033 35.1318 9.72557 25.7562C10.1691 16.6067 18.6192 16.4949 19.0299 16.4949ZM19.0299 13C14.806 13 6.69376 15.6305 6.20801 25.5861C5.75981 34.8009 6.17046 93.4563 6.20331 97.8039C6.13996 98.6147 6.06486 100.966 6.98473 103.575C8.03601 106.548 10.5539 110.406 16.5894 111.897L17.0094 112H86.9102C90.653 112 92.8706 110.308 94.0744 108.89C97.2845 105.101 96.7049 99.2461 96.4797 97.6804V38.7501C96.5125 37.8112 96.475 33.4472 93.1686 29.9617C90.6225 27.2777 86.9501 25.917 82.2498 25.917H62.712C62.4468 25.8471 61.5527 25.5349 60.4287 24.3117L54.0858 17.4152C53.1754 16.0126 50.5143 13 44.3615 13H19.0299Z" fill="#6B7280"/>
<path d="M58.7867 45.7656L38.7373 97.4599C38.7373 97.4599 38.0403 99.6417 33.8329 103.095L96.7431 103.414C96.7431 103.414 93.7605 108.438 86.3758 108.619C78.5334 108.811 24.8008 107.673 24.8008 107.673C24.8008 107.673 31.4065 105.898 47.9289 56.3721C47.9289 56.3721 51.3996 47.7811 58.7867 45.7656Z" fill="#CCD1DA"/>
<path d="M25.721 103.392H24.4893C19.1534 103.387 14.8277 99.2179 14.8204 94.076V20.1568C14.8204 19.0811 15.0127 18.0124 15.3924 17C13.5204 17.6515 11.9041 18.8421 10.76 20.4099C9.61587 21.9778 9.00243 23.848 9 25.765V99.6842C9.00487 104.828 13.3306 108.995 18.6689 109H19.9007C21.8895 109 23.832 108.405 25.4581 107.303C27.0867 106.202 28.3233 104.641 29 102.839C27.9484 103.204 26.8384 103.392 25.721 103.392Z" fill="#CCD1DA"/>
<path d="M17.7594 109.374C17.7594 109.374 25.6303 110.489 31.433 98.6429C36.4747 88.3542 47.1858 55.7571 47.1858 55.7571C47.1858 55.7571 52.4282 43.2346 63.2681 43.1779C74.108 43.1211 110.594 42.9301 110.594 42.9301C110.594 42.9301 121.859 43.4235 117.447 55.3892C114.188 64.2309 106.363 87.1932 101.204 99.4494C96.6162 110.348 87.9532 110.165 87.9532 110.165L17.7594 109.377L17.7594 109.374Z" fill="white"/>
<path d="M57.5 51C59.1968 48.2851 61.1665 46.5 62.4998 45C55.2997 45 49.9206 53 48 58.5C44.3333 69 35.8 91.7 33 98.5C30.2 105.3 26 108.5 24.5 109C39.6667 109 73.0756 108.336 82 109.5C93.5 111 96.1667 104.5 97.5 103C76.1667 103.667 33.6 104.6 36 103C38.4 101.4 39.5 99.7567 39.9998 98.5C45.8332 83.8333 55 55 57.5 51Z" fill="#CCD1DA"/>
<path d="M88.0066 111.893C87.9628 111.894 87.9327 111.894 87.9166 111.894L18.8252 112.118C18.0724 112.159 17.6009 112.099 17.5148 111.088L17.5148 109L18.8252 109C19.5272 108.95 20.5775 108.409 21.9323 107.766C24.9922 106.319 27.7358 102.245 29.8749 97.8768C34.8046 87.8129 45.4319 55.5375 45.5388 55.2133L45.5866 55.086C45.8193 54.5323 51.4079 41.5042 63.2572 41.4422L110.624 41.1942L110.666 41.1939C110.89 41.2043 116.174 41.4794 118.802 45.4342C120.577 48.1037 120.667 51.6535 119.07 55.984C118.157 58.4596 116.882 62.0557 115.405 66.2215C111.658 76.79 106.525 91.2626 102.797 100.116C98.0063 111.497 89.0576 111.888 88.002 111.893L88.0066 111.893ZM25 109L87.9723 108.427C88 108.426 89.9057 108.426 92.2694 107.248C95.4349 105.669 97.9054 102.818 99.6073 98.7713C103.297 90.0083 108.409 75.5913 112.142 65.0622C113.622 60.8871 114.901 57.2817 115.821 54.7853C117.01 51.5594 117.045 49.0653 115.928 47.3677C114.372 45.0067 110.92 44.6873 110.543 44.6593L63.2776 44.9067C54.0731 44.9549 49.1876 55.5178 48.8064 56.3727C48.0947 58.5352 37.9514 89.2734 32.9874 99.4022C31.0493 103.358 28.8711 105.992 26.7713 107.739L25 109Z" fill="#6B7280"/>
</svg>
