<svg viewBox="0 0 180 180" fill="none" xmlns="http://www.w3.org/2000/svg">
<ellipse opacity="0.1" cx="90" cy="174.6" rx="90" ry="5.4" fill="#2B2A7F"/>
<path fill-rule="evenodd" clip-rule="evenodd" d="M46.5258 23.6926C47.2713 23.7022 47.8679 24.3143 47.8584 25.0599C47.8488 25.8054 47.2367 26.402 46.4912 26.3924L46.0412 26.3867C36.1009 26.2591 27.9393 34.2139 27.8117 44.1542L27.7586 48.2938C27.7496 48.9897 27.1783 49.5465 26.4825 49.5376C25.7867 49.5287 25.2299 48.9573 25.2388 48.2615L25.2919 44.1219C25.4452 32.1743 34.1666 23.534 46.0758 23.6869L46.5258 23.6926ZM51.4581 25.1061C51.4932 22.3725 49.3056 20.128 46.572 20.0929L46.122 20.0872C32.1865 19.9083 21.8705 30.1784 21.6922 44.0757L21.6391 48.2153C21.6046 50.8992 23.7524 53.1028 26.4363 53.1373C29.1202 53.1717 31.3238 51.0239 31.3583 48.34L31.4114 44.2004C31.5135 36.2481 38.0428 29.8843 45.995 29.9864L46.445 29.9921C49.1785 30.0272 51.423 27.8396 51.4581 25.1061ZM42.9407 120.076L42.9411 120.078L42.9416 120.083C42.9407 120.078 42.9406 120.076 42.9407 120.076ZM42.9436 120.091C42.9582 120.041 43.0808 119.657 44.076 119.022C45.1168 118.358 46.7358 117.673 48.9272 117.022C50.1654 117.418 51.5021 117.788 52.9215 118.13C60.6343 119.986 71.1967 121.117 82.7988 121.117C90.735 121.117 98.1757 120.588 104.547 119.663C104.45 120.562 104.4 121.476 104.4 122.401C104.4 123.453 104.465 124.49 104.59 125.507C98.2883 126.308 90.8191 126.774 82.7988 126.774C71.3786 126.774 61.0904 125.83 53.7021 124.325C49.9931 123.569 47.1093 122.691 45.1964 121.769C44.2358 121.307 43.6147 120.878 43.2579 120.523C43.0124 120.278 42.9555 120.136 42.9436 120.091ZM122.656 98.1703C114.169 100.598 107.513 107.364 105.242 115.917C98.8128 116.926 91.1025 117.517 82.7988 117.517C71.3944 117.517 61.1282 116.402 53.7641 114.63C50.0679 113.74 47.203 112.707 45.3057 111.628C43.2679 110.468 42.9417 109.61 42.9417 109.288V87.6316C43.1662 87.7531 43.3974 87.8707 43.6343 87.9848C45.9373 89.0939 49.154 90.0441 52.9835 90.8241C60.6721 92.3903 71.2124 93.3458 82.7988 93.3458C94.3852 93.3458 104.926 92.3903 112.614 90.8241C116.444 90.0441 119.66 89.0939 121.963 87.9848C122.2 87.8707 122.432 87.7531 122.656 87.6316V98.1703ZM126.256 83.06V97.4213C127.35 97.2763 128.466 97.2014 129.6 97.2014C143.518 97.2014 154.8 108.484 154.8 122.401C154.8 136.319 143.518 147.601 129.6 147.601C128.422 147.601 127.264 147.521 126.129 147.364C125.656 149.282 123.927 150.729 122.073 151.785C119.754 153.104 116.518 154.233 112.676 155.158C104.963 157.015 94.401 158.145 82.7988 158.145C71.1967 158.145 60.6343 157.015 52.9215 155.158C49.0793 154.233 45.8436 153.104 43.5249 151.785C41.3469 150.545 39.3417 148.764 39.3417 146.317V120.088V120.088C39.3417 118.211 40.7491 116.874 42.1397 115.987C42.6797 115.642 43.2945 115.315 43.9746 115.004C43.8211 114.922 43.6712 114.84 43.5249 114.756C41.3469 113.517 39.3417 111.736 39.3417 109.288V83.06V83.0598C39.3418 81.2213 40.6942 79.9017 42.0423 79.0217C42.6069 78.6532 43.2559 78.3044 43.9775 77.9743C43.8236 77.8924 43.6733 77.8097 43.5267 77.7262C41.3486 76.4865 39.3435 74.7057 39.3435 72.2583V46.0297C39.3435 45.686 39.4398 45.3647 39.607 45.0915C40.0227 40.056 59.2017 36.0014 82.8001 36.0014C106.396 36.0014 125.573 40.0549 125.993 45.0896C126.161 45.3632 126.258 45.6852 126.258 46.0297V72.2583C126.258 74.7057 124.253 76.4865 122.075 77.7262C121.927 77.81 121.776 77.893 121.622 77.9752C122.186 78.2332 122.704 78.5017 123.17 78.7809C124.686 79.6888 126.256 81.0742 126.256 83.0598V83.06ZM105.286 129.048C107.591 137.502 114.188 144.185 122.59 146.614C122.422 147.041 121.87 147.758 120.292 148.656C118.395 149.736 115.53 150.768 111.834 151.658C104.469 153.431 94.2033 154.545 82.7988 154.545C71.3944 154.545 61.1282 153.431 53.7641 151.658C50.0679 150.768 47.203 149.736 45.3057 148.656C43.2679 147.496 42.9417 146.639 42.9417 146.317V124.66C43.1662 124.781 43.3974 124.899 43.6343 125.013C45.9373 126.122 49.154 127.072 52.9835 127.852C60.6721 129.418 71.2124 130.374 82.7988 130.374C91.0479 130.374 98.7592 129.89 105.286 129.048ZM42.9435 48.8356V72.2583C42.9435 72.5801 43.2696 73.4376 45.3075 74.5975C47.2047 75.6774 50.0696 76.7097 53.7659 77.5995C61.13 79.3724 71.3962 80.4868 82.8006 80.4868C94.205 80.4868 104.471 79.3724 111.835 77.5995C113.61 77.1724 115.192 76.7124 116.568 76.2301L116.57 76.2236L116.58 76.2262C118.065 75.7049 119.31 75.1576 120.294 74.5975C122.332 73.4376 122.658 72.5801 122.658 72.2583V48.8351C116.129 52.1718 100.742 54.5157 82.8001 54.5157C64.8591 54.5157 49.4724 52.1721 42.9435 48.8356ZM121.321 81.8697C120.266 81.2381 118.709 80.5993 116.668 79.993C115.431 80.3891 114.096 80.7582 112.678 81.0995C104.965 82.9563 94.4028 84.0868 82.8006 84.0868C71.1984 84.0868 60.6361 82.9563 52.9233 81.0995C51.4518 80.7453 50.0693 80.3612 48.7933 79.9479L48.8169 80.0266C46.6278 80.684 45.026 81.3732 44.0101 82.0363C43.0768 82.6455 42.9581 83.0117 42.9436 83.0632C42.9555 83.1078 43.0123 83.25 43.2579 83.4945C43.6147 83.8497 44.2358 84.2787 45.1964 84.7413C47.1093 85.6627 49.9931 86.541 53.7021 87.2966C61.0904 88.8016 71.3786 89.7458 82.7988 89.7458C94.219 89.7458 104.507 88.8016 111.896 87.2966C115.605 86.541 118.488 85.6627 120.401 84.7413C121.362 84.2787 121.983 83.8497 122.34 83.4945C122.585 83.25 122.642 83.1078 122.654 83.0632L122.654 83.0626C122.638 83.0123 122.501 82.5763 121.321 81.8697ZM122.657 83.0479C122.657 83.0479 122.657 83.0502 122.656 83.0549C122.656 83.0502 122.657 83.0479 122.657 83.0479ZM42.9416 83.0549C42.9407 83.0502 42.9406 83.0479 42.9407 83.0479C42.9409 83.0479 42.9414 83.0503 42.9416 83.0549ZM129.6 100.801C117.671 100.801 108 110.472 108 122.401C108 134.331 117.671 144.001 129.6 144.001C141.529 144.001 151.2 134.331 151.2 122.401C151.2 110.472 141.529 100.801 129.6 100.801ZM129.6 130.501C130.843 130.501 131.85 129.494 131.85 128.251C131.85 127.009 130.843 126.001 129.6 126.001C128.357 126.001 127.35 127.009 127.35 128.251C127.35 129.494 128.357 130.501 129.6 130.501ZM129.6 115.201C126.521 115.201 123.781 116.647 122.019 118.903C121.407 119.686 120.276 119.825 119.492 119.213C118.709 118.601 118.57 117.47 119.182 116.687C121.597 113.595 125.366 111.601 129.6 111.601C133.834 111.601 137.603 113.595 140.019 116.687C140.631 117.47 140.492 118.601 139.708 119.213C138.925 119.825 137.794 119.686 137.182 118.903C135.419 116.647 132.679 115.201 129.6 115.201ZM124.719 124.785C125.855 123.331 127.618 122.401 129.6 122.401C131.582 122.401 133.346 123.331 134.482 124.785C135.094 125.568 136.225 125.707 137.008 125.095C137.792 124.483 137.931 123.352 137.319 122.569C135.53 120.279 132.737 118.801 129.6 118.801C126.463 118.801 123.67 120.279 121.882 122.569C121.27 123.352 121.409 124.483 122.192 125.095C122.976 125.707 124.107 125.568 124.719 124.785Z" fill="#A4A7AE"/>
</svg>
