<svg viewBox="0 0 141 140" fill="none" xmlns="http://www.w3.org/2000/svg">
<ellipse opacity="0.1" cx="70.5" cy="135.8" rx="70" ry="4.2" fill="#A4A7AE"/>
<path fill-rule="evenodd" clip-rule="evenodd" d="M76.3125 29.202C77.7155 27.7251 77.6555 25.3905 76.1786 23.9875L70.6772 18.7618C69.2003 17.3588 66.8657 17.4188 65.4627 18.8957C64.0598 20.3727 64.1197 22.7073 65.5967 24.1102L71.098 29.336C72.575 30.7389 74.9096 30.679 76.3125 29.202ZM74.2502 26.0176C74.6059 26.3555 74.6204 26.9179 74.2824 27.2736C73.9445 27.6294 73.3822 27.6438 73.0264 27.3059L67.5251 22.0801C67.1693 21.7422 67.1549 21.1799 67.4928 20.8241C67.8307 20.4684 68.3931 20.4539 68.7488 20.7918L74.2502 26.0176ZM32.7006 29.4003C28.8346 29.4003 25.7006 32.5343 25.7006 36.4002V100.8C25.7006 104.367 28.3691 107.312 31.8188 107.745V51.5405C31.8188 47.6745 34.9528 44.5405 38.8188 44.5405H92.4855C96.3515 44.5405 99.4855 47.6745 99.4855 51.5405V53.4252H103.835V47.2752C103.835 43.4092 100.701 40.2752 96.8353 40.2752H76.1297C73.4696 40.2752 70.9238 39.1939 69.0768 37.2794L63.5399 31.5401C62.2207 30.1727 60.4022 29.4003 58.5021 29.4003H32.7006ZM106.635 53.4252V47.2752C106.635 41.8628 102.248 37.4752 96.8353 37.4752H76.1297C74.2296 37.4752 72.4112 36.7028 71.0919 35.3354L65.555 29.5961C63.7081 27.6816 61.1622 26.6003 58.5021 26.6003H32.7006C27.2882 26.6003 22.9006 30.9879 22.9006 36.4002V100.8C22.9006 106.213 27.2882 110.6 32.7006 110.6H56.5499C57.2677 120.772 65.7466 128.8 76.1007 128.8C86.4547 128.8 94.9336 120.771 95.6514 110.6L107.627 110.6C113.039 110.6 117.427 106.213 117.427 100.8V63.2252C117.427 57.8128 113.039 53.4252 107.627 53.4252H106.635ZM95.6514 107.8L107.627 107.8C111.493 107.8 114.627 104.666 114.627 100.8V63.2252C114.627 59.3592 111.493 56.2252 107.627 56.2252H45.4404C41.5744 56.2252 38.4404 59.3592 38.4404 63.2252V107.8H56.5499C57.2677 97.6288 65.7466 89.6002 76.1007 89.6002C86.4547 89.6002 94.9336 97.6288 95.6514 107.8ZM82.571 26.7266C80.5341 26.7527 78.904 28.4251 78.9302 30.462C78.9563 32.4989 80.6286 34.129 82.6655 34.1029L90.2527 34.0056C92.2896 33.9795 93.9196 32.3071 93.8935 30.2702C93.8674 28.2334 92.195 26.6033 90.1581 26.6294L82.571 26.7266ZM81.7299 30.4261C81.7236 29.9355 82.1163 29.5327 82.6069 29.5264L90.194 29.4292C90.6846 29.4229 91.0875 29.8155 91.0938 30.3061C91.1 30.7967 90.7074 31.1996 90.2168 31.2059L82.6297 31.3031C82.139 31.3094 81.7362 30.9167 81.7299 30.4261ZM59.3007 109.2C59.3007 99.9218 66.8223 92.4002 76.1007 92.4002C85.3791 92.4002 92.9007 99.9218 92.9007 109.2C92.9007 118.479 85.3791 126 76.1007 126C66.8223 126 59.3007 118.479 59.3007 109.2ZM72.6007 100.1C72.6007 98.1672 74.1677 96.6002 76.1007 96.6002C78.0337 96.6002 79.6007 98.1672 79.6007 100.1V108.5C79.6007 110.433 78.0337 112 76.1007 112C74.1677 112 72.6007 110.433 72.6007 108.5V100.1ZM76.1007 99.4001C75.7141 99.4001 75.4007 99.7135 75.4007 100.1V108.5C75.4007 108.887 75.7141 109.2 76.1007 109.2C76.4873 109.2 76.8007 108.887 76.8007 108.5V100.1C76.8007 99.7135 76.4873 99.4001 76.1007 99.4001ZM76.1007 121.8C74.1677 121.8 72.6007 120.233 72.6007 118.3C72.6007 116.367 74.1677 114.8 76.1007 114.8C78.0337 114.8 79.6007 116.367 79.6007 118.3C79.6007 120.233 78.0337 121.8 76.1007 121.8ZM75.4007 118.3C75.4007 118.687 75.7141 119 76.1007 119C76.4873 119 76.8007 118.687 76.8007 118.3C76.8007 117.914 76.4873 117.6 76.1007 117.6C75.7141 117.6 75.4007 117.914 75.4007 118.3Z" fill="#A4A7AE"/>
</svg>
