<svg viewBox="0 0 141 140" fill="none" xmlns="http://www.w3.org/2000/svg">
<ellipse opacity="0.1" cx="70.5" cy="135.8" rx="70" ry="4.2" fill="#A4A7AE"/>
<path fill-rule="evenodd" clip-rule="evenodd" d="M64.5486 30.2473C64.5486 27.4597 66.8084 25.2 69.596 25.2C72.3836 25.2 74.6434 27.4597 74.6434 30.2473C74.6434 31.6698 74.0549 32.9549 73.1081 33.8724C87.1975 35.1908 97.3975 44.4858 98.6466 58.5381C101.496 56.9224 104.79 56 108.3 56C119.125 56 127.9 64.7752 127.9 75.5999C127.9 85.3064 120.844 93.3649 111.582 94.9264C112.162 95.8087 112.5 96.8649 112.5 98C112.5 101.093 109.993 103.6 106.9 103.6H83.049C82.4721 110.024 77.074 115.058 70.5 115.058C63.926 115.058 58.5279 110.024 57.951 103.6H34.1C31.0072 103.6 28.5 101.093 28.5 98C28.5 94.9072 31.0072 92.3999 34.1 92.3999H39.0178V64.2896C39.0178 48.5772 50.8684 35.6326 66.1192 33.9063C65.1518 32.9867 64.5486 31.6874 64.5486 30.2473ZM95.9445 60.0897C95.9486 60.1804 95.9608 60.269 95.9803 60.3549C91.5394 63.9481 88.7 69.4424 88.7 75.5999C88.7 82.7297 92.5068 88.9702 98.1988 92.3999H41.8178V64.2896C41.8178 48.9478 54.2548 36.5107 69.5967 36.5107C84.4665 36.5107 95.2924 45.5638 95.9445 60.0897ZM60.7992 103.858C61.4786 108.608 65.5629 112.258 70.5 112.258C75.4371 112.258 79.5214 108.608 80.2008 103.858H60.7992ZM31.3 32.04C31.3 31.3551 31.8552 30.8 32.54 30.8C33.2248 30.8 33.78 31.3551 33.78 32.04C33.78 32.7248 33.2248 33.28 32.54 33.28C31.8552 33.28 31.3 32.7248 31.3 32.04ZM32.54 28C30.3088 28 28.5 29.8087 28.5 32.04C28.5 34.2712 30.3088 36.08 32.54 36.08C34.7712 36.08 36.58 34.2712 36.58 32.04C36.58 29.8087 34.7712 28 32.54 28ZM108.3 58.7999C99.0216 58.7999 91.5 66.3216 91.5 75.5999C91.5 84.8783 99.0216 92.3999 108.3 92.3999C117.578 92.3999 125.1 84.8783 125.1 75.5999C125.1 66.3216 117.578 58.7999 108.3 58.7999ZM108.3 63C106.367 63 104.8 64.567 104.8 66.5V74.9C104.8 76.8329 106.367 78.4 108.3 78.4C110.233 78.4 111.8 76.8329 111.8 74.9V66.5C111.8 64.567 110.233 63 108.3 63ZM107.6 66.5C107.6 66.1133 107.913 65.7999 108.3 65.7999C108.687 65.7999 109 66.1133 109 66.5V74.9C109 75.2865 108.687 75.5999 108.3 75.5999C107.913 75.5999 107.6 75.2865 107.6 74.9V66.5ZM104.8 84.7C104.8 86.6329 106.367 88.2 108.3 88.2C110.233 88.2 111.8 86.6329 111.8 84.7C111.8 82.767 110.233 81.2 108.3 81.2C106.367 81.2 104.8 82.767 104.8 84.7ZM108.3 85.4C107.913 85.4 107.6 85.0866 107.6 84.7C107.6 84.3134 107.913 84 108.3 84C108.687 84 109 84.3134 109 84.7C109 85.0866 108.687 85.4 108.3 85.4ZM47.9945 32.9242C48.2912 32.7873 48.6425 32.9223 48.771 33.2227L48.8145 33.3243C48.9588 33.6615 48.8077 34.0635 48.4647 34.2218C43.0369 36.7268 39.8431 40.5604 38.0041 43.7573C37.0833 45.358 36.5014 46.8007 36.1508 47.8384C35.9756 48.357 35.8584 48.7737 35.7856 49.0574C35.7493 49.1991 35.724 49.3076 35.7082 49.3788C35.7003 49.4144 35.6948 49.4407 35.6914 49.4571L35.6902 49.4632L35.6887 49.4705L35.7418 49.2339L35.686 49.4845L35.6795 49.5187C35.6141 49.8618 35.2806 50.0851 34.9384 50.0148C34.6031 49.9459 34.3853 49.6206 34.4494 49.2843L34.4684 49.1846L34.4687 49.1828L34.4694 49.1793L34.4705 49.1734L34.4766 49.1434L34.4771 49.1412C34.482 49.1173 34.489 49.084 34.4984 49.0419C34.5176 48.955 34.5467 48.8303 34.5874 48.6716C34.6688 48.3542 34.7966 47.901 34.985 47.3435C35.3615 46.2291 35.981 44.6953 36.9571 42.9986C38.9121 39.6001 42.2942 35.555 47.9945 32.9242ZM31.7186 48.665L31.6988 48.7604C31.3483 50.6003 32.5404 52.3807 34.3751 52.7575C36.2474 53.1421 38.0724 51.9202 38.43 50.0426L38.4345 50.019L38.4418 49.9852C38.4513 49.9425 38.4694 49.8639 38.4979 49.7529C38.5548 49.5308 38.6525 49.1815 38.8035 48.7347C39.1064 47.8383 39.6173 46.5683 40.4312 45.1535C42.0514 42.3369 44.8518 38.973 49.6381 36.7641C51.3475 35.9752 52.1338 33.9634 51.3886 32.2225L51.3452 32.1209C50.596 30.3707 48.5499 29.5841 46.8212 30.3819C40.4788 33.309 36.7034 37.8243 34.53 41.6024C33.447 43.4851 32.7566 45.1916 32.3323 46.4473C32.1197 47.0765 31.9724 47.5972 31.8752 47.976C31.8266 48.1655 31.7904 48.3201 31.7648 48.4355C31.752 48.4933 31.7418 48.5413 31.7341 48.5791L31.7331 48.5838L31.6836 48.8461L31.7083 48.7149L31.7743 48.3931L31.7331 48.5838L31.7186 48.665Z" fill="#A4A7AE"/>
</svg>
