<svg viewBox="0 0 50 50" fill="none" xmlns="http://www.w3.org/2000/svg">
<rect x="27.5017" y="9.27282" width="19.8869" height="23.4845" rx="1.75" transform="rotate(24 27.5017 9.27282)" fill="white" stroke="#757575" stroke-width="0.5" stroke-dasharray="1.3 1.3"/>
<rect x="3.33116" y="16.1758" width="19.8869" height="23.4845" rx="1.75" transform="rotate(-24.5 3.33116 16.1758)" fill="white" stroke="#757575" stroke-width="0.5" stroke-dasharray="1.3 1.3"/>
<rect x="15.2422" y="4.25" width="19.8869" height="23.4845" rx="1.75" fill="white" stroke="#1890FF" stroke-width="0.5" stroke-dasharray="1.3 1.3"/>
<path d="M22.1875 8.79688L28.7832 15.3926" stroke="#1890FF" stroke-linecap="round"/>
<path d="M28.7832 8.79688L22.1875 15.3926" stroke="#1890FF" stroke-linecap="round"/>
<circle cx="32.1883" cy="30.9137" r="9.46763" fill="white"/>
<path d="M31.0102 20.8824C27.8452 21.1844 24.9607 22.996 23.327 25.7026C21.9898 27.9186 21.5531 30.5228 22.0869 33.1054C22.3187 34.2215 22.8741 35.5478 23.5265 36.5399C26.3841 40.8856 32.1478 42.3522 36.7469 39.9043C39.6153 38.3785 41.5402 35.6125 42.0146 32.3614C42.1386 31.4987 42.0955 29.8812 41.9284 29.0455C41.2059 25.4222 38.661 22.5215 35.1779 21.3515C34.353 21.0765 34.0996 21.0603 33.9163 21.2706C33.7599 21.4539 33.7438 21.7343 33.8839 21.8907C33.9379 21.9608 34.2614 22.0956 34.7304 22.2519C37.5934 23.1847 39.6746 25.2173 40.6559 28.0426C42.1494 32.329 40.1707 37.1276 36.0622 39.1819C33.8732 40.2764 31.393 40.4489 29.0584 39.6671C25.9959 38.6427 23.6667 36.0115 23.0035 32.8304C22.3403 29.6601 23.478 26.2579 25.8988 24.1336C26.8693 23.2925 28.0124 22.6347 29.177 22.2627C29.9588 22.0147 30.4656 21.9176 31.4361 21.8314C32.164 21.7667 32.2503 21.7505 32.3365 21.6373C32.4551 21.4971 32.4713 21.1628 32.3689 21.0334C32.2017 20.8177 31.9861 20.7908 31.0102 20.8824Z" fill="#757575"/>
<path d="M47.1881 44.7994L42.3332 39.7051L41.6564 40.3813L40.9813 41.7337L45.0382 45.7914L45.4241 45.9284C46.2397 46.218 47.1095 45.6612 47.1881 44.7994Z" fill="#1890FF"/>
<path d="M30.3741 19.0775C27.8022 19.4226 25.5 20.5387 23.6452 22.3287C21.8121 24.0972 20.6367 26.3024 20.1514 28.8581C20.0058 29.6399 19.9519 31.4245 20.049 32.2602C20.297 34.4439 21.0842 36.4388 22.3836 38.1857C22.8203 38.768 23.931 39.9057 24.5025 40.3586C26.1955 41.6903 28.2929 42.5746 30.3903 42.8441C31.2368 42.952 32.6817 42.9574 33.5121 42.8495C35.3506 42.6123 37.1838 41.9222 38.6503 40.9193L39.0008 40.6767L41.8045 43.4696C44.9748 46.6237 44.8724 46.5428 45.6703 46.586C46.0316 46.6022 46.1987 46.586 46.409 46.5105C46.8349 46.3595 47.1584 46.0792 47.3795 45.6802C47.5682 45.3405 47.5736 45.3135 47.5736 44.7636C47.5736 44.246 47.5628 44.1705 47.4172 43.9009C47.2986 43.6691 46.6678 43.0005 44.4734 40.8007L41.6805 37.997L41.9447 37.6196C42.7157 36.5143 43.3896 34.9129 43.6916 33.4949C43.9396 32.3411 44.0097 30.5457 43.8587 29.3972C43.5622 27.1974 42.6618 25.1001 41.2761 23.3855C41.0874 23.1483 40.6453 22.6792 40.3002 22.3503C38.4077 20.5117 36.1594 19.428 33.5282 19.0721C32.8165 18.9751 31.102 18.9751 30.3741 19.0775ZM32.9082 20.0157C34.5688 20.1666 36.2403 20.7058 37.6044 21.5307C39.8257 22.8679 41.5457 24.976 42.3598 27.3484C42.7912 28.6047 42.9637 29.6345 42.9637 30.9824C42.9637 32.7455 42.6294 34.1958 41.8584 35.7864C40.7908 37.9862 39.0008 39.7763 36.7902 40.86C35.6903 41.3938 34.4987 41.7496 33.2586 41.9006C32.6709 41.9761 31.3122 41.9761 30.7245 41.9006C25.9745 41.3129 22.1463 37.7921 21.2082 33.1499C20.8254 31.2574 20.944 29.3379 21.5533 27.5101C22.6586 24.205 25.2681 21.6062 28.5679 20.5333C30.0506 20.0534 31.4578 19.8863 32.9082 20.0157ZM41.2815 40.2723L40.6453 40.9085L40.2247 40.488L39.8042 40.0728L40.4296 39.4366L41.0496 38.8058L41.481 39.2209L41.9123 39.6415L41.2815 40.2723ZM46.5546 44.3808C46.6732 44.6234 46.6354 45.0709 46.4791 45.2866C46.2526 45.6047 45.735 45.7233 45.3738 45.54C45.2767 45.4915 44.3332 44.591 43.271 43.5343L41.3462 41.6094L41.977 40.9786L42.2951 40.6605L42.6132 40.3424L44.5381 42.2672C45.6002 43.3294 46.506 44.2783 46.5546 44.3808Z" fill="#757575"/>
</svg>
