<svg viewBox="0 0 180 180" fill="none" xmlns="http://www.w3.org/2000/svg">
<ellipse opacity="0.1" cx="90" cy="174.6" rx="90" ry="5.4" fill="#2B2A7F"/>
<path fill-rule="evenodd" clip-rule="evenodd" d="M128.927 29.4516C130.478 27.3409 133.446 26.8868 135.557 28.4375C137.667 29.9881 138.121 32.9562 136.571 35.0669L130.795 42.929C129.244 45.0398 126.276 45.4938 124.166 43.9432C122.055 42.3926 121.601 39.4245 123.151 37.3138L128.927 29.4516ZM133.425 31.3387C132.917 30.9652 132.202 31.0746 131.828 31.583L126.053 39.4452C125.679 39.9536 125.789 40.6685 126.297 41.042C126.805 41.4155 127.52 41.3061 127.894 40.7977L133.67 32.9355C134.043 32.4271 133.934 31.7122 133.425 31.3387ZM43.4082 76.036C43.4082 52.9806 62.0983 34.2906 85.1536 34.2906C108.209 34.2906 126.899 52.9806 126.899 76.036C126.899 99.0913 108.209 117.781 85.1536 117.781C62.0983 117.781 43.4082 99.0913 43.4082 76.036ZM85.1536 30.6906C60.1101 30.6906 39.8082 50.9924 39.8082 76.036C39.8082 101.08 60.1101 121.381 85.1536 121.381C93.3864 121.381 101.107 119.187 107.762 115.352L113.648 121.238C113.479 123.739 114.351 126.297 116.263 128.209L134.425 146.371C137.939 149.885 143.638 149.885 147.152 146.371L151.068 142.455C154.583 138.94 154.583 133.242 151.068 129.727L132.907 111.565C130.995 109.653 128.436 108.781 125.934 108.95L120.91 103.926C126.919 96.234 130.499 86.5531 130.499 76.036C130.499 50.9924 110.197 30.6906 85.1536 30.6906ZM122.032 110.139L118.575 106.683C116.273 109.192 113.692 111.441 110.882 113.381L114.836 117.335C115.22 116.673 115.696 116.049 116.263 115.481L120.179 111.565C120.746 110.999 121.37 110.523 122.032 110.139ZM105.966 70.5861C106.855 70.1415 107.215 69.0603 106.771 68.1711C106.326 67.282 105.245 66.9216 104.356 67.3662L90.2329 74.4276C89.6231 74.7325 89.2379 75.3558 89.2379 76.0375C89.2379 76.7193 89.6231 77.3426 90.2329 77.6475L104.356 84.7089C105.245 85.1535 106.326 84.7931 106.771 83.9039C107.215 83.0148 106.855 81.9336 105.966 81.489L95.0628 76.0375L105.966 70.5861ZM63.5348 68.1711C63.0902 69.0603 63.4506 70.1415 64.3398 70.5861L75.2427 76.0375L64.3398 81.489C63.4506 81.9336 63.0902 83.0148 63.5348 83.9039C63.9794 84.7931 65.0606 85.1535 65.9497 84.7089L80.0726 77.6475C80.6824 77.3426 81.0676 76.7193 81.0676 76.0375C81.0676 75.3558 80.6824 74.7325 80.0726 74.4276L65.9497 67.3662C65.0606 66.9216 63.9794 67.282 63.5348 68.1711ZM55.1768 76.0355C55.1768 59.48 68.5977 46.0591 85.1532 46.0591C101.709 46.0591 115.13 59.48 115.13 76.0355C115.13 92.591 101.709 106.012 85.1532 106.012C68.5977 106.012 55.1768 92.591 55.1768 76.0355ZM85.1532 42.4591C66.6094 42.4591 51.5768 57.4918 51.5768 76.0355C51.5768 94.5792 66.6094 109.612 85.1532 109.612C103.697 109.612 118.73 94.5792 118.73 76.0355C118.73 57.4918 103.697 42.4591 85.1532 42.4591ZM148.918 46.8855C148.121 44.3904 145.453 43.0132 142.958 43.8094L133.664 46.775C131.169 47.5712 129.792 50.2394 130.588 52.7345C131.384 55.2296 134.052 56.6069 136.547 55.8107L145.841 52.845C148.337 52.0488 149.714 49.3807 148.918 46.8855ZM144.053 47.239C144.654 47.0472 145.296 47.3789 145.488 47.9799C145.68 48.5809 145.348 49.2236 144.747 49.4154L135.453 52.3811C134.852 52.5728 134.209 52.2411 134.018 51.6401C133.826 51.0391 134.158 50.3964 134.759 50.2047L144.053 47.239ZM27.5301 102.825C25.0156 103.557 23.5712 106.19 24.3039 108.704C25.0366 111.219 27.669 112.663 30.1835 111.93L39.5496 109.201C42.0641 108.468 43.5085 105.836 42.7758 103.321C42.0431 100.807 39.4107 99.3626 36.8962 100.095L27.5301 102.825ZM27.7601 107.697C27.5836 107.091 27.9315 106.457 28.5372 106.281L37.9033 103.552C38.509 103.375 39.143 103.723 39.3195 104.329C39.496 104.934 39.1481 105.568 38.5425 105.745L29.1763 108.474C28.5707 108.651 27.9366 108.303 27.7601 107.697ZM37.052 127.583C34.9812 125.979 34.6025 123 36.2061 120.93L42.1792 113.216C43.7828 111.146 46.7614 110.767 48.8322 112.37C50.903 113.974 51.2817 116.953 49.6781 119.023L43.705 126.737C42.1014 128.807 39.1228 129.186 37.052 127.583ZM39.0524 123.134C38.6662 123.633 38.7574 124.35 39.2562 124.736C39.755 125.122 40.4724 125.031 40.8587 124.533L46.8318 116.819C47.218 116.32 47.1268 115.603 46.628 115.217C46.1293 114.83 45.4118 114.922 45.0255 115.42L39.0524 123.134Z" fill="#A4A7AE"/>
</svg>
