<svg viewBox="0 0 126 126" fill="none" xmlns="http://www.w3.org/2000/svg">
<path d="M20.9836 89.9561C15.7798 89.9491 11.5637 85.7329 11.5584 80.53V6.93596C11.5584 6.65938 11.5726 6.38691 11.5959 6.11719C6.72875 6.54577 2.99445 10.6191 2.98828 15.5049V89.099C2.99468 94.3019 7.21082 98.518 12.4147 98.5251H63.0067L59.086 89.9561H20.9836Z" fill="#CCD1DA"/>
<path d="M100.357 15.5645V61.1886C99.0697 61.0222 97.7733 58.9382 96.4755 58.9369L96.388 57.9369V36.2749H3.96921V88.7929C3.97534 94.0513 8.16007 98.311 13.3237 98.3166H63.9629C64.2564 99.6893 65.7591 101.04 66.2379 102.357H13.3237C5.96879 102.349 0.00907456 96.2801 0 88.7924V15.5645C0.00794024 8.07661 5.96857 2.00808 13.3237 2H87.0325C94.3879 2.00924 100.348 8.07685 100.357 15.5645ZM96.388 32.2341V15.5645C96.3809 10.3078 92.1964 6.04615 87.0325 6.04061H13.3237C8.15917 6.04615 3.97466 10.3062 3.96921 15.5645V32.2341H96.388Z" fill="#6B7280"/>
<path d="M45.8138 24.3266H45.8306C48.8422 24.3318 51.2868 21.8612 51.291 18.809C51.2955 15.7567 48.8578 13.2779 45.8471 13.2737H45.8306C44.7532 13.2739 43.7001 13.5974 42.8038 14.2033C41.9076 14.8092 41.2084 15.6704 40.7943 16.6784C40.3808 17.6864 40.2712 18.7958 40.479 19.8669C40.6869 20.9379 41.2031 21.9225 41.9625 22.6966C42.4656 23.2139 43.0652 23.6243 43.7265 23.9042C44.3878 24.184 45.0972 24.3277 45.8138 24.3266ZM45.8306 17.2284H45.8357C46.2465 17.2309 46.6395 17.3982 46.9289 17.6938C47.2182 17.9894 47.3802 18.3891 47.3794 18.8054C47.3786 19.2212 47.215 19.6196 46.9247 19.9133C46.6343 20.207 46.2408 20.3719 45.8306 20.3719H45.8252C45.6215 20.3714 45.42 20.3302 45.232 20.2508C45.044 20.1714 44.8733 20.0552 44.7297 19.9089C44.586 19.7626 44.4722 19.589 44.3947 19.3982C44.3172 19.2073 44.2776 19.0028 44.2781 18.7964C44.2826 17.9304 44.9762 17.2311 45.8306 17.2284ZM30.0815 24.2789H30.1007C33.113 24.2834 35.5593 21.8128 35.5638 18.7604C35.5683 15.7072 33.1307 13.2278 30.1181 13.2235H30.1007C27.089 13.218 24.6427 15.6886 24.6376 18.741C24.6313 21.7943 27.069 24.2735 30.0815 24.2789ZM30.1007 17.1782H30.104C30.3079 17.1783 30.5097 17.2192 30.6979 17.2984C30.8861 17.3776 31.0571 17.4936 31.2011 17.6398C31.3451 17.786 31.4593 17.9595 31.5371 18.1504C31.615 18.3414 31.6549 18.546 31.6547 18.7525C31.6547 18.9592 31.6144 19.1639 31.5363 19.3549C31.4582 19.5458 31.3437 19.7192 31.1993 19.8653C31.055 20.0113 30.8837 20.1271 30.6952 20.206C30.5067 20.2849 30.3046 20.3254 30.1007 20.3251H30.0953C29.6837 20.3239 29.2893 20.1572 28.9988 19.8615C28.7084 19.5657 28.5457 19.1653 28.5465 18.748C28.5468 18.5415 28.5872 18.337 28.6655 18.1464C28.7438 17.9557 28.8583 17.7825 29.0027 17.6367C29.147 17.4909 29.3183 17.3754 29.5067 17.2967C29.6951 17.2181 29.8969 17.1778 30.1007 17.1782ZM14.3523 24.2285H14.3724C17.3832 24.2312 19.8277 21.7615 19.8319 18.7091C19.8355 15.6558 17.3981 13.1792 14.3856 13.1758H14.3691C11.367 13.1792 8.93025 15.64 8.91798 18.6836C8.91107 21.7351 11.3415 24.2154 14.3523 24.2285ZM14.3691 17.1305H14.3742C14.7857 17.1311 15.1802 17.2972 15.471 17.5924C15.7617 17.8876 15.925 18.2877 15.9248 18.7048C15.9239 19.5735 15.2288 20.2765 14.3726 20.2765C13.5164 20.2765 12.82 19.5735 12.82 18.7048C12.8195 18.2879 12.9824 17.8878 13.2729 17.5926C13.5634 17.2974 13.9577 17.1312 14.3691 17.1305Z" fill="#1890FF"/>
<path d="M56.4192 91.7647C59.7522 100.954 67.3844 107.857 76.7711 110.174C86.1586 112.492 96.0692 109.92 103.199 103.314L122.759 123.009C123.5 123.76 124.702 123.76 125.444 123.009C125.62 122.831 125.76 122.619 125.855 122.385C125.951 122.152 126 121.902 126 121.649C126 121.396 125.951 121.146 125.855 120.913C125.76 120.679 125.62 120.467 125.444 120.289L105.83 100.541C112.675 92.3186 114.538 80.9624 110.689 70.9362C106.839 60.9115 97.8909 53.8186 87.3614 52.4467C86.1299 52.2883 84.8899 52.2083 83.6486 52.207H83.5648C79.2331 52.2205 74.9592 53.2164 71.0568 55.1217C67.1544 57.027 63.7224 59.7934 61.0125 63.2179C58.3031 66.6426 56.3846 70.6386 55.3978 74.9126C54.411 79.1866 54.381 83.6302 55.3099 87.9175C55.5906 89.2245 55.9613 90.5101 56.4192 91.7647ZM83.6488 56.0542C84.2581 56.0542 84.8633 56.0766 85.4629 56.1204C99.18 57.1211 109.577 69.0731 108.837 82.9881C108.096 96.9037 96.4912 107.653 82.7478 107.154C69.0049 106.654 58.1892 95.0896 58.4348 81.1559C58.6807 67.2223 69.8965 56.056 83.6488 56.0542Z" fill="#1890FF"/>
</svg>
