<svg viewBox="0 0 28 32" fill="none" xmlns="http://www.w3.org/2000/svg">
<path d="M10.8475 9.90531C11.2685 9.90531 11.6101 9.56368 11.6101 9.14274V6.95874C11.6111 5.69694 12.633 4.6751 13.8948 4.67408H15.667L14.64 5.69999C13.9385 6.40664 15.0101 7.48237 15.7188 6.77878L17.6974 4.80016C18.1773 4.3294 18.1743 3.49058 17.6924 3.02287L15.7188 1.04324C15.0112 0.341673 13.9375 1.41232 14.64 2.12202L15.667 3.14895H13.8948C11.7911 3.15098 10.087 4.85507 10.085 6.95874V9.14274C10.085 9.56368 10.4266 9.90531 10.8475 9.90531Z" fill="currentColor"/>
<path d="M26.1783 20.699L23.2378 18.8983L26.1783 17.0987C27.008 16.5913 27.2703 15.5075 26.7629 14.6778C26.5291 14.1043 23.7177 12.6615 23.2297 12.2894L26.1783 10.4847C27.2815 9.8319 27.2774 8.13493 26.1783 7.48217L20.6695 4.10653C19.8134 3.59002 19.0254 4.88029 19.8713 5.40697L25.3822 8.78159C25.494 8.85378 25.5265 9.00426 25.4543 9.11611C25.4106 9.231 14.2558 15.965 14.1775 16.0453C14.1063 16.0901 14.0148 16.086 13.9477 16.0352L2.76333 9.19236C2.69216 9.14864 2.64945 9.07238 2.64945 8.98901C2.64742 8.90665 2.68809 8.82938 2.75825 8.78566L8.28027 5.40697C9.14044 4.90164 8.37381 3.589 7.5116 4.08925C7.46889 4.09535 1.99771 7.47811 1.95704 7.48726C0.853857 8.14205 0.861991 9.83801 1.96314 10.4887L4.91174 12.2925L1.96721 14.0942C1.13753 14.6025 0.876226 15.6874 1.38461 16.5171C1.61846 17.0885 4.42268 18.5293 4.90869 18.9004L1.96823 20.698C0.858941 21.3284 0.855891 23.0762 1.96823 23.7056L13.1526 30.5535C13.7169 30.9012 14.4296 30.9012 14.9939 30.5535L26.1783 23.7046C27.2906 23.0579 27.2876 21.3467 26.1783 20.699ZM2.77147 15.7972C2.6159 15.72 2.60878 15.4749 2.76333 15.3905L6.36876 13.1821L13.1333 17.3224C13.6833 17.6843 14.4357 17.6935 14.9888 17.3325L21.7788 13.1801L25.3883 15.3905C25.5367 15.4749 25.5408 15.7128 25.3883 15.7972L14.2039 22.6451C14.1287 22.6929 14.0311 22.6929 13.9558 22.6451L2.77147 15.7972ZM25.4686 22.3289C25.4482 22.3624 25.4208 22.3909 25.3872 22.4112L14.2029 29.2591C14.1276 29.3069 14.03 29.3069 13.9548 29.2591L2.77045 22.4112C2.61895 22.3269 2.61692 22.09 2.77045 22.0045L2.76435 21.9995L6.36876 19.7941L13.1546 23.9516C13.7189 24.2994 14.4317 24.2994 14.996 23.9516L21.7828 19.7972L25.3872 22.0045C25.4981 22.0717 25.5347 22.217 25.4686 22.3289Z" fill="currentColor"/>
<path fill-rule="evenodd" clip-rule="evenodd" d="M20.6695 4.10674L26.1783 7.48238C27.2774 8.13514 27.2815 9.83211 26.1783 10.4849L23.2297 12.2896C23.2897 12.3354 23.385 12.3974 23.5063 12.472C23.6899 12.585 23.9331 12.7268 24.2044 12.8849C25.2103 13.4712 26.6014 14.2819 26.7629 14.678C27.2703 15.5077 27.008 16.5915 26.1783 17.0989L23.2378 18.8986L26.1783 20.6992C27.2876 21.3469 27.2906 23.0581 26.1783 23.7048L14.9939 30.5537C14.4296 30.9014 13.7169 30.9014 13.1526 30.5537L1.96823 23.7058C0.855893 23.0764 0.858943 21.3286 1.96823 20.6982L4.90869 18.9006C4.84873 18.8548 4.75349 18.7927 4.63214 18.718C4.44884 18.6052 4.20596 18.4635 3.93515 18.3055C2.93214 17.7204 1.54603 16.9117 1.38461 16.5173C0.876228 15.6876 1.13753 14.6027 1.96721 14.0944L4.91174 12.2927L1.96314 10.4889C0.861993 9.83821 0.853859 8.14226 1.95704 7.48747C1.97616 7.48317 3.1951 6.73349 4.48614 5.93948C5.94173 5.04427 7.48897 4.09269 7.5116 4.08946C8.37381 3.58921 9.14045 4.90185 8.28027 5.40718L2.75825 8.78587C2.68809 8.82959 2.64742 8.90686 2.64946 8.98922C2.64946 9.07259 2.69216 9.14885 2.76333 9.19257L13.9477 16.0354C14.0148 16.0862 14.1063 16.0903 14.1775 16.0455C14.2071 16.0151 15.8217 15.0327 17.8203 13.8165C21.1051 11.8177 25.4272 9.18775 25.4543 9.11631C25.5265 9.00447 25.494 8.85399 25.3822 8.7818L19.8713 5.40718C19.0254 4.8805 19.8134 3.59023 20.6695 4.10674ZM14.0684 15.7575C14.092 15.7425 14.1219 15.7236 14.1575 15.7013C14.2446 15.6469 14.3692 15.5699 14.5257 15.4738C14.8388 15.2815 15.2815 15.0111 15.8103 14.6889C16.3528 14.3583 16.9867 13.9726 17.6647 13.56C18.3078 13.1687 18.9906 12.7532 19.6728 12.3377C21.0748 11.4837 22.4751 10.629 23.5276 9.98075C24.0539 9.65652 24.4924 9.38444 24.8003 9.19006C24.9389 9.10259 25.0498 9.03164 25.1299 8.97909L19.7128 5.66186C19.4312 5.48655 19.2696 5.23416 19.223 4.95932C19.1776 4.69189 19.2443 4.42465 19.3763 4.20911C19.5082 3.99357 19.716 3.81258 19.9752 3.73161C20.2415 3.6484 20.54 3.67825 20.8245 3.84987L20.8262 3.85094L26.3315 7.22444L26.3333 7.22551C27.6247 7.99433 27.6309 9.97188 26.3331 10.7419L23.7942 12.2958C23.8862 12.351 23.9908 12.4127 24.1063 12.4802C24.1851 12.5264 24.2681 12.5747 24.3541 12.6248C24.6321 12.7869 24.9421 12.9675 25.2467 13.1515C25.6451 13.3921 26.0427 13.6432 26.3576 13.8728C26.5148 13.9874 26.6571 14.1008 26.7704 14.2083C26.8696 14.3024 26.9721 14.4153 27.0296 14.5393C27.609 15.5082 27.2996 16.7648 26.3348 17.3548L23.8124 18.8986L26.3324 20.4418C27.6352 21.2054 27.6403 23.1987 26.3322 23.9623L15.1513 30.8091C14.4907 31.2161 13.6563 31.2162 12.9956 30.8093L1.81583 23.9642C1.15282 23.5867 0.834683 22.8837 0.83512 22.2022C0.835557 21.5207 1.15453 20.8178 1.81568 20.4399L4.34409 18.8941C4.25274 18.8393 4.14887 18.778 4.03427 18.7108C3.95515 18.6645 3.87184 18.6159 3.78544 18.5655C3.50862 18.404 3.20016 18.224 2.89694 18.0408C2.49959 17.8007 2.10296 17.5501 1.7888 17.321C1.63197 17.2066 1.48995 17.0935 1.37685 16.9863C1.27791 16.8925 1.17556 16.7799 1.11804 16.6563C0.537486 15.6875 0.84564 14.4298 1.81047 13.8386L4.3369 12.2927L1.80846 10.746C0.514475 9.97923 0.503973 8.00107 1.80392 7.22949C1.81025 7.22573 1.8167 7.22222 1.82327 7.21894L1.82638 7.21715C1.83598 7.21161 1.85099 7.20276 1.8718 7.19032C1.91308 7.16566 1.97314 7.12935 2.04978 7.08275C2.20283 6.98968 2.41964 6.85702 2.67924 6.69779C3.13613 6.41756 3.7245 6.05571 4.32887 5.68401C4.41118 5.63339 4.49379 5.58258 4.5764 5.53178C5.26546 5.10801 5.95489 4.68415 6.47474 4.36583C6.73461 4.20672 6.95252 4.07372 7.10696 3.98021C7.18405 3.93354 7.24606 3.89626 7.28982 3.87036C7.31147 3.85754 7.32997 3.84673 7.34406 3.83874C7.35079 3.83492 7.3587 3.83051 7.36633 3.82651C7.36633 3.82651 7.37057 3.8243 7.3736 3.82278C7.65721 3.66253 7.95153 3.64102 8.2123 3.72898C8.46955 3.81576 8.67345 4.0016 8.80092 4.22C8.9284 4.4384 8.98996 4.70735 8.93896 4.97408C8.88666 5.24765 8.71985 5.49601 8.43469 5.66439L3.00325 8.98766L14.0684 15.7575ZM25.174 9.00962L25.1751 9.00677L25.174 9.00962ZM3.00978 15.5916L14.0799 22.3695L25.1459 15.5941L21.7787 13.532L15.1489 17.5865C14.4955 18.0106 13.6186 17.9985 12.9726 17.576L6.36882 13.5341L3.00978 15.5916ZM6.36876 13.1823L2.76333 15.3907C2.60879 15.4751 2.6159 15.7202 2.77147 15.7974L13.9558 22.6453C14.0311 22.6931 14.1287 22.6931 14.2039 22.6453L25.3883 15.7974C25.5408 15.713 25.5367 15.4751 25.3883 15.3907L21.7788 13.1803L14.9888 17.3327C14.4357 17.6937 13.6833 17.6845 13.1333 17.3226L6.36876 13.1823ZM14.2029 29.2593L25.3872 22.4115C25.4208 22.3911 25.4482 22.3627 25.4686 22.3291C25.5347 22.2173 25.4981 22.0719 25.3872 22.0048L21.7828 19.7974L14.996 23.9518C14.4317 24.2996 13.7189 24.2996 13.1546 23.9518L6.36876 19.7943L2.76435 21.9997L2.77045 22.0048L2.76823 22.006C2.76131 22.01 2.75471 22.0142 2.74843 22.0188C2.71828 22.0406 2.69555 22.069 2.68018 22.1007C2.67628 22.1087 2.67285 22.117 2.6699 22.1254C2.63399 22.2279 2.66814 22.3545 2.77045 22.4115L13.9548 29.2593C14.03 29.3071 14.1277 29.3071 14.2029 29.2593ZM3.00568 22.2037L14.0788 28.9835L25.1449 22.2081L21.7828 20.1491L15.1533 24.2073C14.4927 24.6141 13.658 24.6143 12.9974 24.2073L6.36866 20.1461L3.00568 22.2037Z" fill="currentColor"/>
</svg>
