<svg width="28" height="28" viewBox="0 0 28 28" fill="none" xmlns="http://www.w3.org/2000/svg">
<g filter="url(#filter0_dii_61_15902)">
<path d="M2 7C2 3.68629 4.68629 1 8 1H20C23.3137 1 26 3.68629 26 7V19C26 22.3137 23.3137 25 20 25H8C4.68629 25 2 22.3137 2 19V7Z" fill="white"/>
<path d="M8 1.5H20C23.0376 1.5 25.5 3.96243 25.5 7V19C25.5 22.0376 23.0376 24.5 20 24.5H8C4.96243 24.5 2.5 22.0376 2.5 19V7C2.5 3.96243 4.96243 1.5 8 1.5Z" stroke="#D5D7DA"/>
<rect x="-0.5" y="0.5" width="3.32009" height="3.32" rx="1.5" transform="matrix(-1 0 0 1 20.1401 7)" stroke="#717680"/>
<rect x="-0.5" y="0.5" width="3.32009" height="3.32" rx="1.5" transform="matrix(-1 0 0 1 20.1401 14.68)" stroke="#717680"/>
<rect x="-0.5" y="0.5" width="5" height="5" rx="1.5" transform="matrix(-1 0 0 1 11.8599 10.5)" stroke="#717680"/>
<path d="M16.6753 9.23022H15.7544C15.505 9.24172 15.0062 9.43712 15.0062 10.1268C15.0062 10.8164 15.0062 11.8624 15.0062 12.2992C15.0062 12.9544 14.6667 13.2302 14.2292 13.2302C13.7918 13.2302 13.011 13.2302 12.6753 13.2302" stroke="#717680" stroke-linecap="round"/>
<path d="M16.9995 17.5H16.0786C15.8292 17.4885 15.3304 17.2931 15.3304 16.6034C15.3304 15.9138 15.3304 14.8678 15.3304 14.431C15.3304 13.7759 14.9909 13.5 14.5535 13.5C14.1161 13.5 13.3352 13.5 12.9995 13.5" stroke="#717680" stroke-linecap="round"/>
</g>
<defs>
<filter id="filter0_dii_61_15902" x="0" y="0" width="28" height="28" filterUnits="userSpaceOnUse" color-interpolation-filters="sRGB">
<feFlood flood-opacity="0" result="BackgroundImageFix"/>
<feColorMatrix in="SourceAlpha" type="matrix" values="0 0 0 0 0 0 0 0 0 0 0 0 0 0 0 0 0 0 127 0" result="hardAlpha"/>
<feOffset dy="1"/>
<feGaussianBlur stdDeviation="1"/>
<feColorMatrix type="matrix" values="0 0 0 0 0.0392157 0 0 0 0 0.0496732 0 0 0 0 0.0705882 0 0 0 0.05 0"/>
<feBlend mode="normal" in2="BackgroundImageFix" result="effect1_dropShadow_61_15902"/>
<feBlend mode="normal" in="SourceGraphic" in2="effect1_dropShadow_61_15902" result="shape"/>
<feColorMatrix in="SourceAlpha" type="matrix" values="0 0 0 0 0 0 0 0 0 0 0 0 0 0 0 0 0 0 127 0" result="hardAlpha"/>
<feOffset dy="-2"/>
<feComposite in2="hardAlpha" operator="arithmetic" k2="-1" k3="1"/>
<feColorMatrix type="matrix" values="0 0 0 0 0.0392157 0 0 0 0 0.0496732 0 0 0 0 0.0705882 0 0 0 0.05 0"/>
<feBlend mode="normal" in2="shape" result="effect2_innerShadow_61_15902"/>
<feColorMatrix in="SourceAlpha" type="matrix" values="0 0 0 0 0 0 0 0 0 0 0 0 0 0 0 0 0 0 127 0" result="hardAlpha"/>
<feMorphology radius="1" operator="erode" in="SourceAlpha" result="effect3_innerShadow_61_15902"/>
<feOffset/>
<feComposite in2="hardAlpha" operator="arithmetic" k2="-1" k3="1"/>
<feColorMatrix type="matrix" values="0 0 0 0 0.0392157 0 0 0 0 0.0496732 0 0 0 0 0.0705882 0 0 0 0.18 0"/>
<feBlend mode="normal" in2="effect2_innerShadow_61_15902" result="effect3_innerShadow_61_15902"/>
</filter>
</defs>
</svg>
