<svg viewBox="0 0 18 18" fill="none" xmlns="http://www.w3.org/2000/svg">
<path d="M8.52344 5.41797V7.77672" stroke="#292929" stroke-width="1.25" stroke-miterlimit="10" stroke-linecap="round"/>
<path d="M8.53912 2.28125C5.93245 2.28125 3.82162 4.39208 3.82162 6.99875V8.48625C3.82162 8.96792 3.62329 9.69042 3.37537 10.1012L2.47579 11.6029C1.92329 12.5308 2.30579 13.565 3.32579 13.905C6.71162 15.0312 10.3737 15.0312 13.7595 13.905C14.7158 13.5862 15.1266 12.4671 14.6095 11.6029L13.71 10.1012C13.462 9.69042 13.2637 8.96083 13.2637 8.48625V6.99875C13.2566 4.40625 11.1316 2.28125 8.53912 2.28125Z" stroke="#292929" stroke-width="1.25" stroke-miterlimit="10" stroke-linecap="round"/>
<path d="M10.8816 14.1875C10.8816 15.4837 9.81906 16.5462 8.52281 16.5462C7.87823 16.5462 7.28323 16.2771 6.85823 15.8521C6.43323 15.4271 6.16406 14.8321 6.16406 14.1875" stroke="#292929" stroke-width="1.25" stroke-miterlimit="10"/>
<rect x="9.98047" y="1.60938" width="6.29167" height="6.29167" rx="3.14583" fill="#F41111"/>
<rect x="9.98047" y="1.60938" width="6.29167" height="6.29167" rx="3.14583" stroke="#F2F2F2" stroke-width="1.5"/>
</svg>
