<svg width="50" height="51" viewBox="0 0 50 51" fill="none" xmlns="http://www.w3.org/2000/svg">
<g clip-path="url(#clip0_3081_85294)">
<path fill-rule="evenodd" clip-rule="evenodd" d="M25.6641 46.9292C26.2653 47.4214 26.5645 47.6891 26.8666 47.7005C27.1657 47.689 27.4677 47.4213 28.069 46.9292L43.9216 30.6966C48.6103 25.68 48.6103 17.4688 43.9216 12.4493C39.6614 7.89034 32.6657 8.90352 28.2271 13.2695L27.3929 14.0898C26.9096 14.5648 26.8177 14.5647 26.3228 14.0783L25.503 13.2695C21.0731 8.90059 14.0687 7.89034 9.80857 12.4493C5.1198 17.4688 5.1198 25.68 9.80857 30.6966L11.7099 32.6451L25.6641 46.9292Z" fill="#FD8087"/>
<path fill-rule="evenodd" clip-rule="evenodd" d="M30.181 11.6707C32.462 14.9806 33.7853 18.9121 33.7853 23.1286C33.7853 23.589 33.768 24.0438 33.7363 24.4928C33.4832 28.2372 32.183 31.7198 30.1062 34.6929C29.1914 36.0025 28.1271 37.2141 26.9305 38.3079C25.6533 39.4764 24.2294 40.5068 22.6847 41.3731C22.1554 41.6696 21.6117 41.9487 21.0537 42.2078L25.6648 46.9279C26.266 47.4201 26.5652 47.6877 26.8673 47.6992C27.1664 47.6876 27.4685 47.42 28.0697 46.9279L32.9195 41.9602L43.9222 30.6951C47.6271 26.7319 48.4038 20.7713 46.2551 15.9706C45.6826 14.6956 44.906 13.5012 43.9222 12.4478C43.2749 11.7571 42.5645 11.1929 41.8107 10.7497C39.3542 9.30785 36.4287 9.14379 33.6673 9.98988C32.4562 10.3612 31.274 10.9311 30.181 11.6707Z" fill="#FE636E"/>
<path d="M31.5416 28.9385C31.5371 28.9385 31.5326 28.9384 31.5282 28.9384C31.2576 28.9336 31.0104 28.7841 30.8801 28.5468L26.9799 21.4357L24.076 26.5122C23.9443 26.7423 23.7019 26.8864 23.4369 26.892C23.17 26.8969 22.9235 26.7637 22.7825 26.5394L20.9787 23.6716L19.6175 25.9337C19.4811 26.1605 19.2357 26.2992 18.9711 26.2992H14.2564C13.8397 26.2992 13.502 25.9612 13.502 25.5443C13.502 25.1274 13.8397 24.7895 14.2564 24.7895H18.5446L20.3181 21.8423C20.4532 21.6178 20.695 21.4793 20.957 21.4768C20.9596 21.4767 20.962 21.4767 20.9645 21.4767C21.2236 21.4767 21.4648 21.6098 21.603 21.8295L23.3903 24.671L26.3389 19.5166C26.4733 19.2815 26.7233 19.1367 26.9937 19.1367C26.996 19.1367 26.9981 19.1367 27.0005 19.1368C27.2734 19.1393 27.5238 19.2891 27.6552 19.5285L31.5684 26.6634L33.5426 23.3477C33.6786 23.1191 33.9249 22.9791 34.1908 22.9791H40.4789C40.8956 22.9791 41.2334 23.3171 41.2334 23.734C41.2334 24.1509 40.8956 24.4889 40.4789 24.4889H34.6196L32.1897 28.5699C32.0535 28.7986 31.8071 28.9385 31.5416 28.9385Z" fill="#F8F2F0"/>
<path fill-rule="evenodd" clip-rule="evenodd" d="M41.8105 17.2815C46.321 17.2815 50.0001 13.6004 50.0001 9.08467C50.0001 4.57178 46.321 0.890625 41.8105 0.890625C37.2973 0.890625 33.6182 4.57178 33.6182 9.08467C33.6182 13.6004 37.2973 17.2815 41.8105 17.2815Z" fill="#F8F2F0"/>
<path fill-rule="evenodd" clip-rule="evenodd" d="M38.874 1.43174C41.7534 2.70391 43.7612 5.58203 43.7612 8.93213C43.7612 8.98389 43.7612 9.03574 43.7584 9.08467C43.7411 10.0373 43.5628 10.9497 43.2464 11.793C42.4295 13.9919 40.692 15.7446 38.5059 16.5851C39.5155 17.0341 40.6345 17.2815 41.811 17.2815C43.4478 17.2815 44.9752 16.8009 46.2553 15.972C48.5104 14.5099 50.0005 11.9714 50.0005 9.08467C50.0005 4.56025 46.3329 0.890625 41.8109 0.890625C40.7754 0.890625 39.7859 1.08057 38.874 1.43174Z" fill="#D6DCEA"/>
<path d="M38.0001 6.53516H38V12.1922H38.0001C38.0178 13.3005 39.8556 14.1964 42.12 14.1964C44.3844 14.1964 46.2221 13.3005 46.2398 12.1922H46.2399V6.53516H46.2398C46.2221 7.64353 44.3844 8.53936 42.12 8.53936C39.8556 8.53936 38.0178 7.64353 38.0001 6.53516Z" fill="url(#paint0_linear_3081_85294)"/>
<path fill-rule="evenodd" clip-rule="evenodd" d="M42.12 8.54073C44.3953 8.54073 46.2399 7.63618 46.2399 6.52036C46.2399 5.40455 44.3953 4.5 42.12 4.5C39.8446 4.5 38 5.40455 38 6.52036C38 7.63618 39.8446 8.54073 42.12 8.54073ZM42.1364 7.55479C43.2741 7.55479 44.1964 7.10252 44.1964 6.54461C44.1964 5.9867 43.2741 5.53443 42.1364 5.53443C40.9987 5.53443 40.0765 5.9867 40.0765 6.54461C40.0765 7.10252 40.9987 7.55479 42.1364 7.55479Z" fill="#8D6AF1"/>
<ellipse cx="42.116" cy="6.54237" rx="2.14238" ry="1.07753" fill="white"/>
<path d="M40.8042 11.1567V12.9992L39.4199 12.2234V8.79688L42.1061 10.397L44.8583 8.79688V12.2881L43.474 12.9992V11.1567L42.1061 11.9163L40.8042 11.1567Z" fill="white"/>
<path fill-rule="evenodd" clip-rule="evenodd" d="M6.9875 34.4694L5.30762 39.9206L6.9875 45.697L14.7254 47.8037L21.002 49.5105C24.6638 50.6502 26.2804 49.9997 29.6488 48.9176L41.9921 44.9573C45.5359 43.8205 45.0067 38.9449 39.8203 40.6113L32.9195 41.9611L31.7919 42.1827C30.1178 42.5079 29.8876 42.6432 28.1991 42.3814L22.6848 41.374L21.6837 41.1899C19.4228 40.4675 20.3029 37.4397 22.2763 37.739C23.6109 37.9088 25.4002 38.1505 26.9305 38.3088C26.9621 38.3116 26.9938 38.3146 27.0226 38.3174C29.9768 38.6167 31.1619 36.4092 30.1063 34.6939C29.7064 34.0405 28.9786 33.4563 27.8999 33.1138L23.7433 32.3511C21.048 31.8561 19.1321 32.472 14.9497 33.1599L12.5938 33.5485L6.9875 34.4694Z" fill="#FED1A3"/>
<path fill-rule="evenodd" clip-rule="evenodd" d="M0 33.4937V46.7762C0 46.9431 0.175488 47.0784 0.388379 47.0784H6.596C6.81172 47.0784 6.98721 46.9432 6.98721 46.7762V45.6969V34.4693V33.4937C6.98721 33.3268 6.81172 33.1914 6.596 33.1914H0.388379C0.175488 33.1915 0 33.3268 0 33.4937Z" fill="#99E6FC"/>
<path fill-rule="evenodd" clip-rule="evenodd" d="M0 44.7344V46.775C0 46.9419 0.175488 47.0772 0.388379 47.0772H6.596C6.81172 47.0772 6.98721 46.942 6.98721 46.775V45.6957V44.7344C6.98721 44.8984 6.81172 45.0366 6.596 45.0366H0.388379C0.175488 45.0366 0 44.8984 0 44.7344Z" fill="#62DBFB"/>
<path fill-rule="evenodd" clip-rule="evenodd" d="M6.9873 44.7374V45.6987L14.7252 47.8055L21.0018 49.5122C24.6636 50.652 26.2802 50.0015 29.6486 48.9193L41.9919 44.9591C43.9911 44.3201 44.693 42.4896 43.9969 41.3125C43.6546 41.9917 42.9844 42.6019 41.9919 42.9185L29.6486 46.8787C26.2802 47.958 24.6636 48.6113 21.0018 47.4716L14.7252 45.7648L6.9873 43.6552V44.7374Z" fill="#FFBC85"/>
<path fill-rule="evenodd" clip-rule="evenodd" d="M22.2757 35.6985C20.7109 35.4625 19.8335 37.3132 20.6619 38.45C20.9927 37.9578 21.5623 37.6326 22.2757 37.7391C23.6104 37.9089 25.3996 38.1506 26.9299 38.3089L27.022 38.3175C29.8381 38.6024 31.0463 36.6137 30.2408 34.9414C30.0194 35.3674 29.6483 35.7329 29.1363 35.9775C28.5897 36.2395 27.8792 36.3632 27.022 36.2769L26.9299 36.2683C25.3996 36.1101 23.6105 35.8683 22.2757 35.6985Z" fill="#FFBC85"/>
</g>
<defs>
<linearGradient id="paint0_linear_3081_85294" x1="42.12" y1="7.40795" x2="42.12" y2="14.1964" gradientUnits="userSpaceOnUse">
<stop stop-color="#35198E"/>
<stop offset="1" stop-color="#8D6AF1"/>
</linearGradient>
<clipPath id="clip0_3081_85294">
<rect width="50" height="50" fill="white" transform="translate(0 0.5)"/>
</clipPath>
</defs>
</svg>
