<svg xmlns="http://www.w3.org/2000/svg" width="582" height="338" viewBox="0 0 582 338" fill="none">
<path fill-rule="evenodd" clip-rule="evenodd" d="M138.627 335.826C135.668 332.45 132.82 328.976 130.089 325.408C125.753 319.747 119.029 316.428 111.9 316.428C98.1456 316.413 77.1577 316.413 77.1577 316.413C63.4568 316.413 52.3494 305.304 52.3494 291.6C52.3494 277.896 63.4568 266.787 77.1577 266.787H155.55C169.251 266.787 180.358 255.677 180.358 241.973C180.358 228.27 169.251 217.16 155.55 217.16H25.5583C11.8575 217.16 0.75 206.05 0.75 192.347C0.75 178.643 11.8575 167.534 25.5583 167.534H114.865C128.566 167.534 139.674 156.424 139.674 142.72C139.674 129.017 128.566 117.907 114.865 117.907H66.2429C52.542 117.907 41.4345 106.797 41.4345 93.0937C41.4345 79.39 52.542 68.2804 66.2429 68.2804H130.014C136.218 68.2804 142.157 65.7653 146.475 61.3093C183.1 23.961 234.118 0.796875 290.505 0.796875C366.913 0.796875 433.466 43.3332 467.758 105.992C471.779 113.33 479.48 117.892 487.845 117.892C502.915 117.912 524.688 117.912 524.688 117.912C538.388 117.912 549.496 129.022 549.496 142.726C549.496 156.429 538.388 167.539 524.688 167.539H476.065C462.364 167.539 451.257 178.649 451.257 192.352C451.257 206.056 462.364 217.166 476.065 217.166H556.442C570.143 217.166 581.25 228.275 581.25 241.979C581.25 255.683 570.143 266.792 556.442 266.792H497.889C488.663 266.792 480.335 272.325 476.756 280.83C468.277 301.044 456.601 319.591 442.37 335.828H138.627V335.826Z" fill="#F2F2F2"/>
<path fill-rule="evenodd" clip-rule="evenodd" d="M507.427 334.453H214.884C214.125 334.453 213.508 335.07 213.508 335.829C213.508 336.588 214.125 337.205 214.884 337.205H507.427C508.186 337.205 508.802 336.588 508.802 335.829C508.802 335.07 508.186 334.453 507.427 334.453Z" fill="#0950C5"/>
<path fill-rule="evenodd" clip-rule="evenodd" d="M200.211 334.453H80.9513C80.1919 334.453 79.5757 335.07 79.5757 335.829C79.5757 336.588 80.1919 337.205 80.9513 337.205H200.213C200.973 337.205 201.589 336.588 201.589 335.829C201.589 335.07 200.973 334.453 200.213 334.453H200.211Z" fill="#0950C5"/>
<path d="M451.374 93.2751V265.112C451.374 276.926 441.712 286.59 429.898 286.59H150.726C141.304 286.59 133.251 280.442 130.379 271.956C129.654 269.808 129.252 267.502 129.252 265.11V93.2751C129.252 81.461 138.916 71.7969 150.728 71.7969H429.902C434.465 71.7969 438.706 73.2443 442.196 75.6878C447.755 79.5806 451.376 86.0252 451.376 93.2751H451.374Z" fill="#E2E8F0"/>
<path fill-rule="evenodd" clip-rule="evenodd" d="M130.628 206.91V139.157C130.628 138.398 130.012 137.781 129.253 137.781C128.493 137.781 127.877 138.398 127.877 139.157V206.91C127.877 207.67 128.493 208.286 129.253 208.286C130.012 208.286 130.628 207.67 130.628 206.91Z" fill="#0950C5"/>
<path fill-rule="evenodd" clip-rule="evenodd" d="M132.239 85.4172C135.317 78.2407 142.459 73.1775 150.727 73.1775H255.244C256.004 73.1775 256.62 72.5611 256.62 71.8016C256.62 71.0422 256.004 70.4258 255.244 70.4258H150.727C141.329 70.4258 133.207 76.1751 129.71 84.333C129.411 85.0301 129.733 85.841 130.432 86.14C131.129 86.439 131.94 86.1162 132.239 85.4172Z" fill="#0950C5"/>
<path fill-rule="evenodd" clip-rule="evenodd" d="M390.525 73.1757H429.898C434.17 73.1757 438.137 74.5314 441.404 76.819C446.607 80.4623 449.998 86.4941 449.998 93.2798V104.872C449.998 105.631 450.615 106.248 451.374 106.248C452.133 106.248 452.75 105.631 452.75 104.872V93.2798C452.75 85.5658 448.898 78.7085 442.983 74.5662C439.269 71.9649 434.757 70.4258 429.9 70.4258H390.527C389.768 70.4258 389.151 71.0422 389.151 71.8016C389.151 72.5611 389.768 73.1775 390.527 73.1775L390.525 73.1757Z" fill="#0950C5"/>
<path fill-rule="evenodd" clip-rule="evenodd" d="M449.999 240.587V265.118C449.999 265.877 450.615 266.493 451.374 266.493C452.133 266.493 452.75 265.877 452.75 265.118V240.587C452.75 239.827 452.133 239.211 451.374 239.211C450.615 239.211 449.999 239.827 449.999 240.587Z" fill="#0950C5"/>
<path d="M344.005 334.927H236.628L245.327 295.754L247.367 286.598H273.807C273.646 287.243 273.485 287.887 273.323 288.559C272.303 292.745 273.296 296.585 275.794 299.54C278.772 303.112 283.952 305.392 290.316 305.392C294.476 305.392 298.154 304.425 301.026 302.708C306.127 299.727 308.757 294.49 307.308 288.559C307.144 287.887 306.983 287.243 306.825 286.598H333.264L337.855 307.298L344.003 334.925L344.005 334.927Z" fill="white"/>
<path d="M275.793 299.54L245.325 295.754L247.364 286.598H273.805C273.644 287.243 273.482 287.887 273.321 288.559C272.301 292.745 273.295 296.586 275.791 299.54H275.793Z" fill="#B0C9F2"/>
<path d="M337.855 307.3L301.026 302.708C306.127 299.727 308.757 294.49 307.308 288.559C307.145 287.887 306.983 287.243 306.825 286.598H333.264L337.855 307.298V307.3Z" fill="#B0C9F2"/>
<path fill-rule="evenodd" clip-rule="evenodd" d="M308.296 296.275C309.177 293.835 309.347 291.105 308.643 288.227C308.623 288.143 308.601 288.055 308.58 287.968H332.162L336.514 307.592L342.29 333.544H238.343L246.67 296.046C246.835 295.305 246.367 294.569 245.624 294.404C244.883 294.239 244.148 294.708 243.983 295.449L235.283 334.621C235.194 335.029 235.293 335.456 235.553 335.781C235.813 336.105 236.21 336.296 236.626 336.296H344.003C344.421 336.296 344.815 336.107 345.076 335.781C345.336 335.456 345.435 335.029 345.346 334.621L339.198 306.994L334.607 286.294C334.467 285.664 333.908 285.215 333.264 285.215H306.825C306.403 285.215 306.004 285.409 305.743 285.741C305.483 286.073 305.389 286.508 305.488 286.917C305.646 287.563 305.807 288.205 305.971 288.876C305.971 288.876 305.971 288.876 305.971 288.878C306.535 291.19 306.414 293.382 305.708 295.339C305.451 296.053 305.822 296.844 306.535 297.1C307.249 297.357 308.039 296.987 308.296 296.273V296.275Z" fill="#0950C5"/>
<path fill-rule="evenodd" clip-rule="evenodd" d="M272.471 286.256C272.308 286.906 272.147 287.555 271.985 288.23C270.854 292.875 271.969 297.137 274.74 300.419C277.941 304.255 283.482 306.761 290.316 306.761C291.075 306.761 291.691 306.144 291.691 305.385C291.691 304.625 291.075 304.009 290.316 304.009C284.424 304.009 279.606 301.958 276.849 298.652C276.848 298.65 276.846 298.647 276.844 298.645C274.625 296.018 273.753 292.6 274.659 288.878V288.874C274.819 288.208 274.979 287.568 275.14 286.926C275.325 286.19 274.878 285.442 274.14 285.257C273.405 285.071 272.657 285.519 272.471 286.256Z" fill="#0950C5"/>
<path d="M429.9 104.024V254.381H150.726V104.024C150.726 98.1172 155.557 93.2852 161.463 93.2852H419.167C425.071 93.2852 429.9 98.1154 429.9 104.024Z" fill="white"/>
<path fill-rule="evenodd" clip-rule="evenodd" d="M428.522 237.618V254.38C428.522 255.139 429.139 255.756 429.898 255.756C430.657 255.756 431.274 255.139 431.274 254.38V237.618C431.274 236.859 430.657 236.242 429.898 236.242C429.139 236.242 428.522 236.859 428.522 237.618Z" fill="#0950C5"/>
<path fill-rule="evenodd" clip-rule="evenodd" d="M152.102 254.378V104.021C152.102 98.8718 156.315 94.658 161.463 94.658H184.703C185.463 94.658 186.079 94.0416 186.079 93.2821C186.079 92.5226 185.463 91.9062 184.703 91.9062H161.463C154.8 91.9062 149.351 97.3565 149.351 104.021V254.378C149.351 255.137 149.967 255.754 150.726 255.754C151.486 255.754 152.102 255.137 152.102 254.378Z" fill="#0950C5"/>
<path fill-rule="evenodd" clip-rule="evenodd" d="M348.577 94.658H419.165C424.312 94.658 428.523 98.87 428.523 104.021V113.445C428.523 114.204 429.139 114.821 429.899 114.821C430.658 114.821 431.274 114.204 431.274 113.445V104.021C431.274 97.3565 425.825 91.9062 419.165 91.9062H348.577C347.818 91.9062 347.202 92.5226 347.202 93.2821C347.202 94.0416 347.818 94.658 348.577 94.658Z" fill="#0950C5"/>
<path d="M451.374 254.377V265.118C451.374 276.932 441.712 286.596 429.898 286.596H150.726C141.304 286.596 133.251 280.449 130.379 271.962C129.654 269.814 129.252 267.508 129.252 265.116V254.375H451.376L451.374 254.377Z" fill="#B0C9F2"/>
<path fill-rule="evenodd" clip-rule="evenodd" d="M394.634 255.756H449.999V265.121C449.999 276.177 440.955 285.223 429.899 285.223H150.727C144.588 285.223 139.073 282.435 135.379 278.061C134.889 277.481 134.02 277.408 133.44 277.898C132.861 278.388 132.787 279.257 133.277 279.837C137.477 284.808 143.75 287.975 150.727 287.975H429.901C442.47 287.975 452.752 277.691 452.752 265.121V254.38C452.752 253.62 452.136 253.004 451.376 253.004H394.636C393.876 253.004 393.26 253.62 393.26 254.38C393.26 255.139 393.876 255.756 394.636 255.756H394.634Z" fill="#0950C5"/>
<path fill-rule="evenodd" clip-rule="evenodd" d="M130.628 265.121V255.756H348.76C349.52 255.756 350.136 255.139 350.136 254.38C350.136 253.62 349.52 253.004 348.76 253.004H129.253C128.493 253.004 127.877 253.62 127.877 254.38V265.121C127.877 265.88 128.493 266.497 129.253 266.497C130.012 266.497 130.628 265.88 130.628 265.121Z" fill="#0950C5"/>
<path d="M351.761 334.928H228.87L228.925 334.661C230.212 328.913 236.092 324.188 241.998 324.188H338.636C344.54 324.188 350.421 328.913 351.708 334.661L351.763 334.928H351.761Z" fill="#B6D0FB"/>
<path fill-rule="evenodd" clip-rule="evenodd" d="M227.523 334.643L228.869 336.299H351.761L351.831 336.283C352.137 336.206 353.349 335.824 353.109 334.643C353.102 334.608 353.065 334.428 353.058 334.388L353.054 334.367L353.05 334.353C351.632 328.015 345.147 322.805 338.636 322.805C337.877 322.805 337.26 323.421 337.26 324.181C337.26 324.94 337.877 325.556 338.636 325.556C343.443 325.556 348.232 329.047 349.94 333.546H230.69C232.4 329.046 237.189 325.556 241.996 325.556H301.025C301.785 325.556 302.401 324.94 302.401 324.181C302.401 323.421 301.785 322.805 301.025 322.805H241.996C235.485 322.805 228.999 328.015 227.58 334.353L228.867 335.962L227.572 334.388L227.521 334.643H227.523Z" fill="#0950C5"/>
<g clip-path="url(#clip0_3457_173514)">
<mask id="mask0_3457_173514" style="mask-type:luminance" maskUnits="userSpaceOnUse" x="192" y="78" width="197" height="198">
<path d="M388.863 78.2734H192.118V275.018H388.863V78.2734Z" fill="white"/>
</mask>
<g mask="url(#mask0_3457_173514)">
<path d="M316.329 139.004L320.453 136.726C321.602 136.091 322.062 134.683 321.536 133.481C319.896 129.729 317.685 126.321 314.937 123.311C314.055 122.346 312.59 122.19 311.542 122.973L307.723 125.825C306.832 126.491 305.603 126.5 304.72 125.824C303.214 124.67 301.602 123.67 299.906 122.836C299.01 122.395 298.491 121.434 298.557 120.437L298.925 114.997C299.007 113.79 298.217 112.702 297.048 112.384C293.021 111.291 288.803 110.873 284.651 111.156C283.391 111.242 282.382 112.237 282.292 113.497L281.933 118.518C281.856 119.582 281.123 120.496 280.091 120.76C279.169 120.995 278.252 121.278 277.34 121.612C276.484 121.927 275.651 122.278 274.844 122.663C273.912 123.108 272.802 122.907 272.058 122.191L268.278 118.556C267.388 117.7 266.012 117.62 265.018 118.352C261.671 120.816 258.727 123.853 256.362 127.282C255.652 128.31 255.79 129.704 256.698 130.562L260.432 134.096C261.199 134.822 261.438 135.951 261.009 136.916C260.195 138.75 259.571 140.67 259.153 142.642C258.917 143.756 257.957 144.568 256.819 144.621L252.164 144.839C250.843 144.901 249.803 145.975 249.757 147.296C249.612 151.437 250.159 155.534 251.39 159.536C251.739 160.672 252.802 161.437 253.987 161.356L259.643 160.965C260.604 160.899 261.54 161.377 261.999 162.225C262.878 163.853 263.901 165.368 265.046 166.762C265.756 167.627 265.792 168.858 265.151 169.775L262.43 173.666C261.683 174.733 261.873 176.194 262.865 177.039C266 179.711 269.592 181.873 273.428 183.396C274.563 183.846 275.86 183.437 276.512 182.404L279.374 177.877C279.915 177.02 280.92 176.555 281.916 176.744C283.734 177.088 285.594 177.255 287.47 177.24C288.552 177.231 289.508 177.943 289.843 178.971L291.373 183.667C291.768 184.88 293.006 185.606 294.259 185.366C296.248 184.983 298.214 184.437 300.125 183.736C302.07 183.023 303.955 182.15 305.751 181.131C306.867 180.498 307.339 179.131 306.841 177.949L304.942 173.437C304.518 172.428 304.793 171.257 305.631 170.554C307.194 169.242 308.599 167.779 309.833 166.192C310.511 165.32 311.681 165.003 312.711 165.401L317.249 167.158C318.449 167.623 319.806 167.107 320.404 165.968C322.303 162.339 323.61 158.392 324.249 154.355C324.45 153.091 323.678 151.872 322.448 151.521L317.722 150.175C316.67 149.875 315.93 148.931 315.903 147.838C315.855 145.824 315.594 143.795 315.103 141.78C314.837 140.685 315.343 139.549 316.329 139.004ZM304.483 156.983C291.082 177.553 262.606 164.363 269.628 140.837C269.704 140.584 269.82 140.333 269.963 140.113C283.369 119.557 311.83 132.742 304.817 156.259C304.743 156.512 304.626 156.762 304.483 156.983Z" fill="#B6D0FB"/>
<path d="M281.706 232.616L284.397 235.295C285.147 236.042 286.34 236.08 287.152 235.403C289.687 233.29 291.826 230.813 293.538 228.009C294.087 227.11 293.877 225.942 293.037 225.307L289.97 222.992C289.256 222.452 288.971 221.504 289.296 220.668C289.851 219.243 290.261 217.77 290.526 216.271C290.666 215.478 291.292 214.859 292.079 214.688L296.371 213.75C297.324 213.542 297.988 212.684 297.97 211.71C297.912 208.347 297.286 204.989 296.134 201.839C295.784 200.884 294.786 200.327 293.791 200.54L289.826 201.391C288.986 201.571 288.113 201.21 287.677 200.47C287.288 199.81 286.862 199.163 286.398 198.532C285.962 197.94 285.504 197.375 285.024 196.838C284.471 196.217 284.376 195.313 284.763 194.576L286.726 190.833C287.188 189.952 286.94 188.868 286.15 188.264C283.491 186.228 280.479 184.633 277.294 183.573C276.338 183.256 275.291 183.675 274.831 184.57L272.936 188.256C272.547 189.013 271.726 189.45 270.882 189.336C269.28 189.118 267.655 189.067 266.035 189.186C265.119 189.254 264.275 188.694 263.979 187.826L262.763 184.273C262.418 183.265 261.353 182.701 260.32 182.962C257.083 183.782 254.035 185.125 251.215 186.978C250.415 187.504 250.061 188.497 250.391 189.397L251.965 193.686C252.233 194.415 252.074 195.247 251.521 195.793C250.459 196.84 249.514 197.972 248.694 199.171C248.185 199.915 247.24 200.22 246.386 199.93L242.764 198.699C241.771 198.36 240.681 198.836 240.251 199.794C238.888 202.822 238.022 206.087 237.706 209.398C237.613 210.378 238.222 211.289 239.167 211.562L243.315 212.758C244.1 212.984 244.686 213.658 244.764 214.471C244.907 215.955 245.194 217.433 245.629 218.881C245.879 219.716 245.543 220.616 244.821 221.106L241.531 223.346C240.681 223.924 240.399 225.046 240.867 225.961C241.61 227.415 242.474 228.814 243.446 230.135C244.435 231.479 245.535 232.741 246.727 233.902C247.467 234.624 248.631 234.681 249.434 234.031L252.5 231.546C253.186 230.99 254.154 230.94 254.886 231.431C256.251 232.345 257.7 233.104 259.206 233.702C260.033 234.03 260.542 234.864 260.465 235.751L260.126 239.659C260.036 240.693 260.74 241.626 261.756 241.831C264.991 242.485 268.339 242.61 271.608 242.197C272.632 242.067 273.4 241.196 273.395 240.166L273.375 236.205C273.37 235.323 273.933 234.538 274.774 234.272C276.321 233.783 277.833 233.124 279.283 232.291C280.07 231.839 281.063 231.975 281.706 232.616ZM265.129 227.49C246.197 221.745 250.002 196.742 269.787 196.887C269.999 196.889 270.219 196.922 270.422 196.984C289.344 202.737 285.541 227.725 265.765 227.587C265.554 227.585 265.333 227.552 265.129 227.49Z" fill="#E2E8F0"/>
<path d="M336.776 198.244L339.281 198.19C339.979 198.175 340.543 197.626 340.593 196.93C340.747 194.758 340.548 192.608 339.998 190.512C339.821 189.84 339.17 189.404 338.484 189.513L335.98 189.912C335.396 190.005 334.816 189.707 334.567 189.171C334.144 188.256 333.631 187.387 333.039 186.575C332.725 186.146 332.719 185.564 332.997 185.112L334.514 182.642C334.851 182.093 334.747 181.386 334.276 180.948C332.651 179.438 330.768 178.199 328.743 177.306C328.128 177.036 327.407 177.255 327.053 177.826L325.644 180.101C325.345 180.583 324.775 180.832 324.223 180.702C323.731 180.585 323.23 180.491 322.718 180.423C322.237 180.359 321.759 180.319 321.283 180.301C320.734 180.28 320.261 179.912 320.088 179.391L319.206 176.746C318.998 176.123 318.371 175.745 317.722 175.844C315.537 176.177 313.401 176.88 311.44 177.91C310.852 178.218 310.573 178.909 310.788 179.537L311.673 182.124C311.854 182.655 311.689 183.245 311.248 183.594C310.411 184.256 309.644 185.005 308.96 185.83C308.574 186.297 307.92 186.442 307.371 186.186L305.127 185.139C304.489 184.842 303.733 185.09 303.385 185.701C302.294 187.614 301.539 189.678 301.131 191.866C301.014 192.487 301.326 193.11 301.904 193.365L304.662 194.578C305.132 194.785 305.455 195.24 305.461 195.753C305.474 196.737 305.579 197.703 305.774 198.642C305.895 199.225 305.608 199.814 305.08 200.087L302.837 201.246C302.222 201.563 301.951 202.299 302.21 202.941C303.025 204.975 304.182 206.879 305.611 208.545C306.034 209.037 306.746 209.163 307.308 208.839L309.774 207.415C310.24 207.145 310.829 207.175 311.251 207.509C312.023 208.12 312.856 208.659 313.744 209.115C314.255 209.377 314.529 209.951 314.433 210.517L313.993 213.105C313.878 213.774 314.283 214.422 314.932 214.618C315.964 214.929 317.023 215.158 318.096 215.3C319.189 215.444 320.292 215.499 321.389 215.463C322.071 215.442 322.63 214.914 322.688 214.235L322.909 211.641C322.958 211.062 323.377 210.578 323.945 210.454C325.004 210.223 326.029 209.882 327.001 209.439C327.535 209.197 328.166 209.335 328.552 209.777L330.254 211.727C330.704 212.242 331.471 212.334 332.034 211.945C333.825 210.706 335.415 209.17 336.713 207.427C337.119 206.881 337.057 206.118 336.565 205.649L334.672 203.847C334.251 203.445 334.136 202.818 334.393 202.297C334.868 201.338 335.246 200.318 335.513 199.247C335.658 198.666 336.177 198.256 336.776 198.244ZM326.757 203.781C315.365 210.155 305.219 196.909 314.337 187.568C314.435 187.468 314.551 187.378 314.674 187.31C326.064 180.944 336.205 194.184 327.094 203.523C326.996 203.624 326.879 203.713 326.757 203.781Z" fill="#F2F2F2"/>
</g>
</g>
<path fill-rule="evenodd" clip-rule="evenodd" d="M55.4217 183.345C59.233 166.19 73.7427 156.66 89.7234 156.66C101.374 156.66 111.595 162.824 117.303 172.066C129.656 173.462 139.269 183.961 139.269 196.687C139.269 210.363 128.168 221.465 114.495 221.465H55.4198C44.903 221.465 36.3633 212.924 36.3633 202.405C36.3633 191.886 44.903 183.345 55.4198 183.345H55.4217Z" fill="#E2E8F0"/>
<path fill-rule="evenodd" clip-rule="evenodd" d="M71.6905 220.102H55.4218C45.6661 220.102 37.6821 212.184 37.7408 202.426C37.7592 199.372 38.535 196.496 39.8758 193.966C40.2316 193.294 39.9748 192.462 39.3053 192.106C38.6341 191.75 37.8014 192.007 37.4455 192.676C35.903 195.586 35.0117 198.895 34.9897 202.408C34.92 213.688 44.1419 222.853 55.4218 222.853H71.6923C72.4516 222.853 73.0679 222.237 73.0679 221.478C73.0679 220.718 72.4516 220.102 71.6923 220.102H71.6905Z" fill="#0950C5"/>
<path fill-rule="evenodd" clip-rule="evenodd" d="M43.2378 189.429C46.3154 186.373 50.677 184.676 55.4072 184.725C56.0583 184.733 56.6232 184.283 56.7644 183.648C60.4253 167.173 74.3757 158.041 89.7236 158.041C100.881 158.041 110.667 163.944 116.133 172.794C116.533 173.439 117.38 173.639 118.026 173.241C118.672 172.841 118.873 171.994 118.473 171.348C112.524 161.715 101.867 155.289 89.7236 155.289C73.4421 155.289 58.6444 164.825 54.3305 181.99C49.261 182.192 44.6354 184.16 41.2991 187.477C40.7599 188.013 40.758 188.884 41.2918 189.423C41.8255 189.963 42.6985 189.965 43.2378 189.431V189.429Z" fill="#0950C5"/>
<path fill-rule="evenodd" clip-rule="evenodd" d="M127.878 177.495C133.931 181.727 137.893 188.747 137.893 196.689C137.893 209.605 127.409 220.091 114.495 220.091C113.735 220.091 113.119 220.708 113.119 221.467C113.119 222.227 113.735 222.843 114.495 222.843C128.927 222.843 140.644 211.124 140.644 196.689C140.644 187.817 136.218 179.969 129.454 175.24C128.832 174.805 127.974 174.958 127.539 175.579C127.104 176.201 127.257 177.06 127.878 177.495Z" fill="#0950C5"/>
<path fill-rule="evenodd" clip-rule="evenodd" d="M94.9563 226.936V207.079C94.9563 205.94 95.8807 205.016 97.0197 205.016H107.337C108.476 205.016 109.4 205.94 109.4 207.079V226.936H115.836C116.714 226.936 117.498 227.492 117.786 228.323C118.074 229.154 117.804 230.075 117.114 230.62C112.639 234.153 106.174 239.258 103.457 241.405C102.707 241.997 101.651 241.997 100.901 241.405C98.1844 239.26 91.7172 234.153 87.2438 230.62C86.5542 230.075 86.2846 229.154 86.5725 228.323C86.8605 227.492 87.6436 226.936 88.5222 226.936H94.9581H94.9563Z" fill="#B0C9F2"/>
<path fill-rule="evenodd" clip-rule="evenodd" d="M107.373 236.552L102.604 240.317C102.355 240.515 102.002 240.515 101.751 240.317L88.0942 229.532C87.8649 229.35 87.7751 229.044 87.8704 228.767C87.9658 228.49 88.2281 228.304 88.5197 228.304H94.9557C95.715 228.304 96.3313 227.688 96.3313 226.928V216.024C96.3313 215.265 95.715 214.648 94.9557 214.648C94.1963 214.648 93.5801 215.265 93.5801 216.024V225.553H88.5197C87.0561 225.553 85.752 226.481 85.2715 227.864C84.791 229.247 85.2403 230.785 86.3885 231.691C90.8637 235.224 97.329 240.329 100.045 242.476C101.294 243.463 103.057 243.463 104.308 242.476C105.408 241.606 107.125 240.251 109.077 238.711C109.673 238.242 109.774 237.374 109.304 236.78C108.833 236.183 107.967 236.083 107.373 236.552Z" fill="#0950C5"/>
<path fill-rule="evenodd" clip-rule="evenodd" d="M96.332 207.072C96.332 206.693 96.6401 206.385 97.0198 206.385H107.335C107.715 206.385 108.023 206.693 108.023 207.072V226.929C108.023 227.688 108.639 228.305 109.398 228.305H115.834C116.128 228.305 116.388 228.49 116.484 228.767C116.579 229.044 116.491 229.351 116.26 229.532L111.891 232.983C111.295 233.452 111.194 234.318 111.663 234.915C112.133 235.511 112.999 235.612 113.595 235.142C115.126 233.933 116.634 232.742 117.964 231.691C119.114 230.783 119.561 229.248 119.081 227.865C118.6 226.481 117.296 225.553 115.832 225.553H110.772V207.072C110.772 205.174 109.233 203.633 107.333 203.633H97.0161C95.1178 203.633 93.5771 205.172 93.5771 207.072C93.5771 207.832 94.1934 208.448 94.9527 208.448C95.7121 208.448 96.3283 207.832 96.3283 207.072H96.332Z" fill="#0950C5"/>
<path fill-rule="evenodd" clip-rule="evenodd" d="M64.4689 216.272V236.129C64.4689 237.268 65.3933 238.193 66.5323 238.193H76.8474C77.9864 238.193 78.9108 237.268 78.9108 236.129V216.272H85.3467C86.2252 216.272 87.0084 215.717 87.2964 214.886C87.5843 214.054 87.3147 213.134 86.6251 212.589C82.1498 209.056 75.6845 203.95 72.9682 201.804C72.218 201.211 71.1616 201.211 70.4114 201.804C67.6951 203.948 61.228 209.056 56.7546 212.589C56.0649 213.134 55.7953 214.054 56.0833 214.886C56.3712 215.717 57.1544 216.272 58.0329 216.272H64.4689Z" fill="#B6D0FB"/>
<path fill-rule="evenodd" clip-rule="evenodd" d="M77.5374 216.325C77.5374 216.325 77.5374 216.393 77.5374 216.461C77.5466 217.497 77.5558 222.854 77.5539 227.849C77.5539 228.609 78.1702 229.225 78.9295 229.225C79.6889 229.225 80.3051 228.609 80.3051 227.849C80.3051 223.909 80.3015 219.746 80.2941 217.644H85.3471C86.8108 217.644 88.1148 216.716 88.5954 215.332C89.0759 213.949 88.6265 212.412 87.4784 211.506C83.0031 207.972 76.5378 202.867 73.8215 200.721C72.5725 199.734 70.8099 199.734 69.559 200.721C68.752 201.359 67.613 202.258 66.2943 203.298C65.6982 203.768 65.5973 204.634 66.0668 205.23C66.5364 205.826 67.4021 205.927 67.9982 205.457L71.2629 202.88C71.5123 202.684 71.8645 202.684 72.1158 202.88L85.7726 213.665C86.0019 213.846 86.0918 214.153 85.9964 214.43C85.901 214.707 85.6406 214.892 85.3471 214.892H78.9112C78.4435 214.892 78.007 215.131 77.7539 215.525C77.598 215.767 77.5264 216.046 77.5374 216.325Z" fill="#0950C5"/>
<path fill-rule="evenodd" clip-rule="evenodd" d="M60.8848 207.573C59.1442 208.947 57.4091 210.317 55.9015 211.508C54.7515 212.416 54.3039 213.951 54.7845 215.334C55.265 216.718 56.5691 217.646 58.0327 217.646H63.0931V236.127C63.0931 238.025 64.6319 239.566 66.532 239.566H76.8471C78.7436 239.566 80.2696 238.034 80.2861 236.138C80.2916 235.378 79.6809 234.756 78.9215 234.751C78.1622 234.745 77.5404 235.356 77.5349 236.116C77.5313 236.499 77.2305 236.814 76.8471 236.814H66.532C66.1524 236.814 65.8442 236.506 65.8442 236.127V216.27C65.8442 215.511 65.228 214.894 64.4686 214.894H58.0327C57.7393 214.894 57.4788 214.709 57.3834 214.432C57.2881 214.155 57.3779 213.849 57.6072 213.667L62.5905 209.732C63.1866 209.262 63.2875 208.395 62.8179 207.8C62.3466 207.204 61.4809 207.103 60.8866 207.573H60.8848Z" fill="#0950C5"/>
<path fill-rule="evenodd" clip-rule="evenodd" d="M432.837 221.307C427.248 212.963 423.991 202.934 423.991 192.151C423.991 163.186 447.5 139.672 476.459 139.672C505.418 139.672 528.928 163.186 528.928 192.151C528.928 202.934 525.669 212.963 520.082 221.307H432.837Z" fill="#F2F9FB"/>
<path fill-rule="evenodd" clip-rule="evenodd" d="M447.912 221.307H432.839C427.251 212.963 423.993 202.934 423.993 192.151C423.993 163.186 447.503 139.672 476.462 139.672C505.421 139.672 528.931 163.186 528.931 192.151C528.931 202.934 525.671 212.963 520.085 221.307H505.012C512.576 213.897 517.273 203.569 517.273 192.151C517.273 169.624 498.987 151.334 476.464 151.334C453.941 151.334 435.654 169.624 435.654 192.151C435.654 203.569 440.352 213.897 447.916 221.307H447.912Z" fill="#C7CEFF"/>
<path fill-rule="evenodd" clip-rule="evenodd" d="M514.199 211.015C517.042 205.337 518.645 198.931 518.645 192.154C518.645 168.867 499.743 149.961 476.46 149.961C453.178 149.961 434.275 168.867 434.275 192.154C434.275 199.035 435.926 205.533 438.852 211.275C439.196 211.952 440.025 212.222 440.702 211.877C441.379 211.532 441.649 210.703 441.304 210.026C438.569 204.66 437.027 198.586 437.027 192.154C437.027 170.386 454.697 152.713 476.46 152.713C498.224 152.713 515.894 170.386 515.894 192.154C515.894 198.489 514.397 204.476 511.74 209.782C511.4 210.461 511.674 211.288 512.354 211.629C513.033 211.968 513.86 211.693 514.201 211.015H514.199Z" fill="#0950C5"/>
<path fill-rule="evenodd" clip-rule="evenodd" d="M439.486 156.901C448.794 147.139 461.921 141.053 476.46 141.053C504.659 141.053 527.553 163.951 527.553 192.156C527.553 192.915 528.169 193.532 528.928 193.532C529.688 193.532 530.304 192.915 530.304 192.156C530.304 162.432 506.178 138.301 476.46 138.301C461.139 138.301 447.304 144.714 437.496 155.002C436.971 155.552 436.993 156.424 437.541 156.947C438.092 157.471 438.963 157.449 439.486 156.901Z" fill="#0950C5"/>
<path fill-rule="evenodd" clip-rule="evenodd" d="M525.886 205.138C524.492 210.454 522.26 215.435 519.341 219.931H476.612C475.853 219.931 475.236 220.548 475.236 221.307C475.236 222.067 475.853 222.683 476.612 222.683H520.082C520.541 222.683 520.97 222.454 521.225 222.072C524.51 217.167 527.01 211.696 528.547 205.835C528.74 205.101 528.299 204.347 527.566 204.155C526.832 203.962 526.078 204.402 525.886 205.136V205.138Z" fill="#0950C5"/>
<path fill-rule="evenodd" clip-rule="evenodd" d="M469.048 219.938H433.578C428.384 211.936 425.366 202.397 425.366 192.159C425.366 181.92 428.16 173.1 432.998 165.293C433.398 164.647 433.2 163.797 432.554 163.398C431.909 162.998 431.06 163.198 430.66 163.841C425.561 172.071 422.615 181.774 422.615 192.159C422.615 203.226 425.961 213.516 431.694 222.079C431.949 222.461 432.378 222.69 432.837 222.69H469.048C469.807 222.69 470.423 222.074 470.423 221.314C470.423 220.555 469.807 219.938 469.048 219.938Z" fill="#0950C5"/>
<path fill-rule="evenodd" clip-rule="evenodd" d="M515.324 188.84H507.551C506.792 188.84 506.176 189.456 506.176 190.216C506.176 190.975 506.792 191.592 507.551 191.592H515.324C516.084 191.592 516.7 190.975 516.7 190.216C516.7 189.456 516.084 188.84 515.324 188.84Z" fill="#0950C5"/>
<path fill-rule="evenodd" clip-rule="evenodd" d="M445.365 188.84H437.592C436.833 188.84 436.217 189.456 436.217 190.216C436.217 190.975 436.833 191.592 437.592 191.592H445.365C446.125 191.592 446.741 190.975 446.741 190.216C446.741 189.456 446.125 188.84 445.365 188.84Z" fill="#0950C5"/>
<path fill-rule="evenodd" clip-rule="evenodd" d="M450.22 173.47L443.489 169.583C442.833 169.203 441.989 169.429 441.611 170.086C441.231 170.742 441.457 171.586 442.115 171.966L448.847 175.853C449.503 176.233 450.347 176.007 450.727 175.349C451.106 174.692 450.881 173.848 450.222 173.47H450.22Z" fill="#0950C5"/>
<path fill-rule="evenodd" clip-rule="evenodd" d="M447.523 204.573L440.792 208.46C440.135 208.84 439.908 209.682 440.287 210.339C440.667 210.996 441.509 211.221 442.167 210.843L448.899 206.956C449.555 206.576 449.783 205.734 449.401 205.078C449.022 204.421 448.18 204.195 447.523 204.575V204.573Z" fill="#0950C5"/>
<path fill-rule="evenodd" clip-rule="evenodd" d="M462.104 162.595L458.217 155.863C457.838 155.206 456.996 154.98 456.339 155.36C455.681 155.74 455.455 156.582 455.835 157.241L459.721 163.973C460.101 164.63 460.943 164.856 461.601 164.476C462.258 164.096 462.485 163.254 462.106 162.597L462.104 162.595Z" fill="#0950C5"/>
<path fill-rule="evenodd" clip-rule="evenodd" d="M477.835 159.111V151.337C477.835 150.577 477.219 149.961 476.46 149.961C475.7 149.961 475.084 150.577 475.084 151.337V159.111C475.084 159.871 475.7 160.487 476.46 160.487C477.219 160.487 477.835 159.871 477.835 159.111Z" fill="#0950C5"/>
<path fill-rule="evenodd" clip-rule="evenodd" d="M493.198 163.961L497.084 157.229C497.464 156.572 497.238 155.728 496.58 155.348C495.923 154.969 495.08 155.194 494.7 155.853L490.813 162.585C490.434 163.242 490.659 164.084 491.316 164.464C491.972 164.844 492.816 164.618 493.196 163.96L493.198 163.961Z" fill="#0950C5"/>
<path fill-rule="evenodd" clip-rule="evenodd" d="M504.074 175.854L510.805 171.966C511.462 171.587 511.689 170.745 511.308 170.086C510.928 169.429 510.086 169.204 509.43 169.582L502.699 173.469C502.042 173.849 501.815 174.691 502.194 175.347C502.574 176.004 503.416 176.23 504.072 175.852L504.074 175.854Z" fill="#0950C5"/>
<path fill-rule="evenodd" clip-rule="evenodd" d="M504.922 206.956L511.653 210.843C512.31 211.223 513.154 210.998 513.531 210.341C513.911 209.684 513.686 208.84 513.027 208.462L506.296 204.575C505.639 204.195 504.796 204.421 504.418 205.078C504.038 205.734 504.264 206.578 504.922 206.956Z" fill="#0950C5"/>
<path fill-rule="evenodd" clip-rule="evenodd" d="M495.696 178.551L480.581 201.915C478.307 204.19 474.611 204.19 472.337 201.915C470.062 199.638 470.062 195.944 472.337 193.669L495.696 178.551Z" fill="#6974FB"/>
<path fill-rule="evenodd" clip-rule="evenodd" d="M486.579 186.086L491.056 183.19L479.512 201.034C477.766 202.677 475.016 202.644 473.311 200.938C471.605 199.232 471.572 196.482 473.213 194.738L479.162 190.887C479.798 190.474 479.981 189.621 479.569 188.985C479.156 188.346 478.303 188.165 477.667 188.578L471.59 192.511C471.51 192.564 471.433 192.625 471.365 192.692C468.553 195.505 468.553 200.073 471.365 202.885C474.176 205.697 478.743 205.697 481.555 202.885C481.623 202.817 481.685 202.74 481.737 202.659L496.852 179.295C497.204 178.75 497.129 178.033 496.67 177.574C496.212 177.116 495.494 177.041 494.95 177.393L485.084 183.779C484.446 184.191 484.264 185.044 484.677 185.681C485.089 186.318 485.942 186.501 486.579 186.088V186.086Z" fill="#0950C5"/>
<path d="M353.771 76.3513C353.771 76.3513 363.674 76.3513 373.528 63.5869C381.828 52.8386 382.565 37.6472 382.565 13.8741L353.769 2.29297L324.976 13.8741C324.976 37.6454 325.713 52.8386 334.012 63.5869C343.867 76.3513 353.769 76.3513 353.769 76.3513H353.771Z" fill="#B0C9F2"/>
<path fill-rule="evenodd" clip-rule="evenodd" d="M353.771 74.9813H353.768C353.768 74.9813 344.447 74.8547 335.102 62.7526C334.638 62.1509 333.774 62.0408 333.172 62.505C332.571 62.9691 332.461 63.8331 332.925 64.4348C343.284 77.8523 353.77 77.733 353.77 77.733C353.77 77.733 364.255 77.8523 374.614 64.4348C380.779 56.4511 382.941 46.0936 383.627 31.7112C383.664 30.9536 383.077 30.3079 382.319 30.2712C381.562 30.2345 380.916 30.8215 380.88 31.5792C380.227 45.2644 378.303 55.156 372.437 62.7526C363.087 74.8621 353.77 74.9813 353.77 74.9813H353.771Z" fill="#0950C5"/>
<path fill-rule="evenodd" clip-rule="evenodd" d="M383.079 12.6021L354.283 1.02094C353.953 0.888854 353.586 0.888854 353.256 1.02094L324.464 12.6021C323.943 12.8112 323.602 13.3175 323.602 13.8789C323.602 28.6538 323.899 40.1432 326.073 49.3249C326.247 50.0642 326.99 50.5209 327.729 50.3467C328.468 50.1724 328.925 49.4294 328.75 48.6901C326.661 39.8662 326.366 28.8721 326.353 14.8071L353.77 3.77817L382.052 15.1538C382.756 15.4363 383.558 15.0951 383.842 14.3907C384.124 13.6862 383.783 12.8846 383.079 12.6002V12.6021Z" fill="#0950C5"/>
<path fill-rule="evenodd" clip-rule="evenodd" d="M353.77 11.2734L331.843 19.9909C331.909 38.2661 332.597 50.5297 339.44 59.3921C345.91 67.772 352.148 69.291 353.772 69.4744C355.395 69.2928 361.633 67.772 368.103 59.3921C374.946 50.5297 375.634 38.2679 375.7 19.9909L353.772 11.2734H353.77Z" fill="white"/>
<path fill-rule="evenodd" clip-rule="evenodd" d="M330.467 20.0025C330.535 38.6776 331.358 51.1833 338.35 60.2383C345.215 69.1283 351.895 70.6527 353.617 70.8472C354.371 70.9316 355.053 70.3885 355.137 69.6327C355.222 68.8788 354.679 68.1963 353.923 68.1119C352.399 67.9413 346.603 66.426 340.527 58.5561C333.832 49.8863 333.282 37.8686 333.216 19.9915C333.212 19.232 332.594 18.6174 331.835 18.6211C331.076 18.6248 330.461 19.243 330.465 20.0025H330.467Z" fill="#0950C5"/>
<path fill-rule="evenodd" clip-rule="evenodd" d="M373.888 51.799C376.812 43.753 377.104 33.4853 377.074 19.9982C377.074 19.435 376.73 18.9305 376.207 18.7232L364.986 14.2617C364.28 13.9811 363.48 14.3259 363.199 15.0322C362.919 15.7385 363.263 16.5383 363.97 16.819L374.325 20.9356C374.342 33.5624 374.07 43.2393 371.302 50.8579C371.044 51.5716 371.412 52.3622 372.126 52.6209C372.839 52.8795 373.63 52.5108 373.888 51.7972V51.799Z" fill="#0950C5"/>
<path fill-rule="evenodd" clip-rule="evenodd" d="M350.261 44.0656L362.011 30.3546C362.75 29.4924 364.048 29.3933 364.91 30.1308C365.772 30.8701 365.871 32.1689 365.134 33.0311L352.064 48.2812C351.332 49.1361 350.05 49.2425 349.186 48.5234L342.651 43.0768C341.78 42.3503 341.661 41.0515 342.387 40.1801C343.114 39.3087 344.412 39.1895 345.283 39.916L350.259 44.0637L350.261 44.0656Z" fill="#B6D0FB"/>
<defs>
<clipPath id="clip0_3457_173514">
<rect width="196.745" height="196.745" fill="white" transform="translate(192.118 78.2734)"/>
</clipPath>
</defs>
</svg>