<svg viewBox="0 0 72 72" fill="none" xmlns="http://www.w3.org/2000/svg">
<path d="M61.7374 26.5C60.4878 26.5 59.4748 27.513 59.4748 28.7626C59.4748 47.3814 44.3814 62.4748 25.7626 62.4748C24.513 62.4748 23.5 63.4878 23.5 64.7374C23.5 65.987 24.513 67 25.7626 67C46.8805 67 64 49.8805 64 28.7626C64 27.513 62.987 26.5 61.7374 26.5Z" fill="#00A3E0"></path>
<path d="M48.0814 41C50.2572 37.4505 52.3615 32.7178 51.9475 26.0921C51.0899 12.3673 38.6589 1.95537 26.9206 3.08373C22.3253 3.52547 17.6068 7.2712 18.026 13.9805C18.2082 16.8961 19.6352 18.6169 21.9544 19.9399C24.1618 21.1992 26.9978 21.9969 30.2128 22.9011C34.0962 23.9934 38.6009 25.2203 42.0631 27.7717C46.2125 30.8296 49.0491 34.3743 48.0814 41Z" fill="#B9D9EB"></path>
<path d="M3.91861 17C1.74276 20.5495 -0.361506 25.2822 0.0524931 31.9079C0.910072 45.6327 13.3411 56.0446 25.0794 54.9163C29.6747 54.4745 34.3932 50.7288 33.974 44.0195C33.7918 41.1039 32.3647 39.3831 30.0456 38.0601C27.8382 36.8008 25.0022 36.0031 21.7872 35.0989C17.9038 34.0066 13.3991 32.7797 9.93695 30.2283C5.78747 27.1704 2.95092 23.6257 3.91861 17Z" fill="#00A3E0"></path>
</svg>