<svg xmlns="http://www.w3.org/2000/svg" viewBox="0 0 24 24" fill="none"><path fill="#37352F" d="M18.071 8.571H7.786v-2.82a4.037 4.037 0 0 1 4.037-4.037h.497a4.037 4.037 0 0 1 4.037 4.037.857.857 0 1 0 1.714 0A5.76 5.76 0 0 0 12.32 0h-.497A5.76 5.76 0 0 0 6.07 5.751v2.82A2.571 2.571 0 0 0 3.5 11.143v7.971A4.894 4.894 0 0 0 8.386 24h7.371a4.894 4.894 0 0 0 4.886-4.886v-7.971A2.572 2.572 0 0 0 18.07 8.57Zm.858 10.543a3.172 3.172 0 0 1-3.172 3.172H8.386a3.171 3.171 0 0 1-3.172-3.172v-7.971a.857.857 0 0 1 .857-.857h12a.857.857 0 0 1 .858.857v7.971Zm-6-3.068v2.811a.857.857 0 1 1-1.715 0v-2.811a1.714 1.714 0 1 1 1.715 0Z"/></svg>