<svg xmlns="http://www.w3.org/2000/svg" width="512" height="442" viewBox="0 0 512 442" fill="none">
<path d="M481.508 175.336L68.4144 3.92596C51.0114 -3.29604 31.3504 -0.11904 17.1054 12.213C2.8604 24.547 -3.0976 43.551 1.5584 61.808L38.3274 206H218.353C226.637 206 233.354 212.716 233.354 221.001C233.354 229.285 226.638 236.002 218.353 236.002H38.3274L1.5584 380.193C-3.0976 398.451 2.8594 417.455 17.1054 429.788C31.3794 442.145 51.0424 445.283 68.4154 438.075L481.509 266.666C500.317 258.862 512 241.364 512 221.001C512 200.638 500.317 183.139 481.508 175.336Z" fill="#ffffff"/>
</svg>