<svg xmlns="http://www.w3.org/2000/svg" viewBox="0 0 512 441.78" fill="none">
  <path fill="currentColor" d="m49.38,25c3.22,0,6.4.64,9.45,1.91l413.1,171.41c9.44,3.92,15.07,12.35,15.07,22.57s-5.63,18.66-15.07,22.57L58.83,414.87c-3.05,1.27-6.23,1.91-9.46,1.91-5.79,0-11.44-2.13-15.91-6-7.04-6.1-9.99-15.49-7.69-24.52l31.97-125.37h160.6c22.06,0,40-17.94,40-40s-17.94-40-40-40H57.75L25.78,55.52c-2.3-9.02.64-18.42,7.69-24.52,4.47-3.87,10.12-6,15.91-6m0-25c-11.64,0-23.08,4.15-32.28,12.1C2.86,24.44-3.1,43.44,1.56,61.7l36.77,144.19h180.03c8.28,0,15,6.72,15,15s-6.72,15-15,15H38.33L1.56,380.08c-4.66,18.26,1.3,37.26,15.55,49.59,9.2,7.97,20.65,12.1,32.27,12.1,6.41,0,12.87-1.25,19.04-3.82l413.1-171.41c18.81-7.8,30.49-25.3,30.49-45.66s-11.68-37.86-30.49-45.67L68.41,3.82c-6.17-2.56-12.63-3.82-19.03-3.82h0Z"/>
</svg>