<svg xmlns="http://www.w3.org/2000/svg" version="1.1" xmlns:xlink="http://www.w3.org/1999/xlink" xmlns:svgjs="http://svgjs.com/svgjs" width="512" height="512" x="0" y="0" viewBox="0 0 512.005 512.005" style="enable-background:new 0 0 512 512" xml:space="preserve" class=""><g><g xmlns="http://www.w3.org/2000/svg"><path d="m511.658 51.675c2.496-11.619-8.895-21.416-20.007-17.176l-482 184c-5.801 2.215-9.638 7.775-9.65 13.984-.012 6.21 3.803 11.785 9.596 14.022l135.403 52.295v164.713c0 6.948 4.771 12.986 11.531 14.593 6.715 1.597 13.717-1.598 16.865-7.843l56.001-111.128 136.664 101.423c8.313 6.17 20.262 2.246 23.287-7.669 127.599-418.357 122.083-400.163 122.31-401.214zm-118.981 52.718-234.803 167.219-101.028-39.018zm-217.677 191.852 204.668-145.757c-176.114 185.79-166.916 176.011-167.684 177.045-1.141 1.535 1.985-4.448-36.984 72.882zm191.858 127.546-120.296-89.276 217.511-229.462z" fill="#ffffff" data-original="#000000" class=""></path></g></g></svg>