<svg viewBox="0 0 89 89" fill="none" xmlns="http://www.w3.org/2000/svg">
<path d="M0 28C0 12.536 12.536 0 28 0H61C76.464 0 89 12.536 89 28V61C89 76.464 76.464 89 61 89H28C12.536 89 0 76.464 0 61V28Z" fill="#FFF6ED"/>
<path fill-rule="evenodd" clip-rule="evenodd" d="M32 34.2041C32 31.8823 33.8823 30 36.2042 30H52.8132C55.135 30 57.0172 31.8823 57.0172 34.2041V55.7958C57.0172 58.1178 55.135 60 52.8132 60H36.2042C33.8823 60 32 58.1178 32 55.7958V34.2041ZM36.2042 31.7647C34.8569 31.7647 33.7647 32.8569 33.7647 34.2041V55.7958C33.7647 57.1431 34.8569 58.2353 36.2042 58.2353H52.8132C54.1603 58.2353 55.2525 57.1431 55.2525 55.7958V34.2041C55.2525 32.8569 54.1603 31.7647 52.8132 31.7647H36.2042Z" fill="#C4320A"/>
<path fill-rule="evenodd" clip-rule="evenodd" d="M46.7497 41.5427C45.3682 40.7227 43.6494 40.7226 42.268 41.5427C42.1448 41.6158 42.0693 41.7485 42.0693 41.8916V45.778H46.9484V41.8916C46.9484 41.7485 46.8728 41.6158 46.7497 41.5427ZM41.3671 40.0253C43.3037 38.8755 45.7138 38.8755 47.6505 40.0253C48.3091 40.4163 48.7131 41.1256 48.7131 41.8916V46.6603C48.7131 47.1476 48.318 47.5427 47.8307 47.5427H41.187C40.6997 47.5427 40.3047 47.1476 40.3047 46.6603V41.8916C40.3047 41.1256 40.7085 40.4163 41.3671 40.0253Z" fill="#C4320A"/>
<path fill-rule="evenodd" clip-rule="evenodd" d="M44.5085 35.0873C43.62 35.0873 42.8995 35.8077 42.8995 36.6963C42.8995 37.585 43.62 38.3053 44.5085 38.3053C45.3972 38.3053 46.1176 37.585 46.1176 36.6963C46.1176 35.8077 45.3972 35.0873 44.5085 35.0873ZM41.1348 36.6963C41.1348 34.8331 42.6454 33.3226 44.5085 33.3226C46.3717 33.3226 47.8823 34.8331 47.8823 36.6963C47.8823 38.5596 46.3717 40.07 44.5085 40.07C42.6454 40.07 41.1348 38.5596 41.1348 36.6963Z" fill="#C4320A"/>
<path fill-rule="evenodd" clip-rule="evenodd" d="M32 49.9822C32 49.495 32.395 49.0999 32.8824 49.0999H56.1349C56.6223 49.0999 57.0172 49.495 57.0172 49.9822C57.0172 50.4696 56.6223 50.8646 56.1349 50.8646H32.8824C32.395 50.8646 32 50.4696 32 49.9822Z" fill="#C4320A"/>
<path fill-rule="evenodd" clip-rule="evenodd" d="M36.9824 53.305C36.9824 52.8175 37.3775 52.4226 37.8648 52.4226H42.8474C43.3349 52.4226 43.7298 52.8175 43.7298 53.305C43.7298 53.7922 43.3349 54.1873 42.8474 54.1873H37.8648C37.3775 54.1873 36.9824 53.7922 36.9824 53.305Z" fill="#C4320A"/>
<path fill-rule="evenodd" clip-rule="evenodd" d="M36.9824 55.7951C36.9824 55.3077 37.3775 54.9127 37.8648 54.9127H47.8301C48.3175 54.9127 48.7124 55.3077 48.7124 55.7951C48.7124 56.2823 48.3175 56.6774 47.8301 56.6774H37.8648C37.3775 56.6774 36.9824 56.2823 36.9824 55.7951Z" fill="#C4320A"/>
</svg>
