<svg  viewBox="0 0 21 16" fill="none" xmlns="http://www.w3.org/2000/svg">
<path d="M10.4824 3.15744C11.1185 3.26697 11.733 3.5307 12.2596 3.91985C12.3031 3.95206 12.3537 3.96795 12.4044 3.96795C12.4687 3.96795 12.5322 3.94218 12.5803 3.89236L14.3687 2.04111C14.4185 1.98956 14.445 1.91826 14.4413 1.84524C14.4376 1.77222 14.4039 1.70436 14.3492 1.6584C13.2566 0.744802 11.943 0.181266 10.5492 0.028785C10.4791 0.0210536 10.4089 0.0446775 10.3566 0.0936433C10.3044 0.142609 10.2741 0.212192 10.2741 0.285211V2.90316C10.2745 3.02901 10.3625 3.13682 10.4824 3.15744ZM10.7724 0.577288C11.8766 0.745661 12.9197 1.1928 13.8172 1.88347L12.3741 3.37736C11.8861 3.05006 11.3392 2.81511 10.7724 2.69012V0.577288ZM6.28984 10.0998C5.76992 9.34646 5.49482 8.45691 5.49482 7.52742C5.49482 5.35145 6.99731 3.51352 9.06743 3.15744C9.18735 3.13682 9.27573 3.02944 9.27573 2.90316V0.285211C9.27573 0.212192 9.24586 0.142609 9.19316 0.0936433C9.14046 0.0446775 9.07034 0.0214831 9.00063 0.028785C7.29772 0.215199 5.7193 1.01755 4.53009 2.29496L3.45374 1.25637C3.40976 1.21384 3.35291 1.18936 3.29275 1.18721L2.01764 1.13996C1.90934 0.819539 1.61557 0.588885 1.26951 0.588885C0.832164 0.588885 0.476562 0.956987 0.476562 1.40971C0.476562 1.86242 0.832164 2.23053 1.26951 2.23053C1.62387 2.23053 1.9247 1.9887 2.02594 1.65582L3.18237 1.69878L4.19689 2.67809C3.09482 4.03539 2.49026 5.74618 2.49026 7.52742C2.49026 9.24595 3.06411 10.9275 4.10561 12.2625C4.15001 12.3192 4.21557 12.354 4.28611 12.3579C4.29067 12.3583 4.29482 12.3583 4.29938 12.3583C4.36536 12.3583 4.42843 12.3312 4.47532 12.2827L6.26329 10.4319C6.34918 10.3425 6.36038 10.2021 6.28984 10.0998ZM1.26951 1.7151C1.10685 1.7151 0.974488 1.57808 0.974488 1.40971C0.974488 1.24133 1.10685 1.10431 1.26951 1.10431C1.43216 1.10431 1.56453 1.24133 1.56453 1.40971C1.56453 1.57808 1.43216 1.7151 1.26951 1.7151ZM4.32304 11.7114C3.46038 10.507 2.98777 9.03247 2.98777 7.52742C2.98777 4.0195 5.45789 1.08069 8.77739 0.577288V2.68969C7.75582 2.91476 6.82677 3.48603 6.14212 4.31415C5.40395 5.20799 4.99689 6.34924 4.99689 7.52742C4.99689 8.49127 5.26204 9.4169 5.76536 10.2184L4.32304 11.7114ZM12.5803 11.1625C12.4944 11.0736 12.3587 11.062 12.2596 11.135C11.733 11.5246 11.1181 11.7883 10.4824 11.8974C10.3625 11.918 10.2741 12.0254 10.2741 12.1517V14.7696C10.2741 14.8426 10.3039 14.9122 10.3566 14.9612C10.4027 15.0042 10.462 15.0273 10.523 15.0273C10.5317 15.0273 10.5405 15.0269 10.5492 15.0261C11.9425 14.8736 13.2562 14.31 14.3492 13.3964C14.4039 13.3505 14.4376 13.2826 14.4413 13.2096C14.445 13.1366 14.4185 13.0653 14.3687 13.0137L12.5803 11.1625ZM10.7724 14.4776V12.3652C11.3396 12.2397 11.8861 12.0052 12.3741 11.6779L13.8172 13.1718C12.9193 13.862 11.8761 14.3092 10.7724 14.4776ZM9.06743 11.8974C8.43133 11.7879 7.81681 11.5241 7.29026 11.135C7.19109 11.062 7.05582 11.0736 6.96951 11.1625L5.18113 13.0137C5.13133 13.0653 5.10478 13.1366 5.10851 13.2096C5.11225 13.2826 5.14586 13.3505 5.20063 13.3964C6.29316 14.31 7.60727 14.8736 9.00063 15.0261C9.00934 15.0269 9.01806 15.0273 9.02677 15.0273C9.08777 15.0273 9.14752 15.0042 9.19316 14.9612C9.24544 14.9122 9.27573 14.8426 9.27573 14.7696V12.1517C9.27573 12.0258 9.18777 11.918 9.06743 11.8974ZM8.77781 14.4776C7.67366 14.3092 6.63092 13.862 5.73299 13.1714L7.17615 11.6775C7.66411 12.0048 8.211 12.2397 8.77781 12.3647V14.4776ZM13.262 7.52742C13.262 5.537 11.6977 3.9177 9.7749 3.9177C7.85208 3.9177 6.28777 5.537 6.28777 7.52742C6.28777 9.51784 7.85208 11.1371 9.7749 11.1371C11.6977 11.1371 13.262 9.51784 13.262 7.52742ZM9.7749 10.6217C8.12677 10.6217 6.78569 9.23349 6.78569 7.52742C6.78569 5.82135 8.12677 4.43313 9.7749 4.43313C11.423 4.43313 12.7641 5.82135 12.7641 7.52742C12.7641 9.23349 11.4235 10.6217 9.7749 10.6217ZM19.6836 10.3816C19.3293 10.3816 19.0284 10.6234 18.9272 10.9563L17.7708 10.9134L16.6961 9.87606C16.9347 9.12224 17.0596 8.32891 17.0596 7.52785C17.0596 5.80932 16.4857 4.12774 15.4442 2.79277C15.3998 2.73608 15.3342 2.70129 15.2637 2.69742C15.1936 2.69398 15.1243 2.72104 15.0745 2.77259L13.2865 4.62341C13.2006 4.71232 13.1894 4.85277 13.26 4.95543C13.7799 5.70881 14.055 6.59836 14.055 7.52785C14.055 8.45734 13.7803 9.34688 13.26 10.1003C13.189 10.2029 13.2002 10.3434 13.2865 10.4323L15.0745 12.2831C15.1214 12.3316 15.1849 12.3587 15.2504 12.3587C15.255 12.3587 15.2591 12.3587 15.2637 12.3583C15.3342 12.3544 15.3998 12.3196 15.4442 12.2629C15.8861 11.6968 16.2434 11.068 16.5089 10.4005L17.499 11.3562C17.543 11.3987 17.5998 11.4232 17.66 11.4254L18.9355 11.4726C19.0438 11.793 19.3376 12.0237 19.6836 12.0237C20.121 12.0237 20.4766 11.6556 20.4766 11.2029C20.4766 10.7501 20.121 10.3816 19.6836 10.3816ZM15.2272 11.7114L13.7849 10.2184C14.2882 9.41733 14.5533 8.4917 14.5533 7.52742C14.5533 6.56357 14.2882 5.63794 13.7849 4.83645L15.2272 3.34342C16.0898 4.54781 16.562 6.02237 16.562 7.52742C16.562 9.03247 16.0898 10.507 15.2272 11.7114ZM19.6836 11.5078C19.521 11.5078 19.3886 11.3708 19.3886 11.2024C19.3886 11.0341 19.521 10.897 19.6836 10.897C19.8463 10.897 19.9786 11.0341 19.9786 11.2024C19.9786 11.3708 19.8463 11.5078 19.6836 11.5078Z" fill="#292929"/>
</svg>
