<svg xmlns="http://www.w3.org/2000/svg" xml:space="preserve" width="512" height="512" style="enable-background:new 0 0 512 512" viewBox="0 0 64 64"><path xmlns="http://www.w3.org/2000/svg" fill="#7147E8" d="M56.588 45H41.412A4.417 4.417 0 0 0 37 49.411V52H14.5a9.5 9.5 0 0 1 0-19h10.086L32 40.414 39.414 33H49.5a11.5 11.5 0 0 0 0-23H27V7.412A4.417 4.417 0 0 0 22.588 3H7.412A4.417 4.417 0 0 0 3 7.412v7.176A4.417 4.417 0 0 0 7.412 19h15.176A4.417 4.417 0 0 0 27 14.588V12h22.5a9.5 9.5 0 0 1 0 19H39.414L32 23.586 24.586 31H14.5a11.5 11.5 0 0 0 0 23H37v2.589A4.417 4.417 0 0 0 41.412 61h15.176A4.417 4.417 0 0 0 61 56.589v-7.178A4.417 4.417 0 0 0 56.588 45Z" data-original="#000000"/></svg>