<svg width="16" height="16" viewBox="0 0 16 16" fill="none" xmlns="http://www.w3.org/2000/svg">
<path d="M9.7933 13.1724V12.6724V12.2188C9.7933 11.9771 9.98917 11.7813 10.2308 11.7813H14.5627C14.8043 11.7813 15.0002 11.9771 15.0002 12.2188V14.5625C15.0002 14.8041 14.8043 15 14.5627 15H10.2308C9.98917 15 9.7933 14.8041 9.7933 14.5625V14.1897V13.6897V13.1724ZM8.0002 9.46894L6.53128 8.00002L8.0002 6.5311L9.46912 8.00002L8.0002 9.46894ZM1.4375 1H5.76938C6.011 1 6.20688 1.19587 6.20688 1.4375V3.78124C6.20688 4.02286 6.011 4.21874 5.76938 4.21874H1.4375C1.19587 4.21874 1 4.02286 1 3.78124V1.4375C1 1.19587 1.19587 1 1.4375 1Z" stroke="#37352F"/>
<path fill-rule="evenodd" clip-rule="evenodd" d="M3.47413 13.162H9.29308V13.6793H3.47413C2.68534 13.6793 1.92886 13.3659 1.3711 12.8082C0.813345 12.2504 0.5 11.4939 0.5 10.7051C0.5 9.91635 0.813345 9.15987 1.3711 8.60211C1.92886 8.04435 2.68534 7.73101 3.47413 7.73101H6.08257V8.24825H3.47413C2.82252 8.24825 2.1976 8.5071 1.73685 8.96785C1.27609 9.42861 1.01724 10.0535 1.01724 10.7051C1.01724 11.3567 1.27609 11.9817 1.73685 12.4424C2.1976 12.9032 2.82252 13.162 3.47413 13.162ZM12.5258 8.24825H9.91739V7.73101H12.5258C13.1774 7.73101 13.8024 7.47216 14.2631 7.0114C14.7239 6.55064 14.9827 5.92572 14.9827 5.27412C14.9827 4.62251 14.7239 3.99759 14.2631 3.53683C13.8024 3.07608 13.1774 2.81723 12.5258 2.81723H6.70688V2.29999H12.5258C13.3146 2.29999 14.0711 2.61333 14.6289 3.17109C15.1866 3.72885 15.5 4.48533 15.5 5.27412C15.5 6.06291 15.1866 6.81939 14.6289 7.37714C14.0711 7.9349 13.3146 8.24825 12.5258 8.24825Z" fill="#37352F" stroke="#37352F" stroke-width="0.4"/>
</svg>
