<svg viewBox="0 0 90 89" fill="none" xmlns="http://www.w3.org/2000/svg">
<path d="M0.125 28C0.125 12.536 12.661 0 28.125 0H61.125C76.589 0 89.125 12.536 89.125 28V61C89.125 76.464 76.589 89 61.125 89H28.125C12.661 89 0.125 76.464 0.125 61V28Z" fill="#F8F9FC"/>
<path fill-rule="evenodd" clip-rule="evenodd" d="M38.9283 35.3569C38.9283 34.7229 39.4079 34.209 39.9997 34.209H49.9997C50.5914 34.209 51.0711 34.7229 51.0711 35.3569C51.0711 35.9909 50.5914 36.5049 49.9997 36.5049H39.9997C39.4079 36.5049 38.9283 35.9909 38.9283 35.3569ZM38.1876 39.1032L45.8454 49.6522C46.2087 50.1526 46.1246 50.8738 45.6575 51.2631C45.1904 51.6523 44.5172 51.5622 44.1539 51.0617L36.4962 40.5127L38.1876 39.1032Z" fill="#363F72"/>
<path fill-rule="evenodd" clip-rule="evenodd" d="M57.8573 32.2959H52.143L52.143 38.4184L57.8573 38.4184L57.8573 32.2959ZM52.143 30C50.9596 30 50.0002 31.0279 50.0002 32.2959V38.4184C50.0002 39.6864 50.9596 40.7143 52.143 40.7143H57.8573C59.0408 40.7143 60.0002 39.6864 60.0002 38.4184V32.2959C60.0002 31.0279 59.0408 30 57.8573 30H52.143Z" fill="#363F72"/>
<path fill-rule="evenodd" clip-rule="evenodd" d="M37.8571 32.2959H32.1429L32.1429 38.4184L37.8571 38.4184L37.8571 32.2959ZM32.1429 30C30.9594 30 30 31.0279 30 32.2959V38.4184C30 39.6864 30.9594 40.7143 32.1429 40.7143H37.8571C39.0406 40.7143 40 39.6864 40 38.4184V32.2959C40 31.0279 39.0406 30 37.8571 30H32.1429Z" fill="#363F72"/>
<path fill-rule="evenodd" clip-rule="evenodd" d="M51.8571 51.5821H46.1429L46.1429 57.7045L51.8571 57.7045L51.8571 51.5821ZM46.1429 49.2861C44.9594 49.2861 44 50.314 44 51.582V57.7045C44 58.9725 44.9594 60.0004 46.1429 60.0004H51.8571C53.0406 60.0004 54 58.9725 54 57.7045V51.5821C54 50.3141 53.0406 49.2861 51.8571 49.2861H46.1429Z" fill="#363F72"/>
</svg>
