
<svg viewBox="0 0 30 30" fill="none" xmlns="http://www.w3.org/2000/svg">
<g clip-path="url(#clip0_3916_270289)">
<path fill-rule="evenodd" clip-rule="evenodd" d="M22.5406 -0.25C21.9924 -0.25 21.548 0.194347 21.548 0.742574V3.31436L18.6114 3.31436C16.8338 3.31624 15.3932 4.75703 15.3913 6.53465V10.9965H13.373C12.8247 10.9965 12.3804 11.4412 12.3804 11.9891V14.0074H8.43863V11.4356C8.43863 10.8874 7.99428 10.4431 7.44605 10.4431H0.965353C0.417125 10.4431 -0.0272217 10.8874 -0.0272217 11.4356V18.5644C-0.0272217 19.1126 0.417125 19.5569 0.965353 19.5569H7.44605C7.99428 19.5569 8.43863 19.1126 8.43863 18.5644V15.9926H12.3804V18.0109C12.3804 18.5588 12.8247 19.0035 13.373 19.0035H15.3913V23.4656C15.3932 25.2432 16.834 26.6838 18.6116 26.6856H21.548V29.2574C21.548 29.8057 21.9924 30.25 22.5406 30.25H29.021C29.5693 30.25 30.0136 29.8057 30.0136 29.2574V22.1287C30.0136 21.5805 29.5693 21.1361 29.021 21.1361H22.5406C21.9924 21.1361 21.548 21.5805 21.548 22.1287V24.7005H18.6119C17.9298 24.6998 17.3772 24.147 17.3765 23.4651V19.0035H19.0705C19.6188 19.0035 20.0631 18.5588 20.0631 18.0109V11.9891C20.0631 11.4409 19.6188 10.9965 19.0705 10.9965H17.3765V6.53492C17.3772 5.85302 17.9298 5.30023 18.6119 5.2995H21.548V7.87129C21.548 8.41951 21.9924 8.86386 22.5406 8.86386H29.021C29.5693 8.86386 30.0136 8.41952 30.0136 7.87129V0.742574C30.0136 0.194347 29.5693 -0.25 29.021 -0.25H22.5406ZM23.5332 6.87871V1.73515H28.0285V6.87871H23.5332ZM1.95793 17.5718V12.4282H6.45348V17.5718H1.95793ZM14.3656 17.0183V12.9817H18.078V17.0183H14.3656ZM23.5332 28.2649V23.1213H28.0285V28.2649H23.5332Z" fill="#757575"/>
</g>
<defs>
<clipPath id="clip0_3916_270289">
<rect width="30" height="30" fill="white"/>
</clipPath>
</defs>
</svg>
