<svg viewBox="0 0 20 20" fill="none" xmlns="http://www.w3.org/2000/svg">
<g clip-path="url(#clip0_8185_248203)">
<path fill-rule="evenodd" clip-rule="evenodd" d="M10 5.58203C10.3853 5.58203 10.6977 5.89439 10.6977 6.27971V9.30296H13.7209C14.1062 9.30296 14.4186 9.61533 14.4186 10.0006C14.4186 10.3859 14.1062 10.6983 13.7209 10.6983H10.6977V13.7216C10.6977 14.1069 10.3853 14.4192 10 14.4192C9.61469 14.4192 9.30232 14.1069 9.30232 13.7216V10.6983H6.27906C5.89375 10.6983 5.58139 10.3859 5.58139 10.0006C5.58139 9.61533 5.89375 9.30296 6.27906 9.30296H9.30232V6.27971C9.30232 5.89439 9.61469 5.58203 10 5.58203Z" fill="#48CA9E"/>
<path fill-rule="evenodd" clip-rule="evenodd" d="M10 18.6047C5.24779 18.6047 1.39535 14.7522 1.39535 10C1.39535 5.24779 5.24779 1.39535 10 1.39535C14.7522 1.39535 18.6047 5.24779 18.6047 10C18.6047 14.7522 14.7522 18.6047 10 18.6047ZM0 10C0 15.5229 4.47715 20 10 20C15.5229 20 20 15.5229 20 10C20 4.47715 15.5229 0 10 0C4.47715 0 0 4.47715 0 10Z" fill="#48CA9E"/>
</g>
<defs>
<clipPath id="clip0_8185_248203">
<rect width="20" height="20" fill="white"/>
</clipPath>
</defs>
</svg>