<svg viewBox="0 0 40 40" fill="none" xmlns="http://www.w3.org/2000/svg">
<path fill-rule="evenodd" clip-rule="evenodd" d="M20 12.0833C20.6903 12.0833 21.25 12.643 21.25 13.3333V18.75H26.6666C27.357 18.75 27.9166 19.3096 27.9166 20C27.9166 20.6903 27.357 21.25 26.6666 21.25H21.25V26.6666C21.25 27.357 20.6903 27.9166 20 27.9166C19.3096 27.9166 18.75 27.357 18.75 26.6666V21.25H13.3333C12.643 21.25 12.0833 20.6903 12.0833 20C12.0833 19.3096 12.643 18.75 13.3333 18.75H18.75V13.3333C18.75 12.643 19.3096 12.0833 20 12.0833Z" fill="#48CA9E"/>
<path fill-rule="evenodd" clip-rule="evenodd" d="M20 35.4166C11.4856 35.4166 4.58331 28.5143 4.58331 20C4.58331 11.4856 11.4856 4.58331 20 4.58331C28.5143 4.58331 35.4166 11.4856 35.4166 20C35.4166 28.5143 28.5143 35.4166 20 35.4166ZM2.08331 20C2.08331 29.8951 10.1049 37.9166 20 37.9166C29.8951 37.9166 37.9166 29.8951 37.9166 20C37.9166 10.1049 29.8951 2.08331 20 2.08331C10.1049 2.08331 2.08331 10.1049 2.08331 20Z" fill="#48CA9E"/>
</svg>