<svg width="50" height="51" viewBox="0 0 50 51" fill="none" xmlns="http://www.w3.org/2000/svg">
<g clip-path="url(#clip0_954_21721)">
<path d="M34.668 50.5H1.46484C0.655859 50.5 0 49.8441 0 49.0352V7.82422C0 7.01523 0.655859 6.35938 1.46484 6.35938H34.668C35.477 6.35938 36.1328 7.01523 36.1328 7.82422V49.0352C36.1328 49.8441 35.477 50.5 34.668 50.5Z" fill="#E2DFF4"/>
<path d="M34.668 6.35938H18.0664V50.5H34.668C35.477 50.5 36.1328 49.8441 36.1328 49.0352V7.82422C36.1328 7.01523 35.477 6.35938 34.668 6.35938Z" fill="#BEBCDD"/>
<path d="M40.7227 44.6406H7.51953C6.71055 44.6406 6.05469 43.9848 6.05469 43.1758v1.9/6484C6.05469 1.15586 6.71055 0.5 7.51953 0.5H40.7227C41.5316 0.5 42.1875 1.15586 42.1875 1.96484V43.1758C42.1875 43.9848 41.5316 44.6406 40.7227 44.6406Z" fill="#F1F1F4"/>
<path d="M40.7227 0.5H24.1211V44.6406H40.7227C41.5316 44.6406 42.1875 43.9848 42.1875 43.1758v1.9/6484C42.1875 1.15586 41.5316 0.5 40.7227 0.5Z" fill="#E2DFF4"/>
<path d="M19.2383 15.3438H13.3789C12.5699 15.3438 11.9141 14.6879 11.9141 13.8789V8.01953C11.9141 7.21055 12.5699 6.55469 13.3789 6.55469H19.2383C20.0473 6.55469 20.7031 7.21055 20.7031 8.01953V13.8789C20.7031 14.6879 20.0473 15.3438 19.2383 15.3438Z" fill="#999FED"/>
<path d="M19.2383 27.0625H13.3789C12.5699 27.0625 11.9141 26.4066 11.9141 25.5977V19.7383C11.9141 18.9293 12.5699 18.2734 13.3789 18.2734H19.2383C20.0473 18.2734 20.7031 18.9293 20.7031 19.7383V25.5977C20.7031 26.4066 20.0473 27.0625 19.2383 27.0625Z" fill="#999FED"/>
<path d="M19.2383 38.7812H13.3789C12.5699 38.7812 11.9141 38.1254 11.9141 37.3164V31.457C11.9141 30.648 12.5699 29.9922 13.3789 29.9922H19.2383C20.0473 29.9922 20.7031 30.648 20.7031 31.457V37.3164C20.7031 38.1254 20.0473 38.7812 19.2383 38.7812Z" fill="#999FED"/>
<path d="M30.957 15.3438H25.5859C24.777 15.3438 24.1211 14.6879 24.1211 13.8789C24.1211 13.0699 24.777 12.4141 25.5859 12.4141H30.957C31.766 12.4141 32.4219 13.0699 32.4219 13.8789C32.4219 14.6879 31.766 15.3438 30.957 15.3438Z" fill="#453D83"/>
<path d="M34.8633 9.48438H25.5859C24.777 9.48438 24.1211 8.82852 24.1211 8.01953C24.1211 7.21055 24.777 6.55469 25.5859 6.55469H34.8633C35.6723 6.55469 36.3281 7.21055 36.3281 8.01953C36.3281 8.82852 35.6723 9.48438 34.8633 9.48438Z" fill="#453D83"/>
<path d="M32.9102 27.0625H25.5859C24.777 27.0625 24.1211 26.4066 24.1211 25.5977C24.1211 24.7887 24.777 24.1328 25.5859 24.1328H32.9102C33.7191 24.1328 34.375 24.7887 34.375 25.5977C34.375 26.4066 33.7191 27.0625 32.9102 27.0625Z" fill="#453D83"/>
<path d="M34.8633 21.2031H25.5859C24.777 21.2031 24.1211 20.5473 24.1211 19.7383C24.1211 18.9293 24.777 18.2734 25.5859 18.2734H34.8633C35.6723 18.2734 36.3281 18.9293 36.3281 19.7383C36.3281 20.5473 35.6723 21.2031 34.8633 21.2031Z" fill="#453D83"/>
<path d="M33.7591 38.7812H25.5859C24.777 38.7812 24.1211 38.1254 24.1211 37.3164C24.1211 36.5074 24.777 35.8516 25.5859 35.8516H33.7591C34.5681 35.8516 35.2239 36.5074 35.2239 37.3164C35.2239 38.1254 34.5682 38.7812 33.7591 38.7812Z" fill="#453D83"/>
<path d="M32.9102 32.9219H25.5859C24.777 32.9219 24.1211 32.266 24.1211 31.457C24.1211 30.648 24.777 29.9922 25.5859 29.9922H32.9102C33.7191 29.9922 34.375 30.648 34.375 31.457C34.375 32.266 33.7191 32.9219 32.9102 32.9219Z" fill="#453D83"/>
<path d="M40.7227 45.6172C40.5483 45.6172 40.3741 45.5861 40.2083 45.5239C37.6221 44.5541 35.4234 42.8415 33.8502 40.5712C32.277 38.301 31.4453 35.641 31.4453 32.8789V25.5976C31.4453 24.9871 31.824 24.4404 32.3958 24.226L40.2083 21.2964C40.5399 21.172 40.9054 21.172 41.237 21.2964L49.0495 24.226C49.6213 24.4404 50 24.9871 50 25.5976V32.8789C50 35.641 49.1684 38.3009 47.5951 40.5713C46.0219 42.8416 43.8232 44.5542 41.237 45.524C41.0712 45.5861 40.897 45.6172 40.7227 45.6172Z" fill="#FFCD00"/>
<path d="M41.237 45.5239C43.8232 44.5541 46.0219 42.8415 47.5951 40.5712C49.1684 38.301 50 35.641 50 32.8789V25.5977C50 24.9871 49.6213 24.4404 49.0495 24.2261L41.237 21.2964C41.0712 21.2342 40.8969 21.2031 40.7227 21.2031V45.6172C40.897 45.6172 41.0712 45.5861 41.237 45.5239Z" fill="#FF9F22"/>
<path d="M34.375 26.6147V32.8809C34.375 37.0787 36.9038 40.9058 40.7227 42.5741C44.5415 40.9058 47.0703 37.0788 47.0703 32.8809V26.6147L40.7227 24.2344L34.375 26.6147Z" fill="#FFEB99"/>
<path d="M47.0703 32.8809V26.6147L40.7227 24.2344V42.574C44.5415 40.9057 47.0703 37.0787 47.0703 32.8809Z" fill="#FFCD00"/>
<path d="M38.6511 35.5423L36.5794 33.4708C36.0074 32.8987 36.0074 31.9712 36.5794 31.3992C37.1515 30.8271 38.079 30.8271 38.651 31.3992L39.687 32.4349L42.7944 29.3275C43.3665 28.7554 44.2939 28.7554 44.866 29.3275C45.438 29.8996 45.438 30.827 44.866 31.3991L40.7227 35.5423C40.1506 36.1143 39.2232 36.1143 38.6511 35.5423Z" fill="#5F55AF"/>
<path d="M44.8658 29.3275C44.2937 28.7554 43.3663 28.7554 42.7942 29.3275L40.7227 31.3992V35.5423L44.8658 31.3992C45.4379 30.8271 45.4379 29.8996 44.8658 29.3275Z" fill="#453D83"/>
</g>
<defs>
<clipPath id="clip0_954_21721">
<rect width="50" height="50" fill="white" transform="translate(0 0.5)"/>
</clipPath>
</defs>
</svg>
