
<svg viewBox="0 0 40 41" fill="none" xmlns="http://www.w3.org/2000/svg">
<g clip-path="url(#clip0_4982_127889)">
<path d="M27.5 35.0004C27.375 35.0004 27.25 34.9754 27.1325 34.9254C26.8425 34.8017 20 31.8217 20 25.6929V20.6704C20 20.2692 20.255 19.9129 20.6362 19.7829L27.1988 17.5504C27.3938 17.4842 27.6062 17.4842 27.8012 17.5504L34.3637 19.7829C34.745 19.9129 35 20.2692 35 20.6704V25.6929C35 31.8217 28.1575 34.8017 27.8675 34.9267C27.75 34.9754 27.625 35.0004 27.5 35.0004V35.0004ZM21.875 21.3417V25.6917C21.875 29.8579 26.195 32.3629 27.5 33.0229C28.805 32.3629 33.125 29.8579 33.125 25.6917V21.3417L27.5 19.4279L21.875 21.3417Z" fill="currentColor" stroke="currentColor" stroke-width="0.1"/>
<path d="M27.1874 29.375C26.9399 29.375 26.6999 29.2775 26.5249 29.1L24.0249 26.6C23.6587 26.2338 23.6587 25.64 24.0249 25.2738C24.3912 24.9075 24.9849 24.9075 25.3512 25.2738L27.0874 27.01L30.1874 22.875C30.4949 22.4613 31.0849 22.3763 31.4999 22.6888C31.9137 22.9988 31.9974 23.5863 31.6862 24.0013L27.9362 29.0013C27.7737 29.2188 27.5249 29.3538 27.2524 29.3738C27.2312 29.3738 27.2099 29.375 27.1874 29.375Z" fill="currentColor" stroke="currentColor" stroke-width="0.1"/>
<path d="M18.2375 31.25H8.4375C6.54125 31.25 5 29.7087 5 27.8125V8.4375C5 6.54125 6.54125 5 8.4375 5H22.8125C24.7088 5 26.25 6.54125 26.25 8.4375V15.225C26.25 15.7425 25.83 16.1625 25.3125 16.1625C24.795 16.1625 24.375 15.7425 24.375 15.225V8.4375C24.375 7.57625 23.6738 6.875 22.8125 6.875H8.4375C7.57625 6.875 6.875 7.57625 6.875 8.4375V27.8125C6.875 28.6738 7.57625 29.375 8.4375 29.375H18.2375C18.755 29.375 19.175 29.795 19.175 30.3125C19.175 30.83 18.755 31.25 18.2375 31.25Z" fill="currentColor" stroke="currentColor" stroke-width="0.1"/>
<path d="M21.5625 16.8749H9.6875C9.17 16.8749 8.75 16.4549 8.75 15.9374C8.75 15.4199 9.17 14.9999 9.6875 14.9999H21.5625C22.08 14.9999 22.5 15.4199 22.5 15.9374C22.5 16.4549 22.08 16.8749 21.5625 16.8749Z" fill="currentColor" stroke="currentColor" stroke-width="0.1"/>
<path d="M16.5625 21.875H9.6875C9.17 21.875 8.75 21.455 8.75 20.9375C8.75 20.42 9.17 20 9.6875 20H16.5625C17.08 20 17.5 20.42 17.5 20.9375C17.5 21.455 17.08 21.875 16.5625 21.875Z" fill="currentColor" stroke="currentColor" stroke-width="0.1"/>
<path d="M15.3125 11.8751H9.6875C9.17 11.8751 8.75 11.4551 8.75 10.9376C8.75 10.4201 9.17 10.0001 9.6875 10.0001H15.3125C15.83 10.0001 16.25 10.4201 16.25 10.9376C16.25 11.4551 15.83 11.8751 15.3125 11.8751Z" fill="currentColor" stroke="currentColor" stroke-width="0.1"/>
</g>
<defs>
<clipPath id="clip0_4982_127889">
<rect width="40" height="40" fill="white" transform="translate(0 0.5)"/>
</clipPath>
</defs>
</svg>
