<svg viewBox="0 0 89 89" fill="none" xmlns="http://www.w3.org/2000/svg">
<path d="M0 28C0 12.536 12.536 0 28 0H61C76.464 0 89 12.536 89 28V61C89 76.464 76.464 89 61 89H28C12.536 89 0 76.464 0 61V28Z" fill="#F4F3FF"/>
<g clip-path="url(#clip0_8576_31408)">
<path d="M52.5 60C52.375 60 52.25 59.975 52.1325 59.925C51.8425 59.8012 45 56.8212 45 50.6925V45.67C45 45.2687 45.255 44.9125 45.6362 44.7825L52.1988 42.55C52.3938 42.4837 52.6062 42.4837 52.8012 42.55L59.3637 44.7825C59.745 44.9125 60 45.2687 60 45.67V50.6925C60 56.8212 53.1575 59.8012 52.8675 59.9262C52.75 59.975 52.625 60 52.5 60ZM46.875 46.3412V50.6912C46.875 54.8575 51.195 57.3625 52.5 58.0225C53.805 57.3625 58.125 54.8575 58.125 50.6912V46.3412L52.5 44.4275L46.875 46.3412Z" fill="#5925DC"/>
<path d="M52.1872 54.375C51.9397 54.375 51.6997 54.2775 51.5247 54.1L49.0247 51.6C48.6584 51.2337 48.6584 50.64 49.0247 50.2737C49.3909 49.9075 49.9847 49.9075 50.3509 50.2737L52.0872 52.01L55.1872 47.875C55.4947 47.4612 56.0847 47.3762 56.4997 47.6887C56.9134 47.9987 56.9972 48.5862 56.6859 49.0012L52.9359 54.0012C52.7734 54.2187 52.5247 54.3537 52.2522 54.3737C52.2309 54.3737 52.2097 54.375 52.1872 54.375Z" fill="#5925DC"/>
<path d="M43.2375 56.25H33.4375C31.5413 56.25 30 54.7087 30 52.8125V33.4375C30 31.5412 31.5413 30 33.4375 30H47.8125C49.7088 30 51.25 31.5412 51.25 33.4375V40.225C51.25 40.7425 50.83 41.1625 50.3125 41.1625C49.795 41.1625 49.375 40.7425 49.375 40.225V33.4375C49.375 32.5763 48.6738 31.875 47.8125 31.875H33.4375C32.5763 31.875 31.875 32.5763 31.875 33.4375V52.8125C31.875 53.6737 32.5763 54.375 33.4375 54.375H43.2375C43.755 54.375 44.175 54.795 44.175 55.3125C44.175 55.83 43.755 56.25 43.2375 56.25Z" fill="#5925DC"/>
<path d="M46.5625 41.875H34.6875C34.17 41.875 33.75 41.455 33.75 40.9375C33.75 40.42 34.17 40 34.6875 40H46.5625C47.08 40 47.5 40.42 47.5 40.9375C47.5 41.455 47.08 41.875 46.5625 41.875Z" fill="#5925DC"/>
<path d="M41.5625 46.875H34.6875C34.17 46.875 33.75 46.455 33.75 45.9375C33.75 45.42 34.17 45 34.6875 45H41.5625C42.08 45 42.5 45.42 42.5 45.9375C42.5 46.455 42.08 46.875 41.5625 46.875Z" fill="#5925DC"/>
<path d="M40.3125 36.875H34.6875C34.17 36.875 33.75 36.455 33.75 35.9375C33.75 35.42 34.17 35 34.6875 35H40.3125C40.83 35 41.25 35.42 41.25 35.9375C41.25 36.455 40.83 36.875 40.3125 36.875Z" fill="#5925DC"/>
</g>
<defs>
<clipPath id="clip0_8576_31408">
<rect width="30" height="30" fill="white" transform="translate(30 30)"/>
</clipPath>
</defs>
</svg>
