<svg viewBox="0 0 24 25" fill="none" xmlns="http://www.w3.org/2000/svg">
<g clip-path="url(#clip0_369_34750)">
<path d="M17.25 23.5889C17.1625 23.5889 17.075 23.5714 16.9927 23.5364C16.7897 23.4498 12 21.3638 12 17.0736V13.5579C12 13.277 12.1785 13.0276 12.4454 12.9366L17.0391 11.3739C17.1756 11.3275 17.3244 11.3275 17.4609 11.3739L22.0546 12.9366C22.3215 13.0276 22.5 13.277 22.5 13.5579V17.0736C22.5 21.3638 17.7103 23.4498 17.5073 23.5373C17.425 23.5714 17.3375 23.5889 17.25 23.5889ZM13.3125 14.0278V17.0728C13.3125 19.9891 16.3365 21.7426 17.25 22.2046C18.1635 21.7426 21.1875 19.9891 21.1875 17.0728V14.0278L17.25 12.6881L13.3125 14.0278Z" fill="currentColor" stroke="currentColor" stroke-width="0.1"/>
<path d="M17.031 19.6512C16.8578 19.6512 16.6898 19.5829 16.5673 19.4587L14.8173 17.7087C14.5609 17.4523 14.5609 17.0367 14.8173 16.7803C15.0737 16.5239 15.4893 16.5239 15.7457 16.7803L16.961 17.9957L19.131 15.1012C19.3463 14.8116 19.7593 14.7521 20.0498 14.9708C20.3394 15.1878 20.398 15.5991 20.1802 15.8896L17.5552 19.3896C17.4414 19.5418 17.2673 19.6363 17.0765 19.6503C17.0617 19.6503 17.0468 19.6512 17.031 19.6512Z" fill="currentColor" stroke="currentColor" stroke-width="0.1"/>
<path d="M10.7663 20.9636H3.90625C2.57888 20.9636 1.5 19.8847 1.5 18.5574V4.99487C1.5 3.6675 2.57888 2.58862 3.90625 2.58862H13.9688C15.2961 2.58862 16.375 3.6675 16.375 4.99487V9.74612C16.375 10.1084 16.081 10.4024 15.7188 10.4024C15.3565 10.4024 15.0625 10.1084 15.0625 9.74612V4.99487C15.0625 4.392 14.5716 3.90112 13.9688 3.90112H3.90625C3.30338 3.90112 2.8125 4.392 2.8125 4.99487V18.5574C2.8125 19.1602 3.30338 19.6511 3.90625 19.6511H10.7663C11.1285 19.6511 11.4225 19.9451 11.4225 20.3074C11.4225 20.6696 11.1285 20.9636 10.7663 20.9636Z" fill="currentColor" stroke="currentColor" stroke-width="0.1"/>
<path d="M13.0938 10.901H4.78125C4.419 10.901 4.125 10.607 4.125 10.2448C4.125 9.8825 4.419 9.5885 4.78125 9.5885H13.0938C13.456 9.5885 13.75 9.8825 13.75 10.2448C13.75 10.607 13.456 10.901 13.0938 10.901Z" fill="currentColor" stroke="currentColor" stroke-width="0.1"/>
<path d="M9.59375 14.4011H4.78125C4.419 14.4011 4.125 14.1071 4.125 13.7449C4.125 13.3826 4.419 13.0886 4.78125 13.0886H9.59375C9.956 13.0886 10.25 13.3826 10.25 13.7449C10.25 14.1071 9.956 14.4011 9.59375 14.4011Z" fill="currentColor" stroke="currentColor" stroke-width="0.1"/>
<path d="M8.71875 7.40125H4.78125C4.419 7.40125 4.125 7.10725 4.125 6.745C4.125 6.38275 4.419 6.08875 4.78125 6.08875H8.71875C9.081 6.08875 9.375 6.38275 9.375 6.745C9.375 7.10725 9.081 7.40125 8.71875 7.40125Z" fill="currentColor" stroke="currentColor" stroke-width="0.1"/>
</g>
<defs>
<clipPath id="clip0_369_34750">
<rect width="24" height="24" fill="white" transform="translate(0 0.338623)"/>
</clipPath>
</defs>
</svg>

