<svg xmlns="http://www.w3.org/2000/svg" width="16" height="16" fill="currentColor"><path d="M12 16.001a.5.5 0 0 1-.196-.04C11.649 15.895 8 14.306 8 11.037V8.358a.5.5 0 0 1 .34-.473l3.5-1.19a.5.5 0 0 1 .32 0l3.5 1.19a.5.5 0 0 1 .34.473v2.68c0 3.268-3.65 4.857-3.804 4.924a.512.512 0 0 1-.196.04ZM9 8.716v2.32c0 2.223 2.304 3.559 3 3.91.696-.351 3-1.688 3-3.91v-2.32l-3-1.02-3 1.02Z"/><path d="M11.833 12.999a.496.496 0 0 1-.353-.147l-1.334-1.333a.5.5 0 0 1 .708-.708l.926.926 1.653-2.205a.499.499 0 1 1 .8.6l-2 2.667a.5.5 0 0 1-.365.199h-.035ZM7.06 14H1.833A1.835 1.835 0 0 1 0 12.167V1.833C0 .822.822 0 1.833 0H9.5c1.011 0 1.833.822 1.833 1.833v3.62a.5.5 0 0 1-1 0v-3.62A.834.834 0 0 0 9.5 1H1.833A.834.834 0 0 0 1 1.833v10.334c0 .459.374.833.833.833H7.06a.5.5 0 0 1 0 1Z"/><path d="M8.833 6.332H2.5a.5.5 0 0 1 0-1h6.333a.5.5 0 0 1 0 1ZM6.167 9H2.5a.5.5 0 0 1 0-1h3.667a.5.5 0 0 1 0 1ZM5.5 3.668h-3a.5.5 0 0 1 0-1h3a.5.5 0 0 1 0 1Z"/></svg>