<svg viewBox="0 0 89 89" fill="none" xmlns="http://www.w3.org/2000/svg">
<path d="M0 28C0 12.536 12.536 0 28 0H61C76.464 0 89 12.536 89 28V61C89 76.464 76.464 89 61 89H28C12.536 89 0 76.464 0 61V28Z" fill="#EFF8FF"/>
<path d="M39.2031 39.375H36.8594C36.2121 39.375 35.6875 38.8504 35.6875 38.2031C35.6875 37.5559 36.2121 37.0312 36.8594 37.0312H39.2031C39.8504 37.0312 40.375 37.5559 40.375 38.2031C40.375 38.8504 39.8504 39.375 39.2031 39.375Z" fill="#175CD3"/>
<path d="M41.5469 44.0625H36.8594C36.2121 44.0625 35.6875 43.5379 35.6875 42.8906C35.6875 42.2434 36.2121 41.7188 36.8594 41.7188H41.5469C42.1941 41.7188 42.7188 42.2434 42.7188 42.8906C42.7188 43.5379 42.1941 44.0625 41.5469 44.0625Z" fill="#175CD3"/>
<path d="M58.7818 57.9995L55.4792 54.6969C56.2987 53.5471 56.7812 52.1413 56.7812 50.625C56.7812 46.748 53.627 43.5938 49.75 43.5938C45.873 43.5938 42.7188 46.748 42.7188 50.625C42.7188 54.502 45.873 57.6562 49.75 57.6562C51.2663 57.6562 52.6721 57.1737 53.8219 56.3542L57.1244 59.6568C57.5821 60.1144 58.3241 60.1144 58.7817 59.6568C59.2394 59.1991 59.2394 58.4571 58.7818 57.9995ZM45.0625 50.625C45.0625 48.0403 47.1653 45.9375 49.75 45.9375C52.3347 45.9375 54.4375 48.0403 54.4375 50.625C54.4375 53.2097 52.3347 55.3125 49.75 55.3125C47.1653 55.3125 45.0625 53.2097 45.0625 50.625Z" fill="#175CD3"/>
<path d="M41.5469 57.6562H34.5156C33.8695 57.6562 33.3438 57.1305 33.3438 56.4844V33.5156C33.3438 32.8695 33.8695 32.3438 34.5156 32.3438H42.7188V35.8594C42.7188 37.7979 44.2959 39.375 46.2344 39.375H49.75V40.5469C49.75 41.1941 50.2746 41.7188 50.9219 41.7188C51.5691 41.7188 52.0938 41.1941 52.0938 40.5469V38.2031C52.0938 37.9029 51.9735 37.5974 51.7506 37.3745L44.7193 30.3432C44.494 30.1179 44.1913 30 43.8906 30H34.5156C32.5771 30 31 31.5771 31 33.5156V56.4844C31 58.4229 32.5771 60 34.5156 60H41.5469C42.1941 60 42.7188 59.4754 42.7188 58.8281C42.7188 58.1809 42.1941 57.6562 41.5469 57.6562ZM46.2344 37.0312C45.5882 37.0312 45.0625 36.5055 45.0625 35.8594V34.001L48.0927 37.0312H46.2344Z" fill="#175CD3"/>
</svg>
