<svg viewBox="0 0 89 89" fill="none" xmlns="http://www.w3.org/2000/svg">
<path d="M0 28C0 12.536 12.536 0 28 0H61C76.464 0 89 12.536 89 28V61C89 76.464 76.464 89 61 89H28C12.536 89 0 76.464 0 61V28Z" fill="#EFF8FF"/>
<path d="M32.0004 35.2987H32V52.7996H32.0004C32.0552 56.2286 37.7405 59 44.7457 59C51.751 59 57.4363 56.2286 57.4911 52.7996H57.4915V35.2987H57.4911C57.4363 38.7277 51.751 41.499 44.7457 41.499C37.7405 41.499 32.0552 38.7277 32.0004 35.2987Z" fill="url(#paint0_linear_8615_32306)"/>
<path fill-rule="evenodd" clip-rule="evenodd" d="M44.7457 41.5007C51.785 41.5007 57.4915 38.7023 57.4915 35.2503C57.4915 31.7984 51.785 29 44.7457 29C37.7065 29 32 31.7984 32 35.2503C32 38.7023 37.7065 41.5007 44.7457 41.5007ZM44.7967 38.4505C48.3164 38.4505 51.1696 37.0513 51.1696 35.3253C51.1696 33.5994 48.3164 32.2002 44.7967 32.2002C41.2771 32.2002 38.4239 33.5994 38.4239 35.3253C38.4239 37.0513 41.2771 38.4505 44.7967 38.4505Z" fill="#8D6AF1"/>
<ellipse cx="44.7352" cy="35.3184" rx="6.62778" ry="3.33351" fill="white"/>
<path d="M40.6791 49.5925V55.2928L36.3965 52.8927V42.2921L44.7067 47.2424L53.2209 42.2921V53.0927L48.9383 55.2928V49.5925L44.7067 51.9426L40.6791 49.5925Z" fill="white"/>
<defs>
<linearGradient id="paint0_linear_8615_32306" x1="44.7457" y1="37.9989" x2="44.7457" y2="59" gradientUnits="userSpaceOnUse">
<stop stop-color="#35198E"/>
<stop offset="1" stop-color="#8D6AF1"/>
</linearGradient>
</defs>
</svg>
