<svg viewBox="0 0 89 89" fill="none" xmlns="http://www.w3.org/2000/svg">
<path d="M0 28C0 12.536 12.536 0 28 0H61C76.464 0 89 12.536 89 28V61C89 76.464 76.464 89 61 89H28C12.536 89 0 76.464 0 61V28Z" fill="#EFF8FF"/>
<path fill-rule="evenodd" clip-rule="evenodd" d="M30 38.2611L45.0003 30L47.527 31.3914L35.5609 38.0299L44.9997 43.228L56.9657 36.5902L60 38.2611L45.0003 46.5221L30 38.2611Z" fill="#00D2FF"/>
<path fill-rule="evenodd" clip-rule="evenodd" d="M30 51.4382L34.3502 49.0847L36.8768 50.4768L35.5609 51.2071L44.9997 56.4052L56.9657 49.7673L60 51.4382L45.0003 59.6993L30 51.4382Z" fill="#016AFB"/>
<path fill-rule="evenodd" clip-rule="evenodd" d="M30 44.8498L34.3502 42.4969L36.8768 43.8883L35.5609 44.6186L44.9997 49.8167L56.9657 43.1789L60 44.8498L45.0003 53.1108L30 44.8498Z" fill="#03A0FF"/>
</svg>
