<svg viewBox="0 0 89 89" fill="none" xmlns="http://www.w3.org/2000/svg">
<path d="M0 28C0 12.536 12.536 0 28 0H61C76.464 0 89 12.536 89 28V61C89 76.464 76.464 89 61 89H28C12.536 89 0 76.464 0 61V28Z" fill="#EFF8FF"/>
<path d="M57.6316 60.0001H32.3684C31.0624 60.0001 30 58.9377 30 57.6316V36.0522C30 35.6161 30.3536 35.2627 30.7895 35.2627C31.2253 35.2627 31.5789 35.6161 31.5789 36.0522V57.6316C31.5789 58.067 31.9331 58.4211 32.3684 58.4211H57.6316C58.0669 58.4211 58.4211 58.067 58.4211 57.6316V39.2101C58.4211 38.774 58.7747 38.4206 59.2105 38.4206C59.6464 38.4206 60 38.774 60 39.2101V57.6316C60 58.9377 58.9376 60.0001 57.6316 60.0001Z" fill="#175CD3"/>
<path d="M37.895 47.8947C35.283 47.8947 33.1582 45.7697 33.1582 43.1579C33.1582 40.5461 35.283 38.421 37.895 38.421C40.5071 38.421 42.6319 40.5461 42.6319 43.1579C42.6319 45.7697 40.5071 47.8947 37.895 47.8947ZM37.895 40C36.1537 40 34.7372 41.4165 34.7372 43.1579C34.7372 44.8992 36.1537 46.3158 37.895 46.3158C39.6364 46.3158 41.0529 44.8992 41.0529 43.1579C41.0529 41.4165 39.6364 40 37.895 40Z" fill="#175CD3"/>
<path d="M40.6864 46.7388C40.4844 46.7388 40.2824 46.6617 40.1282 46.5075L37.3368 43.716C37.1887 43.568 37.1055 43.3673 37.1055 43.1579V39.2105C37.1055 38.7744 37.4591 38.421 37.8949 38.421C38.3308 38.421 38.6844 38.7744 38.6844 39.2105V42.831L41.2446 45.3911C41.5529 45.6992 41.5529 46.1993 41.2446 46.5075C41.0904 46.6617 40.8884 46.7388 40.6864 46.7388Z" fill="#175CD3"/>
<path d="M56.053 46.8421H45.0004C44.5646 46.8421 44.2109 46.4887 44.2109 46.0526V40.2631C44.2109 39.827 44.5646 39.4736 45.0004 39.4736H56.053C56.4889 39.4736 56.8425 39.827 56.8425 40.2631V46.0526C56.8425 46.4887 56.4889 46.8421 56.053 46.8421ZM45.7899 45.2631H55.2636V41.0526H45.7899V45.2631Z" fill="#175CD3"/>
<path d="M49.2108 56.8421H33.9477C33.5118 56.8421 33.1582 56.4888 33.1582 56.0527V49.7366C33.1582 49.3005 33.5118 48.9471 33.9477 48.9471C34.3835 48.9471 34.7372 49.3005 34.7372 49.7366V55.2632H49.2108C49.6467 55.2632 50.0003 55.6166 50.0003 56.0527C50.0003 56.4888 49.6467 56.8421 49.2108 56.8421Z" fill="#175CD3"/>
<path d="M36.7211 56.8421C36.2853 56.8421 35.9316 56.4888 35.9316 56.0526V53.4211C35.9316 52.985 36.2853 52.6316 36.7211 52.6316C37.157 52.6316 37.5106 52.985 37.5106 53.4211V56.0526C37.5106 56.4888 37.157 56.8421 36.7211 56.8421Z" fill="#175CD3"/>
<path d="M39.4965 56.8422C39.0607 56.8422 38.707 56.4885 38.707 56.0527L38.7075 51.3158C38.7075 50.8797 39.0612 50.5264 39.497 50.5264C39.9329 50.5264 40.2865 50.88 40.2865 51.3158L40.286 56.0527C40.286 56.4888 39.9324 56.8422 39.4965 56.8422Z" fill="#175CD3"/>
<path d="M42.2738 56.8421C41.838 56.8421 41.4844 56.4888 41.4844 56.0527V49.7369C41.4844 49.3008 41.838 48.9474 42.2738 48.9474C42.7097 48.9474 43.0633 49.3008 43.0633 49.7369V56.0527C43.0633 56.4888 42.7097 56.8421 42.2738 56.8421Z" fill="#175CD3"/>
<path d="M45.0473 56.8421C44.6114 56.8421 44.2578 56.4887 44.2578 56.0526V51.8421C44.2578 51.406 44.6114 51.0526 45.0473 51.0526C45.4831 51.0526 45.8368 51.406 45.8368 51.8421V56.0526C45.8368 56.4887 45.4831 56.8421 45.0473 56.8421Z" fill="#175CD3"/>
<path d="M47.8227 56.8421C47.3868 56.8421 47.0332 56.4885 47.0332 56.0527L47.0337 49.7369C47.0337 49.3008 47.3873 48.9474 47.8232 48.9474C48.259 48.9474 48.6127 49.301 48.6127 49.7369L48.6122 56.0527C48.6122 56.4888 48.2585 56.8421 47.8227 56.8421Z" fill="#175CD3"/>
<path d="M56.0518 51.0526H52.3676C51.9317 51.0526 51.5781 50.6992 51.5781 50.2631C51.5781 49.827 51.9317 49.4736 52.3676 49.4736H56.0518C56.4877 49.4736 56.8413 49.827 56.8413 50.2631C56.8413 50.6992 56.4877 51.0526 56.0518 51.0526Z" fill="#175CD3"/>
<path d="M56.0518 53.9474H52.3676C51.9317 53.9474 51.5781 53.594 51.5781 53.1579C51.5781 52.7218 51.9317 52.3684 52.3676 52.3684H56.0518C56.4877 52.3684 56.8413 52.7218 56.8413 53.1579C56.8413 53.594 56.4877 53.9474 56.0518 53.9474Z" fill="#175CD3"/>
<path d="M56.0518 56.8421H52.3676C51.9317 56.8421 51.5781 56.4888 51.5781 56.0527C51.5781 55.6165 51.9317 55.2632 52.3676 55.2632H56.0518C56.4877 55.2632 56.8413 55.6165 56.8413 56.0527C56.8413 56.4888 56.4877 56.8421 56.0518 56.8421Z" fill="#175CD3"/>
<path d="M59.2105 36.8416H30.7895C30.3536 36.8416 30 36.4882 30 36.0521V32.3684C30 31.0624 31.0624 30 32.3684 30H57.6316C58.9376 30 60 31.0624 60 32.3684V36.0521C60 36.4882 59.6464 36.8416 59.2105 36.8416ZM31.5789 35.2626H58.4211V32.3684C58.4211 31.9331 58.0669 31.5789 57.6316 31.5789H32.3684C31.9331 31.5789 31.5789 31.9331 31.5789 32.3684V35.2626Z" fill="#175CD3"/>
<path d="M35.0003 34.2102H33.9477C33.5118 34.2102 33.1582 33.8568 33.1582 33.4207C33.1582 32.9846 33.5118 32.6312 33.9477 32.6312H35.0003C35.4362 32.6312 35.7898 32.9846 35.7898 33.4207C35.7898 33.8568 35.4362 34.2102 35.0003 34.2102Z" fill="#175CD3"/>
<path d="M39.2112 34.2102H38.1586C37.7228 34.2102 37.3691 33.8568 37.3691 33.4207C37.3691 32.9846 37.7228 32.6312 38.1586 32.6312H39.2112C39.6471 32.6312 40.0007 32.9846 40.0007 33.4207C40.0007 33.8568 39.6471 34.2102 39.2112 34.2102Z" fill="#175CD3"/>
<path d="M43.4202 34.2102H42.3676C41.9317 34.2102 41.5781 33.8568 41.5781 33.4207C41.5781 32.9846 41.9317 32.6312 42.3676 32.6312H43.4202C43.8561 32.6312 44.2097 32.9846 44.2097 33.4207C44.2097 33.8568 43.8561 34.2102 43.4202 34.2102Z" fill="#175CD3"/>
</svg>
