<svg width="50" height="51" viewBox="0 0 50 51" fill="none" xmlns="http://www.w3.org/2000/svg">
<path d="M40.6898 3.55469H19.1594L11.6367 11.0774V44.2668C11.6367 45.9562 13.0079 47.3274 14.6973 47.3274H40.6973C42.3867 47.3274 43.7579 45.9562 43.7579 44.2668V6.61529C43.7504 4.9259 42.3791 3.55469 40.6898 3.55469Z" fill="url(#paint0_linear_4267_40961)"/>
<path opacity="0.1" d="M11.6367 25.6992V44.275C11.6367 45.9644 13.0079 47.3356 14.6973 47.3356H17.5458C20.9625 45.3053 23.2731 41.5856 23.2731 37.328C23.2655 30.9189 18.0458 25.6992 11.6367 25.6992Z" fill="black"/>
<path d="M16.0988 11.0774C17.7882 11.0774 19.1594 9.7062 19.1594 8.01681V3.55469L11.6367 11.0774H16.0988Z" fill="#FF8D61"/>
<path d="M30.993 26.3045C36.3109 26.3045 40.6218 21.9935 40.6218 16.6757C40.6218 11.3578 36.3109 7.04688 30.993 7.04688C25.6752 7.04688 21.3643 11.3578 21.3643 16.6757C21.3643 21.9935 25.6752 26.3045 30.993 26.3045Z" fill="url(#paint1_linear_4267_40961)"/>
<path d="M38.3945 26.7143L45.296 33.6158C46.0233 34.343 47.2127 34.343 47.94 33.6158C48.6673 32.8885 48.6673 31.6991 47.94 30.9718L41.0385 24.0703L38.3945 26.7143Z" fill="url(#paint2_linear_4267_40961)"/>
<path d="M37.8033 23.4781C36.826 24.4554 35.6897 25.1751 34.4775 25.6448L35.2654 26.4326C36.2048 27.372 37.7351 27.372 38.6745 26.4326L40.7578 24.3493C41.6972 23.4099 41.6972 21.8796 40.7578 20.9402L39.97 20.1523C39.5003 21.3645 38.7806 22.5008 37.8033 23.4781Z" fill="#8E76FF"/>
<path d="M25.6973 16.6602H28.0533V20.8192H25.6973V16.6602Z" fill="url(#paint3_linear_4267_40961)"/>
<path d="M29.8184 14.2969H32.1744V20.812H29.8184V14.2969Z" fill="url(#paint4_linear_4267_40961)"/>
<path d="M33.9395 12.5312H36.2955V20.8191H33.9395V12.5312Z" fill="url(#paint5_linear_4267_40961)"/>
<path d="M25.25 31.9805H29.8182V36.5487H25.25V31.9805Z" fill="#FF8D61"/>
<path d="M25.25 39.5781H29.8182V44.1463H25.25V39.5781Z" fill="#FF8D61"/>
<path d="M11.6368 27.2148C6.04593 27.2148 1.51562 31.7451 1.51562 37.3285C1.51562 40.1239 2.64441 42.6542 4.47775 44.48L11.6293 37.3285V27.2148H11.6368Z" fill="#653DC5"/>
<path d="M11.6367 27.2148V37.3361H21.7579C21.7504 31.7451 17.2201 27.2148 11.6367 27.2148Z" fill="url(#paint6_linear_4267_40961)"/>
<path d="M4.47754 44.4872C6.31087 46.3206 8.84118 47.4493 11.6291 47.4493C17.22 47.4493 21.7503 42.919 21.7503 37.3281H11.6366L4.47754 44.4872Z" fill="url(#paint7_linear_4267_40961)"/>
<path d="M32.9324 33.57H40.6218C40.9324 33.57 41.19 33.3124 41.19 33.0018C41.19 32.6912 40.9324 32.4336 40.6218 32.4336H32.9324C32.6218 32.4336 32.3643 32.6912 32.3643 33.0018C32.3643 33.3124 32.6218 33.57 32.9324 33.57Z" fill="#8E76FF"/>
<path d="M32.9324 36.0856H37.5915C37.9021 36.0856 38.1597 35.828 38.1597 35.5174C38.1597 35.2068 37.9021 34.9492 37.5915 34.9492H32.9324C32.6218 34.9492 32.3643 35.2068 32.3643 35.5174C32.3643 35.828 32.6218 36.0856 32.9324 36.0856Z" fill="#8E76FF"/>
<path d="M40.6218 40.0312H32.9324C32.6218 40.0312 32.3643 40.2888 32.3643 40.5994C32.3643 40.91 32.6218 41.1676 32.9324 41.1676H40.6218C40.9324 41.1676 41.19 40.91 41.19 40.5994C41.19 40.2888 40.94 40.0312 40.6218 40.0312Z" fill="#8E76FF"/>
<path d="M37.5915 42.5469H32.9324C32.6218 42.5469 32.3643 42.8045 32.3643 43.1151C32.3643 43.4257 32.6218 43.6832 32.9324 43.6832H37.5915C37.9021 43.6832 38.1597 43.4257 38.1597 43.1151C38.1597 42.8045 37.9021 42.5469 37.5915 42.5469Z" fill="#8E76FF"/>
<defs>
<linearGradient id="paint0_linear_4267_40961" x1="27.6928" y1="-3.38849" x2="27.6928" y2="36.8456" gradientUnits="userSpaceOnUse">
<stop stop-color="#FEFDFF"/>
<stop offset="1" stop-color="#DEDFFF"/>
</linearGradient>
<linearGradient id="paint1_linear_4267_40961" x1="30.9961" y1="7.0143" x2="30.9961" y2="26.0961" gradientUnits="userSpaceOnUse">
<stop stop-color="#8E76FF"/>
<stop offset="1" stop-color="#653DC5"/>
</linearGradient>
<linearGradient id="paint2_linear_4267_40961" x1="47.7885" y1="33.4658" x2="39.8423" y2="25.5196" gradientUnits="userSpaceOnUse">
<stop stop-color="#FF8D61"/>
<stop offset="1" stop-color="#FFCD0A"/>
</linearGradient>
<linearGradient id="paint3_linear_4267_40961" x1="26.8723" y1="12.6836" x2="26.8723" y2="20.4799" gradientUnits="userSpaceOnUse">
<stop stop-color="#FEFDFF"/>
<stop offset="1" stop-color="#DEDFFF"/>
</linearGradient>
<linearGradient id="paint4_linear_4267_40961" x1="30.9956" y1="12.684" x2="30.9956" y2="20.4802" gradientUnits="userSpaceOnUse">
<stop stop-color="#FEFDFF"/>
<stop offset="1" stop-color="#DEDFFF"/>
</linearGradient>
<linearGradient id="paint5_linear_4267_40961" x1="35.1198" y1="12.6835" x2="35.1198" y2="20.4797" gradientUnits="userSpaceOnUse">
<stop stop-color="#FEFDFF"/>
<stop offset="1" stop-color="#DEDFFF"/>
</linearGradient>
<linearGradient id="paint6_linear_4267_40961" x1="16.6928" y1="37.427" x2="16.6928" y2="27.9944" gradientUnits="userSpaceOnUse">
<stop stop-color="#FF8D61"/>
<stop offset="1" stop-color="#FFCD0A"/>
</linearGradient>
<linearGradient id="paint7_linear_4267_40961" x1="4.47905" y1="42.3895" x2="21.751" y2="42.3895" gradientUnits="userSpaceOnUse">
<stop stop-color="#FF8D61"/>
<stop offset="1" stop-color="#FFCD0A"/>
</linearGradient>
</defs>
</svg>
