<svg xmlns="http://www.w3.org/2000/svg" viewBox="0 0 361 361" fill="none"><path fill="#FFC34E" fill-rule="evenodd" d="M.134 180.133c0-99.41 80.589-180 180-180 99.412 0 180 80.59 180 180 0 99.413-80.588 180-180 180-99.411 0-180-80.587-180-180Zm180-152.307c-84.117 0-152.308 68.19-152.308 152.307 0 84.118 68.19 152.308 152.308 152.308s152.307-68.19 152.307-152.308c0-84.117-68.189-152.307-152.307-152.307Zm0 193.846c22.941 0 41.539-18.598 41.539-41.539 0-22.941-18.598-41.538-41.539-41.538-22.941 0-41.538 18.597-41.538 41.538 0 22.941 18.597 41.539 41.538 41.539Z" clip-rule="evenodd"/></svg>