<svg viewBox="0 0 89 89" fill="none" xmlns="http://www.w3.org/2000/svg">
<path d="M0 28C0 12.536 12.536 0 28 0H61C76.464 0 89 12.536 89 28V61C89 76.464 76.464 89 61 89H28C12.536 89 0 76.464 0 61V28Z" fill="#F9F5FF"/>
<g clip-path="url(#clip0_3093_13612)">
<path d="M51.7936 42.9867V37.3093C51.7936 37.1468 51.7186 36.9967 51.6124 36.8779L45.2472 30.1939C45.1284 30.0689 44.9595 30 44.7908 30H34.6989C32.8358 30 31.3477 31.5193 31.3477 33.3826V52.4656C31.3477 54.329 32.8358 55.8233 34.6989 55.8233H42.6649C44.1717 58.3243 46.9105 60 50.0303 60C54.7698 60 58.6402 56.1483 58.6402 51.4027C58.6466 47.2572 55.6702 43.7933 51.7936 42.9867ZM45.4161 32.1947L49.6866 36.6902H46.9166C46.0913 36.6902 45.4161 36.0088 45.4161 35.1835V32.1947ZM34.6989 54.5727C33.5298 54.5727 32.5983 53.6348 32.5983 52.4656V33.3826C32.5983 32.2071 33.5298 31.2506 34.6989 31.2506H44.1655V35.1835C44.1655 36.7028 45.3973 37.9408 46.9166 37.9408H50.543V42.824C50.3556 42.8178 50.2054 42.7991 50.0429 42.7991C47.8608 42.7991 45.8537 43.637 44.3406 44.9501H36.3998C36.0557 44.9501 35.7745 45.2314 35.7745 45.5752C35.7745 45.9192 36.0557 46.2005 36.3998 46.2005H43.1776C42.7336 46.8258 42.3646 47.4511 42.0772 48.1389H36.3998C36.0557 48.1389 35.7745 48.4202 35.7745 48.7642C35.7745 49.1079 36.0557 49.3895 36.3998 49.3895H41.6707C41.5143 50.0148 41.4331 50.7087 41.4331 51.4027C41.4331 52.5281 41.6519 53.6412 42.0458 54.5791H34.6989V54.5727ZM50.0367 58.7558C45.9851 58.7558 42.6899 55.4606 42.6899 51.4089C42.6899 47.3572 45.9787 44.062 50.0367 44.062C54.0946 44.062 57.3834 47.3572 57.3834 51.4089C57.3834 55.4606 54.0884 58.7558 50.0367 58.7558Z" fill="#6941C6"/>
<path d="M36.3997 43.067H42.7336C43.0776 43.067 43.3589 42.7855 43.3589 42.4417C43.3589 42.0977 43.0776 41.8164 42.7336 41.8164H36.3997C36.0557 41.8164 35.7744 42.0977 35.7744 42.4417C35.7744 42.7855 36.0557 43.067 36.3997 43.067Z" fill="#6941C6"/>
<path d="M53.0712 48.6131C52.8967 48.4655 52.6383 48.489 52.4906 48.6601C52.3429 48.8347 52.3664 49.0931 52.5376 49.2407L54.6116 50.996L52.5376 52.7579C52.3631 52.9056 52.3429 53.164 52.4906 53.3385C52.5711 53.4358 52.6886 53.4828 52.8027 53.4828C52.8967 53.4828 52.9907 53.4493 53.0678 53.3855L55.5144 51.3114C55.605 51.2342 55.6587 51.1201 55.6587 50.996C55.6587 50.8751 55.605 50.761 55.5144 50.6839L53.0712 48.6131Z" fill="#6941C6"/>
<path d="M46.0505 50.9971L48.1212 49.2418C48.2957 49.0942 48.3158 48.8358 48.1681 48.6612C48.0205 48.4867 47.7621 48.4666 47.5875 48.6143L45.1443 50.6816C45.0537 50.7588 45 50.8729 45 50.9937C45 51.1145 45.0537 51.2286 45.1443 51.3058L47.5875 53.3799C47.6647 53.447 47.7587 53.4772 47.8527 53.4772C47.9701 53.4772 48.0842 53.4269 48.1648 53.3329C48.3125 53.1584 48.2923 52.9 48.1178 52.7523L46.0505 50.9971Z" fill="#6941C6"/>
<path d="M51.5107 48.0295C51.2993 47.9456 51.061 48.0463 50.9771 48.2577L48.9064 53.4362C48.8225 53.6476 48.9231 53.8859 49.1346 53.9698C49.1849 53.9899 49.2353 54 49.2856 54C49.4501 54 49.6044 53.9027 49.6682 53.7416L51.7389 48.5632C51.8262 48.3517 51.7221 48.1134 51.5107 48.0295Z" fill="#6941C6"/>
</g>
<defs>
<clipPath id="clip0_3093_13612">
<rect width="30" height="30" fill="white" transform="translate(30 30)"/>
</clipPath>
</defs>
</svg>
