<svg width="54" height="54" viewBox="0 0 128 128" fill="none" xmlns="http://www.w3.org/2000/svg">
<path d="M0 30.1687C0 20.8101 7.5867 13.2234 16.9454 13.2234H111.055C120.413 13.2234 128 20.8101 128 30.1687V98.2039C128 107.563 120.413 115.149 111.055 115.149H16.9454C7.58668 115.149 0 107.563 0 98.2039V30.1687Z" fill="#CDD7FA"/>
<path d="M1.59756e-05 29.3267C1.59756e-05 20.5919 7.08094 13.511 15.8157 13.511H107.444C116.178 13.511 123.259 20.5919 123.259 29.3267V94.8805C123.259 103.615 116.178 110.696 107.444 110.696H15.8157C7.08095 110.696 1.59756e-05 103.615 1.59756e-05 94.8805V29.3267Z" fill="#E8F3FC"/>
<path d="M1.59756e-05 28.6653C1.59756e-05 19.9305 7.08094 12.8496 15.8157 12.8496H112.184C120.919 12.8496 128 19.9305 128 28.6653V43.6644H1.59756e-05V28.6653Z" fill="#253A81"/>
<path d="M1.59756e-05 28.6653C1.59756e-05 19.9305 7.08094 12.8496 15.8157 12.8496H107.444C116.178 12.8496 123.259 19.9305 123.259 28.6653V43.6644H1.59756e-05V28.6653Z" fill="#354E96"/>
<path d="M22.5984 28.8146C22.5984 32.0874 19.9452 34.7405 16.6724 34.7405C13.3996 34.7405 10.7465 32.0874 10.7465 28.8146C10.7465 25.5418 13.3996 22.8887 16.6724 22.8887C19.9452 22.8887 22.5984 25.5418 22.5984 28.8146Z" fill="#D92D20"/>
<path d="M21.4132 28.222C21.4132 31.1675 19.0254 33.5553 16.0798 33.5553C13.1343 33.5553 10.7465 31.1675 10.7465 28.222C10.7465 25.2765 13.1343 22.8887 16.0798 22.8887C19.0254 22.8887 21.4132 25.2765 21.4132 28.222Z" fill="#F04438"/>
<path d="M38.0061 28.8146C38.0061 32.0874 35.3529 34.7405 32.0801 34.7405C28.8073 34.7405 26.1542 32.0874 26.1542 28.8146C26.1542 25.5418 28.8073 22.8887 32.0801 22.8887C35.3529 22.8887 38.0061 25.5418 38.0061 28.8146Z" fill="#EAAA08"/>
<path d="M36.8209 28.222C36.8209 31.1675 34.4331 33.5553 31.4876 33.5553C28.542 33.5553 26.1542 31.1675 26.1542 28.222C26.1542 25.2765 28.542 22.8887 31.4876 22.8887C34.4331 22.8887 36.8209 25.2765 36.8209 28.222Z" fill="#FAC515"/>
<path d="M53.4135 28.8146C53.4135 32.0874 50.7603 34.7405 47.4875 34.7405C44.2147 34.7405 41.5616 32.0874 41.5616 28.8146C41.5616 25.5418 44.2147 22.8887 47.4875 22.8887C50.7603 22.8887 53.4135 25.5418 53.4135 28.8146Z" fill="#099250"/>
<path d="M52.2283 28.222C52.2283 31.1675 49.8405 33.5553 46.8949 33.5553C43.9494 33.5553 41.5616 31.1675 41.5616 28.222C41.5616 25.2765 43.9494 22.8887 46.8949 22.8887C49.8405 22.8887 52.2283 25.2765 52.2283 28.222Z" fill="#16B364"/>
<path d="M22.1958 60.9445C23.4213 59.719 25.4077 59.719 26.6332 60.9445L42.3233 76.6347C43.5488 77.8601 43.5488 79.8466 42.3233 81.072L26.6332 96.7622C24.9375 98.2048 22.3225 97.6818 21.1499 95.7162C20.262 94.2278 19.9244 92.5043 21.1499 91.2788L35.6673 78.8533L22.1958 65.3819C20.9703 64.1564 20.9703 62.17 22.1958 60.9445Z" fill="#252B37"/>
<path d="M21.1495 59.8996C22.375 58.6741 24.3614 58.6741 25.5869 59.8996L41.277 75.5897C42.5025 76.8152 42.5025 78.8016 41.277 80.0271L25.5869 95.7173C24.3614 96.9428 22.375 96.9428 21.1495 95.7173C19.924 94.4918 19.924 92.5054 21.1495 91.2799L34.621 77.8084L21.1495 64.337C19.924 63.1115 19.924 61.1251 21.1495 59.8996Z" fill="#535862"/>
<path d="M87.0961 90.3594C88.8725 90.3594 90.3126 91.9985 90.3126 94.0204C90.3126 96.0423 89.2666 97.6814 87.0961 98.2045H50.6427C48.8663 98.2045 47.4262 96.0423 47.4262 94.0204C47.4262 91.9985 48.8663 90.3594 50.6427 90.3594H87.0961Z" fill="#252B37"/>
<path d="M86.1286 90.3594C87.8617 90.3594 89.2666 91.7643 89.2666 93.4974C89.2666 95.2305 87.8617 96.6354 86.1286 96.6354H50.5642C48.8311 96.6354 47.4262 95.2305 47.4262 93.4974C47.4262 91.7643 48.8311 90.3594 50.5642 90.3594H86.1286Z" fill="#535862"/>
</svg>
