<svg width="108" height="108" viewBox="0 0 108 108" fill="none" xmlns="http://www.w3.org/2000/svg">
<ellipse opacity="0.1" cx="54" cy="104.76" rx="54" ry="3.24" fill="#A4A7AE"/>
<path fill-rule="evenodd" clip-rule="evenodd" d="M44.2809 18.5055C44.2809 16.9341 45.5548 15.6602 47.1263 15.6602H52.9797C54.5511 15.6602 55.8251 16.9341 55.8251 18.5055C55.8251 20.077 54.5511 21.3509 52.9797 21.3509H47.1263C45.5548 21.3509 44.2809 20.077 44.2809 18.5055ZM47.1263 17.8202C46.7478 17.8202 46.4409 18.127 46.4409 18.5055C46.4409 18.884 46.7478 19.1909 47.1263 19.1909L52.9797 19.1909C53.3582 19.1909 53.6651 18.884 53.6651 18.5055C53.6651 18.127 53.3582 17.8202 52.9797 17.8202L47.1263 17.8202ZM21.6009 24.8402C16.8292 24.8402 12.9609 28.7084 12.9609 33.4802V75.6002C12.9609 80.3719 16.8292 84.2402 21.6009 84.2402H77.8108C82.5825 84.2402 86.4508 80.3719 86.4508 75.6002V74.4856C86.7912 74.5085 87.1347 74.5202 87.4809 74.5202C95.8315 74.5202 102.601 67.7507 102.601 59.4002C102.601 51.0496 95.8315 44.2802 87.4809 44.2802C87.1347 44.2802 86.7912 44.2918 86.4508 44.3147V33.4802C86.4508 28.7084 82.5825 24.8402 77.8108 24.8402H21.6009ZM84.2908 44.6173V40.2101H15.1209V75.6002C15.1209 79.179 18.0221 82.0802 21.6009 82.0802H77.8108C81.3896 82.0802 84.2908 79.179 84.2908 75.6002V74.183C77.4722 72.7186 72.3609 66.6563 72.3609 59.4002C72.3609 52.144 77.4722 46.0817 84.2908 44.6173ZM84.2908 33.4802V38.0501H15.1209V33.4802C15.1209 29.9014 18.0221 27.0002 21.6009 27.0002H77.8108C81.3896 27.0002 84.2908 29.9014 84.2908 33.4802ZM74.5209 59.4002C74.5209 52.2425 80.3233 46.4402 87.4809 46.4402C94.6385 46.4402 100.441 52.2425 100.441 59.4002C100.441 66.5578 94.6385 72.3602 87.4809 72.3602C80.3233 72.3602 74.5209 66.5578 74.5209 59.4002ZM84.7809 52.3802C84.7809 50.889 85.9898 49.6802 87.4809 49.6802C88.9721 49.6802 90.1809 50.889 90.1809 52.3802V58.8602C90.1809 60.3513 88.9721 61.5602 87.4809 61.5602C85.9898 61.5602 84.7809 60.3513 84.7809 58.8602V52.3802ZM87.4809 51.8402C87.1827 51.8402 86.9409 52.0819 86.9409 52.3802V58.8602C86.9409 59.1584 87.1827 59.4002 87.4809 59.4002C87.7792 59.4002 88.0209 59.1584 88.0209 58.8602V52.3802C88.0209 52.0819 87.7792 51.8402 87.4809 51.8402ZM87.4809 69.1202C85.9898 69.1202 84.7809 67.9113 84.7809 66.4202C84.7809 64.929 85.9898 63.7202 87.4809 63.7202C88.9721 63.7202 90.1809 64.929 90.1809 66.4202C90.1809 67.9113 88.9721 69.1202 87.4809 69.1202ZM86.9409 66.4202C86.9409 66.7184 87.1827 66.9602 87.4809 66.9602C87.7792 66.9602 88.0209 66.7184 88.0209 66.4202C88.0209 66.1219 87.7792 65.8802 87.4809 65.8802C87.1827 65.8802 86.9409 66.1219 86.9409 66.4202ZM23.2209 35.6402C24.7121 35.6402 25.9209 34.4313 25.9209 32.9402C25.9209 31.449 24.7121 30.2402 23.2209 30.2402C21.7298 30.2402 20.5209 31.449 20.5209 32.9402C20.5209 34.4313 21.7298 35.6402 23.2209 35.6402ZM33.4809 32.9402C33.4809 34.4313 32.2721 35.6402 30.7809 35.6402C29.2898 35.6402 28.0809 34.4313 28.0809 32.9402C28.0809 31.449 29.2898 30.2402 30.7809 30.2402C32.2721 30.2402 33.4809 31.449 33.4809 32.9402ZM20.5209 51.3002C20.5209 49.809 21.7298 48.6002 23.2209 48.6002H39.4209C40.9121 48.6002 42.1209 49.809 42.1209 51.3002C42.1209 52.7913 40.9121 54.0002 39.4209 54.0002H23.2209C21.7298 54.0002 20.5209 52.7913 20.5209 51.3002ZM20.5209 59.9402C20.5209 58.449 21.7298 57.2402 23.2209 57.2402H55.6209C57.1121 57.2402 58.3209 58.449 58.3209 59.9402C58.3209 61.4313 57.1121 62.6402 55.6209 62.6402H23.2209C21.7298 62.6402 20.5209 61.4313 20.5209 59.9402ZM20.5209 68.5802C20.5209 67.089 21.7298 65.8802 23.2209 65.8802H55.6209C57.1121 65.8802 58.3209 67.089 58.3209 68.5802C58.3209 70.0713 57.1121 71.2802 55.6209 71.2802H23.2209C21.7298 71.2802 20.5209 70.0713 20.5209 68.5802Z" fill="#A4A7AE"/>
</svg>
