<svg xmlns="http://www.w3.org/2000/svg" width="512" height="512" fill="#37352f"><path d="M256 0C114.509 0 0 114.496 0 256c0 141.489 114.496 256 256 256 141.491 0 256-114.496 256-256C512 114.509 397.504 0 256 0Zm0 476.279c-121.462 0-220.279-98.816-220.279-220.279S134.538 35.721 256 35.721c121.463 0 220.279 98.816 220.279 220.279S377.463 476.279 256 476.279Z"/><path d="M248.425 323.924c-14.153 0-25.61 11.794-25.61 25.946 0 13.817 11.12 25.948 25.61 25.948s25.946-12.131 25.946-25.948c0-14.152-11.794-25.946-25.946-25.946ZM252.805 127.469c-45.492 0-66.384 26.959-66.384 45.155 0 13.142 11.12 19.208 20.218 19.208 18.197 0 10.784-25.948 45.155-25.948 16.848 0 30.328 7.414 30.328 22.915 0 18.196-18.871 28.642-29.991 38.077-9.773 8.423-22.577 22.24-22.577 51.22 0 17.522 4.718 22.577 18.533 22.577 16.511 0 19.881-7.413 19.881-13.817 0-17.522.337-27.631 18.871-42.121 9.098-7.076 37.74-29.991 37.74-61.666 0-31.675-28.642-55.6-71.774-55.6Z"/></svg>