<svg xmlns="http://www.w3.org/2000/svg" width="14" height="15" fill="none"><g fill="#37352f" stroke="#37352f" clip-path="url(#a)"><path fill-rule="evenodd" stroke-width=".1" d="M5.038 2.879c-.203-.175-.152-.5.102-.584A6.007 6.007 0 0 1 13 8c0 3.308-2.692 6-6 6s-6-2.692-6-6c0-1.062.278-2.061.764-2.928a.338.338 0 0 1 .536-.064c.117.117.137.3.057.445A5.264 5.264 0 0 0 1.703 8 5.303 5.303 0 0 0 7 13.297 5.303 5.303 0 0 0 12.297 8a5.303 5.303 0 0 0-6.895-5.05.38.38 0 0 1-.364-.071Z" clip-rule="evenodd"/><path stroke-width=".3" d="M4.945 4.057H3.66v1.286a.258.258 0 0 1-.257.257.258.258 0 0 1-.258-.257V4.057H1.86a.258.258 0 0 1-.257-.257c0-.141.115-.257.257-.257h1.285V2.257a.258.258 0 0 1 .514 0v1.286h1.286c.142 0 .258.116.258.257a.258.258 0 0 1-.258.257Z"/><path stroke-width=".1" d="M8.756 7.271c.235-.235.548-.365.88-.365.333 0 .646.13.882.365a.351.351 0 1 0 .497-.497 1.937 1.937 0 0 0-1.378-.57c-.521 0-1.01.202-1.379.57a.351.351 0 1 0 .498.497ZM3.482 7.271c.235-.235.548-.365.881-.365.333 0 .646.13.881.365a.352.352 0 1 0 .497-.497 1.937 1.937 0 0 0-1.378-.57c-.52 0-1.01.202-1.378.57a.351.351 0 1 0 .497.497ZM10.29 8.293H3.705a.307.307 0 0 0-.308.307 3.6 3.6 0 1 0 7.2 0 .307.307 0 0 0-.307-.307Zm-3.293 3.293a2.984 2.984 0 0 1-2.97-2.678h5.94a2.984 2.984 0 0 1-2.97 2.678Z"/></g><defs><clipPath id="a"><path fill="#37352f" d="M0 .986h14v14H0z"/></clipPath></defs></svg>