<svg xmlns="http://www.w3.org/2000/svg" width="27" height="25" fill="none"><rect width="25.002" height="23.001" x="1" y="1" fill="#fff" rx="5"/><rect width="25.002" height="23.001" x="1" y="1" stroke="#E3E8F0" rx="5"/><path fill="#364254" d="M18.002 8.494v2.874a.494.494 0 1 1-.987 0V9.685l-.22.221-2.878 2.877a.492.492 0 0 1-.698 0 .493.493 0 0 1 0-.698l2.877-2.877.22-.22h-1.682a.494.494 0 0 1 0-.988h2.875a.46.46 0 0 1 .025 0l.022.002a.42.42 0 0 1 .024.003l.013.002.015.003.02.005c.005 0 .01.002.014.003l.01.003a.563.563 0 0 1 .133.063.473.473 0 0 1 .171.202.31.31 0 0 1 .01.02l.001.004.008.02.006.021.003.01.004.013a.502.502 0 0 1 .007.034l.002.015a.357.357 0 0 1 .003.023l.002.022a.43.43 0 0 1 0 .026Z"/><path fill="#364254" d="M18 13.763v1.292A1.948 1.948 0 0 1 16.056 17h-5.11A1.948 1.948 0 0 1 9 15.055v-5.11C9 8.874 9.873 8 10.946 8h1.292a.494.494 0 0 1 0 .987h-1.292a.96.96 0 0 0-.959.959v5.109c0 .528.43.958.959.958h5.11a.96.96 0 0 0 .957-.958v-1.292a.494.494 0 0 1 .988 0Z"/></svg>