<svg viewBox="0 0 13 13" fill="none" xmlns="http://www.w3.org/2000/svg">
<path d="M11.7352 6.83547C11.7367 7.10647 11.7205 7.37746 11.6839 7.64553C11.6898 7.60598 11.6942 7.56789 11.7 7.52834C11.6327 8.02346 11.5008 8.50686 11.3089 8.96682C11.3236 8.93166 11.3382 8.89651 11.3529 8.86135C11.2357 9.13821 11.098 9.40627 10.9383 9.66262C10.8592 9.7886 10.7757 9.91164 10.6878 10.0318C10.6688 10.0581 10.5882 10.1592 10.6761 10.0493C10.6527 10.0786 10.6307 10.1065 10.6073 10.1358C10.5589 10.1958 10.5077 10.2559 10.4564 10.3145C10.266 10.5313 10.058 10.7349 9.83676 10.9209C9.78842 10.9619 9.73862 11.0015 9.68881 11.041C9.63608 11.0835 9.7269 11.0117 9.7269 11.0117C9.71371 11.0235 9.69907 11.0337 9.68442 11.044C9.65366 11.0674 9.62289 11.0908 9.59067 11.1128C9.48666 11.189 9.37826 11.2608 9.26987 11.3281C9.02231 11.482 8.76157 11.6167 8.49203 11.731L8.5975 11.687C8.13022 11.8848 7.63803 12.0181 7.13412 12.0855C7.17367 12.0796 7.21176 12.0752 7.25131 12.0694C6.7518 12.1353 6.24496 12.1353 5.74545 12.0694C5.785 12.0752 5.82309 12.0796 5.86264 12.0855C5.3602 12.0181 4.86801 11.8833 4.39926 11.687C4.43442 11.7017 4.46957 11.7163 4.50473 11.731C4.25131 11.6226 4.00668 11.4981 3.77231 11.3545C3.65073 11.2798 3.53061 11.2007 3.41489 11.1172C3.38852 11.0982 3.36362 11.0806 3.33871 11.0615C3.31088 11.041 3.20834 10.9575 3.32699 11.0528C3.26987 11.0059 3.21127 10.9605 3.15414 10.9121C2.93442 10.7276 2.72934 10.5254 2.54037 10.3086C2.49643 10.2573 2.45248 10.2061 2.41 10.1533C2.38803 10.1255 2.36606 10.0977 2.34408 10.0698C2.3016 10.0171 2.37338 10.1079 2.37338 10.1079C2.35727 10.0889 2.34408 10.0684 2.32944 10.0493C2.24301 9.93508 2.16244 9.81643 2.08481 9.69485C1.91928 9.43264 1.77573 9.15871 1.65414 8.87307C1.66879 8.90823 1.68344 8.94338 1.69809 8.97854C1.50033 8.51125 1.36703 8.01907 1.29965 7.51516C1.30551 7.55471 1.30991 7.5928 1.31576 7.63235C1.24985 7.13284 1.24985 6.626 1.31576 6.12649C1.30991 6.16604 1.30551 6.20412 1.29965 6.24368C1.36703 5.74123 1.5018 5.24905 1.69809 4.7803C1.68344 4.81545 1.66879 4.85061 1.65414 4.88577C1.76254 4.63235 1.88705 4.38772 2.03061 4.15334C2.10532 4.03176 2.18442 3.91164 2.26791 3.79592C2.28696 3.76955 2.30453 3.74465 2.32358 3.71975C2.34408 3.69192 2.42758 3.58938 2.33237 3.70803C2.37924 3.6509 2.42465 3.59231 2.47299 3.53518C2.65756 3.31545 2.85971 3.11037 3.07651 2.92141C3.12778 2.87746 3.17905 2.83352 3.23178 2.79104C3.25961 2.76907 3.28744 2.74709 3.31528 2.72512C3.36801 2.68264 3.27719 2.75442 3.27719 2.75442C3.29623 2.7383 3.31674 2.72512 3.33578 2.71047C3.45004 2.62405 3.56869 2.54348 3.69028 2.46584C3.95248 2.30032 4.22641 2.15676 4.51205 2.03518C4.4769 2.04983 4.44174 2.06448 4.40659 2.07912C4.87387 1.88137 5.36606 1.74807 5.86996 1.68069C5.83041 1.68655 5.79233 1.69094 5.75278 1.6968C6.25229 1.63088 6.75912 1.63088 7.25864 1.6968C7.21908 1.69094 7.181 1.68655 7.14145 1.68069C7.64389 1.74807 8.13608 1.88284 8.60483 2.07912C8.56967 2.06448 8.53451 2.04983 8.49936 2.03518C8.82602 2.17434 9.13949 2.3428 9.43393 2.54055C9.50717 2.58889 9.57895 2.64016 9.64926 2.69143C9.66684 2.70461 9.68295 2.71633 9.70053 2.72952C9.71225 2.7383 9.7225 2.74709 9.73422 2.75442C9.67563 2.70901 9.66098 2.69729 9.68735 2.7178C9.72397 2.74563 9.75912 2.77493 9.79428 2.80422C9.93783 2.92287 10.0755 3.04739 10.2074 3.17922C10.37 3.34182 10.6688 3.355 10.8285 3.17922C10.9896 3.00344 11.0028 2.73098 10.8285 2.55813C10.0594 1.79202 9.08969 1.23244 8.03793 0.961449C7.01401 0.699242 5.9227 0.703637 4.9017 0.979027C3.85287 1.26174 2.88461 1.83303 2.12729 2.61086C1.37289 3.38577 0.823577 4.36282 0.567229 5.41604C0.318206 6.43996 0.332854 7.52688 0.618499 8.54202C0.908538 9.59231 1.49008 10.5576 2.2767 11.3076C3.05893 12.0518 4.04037 12.5923 5.0936 12.8369C6.12045 13.0757 7.20737 13.0508 8.21811 12.7549C9.27573 12.4444 10.2484 11.8423 10.9955 11.0293C11.8246 10.1255 12.3797 8.98 12.5482 7.76272C12.5907 7.4551 12.617 7.14748 12.6141 6.83547C12.6126 6.60549 12.4134 6.38577 12.1747 6.39602C11.9373 6.40627 11.7337 6.58938 11.7352 6.83547Z" fill="currentColor"/>
<path d="M9.52745 0.557109C9.69297 1.26902 9.8585 1.98094 10.024 2.69139C10.0475 2.791 10.0709 2.8906 10.0929 2.99021C10.1954 2.81004 10.298 2.62986 10.4005 2.44969C9.68858 2.61521 8.97666 2.78074 8.26621 2.94627C8.16661 2.96971 8.067 2.99314 7.96739 3.01512C7.74327 3.06785 7.58946 3.33592 7.65977 3.55564C7.73594 3.79002 7.96006 3.91893 8.2003 3.86326C8.91221 3.69773 9.62412 3.53221 10.3346 3.36668C10.4342 3.34324 10.5338 3.3198 10.6334 3.29783C10.8707 3.24217 10.9923 2.98143 10.941 2.7573C10.7755 2.04539 10.61 1.33348 10.4444 0.623027C10.421 0.523417 10.3976 0.423808 10.3756 0.324198C10.3229 0.100077 10.0548 -0.0537312 9.83506 0.0165813C9.60069 0.0912883 9.47178 0.316874 9.52745 0.557109Z" fill="currentColor"/>
</svg>
