<svg width="22" height="21" viewBox="0 0 22 21" fill="none" xmlns="http://www.w3.org/2000/svg">
<g id="Group 42969">
<path id="Vector" fill-rule="evenodd" clip-rule="evenodd" d="M14.271 19.0379C14.609 19.33 14.524 19.872 14.101 20.0121C12.5995 20.4989 11.0042 20.6239 9.44516 20.3768C7.88617 20.1298 6.40767 19.5176 5.13027 18.5904C3.85288 17.6632 2.81278 16.4471 2.09483 15.0414C1.37688 13.6357 1.00142 12.0801 0.999071 10.5017C0.999071 4.98789 5.48672 0.500244 11.0005 0.500244C16.5143 0.500244 21.002 4.98789 21.002 10.5017C21.002 12.2719 20.5389 13.9372 19.7288 15.3824C19.685 15.458 19.6242 15.5223 19.5513 15.5704C19.4783 15.6185 19.3952 15.6489 19.3084 15.6593C19.2217 15.6696 19.1337 15.6597 19.0515 15.6302C18.9693 15.6007 18.895 15.5525 18.8346 15.4894C18.6396 15.2944 18.6066 14.9893 18.7396 14.7473C19.4563 13.4471 19.8314 11.9863 19.8298 10.5017C19.8271 8.16083 18.8961 5.91661 17.2408 4.26137C15.5856 2.60613 13.3414 1.67506 11.0005 1.67241C8.65966 1.67506 6.41543 2.60613 4.7602 4.26137C3.10496 5.91661 2.17389 8.16083 2.17124 10.5017C2.17334 11.8886 2.50175 13.2555 3.12992 14.4919C3.75808 15.7284 4.66838 16.7997 5.78721 17.6192C6.90604 18.4387 8.20201 18.9835 9.57034 19.2094C10.9387 19.4354 12.341 19.3362 13.6639 18.9199C13.7667 18.886 13.8765 18.8791 13.9828 18.8997C14.0891 18.9204 14.1883 18.968 14.271 19.0379Z" fill="#71717A" stroke="#71717A" stroke-width="0.1"/>
<path id="Vector (Stroke)" fill-rule="evenodd" clip-rule="evenodd" d="M6.625 9.2485C6.625 8.90328 6.90486 8.62341 7.25009 8.62341H16.0014C16.3466 8.62341 16.6264 8.90328 16.6264 9.2485C16.6264 9.59373 16.3466 9.87359 16.0014 9.87359H7.25009C6.90486 9.87359 6.625 9.59373 6.625 9.2485ZM6.625 12.999C6.625 12.6538 6.90486 12.374 7.25009 12.374H14.1261C14.4713 12.374 14.7512 12.6538 14.7512 12.999C14.7512 13.3443 14.4713 13.6241 14.1261 13.6241H7.25009C6.90486 13.6241 6.625 13.3443 6.625 12.999Z" fill="#71717A"/>
<path id="Vector 405" d="M14.127 19.25L19.7576 19.88L19.1277 14.8744" stroke="#71717A" stroke-linecap="round"/>
</g>
</svg>
