<svg width="45" height="30" viewBox="0 0 45 30" fill="none" xmlns="http://www.w3.org/2000/svg">
<rect width="45" height="28" rx="14" fill="#F4F4F5"/>
<g clip-path="url(#clip0_595_9772)">
<path d="M30.3337 14.0001C30.3337 18.6025 26.6027 22.3334 22.0003 22.3334C17.398 22.3334 13.667 18.6025 13.667 14.0001C13.667 9.39771 17.398 5.66675 22.0003 5.66675" stroke="#71717A" stroke-width="2" stroke-linecap="round" stroke-linejoin="round"/>
<path d="M18.666 12.4508V12.3674" stroke="#71717A" stroke-width="3" stroke-linecap="round" stroke-linejoin="round"/>
<path d="M25.334 12.4508V12.3674" stroke="#71717A" stroke-width="3" stroke-linecap="round" stroke-linejoin="round"/>
<path d="M22.0003 19.0001C22.8844 19.0001 23.7322 18.6489 24.3573 18.0238C24.9825 17.3986 25.3337 16.5508 25.3337 15.6667H18.667C18.667 16.5508 19.0182 17.3986 19.6433 18.0238C20.2684 18.6489 21.1163 19.0001 22.0003 19.0001Z" fill="#71717A" stroke="#71717A" stroke-width="2" stroke-linecap="round" stroke-linejoin="round"/>
</g>
<path d="M28.8185 4V7.40909M28.8185 10.8182V7.40909M28.8185 7.40909H25.6367M28.8185 7.40909H32.0004" stroke="#616060"/>
<defs>
<clipPath id="clip0_595_9772">
<rect width="20" height="20" fill="white" transform="translate(12 4)"/>
</clipPath>
</defs>
</svg>
