<svg width="12" height="10" viewBox="0 0 12 10" fill="#37352f" xmlns="http://www.w3.org/2000/svg">
<path d="M11.25 9.82969C11.1105 9.82969 10.979 9.75192 10.9146 9.623C10.2203 8.23831 9.56287 6.92766 6 6.84259V9.45576C6 9.6044 5.91178 9.73874 5.77547 9.79828C5.63916 9.85783 5.47997 9.83147 5.37047 9.73032L0.495469 5.24308C0.418594 5.17268 0.375 5.07294 0.375 4.96851C0.375 4.86409 0.418594 4.76435 0.495469 4.69386L5.37047 0.206615C5.47997 0.105465 5.63963 0.0795694 5.77547 0.138651C5.91178 0.198294 6 0.332631 6 0.481271V3.10322C11.1939 3.23176 11.625 6.05779 11.625 9.45576C11.625 9.62917 11.5053 9.77968 11.3361 9.81988C11.3075 9.82642 11.2786 9.82969 11.25 9.82969ZM1.30294 4.96851L5.25 8.60159V6.46426C5.25 6.25757 5.41772 6.09033 5.625 6.09033C8.7345 6.09033 10.0583 6.9558 10.8351 7.99619C10.6597 5.44435 9.76762 3.8467 5.625 3.8467C5.41772 3.8467 5.25 3.67946 5.25 3.47277V1.33544L1.30294 4.96851Z" fill="#37352f"/>
</svg>
