
<svg viewBox="0 0 16 16" fill="none" xmlns="http://www.w3.org/2000/svg">
<path d="M11.334 12.2872H8.66732L5.70064 14.2605C5.26064 14.5538 4.66732 14.2405 4.66732 13.7072V12.2872C2.66732 12.2872 1.33398 10.9539 1.33398 8.95386V4.95382C1.33398 2.95382 2.66732 1.62048 4.66732 1.62048H11.334C13.334 1.62048 14.6673 2.95382 14.6673 4.95382V8.95386C14.6673 10.9539 13.334 12.2872 11.334 12.2872Z" stroke="currentColor" stroke-miterlimit="10" stroke-linecap="round" stroke-linejoin="round"/>
<path d="M7.99923 7.57361V7.43363C7.99923 6.9803 8.27924 6.74029 8.55924 6.54696C8.83258 6.36029 9.10588 6.1203 9.10588 5.6803C9.10588 5.06696 8.61256 4.57361 7.99923 4.57361C7.38589 4.57361 6.89258 5.06696 6.89258 5.6803" stroke="currentColor" stroke-linecap="round" stroke-linejoin="round"/>
<path d="M7.99635 9.16671H8.00235" stroke="currentColor" stroke-linecap="round" stroke-linejoin="round"/>
</svg>
