<svg viewBox="0 0 21 22" fill="none" xmlns="http://www.w3.org/2000/svg">
<path d="M9.80593 20.9905H2.62473C1.99491 20.9905 1.39089 20.7403 0.945543 20.295C0.500194 19.8496 0.25 19.2456 0.25 18.6158L0.25 3.37473C0.25 2.74491 0.500194 2.14089 0.945543 1.69554C1.39089 1.25019 1.99491 1 2.62473 1L13.6197 1C14.2496 1 14.8536 1.25019 15.2989 1.69554C15.7443 2.14089 15.9945 2.74491 15.9945 3.37473V9.07409C16.0015 9.14849 15.9929 9.22354 15.9693 9.29443C15.9456 9.36532 15.9074 9.43048 15.8571 9.48575C15.8068 9.54102 15.7455 9.58518 15.6772 9.61539C15.6088 9.64561 15.5349 9.66121 15.4602 9.66121C15.3854 9.66121 15.3115 9.64561 15.2432 9.61539C15.1748 9.58518 15.1135 9.54102 15.0632 9.48575C15.0129 9.43048 14.9747 9.36532 14.9511 9.29443C14.9274 9.22354 14.9188 9.14849 14.9258 9.07409V3.37473C14.9259 3.20531 14.8924 3.03755 14.8274 2.88108C14.7624 2.72461 14.6672 2.58251 14.5472 2.46293C14.4272 2.34335 14.2847 2.24864 14.128 2.18424C13.9713 2.11983 13.8034 2.087 13.634 2.08763H2.62473C2.45451 2.08574 2.28561 2.11764 2.1278 2.18148C1.97 2.24532 1.82642 2.33983 1.70539 2.45954C1.58436 2.57924 1.48827 2.72177 1.4227 2.87887C1.35713 3.03596 1.32337 3.2045 1.32338 3.37473V18.63C1.32337 18.8002 1.35713 18.9688 1.4227 19.1259C1.48827 19.283 1.58436 19.4255 1.70539 19.5452C1.82642 19.6649 1.97 19.7594 2.1278 19.8233C2.28561 19.8871 2.45451 19.919 2.62473 19.9171H9.80593C9.94827 19.9171 10.0848 19.9737 10.1854 20.0743C10.2861 20.175 10.3426 20.3115 10.3426 20.4538C10.3426 20.5962 10.2861 20.7327 10.1854 20.8333C10.0848 20.934 9.94827 20.9905 9.80593 20.9905Z" fill="currentColor"/>
<path fill-rule="evenodd" clip-rule="evenodd" d="M2.62473 1.25C2.06122 1.25 1.52078 1.47386 1.12232 1.87232C0.723855 2.27078 0.5 2.81122 0.5 3.37473V18.6158C0.5 19.1793 0.723855 19.7197 1.12232 20.1182C1.52078 20.5166 2.06122 20.7405 2.62473 20.7405H9.80593C9.88196 20.7405 9.95488 20.7103 10.0086 20.6565C10.0624 20.6028 10.0926 20.5298 10.0926 20.4538C10.0926 20.3778 10.0624 20.3049 10.0086 20.2511C9.95488 20.1973 9.88196 20.1671 9.80593 20.1671H2.62606C2.42326 20.1692 2.22206 20.1311 2.03405 20.055C1.84559 19.9788 1.67413 19.8659 1.52959 19.723C1.38505 19.58 1.2703 19.4098 1.19199 19.2222C1.11368 19.0346 1.07337 18.8333 1.07338 18.63V3.37475C1.07337 3.17146 1.11368 2.97017 1.19199 2.78257C1.2703 2.59496 1.38505 2.42475 1.52959 2.28179C1.67413 2.13883 1.84559 2.02597 2.03405 1.94973C2.22206 1.87367 2.42326 1.83557 2.62606 1.83763H13.6336M0.768766 1.51877C1.261 1.02653 1.92861 0.75 2.62473 0.75H13.6197C14.3159 0.75 14.9835 1.02653 15.4757 1.51877C15.9679 2.011 16.2445 2.67861 16.2445 3.37473V9.06345C16.2526 9.16828 16.2397 9.27374 16.2064 9.37357C16.1717 9.47748 16.1157 9.573 16.042 9.65402C15.9683 9.73503 15.8784 9.79976 15.7782 9.84405C15.678 9.88834 15.5697 9.91121 15.4602 9.91121C15.3506 9.91121 15.2423 9.88834 15.1421 9.84405C15.0419 9.79976 14.9521 9.73503 14.8783 9.65402C14.8046 9.573 14.7486 9.47748 14.7139 9.37357C14.6806 9.27374 14.6677 9.16828 14.6758 9.06345V3.37473C14.6758 3.23821 14.6489 3.10304 14.5965 2.97696C14.5442 2.85088 14.4674 2.73638 14.3707 2.64003C14.274 2.54368 14.1592 2.46736 14.033 2.41547C13.9067 2.36358 13.7714 2.33712 13.6349 2.33763L2.62197 2.33763C2.48481 2.33611 2.34871 2.3618 2.22156 2.41324C2.0944 2.46468 1.97871 2.54083 1.88119 2.63728C1.78366 2.73374 1.70624 2.84858 1.65341 2.97516C1.60057 3.10175 1.57337 3.23755 1.57338 3.37472V18.63C1.57337 18.7672 1.60057 18.903 1.65341 19.0296C1.70624 19.1562 1.78366 19.271 1.88119 19.3675C1.97871 19.4639 2.0944 19.5401 2.22156 19.5915C2.34871 19.643 2.48481 19.6687 2.62197 19.6671L2.62473 19.6671L9.80593 19.6671C10.0146 19.6671 10.2147 19.75 10.3622 19.8975C10.5097 20.0451 10.5926 20.2452 10.5926 20.4538C10.5926 20.6625 10.5097 20.8626 10.3622 21.0101C10.2147 21.1576 10.0146 21.2405 9.80593 21.2405H2.62473C1.92861 21.2405 1.261 20.964 0.768766 20.4717C0.276534 19.9795 0 19.3119 0 18.6158V3.37473C0 2.67861 0.276534 2.011 0.768766 1.51877Z" fill="currentColor"/>
<path d="M12.6228 6.73739H3.59884C3.52444 6.74441 3.44939 6.73582 3.3785 6.71216C3.30762 6.6885 3.24245 6.6503 3.18718 6.6C3.13191 6.5497 3.08776 6.48841 3.05754 6.42006C3.02733 6.35171 3.01172 6.2778 3.01172 6.20307C3.01172 6.12834 3.02733 6.05443 3.05754 5.98608C3.08776 5.91773 3.13191 5.85644 3.18718 5.80614C3.24245 5.75585 3.30762 5.71764 3.3785 5.69399C3.44939 5.67033 3.52444 5.66173 3.59884 5.66876H12.6228C12.7558 5.68131 12.8794 5.74303 12.9693 5.84184C13.0592 5.94066 13.1091 6.06946 13.1091 6.20307C13.1091 6.33668 13.0592 6.46548 12.9693 6.5643C12.8794 6.66311 12.7558 6.72483 12.6228 6.73739Z" fill="currentColor"/>
<path fill-rule="evenodd" clip-rule="evenodd" d="M3.57535 5.91765C3.5356 5.9139 3.49552 5.91849 3.45765 5.93113C3.41978 5.94377 3.38497 5.96417 3.35545 5.99104C3.32592 6.01791 3.30234 6.05065 3.2862 6.08716C3.27006 6.12367 3.26172 6.16315 3.26172 6.20307C3.26172 6.24299 3.27006 6.28247 3.2862 6.31898C3.30234 6.3555 3.32592 6.38823 3.35545 6.4151C3.38497 6.44197 3.41978 6.46238 3.45765 6.47502C3.49552 6.48765 3.5356 6.49224 3.57535 6.48849L3.58707 6.48739H12.6092C12.6765 6.47867 12.7386 6.44636 12.7844 6.39603C12.8325 6.34325 12.8591 6.27444 12.8591 6.20307C12.8591 6.1317 12.8325 6.0629 12.7844 6.01011C12.7386 5.95978 12.6765 5.92747 12.6092 5.91876H3.58707L3.57535 5.91765ZM3.60949 5.41876C3.50465 5.41059 3.39919 5.42353 3.29936 5.45684C3.19545 5.49152 3.09993 5.54752 3.01892 5.62125C2.9379 5.69498 2.87317 5.78481 2.82889 5.885C2.7846 5.98519 2.76172 6.09353 2.76172 6.20307C2.76172 6.31261 2.7846 6.42095 2.82889 6.52114C2.87317 6.62133 2.9379 6.71117 3.01892 6.78489C3.09993 6.85862 3.19545 6.91462 3.29936 6.9493C3.39919 6.98262 3.50465 6.99555 3.60949 6.98739H12.6346L12.6463 6.98628C12.8413 6.96788 13.0224 6.87741 13.1542 6.73256C13.286 6.58772 13.3591 6.39892 13.3591 6.20307C13.3591 6.00723 13.286 5.81842 13.1542 5.67358C13.0224 5.52873 12.8413 5.43827 12.6463 5.41986L12.6346 5.41876H3.60949Z" fill="currentColor"/>
<path d="M8.57605 10.9074H3.61286C3.47052 10.9074 3.33401 10.8508 3.23336 10.7502C3.13272 10.6495 3.07617 10.513 3.07617 10.3707C3.07617 10.2283 3.13272 10.0918 3.23336 9.99118C3.33401 9.89053 3.47052 9.83398 3.61286 9.83398H8.57605C8.71839 9.83398 8.8549 9.89053 8.95555 9.99118C9.0562 10.0918 9.11274 10.2283 9.11274 10.3707C9.11274 10.513 9.0562 10.6495 8.95555 10.7502C8.8549 10.8508 8.71839 10.9074 8.57605 10.9074Z" fill="currentColor"/>
<path fill-rule="evenodd" clip-rule="evenodd" d="M3.61286 10.084C3.53683 10.084 3.46391 10.1142 3.41014 10.168C3.35638 10.2217 3.32617 10.2946 3.32617 10.3707C3.32617 10.4467 3.35638 10.5196 3.41014 10.5734C3.46391 10.6272 3.53683 10.6574 3.61286 10.6574H8.57605C8.65209 10.6574 8.72501 10.6272 8.77877 10.5734C8.83254 10.5196 8.86274 10.4467 8.86274 10.3707C8.86274 10.2946 8.83254 10.2217 8.77877 10.168C8.72501 10.1142 8.65209 10.084 8.57605 10.084H3.61286ZM3.05659 9.8144C3.20412 9.66687 3.40422 9.58398 3.61286 9.58398H8.57605C8.7847 9.58398 8.98479 9.66687 9.13233 9.8144C9.27986 9.96193 9.36274 10.162 9.36274 10.3707C9.36274 10.5793 9.27986 10.7794 9.13233 10.9269C8.98479 11.0745 8.7847 11.1574 8.57605 11.1574H3.61286C3.40422 11.1574 3.20412 11.0745 3.05659 10.9269C2.90906 10.7794 2.82617 10.5793 2.82617 10.3707C2.82617 10.162 2.90906 9.96193 3.05659 9.8144Z" fill="currentColor"/>
<path d="M11.9008 21C11.7597 21 11.624 20.945 11.5229 20.8465C11.4218 20.748 11.3631 20.6139 11.3594 20.4728C11.3974 18.0078 13.6201 16.7302 15.8144 16.7302H15.8524C17.9564 16.7302 20.2171 17.9176 20.2171 20.4633C20.2045 20.5975 20.1423 20.7222 20.0426 20.813C19.9429 20.9038 19.8129 20.9541 19.6781 20.9541C19.5432 20.9541 19.4133 20.9038 19.3136 20.813C19.2139 20.7222 19.1516 20.5975 19.139 20.4633C19.139 18.6538 17.4292 17.8179 15.8429 17.8084C14.2566 17.7989 12.466 18.611 12.4375 20.4728C12.435 20.6135 12.3774 20.7476 12.277 20.8462C12.1766 20.9448 12.0415 21 11.9008 21Z" fill="currentColor"/>
<path fill-rule="evenodd" clip-rule="evenodd" d="M11.6087 20.4707C11.6118 20.545 11.6432 20.6154 11.6965 20.6674C11.751 20.7204 11.824 20.75 11.8999 20.75C11.9751 20.75 12.0474 20.7205 12.101 20.6678C12.1546 20.6152 12.1853 20.5437 12.1867 20.4687C12.2025 19.4453 12.7079 18.705 13.4162 18.2311C14.1161 17.7627 15.0123 17.5534 15.8436 17.5584C16.6753 17.5633 17.5518 17.7842 18.228 18.2557C18.9093 18.7308 19.3838 19.4604 19.3882 20.4495C19.3969 20.5181 19.4298 20.5815 19.4811 20.6282C19.5347 20.677 19.6047 20.7041 19.6773 20.7041C19.7498 20.7041 19.8198 20.677 19.8735 20.6282C19.9246 20.5816 19.9575 20.5184 19.9663 20.4499C19.9624 19.2685 19.4402 18.4119 18.6739 17.8428C17.8969 17.2658 16.861 16.9802 15.8516 16.9802H15.8136C14.7613 16.9802 13.7122 17.2872 12.9277 17.877C12.1507 18.4612 11.6281 19.3249 11.6087 20.4707ZM12.6273 17.4773C13.5122 16.8121 14.6716 16.4802 15.8136 16.4802H15.8516C16.9462 16.4802 18.0926 16.7883 18.972 17.4414C19.8592 18.1003 20.4663 19.1059 20.4663 20.4633V20.475L20.4652 20.4867C20.4468 20.6829 20.3558 20.8652 20.2101 20.9979C20.0644 21.1306 19.8744 21.2041 19.6773 21.2041C19.4802 21.2041 19.2902 21.1306 19.1445 20.9979C18.9987 20.8652 18.9077 20.6829 18.8893 20.4867L18.8882 20.475V20.4633C18.8882 19.6499 18.5091 19.0613 17.942 18.6659C17.3667 18.2647 16.5952 18.0629 15.8406 18.0583C15.0856 18.0538 14.2933 18.2458 13.6942 18.6466C13.1037 19.0418 12.6995 19.6384 12.6867 20.4766C12.683 20.6829 12.5985 20.88 12.4514 21.0245C12.3043 21.169 12.1063 21.25 11.9001 21.25M12.6273 17.4773C11.7362 18.1472 11.1289 19.1527 11.1086 20.469L12.6273 17.4773ZM11.3477 21.0256C11.1999 20.8817 12 18.5 11.1087 20.4794L11.1086 20.469M11.3477 21.0256C11.3477 19.8275 12.2374 19.5 11.9001 21.25L11.3477 21.0256Z" fill="currentColor"/>
<path d="M15.819 15.7234C15.3161 15.7253 14.8239 15.5778 14.4048 15.2998C13.9856 15.0217 13.6585 14.6255 13.4647 14.1614C13.2709 13.6973 13.2193 13.1861 13.3162 12.6926C13.4132 12.199 13.6544 11.7454 14.0094 11.3891C14.3644 11.0328 14.8171 10.7898 15.3103 10.691C15.8035 10.5922 16.3148 10.642 16.7797 10.834C17.2446 11.026 17.642 11.3517 17.9216 11.7698C18.2012 12.1878 18.3505 12.6795 18.3505 13.1824C18.3505 13.8547 18.0841 14.4996 17.6096 14.9758C17.1351 15.4521 16.4913 15.7209 15.819 15.7234ZM15.819 11.5011C15.4861 11.4992 15.1601 11.5962 14.8824 11.7798C14.6046 11.9634 14.3876 12.2254 14.2589 12.5324C14.1302 12.8395 14.0956 13.1778 14.1594 13.5046C14.2232 13.8313 14.3825 14.1318 14.6173 14.3679C14.852 14.604 15.1516 14.7651 15.478 14.8307C15.8044 14.8964 16.1429 14.8636 16.4507 14.7366C16.7585 14.6097 17.0216 14.3942 17.2068 14.1175C17.392 13.8408 17.4908 13.5154 17.4908 13.1824C17.4908 12.7386 17.3148 12.3129 17.0015 11.9986C16.6881 11.6843 16.2628 11.5071 15.819 11.5059V11.5011Z" fill="currentColor"/>
<path fill-rule="evenodd" clip-rule="evenodd" d="M16.6842 11.065C16.2651 10.8919 15.8041 10.847 15.3594 10.9361C14.9148 11.0252 14.5066 11.2443 14.1865 11.5655C13.8665 11.8868 13.649 12.2958 13.5615 12.7408C13.4741 13.1857 13.5207 13.6466 13.6954 14.0651C13.8701 14.4836 14.1651 14.8408 14.543 15.0915C14.9208 15.3422 15.3646 15.4751 15.8181 15.4734C16.4242 15.4711 17.0047 15.2288 17.4325 14.7994C17.8603 14.37 18.1005 13.7885 18.1005 13.1824C18.1005 12.729 17.9659 12.2857 17.7138 11.9088C17.4617 11.5318 17.1034 11.2382 16.6842 11.065ZM15.2612 10.4459C15.8029 10.3373 16.3646 10.392 16.8752 10.6029C17.3857 10.8139 17.8222 11.1716 18.1294 11.6308C18.4365 12.09 18.6005 12.63 18.6005 13.1824C18.6005 13.9208 18.3079 14.6291 17.7867 15.1523C17.2656 15.6754 16.5584 15.9706 15.82 15.9734C15.2675 15.9755 14.7269 15.8135 14.2665 15.5081C13.8062 15.2027 13.4469 14.7675 13.234 14.2577C13.0212 13.7479 12.9644 13.1864 13.0709 12.6444C13.1774 12.1023 13.4424 11.604 13.8323 11.2126C14.2222 10.8213 14.7195 10.5544 15.2612 10.4459ZM14.7445 11.5713C15.0635 11.3604 15.438 11.249 15.8204 11.2511L16.069 11.2525V11.2728C16.4869 11.3285 16.8776 11.5203 17.1785 11.8221C17.5386 12.1832 17.7408 12.6724 17.7408 13.1824C17.7408 13.5649 17.6273 13.9387 17.4146 14.2565C17.2019 14.5744 16.8996 14.8219 16.5461 14.9678C16.1925 15.1136 15.8036 15.1512 15.4287 15.0758C15.0538 15.0004 14.7097 14.8154 14.44 14.5442C14.1704 14.273 13.9873 13.9278 13.914 13.5525C13.8407 13.1771 13.8805 12.7885 14.0284 12.4358C14.1762 12.0831 14.4255 11.7822 14.7445 11.5713ZM15.697 11.7555C15.456 11.7745 15.223 11.8544 15.0202 11.9884C14.7838 12.1447 14.5991 12.3677 14.4895 12.6291C14.3799 12.8905 14.3504 13.1785 14.4047 13.4567C14.459 13.7348 14.5947 13.9906 14.7946 14.1916C14.9944 14.3926 15.2494 14.5297 15.5273 14.5856C15.8052 14.6415 16.0934 14.6136 16.3554 14.5055C16.6174 14.3974 16.8414 14.214 16.999 13.9785C17.1567 13.7429 17.2408 13.4659 17.2408 13.1824C17.2408 12.8048 17.0911 12.4425 16.8244 12.1751C16.5578 11.9077 16.196 11.7569 15.8183 11.7559L15.697 11.7555Z" fill="currentColor"/>
</svg>
