<svg width="18" height="18" viewBox="0 0 18 18" fill="none" xmlns="http://www.w3.org/2000/svg">
<path d="M12.916 8.15268C12.916 8.44395 12.6799 8.68002 12.3887 8.68002C12.0975 8.68002 11.8613 8.44395 11.8613 8.15268C11.8613 7.86154 12.0975 7.62534 12.3887 7.62534C12.6799 7.62534 12.916 7.86154 12.916 8.15268Z" fill="#6b7280"/>
<path d="M12.388 2.54181C11.3176 2.54181 10.4492 3.40808 10.4492 4.48062V4.48131C10.4492 4.77245 10.6853 5.00838 10.9766 5.00838C11.2678 5.00838 11.5039 4.7719 11.5039 4.48062C11.5039 3.9931 11.8982 3.5965 12.3887 3.5965C12.8765 3.5965 13.2734 3.99338 13.2734 4.48131C13.2734 4.9691 12.8765 5.36598 12.3887 5.36598C12.0974 5.36598 11.8614 5.60219 11.8614 5.89333V6.45816C11.8614 6.74944 12.0974 6.9855 12.3887 6.9855C12.6799 6.9855 12.9161 6.74944 12.9161 6.45816V6.34789C13.73 6.11758 14.3281 5.3679 14.3281 4.48131C14.3281 3.41179 13.4581 2.54181 12.388 2.54181V2.54181Z" fill="#6b7280"/>
<path d="M5.0603 13.4583C5.71564 12.9479 6.13834 12.1523 6.13834 11.2593C6.13834 9.72276 4.88809 8.47266 3.35152 8.47266C1.81494 8.47266 0.564835 9.72276 0.564835 11.2593C0.564835 12.1523 0.987534 12.9479 1.64273 13.4583C0.717957 14.0084 0 15.0474 0 16.343V17.4727C0 17.7639 0.236069 18 0.527344 18H6.17583C6.46696 18 6.70317 17.7639 6.70317 17.4727V16.343C6.70317 15.0477 5.98535 14.0085 5.0603 13.4583ZM1.61952 11.2593C1.61952 10.3044 2.39653 9.52734 3.35165 9.52734C4.30664 9.52734 5.08365 10.3044 5.08365 11.2593C5.08365 12.2145 4.30664 12.9915 3.35165 12.9915C2.39653 12.9915 1.61952 12.2145 1.61952 11.2593ZM5.64848 16.9453H1.05469V16.343C1.05469 15.0743 2.08109 14.0462 3.35152 14.0462C4.62016 14.0462 5.64835 15.0726 5.64835 16.343V16.9453H5.64848Z" fill="#6b7280"/>
<path d="M15.7783 0H9.00017C7.77299 0 6.77832 0.992889 6.77832 2.22185V12.389C6.77832 12.8204 7.27298 13.0726 7.62207 12.8109L9.74078 11.2218H15.7783C17.0055 11.2218 18.0002 10.229 18.0002 9V2.22185C18.0002 0.994675 17.0073 0 15.7783 0V0ZM16.9455 9C16.9455 9.64517 16.4238 10.1672 15.7783 10.1672H9.565C9.45088 10.1672 9.33992 10.2042 9.2486 10.2726L7.83301 11.3343V2.22185C7.83301 1.57668 8.35472 1.05469 9.00017 1.05469H15.7783C16.4235 1.05469 16.9455 1.5764 16.9455 2.22185V9Z" fill="#6b7280"/>
</svg>
