<svg width="16" height="16" viewBox="0 0 16 16" fill="none" xmlns="http://www.w3.org/2000/svg">
<path d="M15.0626 3.15304C14.8211 3.15304 14.6252 3.35172 14.6252 3.59683V10.4408C14.6252 11.6643 13.6441 12.6598 12.4382 12.6598H8.28717C8.04568 12.6598 7.84994 12.8583 7.84977 13.1032L7.84915 13.9856L6.80516 12.9264C6.73758 12.769 6.58292 12.6598 6.40402 12.6598H3.56182C2.3559 12.6598 1.37481 11.6643 1.37481 10.4408V3.60651C1.37481 2.38299 2.3559 1.38757 3.56182 1.38757H12.3303C12.5718 1.38757 12.7677 1.18889 12.7677 0.943787C12.7677 0.698683 12.5718 0.5 12.3303 0.5H3.56182C1.87353 0.5 0.5 1.89358 0.5 3.60651V10.4408C0.5 12.1538 1.87353 13.5473 3.56182 13.5473H6.18003L7.97648 15.37C8.06016 15.4549 8.172 15.5 8.28586 15.5C8.34215 15.5 8.39897 15.4889 8.45299 15.4663C8.61645 15.3977 8.72304 15.2359 8.72317 15.0565L8.72422 13.5473H12.4382C14.1265 13.5473 15.5 12.1538 15.5 10.4408V3.59683C15.5 3.35172 15.3041 3.15304 15.0626 3.15304Z" fill="#7147E8" stroke="#7147E8" stroke-width="0.2"/>
<path fill-rule="evenodd" clip-rule="evenodd" d="M14.6252 3.60651H15.5C15.5 1.89358 14.1265 0.5 12.4382 0.5V1.38757C13.6441 1.38757 14.6252 2.38299 14.6252 3.60651Z" fill="#7147E8" stroke="#7147E8" stroke-width="0.2"/>
<path d="M9.90912 5.40632C9.846 4.47725 9.10784 3.72831 8.1921 3.66428C7.67299 3.62811 7.17758 3.80576 6.7984 4.16491C6.42442 4.5191 6.20996 5.01978 6.20996 5.53861C6.20996 5.78371 6.40583 5.9824 6.64736 5.9824C6.8889 5.9824 7.08477 5.78371 7.08477 5.53861C7.08477 5.26084 7.19508 5.0034 7.39532 4.81377C7.59539 4.62432 7.85687 4.53055 8.132 4.54981C8.61436 4.58354 9.00317 4.97802 9.03641 5.46738C9.07001 5.96163 8.7504 6.3984 8.27651 6.50598C7.89256 6.59314 7.62443 6.93166 7.62443 7.32916V8.39536C7.62443 8.64046 7.8203 8.83914 8.06184 8.83914C8.30341 8.83914 8.49924 8.64046 8.4992 8.39536V7.36462C9.38056 7.14858 9.97189 6.33033 9.90912 5.40632Z" fill="#7147E8" stroke="#7147E8" stroke-width="0.2"/>
<path d="M8.36823 9.83755C8.28687 9.755 8.17402 9.70752 8.05898 9.70752C7.94395 9.70752 7.8311 9.755 7.74974 9.83755C7.66839 9.92009 7.62158 10.0346 7.62158 10.1513C7.62158 10.2685 7.66843 10.383 7.74974 10.4655C7.8311 10.5481 7.94395 10.5951 8.05898 10.5951C8.17402 10.5951 8.28687 10.5481 8.36823 10.4655C8.44959 10.3825 8.49639 10.2685 8.49639 10.1513C8.49639 10.0346 8.44954 9.92009 8.36823 9.83755Z" fill="#7147E8" stroke="#7147E8" stroke-width="0.1"/>
</svg>
