<svg xmlns="http://www.w3.org/2000/svg" width="16" height="16" fill="none"><path fill="#7147E8" stroke="#7147E8" stroke-width=".2" d="M15.063 3.153a.44.44 0 0 0-.438.444v6.844c0 1.223-.98 2.219-2.187 2.219h-4.15a.44.44 0 0 0-.438.443v.883l-1.045-1.06a.437.437 0 0 0-.401-.266H3.562c-1.206 0-2.187-.996-2.187-2.22V3.608c0-1.224.98-2.22 2.187-2.22h8.768a.44.44 0 0 0 .438-.443A.44.44 0 0 0 12.33.5H3.562C1.874.5.5 1.894.5 3.607v6.834c0 1.713 1.374 3.106 3.062 3.106H6.18l1.796 1.823a.434.434 0 0 0 .477.096.444.444 0 0 0 .27-.41l.001-1.509h3.714c1.688 0 3.062-1.393 3.062-3.106V3.597a.44.44 0 0 0-.437-.444Z"/><path fill="#7147E8" fill-rule="evenodd" stroke="#7147E8" stroke-width=".2" d="M14.625 3.607h.875C15.5 1.894 14.127.5 12.438.5v.888c1.206 0 2.187.995 2.187 2.219Z" clip-rule="evenodd"/><path fill="#7147E8" stroke="#7147E8" stroke-width=".2" d="M9.91 5.406a1.87 1.87 0 0 0-1.718-1.742 1.822 1.822 0 0 0-1.394.5A1.899 1.899 0 0 0 6.21 5.54a.44.44 0 0 0 .437.443.44.44 0 0 0 .438-.443c0-.278.11-.536.31-.725.2-.19.462-.283.737-.264a.985.985 0 0 1 .904.917.985.985 0 0 1-.76 1.039.837.837 0 0 0-.652.823v1.066a.44.44 0 0 0 .438.444.44.44 0 0 0 .437-.444v-1.03a1.866 1.866 0 0 0 1.41-1.959Z"/><path fill="#7147E8" stroke="#7147E8" stroke-width=".1" d="M8.368 9.838a.438.438 0 0 0-.309-.13.438.438 0 0 0-.437.443.437.437 0 0 0 .747.314.451.451 0 0 0 0-.627Z"/></svg>