<svg width="50" height="50" viewBox="0 0 50 50" fill="none" xmlns="http://www.w3.org/2000/svg">
<g clip-path="url(#clip0_7238_26082)">
<path d="M45 0C47.7614 0 50 2.23858 50 5V36C50 38.7614 47.7614 41 45 41H5C2.23858 41 0 38.7614 0 36V5C0 2.23858 2.23858 0 5 0H25.5H45Z" fill="#DBEEFF"/>
<path d="M45 0.269775C47.7614 0.269775 50 2.50835 50 5.26978V35.4605C50 38.2219 47.7614 40.4605 45 40.4605H30C27.2386 40.4605 25 38.2219 25 35.4605V5.26978C25 2.50836 27.2386 0.269775 30 0.269775L45 0.269775Z" fill="#B4DCFF"/>
<path d="M50 8V4.35857C50 1.95648 47.8125 0 45.1094 0H4.89063C2.1875 0 0 1.95648 0 4.35857V8H50Z" fill="#AFAFAF"/>
<path d="M5.89453 5.85608C6.72296 5.85608 7.39453 5.18451 7.39453 4.35608C7.39453 3.52765 6.72296 2.85608 5.89453 2.85608C5.0661 2.85608 4.39453 3.52765 4.39453 4.35608C4.39453 5.18451 5.0661 5.85608 5.89453 5.85608Z" fill="white"/>
<path d="M9.81055 5.85608C10.639 5.85608 11.3105 5.18451 11.3105 4.35608C11.3105 3.52765 10.639 2.85608 9.81055 2.85608C8.98212 2.85608 8.31055 3.52765 8.31055 4.35608C8.31055 5.18451 8.98212 5.85608 9.81055 5.85608Z" fill="white"/>
<path d="M13.7363 5.85608C14.5648 5.85608 15.2363 5.18451 15.2363 4.35608C15.2363 3.52765 14.5648 2.85608 13.7363 2.85608C12.9079 2.85608 12.2363 3.52765 12.2363 4.35608C12.2363 5.18451 12.9079 5.85608 13.7363 5.85608Z" fill="white"/>
<path d="M45.0387 5.14393H26.7205C26.4099 5.14393 26.1523 4.88636 26.1523 4.57575C26.1523 4.26514 26.4099 4.00757 26.7205 4.00757H45.0463C45.3569 4.00757 45.6145 4.26514 45.6145 4.57575C45.6145 4.88636 45.3569 5.14393 45.0387 5.14393Z" fill="white"/>
<path d="M16.2675 30.827L10 24.5596L16.2675 18.2921L18.3394 20.3639L14.1438 24.5596L18.3394 28.7552L16.2675 30.827Z" fill="#55C87C"/>
<path d="M32.9782 30.827L30.9062 28.7552L35.1018 24.5596L30.9062 20.3639L32.9782 18.2921L39.2456 24.5596L32.9782 30.827Z" fill="#00A58C"/>
<path d="M30.9883 16.4651L24.6231 27.4892L20.7953 34.1192L18.2578 32.6541L24.6231 21.6299L28.4508 15L30.9883 16.4651Z" fill="#55C87C"/>
<path d="M30.9883 16.4651L24.623 27.4892V21.6299L28.4508 15L30.9883 16.4651Z" fill="#00A58C"/>
<g clip-path="url(#clip1_7238_26082)">
<path fill-rule="evenodd" clip-rule="evenodd" d="M47.7406 50.2558C49.1461 48.4743 49.9563 46.281 49.8354 43.9982C49.7862 43.0313 49.5668 42.0824 49.1908 41.1917C48.5597 39.6922 47.5034 38.4075 46.1829 37.4631C44.6118 36.3396 42.9243 35.8159 41.022 35.5876V31.7919C41.022 31.1965 40.2968 30.7758 39.8582 31.1294L31.376 37.9868C30.8747 38.3896 30.8747 38.9044 31.376 39.3072L39.8537 46.1646C40.2924 46.5182 41.0175 46.0975 41.0175 45.5021V41.3618C42.79 42.0466 44.4193 42.8971 45.7398 44.2981C47.3154 45.9587 47.9733 47.9819 47.7406 50.2558Z" fill="#EF5350"/>
</g>
</g>
<defs>
<clipPath id="clip0_7238_26082">
<rect width="50" height="50" fill="white"/>
</clipPath>
<clipPath id="clip1_7238_26082">
<rect width="22" height="22" fill="white" transform="translate(30 28)"/>
</clipPath>
</defs>
</svg>
