<svg viewBox="0 0 7 10" fill="none" xmlns="http://www.w3.org/2000/svg">
<path d="M1.33423 0.60562C1.20436 0.602763 1.07682 0.640413 0.969343 0.713393C0.861871 0.786372 0.779808 0.891075 0.734562 1.01285C0.689317 1.13462 0.683137 1.26745 0.716883 1.3929C0.750629 1.51835 0.822622 1.63012 0.922856 1.71276L4.74732 4.98912L0.922856 8.26433C0.85352 8.31529 0.795452 8.37999 0.75229 8.45443C0.709128 8.52887 0.681801 8.61144 0.67202 8.69693C0.662239 8.78243 0.670215 8.869 0.695449 8.95126C0.720683 9.03353 0.762631 9.10972 0.818665 9.17503C0.8747 9.24033 0.943615 9.2933 1.02109 9.33074C1.09857 9.36818 1.18295 9.3892 1.26893 9.39252C1.35492 9.39584 1.44066 9.38141 1.52079 9.35006C1.60093 9.3187 1.67372 9.27114 1.73462 9.21035L6.11329 5.46397C6.18205 5.40529 6.23726 5.33246 6.27512 5.25037C6.31299 5.16829 6.33259 5.07894 6.33259 4.98854C6.33259 4.89815 6.31299 4.8088 6.27512 4.72672C6.23726 4.64463 6.18205 4.57173 6.11329 4.51305L1.73462 0.763062C1.62401 0.664813 1.48214 0.609101 1.33423 0.60562Z" fill="currentColor"/>
</svg>
