<svg viewBox="0 0 60 60" fill="none" xmlns="http://www.w3.org/2000/svg">
<rect width="60" height="60" rx="30" fill="white"/>
<rect width="60" height="60" rx="30" stroke="white"/>
<path d="M30.0002 34L26.0002 30M30.0002 34C31.8626 33.2917 33.6493 32.3983 35.3335 31.3333M30.0002 34V40.6667C30.0002 40.6667 34.0402 39.9333 35.3335 38C36.7735 35.84 35.3335 31.3333 35.3335 31.3333M26.0002 30C26.7097 28.1592 27.6031 26.3948 28.6668 24.7333C30.2204 22.2493 32.3837 20.2041 34.9508 18.7921C37.518 17.3802 40.4037 16.6485 43.3335 16.6667C43.3335 20.2933 42.2935 26.6667 35.3335 31.3333M26.0002 30H19.3335C19.3335 30 20.0668 25.96 22.0002 24.6667C24.1602 23.2267 28.6668 24.6667 28.6668 24.6667M20.0002 36C18.0002 37.68 17.3335 42.6667 17.3335 42.6667C17.3335 42.6667 22.3202 42 24.0002 40C24.9468 38.88 24.9335 37.16 23.8802 36.12C23.3619 35.6253 22.6792 35.3395 21.9631 35.3174C21.247 35.2952 20.548 35.5383 20.0002 36Z" stroke="#004EEB" stroke-width="2" stroke-linecap="round" stroke-linejoin="round"/>
</svg>
