<svg viewBox="0 0 89 89" fill="none" xmlns="http://www.w3.org/2000/svg">
<path d="M0 28C0 12.536 12.536 0 28 0H61C76.464 0 89 12.536 89 28V61C89 76.464 76.464 89 61 89H28C12.536 89 0 76.464 0 61V28Z" fill="#F4F3FF"/>
<path d="M56.5991 52.979L51.9754 47.3515L52.777 46.55C53.2986 46.0284 53.5861 45.3349 53.5861 44.5972C53.5861 43.8595 53.2986 43.1657 52.777 42.6443C52.777 42.6441 52.7768 42.6441 52.7768 42.6439L49.3442 39.2116C48.6763 38.5435 47.6393 37.9655 46.5844 37.6225C47.3475 36.8122 47.8167 35.722 47.8167 34.5238C47.8167 32.0295 45.7874 30 43.293 30C40.7985 30 38.7692 32.0295 38.7692 34.5238C38.7692 35.722 39.2382 36.8122 40.0015 37.6225C38.9466 37.9653 37.9095 38.5435 37.2416 39.2116L33.8089 42.6443C33.2872 43.166 33 43.8595 33 44.5972C33 45.3349 33.2872 46.0284 33.8089 46.5498L35.6917 48.4328C36.2133 48.9544 36.9068 49.2416 37.6445 49.2416C37.9935 49.2416 38.3327 49.1773 38.6483 49.0542V57.2383C38.6483 58.7611 39.8873 60 41.41 60C42.1372 60 42.7993 59.7178 43.293 59.257C43.7867 59.7178 44.4489 60 45.1758 60C46.6986 60 47.9375 58.7611 47.9375 57.2383V56.2344H55.0605C56.0312 56.2344 56.7669 55.8561 57.0784 55.1967C57.3901 54.5375 57.2152 53.7291 56.5991 52.979ZM43.293 31.7578C44.8181 31.7578 46.0589 32.9986 46.0589 34.5238C46.0589 36.0489 44.8181 37.2899 43.293 37.2899C41.7678 37.2899 40.527 36.0489 40.527 34.5238C40.527 32.9986 41.7678 31.7578 43.293 31.7578ZM38.3545 47.1897C38.1647 47.3795 37.9127 47.4838 37.6445 47.4838C37.3762 47.4838 37.1242 47.3795 36.9347 47.1897L35.0517 45.3067C34.8622 45.1172 34.7578 44.8652 34.7578 44.5972C34.7578 44.3289 34.8622 44.0769 35.0517 43.8872L38.4847 40.4544C39.2338 39.705 40.8209 39.0477 41.8808 39.0477H44.705C45.765 39.0477 47.3518 39.705 48.1012 40.4544L51.5337 43.8872C51.5339 43.8872 51.5339 43.8872 51.5339 43.8874C51.7237 44.0769 51.828 44.3291 51.828 44.5972C51.828 44.8652 51.7237 45.1174 51.5339 45.3069L49.6512 47.1897C49.2598 47.5813 48.623 47.5813 48.2314 47.1897C48.043 47.0013 47.9387 46.7514 47.9375 46.4852V46.4747C47.9387 46.2085 48.043 45.9586 48.2314 45.7702L48.783 45.2186C48.9478 45.0538 49.0405 44.8302 49.0405 44.5972C49.0405 44.3639 48.9478 44.1403 48.783 43.9755L47.68 42.8728C47.4285 42.6215 47.0508 42.5462 46.7222 42.6821C46.3937 42.8183 46.1797 43.1387 46.1797 43.4942V46.4713C46.1797 46.474 46.1797 46.4772 46.1797 46.4799C46.1797 46.4829 46.1797 46.4859 46.1797 46.4886V46.9453H40.4062V46.49C40.4062 46.4866 40.4062 46.4834 40.4062 46.4799C40.4062 46.4765 40.4062 46.4733 40.4062 46.4699V43.4942C40.4062 43.1387 40.1919 42.8183 39.8637 42.6821C39.5353 42.5462 39.1571 42.6212 38.9058 42.8725L37.8029 43.9755C37.6381 44.1403 37.5454 44.3639 37.5454 44.5969C37.5454 44.8302 37.6381 45.0538 37.8029 45.2186L38.3545 45.7702C38.5426 45.9583 38.6467 46.208 38.6483 46.4738V46.4859C38.6467 46.7519 38.5426 47.0016 38.3545 47.1897ZM46.1797 57.2383C46.1797 57.7917 45.7293 58.2422 45.1758 58.2422C44.6222 58.2422 44.172 57.792 44.172 57.2383V51.59C44.172 51.1045 43.7783 50.7111 43.293 50.7111C42.8076 50.7111 42.4141 51.1045 42.4141 51.59V57.2383C42.4141 57.7917 41.9637 58.2422 41.41 58.2422C40.8566 58.2422 40.4062 57.792 40.4062 57.2383V48.7031H46.1797V57.2383ZM55.0605 54.4766H47.9375V49.0526C48.8576 49.4101 49.9322 49.2565 50.7198 48.5923L55.2409 54.0951C55.3663 54.2477 55.424 54.3592 55.4506 54.4274C55.381 54.4503 55.2581 54.4766 55.0605 54.4766Z" fill="#5925DC"/>
</svg>
