<svg width="50" height="51" viewBox="0 0 50 51" fill="none" xmlns="http://www.w3.org/2000/svg">
<g clip-path="url(#clip0_954_4317)">
<path d="M44.3847 42.7881H5.61518C5.11967 42.7881 4.65766 42.5376 4.38744 42.1222C4.11723 41.7069 4.07524 41.1831 4.27582 40.73L15.5096 15.3686C15.7375 14.8541 16.24 14.5156 16.8024 14.4978L32.6591 13.954C33.2529 13.9338 33.797 14.2754 34.0409 14.8157C37.9361 23.45 41.8286 32.0856 45.7202 40.7216C45.9245 41.1749 45.8848 41.7009 45.615 42.1184C45.3452 42.5359 44.882 42.7881 44.3847 42.7881Z" fill="#FF0059"/>
<path d="M45.7204 40.7215C41.8288 32.0856 37.9363 23.45 34.0411 14.8157C33.7973 14.2754 33.2531 13.9339 32.6594 13.954L24.9473 14.2185V42.7882H44.3849C44.8821 42.7882 45.3453 42.536 45.6152 42.1184C45.885 41.7008 45.9246 41.1749 45.7204 40.7215Z" fill="#D20041"/>
<path d="M29.1504 50.4986H20.7519C20.0042 50.4986 19.3763 49.9354 19.2957 49.1919L17.3426 31.2011C17.2976 30.7875 17.4306 30.3743 17.7086 30.0647C17.9864 29.7551 18.3828 29.5781 18.7988 29.5781H31.1035C31.5195 29.5781 31.9159 29.7551 32.1937 30.0647C32.4717 30.3743 32.6047 30.7875 32.5597 31.2011L30.6066 49.1919C30.526 49.9354 29.8981 50.4986 29.1504 50.4986Z" fill="#4793FF"/>
<path d="M30.2246 32.5757H19.6777C17.3354 32.5757 15.4297 30.6522 15.4297 28.2881V16.5559C15.4297 14.1917 17.3354 12.2683 19.6777 12.2683L28.0711 12.2689C30.7257 12.2692 33.3806 12.2695 36.0352 12.2695C36.0372 10.8436 36.0359 7.67402 36.0354 6.45488L36.0352 5.77539C36.0352 3.75615 37.6779 2.11328 39.6973 2.11328C41.7166 2.11328 43.3594 3.75605 43.3594 5.77539V13.002C43.3594 16.6366 40.4023 19.5938 36.7676 19.5938H34.4727V28.288C34.4727 30.6522 32.567 32.5757 30.2246 32.5757Z" fill="#7DD5F4"/>
<path d="M24.9512 25.4532C24.4973 25.4532 24.0689 25.2428 23.7916 24.8833L21.1548 21.4666C20.8405 21.0594 20.7629 20.5171 20.9504 20.038L23.5871 13.2983C23.8068 12.7367 24.3482 12.3672 24.9512 12.3672C25.5543 12.3672 26.0957 12.7367 26.3154 13.2983L28.9521 20.038C29.1396 20.5171 29.062 21.0593 28.7476 21.4666L26.1109 24.8833C25.8336 25.2427 25.4051 25.4532 24.9512 25.4532Z" fill="#007A9F"/>
<path d="M32.1939 30.0647C31.9161 29.7551 31.5197 29.5781 31.1037 29.5781H24.9473V50.4986H29.1506C29.8983 50.4986 30.5262 49.9354 30.6068 49.1919L32.56 31.2011C32.6049 30.7875 32.4719 30.3743 32.1939 30.0647Z" fill="#525CDD"/>
<path d="M39.6975 2.11328C37.6781 2.11328 36.0354 3.75605 36.0354 5.77539L36.0356 6.45488C36.0361 7.67393 36.0375 10.8436 36.0354 12.2695C33.3808 12.2695 30.7259 12.2692 28.0713 12.2689L24.9473 12.2687V32.5756H30.2248C32.5672 32.5756 34.4729 30.6521 34.4729 28.288V19.5938H36.7678C40.4025 19.5938 43.3596 16.6367 43.3596 13.002V5.77539C43.3596 3.75605 41.7168 2.11328 39.6975 2.11328Z" fill="#4793FF"/>
<path d="M28.9522 20.038L26.3155 13.2983C26.0958 12.7367 25.5544 12.3672 24.9514 12.3672C24.95 12.3672 24.9486 12.3674 24.9473 12.3674V25.453C24.9486 25.453 24.95 25.4532 24.9514 25.4532C25.4053 25.4532 25.8337 25.2428 26.111 24.8833L28.7478 21.4666C29.0621 21.0593 29.1397 20.5171 28.9522 20.038Z" fill="#00607F"/>
<path d="M24.9512 13.6132C21.3358 13.6132 18.3945 10.6719 18.3945 7.05664C18.3945 3.44131 21.3358 0.5 24.9512 0.5C28.5665 0.5 31.5078 3.44131 31.5078 7.05664C31.5078 10.6719 28.5664 13.6132 24.9512 13.6132Z" fill="#FFE4C1"/>
<path d="M24.9514 0.5C24.95 0.5 24.9486 0.500098 24.9473 0.500098V13.6131C24.9486 13.6131 24.95 13.6132 24.9514 13.6132C28.5667 13.6132 31.508 10.6719 31.508 7.05664C31.508 3.44131 28.5666 0.5 24.9514 0.5Z" fill="#FDD1A3"/>
</g>
<defs>
<clipPath id="clip0_954_4317">
<rect width="50" height="50" fill="white" transform="translate(0 0.5)"/>
</clipPath>
</defs>
</svg>
