<svg viewBox="0 0 14 14" fill="none" xmlns="http://www.w3.org/2000/svg">
<path d="M8.16672 13.7079C7.52499 13.7079 7.00002 13.1829 7.00002 12.5413V10.1059L5.37766 8.48705C5.10785 8.21735 4.95831 7.85632 4.95831 7.47351C4.95831 7.09433 5.11148 6.72615 5.37766 6.45634L7.45941 4.37459H6.39845L5.53072 5.24232C5.33749 5.43555 5.08232 5.54129 4.80888 5.54129C4.24738 5.54129 3.78809 5.08189 3.78809 4.52039C3.78809 4.24695 3.89372 3.99178 4.08694 3.79855L5.25365 2.63185C5.44687 2.43863 5.70215 2.33289 5.97559 2.33289H9.26047C9.5667 2.33289 9.86929 2.45689 10.0844 2.67564L11.0286 3.61986C11.2474 3.83861 11.3714 4.13757 11.3714 4.44391V6.41629H12.6839C13.2453 6.41629 13.7047 6.87558 13.7047 7.43709C13.7047 7.9986 13.2453 8.45789 12.6839 8.45789H10.4964C9.85466 8.45789 9.32968 7.93291 9.32968 7.29129V6.53656L8.03181 7.83817L8.99066 8.79701C9.20941 9.01576 9.33331 9.3111 9.33331 9.62096V12.5377C9.33331 13.1829 8.80833 13.7079 8.16672 13.7079ZM6.16144 3.79129H8.87029L5.78963 6.87195C5.6292 7.03238 5.54172 7.25113 5.54172 7.47714C5.54172 7.69963 5.63283 7.91838 5.78963 8.0787L7.57968 9.86887V12.5413C7.57968 12.862 7.84222 13.1246 8.16309 13.1246C8.48384 13.1246 8.74638 12.862 8.74638 12.5413V9.62459C8.74638 9.46779 8.68443 9.32199 8.57506 9.21262L7.20787 7.83817L9.91672 5.12932V7.29129C9.91672 7.61205 10.1792 7.87459 10.5 7.87459H12.6875C12.9282 7.87459 13.125 7.67773 13.125 7.43709C13.125 7.19644 12.9282 6.99959 12.6875 6.99959H10.7917V4.44391C10.7917 4.29074 10.7297 4.1412 10.6203 4.03183L9.67607 3.08762C9.5667 2.97824 9.41716 2.91629 9.2641 2.91629H5.97922C5.86247 2.91629 5.7531 2.96361 5.66925 3.04382L4.50266 4.21053C4.41881 4.29437 4.37502 4.40375 4.37502 4.52039C4.37502 4.76103 4.57187 4.95789 4.81252 4.95789C4.92915 4.95789 5.03853 4.91057 5.12238 4.83035L6.16144 3.79129Z" fill="currentColor"/>
<path d="M3.7917 11.3754C3.48174 11.3754 3.18651 11.2551 2.96776 11.0327L1.21776 9.28265C0.999008 9.0639 0.875 8.76868 0.875 8.45871C0.875 7.81709 1.39998 7.29211 2.0417 7.29211C2.35156 7.29211 2.6469 7.41238 2.86565 7.63477L3.7917 8.56082L4.33858 8.01395L4.75055 8.42592L3.7917 9.38477L2.45367 8.04674C2.3443 7.93736 2.19839 7.87541 2.0417 7.87541C1.72084 7.87541 1.4583 8.13795 1.4583 8.45871C1.4583 8.61551 1.52036 8.76131 1.62973 8.87068L3.37973 10.6207C3.60211 10.8432 3.98492 10.8432 4.20367 10.6207L5.51617 9.30818L5.92815 9.72015L4.61565 11.0327C4.3969 11.2551 4.10156 11.3754 3.7917 11.3754Z" fill="currentColor"/>
<path d="M12.25 3.5C11.2839 3.5 10.5 2.71611 10.5 1.75C10.5 0.78389 11.2839 0 12.25 0C13.2161 0 14 0.78389 14 1.75C14 2.71611 13.2161 3.5 12.25 3.5ZM12.25 0.583298C11.6084 0.583298 11.0833 1.10838 11.0833 1.75C11.0833 2.39162 11.6084 2.9167 12.25 2.9167C12.8916 2.9167 13.4167 2.39162 13.4167 1.75C13.4167 1.10838 12.8916 0.583298 12.25 0.583298Z" fill="currentColor"/>
<path d="M0 4.375H2.625V4.9583H0V4.375Z" fill="currentColor"/>
<path d="M0.875 2.33289H3.7917V2.91629H0.875V2.33289Z" fill="currentColor"/>
</svg>
