<svg width="20" height="20" viewBox="0 0 20 20" fill="none" xmlns="http://www.w3.org/2000/svg">
<path d="M11.6665 17.5H4.1665C3.38993 17.5 3.00165 17.5 2.69536 17.3731C2.28698 17.204 1.96253 16.8795 1.79337 16.4711C1.6665 16.1649 1.6665 15.7766 1.6665 15C1.6665 14.2234 1.6665 13.8351 1.79337 13.5289C1.96253 13.1205 2.28698 12.796 2.69536 12.6269C3.00165 12.5 3.38993 12.5 4.1665 12.5H15.8332C16.6097 12.5 16.998 12.5 17.3043 12.6269C17.7127 12.796 18.0371 13.1205 18.2063 13.5289C18.3332 13.8351 18.3332 14.2234 18.3332 15C18.3332 15.7766 18.3332 16.1649 18.2063 16.4711C18.0371 16.8795 17.7127 17.204 17.3043 17.3731C16.998 17.5 16.6097 17.5 15.8332 17.5H14.9998" stroke="white" stroke-width="1.5" stroke-linecap="round"/>
<path d="M1.6665 10C1.6665 9.22343 1.6665 8.83515 1.79337 8.52886C1.96253 8.12048 2.28698 7.79602 2.69536 7.62687C3.00165 7.5 3.38993 7.5 4.1665 7.5H15.8332C16.6097 7.5 16.998 7.5 17.3043 7.62687C17.7127 7.79602 18.0371 8.12048 18.2063 8.52886C18.3332 8.83515 18.3332 9.22343 18.3332 10C18.3332 10.7766 18.3332 11.1649 18.2063 11.4711C18.0371 11.8795 17.7127 12.204 17.3043 12.3731C16.998 12.5 16.6097 12.5 15.8332 12.5H4.1665C3.38993 12.5 3.00165 12.5 2.69536 12.3731C2.28698 12.204 1.96253 11.8795 1.79337 11.4711C1.6665 11.1649 1.6665 10.7766 1.6665 10Z" stroke="white" stroke-width="1.5"/>
<path d="M8.33317 2.5H15.8332C16.6097 2.5 16.998 2.5 17.3043 2.62687C17.7127 2.79602 18.0371 3.12048 18.2063 3.52886C18.3332 3.83515 18.3332 4.22343 18.3332 5C18.3332 5.77657 18.3332 6.16485 18.2063 6.47114C18.0371 6.87952 17.7127 7.20398 17.3043 7.37313C16.998 7.5 16.6097 7.5 15.8332 7.5H4.1665C3.38993 7.5 3.00165 7.5 2.69536 7.37313C2.28698 7.20398 1.96253 6.87952 1.79337 6.47114C1.6665 6.16485 1.6665 5.77657 1.6665 5C1.6665 4.22343 1.6665 3.83515 1.79337 3.52886C1.96253 3.12048 2.28698 2.79602 2.69536 2.62687C3.00165 2.5 3.38993 2.5 4.1665 2.5H4.99984" stroke="white" stroke-width="1.5" stroke-linecap="round"/>
<ellipse cx="4.16683" cy="9.99935" rx="0.833333" ry="0.833333" fill="white"/>
<ellipse cx="4.16683" cy="4.99935" rx="0.833333" ry="0.833333" fill="white"/>
<ellipse cx="4.16683" cy="14.9993" rx="0.833333" ry="0.833333" fill="white"/>
</svg>
