<svg xmlns="http://www.w3.org/2000/svg" xml:space="preserve" width="512" height="512" style="enable-background:new 0 0 512 512" viewBox="0 0 32 32"><g xmlns="http://www.w3.org/2000/svg" fill="#7147E8" data-name="Layer 2"><path d="M26.4 31H9.77a2.69 2.69 0 0 1-2.69-2.69V3.69A2.69 2.69 0 0 1 9.77 1h7.63a2.78 2.78 0 0 1 1.85.71l8.9 8a2.79 2.79 0 0 1 .93 2.08v16.52A2.69 2.69 0 0 1 26.4 31zM9.77 3a.69.69 0 0 0-.69.69v24.62a.69.69 0 0 0 .69.69H26.4a.69.69 0 0 0 .69-.69V11.74a.78.78 0 0 0-.26-.58l-8.9-8A.78.78 0 0 0 17.4 3z" data-original="#000000"/><path d="M28.08 11.94h-8.81a2.19 2.19 0 0 1-2.19-2.19V2.56h2v7.19a.19.19 0 0 0 .19.19h8.81z" data-original="#000000"/><rect width="10" height="2" x="13.42" y="24" data-original="#000000" rx="1"/><rect width="4" height="2" x="13.42" y="19.69" data-original="#000000" rx="1"/><path d="M5.41 26.66a2.52 2.52 0 0 1-2.49-2.51V7.85a2.5 2.5 0 0 1 3-2.45l2.15.36-.33 2-2.17-.39a.53.53 0 0 0-.46.09.5.5 0 0 0-.19.39v16.3a.51.51 0 0 0 .61.49l2.26-.3.26 2-2.19.29a2.11 2.11 0 0 1-.45.03z" data-original="#000000"/></g></svg>