<svg viewBox="0 0 18 17" fill="none" xmlns="http://www.w3.org/2000/svg">
<path fill-rule="evenodd" clip-rule="evenodd" d="M3.16669 1.83366C2.94567 1.83366 2.73371 1.92146 2.57743 2.07774C2.42115 2.23402 2.33335 2.44598 2.33335 2.66699V14.3337C2.33335 14.5547 2.42115 14.7666 2.57743 14.9229C2.73371 15.0792 2.94567 15.167 3.16669 15.167H4.00002V9.33366C4.00002 8.87342 4.37312 8.50033 4.83335 8.50033H13.1667C13.6269 8.50033 14 8.87342 14 9.33366V15.167H14.8334C15.0544 15.167 15.2663 15.0792 15.4226 14.9229C15.5789 14.7666 15.6667 14.5547 15.6667 14.3337V5.51217L11.9882 1.83366H5.66669V4.33366H11.5C11.9603 4.33366 12.3334 4.70675 12.3334 5.16699C12.3334 5.62723 11.9603 6.00033 11.5 6.00033H4.83335C4.37312 6.00033 4.00002 5.62723 4.00002 5.16699V1.83366H3.16669ZM3.16669 0.166992C2.50365 0.166992 1.86776 0.430384 1.39892 0.899225C0.930079 1.36807 0.666687 2.00395 0.666687 2.66699V14.3337C0.666687 14.9967 0.930079 15.6326 1.39892 16.1014C1.86776 16.5703 2.50365 16.8337 3.16669 16.8337H14.8334C15.4964 16.8337 16.1323 16.5703 16.6011 16.1014C17.07 15.6326 17.3334 14.9967 17.3334 14.3337V5.16699C17.3334 4.94598 17.2456 4.73402 17.0893 4.57774L12.9226 0.41107C12.7663 0.25479 12.5544 0.166992 12.3334 0.166992H3.16669ZM12.3334 15.167V10.167H5.66669V15.167H12.3334Z" fill="#2E90FA"/>
</svg>