<svg width="16" height="16" viewBox="0 0 16 16" fill="none" xmlns="http://www.w3.org/2000/svg">
<path d="M13.2621 3.06497C14.0321 3.57493 15.0686 3.36495 15.5786 2.595C16.0886 1.82504 15.8786 0.788452 15.1086 0.278484C14.3387 -0.231484 13.3021 -0.0214973 12.7921 0.748455C12.4222 1.30842 12.4222 2.03503 12.7921 2.595L9.94565 5.44147C9.929 5.45813 9.91565 5.47813 9.90565 5.50147C8.71239 4.36489 6.8225 4.41154 5.68592 5.60812C5.66258 5.63477 5.63927 5.65812 5.61592 5.68477L3.4494 4.44819C3.49274 4.30486 3.51274 4.16155 3.51605 4.01156C3.52605 3.08162 2.77944 2.31501 1.8495 2.30501C0.91956 2.29501 0.152921 3.04166 0.142922 3.9716C0.132922 4.90154 0.879532 5.66815 1.80947 5.67815C2.32944 5.6848 2.82607 5.44816 3.14939 5.04153L5.22592 6.22811C4.59596 7.3647 4.7726 8.77795 5.66589 9.72455L3.56602 11.8178C3.39603 11.7244 3.20604 11.6744 3.01605 11.6744C2.37275 11.6744 1.84947 12.1977 1.84947 12.841C1.84947 13.4843 2.37278 14.0076 3.01605 14.0076C3.65933 14.0076 4.18264 13.4843 4.18264 12.841C4.18264 12.6477 4.13264 12.4577 4.0393 12.291L6.16917 10.1578C7.25245 10.8911 8.68567 10.8378 9.70895 10.0212L11.4755 12.0844C10.5989 13.0277 10.6555 14.5009 11.5988 15.3775C12.5421 16.2541 14.0153 16.1975 14.892 15.2542C15.7686 14.3109 15.7119 12.8377 14.7686 11.9611C14.3353 11.5611 13.7687 11.3411 13.1821 11.3411C12.7654 11.3411 12.3555 11.4544 11.9955 11.6677L10.1823 9.55453C11.0156 8.52459 11.0689 7.06803 10.3156 5.9781C10.3523 5.96144 10.3856 5.9381 10.4156 5.91144L13.2621 3.06497ZM14.182 0.675115C14.7354 0.675115 15.182 1.12174 15.182 1.67505C15.182 2.22836 14.7354 2.67499 14.182 2.67499C13.6287 2.67499 13.1821 2.22836 13.1821 1.67505C13.1821 1.12174 13.6287 0.675115 14.182 0.675115ZM1.84947 5.00819C1.29616 5.00819 0.849534 4.56156 0.849534 4.00825C0.849534 3.45494 1.29616 3.00831 1.84947 3.00831C2.40278 3.00831 2.84941 3.45494 2.84941 4.00825C2.84941 4.56156 2.39944 5.00819 1.84947 5.00819ZM3.01609 13.341C2.73945 13.341 2.51612 13.1177 2.51612 12.841C2.51612 12.5644 2.73945 12.3411 3.01609 12.3411C3.29272 12.3411 3.51605 12.5644 3.51605 12.841C3.51605 13.1177 3.28938 13.341 3.01609 13.341ZM13.1821 12.0078C14.102 12.0078 14.8487 12.7544 14.8487 13.6743C14.8453 14.5942 14.102 15.3375 13.1821 15.3409C12.2622 15.3409 11.5156 14.5942 11.5156 13.6743C11.5156 12.7544 12.2622 12.0078 13.1821 12.0078ZM7.8491 10.0079C6.55918 10.0079 5.5159 8.9646 5.5159 7.67468C5.5159 6.38476 6.55918 5.34148 7.8491 5.34148C9.13902 5.34148 10.1823 6.38476 10.1823 7.67468C10.179 8.96129 9.1357 10.0045 7.8491 10.0079Z" fill="#7147E8"/>
</svg>
