<svg width="12" height="12" viewBox="0 0 12 12" fill="none" xmlns="http://www.w3.org/2000/svg">
<path d="M4.19301 4.50727L4.74705 4.90976L5.99992 4.29312L7.25282 4.90976L7.80681 4.50724L7.60752 3.12513L8.58112 2.12414L8.36955 1.47284L6.99348 1.23527L6.34232 0H5.65752L5.00636 1.2353L3.63034 1.47286L3.4187 2.12414L4.39234 3.12513L4.19301 4.50727ZM4.34078 2.06372L5.46697 1.86931L5.99992 0.858305L6.53282 1.86931L7.65904 2.06372L6.86219 2.88298L7.02531 4.01414L5.99992 3.50946L4.97453 4.01414L5.13765 2.88298L4.34078 2.06372Z" fill="#175CD3"/>
<path d="M11.2734 11.2966V8.66406H7.99219V6.78906H4.00781V8.07813H0.726562V11.2966H0V11.9997H12V11.2966H11.2734ZM10.5703 9.36719V11.2966H7.99219V9.36719H10.5703ZM7.28906 7.49219V11.2966H4.71094V7.49219H7.28906ZM1.42969 8.78125H4.00781V11.2966H1.42969V8.78125Z" fill="#175CD3"/>
</svg>
