<svg viewBox="0 0 89 89" fill="none" xmlns="http://www.w3.org/2000/svg">
<path d="M0 28C0 12.536 12.536 0 28 0H61C76.464 0 89 12.536 89 28V61C89 76.464 76.464 89 61 89H28C12.536 89 0 76.464 0 61V28Z" fill="#ECFDF3"/>
<path fill-rule="evenodd" clip-rule="evenodd" d="M33.2711 49.4134C31.704 47.8132 30.6411 45.7882 30.2143 43.5895C29.7839 41.3847 30.0049 39.1023 30.8503 37.021C31.6884 34.9514 33.1194 33.1756 34.9635 31.9165C38.705 29.3612 43.6305 29.3612 47.3719 31.9165C49.2161 33.1756 50.647 34.9514 51.4851 37.021C52.3306 39.1023 52.5516 41.3847 52.1211 43.5895C51.6944 45.7882 50.6315 47.8132 49.0643 49.4134C46.989 51.543 44.1415 52.7442 41.1676 52.7442C38.194 52.7442 35.3464 51.543 33.2711 49.4134Z" stroke="#027A48" stroke-width="1.5" stroke-linecap="round" stroke-linejoin="round"/>
<path d="M41.6224 34.4343C40.876 34.5134 40.3352 35.1826 40.4142 35.9289C40.4933 36.6753 41.1625 37.2163 41.9089 37.1372L41.6224 34.4343ZM44.9771 38.9448C45.2697 39.636 46.0672 39.9591 46.7585 39.6665C47.4496 39.3739 47.7726 38.5764 47.48 37.8852L44.9771 38.9448ZM50.6314 48.7202C50.1003 48.19 49.2398 48.1907 48.7096 48.722C48.1792 49.2531 48.1801 50.1136 48.7112 50.6438L50.6314 48.7202ZM57.6815 59.6033C58.2128 60.1337 59.0731 60.133 59.6035 59.6017C60.1336 59.0704 60.1329 58.2101 59.6016 57.6797L57.6815 59.6033ZM41.9089 37.1372C43.218 36.9985 44.4639 37.7324 44.9771 38.9448L47.48 37.8852C46.5003 35.5707 44.1218 34.1695 41.6224 34.4343L41.9089 37.1372ZM48.7112 50.6438L57.6815 59.6033L59.6016 57.6797L50.6314 48.7202L48.7112 50.6438Z" fill="#027A48"/>
<path d="M41.6224 34.4343C40.876 34.5134 40.3352 35.1826 40.4142 35.9289C40.4933 36.6753 41.1625 37.2163 41.9089 37.1372M41.6224 34.4343L41.9089 37.1372M41.6224 34.4343C44.1218 34.1695 46.5003 35.5707 47.48 37.8852M41.9089 37.1372C43.218 36.9985 44.4639 37.7324 44.9771 38.9448M44.9771 38.9448C45.2697 39.636 46.0672 39.9591 46.7585 39.6665C47.4496 39.3739 47.7726 38.5764 47.48 37.8852M44.9771 38.9448L47.48 37.8852M50.6314 48.7202C50.1003 48.19 49.2398 48.1907 48.7096 48.722C48.1792 49.2531 48.1801 50.1136 48.7112 50.6438M50.6314 48.7202L48.7112 50.6438M50.6314 48.7202L59.6016 57.6797M48.7112 50.6438L57.6815 59.6033M57.6815 59.6033C58.2128 60.1337 59.0731 60.133 59.6035 59.6017C60.1336 59.0704 60.1329 58.2101 59.6016 57.6797M57.6815 59.6033L59.6016 57.6797" stroke="#027A48" stroke-width="0.2"/>
</svg>
