<svg width="55" height="55" viewBox="0 0 55 55" fill="none" xmlns="http://www.w3.org/2000/svg">
<g clip-path="url(#clip0_1401_140822)">
<path d="M51.2364 49.0936H3.76363C1.68502 49.0936 0 47.4086 0 45.33V11.1406H55V45.33C55 47.4086 53.315 49.0936 51.2364 49.0936Z" fill="white"/>
<path d="M51.68 11.1406V45.3289C51.68 47.4081 49.9954 49.0936 47.9175 49.0936H51.2374C53.3153 49.0936 54.9999 47.4081 54.9999 45.3289V11.1406H51.68Z" fill="#E6E6E6"/>
<path d="M55 14.7645H0V9.66988C0 7.59127 1.68502 5.90625 3.76363 5.90625H51.2364C53.315 5.90625 55 7.59127 55 9.66988V14.7645Z" fill="#8C9EFF"/>
<path d="M51.2374 5.90625H47.9175C49.9954 5.90625 51.68 7.59181 51.68 9.67096V14.7644H54.9999V9.67096C54.9999 7.59181 53.3153 5.90625 51.2374 5.90625Z" fill="#7488ED"/>
<path d="M6.25257 11.5452C7.23046 11.5452 8.0232 10.7524 8.0232 9.77454C8.0232 8.79665 7.23046 8.00391 6.25257 8.00391C5.27467 8.00391 4.48193 8.79665 4.48193 9.77454C4.48193 10.7524 5.27467 11.5452 6.25257 11.5452Z" fill="#BDF9FF"/>
<path d="M12.5604 11.5452C13.5383 11.5452 14.3311 10.7524 14.3311 9.77454C14.3311 8.79665 13.5383 8.00391 12.5604 8.00391C11.5825 8.00391 10.7898 8.79665 10.7898 9.77454C10.7898 10.7524 11.5825 11.5452 12.5604 11.5452Z" fill="#FFCA28"/>
<path d="M18.8683 11.5452C19.8462 11.5452 20.6389 10.7524 20.6389 9.77454C20.6389 8.79665 19.8462 8.00391 18.8683 8.00391C17.8904 8.00391 17.0977 8.79665 17.0977 9.77454C17.0977 10.7524 17.8904 11.5452 18.8683 11.5452Z" fill="#FF3D7A"/>
<path d="M40.8904 20.3535H47.9729C48.418 20.3535 48.7786 19.9928 48.7786 19.5479C48.7786 19.1029 48.418 18.7422 47.9729 18.7422H40.8904C40.4453 18.7422 40.0847 19.1029 40.0847 19.5479C40.0847 19.9928 40.4454 20.3535 40.8904 20.3535Z" fill="#FF3D7A"/>
<path d="M47.9729 22.2852H40.8904C40.4453 22.2852 40.0847 22.6459 40.0847 23.0908C40.0847 23.5358 40.4453 23.8965 40.8904 23.8965H47.9729C48.418 23.8965 48.7786 23.5358 48.7786 23.0908C48.7786 22.6459 48.418 22.2852 47.9729 22.2852Z" fill="#FF3D7A"/>
<path d="M9.2405 42.2031H5.92041C5.47536 42.2031 5.11475 42.5638 5.11475 43.0088C5.11475 43.4537 5.47536 43.8145 5.92041 43.8145H9.24039C9.68544 43.8145 10.0461 43.4537 10.0461 43.0088C10.0461 42.5638 9.68544 42.2031 9.2405 42.2031Z" fill="#FF3D7A"/>
<path d="M40.6261 44.7396C39.9778 45.3879 38.9268 45.3879 38.2786 44.7396L30.0623 36.5233L32.4097 34.1758L40.6261 42.3922C41.2744 43.0403 41.2744 44.0914 40.6261 44.7396Z" fill="#FF3D7A"/>
<path d="M24.9547 41.0168C31.3721 41.0168 36.5744 35.8145 36.5744 29.3971C36.5744 22.9797 31.3721 17.7773 24.9547 17.7773C18.5373 17.7773 13.335 22.9797 13.335 29.3971C13.335 35.8145 18.5373 41.0168 24.9547 41.0168Z" fill="#8C9EFF"/>
<path d="M24.9547 17.7773C24.391 17.7773 23.8369 17.8183 23.2947 17.8959C28.9256 18.7015 33.2544 23.5434 33.2544 29.3971C33.2544 35.2507 28.9256 40.0926 23.2947 40.8982C23.8369 40.9757 24.3909 41.0168 24.9547 41.0168C31.3721 41.0168 36.5744 35.8144 36.5744 29.3971C36.5744 22.9797 31.3721 17.7773 24.9547 17.7773Z" fill="#7488ED"/>
<path d="M24.9546 37.6973C29.5385 37.6973 33.2545 33.9814 33.2545 29.3975C33.2545 24.8136 29.5385 21.0977 24.9546 21.0977C20.3707 21.0977 16.6548 24.8136 16.6548 29.3975C16.6548 33.9814 20.3707 37.6973 24.9546 37.6973Z" fill="#BDF9FF"/>
</g>
<defs>
<clipPath id="clip0_1401_140822">
<rect width="55" height="55" fill="white"/>
</clipPath>
</defs>
</svg>
