<svg viewBox="0 0 59 55" fill="none" xmlns="http://www.w3.org/2000/svg">
<path d="M0.44043 47.007V41.9612C0.44043 41.165 1.12008 40.5195 1.95848 40.5195H48.2589C49.0973 40.5195 49.7769 41.165 49.7769 41.9612V47.007C49.7769 47.8032 49.0973 48.4486 48.2589 48.4486H1.95848C1.12008 48.4486 0.44043 47.8032 0.44043 47.007Z" fill="#72D8FF"/>
<path fill-rule="evenodd" clip-rule="evenodd" d="M46.6405 10.9833H4.57957C3.35696 10.9833 2.36584 11.9744 2.36584 13.197V44.4384C2.36584 45.661 3.35696 46.6521 4.57957 46.6521H46.6405C47.8632 46.6521 48.8543 45.661 48.8543 44.4384V13.197C48.8543 11.9744 47.8632 10.9833 46.6405 10.9833ZM4.57957 8.76953C2.13435 8.76953 0.1521 10.7518 0.1521 13.197V44.4384C0.1521 46.8836 2.13435 48.8658 4.57957 48.8658H46.6405C49.0858 48.8658 51.068 46.8836 51.068 44.4384V13.197C51.068 10.7518 49.0858 8.76953 46.6405 8.76953H4.57957Z" fill="black"/>
<path fill-rule="evenodd" clip-rule="evenodd" d="M0 39.6381C0 39.0268 0.495562 38.5312 1.10687 38.5312H50.1134C50.7247 38.5312 51.2203 39.0268 51.2203 39.6381C51.2203 40.2494 50.7247 40.745 50.1134 40.745H1.10687C0.495562 40.745 0 40.2494 0 39.6381Z" fill="black"/>
<path fill-rule="evenodd" clip-rule="evenodd" d="M6.42456 19.1811C6.42456 18.5698 6.92012 18.0742 7.53143 18.0742L20.0759 18.0742C20.6872 18.0742 21.1828 18.5698 21.1828 19.1811C21.1828 19.7924 20.6872 20.288 20.0759 20.288L7.53143 20.288C6.92012 20.288 6.42456 19.7924 6.42456 19.1811Z" fill="#292929"/>
<path fill-rule="evenodd" clip-rule="evenodd" d="M6.42456 25.0873C6.42456 24.476 6.92012 23.9805 7.53143 23.9805L17.1243 23.9805C17.7356 23.9805 18.2312 24.476 18.2312 25.0873C18.2312 25.6986 17.7356 26.1942 17.1243 26.1942L7.53143 26.1942C6.92012 26.1942 6.42456 25.6986 6.42456 25.0873Z" fill="#292929"/>
<path fill-rule="evenodd" clip-rule="evenodd" d="M6.42456 30.2514C6.42456 29.6401 6.92012 29.1445 7.53143 29.1445L17.1243 29.1445C17.7356 29.1445 18.2312 29.6401 18.2312 30.2514C18.2312 30.8627 17.7356 31.3583 17.1243 31.3583L7.53143 31.3583C6.92012 31.3583 6.42456 30.8627 6.42456 30.2514Z" fill="#292929"/>
<path d="M23.0277 29.8803C23.0277 30.4916 22.5321 30.9872 21.9208 30.9872C21.3095 30.9872 20.814 30.4916 20.814 29.8803C20.814 29.269 21.3095 28.7734 21.9208 28.7734C22.5321 28.7734 23.0277 29.269 23.0277 29.8803Z" fill="#292929"/>
<path fill-rule="evenodd" clip-rule="evenodd" d="M13.6836 53.3217C13.6836 52.7104 14.1792 52.2148 14.7905 52.2148H36.4297C37.041 52.2148 37.5366 52.7104 37.5366 53.3217C37.5366 53.933 37.041 54.4286 36.4297 54.4286H14.7905C14.1792 54.4286 13.6836 53.933 13.6836 53.3217Z" fill="black"/>
<path fill-rule="evenodd" clip-rule="evenodd" d="M21.9575 43.7748C21.9575 43.1635 22.4531 42.668 23.0644 42.668H28.156C28.7673 42.668 29.2628 43.1635 29.2628 43.7748C29.2628 44.3861 28.7673 44.8817 28.156 44.8817H23.0644C22.4531 44.8817 21.9575 44.3861 21.9575 43.7748Z" fill="black"/>
<path fill-rule="evenodd" clip-rule="evenodd" d="M29.7154 46.5445C30.2953 46.3512 30.9221 46.6646 31.1154 47.2446L33.0248 52.9726C33.2181 53.5525 32.9047 54.1794 32.3247 54.3727C31.7448 54.566 31.118 54.2526 30.9247 53.6726L29.0153 47.9446C28.822 47.3647 29.1354 46.7378 29.7154 46.5445Z" fill="black"/>
<path fill-rule="evenodd" clip-rule="evenodd" d="M21.5051 46.5445C20.9252 46.3512 20.2983 46.6646 20.105 47.2446L18.1957 52.9726C18.0024 53.5525 18.3158 54.1794 18.8957 54.3727C19.4757 54.566 20.1025 54.2526 20.2958 53.6726L22.2052 47.9446C22.3985 47.3647 22.085 46.7378 21.5051 46.5445Z" fill="black"/>
<path fill-rule="evenodd" clip-rule="evenodd" d="M34.4653 15.1641C37.0878 12.5408 50.2843 25.7453 51.7308 27.1918L57.9152 33.3767C59.3617 34.8232 59.3616 37.1685 57.915 38.615C56.4684 40.0614 54.1232 40.0614 52.6767 38.6148L46.4923 32.43C45.0458 30.9834 31.5519 18.0775 34.4653 15.1641Z" fill="#FF5D5D"/>
<path fill-rule="evenodd" clip-rule="evenodd" d="M36.6942 17.5119C36.792 17.5616 36.8948 17.6159 37.0029 17.6751C38.4414 18.4626 40.2512 19.8029 42.1269 21.3566C45.8446 24.436 49.4389 28.0306 50.1637 28.7555L56.3498 34.942C56.9318 35.524 56.9317 36.4676 56.3497 37.0496C55.7677 37.6315 54.8241 37.6315 54.2421 37.0495L48.0577 30.8647C47.9641 30.771 47.8269 30.636 47.6525 30.4644C46.4075 29.239 43.2657 26.1469 40.5341 22.9174C38.965 21.0625 37.6292 19.2745 36.8643 17.8439C36.8018 17.727 36.7453 17.6164 36.6942 17.5119ZM51.725 27.186C50.2495 25.7105 37.0843 12.5443 34.4653 15.1641C31.7268 17.9026 43.485 29.47 46.1077 32.0502C46.2752 32.215 46.4055 32.3431 46.4923 32.43L52.6767 38.6148C54.1232 40.0614 56.4684 40.0614 57.915 38.615C59.3616 37.1685 59.3617 34.8232 57.9152 33.3767L51.725 27.186Z" fill="black"/>
<path d="M42.9511 13.2839C42.9511 18.9894 38.3258 23.6147 32.6203 23.6147C26.9148 23.6147 22.2896 18.9894 22.2896 13.2839C22.2896 7.57837 26.9148 2.95312 32.6203 2.95312C38.3258 2.95312 42.9511 7.57837 42.9511 13.2839Z" fill="#72D8FF"/>
<path fill-rule="evenodd" clip-rule="evenodd" d="M32.6205 26.5648C39.9562 26.5648 45.903 20.6181 45.903 13.2824C45.903 5.94674 39.9562 0 32.6205 0C25.2849 0 19.3381 5.94674 19.3381 13.2824C19.3381 20.6181 25.2849 26.5648 32.6205 26.5648Z" fill="white"/>
<path fill-rule="evenodd" clip-rule="evenodd" d="M32.6205 24.3511C38.7336 24.3511 43.6892 19.3955 43.6892 13.2824C43.6892 7.16935 38.7336 2.21374 32.6205 2.21374C26.5075 2.21374 21.5519 7.16935 21.5519 13.2824C21.5519 19.3955 26.5075 24.3511 32.6205 24.3511ZM45.903 13.2824C45.903 20.6181 39.9562 26.5648 32.6205 26.5648C25.2849 26.5648 19.3381 20.6181 19.3381 13.2824C19.3381 5.94674 25.2849 0 32.6205 0C39.9562 0 45.903 5.94674 45.903 13.2824Z" fill="#292929"/>
<path fill-rule="evenodd" clip-rule="evenodd" d="M32.6206 22.1357C37.511 22.1357 41.4755 18.1712 41.4755 13.2807C41.4755 8.39027 37.511 4.42578 32.6206 4.42578C27.7301 4.42578 23.7656 8.39027 23.7656 13.2807C23.7656 18.1712 27.7301 22.1357 32.6206 22.1357Z" fill="#72D8FF"/>
<path fill-rule="evenodd" clip-rule="evenodd" d="M32.6206 19.9219C36.2884 19.9219 39.2618 16.9486 39.2618 13.2807C39.2618 9.61289 36.2884 6.63952 32.6206 6.63952C28.9527 6.63952 25.9794 9.61289 25.9794 13.2807C25.9794 16.9486 28.9527 19.9219 32.6206 19.9219ZM41.4755 13.2807C41.4755 18.1712 37.511 22.1357 32.6206 22.1357C27.7301 22.1357 23.7656 18.1712 23.7656 13.2807C23.7656 8.39027 27.7301 4.42578 32.6206 4.42578C37.511 4.42578 41.4755 8.39027 41.4755 13.2807Z" fill="#292929"/>
<path fill-rule="evenodd" clip-rule="evenodd" d="M36.7912 10.6239C37.1511 10.9947 37.1302 11.5758 36.7445 11.9219L30.2922 17.7111L27.0208 14.776C26.6351 14.4299 26.6142 13.8488 26.9741 13.4779C27.3341 13.1071 27.9385 13.087 28.3242 13.4331L30.2922 15.1988L35.4411 10.579C35.8268 10.2329 36.4313 10.253 36.7912 10.6239Z" fill="#292929"/>
</svg>
