<svg width="14" height="15" viewBox="0 0 14 15" fill="#37352f" xmlns="http://www.w3.org/2000/svg">
<path d="M13.8086 12.1051L11.0824 9.37891C10.9594 9.25586 10.7926 9.1875 10.6176 9.1875H10.1719C10.9266 8.22227 11.375 7.0082 11.375 5.6875C11.375 2.5457 8.8293 0 5.6875 0C2.5457 0 0 2.5457 0 5.6875C0 8.8293 2.5457 11.375 5.6875 11.375C7.0082 11.375 8.22227 10.9266 9.1875 10.1719V10.6176C9.1875 10.7926 9.25586 10.9594 9.37891 11.0824L12.1051 13.8086C12.3621 14.0656 12.7777 14.0656 13.032 13.8086L13.8059 13.0348C14.0629 12.7777 14.0629 12.3621 13.8086 12.1051ZM5.6875 9.1875C3.7543 9.1875 2.1875 7.62344 2.1875 5.6875C2.1875 3.7543 3.75156 2.1875 5.6875 2.1875C7.6207 2.1875 9.1875 3.75156 9.1875 5.6875C9.1875 7.6207 7.62344 9.1875 5.6875 9.1875Z" fill="#37352f"/>
</svg>
