
<svg viewBox="0 0 16 16" fill="none" xmlns="http://www.w3.org/2000/svg">
<path fill-rule="evenodd" clip-rule="evenodd" d="M7.66927 1.83301C4.44761 1.83301 1.83594 4.44468 1.83594 7.66634C1.83594 10.888 4.44761 13.4997 7.66927 13.4997C10.8909 13.4997 13.5026 10.888 13.5026 7.66634C13.5026 4.44468 10.8909 1.83301 7.66927 1.83301ZM0.835938 7.66634C0.835938 3.8924 3.89533 0.833008 7.66927 0.833008C11.4432 0.833008 14.5026 3.8924 14.5026 7.66634C14.5026 11.4403 11.4432 14.4997 7.66927 14.4997C3.89533 14.4997 0.835938 11.4403 0.835938 7.66634Z" fill="currentColor"/>
<path fill-rule="evenodd" clip-rule="evenodd" d="M12.9824 12.9795C13.1776 12.7842 13.4942 12.7842 13.6895 12.9795L15.0228 14.3128C15.2181 14.508 15.2181 14.8246 15.0228 15.0199C14.8276 15.2152 14.511 15.2152 14.3157 15.0199L12.9824 13.6866C12.7871 13.4913 12.7871 13.1747 12.9824 12.9795Z" fill="currentColor"/>
</svg>
