<svg viewBox="0 0 75 65" fill="none" xmlns="http://www.w3.org/2000/svg">
<path d="M3.26465 15.4849V3.8736V2.21484H53.5801V15.4849H3.26465Z" fill="white"/>
<rect x="2" y="1.5" width="52.2917" height="52.2917" rx="3.5" fill="white" stroke="#020288" stroke-width="3"/>
<path d="M3.81763 15.4805L53.5802 15.4805" stroke="#020288" stroke-width="3" stroke-linecap="round"/>
<circle cx="9.34668" cy="8.84448" r="2.21167" fill="#FF7C50"/>
<circle cx="15.9817" cy="8.84448" r="2.21167" fill="#FEB019"/>
<circle cx="22.6167" cy="8.84448" r="2.21167" fill="#48CA9E"/>
<path d="M34.781 8.84375L46.9452 8.84375" stroke="#020288" stroke-width="3" stroke-linecap="round"/>
<path d="M14.8424 21.4313C14.7523 21.4507 14.5979 21.4957 14.4885 21.5279C13.2465 21.9655 12.4292 22.86 12.0817 24.1342C11.9851 24.501 11.9851 29.4819 12.0817 29.8487C12.4163 31.0778 13.1885 31.9337 14.3984 32.4099C14.9003 32.603 16.2002 32.603 16.7022 32.4099C17.8605 31.953 18.7229 30.9941 18.9931 29.8422C19.1283 29.2824 19.1283 24.6361 18.9931 24.1148C18.6778 22.8793 17.9185 22.0556 16.6121 21.5214C16.4126 21.4442 15.132 21.3799 14.8424 21.4313ZM16.3547 23.5292C16.7086 23.7545 16.8695 23.9411 17.024 24.3079C17.1527 24.6039 17.1591 24.7326 17.1527 26.9785C17.1462 29.5205 17.1462 29.5398 16.7987 30.0353C16.5284 30.4214 16.1037 30.6145 15.5503 30.608C15.0612 30.608 14.7652 30.4986 14.4498 30.1897C13.9736 29.7264 13.9736 29.7457 13.9543 27.0879C13.935 24.4559 13.9479 24.3272 14.3083 23.9025C14.6944 23.4585 15.0162 23.3233 15.6468 23.3491C16.0007 23.3619 16.1552 23.4005 16.3547 23.5292Z" fill="#020288"/>
<path d="M37.8163 21.4323C36.6965 21.6318 35.6154 22.5005 35.2164 23.5173C34.9333 24.2252 34.9204 24.386 34.9204 26.9795C34.9268 28.9036 34.9462 29.56 35.0169 29.856C35.3065 31.0594 36.2718 32.0697 37.5267 32.4687C37.8613 32.5781 39.0583 32.5781 39.3929 32.4687C40.3453 32.1663 41.2463 31.4262 41.6131 30.6476C41.9863 29.8496 41.9992 29.7273 41.9992 26.9859C41.9992 24.5984 41.9735 24.1479 41.7997 23.7232C41.3557 22.6292 40.7314 22.0243 39.5216 21.5224C39.3286 21.4451 38.1187 21.3808 37.8163 21.4323ZM39.2771 23.5366C39.6053 23.7425 39.8627 24.0578 39.9785 24.3925C40.1072 24.7657 40.1072 29.264 39.9785 29.5729C39.8176 29.959 39.5152 30.3065 39.2063 30.4674C38.8266 30.6604 38.1638 30.6862 37.8098 30.5188C37.4881 30.3644 37.1534 30.0169 36.9926 29.6694C36.8574 29.3862 36.851 29.3026 36.851 26.9988C36.851 24.74 36.8574 24.6048 36.9861 24.3088C37.1341 23.9549 37.3015 23.7554 37.6297 23.5495C37.9385 23.35 38.0351 23.3307 38.5563 23.35C38.9103 23.3628 39.0647 23.4015 39.2771 23.5366Z" fill="#020288"/>
<path d="M5.84585 21.7547C5.35677 22.1408 5.30528 22.72 5.73001 23.1898C5.9295 23.4086 6.12256 23.4729 6.76609 23.5115L7.34526 23.5502L7.36457 27.6623L7.37744 31.7744L7.54475 31.9932C7.92443 32.4952 8.5937 32.5466 9.01199 32.109C9.30801 31.7873 9.30801 31.8388 9.30801 26.9737C9.30801 21.8963 9.32088 22.0765 8.90259 21.7547C8.68379 21.5874 8.68379 21.5874 7.371 21.5874H6.05821L5.84585 21.7547Z" fill="#020288"/>
<path d="M22.2365 21.7366C21.8117 22.0198 21.6895 22.5282 21.9404 22.9658C22.1528 23.339 22.4746 23.4806 23.1631 23.5063L23.723 23.5321L23.7294 27.6249C23.7294 31.4088 23.7423 31.737 23.8453 31.9172C24.1477 32.4385 24.8749 32.5672 25.3061 32.1682C25.3511 32.1296 25.4476 32.0009 25.5184 31.8786C25.6536 31.6598 25.6536 31.5955 25.6536 27.02C25.6536 21.8911 25.6664 22.0777 25.2482 21.756C25.0294 21.5886 25.0229 21.5886 23.7423 21.5886C22.5067 21.5886 22.4488 21.5951 22.2365 21.7366Z" fill="#020288"/>
<path d="M28.7554 21.7563C28.5366 21.9301 28.3564 22.2776 28.3564 22.5221C28.3564 22.7216 28.5173 23.082 28.6589 23.2107C28.8648 23.3973 29.3153 23.5196 29.8108 23.5196H30.287V27.6188C30.287 31.6023 30.2935 31.731 30.4157 31.9369C30.8147 32.5869 31.7607 32.5354 32.0889 31.8404C32.2176 31.5701 32.2176 31.4607 32.2176 26.9496C32.2112 21.8078 32.2305 22.0459 31.7736 21.737C31.5612 21.5954 31.5033 21.589 30.2613 21.589C28.9678 21.589 28.9678 21.589 28.7554 21.7563Z" fill="#020288"/>
<path d="M45.1782 21.7111C44.9144 21.872 44.6763 22.361 44.7278 22.6313C44.8436 23.2234 45.2297 23.4743 46.0727 23.5065L46.6326 23.5323V27.58C46.6326 31.7758 46.6326 31.808 46.9029 32.104C47.2568 32.4966 47.939 32.4966 48.2929 32.104C48.5632 31.8016 48.5632 31.808 48.5632 26.9558C48.5632 21.8076 48.5825 22.0779 48.1578 21.7561C47.939 21.5888 47.9325 21.5888 46.6583 21.5888C45.5129 21.5888 45.3584 21.6017 45.1782 21.7111Z" fill="#020288"/>
<path d="M15.3571 35.8697C14.2889 36.0756 13.2979 36.8672 12.8217 37.8904C12.5385 38.5146 12.5256 38.6176 12.5256 41.4169C12.5256 43.9588 12.5321 44.1133 12.6608 44.5058C13.0919 45.8315 14.1151 46.726 15.473 46.9834C16.567 47.1893 17.7253 46.8161 18.549 45.9924C19.0124 45.529 19.3534 44.9112 19.5079 44.2742C19.6366 43.7272 19.643 39.1066 19.5079 38.5597C19.3599 37.9419 19.0381 37.3691 18.5426 36.8672C18.1179 36.4425 17.7897 36.2365 17.0689 35.9469C16.8308 35.8504 15.7304 35.7989 15.3571 35.8697ZM16.7407 37.9161C17.0754 38.0834 17.41 38.4631 17.5451 38.8171C17.6674 39.1388 17.6738 39.3254 17.6738 41.3912C17.6738 42.9163 17.6481 43.7014 17.5966 43.8816C17.4808 44.2806 17.1912 44.6667 16.8501 44.8662C16.5863 45.0206 16.4833 45.0464 16.0329 45.0464C15.5888 45.04 15.4794 45.0206 15.2542 44.8726C14.9131 44.6538 14.6235 44.2999 14.527 43.991C14.482 43.8237 14.4562 42.9678 14.4562 41.3912C14.4562 38.8171 14.4626 38.7591 14.8616 38.2829C15.0483 38.0641 15.4859 37.826 15.7754 37.7874C16.065 37.7488 16.5219 37.8132 16.7407 37.9161Z" fill="#020288"/>
<path d="M24.7526 35.8685C23.5235 36.0808 22.4166 37.0075 22.0176 38.1594C21.8181 38.7257 21.7988 39.0539 21.7988 41.4414C21.7988 44.0734 21.8181 44.2794 22.1399 44.9872C22.7641 46.3515 24.3729 47.2331 25.808 47.0079C27.2495 46.7762 28.3628 45.8238 28.7746 44.4595C28.9098 44.0026 28.9162 38.8866 28.7746 38.4361C28.4271 37.2714 27.6099 36.4026 26.5159 36.0165C26.0911 35.862 25.2095 35.7913 24.7526 35.8685ZM26.1426 37.9664C26.2906 38.0565 26.4901 38.2173 26.5802 38.3267C26.9342 38.745 26.9406 38.7836 26.9406 41.4092C26.9406 44.1056 26.9406 44.0863 26.5159 44.5625C26.2263 44.8843 25.9753 45.0065 25.5248 45.058C24.8234 45.1288 24.2378 44.807 23.9289 44.1764L23.7551 43.8225L23.7358 41.5572C23.7165 39.6074 23.7294 39.247 23.8259 38.9317C23.9868 38.3718 24.4244 37.9406 24.9778 37.7991C25.2932 37.7154 25.853 37.7926 26.1426 37.9664Z" fill="#020288"/>
<path d="M5.9103 36.1323C5.46627 36.4026 5.32469 36.956 5.5821 37.4194C5.79446 37.7926 6.02613 37.8956 6.73401 37.9342L7.34536 37.9664L7.37754 42.1171C7.40328 45.3798 7.42902 46.3 7.49337 46.4159C7.73148 46.8342 8.49727 46.9564 8.90269 46.6475C9.32099 46.3258 9.30812 46.506 9.30812 41.4285C9.30812 36.5635 9.30812 36.615 9.01209 36.2932C8.75468 36.0229 8.64528 36.0036 7.36467 36.0036C6.2385 36.0036 6.10336 36.0165 5.9103 36.1323Z" fill="#020288"/>
<path d="M31.8444 36.1017C31.3553 36.3655 31.188 36.9447 31.4518 37.4209C31.6577 37.7877 31.8959 37.8971 32.6037 37.9358L33.2151 37.9679L33.2473 42.0865C33.2794 45.864 33.2859 46.2244 33.3953 46.411C33.5433 46.6877 33.8071 46.8164 34.219 46.8164C34.4764 46.8164 34.6051 46.7778 34.7724 46.6491C35.1907 46.3273 35.1778 46.5075 35.1778 41.4365C35.1778 36.9512 35.1778 36.8353 35.0491 36.565C34.959 36.3784 34.8303 36.2368 34.6694 36.1467C34.4378 36.0116 34.3412 36.0052 33.2086 36.0116C32.3528 36.018 31.9473 36.0438 31.8444 36.1017Z" fill="#020288"/>
<path d="M38.6849 36.124C38.2409 36.3943 38.08 36.7868 38.2345 37.2244C38.4275 37.7779 38.7171 37.9323 39.5279 37.9323H40.0685V41.9801C40.0685 46.4461 40.0556 46.3303 40.4739 46.6456C40.7828 46.8837 41.2848 46.8837 41.5937 46.6456C42.0184 46.3239 41.9991 46.5942 41.9991 41.3945C41.9991 36.7997 41.9927 36.671 41.8704 36.4651C41.613 36.0403 41.465 36.0017 40.1007 36.0017C39.0196 36.0017 38.8522 36.0146 38.6849 36.124Z" fill="#020288"/>
<path d="M45.2039 36.1433C45.043 36.2334 44.9143 36.3814 44.8242 36.5745C44.7019 36.8383 44.6955 36.9027 44.7598 37.1601C44.9143 37.7264 45.2682 37.9323 46.0919 37.9323H46.6325V42.0187C46.6325 46.5298 46.6132 46.3239 47.0379 46.6456C47.3468 46.8837 47.8488 46.8837 48.1577 46.6456C48.5824 46.3239 48.5631 46.5942 48.5631 41.446C48.5631 36.5938 48.5631 36.6002 48.2928 36.2977C48.0483 36.0275 47.8938 36.0017 46.6389 36.0017C45.5321 36.0017 45.4227 36.0146 45.2039 36.1433Z" fill="#020288"/>
<path d="M54.7744 44.8203L70.5 60.5459" stroke="#C7CFE1" stroke-width="3" stroke-linecap="round"/>
<circle cx="45.2965" cy="35.7965" r="10" stroke="#020288" stroke-width="11.5929"/>
<circle cx="45" cy="35.5" r="10.5" fill="white"/>
<circle cx="45" cy="35.5" r="10.5" stroke="#4CAF50"/>
<path d="M39.4185 35.9557L42.7095 39.0268L49.9967 32.2266" stroke="#4CAF50" stroke-width="2" stroke-linecap="round"/>
<path d="M63.5 54L70.5125 61.013" stroke="#020288" stroke-width="7" stroke-linecap="round"/>
</svg>
