<svg width="17" height="16" viewBox="0 0 17 16" fill="none" xmlns="http://www.w3.org/2000/svg">
<g clip-path="url(#clip0_18842_21978)">
<path d="M16.2108 14.862L11.5824 10.312C12.4789 9.22336 13.0187 7.84 13.0187 6.33334C13.0187 2.84134 10.1284 0 6.57622 0C3.02406 0 0.133789 2.84131 0.133789 6.33331C0.133789 9.82528 3.02409 12.6666 6.57626 12.6666C8.10887 12.6666 9.51609 12.136 10.6235 11.2546L15.2519 15.8046C15.3841 15.9346 15.5577 16 15.7314 16C15.9049 16 16.0785 15.9346 16.2108 15.8046C16.476 15.544 16.476 15.1226 16.2108 14.862ZM6.57626 11.3333C3.7714 11.3333 1.49011 9.09064 1.49011 6.33331C1.49011 3.57597 3.7714 1.33331 6.57626 1.33331C9.38108 1.33331 11.6624 3.57597 11.6624 6.33331C11.6624 9.09064 9.38108 11.3333 6.57626 11.3333Z" fill="#37352F" fill-opacity="0.3"/>
</g>
<defs>
<clipPath id="clip0_18842_21978">
<rect width="16.2759" height="16" fill="white" transform="translate(0.133789)"/>
</clipPath>
</defs>
</svg>
