<svg viewBox="0 0 89 89" fill="none" xmlns="http://www.w3.org/2000/svg">
<path d="M0 28C0 12.536 12.536 0 28 0H61C76.464 0 89 12.536 89 28V61C89 76.464 76.464 89 61 89H28C12.536 89 0 76.464 0 61V28Z" fill="#EEF4FF"/>
<g clip-path="url(#clip0_6758_35318)">
<path fill-rule="evenodd" clip-rule="evenodd" d="M29.625 31C29.1419 31 28.75 31.3919 28.75 31.875C28.75 32.3581 29.1419 32.75 29.625 32.75H50.875C51.3581 32.75 51.75 32.3581 51.75 31.875C51.75 31.3919 51.3581 31 50.875 31H29.625ZM47.75 37.25C43.4757 37.25 40 40.7257 40 45C40 49.2743 43.4757 52.75 47.75 52.75C49.5724 52.75 51.2496 52.1182 52.5742 51.062L57.7565 56.2443L57.7574 56.2452C57.9282 56.4142 58.152 56.5 58.3758 56.5C58.5993 56.5 58.8238 56.4143 58.9938 56.2443C59.3352 55.9029 59.3352 55.3484 58.9938 55.007L53.8116 49.8248C54.868 48.5001 55.5 46.8227 55.5 45C55.5 40.7257 52.0243 37.25 47.75 37.25ZM52.0544 49.1758C53.1033 48.0948 53.75 46.6215 53.75 45C53.75 41.6918 51.0582 39 47.75 39C44.4418 39 41.75 41.6918 41.75 45C41.75 48.3082 44.4418 51 47.75 51C49.3712 51 50.8444 50.3535 51.9253 49.3048C51.9443 49.2814 51.9647 49.2588 51.9865 49.237C52.0083 49.2152 52.031 49.1948 52.0544 49.1758ZM29.625 57.25C29.1419 57.25 28.75 57.6419 28.75 58.125C28.75 58.6081 29.1419 59 29.625 59H50.875C51.3581 59 51.75 58.6081 51.75 58.125C51.75 57.6419 51.3581 57.25 50.875 57.25H29.625ZM29.625 37.25C29.1419 37.25 28.75 37.6419 28.75 38.125C28.75 38.6081 29.1419 39 29.625 39H39.625C40.1081 39 40.5 38.6081 40.5 38.125C40.5 37.6419 40.1081 37.25 39.625 37.25H29.625ZM29.625 51C29.1419 51 28.75 51.3919 28.75 51.875C28.75 52.3581 29.1419 52.75 29.625 52.75H39.625C40.1081 52.75 40.5 52.3581 40.5 51.875C40.5 51.3919 40.1081 51 39.625 51H29.625ZM29.625 44.125C29.1419 44.125 28.75 44.5169 28.75 45C28.75 45.4831 29.1419 45.875 29.625 45.875H37.125C37.6081 45.875 38 45.4831 38 45C38 44.5169 37.6081 44.125 37.125 44.125H29.625Z" fill="#3538CD"/>
</g>
<defs>
<clipPath id="clip0_6758_35318">
<rect width="30" height="30" fill="white" transform="translate(29 30)"/>
</clipPath>
</defs>
</svg>
