<svg viewBox="0 0 89 89" fill="none" xmlns="http://www.w3.org/2000/svg">
<path d="M0 28C0 12.536 12.536 0 28 0H61C76.464 0 89 12.536 89 28V61C89 76.464 76.464 89 61 89H28C12.536 89 0 76.464 0 61V28Z" fill="#F4F3FF"/>
<path d="M51.7172 37.617H31.685C30.8787 37.617 30.2227 36.961 30.2227 36.1546V31.2624C30.2227 30.4561 30.8787 29.8 31.685 29.8H51.7172C52.5236 29.8 53.1796 30.4561 53.1796 31.2624V36.1546C53.1796 36.961 52.5236 37.617 51.7172 37.617ZM31.685 30.6217C31.3317 30.6217 31.0443 30.9091 31.0443 31.2624V36.1546C31.0443 36.508 31.3317 36.7954 31.685 36.7954H51.7172C52.0706 36.7954 52.358 36.508 52.358 36.1546V31.2624C52.358 30.9091 52.0706 30.6217 51.7172 30.6217H31.685Z" fill="#470BDF"/>
<path d="M35.0108 35.258H33.4201C33.0043 35.258 32.666 34.9197 32.666 34.5037V32.9131C32.666 32.4973 33.0043 32.1591 33.4201 32.1591H35.0108C35.4266 32.1591 35.7649 32.4973 35.7649 32.9131V34.5037C35.7649 34.9197 35.4266 35.258 35.0108 35.258ZM33.4876 34.4363H34.9433V32.9807H33.4876V34.4363Z" fill="#470BDF"/>
<path d="M39.3878 35.258H37.797C37.3812 35.258 37.043 34.9197 37.043 34.5037V32.9131C37.043 32.4973 37.3812 32.1591 37.797 32.1591H39.3878C39.8036 32.1591 40.1419 32.4973 40.1419 32.9131V34.5037C40.1419 34.9197 39.8036 35.258 39.3878 35.258ZM37.8646 34.4363H39.3202V32.9807H37.8646V34.4363Z" fill="#470BDF"/>
<path d="M50.3277 34.1194H49.9909C49.764 34.1194 49.5801 33.9354 49.5801 33.7085C49.5801 33.4816 49.764 33.2977 49.9909 33.2977H50.3277C50.5546 33.2977 50.7385 33.4816 50.7385 33.7085C50.7385 33.9354 50.5546 34.1194 50.3277 34.1194Z" fill="#470BDF"/>
<path d="M47.867 34.1194H43.3327C43.1058 34.1194 42.9219 33.9354 42.9219 33.7085C42.9219 33.4816 43.1058 33.2977 43.3327 33.2977H47.867C48.0939 33.2977 48.2778 33.4816 48.2778 33.7085C48.2778 33.9354 48.0939 34.1194 47.867 34.1194Z" fill="#470BDF"/>
<path d="M32.5925 39.8192C32.3655 39.8192 32.1816 39.6353 32.1816 39.4084V37.2061C32.1816 36.9792 32.3655 36.7953 32.5925 36.7953C32.8194 36.7953 33.0033 36.9792 33.0033 37.2061V39.4084C33.0033 39.6353 32.8194 39.8192 32.5925 39.8192Z" fill="#470BDF"/>
<path d="M44.202 46.8141H31.6872C30.8808 46.8141 30.2246 46.1579 30.2246 45.3515V40.4613C30.2246 39.6549 30.8808 38.9989 31.6872 38.9989H51.7182C52.5246 38.9989 53.1807 39.6549 53.1807 40.4613V41.6542C53.1807 41.8812 52.9968 42.0651 52.7699 42.0651C52.543 42.0651 52.3591 41.8812 52.3591 41.6542V40.4613C52.3591 40.1079 52.0716 39.8205 51.7182 39.8205H31.6872C31.3338 39.8205 31.0462 40.1079 31.0462 40.4613V45.3515C31.0462 45.7049 31.3338 45.9925 31.6872 45.9925H44.202C44.4289 45.9925 44.6128 46.1764 44.6128 46.4033C44.6128 46.6302 44.4289 46.8141 44.202 46.8141Z" fill="#470BDF"/>
<path d="M35.0108 44.4555H33.4201C33.0043 44.4555 32.666 44.1172 32.666 43.7014V42.1108C32.666 41.6948 33.0043 41.3566 33.4201 41.3566H35.0108C35.4266 41.3566 35.7649 41.6948 35.7649 42.1108V43.7014C35.7649 44.1172 35.4266 44.4555 35.0108 44.4555ZM33.4876 43.6338H34.9433V42.1782H33.4876V43.6338Z" fill="#470BDF"/>
<path d="M39.3878 44.4555H37.797C37.3812 44.4555 37.043 44.1172 37.043 43.7014V42.1108C37.043 41.6948 37.3812 41.3566 37.797 41.3566H39.3878C39.8036 41.3566 40.1419 41.6948 40.1419 42.1108V43.7014C40.1419 44.1172 39.8036 44.4555 39.3878 44.4555ZM37.8646 43.6338H39.3202V42.1782H37.8646V43.6338Z" fill="#470BDF"/>
<path d="M50.3277 43.317H49.9909C49.764 43.317 49.5801 43.1331 49.5801 42.9062C49.5801 42.6793 49.764 42.4954 49.9909 42.4954H50.3277C50.5546 42.4954 50.7385 42.6793 50.7385 42.9062C50.7385 43.1331 50.5546 43.317 50.3277 43.317Z" fill="#470BDF"/>
<path d="M47.867 43.317H43.3327C43.1058 43.317 42.9219 43.1331 42.9219 42.9062C42.9219 42.6793 43.1058 42.4954 43.3327 42.4954H47.867C48.0939 42.4954 48.2778 42.6793 48.2778 42.9062C48.2778 43.1331 48.0939 43.317 47.867 43.317Z" fill="#470BDF"/>
<path d="M32.5925 49.017C32.3655 49.017 32.1816 48.8331 32.1816 48.6062V46.4039C32.1816 46.1769 32.3655 45.993 32.5925 45.993C32.8194 45.993 33.0033 46.1769 33.0033 46.4039V48.6062C33.0033 48.8331 32.8194 49.017 32.5925 49.017Z" fill="#470BDF"/>
<path d="M45.1584 56.013H31.6872C30.8808 56.013 30.2246 55.357 30.2246 54.5506V49.657C30.2246 48.8506 30.8808 48.1946 31.6872 48.1946H44.202C44.4289 48.1946 44.6128 48.3785 44.6128 48.6054C44.6128 48.8323 44.4289 49.0162 44.202 49.0162H31.6872C31.3338 49.0162 31.0462 49.3036 31.0462 49.657V54.5506C31.0462 54.904 31.3338 55.1914 31.6872 55.1914H45.1584C45.3853 55.1914 45.5692 55.3753 45.5692 55.6022C45.5692 55.8291 45.3853 56.013 45.1584 56.013Z" fill="#470BDF"/>
<path d="M35.0108 53.6532H33.4201C33.0043 53.6532 32.666 53.3149 32.666 52.8992V51.3084C32.666 50.8926 33.0043 50.5543 33.4201 50.5543H35.0108C35.4266 50.5543 35.7649 50.8926 35.7649 51.3084V52.8992C35.7649 53.3149 35.4266 53.6532 35.0108 53.6532ZM33.4876 52.8316H34.9433V51.3759H33.4876V52.8316Z" fill="#470BDF"/>
<path d="M39.3878 53.6532H37.797C37.3812 53.6532 37.043 53.3149 37.043 52.8992V51.3084C37.043 50.8926 37.3812 50.5543 37.797 50.5543H39.3878C39.8036 50.5543 40.1419 50.8926 40.1419 51.3084V52.8992C40.1419 53.3149 39.8036 53.6532 39.3878 53.6532ZM37.8646 52.8316H39.3202V51.3759H37.8646V52.8316Z" fill="#470BDF"/>
<path d="M44.268 52.5162H43.3346C43.1077 52.5162 42.9238 52.3323 42.9238 52.1054C42.9238 51.8785 43.1077 51.6946 43.3346 51.6946H44.268C44.4949 51.6946 44.6788 51.8785 44.6788 52.1054C44.6788 52.3323 44.4949 52.5162 44.268 52.5162Z" fill="#470BDF"/>
<path d="M52.7706 60.2C52.7372 60.2 52.704 60.196 52.6714 60.1878C51.891 59.9938 51.1498 59.716 50.4681 59.3623C47.6102 57.8792 45.7637 54.5301 45.7637 50.8303V45.2747C45.7637 45.1521 45.8184 45.0359 45.9131 44.9579C46.0076 44.8798 46.1321 44.848 46.2525 44.8713C46.8578 44.9883 47.5 45.0476 48.1608 45.0476C49.9657 45.0476 51.6323 44.6015 52.5106 43.8836C52.6618 43.76 52.8794 43.76 53.0305 43.8836C53.9088 44.6015 55.5755 45.0476 57.3803 45.0476C58.041 45.0476 58.6832 44.9883 59.2887 44.8713C59.4095 44.8482 59.5337 44.8799 59.6282 44.9579C59.7227 45.0359 59.7775 45.1521 59.7775 45.2747V50.8303C59.7775 54.5301 57.9309 57.8792 55.073 59.3623C54.3912 59.716 53.65 59.9938 52.8697 60.1878C52.8372 60.196 52.8039 60.2 52.7706 60.2ZM46.5853 45.76V50.8303C46.5853 54.2269 48.2579 57.2896 50.8465 58.6331C51.4422 58.9422 52.089 59.1882 52.7706 59.3654C53.4519 59.1882 54.0988 58.9422 54.6946 58.633C57.2832 57.2896 58.9558 54.2269 58.9558 50.8303V45.76C58.4467 45.8325 57.9187 45.8693 57.3803 45.8693C55.5243 45.8693 53.8337 45.4414 52.7706 44.7139C51.7074 45.4414 50.0168 45.8693 48.1608 45.8693C47.6223 45.8693 47.0943 45.8325 46.5853 45.76Z" fill="#470BDF"/>
<path d="M54.4307 51.3045C54.2038 51.3045 54.0199 51.1206 54.0199 50.8937V48.8375C54.0199 48.148 53.459 47.5871 52.7695 47.5871C52.0799 47.5871 51.5189 48.148 51.5189 48.8375V50.8937C51.5189 51.1206 51.335 51.3045 51.1081 51.3045C50.8812 51.3045 50.6973 51.1206 50.6973 50.8937V48.8375C50.6973 47.695 51.6269 46.7655 52.7695 46.7655C53.912 46.7655 54.8415 47.695 54.8415 48.8375V50.8937C54.8415 51.1206 54.6576 51.3045 54.4307 51.3045Z" fill="#470BDF"/>
<path d="M54.7112 56.568H50.8294C50.0586 56.568 49.4316 55.9411 49.4316 55.1703V51.8806C49.4316 51.1099 50.0586 50.4829 50.8294 50.4829H54.7112C55.482 50.4829 56.1089 51.1099 56.1089 51.8806V55.1703C56.1089 55.9411 55.482 56.568 54.7112 56.568ZM50.8294 51.3045C50.5116 51.3045 50.2533 51.5629 50.2533 51.8806V55.1703C50.2533 55.4881 50.5116 55.7464 50.8294 55.7464H54.7112C55.0289 55.7464 55.2873 55.4881 55.2873 55.1703V51.8806C55.2873 51.5629 55.0289 51.3045 54.7112 51.3045H50.8294Z" fill="#470BDF"/>
<path d="M52.7691 53.8437C52.3827 53.8437 52.0684 53.5293 52.0684 53.143C52.0684 52.7566 52.3827 52.4423 52.7691 52.4423C53.1554 52.4423 53.4698 52.7566 53.4698 53.143C53.4698 53.5293 53.1554 53.8437 52.7691 53.8437ZM52.7691 53.022C52.7024 53.022 52.6481 53.0763 52.6481 53.143C52.6481 53.2096 52.7024 53.2639 52.7691 53.2639C52.8357 53.2639 52.89 53.2096 52.89 53.143C52.89 53.0763 52.8357 53.022 52.7691 53.022Z" fill="#470BDF"/>
<path d="M52.7702 54.6085C52.5433 54.6085 52.3594 54.4246 52.3594 54.1977V53.4329C52.3594 53.206 52.5433 53.0221 52.7702 53.0221C52.9971 53.0221 53.181 53.206 53.181 53.4329V54.1977C53.181 54.4246 52.9971 54.6085 52.7702 54.6085Z" fill="#470BDF"/>
</svg>
