
<svg viewBox="0 0 16 21" fill="none" xmlns="http://www.w3.org/2000/svg">
<path fill-rule="evenodd" clip-rule="evenodd" d="M15.6 1.60899C15.6 1.21758 15.2823 0.899902 14.8909 0.899902H0.709091C0.317673 0.899902 0 1.21758 0 1.60899V20.0454C0 20.4368 0.317673 20.7544 0.709091 20.7544H14.8909C15.2823 20.7544 15.6 20.4368 15.6 20.0454V1.60899ZM14.1818 2.31808V19.3363H1.41818V2.31808H14.1818ZM7.8 9.40899C5.4522 9.40899 3.54545 11.3157 3.54545 13.6635C3.54545 16.0113 5.4522 17.9181 7.8 17.9181C10.1478 17.9181 12.0545 16.0113 12.0545 13.6635C12.0545 11.3157 10.1478 9.40899 7.8 9.40899ZM7.09091 10.9165C5.86844 11.2321 4.96364 12.3432 4.96364 13.6635C4.96364 15.2292 6.23433 16.4999 7.8 16.4999C9.12033 16.4999 10.2315 15.5951 10.547 14.3726H7.8C7.40858 14.3726 7.09091 14.055 7.09091 13.6635V10.9165ZM5.67273 7.99081H9.92727C10.3187 7.99081 10.6364 7.67314 10.6364 7.28172C10.6364 6.8903 10.3187 6.57263 9.92727 6.57263H5.67273C5.28131 6.57263 4.96364 6.8903 4.96364 7.28172C4.96364 7.67314 5.28131 7.99081 5.67273 7.99081ZM4.25455 5.15445H11.3455C11.7369 5.15445 12.0545 4.83678 12.0545 4.44536C12.0545 4.05394 11.7369 3.73627 11.3455 3.73627H4.25455C3.86313 3.73627 3.54545 4.05394 3.54545 4.44536C3.54545 4.83678 3.86313 5.15445 4.25455 5.15445Z" fill="currentColor"/>
</svg>
