<svg viewBox="0 0 32 32" fill="none" xmlns="http://www.w3.org/2000/svg">
  <rect width="32" height="32" rx="6" fill="#D32F2F"/>
  <path d="M8 12C8 9.79086 9.79086 8 12 8H20C22.2091 8 24 9.79086 24 12V20C24 22.2091 22.2091 24 20 24H12C9.79086 24 8 22.2091 8 20V12Z" fill="white"/>
  <path d="M12 14C12 12.8954 12.8954 12 14 12H18C19.1046 12 20 12.8954 20 14V18C20 19.1046 19.1046 20 18 20H14C12.8954 20 12 19.1046 12 18V14Z" fill="#D32F2F"/>
  <path d="M14 15C14 14.4477 14.4477 14 15 14H17C17.5523 14 18 14.4477 18 15V17C18 17.5523 17.5523 18 17 18H15C14.4477 18 14 17.5523 14 17V15Z" fill="white"/>
  <path d="M16 10L18 12H14L16 10Z" fill="white"/>
</svg> 