<svg viewBox="0 0 20 21" fill="none" xmlns="http://www.w3.org/2000/svg">
<path d="M0.898539 10.8784C0.809964 5.48445 6.36483 1.43467 11.4711 3.12853C11.5497 3.15179 11.6343 3.14324 11.7067 3.10473C11.7791 3.06622 11.8334 3.00083 11.8581 2.92264C11.8827 2.84445 11.8756 2.75972 11.8384 2.68668C11.8012 2.61364 11.7368 2.55815 11.659 2.53214C4.81612 0.266638 -1.86648 7.35808 0.867392 14.0529C0.898636 14.1285 0.95828 14.1888 1.03352 14.2209C1.10875 14.2531 1.19358 14.2544 1.26979 14.2247C1.346 14.1949 1.40751 14.1365 1.44111 14.0619C1.47472 13.9873 1.47774 13.9025 1.44953 13.8258C1.08376 12.8862 0.896886 11.8866 0.898539 10.8784Z" fill="#292929" stroke="black" stroke-width="0.4"/>
<path d="M3.22273 16.5675C3.18931 16.5329 3.1482 16.5066 3.10273 16.4908C3.05727 16.4751 3.00873 16.4702 2.96105 16.4767C2.91336 16.4831 2.86786 16.5007 2.82824 16.528C2.78862 16.5553 2.75598 16.5916 2.73297 16.6339L2.7406 16.4674L4.07814 16.4058C4.15996 16.4006 4.23647 16.3635 4.29119 16.3025C4.34592 16.2414 4.37447 16.1613 4.37071 16.0795C4.36694 15.9976 4.33116 15.9204 4.27107 15.8647C4.21097 15.8089 4.13138 15.779 4.04944 15.7814L2.42699 15.8562C2.35052 15.8634 2.27897 15.8971 2.22465 15.9514C2.17032 16.0057 2.1366 16.0772 2.1293 16.1537L2.05483 17.7763C2.05237 17.8583 2.08225 17.938 2.13801 17.9981C2.19378 18.0583 2.27096 18.0941 2.3529 18.0979C2.43485 18.1017 2.51499 18.0731 2.57604 18.0183C2.63708 17.9635 2.67413 17.8869 2.6792 17.805L2.71991 16.918C3.10584 17.357 3.54776 17.7435 4.03433 18.0675C4.10241 18.1146 4.18639 18.1327 4.26785 18.118C4.34931 18.1033 4.42159 18.0568 4.46884 17.9888C4.51609 17.9208 4.53443 17.8369 4.51986 17.7554C4.50529 17.6739 4.45898 17.6015 4.3911 17.5541C3.97164 17.2625 3.58047 16.9322 3.22273 16.5675Z" fill="#292929" stroke="black" stroke-width="0.4"/>
<path d="M17.0943 7.49253C17.0616 7.41719 17.0004 7.35778 16.9242 7.32717C16.848 7.29657 16.7627 7.29723 16.687 7.32901C16.6112 7.3608 16.551 7.42115 16.5194 7.49699C16.4878 7.57284 16.4874 7.65807 16.5182 7.73424C19.24 14.1814 12.907 20.8862 6.3153 18.5401C6.23756 18.514 6.15266 18.5195 6.07893 18.5554C6.0052 18.5913 5.94855 18.6548 5.9212 18.7321C5.89386 18.8094 5.898 18.8944 5.93276 18.9687C5.96751 19.043 6.03008 19.1006 6.10696 19.1292C13.2074 21.6573 20.0262 14.4326 17.0943 7.49253Z" fill="#292929" stroke="black" stroke-width="0.4"/>
<path d="M13.3504 3.99892C13.8656 4.32411 14.3429 4.7058 14.7735 5.13692C14.8062 5.17038 14.8461 5.19586 14.8902 5.21141C14.9344 5.22695 14.9815 5.23213 15.0279 5.22655C15.0744 5.22097 15.1189 5.20478 15.1581 5.17923C15.1973 5.15368 15.2301 5.11946 15.2539 5.07921L15.2472 5.2263L13.9097 5.28768C13.8289 5.29258 13.7533 5.32855 13.6985 5.38805C13.6438 5.44755 13.6142 5.52595 13.616 5.60679C13.6178 5.68763 13.6509 5.76461 13.7083 5.82159C13.7657 5.87857 13.8429 5.9111 13.9237 5.91236C13.9329 5.91538 15.5492 5.83606 15.5608 5.8376C15.6375 5.8307 15.7093 5.79709 15.7637 5.74265C15.8181 5.68821 15.8516 5.6164 15.8585 5.53974L15.933 3.91743C15.9354 3.83544 15.9056 3.75576 15.8498 3.6956C15.794 3.63543 15.7168 3.5996 15.6349 3.59584C15.5529 3.59208 15.4728 3.62068 15.4118 3.67548C15.3507 3.73028 15.3137 3.80688 15.3086 3.88876L15.268 4.77399C15.2547 4.7451 15.2371 4.71846 15.2157 4.69502C14.7522 4.23104 14.2383 3.82027 13.6837 3.47035C13.649 3.44837 13.6103 3.43345 13.5698 3.42645C13.5293 3.41945 13.4879 3.42049 13.4478 3.42953C13.4077 3.43857 13.3698 3.45543 13.3363 3.47913C13.3027 3.50283 13.2742 3.53292 13.2522 3.56767C13.2303 3.60242 13.2155 3.64115 13.2086 3.68165C13.2016 3.72214 13.2028 3.7636 13.2119 3.80366C13.221 3.84371 13.2379 3.88158 13.2617 3.91508C13.2855 3.94859 13.3156 3.97708 13.3504 3.99892Z" fill="#292929" stroke="black" stroke-width="0.4"/>
<path d="M9.0235 8.87895C9.42523 8.87651 9.81818 8.99636 10.1502 9.22258C10.4822 9.44879 10.7375 9.77066 10.8822 10.1454C10.9124 10.2224 10.9719 10.2843 11.0476 10.3176C11.1234 10.3508 11.2092 10.3526 11.2863 10.3226C11.3635 10.2927 11.4255 10.2333 11.459 10.1577C11.4924 10.082 11.4945 9.99618 11.4648 9.91898C11.2748 9.42654 10.9396 9.00353 10.5035 8.70613C10.0675 8.40873 9.5513 8.25102 9.0235 8.25395C5.54151 8.39795 5.54178 13.3604 9.02352 13.5042C9.64093 13.5063 10.2391 13.2896 10.7119 12.8925C11.1848 12.4955 11.5017 11.9438 11.6064 11.3353C11.6203 11.2537 11.6013 11.1699 11.5535 11.1023C11.5057 11.0347 11.433 10.9889 11.3514 10.9748C11.2699 10.9607 11.186 10.9796 11.1184 11.0273C11.0507 11.075 11.0047 11.1476 10.9905 11.2291C10.5287 13.6109 7.07212 13.305 7.02354 10.879C7.02412 10.3488 7.23501 9.84041 7.60995 9.46545C7.98488 9.09049 8.49324 8.87956 9.0235 8.87895Z" fill="#292929" stroke="black" stroke-width="0.4"/>
<path d="M6.56855 15.9924L7.51139 15.3304C7.57146 15.2889 7.63944 15.2602 7.71109 15.2461C7.78274 15.232 7.85653 15.2328 7.92787 15.2484C7.99921 15.264 8.06656 15.2942 8.12575 15.3369C8.18493 15.3797 8.23467 15.4342 8.27188 15.4971L8.88758 16.5563C8.91584 16.6047 8.95653 16.6446 9.00541 16.6719C9.0543 16.6992 9.10961 16.7129 9.16559 16.7117C10.1952 16.6877 11.2 16.3914 12.0779 15.8529C12.1273 15.8225 12.1672 15.779 12.1932 15.7272C12.2193 15.6754 12.2304 15.6174 12.2253 15.5596L12.1253 14.4122C12.1192 14.3394 12.1281 14.2661 12.1516 14.1969C12.1751 14.1278 12.2126 14.0642 12.2617 14.0102C12.3109 13.9561 12.3707 13.9128 12.4374 13.883C12.504 13.8531 12.5761 13.8373 12.6492 13.8366L13.8772 13.8336C13.9332 13.8334 13.9881 13.8183 14.0362 13.7896C14.0844 13.761 14.1239 13.72 14.1508 13.6709C14.617 12.8136 14.8611 11.8532 14.8609 10.8773C14.8708 10.7128 14.8488 10.5206 14.6775 10.4473L13.6349 9.96025C13.5691 9.92893 13.5105 9.88441 13.4626 9.82944C13.4148 9.77448 13.3788 9.71025 13.3569 9.64077C13.335 9.57129 13.3276 9.49804 13.3352 9.42558C13.3428 9.35312 13.3652 9.283 13.4011 9.21959L14.0104 8.15087C14.0381 8.10234 14.0523 8.04726 14.0515 7.99137C14.0506 7.93549 14.0348 7.88086 14.0057 7.83318C13.4687 6.95587 12.7106 6.23516 11.8072 5.74333C11.756 5.71565 11.6981 5.70276 11.64 5.70611C11.5819 5.70945 11.5259 5.72889 11.4782 5.76226L10.5354 6.42419C10.4753 6.46571 10.4073 6.49443 10.3357 6.50854C10.264 6.52266 10.1902 6.52188 10.1189 6.50625C10.0476 6.49062 9.9802 6.46047 9.92102 6.41769C9.86183 6.37491 9.81209 6.3204 9.77488 6.25756L9.15918 5.1983C9.1296 5.15116 9.08863 5.11222 9.04005 5.08507C8.99146 5.05793 8.93682 5.04345 8.88117 5.04297C7.85159 5.06694 6.84674 5.36325 5.96888 5.90173C5.9195 5.93211 5.87955 5.97563 5.85352 6.02743C5.82748 6.07923 5.81639 6.13726 5.82148 6.19501L5.92142 7.34247C5.92756 7.41526 5.91862 7.48853 5.89515 7.5577C5.87168 7.62688 5.83419 7.69046 5.78502 7.74449C5.73585 7.79851 5.67607 7.8418 5.6094 7.87166C5.54274 7.90152 5.47063 7.91731 5.39758 7.91803L4.16956 7.92107C4.11346 7.92121 4.05843 7.93644 4.01024 7.96517C3.96205 7.99389 3.92247 8.03506 3.89567 8.08434C3.76458 8.41912 3.28353 8.98496 3.7499 9.21135C4.16764 9.3397 4.19579 8.80566 4.35999 8.54547L5.40049 8.54302C5.55975 8.54112 5.71693 8.50647 5.86223 8.44124C6.00754 8.376 6.13787 8.28157 6.24512 8.16381C6.35237 8.04605 6.43425 7.90749 6.48566 7.75673C6.53707 7.60598 6.55692 7.44626 6.54397 7.28751L6.46113 6.33689C7.15183 5.94786 7.92224 5.72167 8.71362 5.67557L9.23441 6.57157C9.31455 6.70911 9.42227 6.82859 9.55081 6.92249C9.67935 7.0164 9.82593 7.0827 9.98132 7.11722C10.614 7.29749 11.1973 6.69711 11.6755 6.38722C12.3567 6.79118 12.9375 7.34429 13.3743 8.00497C13.1034 8.5446 12.5224 9.18131 12.7592 9.82716C12.9222 10.4694 13.7252 10.6671 14.2356 10.9307C14.2276 11.7219 14.04 12.501 13.6869 13.2091L12.6463 13.2116C12.487 13.2135 12.3298 13.2481 12.1845 13.3133C12.0392 13.3786 11.9089 13.473 11.8016 13.5908C11.6944 13.7085 11.6125 13.8471 11.5611 13.9978C11.5097 14.1486 11.4898 14.3083 11.5028 14.4671L11.5856 15.4177C10.8949 15.8067 10.1245 16.0329 9.33313 16.079L8.81234 15.183C8.7322 15.0455 8.62448 14.926 8.49594 14.8321C8.3674 14.7382 8.22082 14.6719 8.06543 14.6374C7.43347 14.4574 6.84907 15.0574 6.37124 15.3674C5.69003 14.9634 5.10923 14.4103 4.67249 13.7496L5.18809 12.8454C5.26606 12.7069 5.31477 12.5538 5.33118 12.3957C5.34759 12.2376 5.33136 12.0778 5.28349 11.9262C5.23563 11.7746 5.15714 11.6345 5.0529 11.5145C4.94867 11.3945 4.8209 11.2972 4.67751 11.2286L3.81113 10.8239C3.81342 10.6173 3.82718 10.411 3.85233 10.2059C3.86101 10.1243 3.83725 10.0426 3.78618 9.97837C3.73511 9.91414 3.66083 9.87257 3.57938 9.86264C3.49792 9.8527 3.41583 9.8752 3.35082 9.92527C3.28581 9.97534 3.2431 10.049 3.23191 10.1303C3.19377 10.4332 3.17963 10.7387 3.18963 11.0439C3.19322 11.0999 3.21178 11.1539 3.24337 11.2002C3.27497 11.2466 3.31844 11.2835 3.36923 11.3073L4.41186 11.7944C4.47765 11.8257 4.53628 11.8702 4.58411 11.9252C4.63193 11.9801 4.66793 12.0444 4.68986 12.1139C4.71179 12.1833 4.71918 12.2566 4.71156 12.329C4.70395 12.4015 4.6815 12.4716 4.64561 12.535L4.03635 13.6038C4.00864 13.6523 3.99445 13.7074 3.99529 13.7633C3.99612 13.8191 4.01193 13.8738 4.04108 13.9214C4.57802 14.7988 5.3362 15.5195 6.23957 16.0113C6.29076 16.039 6.34864 16.0519 6.40674 16.0485C6.46484 16.0452 6.52087 16.0257 6.56855 15.9924Z" fill="#292929" stroke="black" stroke-width="0.4"/>
</svg>
