
<?xml version="1.0" encoding="utf-8"?>
<!-- Generator: Adobe Illustrator 26.0.3, SVG Export Plug-In . SVG Version: 6.00 Build 0) -->
<svg version="1.0" id="katman_1" xmlns="http://www.w3.org/2000/svg" xmlns:xlink="http://www.w3.org/1999/xlink" x="0px" y="0px"
viewBox="80 150 630 300" style="enable-background:new 0 0 800 600;" xml:space="preserve">
<style type="text/css">
 .st0{fill-rule:evenodd;clip-rule:evenodd;fill:#F5C0C0;}
</style>
<path class="st0" d="M214.3,190.4v76.1h-21.8v-76.1H116v61.7v0.2V325v83.8h76.4V299.6h21.8v109.2h76.4V190.4H214.3z M312.5,408.7
 h174.6v-87.3h-76.4V376h-21.8v-76.4h98.2V190.4H312.5V408.7z M388.9,266.8v-43.7h21.8v43.7H388.9z M607.2,266.8v-76.4h76.4V245
 l-32.7,38.2l32.7,38.2v87.3h-76.4V299.3h-21.8v109.4H509v-87.3l32.7-38.2L509,245v-54.6h76.4v76.4H607.2z"/>
</svg>