<svg xmlns="http://www.w3.org/2000/svg" version="1.1" xmlns:xlink="http://www.w3.org/1999/xlink" xmlns:svgjs="http://svgjs.com/svgjs" width="512" height="512" x="0" y="0" viewBox="0 0 512 512" style="enable-background:new 0 0 512 512" xml:space="preserve">
<path d="M481.429,332.892c-26.337-26.357-62.882-37.523-109.815-24.945L204.256,140.419l2.212-8.364    c9.639-36.166-0.776-75.041-27.172-101.437C152.42,3.721,114.212-6.148,78.077,3.778c-5.153,1.415-9.164,5.464-10.529,10.631    c-1.365,5.167,0.132,10.659,3.909,14.438l40.297,40.297c11.781,11.81,11.666,30.724,0.029,42.392    c-11.545,11.576-30.951,11.558-42.45,0.029L29.028,71.257c-3.779-3.781-9.287-5.264-14.454-3.891    c-5.168,1.372-9.202,5.393-10.612,10.551c-9.781,35.738-0.159,74.183,26.846,101.188c26.326,26.345,62.825,37.551,109.786,24.946    l167.371,167.528c-12.49,46.919-1.716,83.11,24.975,109.801c26.91,26.93,65.136,36.726,101.192,26.833    c5.154-1.414,9.166-5.464,10.532-10.631c1.366-5.167-0.13-10.66-3.909-14.44l-40.288-40.288    c-11.781-11.81-11.666-30.726-0.029-42.392c11.689-11.629,31.052-11.444,42.45-0.015l40.308,40.297    c3.779,3.779,9.287,5.262,14.453,3.889c5.167-1.373,9.201-5.392,10.611-10.549C518.041,398.352,508.421,359.897,481.429,332.892z" fill="#6b7280" data-original="#000000" style=""></path>
<path d="M160.551,266.584L17.559,409.594c-23.401,23.401-23.401,61.455,0,84.855c23.401,23.401,61.455,23.401,84.855,0    l142.989-143.006L160.551,266.584z M88.322,447.898c-5.86,5.86-15.35,5.86-21.21,0c-5.859-5.859-5.859-15.351,0-21.21    l90.98-90.997c5.859-5.859,15.352-5.859,21.21,0c5.859,5.859,5.859,15.351,0,21.21L88.322,447.898z" fill="#6b7280" data-original="#000000" style=""></path>
<path d="M507.596,30.253L481.737,4.394c-4.867-4.867-12.42-5.797-18.322-2.258l-79.547,47.723    c-8.37,5.021-9.791,16.568-2.891,23.469l6.332,6.33l-100.98,100.567l42.435,42.435l100.98-100.567l8.919,8.921    c6.901,6.899,18.449,5.479,23.469-2.891l47.723-79.547C513.393,42.673,512.463,35.12,507.596,30.253z" fill="#6b7280" data-original="#000000" style=""></path>
</svg>