<svg width="24" height="24" viewBox="0 0 24 24" fill="none" xmlns="http://www.w3.org/2000/svg">
<g clip-path="url(#clip0_10915_12970)">
<path d="M11.8832 0.00221789C9.63958 0.032185 7.44898 0.688287 5.55832 1.89656C3.66766 3.10483 2.15211 4.81723 1.18253 6.8407C0.212951 8.86417 -0.172104 11.1183 0.0707742 13.3488C0.313652 15.5794 1.1748 17.6978 2.55715 19.4652L6.22515 16.7712C5.33384 15.6639 4.77219 14.328 4.60444 12.9164C4.4367 11.5049 4.66963 10.0746 5.2766 8.78918C5.88357 7.50377 6.84007 6.41516 8.03669 5.64784C9.23331 4.88052 10.6217 4.46549 12.0432 4.45022V7.31722L15.4972 4.74722L18.9512 2.17722C16.8825 0.726987 14.4093 -0.0340918 11.8832 0.00221789Z" fill="#6CC6E9"/>
<path d="M21.4487 4.53516L17.7807 7.23016C18.6723 8.3375 19.2342 9.67345 19.4021 11.0852C19.57 12.4969 19.3371 13.9274 18.7301 15.213C18.1231 16.4986 17.1665 17.5873 15.9697 18.3547C14.7729 19.122 13.3843 19.537 11.9627 19.5522V16.6852L5.05469 21.8252C7.41966 23.4789 10.2997 24.2287 13.1709 23.9381C16.0421 23.6475 18.7135 22.3357 20.6991 20.2416C22.6847 18.1475 23.8525 15.4101 23.9901 12.5276C24.1277 9.64502 23.2258 6.80887 21.4487 4.53516Z" fill="#4192DC"/>
</g>
<defs>
<clipPath id="clip0_10915_12970">
<rect width="24.0038" height="23.9984" fill="white" transform="translate(0 0.000976562)"/>
</clipPath>
</defs>
</svg>
