<svg viewBox="0 0 89 89" fill="none" xmlns="http://www.w3.org/2000/svg">
<path d="M0 28C0 12.536 12.536 0 28 0H61C76.464 0 89 12.536 89 28V61C89 76.464 76.464 89 61 89H28C12.536 89 0 76.464 0 61V28Z" fill="#F8F9FC"/>
<path fill-rule="evenodd" clip-rule="evenodd" d="M55.5695 48.6975C55.1087 48.6975 54.7365 48.3117 54.7365 47.8376C54.7365 47.3635 55.1087 46.9777 55.5695 46.9777C56.0303 46.9777 56.4061 47.3635 56.4061 47.8376C56.4061 48.3118 56.0303 48.6975 55.5695 48.6975ZM55.5695 46.0684C54.623 46.0684 53.8538 46.8623 53.8538 47.8376C53.8538 48.8132 54.623 49.6068 55.5695 49.6068C56.5195 49.6068 57.2888 48.8132 57.2888 47.8376C57.2888 46.8623 56.5195 46.0684 55.5695 46.0684ZM58.3699 47.3576C58.3487 47.2211 58.3877 47.082 58.4799 46.9791L59.0364 46.3403L58.5649 45.4954L57.7461 45.6742C57.6149 45.703 57.4767 45.6683 57.3739 45.5803C57.1293 45.3748 56.8599 45.2132 56.5692 45.1003C56.4416 45.0518 56.3459 44.947 56.3033 44.8153L56.0445 43.998H55.0981L54.8393 44.8153C54.7967 44.9467 54.701 45.0518 54.5734 45.1003C54.2828 45.2131 54.0098 45.3748 53.7688 45.5803C53.666 45.6683 53.5277 45.703 53.3966 45.6742L52.5777 45.4954L52.1062 46.3403L52.6628 46.9795C52.755 47.082 52.794 47.2211 52.7727 47.3576C52.7198 47.6728 52.7199 48.0022 52.7727 48.3175C52.794 48.454 52.755 48.5931 52.6628 48.6957L52.1062 49.3348L52.5777 50.1798L53.3966 50.0009C53.5277 49.9721 53.666 50.0064 53.7688 50.0943C54.0098 50.3002 54.2828 50.4615 54.5734 50.5747C54.701 50.6232 54.7968 50.728 54.8393 50.8597L55.0981 51.677H56.0445L56.3033 50.8597C56.3458 50.7283 56.4416 50.6236 56.5692 50.5747C56.8599 50.4619 57.1328 50.3002 57.3739 50.0947C57.4767 50.0067 57.615 49.9721 57.7461 50.0009L58.5649 50.1798L59.0364 49.3348L58.4763 48.6957C58.3877 48.5931 58.3487 48.454 58.37 48.3175C58.4217 47.986 58.4219 47.6887 58.3699 47.3576ZM59.8623 48.9206L59.2703 48.2439C59.2986 47.9733 59.2987 47.7017 59.2703 47.4313L59.8623 46.7539C60.0183 46.5769 60.0431 46.3189 59.9297 46.1119L59.203 44.8147C59.086 44.6078 58.8556 44.5023 58.6287 44.552L57.7638 44.7414C57.5475 44.5804 57.3206 44.4443 57.0796 44.3344L56.8066 43.4694C56.7357 43.2417 56.5301 43.089 56.2997 43.089H54.8428C54.6124 43.089 54.4068 43.2416 54.3359 43.4686L54.0629 44.3344C53.8219 44.4443 53.5915 44.5804 53.3788 44.7413L52.5139 44.5519C52.287 44.5022 52.0565 44.6077 51.9396 44.8147L51.2129 46.1119C51.0959 46.3188 51.1243 46.5769 51.2802 46.7546L51.8722 47.4313C51.8438 47.7014 51.8438 47.9738 51.8722 48.2439L51.2802 48.9206C51.1243 49.0984 51.0959 49.3564 51.2129 49.5634L51.9396 50.8605C52.0565 51.0675 52.287 51.173 52.5139 51.1233L53.3788 50.9339C53.5915 51.0944 53.8219 51.231 54.0629 51.3408L54.3359 52.2066C54.4068 52.4336 54.6124 52.5862 54.8428 52.5862H56.2997C56.5302 52.5862 56.7357 52.4332 56.8067 52.2062L57.0797 51.3411C57.3207 51.2309 57.5511 51.0947 57.7638 50.9337L58.6288 51.1232C58.8556 51.1728 59.0861 51.0674 59.203 50.8604L59.9298 49.5632C60.0431 49.3568 60.0183 49.0986 59.8623 48.9206ZM53.0101 57.0827L51.0746 59.0771C51.0568 59.0957 51.0249 59.0957 51.0072 59.0771L47.4092 55.3734C47.3915 55.3548 47.3915 55.3223 47.4092 55.3041L49.3447 53.3094C49.3614 53.2918 49.3935 53.2899 49.412 53.3094L53.0101 57.0134C53.0278 57.032 53.0278 57.0641 53.0101 57.0827ZM46.1721 52.4851L47.5333 53.8886L47.9728 53.4392L46.6081 52.0358L46.1721 52.4851ZM34.2648 51.6219C37.4465 54.8942 42.5906 54.8971 45.7714 51.6219C48.9489 48.3502 48.9491 43.0477 45.7714 39.7762C42.5923 36.5031 37.4439 36.5031 34.2648 39.7762C31.0851 43.0499 31.0879 48.3471 34.2648 51.6219ZM41.3191 36.0576L40.3124 34.906L41.2482 33.2401L42.7193 33.5624C42.8505 33.5912 42.9887 33.5566 43.0915 33.4686C43.4992 33.1255 43.9494 32.8557 44.4385 32.6674C44.5662 32.6189 44.6619 32.5138 44.7044 32.3824L45.1688 30.9092H47.0369L47.5013 32.3824C47.5438 32.5138 47.6395 32.6189 47.7672 32.6674C48.2528 32.8561 48.7066 33.1255 49.1107 33.4686C49.217 33.5565 49.3518 33.5912 49.4864 33.5624L50.9576 33.2401L51.8935 34.906L50.8867 36.0576C50.7945 36.1605 50.7555 36.2995 50.7768 36.4357C50.862 36.973 50.862 37.5002 50.7768 38.0381C50.7555 38.1746 50.7945 38.3137 50.8867 38.4162L51.8935 39.5682L50.9576 41.2341L49.4864 40.9122C49.3518 40.8829 49.2171 40.9177 49.1143 41.0056C48.813 41.2607 48.4833 41.475 48.1359 41.6458C47.9693 41.2936 47.7814 40.9519 47.5723 40.6224C48.8519 40.0358 49.7027 38.7222 49.7027 37.2374C49.7027 35.1934 48.0862 33.5308 46.1011 33.5308C44.2684 33.5308 42.7512 34.9503 42.5315 36.7778C42.1663 36.6698 41.7941 36.5847 41.4149 36.5245C41.4337 36.3665 41.467 36.2228 41.3191 36.0576ZM46.3954 39.1335C45.5233 38.2348 44.5024 37.5439 43.3893 37.0825C43.4673 35.6119 44.6548 34.4399 46.1012 34.4399C47.6006 34.4399 48.8201 35.6948 48.8201 37.2373C48.8201 38.425 48.0969 39.4674 47.0335 39.8653C46.8349 39.6119 46.6223 39.3674 46.3954 39.1335ZM50.036 52.6666L53.634 56.3705C53.9991 56.744 53.9991 57.352 53.634 57.7254L51.6985 59.7201C51.3385 60.0913 50.7473 60.0952 50.3834 59.7201L46.7853 56.0161C46.4202 55.6423 46.4202 55.0346 46.7853 54.6608L46.9094 54.5313L45.495 53.0753C43.9317 54.3134 42.0246 54.9842 40.0181 54.9842C35.0328 54.9842 31 50.8308 31 45.699C31 40.4026 35.2812 36.1773 40.4542 36.4243L39.5148 35.3501C39.3411 35.1548 39.3127 34.8709 39.4403 34.6431L40.5888 32.594C40.7165 32.3663 40.9717 32.2501 41.2198 32.3045L42.7016 32.6287C43.0809 32.332 43.4921 32.087 43.9281 31.8983L44.396 30.4179C44.474 30.1679 44.6973 30 44.9525 30H47.2532C47.5048 30 47.7317 30.1679 47.8097 30.4176L48.2776 31.8984C48.7136 32.0871 49.1249 32.332 49.5042 32.6288L50.986 32.3046C51.2341 32.2502 51.4858 32.3663 51.6134 32.5937L52.7655 34.6432C52.8932 34.871 52.8613 35.155 52.6911 35.3506L51.6808 36.5077C51.7374 36.9916 51.7374 37.4823 51.6808 37.9666L52.6911 39.1244C52.8612 39.3193 52.8931 39.6036 52.7655 39.831L51.6134 41.8801C51.4858 42.1083 51.2341 42.2243 50.9824 42.1696L49.5042 41.8455C49.1852 42.0958 48.8449 42.3087 48.4833 42.4824C49.5443 45.4641 49.0668 48.8125 47.1823 51.3406L48.5967 52.7963L48.7208 52.6667C49.0806 52.2953 49.675 52.2912 50.036 52.6666ZM44.3393 50.1499C41.9534 52.6119 38.0804 52.6074 35.6934 50.1499C34.6441 49.0687 34.0237 47.6639 33.921 46.1535H35.7962C35.9593 46.1535 36.1081 46.0623 36.1861 45.9159L37.005 44.3621L38.983 48.7771C39.1487 49.1414 39.6591 49.1238 39.7983 48.7475L41.9465 42.9002L43.1518 45.8739C43.2191 46.0433 43.3822 46.1535 43.5595 46.1535H46.1153C46.0125 47.6639 45.3922 49.0687 44.3393 50.1499ZM35.6934 41.2483C38.0837 38.7886 41.949 38.7878 44.3393 41.2483C45.3922 42.329 46.0125 43.7343 46.1153 45.2447H43.8536L42.3364 41.495C42.1819 41.1168 41.6581 41.1269 41.514 41.5088L39.3445 47.4123L37.4374 43.1582C37.2832 42.8164 36.8199 42.8075 36.6505 43.1316L35.5338 45.2446H33.921C34.0237 43.7343 34.6441 42.329 35.6934 41.2483ZM44.9633 40.6051C42.2343 37.7899 37.8005 37.7913 35.0695 40.6051C32.3367 43.4209 32.3367 47.9769 35.0695 50.7926C37.7992 53.6052 42.2279 53.6111 44.9633 50.7926C47.6987 47.9742 47.6963 43.4177 44.9633 40.6051Z" fill="#363F72"/>
</svg>
