<svg viewBox="0 0 89 89" fill="none" xmlns="http://www.w3.org/2000/svg">
<path d="M0 28C0 12.536 12.536 0 28 0H61C76.464 0 89 12.536 89 28V61C89 76.464 76.464 89 61 89H28C12.536 89 0 76.464 0 61V28Z" fill="#FDF2FA"/>
<g clip-path="url(#clip0_8576_31391)">
<path d="M45.0004 47.5875C43.6827 47.5875 42.3945 47.1968 41.2989 46.4647C40.2033 45.7326 39.3493 44.6921 38.845 43.4746C38.3408 42.2572 38.2088 40.9176 38.4659 39.6252C38.723 38.3328 39.3575 37.1457 40.2893 36.2139C41.2211 35.2821 42.4082 34.6476 43.7006 34.3905C44.993 34.1335 46.3326 34.2654 47.55 34.7697C48.7674 35.2739 49.808 36.1279 50.5401 37.2235C51.2721 38.3192 51.6629 39.6073 51.6629 40.925C51.6596 42.691 50.9566 44.3837 49.7078 45.6325C48.4591 46.8812 46.7664 47.5842 45.0004 47.5875ZM45.0004 36.925C44.2093 36.925 43.4359 37.1596 42.7781 37.5991C42.1203 38.0387 41.6076 38.6634 41.3049 39.3943C41.0021 40.1252 40.9229 40.9295 41.0773 41.7054C41.2316 42.4813 41.6126 43.194 42.172 43.7534C42.7314 44.3129 43.4441 44.6938 44.22 44.8482C44.996 45.0025 45.8002 44.9233 46.5311 44.6205C47.262 44.3178 47.8867 43.8051 48.3263 43.1473C48.7658 42.4895 49.0004 41.7161 49.0004 40.925C49.0004 39.8641 48.579 38.8467 47.8288 38.0966C47.0787 37.3464 46.0613 36.925 45.0004 36.925Z" fill="#C11574"/>
<path d="M58.3375 48.925C57.2818 48.925 56.2499 48.612 55.3721 48.0255C54.4944 47.439 53.8103 46.6054 53.4063 45.6301C53.0023 44.6548 52.8966 43.5816 53.1026 42.5462C53.3085 41.5108 53.8169 40.5598 54.5633 39.8133C55.3098 39.0669 56.2608 38.5585 57.2962 38.3526C58.3316 38.1466 59.4048 38.2523 60.3801 38.6563C61.3554 39.0603 62.189 39.7444 62.7755 40.6221C63.362 41.4999 63.675 42.5318 63.675 43.5875C63.675 45.0031 63.1127 46.3607 62.1117 47.3617C61.1107 48.3627 59.7531 48.925 58.3375 48.925ZM58.3375 40.925C57.8109 40.925 57.2961 41.0812 56.8583 41.3737C56.4205 41.6663 56.0792 42.0821 55.8777 42.5686C55.6762 43.0551 55.6234 43.5905 55.7262 44.1069C55.8289 44.6234 56.0825 45.0978 56.4548 45.4702C56.8272 45.8425 57.3016 46.0961 57.8181 46.1988C58.3345 46.3016 58.8699 46.2489 59.3564 46.0473C59.8429 45.8458 60.2587 45.5046 60.5513 45.0667C60.8439 44.6289 61 44.1141 61 43.5875C60.9967 42.8824 60.7151 42.2071 60.2165 41.7085C59.7179 41.2099 59.0426 40.9283 58.3375 40.925Z" fill="#C11574"/>
<path d="M31.6637 48.925C30.608 48.925 29.5761 48.612 28.6983 48.0255C27.8206 47.439 27.1365 46.6054 26.7325 45.6301C26.3285 44.6548 26.2228 43.5816 26.4287 42.5462C26.6347 41.5108 27.143 40.5598 27.8895 39.8133C28.636 39.0669 29.587 38.5585 30.6224 38.3526C31.6578 38.1466 32.7309 38.2523 33.7062 38.6563C34.6815 39.0603 35.5152 39.7444 36.1016 40.6221C36.6881 41.4999 37.0012 42.5318 37.0012 43.5875C37.0012 45.0031 36.4388 46.3607 35.4379 47.3617C34.4369 48.3627 33.0793 48.925 31.6637 48.925ZM31.6637 40.925C31.1371 40.925 30.6223 41.0812 30.1845 41.3737C29.7466 41.6663 29.4054 42.0821 29.2038 42.5686C29.0023 43.0551 28.9496 43.5905 29.0523 44.1069C29.1551 44.6234 29.4086 45.0978 29.781 45.4702C30.1534 45.8425 30.6278 46.0961 31.1442 46.1988C31.6607 46.3016 32.1961 46.2489 32.6826 46.0473C33.1691 45.8458 33.5849 45.5046 33.8775 45.0667C34.17 44.6289 34.3262 44.1141 34.3262 43.5875C34.3229 42.8824 34.0413 42.2071 33.5427 41.7085C33.0441 41.2099 32.3688 40.9283 31.6637 40.925Z" fill="#C11574"/>
<path d="M53.0008 58.0125C52.6629 58.0101 52.3384 57.8798 52.0926 57.6479C51.8468 57.416 51.6979 57.0997 51.6758 56.7625C51.5639 55.6176 51.0293 54.5555 50.1764 53.7835C49.3236 53.0116 48.2136 52.5851 47.0633 52.5875H42.9383C41.7879 52.5851 40.678 53.0116 39.8251 53.7835C38.9723 54.5555 38.4377 55.6176 38.3258 56.7625C38.2618 57.0891 38.0783 57.38 37.8112 57.5786C37.5441 57.7771 37.2126 57.8689 36.8814 57.8361C36.5503 57.8033 36.2432 57.6482 36.0203 57.4012C35.7973 57.1541 35.6745 56.8328 35.6758 56.5C35.8676 54.71 36.7162 53.0546 38.0576 51.854C39.3991 50.6534 41.1381 49.9928 42.9383 50H47.0633C48.8752 49.9947 50.6239 50.6658 51.9671 51.8818C53.3104 53.0979 54.1515 54.7715 54.3258 56.575C54.3429 56.7537 54.3239 56.934 54.2698 57.1052C54.2157 57.2764 54.1278 57.435 54.0111 57.5715C53.8945 57.708 53.7515 57.8195 53.5908 57.8996C53.4302 57.9797 53.255 58.0266 53.0758 58.0375L53.0008 58.0125Z" fill="#C11574"/>
<path d="M63.6622 57.1125C63.3242 57.1101 62.9998 56.9798 62.754 56.7479C62.5082 56.516 62.3593 56.1997 62.3372 55.8625C62.2746 55.2083 61.969 54.6014 61.4806 54.1617C60.9923 53.722 60.3568 53.4814 59.6997 53.4875H56.9497C56.6873 53.4887 56.4265 53.5266 56.1747 53.6C56.0003 53.6976 55.8063 53.755 55.6069 53.7678C55.4075 53.7806 55.2078 53.7486 55.0224 53.6741C54.837 53.5996 54.6706 53.4845 54.5355 53.3373C54.4004 53.19 54.3001 53.0144 54.2418 52.8233C54.1835 52.6321 54.1688 52.4304 54.1987 52.2328C54.2286 52.0352 54.3024 51.8469 54.4147 51.6816C54.5269 51.5163 54.6748 51.3783 54.8474 51.2776C55.02 51.177 55.213 51.1163 55.4122 51.1C55.9114 50.9523 56.4291 50.8765 56.9497 50.875H59.6997C61.0197 50.8657 62.2955 51.3505 63.2762 52.2341C64.257 53.1176 64.8717 54.3361 64.9997 55.65C65.0168 55.8287 64.9977 56.0091 64.9437 56.1803C64.8896 56.3515 64.8016 56.51 64.685 56.6465C64.5683 56.783 64.4254 56.8946 64.2647 56.9746C64.104 57.0547 63.9289 57.1016 63.7497 57.1125H63.6622Z" fill="#C11574"/>
<path d="M26.3377 57.1125H26.2502C26.071 57.1016 25.8959 57.0547 25.7352 56.9746C25.5745 56.8945 25.4316 56.783 25.3149 56.6465C25.1983 56.51 25.1103 56.3514 25.0562 56.1802C25.0022 56.009 24.9831 55.8287 25.0002 55.65C25.128 54.3383 25.7409 53.1216 26.719 52.2383C27.6971 51.355 28.9698 50.8688 30.2877 50.875H33.0377C33.5583 50.8765 34.076 50.9523 34.5752 51.1C34.7744 51.1163 34.9674 51.177 35.14 51.2776C35.3126 51.3783 35.4605 51.5163 35.5727 51.6816C35.685 51.8469 35.7588 52.0352 35.7887 52.2328C35.8186 52.4304 35.8039 52.6321 35.7456 52.8232C35.6873 53.0144 35.5869 53.19 35.4519 53.3372C35.3168 53.4845 35.1504 53.5996 34.965 53.6741C34.7796 53.7486 34.5799 53.7806 34.3805 53.7678C34.1811 53.755 33.9871 53.6976 33.8127 53.6C33.5609 53.5265 33.3 53.4887 33.0377 53.4875H30.2877C29.6306 53.4814 28.9951 53.722 28.5068 54.1617C28.0184 54.6014 27.7128 55.2083 27.6502 55.8625C27.6283 56.1976 27.4812 56.5121 27.238 56.7437C26.9948 56.9753 26.6735 57.1069 26.3377 57.1125Z" fill="#C11574"/>
</g>
<defs>
<clipPath id="clip0_8576_31391">
<rect width="40" height="40" fill="white" transform="translate(25 25)"/>
</clipPath>
</defs>
</svg>
