<svg viewBox="0 0 89 89" fill="none" xmlns="http://www.w3.org/2000/svg">
<path d="M0 28C0 12.536 12.536 0 28 0H61C76.464 0 89 12.536 89 28V61C89 76.464 76.464 89 61 89H28C12.536 89 0 76.464 0 61V28Z" fill="#F4F3FF"/>
<path d="M52.9694 48.4937L47.6786 50.5948C47.7205 49.1991 46.7419 47.9422 45.3432 47.6919L41.558 47.014C40.7267 45.1218 38.9389 43.8334 36.871 43.6807C35.5103 43.5803 34.1947 43.9776 33.1295 44.7877C32.9792 44.7603 33.0786 44.7784 30.8789 44.7727C30.3935 44.7727 30 45.1662 30 45.6516C30 46.137 30.3935 46.5305 30.8789 46.5305H32.092V56.7265H30.879C30.3936 56.7265 30.0001 57.12 30.0001 57.6054C30.0001 58.0908 30.3936 58.4843 30.879 58.4843H32.971C33.4564 58.4843 33.8499 58.0908 33.8499 57.6054V56.492H36.1514L45.871 58.4668C46.0715 58.5075 46.2886 58.4782 46.4793 58.3701L57.8551 51.9248C58.2289 51.713 58.3948 51.262 58.2473 50.8585C57.4669 48.7225 55.0825 47.6544 52.9694 48.4937ZM45.8988 56.6787L36.4148 54.7518C36.262 54.7208 36.3905 54.7402 33.85 54.7342V46.4837C34.6278 45.7353 35.6647 45.3542 36.7418 45.4338C38.2771 45.5472 39.5884 46.5816 40.0826 48.0692C40.1842 48.3748 40.4448 48.6005 40.7618 48.6573L45.0335 49.4223C45.6164 49.5265 46.0068 50.0967 45.9071 50.6956L45.9052 50.7052C45.904 50.7113 45.9029 50.7173 45.9018 50.7233C45.7974 51.3248 45.2412 51.7192 44.6632 51.6164C44.6625 51.6163 44.6619 51.6162 44.6612 51.6161L44.6601 51.6159C44.6597 51.6158 44.6592 51.6157 44.6588 51.6156C44.6588 51.6156 44.6475 51.6136 44.6475 51.6136L39.891 50.7615C39.4138 50.6761 38.9564 50.9938 38.8709 51.4717C38.7853 51.9495 39.1032 52.4062 39.5811 52.4918C44.9152 53.4473 44.2856 53.3338 44.3523 53.3465C45.5462 53.56 45.604 53.2513 53.6182 50.1275C54.5968 49.7389 55.6471 50.0803 56.2376 50.821L45.8988 56.6787Z" fill="#5925DC"/>
<path d="M43.8711 35.457C42.3849 35.457 41.1758 36.6662 41.1758 38.1523C41.1758 39.6385 42.3849 40.8476 43.8711 40.8476C45.3573 40.8476 46.5664 39.6385 46.5664 38.1523C46.5664 36.6662 45.3573 35.457 43.8711 35.457ZM43.8711 39.0898C43.3542 39.0898 42.9336 38.6693 42.9336 38.1523C42.9336 37.6354 43.3542 37.2148 43.8711 37.2148C44.388 37.2148 44.8086 37.6354 44.8086 38.1523C44.8086 38.6693 44.388 39.0898 43.8711 39.0898Z" fill="#5925DC"/>
<path d="M57.3632 35.5742H49.4929C48.4882 33.4127 46.3091 32 43.8867 32C40.4781 32 37.7051 34.7731 37.7051 38.1816C37.7051 41.5902 40.4781 44.3633 43.8867 44.3633C46.279 44.3633 48.4476 42.9737 49.4649 40.8476H51.1963V43.4844C51.1963 43.9697 51.5898 44.3633 52.0752 44.3633H55.5908C56.0762 44.3633 56.4697 43.9697 56.4697 43.4844V40.8476H57.3632C58.8171 40.8476 60 39.6648 60 38.2109C60 36.757 58.8171 35.5742 57.3632 35.5742ZM57.3632 39.0898H55.5908C55.1054 39.0898 54.7119 39.4833 54.7119 39.9687V42.6054H52.9541V39.9687C52.9541 39.4833 52.5606 39.0898 52.0752 39.0898H48.8804C48.5092 39.0898 48.178 39.323 48.0529 39.6725C47.4251 41.4268 45.7507 42.6054 43.8867 42.6054C41.4474 42.6054 39.4629 40.6209 39.4629 38.1816C39.4629 35.7423 41.4474 33.7578 43.8867 33.7578C45.7742 33.7578 47.4554 34.956 48.0701 36.7395C48.1923 37.0941 48.526 37.332 48.901 37.332H57.3632C57.8479 37.332 58.2421 37.7263 58.2421 38.2109C58.2421 38.6956 57.8479 39.0898 57.3632 39.0898Z" fill="#5925DC"/>
</svg>
