<svg viewBox="0 0 89 89" fill="none" xmlns="http://www.w3.org/2000/svg">
<path d="M0 28C0 12.536 12.536 0 28 0H61C76.464 0 89 12.536 89 28V61C89 76.464 76.464 89 61 89H28C12.536 89 0 76.464 0 61V28Z" fill="#F9F5FF"/>
<path d="M32.5 42L58.75 42" stroke="#6941C6" stroke-width="1.5" stroke-linecap="round"/>
<path d="M31.875 29.5H37.8507L45.625 41.4336L37.8507 54.5H31.875" stroke="#6941C6" stroke-width="1.5" stroke-linecap="round"/>
<path d="M58.75 29.5H53.2568L46.25 41.4336L53.2568 54.5H58.75" stroke="#6941C6" stroke-width="1.5" stroke-linecap="round"/>
<rect x="30" y="27" width="5" height="5" fill="#6941C6"/>
<rect x="55.7363" y="27" width="5" height="5" fill="#6941C6"/>
<rect x="30" y="39.5" width="5" height="5" fill="#6941C6"/>
<rect x="55.7363" y="39.5" width="5" height="5" fill="#6941C6"/>
<rect x="30" y="52" width="5" height="5" fill="#6941C6"/>
<rect x="55.7363" y="52" width="4.62222" height="5" fill="#6941C6"/>
<path d="M38.7483 37.3783H38.748V47.1122H38.7483C38.7787 49.0193 41.9409 50.5608 45.8371 50.5608C49.7334 50.5608 52.8955 49.0193 52.926 47.1122H52.9262V37.3783H52.926C52.8955 39.2855 49.7334 40.8269 45.8371 40.8269C41.9409 40.8269 38.7787 39.2855 38.7483 37.3783Z" fill="url(#paint0_linear_8534_2888)"/>
<path fill-rule="evenodd" clip-rule="evenodd" d="M45.8371 40.8277C49.7523 40.8277 52.9262 39.2713 52.9262 37.3513C52.9262 35.4314 49.7523 33.875 45.8371 33.875C41.9219 33.875 38.748 35.4314 38.748 37.3513C38.748 39.2713 41.9219 40.8277 45.8371 40.8277ZM45.8655 39.1313C47.8231 39.1313 49.41 38.353 49.41 37.3931C49.41 36.4331 47.8231 35.6549 45.8655 35.6549C43.9079 35.6549 42.3209 36.4331 42.3209 37.3931C42.3209 38.353 43.9079 39.1313 45.8655 39.1313Z" fill="#8D6AF1"/>
<ellipse cx="45.8309" cy="37.3893" rx="3.68632" ry="1.85407" fill="white"/>
<path d="M43.5753 45.3283V48.4988L41.1934 47.1639V41.2679L45.8154 44.0212L50.551 41.2679V47.2751L48.169 48.4988V45.3283L45.8154 46.6354L43.5753 45.3283Z" fill="white"/>
<defs>
<linearGradient id="paint0_linear_8534_2888" x1="45.8371" y1="38.8801" x2="45.8371" y2="50.5608" gradientUnits="userSpaceOnUse">
<stop stop-color="#35198E"/>
<stop offset="1" stop-color="#8D6AF1"/>
</linearGradient>
</defs>
</svg>
