<svg xmlns="http://www.w3.org/2000/svg" width="89" height="89" fill="none"><path fill="#EFF8FF" d="M0 28C0 12.536 12.536 0 28 0h33c15.464 0 28 12.536 28 28v33c0 15.464-12.536 28-28 28H28C12.536 89 0 76.464 0 61V28Z"/><path fill="#175CD3" d="M51.199 48.552h-.351v-3.798a6.848 6.848 0 0 0-13.696 0v3.798h-.35a2.477 2.477 0 0 0-2.475 2.474v10.085a2.478 2.478 0 0 0 2.474 2.475H51.2a2.477 2.477 0 0 0 2.474-2.474V51.026a2.477 2.477 0 0 0-2.474-2.474ZM39.1 44.754a4.9 4.9 0 0 1 9.798 0v3.798H39.1v-3.798ZM51.724 61.11a.526.526 0 0 1-.525.526H36.8a.526.526 0 0 1-.525-.526V51.026a.526.526 0 0 1 .525-.525H51.2a.526.526 0 0 1 .525.525v10.085Z"/><path fill="#175CD3" d="M44 53.96a.974.974 0 0 0-.975.974v2.114a.974.974 0 1 0 1.95 0v-2.114a.974.974 0 0 0-.975-.975Z"/><path fill="#175CD3" d="M59.722 25.414H28.278A4.283 4.283 0 0 0 24 29.693V54.28a4.283 4.283 0 0 0 4.278 4.279h3.718a.974.974 0 1 0 0-1.95h-3.718a2.332 2.332 0 0 1-2.33-2.329V35.156h36.103v19.125a2.332 2.332 0 0 1-2.33 2.33h-3.483a.975.975 0 0 0 0 1.949h3.484A4.283 4.283 0 0 0 64 54.28V29.693a4.283 4.283 0 0 0-4.278-4.279Zm-33.773 7.793v-3.514a2.332 2.332 0 0 1 2.33-2.33h31.443a2.332 2.332 0 0 1 2.33 2.33v3.514H25.948Z"/><path fill="#175CD3" d="M29.048 29.408h-.915a.974.974 0 1 0 0 1.949h.915a.974.974 0 1 0 0-1.949ZM33.043 29.408h-.915a.974.974 0 1 0 0 1.949h.915a.974.974 0 1 0 0-1.949ZM37.038 29.408h-.915a.975.975 0 1 0 0 1.949h.915a.974.974 0 1 0 0-1.949Z"/></svg>