<svg width="89" height="89" viewBox="0 0 89 89" fill="none" xmlns="http://www.w3.org/2000/svg">
<path d="M0 28C0 12.536 12.536 0 28 0H61C76.464 0 89 12.536 89 28V61C89 76.464 76.464 89 61 89H28C12.536 89 0 76.464 0 61V28Z" fill="#EFF8FF"/>
<path d="M51.1987 48.552H50.8478V44.7538C50.8356 42.9457 50.1088 41.2158 48.8259 39.9416C47.5431 38.6673 45.8083 37.9522 44.0002 37.9522C42.192 37.9522 40.4573 38.6673 39.1744 39.9416C37.8916 41.2158 37.1647 42.9457 37.1525 44.7538V48.552H36.8016C36.1456 48.5527 35.5167 48.8136 35.0528 49.2775C34.5889 49.7414 34.328 50.3703 34.3273 51.0263V61.1115C34.328 61.7675 34.5889 62.3964 35.0527 62.8603C35.5165 63.3241 36.1454 63.5851 36.8013 63.5859H51.1987C51.8547 63.5852 52.4836 63.3243 52.9475 62.8604C53.4114 62.3965 53.6723 61.7676 53.6731 61.1116V51.0263C53.6723 50.3703 53.4114 49.7414 52.9475 49.2775C52.4836 48.8136 51.8547 48.5527 51.1987 48.552ZM39.1009 44.7538C39.1009 43.4544 39.6171 42.2084 40.5358 41.2896C41.4546 40.3708 42.7007 39.8547 44 39.8547C45.2993 39.8547 46.5454 40.3708 47.4642 41.2896C48.3829 42.2084 48.8991 43.4544 48.8991 44.7538V48.552H39.1009V44.7538ZM51.7243 61.1115C51.7241 61.2509 51.6687 61.3845 51.5702 61.483C51.4716 61.5815 51.338 61.637 51.1987 61.6371H36.8013C36.662 61.637 36.5284 61.5815 36.4298 61.483C36.3313 61.3845 36.2759 61.2509 36.2757 61.1115V51.0263C36.2759 50.887 36.3313 50.7534 36.4298 50.6549C36.5284 50.5563 36.662 50.5009 36.8013 50.5007H51.1987C51.338 50.5009 51.4716 50.5563 51.5702 50.6549C51.6687 50.7534 51.7241 50.887 51.7243 51.0263V61.1115Z" fill="#175CD3"/>
<path d="M44 53.9592C43.7416 53.9592 43.4937 54.0619 43.311 54.2446C43.1283 54.4274 43.0256 54.6752 43.0256 54.9336V57.0484C43.0256 57.3068 43.1283 57.5546 43.311 57.7374C43.4938 57.9201 43.7416 58.0228 44 58.0228C44.2584 58.0228 44.5063 57.9201 44.689 57.7374C44.8717 57.5546 44.9744 57.3068 44.9744 57.0484V54.9336C44.9744 54.6752 44.8717 54.4274 44.689 54.2446C44.5063 54.0619 44.2584 53.9592 44 53.9592Z" fill="#175CD3"/>
<path d="M59.7216 25.4141H28.2784C27.1441 25.4153 26.0566 25.8665 25.2545 26.6686C24.4524 27.4707 24.0013 28.5582 24 29.6926V54.2812C24.0013 55.4156 24.4525 56.5031 25.2545 57.3051C26.0566 58.1072 27.1441 58.5584 28.2784 58.5597H31.9955C32.254 58.5597 32.5018 58.457 32.6845 58.2743C32.8673 58.0916 32.9699 57.8437 32.9699 57.5853C32.9699 57.3269 32.8673 57.0791 32.6845 56.8963C32.5018 56.7136 32.254 56.6109 31.9955 56.6109H28.2784C27.6608 56.6102 27.0686 56.3646 26.6319 55.9278C26.1951 55.4911 25.9495 54.8989 25.9488 54.2812V35.1562H62.0513V54.2812C62.0505 54.8989 61.8049 55.4911 61.3681 55.9278C60.9314 56.3646 60.3392 56.6102 59.7216 56.6109H56.2383C55.9799 56.6109 55.732 56.7136 55.5493 56.8963C55.3666 57.0791 55.2639 57.3269 55.2639 57.5853C55.2639 57.8437 55.3666 58.0916 55.5493 58.2743C55.732 58.457 55.9799 58.5597 56.2383 58.5597H59.7216C60.8559 58.5584 61.9434 58.1072 62.7455 57.3051C63.5475 56.5031 63.9987 55.4156 64 54.2812V29.6926C63.9987 28.5582 63.5476 27.4707 62.7455 26.6686C61.9434 25.8665 60.8559 25.4153 59.7216 25.4141ZM25.9488 33.2073V29.6926C25.9495 29.0749 26.1951 28.4828 26.6319 28.046C27.0686 27.6093 27.6608 27.3636 28.2784 27.3629H59.7216C60.3392 27.3636 60.9314 27.6093 61.3681 28.046C61.8049 28.4828 62.0505 29.0749 62.0513 29.6926V33.2073H25.9488Z" fill="#175CD3"/>
<path d="M29.0484 29.408H28.1328C27.8744 29.408 27.6266 29.5106 27.4438 29.6933C27.2611 29.8761 27.1584 30.1239 27.1584 30.3823C27.1584 30.6408 27.2611 30.8886 27.4438 31.0713C27.6266 31.2541 27.8744 31.3567 28.1328 31.3567H29.0484C29.3069 31.3567 29.5547 31.2541 29.7374 31.0713C29.9202 30.8886 30.0228 30.6408 30.0228 30.3823C30.0228 30.1239 29.9202 29.8761 29.7374 29.6933C29.5547 29.5106 29.3069 29.408 29.0484 29.408Z" fill="#175CD3"/>
<path d="M33.0434 29.408H32.1279C31.8695 29.408 31.6216 29.5106 31.4389 29.6933C31.2562 29.8761 31.1535 30.1239 31.1535 30.3823C31.1535 30.6408 31.2562 30.8886 31.4389 31.0713C31.6216 31.2541 31.8695 31.3567 32.1279 31.3567H33.0434C33.1714 31.3567 33.2981 31.3315 33.4163 31.2825C33.5345 31.2336 33.6419 31.1618 33.7324 31.0713C33.8229 30.9808 33.8947 30.8734 33.9436 30.7552C33.9926 30.637 34.0178 30.5103 34.0178 30.3823C34.0178 30.2544 33.9926 30.1277 33.9436 30.0095C33.8947 29.8912 33.8229 29.7838 33.7324 29.6933C33.6419 29.6029 33.5345 29.5311 33.4163 29.4821C33.2981 29.4332 33.1714 29.408 33.0434 29.408Z" fill="#175CD3"/>
<path d="M37.0384 29.408H36.1229C35.8645 29.408 35.6166 29.5106 35.4339 29.6933C35.2512 29.8761 35.1485 30.1239 35.1485 30.3823C35.1485 30.6408 35.2512 30.8886 35.4339 31.0713C35.6166 31.2541 35.8645 31.3567 36.1229 31.3567H37.0384C37.1664 31.3567 37.2931 31.3315 37.4113 31.2825C37.5295 31.2336 37.6369 31.1618 37.7274 31.0713C37.8179 30.9808 37.8897 30.8734 37.9386 30.7552C37.9876 30.637 38.0128 30.5103 38.0128 30.3823C38.0128 30.2544 37.9876 30.1277 37.9386 30.0095C37.8897 29.8912 37.8179 29.7838 37.7274 29.6933C37.6369 29.6029 37.5295 29.5311 37.4113 29.4821C37.2931 29.4332 37.1664 29.408 37.0384 29.408Z" fill="#175CD3"/>
</svg>
