<svg viewBox="0 0 89 89" fill="none" xmlns="http://www.w3.org/2000/svg">
<path d="M0 28C0 12.536 12.536 0 28 0H61C76.464 0 89 12.536 89 28V61C89 76.464 76.464 89 61 89H28C12.536 89 0 76.464 0 61V28Z" fill="#FFF1F3"/>
<path d="M59.1889 47.1748L57.4677 46.7447C57.3139 46.2467 57.113 45.7633 56.8682 45.2992L57.7816 43.7763C58.0348 43.3546 57.9678 42.8153 57.6205 42.4674L56.1054 40.9518C55.758 40.6039 55.2202 40.538 54.7965 40.7906L53.2741 41.7046C52.8095 41.4598 52.3261 41.2589 51.827 41.104L51.397 39.3834C51.2787 38.9062 50.8497 38.5714 50.358 38.5714H48.2151C47.7234 38.5714 47.2944 38.9062 47.1761 39.3834L47.1343 39.5504C47.1357 39.5818 47.1437 39.6112 47.1437 39.6428V43.2503C47.3823 43.1655 47.6196 43.0763 47.8677 43.0204C48.2633 42.9314 48.574 42.6275 48.6713 42.2351L49.0522 40.7143H49.5209L49.9018 42.2351C49.9991 42.6275 50.3098 42.9314 50.7054 43.0204C51.4158 43.1804 52.0907 43.4609 52.7122 43.8532C53.0543 44.0703 53.4896 44.075 53.8359 43.8663L55.1815 43.0585L55.5142 43.3907L54.7065 44.7368C54.4983 45.0837 54.5035 45.5179 54.719 45.8601C55.1114 46.4826 55.3918 47.158 55.5519 47.8669C55.6408 48.2619 55.9443 48.5726 56.3377 48.671L57.858 49.0508V49.5206L56.3377 49.9004C55.9443 49.9988 55.6408 50.3095 55.5519 50.7045C55.3918 51.4134 55.1114 52.0888 54.719 52.7113C54.5035 53.0535 54.4983 53.4877 54.7065 53.8346L55.5142 55.1806L55.1815 55.5129L53.8359 54.7051C53.4886 54.4964 53.0543 54.5016 52.7122 54.7182C52.0907 55.1105 51.4158 55.391 50.7054 55.551C50.3098 55.64 49.9991 55.9439 49.9018 56.3363L49.5209 57.8571H49.0522L48.6713 56.3363C48.574 55.9439 48.2633 55.64 47.8677 55.551C47.1573 55.391 46.4824 55.1105 45.8614 54.7182C45.5203 54.5016 45.0845 54.4964 44.7377 54.7051L43.3916 55.5129L43.0594 55.1806L43.8672 53.8346C44.0754 53.4877 44.0701 53.0524 43.8541 52.7108C43.4617 52.0898 43.1813 51.4144 43.0212 50.7045C42.9323 50.3095 42.6283 49.9988 42.2359 49.9004L40.7151 49.5206V49.0508L42.2359 48.671C42.6283 48.5726 42.9323 48.2619 43.0212 47.8669C43.0771 47.6189 43.1663 47.3815 43.2513 47.1428H39.6437C39.6115 47.1428 39.5816 47.1347 39.5498 47.1334L39.3842 47.1748C38.9071 47.294 38.5723 47.7225 38.5723 48.2143V50.3571C38.5723 50.8489 38.9071 51.2774 39.3842 51.3966L41.1049 51.8267C41.2597 52.3258 41.4606 52.8086 41.7055 53.2727L40.7915 54.7951C40.5383 55.2167 40.6047 55.7566 40.9526 56.104L42.4682 57.6196C42.8161 57.967 43.356 58.034 43.7772 57.7807L45.2996 56.8668C45.7631 57.1116 46.247 57.3125 46.7461 57.4674L47.1761 59.188C47.2944 59.6652 47.7234 60 48.2151 60H50.358C50.8497 60 51.2787 59.6652 51.397 59.188L51.827 57.4674C52.3261 57.3125 52.8095 57.1116 53.2741 56.8668L54.7965 57.7807C55.2202 58.034 55.758 57.967 56.1054 57.6196L57.6205 56.104C57.9678 55.7561 58.0348 55.2167 57.7816 54.7951L56.8682 53.2722C57.113 52.8081 57.3139 52.3247 57.4677 51.8267L59.1889 51.3966C59.666 51.2774 60.0008 50.8489 60.0008 50.3571V48.2143C60.0008 47.7225 59.666 47.294 59.1889 47.1748Z" fill="#C01048"/>
<path d="M49.2857 53.5714C46.9221 53.5714 45 51.6488 45 49.2857C45 46.9226 46.9221 45 49.2857 45C51.6493 45 53.5714 46.9226 53.5714 49.2857C53.5714 51.6488 51.6493 53.5714 49.2857 53.5714ZM49.2857 47.1429C48.1044 47.1429 47.1429 48.1039 47.1429 49.2857C47.1429 50.4675 48.1044 51.4286 49.2857 51.4286C50.467 51.4286 51.4286 50.4675 51.4286 49.2857C51.4286 48.1039 50.467 47.1429 49.2857 47.1429Z" fill="#C01048"/>
<path d="M36.4286 37.5H31.0714C30.4797 37.5 30 37.0203 30 36.4286V31.0714C30 30.4797 30.4797 30 31.0714 30H36.4286C37.0203 30 37.5 30.4797 37.5 31.0714V36.4286C37.5 37.0203 37.0203 37.5 36.4286 37.5ZM32.1429 35.3571H35.3571V32.1429H32.1429V35.3571Z" fill="#C01048"/>
<path d="M45.0008 37.5H39.6437C39.052 37.5 38.5723 37.0203 38.5723 36.4286V31.0714C38.5723 30.4797 39.052 30 39.6437 30H45.0008C45.5925 30 46.0723 30.4797 46.0723 31.0714V36.4286C46.0723 37.0203 45.5925 37.5 45.0008 37.5ZM40.7151 35.3571H43.9294V32.1429H40.7151V35.3571Z" fill="#C01048"/>
<path d="M36.4286 46.0714H31.0714C30.4797 46.0714 30 45.5917 30 45V39.6428C30 39.0511 30.4797 38.5714 31.0714 38.5714H36.4286C37.0203 38.5714 37.5 39.0511 37.5 39.6428V45C37.5 45.5917 37.0203 46.0714 36.4286 46.0714ZM32.1429 43.9286H35.3571V40.7143H32.1429V43.9286Z" fill="#C01048"/>
<path d="M45.0008 46.0714H39.6437C39.052 46.0714 38.5723 45.5917 38.5723 45V39.6428C38.5723 39.0511 39.052 38.5714 39.6437 38.5714H45.0008C45.5925 38.5714 46.0723 39.0511 46.0723 39.6428V45C46.0723 45.5917 45.5925 46.0714 45.0008 46.0714ZM40.7151 43.9286H43.9294V40.7143H40.7151V43.9286Z" fill="#C01048"/>
</svg>
