
<svg viewBox="0 0 50 50" fill="none" xmlns="http://www.w3.org/2000/svg">
<g clip-path="url(#clip0_1025_2512)">
<path d="M13.0494 25.7553C12.6326 25.7553 12.2949 25.4175 12.2949 25.0008L12.295 11.0622C12.295 9.39424 13.652 8.03711 15.32 8.03711H20.9368C21.3536 8.03711 21.6913 8.3749 21.6913 8.7916C21.6913 9.2084 21.3535 9.54609 20.9368 9.54609H15.32C14.4842 9.54609 13.8041 10.2262 13.8041 11.0621L13.804 25.0007C13.804 25.4175 13.4662 25.7553 13.0494 25.7553Z" fill="#365E7D"/>
<path d="M34.5793 41.8373H28.9625C28.5457 41.8373 28.208 41.4995 28.208 41.0828C28.208 40.6661 28.5458 40.3283 28.9625 40.3283H34.5793C35.4151 40.3283 36.0952 39.6482 36.0952 38.8124V24.3268C36.0952 23.91 36.433 23.5723 36.8497 23.5723C37.2664 23.5723 37.6042 23.9101 37.6042 24.3268V38.8123C37.6043 40.4804 36.2474 41.8373 34.5793 41.8373Z" fill="#365E7D"/>
<path d="M33.2373 3.79619L33.9695 1.09707C34.1451 0.449512 34.7328 0 35.4037 0H38.3948C39.0657 0 39.6534 0.449512 39.8291 1.09707L40.5612 3.79619C40.664 4.1751 40.9125 4.49785 41.2525 4.69414L42.8111 5.59404C43.151 5.79033 43.5548 5.84414 43.9343 5.74365L46.6379 5.02812C47.2865 4.85645 47.9696 5.14072 48.3051 5.72168L49.8006 8.31201C50.1361 8.89307 50.0406 9.62676 49.5677 10.1026L47.5962 12.0862C47.3195 12.3646 47.1642 12.7413 47.1642 13.1338V14.9336C47.1642 15.3262 47.3195 15.7027 47.5962 15.9812L49.5677 17.9647C50.0406 18.4406 50.1361 19.1743 49.8006 19.7554L48.3051 22.3457C47.9696 22.9268 47.2864 23.2109 46.6379 23.0393L43.9343 22.3237C43.5548 22.2233 43.151 22.2771 42.8111 22.4733L41.2525 23.3732C40.9125 23.5695 40.664 23.8923 40.5612 24.2712L39.8291 26.9703C39.6534 27.6179 39.0657 28.0674 38.3948 28.0674H35.4037C34.7328 28.0674 34.1451 27.6179 33.9695 26.9703L33.2373 24.2712C33.1346 23.8923 32.8861 23.5695 32.5461 23.3732L30.9875 22.4733C30.6476 22.2771 30.2438 22.2232 29.8643 22.3237L27.1607 23.0393C26.512 23.2109 25.8289 22.9267 25.4935 22.3457L23.998 19.7554C23.6625 19.1743 23.7579 18.4406 24.2309 17.9647L26.2024 15.9812C26.4791 15.7027 26.6344 15.3261 26.6344 14.9336V13.1338C26.6344 12.7412 26.4791 12.3646 26.2024 12.0862L24.2309 10.1026C23.7579 9.62676 23.6625 8.89307 23.998 8.31201L25.4935 5.72168C25.8289 5.14062 26.5121 4.85645 27.1607 5.02812L29.8643 5.74365C30.2438 5.84404 30.6476 5.79033 30.9875 5.59404L32.5461 4.69414C32.8861 4.49785 33.1346 4.1751 33.2373 3.79619ZM31.5346 14.0338C31.5346 16.9967 33.9364 19.3985 36.8993 19.3985C39.8622 19.3985 42.2641 16.9967 42.2641 14.0338C42.2641 11.0709 39.8621 8.66904 36.8992 8.66904C33.9363 8.66904 31.5346 11.071 31.5346 14.0338Z" fill="#A0AAB7"/>
<path d="M37.114 1.09707L37.8461 3.79619C37.9488 4.1751 38.1974 4.49785 38.5373 4.69414L40.096 5.59404C40.4359 5.79033 40.8397 5.84414 41.2192 5.74365L42.4887 5.40772L41.2527 4.69414C40.9128 4.49785 40.6643 4.1751 40.5615 3.79619L39.8294 1.09707C39.6537 0.449512 39.066 0 38.3951 0H35.6797C36.3506 0 36.9384 0.449512 37.114 1.09707Z" fill="#909BA5"/>
<path d="M47.5967 15.9812C47.3199 15.7028 47.1646 15.3262 47.1646 14.9337V13.1339C47.1646 12.7413 47.32 12.3647 47.5967 12.0863L49.5682 10.1027C50.0411 9.62686 50.1366 8.89316 49.8011 8.31211L48.3055 5.72168C47.97 5.14063 47.2868 4.85645 46.6383 5.02812L45.3154 5.37822C45.4214 5.47695 45.5148 5.59141 45.5901 5.72168L47.0856 8.31201C47.4211 8.89307 47.3257 9.62676 46.8527 10.1026L44.8813 12.0862C44.6045 12.3646 44.4492 12.7412 44.4492 13.1338V14.9336C44.4492 15.3262 44.6046 15.7027 44.8813 15.9812L46.8527 17.9647C47.3257 18.4406 47.4211 19.1743 47.0856 19.7554L45.5901 22.3457C45.5148 22.4761 45.4214 22.5905 45.3154 22.6892L46.6383 23.0393C47.2868 23.2109 47.97 22.9267 48.3055 22.3457L49.801 19.7554C50.1364 19.1743 50.041 18.4406 49.5681 17.9647L47.5967 15.9812Z" fill="#909BA5"/>
<path d="M41.2192 22.3249C40.8397 22.2244 40.4359 22.2783 40.096 22.4745L38.5373 23.3744C38.1974 23.5707 37.9488 23.8935 37.8461 24.2723L37.114 26.9715C36.9384 27.619 36.3506 28.0685 35.6797 28.0685H38.3951C39.066 28.0685 39.6537 27.619 39.8294 26.9715L40.5615 24.2723C40.6643 23.8935 40.9128 23.5707 41.2527 23.3744L42.4887 22.6608L41.2192 22.3249Z" fill="#909BA5"/>
<path d="M9.43859 25.7278L10.1707 23.0287C10.3464 22.3812 10.9341 21.9316 11.605 21.9316H14.5961C15.267 21.9316 15.8547 22.3812 16.0304 23.0287L16.7625 25.7278C16.8653 26.1067 17.1138 26.4295 17.4537 26.6258L19.0123 27.5257C19.3523 27.722 19.7561 27.7758 20.1356 27.6753L22.8392 26.9598C23.4878 26.7881 24.1709 27.0724 24.5064 27.6533L26.0019 30.2437C26.3373 30.8247 26.2419 31.5584 25.769 32.0343L23.7975 34.0179C23.5207 34.2963 23.3654 34.6729 23.3654 35.0654V36.8652C23.3654 37.2578 23.5207 37.6344 23.7975 37.9128L25.769 39.8964C26.2419 40.3723 26.3373 41.106 26.0019 41.687L24.5064 44.2773C24.1709 44.8584 23.4877 45.1426 22.8392 44.9709L20.1356 44.2554C19.7561 44.155 19.3523 44.2087 19.0123 44.405L17.4537 45.3049C17.1138 45.5012 16.8653 45.8239 16.7625 46.2028L16.0304 48.902C15.8547 49.5495 15.267 49.999 14.5961 49.999H11.605C10.9341 49.999 10.3464 49.5495 10.1707 48.902L9.43859 46.2028C9.33586 45.8239 9.08732 45.5012 8.74738 45.3049L7.18879 44.405C6.84885 44.2087 6.44504 44.1549 6.06555 44.2554L3.36193 44.9709C2.7133 45.1426 2.03019 44.8583 1.69475 44.2773L0.19914 41.6871C-0.136309 41.1061 -0.0408991 40.3724 0.43205 39.8965L2.40353 37.9129C2.68029 37.6345 2.83557 37.2578 2.83557 36.8653V35.0655C2.83557 34.673 2.68029 34.2964 2.40353 34.018L0.43205 32.0344C-0.0408991 31.5585 -0.136309 30.8248 0.19914 30.2438L1.69465 27.6534C2.0301 27.0724 2.7133 26.7882 3.36184 26.9599L6.06545 27.6754C6.44494 27.7758 6.84875 27.7221 7.18869 27.5258L8.74728 26.6259C9.08732 26.4295 9.33586 26.1066 9.43859 25.7278ZM7.73586 35.9654C7.73586 38.9283 10.1377 41.3302 13.1006 41.3302C16.0635 41.3302 18.4654 38.9283 18.4654 35.9654C18.4654 33.0025 16.0635 30.6007 13.1006 30.6007C10.1377 30.6007 7.73586 33.0025 7.73586 35.9654Z" fill="#A0AAB7"/>
<path d="M13.3151 23.0287L14.0473 25.7278C14.15 26.1067 14.3985 26.4295 14.7385 26.6258L16.2972 27.5257C16.6371 27.722 17.0409 27.7758 17.4204 27.6753L18.6898 27.3394L17.4539 26.6258C17.114 26.4295 16.8654 26.1067 16.7627 25.7278L16.0306 23.0287C15.855 22.3813 15.2672 21.9316 14.5963 21.9316H11.8809C12.5518 21.9316 13.1396 22.3812 13.3151 23.0287Z" fill="#909BA5"/>
<path d="M23.7978 37.9128C23.521 37.6344 23.3657 37.2577 23.3657 36.8652V35.0654C23.3657 34.6729 23.5211 34.2963 23.7978 34.0179L25.7692 32.0343C26.2422 31.5584 26.3377 30.8247 26.0022 30.2437L24.5066 27.6533C24.1712 27.0723 23.488 26.7881 22.8395 26.9598L21.5166 27.3099C21.6226 27.4086 21.716 27.5229 21.7913 27.6533L23.2868 30.2437C23.6223 30.8247 23.5269 31.5584 23.0539 32.0343L21.0824 34.0179C20.8057 34.2963 20.6504 34.6729 20.6504 35.0654V36.8652C20.6504 37.2578 20.8058 37.6344 21.0824 37.9128L23.0539 39.8964C23.5269 40.3723 23.6223 41.106 23.2868 41.687L21.7912 44.2774C21.7159 44.4078 21.6225 44.5223 21.5165 44.6209L22.8394 44.971C23.4879 45.1427 24.1711 44.8585 24.5065 44.2774L26.0021 41.6871C26.3375 41.1061 26.2421 40.3724 25.7691 39.8965L23.7978 37.9128Z" fill="#909BA5"/>
<path d="M17.4204 44.2565C17.0409 44.156 16.6371 44.2099 16.2972 44.4061L14.7385 45.306C14.3985 45.5023 14.15 45.8252 14.0473 46.204L13.3151 48.9031C13.1396 49.5506 12.5518 50.0002 11.8809 50.0002H14.5963C15.2672 50.0002 15.8549 49.5506 16.0306 48.9031L16.7627 46.204C16.8654 45.8252 17.114 45.5023 17.4539 45.306L18.6898 44.5924L17.4204 44.2565Z" fill="#909BA5"/>
<path d="M25.2395 8.50749L21.5378 5.86442C21.2861 5.68473 20.9365 5.86462 20.9365 6.17389V11.4598C20.9365 11.7691 21.286 11.949 21.5378 11.7693L25.2396 9.12634C25.4521 8.97477 25.452 8.65915 25.2395 8.50749Z" fill="#407093"/>
<path d="M14.5676 16.5862V13.7857C14.5676 12.9473 13.8879 12.2676 13.0494 12.2676C12.2109 12.2676 11.5312 12.9473 11.5312 13.7857V16.5862C11.5312 17.4247 12.2109 18.1044 13.0494 18.1044C13.8879 18.1044 14.5676 17.4246 14.5676 16.5862Z" fill="#407093"/>
<path d="M24.6593 41.3646L28.3612 44.0076C28.6128 44.1873 28.9624 44.0074 28.9624 43.6981V38.4122C28.9624 38.1029 28.6129 37.923 28.3612 38.1027L24.6593 40.7457C24.4469 40.8972 24.4469 41.213 24.6593 41.3646Z" fill="#407093"/>
<path d="M35.332 33.2877V36.0882C35.332 36.9267 36.0117 37.6063 36.8502 37.6063C37.6887 37.6063 38.3684 36.9267 38.3684 36.0882V33.2877C38.3684 32.4492 37.6887 31.7695 36.8502 31.7695C36.0117 31.7695 35.332 32.4492 35.332 33.2877Z" fill="#407093"/>
</g>
<defs>
<clipPath id="clip0_1025_2512">
<rect width="50" height="50" fill="white"/>
</clipPath>
</defs>
</svg>
