<svg width="50" height="50" viewBox="0 0 50 50" fill="none" xmlns="http://www.w3.org/2000/svg">
<path d="M37.7866 12.9732C36.8715 12.6605 36.2614 12.1916 36.2614 11.7226C36.2614 11.2537 36.8715 10.7066 37.7866 10.4721C38.1679 10.3158 38.3967 9.92501 38.3205 9.53421C38.0154 8.12737 37.5578 6.87684 36.719 5.70447C36.4902 5.39183 36.1089 5.23552 35.7276 5.46999C34.8887 5.93894 34.0498 6.0171 33.7448 5.70447C33.4397 5.39183 33.516 4.53209 33.9736 3.67235C34.1261 3.28156 34.0498 2.89077 33.7448 2.6563C32.6009 1.87472 31.3044 1.32761 30.008 1.01498C29.6267 0.936817 29.2454 1.17129 29.0928 1.56208C28.7878 2.49998 28.3302 3.12525 27.8727 3.12525C27.4151 3.12525 26.8813 2.49998 26.6525 1.56208C26.5 1.17129 26.1186 0.936817 25.7373 1.01498C24.3646 1.32761 23.1445 1.79656 22.0005 2.6563C21.6192 2.81261 21.543 3.28156 21.6955 3.59419C22.1531 4.45393 22.2293 5.31367 21.9243 5.62631C21.6192 5.93894 20.8566 5.86078 19.9415 5.39183C19.5602 5.23552 19.1789 5.31367 18.9501 5.62631C18.1875 6.79868 17.6536 8.12737 17.3486 9.45606C17.2723 9.84685 17.5011 10.2376 17.8824 10.394C18.7976 10.7066 19.4077 11.1755 19.4077 11.6445C19.4077 12.1134 18.7976 12.6605 17.8824 12.895C17.5011 13.0513 17.2723 13.4421 17.3486 13.8329C17.6536 15.2398 18.1112 16.4903 18.9501 17.6627C19.1789 17.9753 19.5602 18.1316 19.9415 17.8971C20.7804 17.4282 21.6192 17.35 21.9243 17.6627C22.2293 17.9753 22.1531 18.835 21.6955 19.6948C21.543 20.0856 21.6192 20.4764 21.9243 20.7108C23.0682 21.4924 24.3646 22.0395 25.6611 22.3522C26.0424 22.4303 26.4237 22.1958 26.5762 21.805C26.8813 20.8671 27.3388 20.2419 27.7964 20.2419C28.254 20.2419 28.7878 20.8671 29.0166 21.805C29.0928 22.1177 29.3979 22.3522 29.7792 22.3522C29.8555 22.3522 29.8555 22.3522 29.9317 22.3522C31.3044 22.0395 32.5246 21.5706 33.6685 20.7108C33.9736 20.4764 34.1261 20.0856 33.8973 19.6948C33.4397 18.835 33.3635 17.9753 33.6685 17.6627C33.9736 17.35 34.8124 17.4282 35.6513 17.8971C36.0326 18.0535 36.4139 17.9753 36.6427 17.6627C37.4053 16.4903 37.9392 15.1616 38.2442 13.8329C38.3967 13.5203 38.1679 13.1295 37.7866 12.9732ZM27.8727 17.1937C24.8985 17.1937 22.5344 14.7708 22.5344 11.7226C22.5344 8.67448 24.8985 6.25157 27.8727 6.25157C30.8468 6.25157 33.2109 8.67448 33.2109 11.7226C33.2109 14.7708 30.8468 17.1937 27.8727 17.1937Z" fill="#757575"/>
<path d="M28.4263 25.4774C28.4263 32.6731 22.702 38.447 15.7132 38.447C8.72431 38.447 3 32.6731 3 25.4774C3 18.2818 8.72431 12.5078 15.7132 12.5078C22.702 12.5078 28.4263 18.2818 28.4263 25.4774Z" stroke="#0950C5" stroke-width="4"/>
<path d="M24.0635 37.2051L32.0165 46.9151" stroke="#0950C5" stroke-width="3" stroke-linecap="round"/>
<path d="M7.3623 27.0799H10.8202L12.2033 24.5877L14.6238 29.9282L17.0443 21.0273L19.119 27.0799H23.2684" stroke="#0950C5" stroke-width="1.2" stroke-linecap="round"/>
<rect width="4.47569" height="12.826" rx="2" transform="matrix(0.760355 -0.649508 0.636475 0.771298 23.2686 40.1152)" fill="#0950C5"/>
<rect width="4.47187" height="1.92391" transform="matrix(0.76054 -0.649292 0.636257 0.771477 27.0771 44.627)" fill="#7BE492"/>
<rect width="4.47536" height="1.9239" transform="matrix(0.760426 -0.649425 0.636391 0.771367 28.623 46.5078)" fill="#7BE492"/>
<path d="M49.6678 30.8697C49.1085 30.6786 48.7357 30.392 48.7357 30.1055C48.7357 29.8189 49.1085 29.4845 49.6678 29.3412C49.9008 29.2457 50.0406 29.0069 49.994 28.7681C49.8076 27.9083 49.528 27.1441 49.0153 26.4277C48.8755 26.2366 48.6425 26.1411 48.4095 26.2844C47.8968 26.571 47.3842 26.6187 47.1978 26.4277C47.0113 26.2366 47.058 25.7112 47.3376 25.1858C47.4308 24.947 47.3842 24.7082 47.1978 24.5649C46.4987 24.0873 45.7064 23.7529 44.9142 23.5619C44.6811 23.5141 44.4481 23.6574 44.3549 23.8962C44.1685 24.4694 43.8889 24.8515 43.6092 24.8515C43.3296 24.8515 43.0034 24.4694 42.8636 23.8962C42.7704 23.6574 42.5374 23.5141 42.3043 23.5619C41.4655 23.7529 40.7198 24.0395 40.0207 24.5649C39.7877 24.6604 39.7411 24.947 39.8343 25.1381C40.1139 25.6635 40.1605 26.1889 39.9741 26.3799C39.7877 26.571 39.3217 26.5232 38.7624 26.2366C38.5294 26.1411 38.2964 26.1889 38.1566 26.3799C37.6905 27.0964 37.3643 27.9083 37.1779 28.7203C37.1313 28.9591 37.2711 29.198 37.5041 29.2935C38.0634 29.4845 38.4362 29.7711 38.4362 30.0577C38.4362 30.3443 38.0634 30.6786 37.5041 30.8219C37.2711 30.9174 37.1313 31.1563 37.1779 31.3951C37.3643 32.2548 37.6439 33.019 38.1566 33.7355C38.2964 33.9265 38.5294 34.0221 38.7624 33.8788C39.2751 33.5922 39.7877 33.5444 39.9741 33.7355C40.1605 33.9265 40.1139 34.4519 39.8343 34.9773C39.7411 35.2161 39.7877 35.455 39.9741 35.5982C40.6732 36.0759 41.4655 36.4102 42.2577 36.6013C42.4907 36.649 42.7238 36.5057 42.817 36.2669C43.0034 35.6938 43.283 35.3117 43.5626 35.3117C43.8423 35.3117 44.1685 35.6938 44.3083 36.2669C44.3549 36.458 44.5413 36.6013 44.7743 36.6013C44.821 36.6013 44.821 36.6013 44.8676 36.6013C45.7064 36.4102 46.4521 36.1236 47.1512 35.5982C47.3376 35.455 47.4308 35.2161 47.291 34.9773C47.0113 34.4519 46.9647 33.9265 47.1512 33.7355C47.3376 33.5444 47.8502 33.5922 48.3629 33.8788C48.5959 33.9743 48.8289 33.9265 48.9687 33.7355C49.4348 33.019 49.761 32.207 49.9474 31.3951C50.0406 31.204 49.9008 30.9652 49.6678 30.8697ZM43.6092 33.4489C41.7917 33.4489 40.347 31.9682 40.347 30.1055C40.347 28.2427 41.7917 26.762 43.6092 26.762C45.4268 26.762 46.8715 28.2427 46.8715 30.1055C46.8715 31.9682 45.4268 33.4489 43.6092 33.4489Z" fill="#757575"/>
</svg>
