<svg width="50" height="50" viewBox="0 0 50 50" fill="none" xmlns="http://www.w3.org/2000/svg">
<path d="M9.31299 30.5572C9.31299 30.5572 13.7145 18.664 13.6768 18.6514C13.6391 18.6388 13.2498 17.0538 13.2498 17.0538C12.9437 17.0838 12.6315 16.979 12.4038 16.7512L10.5094 14.8568C10.0987 14.4462 9.43291 14.4462 9.02227 14.8568L5.50361 18.3755C5.09297 18.7861 5.09297 19.4519 5.50361 19.8626L7.39805 21.757C7.72969 22.0886 7.80068 22.599 7.57432 23.0097C7.03164 23.9941 6.59326 25.0441 6.27432 26.1449C6.14404 26.5947 5.73281 26.9045 5.26455 26.9045H2.58672C2.00596 26.9045 1.53516 27.3753 1.53516 27.956V32.9321C1.53516 33.5129 2.00596 33.9837 2.58672 33.9837H5.26445C5.73271 33.9837 6.14395 34.2934 6.27422 34.7432C6.59307 35.8439 7.03145 36.8939 7.57422 37.8783C7.80059 38.289 7.72959 38.7994 7.39795 39.131L5.50352 41.0255C5.09287 41.4361 5.09287 42.1019 5.50352 42.5126L9.02217 46.0312C9.43281 46.4419 10.0986 46.4419 10.5093 46.0312L12.4037 44.1368C12.6273 43.9132 12.9321 43.8087 13.2329 43.8333L13.6769 41.2498L9.31299 30.5572Z" fill="#4D66D2"/>
<path d="M39.5942 26.9047C39.484 26.9047 35.5708 26.9047 35.4831 26.9047C35.206 26.9047 34.9813 27.1293 34.9813 27.4063V29.9425C34.9813 30.2195 34.7567 30.4442 34.4797 30.4442H31.7413C31.4713 30.4442 31.2527 30.6581 31.24 30.9279C30.9853 36.3628 26.461 40.6811 20.9456 40.6043C15.4729 40.5281 11.0063 36.0617 10.9303 30.589C10.8513 24.9108 15.4304 20.2832 21.0903 20.2832C22.0956 20.2832 23.0666 20.4295 23.9835 20.7015C24.3061 20.7972 24.63 20.5583 24.63 20.2218C24.63 20.0968 24.63 12.1726 24.63 11.9402C24.63 11.3595 24.1592 10.8887 23.5784 10.8887H18.6023C18.0216 10.8887 17.5508 11.3595 17.5508 11.9402V14.618C17.5508 15.0862 17.241 15.4975 16.7913 15.6277C15.6906 15.9467 14.6406 16.3851 13.6562 16.9277C13.5275 16.9986 13.3891 17.0403 13.2494 17.054C10.2075 20.6839 8.37305 25.3581 8.37305 30.4534C8.37305 35.5396 10.2007 40.2063 13.2326 43.8334C13.3779 43.8453 13.5224 43.8869 13.6562 43.9607C14.6406 44.5034 15.6905 44.9418 16.7913 45.2606C17.2411 45.3909 17.5508 45.8021 17.5508 46.2704V48.9481C17.5508 49.5289 18.0216 49.9997 18.6023 49.9997H23.5784C24.1592 49.9997 24.63 49.5289 24.63 48.9481V46.2704C24.63 45.8021 24.9397 45.3909 25.3895 45.2606C26.4902 44.9417 27.5401 44.5033 28.5245 43.9607C28.9353 43.7343 29.4456 43.8053 29.7772 44.1369L31.6717 46.0313C32.0823 46.442 32.7481 46.442 33.1588 46.0313L36.6774 42.5127C37.0881 42.1021 37.0881 41.4362 36.6774 41.0255L34.783 39.1311C34.4514 38.7994 34.3804 38.289 34.6068 37.8782C35.1495 36.8938 35.5879 35.8439 35.9067 34.7432C36.0371 34.2934 36.4482 33.9836 36.9165 33.9836H39.5941C40.1749 33.9836 40.6457 33.5128 40.6457 32.932V27.956C40.6458 27.3755 40.175 26.9047 39.5942 26.9047Z" fill="#6B7ED9"/>
<path d="M31.7409 22.6621H27.9158C27.663 22.6621 27.458 22.8671 27.458 23.1199V26.945C27.458 27.1979 27.663 27.4028 27.9158 27.4028H31.7409C31.9937 27.4028 32.1987 27.1979 32.1987 26.945V23.1199C32.1988 22.8671 31.9937 22.6621 31.7409 22.6621Z" fill="#00D2FC"/>
<path d="M37.6833 0H33.8582C33.6054 0 33.4004 0.20498 33.4004 0.457813V4.28291C33.4004 4.53574 33.6054 4.74072 33.8582 4.74072H37.6833C37.9361 4.74072 38.1411 4.53574 38.1411 4.28291V0.457813C38.1412 0.20498 37.9362 0 37.6833 0Z" fill="#00D2FC"/>
<path d="M45.7888 18.123H41.9637C41.7108 18.123 41.5059 18.328 41.5059 18.5809V22.406C41.5059 22.6588 41.7108 22.8638 41.9637 22.8638H45.7888C46.0416 22.8638 46.2466 22.6588 46.2466 22.406V18.5809C46.2466 18.328 46.0416 18.123 45.7888 18.123Z" fill="#00D2FC"/>
<path d="M48.0064 6.07617H41.3484C41.0956 6.07617 40.8906 6.28115 40.8906 6.53398V13.192C40.8906 13.4448 41.0956 13.6498 41.3484 13.6498H48.0064C48.2593 13.6498 48.4643 13.4448 48.4643 13.192V6.53408C48.4644 6.28115 48.2593 6.07617 48.0064 6.07617Z" fill="#00D2FC"/>
<path d="M37.1464 10.6016H29.6834C29.4306 10.6016 29.2256 10.8065 29.2256 11.0594V18.5224C29.2256 18.7752 29.4306 18.9802 29.6834 18.9802H37.1464C37.3992 18.9802 37.6042 18.7752 37.6042 18.5224V11.0594C37.6042 10.8065 37.3992 10.6016 37.1464 10.6016Z" fill="#00D2FC"/>
<path d="M21.0909 26.3398C18.8222 26.3398 16.9766 28.1855 16.9766 30.4541C16.9766 32.7228 18.8223 34.5685 21.0909 34.5685C23.3596 34.5685 25.2052 32.7228 25.2052 30.4541C25.2053 28.1855 23.3596 26.3398 21.0909 26.3398Z" fill="#00D2FC"/>
</svg>
