<svg viewBox="0 0 89 89" fill="none" xmlns="http://www.w3.org/2000/svg">
<path d="M0 28C0 12.536 12.536 0 28 0H61C76.464 0 89 12.536 89 28V61C89 76.464 76.464 89 61 89H28C12.536 89 0 76.464 0 61V28Z" fill="#ECFDF3"/>
<path d="M54.7676 40.4651C51.8793 40.4651 49.5352 38.1209 49.5352 35.2326C49.5352 32.3442 51.8793 30 54.7676 30C57.6559 30 60.0001 32.3442 60.0001 35.2326C60.0001 38.1209 57.6559 40.4651 54.7676 40.4651ZM54.7676 32.093C53.0374 32.093 51.6281 33.5023 51.6281 35.2326C51.6281 36.9628 53.0374 38.3721 54.7676 38.3721C56.4978 38.3721 57.9071 36.9628 57.9071 35.2326C57.9071 33.5023 56.4978 32.093 54.7676 32.093Z" fill="#027A48"/>
<path d="M44.9997 47.4418H38.0231C37.451 47.4418 36.9766 46.9674 36.9766 46.3953C36.9766 45.8232 37.451 45.3488 38.0231 45.3488H44.9997C45.5718 45.3488 46.0462 45.8232 46.0462 46.3953C46.0462 46.9674 45.5718 47.4418 44.9997 47.4418Z" fill="#027A48"/>
<path d="M50.581 53.0233H38.0231C37.451 53.0233 36.9766 52.5488 36.9766 51.9767C36.9766 51.4047 37.451 50.9302 38.0231 50.9302H50.581C51.153 50.9302 51.6275 51.4047 51.6275 51.9767C51.6275 52.5488 51.153 53.0233 50.581 53.0233Z" fill="#027A48"/>
<path d="M49.1857 60H40.8138C33.2372 60 30 56.7628 30 49.186V40.814C30 33.2372 33.2372 30 40.8138 30H47.7904C48.3625 30 48.8369 30.4744 48.8369 31.0465C48.8369 31.6186 48.3625 32.093 47.7904 32.093H40.8138C34.3813 32.093 32.093 34.3814 32.093 40.814V49.186C32.093 55.6186 34.3813 57.907 40.8138 57.907H49.1857C55.6181 57.907 57.9065 55.6186 57.9065 49.186V42.2093C57.9065 41.6372 58.3809 41.1628 58.953 41.1628C59.525 41.1628 59.9995 41.6372 59.9995 42.2093V49.186C59.9995 56.7628 56.7623 60 49.1857 60Z" fill="#027A48"/>
</svg>
