<svg width="50" height="50" viewBox="0 0 50 50" fill="none" xmlns="http://www.w3.org/2000/svg">
<g clip-path="url(#clip0_803_4071)">
<path d="M47.0094 9.57227H31.5018C30.3283 6.16778 27.1337 3.70459 23.3516 3.61758C18.464 3.50528 14.3757 7.43858 14.3075 12.327C14.2387 17.2657 18.2216 21.2909 23.1445 21.2909C26.9804 21.2909 30.2449 18.847 31.4674 15.4315H37.7686V20.3144C37.7686 20.8537 38.2058 21.2909 38.7451 21.2909H42.6514C43.1907 21.2909 43.6279 20.8537 43.6279 20.3144V15.4315H47.0703C48.7157 15.4315 50.0442 14.0752 49.9988 12.4195C49.9551 10.8239 48.6058 9.57227 47.0094 9.57227ZM23.1201 16.8965C20.6432 16.8965 18.6279 14.8813 18.6279 12.4043C18.6279 9.92735 20.6432 7.91211 23.1201 7.91211C25.5971 7.91211 27.6123 9.92735 27.6123 12.4043C27.6123 14.8813 25.5971 16.8965 23.1201 16.8965Z" fill="#FFDA2D"/>
<path d="M49.999 12.42C49.9551 10.8243 48.6055 9.57235 47.0098 9.57235H31.502C30.3281 6.16806 27.1338 3.70419 23.3516 3.61728C23.2646 3.61532 23.1777 3.61435 23.0918 3.6163V7.9122H23.1201C25.5967 7.9122 27.6123 9.92782 27.6123 12.4044C27.6123 14.8809 25.5967 16.8966 23.1201 16.8966H23.0918V21.2901C23.1094 21.2911 23.127 21.2911 23.1445 21.2911C26.9805 21.2911 30.2451 18.8468 31.4678 15.4317H37.7686V20.3145C37.7686 20.8536 38.2061 21.2911 38.7451 21.2911H42.6514C43.1904 21.2911 43.6279 20.8536 43.6279 20.3145V15.4317H47.0703C48.7158 15.4317 50.0439 14.0753 49.999 12.42Z" fill="#FFAA17"/>
<path d="M12.687 23.0689C15.8117 23.296 18.3539 25.3956 19.297 28.1901L26.1666 29.4012C27.874 29.7019 29.0137 31.3305 28.713 33.0369L28.7066 33.0684C28.406 34.7748 26.7784 35.9144 25.071 35.6137L18.7994 34.5105C18.0057 34.3709 17.2365 34.8602 17.0268 35.6385C16.7849 36.5357 17.378 37.4437 18.2969 37.5828L26.2939 38.7925L39.2509 32.0818C41.9667 30.6894 45.2222 31.5113 46.9841 33.8601C47.3737 34.3796 47.1912 35.1271 46.6121 35.4209L29.6193 44.0409C27.9989 44.8629 26.1664 45.1712 24.3663 44.9247L11.7755 42.6749H6.51865L5.85547 42.2544V25.9209L6.51865 25.5575C8.02627 23.8805 10.2646 22.8933 12.687 23.0689Z" fill="#FFCCBD"/>
<path d="M25.0713 35.6143L23.0898 35.2656V28.8594L26.166 29.4014C27.874 29.7022 29.0137 31.3301 28.7129 33.0371L28.7061 33.0684C28.4053 34.7744 26.7783 35.9141 25.0713 35.6143Z" fill="#FFBDA9"/>
<path d="M46.6123 35.4191L29.6191 44.0392C27.999 44.8615 26.166 45.1691 24.3662 44.923L23.0898 44.6945V38.3068L26.2939 38.7911L39.251 32.0802C41.9668 30.6876 45.2217 31.5099 46.9844 33.8585C47.374 34.3781 47.1914 35.1251 46.6123 35.4191Z" fill="#FFBDA9"/>
<path d="M0.976562 46.3851H5.54189C6.08125 46.3851 6.51846 45.9479 6.51846 45.4085V24.0371C6.51846 23.4978 6.08125 23.0605 5.54189 23.0605H0.976562C0.437207 23.0605 0 23.4978 0 24.0371V45.4085C0 45.9479 0.437207 46.3851 0.976562 46.3851Z" fill="#004692"/>
</g>
<defs>
<clipPath id="clip0_803_4071">
<rect width="50" height="50" fill="white"/>
</clipPath>
</defs>
</svg>
