<svg xmlns="http://www.w3.org/2000/svg" width="24" height="16" fill="none"><path fill="#37352F" d="M12 15.5C4.149 15.5.256 8.655.095 8.364a.75.75 0 0 1 0-.729C.256 7.346 4.149.5 12 .5c7.851 0 11.744 6.845 11.905 7.136a.75.75 0 0 1 0 .728C23.744 8.655 19.852 15.5 12 15.5ZM1.633 7.999C2.525 9.35 6.027 14 12 14c5.992 0 9.479-4.645 10.367-5.999C21.475 6.65 17.973 2 12 2 6.008 2 2.521 6.645 1.633 7.999ZM12 12.5A4.505 4.505 0 0 1 7.5 8c0-2.481 2.019-4.5 4.5-4.5s4.5 2.019 4.5 4.5-2.019 4.5-4.5 4.5ZM12 5c-1.654 0-3 1.346-3 3s1.346 3 3 3 3-1.346 3-3-1.346-3-3-3Z"/></svg>