<svg id="Layer_1" xmlns="http://www.w3.org/2000/svg" version="1.1" viewBox="0 0 89 89">
  <path d="M0,28C0,12.54,12.54,0,28,0h33c15.46,0,28,12.54,28,28v33c0,15.46-12.54,28-28,28H28c-15.46,0-28-12.54-28-28V28Z" fill="#eff8ff"/>
  <line x1="58.44" y1="50.11" x2="29.56" y2="50.11" fill="none" stroke="#175cd3" stroke-width="2px" />
  <rect x="30.21" y="42.18" width="27.46" height="20.47" rx="2.11" ry="2.11" stroke-linejoin="round" stroke-linecap="round" fill="none" stroke="#175cd3" stroke-width="2px" />
  <line x1="36.91" y1="42.18" x2="36.91" y2="63.16" fill="none" stroke="#175cd3" stroke-width="2px" />
  <path d="M37.35,23.33v6.13c0,2.99-2.54,5.41-5.69,5.42h-6.1" stroke-linejoin="round" stroke-linecap="round" fill="none" stroke="#175cd3" stroke-width="2px" />
  <path d="M63,62.11V28.33c0-3.5-2.84-6.33-6.33-6.33h-20.67c-2.11,0-4.08,1.05-5.26,2.8l-4.66,6.94c-.7,1.04-1.07,2.27-1.07,3.53v26.84c0,3.5,2.84,6.33,6.33,6.33h25.33c3.5,0,6.33-2.84,6.33-6.33Z" fill="none" stroke="#175cd3" stroke-width="2px" />
</svg>