<svg width="40" height="41" viewBox="0 0 40 41" fill="none" xmlns="http://www.w3.org/2000/svg">
<path d="M27.1986 24.552H26.8477V20.7538C26.8355 18.9457 26.1087 17.2158 24.8258 15.9416C23.5429 14.6673 21.8082 13.9522 20 13.9522C18.1919 13.9522 16.4571 14.6673 15.1743 15.9416C13.8914 17.2158 13.1646 18.9457 13.1524 20.7538V24.552H12.8015C12.1455 24.5527 11.5166 24.8136 11.0527 25.2775C10.5888 25.7414 10.3279 26.3703 10.3271 27.0263V37.1115C10.3279 37.7675 10.5888 38.3964 11.0526 38.8603C11.5164 39.3241 12.1452 39.5851 12.8012 39.5859H27.1986C27.8546 39.5852 28.4835 39.3243 28.9474 38.8604C29.4113 38.3965 29.6722 37.7676 29.6729 37.1116V27.0263C29.6722 26.3703 29.4113 25.7414 28.9474 25.2775C28.4835 24.8136 27.8546 24.5527 27.1986 24.552ZM15.1008 20.7538C15.1008 19.4544 15.617 18.2084 16.5357 17.2896C17.4545 16.3708 18.7006 15.8547 19.9999 15.8547C21.2992 15.8547 22.5453 16.3708 23.464 17.2896C24.3828 18.2084 24.8989 19.4544 24.8989 20.7538V24.552H15.1008V20.7538ZM27.7242 37.1115C27.724 37.2509 27.6686 37.3845 27.57 37.483C27.4715 37.5815 27.3379 37.637 27.1986 37.6371H12.8012C12.6619 37.637 12.5283 37.5815 12.4297 37.483C12.3312 37.3845 12.2758 37.2509 12.2756 37.1115V27.0263C12.2758 26.887 12.3312 26.7534 12.4297 26.6549C12.5283 26.5563 12.6619 26.5009 12.8012 26.5007H27.1986C27.3379 26.5009 27.4715 26.5563 27.57 26.6549C27.6686 26.7534 27.724 26.887 27.7242 27.0263V37.1115Z" fill="#175CD3"/>
<path d="M19.9998 29.9592C19.7413 29.9592 19.4935 30.0619 19.3108 30.2446C19.128 30.4274 19.0254 30.6752 19.0254 30.9336V33.0484C19.0254 33.3068 19.128 33.5546 19.3108 33.7374C19.4935 33.9201 19.7413 34.0228 19.9998 34.0228C20.2582 34.0228 20.506 33.9201 20.6888 33.7374C20.8715 33.5546 20.9741 33.3068 20.9741 33.0484V30.9336C20.9741 30.6752 20.8715 30.4274 20.6888 30.2446C20.506 30.0619 20.2582 29.9592 19.9998 29.9592Z" fill="#175CD3"/>
<path d="M35.7216 1.41406H4.27844C3.14411 1.41534 2.0566 1.86653 1.25451 2.66863C0.452427 3.47073 0.00126135 4.55825 0 5.69258V30.2812C0.00128202 31.4156 0.452456 32.5031 1.25454 33.3051C2.05663 34.1072 3.14412 34.5584 4.27844 34.5597H7.99555C8.25397 34.5597 8.5018 34.457 8.68453 34.2743C8.86726 34.0916 8.96992 33.8437 8.96992 33.5853C8.96992 33.3269 8.86726 33.0791 8.68453 32.8963C8.5018 32.7136 8.25397 32.6109 7.99555 32.6109H4.27844C3.66078 32.6102 3.06862 32.3646 2.63188 31.9278C2.19513 31.4911 1.94945 30.8989 1.94875 30.2812V11.1562H38.0513V30.2812C38.0505 30.8989 37.8049 31.4911 37.3681 31.9278C36.9314 32.3646 36.3392 32.6102 35.7216 32.6109H32.2383C31.9799 32.6109 31.732 32.7136 31.5493 32.8963C31.3666 33.0791 31.2639 33.3269 31.2639 33.5853C31.2639 33.8437 31.3666 34.0916 31.5493 34.2743C31.732 34.457 31.9799 34.5597 32.2383 34.5597H35.7216C36.8559 34.5584 37.9434 34.1072 38.7455 33.3051C39.5475 32.5031 39.9987 31.4156 40 30.2812V5.69258C39.9987 4.55825 39.5476 3.47073 38.7455 2.66863C37.9434 1.86653 36.8559 1.41534 35.7216 1.41406ZM1.94875 9.20727V5.69258C1.94945 5.07492 2.19513 4.48277 2.63188 4.04602C3.06862 3.60927 3.66078 3.36359 4.27844 3.36289H35.7216C36.3392 3.36359 36.9314 3.60927 37.3681 4.04602C37.8049 4.48277 38.0505 5.07492 38.0513 5.69258V9.20727H1.94875Z" fill="#175CD3"/>
<path d="M5.0482 5.40796H4.13258C3.87416 5.40796 3.62632 5.51062 3.44359 5.69335C3.26086 5.87608 3.1582 6.12391 3.1582 6.38233C3.1582 6.64075 3.26086 6.88859 3.44359 7.07132C3.62632 7.25405 3.87416 7.35671 4.13258 7.35671H5.0482C5.30662 7.35671 5.55446 7.25405 5.73719 7.07132C5.91992 6.88859 6.02258 6.64075 6.02258 6.38233C6.02258 6.12391 5.91992 5.87608 5.73719 5.69335C5.55446 5.51062 5.30662 5.40796 5.0482 5.40796Z" fill="#175CD3"/>
<path d="M9.04324 5.40796H8.1277C7.86928 5.40796 7.62144 5.51062 7.43871 5.69335C7.25598 5.87608 7.15332 6.12391 7.15332 6.38233C7.15332 6.64075 7.25598 6.88859 7.43871 7.07132C7.62144 7.25405 7.86928 7.35671 8.1277 7.35671H9.04324C9.1712 7.35671 9.2979 7.33151 9.41612 7.28254C9.53434 7.23357 9.64175 7.1618 9.73223 7.07132C9.82271 6.98084 9.89448 6.87343 9.94345 6.75521C9.99241 6.63699 10.0176 6.51029 10.0176 6.38233C10.0176 6.25438 9.99241 6.12767 9.94345 6.00946C9.89448 5.89124 9.82271 5.78383 9.73223 5.69335C9.64175 5.60287 9.53434 5.5311 9.41612 5.48213C9.2979 5.43316 9.1712 5.40796 9.04324 5.40796Z" fill="#175CD3"/>
<path d="M13.0384 5.40796H12.1228C11.8644 5.40796 11.6166 5.51062 11.4338 5.69335C11.2511 5.87608 11.1484 6.12391 11.1484 6.38233C11.1484 6.64075 11.2511 6.88859 11.4338 7.07132C11.6166 7.25405 11.8644 7.35671 12.1228 7.35671H13.0384C13.1663 7.35671 13.293 7.33151 13.4112 7.28254C13.5295 7.23357 13.6369 7.1618 13.7273 7.07132C13.8178 6.98084 13.8896 6.87343 13.9386 6.75521C13.9875 6.63699 14.0127 6.51029 14.0127 6.38233C14.0127 6.25438 13.9875 6.12767 13.9386 6.00946C13.8896 5.89124 13.8178 5.78383 13.7273 5.69335C13.6369 5.60287 13.5295 5.5311 13.4112 5.48213C13.293 5.43316 13.1663 5.40796 13.0384 5.40796Z" fill="#175CD3"/>
</svg>
