<svg width="24" height="7" viewBox="0 0 24 7" fill="none" xmlns="http://www.w3.org/2000/svg">
<path d="M23.5 3.86524L18.5 0.978485L18.5 6.75199L23.5 3.86524ZM0.5 4.36523L1.45833 4.36523L1.45833 3.36523L0.5 3.36523L0.5 4.36523ZM3.375 4.36523L5.29167 4.36523L5.29167 3.36523L3.375 3.36523L3.375 4.36523ZM7.20833 4.36523L9.125 4.36524L9.125 3.36524L7.20833 3.36523L7.20833 4.36523ZM11.0417 4.36524L12.9583 4.36524L12.9583 3.36524L11.0417 3.36524L11.0417 4.36524ZM14.875 4.36524L16.7917 4.36524L16.7917 3.36524L14.875 3.36524L14.875 4.36524ZM18.7083 4.36524L20.625 4.36524L20.625 3.36524L18.7083 3.36524L18.7083 4.36524Z" fill="#292929"/>
</svg>
