<svg viewBox="0 0 22 22" fill="none" xmlns="http://www.w3.org/2000/svg">
<path d="M10.4983 1.32699C10.7035 0.891004 11.2965 0.891004 11.5017 1.32699L14.1585 6.97087C14.2399 7.144 14.3975 7.264 14.5797 7.29176L20.5204 8.1968C20.9793 8.26671 21.1625 8.85799 20.8304 9.19735L16.5317 13.5905C16.3999 13.7253 16.3397 13.9194 16.3708 14.1097L17.3856 20.3129C17.464 20.7921 16.9843 21.1576 16.5738 20.9313L11.2604 18.0025C11.0974 17.9127 10.9026 17.9127 10.7396 18.0025L5.42618 20.9313C5.01572 21.1576 4.53599 20.7921 4.61438 20.3129L5.62916 14.1097C5.66029 13.9194 5.60012 13.7253 5.46825 13.5905L1.16957 9.19735C0.837503 8.85799 1.02074 8.26671 1.47965 8.1968L7.42028 7.29176C7.60252 7.264 7.76005 7.144 7.84155 6.97087L10.4983 1.32699Z" stroke="#535862" stroke-width="1.2" stroke-linejoin="round"/>
</svg>
