<svg xmlns="http://www.w3.org/2000/svg" viewBox="0 0 20 20" fill="none">
  <g clip-path="url(#clip0_6230_11627)">
    <path d="M3.74935 18.3346V14.168M3.74935 5.83464V1.66797M1.66602 3.7513H5.83268M1.66602 16.2513H5.83268M10.8327 2.5013L9.38753 6.25869C9.15253 6.86971 9.03502 7.17523 8.85229 7.43221C8.69034 7.65997 8.49135 7.85896 8.26359 8.02091C8.00661 8.20364 7.70109 8.32114 7.09007 8.55615L3.33268 10.0013L7.09007 11.4465C7.70109 11.6815 8.00661 11.799 8.26359 11.9817C8.49135 12.1436 8.69034 12.3426 8.85229 12.5704C9.03502 12.8274 9.15253 13.1329 9.38754 13.7439L10.8327 17.5013L12.2778 13.7439C12.5128 13.1329 12.6303 12.8274 12.8131 12.5704C12.975 12.3426 13.174 12.1436 13.4018 11.9817C13.6588 11.799 13.9643 11.6815 14.5753 11.4464L18.3327 10.0013L14.5753 8.55615C13.9643 8.32114 13.6588 8.20364 13.4018 8.02091C13.174 7.85896 12.975 7.65997 12.8131 7.43221C12.6303 7.17523 12.5128 6.86971 12.2778 6.25869L10.8327 2.5013Z" stroke="url(#paint0_linear_6230_11627)" stroke-width="1.66667" stroke-linecap="round" stroke-linejoin="round"/>
  </g>
  <defs>
    <linearGradient id="paint0_linear_6230_11627" x1="1.66576" y1="18.3345" x2="18.3325" y2="1.66777" gradientUnits="userSpaceOnUse">
      <stop stop-color="#0017E4"/>
      <stop offset="1" stop-color="#3793FF"/>
    </linearGradient>
    <clipPath id="clip0_6230_11627">
      <rect width="20" height="20" fill="white"/>
    </clipPath>
  </defs>
</svg>