<svg viewBox="0 0 30 31" fill="none" xmlns="http://www.w3.org/2000/svg">
<g clip-path="url(#clip0_10340_8623)">
<path d="M15 15.1816C14.4875 15.1816 14.0625 14.7566 14.0625 14.2441V7.99414C14.0625 7.48164 14.4875 7.05664 15 7.05664C15.5125 7.05664 15.9375 7.48164 15.9375 7.99414V14.2441C15.9375 14.7566 15.5125 15.1816 15 15.1816Z" fill="#292929"/>
<path d="M15 26.4316C8.45 26.4316 3.125 21.1066 3.125 14.5566C3.125 8.00664 8.45 2.68164 15 2.68164C21.55 2.68164 26.875 8.00664 26.875 14.5566C26.875 15.0691 26.45 15.4941 25.9375 15.4941C25.425 15.4941 25 15.0691 25 14.5566C25 9.04414 20.5125 4.55664 15 4.55664C9.4875 4.55664 5 9.04414 5 14.5566C5 20.0691 9.4875 24.5566 15 24.5566C15.5125 24.5566 15.9375 24.9816 15.9375 25.4941C15.9375 26.0066 15.5125 26.4316 15 26.4316Z" fill="#292929"/>
<path d="M18.75 1.43164H11.25C10.7375 1.43164 10.3125 1.00664 10.3125 0.494141C10.3125 -0.0183594 10.7375 -0.443359 11.25 -0.443359H18.75C19.2625 -0.443359 19.6875 -0.0183594 19.6875 0.494141C19.6875 1.00664 19.2625 1.43164 18.75 1.43164Z" fill="#292929"/>
<path d="M20.188 25.5201C19.7505 25.5201 19.3505 25.4201 18.988 25.2076C18.163 24.7326 17.688 23.7701 17.688 22.5701V19.6826C17.688 18.4826 18.163 17.5201 18.988 17.0451C19.813 16.5701 20.8755 16.6451 21.913 17.2326L24.413 18.6826C25.4505 19.2826 26.0505 20.1701 26.0505 21.1201C26.0505 22.0701 25.4505 22.9576 24.413 23.5576L21.913 25.0076C21.338 25.3451 20.7505 25.5201 20.188 25.5201ZM20.2005 18.5951C20.1005 18.5951 20.0005 18.6201 19.9255 18.6576C19.7005 18.7826 19.563 19.1701 19.563 19.6701V22.5576C19.563 23.0576 19.7005 23.4451 19.9255 23.5701C20.1505 23.6951 20.5505 23.6326 20.9755 23.3826L23.4755 21.9326C23.913 21.6826 24.1755 21.3701 24.1755 21.1201C24.1755 20.8701 23.913 20.5576 23.4755 20.3076L20.9755 18.8576C20.688 18.6826 20.413 18.5951 20.2005 18.5951Z" fill="#292929"/>
</g>
<defs>
<clipPath id="clip0_10340_8623">
<rect width="30" height="30" fill="white" transform="translate(0 0.494141)"/>
</clipPath>
</defs>
</svg>