<svg width="16" height="16" viewBox="0 0 16 16" fill="none" xmlns="http://www.w3.org/2000/svg">
<g id="fi_10035035" clip-path="url(#clip0_506_18505)">
<g id="Group">
<path id="Vector" d="M12.668 5.83337C11.288 5.83337 10.168 4.71337 10.168 3.33337C10.168 1.95337 11.288 0.833374 12.668 0.833374C14.048 0.833374 15.168 1.95337 15.168 3.33337C15.168 4.71337 14.048 5.83337 12.668 5.83337ZM12.668 1.83337C11.8413 1.83337 11.168 2.50671 11.168 3.33337C11.168 4.16004 11.8413 4.83337 12.668 4.83337C13.4946 4.83337 14.168 4.16004 14.168 3.33337C14.168 2.50671 13.4946 1.83337 12.668 1.83337Z" fill="#757575"/>
<path id="Vector_2" d="M8.0013 9.16675H4.66797C4.39464 9.16675 4.16797 8.94008 4.16797 8.66675C4.16797 8.39341 4.39464 8.16675 4.66797 8.16675H8.0013C8.27464 8.16675 8.5013 8.39341 8.5013 8.66675C8.5013 8.94008 8.27464 9.16675 8.0013 9.16675Z" fill="#757575"/>
<path id="Vector_3" d="M10.668 11.8334H4.66797C4.39464 11.8334 4.16797 11.6067 4.16797 11.3334C4.16797 11.06 4.39464 10.8334 4.66797 10.8334H10.668C10.9413 10.8334 11.168 11.06 11.168 11.3334C11.168 11.6067 10.9413 11.8334 10.668 11.8334Z" fill="#757575"/>
<path id="Vector_4" d="M10.0007 15.1667H6.00065C2.38065 15.1667 0.833984 13.62 0.833984 10V6.00004C0.833984 2.38004 2.38065 0.833374 6.00065 0.833374H9.33398C9.60732 0.833374 9.83398 1.06004 9.83398 1.33337C9.83398 1.60671 9.60732 1.83337 9.33398 1.83337H6.00065C2.92732 1.83337 1.83398 2.92671 1.83398 6.00004V10C1.83398 13.0734 2.92732 14.1667 6.00065 14.1667H10.0007C13.074 14.1667 14.1673 13.0734 14.1673 10V6.66671C14.1673 6.39337 14.394 6.16671 14.6673 6.16671C14.9407 6.16671 15.1673 6.39337 15.1673 6.66671V10C15.1673 13.62 13.6207 15.1667 10.0007 15.1667Z" fill="#757575"/>
</g>
</g>
<defs>
<clipPath id="clip0_506_18505">
<rect width="16" height="16" fill="white"/>
</clipPath>
</defs>
</svg>
