<svg width="24" height="24" viewBox="0 0 24 24" fill="none" xmlns="http://www.w3.org/2000/svg">
<path d="M2.40002 4C2.40002 1.79086 4.19089 0 6.40002 0H14.4L21.6 7.2V20C21.6 22.2091 19.8092 24 17.6 24H6.40002C4.19088 24 2.40002 22.2091 2.40002 20V4Z" fill="#444CE7"/>
<path opacity="0.3" d="M14.4 0L21.6 7.2H18.4C16.1909 7.2 14.4 5.40914 14.4 3.2V0Z" fill="white"/>
<g clip-path="url(#clip0_7_5544)">
<path d="M14 16.4L16 14.4L14 12.4M10 12.4L8 14.4L10 16.4M12.8 10.8L11.2 18" stroke="white" stroke-width="1.5" stroke-linecap="round" stroke-linejoin="round"/>
</g>
<defs>
<clipPath id="clip0_7_5544">
<rect width="9.6" height="9.6" fill="white" transform="translate(7.19995 9.59998)"/>
</clipPath>
</defs>
</svg>
