<svg viewBox="0 0 89 89" fill="none" xmlns="http://www.w3.org/2000/svg">
<path d="M0 28C0 12.536 12.536 0 28 0H61C76.464 0 89 12.536 89 28V61C89 76.464 76.464 89 61 89H28C12.536 89 0 76.464 0 61V28Z" fill="#FFF1F3"/>
<path fill-rule="evenodd" clip-rule="evenodd" d="M30.25 34C30.25 33.0335 31.0335 32.25 32 32.25H58C58.9665 32.25 59.75 33.0335 59.75 34V38C59.75 38.9665 58.9665 39.75 58 39.75H57.75V55C57.75 56.5188 56.5188 57.75 55 57.75H35C33.4812 57.75 32.25 56.5188 32.25 55V39.75H32C31.0335 39.75 30.25 38.9665 30.25 38V34ZM33.75 39.75H56.25V55C56.25 55.6904 55.6904 56.25 55 56.25H35C34.3096 56.25 33.75 55.6904 33.75 55V39.75ZM58 38.25H57.75H32.25H32C31.8619 38.25 31.75 38.1381 31.75 38V34C31.75 33.8619 31.8619 33.75 32 33.75H58C58.1381 33.75 58.25 33.8619 58.25 34V38C58.25 38.1381 58.1381 38.25 58 38.25ZM40 45C39.4477 45 39 45.4477 39 46C39 46.5523 39.4477 47 40 47H50C50.5523 47 51 46.5523 51 46C51 45.4477 50.5523 45 50 45H40Z" fill="#C01048"/>
</svg>
