<svg width="50" height="51" viewBox="0 0 50 51" fill="none" xmlns="http://www.w3.org/2000/svg">
<g clip-path="url(#clip0_976_23112)">
<path d="M43.75 26.9286C41.4491 26.9286 39.5109 28.4359 38.8035 30.514C38.7011 30.4953 38.6077 30.4524 38.5 30.4524H35.7246L36.2373 29.9362C36.9209 29.248 36.9209 28.133 36.2373 27.4448C35.5537 26.7565 34.4463 26.7565 33.7627 27.4448L30.2627 30.9686C29.5791 31.6568 29.5791 32.7718 30.2627 33.46L33.7627 36.9838C34.1045 37.3279 34.5522 37.5 35 37.5C35.4478 37.5 35.8955 37.3279 36.2373 36.9838C36.9209 36.2956 36.9209 35.1806 36.2373 34.4924L35.7246 33.9762H38.5C38.6077 33.9762 38.7011 33.9333 38.8035 33.9146C39.5109 35.9926 41.4491 37.5 43.75 37.5C46.645 37.5 49 35.129 49 32.2143C49 29.2996 46.645 26.9286 43.75 26.9286ZM5.25 11.0714C7.5284 11.0714 9.45282 9.59407 10.1775 7.54762H30.7754L30.2627 8.0638C29.5791 8.75205 29.5791 9.867 30.2627 10.5552C30.6045 10.8994 31.0522 11.0714 31.5 11.0714C31.9478 11.0714 32.3955 10.8994 32.7373 10.5552L36.2373 7.03144C36.9209 6.34319 36.9209 5.22824 36.2373 4.53999L32.7373 1.01618C32.0537 0.327939 30.9463 0.327939 30.2627 1.01618C29.5791 1.70443 29.5791 2.81938 30.2627 3.50763L30.7754 4.02381H10.1775C9.45282 1.97736 7.5284 0.5 5.25 0.5C2.35498 0.5 0 2.871 0 5.78571C0 8.70043 2.35498 11.0714 5.25 11.0714ZM46.0127 18.6352L45.5 19.1514V10.7468C47.5326 10.0171 49 8.07961 49 5.78571C49 2.871 46.645 0.5 43.75 0.5C40.855 0.5 38.5 2.871 38.5 5.78571C38.5 8.07961 39.9674 10.017 42 10.7467V19.1514L41.4873 18.6352C40.8037 17.947 39.6963 17.947 39.0127 18.6352C38.3291 19.3235 38.3291 20.4384 39.0127 21.1267L42.5127 24.6505C42.8545 24.9946 43.3022 25.1667 43.75 25.1667C44.1978 25.1667 44.6455 24.9946 44.9873 24.6505L48.4873 21.1267C49.1709 20.4384 49.1709 19.3235 48.4873 18.6352C47.8037 17.947 46.6963 17.947 46.0127 18.6352Z" fill="#FF7C50"/>
<path d="M29.75 15.5C32.645 15.5 35 17.7428 35 20.5V25.5H0V20.5C0 17.7428 2.35498 15.5 5.25 15.5H29.75Z" fill="url(#paint0_linear_976_23112)"/>
<path d="M18.8571 21.5C19.3309 21.5 19.7143 21.1646 19.7143 20.75V19.25C19.7143 18.8354 19.3309 18.5 18.8571 18.5C18.3834 18.5 18 18.8354 18 19.25V20.75C18 21.1646 18.3834 21.5 18.8571 21.5Z" fill="white"/>
<path d="M22.2857 21.5C22.7595 21.5 23.1429 21.1646 23.1429 20.75V19.25C23.1429 18.8354 22.7595 18.5 22.2857 18.5C21.8119 18.5 21.4286 18.8354 21.4286 19.25V20.75C21.4286 21.1646 21.8119 21.5 22.2857 21.5Z" fill="white"/>
<path d="M25.7143 21.5C26.1881 21.5 26.5714 21.1646 26.5714 20.75V19.25C26.5714 18.8354 26.1881 18.5 25.7143 18.5C25.2405 18.5 24.8571 18.8354 24.8571 19.25V20.75C24.8571 21.1646 25.2405 21.5 25.7143 21.5Z" fill="white"/>
<path d="M29.1429 21.5C29.6166 21.5 30 21.1646 30 20.75V19.25C30 18.8354 29.6166 18.5 29.1429 18.5C28.6691 18.5 28.2857 18.8354 28.2857 19.25V20.75C28.2857 21.1646 28.6691 21.5 29.1429 21.5Z" fill="white"/>
<path d="M5.25 49.5C2.35498 49.5 0 47.2572 0 44.5V39.5H35V44.5C35 47.2572 32.645 49.5 29.75 49.5H5.25Z" fill="url(#paint1_linear_976_23112)"/>
<path d="M29.1429 43.5C28.6691 43.5 28.2857 43.8354 28.2857 44.25V45.75C28.2857 46.1646 28.6691 46.5 29.1429 46.5C29.6166 46.5 30 46.1646 30 45.75V44.25C30 43.8354 29.6166 43.5 29.1429 43.5Z" fill="#FEFEFE"/>
<path d="M25.7143 43.5C25.2405 43.5 24.8571 43.8354 24.8571 44.25V45.75C24.8571 46.1646 25.2405 46.5 25.7143 46.5C26.1881 46.5 26.5714 46.1646 26.5714 45.75V44.25C26.5714 43.8354 26.1881 43.5 25.7143 43.5Z" fill="#FEFEFE"/>
<path d="M22.2857 43.5C21.8119 43.5 21.4286 43.8354 21.4286 44.25V45.75C21.4286 46.1646 21.8119 46.5 22.2857 46.5C22.7595 46.5 23.1429 46.1646 23.1429 45.75V44.25C23.1429 43.8354 22.7595 43.5 22.2857 43.5Z" fill="#FEFEFE"/>
<path d="M18.8571 43.5C18.3834 43.5 18 43.8354 18 44.25V45.75C18 46.1646 18.3834 46.5 18.8571 46.5C19.3309 46.5 19.7143 46.1646 19.7143 45.75V44.25C19.7143 43.8354 19.3309 43.5 18.8571 43.5Z" fill="#FEFEFE"/>
<path d="M29.2072 34.8568C28.5417 34.2269 28.1754 33.3903 28.1754 32.5C28.1754 31.6097 28.5417 30.7731 29.2072 30.1432L32 27.5H0V37.5H32L29.2072 34.8568ZM19.3706 33.3333C19.3706 33.7939 18.9768 34.1667 18.4901 34.1667C18.0034 34.1667 17.6096 33.7939 17.6096 33.3333V31.6667C17.6096 31.2061 18.0034 30.8333 18.4901 30.8333C18.9768 30.8333 19.3706 31.2061 19.3706 31.6667V33.3333ZM22.8925 33.3333C22.8925 33.7939 22.4987 34.1667 22.012 34.1667C21.5254 34.1667 21.1316 33.7939 21.1316 33.3333V31.6667C21.1316 31.2061 21.5254 30.8333 22.012 30.8333C22.4987 30.8333 22.8925 31.2061 22.8925 31.6667V33.3333ZM26.4144 33.3333C26.4144 33.7939 26.0206 34.1667 25.534 34.1667C25.0473 34.1667 24.6535 33.7939 24.6535 33.3333V31.6667C24.6535 31.2061 25.0473 30.8333 25.534 30.8333C26.0206 30.8333 26.4144 31.2061 26.4144 31.6667V33.3333Z" fill="url(#paint2_linear_976_23112)"/>
</g>
<defs>
<linearGradient id="paint0_linear_976_23112" x1="0.42" y1="25.5" x2="35.14" y2="25.5" gradientUnits="userSpaceOnUse">
<stop stop-color="#00B77B"/>
<stop offset="1" stop-color="#003896"/>
</linearGradient>
<linearGradient id="paint1_linear_976_23112" x1="-0.14" y1="49.6333" x2="34.58" y2="49.6333" gradientUnits="userSpaceOnUse">
<stop stop-color="#01B77C"/>
<stop offset="1" stop-color="#013E96"/>
</linearGradient>
<linearGradient id="paint2_linear_976_23112" x1="-0.140877" y1="37.5667" x2="31.9791" y2="37.5667" gradientUnits="userSpaceOnUse">
<stop stop-color="#01B87C"/>
<stop offset="1" stop-color="#013F95"/>
</linearGradient>
<clipPath id="clip0_976_23112">
<rect width="50" height="50" fill="white" transform="translate(0 0.5)"/>
</clipPath>
</defs>
</svg>
