<svg viewBox="0 0 22 13" fill="none" xmlns="http://www.w3.org/2000/svg">
<path d="M13.3487 12.8167H8.43164V12.4667C8.60061 12.4667 8.74142 12.4667 8.85407 12.4667C8.96672 12.4556 9.05684 12.4444 9.12442 12.4333C9.20328 12.4111 9.27087 12.3944 9.32719 12.3833C9.38351 12.3611 9.43984 12.3333 9.49616 12.3C9.58628 12.2444 9.65387 12.1778 9.69893 12.1C9.75525 12.0111 9.78341 11.9222 9.78341 11.8333C9.78341 11.5222 9.6595 11.0889 9.41167 10.5333L8.60061 8.71667H3.56528L2.66974 10.9333C2.62468 11.0556 2.58525 11.1833 2.55146 11.3167C2.52893 11.4389 2.51767 11.5611 2.51767 11.6833C2.51767 11.9389 2.61905 12.1333 2.82181 12.2667C3.02458 12.4 3.36252 12.4667 3.83564 12.4667V12.8167H0V12.4667C0.236559 12.4556 0.439324 12.4167 0.608295 12.35C0.777266 12.2833 0.946237 12.1444 1.11521 11.9333C1.28418 11.7111 1.46441 11.4 1.65591 11C1.85868 10.5889 2.11214 10.0333 2.41628 9.33333L6.42089 0H6.79263L11.6083 10.8C11.766 11.1556 11.9012 11.4389 12.0138 11.65C12.1377 11.8611 12.2616 12.0278 12.3856 12.15C12.5095 12.2611 12.6446 12.3389 12.7911 12.3833C12.9488 12.4278 13.1347 12.4556 13.3487 12.4667V12.8167ZM8.34716 7.95L6.11674 2.7L3.88633 7.95H8.34716Z" fill="currentColor"/>
<path d="M20.5806 10.8167C20.5806 11.2389 20.6201 11.5333 20.6989 11.7C20.7778 11.8556 20.9299 11.9333 21.1551 11.9333C21.4142 11.9333 21.6959 11.8167 22 11.5833V12.0667C21.6733 12.4222 21.3861 12.6667 21.1382 12.8C20.8904 12.9333 20.6032 13 20.2765 13C19.8822 13 19.5893 12.8944 19.3979 12.6833C19.2176 12.4611 19.105 12.0944 19.0599 11.5833C18.4741 12.0833 17.9616 12.4444 17.5223 12.6667C17.0829 12.8889 16.6549 13 16.2381 13C15.6298 13 15.1342 12.8111 14.7512 12.4333C14.3794 12.0556 14.1935 11.5667 14.1935 10.9667C14.1935 10.6667 14.2499 10.3667 14.3625 10.0667C14.4864 9.75556 14.661 9.50556 14.8863 9.31667C15.0891 9.13889 15.275 8.98889 15.4439 8.86667C15.6242 8.73333 15.8551 8.6 16.1367 8.46667C16.4183 8.32222 16.7844 8.16111 17.235 7.98333C17.6856 7.80556 18.2826 7.56667 19.0261 7.26667V6.05C19.0261 5.52778 18.8966 5.13333 18.6375 4.86667C18.3897 4.6 18.0292 4.46667 17.5561 4.46667C17.1618 4.46667 16.8295 4.56111 16.5591 4.75C16.3001 4.92778 16.1705 5.14444 16.1705 5.4C16.1705 5.5 16.1818 5.62778 16.2043 5.78333C16.2381 5.93889 16.255 6.06667 16.255 6.16667C16.255 6.38889 16.1649 6.57778 15.9846 6.73333C15.8157 6.88889 15.6185 6.96667 15.3932 6.96667C15.1679 6.96667 14.9708 6.88889 14.8018 6.73333C14.6441 6.56667 14.5653 6.37222 14.5653 6.15C14.5653 5.90556 14.6329 5.65556 14.768 5.4C14.9145 5.14444 15.1116 4.91667 15.3594 4.71667C15.6185 4.49444 15.9621 4.32222 16.3902 4.2C16.8295 4.07778 17.3026 4.01667 17.8095 4.01667C18.3953 4.01667 18.8853 4.11667 19.2796 4.31667C19.6851 4.50556 19.9949 4.77222 20.2089 5.11667C20.3441 5.33889 20.4398 5.6 20.4962 5.9C20.5525 6.18889 20.5806 6.58333 20.5806 7.08333V10.8167ZM19.0261 7.73333C18.4403 7.94444 17.9391 8.15 17.5223 8.35C17.1167 8.53889 16.7844 8.73889 16.5253 8.95C16.2775 9.15 16.0973 9.36667 15.9846 9.6C15.872 9.83333 15.8157 10.0889 15.8157 10.3667V10.45C15.8157 10.65 15.8495 10.8444 15.9171 11.0333C15.9846 11.2111 16.0748 11.3667 16.1874 11.5C16.3113 11.6333 16.4521 11.7389 16.6098 11.8167C16.7675 11.8944 16.9309 11.9333 17.0998 11.9333C17.3026 11.9333 17.5279 11.8944 17.7757 11.8167C18.0348 11.7278 18.277 11.6222 18.5023 11.5C18.7276 11.3778 18.8684 11.25 18.9247 11.1167C18.9923 10.9833 19.0261 10.7722 19.0261 10.4833V7.73333Z" fill="currentColor"/>
</svg>
