<svg width="40" height="40" viewBox="0 0 40 40" fill="none" xmlns="http://www.w3.org/2000/svg">
<rect x="0.729492" y="0.319397" width="39" height="39" rx="6" fill="#E4FBF2"/>
<path d="M24.6947 8.18896C24.1424 8.18896 23.7111 8.64922 23.5285 9.17043C23.1229 10.3278 22.0204 11.1585 20.7252 11.1585C19.4299 11.1585 18.3274 10.3278 17.9218 9.17043C17.7392 8.64922 17.3079 8.18896 16.7556 8.18896H14.7686C13.5686 8.18896 12.5947 9.16288 12.5947 10.3629V28.2759C12.5947 29.4759 13.5686 30.4498 14.7686 30.4498H16.7556C17.3079 30.4498 17.7392 29.9896 17.9218 29.4684C18.3274 28.311 19.4299 27.4803 20.7252 27.4803C22.0204 27.4803 23.1229 28.311 23.5285 29.4684C23.7111 29.9896 24.1424 30.4498 24.6947 30.4498H26.6817C27.8817 30.4498 28.8556 29.4759 28.8556 28.2759V10.3629C28.8556 9.16288 27.8817 8.18896 26.6817 8.18896H24.6947Z" fill="#A7EBD0"/>
<path d="M18.2295 19.3521L19.8501 21.4594L23.9959 17.3194" stroke="#137C50" stroke-width="1.5" stroke-linecap="round" stroke-linejoin="round"/>
</svg>
