<svg width="53" height="51" viewBox="0 0 53 51" fill="none" xmlns="http://www.w3.org/2000/svg">
<g clip-path="url(#clip0_11171_15540)">
<path d="M29.2328 19.6934C28.6451 19.6934 28.1683 20.1268 28.1683 20.6611V24.5321H24.9747V20.6611C24.9747 20.1268 24.4979 19.6934 23.9102 19.6934C23.3225 19.6934 22.8457 20.1268 22.8457 20.6611V25.4998C22.8457 26.0341 23.3225 26.4676 23.9102 26.4676H28.1683V30.3385C28.1683 30.8728 28.6451 31.3063 29.2328 31.3063C29.8205 31.3063 30.2973 30.8728 30.2973 30.3385V20.6611C30.2973 20.1268 29.8205 19.6934 29.2328 19.6934Z" fill="#757575"/>
<path d="M35.0874 15.5H18.0552C16.6857 15.5 15.5713 16.5131 15.5713 17.7581V33.2419C15.5713 34.4869 16.6857 35.5 18.0552 35.5H35.0874C36.4569 35.5 37.5713 34.4869 37.5713 33.2419V17.7581C37.5713 16.5131 36.4569 15.5 35.0874 15.5ZM35.4423 33.2419C35.4423 33.4196 35.2829 33.5645 35.0874 33.5645H18.0552C17.8597 33.5645 17.7003 33.4196 17.7003 33.2419V17.7581C17.7003 17.5804 17.8597 17.4355 18.0552 17.4355H35.0874C35.2829 17.4355 35.4423 17.5804 35.4423 17.7581L35.4423 33.2419Z" fill="#757575"/>
</g>
<defs>
<clipPath id="clip0_11171_15540">
<rect width="22" height="20" fill="white" transform="translate(15.5713 15.5)"/>
</clipPath>
</defs>
</svg>
