<svg xmlns="http://www.w3.org/2000/svg" width="16" height="16" fill="currentColor"><path stroke="currentColor" stroke-width=".3" d="M7.571 14.85H5.943v-2.825h4.114v2.825H7.572Zm7.34-13.266v2.391H1.089V1.584c0-.258.18-.434.363-.434h13.096c.182 0 .363.176.363.434Zm.739 0c0-.662-.477-1.234-1.102-1.234H1.452C.827.35.35.922.35 1.584v12.452c0 .871.626 1.614 1.436 1.614h12.428c.81 0 1.436-.743 1.436-1.614V1.584ZM1.09 8.4h4.113v2.825H1.09V8.4Zm0-.8V4.775h4.113V7.6H1.09Zm4.853-2.825h4.114V7.6H5.943V4.775Zm4.853 0h4.115V7.6h-4.115V4.775ZM14.911 8.4v2.825h-4.115V8.4h4.115Zm-9.708 6.45H1.786c-.366 0-.697-.346-.697-.814v-2.01h4.114v2.824Zm.74-3.625V8.4h4.114v2.825H5.943Zm8.27 3.625h-3.417v-2.825h4.115v2.011c0 .468-.33.814-.697.814Z"/></svg>