<svg width="50" height="51" viewBox="0 0 50 51" fill="none" xmlns="http://www.w3.org/2000/svg">
<path d="M50 10.8516V49.0352H0V10.8516C0 10.0426 0.655859 9.38672 1.46484 9.38672H48.5352C49.3441 9.38672 50 10.0426 50 10.8516Z" fill="#F0F7FF"/>
<path d="M50 21.1055V18.1758H39.6484V9.38672H36.7188V18.1758H26.4648V9.38672H23.5352V18.1758H13.2812V9.38672H10.3516V18.1758H0V21.1055H10.3516V28.4297H0V31.3594H10.3516V38.6836H0V41.6133H10.3516V49.0352H13.2812V41.6133H23.5352V49.0352H26.4648V41.6133H36.7188V49.0352H39.6484V41.6133H50V38.6836H39.6484V31.3594H50V28.4297H39.6484V21.1055H50ZM23.5352 38.6836H13.2812V31.3594H23.5352V38.6836ZM23.5352 28.4297H13.2812V21.1055H23.5352V28.4297ZM36.7188 38.6836H26.4648V31.3594H36.7188V38.6836ZM36.7188 28.4297H26.4648V21.1055H36.7188V28.4297Z" fill="#DFE7F4"/>
<path d="M48.5352 9.38672H25V49.0352H50V10.8516C50 10.0426 49.3441 9.38672 48.5352 9.38672Z" fill="#DFE7F4"/>
<path d="M39.6484 9.38672H36.7188V18.1758H26.4648V9.38672H25V49.0352H26.4648V41.6133H36.7188V49.0352H39.6484V41.6133H50V38.6836H39.6484V31.3594H50V28.4297H39.6484V21.1055H50V18.1758H39.6484V9.38672ZM36.7188 38.6836H26.4648V31.3594H36.7188V38.6836ZM36.7188 28.4297H26.4648V21.1055H36.7188V28.4297Z" fill="#C7CFE1"/>
<path d="M0 1.96484H50V10.8516H0V1.96484Z" fill="#979FEF"/>
<path d="M25 1.96484H50V10.8516H25V1.96484Z" fill="#7984EB"/>
</svg>
