
<svg viewBox="0 0 20 19" fill="none" xmlns="http://www.w3.org/2000/svg">
<path d="M16.2979 2C16.9904 2 17.5 2.62979 17.5 3.33399V15.7862C17.5 16.7 16.8405 17.5 15.9639 17.5H3.53613C2.65949 17.5 2 16.7 2 15.7862V3.33399C2 2.62979 2.50964 2 3.20215 2H16.2979ZM2.93945 15.7862C2.93945 16.2108 3.23675 16.5 3.53613 16.5H6.85352V13.875H2.93945V15.7862ZM12.6465 16.5H15.9639C16.2632 16.5 16.5605 16.2108 16.5605 15.7862V13.875H12.6465V16.5ZM7.79297 16.5H11.707V13.875H7.79297V16.5ZM12.6465 12.875H16.5605V10.25H12.6465V12.875ZM7.79297 12.875H11.707V10.25H7.79297V12.875ZM2.93945 12.875H6.85352V10.25H2.93945V12.875ZM12.6465 9.25H16.5605V6.625H12.6465V9.25ZM7.79297 9.25H11.707V6.625H7.79297V9.25ZM2.93945 9.25H6.85352V6.625H2.93945V9.25ZM3.20215 3C3.08694 3 2.93945 3.11897 2.93945 3.33399V5.625H16.5605V3.33399C16.5605 3.11897 16.4131 3 16.2979 3H3.20215Z" fill="currentColor" stroke="currentColor" stroke-width="0.5"/>
</svg>
