<svg xmlns="http://www.w3.org/2000/svg" width="16" height="17" fill="none"><g clip-path="url(#a)"><mask id="b" width="14" height="14" x="-.25" y="1.801" fill="#000" maskUnits="userSpaceOnUse"><path fill="#fff" d="M-.25 1.801h14v14h-14z"/><path fill-rule="evenodd" d="M13.25 12.58a6.42 6.42 0 0 1-.366.176v1.271c0 .441-.317.8-.706.8H9.205v-1.599a6.408 6.408 0 0 1-.366-.07v1.669H5.161v-2.592h1.505a6.521 6.521 0 0 1-.56-.415h-.945v-.965a6.51 6.51 0 0 1-.366-.508v1.473H1.116V9.228h3.098a6.447 6.447 0 0 1-.15-.414H1.116V6.222h2.66c.013-.14.03-.278.051-.415h-2.71V3.7c0-.267.19-.484.426-.484H4.834a6.52 6.52 0 0 1 .3-.415H1.544c-.437 0-.793.403-.793.899v10.327c0 .67.48 1.214 1.072 1.214h10.356c.591 0 1.072-.544 1.072-1.214V12.58ZM1.822 14.826h2.973v-2.592H1.116v1.792c0 .441.317.8.706.8Z" clip-rule="evenodd"/></mask><path fill="currentColor" fill-rule="evenodd" d="M13.25 12.58a6.42 6.42 0 0 1-.366.176v1.271c0 .441-.317.8-.706.8H9.205v-1.599a6.408 6.408 0 0 1-.366-.07v1.669H5.161v-2.592h1.505a6.521 6.521 0 0 1-.56-.415h-.945v-.965a6.51 6.51 0 0 1-.366-.508v1.473H1.116V9.228h3.098a6.447 6.447 0 0 1-.15-.414H1.116V6.222h2.66c.013-.14.03-.278.051-.415h-2.71V3.7c0-.267.19-.484.426-.484H4.834a6.52 6.52 0 0 1 .3-.415H1.544c-.437 0-.793.403-.793.899v10.327c0 .67.48 1.214 1.072 1.214h10.356c.591 0 1.072-.544 1.072-1.214V12.58ZM1.822 14.826h2.973v-2.592H1.116v1.792c0 .441.317.8.706.8Z" clip-rule="evenodd"/><path fill="currentColor" d="M13.25 12.58h.3v-.495l-.439.228.139.266Zm-.366.176-.122-.274-.178.079v.195h.3Zm-3.679 2.07h-.3v.3h.3v-.3Zm0-1.598h.3v-.255l-.252-.041-.048.296Zm-.366-.07.065-.293-.365-.08v.373h.3Zm0 1.669v.3h.3v-.3h-.3Zm-3.678 0h-.3v.3h.3v-.3Zm0-2.592v-.3h-.3v.3h.3Zm1.505 0v.3h.996l-.83-.55-.166.25Zm-.56-.415.192-.23-.083-.07h-.108v.3Zm-.945 0h-.3v.3h.3v-.3Zm0-.965h.3v-.104l-.066-.082-.234.186Zm-.366-.508.251-.164-.551-.85v1.014h.3Zm0 1.473v.3h.3v-.3h-.3Zm-3.679 0h-.3v.3h.3v-.3Zm0-2.592v-.3h-.3v.3h.3Zm3.098 0v.3h.444l-.165-.411-.279.111Zm-.15-.414.286-.093-.068-.207h-.218v.3Zm-2.948 0h-.3v.3h.3v-.3Zm0-2.592v-.3h-.3v.3h.3Zm2.66 0v.3h.275l.024-.273-.299-.027Zm.051-.415.297.046.053-.346h-.35v.3Zm-2.71 0h-.3v.3h.3v-.3Zm3.717-2.591v.3h.161l.09-.134-.25-.166Zm.3-.415.236.185.381-.485h-.616v.3Zm8.116 11.226h-.3.3Zm-8.455.8v.3h.3v-.3h-.3Zm0-2.592h.3v-.3h-.3v.3Zm-3.679 0v-.3h-.3v.3h.3Zm11.995.078c-.114.06-.23.116-.349.168l.243.549c.13-.058.258-.12.384-.185l-.278-.532Zm-.527.443v1.271h.6v-1.271h-.6Zm0 1.271c0 .312-.216.5-.406.5v.6c.589 0 1.006-.53 1.006-1.1h-.6Zm-.406.5H9.205v.6h2.973v-.6Zm-2.673.3v-1.599h-.6v1.599h.6Zm-.252-1.895a6.179 6.179 0 0 1-.349-.067l-.13.586c.127.028.255.052.384.073l.095-.592Zm-.714.226v1.669h.6v-1.67h-.6Zm.3 1.369H6.952v.6H8.84v-.6Zm-1.887 0h-.31v.6h.31v-.6Zm-.31 0H5.162v.6h1.482v-.6Zm-1.181.3v-2.592h-.6v2.592h.6Zm-.3-2.292h1.505v-.6H5.16v.6Zm1.67-.55a6.226 6.226 0 0 1-.533-.396l-.383.462c.187.155.382.3.585.434l.332-.5Zm-.724-.465H5.16v.6h.946v-.6Zm-.646.3v-.965h-.6v.965h.6Zm-.066-1.152a6.211 6.211 0 0 1-.349-.485l-.503.327c.12.184.247.361.383.532l.47-.373Zm-.9-.321v1.473h.6v-1.473h-.6Zm.3 1.173H1.116v.6h3.679v-.6Zm-3.379.3V9.228h-.6v2.592h.6Zm-.3-2.292h3.098v-.6H1.116v.6Zm3.377-.411c-.052-.13-.1-.262-.143-.396l-.571.185c.047.147.1.292.157.434l.557-.223Zm-.429-.603H1.116v.6h2.948v-.6Zm-2.648.3V6.222h-.6v2.592h.6Zm-.3-2.292h2.66v-.6h-2.66v.6Zm2.96-.273c.011-.133.027-.265.048-.396l-.593-.092c-.023.143-.04.288-.053.434l.597.054Zm-.249-.742h-2.71v.6h2.71v-.6Zm-2.41.3V3.7h-.6v2.107h.6Zm0-2.107c0-.062.021-.112.05-.144.027-.031.055-.04.076-.04v-.6c-.435 0-.727.387-.727.784h.6Zm.126-.184H3.49v-.6H1.543v.6Zm1.947 0h.31v-.6h-.31v.6Zm.31 0h1.034v-.6H3.8v.6Zm1.284-.134c.09-.136.186-.268.287-.396l-.472-.37c-.11.14-.215.285-.314.433l.5.333Zm.05-.881H3.8v.6h1.336v-.6ZM3.8 2.5h-.31v.6h.31v-.6Zm-.31 0H1.544v.6H3.49v-.6Zm-1.946 0C.906 2.5.45 3.075.45 3.7h.6c0-.367.256-.6.493-.6v-.6ZM.45 3.7v10.327h.6V3.7h-.6Zm0 10.327c0 .8.581 1.514 1.372 1.514v-.6c-.391 0-.772-.374-.772-.914h-.6Zm1.372 1.514h4.82v-.6h-4.82v.6Zm4.82 0h.31v-.6h-.31v.6Zm.31 0h5.226v-.6H6.952v.6Zm5.226 0c.79 0 1.372-.715 1.372-1.514h-.6c0 .54-.38.914-.772.914v.6Zm1.372-1.514V12.58h-.6v1.448h.6Zm-8.755.5H1.822v.6h2.973v-.6Zm-.3-2.292v2.592h.6v-2.592h-.6Zm-3.379.3h3.679v-.6H1.116v.6Zm.3 1.492v-1.792h-.6v1.792h.6Zm.406.5c-.19 0-.406-.188-.406-.5h-.6c0 .57.417 1.1 1.006 1.1v-.6Z" mask="url(#b)"/><circle cx="10.25" cy="6.813" r="5" stroke="currentColor"/><g fill="currentColor" stroke="currentColor" stroke-width=".5" clip-path="url(#c)"><path d="M10.248 6.43a1.31 1.31 0 0 0 1.31-1.309 1.31 1.31 0 0 0-1.31-1.309 1.31 1.31 0 0 0-1.309 1.31 1.31 1.31 0 0 0 1.31 1.308Zm0-2.309a1.001 1.001 0 0 1 0 2 1.001 1.001 0 0 1 0-2ZM11.615 7.086a.618.618 0 0 0-.442.051c-.288.153-.6.23-.925.23-.324 0-.636-.077-.924-.23a.618.618 0 0 0-.442-.05A1.474 1.474 0 0 0 7.785 8.51v.487c0 .449.365.814.814.814h3.299a.815.815 0 0 0 .814-.814V8.51c0-.669-.451-1.255-1.097-1.425Zm.788 1.912a.506.506 0 0 1-.505.505H8.599a.506.506 0 0 1-.505-.505V8.51c0-.529.356-.992.867-1.126a.297.297 0 0 1 .218.025c.334.176.694.266 1.07.266.375 0 .735-.09 1.069-.266a.306.306 0 0 1 .218-.025c.51.134.867.597.867 1.126v.487Z"/></g></g><defs><clipPath id="a"><path fill="#fff" d="M0 .563h16v15.923H0z"/></clipPath><clipPath id="c"><path fill="#fff" d="M6.75 3.313h7v7h-7z"/></clipPath></defs></svg>