<svg viewBox="0 0 16 17" fill="none" xmlns="http://www.w3.org/2000/svg">
<g clip-path="url(#clip0_369_34709)">
<path d="M14.5479 0.588623C15.2404 0.588623 15.75 1.21841 15.75 1.92261V14.3748C15.75 15.2886 15.0905 16.0886 14.2139 16.0886H1.78613C0.909487 16.0886 0.25 15.2886 0.25 14.3748V1.92261C0.25 1.21841 0.75964 0.588623 1.45215 0.588623H14.5479ZM1.18945 14.3748C1.18945 14.7994 1.48675 15.0886 1.78613 15.0886H5.10352V12.4636H1.18945V14.3748ZM10.8965 15.0886H14.2139C14.5132 15.0886 14.8105 14.7994 14.8105 14.3748V12.4636H10.8965V15.0886ZM6.04297 15.0886H9.95703V12.4636H6.04297V15.0886ZM10.8965 11.4636H14.8105V8.83862H10.8965V11.4636ZM6.04297 11.4636H9.95703V8.83862H6.04297V11.4636ZM1.18945 11.4636H5.10352V8.83862H1.18945V11.4636ZM10.8965 7.83862H14.8105V5.21362H10.8965V7.83862ZM6.04297 7.83862H9.95703V5.21362H6.04297V7.83862ZM1.18945 7.83862H5.10352V5.21362H1.18945V7.83862ZM1.45215 1.58862C1.33694 1.58862 1.18945 1.70759 1.18945 1.92261V4.21362H14.8105V1.92261C14.8105 1.70759 14.6631 1.58862 14.5479 1.58862H1.45215Z" fill="currentColor" stroke="currentColor" stroke-width="0.5"/>
</g>
<defs>
<clipPath id="clip0_369_34709">
<rect width="16" height="16" fill="white" transform="translate(0 0.338623)"/>
</clipPath>
</defs>
</svg>
