<svg viewBox="0 0 90 89" fill="none" xmlns="http://www.w3.org/2000/svg">
<path d="M0.125 28C0.125 12.536 12.661 0 28.125 0H61.125C76.589 0 89.125 12.536 89.125 28V61C89.125 76.464 76.589 89 61.125 89H28.125C12.661 89 0.125 76.464 0.125 61V28Z" fill="#F9F5FF"/>
<path fill-rule="evenodd" clip-rule="evenodd" d="M40.4622 38.1807V58.9081H38.8235V38.1807H40.4622Z" fill="#9353D3"/>
<path fill-rule="evenodd" clip-rule="evenodd" d="M30 43.8921L60 43.8921V45.5605L30 45.5605V43.8921Z" fill="#9353D3"/>
<path fill-rule="evenodd" clip-rule="evenodd" d="M50.105 38.1807V58.9081H48.4663V38.1807H50.105Z" fill="#9353D3"/>
<path fill-rule="evenodd" clip-rule="evenodd" d="M30 51.5298L60 51.5298V53.1982L30 53.1982V51.5298Z" fill="#9353D3"/>
<path d="M30 34.3637V38.1819H60V34.3637C60 30.8727 56.4286 30 54.6429 30H34.2857C30.8571 30 30 32.9091 30 34.3637Z" fill="#481878"/>
<path fill-rule="evenodd" clip-rule="evenodd" d="M31.6387 55.0969C31.7189 55.6949 31.9706 56.5658 32.4359 57.256C32.8909 57.9311 33.4626 58.3317 34.2857 58.3317H56.1035C56.4939 58.2486 57.0731 58.0249 57.5427 57.6251C58.0078 57.2293 58.3613 56.6759 58.3613 55.8002V37.6685H31.6387V55.0969ZM60 36V55.8002C60 58.6802 57.5 59.8002 56.25 60.0002H34.2857C31.2857 60.0002 30.1786 56.8002 30 55.2001V36H60Z" fill="#481878"/>
</svg>
