<svg width="12" height="12" viewBox="0 0 12 12" fill="none" xmlns="http://www.w3.org/2000/svg">
<path fill-rule="evenodd" clip-rule="evenodd" d="M4.18476 3.27222V11.5632H3.5293V3.27222H4.18476Z" fill="#535862"/>
<path fill-rule="evenodd" clip-rule="evenodd" d="M0 5.55698L12 5.55698V6.22437L0 6.22437L0 5.55698Z" fill="#535862"/>
<path fill-rule="evenodd" clip-rule="evenodd" d="M8.04194 3.27222V11.5632H7.38647V3.27222H8.04194Z" fill="#535862"/>
<path fill-rule="evenodd" clip-rule="evenodd" d="M0 8.61191L12 8.61191V9.2793L0 9.2793L0 8.61191Z" fill="#535862"/>
<path d="M0 1.74547V3.27275H12V1.74547C12 0.349094 10.5714 0 9.85714 0H1.71429C0.342857 0 0 1.16365 0 1.74547Z" fill="#717680"/>
<path fill-rule="evenodd" clip-rule="evenodd" d="M0.655462 10.0387C0.687551 10.2779 0.788241 10.6262 0.974344 10.9023C1.15638 11.1723 1.38504 11.3326 1.71429 11.3326H10.4414C10.5976 11.2994 10.8292 11.2099 11.0171 11.0499C11.2031 10.8916 11.3445 10.6702 11.3445 10.32V3.06729H0.655462V10.0387ZM12 2.3999V10.32C12 11.472 11 11.92 10.5 12H1.71429C0.514286 12 0.0714286 10.72 0 10.08V2.3999H12Z" fill="#717680"/>
</svg>
