<svg xmlns="http://www.w3.org/2000/svg" viewBox="0 0 14 14" fill="none"><path fill="#6b7280" d="M6.856 12c.376 0 .73-.147.995-.413l3.739-3.744a1.409 1.409 0 0 0 0-1.987L6.55.807A2.731 2.731 0 0 0 4.604 0H1.406C.631 0 0 .63 0 1.406v3.188c0 .735.286 1.425.806 1.945l5.056 5.05c.266.265.619.411.994.411ZM4.604.937a1.8 1.8 0 0 1 1.282.532l5.04 5.05a.47.47 0 0 1 0 .662l-3.739 3.744a.466.466 0 0 1-.33.137h-.001a.466.466 0 0 1-.331-.136l-5.056-5.05a1.8 1.8 0 0 1-.531-1.282V1.406a.47.47 0 0 1 .468-.468h3.198Zm-1.205 3.82c.775 0 1.406-.63 1.406-1.405 0-.776-.63-1.407-1.406-1.407a1.408 1.408 0 0 0 0 2.813Zm0-1.874a.47.47 0 1 1-.001.938.47.47 0 0 1 0-.938Z"/></svg>