<svg viewBox="0 0 40 40" fill="none" xmlns="http://www.w3.org/2000/svg">
<g clip-path="url(#clip0_4774_130268)">
<path fill-rule="evenodd" clip-rule="evenodd" d="M21.9369 17.9032L16.6438 27.0711L15.0405 26.1454L20.3336 16.9775L21.9369 17.9032Z" fill="black" fill-opacity="0.4"/>
<path fill-rule="evenodd" clip-rule="evenodd" d="M24.4533 10.9867C23.7584 10.9706 23.182 11.5209 23.166 12.2158C23.1499 12.9107 23.7002 13.4871 24.3951 13.5031C25.09 13.5192 25.6663 12.9689 25.6824 12.274C25.6985 11.5791 25.1482 11.0028 24.4533 10.9867ZM21.3151 12.173C21.3549 10.4559 22.779 9.09616 24.4961 9.13588C26.2132 9.1756 27.5729 10.5998 27.5332 12.3168C27.4935 14.0339 26.0693 15.3937 24.3523 15.354C22.6352 15.3142 21.2754 13.8901 21.3151 12.173Z" fill="currentColor"/>
<path fill-rule="evenodd" clip-rule="evenodd" d="M26.6384 4.34368C28.0819 4.20373 29.4548 4.99639 30.0553 6.31645L33.1957 13.2193C33.6496 14.217 33.5937 15.3726 33.0456 16.3218L22.2643 34.9956C21.3271 36.6189 19.2513 37.1751 17.6279 36.2379L6.93936 30.0669C5.31599 29.1296 4.75979 27.0538 5.69704 25.4305L16.4783 6.7567C17.0264 5.80744 17.9992 5.18128 19.0902 5.07551L26.6384 4.34368ZM28.3702 7.08307C28.0972 6.48304 27.4732 6.12275 26.817 6.18636L19.2688 6.91818C18.7729 6.96626 18.3307 7.25088 18.0816 7.68236L7.30032 26.3561C6.8743 27.094 7.12712 28.0375 7.86501 28.4636L18.5536 34.6346C19.2915 35.0606 20.235 34.8078 20.661 34.0699L31.4423 15.3962C31.6915 14.9647 31.7169 14.4395 31.5105 13.9859L28.3702 7.08307Z" fill="currentColor"/>
</g>
<defs>
<clipPath id="clip0_4774_130268">
<rect width="40" height="40" fill="white"/>
</clipPath>
</defs>
</svg>