
<svg viewBox="0 0 16 16" fill="none" xmlns="http://www.w3.org/2000/svg">
<g clip-path="url(#clip0_20565_22663)">
<path d="M6.43751 15.5C6.01938 15.5 5.62688 15.3375 5.33188 15.0419L0.957508 10.6669C0.811943 10.5222 0.696546 10.3501 0.618011 10.1606C0.539476 9.97099 0.499366 9.7677 0.500008 9.5625C0.500008 9.16125 0.651883 8.78 0.927508 8.48875L7.97563 1.1825C8.18011 0.96718 8.42622 0.795654 8.699 0.678332C8.97178 0.56101 9.26556 0.500338 9.56251 0.5H13.9375C14.7994 0.5 15.5 1.20125 15.5 2.0625V6.4375C15.5 7.03562 15.2513 7.61437 14.8169 8.02562L7.51313 15.0706C7.22308 15.3466 6.8379 15.5004 6.43751 15.5ZM9.56251 1.125C9.12876 1.125 8.72501 1.29875 8.42751 1.61375L1.37938 8.92062C1.21553 9.09412 1.12448 9.32386 1.12501 9.5625C1.12501 9.81312 1.22251 10.0481 1.39938 10.225L5.77438 14.6C6.12126 14.9475 6.72501 14.9562 7.08126 14.6181L14.3844 7.57437L14.3863 7.5725C14.5414 7.42708 14.6649 7.25124 14.7489 7.05595C14.833 6.86066 14.876 6.65012 14.875 6.4375V2.0625C14.875 1.54562 14.4544 1.125 13.9375 1.125H9.56251Z" fill="#0968da" stroke="#0968da" stroke-width="0.4"/>
<path d="M11.0285 15.4987C10.9035 15.4987 10.7772 15.4837 10.6516 15.4537L7.65723 14.7225C7.61738 14.7128 7.57984 14.6953 7.54675 14.6711C7.51365 14.6468 7.48566 14.6163 7.46436 14.5813C7.44306 14.5462 7.42887 14.5073 7.42261 14.4668C7.41634 14.4262 7.41813 14.3848 7.42785 14.345C7.4475 14.2645 7.4983 14.1951 7.5691 14.1521C7.60415 14.1308 7.64306 14.1166 7.6836 14.1104C7.72413 14.1041 7.76551 14.1059 7.80535 14.1156L10.7991 14.8469C10.9741 14.8887 11.241 14.9031 11.5135 14.7394C11.7172 14.6125 11.8666 14.415 11.9297 14.1856L13.3985 8.58937C13.4089 8.54973 13.427 8.51253 13.4518 8.47989C13.4766 8.44726 13.5076 8.41983 13.543 8.39917C13.5784 8.3785 13.6175 8.36502 13.6582 8.35948C13.6988 8.35394 13.7401 8.35645 13.7797 8.36687C13.8194 8.3773 13.8566 8.39543 13.8892 8.42023C13.9218 8.44503 13.9493 8.47602 13.9699 8.51142C13.9906 8.54682 14.0041 8.58595 14.0096 8.62656C14.0152 8.66717 14.0127 8.70848 14.0022 8.74812L12.5329 14.3481C12.4268 14.7326 12.1792 15.0626 11.8397 15.2719C11.591 15.4219 11.3122 15.4987 11.0285 15.4987ZM12.3747 4.875C11.6854 4.875 11.1247 4.31437 11.1247 3.625C11.1247 2.93562 11.6854 2.375 12.3747 2.375C13.0641 2.375 13.6247 2.93562 13.6247 3.625C13.6247 4.31437 13.0641 4.875 12.3747 4.875ZM12.3747 3C12.2138 3.0072 12.0619 3.07619 11.9505 3.19261C11.8392 3.30904 11.7771 3.46391 11.7771 3.625C11.7771 3.78609 11.8392 3.94096 11.9505 4.05739C12.0619 4.17381 12.2138 4.2428 12.3747 4.25C12.5357 4.2428 12.6876 4.17381 12.7989 4.05739C12.9103 3.94096 12.9724 3.78609 12.9724 3.625C12.9724 3.46391 12.9103 3.30904 12.7989 3.19261C12.6876 3.07619 12.5357 3.0072 12.3747 3Z" fill="#0968da" stroke="#0968da" stroke-width="0.4"/>
</g>
<defs>
<clipPath id="clip0_20565_22663">
<rect width="16" height="16" fill="white"/>
</clipPath>
</defs>
</svg>
