<svg viewBox="0 0 90 89" fill="none" xmlns="http://www.w3.org/2000/svg">
<path d="M0.875 28C0.875 12.536 13.411 0 28.875 0H61.875C77.339 0 89.875 12.536 89.875 28V61C89.875 76.464 77.339 89 61.875 89H28.875C13.411 89 0.875 76.464 0.875 61V28Z" fill="#F9F5FF"/>
<path d="M58.8318 43.1794L47.2384 31.5721C46.6375 30.9697 45.9015 30.5193 45.0916 30.2582C44.2818 29.9971 43.4213 29.9328 42.5816 30.0708L32.5869 31.725C32.371 31.7601 32.1716 31.8622 32.0169 32.0169C31.8622 32.1716 31.7601 32.371 31.725 32.5869L30.0708 42.5816C29.9328 43.4213 29.9971 44.2818 30.2582 45.0916C30.5193 45.9015 30.9697 46.6375 31.5721 47.2384L43.1794 58.9013C43.5437 59.2678 43.9769 59.5586 44.454 59.7571C44.9311 59.9556 45.4428 60.0577 45.9595 60.0577C46.4763 60.0577 46.988 59.9556 47.4651 59.7571C47.9422 59.5586 48.3754 59.2678 48.7397 58.9013L58.8318 48.7119C59.2016 48.3495 59.4955 47.917 59.6961 47.4396C59.8967 46.9622 60 46.4496 60 45.9317C60 45.4139 59.8967 44.9013 59.6961 44.4239C59.4955 43.9465 59.2016 43.514 58.8318 43.1516V43.1794ZM57.4417 47.2384L47.2384 57.3722C46.8913 57.7068 46.4278 57.8938 45.9456 57.8938C45.4634 57.8938 45 57.7068 44.6529 57.3722L38.8492 51.5685L33.0456 45.7649C32.6794 45.3955 32.4055 44.9449 32.2461 44.4498C32.0867 43.9547 32.0463 43.4289 32.1282 42.9152L33.6712 33.6573L42.9292 32.1282C43.4319 32.0565 43.9445 32.102 44.4267 32.2611C44.909 32.4203 45.348 32.6888 45.7093 33.0456L57.4417 44.6529C57.614 44.8212 57.7509 45.0223 57.8444 45.2443C57.9379 45.4663 57.9861 45.7047 57.9861 45.9456C57.9861 46.1865 57.9379 46.425 57.8444 46.647C57.7509 46.869 57.614 47.0701 57.4417 47.2384Z" fill="#5925DC"/>
<circle cx="39.5" cy="39.5" r="2.5" fill="#9B8AFB"/>
</svg>
