<svg xmlns="http://www.w3.org/2000/svg" width="15" height="14" viewBox="0 0 15 14" fill="#71717a">
<g clip-path="url(#clip0_1047_4176)">
<path d="M11.2539 5.61169H8.19141C7.95224 5.61169 7.75391 5.41336 7.75391 5.17419C7.75391 4.93503 7.95224 4.73669 8.19141 4.73669H11.2539C11.4931 4.73669 11.6914 4.93503 11.6914 5.17419C11.6914 5.41336 11.4989 5.61169 11.2539 5.61169Z" fill="#71717a"/>
<path d="M5.1294 6.05508C5.01857 6.05508 4.90773 6.01424 4.82023 5.92674L4.38273 5.48923C4.21357 5.32006 4.21357 5.04006 4.38273 4.87089C4.5519 4.70173 4.8319 4.70173 5.00107 4.87089L5.1294 4.99923L6.13273 3.99589C6.3019 3.82673 6.5819 3.82673 6.75107 3.99589C6.92025 4.16506 6.92025 4.44506 6.75107 4.61423L5.43857 5.92674C5.3569 6.00841 5.24607 6.05508 5.1294 6.05508Z" fill="#71717a"/>
<path d="M11.2539 9.69507H8.19141C7.95224 9.69507 7.75391 9.49673 7.75391 9.25757C7.75391 9.0184 7.95224 8.82007 8.19141 8.82007H11.2539C11.4931 8.82007 11.6914 9.0184 11.6914 9.25757C11.6914 9.49673 11.4989 9.69507 11.2539 9.69507Z" fill="#71717a"/>
<path d="M5.1294 10.1383C5.01857 10.1383 4.90773 10.0975 4.82023 10.01L4.38273 9.57248C4.21357 9.40331 4.21357 9.12331 4.38273 8.95415C4.5519 8.78498 4.8319 8.78498 5.00107 8.95415L5.1294 9.08248L6.13273 8.07915C6.3019 7.90998 6.5819 7.90998 6.75107 8.07915C6.92025 8.24831 6.92025 8.52831 6.75107 8.69748L5.43857 10.01C5.3569 10.0916 5.24607 10.1383 5.1294 10.1383Z" fill="#71717a"/>
<path d="M9.72591 13.2708H6.22591C3.05841 13.2708 1.70508 11.9175 1.70508 8.74996V5.24996C1.70508 2.08246 3.05841 0.729126 6.22591 0.729126H9.72591C12.8934 0.729126 14.2467 2.08246 14.2467 5.24996V8.74996C14.2467 11.9175 12.8934 13.2708 9.72591 13.2708ZM6.22591 1.60413C3.53674 1.60413 2.58008 2.56079 2.58008 5.24996V8.74996C2.58008 11.4391 3.53674 12.3958 6.22591 12.3958H9.72591C12.4151 12.3958 13.3717 11.4391 13.3717 8.74996V5.24996C13.3717 2.56079 12.4151 1.60413 9.72591 1.60413H6.22591Z" fill="#71717a"/>
</g>
<defs>
<clipPath id="clip0_1047_4176">
<rect width="14" height="14" fill="#71717a" transform="translate(0.976562)"/>
</clipPath>
</defs>
</svg>