
<svg viewBox="0 0 15 16" fill="none" xmlns="http://www.w3.org/2000/svg">
<g clip-path="url(#clip0_2603_34824)">
<path d="M6.97533 0.54688C6.57396 0.655278 6.1638 0.986333 5.9763 1.35547L5.87377 1.55469H5.33177C4.48216 1.55469 4.45287 1.5752 4.45287 2.11426V2.46289H3.67064C3.23705 2.46289 2.82689 2.47754 2.75365 2.49512C2.26439 2.60645 1.83373 3.01075 1.66088 3.51465L1.59642 3.70801L1.58763 8.90821C1.5847 12.1309 1.59056 14.1846 1.60814 14.3105C1.6433 14.5684 1.79857 14.8877 1.96849 15.0518C2.13548 15.2129 2.40209 15.3711 2.63353 15.4414C2.81517 15.5 2.92943 15.5 7.49974 15.5C12.0701 15.5 12.1843 15.5 12.366 15.4414C12.5974 15.3711 12.864 15.2129 13.031 15.0518C13.2009 14.8877 13.3562 14.5684 13.3913 14.3105C13.4089 14.1846 13.4148 12.1309 13.4118 8.90821L13.4031 3.70801L13.3386 3.51465C13.1687 3.01954 12.7673 2.63282 12.2898 2.50684C12.155 2.47168 11.9411 2.46289 11.3318 2.46289H10.5466V2.11426C10.5466 1.57227 10.5202 1.55469 9.65013 1.55469H9.09056L8.99388 1.35547C8.80052 0.962895 8.41673 0.664067 7.95384 0.54395C7.73412 0.488286 7.19212 0.488286 6.97533 0.54688ZM7.83959 1.25879C8.12084 1.38477 8.3347 1.63379 8.42259 1.94141C8.45482 2.06153 8.49876 2.13477 8.57201 2.19629L8.67455 2.28711H9.24291H9.81419V2.99024V3.69336H7.49974H5.18529V2.99024V2.28711H5.72142C6.3513 2.28711 6.40404 2.26954 6.489 2.03223C6.5974 1.73633 6.65013 1.64258 6.77025 1.51075C7.05443 1.20313 7.48216 1.10059 7.83959 1.25879ZM4.45287 3.67871C4.45287 4.24414 4.47338 4.3086 4.66673 4.39942C4.78392 4.45215 4.90111 4.45508 7.47044 4.45508C9.14916 4.45508 10.1892 4.44336 10.2566 4.42579C10.3122 4.41114 10.3972 4.35547 10.447 4.30567L10.532 4.21778L10.5408 3.70508L10.5495 3.19239L11.3171 3.20118C12.0554 3.20996 12.0906 3.21289 12.2165 3.27735C12.3865 3.36817 12.4685 3.44434 12.5622 3.60547L12.6413 3.73731L12.6472 9.01074L12.656 14.2842L12.5886 14.4014C12.5154 14.5303 12.2986 14.6914 12.1345 14.7383C11.9851 14.7793 3.01439 14.7793 2.86498 14.7383C2.70091 14.6914 2.48412 14.5303 2.41088 14.4014L2.34349 14.2842V9.0459C2.34349 4.40821 2.34935 3.7959 2.38744 3.70215C2.48119 3.4795 2.65697 3.3125 2.88548 3.23047C2.93822 3.21289 3.26341 3.19825 3.71459 3.19825L4.45287 3.19532V3.67871Z" fill="currentColor"/>
<path d="M5.54231 5.66211C5.45149 5.74707 5.18196 6.00488 4.9388 6.2334C4.69856 6.46484 4.49349 6.65234 4.48177 6.65234C4.47298 6.65234 4.34114 6.52637 4.19173 6.37402C3.89583 6.0752 3.81087 6.03125 3.62337 6.09277C3.49446 6.13672 3.42708 6.20996 3.39778 6.34473C3.35091 6.55273 3.40071 6.63184 3.87825 7.1123C4.32063 7.56055 4.32063 7.56055 4.45247 7.56055C4.52571 7.55762 4.61653 7.54004 4.65169 7.51953C4.7513 7.4668 6.13411 6.1543 6.1927 6.06055C6.25423 5.96387 6.25423 5.79102 6.1927 5.68555C6.12239 5.57129 6.00227 5.50977 5.84407 5.50977C5.72102 5.50977 5.69466 5.52441 5.54231 5.66211Z" fill="currentColor"/>
<path d="M6.89584 6.48535C6.70834 6.65527 6.73471 6.93066 6.95151 7.0625C7.04233 7.11816 7.11557 7.12109 9.20151 7.12109H11.3578L11.4574 7.05371C11.6595 6.91895 11.6712 6.62305 11.4808 6.46484L11.39 6.38867H9.19565H7.00131L6.89584 6.48535Z" fill="currentColor" fill-opacity="0.4"/>
<path d="M5.70063 8.39597C5.65669 8.4194 5.36372 8.68601 5.05024 8.98483L4.48481 9.52976L4.24458 9.27487C3.97504 8.99069 3.89301 8.93796 3.72309 8.93796C3.50336 8.93796 3.34516 9.15769 3.3979 9.39206C3.41547 9.47116 3.51801 9.59714 3.8227 9.91355C4.32954 10.438 4.42915 10.4966 4.63715 10.3882C4.7309 10.3384 6.19868 8.95261 6.22212 8.88815C6.2309 8.86472 6.23969 8.78855 6.23969 8.72116C6.23969 8.45163 5.94087 8.27292 5.70063 8.39597Z" fill="currentColor"/>
<path d="M6.98147 9.27441C6.72952 9.38281 6.70608 9.7666 6.93752 9.9248C7.01077 9.97461 7.1426 9.97754 9.19045 9.97754C11.3408 9.97754 11.3643 9.97754 11.4463 9.91602C11.6895 9.7373 11.666 9.37988 11.4053 9.27148C11.2647 9.20996 7.11917 9.21289 6.98147 9.27441Z" fill="currentColor" fill-opacity="0.4"/>
<path d="M5.3292 11.5801C5.12119 11.7793 4.84287 12.0371 4.71397 12.1572L4.47959 12.377L4.19248 12.0898C3.87608 11.7764 3.79112 11.7354 3.59776 11.8174C3.46006 11.876 3.39268 11.9785 3.39268 12.1396C3.38975 12.3213 3.44834 12.4062 3.92002 12.8721C4.30967 13.2559 4.33018 13.2734 4.44737 13.2734C4.51182 13.2734 4.59678 13.2617 4.63487 13.2471C4.71104 13.2178 6.1085 11.8965 6.1876 11.7822C6.25205 11.6855 6.25498 11.5068 6.19346 11.3984C6.12315 11.2842 6.00303 11.2227 5.84776 11.2227C5.71299 11.2227 5.7042 11.2285 5.3292 11.5801Z" fill="currentColor"/>
<path d="M6.89584 12.1982C6.70834 12.3682 6.73471 12.6436 6.95151 12.7754C7.04233 12.8311 7.11557 12.834 9.20151 12.834H11.3578L11.4574 12.7666C11.6595 12.6318 11.6712 12.3359 11.4808 12.1777L11.39 12.1016H9.19565H7.00131L6.89584 12.1982Z" fill="currentColor" fill-opacity="0.4"/>
</g>
<defs>
<clipPath id="clip0_2603_34824">
<rect width="15" height="15" fill="white" transform="translate(0 0.5)"/>
</clipPath>
</defs>
</svg>
