<svg xmlns="http://www.w3.org/2000/svg" width="16" height="16" fill="currentColor"><path stroke="currentColor" stroke-width=".3" d="M8 7.77a2.888 2.888 0 0 0 2.885-2.885A2.888 2.888 0 0 0 8 2a2.888 2.888 0 0 0-2.885 2.885A2.888 2.888 0 0 0 8 7.769Zm0-5.09c1.216 0 2.204.99 2.204 2.205A2.207 2.207 0 0 1 8 7.089a2.207 2.207 0 0 1-2.204-2.204c0-1.216.989-2.205 2.204-2.205ZM10.635 8.658a1.098 1.098 0 0 0-.85.108 3.516 3.516 0 0 1-3.557 0 1.098 1.098 0 0 0-.849-.108c-1.242.358-2.11 1.59-2.11 2.995v1.023c0 .943.703 1.71 1.566 1.71h6.344c.864 0 1.566-.767 1.566-1.71v-1.023c0-1.405-.868-2.637-2.11-2.995Zm1.516 4.018c0 .585-.436 1.062-.972 1.062H4.835c-.536 0-.972-.477-.972-1.062v-1.023c0-1.111.686-2.085 1.668-2.368a.55.55 0 0 1 .42.053 4.064 4.064 0 0 0 4.112 0 .543.543 0 0 1 .42-.053c.982.283 1.668 1.257 1.668 2.368v1.023Z"/><path stroke="currentColor" stroke-width=".5" d="M13.5 9c-.827 0-1.5-.673-1.5-1.5S12.673 6 13.5 6s1.5.673 1.5 1.5S14.327 9 13.5 9Zm0-2.646c-.632 0-1.146.514-1.146 1.146 0 .632.514 1.146 1.146 1.146.632 0 1.146-.514 1.146-1.146 0-.632-.514-1.146-1.146-1.146Z"/><path stroke="currentColor" stroke-width=".6" d="M13.413 10.37a1.66 1.66 0 0 1-.784-.196c-.051-.027-.069-.068-.202-.035l.08.266c.283.15.588.226.906.226.318 0 .623-.076.906-.226a.26.26 0 0 1 .185-.021.988.988 0 0 1 .735.954v.413a.429.429 0 0 1-.429.428h-2.25v.261h2.25c.38 0 .69-.31.69-.69v-.412a1.25 1.25 0 0 0-.93-1.207.523.523 0 0 0-.373.043 1.66 1.66 0 0 1-.784.195Z"/><path stroke="currentColor" stroke-width=".5" d="M2.5 9C3.327 9 4 8.327 4 7.5S3.327 6 2.5 6 1 6.673 1 7.5 1.673 9 2.5 9Zm0-2.646c.632 0 1.146.514 1.146 1.146 0 .632-.514 1.146-1.146 1.146A1.148 1.148 0 0 1 1.354 7.5c0-.632.514-1.146 1.146-1.146Z"/><path stroke="currentColor" stroke-width=".6" d="M2.587 10.37c.275 0 .539-.066.784-.196.051-.027.069-.068.202-.035l-.08.266c-.283.15-.588.226-.906.226-.318 0-.623-.076-.906-.226a.259.259 0 0 0-.185-.021.988.988 0 0 0-.735.954v.413c0 .236.193.428.429.428h2.25v.261H1.19a.69.69 0 0 1-.69-.69v-.412c0-.566.382-1.063.93-1.207a.523.523 0 0 1 .373.043c.245.13.509.195.784.195Z"/></svg>