<svg width="50" height="51" viewBox="0 0 50 51" fill="none" xmlns="http://www.w3.org/2000/svg">
<path d="M20.9813 33.2935C21.0008 33.2935 21.0203 33.2838 21.0399 33.2838C22.5044 33.0103 23.1781 31.2916 22.2896 30.0904L19.3996 26.1647L19.4093 26.1549L22.9242 30.11L23.7444 31.0377C24.3595 31.731 25.3749 31.9263 26.1951 31.4869C26.2146 31.4771 26.2341 31.4674 26.2439 31.4576C27.4058 30.8424 27.6791 29.2994 26.8102 28.3229L26.0974 27.5221L22.3189 23.2546L22.3287 23.2448L26.3903 27.3073L27.4936 28.4205C28.2845 29.2115 29.5733 29.2213 30.3641 28.4205L30.3934 28.3912C31.1745 27.6002 31.1843 26.321 30.3934 25.5299L29.5928 24.7292L25.2285 20.364L25.2382 20.3542L30.413 24.6901C30.9109 25.11 31.5358 25.237 32.1118 25.1198C32.6879 25.0026 33.2151 24.6413 33.5178 24.0651C33.5276 24.0554 33.5276 24.0456 33.5373 24.0261C33.9767 23.1862 33.7717 22.1511 33.0394 21.5359L25.5214 15.2371L25.5116 15.2273L24.6524 14.368H26.5368C28.1771 14.368 29.5049 13.0399 29.5049 11.409C29.5049 10.9794 29.3292 10.579 29.0461 10.2958C28.7629 10.0126 28.3724 9.83679 27.933 9.83679H22.6606C21.0301 9.83679 19.4679 9.18251 18.3158 8.03018L11.3348 1.04785C10.7294 0.442385 9.75307 0.442385 9.15748 1.04785L1.19034 9.01649C0.584991 9.62195 0.584991 10.5985 1.19034 11.1942L8.01513 18.0203C8.52284 18.5281 8.8841 19.1726 9.04032 19.866C9.29417 20.9402 9.83117 21.9558 10.6708 22.7956L14.2932 26.4186H14.3029C14.8497 26.9655 15.3574 27.5514 15.8163 28.1764L18.9895 32.483C19.4484 33.1275 20.2295 33.4302 20.9813 33.2935Z" fill="url(#paint0_linear_950_22890)"/>
<path d="M20.9813 33.2935C21.0008 33.2935 21.0203 33.2838 21.0399 33.2838C22.5044 33.0103 23.1781 31.2916 22.2896 30.0904L19.3996 26.1647L19.4093 26.1549L22.9242 30.11L23.7444 31.0377C24.3595 31.731 25.3749 31.9263 26.1951 31.4869C26.2146 31.4771 26.2341 31.4674 26.2439 31.4576C27.4058 30.8424 27.6791 29.2994 26.8102 28.3229L26.0974 27.5221L22.3189 23.2546L22.3287 23.2448L26.3903 27.3073L27.4936 28.4205C28.2845 29.2115 29.5733 29.2213 30.3641 28.4205L30.3934 28.3912C31.1745 27.6002 31.1843 26.321 30.3934 25.5299L29.5928 24.7292L25.2285 20.364L25.2382 20.3542L30.413 24.6901C30.9109 25.11 31.5358 25.237 32.1118 25.1198C32.6879 25.0026 33.2151 24.6413 33.5178 24.0651C33.5276 24.0554 33.5276 24.0456 33.5373 24.0261C33.9767 23.1862 33.7717 22.1511 33.0394 21.5359L25.5214 15.2371L25.5116 15.2273L24.6524 14.368H26.5368C28.1771 14.368 29.5049 13.0399 29.5049 11.409C29.5049 10.9794 29.3292 10.579 29.0461 10.2958C28.7629 10.0126 28.3724 9.83679 27.933 9.83679H22.6606C21.0301 9.83679 19.4679 9.18251 18.3158 8.03018L11.3348 1.04785C10.7294 0.442385 9.75307 0.442385 9.15748 1.04785L1.19034 9.01649C0.584991 9.62195 0.584991 10.5985 1.19034 11.1942L8.01513 18.0203C8.52284 18.5281 8.8841 19.1726 9.04032 19.866C9.29417 20.9402 9.83117 21.9558 10.6708 22.7956L14.2932 26.4186H14.3029C14.8497 26.9655 15.3574 27.5514 15.8163 28.1764L18.9895 32.483C19.4484 33.1275 20.2295 33.4302 20.9813 33.2935Z" fill="url(#paint1_linear_950_22890)"/>
<path d="M9.14772 1.04833L1.19034 9.01698C0.584991 9.62244 0.584991 10.599 1.19034 11.1947L8.01513 18.0208C8.52284 18.5286 8.8841 19.1731 9.04032 19.8664C9.29417 20.9407 9.83117 21.9563 10.6708 22.7961L12.3307 24.4562L26.9566 9.83728H22.6509C21.0203 9.83728 19.4581 9.18299 18.306 8.03066L11.3348 1.04833C10.7294 0.452639 9.75306 0.452639 9.14772 1.04833Z" fill="url(#paint2_linear_950_22890)"/>
<path d="M6.93225 17.2481L17.4283 6.75001L11.736 1.05664C11.3747 0.695313 10.8866 0.5 10.3886 0.5H1.79653C0.800626 0.5 0 1.30078 0 2.29688V9.52345C0 10.0313 0.205038 10.5195 0.556532 10.8711L6.93225 17.2481Z" fill="url(#paint3_linear_950_22890)"/>
<path d="M1.18141 0.605469C0.488186 0.859375 0 1.51367 0 2.29492V9.52149C0 10.0293 0.205038 10.5176 0.556532 10.8691L6.93225 17.2461L12.3706 11.8067L1.18141 0.605469Z" fill="url(#paint4_linear_950_22890)"/>
<path d="M1.75781 12.0625L12.2441 1.57422L17.4286 6.75L6.93259 17.2481L1.75781 12.0625Z" fill="url(#paint5_linear_950_22890)"/>
<path d="M15.8864 4.20215L18.4738 6.79004C18.8057 7.12207 18.8057 7.65918 18.4738 7.99121L8.17304 18.2744C7.84108 18.6065 7.30407 18.6065 6.9721 18.2744L4.38472 15.6865C4.05275 15.3545 4.05275 14.8174 4.38472 14.4854L14.6854 4.20215C15.0174 3.87012 15.5544 3.87012 15.8864 4.20215Z" fill="url(#paint6_linear_950_22890)"/>
<path d="M8.17325 18.2871L18.4642 7.98438C18.7962 7.65235 18.7962 7.11524 18.4642 6.7832L16.6775 4.99609L5.18555 16.4902L6.97231 18.2774C7.30428 18.6094 7.84128 18.6094 8.17325 18.2871Z" fill="url(#paint7_linear_950_22890)"/>
<path d="M13.3674 13.0908L18.4641 7.9834C18.7961 7.65137 18.7961 7.11426 18.4641 6.78223L15.8767 4.19434C15.5447 3.8623 15.0077 3.8623 14.6758 4.19434L9.5791 9.30176L13.3674 13.0908Z" fill="url(#paint8_linear_950_22890)"/>
<path d="M20.4048 22.8015L24.3298 19.9109L24.3396 19.9207L20.3853 23.4362L19.4578 24.2565C18.7548 24.8815 18.579 25.8971 19.0086 26.7174C19.0184 26.7272 19.0184 26.7467 19.0282 26.7565C19.6433 27.9186 21.1859 28.2018 22.1623 27.3229L22.9629 26.61L27.2394 22.8112L27.2492 22.821L23.1875 26.8835L22.0647 27.9967C21.2738 28.7877 21.264 30.0768 22.0647 30.8678L22.094 30.8971C22.8848 31.6783 24.1639 31.6881 24.9547 30.8971L25.7553 30.0963L30.1197 25.7311L30.1294 25.7409L25.7846 30.9166C25.3648 31.4146 25.2379 32.0396 25.3453 32.6158C25.4527 33.192 25.8237 33.7193 26.3997 34.022C26.4095 34.0318 26.4193 34.0318 26.4388 34.0416C27.2785 34.481 28.3134 34.2759 28.9285 33.5435L35.2261 26.0241L35.2358 26.0143L36.095 25.155V27.0397C36.095 28.6803 37.4229 30.0084 39.0632 30.0084C39.5026 30.0084 39.8931 29.8326 40.1762 29.5494C40.4594 29.2662 40.6351 28.8756 40.6351 28.4362V23.1628C40.6351 21.532 41.2795 19.9695 42.4414 18.8172L49.4127 11.8446C50.018 11.2391 50.018 10.2626 49.4127 9.66688L41.4553 1.708C40.8499 1.10254 39.8736 1.10254 39.278 1.708L32.4532 8.53408C31.9455 9.04189 31.3011 9.40321 30.6079 9.55946C29.5339 9.81336 28.5184 10.3505 27.6788 11.1903L24.0565 14.8133L24.0467 14.8231C23.9979 14.8719 23.9491 14.9207 23.91 14.9598C22.6895 16.1512 21.7522 17.5965 21.1566 19.1882C20.4341 21.1316 19.7214 23.3093 20.4048 22.8015Z" fill="url(#paint9_linear_950_22890)"/>
<path d="M20.4048 22.8015L24.3298 19.9109L24.3396 19.9207L20.3853 23.4362L19.4578 24.2565C18.7548 24.8815 18.579 25.8971 19.0086 26.7174C19.0184 26.7272 19.0184 26.7467 19.0282 26.7565C19.6433 27.9186 21.1859 28.2018 22.1623 27.3229L22.9629 26.61L27.2394 22.8112L27.2492 22.821L23.1875 26.8835L22.0647 27.9967C21.2738 28.7877 21.264 30.0768 22.0647 30.8678L22.094 30.8971C22.8848 31.6783 24.1639 31.6881 24.9547 30.8971L25.7553 30.0963L30.1197 25.7311L30.1294 25.7409L25.7846 30.9166C25.3648 31.4146 25.2379 32.0396 25.3453 32.6158C25.4527 33.192 25.8237 33.7193 26.3997 34.022C26.4095 34.0318 26.4193 34.0318 26.4388 34.0416C27.2785 34.481 28.3134 34.2759 28.9285 33.5435L35.2261 26.0241L35.2358 26.0143L36.095 25.155V27.0397C36.095 28.6803 37.4229 30.0084 39.0632 30.0084C39.5026 30.0084 39.8931 29.8326 40.1762 29.5494C40.4594 29.2662 40.6351 28.8756 40.6351 28.4362V23.1628C40.6351 21.532 41.2795 19.9695 42.4414 18.8172L49.4127 11.8446C50.018 11.2391 50.018 10.2626 49.4127 9.66688L41.4553 1.708C40.8499 1.10254 39.8736 1.10254 39.278 1.708L32.4532 8.53408C31.9455 9.04189 31.3011 9.40321 30.6079 9.55946C29.5339 9.81336 28.5184 10.3505 27.6788 11.1903L24.0565 14.8133L24.0467 14.8231C23.9979 14.8719 23.9491 14.9207 23.91 14.9598C22.6895 16.1512 21.7522 17.5965 21.1566 19.1882C20.4341 21.1316 19.7214 23.3093 20.4048 22.8015Z" fill="url(#paint10_linear_950_22890)"/>
<path d="M49.4416 9.64735L41.4842 1.68847C40.8788 1.08301 39.9025 1.08301 39.3069 1.68847L32.4821 8.51455C31.9744 9.02236 31.33 9.38368 30.6368 9.53993C29.5628 9.79383 28.5473 10.3309 27.7077 11.1708L26.0479 12.8309L40.6738 27.4596V23.153C40.6738 21.5222 41.3182 19.9597 42.4801 18.8074L49.4513 11.8348C50.0372 11.2294 50.0372 10.2528 49.4416 9.64735Z" fill="url(#paint11_linear_950_22890)"/>
<path d="M36.124 25.1543V27.0391C36.124 28.6797 37.4519 30.0078 39.0922 30.0078C39.5316 30.0078 39.9221 29.832 40.2053 29.5488C40.4884 29.2656 40.6642 28.875 40.6642 28.4356L40.6739 20.6133L36.124 25.1543Z" fill="url(#paint12_linear_950_22890)"/>
<path d="M26.4293 34.0156C26.4391 34.0254 26.4488 34.0254 26.4683 34.0352C27.308 34.4746 28.343 34.2695 28.9581 33.5371L35.2557 26.0176L35.2655 26.0078L36.1247 25.1484L33.1467 22.1797L30.1395 25.7344L25.7946 30.9102C24.9745 31.9063 25.2772 33.4199 26.4293 34.0156Z" fill="url(#paint13_linear_950_22890)"/>
<path d="M26.4293 34.0156C26.4391 34.0254 26.4488 34.0254 26.4683 34.0352C27.308 34.4746 28.343 34.2695 28.9581 33.5371L35.2557 26.0176L35.2655 26.0078L36.1247 25.1484L33.1467 22.1797L30.1395 25.7344L25.7946 30.9102C24.9745 31.9063 25.2772 33.4199 26.4293 34.0156Z" fill="url(#paint14_linear_950_22890)"/>
<path d="M30.5112 19.543L27.2403 22.8242L27.2501 22.834L23.1884 26.8965L22.0656 28C21.2747 28.791 21.2649 30.0801 22.0656 30.8711L22.0949 30.9004C22.8857 31.6817 24.1648 31.6914 24.9556 30.9004L25.7563 30.0996L30.1206 25.7344L30.1304 25.7441L33.1376 22.1895L30.5112 19.543Z" fill="url(#paint15_linear_950_22890)"/>
<path d="M30.5112 19.543L27.2403 22.8242L27.2501 22.834L23.1884 26.8965L22.0656 28C21.2747 28.791 21.2649 30.0801 22.0656 30.8711L22.0949 30.9004C22.8857 31.6817 24.1648 31.6914 24.9556 30.9004L25.7563 30.0996L30.1206 25.7344L30.1304 25.7441L33.1376 22.1895L30.5112 19.543Z" fill="url(#paint16_linear_950_22890)"/>
<path d="M20.3862 23.4375L19.4587 24.2578C18.7654 24.8731 18.5702 25.8887 19.0095 26.7188L19.0388 26.7774C19.6539 27.9297 21.1966 28.2031 22.173 27.334L22.9736 26.6211L27.2501 22.8223L27.2599 22.832L30.5307 19.5508L27.8945 16.9141L24.3601 19.9219L20.3862 23.4375Z" fill="url(#paint17_linear_950_22890)"/>
<path d="M20.3862 23.4375L19.4587 24.2578C18.7654 24.8731 18.5702 25.8887 19.0095 26.7188L19.0388 26.7774C19.6539 27.9297 21.1966 28.2031 22.173 27.334L22.9736 26.6211L27.2501 22.8223L27.2599 22.832L30.5307 19.5508L27.8945 16.9141L24.3601 19.9219L20.3862 23.4375Z" fill="url(#paint18_linear_950_22890)"/>
<path d="M33.2451 7.4336L43.7411 17.9317L49.4334 12.2383C49.7946 11.877 49.9899 11.3887 49.9899 10.8906V2.29688C49.9899 1.30078 49.1893 0.5 48.1934 0.5H40.9682C40.4605 0.5 39.9723 0.705078 39.6111 1.05664L33.2451 7.4336Z" fill="url(#paint19_linear_950_22890)"/>
<path d="M43.0869 17.2774L43.7411 17.9317L49.4333 12.2383C49.7946 11.877 49.9899 11.3887 49.9899 10.8906V2.29688C49.9899 1.30078 49.1892 0.5 48.1933 0.5H43.0771L43.0869 17.2774Z" fill="url(#paint20_linear_950_22890)"/>
<path d="M33.2451 7.4336L38.4297 2.25781L48.9159 12.7461L43.7411 17.9317L33.2451 7.4336Z" fill="url(#paint21_linear_950_22890)"/>
<path d="M46.2892 16.3858L43.7018 18.9736C43.3699 19.3057 42.8328 19.3057 42.5009 18.9736L32.2099 8.6709C31.8779 8.33887 31.8779 7.80176 32.2099 7.46973L34.7973 4.88184C35.1293 4.5498 35.6663 4.5498 35.9982 4.88184L46.2892 15.1748C46.6212 15.5166 46.6212 16.0537 46.2892 16.3858Z" fill="url(#paint22_linear_950_22890)"/>
<path d="M32.2102 8.67188L42.5011 18.9649C42.8331 19.2969 43.3701 19.2969 43.7021 18.9649L45.4888 17.1777L34.0067 5.68359L32.2199 7.47071C31.888 7.80274 31.888 8.33985 32.2102 8.67188Z" fill="url(#paint23_linear_950_22890)"/>
<path d="M37.4043 13.8652L42.5107 18.9629C42.8427 19.2949 43.3797 19.2949 43.7117 18.9629L46.2991 16.375C46.631 16.043 46.631 15.5059 46.2991 15.1738L41.2024 10.0664L37.4043 13.8652Z" fill="url(#paint24_linear_950_22890)"/>
<path d="M32.7864 29.5048C32.7864 29.4853 32.7766 29.4658 32.7766 29.4462C32.5032 27.9814 30.7848 27.3076 29.5839 28.1962L25.6589 31.0868L25.6491 31.0771L29.6034 27.5615L30.531 26.7412C31.2242 26.126 31.4195 25.1103 30.9801 24.29C30.9703 24.2705 30.9606 24.251 30.9508 24.2314C30.3357 23.0694 28.793 22.7959 27.8167 23.665L27.0161 24.3779L22.7493 28.1767L22.7396 28.1669L26.8013 24.1045L27.9143 23.001C28.7052 22.21 28.7149 20.9209 27.9143 20.1299C27.9045 20.1202 27.8948 20.1104 27.885 20.1006C27.0942 19.3194 25.8151 19.3096 25.0243 20.1006L24.2237 20.9014L19.8593 25.2666L19.8495 25.2568L24.1846 20.0811C24.6044 19.5831 24.7314 18.9581 24.6142 18.3819C24.497 17.8058 24.1358 17.2784 23.5597 16.9757C23.55 16.9659 23.5402 16.9659 23.5207 16.9562C22.681 16.5167 21.646 16.7218 21.0309 17.4542L14.7334 24.9736L14.7236 24.9834L13.8644 25.8428V23.958C13.8644 22.3174 12.5366 20.9893 10.906 20.9893C10.4764 20.9893 10.0761 21.1651 9.79297 21.4483C9.50982 21.7315 9.33407 22.1221 9.33407 22.5615V27.8349C9.33407 29.4658 8.67991 31.0282 7.5278 32.1806L0.546783 39.1629C-0.0585633 39.7684 -0.0585633 40.7449 0.546783 41.3406L8.50416 49.2995C9.10951 49.9049 10.0859 49.9049 10.6815 49.2995L17.5063 42.4734C18.014 41.9656 18.6584 41.6043 19.3516 41.448C20.4256 41.1941 21.441 40.657 22.2807 39.8172L25.903 36.1942C26.4498 35.6473 27.0356 35.1395 27.6605 34.6805L31.9662 31.5067C32.6204 31.0478 32.9328 30.2665 32.7864 29.5048Z" fill="url(#paint25_linear_950_22890)"/>
<path d="M32.7864 29.5048C32.7864 29.4853 32.7766 29.4658 32.7766 29.4462C32.5032 27.9814 30.7848 27.3076 29.5839 28.1962L25.6589 31.0868L25.6491 31.0771L29.6034 27.5615L30.531 26.7412C31.2242 26.126 31.4195 25.1103 30.9801 24.29C30.9703 24.2705 30.9606 24.251 30.9508 24.2314C30.3357 23.0694 28.793 22.7959 27.8167 23.665L27.0161 24.3779L22.7493 28.1767L22.7396 28.1669L26.8013 24.1045L27.9143 23.001C28.7052 22.21 28.7149 20.9209 27.9143 20.1299C27.9045 20.1202 27.8948 20.1104 27.885 20.1006C27.0942 19.3194 25.8151 19.3096 25.0243 20.1006L24.2237 20.9014L19.8593 25.2666L19.8495 25.2568L24.1846 20.0811C24.6044 19.5831 24.7314 18.9581 24.6142 18.3819C24.497 17.8058 24.1358 17.2784 23.5597 16.9757C23.55 16.9659 23.5402 16.9659 23.5207 16.9562C22.681 16.5167 21.646 16.7218 21.0309 17.4542L14.7334 24.9736L14.7236 24.9834L13.8644 25.8428V23.958C13.8644 22.3174 12.5366 20.9893 10.906 20.9893C10.4764 20.9893 10.0761 21.1651 9.79297 21.4483C9.50982 21.7315 9.33407 22.1221 9.33407 22.5615V27.8349C9.33407 29.4658 8.67991 31.0282 7.5278 32.1806L0.546783 39.1629C-0.0585633 39.7684 -0.0585633 40.7449 0.546783 41.3406L8.50416 49.2995C9.10951 49.9049 10.0859 49.9049 10.6815 49.2995L17.5063 42.4734C18.014 41.9656 18.6584 41.6043 19.3516 41.448C20.4256 41.1941 21.441 40.657 22.2807 39.8172L25.903 36.1942C26.4498 35.6473 27.0356 35.1395 27.6605 34.6805L31.9662 31.5067C32.6204 31.0478 32.9328 30.2665 32.7864 29.5048Z" fill="url(#paint26_linear_950_22890)"/>
<path d="M16.4808 26.9375L3.55371 39.8573L11.9407 48.0603L17.5157 42.4842C18.0235 41.9764 18.6679 41.615 19.3611 41.4588C20.4351 41.2049 21.4505 40.6678 22.2902 39.828L25.8246 36.2928L16.4808 26.9375Z" fill="url(#paint27_linear_950_22890)"/>
<path d="M0.546297 41.3513L8.50368 49.3102C9.10902 49.9157 10.0854 49.9157 10.681 49.3102L17.5058 42.4841C18.0135 41.9763 18.6579 41.615 19.3511 41.4587C20.4251 41.2048 21.4405 40.6677 22.2802 39.8279L23.94 38.1678L9.33359 23.5391V27.8456C9.33359 29.4765 8.67942 31.039 7.52731 32.1913L0.546297 39.1639C-0.0492864 39.7693 -0.0492864 40.7459 0.546297 41.3513Z" fill="url(#paint28_linear_950_22890)"/>
<path d="M25.0736 37.0533L25.9231 36.2037C26.4699 35.6568 27.0557 35.149 27.6806 34.69L31.9864 31.5162C32.6112 31.0572 32.9139 30.2857 32.7772 29.524C32.7772 29.5045 32.7675 29.4849 32.7675 29.4654C32.4941 28.0006 30.7757 27.3267 29.5747 28.2154L25.6497 31.106L25.6399 31.0963L26.0403 30.7349L25.7962 30.9303L22.1152 34.0943L25.0736 37.0533Z" fill="url(#paint29_linear_950_22890)"/>
<path d="M13.8644 25.8418V23.957C13.8644 22.3164 12.5365 20.9883 10.9059 20.9883C10.4763 20.9883 10.076 21.1641 9.79288 21.4473C9.50973 21.7305 9.33398 22.1211 9.33398 22.5605L9.32422 30.3828L13.8644 25.8418Z" fill="url(#paint30_linear_950_22890)"/>
<path d="M13.8644 25.8418V23.957C13.8644 22.3164 12.5365 20.9883 10.9059 20.9883C10.4763 20.9883 10.076 21.1641 9.79288 21.4473C9.50973 21.7305 9.33398 22.1211 9.33398 22.5605L9.32422 30.3828L13.8644 25.8418Z" fill="url(#paint31_linear_950_22890)"/>
<path d="M23.5596 16.9835C23.5499 16.9737 23.5401 16.9737 23.5206 16.964C22.6809 16.5245 21.6459 16.7296 21.0308 17.462L14.7332 24.9816L14.7235 24.9913L13.8643 25.8507L16.8324 28.8194L19.8397 25.2648L24.1748 20.089C25.0144 19.0929 24.7118 17.5792 23.5596 16.9835Z" fill="url(#paint32_linear_950_22890)"/>
<path d="M23.5596 16.9835C23.5499 16.9737 23.5401 16.9737 23.5206 16.964C22.6809 16.5245 21.6459 16.7296 21.0308 17.462L14.7332 24.9816L14.7235 24.9913L13.8643 25.8507L16.8324 28.8194L19.8397 25.2648L24.1748 20.089C25.0144 19.0929 24.7118 17.5792 23.5596 16.9835Z" fill="url(#paint33_linear_950_22890)"/>
<path d="M22.2714 33.3338L30.4046 27.7088L32.5624 25.5017C33.3532 24.7107 28.7155 20.9216 27.9148 20.1306C27.9051 20.1209 27.8953 20.1111 27.8855 20.1013C27.0947 19.3201 25.8156 19.3103 25.0248 20.1013L24.2242 20.9021L19.8598 25.2673L19.85 25.2576L16.8428 28.822L22.2714 33.3338Z" fill="url(#paint34_linear_950_22890)"/>
<path d="M16.7448 43.5684L6.24879 33.0703L0.556532 38.7637C0.195275 39.125 0 39.6133 0 40.1211V48.7149C0 49.7012 0.800626 50.502 1.79653 50.502H9.02168C9.5294 50.502 10.0176 50.2969 10.3691 49.9453L16.7448 43.5684Z" fill="url(#paint35_linear_950_22890)"/>
<path d="M14.2257 46.0859H0V48.7129C0 49.6992 0.800626 50.5 1.79653 50.5H9.02168C9.5294 50.5 10.0176 50.2949 10.3691 49.9434L14.2257 46.0859Z" fill="url(#paint36_linear_950_22890)"/>
<path d="M1.07422 38.2461L6.24899 33.0703L16.745 43.5586L11.5605 48.7442L1.07422 38.2461Z" fill="url(#paint37_linear_950_22890)"/>
<path d="M2.43066 36.8887V50.502H9.01142C9.51913 50.502 10.0073 50.2969 10.3588 49.9453L16.7345 43.5684L6.24828 33.0703L2.43066 36.8887Z" fill="url(#paint38_linear_950_22890)"/>
<path d="M17.7804 43.5303L15.193 46.1182C14.8611 46.4502 14.3241 46.4502 13.9921 46.1182L3.70112 35.8154C3.36916 35.4834 3.36916 34.9463 3.70112 34.6143L6.28851 32.0264C6.62048 31.6943 7.15748 31.6943 7.48945 32.0264L17.7804 42.3193C18.1124 42.6611 18.1124 43.1983 17.7804 43.5303Z" fill="url(#paint39_linear_950_22890)"/>
<path d="M3.70112 35.8164L13.9921 46.1094C14.3241 46.4414 14.8611 46.4414 15.193 46.1094L16.9798 44.3223L5.48789 32.8281L3.70112 34.6152C3.36916 34.9473 3.36916 35.4844 3.70112 35.8164Z" fill="url(#paint40_linear_950_22890)"/>
<path d="M8.88574 41.0117L13.9922 46.1094C14.3241 46.4414 14.8611 46.4414 15.1931 46.1094L17.7805 43.5215C18.1125 43.1895 18.1125 42.6523 17.7805 42.3203L12.6741 37.2227L8.88574 41.0117Z" fill="url(#paint41_linear_950_22890)"/>
<path d="M28.9985 17.7115C28.979 17.7115 28.9594 17.7213 28.9399 17.7213C27.4754 17.9947 26.8017 19.7135 27.6902 20.9146L30.5802 24.8404L30.5705 24.8501L27.0555 20.8951L26.2354 19.9674C25.6203 19.274 24.6049 19.0787 23.7847 19.5182C23.7652 19.5279 23.7457 19.5377 23.7261 19.5475C22.5643 20.1627 22.2909 21.7056 23.1598 22.6822L23.8726 23.483L27.6706 27.7602L27.6609 27.77L23.5992 23.7076L22.4959 22.5748C21.705 21.7838 20.4162 21.774 19.6254 22.5748C19.6156 22.5845 19.6059 22.5943 19.5961 22.6041C18.815 23.3951 18.8052 24.6743 19.5961 25.4654L20.3967 26.2661L24.7611 30.6313L24.7513 30.6411L19.5766 26.2954C19.0786 25.8755 18.4538 25.7486 17.8777 25.856C17.3016 25.9634 16.7744 26.3345 16.4717 26.9106C16.462 26.9204 16.462 26.9302 16.4522 26.9497C16.0128 27.7895 16.2179 28.8247 16.9502 29.4399L24.4682 35.7387L24.4779 35.7484L25.3371 36.6078H23.4527C21.8125 36.6078 20.4846 37.9359 20.4846 39.5765C20.4846 40.0159 20.6603 40.4066 20.9435 40.6898C21.2266 40.973 21.6172 41.1487 22.0565 41.1487H27.3289C28.9594 41.1487 30.5216 41.7933 31.6737 42.9554L38.645 49.9279C39.2503 50.5334 40.2267 50.5334 40.8223 49.9279L48.7797 41.969C49.385 41.3636 49.385 40.387 48.7797 39.7913L41.9549 32.9653C41.4472 32.4575 41.0859 31.8129 40.9297 31.1196C40.6758 30.0454 40.1388 29.0298 39.2992 28.1899L35.6768 24.5669V24.5572C35.1301 24.0103 34.6224 23.4244 34.1635 22.7896L30.9903 18.483C30.5412 17.8776 29.7698 17.5651 28.9985 17.7115Z" fill="url(#paint42_linear_950_22890)"/>
<path d="M40.8421 49.9567L48.7995 41.9978C49.4048 41.3924 49.4048 40.4158 48.7995 39.8201L41.9747 32.9941C41.467 32.4863 41.1057 31.8417 40.9495 31.1484C40.6957 30.0742 40.1587 29.0586 39.319 28.2187L37.6592 26.5586L23.0332 41.1678H27.339C28.9695 41.1678 30.5317 41.8123 31.6838 42.9744L38.6551 49.947C39.2604 50.5524 40.2368 50.5524 40.8421 49.9567Z" fill="url(#paint43_linear_950_22890)"/>
<path d="M36.5456 25.4249L35.6962 24.5753V24.5656C35.1494 24.0187 34.6417 23.4328 34.1828 22.798L31.0096 18.4913C30.5507 17.8663 29.7794 17.5636 29.0178 17.7003C28.9983 17.7003 28.9788 17.7101 28.9592 17.7101C27.4947 17.9835 26.821 19.7023 27.7095 20.9035L30.5995 24.8292L30.5898 24.839L33.597 28.3742L36.5456 25.4249Z" fill="url(#paint44_linear_950_22890)"/>
<path d="M36.5456 25.4249L35.6962 24.5753V24.5656C35.1494 24.0187 34.6417 23.4328 34.1828 22.798L31.0096 18.4913C30.5507 17.8663 29.7794 17.5636 29.0178 17.7003C28.9983 17.7003 28.9788 17.7101 28.9592 17.7101C27.4947 17.9835 26.821 19.7023 27.7095 20.9035L30.5995 24.8292L33.597 28.3839L36.5456 25.4249Z" fill="url(#paint45_linear_950_22890)"/>
<path d="M25.3369 36.6367H23.4525C21.8122 36.6367 20.4844 37.9648 20.4844 39.6055C20.4844 40.0449 20.6601 40.4355 20.9433 40.7188C21.2264 41.002 21.617 41.1777 22.0563 41.1777L29.8771 41.1875L25.3369 36.6367Z" fill="url(#paint46_linear_950_22890)"/>
<path d="M25.3369 36.6367H23.4525C21.8122 36.6367 20.4844 37.9648 20.4844 39.6055C20.4844 40.0449 20.6601 40.4355 20.9433 40.7188C21.2264 41.002 21.617 41.1777 22.0563 41.1777L29.8771 41.1875L25.3369 36.6367Z" fill="url(#paint47_linear_950_22890)"/>
<path d="M16.4815 26.936C16.4717 26.9458 16.4717 26.9555 16.462 26.9751C16.0226 27.8149 16.2276 28.8501 16.9599 29.4653L24.478 35.7641L24.4878 35.7739L25.347 36.6333L28.3151 33.6645L24.7611 30.6567L19.5864 26.311C18.5905 25.4809 17.0771 25.7837 16.4815 26.936Z" fill="url(#paint48_linear_950_22890)"/>
<path d="M16.4815 26.936C16.4717 26.9458 16.4717 26.9555 16.462 26.9751C16.0226 27.8149 16.2276 28.8501 16.9599 29.4653L24.478 35.7641L24.4878 35.7739L25.347 36.6333L28.3151 33.6645L24.7611 30.6567L19.5864 26.311C18.5905 25.4809 17.0771 25.7837 16.4815 26.936Z" fill="url(#paint49_linear_950_22890)"/>
<path d="M30.9506 31.0208L27.67 27.7493L27.6602 27.759L23.5985 23.6965L22.4952 22.5735C21.7043 21.7825 20.4155 21.7727 19.6246 22.5735C19.6149 22.5833 19.6051 22.593 19.5954 22.6028C18.8143 23.3938 18.8045 24.6731 19.5954 25.4641L20.396 26.2649L24.7604 30.6301L24.7506 30.6399L28.3046 33.6477L30.9506 31.0208Z" fill="url(#paint50_linear_950_22890)"/>
<path d="M30.9506 31.0208L27.67 27.7493L27.6602 27.759L23.5985 23.6965L22.4952 22.5735C21.7043 21.7825 20.4155 21.7727 19.6246 22.5735C19.6149 22.5833 19.6051 22.593 19.5954 22.6028C18.8143 23.3938 18.8045 24.6731 19.5954 25.4641L20.396 26.2649L24.7604 30.6301L24.7506 30.6399L28.3046 33.6477L30.9506 31.0208Z" fill="url(#paint51_linear_950_22890)"/>
<path d="M27.0555 20.8924L26.2353 19.9647C25.6202 19.2713 24.6048 19.076 23.7749 19.5154C23.7553 19.5252 23.7358 19.535 23.7163 19.5447C22.5642 20.16 22.2908 21.7029 23.1597 22.6795L23.8725 23.4803L27.6706 27.7576L27.6608 27.7674L30.9414 31.0389L33.5776 28.4022L30.5704 24.867L27.0555 20.8924Z" fill="url(#paint52_linear_950_22890)"/>
<path d="M27.0555 20.8924L26.2353 19.9647C25.6202 19.2713 24.6048 19.076 23.7749 19.5154C23.7553 19.5252 23.7358 19.535 23.7163 19.5447C22.5642 20.16 22.2908 21.7029 23.1597 22.6795L23.8725 23.4803L27.6706 27.7576L27.6608 27.7674L30.9414 31.0389L33.5776 28.4022L30.5704 24.867L27.0555 20.8924Z" fill="url(#paint53_linear_950_22890)"/>
<path d="M43.0575 33.75L32.5615 44.2481L38.2538 49.9414C38.615 50.3027 39.1032 50.4981 39.6109 50.4981H48.203C49.1892 50.4981 49.9995 49.6973 49.9995 48.7012V41.4746C49.9995 40.9668 49.7945 40.4785 49.443 40.1172L43.0575 33.75Z" fill="url(#paint54_linear_950_22890)"/>
<path d="M45.5771 36.2695V50.4981H48.2036C49.1897 50.4981 50.0001 49.6973 50.0001 48.7012V41.4746C50.0001 40.9668 49.7951 40.4785 49.4436 40.1172L45.5771 36.2695Z" fill="url(#paint55_linear_950_22890)"/>
<path d="M33.2157 43.5957L32.5615 44.25L38.2538 49.9434C38.615 50.3047 39.1032 50.5 39.6109 50.5H48.203C49.1892 50.5 49.9995 49.6992 49.9995 48.7031V43.5859L33.2157 43.5957Z" fill="url(#paint56_linear_950_22890)"/>
<path d="M32.5615 44.2481L43.0575 33.75L48.2323 38.9258L37.7363 49.4238L32.5615 44.2481Z" fill="url(#paint57_linear_950_22890)"/>
<path d="M43.0182 32.7144L45.6056 35.3022C45.9376 35.6343 45.9376 36.1714 45.6056 36.5034L35.3049 46.7964C34.9729 47.1284 34.4359 47.1284 34.1039 46.7964L31.5166 44.2085C31.1846 43.8765 31.1846 43.3394 31.5166 43.0073L41.8075 32.7144C42.1493 32.3921 42.6863 32.3921 43.0182 32.7144Z" fill="url(#paint58_linear_950_22890)"/>
<path d="M45.6058 36.5039L35.3051 46.7969C34.9731 47.1289 34.4361 47.1289 34.1041 46.7969L32.3174 45.0098L43.8093 33.5156L45.5961 35.3027C45.928 35.6348 45.928 36.1719 45.6058 36.5039Z" fill="url(#paint59_linear_950_22890)"/>
<path d="M40.4113 41.6973L35.3049 46.7949C34.9729 47.127 34.4359 47.127 34.1039 46.7949L31.5166 44.207C31.1846 43.875 31.1846 43.3379 31.5166 43.0059L36.6132 37.8984L40.4113 41.6973Z" fill="url(#paint60_linear_950_22890)"/>
<defs>
<linearGradient id="paint0_linear_950_22890" x1="19.9896" y1="11.8262" x2="12.2848" y2="25.4234" gradientUnits="userSpaceOnUse">
<stop stop-color="#FFDFCF"/>
<stop offset="1" stop-color="#FFA78F"/>
</linearGradient>
<linearGradient id="paint1_linear_950_22890" x1="18.0808" y1="16.9916" x2="21.4224" y2="19.4978" gradientUnits="userSpaceOnUse">
<stop stop-color="#F89580" stop-opacity="0"/>
<stop offset="0.1" stop-color="#F5937E" stop-opacity="0.05"/>
<stop offset="0.27" stop-color="#EE8E79" stop-opacity="0.18"/>
<stop offset="0.49" stop-color="#E38671" stop-opacity="0.39"/>
<stop offset="0.75" stop-color="#D57C65" stop-opacity="0.69"/>
<stop offset="1" stop-color="#C5715A"/>
</linearGradient>
<linearGradient id="paint2_linear_950_22890" x1="16.4137" y1="13.9145" x2="13.9763" y2="11.4765" gradientUnits="userSpaceOnUse">
<stop stop-color="#F89580" stop-opacity="0"/>
<stop offset="0.1" stop-color="#F5937E" stop-opacity="0.05"/>
<stop offset="0.27" stop-color="#EE8E79" stop-opacity="0.18"/>
<stop offset="0.49" stop-color="#E38671" stop-opacity="0.39"/>
<stop offset="0.75" stop-color="#D57C65" stop-opacity="0.69"/>
<stop offset="1" stop-color="#C5715A"/>
</linearGradient>
<linearGradient id="paint3_linear_950_22890" x1="8.71315" y1="1.26465" x2="8.71315" y2="13.7481" gradientUnits="userSpaceOnUse">
<stop stop-color="#C9F6B0"/>
<stop offset="1" stop-color="#0AB69F"/>
</linearGradient>
<linearGradient id="paint4_linear_950_22890" x1="3.97686" y1="8.88682" x2="1.0335" y2="11.8296" gradientUnits="userSpaceOnUse">
<stop stop-color="#037E73" stop-opacity="0"/>
<stop offset="0.15" stop-color="#037E73" stop-opacity="0.04"/>
<stop offset="0.34" stop-color="#037E73" stop-opacity="0.16"/>
<stop offset="0.55" stop-color="#037E73" stop-opacity="0.36"/>
<stop offset="0.77" stop-color="#037E73" stop-opacity="0.64"/>
<stop offset="1" stop-color="#037E73"/>
</linearGradient>
<linearGradient id="paint5_linear_950_22890" x1="8.25274" y1="8.06856" x2="9.92462" y2="9.74011" gradientUnits="userSpaceOnUse">
<stop stop-color="#037E73" stop-opacity="0"/>
<stop offset="0.15" stop-color="#037E73" stop-opacity="0.04"/>
<stop offset="0.34" stop-color="#037E73" stop-opacity="0.16"/>
<stop offset="0.55" stop-color="#037E73" stop-opacity="0.36"/>
<stop offset="0.77" stop-color="#037E73" stop-opacity="0.64"/>
<stop offset="1" stop-color="#037E73"/>
</linearGradient>
<linearGradient id="paint6_linear_950_22890" x1="9.84733" y1="9.65704" x2="13.1472" y2="12.9562" gradientUnits="userSpaceOnUse">
<stop stop-color="#EAF6FF"/>
<stop offset="1" stop-color="#B4D2E2"/>
</linearGradient>
<linearGradient id="paint7_linear_950_22890" x1="11.7795" y1="11.5933" x2="13.4221" y2="13.2355" gradientUnits="userSpaceOnUse">
<stop stop-color="#3692BC" stop-opacity="0"/>
<stop offset="0.12" stop-color="#3692BC" stop-opacity="0.03"/>
<stop offset="0.27" stop-color="#3692BC" stop-opacity="0.1"/>
<stop offset="0.43" stop-color="#3692BC" stop-opacity="0.23"/>
<stop offset="0.6" stop-color="#3692BC" stop-opacity="0.41"/>
<stop offset="0.77" stop-color="#3692BC" stop-opacity="0.64"/>
<stop offset="0.95" stop-color="#3692BC" stop-opacity="0.92"/>
<stop offset="1" stop-color="#3692BC"/>
</linearGradient>
<linearGradient id="paint8_linear_950_22890" x1="15.5697" y1="7.1002" x2="17.6547" y2="5.01662" gradientUnits="userSpaceOnUse">
<stop stop-color="#3692BC" stop-opacity="0"/>
<stop offset="0.12" stop-color="#3692BC" stop-opacity="0.03"/>
<stop offset="0.27" stop-color="#3692BC" stop-opacity="0.1"/>
<stop offset="0.43" stop-color="#3692BC" stop-opacity="0.23"/>
<stop offset="0.6" stop-color="#3692BC" stop-opacity="0.41"/>
<stop offset="0.77" stop-color="#3692BC" stop-opacity="0.64"/>
<stop offset="0.95" stop-color="#3692BC" stop-opacity="0.92"/>
<stop offset="1" stop-color="#3692BC"/>
</linearGradient>
<linearGradient id="paint9_linear_950_22890" x1="29.5047" y1="10.5955" x2="37.4417" y2="23.3108" gradientUnits="userSpaceOnUse">
<stop stop-color="#FFDFCF"/>
<stop offset="1" stop-color="#FFA78F"/>
</linearGradient>
<linearGradient id="paint10_linear_950_22890" x1="34.7883" y1="17.1242" x2="30.7499" y2="24.1322" gradientUnits="userSpaceOnUse">
<stop stop-color="#F89580" stop-opacity="0"/>
<stop offset="0.1" stop-color="#F5937E" stop-opacity="0.05"/>
<stop offset="0.27" stop-color="#EE8E79" stop-opacity="0.18"/>
<stop offset="0.49" stop-color="#E38671" stop-opacity="0.39"/>
<stop offset="0.75" stop-color="#D57C65" stop-opacity="0.69"/>
<stop offset="1" stop-color="#C5715A"/>
</linearGradient>
<linearGradient id="paint11_linear_950_22890" x1="36.5773" y1="16.9142" x2="39.0147" y2="14.4771" gradientUnits="userSpaceOnUse">
<stop stop-color="#F89580" stop-opacity="0"/>
<stop offset="0.1" stop-color="#F5937E" stop-opacity="0.05"/>
<stop offset="0.27" stop-color="#EE8E79" stop-opacity="0.18"/>
<stop offset="0.49" stop-color="#E38671" stop-opacity="0.39"/>
<stop offset="0.75" stop-color="#D57C65" stop-opacity="0.69"/>
<stop offset="1" stop-color="#C5715A"/>
</linearGradient>
<linearGradient id="paint12_linear_950_22890" x1="39.6384" y1="25.6538" x2="37.3651" y2="27.2784" gradientUnits="userSpaceOnUse">
<stop stop-color="#F89580" stop-opacity="0"/>
<stop offset="0.1" stop-color="#F5937E" stop-opacity="0.05"/>
<stop offset="0.27" stop-color="#EE8E79" stop-opacity="0.18"/>
<stop offset="0.49" stop-color="#E38671" stop-opacity="0.39"/>
<stop offset="0.75" stop-color="#D57C65" stop-opacity="0.69"/>
<stop offset="1" stop-color="#C5715A"/>
</linearGradient>
<linearGradient id="paint13_linear_950_22890" x1="31.215" y1="29.6383" x2="32.5031" y2="31.1703" gradientUnits="userSpaceOnUse">
<stop stop-color="#F89580" stop-opacity="0"/>
<stop offset="0.1" stop-color="#F5937E" stop-opacity="0.05"/>
<stop offset="0.27" stop-color="#EE8E79" stop-opacity="0.18"/>
<stop offset="0.49" stop-color="#E38671" stop-opacity="0.39"/>
<stop offset="0.75" stop-color="#D57C65" stop-opacity="0.69"/>
<stop offset="1" stop-color="#C5715A"/>
</linearGradient>
<linearGradient id="paint14_linear_950_22890" x1="29.2328" y1="27.9765" x2="26.1698" y2="27.1418" gradientUnits="userSpaceOnUse">
<stop stop-color="white" stop-opacity="0"/>
<stop offset="0.09" stop-color="white" stop-opacity="0.02"/>
<stop offset="0.22" stop-color="white" stop-opacity="0.09"/>
<stop offset="0.36" stop-color="white" stop-opacity="0.2"/>
<stop offset="0.52" stop-color="white" stop-opacity="0.36"/>
<stop offset="0.69" stop-color="white" stop-opacity="0.56"/>
<stop offset="0.87" stop-color="white" stop-opacity="0.8"/>
<stop offset="1" stop-color="white"/>
</linearGradient>
<linearGradient id="paint15_linear_950_22890" x1="27.7933" y1="26.744" x2="29.0462" y2="28.2057" gradientUnits="userSpaceOnUse">
<stop stop-color="#F89580" stop-opacity="0"/>
<stop offset="0.1" stop-color="#F5937E" stop-opacity="0.05"/>
<stop offset="0.27" stop-color="#EE8E79" stop-opacity="0.18"/>
<stop offset="0.49" stop-color="#E38671" stop-opacity="0.39"/>
<stop offset="0.75" stop-color="#D57C65" stop-opacity="0.69"/>
<stop offset="1" stop-color="#C5715A"/>
</linearGradient>
<linearGradient id="paint16_linear_950_22890" x1="24.4577" y1="24.6827" x2="22.9608" y2="24.1614" gradientUnits="userSpaceOnUse">
<stop stop-color="white" stop-opacity="0"/>
<stop offset="0.09" stop-color="white" stop-opacity="0.02"/>
<stop offset="0.22" stop-color="white" stop-opacity="0.09"/>
<stop offset="0.36" stop-color="white" stop-opacity="0.2"/>
<stop offset="0.52" stop-color="white" stop-opacity="0.36"/>
<stop offset="0.69" stop-color="white" stop-opacity="0.56"/>
<stop offset="0.87" stop-color="white" stop-opacity="0.8"/>
<stop offset="1" stop-color="white"/>
</linearGradient>
<linearGradient id="paint17_linear_950_22890" x1="25.2687" y1="23.9039" x2="26.2785" y2="25.3998" gradientUnits="userSpaceOnUse">
<stop stop-color="#F89580" stop-opacity="0"/>
<stop offset="0.1" stop-color="#F5937E" stop-opacity="0.05"/>
<stop offset="0.27" stop-color="#EE8E79" stop-opacity="0.18"/>
<stop offset="0.49" stop-color="#E38671" stop-opacity="0.39"/>
<stop offset="0.75" stop-color="#D57C65" stop-opacity="0.69"/>
<stop offset="1" stop-color="#C5715A"/>
</linearGradient>
<linearGradient id="paint18_linear_950_22890" x1="22.1059" y1="21.8085" x2="19.7743" y2="21.1818" gradientUnits="userSpaceOnUse">
<stop stop-color="white" stop-opacity="0"/>
<stop offset="0.09" stop-color="white" stop-opacity="0.02"/>
<stop offset="0.22" stop-color="white" stop-opacity="0.09"/>
<stop offset="0.36" stop-color="white" stop-opacity="0.2"/>
<stop offset="0.52" stop-color="white" stop-opacity="0.36"/>
<stop offset="0.69" stop-color="white" stop-opacity="0.56"/>
<stop offset="0.87" stop-color="white" stop-opacity="0.8"/>
<stop offset="1" stop-color="white"/>
</linearGradient>
<linearGradient id="paint19_linear_950_22890" x1="38.1574" y1="4.70284" x2="50.0957" y2="11.3952" gradientUnits="userSpaceOnUse">
<stop stop-color="#FEE45A"/>
<stop offset="1" stop-color="#FEA613"/>
</linearGradient>
<linearGradient id="paint20_linear_950_22890" x1="46.2845" y1="9.21485" x2="49.9733" y2="9.21485" gradientUnits="userSpaceOnUse">
<stop stop-color="#FE9738" stop-opacity="0"/>
<stop offset="0.1" stop-color="#FE9738" stop-opacity="0.02"/>
<stop offset="0.23" stop-color="#FE9738" stop-opacity="0.08"/>
<stop offset="0.36" stop-color="#FE9738" stop-opacity="0.17"/>
<stop offset="0.5" stop-color="#FE9738" stop-opacity="0.31"/>
<stop offset="0.65" stop-color="#FE9738" stop-opacity="0.48"/>
<stop offset="0.81" stop-color="#FE9738" stop-opacity="0.69"/>
<stop offset="0.96" stop-color="#FE9738" stop-opacity="0.94"/>
<stop offset="1" stop-color="#FE9738"/>
</linearGradient>
<linearGradient id="paint21_linear_950_22890" x1="42.4169" y1="8.75596" x2="40.745" y2="10.4275" gradientUnits="userSpaceOnUse">
<stop stop-color="#FE9738" stop-opacity="0"/>
<stop offset="0.1" stop-color="#FE9738" stop-opacity="0.02"/>
<stop offset="0.23" stop-color="#FE9738" stop-opacity="0.08"/>
<stop offset="0.36" stop-color="#FE9738" stop-opacity="0.17"/>
<stop offset="0.5" stop-color="#FE9738" stop-opacity="0.31"/>
<stop offset="0.65" stop-color="#FE9738" stop-opacity="0.48"/>
<stop offset="0.81" stop-color="#FE9738" stop-opacity="0.69"/>
<stop offset="0.96" stop-color="#FE9738" stop-opacity="0.94"/>
<stop offset="1" stop-color="#FE9738"/>
</linearGradient>
<linearGradient id="paint22_linear_950_22890" x1="40.835" y1="10.3454" x2="37.5342" y2="13.6456" gradientUnits="userSpaceOnUse">
<stop stop-color="#EAF6FF"/>
<stop offset="1" stop-color="#B4D2E2"/>
</linearGradient>
<linearGradient id="paint23_linear_950_22890" x1="38.903" y1="12.2791" x2="37.2604" y2="13.9204" gradientUnits="userSpaceOnUse">
<stop stop-color="#3692BC" stop-opacity="0"/>
<stop offset="0.12" stop-color="#3692BC" stop-opacity="0.03"/>
<stop offset="0.27" stop-color="#3692BC" stop-opacity="0.1"/>
<stop offset="0.43" stop-color="#3692BC" stop-opacity="0.23"/>
<stop offset="0.6" stop-color="#3692BC" stop-opacity="0.41"/>
<stop offset="0.77" stop-color="#3692BC" stop-opacity="0.64"/>
<stop offset="0.95" stop-color="#3692BC" stop-opacity="0.92"/>
<stop offset="1" stop-color="#3692BC"/>
</linearGradient>
<linearGradient id="paint24_linear_950_22890" x1="43.3949" y1="16.0668" x2="45.4799" y2="18.1504" gradientUnits="userSpaceOnUse">
<stop stop-color="#3692BC" stop-opacity="0"/>
<stop offset="0.12" stop-color="#3692BC" stop-opacity="0.03"/>
<stop offset="0.27" stop-color="#3692BC" stop-opacity="0.1"/>
<stop offset="0.43" stop-color="#3692BC" stop-opacity="0.23"/>
<stop offset="0.6" stop-color="#3692BC" stop-opacity="0.41"/>
<stop offset="0.77" stop-color="#3692BC" stop-opacity="0.64"/>
<stop offset="0.95" stop-color="#3692BC" stop-opacity="0.92"/>
<stop offset="1" stop-color="#3692BC"/>
</linearGradient>
<linearGradient id="paint25_linear_950_22890" x1="11.5949" y1="25.569" x2="20.1582" y2="40.5352" gradientUnits="userSpaceOnUse">
<stop stop-color="#FFDFCF"/>
<stop offset="1" stop-color="#FFA78F"/>
</linearGradient>
<linearGradient id="paint26_linear_950_22890" x1="18.3738" y1="35.8469" x2="21.6453" y2="39.8844" gradientUnits="userSpaceOnUse">
<stop stop-color="#F89580" stop-opacity="0"/>
<stop offset="0.1" stop-color="#F5937E" stop-opacity="0.05"/>
<stop offset="0.27" stop-color="#EE8E79" stop-opacity="0.18"/>
<stop offset="0.49" stop-color="#E38671" stop-opacity="0.39"/>
<stop offset="0.75" stop-color="#D57C65" stop-opacity="0.69"/>
<stop offset="1" stop-color="#C5715A"/>
</linearGradient>
<linearGradient id="paint27_linear_950_22890" x1="18.5146" y1="35.8689" x2="22.9348" y2="34.1986" gradientUnits="userSpaceOnUse">
<stop stop-color="#F89580" stop-opacity="0"/>
<stop offset="0.1" stop-color="#F5937E" stop-opacity="0.05"/>
<stop offset="0.27" stop-color="#EE8E79" stop-opacity="0.18"/>
<stop offset="0.49" stop-color="#E38671" stop-opacity="0.39"/>
<stop offset="0.75" stop-color="#D57C65" stop-opacity="0.69"/>
<stop offset="1" stop-color="#C5715A"/>
</linearGradient>
<linearGradient id="paint28_linear_950_22890" x1="13.4104" y1="34.0853" x2="10.9729" y2="36.5223" gradientUnits="userSpaceOnUse">
<stop stop-color="#F89580" stop-opacity="0"/>
<stop offset="0.1" stop-color="#F5937E" stop-opacity="0.05"/>
<stop offset="0.27" stop-color="#EE8E79" stop-opacity="0.18"/>
<stop offset="0.49" stop-color="#E38671" stop-opacity="0.39"/>
<stop offset="0.75" stop-color="#D57C65" stop-opacity="0.69"/>
<stop offset="1" stop-color="#C5715A"/>
</linearGradient>
<linearGradient id="paint29_linear_950_22890" x1="27.1313" y1="30.9584" x2="26.0521" y2="28.3824" gradientUnits="userSpaceOnUse">
<stop stop-color="#F89580" stop-opacity="0"/>
<stop offset="0.1" stop-color="#F5937E" stop-opacity="0.05"/>
<stop offset="0.27" stop-color="#EE8E79" stop-opacity="0.18"/>
<stop offset="0.49" stop-color="#E38671" stop-opacity="0.39"/>
<stop offset="0.75" stop-color="#D57C65" stop-opacity="0.69"/>
<stop offset="1" stop-color="#C5715A"/>
</linearGradient>
<linearGradient id="paint30_linear_950_22890" x1="11.9091" y1="25.7136" x2="14.4673" y2="25.7647" gradientUnits="userSpaceOnUse">
<stop stop-color="#F89580" stop-opacity="0"/>
<stop offset="0.1" stop-color="#F5937E" stop-opacity="0.05"/>
<stop offset="0.27" stop-color="#EE8E79" stop-opacity="0.18"/>
<stop offset="0.49" stop-color="#E38671" stop-opacity="0.39"/>
<stop offset="0.75" stop-color="#D57C65" stop-opacity="0.69"/>
<stop offset="1" stop-color="#C5715A"/>
</linearGradient>
<linearGradient id="paint31_linear_950_22890" x1="11.9803" y1="23.4722" x2="13.7558" y2="21.4188" gradientUnits="userSpaceOnUse">
<stop stop-color="white" stop-opacity="0"/>
<stop offset="0.09" stop-color="white" stop-opacity="0.02"/>
<stop offset="0.22" stop-color="white" stop-opacity="0.09"/>
<stop offset="0.36" stop-color="white" stop-opacity="0.2"/>
<stop offset="0.52" stop-color="white" stop-opacity="0.36"/>
<stop offset="0.69" stop-color="white" stop-opacity="0.56"/>
<stop offset="0.87" stop-color="white" stop-opacity="0.8"/>
<stop offset="1" stop-color="white"/>
</linearGradient>
<linearGradient id="paint32_linear_950_22890" x1="19.7426" y1="22.5484" x2="21.6458" y2="23.9397" gradientUnits="userSpaceOnUse">
<stop stop-color="#F89580" stop-opacity="0"/>
<stop offset="0.1" stop-color="#F5937E" stop-opacity="0.05"/>
<stop offset="0.27" stop-color="#EE8E79" stop-opacity="0.18"/>
<stop offset="0.49" stop-color="#E38671" stop-opacity="0.39"/>
<stop offset="0.75" stop-color="#D57C65" stop-opacity="0.69"/>
<stop offset="1" stop-color="#C5715A"/>
</linearGradient>
<linearGradient id="paint33_linear_950_22890" x1="18.787" y1="21.2795" x2="17.5799" y2="19.4233" gradientUnits="userSpaceOnUse">
<stop stop-color="white" stop-opacity="0"/>
<stop offset="0.09" stop-color="white" stop-opacity="0.02"/>
<stop offset="0.22" stop-color="white" stop-opacity="0.09"/>
<stop offset="0.36" stop-color="white" stop-opacity="0.2"/>
<stop offset="0.52" stop-color="white" stop-opacity="0.36"/>
<stop offset="0.69" stop-color="white" stop-opacity="0.56"/>
<stop offset="0.87" stop-color="white" stop-opacity="0.8"/>
<stop offset="1" stop-color="white"/>
</linearGradient>
<linearGradient id="paint34_linear_950_22890" x1="18.4258" y1="20.4038" x2="24.1963" y2="26.1732" gradientUnits="userSpaceOnUse">
<stop stop-color="#F89580" stop-opacity="0"/>
<stop offset="0.1" stop-color="#F5937E" stop-opacity="0.05"/>
<stop offset="0.27" stop-color="#EE8E79" stop-opacity="0.18"/>
<stop offset="0.49" stop-color="#E38671" stop-opacity="0.39"/>
<stop offset="0.75" stop-color="#D57C65" stop-opacity="0.69"/>
<stop offset="1" stop-color="#C5715A"/>
</linearGradient>
<linearGradient id="paint35_linear_950_22890" x1="3.13298" y1="38.4405" x2="9.88644" y2="48.7079" gradientUnits="userSpaceOnUse">
<stop stop-color="#FE646F"/>
<stop offset="1" stop-color="#E41F2D"/>
</linearGradient>
<linearGradient id="paint36_linear_950_22890" x1="7.11141" y1="48.3242" x2="7.11141" y2="50.9033" gradientUnits="userSpaceOnUse">
<stop stop-color="#A72B2B" stop-opacity="0"/>
<stop offset="0.12" stop-color="#A72B2B" stop-opacity="0.04"/>
<stop offset="0.29" stop-color="#A72B2B" stop-opacity="0.15"/>
<stop offset="0.48" stop-color="#A72B2B" stop-opacity="0.33"/>
<stop offset="0.7" stop-color="#A72B2B" stop-opacity="0.59"/>
<stop offset="0.94" stop-color="#A72B2B" stop-opacity="0.91"/>
<stop offset="1" stop-color="#A72B2B"/>
</linearGradient>
<linearGradient id="paint37_linear_950_22890" x1="7.5711" y1="42.2425" x2="9.24395" y2="40.57" gradientUnits="userSpaceOnUse">
<stop stop-color="#A72B2B" stop-opacity="0"/>
<stop offset="0.12" stop-color="#A72B2B" stop-opacity="0.04"/>
<stop offset="0.29" stop-color="#A72B2B" stop-opacity="0.15"/>
<stop offset="0.48" stop-color="#A72B2B" stop-opacity="0.33"/>
<stop offset="0.7" stop-color="#A72B2B" stop-opacity="0.59"/>
<stop offset="0.94" stop-color="#A72B2B" stop-opacity="0.91"/>
<stop offset="1" stop-color="#A72B2B"/>
</linearGradient>
<linearGradient id="paint38_linear_950_22890" x1="9.05857" y1="46.5036" x2="11.2881" y2="48.7317" gradientUnits="userSpaceOnUse">
<stop stop-color="#A72B2B" stop-opacity="0"/>
<stop offset="0.12" stop-color="#A72B2B" stop-opacity="0.04"/>
<stop offset="0.29" stop-color="#A72B2B" stop-opacity="0.15"/>
<stop offset="0.48" stop-color="#A72B2B" stop-opacity="0.33"/>
<stop offset="0.7" stop-color="#A72B2B" stop-opacity="0.59"/>
<stop offset="0.94" stop-color="#A72B2B" stop-opacity="0.91"/>
<stop offset="1" stop-color="#A72B2B"/>
</linearGradient>
<linearGradient id="paint39_linear_950_22890" x1="12.319" y1="37.4907" x2="9.0182" y2="40.7909" gradientUnits="userSpaceOnUse">
<stop stop-color="#EAF6FF"/>
<stop offset="1" stop-color="#B4D2E2"/>
</linearGradient>
<linearGradient id="paint40_linear_950_22890" x1="10.3851" y1="39.4255" x2="8.74347" y2="41.0668" gradientUnits="userSpaceOnUse">
<stop stop-color="#3692BC" stop-opacity="0"/>
<stop offset="0.12" stop-color="#3692BC" stop-opacity="0.03"/>
<stop offset="0.27" stop-color="#3692BC" stop-opacity="0.1"/>
<stop offset="0.43" stop-color="#3692BC" stop-opacity="0.23"/>
<stop offset="0.6" stop-color="#3692BC" stop-opacity="0.41"/>
<stop offset="0.77" stop-color="#3692BC" stop-opacity="0.64"/>
<stop offset="0.95" stop-color="#3692BC" stop-opacity="0.92"/>
<stop offset="1" stop-color="#3692BC"/>
</linearGradient>
<linearGradient id="paint41_linear_950_22890" x1="14.8777" y1="43.2158" x2="16.9617" y2="45.2994" gradientUnits="userSpaceOnUse">
<stop stop-color="#3692BC" stop-opacity="0"/>
<stop offset="0.12" stop-color="#3692BC" stop-opacity="0.03"/>
<stop offset="0.27" stop-color="#3692BC" stop-opacity="0.1"/>
<stop offset="0.43" stop-color="#3692BC" stop-opacity="0.23"/>
<stop offset="0.6" stop-color="#3692BC" stop-opacity="0.41"/>
<stop offset="0.77" stop-color="#3692BC" stop-opacity="0.64"/>
<stop offset="0.95" stop-color="#3692BC" stop-opacity="0.92"/>
<stop offset="1" stop-color="#3692BC"/>
</linearGradient>
<linearGradient id="paint42_linear_950_22890" x1="36.066" y1="24.6365" x2="29.7995" y2="42.9685" gradientUnits="userSpaceOnUse">
<stop stop-color="#FFDFCF"/>
<stop offset="1" stop-color="#FFA78F"/>
</linearGradient>
<linearGradient id="paint43_linear_950_22890" x1="33.5773" y1="37.0894" x2="36.0147" y2="39.5264" gradientUnits="userSpaceOnUse">
<stop stop-color="#F89580" stop-opacity="0"/>
<stop offset="0.1" stop-color="#F5937E" stop-opacity="0.05"/>
<stop offset="0.27" stop-color="#EE8E79" stop-opacity="0.18"/>
<stop offset="0.49" stop-color="#E38671" stop-opacity="0.39"/>
<stop offset="0.75" stop-color="#D57C65" stop-opacity="0.69"/>
<stop offset="1" stop-color="#C5715A"/>
</linearGradient>
<linearGradient id="paint44_linear_950_22890" x1="30.451" y1="23.367" x2="27.8762" y2="24.4458" gradientUnits="userSpaceOnUse">
<stop stop-color="#F89580" stop-opacity="0"/>
<stop offset="0.1" stop-color="#F5937E" stop-opacity="0.05"/>
<stop offset="0.27" stop-color="#EE8E79" stop-opacity="0.18"/>
<stop offset="0.49" stop-color="#E38671" stop-opacity="0.39"/>
<stop offset="0.75" stop-color="#D57C65" stop-opacity="0.69"/>
<stop offset="1" stop-color="#C5715A"/>
</linearGradient>
<linearGradient id="paint45_linear_950_22890" x1="32.2063" y1="20.6885" x2="32.6244" y2="18.0772" gradientUnits="userSpaceOnUse">
<stop stop-color="white" stop-opacity="0"/>
<stop offset="0.09" stop-color="white" stop-opacity="0.02"/>
<stop offset="0.22" stop-color="white" stop-opacity="0.09"/>
<stop offset="0.36" stop-color="white" stop-opacity="0.2"/>
<stop offset="0.52" stop-color="white" stop-opacity="0.36"/>
<stop offset="0.69" stop-color="white" stop-opacity="0.56"/>
<stop offset="0.87" stop-color="white" stop-opacity="0.8"/>
<stop offset="1" stop-color="white"/>
</linearGradient>
<linearGradient id="paint46_linear_950_22890" x1="25.2338" y1="38.5875" x2="25.2849" y2="36.0288" gradientUnits="userSpaceOnUse">
<stop stop-color="#F89580" stop-opacity="0"/>
<stop offset="0.1" stop-color="#F5937E" stop-opacity="0.05"/>
<stop offset="0.27" stop-color="#EE8E79" stop-opacity="0.18"/>
<stop offset="0.49" stop-color="#E38671" stop-opacity="0.39"/>
<stop offset="0.75" stop-color="#D57C65" stop-opacity="0.69"/>
<stop offset="1" stop-color="#C5715A"/>
</linearGradient>
<linearGradient id="paint47_linear_950_22890" x1="22.9683" y1="38.5215" x2="20.9146" y2="36.7465" gradientUnits="userSpaceOnUse">
<stop stop-color="white" stop-opacity="0"/>
<stop offset="0.09" stop-color="white" stop-opacity="0.02"/>
<stop offset="0.22" stop-color="white" stop-opacity="0.09"/>
<stop offset="0.36" stop-color="white" stop-opacity="0.2"/>
<stop offset="0.52" stop-color="white" stop-opacity="0.36"/>
<stop offset="0.69" stop-color="white" stop-opacity="0.56"/>
<stop offset="0.87" stop-color="white" stop-opacity="0.8"/>
<stop offset="1" stop-color="white"/>
</linearGradient>
<linearGradient id="paint48_linear_950_22890" x1="20.8581" y1="31.7227" x2="19.3269" y2="33.0105" gradientUnits="userSpaceOnUse">
<stop stop-color="#F89580" stop-opacity="0"/>
<stop offset="0.1" stop-color="#F5937E" stop-opacity="0.05"/>
<stop offset="0.27" stop-color="#EE8E79" stop-opacity="0.18"/>
<stop offset="0.49" stop-color="#E38671" stop-opacity="0.39"/>
<stop offset="0.75" stop-color="#D57C65" stop-opacity="0.69"/>
<stop offset="1" stop-color="#C5715A"/>
</linearGradient>
<linearGradient id="paint49_linear_950_22890" x1="22.5197" y1="29.7401" x2="23.3558" y2="26.6767" gradientUnits="userSpaceOnUse">
<stop stop-color="white" stop-opacity="0"/>
<stop offset="0.09" stop-color="white" stop-opacity="0.02"/>
<stop offset="0.22" stop-color="white" stop-opacity="0.09"/>
<stop offset="0.36" stop-color="white" stop-opacity="0.2"/>
<stop offset="0.52" stop-color="white" stop-opacity="0.36"/>
<stop offset="0.69" stop-color="white" stop-opacity="0.56"/>
<stop offset="0.87" stop-color="white" stop-opacity="0.8"/>
<stop offset="1" stop-color="white"/>
</linearGradient>
<linearGradient id="paint50_linear_950_22890" x1="23.751" y1="28.3022" x2="22.2891" y2="29.5549" gradientUnits="userSpaceOnUse">
<stop stop-color="#F89580" stop-opacity="0"/>
<stop offset="0.1" stop-color="#F5937E" stop-opacity="0.05"/>
<stop offset="0.27" stop-color="#EE8E79" stop-opacity="0.18"/>
<stop offset="0.49" stop-color="#E38671" stop-opacity="0.39"/>
<stop offset="0.75" stop-color="#D57C65" stop-opacity="0.69"/>
<stop offset="1" stop-color="#C5715A"/>
</linearGradient>
<linearGradient id="paint51_linear_950_22890" x1="25.8136" y1="24.9667" x2="26.3361" y2="23.4706" gradientUnits="userSpaceOnUse">
<stop stop-color="white" stop-opacity="0"/>
<stop offset="0.09" stop-color="white" stop-opacity="0.02"/>
<stop offset="0.22" stop-color="white" stop-opacity="0.09"/>
<stop offset="0.36" stop-color="white" stop-opacity="0.2"/>
<stop offset="0.52" stop-color="white" stop-opacity="0.36"/>
<stop offset="0.69" stop-color="white" stop-opacity="0.56"/>
<stop offset="0.87" stop-color="white" stop-opacity="0.8"/>
<stop offset="1" stop-color="white"/>
</linearGradient>
<linearGradient id="paint52_linear_950_22890" x1="26.5891" y1="25.7751" x2="25.0921" y2="26.7836" gradientUnits="userSpaceOnUse">
<stop stop-color="#F89580" stop-opacity="0"/>
<stop offset="0.1" stop-color="#F5937E" stop-opacity="0.05"/>
<stop offset="0.27" stop-color="#EE8E79" stop-opacity="0.18"/>
<stop offset="0.49" stop-color="#E38671" stop-opacity="0.39"/>
<stop offset="0.75" stop-color="#D57C65" stop-opacity="0.69"/>
<stop offset="1" stop-color="#C5715A"/>
</linearGradient>
<linearGradient id="paint53_linear_950_22890" x1="28.6835" y1="22.6119" x2="29.3096" y2="20.28" gradientUnits="userSpaceOnUse">
<stop stop-color="white" stop-opacity="0"/>
<stop offset="0.09" stop-color="white" stop-opacity="0.02"/>
<stop offset="0.22" stop-color="white" stop-opacity="0.09"/>
<stop offset="0.36" stop-color="white" stop-opacity="0.2"/>
<stop offset="0.52" stop-color="white" stop-opacity="0.36"/>
<stop offset="0.69" stop-color="white" stop-opacity="0.56"/>
<stop offset="0.87" stop-color="white" stop-opacity="0.8"/>
<stop offset="1" stop-color="white"/>
</linearGradient>
<linearGradient id="paint54_linear_950_22890" x1="45.7882" y1="38.663" x2="39.0922" y2="50.6023" gradientUnits="userSpaceOnUse">
<stop stop-color="#B3DAFE"/>
<stop offset="1" stop-color="#0182FC"/>
</linearGradient>
<linearGradient id="paint55_linear_950_22890" x1="47.814" y1="43.3853" x2="50.3936" y2="43.3853" gradientUnits="userSpaceOnUse">
<stop stop-color="#0182FC" stop-opacity="0"/>
<stop offset="0.16" stop-color="#017EF2" stop-opacity="0.07"/>
<stop offset="0.4" stop-color="#0174D6" stop-opacity="0.25"/>
<stop offset="0.68" stop-color="#0163A8" stop-opacity="0.56"/>
<stop offset="0.99" stop-color="#014D69" stop-opacity="0.98"/>
<stop offset="1" stop-color="#024C67"/>
</linearGradient>
<linearGradient id="paint56_linear_950_22890" x1="41.2766" y1="46.7939" x2="41.2766" y2="50.4834" gradientUnits="userSpaceOnUse">
<stop stop-color="#0182FC" stop-opacity="0"/>
<stop offset="0.16" stop-color="#017EF2" stop-opacity="0.07"/>
<stop offset="0.4" stop-color="#0174D6" stop-opacity="0.25"/>
<stop offset="0.68" stop-color="#0163A8" stop-opacity="0.56"/>
<stop offset="0.99" stop-color="#014D69" stop-opacity="0.98"/>
<stop offset="1" stop-color="#024C67"/>
</linearGradient>
<linearGradient id="paint57_linear_950_22890" x1="41.7291" y1="42.9196" x2="40.0572" y2="41.2471" gradientUnits="userSpaceOnUse">
<stop stop-color="#0182FC" stop-opacity="0"/>
<stop offset="0.16" stop-color="#017EF2" stop-opacity="0.07"/>
<stop offset="0.4" stop-color="#0174D6" stop-opacity="0.25"/>
<stop offset="0.68" stop-color="#0163A8" stop-opacity="0.56"/>
<stop offset="0.99" stop-color="#014D69" stop-opacity="0.98"/>
<stop offset="1" stop-color="#024C67"/>
</linearGradient>
<linearGradient id="paint58_linear_950_22890" x1="36.9798" y1="38.1774" x2="40.2806" y2="41.4776" gradientUnits="userSpaceOnUse">
<stop stop-color="#EAF6FF"/>
<stop offset="1" stop-color="#B4D2E2"/>
</linearGradient>
<linearGradient id="paint59_linear_950_22890" x1="38.913" y1="40.1111" x2="40.5556" y2="41.7524" gradientUnits="userSpaceOnUse">
<stop stop-color="#3692BC" stop-opacity="0"/>
<stop offset="0.12" stop-color="#3692BC" stop-opacity="0.03"/>
<stop offset="0.27" stop-color="#3692BC" stop-opacity="0.1"/>
<stop offset="0.43" stop-color="#3692BC" stop-opacity="0.23"/>
<stop offset="0.6" stop-color="#3692BC" stop-opacity="0.41"/>
<stop offset="0.77" stop-color="#3692BC" stop-opacity="0.64"/>
<stop offset="0.95" stop-color="#3692BC" stop-opacity="0.92"/>
<stop offset="1" stop-color="#3692BC"/>
</linearGradient>
<linearGradient id="paint60_linear_950_22890" x1="34.4213" y1="43.8994" x2="32.3373" y2="45.983" gradientUnits="userSpaceOnUse">
<stop stop-color="#3692BC" stop-opacity="0"/>
<stop offset="0.12" stop-color="#3692BC" stop-opacity="0.03"/>
<stop offset="0.27" stop-color="#3692BC" stop-opacity="0.1"/>
<stop offset="0.43" stop-color="#3692BC" stop-opacity="0.23"/>
<stop offset="0.6" stop-color="#3692BC" stop-opacity="0.41"/>
<stop offset="0.77" stop-color="#3692BC" stop-opacity="0.64"/>
<stop offset="0.95" stop-color="#3692BC" stop-opacity="0.92"/>
<stop offset="1" stop-color="#3692BC"/>
</linearGradient>
</defs>
</svg>
