<svg width="16" height="16" viewBox="0 0 16 16" fill="none" xmlns="http://www.w3.org/2000/svg">
<path d="M2.75012 3.21053C3.37044 3.21053 3.87512 2.7147 3.87512 2.10526C3.87512 1.49582 3.37044 1 2.75012 1C2.1298 1 1.62512 1.49582 1.62512 2.10526C1.62512 2.7147 2.1298 3.21053 2.75012 3.21053ZM2.75012 1.26062C3.22417 1.26062 3.60985 1.63953 3.60985 2.10526C3.60985 2.57099 3.22417 2.9499 2.75012 2.9499C2.27607 2.9499 1.8904 2.57099 1.8904 2.10526C1.8904 1.63953 2.27607 1.26062 2.75012 1.26062Z" fill="#37352F" stroke="#37352F" stroke-width="0.5"/>
<path d="M3.99788 3.96389C3.86433 3.93155 3.71741 3.94715 3.59482 4.00668C3.33112 4.13473 3.04687 4.19967 2.75002 4.19967C2.45316 4.19967 2.16894 4.13473 1.90521 4.00668C1.78263 3.94717 1.6357 3.93157 1.50216 3.96391C0.912113 4.10671 0.5 4.59816 0.5 5.15901V6.21203C0.5 6.58848 0.833558 6.89474 1.24353 6.89474H4.25647C4.66646 6.89474 5 6.58848 5 6.21203V5.15899C5.00004 4.59814 4.58792 4.10669 3.99788 3.96389ZM4.71814 6.21202C4.71814 6.44574 4.51104 6.63589 4.25651 6.63589H1.24355C0.988996 6.63589 0.781915 6.44574 0.781915 6.21202V5.15899C0.781915 4.71557 1.10765 4.32704 1.57402 4.21416C1.59654 4.20871 1.61982 4.20603 1.64316 4.20603C1.68821 4.20603 1.73341 4.21604 1.77346 4.23547C2.0782 4.38345 2.40676 4.45848 2.75004 4.45848C3.09331 4.45848 3.42189 4.38345 3.72662 4.23547C3.7874 4.20596 3.86007 4.19818 3.92603 4.21416C4.3924 4.32704 4.71814 4.71557 4.71814 5.15899V6.21202Z" fill="#37352F" stroke="#37352F" stroke-width="0.5"/>
<path d="M13.25 3.21053C13.8703 3.21053 14.375 2.7147 14.375 2.10526C14.375 1.49582 13.8703 1 13.25 1C12.6297 1 12.125 1.49582 12.125 2.10526C12.125 2.7147 12.6297 3.21053 13.25 3.21053ZM13.25 1.26062C13.724 1.26062 14.1097 1.63953 14.1097 2.10526C14.1097 2.57099 13.724 2.9499 13.25 2.9499C12.776 2.9499 12.3903 2.57099 12.3903 2.10526C12.3903 1.63953 12.776 1.26062 13.25 1.26062Z" fill="#37352F" stroke="#37352F" stroke-width="0.5"/>
<path d="M14.498 3.96389C14.3645 3.93155 14.2175 3.94715 14.0949 4.00668C13.8312 4.13473 13.547 4.19967 13.2501 4.19967C12.9533 4.19967 12.6691 4.13473 12.4053 4.00668C12.2827 3.94717 12.1358 3.93157 12.0023 3.96391C11.4122 4.10671 11.0001 4.59816 11.0001 5.15901V6.21203C11.0001 6.58848 11.3337 6.89474 11.7437 6.89474H14.7566C15.1666 6.89474 15.5001 6.58848 15.5001 6.21203V5.15899C15.5002 4.59814 15.088 4.10669 14.498 3.96389ZM15.2183 6.21202C15.2183 6.44574 15.0112 6.63589 14.7566 6.63589H11.7437C11.4891 6.63589 11.282 6.44574 11.282 6.21202V5.15899C11.282 4.71557 11.6078 4.32704 12.0741 4.21416C12.0967 4.20871 12.1199 4.20603 12.1433 4.20603C12.1883 4.20603 12.2335 4.21604 12.2736 4.23547C12.5783 4.38345 12.9069 4.45848 13.2502 4.45848C13.5934 4.45848 13.922 4.38345 14.2267 4.23547C14.2875 4.20596 14.3602 4.19818 14.4262 4.21416C14.8925 4.32704 15.2183 4.71557 15.2183 5.15899V6.21202Z" fill="#37352F" stroke="#37352F" stroke-width="0.5"/>
<path d="M8 11.3158C8.62032 11.3158 9.125 10.82 9.125 10.2105C9.125 9.60108 8.62032 9.10526 8 9.10526C7.37968 9.10526 6.875 9.60108 6.875 10.2105C6.875 10.82 7.37968 11.3158 8 11.3158ZM8 9.36588C8.47405 9.36588 8.85972 9.74479 8.85972 10.2105C8.85972 10.6762 8.47405 11.0552 8 11.0552C7.52595 11.0552 7.14028 10.6762 7.14028 10.2105C7.14028 9.74479 7.52595 9.36588 8 9.36588Z" fill="#37352F" stroke="#37352F" stroke-width="0.5"/>
<path d="M9.248 12.0691C9.11446 12.0368 8.96753 12.0524 8.84495 12.1119C8.58124 12.24 8.297 12.3049 8.00014 12.3049C7.70329 12.3049 7.41906 12.24 7.15534 12.1119C7.03275 12.0524 6.88582 12.0368 6.75228 12.0692C6.16224 12.212 5.75012 12.7034 5.75012 13.2643V14.3173C5.75012 14.6937 6.08368 15 6.49365 15H9.50659C9.91658 15 10.2501 14.6937 10.2501 14.3173V13.2642C10.2502 12.7034 9.83805 12.2119 9.248 12.0691ZM9.96826 14.3173C9.96826 14.551 9.76116 14.7411 9.50663 14.7411H6.49367C6.23912 14.7411 6.03204 14.551 6.03204 14.3173V13.2642C6.03204 12.8208 6.35778 12.4323 6.82415 12.3194C6.84666 12.314 6.86994 12.3113 6.89329 12.3113C6.93833 12.3113 6.98353 12.3213 7.02358 12.3407C7.32833 12.4887 7.65689 12.5637 8.00016 12.5637C8.34343 12.5637 8.67201 12.4887 8.97674 12.3407C9.03752 12.3112 9.11019 12.3034 9.17615 12.3194C9.64252 12.4323 9.96826 12.8208 9.96826 13.2642V14.3173Z" fill="#37352F" stroke="#37352F" stroke-width="0.5"/>
<mask id="mask0_7107_8571" style="mask-type:alpha" maskUnits="userSpaceOnUse" x="11" y="7" width="3" height="8">
<rect x="11.0001" y="7.63159" width="2.25" height="6.63158" fill="#C4C4C4"/>
</mask>
<g mask="url(#mask0_7107_8571)">
<path d="M12.75 9.10527C12.75 11.6694 10.6317 13.7632 8 13.7632C5.36827 13.7632 3.25 11.6694 3.25 9.10527C3.25 6.54109 5.36827 4.44737 8 4.44737C10.6317 4.44737 12.75 6.54109 12.75 9.10527Z" stroke="#37352F"/>
</g>
<mask id="mask1_7107_8571" style="mask-type:alpha" maskUnits="userSpaceOnUse" x="2" y="7" width="3" height="7">
<rect x="2.75" y="7.63159" width="2.25" height="5.89474" fill="#C4C4C4"/>
</mask>
<g mask="url(#mask1_7107_8571)">
<path d="M12.75 9.10527C12.75 11.6694 10.6317 13.7632 8 13.7632C5.36827 13.7632 3.25 11.6694 3.25 9.10527C3.25 6.54109 5.36827 4.44737 8 4.44737C10.6317 4.44737 12.75 6.54109 12.75 9.10527Z" stroke="#37352F"/>
</g>
<mask id="mask2_7107_8571" style="mask-type:alpha" maskUnits="userSpaceOnUse" x="5" y="3" width="6" height="3">
<rect x="5.75012" y="3.21051" width="4.5" height="2.21053" fill="#C4C4C4"/>
</mask>
<g mask="url(#mask2_7107_8571)">
<path d="M12.75 9.10527C12.75 11.6694 10.6317 13.7632 8 13.7632C5.36827 13.7632 3.25 11.6694 3.25 9.10527C3.25 6.54109 5.36827 4.44737 8 4.44737C10.6317 4.44737 12.75 6.54109 12.75 9.10527Z" stroke="#37352F"/>
</g>
</svg>
