<svg viewBox="0 0 89 89" fill="none" xmlns="http://www.w3.org/2000/svg">
<path d="M0 28C0 12.536 12.536 0 28 0H61C76.464 0 89 12.536 89 28V61C89 76.464 76.464 89 61 89H28C12.536 89 0 76.464 0 61V28Z" fill="#FDF2FA"/>
<path d="M30 43.077C30 43.077 30.2906 40.4616 31.7436 39.8804C33.1966 39.2991 36.6838 39.2992 37.8462 39.8804C39.0086 40.4616 39.2992 43.077 39.2992 43.077" stroke="#C11574" stroke-width="2" stroke-linecap="round"/>
<circle cx="34.6504" cy="34.0684" r="3.06838" stroke="#C11574" stroke-width="2"/>
<path d="M50.7695 43.077C50.7695 43.077 51.0601 40.4616 52.5131 39.8804C53.9661 39.2991 57.4533 39.2992 58.6157 39.8804C59.7781 40.4616 60.0687 43.077 60.0687 43.077" stroke="#C11574" stroke-width="2" stroke-linecap="round"/>
<circle cx="55.4199" cy="34.0684" r="3.06838" stroke="#C11574" stroke-width="2"/>
<path d="M40 60C40 60 40.2906 57.3846 41.7436 56.8034C43.1966 56.2222 46.6838 56.2222 47.8462 56.8034C49.0086 57.3846 49.2992 60 49.2992 60" stroke="#C11574" stroke-width="2" stroke-linecap="round"/>
<circle cx="44.6504" cy="50.9915" r="3.06838" stroke="#C11574" stroke-width="2"/>
<path d="M55.0284 45.8192C54.6929 47.937 53.6956 49.8944 52.1794 51.4106" stroke="#C11574" stroke-width="2"/>
<path d="M37.8197 51.4106C36.3035 49.8944 35.3062 47.937 34.9707 45.8192" stroke="#C11574" stroke-width="2"/>
<path d="M41.8618 34.5739C43.9012 33.9112 46.0979 33.9113 48.1373 34.5739" stroke="#C11574" stroke-width="2"/>
</svg>
