<svg viewBox="0 0 100 100" fill="none" xmlns="http://www.w3.org/2000/svg">
<circle cx="50" cy="50" r="50" fill="#EFF4FF"/>
<path d="M59.8019 43.875H72.3188C73.5027 43.875 74.4615 44.8304 74.4615 46.0108V57.3923C74.4606 58.4251 74.2563 59.4476 73.8602 60.4014C73.4641 61.3553 72.8841 62.2218 72.1531 62.9514C71.4222 63.6811 70.5547 64.2596 69.6002 64.654C68.6456 65.0484 67.6228 65.2509 66.59 65.25H66.5554C65.5226 65.2509 64.4997 65.0484 63.5452 64.654C62.5907 64.2596 61.7232 63.6811 60.9922 62.9514C60.2613 62.2218 59.6812 61.3553 59.2851 60.4014C58.8891 59.4476 58.6847 58.4251 58.6838 57.3923V44.9965C58.6838 44.3769 59.1858 43.875 59.8019 43.875ZM68.2654 41.625C71.0623 41.625 73.3331 39.3577 73.3331 36.5642C73.3331 33.7673 71.0623 31.5 68.2619 31.5C65.4615 31.5 63.1908 33.7673 63.1908 36.5642C63.1908 39.3577 65.4615 41.625 68.2619 41.625H68.2654Z" fill="#5059C9"/>
<path d="M52.4842 41.625C53.4455 41.6264 54.3976 41.4383 55.2862 41.0716C56.1748 40.7049 56.9824 40.1667 57.6629 39.4878C58.3434 38.8089 58.8835 38.0026 59.2523 37.1149C59.6211 36.2272 59.8114 35.2755 59.8123 34.3142C59.8119 33.3524 59.6218 32.4001 59.253 31.5117C58.8841 30.6234 58.3438 29.8165 57.6629 29.1372C56.982 28.4579 56.1738 27.9194 55.2846 27.5527C54.3954 27.186 53.4426 26.9982 52.4808 27C51.5198 26.9991 50.5681 27.1875 49.6799 27.5544C48.7917 27.9213 47.9845 28.4596 47.3044 29.1384C46.6242 29.8173 46.0844 30.6235 45.7158 31.5109C45.3472 32.3984 45.1571 33.3498 45.1562 34.3108C45.1562 38.3504 48.4342 41.625 52.4808 41.625H52.4842ZM62.2527 43.875H41.5873C41.0269 43.8886 40.4949 44.1241 40.108 44.5298C39.7212 44.9354 39.5112 45.4781 39.5242 46.0385V59.0192C39.449 62.3837 40.7122 65.6405 43.0363 68.0744C45.3605 70.5082 48.5556 71.9201 51.92 72C55.285 71.921 58.481 70.5095 60.8059 68.0756C63.1308 65.6416 64.3945 62.3843 64.3192 59.0192V46.0385C64.3257 45.7607 64.2773 45.4844 64.1769 45.2253C64.0765 44.9663 63.9261 44.7295 63.7342 44.5286C63.5423 44.3277 63.3127 44.1665 63.0585 44.0544C62.8043 43.9423 62.5305 43.8813 62.2527 43.875Z" fill="#7B83EB"/>
<path opacity="0.1" d="M53.0485 43.875V62.0654C53.0457 62.6114 52.8274 63.1342 52.441 63.52C52.0546 63.9057 51.5314 64.1232 50.9854 64.125H40.5142C39.8591 62.5012 39.5218 60.7667 39.5208 59.0158V46.0385C39.5143 45.7609 39.5627 45.4847 39.6631 45.2259C39.7636 44.967 39.9141 44.7305 40.106 44.5298C40.298 44.3292 40.5276 44.1684 40.7818 44.0566C41.036 43.9449 41.3097 43.8843 41.5873 43.8785H53.045L53.0485 43.875Z" fill="black"/>
<path opacity="0.2" d="M51.92 43.875V63.1904C51.9154 63.7358 51.6965 64.2576 51.3105 64.643C50.9245 65.0283 50.4023 65.2464 49.8569 65.25H41.0473C40.658 64.536 40.3481 63.7815 40.1231 63C39.7293 61.7097 39.5287 60.3683 39.5277 59.0192V46.0316C39.5212 45.7542 39.5695 45.4784 39.6697 45.2197C39.7699 44.9611 39.9201 44.7247 40.1117 44.5241C40.3033 44.3235 40.5325 44.1627 40.7863 44.0507C41.0401 43.9387 41.3134 43.8778 41.5907 43.8716H51.9234L51.92 43.875Z" fill="black"/>
<path opacity="0.2" d="M51.92 43.875V60.9404C51.9154 61.4858 51.6965 62.0076 51.3105 62.393C50.9245 62.7783 50.4023 62.9964 49.8569 63H40.1231C39.7293 61.7097 39.5287 60.3683 39.5277 59.0192V46.0316C39.5212 45.7542 39.5695 45.4784 39.6697 45.2197C39.7699 44.9611 39.9201 44.7247 40.1117 44.5241C40.3033 44.3235 40.5325 44.1627 40.7863 44.0507C41.0401 43.9387 41.3134 43.8778 41.5907 43.8716H51.9234L51.92 43.875Z" fill="black"/>
<path opacity="0.2" d="M50.795 43.875V60.9404C50.7905 61.4858 50.5716 62.0076 50.1855 62.393C49.7995 62.7783 49.2774 62.9964 48.7319 63H40.1196C39.7259 61.7097 39.5253 60.3683 39.5243 59.0192V46.0316C39.5178 45.7542 39.5661 45.4784 39.6663 45.2197C39.7665 44.9611 39.9167 44.7247 40.1083 44.5241C40.2999 44.3235 40.5291 44.1627 40.7829 44.0507C41.0367 43.9387 41.31 43.8778 41.5873 43.8716L50.795 43.875Z" fill="black"/>
<path opacity="0.1" d="M53.0485 38.0596V41.6042C52.8581 41.6146 52.6781 41.625 52.4843 41.625C52.2939 41.625 52.1139 41.6146 51.92 41.6042C50.3741 41.4851 48.9059 40.8782 47.727 39.871C46.5481 38.8639 45.7195 37.5084 45.3604 36H50.9854C51.5308 36.0018 52.0535 36.2188 52.4398 36.6038C52.8261 36.9888 53.0448 37.5108 53.0485 38.0562V38.0596Z" fill="black"/>
<path opacity="0.2" d="M51.92 39.1846V41.6042C50.5752 41.5014 49.2849 41.029 48.1915 40.2392C47.0981 39.4494 46.2442 38.3729 45.7239 37.1285H49.8604C50.4052 37.1312 50.927 37.3486 51.3126 37.7335C51.6981 38.1184 51.9164 38.6398 51.92 39.1846Z" fill="black"/>
<path opacity="0.2" d="M51.92 39.1846V41.6042C50.5752 41.5014 49.2849 41.029 48.1915 40.2392C47.0981 39.4494 46.2442 38.3729 45.7239 37.1285H49.8604C50.4052 37.1312 50.927 37.3486 51.3126 37.7335C51.6981 38.1184 51.9164 38.6398 51.92 39.1846Z" fill="black"/>
<path opacity="0.2" d="M50.795 39.1846V41.4242C49.6704 41.1587 48.6247 40.6307 47.7433 39.8835C46.8619 39.1362 46.1699 38.191 45.7239 37.125H48.7354C49.2808 37.1277 49.8031 37.3456 50.1888 37.7313C50.5744 38.1169 50.7923 38.6392 50.795 39.1846Z" fill="black"/>
<path d="M28.0665 37.125H48.7285C49.8708 37.125 50.795 38.0492 50.795 39.1881V59.8119C50.795 60.0831 50.7415 60.3517 50.6376 60.6022C50.5337 60.8528 50.3814 61.0803 50.1895 61.272C49.9976 61.4636 49.7697 61.6155 49.519 61.719C49.2683 61.8224 48.9997 61.8755 48.7285 61.875H28.0631C27.7921 61.875 27.5239 61.8216 27.2736 61.718C27.0233 61.6143 26.7958 61.4623 26.6043 61.2707C26.4127 61.0792 26.2607 60.8517 26.157 60.6014C26.0534 60.3511 26 60.0829 26 59.8119V39.1881C26 38.0458 26.9242 37.125 28.0665 37.125Z" fill="url(#paint0_linear_696_22516)"/>
<path d="M43.8339 44.9758H39.7042V56.2015H37.0735V44.9758H32.9577V42.795H43.8304L43.8339 44.9758Z" fill="white"/>
<defs>
<linearGradient id="paint0_linear_696_22516" x1="30.3062" y1="35.5154" x2="46.4438" y2="63.5123" gradientUnits="userSpaceOnUse">
<stop stop-color="#5A62C3"/>
<stop offset="0.5" stop-color="#4D55BD"/>
<stop offset="1" stop-color="#3940AB"/>
</linearGradient>
</defs>
</svg>
