<svg width="65" height="65" viewBox="0 0 32 32" xmlns="http://www.w3.org/2000/svg"><g id="Layer_2" data-name="Layer 2"><path d="m20.97 27.758-2-8c-.006-.025-.024-.042-.031-.066a4 4 0 1 0 -5.878 0c-.007.024-.025.041-.031.066l-2 8a1 1 0 0 0 .728 1.212 1.017 1.017 0 0 0 .242.03 1 1 0 0 0 .969-.758l1.859-7.437a3.614 3.614 0 0 0 2.342 0l1.859 7.437a1 1 0 0 0 .971.758 1.017 1.017 0 0 0 .243-.03 1 1 0 0 0 .727-1.212zm-6.97-10.758a2 2 0 1 1 2 2 2 2 0 0 1 -2-2z" fill="#d64242"/><path d="m12.2 13.558-.923-3.892a1 1 0 0 0 -1.2-.742l-6.812 1.614a2 2 0 0 0 -1.486 2.408l.461 1.947a1.99 1.99 0 0 0 2.407 1.483l6.811-1.615a1 1 0 0 0 .742-1.203z" fill="#f4ae40"/><path d="m21.188 12.454-1.388-5.838a1 1 0 0 0 -1.2-.742l-8.756 2.076a1 1 0 0 0 -.742 1.2l1.384 5.839a1 1 0 0 0 .973.77.946.946 0 0 0 .23-.028l8.757-2.077a1 1 0 0 0 .742-1.2z" fill="#e57f25"/><path d="m29.945 10.376-1.383-5.837a2 2 0 0 0 -2.408-1.484l-6.811 1.614a2 2 0 0 0 -1.485 2.408l1.384 5.838a2.005 2.005 0 0 0 1.947 1.539 1.917 1.917 0 0 0 .461-.055l6.812-1.615a2 2 0 0 0 1.483-2.408z" fill="#f4ae40"/></g></svg>