<svg width="250" height="250" viewBox="0 0 250 250" fill="none" xmlns="http://www.w3.org/2000/svg">
<g clip-path="url(#clip0_3464_20839)">
<path d="M125 28C68.4167 28 28 73.6708 28 125.647C28 180.209 68.4167 222 125 222C181.583 222 222 180.209 222 125.647C222 73.6708 181.583 28 125 28ZM96.4658 55.8067H124.757V82.1583H153.696V105.277H124.757V147.472C124.757 160.243 130.982 165.821 140.358 165.821C143.753 165.821 148.28 164.851 152.564 163.234C155.636 171.317 161.052 178.592 166.872 184.412C158.248 189.497 148.429 192.203 138.418 192.253C113.198 192.253 96.4658 178.916 96.4658 149.573V55.8875V55.8067Z" fill="#F37440"/>
</g>
<defs>
<clipPath id="clip0_3464_20839">
<rect width="194" height="194" fill="white" transform="translate(28 28)"/>
</clipPath>
</defs>
</svg>
