<svg viewBox="0 0 89 89" fill="none" xmlns="http://www.w3.org/2000/svg">
<path d="M0 28C0 12.536 12.536 0 28 0H61C76.464 0 89 12.536 89 28V61C89 76.464 76.464 89 61 89H28C12.536 89 0 76.464 0 61V28Z" fill="#EFF8FF"/>
<g clip-path="url(#clip0_8604_31999)">
<path d="M34 31C33.2047 31 32.4412 31.3166 31.8789 31.8789C31.3166 32.4412 31 33.2047 31 34V53C31 54.5908 31.6329 56.1171 32.7578 57.2422C33.3149 57.7991 33.975 58.2415 34.7031 58.543C35.431 58.8444 36.212 59 37 59C38.5909 59 40.1172 58.367 41.2422 57.2422C42.3671 56.1171 43 54.5908 43 53V34C43 33.2047 42.6834 32.4412 42.1211 31.8789C41.5588 31.3166 40.7953 31 40 31H34ZM34 33H40C40.2656 33 40.5192 33.1051 40.707 33.293C40.8948 33.4808 41 33.7344 41 34V53C41 54.0612 40.5786 55.0776 39.8281 55.8281C39.0777 56.5785 38.0612 57 37 57C36.4748 57 35.9542 56.8963 35.4688 56.6953C34.9836 56.4944 34.5434 56.1996 34.1719 55.8281C33.4214 55.0776 33 54.0611 33 53V34C33 33.7344 33.1052 33.4808 33.293 33.293C33.4808 33.1052 33.7344 33 34 33Z" fill="#175CD3"/>
<path d="M50.41 32.3789C49.6178 32.3789 48.8585 32.6915 48.2967 33.25C48.2941 33.2513 48.2915 33.2526 48.2889 33.2539L41.2889 40.293C41.196 40.3864 41.1225 40.4973 41.0726 40.6192C41.0226 40.7412 40.9973 40.8718 40.998 41.0036C40.9988 41.1353 41.0255 41.2657 41.0768 41.3871C41.128 41.5085 41.2028 41.6185 41.2967 41.7109C41.4848 41.8979 41.7394 42.0025 42.0046 42.0018C42.2697 42.0011 42.5238 41.895 42.7108 41.707L49.7108 34.6641C49.8977 34.4815 50.1484 34.3789 50.41 34.3789C50.6746 34.3789 50.9257 34.4816 51.1131 34.668L55.3319 38.9062C55.5184 39.0938 55.6209 39.3447 55.6209 39.6094C55.6209 39.8741 55.5184 40.1288 55.3319 40.3164L39.8319 55.832C39.6444 56.0196 39.5391 56.2739 39.5391 56.5391C39.5391 56.8042 39.6444 57.0586 39.8319 57.2461C40.0194 57.4336 40.2737 57.5389 40.5389 57.5389C40.8041 57.5389 41.0584 57.4336 41.2459 57.2461L56.7459 41.7266C56.7473 41.7266 56.7486 41.7266 56.7499 41.7266C57.3086 41.1647 57.621 40.4015 57.621 39.6094C57.621 38.8173 57.3087 38.058 56.7499 37.4961L52.5272 33.2539C52.5259 33.2526 52.5246 33.2513 52.5233 33.25C51.9615 32.6913 51.2022 32.3789 50.41 32.3789Z" fill="#175CD3"/>
<path d="M49 47C48.7348 47 48.4804 47.1054 48.2929 47.2929C48.1054 47.4804 48 47.7348 48 48C48 48.2652 48.1054 48.5196 48.2929 48.7071C48.4804 48.8946 48.7348 49 49 49H56C56.2655 49 56.5194 49.1053 56.707 49.293C56.8949 49.4809 57 49.7345 57 50V56C57 56.2654 56.8947 56.5193 56.707 56.707C56.5193 56.8947 56.2654 57 56 57H37C36.7348 57 36.4804 57.1054 36.2929 57.2929C36.1054 57.4804 36 57.7348 36 58C36 58.2652 36.1054 58.5196 36.2929 58.7071C36.4804 58.8946 36.7348 59 37 59H56C56.7954 59 57.5588 58.6834 58.1211 58.1211C58.6834 57.5588 59 56.7954 59 56V50C59 49.2046 58.6832 48.4412 58.1211 47.8789C57.5587 47.3165 56.7953 47 56 47H49Z" fill="#175CD3"/>
<path d="M32 39C31.7348 39 31.4804 39.1054 31.2929 39.2929C31.1054 39.4804 31 39.7348 31 40C31 40.2652 31.1054 40.5196 31.2929 40.7071C31.4804 40.8946 31.7348 41 32 41H42C42.2652 41 42.5196 40.8946 42.7071 40.7071C42.8946 40.5196 43 40.2652 43 40C43 39.7348 42.8946 39.4804 42.7071 39.2929C42.5196 39.1054 42.2652 39 42 39H32Z" fill="#175CD3"/>
<path d="M32 47C31.7348 47 31.4804 47.1054 31.2929 47.2929C31.1054 47.4804 31 47.7348 31 48C31 48.2652 31.1054 48.5196 31.2929 48.7071C31.4804 48.8946 31.7348 49 32 49H42C42.2652 49 42.5196 48.8946 42.7071 48.7071C42.8946 48.5196 43 48.2652 43 48C43 47.7348 42.8946 47.4804 42.7071 47.2929C42.5196 47.1054 42.2652 47 42 47H32Z" fill="#175CD3"/>
</g>
<defs>
<clipPath id="clip0_8604_31999">
<rect width="28" height="28" fill="white" transform="translate(31 31)"/>
</clipPath>
</defs>
</svg>
