<svg viewBox="0 0 18 18" fill="none" xmlns="http://www.w3.org/2000/svg">
<path fill-rule="evenodd" clip-rule="evenodd" d="M11.616 15.8264C11.8864 16.06 11.8184 16.4936 11.48 16.6056C10.279 16.995 9.00291 17.095 7.7559 16.8974C6.50889 16.6997 5.32625 16.2101 4.30449 15.4684C3.28272 14.7268 2.45076 13.754 1.87648 12.6296C1.3022 11.5052 1.00188 10.261 1 8.9984C1 4.588 4.5896 0.998399 9 0.998399C13.4104 0.998399 17 4.588 17 8.9984C17 10.4144 16.6296 11.7464 15.9816 12.9024C15.9466 12.9629 15.898 13.0143 15.8396 13.0528C15.7813 13.0912 15.7148 13.1156 15.6454 13.1239C15.576 13.1322 15.5056 13.1242 15.4399 13.1006C15.3741 13.0771 15.3147 13.0385 15.2664 12.988C15.1104 12.832 15.084 12.588 15.1904 12.3944C15.7637 11.3544 16.0637 10.1859 16.0624 8.9984C16.0603 7.12598 15.3155 5.33086 13.9915 4.00687C12.6675 2.68287 10.8724 1.93812 9 1.936C7.12758 1.93812 5.33247 2.68287 4.00847 4.00687C2.68447 5.33086 1.93972 7.12598 1.9376 8.9984C1.93928 10.1077 2.20197 11.2011 2.70443 12.1901C3.20689 13.1791 3.93502 14.0361 4.82996 14.6916C5.72489 15.3471 6.76152 15.7829 7.85603 15.9636C8.95054 16.1443 10.0722 16.065 11.1304 15.732C11.2127 15.7049 11.3005 15.6993 11.3855 15.7159C11.4705 15.7324 11.5499 15.7705 11.616 15.8264Z" fill="#292929" stroke="#292929" stroke-width="0.1"/>
<path fill-rule="evenodd" clip-rule="evenodd" d="M5.5 7.99609C5.5 7.71995 5.72386 7.49609 6 7.49609H13C13.2761 7.49609 13.5 7.71995 13.5 7.99609C13.5 8.27224 13.2761 8.49609 13 8.49609H6C5.72386 8.49609 5.5 8.27224 5.5 7.99609ZM5.5 10.9961C5.5 10.72 5.72386 10.4961 6 10.4961H11.5C11.7761 10.4961 12 10.72 12 10.9961C12 11.2722 11.7761 11.4961 11.5 11.4961H6C5.72386 11.4961 5.5 11.2722 5.5 10.9961Z" fill="#292929"/>
<path d="M11.5 15.9961L16.0039 16.5L15.5 12.4961" stroke="#292929" stroke-linecap="round"/>
</svg>
