<svg viewBox="0 0 16 16" fill="none" xmlns="http://www.w3.org/2000/svg">
<path d="M13.9665 5.38606L9.67947 5.38606L10.6215 2.94351C10.7538 2.60209 10.7863 2.22789 10.7151 1.86744C10.6439 1.50699 10.4721 1.1762 10.221 0.91621C10.0805 0.770291 9.91094 0.657893 9.72424 0.586847C9.53754 0.515802 9.33815 0.487817 9.13995 0.504844C8.94176 0.52187 8.74953 0.583497 8.57665 0.685432C8.40377 0.787367 8.25441 0.927158 8.13897 1.09507L5.64672 4.71185C5.27544 5.25174 4.86152 5.75869 4.40922 6.22746L4.09347 6.55485C3.92082 6.14611 3.61781 5.81139 3.2353 5.60688C2.8528 5.40237 2.41408 5.34052 1.9928 5.43171C1.57151 5.5229 1.19331 5.76158 0.921665 6.10769C0.650024 6.4538 0.501483 6.88626 0.500977 7.33248L0.500977 13.5536C0.501483 13.9998 0.650024 14.4323 0.921665 14.7784C1.19331 15.1245 1.57151 15.3632 1.9928 15.4543C2.41408 15.5455 2.8528 15.4837 3.2353 15.2792C3.61781 15.0747 3.92082 14.74 4.09347 14.3312L4.50522 14.7589C4.73135 14.9944 5.0002 15.1811 5.29626 15.3083C5.59233 15.4355 5.90975 15.5006 6.23022 15.5L11.091 15.5C11.4718 15.5 11.8446 15.3856 12.164 15.1706C12.4835 14.9556 12.736 14.6492 12.891 14.2884L15.276 8.7229C15.4252 8.37209 15.5019 7.99274 15.501 7.60932V6.97866C15.5008 6.55661 15.3391 6.15188 15.0514 5.8533C14.7637 5.55472 14.3735 5.38668 13.9665 5.38606ZM2.37598 14.7177C2.07761 14.7177 1.79146 14.5948 1.58048 14.376C1.3695 14.1573 1.25098 13.8606 1.25098 13.5512L1.25098 7.33015C1.25098 7.02079 1.3695 6.7241 1.58048 6.50534C1.79146 6.28659 2.07761 6.1637 2.37598 6.1637C2.67434 6.1637 2.96049 6.28659 3.17147 6.50534C3.38245 6.7241 3.50098 7.02079 3.50098 7.33015L3.50098 13.5512C3.50098 13.8606 3.38245 14.1573 3.17147 14.376C2.96049 14.5948 2.67434 14.7177 2.37598 14.7177ZM14.751 7.60932C14.7514 7.88476 14.6957 8.15718 14.5875 8.40873L12.201 13.9681C12.1052 14.1912 11.9491 14.3808 11.7516 14.5139C11.5541 14.6469 11.3235 14.7177 11.088 14.7177L6.23247 14.7177C6.0096 14.7186 5.78876 14.6737 5.58277 14.5854C5.37678 14.4972 5.18973 14.3674 5.03247 14.2037L4.25097 13.3903L4.25097 7.49112L4.93947 6.77725C5.42114 6.278 5.86214 5.7383 6.25797 5.16366L8.75097 1.54765C8.80273 1.47191 8.86982 1.4088 8.94755 1.36273C9.02527 1.31666 9.11176 1.28874 9.20097 1.28092C9.29059 1.2735 9.38069 1.28627 9.46509 1.31835C9.5495 1.35043 9.62621 1.40106 9.68997 1.46678C9.83709 1.6192 9.93777 1.81308 9.9795 2.02433C10.0212 2.23558 10.0022 2.45488 9.92472 2.655L8.77722 5.63102C8.75458 5.68997 8.74619 5.75378 8.7528 5.81686C8.75941 5.87995 8.78081 5.9404 8.81513 5.99294C8.84946 6.04548 8.89566 6.08851 8.94971 6.11827C9.00376 6.14804 9.06402 6.16363 9.12522 6.1637L13.9657 6.1637C14.1739 6.1637 14.3735 6.24937 14.5207 6.40189C14.668 6.55441 14.7508 6.7613 14.751 6.9771V7.60932Z" fill="currentColor" stroke="currentColor" stroke-width="0.25"/>
</svg>
