<svg viewBox="0 0 40 40" fill="none" xmlns="http://www.w3.org/2000/svg">
<path d="M5 18.3438H12.5662V33.4762H6C5.44772 33.4762 5 33.0285 5 32.4762V18.3438Z" fill="#48CA9E" fill-opacity="0.4"/>
<path d="M12.819 34.819H8.28697C7.48566 34.819 6.71717 34.5154 6.15056 33.9749C5.58394 33.4344 5.26562 32.7013 5.26562 31.9371V21.8504C5.26562 21.0862 5.58394 20.3531 6.15056 19.8126C6.71717 19.2721 7.48566 18.9685 8.28697 18.9685H12.819M23.3937 16.0866V10.3228C23.3937 9.17635 22.9162 8.07682 22.0662 7.26613C21.2163 6.45544 20.0636 6 18.8617 6L12.819 18.9685V34.819H29.8593C30.5879 34.8269 31.2951 34.5832 31.8503 34.1331C32.4054 33.6829 32.7715 33.0565 32.8807 32.3693L34.9654 19.4008C35.0311 18.9878 35.002 18.5661 34.8798 18.1649C34.7577 17.7636 34.5456 17.3926 34.2583 17.0773C33.9708 16.7621 33.615 16.5102 33.2155 16.3391C32.8159 16.168 32.382 16.0819 31.9441 16.0866H23.3937Z" fill="#48CA9E" fill-opacity="0.4"/>
<path d="M12.819 34.819H8.28697C7.48566 34.819 6.71717 34.5154 6.15056 33.9749C5.58394 33.4344 5.26562 32.7013 5.26562 31.9371V21.8504C5.26562 21.0862 5.58394 20.3531 6.15056 19.8126C6.71717 19.2721 7.48566 18.9685 8.28697 18.9685H12.819M12.819 34.819V18.9685M12.819 34.819H29.8593C30.5879 34.8269 31.2951 34.5832 31.8503 34.1331C32.4054 33.6829 32.7715 33.0565 32.8807 32.3693L34.9654 19.4008C35.0311 18.9878 35.002 18.5661 34.8798 18.1649C34.7577 17.7636 34.5456 17.3926 34.2583 17.0773C33.9708 16.7621 33.615 16.5102 33.2155 16.3391C32.8159 16.168 32.382 16.0819 31.9441 16.0866H23.3937V10.3228C23.3937 9.17635 22.9162 8.07682 22.0662 7.26613C21.2163 6.45544 20.0636 6 18.8617 6L12.819 18.9685" stroke="#48CA9E" stroke-width="2" stroke-linecap="round" stroke-linejoin="round"/>
</svg>
