<svg viewBox="0 0 40 40" fill="none" xmlns="http://www.w3.org/2000/svg">
<path d="M12.6209 33.0768H8.04837C7.2399 33.0768 6.46453 32.7704 5.89285 32.2251C5.32116 31.6798 5 30.9402 5 30.1691V19.9922C5 19.2211 5.32116 18.4815 5.89285 17.9362C6.46453 17.3909 7.2399 17.0845 8.04837 17.0845H12.6209M12.6209 33.0768V17.0845M12.6209 33.0768H29.8137C30.5488 33.0848 31.2623 32.8389 31.8225 32.3847C32.3826 31.9306 32.7519 31.2986 32.8621 30.6052L34.9655 17.5207C35.0318 17.104 35.0024 16.6785 34.8791 16.2737C34.7559 15.8688 34.5419 15.4945 34.252 15.1764C33.962 14.8583 33.603 14.6042 33.1999 14.4316C32.7967 14.259 32.359 14.1721 31.9171 14.1769H23.2902V8.36152C23.2902 7.20477 22.8084 6.0954 21.9509 5.27746C21.0934 4.45951 19.9303 4 18.7177 4L12.6209 17.0845" stroke="#48CA9E" stroke-width="2" stroke-linecap="round" stroke-linejoin="round"/>
</svg>
