<svg viewBox="0 0 16 16" fill="none" xmlns="http://www.w3.org/2000/svg">
<path d="M14.0577 5.37367H10.0932L10.961 2.96097C11.0851 2.61724 11.1157 2.24054 11.049 1.87762C10.9824 1.51471 10.8214 1.18156 10.586 0.919523C10.4536 0.772427 10.2941 0.659144 10.1184 0.58754C9.94268 0.515937 9.75508 0.487729 9.56861 0.504875C9.38214 0.522021 9.20125 0.584111 9.03852 0.686833C8.87579 0.789555 8.73511 0.930447 8.62625 1.09972L6.308 4.70793C5.96199 5.24544 5.57722 5.75073 5.1575 6.21878L4.415 7.0447C4.38119 7.08226 4.35438 7.12687 4.3361 7.17597C4.31783 7.22508 4.30845 7.27771 4.3085 7.33086V13.5386C4.30844 13.6462 4.34674 13.7494 4.415 13.8256L5.24675 14.755C5.45863 14.9919 5.71063 15.1797 5.98818 15.3076C6.26574 15.4355 6.56333 15.5009 6.86375 15.5H11.3832C11.7401 15.4997 12.0892 15.3844 12.3884 15.1681C12.6876 14.9518 12.9241 14.6437 13.0692 14.2811L15.2862 8.73242C15.4281 8.37856 15.5009 7.99528 15.5 7.60783V6.9788C15.4996 6.55337 15.3475 6.14548 15.0772 5.84458C14.8068 5.54368 14.4402 5.37433 14.0577 5.37367ZM1.81025 6.5016C1.46275 6.5016 1.12948 6.65515 0.883763 6.92848C0.638044 7.20181 0.5 7.57252 0.5 7.95906V13.4394C0.5 13.8259 0.638044 14.1966 0.883763 14.4699C1.12948 14.7433 1.46275 14.8968 1.81025 14.8968C2.15775 14.8968 2.49102 14.7433 2.73674 14.4699C2.98245 14.1966 3.1205 13.8259 3.1205 13.4394V7.95906C3.1205 7.57252 2.98245 7.20181 2.73674 6.92848C2.49102 6.65515 2.15775 6.5016 1.81025 6.5016Z" fill="currentColor"/>
</svg>
