<svg viewBox="0 0 28 28" fill="none" xmlns="http://www.w3.org/2000/svg">
<path d="M16.9516 8.96928L18.7807 8.96928C19.104 8.96928 19.4142 9.08495 19.6429 9.29088C19.8715 9.49681 20 9.77608 20 10.0673L20 13.9102C20 14.2014 19.8715 14.4807 19.6429 14.6866C19.4142 14.8926 19.104 15.0082 18.7807 15.0082L16.9516 15.0082M16.9516 8.96928L16.9516 15.0082M16.9516 8.96928L10.0745 8.96928C9.78046 8.96626 9.49507 9.05909 9.27102 9.2306C9.04696 9.4021 8.89924 9.64075 8.85516 9.90257L8.01381 14.8435C7.98729 15.0009 7.99905 15.1616 8.04838 15.3144C8.09764 15.4673 8.18324 15.6087 8.2992 15.7288C8.41522 15.8489 8.5588 15.9449 8.72005 16.01C8.88131 16.0752 9.05641 16.108 9.23316 16.1062L12.6839 16.1062L12.6839 18.3022C12.6839 18.739 12.8766 19.158 13.2196 19.4668C13.5626 19.7757 14.0279 19.9492 14.5129 19.9492L16.9516 15.0082" stroke="#D82E20" stroke-linecap="round" stroke-linejoin="round"/>
</svg>
