<svg viewBox="0 0 40 40" fill="none" xmlns="http://www.w3.org/2000/svg">
<path d="M35 22L27 22L27 8L34 8C34.5523 8 35 8.44772 35 9L35 22Z" fill="#D82E20" fill-opacity="0.4"/>
<path d="M27.3791 7.55014L31.9516 7.55014C32.7601 7.55014 33.5355 7.83933 34.1071 8.35415C34.6788 8.86897 35 9.56716 35 10.2951L35 19.9026C35 20.6305 34.6788 21.3287 34.1071 21.8436C33.5355 22.3584 32.7601 22.6476 31.9516 22.6476L27.3791 22.6476M16.7098 25.3926L16.7098 30.8825C16.7098 31.9745 17.1916 33.0218 18.0491 33.794C18.9066 34.5662 20.0697 35 21.2823 35L27.3791 22.6476L27.3791 7.55014L10.1863 7.55014C9.45115 7.54259 8.73768 7.77468 8.17754 8.20345C7.6174 8.63221 7.24809 9.22884 7.1379 9.88338L5.03452 22.2358C4.96822 22.6292 4.99764 23.0309 5.12094 23.413C5.2441 23.7952 5.45809 24.1487 5.74799 24.4489C6.03804 24.7492 6.39699 24.9891 6.80014 25.1521C7.20328 25.315 7.64103 25.3971 8.08289 25.3926L16.7098 25.3926Z" fill="#D82E20" fill-opacity="0.4"/>
<path d="M27.3791 7.55014L31.9516 7.55014C32.7601 7.55014 33.5355 7.83933 34.1071 8.35415C34.6788 8.86897 35 9.56716 35 10.2951L35 19.9026C35 20.6305 34.6788 21.3287 34.1071 21.8436C33.5355 22.3584 32.7601 22.6476 31.9516 22.6476L27.3791 22.6476M27.3791 7.55014L27.3791 22.6476M27.3791 7.55014L10.1863 7.55014C9.45115 7.54259 8.73768 7.77468 8.17754 8.20345C7.6174 8.63221 7.24809 9.22884 7.1379 9.88338L5.03452 22.2358C4.96822 22.6292 4.99764 23.0309 5.12094 23.413C5.2441 23.7952 5.45809 24.1487 5.74799 24.4489C6.03804 24.7492 6.39699 24.9891 6.80014 25.1521C7.20328 25.315 7.64103 25.3971 8.08289 25.3926L16.7098 25.3926L16.7098 30.8825C16.7098 31.9745 17.1916 33.0218 18.0491 33.794C18.9066 34.5662 20.0697 35 21.2823 35L27.3791 22.6476" stroke="#D82E20" stroke-width="2" stroke-linecap="round" stroke-linejoin="round"/>
</svg>
