<svg viewBox="0 0 14 14" fill="currentColor" xmlns="http://www.w3.org/2000/svg">
<path fill-rule="evenodd" clip-rule="evenodd" d="M8.3533 0.361911C9.1685 0.638628 9.72612 1.5317 9.54496 2.39143L9.21446 4.50664C9.20186 4.59922 9.22905 4.65027 9.25309 4.67752C9.28098 4.70913 9.32661 4.73333 9.38651 4.73333H12.0532C12.6885 4.73333 13.2483 4.99096 13.589 5.4534C13.9309 5.91741 14.0062 6.52572 13.793 7.12848L12.2001 11.9735C12.0629 12.5003 11.7178 12.9361 11.3068 13.2368C10.8912 13.541 10.373 13.7333 9.85318 13.7333H7.31984C7.07155 13.7333 6.77536 13.693 6.49915 13.6141C6.2453 13.5416 5.9458 13.419 5.72557 13.212L3.68042 11.6287L4.2926 10.838L6.38432 12.4574L6.40673 12.4798C6.45116 12.5242 6.57117 12.5947 6.77387 12.6526C6.96433 12.707 7.16813 12.7333 7.31984 12.7333H9.85318C10.1333 12.7333 10.4485 12.6257 10.7163 12.4298C10.9836 12.2342 11.1686 11.9768 11.2348 11.7121L11.2392 11.6944L12.8468 6.80448L12.849 6.7985C12.9663 6.47 12.9075 6.2143 12.784 6.0466C12.6581 5.87571 12.4179 5.73333 12.0532 5.73333H9.38651C8.69095 5.73333 8.11395 5.13907 8.22487 4.36262L8.22579 4.35614L8.56163 2.20708L8.56508 2.19153C8.63886 1.85952 8.40308 1.43257 8.02839 1.30768L8.01961 1.30475L8.01095 1.3015C7.87563 1.25075 7.6978 1.25192 7.51572 1.31451C7.33027 1.37826 7.19646 1.48646 7.13587 1.57735L7.13482 1.57892L4.40148 5.64558L3.57153 5.08775L6.30382 1.02265C6.30401 1.02236 6.30421 1.02206 6.30441 1.02177C6.51053 0.713107 6.84308 0.488295 7.19064 0.368824C7.53931 0.248968 7.95786 0.21639 8.3533 0.361911Z" fill="currentColor"/>
<path fill-rule="evenodd" clip-rule="evenodd" d="M1.24248 4.08407C1.17667 4.14482 1.08667 4.28968 1.08667 4.7V11.2333C1.08667 11.6437 1.17667 11.7885 1.24248 11.8493C1.31811 11.9191 1.49166 12 1.92 12H2.58667C3.01501 12 3.18856 11.9191 3.2642 11.8493C3.33001 11.7885 3.42 11.6437 3.42 11.2333V4.7C3.42 4.28968 3.33001 4.14482 3.2642 4.08407C3.18856 4.01425 3.01501 3.93333 2.58667 3.93333H1.92C1.49166 3.93333 1.31811 4.01425 1.24248 4.08407ZM0.564197 3.34927C0.921894 3.01908 1.41501 2.93333 1.92 2.93333H2.58667C3.09166 2.93333 3.58478 3.01908 3.94248 3.34927C4.31 3.68852 4.42 4.17699 4.42 4.7V11.2333C4.42 11.7563 4.31 12.2448 3.94248 12.5841C3.58478 12.9143 3.09166 13 2.58667 13H1.92C1.41501 13 0.921894 12.9143 0.564197 12.5841C0.196674 12.2448 0.0866699 11.7563 0.0866699 11.2333V4.7C0.0866699 4.17699 0.196674 3.68852 0.564197 3.34927Z" fill="currentColor"/>
</svg>
