<svg viewBox="0 0 28 28" fill="none" xmlns="http://www.w3.org/2000/svg">
<path d="M11.1004 19.5321H9.30342C8.98571 19.5321 8.681 19.4118 8.45634 19.1974C8.23168 18.9831 8.10547 18.6925 8.10547 18.3895V14.3901C8.10547 14.0871 8.23168 13.7965 8.45634 13.5822C8.681 13.3678 8.98571 13.2475 9.30342 13.2475H11.1004M11.1004 19.5321V13.2475M11.1004 19.5321H17.8568C18.1457 19.5353 18.4261 19.4387 18.6462 19.2602C18.8663 19.0817 19.0115 18.8333 19.0548 18.5609L19.8814 13.4189C19.9074 13.2551 19.8959 13.0879 19.8474 12.9288C19.799 12.7697 19.7149 12.6226 19.601 12.4976C19.487 12.3726 19.346 12.2727 19.1875 12.2049C19.0291 12.1371 18.8571 12.1029 18.6834 12.1048H15.2932V9.81947C15.2932 9.36489 15.1039 8.92893 14.7669 8.60749C14.4299 8.28605 13.9728 8.10547 13.4963 8.10547L11.1004 13.2475" stroke="#48CA9E" stroke-linecap="round" stroke-linejoin="round"/>
</svg>
