<svg xmlns="http://www.w3.org/2000/svg" width="18" height="24" viewBox="0 0 18 24" fill="none">
  <g clip-path="url(#clip0_2234_2067)">
    <path d="M12.9652 0.869568C12.4129 0.869568 11.9816 1.32982 11.799 1.85103C11.3934 3.00838 10.2909 3.83913 8.99567 3.83913C7.70042 3.83913 6.59793 3.00838 6.19235 1.85103C6.00969 1.32982 5.57839 0.869568 5.0261 0.869568H3.03915C1.83915 0.869568 0.865234 1.84348 0.865234 3.04348V20.9565C0.865234 22.1565 1.83915 23.1304 3.03915 23.1304H5.0261C5.57839 23.1304 6.00969 22.6702 6.19235 22.149C6.59794 20.9916 7.70042 20.1609 8.99567 20.1609C10.2909 20.1609 11.3934 20.9916 11.799 22.149C11.9816 22.6702 12.4129 23.1304 12.9652 23.1304H14.9522C16.1522 23.1304 17.1261 22.1565 17.1261 20.9565V3.04348C17.1261 1.84348 16.1522 0.869568 14.9522 0.869568H12.9652Z" fill="#EDEDF7"/>
    <path d="M6.5 12.0328L8.12064 14.14L12.2664 10" stroke="#21263C" stroke-width="1.5" stroke-linecap="round" stroke-linejoin="round"/>
  </g>
  <defs>
    <clipPath id="clip0_2234_2067">
      <rect width="17.9957" height="24" fill="white"/>
    </clipPath>
  </defs>
</svg>