<svg viewBox="0 0 15 15" fill="none" xmlns="http://www.w3.org/2000/svg">
<path d="M7.49967 0.833252C3.82634 0.833252 0.833008 3.82659 0.833008 7.49992C0.833008 11.1733 3.82634 14.1666 7.49967 14.1666C11.173 14.1666 14.1663 11.1733 14.1663 7.49992C14.1663 3.82659 11.173 0.833252 7.49967 0.833252ZM10.6863 5.96659L6.90634 9.74659C6.81301 9.83992 6.68634 9.89325 6.55301 9.89325C6.41967 9.89325 6.29301 9.83992 6.19967 9.74659L4.31301 7.85992C4.11967 7.66659 4.11967 7.34659 4.31301 7.15325C4.50634 6.95992 4.82634 6.95992 5.01967 7.15325L6.55301 8.68659L9.97968 5.25992C10.173 5.06659 10.493 5.06659 10.6863 5.25992C10.8797 5.45325 10.8797 5.76659 10.6863 5.96659Z" fill="white"/>
</svg>
