<svg viewBox="0 0 25 26" fill="none" xmlns="http://www.w3.org/2000/svg">
<g clip-path="url(#clip0_6485_295362)">
<path d="M18.5547 2.45312H17.5781V1.47656C17.5781 0.937207 17.1409 0.5 16.6016 0.5C16.0622 0.5 15.625 0.937207 15.625 1.47656V2.45312H7.8125V1.47656C7.8125 0.937207 7.37529 0.5 6.83594 0.5C6.29658 0.5 5.85938 0.937207 5.85938 1.47656V2.45312H4.88281C2.19043 2.45312 0 4.64355 0 7.33594V19.0547C0 21.7471 2.19043 23.9375 4.88281 23.9375H9.60464C10.1439 23.9375 10.5812 23.5003 10.5812 22.9609C10.5812 22.4216 10.1439 21.9844 9.60464 21.9844H4.88281C3.26738 21.9844 1.95312 20.6701 1.95312 19.0547V10.2656H22.4609C23.0003 10.2656 23.4375 9.82842 23.4375 9.28906V7.33594C23.4375 4.64355 21.2471 2.45312 18.5547 2.45312ZM21.4844 8.3125H1.95312V7.33594C1.95312 5.72051 3.26738 4.40625 4.88281 4.40625H5.85938V5.38281C5.85938 5.92217 6.29658 6.35938 6.83594 6.35938C7.37529 6.35938 7.8125 5.92217 7.8125 5.38281V4.40625H15.625V5.38281C15.625 5.92217 16.0622 6.35938 16.6016 6.35938C17.1409 6.35938 17.5781 5.92217 17.5781 5.38281V4.40625H18.5547C20.1701 4.40625 21.4844 5.72051 21.4844 7.33594V8.3125Z" fill="currentColor"/>
<path d="M4.88281 14.1719C5.42215 14.1719 5.85938 13.7347 5.85938 13.1953C5.85938 12.656 5.42215 12.2188 4.88281 12.2188C4.34347 12.2188 3.90625 12.656 3.90625 13.1953C3.90625 13.7347 4.34347 14.1719 4.88281 14.1719Z" fill="currentColor"/>
<path d="M8.78906 14.1719C9.3284 14.1719 9.76562 13.7347 9.76562 13.1953C9.76562 12.656 9.3284 12.2188 8.78906 12.2188C8.24972 12.2188 7.8125 12.656 7.8125 13.1953C7.8125 13.7347 8.24972 14.1719 8.78906 14.1719Z" fill="currentColor"/>
<path d="M4.88281 18.0781C5.42215 18.0781 5.85938 17.6409 5.85938 17.1016C5.85938 16.5622 5.42215 16.125 4.88281 16.125C4.34347 16.125 3.90625 16.5622 3.90625 17.1016C3.90625 17.6409 4.34347 18.0781 4.88281 18.0781Z" fill="currentColor"/>
<path d="M8.78906 18.0781C9.3284 18.0781 9.76562 17.6409 9.76562 17.1016C9.76562 16.5622 9.3284 16.125 8.78906 16.125C8.24972 16.125 7.8125 16.5622 7.8125 17.1016C7.8125 17.6409 8.24972 18.0781 8.78906 18.0781Z" fill="currentColor"/>
<path d="M18.1641 11.8281C14.3947 11.8281 11.3281 14.8947 11.3281 18.6641C11.3281 22.4334 14.3947 25.5 18.1641 25.5C21.9334 25.5 25 22.4334 25 18.6641C25 14.8947 21.9334 11.8281 18.1641 11.8281ZM18.1641 23.5469C15.4716 23.5469 13.2812 21.3564 13.2812 18.6641C13.2812 15.9717 15.4716 13.7812 18.1641 13.7812C20.8565 13.7812 23.0469 15.9717 23.0469 18.6641C23.0469 21.3564 20.8565 23.5469 18.1641 23.5469Z" fill="currentColor"/>
<path d="M20.1172 17.6875H19.1406V16.7109C19.1406 16.1716 18.7034 15.7344 18.1641 15.7344C17.6247 15.7344 17.1875 16.1716 17.1875 16.7109V18.6641C17.1875 19.2034 17.6247 19.6406 18.1641 19.6406H20.1172C20.6565 19.6406 21.0938 19.2034 21.0938 18.6641C21.0938 18.1247 20.6565 17.6875 20.1172 17.6875Z" fill="currentColor"/>
</g>
<defs>
<clipPath id="clip0_6485_295362">
<rect width="25" height="25" fill="white" transform="translate(0 0.5)"/>
</clipPath>
</defs>
</svg>
