
<svg viewBox="0 0 20 21" fill="none" xmlns="http://www.w3.org/2000/svg">
<path d="M15.4602 7.03285L16.1659 6.32712C16.4402 6.05287 16.4402 5.6082 16.1659 5.33409C15.8917 5.05984 15.4471 5.05984 15.1729 5.33409L14.4671 6.03983C13.2831 5.05325 11.8443 4.45724 10.3095 4.31772V2.90446H10.9883C11.3761 2.90446 11.6905 2.58998 11.6905 2.20216C11.6905 1.81435 11.3761 1.5 10.9883 1.5H8.22623C7.83841 1.5 7.52406 1.81435 7.52406 2.20216C7.52406 2.58998 7.83841 2.90446 8.22623 2.90446H8.90504V4.31772C5.06313 4.66708 2 7.89459 2 11.8927C2 16.0971 5.40233 19.5 9.60735 19.5C13.8117 19.5 17.2146 16.0977 17.2146 11.8927C17.2146 10.0967 16.596 8.39584 15.4602 7.03285ZM9.60721 18.0955C6.18703 18.0955 3.40433 15.313 3.40433 11.8927C3.40433 8.47247 6.18703 5.68991 9.60721 5.68991C13.0275 5.68991 15.8101 8.47247 15.8101 11.8927C15.8101 15.313 13.0275 18.0955 9.60721 18.0955ZM12.8615 8.6385C13.1357 8.91275 13.1357 9.35742 12.8615 9.63153L10.1038 12.3892C9.82954 12.6635 9.38487 12.6635 9.11076 12.3892C8.83652 12.115 8.83652 11.6703 9.11076 11.3962L11.8683 8.6385C12.1426 8.36426 12.5872 8.36426 12.8615 8.6385Z" fill="currentColor"/>
</svg>
