<svg xmlns="http://www.w3.org/2000/svg" width="16" height="14" fill="none"><path fill="#0968da" d="m8.398 14-.013-.023a3.36 3.36 0 0 1-.117-.22l-.018-.039a4.904 4.904 0 0 1-.098-.224l-.026-.063a6.273 6.273 0 0 1-.103-.282l-.019-.058a7.973 7.973 0 0 1-.082-.267l-.022-.075c-.03-.108-.06-.219-.088-.333l-.018-.077c-.025-.1-.047-.201-.07-.304l-.017-.082c-.025-.122-.05-.247-.072-.376l-.016-.092c-.02-.112-.039-.226-.057-.341l-.013-.081c-.02-.135-.04-.272-.058-.411l-.013-.102c-.016-.122-.03-.247-.045-.373l-.008-.075c-.016-.144-.03-.29-.043-.437l-.01-.111a31.28 31.28 0 0 1-.032-.407l-.004-.055c-.01-.152-.02-.305-.028-.457l-.007-.113-.019-.435V8.05c-.006-.156-.01-.311-.013-.466l-.002-.114a29.816 29.816 0 0 1 0-.94l.002-.114.012-.466.001-.036c.006-.145.012-.29.02-.435l.005-.114c.008-.152.017-.304.028-.457l.004-.055c.01-.136.02-.272.033-.407l.01-.11c.013-.147.027-.293.042-.438l.008-.076.044-.372.013-.103c.019-.139.038-.276.059-.41l.012-.082c.018-.115.038-.23.057-.341l.016-.092c.023-.128.047-.253.073-.376l.017-.082c.022-.104.045-.205.069-.304l.018-.077c.028-.114.058-.225.088-.333l.022-.075A7.91 7.91 0 0 1 8.003.91L8.02.85c.034-.098.068-.192.103-.282L8.15.506a5.02 5.02 0 0 1 .098-.224l.018-.039a3.12 3.12 0 0 1 .118-.22L8.396 0h-2.58c-.604 0-1.447 2.663-1.447 7 0 4.336.843 7 1.447 7h2.582ZM4.03 14l-.013-.023a3.355 3.355 0 0 1-.118-.22l-.018-.039a4.904 4.904 0 0 1-.098-.224l-.026-.063a6.285 6.285 0 0 1-.102-.282l-.02-.058a7.95 7.95 0 0 1-.082-.267l-.022-.075c-.03-.108-.06-.219-.088-.333l-.018-.077c-.024-.1-.047-.201-.069-.304l-.017-.082c-.026-.122-.05-.247-.073-.376l-.016-.092c-.02-.112-.038-.226-.056-.341l-.013-.081c-.02-.135-.04-.272-.058-.411-.005-.034-.01-.068-.013-.102-.016-.122-.031-.247-.045-.373l-.009-.075c-.016-.144-.03-.29-.043-.437l-.01-.111-.032-.407-.004-.055a29.73 29.73 0 0 1-.028-.457l-.006-.113c-.008-.145-.014-.29-.02-.435V8.05c-.006-.156-.01-.311-.013-.466L2.9 7.47a29.695 29.695 0 0 1 0-.94l.001-.114c.003-.155.007-.31.013-.466v-.036c.006-.145.012-.29.02-.435l.006-.114.027-.457.005-.055c.01-.136.02-.272.032-.407l.01-.11c.013-.147.027-.293.043-.438l.007-.076c.014-.126.03-.25.045-.372l.013-.103c.018-.139.038-.276.058-.41l.013-.082c.018-.115.037-.23.057-.341l.016-.092c.023-.128.047-.253.072-.376l.017-.082c.023-.104.046-.205.07-.304l.018-.077c.028-.114.057-.225.087-.333l.022-.075c.027-.092.055-.18.083-.267L3.653.85a6.52 6.52 0 0 1 .103-.282l.026-.063a5.02 5.02 0 0 1 .097-.224l.018-.039c.039-.078.078-.152.118-.22L4.028 0h-2.58C.842 0 0 2.663 0 7c0 4.336.843 7 1.447 7H4.03ZM12.767 14l-.013-.023a3.35 3.35 0 0 1-.118-.22l-.018-.039a3.867 3.867 0 0 1-.096-.224l-.026-.063a6.142 6.142 0 0 1-.103-.282l-.019-.058a8.115 8.115 0 0 1-.083-.267l-.022-.075c-.03-.108-.059-.219-.087-.333l-.019-.077c-.024-.1-.046-.201-.069-.304l-.017-.082c-.026-.122-.05-.247-.072-.376l-.016-.092c-.02-.112-.04-.226-.057-.341l-.013-.081c-.02-.135-.04-.272-.058-.411l-.013-.102c-.016-.122-.03-.247-.045-.373l-.008-.075c-.016-.144-.03-.29-.043-.437l-.01-.111a32.01 32.01 0 0 1-.032-.407l-.005-.055c-.01-.152-.019-.305-.027-.457l-.008-.113c-.007-.145-.014-.29-.019-.435l-.001-.036c-.006-.156-.01-.311-.013-.466l-.001-.114a29.458 29.458 0 0 1 0-.94l.002-.114c.002-.155.006-.31.012-.466l.001-.036c.005-.145.012-.29.019-.435l.006-.114.027-.457.005-.055c.01-.136.02-.272.032-.407l.01-.11c.013-.147.027-.293.043-.438l.007-.076c.014-.126.03-.25.045-.372l.013-.103c.018-.139.038-.276.058-.41l.013-.082c.018-.115.037-.23.057-.341l.016-.092c.023-.128.047-.253.072-.376l.018-.082a14.2 14.2 0 0 1 .068-.304l.019-.077c.028-.114.057-.225.088-.333l.022-.075A7.82 7.82 0 0 1 12.37.91L12.39.85c.033-.098.067-.192.103-.282l.026-.063c.032-.078.064-.152.096-.224l.018-.039a3.2 3.2 0 0 1 .118-.22L12.764 0h-2.58c-.603 0-1.447 2.663-1.447 7 0 4.336.844 7 1.447 7h2.583ZM14.553 14C15.352 14 16 10.866 16 7s-.648-7-1.447-7c-.8 0-1.447 3.134-1.447 7s.648 7 1.447 7Z"/></svg>