<svg viewBox="0 0 13 20" fill="none" xmlns="http://www.w3.org/2000/svg">
<path d="M4.83568 7.20001C4.63822 7.12206 4.42354 7.07885 4.19889 7.07885C3.39743 7.07885 2.72106 7.62348 2.51982 8.3621C2.32115 8.28293 2.10481 8.23912 1.87835 8.23912C0.918706 8.23912 0.137939 9.01974 0.137939 9.97953V12.0262C0.137939 13.7667 0.538747 15.5097 1.29821 17.0762V19.3205C1.29821 19.6409 1.55791 19.9006 1.87835 19.9006H8.83998C9.16041 19.9006 9.42011 19.6409 9.42011 19.3205V17.1737C9.51726 17.0746 9.67936 16.9103 9.94949 16.6384C11.1045 15.4751 11.7407 13.9317 11.7407 12.2924C11.7407 11.3777 11.3022 10.5174 10.5804 9.97333C10.5798 9.37854 10.5793 8.61032 10.579 7.82864C11.9819 7.16239 12.9009 5.73668 12.9009 4.15958C12.9009 1.92032 11.0792 0.0986328 8.83998 0.0986328C6.60071 0.0986328 4.77903 1.92032 4.77903 4.15958C4.77903 4.92796 4.99492 5.67141 5.39633 6.31243C5.12696 6.54056 4.92754 6.84861 4.83568 7.20001ZM9.12612 15.8208C8.92987 16.0184 8.75462 16.1954 8.62847 16.3239C8.35276 16.6046 8.25984 16.6991 8.25984 16.9412V18.7403H2.45848V16.9412C2.45848 16.851 2.43748 16.7623 2.3973 16.6816C1.67817 15.2437 1.29821 13.6339 1.29821 12.0262V9.97953C1.29821 9.6597 1.55852 9.39939 1.87835 9.39939C2.19818 9.39939 2.45848 9.6597 2.45848 9.97953C2.45848 10.3 2.71818 10.5597 3.03862 10.5597C3.35905 10.5597 3.61876 10.3 3.61876 9.97953V8.81926C3.61876 8.49943 3.87906 8.23912 4.19889 8.23912C4.51872 8.23912 4.77903 8.49943 4.77903 8.81926V9.97953C4.77903 10.3 5.03873 10.5597 5.35916 10.5597C5.6796 10.5597 5.9393 10.3 5.9393 9.97953C5.9393 9.97953 5.9393 7.92699 5.9393 7.6404C5.9393 7.32057 6.1996 7.06027 6.51943 7.06027C6.83927 7.06027 7.09957 7.32057 7.09957 7.6404V9.96095C7.09957 10.2814 7.35927 10.5411 7.67971 10.5411C8.00014 10.5411 8.25984 10.2814 8.25984 9.96095V4.15958C8.25984 3.83975 8.52015 3.57945 8.83998 3.57945C9.15981 3.57945 9.42011 3.83975 9.42011 4.15958C9.42011 4.20234 9.42011 8.46105 9.42238 10.2843C9.42253 10.4909 9.53267 10.6817 9.71139 10.7855C10.2474 11.0963 10.5804 11.6737 10.5804 12.2924C10.5804 13.6234 10.0639 14.8764 9.12612 15.8208ZM8.83998 1.2589C10.4394 1.2589 11.7407 2.56013 11.7407 4.15958C11.7407 5.0872 11.2947 5.94139 10.5787 6.47998C10.5784 5.21576 10.5784 4.18058 10.5784 4.15958C10.5784 3.19994 9.79962 2.41918 8.83998 2.41918C7.88034 2.41918 7.09957 3.19994 7.09957 4.15958V5.9994C6.91813 5.93504 6.72278 5.89999 6.51943 5.89999C6.14371 5.39978 5.9393 4.79169 5.9393 4.15958C5.9393 2.56013 7.24053 1.2589 8.83998 1.2589Z" fill="currentColor"/>
<path fill-rule="evenodd" clip-rule="evenodd" d="M4.68003 4.15996C4.68003 1.86602 6.54605 0 8.83999 0C11.1339 0 13 1.86602 13 4.15996C13 5.75443 12.0832 7.19748 10.6781 7.89107C10.6784 8.63005 10.6788 9.35317 10.6794 9.92484C11.4022 10.4886 11.8397 11.3633 11.8397 12.2927C11.8397 13.9582 11.1932 15.5267 10.0198 16.7085C9.77443 16.9555 9.61832 17.1135 9.51914 17.2145V19.3209C9.51914 19.696 9.21511 20 8.83999 20H1.87836C1.50324 20 1.19921 19.696 1.19921 19.3209V17.0993C0.43966 15.5246 0.0389404 13.7745 0.0389404 12.0265V9.97991C0.0389404 8.96543 0.864041 8.14049 1.87836 8.14049C2.0799 8.14049 2.27392 8.17333 2.45558 8.23367C2.7007 7.50594 3.38918 6.98022 4.1989 6.98022C4.39831 6.98022 4.59034 7.01244 4.77036 7.07156C4.86843 6.77071 5.04214 6.50415 5.26861 6.2938C4.88549 5.65358 4.68003 4.91855 4.68003 4.15996ZM8.83999 0.19802C6.65541 0.19802 4.87805 1.97538 4.87805 4.15996C4.87805 4.9097 5.08868 5.63495 5.48025 6.26026L5.52577 6.33294L5.46033 6.38837C5.20604 6.60372 5.01804 6.89431 4.93148 7.22543L4.90323 7.3335L4.79933 7.29248C4.61311 7.21896 4.41075 7.17824 4.1989 7.17824C3.44334 7.17824 2.80519 7.69176 2.61536 8.3885L2.58621 8.4955L2.48318 8.45445C2.29587 8.37981 2.09194 8.33851 1.87836 8.33851C0.973393 8.33851 0.23696 9.0748 0.23696 9.97991V12.0265C0.23696 13.7521 0.634367 15.4803 1.38731 17.0334L1.39723 17.0539V19.3209C1.39723 19.5866 1.61261 19.802 1.87836 19.802H8.83999C9.10575 19.802 9.32112 19.5866 9.32112 19.3209V17.1336L9.34942 17.1047C9.44679 17.0054 9.60907 16.841 9.87924 16.569C11.0158 15.4243 11.6417 13.9059 11.6417 12.2927C11.6417 11.4097 11.2182 10.5784 10.5208 10.0528L10.4814 10.0231L10.4814 9.97381C10.4808 9.37899 10.4803 8.61074 10.48 7.82906L10.48 7.76645L10.5366 7.73958C11.9053 7.08954 12.8019 5.69839 12.8019 4.15996C12.8019 1.97538 11.0246 0.19802 8.83999 0.19802ZM8.83999 1.35829C7.29522 1.35829 6.03832 2.61519 6.03832 4.15996C6.03832 4.7543 6.22535 5.32648 6.56994 5.80204C6.71844 5.80607 6.8627 5.82779 7.00057 5.86519V4.15996C7.00057 3.14564 7.82567 2.32054 8.83999 2.32054C9.85446 2.32054 10.6774 3.14578 10.6774 4.15996C10.6774 4.1798 10.6774 5.10469 10.6777 6.27274C11.2762 5.75042 11.6417 4.98507 11.6417 4.15996C11.6417 2.61519 10.3848 1.35829 8.83999 1.35829ZM5.8403 4.15996C5.8403 2.50583 7.18586 1.16027 8.83999 1.16027C10.4941 1.16027 11.8397 2.50583 11.8397 4.15996C11.8397 5.11956 11.3784 6.00271 10.6383 6.55948L10.4798 6.6787L10.4797 6.48038C10.4794 5.21615 10.4794 4.18097 10.4794 4.15996C10.4794 3.25486 9.74481 2.51856 8.83999 2.51856C7.93503 2.51856 7.19859 3.255 7.19859 4.15996V6.13995L7.06648 6.09309C6.89551 6.03245 6.71135 5.99938 6.51945 5.99938H6.46999L6.44028 5.95983C6.0517 5.4425 5.8403 4.81356 5.8403 4.15996ZM8.83999 3.67884C8.57484 3.67884 8.35887 3.89481 8.35887 4.15996V9.96132C8.35887 10.3364 8.05484 10.6405 7.67972 10.6405C7.3046 10.6405 7.00057 10.3364 7.00057 9.96132V7.64078C7.00057 7.37563 6.7846 7.15965 6.51945 7.15965C6.2543 7.15965 6.03832 7.37563 6.03832 7.64078V9.97981L5.93931 9.97991L5.8403 9.97988V7.64078C5.8403 7.26627 6.14493 6.96163 6.51945 6.96163C6.89396 6.96163 7.19859 7.26627 7.19859 7.64078V9.96132C7.19859 10.2271 7.41397 10.4424 7.67972 10.4424C7.94547 10.4424 8.16085 10.2271 8.16085 9.96132V4.15996C8.16085 3.78545 8.46548 3.48082 8.83999 3.48082C9.2145 3.48082 9.51914 3.78545 9.51914 4.15996C9.51914 4.20275 9.51914 8.46138 9.5214 10.2845C9.52153 10.4558 9.61281 10.6141 9.76106 10.7002C10.3276 11.0287 10.6794 11.6387 10.6794 12.2927C10.6794 13.6499 10.1525 14.928 9.19639 15.8909C9.00018 16.0885 8.82507 16.2654 8.69911 16.3936C8.55823 16.5371 8.4748 16.6227 8.42385 16.7013C8.37793 16.7721 8.35887 16.837 8.35887 16.9415V18.8397H2.35948V16.9415C2.35948 16.8668 2.34208 16.7932 2.30868 16.7261C1.58272 15.2745 1.19921 13.6496 1.19921 12.0265V9.97991C1.19921 9.60539 1.50385 9.30076 1.87836 9.30076C2.25287 9.30076 2.5575 9.60539 2.5575 9.97991C2.5575 10.2457 2.77288 10.461 3.03863 10.461C3.30438 10.461 3.51976 10.2457 3.51976 9.97991V8.81963C3.51976 8.44512 3.82439 8.14049 4.1989 8.14049C4.57341 8.14049 4.87805 8.44512 4.87805 8.81963V9.97991C4.87805 10.2457 5.09342 10.461 5.35917 10.461C5.62493 10.461 5.8403 10.2456 5.8403 9.97988L5.93931 9.97991L6.03832 9.97981C6.03832 10.3549 5.73429 10.6591 5.35917 10.6591C4.98406 10.6591 4.68003 10.355 4.68003 9.97991V8.81963C4.68003 8.55449 4.46405 8.33851 4.1989 8.33851C3.93375 8.33851 3.71778 8.55449 3.71778 8.81963V9.97991C3.71778 10.355 3.41375 10.6591 3.03863 10.6591C2.66351 10.6591 2.35948 10.355 2.35948 9.97991C2.35948 9.71476 2.14351 9.49878 1.87836 9.49878C1.61321 9.49878 1.39723 9.71476 1.39723 9.97991V12.0265C1.39723 13.6189 1.77361 15.2135 2.48586 16.6377C2.53284 16.732 2.5575 16.8359 2.5575 16.9415V18.6417H8.16085V16.9415C8.16085 16.8041 8.18823 16.7007 8.2577 16.5935C8.32087 16.4961 8.41906 16.3961 8.54993 16.2629L8.55785 16.2549C8.68419 16.1262 8.85959 15.949 9.05587 15.7514C9.9752 14.8256 10.4814 13.5976 10.4814 12.2927C10.4814 11.7095 10.1673 11.1646 9.66174 10.8716C9.4526 10.7501 9.32358 10.5267 9.32338 10.2848C9.32112 8.46148 9.32112 4.20269 9.32112 4.15996C9.32112 3.89481 9.10514 3.67884 8.83999 3.67884Z" fill="currentColor"/>
</svg>
