<svg width="22" height="22" viewBox="0 0 22 22" fill="none" xmlns="http://www.w3.org/2000/svg">
<rect x="0.5" y="0.5" width="21" height="21" rx="10.5" fill="white"/>
<rect x="0.5" y="0.5" width="21" height="21" rx="10.5" stroke="#0950C5"/>
<path d="M9.23 12.95C9.87 12.3967 10.3733 11.9433 10.74 11.59C11.1133 11.23 11.4233 10.8567 11.67 10.47C11.9167 10.0833 12.04 9.69667 12.04 9.31C12.04 8.91 11.9433 8.59667 11.75 8.37C11.5633 8.14333 11.2667 8.03 10.86 8.03C10.4667 8.03 10.16 8.15667 9.94 8.41C9.72667 8.65667 9.61333 8.99 9.6 9.41H8.5C8.52 8.65 8.74667 8.07 9.18 7.67C9.62 7.26333 10.1767 7.06 10.85 7.06C11.5767 7.06 12.1433 7.26 12.55 7.66C12.9633 8.06 13.17 8.59333 13.17 9.26C13.17 9.74 13.0467 10.2033 12.8 10.65C12.56 11.09 12.27 11.4867 11.93 11.84C11.5967 12.1867 11.17 12.59 10.65 13.05L10.2 13.45H13.37V14.4H8.51V13.57L9.23 12.95Z" fill="#0950C5"/>
</svg>
