<svg viewBox="0 0 89 89" fill="none" xmlns="http://www.w3.org/2000/svg">
<path d="M0 28C0 12.536 12.536 0 28 0H61C76.464 0 89 12.536 89 28V61C89 76.464 76.464 89 61 89H28C12.536 89 0 76.464 0 61V28Z" fill="#EFF8FF"/>
<path d="M46.4526 57.9545H34.9223C33.3586 57.9545 32.0454 56.567 32.0454 54.944V39.8864H57.6131V45.2114C57.6131 45.7947 58.0525 46.2678 58.6358 46.2678C59.2191 46.2678 59.6585 45.795 59.6585 45.2114V35.0775C59.6585 32.3253 57.4621 30 54.7396 30H34.9223C32.1937 30 30 32.2776 30 35.0775V54.944C30 57.7319 32.1937 60 34.9223 60H46.4526C47.0359 60 47.5091 59.5606 47.5091 58.9773C47.5091 58.394 47.0359 57.9545 46.4526 57.9545ZM32.0454 35.0775C32.0454 33.4705 33.3852 32.0455 34.9223 32.0455H54.7396C56.317 32.0455 57.6131 33.4705 57.6131 35.0775V37.8409H32.0454V35.0775Z" fill="#175CD3"/>
<path d="M54.0589 34.0909H53.6365C53.0533 34.0909 52.5801 34.7008 52.5801 35.2841C52.5801 35.8674 53.0529 36.4773 53.6365 36.4773H54.0589C54.6422 36.4773 55.1154 35.8674 55.1154 35.2841C55.1154 34.7008 54.6422 34.0909 54.0589 34.0909Z" fill="#175CD3"/>
<path d="M50.4652 34.0909H50.0428C49.4595 34.0909 48.9863 34.7008 48.9863 35.2841C48.9863 35.8674 49.4592 36.4773 50.0428 36.4773H50.4652C51.0484 36.4773 51.5216 35.8674 51.5216 35.2841C51.5216 34.7008 51.0488 34.0909 50.4652 34.0909Z" fill="#175CD3"/>
<path d="M46.6644 34.0909H46.242C45.6587 34.0909 45.1855 34.7008 45.1855 35.2841C45.1855 35.8674 45.6584 36.4773 46.242 36.4773H46.6644C47.2477 36.4773 47.7208 35.8674 47.7208 35.2841C47.7208 34.7008 47.2477 34.0909 46.6644 34.0909Z" fill="#175CD3"/>
<path d="M45.9837 49.2328C45.0537 48.3028 45.0537 46.7891 45.9837 45.8591L45.9983 45.8445C46.9297 44.9281 48.433 44.9322 49.3586 45.8578L51.8213 48.3205C52.2338 48.733 52.9026 48.733 53.3151 48.3205C53.7276 47.908 53.7276 47.2391 53.3151 46.8266L50.8521 44.3635C49.0985 42.6103 46.2448 42.6106 44.4908 44.3635L44.4591 44.3956C42.3149 46.5764 43.64 49.8767 44.4895 50.7263L46.9522 53.189C47.1584 53.3953 47.8119 53.9059 48.446 53.189C48.8326 52.752 48.8585 52.1076 48.446 51.6951L45.9837 49.2328Z" fill="#175CD3"/>
<path d="M58.7343 52.2454L56.2716 49.7826C55.8591 49.3701 55.1902 49.3701 54.7777 49.7826C54.3653 50.1951 54.3653 50.864 54.7777 51.2765L57.2404 53.7392C58.1704 54.6692 58.1704 56.1829 57.2404 57.1129L57.2309 57.1224C56.2999 58.0442 54.7927 58.0415 53.8655 57.1142L51.4028 54.6512C50.9903 54.2387 50.3215 54.2387 49.909 54.6512C49.4965 55.0637 49.4965 55.7325 49.909 56.145L52.372 58.6081C53.2488 59.4846 56.2508 61.0654 58.7329 58.6081L58.7493 58.5917C60.4879 56.8367 60.4828 53.9939 58.7343 52.2454Z" fill="#175CD3"/>
<path d="M48.2176 48.1817C47.8051 48.5942 47.8051 49.2631 48.2176 49.6756L53.446 54.9041C53.6522 55.1103 54.4598 55.5682 54.9398 54.9041C55.2814 54.4312 55.3523 53.8227 54.9398 53.4102L49.7114 48.1817C49.2989 47.7692 48.6304 47.7689 48.2176 48.1817Z" fill="#175CD3"/>
</svg>
