<svg viewBox="0 0 89 89" fill="none" xmlns="http://www.w3.org/2000/svg">
<path d="M0 28C0 12.536 12.536 0 28 0H61C76.464 0 89 12.536 89 28V61C89 76.464 76.464 89 61 89H28C12.536 89 0 76.464 0 61V28Z" fill="#F8F9FC"/>
<path d="M55.2872 34.705C52.2545 31.671 48.2404 30 43.9844 30C43.499 30 43.1055 30.3935 43.1055 30.8789V32.2031C35.6457 32.655 29.977 38.8773 30.0001 46.0875C29.998 53.9336 36.4499 60.0223 43.9844 59.9999C45.9655 59.9999 47.8199 59.6453 49.4958 58.946C50.8934 58.3628 52.1686 57.5383 53.2982 56.4913L54.1321 57.3206C54.2968 57.4844 54.5196 57.5763 54.7518 57.5763H54.756C54.9897 57.5752 55.2133 57.481 55.3774 57.3147C58.3583 54.2933 60 50.2975 60 46.0634C60 41.7794 58.3263 37.7456 55.2872 34.705ZM43.9844 51.7913C40.8193 51.7913 38.2443 49.2326 38.2443 46.0875C38.2443 42.9425 40.8193 40.3837 43.9844 40.3837C47.1495 40.3837 49.7245 42.9425 49.7245 46.0875C49.7245 49.2326 47.1495 51.7913 43.9844 51.7913ZM43.1055 33.9646V38.6774C39.6736 39.078 36.9432 41.7939 36.5387 45.2086H31.7901C32.2238 39.2039 37.0646 34.3933 43.1055 33.9646ZM31.7901 46.9664H36.5387C36.8498 49.5927 38.5366 51.8056 40.8603 52.8698L39.1132 57.2346C35.0453 55.4711 32.1226 51.5698 31.7901 46.9664ZM43.9844 58.2421C42.8737 58.2421 41.7975 58.0932 40.7739 57.8161L42.5378 53.4093C44.6293 53.8574 47.0879 53.2234 48.6809 51.8993L52.0514 55.2513C49.8884 57.2364 47.1791 58.2421 43.9844 58.2421ZM54.7271 55.4332L49.9149 50.6475C50.8969 49.3856 51.4823 47.8034 51.4823 46.0876C51.4823 42.2692 48.585 39.112 44.8633 38.6775V31.7847C48.3209 31.9966 51.5533 33.4559 54.044 35.9477C56.7513 38.6563 58.2422 42.2488 58.2422 46.0635C58.2422 49.5376 57.0001 52.8321 54.7271 55.4332Z" fill="#363F72"/>
</svg>
