<svg width="50" height="51" viewBox="0 0 50 51" fill="none" xmlns="http://www.w3.org/2000/svg">
<g clip-path="url(#clip0_950_22860)">
<path d="M36.6872 12.5419C36.6872 15.8511 35.5004 18.7156 33.1593 21.057C30.8183 23.3981 27.9534 24.5849 24.6442 24.5849H24.6385C21.3334 24.5837 18.4705 23.397 16.1294 21.057C13.7879 18.7156 12.6016 15.8511 12.6016 12.5419C12.6016 9.23375 13.7879 6.36891 16.1294 4.02783C18.4693 1.68752 21.3323 0.501144 24.6385 0.5H24.6442C27.9523 0.5 30.8171 1.68675 33.1593 4.02783C35.5004 6.36891 36.6872 9.23375 36.6872 12.5419Z" fill="#FFBB85"/>
<path d="M45.8172 41.9009C45.8172 44.5117 44.9867 46.6254 43.351 48.1822C41.7343 49.7206 39.5962 50.5 36.9965 50.5H12.9211C10.3214 50.5 8.18329 49.7206 6.56776 48.1822C4.93088 46.6242 4.10156 44.5109 4.10156 41.9009C4.10156 40.8969 4.13475 39.9035 4.20113 38.9483C4.26865 37.9717 4.40521 36.909 4.60663 35.7878C4.80957 34.6575 5.0705 33.589 5.38292 32.6125C5.70717 31.6016 6.14586 30.6044 6.68869 29.6492C7.2525 28.6578 7.91473 27.7941 8.65707 27.0831C9.43527 26.3388 10.3867 25.7411 11.4864 25.3054C12.5824 24.8721 13.7974 24.6523 15.0974 24.6523C15.6075 24.6523 16.1015 24.861 17.0536 25.4813C17.6495 25.87 18.3361 26.3125 19.0941 26.797C19.7487 27.2143 20.6352 27.6057 21.7312 27.9593C22.6944 28.271 23.6721 28.4449 24.638 28.4751C24.7444 28.4789 24.8508 28.4808 24.9573 28.4808C26.03 28.4808 27.1149 28.3049 28.1845 27.9593C29.2805 27.6057 30.1682 27.2143 30.8224 26.797C31.5884 26.3075 32.275 25.8654 32.8621 25.4824C33.815 24.861 34.3082 24.6523 34.8194 24.6523C36.1183 24.6523 37.3333 24.8721 38.43 25.3054C39.5298 25.7411 40.4812 26.34 41.2586 27.0831C42.0021 27.7941 42.6643 28.6578 43.2278 29.6492C43.771 30.6052 44.2104 31.6016 44.5335 32.6113C44.8463 33.589 45.108 34.6575 45.311 35.7886C45.5112 36.9109 45.6482 37.9736 45.7153 38.9475C45.7829 39.8997 45.816 40.893 45.8172 41.9009Z" fill="#6AA9FF"/>
<path d="M24.6434 24.5849H24.6377V0.5H24.6434C27.9515 0.5 30.8164 1.68675 33.1586 4.02783C35.4997 6.36891 36.6864 9.23375 36.6864 12.5419C36.6864 15.8511 35.4997 18.7156 33.1586 21.057C30.8175 23.3981 27.9527 24.5849 24.6434 24.5849Z" fill="#F5A86C"/>
<path d="M45.8169 41.9009C45.8169 44.5117 44.9864 46.6254 43.3507 48.1822C41.734 49.7206 39.5959 50.5 36.9962 50.5H24.6377V28.4751C24.7441 28.4789 24.8506 28.4808 24.957 28.4808C26.0297 28.4808 27.1146 28.3049 28.1842 27.9593C29.2802 27.6057 30.1679 27.2143 30.8221 26.797C31.5881 26.3075 32.2747 25.8654 32.8618 25.4824C33.8147 24.861 34.308 24.6523 34.8191 24.6523C36.118 24.6523 37.333 24.8721 38.4297 25.3054C39.5295 25.7411 40.4809 26.34 41.2583 27.0831C42.0018 27.7941 42.664 28.6578 43.2275 29.6492C43.7707 30.6052 44.2101 31.6016 44.5332 32.6113C44.8461 33.589 45.1077 34.6575 45.3107 35.7886C45.511 36.9109 45.6479 37.9736 45.715 38.9475C45.7826 39.8997 45.8158 40.893 45.8169 41.9009Z" fill="#2682FF"/>
</g>
<defs>
<clipPath id="clip0_950_22860">
<rect width="50" height="50" fill="white" transform="translate(0 0.5)"/>
</clipPath>
</defs>
</svg>
