<svg viewBox="0 0 89 89" fill="none" xmlns="http://www.w3.org/2000/svg">
<path d="M0 28C0 12.536 12.536 0 28 0H61C76.464 0 89 12.536 89 28V61C89 76.464 76.464 89 61 89H28C12.536 89 0 76.464 0 61V28Z" fill="#FDF2FA"/>
<path d="M58.3327 60V56.6667C58.3327 54.8986 57.6303 53.2029 56.3801 51.9526C55.1298 50.7024 53.4341 50 51.666 50H38.3327C36.5646 50 34.8689 50.7024 33.6186 51.9526C32.3684 53.2029 31.666 54.8986 31.666 56.6667V60M51.666 36.6667C51.666 40.3486 48.6812 43.3333 44.9993 43.3333C41.3175 43.3333 38.3327 40.3486 38.3327 36.6667C38.3327 32.9848 41.3175 30 44.9993 30C48.6812 30 51.666 32.9848 51.666 36.6667Z" stroke="#C11574" stroke-width="2" stroke-linecap="round" stroke-linejoin="round"/>
</svg>
