<svg width="36" height="36" viewBox="0 0 36 36" fill="none" xmlns="http://www.w3.org/2000/svg">
<rect width="36" height="36" rx="12" fill="#FAFAFA"/>
<path d="M18.0007 18C20.7622 18 23.0007 15.7614 23.0007 13C23.0007 10.2386 20.7622 8 18.0007 8C15.2393 8 13.0007 10.2386 13.0007 13C13.0007 15.7614 15.2393 18 18.0007 18Z" stroke="#414651" stroke-width="1.5" stroke-linecap="round" stroke-linejoin="round"/>
<path d="M9.41016 28C9.41016 24.13 13.2602 21 18.0002 21C18.9602 21 19.8902 21.13 20.7602 21.37" stroke="#414651" stroke-width="1.5" stroke-linecap="round" stroke-linejoin="round"/>
<path d="M27.9993 24C27.9993 24.32 27.9593 24.63 27.8793 24.93C27.7893 25.33 27.6293 25.72 27.4193 26.06C26.7293 27.22 25.4593 28 23.9993 28C22.9693 28 22.0393 27.61 21.3393 26.97C21.0393 26.71 20.7793 26.4 20.5793 26.06C20.2093 25.46 19.9993 24.75 19.9993 24C19.9993 22.92 20.4293 21.93 21.1293 21.21C21.8593 20.46 22.8793 20 23.9993 20C25.1793 20 26.2493 20.51 26.9693 21.33C27.6093 22.04 27.9993 22.98 27.9993 24Z" stroke="#414651" stroke-width="1.5" stroke-miterlimit="10" stroke-linecap="round" stroke-linejoin="round"/>
<path d="M25.491 23.98H22.511" stroke="#414651" stroke-width="1.5" stroke-miterlimit="10" stroke-linecap="round" stroke-linejoin="round"/>
<path d="M24.0017 22.52V25.51" stroke="#414651" stroke-width="1.5" stroke-miterlimit="10" stroke-linecap="round" stroke-linejoin="round"/>
</svg>
