<svg xmlns="http://www.w3.org/2000/svg" width="16" height="16" fill="currentColor"><path stroke="currentColor" stroke-width=".2" d="M7.998 7.31a3.409 3.409 0 0 0 3.405-3.405A3.409 3.409 0 0 0 7.998.5a3.409 3.409 0 0 0-3.404 3.405A3.409 3.409 0 0 0 7.998 7.31Zm0-6.007A2.605 2.605 0 0 1 10.6 3.905a2.605 2.605 0 0 1-2.602 2.602 2.605 2.605 0 0 1-2.602-2.602 2.605 2.605 0 0 1 2.602-2.602ZM11.552 8.409c-.38-.1-.798-.052-1.148.132a5.096 5.096 0 0 1-2.406.6 5.096 5.096 0 0 1-2.406-.6 1.607 1.607 0 0 0-1.148-.132 3.835 3.835 0 0 0-2.854 3.707v1.266A2.12 2.12 0 0 0 3.708 15.5h8.58a2.12 2.12 0 0 0 2.118-2.118v-1.266a3.835 3.835 0 0 0-2.854-3.707Zm2.052 4.973c0 .725-.59 1.315-1.315 1.315H3.708c-.725 0-1.315-.59-1.315-1.315v-1.266c0-1.376.928-2.58 2.256-2.931a.798.798 0 0 1 .568.066 5.89 5.89 0 0 0 2.781.692 5.89 5.89 0 0 0 2.782-.692.795.795 0 0 1 .568-.066 3.032 3.032 0 0 1 2.256 2.93v1.267Z"/></svg>