
<svg viewBox="0 0 20 20" fill="none" xmlns="http://www.w3.org/2000/svg">
<path d="M9.17969 3.34032C7.48047 3.68016 6.16406 5.00829 5.83594 6.71141C5.76562 7.0825 5.76562 7.91844 5.83594 8.28954C6.03516 9.33641 6.66406 10.3364 7.49219 10.9223C7.58203 10.9848 7.65625 11.0434 7.65625 11.0552C7.65625 11.0669 7.53125 11.1255 7.37891 11.188C6.96094 11.3598 6.32031 11.8052 5.9375 12.1841C5.57812 12.5473 5.15234 13.145 4.96875 13.5552C4.63672 14.3013 4.53125 14.8325 4.53125 15.7661V16.4536L4.66797 16.5903C4.80078 16.7231 4.81641 16.727 5.02734 16.7114C5.21484 16.6958 5.26562 16.6723 5.35938 16.5669C5.46094 16.4536 5.46875 16.4223 5.46875 16.1216C5.46875 15.5903 5.53906 14.9223 5.62891 14.6098C5.80469 13.9653 6.15625 13.3677 6.63672 12.8872C7.11719 12.4067 7.71484 12.0552 8.35938 11.8794C8.89062 11.7309 10.0117 11.6763 10.918 11.7583C11.8867 11.8442 12.6914 12.2153 13.3633 12.8872C13.8438 13.3677 14.1953 13.9653 14.3711 14.6098C14.4609 14.9223 14.5312 15.5942 14.5312 16.1255C14.5312 16.4497 14.5352 16.4575 14.668 16.5903C14.8008 16.7231 14.8164 16.727 15.0273 16.7114C15.2148 16.6958 15.2656 16.6723 15.3594 16.5669L15.4688 16.4458V15.7622C15.4688 14.8325 15.3633 14.2973 15.0312 13.5552C14.8477 13.145 14.4219 12.5473 14.0625 12.1841C13.6797 11.8052 13.0391 11.3598 12.6211 11.188C12.4688 11.1255 12.3438 11.0669 12.3438 11.0552C12.3438 11.0434 12.418 10.9848 12.5078 10.9223C13.3359 10.3364 13.9648 9.33641 14.1641 8.28954C14.2344 7.91844 14.2344 7.0825 14.1641 6.71141C13.8359 4.99266 12.5078 3.66454 10.7891 3.33641C10.4336 3.27 9.52734 3.27 9.17969 3.34032ZM10.7617 4.34032C11.7188 4.57079 12.5195 5.23094 12.9492 6.145C13.3516 6.98875 13.3477 8.0161 12.9492 8.86375C12.3945 10.0317 11.2773 10.7466 10 10.7466C8.72266 10.7466 7.60547 10.0317 7.05078 8.85594C6.65234 8.0161 6.65234 6.98485 7.04688 6.145C7.37891 5.44969 7.88672 4.92625 8.57422 4.5786C9.23828 4.24657 10.0234 4.16063 10.7617 4.34032Z" fill="currentColor"/>
</svg>
