<svg width="17" height="17" viewBox="0 0 17 17" fill="none" xmlns="http://www.w3.org/2000/svg">
<g clip-path="url(#clip0_638_190254)">
<path d="M12.2396 4.35339C12.2396 5.41235 11.8599 6.32898 11.1107 7.07825C10.3616 7.82739 9.44482 8.20715 8.38586 8.20715H8.38403C7.32642 8.20679 6.41028 7.82703 5.66113 7.07825C4.91187 6.32898 4.53223 5.41235 4.53223 4.35339C4.53223 3.2948 4.91187 2.37805 5.66113 1.62891C6.40991 0.880005 7.32605 0.500366 8.38403 0.5H8.38586C9.44446 0.5 10.3612 0.879761 11.1107 1.62891C11.8599 2.37805 12.2396 3.2948 12.2396 4.35339Z" fill="#FFBB85"/>
<path d="M15.1615 13.748C15.1615 14.5835 14.8958 15.2599 14.3723 15.7581C13.855 16.2504 13.1708 16.4998 12.3389 16.4998H4.63477C3.80286 16.4998 3.11865 16.2504 2.60168 15.7581C2.07788 15.2595 1.8125 14.5833 1.8125 13.748C1.8125 13.4268 1.82312 13.1089 1.84436 12.8032C1.86597 12.4907 1.90967 12.1506 1.97412 11.7919C2.03906 11.4302 2.12256 11.0883 2.22253 10.7758C2.32629 10.4523 2.46667 10.1332 2.64038 9.82751C2.8208 9.51025 3.03271 9.23389 3.27026 9.00635C3.51929 8.76819 3.82373 8.5769 4.17566 8.4375C4.52637 8.29883 4.91516 8.22852 5.33118 8.22852C5.49438 8.22852 5.65247 8.29529 5.95715 8.49377C6.14783 8.61816 6.36755 8.75977 6.61011 8.91479C6.81958 9.04834 7.10327 9.17358 7.45398 9.28674C7.76221 9.38647 8.07507 9.44214 8.38416 9.45178C8.41821 9.453 8.45227 9.45361 8.48633 9.45361C8.82959 9.45361 9.17676 9.39734 9.51904 9.28674C9.86975 9.17358 10.1538 9.04834 10.3632 8.91479C10.6083 8.75818 10.828 8.6167 11.0159 8.49414C11.3208 8.29529 11.4786 8.22852 11.6422 8.22852C12.0579 8.22852 12.4467 8.29883 12.7976 8.4375C13.1495 8.5769 13.454 8.76855 13.7028 9.00635C13.9407 9.23389 14.1526 9.51025 14.3329 9.82751C14.5067 10.1334 14.6473 10.4523 14.7507 10.7754C14.8508 11.0883 14.9346 11.4302 14.9995 11.7921C15.0636 12.1512 15.1074 12.4913 15.1289 12.803C15.1505 13.1077 15.1611 13.4255 15.1615 13.748Z" fill="#6AA9FF"/>
<path d="M8.38562 8.20715H8.38379V0.5H8.38562C9.44421 0.5 10.361 0.879761 11.1105 1.62891C11.8596 2.37805 12.2394 3.2948 12.2394 4.35339C12.2394 5.41235 11.8596 6.32898 11.1105 7.07825C10.3613 7.82739 9.44458 8.20715 8.38562 8.20715Z" fill="#F5A86C"/>
<path d="M15.1611 13.748C15.1611 14.5835 14.8954 15.2599 14.3719 15.7581C13.8546 16.2504 13.1704 16.4998 12.3385 16.4998H8.38379V9.45178C8.41785 9.453 8.4519 9.45361 8.48596 9.45361C8.82922 9.45361 9.17639 9.39734 9.51868 9.28674C9.86938 9.17358 10.1534 9.04834 10.3628 8.91479C10.6079 8.75818 10.8276 8.6167 11.0155 8.49414C11.3204 8.29529 11.4783 8.22852 11.6418 8.22852C12.0575 8.22852 12.4463 8.29883 12.7972 8.4375C13.1492 8.5769 13.4536 8.76855 13.7024 9.00635C13.9403 9.23389 14.1522 9.51025 14.3325 9.82751C14.5063 10.1334 14.647 10.4523 14.7504 10.7754C14.8505 11.0883 14.9342 11.4302 14.9991 11.7921C15.0632 12.1512 15.1071 12.4913 15.1285 12.803C15.1501 13.1077 15.1608 13.4255 15.1611 13.748Z" fill="#2682FF"/>
</g>
<defs>
<clipPath id="clip0_638_190254">
<rect width="16" height="16" fill="white" transform="translate(0.5 0.5)"/>
</clipPath>
</defs>
</svg>
