<svg width="7" height="11" viewBox="0 0 7 11" fill="none" xmlns="http://www.w3.org/2000/svg">
    <g clip-path="url(#clip0_1_2)">
        <path fill-rule="evenodd" clip-rule="evenodd"
            d="M6.38744 0.321677C6.59728 0.527708 6.71517 0.807111 6.71517 1.09844C6.71517 1.38977 6.59728 1.66917 6.38744 1.8752L2.70143 5.49313L6.38744 9.11109C6.49435 9.21243 6.57962 9.33364 6.63829 9.4677C6.69695 9.60176 6.72783 9.74593 6.72912 9.89175C6.73042 10.0376 6.70209 10.1824 6.64581 10.3174C6.58953 10.4524 6.50642 10.5751 6.40131 10.6782C6.29621 10.7814 6.17124 10.8629 6.03367 10.9182C5.89611 10.9734 5.74872 11.0012 5.60009 10.9999C5.45146 10.9987 5.30458 10.9684 5.16802 10.9108C5.03145 10.8532 4.90794 10.7695 4.80468 10.6646L0.327289 6.26989C0.117444 6.06386 -0.000440134 5.78446 -0.000440121 5.49313C-0.000440108 5.2018 0.117445 4.9224 0.327289 4.71637L4.80468 0.321676C5.01459 0.115708 5.29925 -1.27344e-08 5.59606 0C5.89287 1.27344e-08 6.17753 0.115708 6.38744 0.321677Z"
            fill="#37352F" />
    </g>
    <defs>
        <clipPath id="clip0_1_2">
            <rect width="7" height="11" fill="white" />
        </clipPath>
    </defs>
</svg>