<svg width="10" height="16" viewBox="0 0 10 16" fill="none" xmlns="http://www.w3.org/2000/svg">
<path fill-rule="evenodd" clip-rule="evenodd" d="M9.1251 0.467894C9.42488 0.767576 9.59329 1.17398 9.59329 1.59773C9.59329 2.02148 9.42488 2.42788 9.1251 2.72756L3.85937 7.99001L9.1251 13.2525C9.27783 13.3999 9.39965 13.5762 9.48346 13.7712C9.56726 13.9662 9.61138 14.1759 9.61322 14.388C9.61507 14.6002 9.57461 14.8107 9.4942 15.0071C9.4138 15.2035 9.29507 15.3819 9.14492 15.5319C8.99478 15.682 8.81624 15.8006 8.61972 15.881C8.4232 15.9613 8.21264 16.0018 8.00032 15.9999C7.78799 15.9981 7.57816 15.954 7.38307 15.8703C7.18798 15.7865 7.01153 15.6648 6.86402 15.5121L0.467745 9.11984C0.167966 8.82016 -0.000440012 8.41376 -0.000439993 7.99001C-0.000439975 7.56626 0.167967 7.15986 0.467745 6.86017L6.86402 0.467893C7.16389 0.168302 7.57055 -8.9235e-08 7.99456 -7.07122e-08C8.41858 -5.21895e-08 8.82523 0.168302 9.1251 0.467894Z" fill="#37352F"/>
</svg>
