<svg viewBox="0 0 40 40" fill="none" xmlns="http://www.w3.org/2000/svg">
<mask id="mask0_3375_127709" style="mask-type:luminance" maskUnits="userSpaceOnUse" x="5" y="5" width="30" height="30">
<path d="M5 5H35V35H5V5Z" fill="white"/>
</mask>
<g mask="url(#mask0_3375_127709)">
<path fill-rule="evenodd" clip-rule="evenodd" d="M11.8125 28.5V11.625H13.8125V20.819C14.2402 20.3888 14.7123 20.0537 15.2263 19.7986C16.5788 19.1274 18.0995 19.0907 19.3868 19.0597C19.4505 19.0581 19.5137 19.0566 19.5762 19.055C20.9895 19.0192 22.1763 18.9581 23.229 18.4194C24.2274 17.9084 25.2435 16.8854 26.0581 14.6015L27.9419 15.2735C27.0065 17.8958 25.7101 19.3963 24.1402 20.1998C22.6244 20.9755 20.9871 21.0199 19.6269 21.0544C18.1792 21.0911 17.0612 21.1207 16.1154 21.5901C15.2731 22.0081 14.4286 22.8605 13.8125 24.8951V28.5H11.8125Z" fill="currentColor"/>
<path fill-rule="evenodd" clip-rule="evenodd" d="M12.8125 7C11.8115 7 11 7.81148 11 8.8125C11 9.81352 11.8115 10.625 12.8125 10.625C13.8135 10.625 14.625 9.81352 14.625 8.8125C14.625 7.81148 13.8135 7 12.8125 7ZM9 8.8125C9 6.70691 10.7069 5 12.8125 5C14.9181 5 16.625 6.70691 16.625 8.8125C16.625 10.9181 14.9181 12.625 12.8125 12.625C10.7069 12.625 9 10.9181 9 8.8125Z" fill="currentColor"/>
<path fill-rule="evenodd" clip-rule="evenodd" d="M12.8125 29.3125C11.8115 29.3125 11 30.124 11 31.125C11 32.126 11.8115 32.9375 12.8125 32.9375C13.8135 32.9375 14.625 32.126 14.625 31.125C14.625 30.124 13.8135 29.3125 12.8125 29.3125ZM9 31.125C9 29.0194 10.7069 27.3125 12.8125 27.3125C14.9181 27.3125 16.625 29.0194 16.625 31.125C16.625 33.2306 14.9181 34.9375 12.8125 34.9375C10.7069 34.9375 9 33.2306 9 31.125Z" fill="currentColor"/>
<path fill-rule="evenodd" clip-rule="evenodd" d="M26.8125 10.75C25.8115 10.75 25 11.5615 25 12.5625C25 13.5635 25.8115 14.375 26.8125 14.375C27.8135 14.375 28.625 13.5635 28.625 12.5625C28.625 11.5615 27.8135 10.75 26.8125 10.75ZM23 12.5625C23 10.4569 24.7069 8.75 26.8125 8.75C28.9181 8.75 30.625 10.4569 30.625 12.5625C30.625 14.6681 28.9181 16.375 26.8125 16.375C24.7069 16.375 23 14.6681 23 12.5625Z" fill="currentColor"/>
</g>
</svg>












