<svg width="10" height="12" viewBox="0 0 10 12" fill="none" xmlns="http://www.w3.org/2000/svg">
<path d="M9.02649 3.375C9.02649 2.33906 8.18496 1.5 7.14597 1.5C6.10698 1.5 5.26545 2.33906 5.26545 3.375C5.26545 4.22813 5.83666 4.94766 6.61707 5.175C6.60297 5.55234 6.51835 5.84297 6.3585 6.03984C5.9965 6.48984 5.19963 6.56484 4.35575 6.64219C3.69287 6.70312 3.00648 6.76875 2.44467 7.03828V3.66328C3.20863 3.42422 3.76104 2.71406 3.76104 1.875C3.76104 0.839062 2.91951 0 1.88052 0C0.841532 0 0 0.839062 0 1.875C0 2.71406 0.552402 3.42422 1.31636 3.66328V8.33438C0.552402 8.57578 0 9.28594 0 10.125C0 11.1609 0.841532 12 1.88052 12C2.91951 12 3.76104 11.1609 3.76104 10.125C3.76104 9.32812 3.2627 8.64609 2.55751 8.37656C2.63038 8.25469 2.74086 8.14688 2.90775 8.0625C3.28856 7.87031 3.85741 7.81875 4.46153 7.7625C5.4535 7.67109 6.57711 7.56562 7.24 6.74531C7.56909 6.3375 7.73598 5.8125 7.74774 5.15391C8.49054 4.90078 9.02649 4.2 9.02649 3.375ZM1.88052 1.5C2.08738 1.5 2.25662 1.66875 2.25662 1.875C2.25662 2.08125 2.08738 2.25 1.88052 2.25C1.67366 2.25 1.50441 2.08125 1.50441 1.875C1.50441 1.66875 1.67366 1.5 1.88052 1.5ZM1.88052 10.5C1.67366 10.5 1.50441 10.3313 1.50441 10.125C1.50441 9.91875 1.67366 9.75 1.88052 9.75C2.08738 9.75 2.25662 9.91875 2.25662 10.125C2.25662 10.3313 2.08738 10.5 1.88052 10.5ZM7.14597 3C7.35283 3 7.52207 3.16875 7.52207 3.375C7.52207 3.58125 7.35283 3.75 7.14597 3.75C6.93911 3.75 6.76987 3.58125 6.76987 3.375C6.76987 3.16875 6.93911 3 7.14597 3Z" fill="#7147E8"/>
</svg>
