<svg width="24" height="24" viewBox="0 0 24 24" fill="none" xmlns="http://www.w3.org/2000/svg">
<path d="M2.40002 4C2.40002 1.79086 4.19089 0 6.40002 0H14.4L21.6 7.2V20C21.6 22.2091 19.8092 24 17.6 24H6.40002C4.19088 24 2.40002 22.2091 2.40002 20V4Z" fill="#155EEF"/>
<path opacity="0.3" d="M14.4 0L21.6 7.2H18.4C16.1909 7.2 14.4 5.40914 14.4 3.2V0Z" fill="white"/>
<g clip-path="url(#clip0_7_5397)">
<path d="M12 18.4C14.2091 18.4 16 16.6091 16 14.4C16 12.1908 14.2091 10.4 12 10.4C9.79086 10.4 8 12.1908 8 14.4C8 16.6091 9.79086 18.4 12 18.4Z" stroke="white" stroke-linecap="round" stroke-linejoin="round"/>
<path d="M11 13.1861C11 12.9952 11 12.8997 11.0399 12.8464C11.0747 12.8 11.1279 12.7709 11.1858 12.7668C11.2522 12.7621 11.3324 12.8137 11.493 12.9169L13.3813 14.1308C13.5206 14.2204 13.5903 14.2652 13.6144 14.3221C13.6354 14.3719 13.6354 14.428 13.6144 14.4778C13.5903 14.5348 13.5206 14.5796 13.3813 14.6691L11.493 15.883C11.3324 15.9862 11.2522 16.0379 11.1858 16.0331C11.1279 16.029 11.0747 15.9999 11.0399 15.9535C11 15.9002 11 15.8047 11 15.6138V13.1861Z" stroke="white" stroke-linecap="round" stroke-linejoin="round"/>
</g>
<defs>
<clipPath id="clip0_7_5397">
<rect width="9.6" height="9.6" fill="white" transform="translate(7.19995 9.59998)"/>
</clipPath>
</defs>
</svg>
