<svg width="64" height="64" viewBox="0 0 64 64" fill="none" xmlns="http://www.w3.org/2000/svg">
<rect width="64" height="64" rx="17.5" fill="#ECFDF3"/>
<path d="M23.9215 20.4162C25.116 20.5622 26.2676 21.0263 27.2387 21.7912C26.2246 20.9919 25.0215 20.5193 23.7582 20.399C23.5605 20.3818 23.3629 20.3732 23.1652 20.3646C19.4184 20.3646 16.3848 23.5529 16.3848 27.4802C16.3848 31.4076 19.4184 34.5958 23.1652 34.5958H42.1488C45.148 34.5958 47.5715 32.0435 47.5715 28.8982C47.5715 26.2341 45.827 23.9997 43.4723 23.381L43.4809 23.3638C43.1887 17.4857 38.4105 12.9654 32.8074 13.2747C28.7082 13.4982 25.1332 16.2997 23.7668 20.3646L23.7582 20.399C23.8184 20.4076 23.8699 20.4076 23.9215 20.4162Z" fill="white"/>
<path d="M42.149 35.9785H23.174C18.6795 35.9785 15.0186 32.1715 15.0186 27.4879C15.0186 22.9246 18.4904 19.1949 22.8217 19.0059C24.5748 14.8981 28.3732 12.1481 32.7389 11.9074C35.7209 11.7441 38.6084 12.7754 40.8771 14.8121C43.06 16.7801 44.4264 19.4441 44.7873 22.3918C47.2881 23.4746 48.9639 26.027 48.9639 28.9059C48.9553 32.8074 45.9045 35.9785 42.149 35.9785ZM23.1654 21.7387C20.192 21.7387 17.7686 24.3168 17.7686 27.4793C17.7686 30.6418 20.192 33.2199 23.174 33.2199H42.1576C44.392 33.2199 46.2053 31.2863 46.2053 28.8973C46.2053 26.9207 44.9506 25.202 43.1545 24.7207C42.7506 24.652 40.8342 24.5832 40.267 24.5832V21.8332C40.2842 21.8332 41.0662 21.8418 41.917 21.8762C41.5045 19.9254 40.5162 18.1723 39.0381 16.8488C37.3279 15.302 35.1451 14.5199 32.8936 14.6488C29.8342 14.8207 27.1271 16.634 25.6748 19.4012C26.5084 19.6848 27.299 20.0973 28.0123 20.6387C28.0381 20.6559 28.0639 20.6816 28.0896 20.6988L26.3967 22.8645C25.6232 22.2629 24.7123 21.8848 23.7584 21.7731C23.7498 21.7731 23.7498 21.7731 23.7412 21.7731C23.7068 21.7731 23.6725 21.7645 23.6467 21.7645C23.6467 21.7645 23.6467 21.7645 23.6381 21.7645H23.6295C23.4576 21.7473 23.3115 21.7473 23.1654 21.7387Z" fill="#027A48"/>
<path d="M30.6079 34.3965H33.3579V47.6824H30.6079V34.3965Z" fill="#027A48"/>
<path d="M31.9829 50.7324C33.6678 50.7324 35.0337 49.3665 35.0337 47.6816C35.0337 45.9967 33.6678 44.6309 31.9829 44.6309C30.298 44.6309 28.9321 45.9967 28.9321 47.6816C28.9321 49.3665 30.298 50.7324 31.9829 50.7324Z" fill="#DDEEFF"/>
<path d="M31.9829 52.1074C29.5423 52.1074 27.5571 50.1223 27.5571 47.6816C27.5571 45.241 29.5423 43.2559 31.9829 43.2559C34.4235 43.2559 36.4087 45.241 36.4087 47.6816C36.4087 50.1223 34.4235 52.1074 31.9829 52.1074ZM31.9829 46.0145C31.0548 46.0145 30.3071 46.7621 30.3071 47.6902C30.3071 48.6184 31.0634 49.366 31.9829 49.366C32.911 49.366 33.6587 48.6184 33.6587 47.6902C33.6587 46.7621 32.911 46.0145 31.9829 46.0145Z" fill="#027A48"/>
<path d="M24.7984 44.5793H18.5508V41.8293H23.432V34.4043H26.182V43.2043C26.1734 43.9605 25.5633 44.5793 24.7984 44.5793Z" fill="#027A48"/>
<path d="M16.3164 46.2539C18.0013 46.2539 19.3672 44.888 19.3672 43.2031C19.3672 41.5182 18.0013 40.1523 16.3164 40.1523C14.6315 40.1523 13.2656 41.5182 13.2656 43.2031C13.2656 44.888 14.6315 46.2539 16.3164 46.2539Z" fill="#DDEEFF"/>
<path d="M16.3164 47.6211C13.8758 47.6211 11.8906 45.6359 11.8906 43.1953C11.8906 40.7547 13.8758 38.7695 16.3164 38.7695C18.757 38.7695 20.7422 40.7633 20.7422 43.2039C20.7422 45.6359 18.757 47.6211 16.3164 47.6211ZM16.3164 41.5281C15.3883 41.5281 14.6406 42.2758 14.6406 43.2039C14.6406 44.132 15.3969 44.8797 16.3164 44.8797C17.2445 44.8797 17.9922 44.132 17.9922 43.2039C17.9922 42.2758 17.2445 41.5281 16.3164 41.5281Z" fill="#027A48"/>
<path d="M45.4491 44.5801H39.1929C38.4366 44.5801 37.8179 43.9613 37.8179 43.2051V34.3965H40.5679V41.8215H45.4491V44.5801Z" fill="#027A48"/>
<path d="M47.6836 46.2559C49.3685 46.2559 50.7344 44.89 50.7344 43.2051C50.7344 41.5202 49.3685 40.1543 47.6836 40.1543C45.9987 40.1543 44.6328 41.5202 44.6328 43.2051C44.6328 44.89 45.9987 46.2559 47.6836 46.2559Z" fill="#DDEEFF"/>
<path d="M47.6836 47.623C45.243 47.623 43.2578 45.6379 43.2578 43.1973C43.2578 40.7566 45.243 38.7715 47.6836 38.7715C50.1242 38.7715 52.1094 40.7652 52.1094 43.2059C52.1094 45.6379 50.1242 47.623 47.6836 47.623ZM47.6836 41.5301C46.7555 41.5301 46.0078 42.2777 46.0078 43.2059C46.0078 44.134 46.7641 44.8816 47.6836 44.8816C48.6117 44.8816 49.3594 44.134 49.3594 43.2059C49.3594 42.2777 48.6031 41.5301 47.6836 41.5301Z" fill="#027A48"/>
<path d="M30.4272 28.7422H33.564V31.4922H30.4272V28.7422Z" fill="#027A48"/>
<path d="M37.3022 28.7422H40.439V31.4922H37.3022V28.7422Z" fill="#027A48"/>
<path d="M23.5522 28.7422H26.689V31.4922H23.5522V28.7422Z" fill="#027A48"/>
</svg>
