<svg width="25" height="25" viewBox="0 0 25 25" fill="none" xmlns="http://www.w3.org/2000/svg">
<g clip-path="url(#clip0_6713_202641)">
<path d="M21.0938 24.2171H3.90625C1.75234 24.2171 0 22.4648 0 20.3109C0 19.6424 0.171973 18.9826 0.497461 18.4023L9.08911 2.78097C9.09062 2.77823 9.09214 2.77555 9.09365 2.77281C10.5859 0.119837 14.4135 0.11886 15.9064 2.77281C15.9079 2.7755 15.9094 2.77823 15.9109 2.78097L24.5026 18.4022C24.828 18.9825 25 19.6424 25 20.3109C25 22.4648 23.2477 24.2171 21.0938 24.2171ZM10.798 3.72667L2.20674 19.3472C2.20522 19.35 2.20371 19.3527 2.2022 19.3554C2.03926 19.645 1.95312 19.9755 1.95312 20.3109C1.95312 21.3878 2.8293 22.264 3.90625 22.264H21.0938C22.1707 22.264 23.0469 21.3878 23.0469 20.3109C23.0469 19.9754 22.9607 19.645 22.7978 19.3554C22.7963 19.3527 22.7948 19.35 22.7933 19.3472L14.2021 3.72692C13.4545 2.40426 11.5465 2.40275 10.798 3.72667Z" fill="#F59638"/>
<path d="M12.5 15.428C11.9606 15.428 11.5234 14.9908 11.5234 14.4514V8.59204C11.5234 8.05269 11.9606 7.61548 12.5 7.61548C13.0394 7.61548 13.4766 8.05269 13.4766 8.59204V14.4514C13.4766 14.9908 13.0394 15.428 12.5 15.428Z" fill="#F59638"/>
<path d="M12.5 19.3342C13.0393 19.3342 13.4766 18.897 13.4766 18.3577C13.4766 17.8183 13.0393 17.3811 12.5 17.3811C11.9607 17.3811 11.5234 17.8183 11.5234 18.3577C11.5234 18.897 11.9607 19.3342 12.5 19.3342Z" fill="#F59638"/>
</g>
<defs>
<clipPath id="clip0_6713_202641">
<rect width="25" height="25" fill="white"/>
</clipPath>
</defs>
</svg>
