<svg xmlns="http://www.w3.org/2000/svg" width="682.667" height="682.667" version="1.0" viewBox="0 0 512 512"><g fill="#7147E8"><path d="M246.9 60.6c-23.1 4.1-45.2 17.8-59.6 36.8-6.3 8.3-13.7 24.2-16.5 35.1-3.1 12.5-3.1 35.3 0 46.7 4.7 17.4 12.7 32.3 23.9 44.7l4.9 5.4-24.2 39.6-24.3 39.6-7.8.1c-9.7.1-16.7 2.3-23.4 7.4-20.2 15.2-22.3 43.7-4.5 61.6 23.4 23.3 61.6 11 67.7-21.8 1.4-7.8.3-15-3.6-23.5-1.9-4.3-2.2-5.9-1.4-7.4.6-1.1 15.2-25 32.5-53.1s31.4-51.1 31.4-51.3c0-.1-3.3-2.2-7.2-4.6-8.7-5.1-20-16.2-24.7-24.2-7.8-13.2-11.1-28.9-9.1-43.5 2.1-15.5 7.3-26.5 17.9-37.5 22.9-23.8 58.4-26 85.8-5.3 11.6 8.8 21.4 24.1 24.9 39.1 2.6 11.2 1.6 27.7-2.4 38.2l-3 8.3 5.6 3.3c12.8 7.7 20.4 11.9 20.8 11.5 1.3-1.3 6.7-14.9 8.4-21 6.5-24.1 4.2-47.7-7-70.3-19.5-39.6-62.5-61.7-105.1-53.9z"/><path d="M254 117.4c-11.4 3.1-22.9 12.5-27.1 22.3-10.9 25.2 6.2 53.9 33.2 56l7.4.6 27 49.9c14.9 27.5 27.3 50.4 27.6 50.9.3.6 4.6-1.1 10-4 18.7-9.9 36.7-11.4 56.1-4.7 10 3.5 17.1 8.1 25.4 16.3 15.9 15.7 22.4 38.5 17.2 60.3-3.9 16.8-18 34.1-33.8 41.9-11.3 5.5-19.4 7.4-31 7.4-21.6-.1-41-9.2-53.9-25.4l-4.5-5.6-12 7c-6.7 3.8-12.5 7.3-13 7.8-1.1 1 .9 4.2 8.2 13.2 11.3 14 29.5 25.7 48.7 31.3 11.2 3.2 31.2 4.4 43.2 2.4 53-8.5 89.9-59.2 80.8-111.1-2.8-16.4-8.5-29.5-18.5-42.7-13.2-17.6-32.1-30-54.5-35.8-15.8-4.1-35.5-3.7-53 1.1-1.7.4-4.5-4.1-22-36.7l-20.1-37.3 3.4-5.5c4.8-8.1 6.6-15 5.9-23.6-1.8-24.4-27.3-42.4-50.7-36z"/><path d="M127.7 252.6c-20.7 3.7-38.6 13.3-53.3 28.5-38.4 39.8-37.2 103.2 2.7 140.2 13.8 12.9 32.4 21.9 50.9 24.8 10.4 1.6 28.5.7 39-2.1 20.9-5.4 41-18.6 53.6-35.3 6.3-8.4 14.9-26.4 17.2-36.2l1.9-8 43.5-.3 43.5-.2 1.9 4.2c1 2.4 4.1 6.7 6.9 9.7 19.2 20.5 52.5 15.1 65.2-10.7 3.6-7.3 3.8-8 3.8-17.6 0-9.3-.3-10.7-3.2-16.8-12.2-25.8-45.6-31.2-64.9-10.6-2.7 2.9-5.6 6.4-6.5 7.8l-1.6 2.5-59.4.5-59.4.5-.6 14.5c-.5 11.3-1.1 15.8-2.7 20.4-3.8 10.3-9.3 18.8-17.2 26.7-6.3 6.3-9.4 8.5-17.1 12.2-12.2 5.8-18.1 7.2-30.9 7.1-8.7-.1-11.9-.6-18.5-2.8-19.9-6.8-34.6-21.6-40.8-41.1-1.8-5.9-2.2-9.3-2.2-21 0-12.6.3-14.7 2.7-21.3 4-11 8.4-17.8 17.4-26.9 6.7-6.7 9.8-8.9 17.5-12.7 6-2.9 12-5 16.7-5.8l7.2-1.2v-12.2c0-6.7-.3-13.6-.6-15.3-.7-3.6-1-3.6-12.7-1.5z"/></g></svg>