<svg width="717" height="539" viewBox="0 0 717 539" fill="none" xmlns="http://www.w3.org/2000/svg">
<g clip-path="url(#clip0_15011_110604)">
<mask id="mask0_15011_110604" style="mask-type:luminance" maskUnits="userSpaceOnUse" x="0" y="0" width="717" height="539">
<path d="M717 0H0V539H717V0Z" fill="white"/>
</mask>
<g mask="url(#mask0_15011_110604)">
<g opacity="0.5">
<path fill-rule="evenodd" clip-rule="evenodd" d="M517 175.345L532.152 167L534.704 168.406L522.617 175.111L532.152 180.362L544.239 173.657L547.304 175.345L532.152 183.69L517 175.345Z" fill="#00D2FF"/>
<path fill-rule="evenodd" clip-rule="evenodd" d="M517 188.655L521.394 186.278L523.946 187.684L522.617 188.422L532.152 193.673L544.239 186.967L547.304 188.655L532.152 197L517 188.655Z" fill="#016AFB"/>
<path fill-rule="evenodd" clip-rule="evenodd" d="M517 182L521.394 179.623L523.946 181.029L522.617 181.767L532.152 187.017L544.239 180.312L547.304 182L532.152 190.345L517 182Z" fill="#03A0FF"/>
</g>
<path d="M697.17 212.218H510.987C503.4 212.218 497.229 206.05 497.229 198.47V164.288C497.229 156.708 503.4 150.541 510.987 150.541H697.17C704.757 150.541 710.93 156.708 710.93 164.288V198.47C710.93 206.05 704.757 212.218 697.17 212.218ZM510.987 152.916C504.712 152.916 499.605 158.017 499.605 164.288V198.47C499.605 204.74 504.712 209.842 510.987 209.842H697.17C703.446 209.842 708.554 204.74 708.554 198.47V164.288C708.554 158.017 703.446 152.916 697.17 152.916H510.987Z" fill="#D1E0FF"/>
<path d="M664.855 170.007H561.897C561.24 170.007 560.708 169.476 560.708 168.819C560.708 168.162 561.24 167.631 561.897 167.631H664.855C665.512 167.631 666.044 168.162 666.044 168.819C666.044 169.476 665.512 170.007 664.855 170.007Z" fill="#D1E0FF"/>
<path d="M664.855 196.99H561.897C561.24 196.99 560.708 196.459 560.708 195.802C560.708 195.145 561.24 194.616 561.897 194.616H664.855C665.512 194.616 666.044 195.145 666.044 195.802C666.044 196.459 665.512 196.99 664.855 196.99Z" fill="#D1E0FF"/>
<path d="M680.57 183.498H561.897C561.24 183.498 560.708 182.967 560.708 182.31C560.708 181.654 561.24 181.124 561.897 181.124H680.57C681.228 181.124 681.759 181.654 681.759 182.31C681.759 182.967 681.228 183.498 680.57 183.498Z" fill="#D1E0FF"/>
<path d="M478.025 252.815H233.812C233.155 252.815 232.625 252.284 232.625 251.627V74.0813C232.625 73.4245 233.155 72.8952 233.812 72.8952H478.025C478.682 72.8952 479.214 73.4245 479.214 74.0813V251.627C479.214 252.284 478.682 252.815 478.025 252.815ZM235.001 250.439H476.836V75.269H235.001V250.439Z" fill="#D1E0FF"/>
<path d="M268.807 75.269H261.362C260.705 75.269 260.173 74.738 260.173 74.0812V64.9061C260.173 62.2007 262.376 60 265.084 60C267.793 60 269.996 62.2007 269.996 64.9061V74.0812C269.996 74.738 269.464 75.269 268.807 75.269ZM262.549 72.8951H267.62V64.9061C267.62 63.5093 266.482 62.3755 265.084 62.3755C263.686 62.3755 262.549 63.5093 262.549 64.9061V72.8951Z" fill="#D1E0FF"/>
<path d="M450.48 75.269H443.034C442.377 75.269 441.845 74.738 441.845 74.0812V64.9061C441.845 62.2007 444.048 60 446.757 60C449.465 60 451.668 62.2007 451.668 64.9061V74.0812C451.668 74.738 451.138 75.269 450.48 75.269ZM444.223 72.8951H449.292V64.9061C449.292 63.5093 448.155 62.3755 446.757 62.3755C445.359 62.3755 444.223 63.5093 444.223 64.9061V72.8951Z" fill="#D1E0FF"/>
<path d="M284.108 122.938H255.383C254.726 122.938 254.196 122.409 254.196 121.752V93.0507C254.196 92.3939 254.726 91.8629 255.383 91.8629H284.108C284.766 91.8629 285.297 92.3939 285.297 93.0507V121.752C285.297 122.409 284.766 122.938 284.108 122.938ZM256.572 120.565H282.921V94.2384H256.572V120.565Z" fill="#D1E0FF"/>
<path d="M284.108 151.64H255.383C254.726 151.64 254.196 151.109 254.196 150.452V121.752C254.196 121.096 254.726 120.565 255.383 120.565H284.108C284.766 120.565 285.297 121.096 285.297 121.752V150.452C285.297 151.109 284.766 151.64 284.108 151.64ZM256.572 149.266H282.921V122.938H256.572V149.266Z" fill="#D1E0FF"/>
<path d="M284.108 180.34H255.383C254.726 180.34 254.196 179.809 254.196 179.152V150.452C254.196 149.796 254.726 149.266 255.383 149.266H284.108C284.766 149.266 285.297 149.796 285.297 150.452V179.152C285.297 179.809 284.766 180.34 284.108 180.34ZM256.572 177.966H282.921V151.64H256.572V177.966Z" fill="#D1E0FF"/>
<path d="M284.108 209.042H255.383C254.726 209.042 254.196 208.511 254.196 207.854V179.152C254.196 178.496 254.726 177.966 255.383 177.966H284.108C284.766 177.966 285.297 178.496 285.297 179.152V207.854C285.297 208.511 284.766 209.042 284.108 209.042ZM256.572 206.666H282.921V180.34H256.572V206.666Z" fill="#D1E0FF"/>
<path d="M284.108 237.742H255.383C254.726 237.742 254.196 237.211 254.196 236.554V207.854C254.196 207.197 254.726 206.666 255.383 206.666H284.108C284.766 206.666 285.297 207.197 285.297 207.854V236.554C285.297 237.211 284.766 237.742 284.108 237.742ZM256.572 235.366H282.921V209.042H256.572V235.366Z" fill="#D1E0FF"/>
<path d="M312.834 122.938H284.107C283.45 122.938 282.92 122.409 282.92 121.752V93.0507C282.92 92.3939 283.45 91.8629 284.107 91.8629H312.834C313.491 91.8629 314.022 92.3939 314.022 93.0507V121.752C314.022 122.409 313.491 122.938 312.834 122.938ZM285.296 120.565H311.645V94.2384H285.296V120.565Z" fill="#D1E0FF"/>
<path d="M341.558 122.938H312.834C312.176 122.938 311.645 122.409 311.645 121.752V93.0507C311.645 92.3939 312.176 91.8629 312.834 91.8629H341.558C342.216 91.8629 342.747 92.3939 342.747 93.0507V121.752C342.747 122.409 342.216 122.938 341.558 122.938ZM314.022 120.565H340.37V94.2384H314.022V120.565Z" fill="#D1E0FF"/>
<path d="M370.286 122.938H341.56C340.903 122.938 340.371 122.409 340.371 121.752V93.0507C340.371 92.3939 340.903 91.8629 341.56 91.8629H370.286C370.944 91.8629 371.473 92.3939 371.473 93.0507V121.752C371.473 122.409 370.944 122.938 370.286 122.938ZM342.749 120.565H369.098V94.2384H342.749V120.565Z" fill="#D1E0FF"/>
<path d="M399.01 122.938H370.285C369.627 122.938 369.096 122.409 369.096 121.752V93.0507C369.096 92.3939 369.627 91.8629 370.285 91.8629H399.01C399.667 91.8629 400.198 92.3939 400.198 93.0507V121.752C400.198 122.409 399.667 122.938 399.01 122.938ZM371.472 120.565H397.821V94.2384H371.472V120.565Z" fill="#D1E0FF"/>
<path d="M427.737 122.938H399.011C398.353 122.938 397.822 122.409 397.822 121.752V93.0507C397.822 92.3939 398.353 91.8629 399.011 91.8629H427.737C428.394 91.8629 428.926 92.3939 428.926 93.0507V121.752C428.926 122.409 428.394 122.938 427.737 122.938ZM400.199 120.565H426.548V94.2384H400.199V120.565Z" fill="#D1E0FF"/>
<path d="M456.459 122.938H427.736C427.078 122.938 426.547 122.409 426.547 121.752V93.0507C426.547 92.3939 427.078 91.8629 427.736 91.8629H456.459C457.116 91.8629 457.648 92.3939 457.648 93.0507V121.752C457.648 122.409 457.116 122.938 456.459 122.938ZM428.924 120.565H455.27V94.2384H428.924V120.565Z" fill="#D1E0FF"/>
<path d="M312.834 151.64H284.107C283.45 151.64 282.92 151.109 282.92 150.452V121.752C282.92 121.096 283.45 120.565 284.107 120.565H312.834C313.491 120.565 314.022 121.096 314.022 121.752V150.452C314.022 151.109 313.491 151.64 312.834 151.64ZM285.296 149.266H311.645V122.938H285.296V149.266Z" fill="#D1E0FF"/>
<path d="M341.558 151.64H312.834C312.176 151.64 311.645 151.109 311.645 150.452V121.752C311.645 121.096 312.176 120.565 312.834 120.565H341.558C342.216 120.565 342.747 121.096 342.747 121.752V150.452C342.747 151.109 342.216 151.64 341.558 151.64ZM314.022 149.266H340.37V122.938H314.022V149.266Z" fill="#D1E0FF"/>
<path d="M370.286 151.64H341.56C340.903 151.64 340.371 151.109 340.371 150.452V121.752C340.371 121.096 340.903 120.565 341.56 120.565H370.286C370.944 120.565 371.473 121.096 371.473 121.752V150.452C371.473 151.109 370.944 151.64 370.286 151.64ZM342.749 149.266H369.098V122.938H342.749V149.266Z" fill="#D1E0FF"/>
<path d="M399.01 151.64H370.285C369.627 151.64 369.096 151.109 369.096 150.452V121.752C369.096 121.096 369.627 120.565 370.285 120.565H399.01C399.667 120.565 400.198 121.096 400.198 121.752V150.452C400.198 151.109 399.667 151.64 399.01 151.64ZM371.472 149.266H397.821V122.938H371.472V149.266Z" fill="#D1E0FF"/>
<path d="M427.737 151.64H399.011C398.353 151.64 397.822 151.109 397.822 150.452V121.752C397.822 121.096 398.353 120.565 399.011 120.565H427.737C428.394 120.565 428.926 121.096 428.926 121.752V150.452C428.926 151.109 428.394 151.64 427.737 151.64ZM400.199 149.266H426.548V122.938H400.199V149.266Z" fill="#D1E0FF"/>
<path d="M456.459 151.64H427.736C427.078 151.64 426.547 151.109 426.547 150.452V121.752C426.547 121.096 427.078 120.565 427.736 120.565H456.459C457.116 120.565 457.648 121.096 457.648 121.752V150.452C457.648 151.109 457.116 151.64 456.459 151.64ZM428.924 149.266H455.27V122.938H428.924V149.266Z" fill="#D1E0FF"/>
<path d="M312.834 180.34H284.107C283.45 180.34 282.92 179.809 282.92 179.152V150.452C282.92 149.796 283.45 149.266 284.107 149.266H312.834C313.491 149.266 314.022 149.796 314.022 150.452V179.152C314.022 179.809 313.491 180.34 312.834 180.34ZM285.296 177.966H311.645V151.64H285.296V177.966Z" fill="#D1E0FF"/>
<path d="M341.558 180.34H312.834C312.176 180.34 311.645 179.809 311.645 179.152V150.452C311.645 149.796 312.176 149.266 312.834 149.266H341.558C342.216 149.266 342.747 149.796 342.747 150.452V179.152C342.747 179.809 342.216 180.34 341.558 180.34ZM314.022 177.966H340.37V151.64H314.022V177.966Z" fill="#D1E0FF"/>
<path d="M370.286 180.34H341.56C340.903 180.34 340.371 179.809 340.371 179.152V150.452C340.371 149.796 340.903 149.266 341.56 149.266H370.286C370.944 149.266 371.473 149.796 371.473 150.452V179.152C371.473 179.809 370.944 180.34 370.286 180.34ZM342.749 177.966H369.098V151.64H342.749V177.966Z" fill="#D1E0FF"/>
<path d="M399.01 180.34H370.285C369.627 180.34 369.096 179.809 369.096 179.152V150.452C369.096 149.796 369.627 149.266 370.285 149.266H399.01C399.667 149.266 400.198 149.796 400.198 150.452V179.152C400.198 179.809 399.667 180.34 399.01 180.34ZM371.472 177.966H397.821V151.64H371.472V177.966Z" fill="#D1E0FF"/>
<path d="M427.737 180.34H399.011C398.353 180.34 397.822 179.809 397.822 179.152V150.452C397.822 149.796 398.353 149.266 399.011 149.266H427.737C428.394 149.266 428.926 149.796 428.926 150.452V179.152C428.926 179.809 428.394 180.34 427.737 180.34ZM400.199 177.966H426.548V151.64H400.199V177.966Z" fill="#D1E0FF"/>
<path d="M456.459 180.34H427.736C427.078 180.34 426.547 179.809 426.547 179.152V150.452C426.547 149.796 427.078 149.266 427.736 149.266H456.459C457.116 149.266 457.648 149.796 457.648 150.452V179.152C457.648 179.809 457.116 180.34 456.459 180.34ZM428.924 177.966H455.27V151.64H428.924V177.966Z" fill="#D1E0FF"/>
<path d="M312.834 209.042H284.107C283.45 209.042 282.92 208.511 282.92 207.854V179.152C282.92 178.496 283.45 177.966 284.107 177.966H312.834C313.491 177.966 314.022 178.496 314.022 179.152V207.854C314.022 208.511 313.491 209.042 312.834 209.042ZM285.296 206.666H311.645V180.34H285.296V206.666Z" fill="#D1E0FF"/>
<path d="M341.558 209.042H312.834C312.176 209.042 311.645 208.511 311.645 207.854V179.152C311.645 178.496 312.176 177.966 312.834 177.966H341.558C342.216 177.966 342.747 178.496 342.747 179.152V207.854C342.747 208.511 342.216 209.042 341.558 209.042ZM314.022 206.666H340.37V180.34H314.022V206.666Z" fill="#D1E0FF"/>
<path d="M370.286 209.042H341.56C340.903 209.042 340.371 208.511 340.371 207.854V179.152C340.371 178.496 340.903 177.966 341.56 177.966H370.286C370.944 177.966 371.473 178.496 371.473 179.152V207.854C371.473 208.511 370.944 209.042 370.286 209.042ZM342.749 206.666H369.098V180.34H342.749V206.666Z" fill="#D1E0FF"/>
<path d="M399.01 209.042H370.285C369.627 209.042 369.096 208.511 369.096 207.854V179.152C369.096 178.496 369.627 177.966 370.285 177.966H399.01C399.667 177.966 400.198 178.496 400.198 179.152V207.854C400.198 208.511 399.667 209.042 399.01 209.042ZM371.472 206.666H397.821V180.34H371.472V206.666Z" fill="#D1E0FF"/>
<path d="M427.737 209.042H399.011C398.353 209.042 397.822 208.511 397.822 207.854V179.152C397.822 178.496 398.353 177.966 399.011 177.966H427.737C428.394 177.966 428.926 178.496 428.926 179.152V207.854C428.926 208.511 428.394 209.042 427.737 209.042ZM400.199 206.666H426.548V180.34H400.199V206.666Z" fill="#D1E0FF"/>
<path d="M456.459 209.042H427.736C427.078 209.042 426.547 208.511 426.547 207.854V179.152C426.547 178.496 427.078 177.966 427.736 177.966H456.459C457.116 177.966 457.648 178.496 457.648 179.152V207.854C457.648 208.511 457.116 209.042 456.459 209.042ZM428.924 206.666H455.27V180.34H428.924V206.666Z" fill="#D1E0FF"/>
<path d="M312.834 237.709H284.107C283.45 237.709 282.92 237.178 282.92 236.521V207.821C282.92 207.165 283.45 206.634 284.107 206.634H312.834C313.491 206.634 314.022 207.165 314.022 207.821V236.521C314.022 237.178 313.491 237.709 312.834 237.709ZM285.296 235.334H311.645V209.007H285.296V235.334Z" fill="#D1E0FF"/>
<path d="M341.558 237.709H312.834C312.176 237.709 311.645 237.178 311.645 236.521V207.821C311.645 207.165 312.176 206.634 312.834 206.634H341.558C342.216 206.634 342.747 207.165 342.747 207.821V236.521C342.747 237.178 342.216 237.709 341.558 237.709ZM314.022 235.334H340.37V209.007H314.022V235.334Z" fill="#D1E0FF"/>
<path d="M370.286 237.709H341.56C340.903 237.709 340.371 237.178 340.371 236.521V207.821C340.371 207.165 340.903 206.634 341.56 206.634H370.286C370.944 206.634 371.473 207.165 371.473 207.821V236.521C371.473 237.178 370.944 237.709 370.286 237.709ZM342.749 235.334H369.098V209.007H342.749V235.334Z" fill="#D1E0FF"/>
<path d="M355.301 114.005H273.399C270.863 114.005 268.807 111.951 268.807 109.418C268.807 106.884 270.863 104.83 273.399 104.83H355.301C357.837 104.83 359.891 106.884 359.891 109.418C359.891 111.951 357.837 114.005 355.301 114.005Z" fill="#D1E0FF"/>
<path d="M438.444 170.789H389.239C386.702 170.789 384.647 168.736 384.647 166.202C384.647 163.668 386.702 161.614 389.239 161.614H438.444C440.98 161.614 443.035 163.668 443.035 166.202C443.035 168.736 440.98 170.789 438.444 170.789Z" fill="#D1E0FF"/>
<path d="M323.073 198.215H273.868C271.332 198.215 269.278 196.161 269.278 193.627C269.278 191.093 271.332 189.04 273.868 189.04H323.073C325.609 189.04 327.665 191.093 327.665 193.627C327.665 196.161 325.609 198.215 323.073 198.215Z" fill="#D1E0FF"/>
<path d="M302.441 223.358C302.441 225.549 300.662 227.327 298.469 227.327C296.276 227.327 294.499 225.549 294.499 223.358C294.499 221.167 296.276 219.391 298.469 219.391C300.662 219.391 302.441 221.167 302.441 223.358Z" fill="#D1E0FF"/>
<g opacity="0.639651">
<path d="M181.123 243.248H21.7765C15.283 243.248 10 237.969 10 231.481V202.227C10 195.739 15.283 190.461 21.7765 190.461H181.123C187.616 190.461 192.901 195.739 192.901 202.227V231.481C192.901 237.969 187.616 243.248 181.123 243.248ZM21.7765 192.492C16.404 192.492 12.0334 196.859 12.0334 202.227V231.481C12.0334 236.849 16.404 241.216 21.7765 241.216H181.123C186.495 241.216 190.866 236.849 190.866 231.481V202.227C190.866 196.859 186.495 192.492 181.123 192.492H21.7765Z" fill="#D1E0FF"/>
<path d="M153.466 207.12H65.349C64.7864 207.12 64.3315 206.667 64.3315 206.104C64.3315 205.542 64.7864 205.088 65.349 205.088H153.466C154.029 205.088 154.484 205.542 154.484 206.104C154.484 206.667 154.029 207.12 153.466 207.12Z" fill="#D1E0FF"/>
<path d="M153.466 230.215H65.349C64.7864 230.215 64.3315 229.76 64.3315 229.198C64.3315 228.636 64.7864 228.182 65.349 228.182H153.466C154.029 228.182 154.484 228.636 154.484 229.198C154.484 229.76 154.029 230.215 153.466 230.215Z" fill="#D1E0FF"/>
<path d="M166.917 218.668H65.349C64.7864 218.668 64.3315 218.213 64.3315 217.651C64.3315 217.089 64.7864 216.635 65.349 216.635H166.917C167.479 216.635 167.934 217.089 167.934 217.651C167.934 218.213 167.479 218.668 166.917 218.668Z" fill="#D1E0FF"/>
<g opacity="0.7">
<path fill-rule="evenodd" clip-rule="evenodd" d="M22 210.345L37.1522 202L39.7044 203.406L27.6172 210.111L37.1515 215.362L49.2387 208.657L52.3037 210.345L37.1522 218.69L22 210.345Z" fill="#00D2FF"/>
<path fill-rule="evenodd" clip-rule="evenodd" d="M22 223.655L26.3942 221.278L28.9464 222.684L27.6172 223.422L37.1515 228.673L49.2387 221.967L52.3037 223.655L37.1522 232L22 223.655Z" fill="#016AFB"/>
<path fill-rule="evenodd" clip-rule="evenodd" d="M22 217L26.3942 214.623L28.9464 216.029L27.6172 216.767L37.1515 222.017L49.2387 215.312L52.3037 217L37.1522 225.345L22 217Z" fill="#03A0FF"/>
</g>
</g>
<path d="M156.808 471.009C156.808 474.168 154.244 476.729 151.083 476.729C147.922 476.729 145.358 474.168 145.358 471.009C145.358 467.851 147.922 465.29 151.083 465.29C154.244 465.29 156.808 467.851 156.808 471.009Z" fill="#7147E8"/>
<path d="M197.363 467.293H151.611C150.954 467.293 150.423 466.762 150.423 466.105C150.423 465.448 150.954 464.919 151.611 464.919H197.363C198.02 464.919 198.55 465.448 198.55 466.105C198.55 466.762 198.02 467.293 197.363 467.293Z" fill="black"/>
<path d="M173.896 465.978C173.238 465.978 172.707 465.447 172.707 464.79V368.927C172.707 368.27 173.238 367.739 173.896 367.739C174.553 367.739 175.084 368.27 175.084 368.927V464.79C175.084 465.447 174.553 465.978 173.896 465.978Z" fill="black"/>
<path d="M202.923 471.009C202.923 474.168 200.361 476.729 197.2 476.729C194.04 476.729 191.476 474.168 191.476 471.009C191.476 467.851 194.04 465.29 197.2 465.29C200.361 465.29 202.923 467.851 202.923 471.009Z" fill="#7147E8"/>
<path d="M140.494 382.717H211.037V375.602H138.544L140.494 382.717Z" fill="#7147E8"/>
<path d="M138.596 375.602L113.751 291.971H191.369L174.914 375.602H138.596Z" fill="#9747FF"/>
<path d="M230.42 458.56L238.141 472.526L243.088 472.756L246.407 474.795C246.765 475.014 247.004 475.399 247.035 475.806C247.082 476.435 246.625 476.92 246.013 476.891L237.275 476.468L231.27 466.819C231.27 466.819 229.985 465.92 229.851 467.226C229.745 468.26 230.225 473.246 230.432 475.277C230.479 475.751 230.167 476.125 229.738 476.103C229.331 476.084 228.968 475.711 228.917 475.259L227.91 466.12C227.91 466.12 225.238 459.859 230.42 458.56Z" fill="#FF4054"/>
<path d="M238.142 472.526L243.088 472.756L240.516 451.958L230.42 458.56L238.142 472.526Z" fill="#FFC3DB"/>
<path d="M240.514 451.958L239.602 443.295L221.905 442.625L230.419 458.56L240.514 451.958Z" fill="#FFC3DB"/>
<path d="M182.156 453.473L181.781 469.423L185.938 472.112L187.776 475.545C187.974 475.914 187.985 476.37 187.807 476.736C187.53 477.303 186.891 477.491 186.378 477.157L179.044 472.392L178.725 461.034C178.725 461.034 178.066 459.611 177.293 460.671C176.68 461.511 174.582 466.059 173.735 467.917C173.537 468.351 173.077 468.515 172.718 468.281C172.376 468.059 172.252 467.554 172.436 467.139L176.176 458.737C176.176 458.737 177.025 451.986 182.156 453.473Z" fill="#FF4054"/>
<path d="M181.783 469.423L185.939 472.112L194.208 452.855L182.157 453.473L181.783 469.423Z" fill="#FFC3DB"/>
<path d="M194.207 452.855L197.79 444.912L182.841 435.422L182.156 453.473L194.207 452.855Z" fill="#FFC3DB"/>
<path d="M181.99 342.891C189.893 344.775 199.401 346.895 207.234 349.044C214.764 351.109 222.967 351.491 230.254 354.285C233.913 355.688 237.342 358.044 239.285 361.446C240.792 364.087 241.314 367.169 241.652 370.191C242.838 380.779 242.573 391.557 243.144 402.193C243.804 414.498 244.47 426.804 245.168 439.106C245.327 441.886 245.483 444.667 245.642 447.448L216.968 448.353L206.982 362.736L181.99 342.891Z" fill="#D1E0FF"/>
<path d="M222.864 288.938C222.864 288.938 223.078 291.333 224.079 292.23C224.154 292.299 224.232 292.366 224.311 292.435C224.324 292.99 224.437 293.542 224.684 294.065C225.029 294.799 225.276 295.555 225.542 296.316C225.145 296.486 224.826 296.625 224.797 296.638C224.71 296.677 220.929 298.231 220.929 298.231L218.486 299.684L215.731 293.431L222.864 288.938Z" fill="#FFC3DB"/>
<path d="M218.551 291.655L221.976 288.917L225.917 283.771C226.597 283.967 227.008 284.534 226.878 285.099L226.494 286.78C226.277 287.729 227.084 288.693 228.281 288.811C228.298 288.813 228.312 288.814 228.329 288.816L218.551 291.655Z" fill="#FFC3DB"/>
<path d="M221.739 291.373L222.068 290.152L225.711 288.737L226.264 289.221L230.445 287.77C230.638 287.87 231.019 288.104 231.248 288.548C231.547 289.131 231.389 289.701 231.325 289.894C231.035 290.007 230.746 290.118 230.457 290.231C230.517 290.234 231.176 290.289 231.431 290.786C231.617 291.149 231.519 291.606 231.178 291.971C231.304 291.992 231.792 292.09 232.056 292.485C232.45 293.075 231.964 293.773 231.938 293.81C231.634 293.928 231.331 294.045 231.027 294.163C231.461 294.181 231.814 294.387 231.941 294.702C232.093 295.076 231.907 295.544 231.475 295.854C230.195 296.145 228.915 296.434 227.634 296.725L217.078 299.739L221.739 291.373Z" fill="#FFC3DB"/>
<path d="M230.457 290.231L227.205 291.495C226.376 291.82 226.039 292.629 226.45 293.314L226.811 293.916L227.141 293.601L229.156 292.756L230.457 290.231Z" fill="#FFC3DB"/>
<path d="M226.81 294.392C226.789 294.392 226.769 294.389 226.748 294.387C226.604 294.367 226.478 294.284 226.403 294.16L226.041 293.557C225.785 293.129 225.729 292.642 225.886 292.185C226.056 291.683 226.473 291.27 227.031 291.052L230.285 289.788C230.527 289.692 230.806 289.812 230.901 290.059C230.996 290.303 230.875 290.579 230.63 290.673L227.376 291.938C227.081 292.052 226.867 292.255 226.785 292.492C226.72 292.681 226.746 292.882 226.857 293.07L226.923 293.178C226.934 293.173 226.944 293.168 226.956 293.163L228.972 292.319C229.209 292.217 229.49 292.33 229.593 292.573C229.694 292.815 229.58 293.093 229.338 293.194L227.405 294.005L227.14 294.258C227.05 294.344 226.933 294.392 226.81 294.392Z" fill="#FF7799"/>
<path d="M231.177 291.971L227.51 293.395C226.826 293.662 226.478 294.325 226.759 294.825C227.001 295.256 227.631 295.416 228.224 295.197L231.027 294.163L231.177 291.971Z" fill="#FFC3DB"/>
<path d="M227.685 295.771C227.114 295.771 226.604 295.514 226.346 295.057C226.164 294.733 226.138 294.356 226.269 293.992C226.434 293.531 226.825 293.152 227.34 292.952L231.006 291.528C231.245 291.43 231.526 291.554 231.622 291.799C231.717 292.042 231.596 292.319 231.351 292.413L227.683 293.838C227.433 293.936 227.234 294.117 227.163 294.313C227.126 294.418 227.129 294.511 227.175 294.593C227.283 294.782 227.652 294.9 228.063 294.751L230.865 293.719C231.114 293.622 231.385 293.753 231.475 293.998C231.567 294.245 231.441 294.519 231.194 294.609L228.391 295.642C228.154 295.728 227.916 295.771 227.685 295.771Z" fill="#FF7799"/>
<path d="M228.67 295.032L227.822 295.346C227.47 295.475 227.272 295.8 227.379 296.071C227.449 296.253 227.598 296.392 227.787 296.473C227.993 296.563 228.248 296.586 228.512 296.525L228.67 295.032Z" fill="#FFC3DB"/>
<path d="M228.223 297.034C228.004 297.034 227.791 296.993 227.6 296.911C227.286 296.774 227.05 296.539 226.936 296.243C226.848 296.017 226.856 295.763 226.96 295.527C227.086 295.245 227.34 295.018 227.657 294.9L228.507 294.588C228.753 294.493 229.026 294.624 229.116 294.869C229.207 295.116 229.081 295.388 228.834 295.478L227.986 295.79C227.876 295.833 227.829 295.901 227.825 295.923C227.85 295.97 227.92 296.016 227.976 296.039C228.094 296.089 228.249 296.099 228.407 296.063C228.667 296.009 228.919 296.168 228.977 296.423C229.034 296.679 228.872 296.932 228.617 296.989C228.486 297.019 228.354 297.034 228.223 297.034Z" fill="#FF7799"/>
<path d="M229.197 288.131L225.013 289.687L225.229 290.146C225.642 291.021 226.833 291.495 227.92 291.217L229.313 290.711L229.197 288.131Z" fill="#FFC3DB"/>
<path d="M227.29 291.765C226.211 291.765 225.21 291.216 224.8 290.347L224.584 289.889C224.527 289.768 224.523 289.631 224.574 289.507C224.625 289.384 224.723 289.286 224.847 289.241L229.033 287.685C229.283 287.595 229.555 287.72 229.645 287.965C229.736 288.21 229.609 288.484 229.363 288.576L225.665 289.951C225.984 290.616 226.935 290.981 227.803 290.758L229.152 290.263C229.398 290.173 229.672 290.301 229.762 290.548C229.852 290.793 229.725 291.067 229.478 291.157L228.083 291.663C227.82 291.73 227.552 291.765 227.29 291.765Z" fill="#FF7799"/>
<path d="M190.286 300.897L191.224 305.148L215.21 292.627L220.479 300.959L196.004 320.412C190.874 324.492 183.601 324.48 178.485 320.383L175.167 317.444L185.446 302.572C186.695 300.692 187.705 299.007 187.174 296.813L187.002 296.104L190.286 300.897Z" fill="#223F6B"/>
<path d="M168.614 271.931C168.614 271.931 178.365 271.933 175.68 252.731L167.484 244.26C167.484 244.26 155.991 241.341 154.578 258.095C154.578 258.095 151.687 257.299 151.107 260.098C150.526 262.896 152.977 264.12 155.332 264.025L155.049 280.402C155.049 280.402 155.723 287.612 162.589 289.785C165.256 290.629 168.178 290.464 170.75 289.362C173.122 288.344 177.714 285.602 177.51 281.926L169.368 281.575L168.614 271.931Z" fill="#FFC3DB"/>
<path d="M155.032 279.76C154.918 279.67 154.018 279.626 153.873 279.629C148.696 279.731 143.393 279.724 138.337 280.989C135.389 283.87 132.23 286.2 132.23 290.321L144.13 305.893C144.13 305.893 137.026 313.242 146.501 309.548L147.909 335.088C160.906 335.088 169.363 335.008 180.106 334.956L188.546 310.724C189.609 307.57 189.743 304.176 188.935 300.946L190.286 300.897C189.362 298.484 188.407 296.084 187.573 293.64C186.278 289.845 184.063 285.86 181.435 282.83C180.704 281.988 179.885 281.193 178.882 280.706C177.437 280.005 175.686 280.275 174.226 280.819C173.15 281.221 173.361 282.676 173.19 283.588C172.95 284.874 172.278 285.903 171.093 286.53C169.827 287.2 168.342 287.301 166.911 287.27C164.351 287.215 161.757 286.77 159.481 285.599C157.205 284.428 156.007 282.514 155.21 280.083C155.173 279.967 155.133 279.845 155.032 279.76Z" fill="#223F6B"/>
<path d="M154.579 258.095C154.579 258.095 163.529 258.002 167.579 249.06C167.579 249.06 169.554 253.203 175.82 253.814C176.724 253.903 175.109 244.015 174.715 243.311C170.202 235.253 150.534 238.487 150.227 248.402L151.108 260.098C151.108 260.098 151.564 257.436 154.579 258.095Z" fill="#FF4054"/>
<path d="M183.57 325.654C183.505 325.654 183.438 325.645 183.371 325.626C182.993 325.515 182.776 325.119 182.885 324.742C182.936 324.57 187.912 307.565 188.765 304.822C189.12 303.689 188.041 301.86 187.635 301.307L176.922 285.764C176.699 285.441 176.779 284.996 177.105 284.774C177.43 284.552 177.873 284.632 178.096 284.957L188.796 300.481C188.988 300.739 190.757 303.23 190.127 305.246C189.277 307.976 184.306 324.971 184.255 325.141C184.164 325.453 183.879 325.654 183.57 325.654Z" fill="#121F33"/>
<path d="M146.497 310.26C146.103 310.26 145.786 309.942 145.786 309.548V295.403C145.786 295.009 146.103 294.692 146.497 294.692C146.891 294.692 147.21 295.009 147.21 295.403V309.548C147.21 309.942 146.891 310.26 146.497 310.26Z" fill="#2B4EFF"/>
<path d="M168.614 271.931C168.614 271.931 163.578 272.351 160.469 268.069C160.469 268.069 162.168 274.295 168.926 274.913L168.614 271.931Z" fill="#FF6A8D"/>
<path d="M158.144 236.884C158.144 242.77 153.369 247.541 147.478 247.541C141.588 247.541 136.812 242.77 136.812 236.884C136.812 230.998 141.588 226.227 147.478 226.227C153.369 226.227 158.144 230.998 158.144 236.884Z" fill="#FF4054"/>
<path d="M192.972 322.143L195.269 321.391L200.868 320.958L203.077 322.556C203.357 322.759 203.693 322.868 204.038 322.871L207.964 322.915C208.345 322.994 208.679 322.713 208.692 322.411C208.704 322.154 208.484 321.889 208.167 321.845C207.788 321.773 207.407 321.703 207.028 321.631L210.646 321.056C210.819 321.027 210.955 320.891 210.98 320.721C211.003 320.563 210.926 320.403 210.785 320.319C211.286 320.225 211.789 320.133 212.29 320.038C212.538 319.955 212.697 319.717 212.677 319.465C212.659 319.233 212.494 319.032 212.263 318.968C210.62 318.867 208.975 318.766 207.332 318.664L205.42 317.557L208.27 317.988L212.466 318.009C212.631 317.986 212.772 317.88 212.824 317.733C212.891 317.547 212.808 317.323 212.618 317.21C209.593 316.266 206.57 315.322 203.545 314.377L200.395 313.544L200.492 313.036L202.429 312.255C203.062 312 203.625 311.592 204.063 311.069C204.583 310.448 204.54 309.533 203.965 308.965L201.62 310.515C201.62 310.515 198.51 311.698 198.397 311.737C198.284 311.777 193.537 313.654 193.537 313.654L190.285 314.281L192.972 322.143Z" fill="#FFC3DB"/>
<path d="M206.592 320.684C206.565 320.684 206.538 320.679 206.512 320.669L203.064 319.434C202.939 319.39 202.876 319.253 202.92 319.13C202.964 319.004 203.1 318.942 203.224 318.986L206.63 320.207L210.778 320.082C210.912 320.097 211.019 320.182 211.024 320.313C211.027 320.444 210.924 320.553 210.793 320.558L206.599 320.684H206.592Z" fill="#FF6A8D"/>
<path d="M206.788 321.819C206.784 321.819 206.78 321.821 206.775 321.819L204.977 321.719C204.954 321.718 204.931 321.713 204.91 321.706L202.403 320.808C202.279 320.762 202.215 320.627 202.259 320.504C202.303 320.38 202.437 320.314 202.563 320.36L205.037 321.247L206.802 321.345C206.932 321.352 207.034 321.465 207.026 321.595C207.021 321.721 206.914 321.819 206.788 321.819Z" fill="#FF6A8D"/>
<path d="M193.472 322.928L190.01 312.994L154.269 318.596L158.072 333.937L193.472 322.928Z" fill="#223F6B"/>
<path d="M148.196 304.157C147.071 304.013 146.106 303.709 144.996 303.487C141.336 302.745 140.555 303.054 137.502 305.287L151.646 329.481C153.657 332.92 157.986 334.221 161.562 332.461L168.691 328.952L157.578 302.476C154.277 304 151.563 304.586 148.196 304.157Z" fill="#223F6B"/>
<path d="M139.474 308.663L134.742 301.004C132.821 297.893 131.714 294.291 131.92 290.641C132.157 286.419 133.897 282.407 138.336 280.989C144.108 279.146 150.333 282.018 152.672 287.604L160.602 308.663H139.474Z" fill="#223F6B"/>
<path d="M163.405 317.356C163.111 317.356 162.836 317.173 162.733 316.88L159.491 307.733L152.674 289.633C152.535 289.265 152.721 288.853 153.091 288.716C153.46 288.581 153.872 288.762 154.01 289.131L160.83 307.244L164.077 316.405C164.208 316.776 164.015 317.184 163.644 317.315C163.566 317.343 163.484 317.356 163.405 317.356Z" fill="#121F33"/>
<path d="M163.852 318.146C163.51 318.146 163.21 317.901 163.151 317.553C163.085 317.165 163.347 316.797 163.734 316.732L189.89 312.291C190.284 312.234 190.647 312.487 190.713 312.874C190.778 313.263 190.517 313.631 190.129 313.696L163.973 318.137C163.932 318.143 163.891 318.146 163.852 318.146Z" fill="#121F33"/>
<path d="M160.379 331.806C156.358 331.806 152.527 329.733 150.365 326.22L147.741 321.955C147.535 321.62 147.639 321.182 147.974 320.976C148.316 320.77 148.751 320.876 148.956 321.208L151.578 325.474C153.854 329.174 158.242 331.055 162.496 330.161L181.391 326.18C181.78 326.104 182.154 326.343 182.236 326.729C182.318 327.114 182.072 327.491 181.687 327.573L162.791 331.555C161.988 331.725 161.18 331.806 160.379 331.806Z" fill="#121F33"/>
<path d="M220.504 359.768L183.868 343.898H146.877C146.877 343.898 132.892 365.254 146.902 375.377H165.286C165.286 375.448 165.283 375.515 165.283 375.589H204.628L175.151 434.507L203.902 450.98L232.012 391.188C234.886 385.444 235.169 379.025 233.241 373.326C231.173 367.216 226.402 362.393 220.504 359.768Z" fill="#D1E0FF"/>
<path d="M279.903 344.68H95.2364C93.4214 344.68 91.9497 343.21 91.9497 341.396V338.093C91.9497 336.279 93.4214 334.809 95.2364 334.809H279.903C281.718 334.809 283.19 336.279 283.19 338.093V341.396C283.19 343.21 281.718 344.68 279.903 344.68Z" fill="#939393"/>
<path d="M277.263 478.08C276.694 478.08 276.19 477.67 276.092 477.09L253.797 345.553C253.687 344.906 254.124 344.291 254.771 344.182C255.417 344.072 256.032 344.509 256.142 345.156L278.435 476.695C278.545 477.342 278.11 477.955 277.463 478.064C277.395 478.074 277.33 478.08 277.263 478.08Z" fill="black"/>
<path d="M95.2767 478.08C95.2097 478.08 95.1443 478.074 95.0772 478.064C94.4297 477.955 93.9947 477.342 94.1043 476.695L116.396 345.156C116.506 344.509 117.124 344.076 117.768 344.182C118.416 344.291 118.851 344.906 118.741 345.553L96.4491 477.09C96.351 477.67 95.8457 478.08 95.2767 478.08Z" fill="black"/>
<path d="M182.04 334.809H203.873V330.65H186.203C183.904 330.65 182.04 332.512 182.04 334.809Z" fill="#C4C4C4"/>
<path d="M201.236 334.809H264.225L274.236 303.27C275.127 300.46 273.027 297.594 270.077 297.594H216.238C214.336 297.594 212.654 298.824 212.08 300.634L201.236 334.809Z" fill="#C4C4C4"/>
<path d="M244.718 317.79C243.737 319.488 241.708 320.153 240.187 319.275C238.666 318.398 238.228 316.31 239.209 314.613C240.19 312.915 242.22 312.25 243.74 313.128C245.261 314.005 245.699 316.093 244.718 317.79Z" fill="#361A8F"/>
<path d="M337.969 155.528L338.407 168.639L347.587 179.314L347.713 183.088L356.845 188.264L365.361 180.896L363.811 167.028C363.811 167.028 366.023 166.345 366.239 163.8C366.318 162.875 365.989 161.918 365.23 161.38C364.411 160.799 363.046 160.617 361.054 162.738L360.608 151.408L338.428 152.148L337.969 155.528Z" fill="#FFC4DC"/>
<path d="M361.053 162.738C361.053 162.738 364.116 178.273 342.711 180.061C342.134 180.11 341.549 180.115 340.97 180.093C339.585 180.013 338.499 178.875 338.486 177.489L338.406 168.639C338.406 168.639 341.032 166.347 343.434 168.259C345.835 170.17 349.306 171.154 353.526 167.853C353.526 167.853 357.366 165.527 357.148 161.07C357.053 159.137 356.887 157.348 356.386 155.976C355.57 153.736 352.727 153.055 350.85 154.527C348.699 156.213 344.023 158.757 337.968 155.528C337.968 155.528 334.138 153.39 335.805 149.763C337.471 146.136 341.344 145.115 345.854 146.2C350.364 147.286 353.145 150.282 358.947 149.059C358.947 149.059 362.544 147.848 363.489 146.232L363.983 161.018C363.983 161.018 362.515 161.072 361.053 162.738Z" fill="#223F6B"/>
<path d="M379.511 437.214L381.662 469.038H393.989V435.993L379.511 437.214Z" fill="#FFC4DC"/>
<path d="M381.663 469.038V476.469H409.299C409.299 476.469 410.517 473.509 407.672 472.481C404.827 471.454 396.159 469.943 393.99 466.922C393.99 466.922 392.703 469.279 389.927 468.554C387.15 467.829 384.846 465.17 381.663 469.038Z" fill="#193057"/>
<path d="M346.433 437.189L344.466 469.038H332.138L331.34 435.993L346.433 437.189Z" fill="#FFC4DC"/>
<path d="M344.466 469.038V476.469H316.831C316.831 476.469 315.612 473.509 318.457 472.481C321.302 471.454 329.97 469.943 332.138 466.922C332.138 466.922 333.427 469.279 336.203 468.554C338.98 467.829 341.282 465.17 344.466 469.038Z" fill="#193057"/>
<path d="M351.168 460.851L326.608 459.065V451.821L351.168 453.046V460.851Z" fill="#193057"/>
<path d="M376.4 460.851L398.583 459.065V451.821L376.4 453.046V460.851Z" fill="#193057"/>
<path d="M353.142 377.123L359.833 307.282L365.402 307.784L371.725 377.123H396.822L394.882 272.318H332.452L329.707 377.123H353.142Z" fill="#193057"/>
<path d="M371.728 377.123L379.513 454.914L396.813 453.497V376.528L371.728 377.123Z" fill="#193057"/>
<path d="M329.707 375.475L330.519 452.516L348.311 453.592L353.142 375.475H329.707Z" fill="#193057"/>
<path d="M299.325 291.195L298.257 293.732L294.831 299.066L291.788 299.889C291.402 299.994 291.066 300.214 290.825 300.522L288.093 304.011C287.758 304.297 287.795 304.797 288.076 305.028C288.314 305.222 288.717 305.219 288.977 304.967C289.306 304.678 289.636 304.39 289.965 304.101L288.032 307.762C287.941 307.939 287.978 308.158 288.124 308.303C288.26 308.439 288.464 308.488 288.641 308.422C288.387 308.94 288.134 309.457 287.88 309.974C287.789 310.257 287.908 310.574 288.163 310.739C288.397 310.891 288.701 310.886 288.92 310.726C290.145 309.326 291.368 307.926 292.593 306.526L294.964 305.616L292.598 307.857L289.699 311.605C289.607 311.77 289.615 311.971 289.72 312.124C289.852 312.319 290.122 312.407 290.359 312.319C293.337 310.293 296.314 308.266 299.292 306.24L302.248 304.021L302.669 304.475L302.087 306.779C301.897 307.532 301.902 308.331 302.101 309.104C302.337 310.02 303.243 310.646 304.181 310.541L304.307 307.315C304.307 307.315 305.306 303.67 305.345 303.539C305.385 303.408 306.845 297.793 306.845 297.793L308.441 294.106L299.325 291.195Z" fill="#FFC4DC"/>
<path d="M326.957 209.805C327.069 230.82 327.577 262.586 329.556 277.701C329.556 277.701 394.733 281.322 398.816 273.553C398.816 273.553 394.98 255.342 393.894 230.236C393.209 214.389 388.842 201.543 385.712 194.224C383.938 190.074 380.386 187.094 376.181 186.163L366.453 184.009C366.003 186.128 364.309 187.747 362.264 187.86C356.449 188.18 346.82 184.369 346.82 184.369L345.51 184.704C334.579 187.484 326.895 197.878 326.957 209.805Z" fill="#80B987"/>
<path d="M311.592 247.572L329.708 262.122C323.556 274.012 309.808 300.888 309.808 300.888L295.722 293.356L311.592 247.572Z" fill="#D1E0FF"/>
<path d="M356.368 321.128L346.821 184.369L341.675 185.679C335.303 187.3 330.095 192.15 327.75 198.643L311.163 248.6L322.903 260.546L324.09 326.265L349.677 328.295C353.51 328.599 356.692 325.191 356.368 321.128Z" fill="#D1E0FF"/>
<path d="M366.453 184.009L384.128 321.474C385.155 325.655 389.615 327.692 393.183 325.611L413.505 313.757L395.688 237.879L382.643 186.104C380.562 184.884 366.453 184.009 366.453 184.009Z" fill="#D1E0FF"/>
<path d="M326.294 263.527C326.284 263.527 326.276 263.527 326.266 263.527C325.741 263.512 325.327 263.075 325.342 262.55L326.74 214.462C326.757 213.938 327.182 213.536 327.718 213.541C328.243 213.556 328.655 213.994 328.64 214.518L327.244 262.606C327.229 263.12 326.807 263.527 326.294 263.527Z" fill="#C4C4C4"/>
<path d="M331.231 247.384L350.307 244.461C351.105 244.339 351.653 243.594 351.53 242.797L346.813 212.064C346.69 211.267 345.944 210.718 345.146 210.84L326.071 213.765C325.273 213.887 324.725 214.632 324.847 215.43L329.565 246.162C329.688 246.959 330.433 247.507 331.231 247.384Z" fill="#193057"/>
<path d="M356.413 232.048C356.413 232.048 355.991 229.599 353.746 228.725L348.823 225.503L349.266 228.392C349.266 228.392 343.101 225.575 339.501 227.264C335.9 228.954 339.535 235.515 343.767 236.404L349.98 238.774L361.376 240.189L356.413 232.048Z" fill="#FFC4DC"/>
<path d="M355.804 227.76L392.446 234.177C384.985 216.127 381.829 198.362 380.382 190.785C380.094 189.278 382.616 187.607 382.642 186.104L385.263 186.494C390.216 187.23 394.493 190.35 396.704 194.84L417.296 236.665C418.723 241.882 416.898 247.26 412.637 250.393C409.215 252.909 404.769 253.823 400.422 252.9C384.57 249.532 352.865 242.8 352.865 242.8L355.804 227.76Z" fill="#D1E0FF"/>
<path d="M395.086 236.438C395.025 236.438 394.965 236.433 394.903 236.422L373.33 232.208C372.815 232.107 372.481 231.609 372.581 231.094C372.681 230.579 373.173 230.248 373.698 230.344L393.578 234.226L379.686 198.318C379.496 197.829 379.74 197.28 380.229 197.091C380.724 196.896 381.269 197.146 381.458 197.635L395.974 235.147C396.1 235.469 396.037 235.833 395.815 236.098C395.632 236.315 395.364 236.438 395.086 236.438Z" fill="#C4C4C4"/>
<path d="M396.823 253.084C396.758 253.084 396.692 253.078 396.625 253.063L376.423 248.773C375.909 248.663 375.581 248.16 375.69 247.647C375.8 247.134 376.297 246.801 376.817 246.915L397.021 251.205C397.534 251.315 397.863 251.818 397.753 252.331C397.659 252.777 397.265 253.084 396.823 253.084Z" fill="#D1E0FF"/>
<path d="M346.818 184.369L346.289 181.294L365.402 177.385L366.452 184.009L367.287 196.174L356.387 197.429L349.18 195.331L347.397 192.657L346.818 184.369Z" fill="#80B987"/>
<path d="M529.299 465.621C528.642 465.621 528.112 465.09 528.112 464.434V372.055C528.112 371.398 528.642 370.867 529.299 370.867C529.957 370.867 530.488 371.398 530.488 372.055V464.434C530.488 465.09 529.957 465.621 529.299 465.621Z" fill="black"/>
<path d="M453.133 478.054C453.068 478.054 453.006 478.049 452.94 478.039C452.293 477.933 451.853 477.325 451.959 476.677L473.455 344.093C473.56 343.445 474.176 343.002 474.817 343.11C475.465 343.216 475.904 343.824 475.798 344.472L454.304 477.057C454.211 477.641 453.704 478.054 453.133 478.054Z" fill="black"/>
<path d="M537.374 470.957C537.374 474.001 534.903 476.469 531.857 476.469C528.811 476.469 526.342 474.001 526.342 470.957C526.342 467.913 528.811 465.447 531.857 465.447C534.903 465.447 537.374 467.913 537.374 470.957Z" fill="#FF4054"/>
<path d="M575.204 466.634H529.977C529.32 466.634 528.79 466.103 528.79 465.447C528.79 464.79 529.32 464.259 529.977 464.259H575.204C575.861 464.259 576.393 464.79 576.393 465.447C576.393 466.103 575.861 466.634 575.204 466.634Z" fill="black"/>
<path d="M534.787 470.43L533.677 464.105H522.857V466.812V470.43L527.061 472.854H530.788L534.787 470.43Z" fill="#FFC4DC"/>
<path d="M534.787 470.429L535.796 475.412L504.457 475.373V474.96C504.457 473.88 505.142 472.919 506.164 472.566L522.857 466.812L525.403 469.796C525.403 469.796 529.344 472.655 534.787 470.429Z" fill="#3D63FF"/>
<path d="M504.457 475.373V477.214L536.202 477.18L535.796 475.412L504.457 475.373Z" fill="#3D63FF"/>
<path d="M442.347 470.957L446.309 466.151L437.947 458.32L436.215 460.168L433.74 462.806L435.147 467.448L437.865 469.995L442.347 470.957Z" fill="#FFC4DC"/>
<path d="M442.346 470.957L439.247 474.649L416.929 453.84L417.212 453.538C417.951 452.751 419.11 452.519 420.096 452.96L436.214 460.168L436.029 464.082C436.029 464.082 436.851 468.861 442.346 470.957Z" fill="#3D63FF"/>
<path d="M416.929 453.84L415.668 455.183L437.981 476.035L439.247 474.649L416.929 453.84Z" fill="#3D63FF"/>
<path d="M515.532 241.769L516.322 255.068C516.511 258.257 519.307 260.645 522.488 260.314C522.707 260.291 522.934 260.263 523.17 260.23L524.031 268.352C524.031 268.352 525.138 274.012 533.638 272.905C542.137 271.797 540.784 266.383 540.784 266.383L538.936 251.122C538.936 251.122 543.076 251.361 543.493 246.938C543.493 246.938 543.522 243.123 538.442 244.969L537.518 237.493C537.518 237.493 519.804 230.898 515.532 241.769Z" fill="#FFC4DC"/>
<path d="M537.515 237.493C537.515 237.493 525.505 246.046 515.529 241.769C515.529 241.769 511.466 239.524 512.666 232.509C512.666 232.509 514.661 225.217 524.98 226.232C524.98 226.232 531.143 226.972 532.898 229.094C532.898 229.094 533.544 226.049 538.717 227.064C538.717 227.064 541.304 227.34 542.135 233.432C542.965 239.524 542.967 245.393 542.967 245.393C542.967 245.393 541.021 243.898 538.439 244.969L537.515 237.493Z" fill="#223F6B"/>
<path d="M596.811 366.28L620.753 285.689H545.956L561.814 366.28H596.811Z" fill="#FF9837"/>
<path d="M562.234 362.398L446.664 467.095L434.641 455.809L497.617 375.342L524.332 362.088L562.234 362.398Z" fill="#162744"/>
<path d="M575.683 342.646L576.763 354.523C577.336 360.836 572.359 366.28 566.015 366.28H523.203L536.768 464.105H516.386L490.22 369.961C488.163 362.504 489.183 354.535 493.054 347.837L496.054 342.646H575.683Z" fill="#223F6B"/>
<path d="M594.909 372.259H524.166L523.204 366.28H596.811L594.909 372.259Z" fill="#FF9837"/>
<path d="M604.955 477.658C604.384 477.658 603.879 477.245 603.786 476.661L582.089 342.838C581.983 342.189 582.423 341.582 583.07 341.475C583.705 341.371 584.331 341.81 584.432 342.459L606.131 476.281C606.237 476.929 605.796 477.537 605.148 477.643C605.083 477.653 605.021 477.658 604.955 477.658Z" fill="black"/>
<path d="M523.71 266.17L510.261 267.611C505.226 268.151 500.548 270.461 497.06 274.128C493.739 277.621 491.7 282.134 491.274 286.934L489.9 302.413L487.313 338.964H575.074L573.596 325.212L583.353 322.808C587.759 321.535 590.838 320.117 591.826 315.64C592.348 313.273 592.169 310.806 591.314 308.537L579.696 277.736C578.02 273.294 574.858 269.57 570.744 267.196C567.362 265.246 563.495 264.298 559.595 264.465L540.53 265.278C540.53 265.278 540.662 270.547 532.139 270.835C532.139 270.835 525.373 271.093 523.71 266.17Z" fill="#D1E0FF"/>
<path d="M620.353 344.572H438.668C436.028 344.572 433.89 342.435 433.89 339.799V339.475C433.89 336.838 436.028 334.701 438.668 334.701H620.353C622.991 334.701 625.131 336.838 625.131 339.475V339.799C625.131 342.435 622.991 344.572 620.353 344.572Z" fill="#939393"/>
<path d="M509.051 302.418C508.657 302.418 508.34 302.1 508.34 301.706V284.877C508.34 284.483 508.657 284.165 509.051 284.165C509.445 284.165 509.764 284.483 509.764 284.877V301.706C509.764 302.1 509.445 302.418 509.051 302.418Z" fill="#C4C4C4"/>
<path d="M523.168 260.23C523.168 260.23 530.556 259.675 534.173 255.448C534.173 255.448 531.486 261.39 523.413 262.544L523.168 260.23Z" fill="#FF82A5"/>
<path d="M536.281 325.292L532.643 328.513L522.272 329.669L523.859 332.308H539.335L538.237 331.506L536.281 325.292Z" fill="#FFC4DC"/>
<path d="M538.237 332.218C537.932 332.218 537.652 332.02 537.557 331.718L535.106 323.938C534.996 323.595 535.162 323.226 535.492 323.077L566.789 308.837L557.282 282.627C557.148 282.258 557.339 281.848 557.709 281.714C558.085 281.583 558.49 281.771 558.624 282.142L568.354 308.97C568.48 309.319 568.316 309.708 567.978 309.862L536.658 324.111L538.729 330.694L573.47 324.51C573.851 324.448 574.229 324.701 574.296 325.087C574.366 325.474 574.108 325.843 573.72 325.913L538.363 332.206C538.321 332.213 538.28 332.218 538.237 332.218Z" fill="#C4C4C4"/>
<path d="M580.564 470.957C580.564 474.001 578.093 476.469 575.047 476.469C572 476.469 569.531 474.001 569.531 470.957C569.531 467.913 572 465.447 575.047 465.447C578.093 465.447 580.564 467.913 580.564 470.957Z" fill="#7147E8"/>
<path d="M543.31 335.324H522.272V331.314H539.299C541.515 331.314 543.31 333.11 543.31 335.324Z" fill="black" fill-opacity="0.5"/>
<path d="M524.818 335.324H464.116L454.47 304.929C453.61 302.222 455.635 299.461 458.478 299.461H510.36C512.191 299.461 513.812 300.646 514.366 302.391L524.818 335.324Z" fill="#C4C4C4"/>
<path d="M486.764 320.035C485.399 320.965 483.375 320.37 482.243 318.71C481.112 317.05 481.3 314.951 482.665 314.021C484.03 313.092 486.055 313.686 487.186 315.346C488.318 317.006 488.13 319.105 486.764 320.035Z" fill="#361A8F"/>
<path d="M664.423 479.15H32.2779C31.6206 479.15 31.0891 478.619 31.0891 477.963C31.0891 477.306 31.6206 476.775 32.2779 476.775H664.423C665.08 476.775 665.611 477.306 665.611 477.963C665.611 478.619 665.08 479.15 664.423 479.15Z" fill="#D1E0FF"/>
<path d="M75.3533 370.968C78.4489 379.963 79.7807 388.739 79.9649 397.037L75.6048 399.551L79.8651 403.924C78.2666 433.729 62.692 455.735 62.692 455.735L54.4172 453.84C38.7828 387.526 75.3533 370.968 75.3533 370.968Z" fill="#E4EDFF"/>
<path d="M58.6947 454.563C58.6767 454.563 58.6603 454.561 58.6422 454.558C58.5024 454.533 58.408 454.399 58.4328 454.259L71.5275 379.314C71.5523 379.174 71.6848 379.079 71.8263 379.105C71.9662 379.13 72.0605 379.264 72.0357 379.404L58.9394 454.349C58.9189 454.47 58.8139 454.559 58.6947 454.563Z" fill="#88A6FF"/>
<path d="M66.3008 411.028C66.1718 411.032 66.0575 410.939 66.0385 410.809L62.8106 389.708C62.7896 389.568 62.8866 389.435 63.0266 389.414C63.1697 389.392 63.3005 389.49 63.3215 389.63L66.5478 410.732C66.5688 410.872 66.4734 411.004 66.3335 411.025C66.3237 411.027 66.3106 411.027 66.3008 411.028Z" fill="#88A6FF"/>
<path d="M63.4496 427.394C63.4284 427.395 63.4071 427.394 63.384 427.39C63.2442 427.365 63.1586 427.203 63.1834 427.063C63.2341 426.769 66.8656 422.884 73.9749 415.516C74.0729 415.413 74.2365 415.412 74.3395 415.51C74.4426 415.61 74.4447 415.772 74.3467 415.875C70.2069 420.163 63.9491 426.722 63.6724 427.209C63.6518 427.326 63.5607 427.391 63.4496 427.394Z" fill="#88A6FF"/>
<path d="M56.4348 454.61C56.4348 454.61 74.6919 417.441 48.8716 384.368C48.8716 384.368 22.9483 404.014 49.3888 454.526L56.4348 454.61Z" fill="#3D63FF"/>
<path d="M52.9104 454.331C52.8221 454.329 52.7477 454.263 52.7406 454.173L47.5841 391.739C47.5771 391.644 47.6467 391.561 47.7416 391.553C47.843 391.544 47.9207 391.615 47.9277 391.71L53.0826 454.145C53.0896 454.24 53.0216 454.32 52.9267 454.329C52.9218 454.329 52.9153 454.331 52.9104 454.331Z" fill="white"/>
<path d="M28.3626 387.309C28.0988 387.1 27.8504 386.912 27.614 386.739C27.6269 386.88 27.6529 387.025 27.7548 387.138C27.9161 387.316 28.143 387.347 28.3626 387.309Z" fill="#8BA9FF"/>
<path d="M32.703 392.607C32.9526 392.883 33.3787 392.905 33.6551 392.656C33.6805 392.632 33.6743 392.595 33.6963 392.568C33.4171 392.237 33.1448 391.917 32.8729 391.613C32.8344 391.635 32.785 391.625 32.75 391.656C32.4736 391.905 32.4534 392.331 32.703 392.607Z" fill="#8BA9FF"/>
<path d="M28.908 390.156C28.6316 390.406 28.6114 390.831 28.861 391.108C29.1107 391.384 29.5368 391.406 29.8131 391.156C30.0895 390.907 30.1114 390.481 29.8618 390.205C29.6121 389.929 29.1844 389.907 28.908 390.156Z" fill="#8BA9FF"/>
<path d="M37.6959 398.099C37.6666 398.053 37.6374 398.01 37.6082 397.964C37.6306 398 37.6207 398.045 37.6494 398.076C37.6613 398.091 37.6824 398.087 37.6959 398.099Z" fill="#8BA9FF"/>
<path d="M33.8562 395.626C33.5799 395.875 33.558 396.303 33.8077 396.579C34.0573 396.855 34.4833 396.875 34.7597 396.626C35.0361 396.376 35.058 395.951 34.8083 395.674C34.5587 395.398 34.1326 395.376 33.8562 395.626Z" fill="#8BA9FF"/>
<path d="M38.8028 401.097C38.5264 401.346 38.5045 401.772 38.7542 402.048C39.0038 402.324 39.4299 402.346 39.7063 402.097C39.7841 402.027 39.7939 401.927 39.8301 401.836C39.6747 401.54 39.521 401.245 39.3642 400.959C39.1668 400.925 38.9632 400.953 38.8028 401.097Z" fill="#8BA9FF"/>
<path d="M25.018 389.61C25.2676 389.886 25.6953 389.906 25.9716 389.657C26.248 389.407 26.2683 388.982 26.0186 388.706C25.769 388.429 25.3429 388.407 25.0665 388.657C25.0554 388.667 25.0592 388.683 25.0498 388.693C25.0386 388.998 25.0259 389.306 25.018 389.61Z" fill="#8BA9FF"/>
<path d="M29.9656 395.079C30.2152 395.355 30.6412 395.376 30.9176 395.126C31.194 394.877 31.2159 394.451 30.9662 394.175C30.7166 393.899 30.2889 393.877 30.0125 394.126C29.7361 394.376 29.716 394.803 29.9656 395.079Z" fill="#8BA9FF"/>
<path d="M27.2759 396.598C26.9995 396.848 26.9777 397.274 27.2273 397.55C27.4769 397.826 27.9046 397.848 28.181 397.598C28.4574 397.349 28.4776 396.923 28.228 396.647C27.9784 396.371 27.5523 396.349 27.2759 396.598Z" fill="#8BA9FF"/>
<path d="M26.1707 392.628C25.8944 392.878 25.8741 393.304 26.1237 393.58C26.3734 393.856 26.7995 393.878 27.0759 393.628C27.3522 393.379 27.3724 392.952 27.1228 392.676C26.8731 392.399 26.4471 392.379 26.1707 392.628Z" fill="#8BA9FF"/>
<path d="M34.9593 399.597C34.6829 399.847 34.6627 400.273 34.9123 400.549C35.162 400.825 35.588 400.847 35.8644 400.597C36.1408 400.348 36.1626 399.921 35.913 399.644C35.6633 399.368 35.2357 399.348 34.9593 399.597Z" fill="#8BA9FF"/>
<path d="M32.2225 402.068C31.9461 402.317 31.9259 402.743 32.1755 403.019C32.4251 403.295 32.8512 403.317 33.1276 403.068C33.404 402.819 33.4258 402.393 33.1762 402.117C32.9265 401.84 32.4989 401.818 32.2225 402.068Z" fill="#8BA9FF"/>
<path d="M31.1182 398.098C30.8418 398.347 30.8216 398.773 31.0713 399.049C31.3209 399.325 31.747 399.347 32.0233 399.098C32.2997 398.849 32.3216 398.423 32.0719 398.147C31.8223 397.87 31.3946 397.849 31.1182 398.098Z" fill="#8BA9FF"/>
<path d="M28.3806 400.568C28.1043 400.818 28.0824 401.245 28.3321 401.521C28.5817 401.798 29.0094 401.818 29.2858 401.568C29.5621 401.319 29.584 400.893 29.3344 400.617C29.0847 400.341 28.657 400.319 28.3806 400.568Z" fill="#8BA9FF"/>
<path d="M39.908 405.067C39.6316 405.316 39.6097 405.742 39.8594 406.018C40.109 406.294 40.5351 406.316 40.8115 406.067C41.0878 405.817 41.1097 405.392 40.8601 405.115C40.6104 404.839 40.1844 404.817 39.908 405.067Z" fill="#8BA9FF"/>
<path d="M37.17 407.537C36.8936 407.787 36.8734 408.214 37.1231 408.49C37.3727 408.767 37.7987 408.787 38.0751 408.537C38.3515 408.288 38.3733 407.862 38.1237 407.586C37.8741 407.31 37.4464 407.288 37.17 407.537Z" fill="#8BA9FF"/>
<path d="M36.0664 403.567C35.7901 403.817 35.7682 404.243 36.0178 404.519C36.2675 404.795 36.6935 404.817 36.9699 404.567C37.2463 404.318 37.2682 403.892 37.0185 403.616C36.7689 403.34 36.3428 403.318 36.0664 403.567Z" fill="#8BA9FF"/>
<path d="M33.3284 406.04C33.0521 406.289 33.0318 406.715 33.2815 406.991C33.5311 407.267 33.9572 407.289 34.2336 407.04C34.5099 406.79 34.5318 406.363 34.2821 406.087C34.0325 405.81 33.6048 405.79 33.3284 406.04Z" fill="#8BA9FF"/>
<path d="M42.1182 413.008C41.8418 413.258 41.82 413.684 42.0696 413.96C42.3192 414.236 42.7453 414.258 43.0217 414.008C43.2981 413.759 43.3199 413.332 43.0703 413.055C42.8206 412.779 42.3946 412.759 42.1182 413.008Z" fill="#8BA9FF"/>
<path d="M41.014 409.037C40.7376 409.286 40.7158 409.714 40.9654 409.99C41.215 410.266 41.6411 410.286 41.9174 410.037C42.1938 409.787 42.2157 409.362 41.966 409.085C41.7164 408.809 41.2903 408.787 41.014 409.037Z" fill="#8BA9FF"/>
<path d="M38.2764 411.509C38 411.758 37.9781 412.184 38.2278 412.46C38.4774 412.737 38.9035 412.758 39.1799 412.509C39.4563 412.26 39.4781 411.834 39.2285 411.558C38.9789 411.281 38.5528 411.259 38.2764 411.509Z" fill="#8BA9FF"/>
<path d="M43.2222 416.978C42.9458 417.228 42.9239 417.654 43.1736 417.93C43.4232 418.206 43.8493 418.228 44.1257 417.978C44.4021 417.729 44.4239 417.303 44.1743 417.027C43.9247 416.751 43.4986 416.729 43.2222 416.978Z" fill="#8BA9FF"/>
<path d="M25.0903 398.928C25.1074 399.344 25.1214 399.766 25.1432 400.177C25.247 400.151 25.3582 400.149 25.4439 400.071C25.7203 399.821 25.7405 399.394 25.4908 399.118C25.3838 398.999 25.2367 398.951 25.0903 398.928Z" fill="#8BA9FF"/>
<path d="M29.4864 404.54C29.21 404.789 29.1881 405.215 29.4378 405.491C29.6874 405.768 30.1151 405.79 30.3915 405.54C30.6679 405.291 30.6881 404.865 30.4384 404.589C30.1888 404.313 29.7627 404.291 29.4864 404.54Z" fill="#8BA9FF"/>
<path d="M26.7478 407.011C26.4715 407.26 26.4496 407.687 26.6993 407.964C26.9489 408.24 27.3766 408.26 27.653 408.011C27.9293 407.761 27.9496 407.335 27.6999 407.059C27.4503 406.783 27.0242 406.761 26.7478 407.011Z" fill="#8BA9FF"/>
<path d="M25.6431 403.041C25.3667 403.29 25.3448 403.716 25.5945 403.992C25.8441 404.268 26.2718 404.29 26.5482 404.041C26.8246 403.791 26.8448 403.365 26.5952 403.089C26.3456 402.813 25.9195 402.791 25.6431 403.041Z" fill="#8BA9FF"/>
<path d="M34.4327 410.01C34.1563 410.259 34.1361 410.685 34.3857 410.961C34.6353 411.237 35.0614 411.259 35.3378 411.01C35.6142 410.76 35.636 410.334 35.3864 410.058C35.1367 409.782 34.709 409.76 34.4327 410.01Z" fill="#8BA9FF"/>
<path d="M32.6476 412.529C32.398 412.252 31.9703 412.232 31.6939 412.482C31.4175 412.731 31.3973 413.157 31.647 413.433C31.8966 413.709 32.3227 413.731 32.599 413.482C32.8754 413.232 32.8972 412.805 32.6476 412.529Z" fill="#8BA9FF"/>
<path d="M30.5909 408.51C30.3145 408.759 30.2943 409.187 30.544 409.463C30.7936 409.739 31.2196 409.759 31.496 409.51C31.7724 409.261 31.7942 408.835 31.5446 408.559C31.295 408.282 30.8673 408.261 30.5909 408.51Z" fill="#8BA9FF"/>
<path d="M27.8535 410.982C27.5772 411.232 27.5553 411.657 27.8049 411.934C28.0546 412.21 28.4823 412.232 28.7587 411.982C29.035 411.733 29.0569 411.307 28.8073 411.031C28.5576 410.755 28.1299 410.733 27.8535 410.982Z" fill="#8BA9FF"/>
<path d="M39.3809 415.479C39.1045 415.728 39.0827 416.156 39.3323 416.432C39.582 416.708 40.008 416.728 40.2844 416.479C40.5607 416.23 40.5826 415.804 40.333 415.528C40.0833 415.251 39.6573 415.229 39.3809 415.479Z" fill="#8BA9FF"/>
<path d="M37.5478 418.951C37.8242 418.702 37.846 418.274 37.5963 417.998C37.3467 417.722 36.919 417.702 36.6427 417.951C36.3663 418.201 36.346 418.626 36.5957 418.902C36.8453 419.179 37.2714 419.201 37.5478 418.951Z" fill="#8BA9FF"/>
<path d="M35.49 414.932C35.7396 415.209 36.1656 415.229 36.442 414.98C36.7184 414.73 36.7403 414.304 36.4906 414.028C36.241 413.752 35.8133 413.732 35.5369 413.981C35.2606 414.231 35.2403 414.656 35.49 414.932Z" fill="#8BA9FF"/>
<path d="M33.705 417.452C33.9814 417.202 34.0032 416.776 33.7536 416.5C33.504 416.224 33.0763 416.202 32.7999 416.452C32.5235 416.701 32.5032 417.127 32.7529 417.403C33.0025 417.679 33.4286 417.701 33.705 417.452Z" fill="#8BA9FF"/>
<path d="M44.2796 421.901C44.5293 422.178 44.9553 422.199 45.2317 421.95C45.5081 421.701 45.5299 421.273 45.2803 420.997C45.0306 420.721 44.6046 420.699 44.3282 420.948C44.0518 421.198 44.03 421.625 44.2796 421.901Z" fill="#8BA9FF"/>
<path d="M42.4931 424.421C42.7695 424.171 42.7914 423.745 42.5417 423.469C42.2921 423.193 41.866 423.171 41.5896 423.42C41.3133 423.67 41.2914 424.096 41.541 424.372C41.7906 424.648 42.2167 424.67 42.4931 424.421Z" fill="#8BA9FF"/>
<path d="M41.4391 419.498C41.1895 419.221 40.7635 419.201 40.4871 419.451C40.2107 419.7 40.1889 420.126 40.4385 420.402C40.6882 420.678 41.1142 420.7 41.3906 420.451C41.667 420.201 41.6888 419.774 41.4391 419.498Z" fill="#8BA9FF"/>
<path d="M38.6516 422.921C38.9279 422.672 38.9498 422.246 38.7002 421.97C38.4505 421.693 38.0245 421.672 37.7481 421.921C37.4717 422.17 37.4499 422.598 37.6995 422.874C37.9492 423.15 38.3752 423.171 38.6516 422.921Z" fill="#8BA9FF"/>
<path d="M47.4418 429.89C47.7182 429.641 47.7401 429.215 47.4905 428.939C47.2408 428.662 46.8148 428.641 46.5384 428.89C46.262 429.139 46.2402 429.567 46.4898 429.843C46.7395 430.119 47.1655 430.139 47.4418 429.89Z" fill="#8BA9FF"/>
<path d="M46.3361 425.92C46.6125 425.671 46.6344 425.245 46.3847 424.969C46.1351 424.692 45.709 424.671 45.4326 424.92C45.1563 425.169 45.1344 425.595 45.384 425.871C45.6337 426.148 46.0597 426.169 46.3361 425.92Z" fill="#8BA9FF"/>
<path d="M43.5988 428.391C43.8752 428.141 43.8971 427.715 43.6474 427.439C43.3978 427.163 42.9717 427.141 42.6953 427.39C42.419 427.64 42.3971 428.067 42.6468 428.343C42.8964 428.62 43.3224 428.64 43.5988 428.391Z" fill="#8BA9FF"/>
<path d="M47.6433 432.862C47.3669 433.111 47.3451 433.537 47.5947 433.813C47.8443 434.089 48.2704 434.111 48.5468 433.862C48.6214 433.794 48.6296 433.695 48.6676 433.608C48.6418 433.373 48.6161 433.14 48.5904 432.907C48.3409 432.636 47.9181 432.614 47.6433 432.862Z" fill="#8BA9FF"/>
<path d="M28.9578 414.952C28.6814 415.202 28.6595 415.627 28.9092 415.904C29.1588 416.18 29.5865 416.202 29.8629 415.952C30.1393 415.703 30.1595 415.277 29.9099 415.001C29.6603 414.725 29.2342 414.703 28.9578 414.952Z" fill="#8BA9FF"/>
<path d="M27.3318 417.917C27.3356 417.933 27.3393 417.949 27.3432 417.967C27.3442 417.949 27.3324 417.935 27.3318 417.917Z" fill="#8BA9FF"/>
<path d="M34.8092 421.422C35.0856 421.172 35.1075 420.746 34.8578 420.47C34.6082 420.194 34.1805 420.172 33.9041 420.422C33.6277 420.671 33.6076 421.098 33.8572 421.375C34.1068 421.651 34.5328 421.671 34.8092 421.422Z" fill="#8BA9FF"/>
<path d="M32.0741 423.894C32.3505 423.644 32.3707 423.219 32.1211 422.942C31.8715 422.666 31.4454 422.644 31.169 422.894C30.8926 423.143 30.8724 423.569 31.122 423.845C31.3717 424.121 31.7977 424.143 32.0741 423.894Z" fill="#8BA9FF"/>
<path d="M30.0633 418.924C29.7869 419.173 29.7667 419.599 30.0163 419.875C30.266 420.151 30.692 420.173 30.9684 419.924C31.2448 419.674 31.2666 419.247 31.017 418.971C30.7673 418.695 30.3397 418.674 30.0633 418.924Z" fill="#8BA9FF"/>
<path d="M28.0649 421.34C28.1376 421.657 28.2101 421.968 28.2842 422.28C28.4705 422.027 28.4967 421.684 28.2777 421.443C28.22 421.379 28.1365 421.377 28.0649 421.34Z" fill="#8BA9FF"/>
<path d="M39.7568 426.893C40.0331 426.643 40.055 426.216 39.8053 425.94C39.5557 425.663 39.128 425.643 38.8516 425.893C38.5753 426.142 38.555 426.568 38.8047 426.844C39.0543 427.12 39.4804 427.142 39.7568 426.893Z" fill="#8BA9FF"/>
<path d="M37.0194 429.363C37.2958 429.114 37.3177 428.688 37.068 428.412C36.8184 428.136 36.3907 428.114 36.1143 428.363C35.8379 428.613 35.8177 429.038 36.0673 429.315C36.317 429.591 36.7431 429.613 37.0194 429.363Z" fill="#8BA9FF"/>
<path d="M35.9149 425.393C36.1913 425.144 36.2132 424.718 35.9635 424.442C35.7139 424.166 35.2862 424.144 35.0098 424.393C34.7334 424.643 34.7132 425.068 34.9629 425.345C35.2125 425.621 35.6386 425.643 35.9149 425.393Z" fill="#8BA9FF"/>
<path d="M33.1774 427.864C33.4537 427.614 33.4756 427.189 33.226 426.912C32.9763 426.636 32.5486 426.614 32.2722 426.864C31.9959 427.113 31.9741 427.541 32.2237 427.817C32.4733 428.093 32.901 428.113 33.1774 427.864Z" fill="#8BA9FF"/>
<path d="M44.7033 432.362C44.9797 432.113 45.0016 431.687 44.7519 431.411C44.5023 431.135 44.0762 431.113 43.7998 431.362C43.5234 431.612 43.5016 432.037 43.7512 432.313C44.0009 432.59 44.4269 432.612 44.7033 432.362Z" fill="#8BA9FF"/>
<path d="M41.968 434.833C42.2444 434.583 42.2662 434.157 42.0166 433.881C41.7669 433.605 41.3409 433.583 41.0645 433.833C40.7881 434.082 40.7663 434.509 41.0159 434.786C41.2656 435.062 41.6916 435.082 41.968 434.833Z" fill="#8BA9FF"/>
<path d="M40.8622 430.863C41.1386 430.613 41.1605 430.188 40.9109 429.911C40.6612 429.635 40.2352 429.613 39.9588 429.863C39.6824 430.112 39.6605 430.538 39.9102 430.814C40.1598 431.09 40.5859 431.112 40.8622 430.863Z" fill="#8BA9FF"/>
<path d="M38.1742 432.382C37.9246 432.106 37.4969 432.085 37.2205 432.335C36.9442 432.584 36.9239 433.01 37.1736 433.286C37.4232 433.562 37.8493 433.584 38.1257 433.335C38.402 433.085 38.4238 432.658 38.1742 432.382Z" fill="#8BA9FF"/>
<path d="M48.6992 437.783C48.7959 437.889 48.928 437.924 49.0582 437.954C49.0285 437.551 48.9972 437.15 48.9644 436.754C48.8918 436.783 48.8097 436.776 48.7478 436.832C48.4714 437.081 48.4496 437.507 48.6992 437.783Z" fill="#8BA9FF"/>
<path d="M46.914 440.304C47.1904 440.054 47.2122 439.627 46.9626 439.351C46.7129 439.075 46.2869 439.054 46.0106 439.304C45.7342 439.553 45.7123 439.979 45.9619 440.255C46.2116 440.531 46.6376 440.553 46.914 440.304Z" fill="#8BA9FF"/>
<path d="M45.8095 436.332C46.0859 436.083 46.1078 435.657 45.8581 435.381C45.6085 435.105 45.1824 435.083 44.906 435.332C44.6297 435.581 44.6078 436.007 44.8574 436.283C45.1071 436.56 45.5331 436.582 45.8095 436.332Z" fill="#8BA9FF"/>
<path d="M43.0712 438.804C43.3476 438.555 43.3694 438.129 43.1198 437.853C42.8702 437.577 42.4425 437.555 42.1661 437.804C41.8897 438.054 41.8695 438.479 42.1191 438.756C42.3688 439.032 42.7948 439.054 43.0712 438.804Z" fill="#8BA9FF"/>
<path d="M48.0197 444.274C48.2961 444.024 48.318 443.599 48.0683 443.322C47.8187 443.046 47.3926 443.024 47.1163 443.274C46.8399 443.523 46.818 443.949 47.0676 444.225C47.3173 444.501 47.7433 444.523 48.0197 444.274Z" fill="#8BA9FF"/>
<path d="M29.3842 425.413C29.2891 425.307 29.1572 425.275 29.0286 425.245C29.1277 425.619 29.2254 426.002 29.3259 426.37C29.3291 426.366 29.3341 426.369 29.3373 426.366C29.6136 426.116 29.6338 425.689 29.3842 425.413Z" fill="#8BA9FF"/>
<path d="M34.2843 431.835C34.5607 431.586 34.5826 431.159 34.3329 430.882C34.0833 430.606 33.6556 430.586 33.3792 430.835C33.1029 431.085 33.0826 431.51 33.3323 431.787C33.5819 432.063 34.008 432.085 34.2843 431.835Z" fill="#8BA9FF"/>
<path d="M31.5928 433.355C31.5606 433.32 31.51 433.325 31.4731 433.298C31.5509 433.521 31.6273 433.752 31.7049 433.972C31.7632 433.758 31.7524 433.531 31.5928 433.355Z" fill="#8BA9FF"/>
<path d="M30.4876 429.385C30.3976 429.284 30.2724 429.258 30.1519 429.224C30.2584 429.575 30.3679 429.916 30.4758 430.261C30.6915 430.007 30.7169 429.638 30.4876 429.385Z" fill="#8BA9FF"/>
<path d="M39.2787 436.353C39.0291 436.077 38.6014 436.055 38.325 436.305C38.0486 436.554 38.0284 436.98 38.278 437.256C38.5277 437.532 38.9538 437.554 39.2301 437.305C39.5065 437.055 39.5284 436.63 39.2787 436.353Z" fill="#8BA9FF"/>
<path d="M36.4926 439.777C36.769 439.527 36.7908 439.1 36.5412 438.824C36.2916 438.548 35.8638 438.526 35.5875 438.775C35.3111 439.025 35.2909 439.452 35.5405 439.728C35.7902 440.004 36.2163 440.026 36.4926 439.777Z" fill="#8BA9FF"/>
<path d="M35.3886 435.805C35.665 435.556 35.6868 435.13 35.4372 434.854C35.1875 434.578 34.7598 434.556 34.4835 434.805C34.2071 435.055 34.1868 435.48 34.4365 435.757C34.6861 436.033 35.1122 436.055 35.3886 435.805Z" fill="#8BA9FF"/>
<path d="M44.1765 442.774C44.4528 442.525 44.4747 442.099 44.2251 441.823C43.9754 441.547 43.5494 441.525 43.273 441.774C42.9966 442.024 42.9748 442.451 43.2244 442.727C43.4741 443.003 43.9001 443.024 44.1765 442.774Z" fill="#8BA9FF"/>
<path d="M40.488 445.198C40.7377 445.474 41.1637 445.496 41.4401 445.246C41.7165 444.997 41.7383 444.57 41.4887 444.293C41.239 444.017 40.8114 443.997 40.535 444.246C40.2586 444.496 40.2384 444.921 40.488 445.198Z" fill="#8BA9FF"/>
<path d="M40.3361 441.275C40.6125 441.025 40.6343 440.6 40.3847 440.323C40.135 440.047 39.7073 440.025 39.431 440.275C39.1546 440.524 39.1344 440.952 39.384 441.228C39.6337 441.504 40.0597 441.524 40.3361 441.275Z" fill="#8BA9FF"/>
<path d="M37.5973 443.747C37.8737 443.497 37.8956 443.072 37.6459 442.796C37.3963 442.519 36.9686 442.497 36.6922 442.747C36.4158 442.996 36.3956 443.422 36.6452 443.698C36.8949 443.974 37.3209 443.996 37.5973 443.747Z" fill="#8BA9FF"/>
<path d="M49.124 448.244C49.4004 447.994 49.4222 447.569 49.1726 447.292C48.9229 447.016 48.4969 446.994 48.2205 447.244C47.9441 447.493 47.9223 447.92 48.1719 448.197C48.4216 448.473 48.8476 448.493 49.124 448.244Z" fill="#8BA9FF"/>
<path d="M46.3869 450.716C46.6633 450.466 46.6852 450.041 46.4355 449.764C46.1859 449.488 45.7598 449.466 45.4834 449.716C45.2071 449.965 45.1852 450.391 45.4348 450.667C45.6844 450.943 46.1105 450.965 46.3869 450.716Z" fill="#8BA9FF"/>
<path d="M45.2824 446.746C45.5588 446.496 45.5806 446.069 45.331 445.793C45.0814 445.517 44.6553 445.496 44.379 445.746C44.1026 445.995 44.0807 446.421 44.3304 446.697C44.58 446.973 45.0061 446.995 45.2824 446.746Z" fill="#8BA9FF"/>
<path d="M42.5443 449.216C42.8207 448.967 42.8426 448.541 42.5929 448.265C42.3433 447.989 41.9156 447.967 41.6392 448.216C41.3629 448.466 41.3426 448.891 41.5922 449.168C41.8419 449.444 42.2679 449.466 42.5443 449.216Z" fill="#8BA9FF"/>
<path d="M49.4529 451.169C49.4128 451.193 49.3618 451.183 49.3252 451.215C49.0489 451.465 49.027 451.89 49.2766 452.167C49.3191 452.214 49.386 452.21 49.4378 452.243C49.444 451.885 49.45 451.523 49.4529 451.169Z" fill="#8BA9FF"/>
<path d="M47.5407 453.734C47.291 453.458 46.865 453.436 46.5886 453.686C46.3408 453.91 46.3296 454.263 46.5022 454.535L47.5532 454.556C47.7298 454.305 47.7563 453.973 47.5407 453.734Z" fill="#8BA9FF"/>
<path d="M38.7033 447.717C38.9796 447.467 39.0015 447.042 38.7519 446.765C38.5022 446.489 38.0745 446.467 37.7981 446.717C37.5218 446.966 37.5016 447.394 37.7512 447.67C38.0009 447.946 38.4269 447.966 38.7033 447.717Z" fill="#8BA9FF"/>
<path d="M43.6496 453.188C43.926 452.939 43.9478 452.511 43.6982 452.235C43.4485 451.959 43.0225 451.938 42.7461 452.188C42.4698 452.437 42.4479 452.863 42.6975 453.139C42.9472 453.416 43.3732 453.437 43.6496 453.188Z" fill="#8BA9FF"/>
<path d="M39.8564 450.735C39.7019 450.564 39.4847 450.527 39.2714 450.557C39.4812 450.915 39.6805 451.25 39.869 451.559C40.0455 451.308 40.0721 450.974 39.8564 450.735Z" fill="#8BA9FF"/>
<path d="M44.7752 477.533H64.4772L69.9338 450.093H39.3203L44.7752 477.533Z" fill="white"/>
<path d="M64.4757 477.963H44.7753C44.5692 477.963 44.3926 477.819 44.3534 477.618L38.8969 450.176C38.8724 450.05 38.9051 449.919 38.9868 449.82C39.0686 449.72 39.1896 449.663 39.3187 449.663H69.9322C70.0614 449.663 70.1824 449.72 70.2642 449.82C70.3459 449.919 70.377 450.05 70.3525 450.176L64.8976 477.618C64.8583 477.819 64.6817 477.963 64.4757 477.963ZM45.1285 477.103H64.1225L69.4073 450.522H39.842L45.1285 477.103Z" fill="#3D63FF"/>
<path d="M68.6515 456.956H49.5904C49.3517 456.956 49.1604 456.763 49.1604 456.526C49.1604 456.289 49.3517 456.097 49.5904 456.097H68.6515C68.8886 456.097 69.0816 456.289 69.0816 456.526C69.0816 456.763 68.8886 456.956 68.6515 456.956Z" fill="#3D63FF"/>
<g opacity="0.340979">
<path d="M661.45 335.147C661.45 336.155 660.631 336.973 659.622 336.973C658.613 336.973 657.795 336.155 657.795 335.147C657.795 334.139 658.613 333.321 659.622 333.321C660.631 333.321 661.45 334.139 661.45 335.147Z" fill="#E4EDFF"/>
<path d="M674.542 335.147C674.542 336.155 673.724 336.973 672.715 336.973C671.706 336.973 670.887 336.155 670.887 335.147C670.887 334.139 671.706 333.321 672.715 333.321C673.724 333.321 674.542 334.139 674.542 335.147Z" fill="#E4EDFF"/>
<path d="M687.634 335.147C687.634 336.155 686.815 336.973 685.806 336.973C684.797 336.973 683.978 336.155 683.978 335.147C683.978 334.139 684.797 333.321 685.806 333.321C686.815 333.321 687.634 334.139 687.634 335.147Z" fill="#E4EDFF"/>
<path d="M700.724 335.147C700.724 336.155 699.905 336.973 698.896 336.973C697.887 336.973 697.068 336.155 697.068 335.147C697.068 334.139 697.887 333.321 698.896 333.321C699.905 333.321 700.724 334.139 700.724 335.147Z" fill="#E4EDFF"/>
<path d="M661.45 345.497C661.45 346.505 660.631 347.323 659.622 347.323C658.613 347.323 657.795 346.505 657.795 345.497C657.795 344.489 658.613 343.672 659.622 343.672C660.631 343.672 661.45 344.489 661.45 345.497Z" fill="#E4EDFF"/>
<path d="M674.542 345.497C674.542 346.505 673.724 347.323 672.715 347.323C671.706 347.323 670.887 346.505 670.887 345.497C670.887 344.489 671.706 343.672 672.715 343.672C673.724 343.672 674.542 344.489 674.542 345.497Z" fill="#E4EDFF"/>
<path d="M687.633 345.497C687.633 346.505 686.815 347.323 685.806 347.323C684.797 347.323 683.978 346.505 683.978 345.497C683.978 344.489 684.797 343.672 685.806 343.672C686.815 343.672 687.633 344.489 687.633 345.497Z" fill="#E4EDFF"/>
<path d="M700.724 345.497C700.724 346.505 699.905 347.323 698.896 347.323C697.887 347.323 697.068 346.505 697.068 345.497C697.068 344.489 697.887 343.672 698.896 343.672C699.905 343.672 700.724 344.489 700.724 345.497Z" fill="#E4EDFF"/>
<path d="M661.45 355.848C661.45 356.857 660.631 357.673 659.622 357.673C658.613 357.673 657.795 356.857 657.795 355.848C657.795 354.84 658.613 354.022 659.622 354.022C660.631 354.022 661.45 354.84 661.45 355.848Z" fill="#E4EDFF"/>
<path d="M674.542 355.848C674.542 356.857 673.724 357.673 672.715 357.673C671.706 357.673 670.887 356.857 670.887 355.848C670.887 354.84 671.706 354.022 672.715 354.022C673.724 354.022 674.542 354.84 674.542 355.848Z" fill="#E4EDFF"/>
<path d="M687.633 355.848C687.633 356.857 686.815 357.673 685.806 357.673C684.797 357.673 683.978 356.857 683.978 355.848C683.978 354.84 684.797 354.022 685.806 354.022C686.815 354.022 687.633 354.84 687.633 355.848Z" fill="#E4EDFF"/>
<path d="M700.724 355.848C700.724 356.857 699.905 357.673 698.896 357.673C697.887 357.673 697.068 356.857 697.068 355.848C697.068 354.84 697.887 354.022 698.896 354.022C699.905 354.022 700.724 354.84 700.724 355.848Z" fill="#E4EDFF"/>
<path d="M661.45 366.198C661.45 367.207 660.631 368.025 659.622 368.025C658.613 368.025 657.795 367.207 657.795 366.198C657.795 365.19 658.613 364.372 659.622 364.372C660.631 364.372 661.45 365.19 661.45 366.198Z" fill="#E4EDFF"/>
<path d="M674.542 366.198C674.542 367.207 673.724 368.025 672.715 368.025C671.706 368.025 670.887 367.207 670.887 366.198C670.887 365.19 671.706 364.372 672.715 364.372C673.724 364.372 674.542 365.19 674.542 366.198Z" fill="#E4EDFF"/>
<path d="M687.633 366.198C687.633 367.207 686.815 368.025 685.806 368.025C684.797 368.025 683.978 367.207 683.978 366.198C683.978 365.19 684.797 364.372 685.806 364.372C686.815 364.372 687.633 365.19 687.633 366.198Z" fill="#E4EDFF"/>
<path d="M700.724 366.198C700.724 367.207 699.905 368.025 698.896 368.025C697.887 368.025 697.068 367.207 697.068 366.198C697.068 365.19 697.887 364.372 698.896 364.372C699.905 364.372 700.724 365.19 700.724 366.198Z" fill="#E4EDFF"/>
</g>
</g>
</g>
<defs>
<clipPath id="clip0_15011_110604">
<rect width="717" height="539" fill="white"/>
</clipPath>
</defs>
</svg>
