<svg xmlns="http://www.w3.org/2000/svg" width="20" height="20" fill="none"><path fill="#37352F" d="M19.977 1.493a1.555 1.555 0 0 0-1.47-1.47c-1.603-.087-4.74-.002-7.74 1.55-1.529.79-3.146 2.131-4.436 3.679l-.048.057-2.928.226c-.483.037-.912.29-1.179.693L.178 9.251a1.066 1.066 0 0 0-.086 1.024c.149.335.453.569.816.625l2.467.382-.025.144c-.082.491.08.996.435 1.351l3.438 3.438a1.558 1.558 0 0 0 1.351.435l.144-.025.382 2.467a1.067 1.067 0 0 0 1.06.908c.206 0 .41-.06.59-.178l3.021-1.998c.404-.267.656-.697.694-1.179l.226-2.928.057-.048c1.548-1.29 2.889-2.907 3.68-4.437 1.55-3 1.636-6.136 1.549-7.739Zm-6.852 15.353-2.89 1.911-.373-2.404c1.222-.36 2.43-.935 3.582-1.706l-.148 1.908a.382.382 0 0 1-.17.291Zm-5.074-1.46-3.437-3.437a.38.38 0 0 1-.108-.33c.102-.611.26-1.193.457-1.74l5.157 5.157a10.13 10.13 0 0 1-1.74.458.38.38 0 0 1-.329-.108ZM3.445 6.704l1.908-.148a13.126 13.126 0 0 0-1.706 3.582l-2.405-.372 1.912-2.891a.382.382 0 0 1 .29-.171Zm10.553 6.065a13.43 13.43 0 0 1-2.713 1.774L5.456 8.714A13.666 13.666 0 0 1 7.23 6.002c1.195-1.432 2.68-2.667 4.076-3.389 2.753-1.424 5.653-1.5 7.137-1.42.197.011.353.167.363.364.081 1.484.005 4.384-1.42 7.137-.721 1.396-1.956 2.881-3.388 4.075Z"/><path fill="#37352F" d="M13.7 9.228c.75 0 1.5-.286 2.072-.857A2.91 2.91 0 0 0 16.63 6.3a2.91 2.91 0 0 0-.858-2.072 2.933 2.933 0 0 0-4.143 0A2.91 2.91 0 0 0 10.77 6.3c0 .782.304 1.518.858 2.071a2.92 2.92 0 0 0 2.071.857Zm-1.243-4.171a1.752 1.752 0 0 1 1.243-.514A1.752 1.752 0 0 1 15.458 6.3a1.76 1.76 0 0 1-3.516 0c0-.47.183-.911.515-1.243ZM.598 16.482c.15 0 .3-.057.414-.172l1.913-1.913a.586.586 0 1 0-.829-.828L.183 15.482a.586.586 0 0 0 .415 1ZM4.678 15.322a.586.586 0 0 0-.829 0L.172 19a.586.586 0 0 0 .828.828l3.678-3.677a.586.586 0 0 0 0-.829ZM5.602 17.075 3.69 18.988a.586.586 0 0 0 .829.829l1.913-1.913a.586.586 0 0 0-.829-.83Z"/></svg>