
<svg viewBox="0 0 40 40" fill="none" xmlns="http://www.w3.org/2000/svg">
<g clip-path="url(#clip0_1621_79047)">
<path d="M34.9657 7.23963C34.935 6.66477 34.6929 6.12156 34.2858 5.71449C33.8787 5.30743 33.3355 5.06528 32.7607 5.03463C30.3562 4.90413 25.6507 5.03163 21.1507 7.35963C18.8572 8.54463 16.4317 10.5561 14.4967 12.8781L14.4247 12.9636L10.0327 13.3026C9.30817 13.3581 8.66467 13.7376 8.26417 14.3421L5.26717 18.8766C5.11797 19.101 5.02792 19.3595 5.00537 19.6281C4.98281 19.8966 5.02849 20.1665 5.13817 20.4126C5.36167 20.9151 5.81767 21.2661 6.36217 21.3501L10.0627 21.9231L10.0252 22.1391C9.90217 22.8756 10.1452 23.6331 10.6777 24.1656L15.8347 29.3226C16.0966 29.5841 16.417 29.7796 16.7693 29.893C17.1216 30.0065 17.4958 30.0346 17.8612 29.9751L18.0772 29.9376L18.6502 33.6381C18.7074 34.0183 18.8996 34.3651 19.1916 34.6152C19.4835 34.8652 19.8557 35.0019 20.2402 35.0001C20.5492 35.0001 20.8552 34.9101 21.1252 34.7331L25.6567 31.7361C26.2627 31.3356 26.6407 30.6906 26.6977 29.9676L27.0367 25.5756L27.1222 25.5036C29.4442 23.5686 31.4557 21.1431 32.6422 18.8481C34.9672 14.3481 35.0962 9.64413 34.9657 7.23963ZM24.6877 30.2691L20.3527 33.1356L19.7932 29.5296C21.6262 28.9896 23.4382 28.1271 25.1662 26.9706L24.9442 29.8326C24.9379 29.92 24.9116 30.0048 24.8674 30.0805C24.8232 30.1562 24.7622 30.2207 24.6892 30.2691H24.6877ZM17.0767 28.0791L11.9212 22.9236C11.8568 22.8599 11.8085 22.7818 11.7803 22.6957C11.7521 22.6096 11.7449 22.5181 11.7592 22.4286C11.9122 21.5121 12.1492 20.6391 12.4447 19.8186L20.1802 27.5541C19.3323 27.8601 18.4588 28.09 17.5702 28.2411C17.481 28.2552 17.3897 28.2478 17.3039 28.2196C17.2181 28.1914 17.1402 28.1433 17.0767 28.0791ZM10.1677 15.0561L13.0297 14.8341C11.9094 16.4851 11.0465 18.2968 10.4707 20.2071L6.86317 19.6491L9.73117 15.3126C9.77926 15.2395 9.84348 15.1783 9.91888 15.1339C9.99429 15.0894 10.0804 15.0628 10.1677 15.0561ZM25.9972 24.1536C24.7531 25.2017 23.3866 26.0952 21.9277 26.8146L13.1842 18.0711C13.9067 16.6144 14.8 15.2488 15.8452 14.0031C17.6377 11.8551 19.8652 10.0026 21.9592 8.91963C26.0887 6.78363 30.4387 6.66963 32.6647 6.78963C32.9602 6.80613 33.1942 7.04013 33.2092 7.33563C33.3307 9.56163 33.2167 13.9116 31.0792 18.0411C29.9977 20.1351 28.1452 22.3626 25.9972 24.1536Z" fill="currentColor"/>
<path d="M25.55 18.842C26.675 18.842 27.8 18.413 28.658 17.5565C29.0672 17.1495 29.3917 16.6654 29.6126 16.1321C29.8335 15.5989 29.9465 15.0272 29.945 14.45C29.9467 13.8726 29.8338 13.3005 29.6129 12.767C29.392 12.2335 29.0674 11.7492 28.658 11.342C27.8332 10.5192 26.7158 10.0571 25.5507 10.0571C24.3857 10.0571 23.2683 10.5192 22.4435 11.342C22.0338 11.749 21.7089 12.2334 21.4878 12.7669C21.2666 13.3004 21.1535 13.8725 21.155 14.45C21.155 15.623 21.611 16.727 22.442 17.5565C22.8496 17.9648 23.3339 18.2886 23.867 18.5092C24.4001 18.7298 24.973 18.8429 25.55 18.842ZM23.6855 12.5855C23.9302 12.3405 24.2208 12.1462 24.5408 12.0139C24.8608 11.8816 25.2037 11.8138 25.55 11.8145C25.8965 11.8133 26.2398 11.8806 26.5602 12.0127C26.8806 12.1447 27.1717 12.3387 27.4167 12.5837C27.6618 12.8286 27.8561 13.1196 27.9882 13.4399C28.1204 13.7602 28.188 14.1035 28.187 14.45C28.1547 15.1276 27.8627 15.7668 27.3717 16.2349C26.8807 16.703 26.2284 16.9642 25.55 16.9642C24.8716 16.9642 24.2192 16.703 23.7283 16.2349C23.2373 15.7668 22.9453 15.1276 22.913 14.45C22.913 13.745 23.1875 13.0835 23.6855 12.5855ZM5.89699 29.723C6.12199 29.723 6.34699 29.6375 6.51799 29.465L9.38749 26.5955C9.47221 26.5146 9.53991 26.4175 9.58658 26.31C9.63326 26.2026 9.65798 26.0868 9.65928 25.9697C9.66059 25.8525 9.63846 25.7363 9.59419 25.6278C9.54992 25.5193 9.48441 25.4208 9.40151 25.3379C9.31861 25.2551 9.21999 25.1898 9.11145 25.1456C9.00291 25.1015 8.88664 25.0795 8.76947 25.0809C8.65231 25.0824 8.53662 25.1072 8.42921 25.154C8.32179 25.2009 8.22482 25.2687 8.14399 25.3535L5.27449 28.223C5.15169 28.346 5.06811 28.5027 5.03434 28.6732C5.00056 28.8437 5.01809 29.0204 5.08471 29.1809C5.15134 29.3415 5.26407 29.4786 5.40865 29.5751C5.55323 29.6716 5.72317 29.7231 5.89699 29.723ZM12.017 27.983C11.9354 27.9013 11.8384 27.8365 11.7317 27.7923C11.6251 27.7481 11.5107 27.7253 11.3952 27.7253C11.2798 27.7253 11.1654 27.7481 11.0587 27.7923C10.952 27.8365 10.8551 27.9013 10.7735 27.983L5.25799 33.5C5.10452 33.6669 5.02149 33.8867 5.02625 34.1134C5.031 34.3401 5.12317 34.5561 5.28351 34.7165C5.44384 34.8768 5.65992 34.969 5.88662 34.9737C6.11331 34.9785 6.33307 34.8955 6.49999 34.742L12.017 29.2265C12.0987 29.1449 12.1635 29.0479 12.2077 28.9413C12.2519 28.8346 12.2746 28.7202 12.2746 28.6047C12.2746 28.4893 12.2519 28.3749 12.2077 28.2682C12.1635 28.1615 12.0987 28.0646 12.017 27.983ZM13.403 30.6125L10.535 33.482C10.3701 33.6469 10.2774 33.8705 10.2774 34.1037C10.2774 34.3369 10.3701 34.5606 10.535 34.7255C10.6999 34.8904 10.9235 34.983 11.1567 34.983C11.3899 34.983 11.6136 34.8904 11.7785 34.7255L14.648 31.856C14.8131 31.6911 14.9059 31.4674 14.9061 31.234C14.9062 31.0007 14.8136 30.7768 14.6487 30.6117C14.4838 30.4466 14.2601 30.3538 14.0268 30.3537C13.7934 30.3535 13.5696 30.4461 13.4045 30.611L13.403 30.6125Z" fill="currentColor"/>
</g>
<defs>
<clipPath id="clip0_1621_79047">
<rect width="30" height="30" fill="white" transform="translate(5 5)"/>
</clipPath>
</defs>
</svg>
