<svg width="10" height="10" viewBox="0 0 10 10" fill="none" xmlns="http://www.w3.org/2000/svg">
<path d="M4.93164 0.0625C6.14326 0.0625345 7.1279 1.03531 7.12793 2.22852C7.1276 2.71509 6.96172 3.18799 6.65625 3.57031C6.35078 3.95252 5.92335 4.22185 5.44336 4.33594L5.37109 4.35352L5.40039 4.42188C5.47935 4.60611 5.61157 4.76357 5.78027 4.87402C5.94895 4.98442 6.14735 5.04276 6.34961 5.04297H6.78223C7.24734 5.04357 7.69447 5.22109 8.03027 5.53809C8.36599 5.85506 8.56491 6.28753 8.58594 6.74512L8.64746 6.74316L8.63672 6.80273C9.37722 6.94313 9.93738 7.58687 9.9375 8.35547C9.93713 8.77449 9.76832 9.17701 9.46777 9.47363C9.16724 9.77014 8.75939 9.93692 8.33398 9.9375L8.17578 9.92969C7.80828 9.89351 7.46245 9.73332 7.19922 9.47363C6.89861 9.17701 6.72986 8.77454 6.72949 8.35547C6.73008 8.03381 6.82966 7.71952 7.01562 7.45508C7.20166 7.19054 7.46568 6.98834 7.77148 6.875L7.8125 6.85938V6.81641C7.80941 6.25765 7.34726 5.80566 6.78223 5.80566H6.34961C6.08818 5.80584 5.82906 5.74975 5.5918 5.6416C5.35483 5.53354 5.14462 5.37576 4.97559 5.17969L4.92871 5.125L4.88086 5.17871C4.54985 5.55492 4.06151 5.79294 3.51758 5.79297H3.08398C2.81829 5.79327 2.56284 5.89522 2.37109 6.07715C2.17923 6.25921 2.06623 6.50772 2.05566 6.77051L2.05371 6.81934L2.10059 6.83301C2.43703 6.92695 2.7334 7.12667 2.94434 7.40137C3.15521 7.67609 3.27001 8.0111 3.27051 8.35547C3.27014 8.77449 3.10133 9.17701 2.80078 9.47363C2.50028 9.77016 2.09238 9.93688 1.66699 9.9375C1.24134 9.93714 0.832956 9.7703 0.532227 9.47363C0.23157 9.177 0.0628686 8.77458 0.0625 8.35547C0.0630906 8.01099 0.177614 7.67608 0.388672 7.40137C0.599888 7.12652 0.896594 6.92672 1.2334 6.83301L1.27832 6.82031L1.2793 6.77441C1.28917 6.30891 1.48296 5.86522 1.82031 5.53906C2.15777 5.21287 2.61216 5.02956 3.08496 5.0293H3.51758C3.91917 5.02926 4.26492 4.79965 4.43457 4.46777L4.43848 4.46875V4.46582C4.46369 4.47115 4.48859 4.47802 4.51367 4.48242L4.60645 4.49805L4.58594 4.40723C4.56226 4.30212 4.54843 4.19189 4.54492 4.0791L4.41992 4.07715C4.41382 4.16216 4.39227 4.2426 4.36328 4.31934C3.42598 4.07181 2.73535 3.22899 2.73535 2.22852C2.73538 1.03529 3.71999 0.0625 4.93164 0.0625ZM1.66699 7.58301C1.45594 7.58301 1.25262 7.66282 1.09863 7.80566C0.983146 7.9128 0.902188 8.04956 0.863281 8.19922L0.837891 8.35254V8.36035C0.850895 8.56888 0.944624 8.76436 1.09863 8.90723C1.25261 9.05006 1.45595 9.12988 1.66699 9.12988C1.87797 9.12983 2.08142 9.05003 2.23535 8.90723C2.38923 8.76438 2.48211 8.56878 2.49512 8.36035H2.49609L2.49512 8.35254C2.48212 8.14411 2.38923 7.94852 2.23535 7.80566C2.08142 7.66286 1.87797 7.58306 1.66699 7.58301ZM4.93164 0.826172C4.14859 0.826172 3.5098 1.4539 3.50977 2.22852C3.51037 2.60041 3.66054 2.95695 3.92676 3.21973C4.1783 3.46787 4.51463 3.61101 4.86816 3.62695V3.63184H4.93555C5.71635 3.62951 6.35254 3.00156 6.35254 2.22852C6.35251 1.45396 5.71471 0.826206 4.93164 0.826172ZM9.16211 8.35156C9.14905 8.14312 9.05532 7.94751 8.90137 7.80469C8.7474 7.66192 8.544 7.58301 8.33301 7.58301C8.12203 7.58306 7.91858 7.66189 7.76465 7.80469C7.61076 7.94749 7.51795 8.14317 7.50488 8.35156V8.35547C7.5053 8.57269 7.59256 8.78129 7.74805 8.93457C7.88408 9.06864 8.06255 9.1512 8.25195 9.16992L8.33398 9.17383C8.55317 9.17322 8.76378 9.08681 8.91895 8.93359C9.07395 8.78038 9.1617 8.57232 9.16211 8.35547V8.35156Z" fill="white" stroke="#FBFCFF" stroke-width="0.125"/>
</svg>
