<svg viewBox="0 0 20 20" fill="none" xmlns="http://www.w3.org/2000/svg">
<path d="M16.875 6.25H15.625V4.375C15.625 3.87772 15.4275 3.40081 15.0758 3.04917C14.7242 2.69754 14.2473 2.5 13.75 2.5H3.125C2.62772 2.5 2.15081 2.69754 1.79917 3.04917C1.44754 3.40081 1.25 3.87772 1.25 4.375V16.875C1.25 17.3723 1.44754 17.8492 1.79917 18.2008C2.15081 18.5525 2.62772 18.75 3.125 18.75H16.5625C17.1427 18.75 17.6991 18.5195 18.1093 18.1093C18.5195 17.6991 18.75 17.1427 18.75 16.5625V8.125C18.75 7.62772 18.5525 7.15081 18.2008 6.79917C17.8492 6.44754 17.3723 6.25 16.875 6.25ZM2.5 16.875V4.375C2.5 4.20924 2.56585 4.05027 2.68306 3.93306C2.80027 3.81585 2.95924 3.75 3.125 3.75H13.75C13.9158 3.75 14.0747 3.81585 14.1919 3.93306C14.3092 4.05027 14.375 4.20924 14.375 4.375V16.5625C14.3763 16.8875 14.4511 17.208 14.5938 17.5H3.125C2.95924 17.5 2.80027 17.4342 2.68306 17.3169C2.56585 17.1997 2.5 17.0408 2.5 16.875ZM17.5 16.5625C17.5 16.8111 17.4012 17.0496 17.2254 17.2254C17.0496 17.4012 16.8111 17.5 16.5625 17.5C16.3139 17.5 16.0754 17.4012 15.8996 17.2254C15.7238 17.0496 15.625 16.8111 15.625 16.5625V7.5H16.875C17.0408 7.5 17.1997 7.56585 17.3169 7.68306C17.4342 7.80027 17.5 7.95924 17.5 8.125V16.5625Z" fill="black"/>
<path d="M12.5 6.875H6.25C6.08424 6.875 5.92527 6.94085 5.80806 7.05806C5.69085 7.17527 5.625 7.33424 5.625 7.5C5.625 7.66576 5.69085 7.82473 5.80806 7.94194C5.92527 8.05915 6.08424 8.125 6.25 8.125H12.5C12.6658 8.125 12.8247 8.05915 12.9419 7.94194C13.0592 7.82473 13.125 7.66576 13.125 7.5C13.125 7.33424 13.0592 7.17527 12.9419 7.05806C12.8247 6.94085 12.6658 6.875 12.5 6.875Z" fill="black"/>
<path d="M12.5 10H4.375C4.20924 10 4.05027 10.0658 3.93306 10.1831C3.81585 10.3003 3.75 10.4592 3.75 10.625C3.75 10.7908 3.81585 10.9497 3.93306 11.0669C4.05027 11.1842 4.20924 11.25 4.375 11.25H12.5C12.6658 11.25 12.8247 11.1842 12.9419 11.0669C13.0592 10.9497 13.125 10.7908 13.125 10.625C13.125 10.4592 13.0592 10.3003 12.9419 10.1831C12.8247 10.0658 12.6658 10 12.5 10Z" fill="black"/>
<path d="M12.5 13.125H4.375C4.20924 13.125 4.05027 13.1908 3.93306 13.3081C3.81585 13.4253 3.75 13.5842 3.75 13.75C3.75 13.9158 3.81585 14.0747 3.93306 14.1919C4.05027 14.3092 4.20924 14.375 4.375 14.375H12.5C12.6658 14.375 12.8247 14.3092 12.9419 14.1919C13.0592 14.0747 13.125 13.9158 13.125 13.75C13.125 13.5842 13.0592 13.4253 12.9419 13.3081C12.8247 13.1908 12.6658 13.125 12.5 13.125Z" fill="black"/>
</svg>
