<svg viewBox="0 0 16 18" fill="none" xmlns="http://www.w3.org/2000/svg">
<path fill-rule="evenodd" clip-rule="evenodd" d="M0 4.28572C0 1.91879 1.98985 0 4.44444 0H11.5556C14.0101 0 16 1.91879 16 4.28572V11.1429C16 12.4918 15.3413 13.762 14.2222 14.5714L10.6667 17.1429C9.0864 18.2857 6.9136 18.2857 5.33333 17.1429L1.77778 14.5714C0.65864 13.762 0 12.4918 0 11.1429V4.28572ZM4.44444 1.71429C2.97169 1.71429 1.77778 2.86556 1.77778 4.28572V11.1429C1.77778 11.9523 2.17296 12.7144 2.84444 13.2L6.4 15.7714C7.34818 16.4572 8.65182 16.4572 9.6 15.7714L13.1556 13.2C13.827 12.7144 14.2222 11.9523 14.2222 11.1429V4.28572C14.2222 2.86556 13.0284 1.71429 11.5556 1.71429H4.44444ZM11.2952 4.53677C11.6423 4.87151 11.6423 5.41422 11.2952 5.74896L9.25707 7.71429L11.2952 9.67964C11.6423 10.0144 11.6423 10.5571 11.2952 10.8918C10.9481 11.2265 10.3852 11.2265 10.0381 10.8918L8 8.92647L5.96188 10.8918C5.61474 11.2265 5.05193 11.2265 4.70479 10.8918C4.35766 10.5571 4.35766 10.0144 4.70479 9.67964L6.74293 7.71429L4.70479 5.74896C4.35766 5.41423 4.35766 4.87151 4.70479 4.53678C5.05193 4.20204 5.61474 4.20204 5.96188 4.53678L8 6.50211L10.0381 4.53677C10.3852 4.20204 10.9481 4.20204 11.2952 4.53677Z" fill="currentColor"/>
</svg>
