<svg viewBox="0 0 20 20" fill="none" xmlns="http://www.w3.org/2000/svg">
<path d="M6.8 2H3.42222C2.9244 2 2.67549 2 2.48534 2.09688C2.31809 2.1821 2.1821 2.31809 2.09688 2.48534C2 2.67549 2 2.9244 2 3.42222V6.8C2 7.29782 2 7.54674 2.09688 7.73688C2.1821 7.90414 2.31809 8.04012 2.48534 8.12534C2.67549 8.22222 2.9244 8.22222 3.42222 8.22222H6.8C7.29782 8.22222 7.54674 8.22222 7.73688 8.12534C7.90414 8.04012 8.04012 7.90414 8.12534 7.73688C8.22222 7.54674 8.22222 7.29782 8.22222 6.8V3.42222C8.22222 2.9244 8.22222 2.67549 8.12534 2.48534C8.04012 2.31809 7.90414 2.1821 7.73688 2.09688C7.54674 2 7.29782 2 6.8 2Z" stroke="currentColor" stroke-width="1.3" stroke-linecap="round" stroke-linejoin="round"/>
<path d="M16.5778 2H13.2C12.7022 2 12.4533 2 12.2631 2.09688C12.0959 2.1821 11.9599 2.31809 11.8747 2.48534C11.7778 2.67549 11.7778 2.9244 11.7778 3.42222V6.8C11.7778 7.29782 11.7778 7.54674 11.8747 7.73688C11.9599 7.90414 12.0959 8.04012 12.2631 8.12534C12.4533 8.22222 12.7022 8.22222 13.2 8.22222H16.5778C17.0756 8.22222 17.3245 8.22222 17.5147 8.12534C17.6819 8.04012 17.8179 7.90414 17.9031 7.73688C18 7.54674 18 7.29782 18 6.8V3.42222C18 2.9244 18 2.67549 17.9031 2.48534C17.8179 2.31809 17.6819 2.1821 17.5147 2.09688C17.3245 2 17.0756 2 16.5778 2Z" stroke="currentColor" stroke-width="1.3" stroke-linecap="round" stroke-linejoin="round"/>
<path d="M16.5778 11.7778H13.2C12.7022 11.7778 12.4533 11.7778 12.2631 11.8747C12.0959 11.9599 11.9599 12.0959 11.8747 12.2631C11.7778 12.4533 11.7778 12.7022 11.7778 13.2V16.5778C11.7778 17.0756 11.7778 17.3245 11.8747 17.5147C11.9599 17.6819 12.0959 17.8179 12.2631 17.9031C12.4533 18 12.7022 18 13.2 18H16.5778C17.0756 18 17.3245 18 17.5147 17.9031C17.6819 17.8179 17.8179 17.6819 17.9031 17.5147C18 17.3245 18 17.0756 18 16.5778V13.2C18 12.7022 18 12.4533 17.9031 12.2631C17.8179 12.0959 17.6819 11.9599 17.5147 11.8747C17.3245 11.7778 17.0756 11.7778 16.5778 11.7778Z" stroke="currentColor" stroke-width="1.3" stroke-linecap="round" stroke-linejoin="round"/>
<path d="M6.8 11.7778H3.42222C2.9244 11.7778 2.67549 11.7778 2.48534 11.8747C2.31809 11.9599 2.1821 12.0959 2.09688 12.2631C2 12.4533 2 12.7022 2 13.2V16.5778C2 17.0756 2 17.3245 2.09688 17.5147C2.1821 17.6819 2.31809 17.8179 2.48534 17.9031C2.67549 18 2.9244 18 3.42222 18H6.8C7.29782 18 7.54674 18 7.73688 17.9031C7.90414 17.8179 8.04012 17.6819 8.12534 17.5147C8.22222 17.3245 8.22222 17.0756 8.22222 16.5778V13.2C8.22222 12.7022 8.22222 12.4533 8.12534 12.2631C8.04012 12.0959 7.90414 11.9599 7.73688 11.8747C7.54674 11.7778 7.29782 11.7778 6.8 11.7778Z" stroke="currentColor" stroke-width="1.3" stroke-linecap="round" stroke-linejoin="round"/>
</svg>
