<svg xmlns="http://www.w3.org/2000/svg" width="48" height="48" viewBox="0 0 48 48"><defs><linearGradient id="g-gold" x1="0" y1="0" x2="0" y2="1"><stop offset="0%" stop-color="#FCD877"></stop><stop offset="100%" stop-color="#E39A24"></stop></linearGradient><clipPath id="c-gold"><path d="M14 8.5 H34 A4.5 4.5 0 0 1 38.5 13 V23.5 C38.5 32.2 32.1 38.4 24 42 C15.9 38.4 9.5 32.2 9.5 23.5 V13 A4.5 4.5 0 0 1 14 8.5 Z"></path></clipPath><filter id="s-gold" x="-30%" y="-25%" width="160%" height="155%"><feDropShadow dx="0" dy="1.2" stdDeviation="1" flood-color="#101828" flood-opacity="0.22"></feDropShadow></filter></defs><g filter="url(#s-gold)"><path d="M14 8.5 H34 A4.5 4.5 0 0 1 38.5 13 V23.5 C38.5 32.2 32.1 38.4 24 42 C15.9 38.4 9.5 32.2 9.5 23.5 V13 A4.5 4.5 0 0 1 14 8.5 Z" fill="url(#g-gold)" stroke="#C67E17" stroke-width="1" stroke-linejoin="round"></path><g clip-path="url(#c-gold)"><ellipse cx="24" cy="11.5" rx="12.5" ry="7.5" fill="#FFFFFF" opacity="0.3"></ellipse><ellipse cx="24" cy="45" rx="15" ry="9" fill="#E39A24" opacity="0.28"></ellipse></g><path d="M24 12.7 L25.88 17.91 L31.42 18.09 L27.04 21.49 L28.59 26.81 L24 23.7 L19.41 26.81 L20.96 21.49 L16.58 18.09 L22.12 17.91 Z" fill="#FFFFFF"></path></g></svg>