<svg width="30" height="35" viewBox="0 0 30 35" fill="none" xmlns="http://www.w3.org/2000/svg">
<path d="M5 0.5H25C26.1935 0.5 27.3381 0.974106 28.182 1.81802C29.0259 2.66193 29.5 3.80653 29.5 5V15.5C29.5 24.2 23.1 30.4 15 34C6.9 30.4 0.5 24.2 0.5 15.5V5C0.5 3.80653 0.974106 2.66193 1.81802 1.81802C2.66193 0.974106 3.80653 0.5 5 0.5Z" fill="url(#paint0_linear_21616_29218)" stroke="#C67E17" stroke-linejoin="round"/>
<mask id="mask0_21616_29218" style="mask-type:luminance" maskUnits="userSpaceOnUse" x="0" y="0" width="30" height="34">
<path d="M5 0.5H25C26.1935 0.5 27.3381 0.974106 28.182 1.81802C29.0259 2.66193 29.5 3.80653 29.5 5V15.5C29.5 24.2 23.1 30.4 15 34C6.9 30.4 0.5 24.2 0.5 15.5V5C0.5 3.80653 0.974106 2.66193 1.81802 1.81802C2.66193 0.974106 3.80653 0.5 5 0.5Z" fill="white"/>
</mask>
<g mask="url(#mask0_21616_29218)">
<path opacity="0.3" d="M15 11C21.9036 11 27.5 7.64214 27.5 3.5C27.5 -0.642136 21.9036 -4 15 -4C8.09644 -4 2.5 -0.642136 2.5 3.5C2.5 7.64214 8.09644 11 15 11Z" fill="white"/>
<path opacity="0.28" d="M15 46C23.2843 46 30 41.9706 30 37C30 32.0294 23.2843 28 15 28C6.71573 28 0 32.0294 0 37C0 41.9706 6.71573 46 15 46Z" fill="#E39A24"/>
</g>
<path d="M15.0001 4.7002L16.8801 9.9102L22.4201 10.0902L18.0401 13.4902L19.5901 18.8102L15.0001 15.7002L10.4101 18.8102L11.9601 13.4902L7.58008 10.0902L13.1201 9.9102L15.0001 4.7002Z" fill="white"/>
<defs>
<linearGradient id="paint0_linear_21616_29218" x1="0.5" y1="0.5" x2="0.5" y2="34" gradientUnits="userSpaceOnUse">
<stop stop-color="#FCD877"/>
<stop offset="1" stop-color="#E39A24"/>
</linearGradient>
</defs>
</svg>
