<svg width="30" height="30" viewBox="0 0 30 30" fill="none" xmlns="http://www.w3.org/2000/svg">
<path d="M13.2572 1.28177L6.32932 4.12205C4.9167 4.70062 4 6.07567 4 7.601V16.7079C4 24.8981 11.1458 27.4829 13.7531 28.1517C14.3693 28.3094 15.0079 28.3094 15.6241 28.1517C18.2314 27.4829 25.3772 24.8981 25.3772 16.7079V7.601C25.3772 6.07567 24.453 4.70062 23.0479 4.12205L16.1125 1.28177C15.1958 0.906076 14.1739 0.906076 13.2572 1.28177Z" fill="#D9D9D9"/>
<path d="M14.6847 26.3806C14.5269 26.3806 14.3691 26.358 14.2188 26.3205C13.0993 26.0349 10.9353 25.3211 9.09434 23.7958C6.96037 22.0225 5.87085 19.6331 5.87085 16.7026V7.59571C5.87085 6.82929 6.3292 6.14552 7.03551 5.85999L13.9634 3.01972C14.1888 2.92955 14.4292 2.87695 14.6772 2.87695C14.9252 2.87695 15.1656 2.92204 15.391 3.01972L22.3189 5.85999C23.0252 6.15304 23.4836 6.82929 23.4836 7.59571V16.7026C23.4836 19.6406 22.4015 22.0225 20.2601 23.7958C18.4191 25.3211 16.2626 26.0349 15.1356 26.3205C15.0003 26.3656 14.8425 26.3806 14.6847 26.3806Z" fill="#979797"/>
<path d="M14.6854 21.7726C18.6277 21.7726 21.8236 18.5767 21.8236 14.6343C21.8236 10.692 18.6277 7.49609 14.6854 7.49609C10.743 7.49609 7.54712 10.692 7.54712 14.6343C7.54712 18.5767 10.743 21.7726 14.6854 21.7726Z" fill="#E9ECEF"/>
<path d="M15.5872 10.9939L16.4137 12.5793L18.1795 12.8799C18.991 13.0152 19.3141 14.007 18.7355 14.6006L17.4882 15.878L17.7512 17.6513C17.8714 18.4628 17.0298 19.0789 16.2935 18.7107L14.6855 17.9143L13.085 18.7107C12.3486 19.0789 11.5071 18.4628 11.6273 17.6513L11.8903 15.878L10.643 14.6006C10.0644 14.0145 10.3875 13.0227 11.199 12.8799L12.9648 12.5793L13.7913 10.9939C14.167 10.2651 15.2039 10.2651 15.5872 10.9939Z" fill="#979797"/>
</svg>
