
<svg viewBox="0 0 25 25" fill="none" xmlns="http://www.w3.org/2000/svg">
<path d="M5.17427 0.0954635C4.39168 0.335004 3.71235 0.860966 3.36453 1.49628C2.97322 2.22012 3.0004 1.37651 3.0004 11.8487C3.0004 20.967 3.00584 21.2952 3.10366 21.6023C3.35366 22.3679 4.03843 23.0188 4.84276 23.2427C5.10363 23.3156 5.81556 23.3261 11.0274 23.3261H16.9132V24.0551C16.9132 24.7165 16.9241 24.7945 17.0218 24.8883C17.2284 25.0862 17.4784 25.0289 18.0653 24.654C18.3588 24.4665 18.6197 24.3155 18.6523 24.3155C18.6849 24.3155 18.9458 24.4665 19.2392 24.654C19.8262 25.0289 20.0762 25.0862 20.2827 24.8883C20.3805 24.7945 20.3914 24.7165 20.3914 24.0551V23.3261H21.587C22.712 23.3261 22.7881 23.3209 22.8914 23.2219C23 23.1177 23 23.0501 23 11.6613C23 0.272518 23 0.204821 22.8914 0.100671C22.7826 -0.00347826 22.712 -0.00347822 14.1307 0.00172946C6.00578 0.00172946 5.45688 0.00693711 5.17427 0.0954635ZM22.1305 9.57829V18.3269H13.6143H5.09276L4.73407 18.4518C4.53841 18.5195 4.26125 18.6445 4.11995 18.7383L3.86995 18.9049V10.9739C3.86995 5.92784 3.89169 2.91272 3.9243 2.67838C3.9569 2.48049 4.03843 2.19408 4.11451 2.04307C4.39712 1.44941 5.05471 0.980734 5.74492 0.887C5.92426 0.860967 9.68507 0.840138 14.1035 0.834923L22.1305 0.829718V9.57829ZM22.1305 19.7849V20.4099H14.848C7.63619 20.4099 7.56554 20.4099 7.45684 20.514C7.3862 20.5817 7.34815 20.6859 7.34815 20.8264C7.34815 20.967 7.3862 21.0712 7.45684 21.1389C7.56554 21.243 7.63619 21.243 12.2394 21.243H16.9132V21.868V22.4928H11.3317C7.74488 22.4928 5.61992 22.472 5.3971 22.4408C4.97319 22.3731 4.69059 22.2377 4.40799 21.9668C4.07103 21.644 3.9243 21.3003 3.9243 20.8212C3.9243 20.4827 3.94604 20.3786 4.08734 20.1078C4.34821 19.6131 4.77755 19.3111 5.34818 19.2173C5.50579 19.1913 9.34811 19.1705 13.8861 19.1653L22.1305 19.1601V19.7849ZM19.5218 22.4981V23.7531L19.3751 23.6645C19.2882 23.6124 19.136 23.5135 19.0327 23.4459C18.7882 23.2896 18.5164 23.2896 18.2719 23.4459C18.1686 23.5135 18.0164 23.6124 17.935 23.6645L17.7827 23.7531V22.4981V21.243H18.6523H19.5218V22.4981ZM22.1305 21.868V22.4928H21.2609H20.3914V21.868V21.243H21.2609H22.1305V21.868Z" fill="currentColor"/>
<path d="M5.95703 2.44141C5.87402 2.52441 5.85938 2.60254 5.85938 2.92969C5.85938 3.39844 5.9375 3.51562 6.25 3.51562C6.5625 3.51562 6.64062 3.39844 6.64062 2.92969C6.64062 2.46094 6.5625 2.34375 6.25 2.34375C6.11816 2.34375 6.02051 2.37793 5.95703 2.44141Z" fill="currentColor"/>
<path d="M5.95703 4.39453C5.85938 4.49219 5.85938 4.55566 5.85938 9.76562C5.85938 14.9756 5.85938 15.0391 5.95703 15.1367C6.08887 15.2686 6.41113 15.2686 6.54297 15.1367C6.64062 15.0391 6.64062 14.9756 6.64062 9.76562C6.64062 4.55566 6.64062 4.49219 6.54297 4.39453C6.47949 4.33105 6.38184 4.29688 6.25 4.29688C6.11816 4.29688 6.02051 4.33105 5.95703 4.39453Z" fill="currentColor"/>
<path d="M5.95703 16.1133C5.87402 16.1963 5.85938 16.2744 5.85938 16.6016C5.85938 17.0703 5.9375 17.1875 6.25 17.1875C6.5625 17.1875 6.64062 17.0703 6.64062 16.6016C6.64062 16.1328 6.5625 16.0156 6.25 16.0156C6.11816 16.0156 6.02051 16.0498 5.95703 16.1133Z" fill="currentColor"/>
<path d="M5.17578 20.0195C5.1123 20.083 5.07812 20.1807 5.07812 20.3125C5.07812 20.6543 5.17578 20.7031 5.85938 20.7031C6.54297 20.7031 6.64062 20.6543 6.64062 20.3125C6.64062 19.9707 6.54297 19.9219 5.85938 19.9219C5.33691 19.9219 5.26367 19.9316 5.17578 20.0195Z" fill="currentColor"/>
<path d="M18.5 7H8.5C8.22386 7 8 7.22386 8 7.5C8 7.77614 8.22386 8 8.5 8H18.5C18.7761 8 19 7.77614 19 7.5C19 7.22386 18.7761 7 18.5 7Z" fill="currentColor"/>
<path d="M18.5 9H8.5C8.22386 9 8 9.22386 8 9.5C8 9.77614 8.22386 10 8.5 10H18.5C18.7761 10 19 9.77614 19 9.5C19 9.22386 18.7761 9 18.5 9Z" fill="currentColor"/>
<path d="M18.5 11H8.5C8.22386 11 8 11.2239 8 11.5C8 11.7761 8.22386 12 8.5 12H18.5C18.7761 12 19 11.7761 19 11.5C19 11.2239 18.7761 11 18.5 11Z" fill="currentColor"/>
<path d="M18.5 13H8.5C8.22386 13 8 13.2239 8 13.5C8 13.7761 8.22386 14 8.5 14H18.5C18.7761 14 19 13.7761 19 13.5C19 13.2239 18.7761 13 18.5 13Z" fill="currentColor"/>
</svg>
