<svg viewBox="0 0 30 30" fill="none" xmlns="http://www.w3.org/2000/svg">
<g clip-path="url(#clip0_8154_246665)">
<mask id="mask0_8154_246665" style="mask-type:luminance" maskUnits="userSpaceOnUse" x="0" y="0" width="30" height="30">
<path d="M30 0H0V30H30V0Z" fill="white"/>
</mask>
<g mask="url(#mask0_8154_246665)">
<path fill-rule="evenodd" clip-rule="evenodd" d="M24.7822 17.2942H23.6213V13.1639C23.6213 12.4787 23.0639 11.9213 22.3787 11.9213H21.7418L21.7384 11.9214C21.0274 11.946 21.0286 12.9759 21.7384 13.0002H21.7418H22.3787C22.4689 13.0002 22.5424 13.0738 22.5424 13.1639V20.5805C22.5424 20.6706 22.4689 20.7442 22.3787 20.7442H7.62169C7.53155 20.7442 7.45802 20.6706 7.45802 20.5805V13.1639C7.45802 13.0738 7.53155 13.0002 7.62169 13.0002H12.9952C13.3539 13.0002 13.6881 12.8074 13.8684 12.4963L15.0003 10.536L16.1323 12.4966C16.3121 12.8072 16.6465 13.0002 17.0053 13.0002H18.7832L17.5675 11.9213L16.2716 12.6832L14.3906 9.4471C14.3686 9.47568 14.3483 9.50636 14.33 9.53913L12.9545 11.9213H7.62175C6.93654 11.9213 6.3792 12.4787 6.3792 13.1639V17.2942H5.75851C3.13981 17.2942 0.995837 15.1637 0.979539 12.5453C0.97162 11.2677 1.46621 10.0621 2.37298 9.14968L2.37379 9.14887C3.71319 7.76965 5.85853 7.35229 7.61578 8.11015C7.8163 8.19483 8.0451 8.19157 8.24259 8.10094C8.43928 8.01054 8.58972 7.84051 8.65603 7.63379C8.90021 6.86715 9.2667 6.14854 9.74541 5.49813C9.98124 5.15298 9.67398 4.86573 9.49086 4.76524C9.29545 4.6214 9.02036 4.66323 8.87652 4.85869C8.39269 5.51604 8.0088 6.23438 7.73305 6.99739C3.96926 5.61306 -0.158931 8.52523 -0.0993379 12.5525C-0.079193 15.7622 2.54837 18.3731 5.75851 18.3731H6.3792V20.5805C6.3792 21.2657 6.93654 21.8231 7.62175 21.8231H9.5898L9.01577 22.3147C8.84349 22.4618 8.74463 22.6761 8.74463 22.9025V23.731C6.74637 24.3606 7.12364 27.3161 9.28177 27.3656L9.28638 27.3655C11.4449 27.3158 11.8213 24.3602 9.82351 23.731V23.0435L11.2483 21.8231H14.4609V24.3654C12.0686 25.0186 12.4514 28.5337 14.9979 28.5966L15.0028 28.5965C17.5498 28.5333 17.9316 25.0182 15.5398 24.3654V21.8231H18.7523L20.1771 23.0434V23.731C18.1789 24.3606 18.5561 27.3161 20.7143 27.3657L20.7189 27.3656C22.8774 27.3158 23.2538 24.3603 21.256 23.731V22.9025C21.256 22.6762 21.1571 22.4619 20.9854 22.3151L20.4108 21.8231H22.3788C23.064 21.8231 23.6213 21.2657 23.6213 20.5805V18.3731H24.7823C27.6922 18.3731 30.0785 16.0333 30.0999 13.1544C30.1103 11.7424 29.5682 10.4126 28.5739 9.41072C27.385 8.19998 25.6507 7.6464 23.9814 7.927C22.6351 1.93912 15.147 -0.655108 10.3884 3.27598C10.157 3.4632 10.121 3.80251 10.308 4.03424C10.4951 4.26599 10.8346 4.30245 11.0666 4.11514L11.0677 4.11417C15.2684 0.616231 22.0021 3.05932 22.9866 8.43395L22.9868 8.43535C23.0276 8.64118 23.1472 8.81799 23.3231 8.9323C23.4979 9.04594 23.7149 9.08451 23.9187 9.03837C25.3117 8.7182 26.8074 9.14966 27.8078 10.1704C28.5985 10.967 29.0293 12.0236 29.021 13.1464C29.004 15.432 27.1036 17.2942 24.7822 17.2942ZM9.28582 26.2867C9.71436 26.2857 10.0628 25.9366 10.0628 25.5078C10.0628 25.0791 9.71442 24.73 9.28584 24.7289C8.25256 24.7697 8.25238 26.2457 9.28582 26.2867ZM15.0021 27.5177C15.5922 27.5167 16.0721 27.0361 16.0721 26.4458C16.0721 25.8555 15.5922 25.375 15.0021 25.374C13.5808 25.4295 13.5806 27.4619 15.0021 27.5177ZM20.7183 26.2867C21.1469 26.2857 21.4953 25.9366 21.4953 25.5078C21.4953 25.0791 21.1469 24.73 20.7183 24.7289C19.6851 24.7697 19.6849 26.2457 20.7183 26.2867Z" fill="currentColor"/>
<path fill-rule="evenodd" clip-rule="evenodd" d="M19.6911 13.0002H18.7832L17.5675 11.9213H19.6911H19.6946C20.4044 11.9457 20.4056 12.9755 19.6946 13.0001L19.6911 13.0002ZM14.5833 9.27269L17.046 11.9213L15.6706 9.53934C15.4483 9.14198 14.9354 9.05297 14.5833 9.27269Z" fill="currentColor"/>
<path d="M17.5675 11.9213H17.046L16.2716 12.6832L17.5675 11.9213Z" fill="currentColor"/>
<path d="M14.5833 9.27269C14.511 9.31781 14.4455 9.37594 14.3906 9.4471L16.2716 12.6832L17.046 11.9213L14.5833 9.27269Z" fill="currentColor"/>
<path d="M23.6213 17.2942H24.7822C27.1036 17.2942 29.004 15.432 29.021 13.1464C29.0293 12.0236 28.5985 10.967 27.8078 10.1704C26.8074 9.14966 25.3117 8.7182 23.9187 9.03837C23.7149 9.08451 23.4979 9.04594 23.3231 8.9323M23.6213 17.2942V13.1639C23.6213 12.4787 23.0639 11.9213 22.3787 11.9213H21.7418L21.7384 11.9214C21.0274 11.946 21.0286 12.9759 21.7384 13.0002H21.7418H22.3787C22.4689 13.0002 22.5424 13.0738 22.5424 13.1639V20.5805C22.5424 20.6706 22.4689 20.7442 22.3787 20.7442H7.62169C7.53155 20.7442 7.45802 20.6706 7.45802 20.5805V13.1639C7.45802 13.0738 7.53155 13.0002 7.62169 13.0002H12.9952C13.3539 13.0002 13.6881 12.8074 13.8684 12.4963L15.0003 10.536L16.1323 12.4966C16.3121 12.8072 16.6465 13.0002 17.0053 13.0002H18.7832M23.6213 17.2942L23.0819 16.8154M23.3231 8.9323L23.3776 8.84845M23.3231 8.9323C23.1472 8.81799 23.0276 8.64118 22.9868 8.43535L22.9866 8.43395C22.0021 3.05932 15.2684 0.616231 11.0677 4.11417L11.0666 4.11514C10.8346 4.30245 10.4951 4.26599 10.308 4.03424C10.121 3.80251 10.157 3.4632 10.3884 3.27598C15.147 -0.655108 22.6351 1.93912 23.9814 7.927C25.6507 7.6464 27.385 8.19998 28.5739 9.41072C29.5682 10.4126 30.1103 11.7424 30.0999 13.1544C30.0785 16.0333 27.6922 18.3731 24.7823 18.3731H23.6213V20.5805C23.6213 21.2657 23.064 21.8231 22.3788 21.8231H20.4108L20.9854 22.3151C21.1571 22.4619 21.256 22.6762 21.256 22.9025V23.731C23.2538 24.3603 22.8774 27.3158 20.7189 27.3656L20.7143 27.3657C18.5561 27.3161 18.1789 24.3606 20.1771 23.731V23.0434L18.7523 21.8231H15.5398V24.3654C17.9316 25.0182 17.5498 28.5333 15.0028 28.5965L14.9979 28.5966C12.4514 28.5337 12.0686 25.0186 14.4609 24.3654V21.8231H11.2483L9.82351 23.0435V23.731C11.8213 24.3602 11.4449 27.3158 9.28638 27.3655L9.28177 27.3656C7.12364 27.3161 6.74637 24.3606 8.74463 23.731V22.9025C8.74463 22.6761 8.84349 22.4618 9.01577 22.3147L9.5898 21.8231H7.62175C6.93654 21.8231 6.3792 21.2657 6.3792 20.5805V18.3731H5.75851C2.54837 18.3731 -0.079193 15.7622 -0.0993379 12.5525C-0.158931 8.52523 3.96926 5.61306 7.73305 6.99739C8.0088 6.23438 8.39269 5.51604 8.87652 4.85869C9.02036 4.66323 9.29545 4.6214 9.49086 4.76524C9.67398 4.86573 9.98124 5.15298 9.74541 5.49813C9.2667 6.14854 8.90021 6.86715 8.65603 7.63379C8.58972 7.84051 8.43928 8.01054 8.24259 8.10094C8.0451 8.19157 7.8163 8.19483 7.61578 8.11015C5.85853 7.35229 3.71319 7.76965 2.37379 9.14887L2.37298 9.14968C1.46621 10.0621 0.97162 11.2677 0.979539 12.5453C0.995837 15.1637 3.13981 17.2942 5.75851 17.2942H6.3792V13.1639C6.3792 12.4787 6.93654 11.9213 7.62175 11.9213H12.9545L14.33 9.53913C14.3483 9.50636 14.3686 9.47568 14.3906 9.4471M17.046 11.9213H17.5675M17.046 11.9213L15.6706 9.53934C15.4483 9.14198 14.9354 9.05297 14.5833 9.27269M17.046 11.9213L14.5833 9.27269M17.046 11.9213L16.2716 12.6832M18.7832 13.0002H19.6911L19.6946 13.0001C20.4056 12.9755 20.4044 11.9457 19.6946 11.9213H19.6911H17.5675M18.7832 13.0002L17.5675 11.9213M17.5675 11.9213L16.2716 12.6832M14.5833 9.27269C14.511 9.31781 14.4455 9.37594 14.3906 9.4471M14.3906 9.4471L16.2716 12.6832M10.0628 25.5078C10.0628 25.9366 9.71436 26.2857 9.28582 26.2867C8.25238 26.2457 8.25256 24.7697 9.28584 24.7289C9.71442 24.73 10.0628 25.0791 10.0628 25.5078ZM16.0721 26.4458C16.0721 27.0361 15.5922 27.5167 15.0021 27.5177C13.5806 27.4619 13.5808 25.4295 15.0021 25.374C15.5922 25.375 16.0721 25.8555 16.0721 26.4458ZM21.4953 25.5078C21.4953 25.9366 21.1469 26.2857 20.7183 26.2867C19.6849 26.2457 19.6851 24.7697 20.7183 24.7289C21.1469 24.73 21.4953 25.0791 21.4953 25.5078Z" stroke="currentColor" stroke-width="0.2"/>
<path d="M15.7745 15H14.1427V19.3595H15.2282V18.2672H15.7745C16.6753 18.2672 17.4082 17.5344 17.4082 16.6336C17.4082 15.7328 16.6753 15 15.7745 15ZM15.7745 17.1818H15.2282V16.0855H15.7745C16.0768 16.0855 16.3227 16.3314 16.3227 16.6336C16.3227 16.9359 16.0768 17.1818 15.7745 17.1818Z" fill="currentColor"/>
<path d="M11.6327 15C10.7324 15 10 15.7324 10 16.6327V19.3595H11.0855V18.2673H12.18V19.3597H13.2655V16.6327C13.2655 15.7324 12.533 15 11.6327 15ZM11.0855 17.1818V16.6327C11.0855 16.331 11.331 16.0855 11.6327 16.0855C11.9345 16.0855 12.18 16.331 12.18 16.6327V17.1818H11.0855Z" fill="currentColor"/>
<path d="M18.1178 15H19.2033V19.36H18.1178V15Z" fill="currentColor"/>
</g>
</g>
<defs>
<clipPath id="clip0_8154_246665">
<rect width="30" height="30" fill="white"/>
</clipPath>
</defs>
</svg>
