<svg viewBox="0 0 102 102" fill="none" xmlns="http://www.w3.org/2000/svg">
<mask id="path-1-outside-1_4457_39493" maskUnits="userSpaceOnUse" x="0" y="0" width="102" height="102" fill="currentColor">
<rect fill="white" width="102" height="102"/>
<path fill-rule="evenodd" clip-rule="evenodd" d="M61.5448 1.19103C50.6353 2.00909 42.1682 4.47287 38.6861 7.8425C36.8257 9.64276 36.8519 9.52537 36.7394 16.5823L36.6417 22.707L30.8798 22.8373C25.022 22.9696 22.9513 23.1366 18.55 23.8319C9.286 25.2951 3.02174 28.1725 1.45783 31.683L1 32.7108L1.00664 61.8033C1.01367 93.0501 0.965819 91.5416 2.00062 93.1603C2.58345 94.0719 4.43096 95.5437 6.07437 96.4054C11.6503 99.3296 21.4807 100.997 33.165 101C50.2525 101.005 62.5204 97.581 64.8805 92.1487C65.2121 91.3852 65.2477 90.7345 65.2516 85.365L65.2559 79.4258L70.5783 79.298C77.9022 79.122 83.1617 78.5065 88.4988 77.2005C93.4446 75.9902 97.324 74.1953 99.2368 72.2321C101.063 70.3581 100.999 70.8761 100.999 57.9155C100.999 46.9296 100.993 46.7421 100.594 46.2128C100.301 45.8226 100.009 45.6748 99.5343 45.6748C98.4526 45.6748 98.0694 46.3932 98.0694 48.4218C98.0694 50.0417 98.0481 50.1187 97.3742 50.9417C96.5133 51.9931 93.5788 53.5765 90.8748 54.4493C85.17 56.2902 77.5109 57.3118 69.4138 57.3118H65.2514L65.3535 41.5059L67.1114 41.5608C69.5097 41.6357 76.9027 41.2376 80.0024 40.8667C88.0199 39.9069 94.5529 38.032 97.5322 35.8352L98.0694 35.4391V37.9164C98.0694 39.2787 98.154 40.5586 98.2573 40.7605C98.3606 40.9622 98.7032 41.2391 99.0184 41.3756C99.4901 41.5798 99.695 41.568 100.174 41.3091C100.494 41.136 100.811 40.8457 100.878 40.6638C100.944 40.4821 100.999 33.7883 100.999 25.789C100.999 9.03641 101.095 10.0045 99.2532 8.10974C96.8693 5.65678 92.9063 3.96533 86.3352 2.59625C81.2151 1.52952 72.1285 0.68533 71.4891 1.21696C70.6203 1.93927 70.6605 3.31182 71.5643 3.78486C71.8008 3.90878 73.4446 4.10743 75.2171 4.22645C86.8636 5.00817 96.6145 7.99357 97.8702 11.1621C99.1229 14.3235 90.2186 17.853 77.6586 19.1735C74.3509 19.5211 63.4603 19.5156 60.0799 19.1643C50.183 18.1361 42.6698 15.8522 40.3342 13.162C39.4811 12.1792 39.4605 11.4347 40.2606 10.4823C42.8351 7.41744 51.5305 4.97244 62.5214 4.22298C66.2065 3.97166 66.6786 3.78629 66.7801 2.5495C66.8278 1.96805 66.7372 1.74369 66.3143 1.396C65.7323 0.917458 65.3889 0.902758 61.5448 1.19103ZM45.8701 19.5101C49.881 20.8347 53.7477 21.586 59.8846 22.2334C63.6881 22.6346 74.87 22.5717 78.8305 22.127C83.7461 21.5748 87.9704 20.7575 91.3309 19.7086C93.1624 19.1367 96.0578 17.8777 97.0563 17.2189C97.5018 16.9249 97.912 16.6844 97.9678 16.6844C98.0237 16.6844 98.0694 19.9478 98.0694 23.9365V31.1888L97.2789 32.0852C94.9208 34.7591 87.5532 37.0248 78.0492 37.9987C74.4161 38.3709 67.3829 38.6334 66.1637 38.4425L65.2559 38.3V35.3924C65.2559 32.6732 65.2231 32.416 64.75 31.4236C63.45 28.6966 59.3924 26.4689 52.8227 24.8754C49.286 24.0173 43.9333 23.1831 40.5481 22.9622L39.7668 22.9112L39.6592 16.7375L41.5194 17.7125C42.5425 18.2488 44.5004 19.0579 45.8701 19.5101ZM40.7434 26.0967C52.5299 26.9723 62.3163 30.3795 62.3247 33.6103C62.3294 35.3808 58.8367 37.4319 53.2438 38.9435C40.4631 42.3977 21.8731 42.0675 10.469 38.1843C6.52888 36.8425 3.92587 34.9604 3.92587 33.4529C3.92587 33.2138 4.24639 32.6475 4.638 32.1943C8.01154 28.2912 21.2723 25.5138 35.0792 25.8186C36.5831 25.8519 39.132 25.977 40.7434 26.0967ZM6.55915 39.8741C15.4756 44.1802 33.7901 45.588 48.6507 43.1094C54.0684 42.206 57.5611 41.0347 62.1796 38.5734C62.2603 38.5303 62.3261 41.7664 62.3261 45.7644V53.0337L61.5452 53.9191C58.3129 57.5846 46.5871 60.17 33.1967 60.17C19.8301 60.17 8.40648 57.6852 4.85363 54.0049L3.92587 53.0439V38.2974L4.50948 38.7316C4.83039 38.9707 5.75288 39.4847 6.55915 39.8741ZM97.6895 69.4412C96.4092 71.6063 91.0358 73.7639 83.7135 75.0525C79.3247 75.8249 75.6806 76.1297 70.4318 76.1636L65.3535 76.1964L65.2514 60.3742L69.5994 60.3732C80.445 60.3705 90.3689 58.549 96.1875 55.4928L97.9717 54.5557L98.0231 61.6728C98.0719 68.4503 98.0561 68.821 97.6895 69.4412ZM9.89402 60.1276C13.5303 61.3331 17.1983 62.0997 22.4811 62.7583C26.6113 63.2734 39.7422 63.273 43.7708 62.7579C52.084 61.6949 58.2769 59.9785 61.5204 57.8383L62.3261 57.3067V72.0812L61.4448 72.964C58.7701 75.6425 51.4486 77.8111 41.8177 78.7772C37.9287 79.1673 27.4674 79.1102 23.6038 78.6778C15.217 77.7388 9.08033 76.0507 5.84429 73.7919C3.84227 72.3944 3.92743 72.8058 3.92665 64.5394L3.92587 57.3741L5.93882 58.4288C7.04608 59.009 8.82583 59.7733 9.89402 60.1276ZM5.1261 76.9283C13.6139 82.1595 36.0333 83.8085 51.7789 80.3594C54.6216 79.7369 58.4381 78.4009 60.4825 77.313L62.3261 76.3318V91.0132L61.4536 91.8994C58.834 94.5606 51.6701 96.6716 41.9153 97.6567C37.6673 98.0856 28.713 98.0844 24.3367 97.654C14.5774 96.6945 7.12753 94.4335 4.71632 91.6994L3.92587 90.8029V83.5506C3.92587 79.562 3.96591 76.2985 4.01494 76.2985C4.06396 76.2985 4.56398 76.5819 5.1261 76.9283Z"/>
</mask>
<path fill-rule="evenodd" clip-rule="evenodd" d="M61.5448 1.19103C50.6353 2.00909 42.1682 4.47287 38.6861 7.8425C36.8257 9.64276 36.8519 9.52537 36.7394 16.5823L36.6417 22.707L30.8798 22.8373C25.022 22.9696 22.9513 23.1366 18.55 23.8319C9.286 25.2951 3.02174 28.1725 1.45783 31.683L1 32.7108L1.00664 61.8033C1.01367 93.0501 0.965819 91.5416 2.00062 93.1603C2.58345 94.0719 4.43096 95.5437 6.07437 96.4054C11.6503 99.3296 21.4807 100.997 33.165 101C50.2525 101.005 62.5204 97.581 64.8805 92.1487C65.2121 91.3852 65.2477 90.7345 65.2516 85.365L65.2559 79.4258L70.5783 79.298C77.9022 79.122 83.1617 78.5065 88.4988 77.2005C93.4446 75.9902 97.324 74.1953 99.2368 72.2321C101.063 70.3581 100.999 70.8761 100.999 57.9155C100.999 46.9296 100.993 46.7421 100.594 46.2128C100.301 45.8226 100.009 45.6748 99.5343 45.6748C98.4526 45.6748 98.0694 46.3932 98.0694 48.4218C98.0694 50.0417 98.0481 50.1187 97.3742 50.9417C96.5133 51.9931 93.5788 53.5765 90.8748 54.4493C85.17 56.2902 77.5109 57.3118 69.4138 57.3118H65.2514L65.3535 41.5059L67.1114 41.5608C69.5097 41.6357 76.9027 41.2376 80.0024 40.8667C88.0199 39.9069 94.5529 38.032 97.5322 35.8352L98.0694 35.4391V37.9164C98.0694 39.2787 98.154 40.5586 98.2573 40.7605C98.3606 40.9622 98.7032 41.2391 99.0184 41.3756C99.4901 41.5798 99.695 41.568 100.174 41.3091C100.494 41.136 100.811 40.8457 100.878 40.6638C100.944 40.4821 100.999 33.7883 100.999 25.789C100.999 9.03641 101.095 10.0045 99.2532 8.10974C96.8693 5.65678 92.9063 3.96533 86.3352 2.59625C81.2151 1.52952 72.1285 0.68533 71.4891 1.21696C70.6203 1.93927 70.6605 3.31182 71.5643 3.78486C71.8008 3.90878 73.4446 4.10743 75.2171 4.22645C86.8636 5.00817 96.6145 7.99357 97.8702 11.1621C99.1229 14.3235 90.2186 17.853 77.6586 19.1735C74.3509 19.5211 63.4603 19.5156 60.0799 19.1643C50.183 18.1361 42.6698 15.8522 40.3342 13.162C39.4811 12.1792 39.4605 11.4347 40.2606 10.4823C42.8351 7.41744 51.5305 4.97244 62.5214 4.22298C66.2065 3.97166 66.6786 3.78629 66.7801 2.5495C66.8278 1.96805 66.7372 1.74369 66.3143 1.396C65.7323 0.917458 65.3889 0.902758 61.5448 1.19103ZM45.8701 19.5101C49.881 20.8347 53.7477 21.586 59.8846 22.2334C63.6881 22.6346 74.87 22.5717 78.8305 22.127C83.7461 21.5748 87.9704 20.7575 91.3309 19.7086C93.1624 19.1367 96.0578 17.8777 97.0563 17.2189C97.5018 16.9249 97.912 16.6844 97.9678 16.6844C98.0237 16.6844 98.0694 19.9478 98.0694 23.9365V31.1888L97.2789 32.0852C94.9208 34.7591 87.5532 37.0248 78.0492 37.9987C74.4161 38.3709 67.3829 38.6334 66.1637 38.4425L65.2559 38.3V35.3924C65.2559 32.6732 65.2231 32.416 64.75 31.4236C63.45 28.6966 59.3924 26.4689 52.8227 24.8754C49.286 24.0173 43.9333 23.1831 40.5481 22.9622L39.7668 22.9112L39.6592 16.7375L41.5194 17.7125C42.5425 18.2488 44.5004 19.0579 45.8701 19.5101ZM40.7434 26.0967C52.5299 26.9723 62.3163 30.3795 62.3247 33.6103C62.3294 35.3808 58.8367 37.4319 53.2438 38.9435C40.4631 42.3977 21.8731 42.0675 10.469 38.1843C6.52888 36.8425 3.92587 34.9604 3.92587 33.4529C3.92587 33.2138 4.24639 32.6475 4.638 32.1943C8.01154 28.2912 21.2723 25.5138 35.0792 25.8186C36.5831 25.8519 39.132 25.977 40.7434 26.0967ZM6.55915 39.8741C15.4756 44.1802 33.7901 45.588 48.6507 43.1094C54.0684 42.206 57.5611 41.0347 62.1796 38.5734C62.2603 38.5303 62.3261 41.7664 62.3261 45.7644V53.0337L61.5452 53.9191C58.3129 57.5846 46.5871 60.17 33.1967 60.17C19.8301 60.17 8.40648 57.6852 4.85363 54.0049L3.92587 53.0439V38.2974L4.50948 38.7316C4.83039 38.9707 5.75288 39.4847 6.55915 39.8741ZM97.6895 69.4412C96.4092 71.6063 91.0358 73.7639 83.7135 75.0525C79.3247 75.8249 75.6806 76.1297 70.4318 76.1636L65.3535 76.1964L65.2514 60.3742L69.5994 60.3732C80.445 60.3705 90.3689 58.549 96.1875 55.4928L97.9717 54.5557L98.0231 61.6728C98.0719 68.4503 98.0561 68.821 97.6895 69.4412ZM9.89402 60.1276C13.5303 61.3331 17.1983 62.0997 22.4811 62.7583C26.6113 63.2734 39.7422 63.273 43.7708 62.7579C52.084 61.6949 58.2769 59.9785 61.5204 57.8383L62.3261 57.3067V72.0812L61.4448 72.964C58.7701 75.6425 51.4486 77.8111 41.8177 78.7772C37.9287 79.1673 27.4674 79.1102 23.6038 78.6778C15.217 77.7388 9.08033 76.0507 5.84429 73.7919C3.84227 72.3944 3.92743 72.8058 3.92665 64.5394L3.92587 57.3741L5.93882 58.4288C7.04608 59.009 8.82583 59.7733 9.89402 60.1276ZM5.1261 76.9283C13.6139 82.1595 36.0333 83.8085 51.7789 80.3594C54.6216 79.7369 58.4381 78.4009 60.4825 77.313L62.3261 76.3318V91.0132L61.4536 91.8994C58.834 94.5606 51.6701 96.6716 41.9153 97.6567C37.6673 98.0856 28.713 98.0844 24.3367 97.654C14.5774 96.6945 7.12753 94.4335 4.71632 91.6994L3.92587 90.8029V83.5506C3.92587 79.562 3.96591 76.2985 4.01494 76.2985C4.06396 76.2985 4.56398 76.5819 5.1261 76.9283Z" fill="currentColor"/>
<path fill-rule="evenodd" clip-rule="evenodd" d="M61.5448 1.19103C50.6353 2.00909 42.1682 4.47287 38.6861 7.8425C36.8257 9.64276 36.8519 9.52537 36.7394 16.5823L36.6417 22.707L30.8798 22.8373C25.022 22.9696 22.9513 23.1366 18.55 23.8319C9.286 25.2951 3.02174 28.1725 1.45783 31.683L1 32.7108L1.00664 61.8033C1.01367 93.0501 0.965819 91.5416 2.00062 93.1603C2.58345 94.0719 4.43096 95.5437 6.07437 96.4054C11.6503 99.3296 21.4807 100.997 33.165 101C50.2525 101.005 62.5204 97.581 64.8805 92.1487C65.2121 91.3852 65.2477 90.7345 65.2516 85.365L65.2559 79.4258L70.5783 79.298C77.9022 79.122 83.1617 78.5065 88.4988 77.2005C93.4446 75.9902 97.324 74.1953 99.2368 72.2321C101.063 70.3581 100.999 70.8761 100.999 57.9155C100.999 46.9296 100.993 46.7421 100.594 46.2128C100.301 45.8226 100.009 45.6748 99.5343 45.6748C98.4526 45.6748 98.0694 46.3932 98.0694 48.4218C98.0694 50.0417 98.0481 50.1187 97.3742 50.9417C96.5133 51.9931 93.5788 53.5765 90.8748 54.4493C85.17 56.2902 77.5109 57.3118 69.4138 57.3118H65.2514L65.3535 41.5059L67.1114 41.5608C69.5097 41.6357 76.9027 41.2376 80.0024 40.8667C88.0199 39.9069 94.5529 38.032 97.5322 35.8352L98.0694 35.4391V37.9164C98.0694 39.2787 98.154 40.5586 98.2573 40.7605C98.3606 40.9622 98.7032 41.2391 99.0184 41.3756C99.4901 41.5798 99.695 41.568 100.174 41.3091C100.494 41.136 100.811 40.8457 100.878 40.6638C100.944 40.4821 100.999 33.7883 100.999 25.789C100.999 9.03641 101.095 10.0045 99.2532 8.10974C96.8693 5.65678 92.9063 3.96533 86.3352 2.59625C81.2151 1.52952 72.1285 0.68533 71.4891 1.21696C70.6203 1.93927 70.6605 3.31182 71.5643 3.78486C71.8008 3.90878 73.4446 4.10743 75.2171 4.22645C86.8636 5.00817 96.6145 7.99357 97.8702 11.1621C99.1229 14.3235 90.2186 17.853 77.6586 19.1735C74.3509 19.5211 63.4603 19.5156 60.0799 19.1643C50.183 18.1361 42.6698 15.8522 40.3342 13.162C39.4811 12.1792 39.4605 11.4347 40.2606 10.4823C42.8351 7.41744 51.5305 4.97244 62.5214 4.22298C66.2065 3.97166 66.6786 3.78629 66.7801 2.5495C66.8278 1.96805 66.7372 1.74369 66.3143 1.396C65.7323 0.917458 65.3889 0.902758 61.5448 1.19103ZM45.8701 19.5101C49.881 20.8347 53.7477 21.586 59.8846 22.2334C63.6881 22.6346 74.87 22.5717 78.8305 22.127C83.7461 21.5748 87.9704 20.7575 91.3309 19.7086C93.1624 19.1367 96.0578 17.8777 97.0563 17.2189C97.5018 16.9249 97.912 16.6844 97.9678 16.6844C98.0237 16.6844 98.0694 19.9478 98.0694 23.9365V31.1888L97.2789 32.0852C94.9208 34.7591 87.5532 37.0248 78.0492 37.9987C74.4161 38.3709 67.3829 38.6334 66.1637 38.4425L65.2559 38.3V35.3924C65.2559 32.6732 65.2231 32.416 64.75 31.4236C63.45 28.6966 59.3924 26.4689 52.8227 24.8754C49.286 24.0173 43.9333 23.1831 40.5481 22.9622L39.7668 22.9112L39.6592 16.7375L41.5194 17.7125C42.5425 18.2488 44.5004 19.0579 45.8701 19.5101ZM40.7434 26.0967C52.5299 26.9723 62.3163 30.3795 62.3247 33.6103C62.3294 35.3808 58.8367 37.4319 53.2438 38.9435C40.4631 42.3977 21.8731 42.0675 10.469 38.1843C6.52888 36.8425 3.92587 34.9604 3.92587 33.4529C3.92587 33.2138 4.24639 32.6475 4.638 32.1943C8.01154 28.2912 21.2723 25.5138 35.0792 25.8186C36.5831 25.8519 39.132 25.977 40.7434 26.0967ZM6.55915 39.8741C15.4756 44.1802 33.7901 45.588 48.6507 43.1094C54.0684 42.206 57.5611 41.0347 62.1796 38.5734C62.2603 38.5303 62.3261 41.7664 62.3261 45.7644V53.0337L61.5452 53.9191C58.3129 57.5846 46.5871 60.17 33.1967 60.17C19.8301 60.17 8.40648 57.6852 4.85363 54.0049L3.92587 53.0439V38.2974L4.50948 38.7316C4.83039 38.9707 5.75288 39.4847 6.55915 39.8741ZM97.6895 69.4412C96.4092 71.6063 91.0358 73.7639 83.7135 75.0525C79.3247 75.8249 75.6806 76.1297 70.4318 76.1636L65.3535 76.1964L65.2514 60.3742L69.5994 60.3732C80.445 60.3705 90.3689 58.549 96.1875 55.4928L97.9717 54.5557L98.0231 61.6728C98.0719 68.4503 98.0561 68.821 97.6895 69.4412ZM9.89402 60.1276C13.5303 61.3331 17.1983 62.0997 22.4811 62.7583C26.6113 63.2734 39.7422 63.273 43.7708 62.7579C52.084 61.6949 58.2769 59.9785 61.5204 57.8383L62.3261 57.3067V72.0812L61.4448 72.964C58.7701 75.6425 51.4486 77.8111 41.8177 78.7772C37.9287 79.1673 27.4674 79.1102 23.6038 78.6778C15.217 77.7388 9.08033 76.0507 5.84429 73.7919C3.84227 72.3944 3.92743 72.8058 3.92665 64.5394L3.92587 57.3741L5.93882 58.4288C7.04608 59.009 8.82583 59.7733 9.89402 60.1276ZM5.1261 76.9283C13.6139 82.1595 36.0333 83.8085 51.7789 80.3594C54.6216 79.7369 58.4381 78.4009 60.4825 77.313L62.3261 76.3318V91.0132L61.4536 91.8994C58.834 94.5606 51.6701 96.6716 41.9153 97.6567C37.6673 98.0856 28.713 98.0844 24.3367 97.654C14.5774 96.6945 7.12753 94.4335 4.71632 91.6994L3.92587 90.8029V83.5506C3.92587 79.562 3.96591 76.2985 4.01494 76.2985C4.06396 76.2985 4.56398 76.5819 5.1261 76.9283Z" stroke="#292929" mask="url(#path-1-outside-1_4457_39493)"/>
</svg>
