<svg viewBox="0 0 20 20" fill="none" xmlns="http://www.w3.org/2000/svg">
<path d="M12 7.4C12.2209 7.4 12.4 7.22091 12.4 7C12.4 6.77909 12.2209 6.6 12 6.6V7.4ZM9.67937 13.2392C9.81145 13.4162 10.0621 13.4527 10.2392 13.3206C10.4162 13.1885 10.4527 12.9379 10.3206 12.7608L9.67937 13.2392ZM7.83333 6.6C7.61242 6.6 7.43333 6.77909 7.43333 7C7.43333 7.22091 7.61242 7.4 7.83333 7.4V6.6ZM7.32063 8.73886L7.08147 8.41823L6.44021 8.89655L6.67937 9.21718L7.32063 8.73886ZM12 6.6H7.83333V7.4H12V6.6ZM6.67937 9.21718L9.67937 13.2392L10.3206 12.7608L7.32063 8.73886L6.67937 9.21718Z" fill="black" fill-opacity="0.3"/>
<rect x="12.4" y="4.4" width="4.2" height="4.2" rx="0.6" stroke="currentColor" stroke-width="0.8" stroke-linejoin="round"/>
<path d="M4 4.4H7C7.33137 4.4 7.6 4.66863 7.6 5V8C7.6 8.33137 7.33137 8.6 7 8.6H4C3.66863 8.6 3.4 8.33137 3.4 8V5C3.4 4.66863 3.66863 4.4 4 4.4Z" stroke="currentColor" stroke-width="0.8" stroke-linejoin="round"/>
<rect x="10.4" y="12.4" width="4.2" height="4.2" rx="0.6" stroke="currentColor" stroke-width="0.8" stroke-linejoin="round"/>
</svg>
