<svg viewBox="0 0 16 16" fill="none" xmlns="http://www.w3.org/2000/svg">
<path d="M6.10344 10.3015H5.11699C4.19922 10.3015 3.74033 10.3015 3.36693 10.4148C2.52621 10.6698 1.8683 11.3277 1.61327 12.1684C1.5 12.5418 1.5 13.0007 1.5 13.9185M9.72043 5.04041C9.72043 6.67481 8.39548 7.99976 6.76107 7.99976C5.12667 7.99976 3.80172 6.67481 3.80172 5.04041C3.80172 3.406 5.12667 2.08105 6.76107 2.08105C8.39548 2.08105 9.72043 3.406 9.72043 5.04041ZM7.41871 13.9185L9.45827 13.3357C9.55593 13.3078 9.60477 13.2939 9.65031 13.273C9.69076 13.2544 9.72921 13.2318 9.76508 13.2054C9.80549 13.1758 9.8414 13.1399 9.91322 13.068L14.1595 8.82183C14.6135 8.36782 14.6135 7.63171 14.1595 7.1777C13.7055 6.72371 12.9694 6.72371 12.5154 7.17772L8.26914 11.424C8.19731 11.4958 8.1614 11.5317 8.13174 11.5721C8.1054 11.608 8.08278 11.6464 8.06421 11.6869C8.0433 11.7324 8.02934 11.7812 8.00144 11.8789L7.41871 13.9185Z" stroke="currentColor" stroke-width="1.3" stroke-linecap="round" stroke-linejoin="round"/>
</svg>
