<svg viewBox="0 0 20 20" fill="none" xmlns="http://www.w3.org/2000/svg">
<path d="M3 14.8998V6.8843C3 5.87362 3 5.36828 3.17032 4.97157C3.38269 4.47695 3.77689 4.08275 4.27153 3.87039C4.66825 3.70007 5.16863 3.70007 6.18431 3.70007H6.53018C6.95373 3.70007 7.35452 3.89183 7.62029 4.22162L8.89225 5.80001M8.89225 5.80001H12.8C13.7801 5.80001 14.2701 5.80001 14.6445 5.99075C14.9738 6.15852 15.2415 6.42623 15.4092 6.7555C15.6 7.12984 15.6 7.61987 15.6 8.59994V9.29992M8.89225 5.80001H6.5" stroke="currentColor" stroke-width="1.3" stroke-linecap="round" stroke-linejoin="round"/>
<path d="M3.81061 12.4603L4.0195 11.9404C4.5332 10.6617 4.79006 10.0224 5.32568 9.66134C5.8613 9.30029 6.5529 9.30029 7.9361 9.30029H13.5783C15.4603 9.30029 16.4012 9.30029 16.8195 9.91537C17.2378 10.5305 16.8883 11.4004 16.1894 13.1401L15.9805 13.66C15.4668 14.9387 15.21 15.578 14.6743 15.939C14.1387 16.3001 13.4471 16.3001 12.0639 16.3001H6.42168C4.53973 16.3001 3.59874 16.3001 3.18047 15.685C2.7622 15.0699 3.11167 14.2 3.81061 12.4603Z" stroke="currentColor" stroke-width="1.3" stroke-linecap="round" stroke-linejoin="round"/>
</svg>
