<svg width="20" height="19" viewBox="0 0 20 19" fill="none" xmlns="http://www.w3.org/2000/svg">
<path d="M14.0114 11.7906V12.1948C14.0114 13.42 14.0114 14.0326 13.7669 14.5006C13.5518 14.9122 13.2086 15.2469 12.7864 15.4566C12.3065 15.6951 11.6782 15.6951 10.4217 15.6951H5.54837C5.08166 15.6951 4.8483 15.6951 4.6251 15.7398C4.42707 15.7794 4.23545 15.8449 4.05543 15.9346C3.85252 16.0357 3.6703 16.1778 3.30586 16.4621L1.52185 17.8537C1.21067 18.0964 1.05508 18.2178 0.924142 18.2179C0.810264 18.2181 0.702536 18.1676 0.631493 18.0808C0.549805 17.981 0.549805 17.7867 0.549805 17.3982V8.25708C0.549805 7.03188 0.549805 6.41928 0.794343 5.95131C1.00944 5.53968 1.35267 5.20501 1.77483 4.99528C2.25477 4.75684 4.06093 4.75684 5.31746 4.75684" stroke="currentColor" stroke-width="1.3" stroke-linecap="round" stroke-linejoin="round"/>
<path d="M18.5505 5.44758L17.4575 6.49455L16.3638 5.44758M17.4572 5.26119C17.4572 2.65916 15.2544 0.549805 12.5372 0.549805C9.81994 0.549805 7.61719 2.65916 7.61719 5.26119C7.61719 7.86322 9.81994 9.97258 12.5372 9.97258C14.0828 9.97258 15.4619 9.29013 16.3638 8.22274M12.5372 2.64375V5.26119L14.1772 6.30817" stroke="currentColor" stroke-width="1.3" stroke-linecap="round" stroke-linejoin="round"/>
</svg>
