<svg viewBox="0 0 20 20" fill="none" xmlns="http://www.w3.org/2000/svg">
<path d="M14.4286 12.543V12.8862C14.4286 13.9264 14.4286 14.4465 14.221 14.8438C14.0383 15.1933 13.747 15.4774 13.3886 15.6555C12.9811 15.8579 12.4477 15.8579 11.381 15.8579H7.24365C6.84743 15.8579 6.64931 15.8579 6.45982 15.8959C6.2917 15.9295 6.12902 15.9851 5.97618 16.0613C5.80392 16.1471 5.64922 16.2678 5.33982 16.5091L3.82524 17.6906C3.56106 17.8967 3.42897 17.9997 3.3178 17.9999C3.22112 18 3.12967 17.9571 3.06935 17.8834C3 17.7987 3 17.6338 3 17.3039V9.54302C3 8.50281 3 7.98271 3.20761 7.58541C3.39022 7.23593 3.68161 6.95179 4.04002 6.77373C4.44747 6.57129 5.98085 6.57129 7.04762 6.57129" stroke="currentColor" stroke-width="1.3" stroke-linecap="round" stroke-linejoin="round"/>
<path d="M18.1429 6.77778L17.2149 7.66667L16.2864 6.77778M17.3284 7.44444C17.3453 7.29852 17.3539 7.15023 17.3539 7C17.3539 4.79086 15.4838 3 13.177 3C10.8701 3 9 4.79086 9 7C9 9.20914 10.8701 11 13.177 11C14.4891 11 15.6599 10.4206 16.4257 9.51437M13.177 4.77778V7L14.5693 7.88889" stroke="currentColor" stroke-width="1.3" stroke-linecap="round" stroke-linejoin="round"/>
</svg>
