<svg width="26" height="28" viewBox="0 0 26 28" fill="none" xmlns="http://www.w3.org/2000/svg">
<path d="M1.00024 10.6C1.00024 10.0399 1.00024 9.75992 1.10924 9.54601C1.20511 9.35785 1.35809 9.20487 1.54625 9.10899C1.76017 9 2.04019 9 2.60024 9H19.4002C19.9603 9 20.2403 9 20.4542 9.10899C20.6424 9.20487 20.7954 9.35785 20.8913 9.54601C21.0002 9.75992 21.0002 10.0399 21.0002 10.6V11.2694C21.0002 11.5382 21.0002 11.6726 20.9674 11.7976C20.9383 11.9083 20.8904 12.0132 20.8258 12.1078C20.7528 12.2144 20.6513 12.3025 20.4481 12.4785L14.0524 18.0215C13.8492 18.1975 13.7477 18.2856 13.6747 18.3922C13.6101 18.4868 13.5622 18.5917 13.5331 18.7024C13.5002 18.8274 13.5002 18.9618 13.5002 19.2306V24.4584C13.5002 24.6539 13.5002 24.7517 13.4687 24.8363C13.4408 24.911 13.3955 24.9779 13.3365 25.0315C13.2697 25.0922 13.1789 25.1285 12.9974 25.2012L9.59736 26.5612C9.22981 26.7082 9.04604 26.7817 8.89852 26.751C8.76951 26.7242 8.6563 26.6476 8.5835 26.5377C8.50024 26.4122 8.50024 26.2142 8.50024 25.8184V19.2306C8.50024 18.9618 8.50024 18.8274 8.4674 18.7024C8.43829 18.5917 8.39038 18.4868 8.32575 18.3922C8.25282 18.2856 8.15126 18.1975 7.94813 18.0215L1.55236 12.4785C1.34923 12.3025 1.24767 12.2144 1.17474 12.1078C1.11011 12.0132 1.0622 11.9083 1.03309 11.7976C1.00024 11.6726 1.00024 11.5382 1.00024 11.2694V10.6Z" stroke="currentColor" stroke-width="2" stroke-linecap="round" stroke-linejoin="round"/>
<path d="M20.0002 1L25.0002 6M25.0002 1L20.0002 6" stroke="currentColor" stroke-width="2" stroke-linecap="round" stroke-linejoin="round"/>
</svg>
