<svg viewBox="0 0 16 16" fill="none" xmlns="http://www.w3.org/2000/svg">
<path d="M13.7777 14.5C13.7777 13.4921 13.7777 12.9881 13.6533 12.5781C13.3732 11.6548 12.6507 10.9322 11.7274 10.6522C11.3174 10.5278 10.8134 10.5278 9.8055 10.5278H6.19439C5.18648 10.5278 4.68253 10.5278 4.27245 10.6522C3.34916 10.9322 2.62664 11.6548 2.34656 12.5781C2.22217 12.9881 2.22217 13.4921 2.22217 14.5M11.2499 4.75C11.2499 6.54493 9.79487 8 7.99995 8C6.20502 8 4.74995 6.54493 4.74995 4.75C4.74995 2.95507 6.20502 1.5 7.99995 1.5C9.79487 1.5 11.2499 2.95507 11.2499 4.75Z" stroke="currentColor" stroke-width="1.3" stroke-linecap="round" stroke-linejoin="round"/>
</svg>
