<svg width="20" height="20" viewBox="0 0 20 20" fill="none" xmlns="http://www.w3.org/2000/svg">
<path d="M6.79998 11.7777C7.19271 11.7777 7.51109 11.4593 7.51109 11.0666C7.51109 10.6738 7.19271 10.3555 6.79998 10.3555C6.40724 10.3555 6.08887 10.6738 6.08887 11.0666C6.08887 11.4593 6.40724 11.7777 6.79998 11.7777Z" fill="#292929"/>
<path d="M6.79998 14.6214C7.19271 14.6214 7.51109 14.3031 7.51109 13.9103C7.51109 13.5176 7.19271 13.1992 6.79998 13.1992C6.40724 13.1992 6.08887 13.5176 6.08887 13.9103C6.08887 14.3031 6.40724 14.6214 6.79998 14.6214Z" fill="#292929"/>
<path d="M9.64422 11.7777C10.037 11.7777 10.3553 11.4593 10.3553 11.0666C10.3553 10.6738 10.037 10.3555 9.64422 10.3555C9.25148 10.3555 8.93311 10.6738 8.93311 11.0666C8.93311 11.4593 9.25148 11.7777 9.64422 11.7777Z" fill="#292929"/>
<path d="M9.64422 14.6214C10.037 14.6214 10.3553 14.3031 10.3553 13.9103C10.3553 13.5176 10.037 13.1992 9.64422 13.1992C9.25148 13.1992 8.93311 13.5176 8.93311 13.9103C8.93311 14.3031 9.25148 14.6214 9.64422 14.6214Z" fill="#292929"/>
<path d="M12.4889 11.7777C12.8817 11.7777 13.2001 11.4593 13.2001 11.0666C13.2001 10.6738 12.8817 10.3555 12.4889 10.3555C12.0962 10.3555 11.7778 10.6738 11.7778 11.0666C11.7778 11.4593 12.0962 11.7777 12.4889 11.7777Z" fill="#292929"/>
<path d="M12.4889 14.6214C12.8817 14.6214 13.2001 14.3031 13.2001 13.9103C13.2001 13.5176 12.8817 13.1992 12.4889 13.1992C12.0962 13.1992 11.7778 13.5176 11.7778 13.9103C11.7778 14.3031 12.0962 14.6214 12.4889 14.6214Z" fill="#292929"/>
<path fill-rule="evenodd" clip-rule="evenodd" d="M17.2889 6.08854V15.333C17.2889 16.0405 17.008 16.7182 16.5081 17.2189C16.0075 17.7188 15.3298 17.9997 14.6222 17.9997H4.66667C3.95911 17.9997 3.28142 17.7188 2.7808 17.2189C2.28089 16.7182 2 16.0405 2 15.333V6.08854C2 5.38099 2.28089 4.7033 2.7808 4.20268C3.28142 3.70276 3.95911 3.42188 4.66667 3.42188H14.6222C15.3298 3.42188 16.0075 3.70276 16.5081 4.20268C17.008 4.7033 17.2889 5.38099 17.2889 6.08854ZM16.2222 6.08854C16.2222 5.66401 16.0537 5.25725 15.7536 4.95716C15.4535 4.65707 15.0468 4.48854 14.6222 4.48854H4.66667C4.24213 4.48854 3.83538 4.65707 3.53529 4.95716C3.2352 5.25725 3.06667 5.66401 3.06667 6.08854V15.333C3.06667 15.7575 3.2352 16.1643 3.53529 16.4644C3.83538 16.7645 4.24213 16.933 4.66667 16.933H14.6222C15.0468 16.933 15.4535 16.7645 15.7536 16.4644C16.0537 16.1643 16.2222 15.7575 16.2222 15.333V6.08854Z" fill="#292929"/>
<path fill-rule="evenodd" clip-rule="evenodd" d="M16.7556 7.33398C17.05 7.33398 17.2889 7.57292 17.2889 7.86732C17.2889 8.16172 17.05 8.40065 16.7556 8.40065H2.53333C2.23893 8.40065 2 8.16172 2 7.86732C2 7.57292 2.23893 7.33398 2.53333 7.33398H16.7556Z" fill="#292929"/>
<path fill-rule="evenodd" clip-rule="evenodd" d="M11.9556 2.53333C11.9556 2.23893 12.1945 2 12.4889 2C12.7833 2 13.0222 2.23893 13.0222 2.53333V5.37778C13.0222 5.67218 12.7833 5.91111 12.4889 5.91111C12.1945 5.91111 11.9556 5.67218 11.9556 5.37778V2.53333Z" fill="#292929"/>
<path fill-rule="evenodd" clip-rule="evenodd" d="M6.2666 2.53333C6.2666 2.23893 6.50553 2 6.79993 2C7.09433 2 7.33327 2.23893 7.33327 2.53333V5.37778C7.33327 5.67218 7.09433 5.91111 6.79993 5.91111C6.50553 5.91111 6.2666 5.67218 6.2666 5.37778V2.53333Z" fill="#292929"/>
</svg>
