<svg width="20" height="20" viewBox="0 0 20 20" fill="none" xmlns="http://www.w3.org/2000/svg">
<path d="M15.3179 5.5264V3.06667H16.1781C16.4731 3.06667 16.7115 2.82827 16.7115 2.53333C16.7115 2.2384 16.4731 2 16.1781 2H14.7845H5.92693H4.53333C4.2384 2 4 2.2384 4 2.53333C4 2.82827 4.2384 3.06667 4.53333 3.06667H5.3936V5.5264C5.3936 7.02453 6.2144 8.39307 7.536 9.09813L9.224 10L7.536 10.9013C6.2144 11.6064 5.3936 12.9755 5.3936 14.4731V16.9333H4.53333C4.2384 16.9333 4 17.1717 4 17.4667C4 17.7616 4.2384 18 4.53333 18H5.92693H14.784H16.1776C16.4725 18 16.7109 17.7616 16.7109 17.4667C16.7109 17.1717 16.4725 16.9333 16.1776 16.9333H15.3173V14.4736C15.3173 12.9755 14.4965 11.6069 13.1749 10.9019L11.4875 10L13.1755 9.09867C14.4971 8.39307 15.3179 7.02453 15.3179 5.5264ZM14.2512 14.4736V16.9333H6.46027V14.4736C6.46027 13.3707 7.06507 12.3621 8.03787 11.8421L10.3557 10.6048L12.6736 11.8421C13.6464 12.3621 14.2512 13.3701 14.2512 14.4736ZM10.3557 9.3952L8.03787 8.15787C7.06507 7.63787 6.46027 6.62987 6.46027 5.5264V3.06667H14.2507V5.5264C14.2507 6.62933 13.6459 7.63787 12.6731 8.15787L10.3557 9.3952Z" fill="#292929"/>
</svg>
