<svg width="20" height="20" viewBox="0 0 20 20" fill="none" xmlns="http://www.w3.org/2000/svg">
<path d="M15.0909 16.3636H4.90909C4.1378 16.3628 3.39834 16.0561 2.85296 15.5107C2.30758 14.9653 2.00082 14.2258 2 13.4545V6.90909C2.00082 6.1378 2.30758 5.39834 2.85296 4.85296C3.39834 4.30758 4.1378 4.00082 4.90909 4H15.0909C15.8622 4.00082 16.6017 4.30758 17.147 4.85296C17.6924 5.39834 17.9992 6.1378 18 6.90909V13.4545C17.9992 14.2258 17.6924 14.9653 17.147 15.5107C16.6017 16.0561 15.8622 16.3628 15.0909 16.3636ZM4.90909 5.45455C4.52346 5.45499 4.15374 5.60837 3.88106 5.88106C3.60837 6.15374 3.45499 6.52346 3.45455 6.90909V13.4545C3.45499 13.8402 3.60837 14.2099 3.88106 14.4826C4.15374 14.7553 4.52346 14.9086 4.90909 14.9091H15.0909C15.4765 14.9086 15.8463 14.7553 16.1189 14.4826C16.3916 14.2099 16.545 13.8402 16.5455 13.4545V6.90909C16.545 6.52346 16.3916 6.15374 16.1189 5.88106C15.8463 5.60837 15.4765 5.45499 15.0909 5.45455H4.90909Z" fill="#292929"/>
<path d="M10.0001 11.2233C9.19113 11.2236 8.40526 10.9537 7.76712 10.4566L3.00785 6.75487C2.85556 6.63639 2.75657 6.46227 2.73266 6.2708C2.70875 6.07934 2.76188 5.88621 2.88036 5.73392C2.99885 5.58163 3.17297 5.48264 3.36444 5.45873C3.5559 5.43483 3.74902 5.48796 3.90132 5.60644L8.66055 9.30814C9.04328 9.60657 9.51471 9.76863 10 9.76863C10.4854 9.76863 10.9568 9.60657 11.3395 9.30814L16.0988 5.60644C16.251 5.48796 16.4442 5.43483 16.6356 5.45873C16.8271 5.48264 17.0012 5.58163 17.1197 5.73392C17.2382 5.88621 17.2913 6.07934 17.2674 6.2708C17.2435 6.46227 17.1445 6.63639 16.9922 6.75487L12.233 10.4566C11.5948 10.9536 10.809 11.2234 10.0001 11.2233Z" fill="#292929"/>
</svg>
