<svg width="20" height="20" viewBox="0 0 20 20" fill="none" xmlns="http://www.w3.org/2000/svg">
<path d="M4 4C3.7775 4 3.55999 4.06598 3.37498 4.1896C3.18998 4.31321 3.04578 4.48891 2.96064 4.69448C2.87549 4.90005 2.85321 5.12625 2.89662 5.34448C2.94003 5.56271 3.04717 5.76316 3.20451 5.9205C3.36184 6.07783 3.56229 6.18497 3.78052 6.22838C3.99875 6.27179 4.22495 6.24951 4.43052 6.16436C4.63609 6.07922 4.81179 5.93502 4.9354 5.75002C5.05902 5.56501 5.125 5.3475 5.125 5.125C5.125 4.82663 5.00647 4.54048 4.7955 4.3295C4.58452 4.11853 4.29837 4 4 4ZM4 5.75C3.87639 5.75 3.75555 5.71334 3.65277 5.64467C3.54999 5.57599 3.46988 5.47838 3.42258 5.36418C3.37527 5.24997 3.36289 5.12431 3.38701 5.00307C3.41113 4.88183 3.47065 4.77047 3.55806 4.68306C3.64547 4.59565 3.75683 4.53612 3.87807 4.51201C3.99931 4.48789 4.12497 4.50027 4.23918 4.54758C4.35338 4.59488 4.45099 4.67499 4.51967 4.77777C4.58834 4.88055 4.625 5.00139 4.625 5.125C4.62481 5.2907 4.55891 5.44957 4.44174 5.56674C4.32457 5.68391 4.1657 5.74981 4 5.75Z" fill="#292929" stroke="#292929" stroke-width="0.3"/>
<path d="M16.625 4.625H8.625C8.34888 4.625 8.125 4.40113 8.125 4.125C8.125 3.84888 8.34888 3.625 8.625 3.625H16.625C16.9011 3.625 17.125 3.84888 17.125 4.125C17.125 4.40113 16.9011 4.625 16.625 4.625Z" fill="#292929"/>
<path d="M13.875 6.5H8.625C8.34887 6.5 8.125 6.27613 8.125 6C8.125 5.72387 8.34887 5.5 8.625 5.5H13.875C14.1511 5.5 14.375 5.72387 14.375 6C14.375 6.27613 14.1511 6.5 13.875 6.5Z" fill="#292929"/>
<path d="M4 8.875C3.7775 8.875 3.55999 8.94098 3.37498 9.0646C3.18998 9.18821 3.04578 9.36391 2.96064 9.56948C2.87549 9.77505 2.85321 10.0012 2.89662 10.2195C2.94003 10.4377 3.04717 10.6382 3.20451 10.7955C3.36184 10.9528 3.56229 11.06 3.78052 11.1034C3.99875 11.1468 4.22495 11.1245 4.43052 11.0394C4.63609 10.9542 4.81179 10.81 4.9354 10.625C5.05902 10.44 5.125 10.2225 5.125 10C5.125 9.70163 5.00647 9.41548 4.7955 9.2045C4.58452 8.99353 4.29837 8.875 4 8.875ZM4 10.625C3.87639 10.625 3.75555 10.5883 3.65277 10.5197C3.54999 10.451 3.46988 10.3534 3.42258 10.2392C3.37527 10.125 3.36289 9.99931 3.38701 9.87807C3.41113 9.75683 3.47065 9.64547 3.55806 9.55806C3.64547 9.47065 3.75683 9.41112 3.87807 9.38701C3.99931 9.36289 4.12497 9.37527 4.23918 9.42258C4.35338 9.46988 4.45099 9.54999 4.51967 9.65277C4.58834 9.75555 4.625 9.87639 4.625 10C4.62481 10.1657 4.55891 10.3246 4.44174 10.4417C4.32457 10.5589 4.1657 10.6248 4 10.625Z" fill="#292929" stroke="#292929" stroke-width="0.3"/>
<path d="M16.625 9.5H8.625C8.34888 9.5 8.125 9.27613 8.125 9C8.125 8.72388 8.34888 8.5 8.625 8.5H16.625C16.9011 8.5 17.125 8.72388 17.125 9C17.125 9.27613 16.9011 9.5 16.625 9.5Z" fill="#292929"/>
<path d="M13.875 11.375H8.625C8.34887 11.375 8.125 11.1511 8.125 10.875C8.125 10.5989 8.34887 10.375 8.625 10.375H13.875C14.1511 10.375 14.375 10.5989 14.375 10.875C14.375 11.1511 14.1511 11.375 13.875 11.375Z" fill="#292929"/>
<path d="M4 13.625C3.7775 13.625 3.55999 13.691 3.37498 13.8146C3.18998 13.9382 3.04578 14.1139 2.96064 14.3195C2.87549 14.525 2.85321 14.7512 2.89662 14.9695C2.94003 15.1877 3.04717 15.3882 3.20451 15.5455C3.36184 15.7028 3.56229 15.81 3.78052 15.8534C3.99875 15.8968 4.22495 15.8745 4.43052 15.7894C4.63609 15.7042 4.81179 15.56 4.9354 15.375C5.05902 15.19 5.125 14.9725 5.125 14.75C5.125 14.4516 5.00647 14.1655 4.7955 13.9545C4.58452 13.7435 4.29837 13.625 4 13.625ZM4 15.375C3.87639 15.375 3.75555 15.3383 3.65277 15.2697C3.54999 15.201 3.46988 15.1034 3.42258 14.9892C3.37527 14.875 3.36289 14.7493 3.38701 14.6281C3.41113 14.5068 3.47065 14.3955 3.55806 14.3081C3.64547 14.2207 3.75683 14.1611 3.87807 14.137C3.99931 14.1129 4.12497 14.1253 4.23918 14.1726C4.35338 14.2199 4.45099 14.3 4.51967 14.4028C4.58834 14.5055 4.625 14.6264 4.625 14.75C4.62481 14.9157 4.55891 15.0746 4.44174 15.1917C4.32457 15.3089 4.1657 15.3748 4 15.375Z" fill="#292929" stroke="#292929" stroke-width="0.3"/>
<path d="M16.625 14.375H8.625C8.34887 14.375 8.125 14.1511 8.125 13.875C8.125 13.5989 8.34887 13.375 8.625 13.375H16.625C16.9011 13.375 17.125 13.5989 17.125 13.875C17.125 14.1511 16.9011 14.375 16.625 14.375Z" fill="#292929"/>
<path d="M13.875 16.375H8.625C8.34887 16.375 8.125 16.1511 8.125 15.875C8.125 15.5989 8.34887 15.375 8.625 15.375H13.875C14.1511 15.375 14.375 15.5989 14.375 15.875C14.375 16.1511 14.1511 16.375 13.875 16.375Z" fill="#292929"/>
</svg>
