<svg width="20" height="20" viewBox="0 0 20 20" fill="none" xmlns="http://www.w3.org/2000/svg">
<path d="M8.5 11.5C8.93118 12.0184 9.47167 12.4378 10.0827 12.7288C10.6938 13.0198 11.3608 13.1751 12.0385 13.1837C12.7162 13.1923 13.3871 13.0541 14.0057 12.779C14.6243 12.5038 15.1757 12.0981 15.6207 11.5907L18.1207 9.09067C18.9205 8.25894 19.3636 7.14454 19.3535 5.98725C19.3434 4.82996 18.8808 3.72355 18.0666 2.9064C17.2523 2.08926 16.1475 1.62282 14.9903 1.60874C13.8331 1.59466 12.7171 2.03362 11.8822 2.83L10.2022 4.5" stroke="#292929" stroke-width="1.5" stroke-linecap="round" stroke-linejoin="round"/>
<path d="M11.4999 8.49997C11.0687 7.98157 10.5282 7.5621 9.91713 7.27111C9.30608 6.98013 8.63905 6.82478 7.96137 6.81621C7.28369 6.80764 6.61284 6.94582 5.9942 7.22097C5.37557 7.49612 4.82419 7.90181 4.37918 8.40921L1.87918 10.9092C1.0794 11.7409 0.636298 12.8553 0.646412 14.0126C0.656527 15.1699 1.11915 16.2763 1.9333 17.0935C2.74745 17.9106 3.85232 18.3771 5.00959 18.3912C6.16687 18.4052 7.28291 17.9663 8.1178 17.1667L9.78863 15.5" stroke="#292929" stroke-width="1.5" stroke-linecap="round" stroke-linejoin="round"/>
</svg>
