<svg width="20" height="20" viewBox="0 0 20 20" fill="none" xmlns="http://www.w3.org/2000/svg">
<path d="M16.5882 4H3.41176C2.63207 4 2 4.63207 2 5.41176V14.8235C2 15.6032 2.63207 16.2353 3.41176 16.2353H16.5882C17.3679 16.2353 18 15.6032 18 14.8235V5.41176C18 4.63207 17.3679 4 16.5882 4Z" fill="white" stroke="#292929"/>
<mask id="path-2-inside-1_10935_271490" fill="white">
<path d="M7.15338 12.4995V9.57216C6.60865 9.99032 6.24192 10.1995 6.05319 10.1995C5.96312 10.1995 5.8827 10.1641 5.81192 10.0933C5.7433 10.0203 5.70898 9.93677 5.70898 9.84237C5.70898 9.73301 5.7433 9.65254 5.81192 9.60105C5.88055 9.54967 6.00172 9.48312 6.17543 9.40162C6.43493 9.27945 6.64189 9.1507 6.7963 9.01564C6.95285 8.88049 7.09119 8.72934 7.21128 8.56199C7.33138 8.39475 7.40965 8.29178 7.44611 8.2532C7.48258 8.21461 7.5512 8.19531 7.652 8.19531C7.76566 8.19531 7.85681 8.23927 7.92544 8.32717C7.99407 8.41517 8.02837 8.5363 8.02837 8.69075V12.374C8.02837 12.8051 7.88147 13.0206 7.58766 13.0206C7.45683 13.0206 7.35175 12.9767 7.2724 12.8888C7.19305 12.8009 7.15338 12.6711 7.15338 12.4995Z"/>
</mask>
<path d="M7.15338 12.4995V9.57216C6.60865 9.99032 6.24192 10.1995 6.05319 10.1995C5.96312 10.1995 5.8827 10.1641 5.81192 10.0933C5.7433 10.0203 5.70898 9.93677 5.70898 9.84237C5.70898 9.73301 5.7433 9.65254 5.81192 9.60105C5.88055 9.54967 6.00172 9.48312 6.17543 9.40162C6.43493 9.27945 6.64189 9.1507 6.7963 9.01564C6.95285 8.88049 7.09119 8.72934 7.21128 8.56199C7.33138 8.39475 7.40965 8.29178 7.44611 8.2532C7.48258 8.21461 7.5512 8.19531 7.652 8.19531C7.76566 8.19531 7.85681 8.23927 7.92544 8.32717C7.99407 8.41517 8.02837 8.5363 8.02837 8.69075V12.374C8.02837 12.8051 7.88147 13.0206 7.58766 13.0206C7.45683 13.0206 7.35175 12.9767 7.2724 12.8888C7.19305 12.8009 7.15338 12.6711 7.15338 12.4995Z" fill="#292929"/>
<path d="M7.15338 9.57216H8.15338V7.54384L6.54446 8.77893L7.15338 9.57216ZM5.81192 10.0933L5.08357 10.7785L5.09403 10.7896L5.10481 10.8004L5.81192 10.0933ZM5.81192 9.60105L5.21255 8.80058L5.2118 8.80115L5.81192 9.60105ZM6.17543 9.40162L6.6002 10.3069L6.60136 10.3064L6.17543 9.40162ZM6.7963 9.01564L6.14281 8.25867L6.13793 8.26295L6.7963 9.01564ZM7.21128 8.56199L6.399 7.97873L6.39885 7.97894L7.21128 8.56199ZM7.92544 8.32717L8.71398 7.71219L8.71366 7.71178L7.92544 8.32717ZM8.15338 12.4995V9.57216H6.15338V12.4995H8.15338ZM6.54446 8.77893C6.28883 8.97516 6.1016 9.10142 5.97445 9.17391C5.94429 9.19111 5.92062 9.20349 5.90297 9.21208C5.89427 9.21631 5.88759 9.21935 5.88285 9.22142C5.87807 9.2235 5.87577 9.22437 5.87577 9.22437C5.87581 9.22436 5.87657 9.22407 5.87801 9.22358C5.87944 9.22309 5.88168 9.22234 5.88468 9.22142C5.89052 9.21963 5.90027 9.21685 5.91357 9.21387C5.93818 9.20835 5.98677 9.19945 6.05319 9.19945V11.1995C6.43379 11.1995 6.77464 11.0199 6.96511 10.9113C7.20469 10.7747 7.47319 10.5873 7.7623 10.3654L6.54446 8.77893ZM6.05319 9.19945C6.14326 9.19945 6.23813 9.21803 6.32808 9.25761C6.41601 9.2963 6.47884 9.34599 6.51903 9.38618L5.10481 10.8004C5.34026 11.0358 5.66723 11.1995 6.05319 11.1995V9.19945ZM6.54027 9.40808C6.58058 9.45093 6.62586 9.51339 6.65986 9.59626C6.6943 9.68019 6.70898 9.7652 6.70898 9.84237H4.70898C4.70898 10.2083 4.85236 10.5327 5.08357 10.7785L6.54027 9.40808ZM6.70898 9.84237C6.70898 9.88986 6.70176 9.98164 6.65454 10.0923C6.60421 10.2103 6.52114 10.3191 6.41204 10.401L5.2118 8.80115C4.82381 9.09223 4.70898 9.51373 4.70898 9.84237H6.70898ZM6.41129 10.4015C6.39248 10.4156 6.39444 10.4118 6.43536 10.3893C6.47202 10.3692 6.52579 10.3418 6.6002 10.3069L5.75066 8.49632C5.57134 8.58045 5.3694 8.68314 5.21255 8.80058L6.41129 10.4015ZM6.60136 10.3064C6.91468 10.1589 7.2088 9.98339 7.45467 9.76834L6.13793 8.26295C6.07497 8.31801 5.95519 8.40003 5.7495 8.49686L6.60136 10.3064ZM7.44977 9.77259C7.66556 9.58631 7.85735 9.37687 8.02372 9.14505L6.39885 7.97894C6.32503 8.0818 6.24015 8.17467 6.14283 8.25869L7.44977 9.77259ZM8.02356 9.14526C8.08101 9.06525 8.1247 9.00589 8.15606 8.96464C8.17174 8.94403 8.182 8.93102 8.18775 8.92393C8.19569 8.91413 8.18919 8.92282 8.17297 8.93999L6.71926 7.56641C6.62633 7.66475 6.50506 7.83102 6.399 7.97873L8.02356 9.14526ZM8.17297 8.93999C8.03131 9.08991 7.87774 9.14936 7.79559 9.17246C7.71381 9.19545 7.65855 9.19531 7.652 9.19531V7.19531C7.49803 7.19531 7.05627 7.20974 6.71926 7.56641L8.17297 8.93999ZM7.652 9.19531C7.57709 9.19531 7.47702 9.18002 7.37124 9.12902C7.26487 9.07772 7.18759 9.00709 7.13721 8.94256L8.71366 7.71178C8.45132 7.37576 8.06671 7.19531 7.652 7.19531V9.19531ZM7.13689 8.94215C7.02445 8.79797 7.02837 8.675 7.02837 8.69075H9.02837C9.02837 8.39761 8.96369 8.03237 8.71398 7.71219L7.13689 8.94215ZM7.02837 8.69075V12.374H9.02837V8.69075H7.02837ZM7.02837 12.374C7.02837 12.4282 7.02346 12.4451 7.02568 12.4354C7.02787 12.4257 7.04176 12.3693 7.09188 12.2958C7.14648 12.2157 7.23044 12.136 7.34115 12.0819C7.4473 12.03 7.53862 12.0206 7.58766 12.0206V14.0206C8.01649 14.0206 8.4589 13.8412 8.74451 13.4222C8.98328 13.0719 9.02837 12.672 9.02837 12.374H7.02837ZM7.58766 12.0206C7.63521 12.0206 7.71011 12.0289 7.79659 12.0651C7.88545 12.1023 7.95965 12.1577 8.01471 12.2187L6.5301 13.5588C6.82013 13.8801 7.20691 14.0206 7.58766 14.0206V12.0206ZM8.01471 12.2187C8.16243 12.3824 8.15338 12.5333 8.15338 12.4995H6.15338C6.15338 12.8089 6.22367 13.2194 6.5301 13.5588L8.01471 12.2187Z" fill="#292929" mask="url(#path-2-inside-1_10935_271490)"/>
<path d="M13.0896 8.67556L13.7649 8.00034L14.4401 8.67556H13.0896Z" fill="#292929" stroke="#292929"/>
<path d="M13.7649 12.2338L13.0896 11.5586H14.4401L13.7649 12.2338Z" fill="#292929" stroke="#292929"/>
</svg>
