<svg width="20" height="20" viewBox="0 0 20 20" fill="none" xmlns="http://www.w3.org/2000/svg">
<g clip-path="url(#clip0_10949_271911)">
<path d="M14.5 15.4428C13.2385 16.4872 11.6403 17.0622 10 17.0622C8.11347 17.0622 6.34003 16.3275 5.00597 14.9937C3.67222 13.6597 2.93753 11.8862 2.93753 9.99969C2.93753 9.69531 2.95691 9.39 2.99566 9.09156C3.05191 8.65125 3.15034 8.21469 3.28847 7.79406C3.29206 7.78312 3.29591 7.77213 3.29956 7.76116C3.33481 7.76381 3.37034 7.76562 3.40625 7.76562C4.18156 7.76562 4.8125 7.13469 4.8125 6.35937C4.8125 5.58406 4.18156 4.95312 3.40625 4.95312C2.63094 4.95312 2 5.58406 2 6.35937C2 6.76034 2.16903 7.12244 2.43925 7.37888C2.42503 7.41981 2.41119 7.46075 2.39781 7.50159C2.24125 7.97878 2.12937 8.47378 2.06562 8.97222C2.02222 9.30937 2.00003 9.655 2.00003 9.99969C2.00003 12.1366 2.83222 14.1456 4.34316 15.6566C5.85409 17.1675 7.86316 17.9997 10 17.9997C11.8582 17.9997 13.6688 17.3481 15.0978 16.1647C15.2975 15.9997 15.3253 15.7044 15.16 15.505C14.995 15.3053 14.6997 15.2775 14.5 15.4428Z" fill="black"/>
<path d="M17.5605 12.6208C17.5748 12.5799 17.5886 12.539 17.602 12.4981C17.7585 12.0209 17.8704 11.5259 17.9342 11.0275C17.9776 10.6903 17.9998 10.3447 17.9998 10C17.9998 7.86313 17.1676 5.85406 15.6567 4.34313C14.1457 2.83219 12.1367 2 9.99979 2C8.14167 2 6.33104 2.65156 4.90198 3.835C4.70229 4 4.67448 4.29531 4.83979 4.49469C5.00479 4.69438 5.3001 4.72219 5.49979 4.55687C6.76135 3.5125 8.35948 2.9375 9.99979 2.9375C11.8864 2.9375 13.6598 3.67219 14.9939 5.00594C16.3276 6.34 17.0623 8.11344 17.0623 10C17.0623 10.3044 17.0429 10.6097 17.0042 10.9081C16.9479 11.3484 16.8495 11.785 16.7114 12.2056C16.7078 12.2166 16.7039 12.2276 16.7003 12.2385C16.665 12.2359 16.6295 12.2341 16.5935 12.2341C15.8182 12.2341 15.1873 12.865 15.1873 13.6403C15.1873 14.4156 15.8182 15.0466 16.5935 15.0466C17.3689 15.0466 17.9998 14.4156 17.9998 13.6403C17.9998 13.2393 17.8308 12.8773 17.5605 12.6208Z" fill="black"/>
<path d="M12.6612 13.2035C12.4023 13.2035 12.1924 12.9937 12.1924 12.7348V8.74167L11.8931 9.08874C11.724 9.28477 11.428 9.30664 11.2319 9.13755C11.0359 8.96845 11.014 8.67249 11.1831 8.47642L12.3062 7.17433C12.4341 7.02599 12.6408 6.97286 12.8245 7.04111C13.0081 7.10936 13.1299 7.28461 13.1299 7.48049V12.7348C13.1299 12.9937 12.92 13.2035 12.6612 13.2035Z" fill="black"/>
<path d="M8.17032 13.2031C7.07403 13.2031 6.18213 12.3112 6.18213 11.215V8.78503C6.18213 7.68875 7.07403 6.79688 8.17032 6.79688C9.2666 6.79688 10.1585 7.68878 10.1585 8.78503V11.215C10.1585 12.3112 9.26657 13.2031 8.17032 13.2031ZM8.17032 7.73438C7.59097 7.73438 7.11963 8.20572 7.11963 8.78503V11.215C7.11963 11.7943 7.59097 12.2656 8.17032 12.2656C8.74966 12.2656 9.22097 11.7943 9.22097 11.215V8.78503C9.22097 8.20572 8.74963 7.73438 8.17032 7.73438Z" fill="black"/>
</g>
<defs>
<clipPath id="clip0_10949_271911">
<rect width="16" height="16" fill="white" transform="translate(2 2)"/>
</clipPath>
</defs>
</svg>