<svg width="20" height="20" viewBox="0 0 20 20" fill="none" xmlns="http://www.w3.org/2000/svg">
<path d="M16.6776 5.53223L13.1274 2H5.30924C4.76766 2 4.32275 2.41477 4.32275 2.95632V8.00794C4.32275 8.00697 4.35575 8 4.37769 8H4.80662V2.95632C4.80662 2.68597 5.03888 2.48387 5.30924 2.48387H12.9087L13.0647 2.63016V4.61703C13.0647 5.15635 13.5033 5.58065 14.0426 5.58065H16.0295L16.1615 5.73532V17.0112C16.1615 17.2816 15.9737 17.5161 15.7033 17.5161H5.30924C5.03888 17.5161 4.80662 17.2815 4.80662 17.0112V15.0645H4.37769C4.35575 15.0645 4.32275 15.0657 4.32275 15.0647V17.0112C4.32275 17.5528 4.76766 18 5.30924 18H15.7033C16.2449 18 16.6776 17.5528 16.6776 17.0112V5.53223ZM14.0426 5.09677C13.7722 5.09677 13.5486 4.88739 13.5486 4.61703V3.16877V3.15939L15.5002 5.09677H14.0426Z" fill="#333333"/>
<path d="M8.7975 10.666C8.3765 10.666 8.16602 10.9694 8.16602 11.576C8.16602 12.1771 8.37508 12.4776 8.79324 12.4776C9.00585 12.4776 9.16353 12.4046 9.26634 12.2586C9.36911 12.1126 9.4205 11.8851 9.4205 11.576C9.4205 11.2656 9.3684 11.0364 9.26421 10.8882C9.16005 10.7401 9.00447 10.666 8.7975 10.666Z" fill="#333333"/>
<path d="M13.6323 8.48242H3.98058C3.43903 8.48242 3 8.92145 3 9.463V13.5664C3 14.1079 3.43903 14.5469 3.98058 14.5469H13.6323C14.1739 14.5469 14.6129 14.1079 14.6129 13.5664V9.463C14.6129 8.92145 14.1739 8.48242 13.6323 8.48242ZM5.68813 11.0167C5.75119 11.0649 5.92236 11.1528 6.20161 11.2804C6.46952 11.4008 6.65555 11.5302 6.75974 11.6684C6.8639 11.8066 6.91603 11.9806 6.91603 12.1904C6.91603 12.3832 6.86713 12.5543 6.76932 12.7039C6.67152 12.8535 6.53045 12.9696 6.34619 13.0526C6.1619 13.1355 5.94571 13.177 5.69768 13.177C5.49068 13.177 5.31868 13.1624 5.17832 13.1334C5.038 13.1044 4.90319 13.0536 4.7419 12.9813V12.2329C4.90319 12.3151 5.06703 12.3793 5.24 12.4253C5.4129 12.4714 5.5709 12.4945 5.71548 12.4945C5.84019 12.4945 5.93123 12.4728 5.98939 12.4296C6.04748 12.3864 6.07636 12.3307 6.07636 12.2627C6.07636 12.2202 6.06458 12.1829 6.04119 12.151C6.01781 12.1192 5.98016 12.0869 5.92845 12.0543C5.87671 12.0217 5.73884 11.9551 5.51487 11.8545C5.31213 11.7623 5.1601 11.673 5.05877 11.5865C4.95742 11.5001 4.88229 11.4008 4.83339 11.2888C4.78448 11.1769 4.76003 11.0443 4.76003 10.8912C4.76003 10.6049 4.86423 10.3817 5.07258 10.2215C5.28094 10.0613 5.56726 9.9812 5.93158 9.9812C6.25336 9.9812 6.58148 10.0556 6.91603 10.2044L6.65874 10.8529C6.36813 10.7197 6.11723 10.6531 5.90606 10.6531C5.7969 10.6531 5.71752 10.6722 5.66794 10.7105C5.61829 10.7487 5.59352 10.7962 5.59352 10.8529C5.59352 10.914 5.62503 10.9685 5.68813 11.0167ZM9.34632 13.8695L8.80316 13.1809L8.80645 13.1812V13.1791L8.7989 13.177C8.31126 13.177 7.93471 13.0402 7.67461 12.7666C7.41448 12.4931 7.2831 12.0947 7.2831 11.5717C7.2831 11.0543 7.41174 10.6592 7.67045 10.3863C7.92913 10.1135 8.30481 9.977 8.79807 9.977C9.29274 9.977 9.66752 10.1124 9.92271 10.3831C10.1778 10.6539 10.3053 11.0515 10.3053 11.5759C10.3053 12.2805 10.0813 12.7529 9.63342 12.9981L10.3925 13.8695H9.34632ZM12.9032 13.1276H10.871V10.0308H11.7097V12.4502H12.9032V13.1276Z" fill="#333333"/>
</svg>
