<svg width="20" height="20" viewBox="0 0 20 20" fill="none" xmlns="http://www.w3.org/2000/svg">
<rect x="2.5" y="4.5" width="15" height="12" rx="1.5" stroke="black"/>
<path d="M7.29977 11.7276C7.2965 11.7153 7.29261 11.7034 7.28809 11.6916L6.01547 7.7728C5.96296 7.61094 5.80074 7.5 5.61687 7.5C5.43276 7.5 5.27078 7.61094 5.21804 7.7728L3.96032 11.6452C3.93747 11.6862 3.92213 11.7314 3.91677 11.7793L3.51751 13.0086C3.45173 13.2108 3.577 13.4236 3.79714 13.4838C4.0175 13.5444 4.24913 13.4296 4.31471 13.227L4.64801 12.201H6.58522L6.91836 13.227C6.97221 13.3928 7.13761 13.5 7.31673 13.5C7.35616 13.5 7.39628 13.4948 7.43617 13.484C7.6563 13.4236 7.7816 13.2108 7.71579 13.0086L7.29977 11.7276ZM4.89627 11.4369L5.61687 9.21872L6.33711 11.4369H4.89627Z" fill="black"/>
<path d="M16.0838 9.63366C16.3137 9.63366 16.5 9.46271 16.5 9.2516V9.02083C16.5 8.18217 15.7278 7.5 14.779 7.5H14.662C13.7134 7.5 12.9414 8.18219 12.9414 9.02083V11.9789C12.9414 12.8175 13.7134 13.4997 14.662 13.4997H14.779C15.7278 13.4997 16.4998 12.8175 16.5 11.9791V11.6989C16.5 11.4877 16.3137 11.3168 16.0838 11.3168C15.854 11.3168 15.6679 11.4877 15.6679 11.6989V11.9791C15.6679 12.3961 15.2691 12.7358 14.779 12.7358H14.662C14.1722 12.7358 13.7736 12.3963 13.7736 11.9791V9.02081C13.7736 8.60376 14.172 8.26412 14.662 8.26412H14.779C15.2688 8.26412 15.6679 8.60355 15.6679 9.02081V9.25158C15.6679 9.46269 15.854 9.63366 16.0838 9.63366Z" fill="black"/>
<path d="M11.2426 10.1269C11.4997 9.85867 11.6559 9.50681 11.6559 9.12226V9.02083C11.6559 8.18217 10.9128 7.5 9.9995 7.5H8.84359C8.61398 7.5 8.42765 7.67095 8.42765 7.88206V13.1176C8.42765 13.3288 8.61376 13.4997 8.84359 13.4997H10.2805C11.3163 13.4997 12.1588 12.7155 12.1588 11.7516V11.6283C12.1588 10.9912 11.791 10.4328 11.2426 10.1269ZM9.2595 8.26415H9.99947C10.454 8.26415 10.8237 8.60358 10.8237 9.02083V9.12226C10.8237 9.53972 10.4542 9.87978 9.99947 9.87978H9.2595V8.26415ZM11.3269 11.7514C11.3269 12.2941 10.8575 12.7358 10.2805 12.7358H9.2595V10.6437H10.2805C10.8575 10.6437 11.3269 11.0854 11.3269 11.628V11.7514Z" fill="black"/>
</svg>
