<svg width="20" height="20" viewBox="0 0 20 20" fill="none" xmlns="http://www.w3.org/2000/svg">
<path d="M15.4602 6.53285L16.1659 5.82712C16.4402 5.55287 16.4402 5.1082 16.1659 4.83409C15.8917 4.55984 15.4471 4.55984 15.1729 4.83409L14.4671 5.53983C13.2831 4.55325 11.8443 3.95724 10.3095 3.81772V2.40446H10.9883C11.3761 2.40446 11.6905 2.08998 11.6905 1.70216C11.6905 1.31435 11.3761 1 10.9883 1H8.22623C7.83841 1 7.52406 1.31435 7.52406 1.70216C7.52406 2.08998 7.83841 2.40446 8.22623 2.40446H8.90504V3.81772C5.06313 4.16708 2 7.39459 2 11.3927C2 15.5971 5.40233 19 9.60735 19C13.8117 19 17.2146 15.5977 17.2146 11.3927C17.2146 9.59666 16.596 7.89584 15.4602 6.53285ZM9.60721 17.5955C6.18703 17.5955 3.40433 14.813 3.40433 11.3927C3.40433 7.97247 6.18703 5.18991 9.60721 5.18991C13.0275 5.18991 15.8101 7.97247 15.8101 11.3927C15.8101 14.813 13.0275 17.5955 9.60721 17.5955ZM12.8615 8.1385C13.1357 8.41275 13.1357 8.85742 12.8615 9.13153L10.1038 11.8892C9.82954 12.1635 9.38487 12.1635 9.11076 11.8892C8.83652 11.615 8.83652 11.1703 9.11076 10.8962L11.8683 8.1385C12.1426 7.86426 12.5872 7.86426 12.8615 8.1385Z" fill="black"/>
</svg>
