<svg width="20" height="20" viewBox="0 0 20 20" fill="none" xmlns="http://www.w3.org/2000/svg">
<path d="M14 6.42773C11.7949 6.42773 10 8.22202 10 10.4277C10 12.6334 11.7949 14.4277 14 14.4277C16.2051 14.4277 18 12.6334 18 10.4277C18 8.22202 16.2051 6.42773 14 6.42773ZM14 13.2849C12.4246 13.2849 11.1429 12.0032 11.1429 10.4277C11.1429 8.85231 12.4246 7.57059 14 7.57059C15.5754 7.57059 16.8571 8.85231 16.8571 10.4277C16.8571 12.0032 15.5754 13.2849 14 13.2849Z" fill="black"/>
<path d="M14.5714 8.71401V10.4283C14.5714 10.5797 14.5114 10.7254 14.404 10.8323L13.5469 11.6894C13.3234 11.9129 12.9623 11.9129 12.7389 11.6894C12.5154 11.466 12.5154 11.1049 12.7389 10.8814L13.4286 10.1917V8.71401C13.4286 8.39858 13.684 8.14258 14 8.14258C14.316 8.14258 14.5714 8.39858 14.5714 8.71401Z" fill="black"/>
<path d="M2.57143 16.1436H11.7143C12.0303 16.1436 12.2857 15.8876 12.2857 15.5722V15.0008C12.2857 14.6853 12.0303 14.4293 11.7143 14.4293C11.3983 14.4293 11.1429 14.6853 11.1429 15.0008H3.14286V14.4293C3.14286 13.799 3.65543 13.2865 4.28571 13.2865C4.476 13.2865 9.68743 13.2865 9.42857 13.2865C9.74457 13.2865 10 13.0305 10 12.715C10 12.3996 9.74457 12.1436 9.42857 12.1436H8.85714V9.10133C8.85714 8.54475 9.02114 8.04704 9.31886 7.69904C10.3583 6.48418 10.196 4.63333 8.91886 3.61961C7.30114 2.33561 4.86286 3.14475 4.37257 5.14875C4.15257 6.04875 4.35886 6.96533 4.93829 7.66475C5.25429 8.04647 5.42857 8.59104 5.42857 9.1979V12.1436H4.28571C3.02514 12.1436 2 13.1688 2 14.4293V15.5722C2 15.8876 2.25543 16.1436 2.57143 16.1436ZM5.48286 5.42018C5.77257 4.23561 7.23429 3.74133 8.20857 4.51504C8.96571 5.11618 9.07943 6.2219 8.45086 6.95618C7.97543 7.51047 7.71429 8.27275 7.71429 9.10133V12.1436H6.57143V9.1979C6.57143 8.31275 6.31086 7.5299 5.81771 6.93504C5.46629 6.51104 5.34686 5.97333 5.48286 5.42018Z" fill="black"/>
<path d="M11.1427 16.7148C11.4587 16.7148 11.7141 16.9708 11.7141 17.2863C11.7141 17.6017 11.4587 17.8577 11.1427 17.8577H3.14272C2.82672 17.8577 2.57129 17.6017 2.57129 17.2863C2.57129 16.9708 2.82672 16.7148 3.14272 16.7148H11.1427Z" fill="black"/>
</svg>
