<svg width="21" height="20" viewBox="0 0 21 20" fill="none" xmlns="http://www.w3.org/2000/svg">
<path d="M7.97479 17.5V9.35333C7.97479 8.80105 8.42251 8.35333 8.97479 8.35333H12.0233C12.5756 8.35333 13.0233 8.80105 13.0233 9.35333V17.5M7.97479 17.5L7.97594 14.067C7.97613 13.5146 7.52836 13.0667 6.97594 13.0667H3.92773C3.37545 13.0667 2.92773 13.5144 2.92773 14.0667V16.5C2.92773 17.0523 3.37545 17.5 3.92773 17.5H7.97479ZM7.97479 17.5H13.0233M13.0233 17.5V3.5C13.0233 2.94772 13.471 2.5 14.0233 2.5H16.9277C17.48 2.5 17.9277 2.94772 17.9277 3.5V16.5C17.9277 17.0523 17.48 17.5 16.9277 17.5H13.0233Z" stroke="#535862" stroke-linecap="round" stroke-linejoin="round"/>
</svg>
