<svg width="21" height="20" viewBox="0 0 21 20" fill="none" xmlns="http://www.w3.org/2000/svg">
<path d="M2.78516 15.8334H2.79516M6.11849 15.8334C6.11849 14.9493 5.7673 14.1015 5.14218 13.4763C4.51706 12.8512 3.66921 12.5 2.78516 12.5M9.45182 15.8334C9.45182 14.0652 8.74944 12.3696 7.4992 11.1193C6.24896 9.86907 4.55327 9.16669 2.78516 9.16669M12.7852 15.8334H15.2852C15.9482 15.8334 16.5841 15.57 17.0529 15.1011C17.5218 14.6323 17.7852 13.9964 17.7852 13.3334V6.66669C17.7852 6.00365 17.5218 5.36776 17.0529 4.89892C16.5841 4.43008 15.9482 4.16669 15.2852 4.16669H5.28516C4.77222 4.17156 4.2732 4.33409 3.85579 4.63224C3.43838 4.93039 3.12279 5.34972 2.95182 5.83335" stroke="#535862" stroke-linecap="round" stroke-linejoin="round"/>
</svg>
