<svg width="21" height="20" viewBox="0 0 21 20" fill="none" xmlns="http://www.w3.org/2000/svg">
<path d="M10.5723 14.5V9.5M16.9723 14.8C16.0886 14.8 15.3723 15.5163 15.3723 16.4C15.3723 17.2837 16.0886 18 16.9723 18C17.8559 18 18.5723 17.2837 18.5723 16.4C18.5723 15.5163 17.8559 14.8 16.9723 14.8ZM16.9723 14.8L16.9723 10.2C16.9723 9.75817 16.6141 9.4 16.1723 9.4H4.97227C4.53044 9.4 4.17226 9.75817 4.17226 10.2L4.17226 14.8M4.17226 14.8C3.28861 14.8 2.57227 15.5163 2.57227 16.4C2.57227 17.2837 3.28861 18 4.17226 18C5.05592 18 5.77226 17.2837 5.77226 16.4C5.77226 15.5163 5.05592 14.8 4.17226 14.8ZM10.5723 18C9.68861 18 8.97226 17.2837 8.97226 16.4C8.97226 15.5163 9.68861 14.8 10.5723 14.8C11.4559 14.8 12.1723 15.5163 12.1723 16.4C12.1723 17.2837 11.4559 18 10.5723 18ZM5.57227 6H15.5723C16.1245 6 16.5723 5.55228 16.5723 5V3C16.5723 2.44772 16.1245 2 15.5723 2H5.57227C5.01998 2 4.57227 2.44772 4.57227 3V5C4.57227 5.55228 5.01998 6 5.57227 6Z" stroke="#535862" stroke-linecap="round"/>
</svg>
