<svg width="21" height="20" viewBox="0 0 21 20" fill="none" xmlns="http://www.w3.org/2000/svg">
<path d="M8.24468 13.7121C8.24468 14.8836 7.31837 15.8333 6.17571 15.8333C5.03306 15.8333 4.10675 14.8836 4.10675 13.7121M8.24468 13.7121C8.24468 12.5406 7.31837 11.5909 6.17571 11.5909C5.03306 11.5909 4.10675 12.5406 4.10675 13.7121M8.24468 13.7121H12.8999M4.10675 13.7121H3.07227V5.16666C3.07227 4.61437 3.51998 4.16666 4.07227 4.16666H12.8999V13.7121M17.555 13.7121C17.555 14.8836 16.6287 15.8333 15.4861 15.8333C14.3434 15.8333 13.4171 14.8836 13.4171 13.7121M17.555 13.7121C17.555 12.5406 16.6287 11.5909 15.4861 11.5909C14.3434 11.5909 13.4171 12.5406 13.4171 13.7121M17.555 13.7121H18.0723V9.46969L15.4861 6.81817H12.8999V13.7121M13.4171 13.7121H12.8999" stroke="#535862" stroke-linecap="round" stroke-linejoin="round"/>
</svg>
