<svg width="21" height="20" viewBox="0 0 21 20" fill="none" xmlns="http://www.w3.org/2000/svg">
<path d="M18.7148 7.66667L19.2148 7.66665V7.66665L18.7148 7.66667ZM18.7152 15.6666L18.2152 15.6666L18.7152 15.6666ZM2.71484 15.6666L2.21484 15.6665L2.71484 15.6666ZM16.7149 5.66677L16.7149 5.16677L16.7149 5.66677ZM9.02675 3.18639L9.43637 2.89966V2.89966L9.02675 3.18639ZM8.21578 9.37934L7.99217 8.93213C7.82278 9.01682 7.71578 9.18996 7.71578 9.37934H8.21578ZM10.7158 14.796L10.4488 15.2188C10.6119 15.3218 10.8197 15.3218 10.9828 15.2188L10.7158 14.796ZM13.2158 9.37934H13.7158C13.7158 9.18996 13.6088 9.01682 13.4394 8.93213L13.2158 9.37934ZM9.37414 8.80016L9.59775 9.24738L9.37414 8.80016ZM12.0574 8.80016L11.8338 9.24738L12.0574 8.80016ZM3.85817 2.33331V2.83331H7.38829V2.33331V1.83331H3.85817V2.33331ZM2.71532 5.66665H3.21532V3.49998H2.71532H2.21532V5.66665H2.71532ZM3.85817 2.33331V1.83331C2.94118 1.83331 2.21532 2.58927 2.21532 3.49998H2.71532H3.21532C3.21532 3.12202 3.5128 2.83331 3.85817 2.83331V2.33331ZM18.7148 7.66667L18.2148 7.6667L18.2152 15.6666L18.7152 15.6666L19.2152 15.6665L19.2148 7.66665L18.7148 7.66667ZM16.7152 17.6666V17.1666H4.71484V17.6666V18.1666H16.7152V17.6666ZM2.71484 15.6666L3.21484 15.6666L3.21532 5.66667L2.71532 5.66665L2.21532 5.66662L2.21484 15.6665L2.71484 15.6666ZM16.7149 5.66677L16.7149 5.16677L10.7629 5.16665L10.7629 5.66665L10.7629 6.16665L16.7149 6.16677L16.7149 5.66677ZM9.02675 3.18639L8.61714 3.47312L10.3533 5.95338L10.7629 5.66665L11.1726 5.37991L9.43637 2.89966L9.02675 3.18639ZM18.7152 15.6666L18.2152 15.6666C18.2153 16.495 17.5437 17.1666 16.7152 17.1666V17.6666V18.1666C18.096 18.1666 19.2153 17.0473 19.2152 15.6665L18.7152 15.6666ZM4.71484 17.6666V17.1666C3.88639 17.1666 3.2148 16.495 3.21484 15.6666L2.71484 15.6666L2.21484 15.6665C2.21478 17.0473 3.33408 18.1666 4.71484 18.1666V17.6666ZM18.7148 7.66667L19.2148 7.66665C19.2148 6.28601 18.0955 5.1668 16.7149 5.16677L16.7149 5.66677L16.7149 6.16677C17.5433 6.16679 18.2148 6.83831 18.2148 7.6667L18.7148 7.66667ZM7.38829 2.33331V2.83331C7.87776 2.83331 8.33645 3.07213 8.61714 3.47312L9.02675 3.18639L9.43637 2.89966C8.96855 2.23134 8.20407 1.83331 7.38829 1.83331V2.33331ZM9.37414 8.80016L9.15053 8.35295L7.99217 8.93213L8.21578 9.37934L8.43939 9.82655L9.59775 9.24738L9.37414 8.80016ZM8.21578 9.37934H7.71578V12.1668H8.21578H8.71578V9.37934H8.21578ZM8.21578 12.1668H7.71578C7.71578 12.7407 8.04945 13.2644 8.5034 13.7314C8.96758 14.2089 9.63099 14.7023 10.4488 15.2188L10.7158 14.796L10.9828 14.3733C10.1903 13.8728 9.60371 13.4287 9.22046 13.0344C8.82698 12.6296 8.71578 12.3472 8.71578 12.1668H8.21578ZM10.7158 14.796L10.9828 15.2188C11.781 14.7147 12.4505 14.2719 12.9173 13.8204C13.3977 13.3556 13.7158 12.8313 13.7158 12.1668H13.2158H12.7158C12.7158 12.4649 12.589 12.7467 12.222 13.1016C11.8414 13.4698 11.2609 13.8604 10.4488 14.3733L10.7158 14.796ZM13.2158 12.1668H13.7158C13.7158 12.165 13.7158 12.1631 13.7158 12.1612C13.7158 12.1593 13.7158 12.1574 13.7158 12.1555C13.7158 12.1536 13.7158 12.1517 13.7158 12.1498C13.7158 12.1479 13.7158 12.146 13.7158 12.1441C13.7158 12.1422 13.7158 12.1403 13.7158 12.1384C13.7158 12.1365 13.7158 12.1346 13.7158 12.1327C13.7158 12.1307 13.7158 12.1288 13.7158 12.1269C13.7158 12.125 13.7158 12.123 13.7158 12.1211C13.7158 12.1192 13.7158 12.1172 13.7158 12.1153C13.7158 12.1134 13.7158 12.1114 13.7158 12.1095C13.7158 12.1075 13.7158 12.1056 13.7158 12.1036C13.7158 12.1017 13.7158 12.0997 13.7158 12.0978C13.7158 12.0958 13.7158 12.0939 13.7158 12.0919C13.7158 12.0899 13.7158 12.088 13.7158 12.086C13.7158 12.084 13.7158 12.0821 13.7158 12.0801C13.7158 12.0781 13.7158 12.0761 13.7158 12.0742C13.7158 12.0722 13.7158 12.0702 13.7158 12.0682C13.7158 12.0662 13.7158 12.0642 13.7158 12.0622C13.7158 12.0603 13.7158 12.0583 13.7158 12.0563C13.7158 12.0543 13.7158 12.0523 13.7158 12.0503C13.7158 12.0483 13.7158 12.0463 13.7158 12.0442C13.7158 12.0422 13.7158 12.0402 13.7158 12.0382C13.7158 12.0362 13.7158 12.0342 13.7158 12.0322C13.7158 12.0301 13.7158 12.0281 13.7158 12.0261C13.7158 12.0241 13.7158 12.022 13.7158 12.02C13.7158 12.018 13.7158 12.0159 13.7158 12.0139C13.7158 12.0119 13.7158 12.0098 13.7158 12.0078C13.7158 12.0057 13.7158 12.0037 13.7158 12.0016C13.7158 11.9996 13.7158 11.9975 13.7158 11.9955C13.7158 11.9934 13.7158 11.9914 13.7158 11.9893C13.7158 11.9873 13.7158 11.9852 13.7158 11.9831C13.7158 11.9811 13.7158 11.979 13.7158 11.9769C13.7158 11.9749 13.7158 11.9728 13.7158 11.9707C13.7158 11.9686 13.7158 11.9666 13.7158 11.9645C13.7158 11.9624 13.7158 11.9603 13.7158 11.9582C13.7158 11.9561 13.7158 11.954 13.7158 11.952C13.7158 11.9499 13.7158 11.9478 13.7158 11.9457C13.7158 11.9436 13.7158 11.9415 13.7158 11.9394C13.7158 11.9373 13.7158 11.9352 13.7158 11.9331C13.7158 11.931 13.7158 11.9289 13.7158 11.9267C13.7158 11.9246 13.7158 11.9225 13.7158 11.9204C13.7158 11.9183 13.7158 11.9162 13.7158 11.914C13.7158 11.9119 13.7158 11.9098 13.7158 11.9077C13.7158 11.9056 13.7158 11.9034 13.7158 11.9013C13.7158 11.8992 13.7158 11.897 13.7158 11.8949C13.7158 11.8928 13.7158 11.8906 13.7158 11.8885C13.7158 11.8863 13.7158 11.8842 13.7158 11.8821C13.7158 11.8799 13.7158 11.8778 13.7158 11.8756C13.7158 11.8735 13.7158 11.8713 13.7158 11.8692C13.7158 11.867 13.7158 11.8648 13.7158 11.8627C13.7158 11.8605 13.7158 11.8584 13.7158 11.8562C13.7158 11.854 13.7158 11.8519 13.7158 11.8497C13.7158 11.8475 13.7158 11.8454 13.7158 11.8432C13.7158 11.841 13.7158 11.8388 13.7158 11.8367C13.7158 11.8345 13.7158 11.8323 13.7158 11.8301C13.7158 11.828 13.7158 11.8258 13.7158 11.8236C13.7158 11.8214 13.7158 11.8192 13.7158 11.817C13.7158 11.8148 13.7158 11.8126 13.7158 11.8104C13.7158 11.8083 13.7158 11.8061 13.7158 11.8039C13.7158 11.8017 13.7158 11.7995 13.7158 11.7973C13.7158 11.7951 13.7158 11.7928 13.7158 11.7906C13.7158 11.7884 13.7158 11.7862 13.7158 11.784C13.7158 11.7818 13.7158 11.7796 13.7158 11.7774C13.7158 11.7752 13.7158 11.7729 13.7158 11.7707C13.7158 11.7685 13.7158 11.7663 13.7158 11.7641C13.7158 11.7618 13.7158 11.7596 13.7158 11.7574C13.7158 11.7552 13.7158 11.7529 13.7158 11.7507C13.7158 11.7485 13.7158 11.7462 13.7158 11.744C13.7158 11.7418 13.7158 11.7395 13.7158 11.7373C13.7158 11.7351 13.7158 11.7328 13.7158 11.7306C13.7158 11.7283 13.7158 11.7261 13.7158 11.7238C13.7158 11.7216 13.7158 11.7193 13.7158 11.7171C13.7158 11.7148 13.7158 11.7126 13.7158 11.7103C13.7158 11.7081 13.7158 11.7058 13.7158 11.7036C13.7158 11.7013 13.7158 11.6991 13.7158 11.6968C13.7158 11.6945 13.7158 11.6923 13.7158 11.69C13.7158 11.6877 13.7158 11.6855 13.7158 11.6832C13.7158 11.6809 13.7158 11.6787 13.7158 11.6764C13.7158 11.6741 13.7158 11.6719 13.7158 11.6696C13.7158 11.6673 13.7158 11.665 13.7158 11.6628C13.7158 11.6605 13.7158 11.6582 13.7158 11.6559C13.7158 11.6536 13.7158 11.6513 13.7158 11.6491C13.7158 11.6468 13.7158 11.6445 13.7158 11.6422C13.7158 11.6399 13.7158 11.6376 13.7158 11.6353C13.7158 11.633 13.7158 11.6307 13.7158 11.6285C13.7158 11.6262 13.7158 11.6239 13.7158 11.6216C13.7158 11.6193 13.7158 11.617 13.7158 11.6147C13.7158 11.6124 13.7158 11.6101 13.7158 11.6078C13.7158 11.6055 13.7158 11.6032 13.7158 11.6008C13.7158 11.5985 13.7158 11.5962 13.7158 11.5939C13.7158 11.5916 13.7158 11.5893 13.7158 11.587C13.7158 11.5847 13.7158 11.5824 13.7158 11.58C13.7158 11.5777 13.7158 11.5754 13.7158 11.5731C13.7158 11.5708 13.7158 11.5685 13.7158 11.5661C13.7158 11.5638 13.7158 11.5615 13.7158 11.5592C13.7158 11.5568 13.7158 11.5545 13.7158 11.5522C13.7158 11.5499 13.7158 11.5475 13.7158 11.5452C13.7158 11.5429 13.7158 11.5405 13.7158 11.5382C13.7158 11.5359 13.7158 11.5335 13.7158 11.5312C13.7158 11.5289 13.7158 11.5265 13.7158 11.5242C13.7158 11.5219 13.7158 11.5195 13.7158 11.5172C13.7158 11.5148 13.7158 11.5125 13.7158 11.5102C13.7158 11.5078 13.7158 11.5055 13.7158 11.5031C13.7158 11.5008 13.7158 11.4984 13.7158 11.4961C13.7158 11.4937 13.7158 11.4914 13.7158 11.489C13.7158 11.4867 13.7158 11.4843 13.7158 11.482C13.7158 11.4796 13.7158 11.4773 13.7158 11.4749C13.7158 11.4726 13.7158 11.4702 13.7158 11.4679C13.7158 11.4655 13.7158 11.4631 13.7158 11.4608C13.7158 11.4584 13.7158 11.4561 13.7158 11.4537C13.7158 11.4513 13.7158 11.449 13.7158 11.4466C13.7158 11.4442 13.7158 11.4419 13.7158 11.4395C13.7158 11.4372 13.7158 11.4348 13.7158 11.4324C13.7158 11.43 13.7158 11.4277 13.7158 11.4253C13.7158 11.4229 13.7158 11.4206 13.7158 11.4182C13.7158 11.4158 13.7158 11.4135 13.7158 11.4111C13.7158 11.4087 13.7158 11.4063 13.7158 11.404C13.7158 11.4016 13.7158 11.3992 13.7158 11.3968C13.7158 11.3944 13.7158 11.3921 13.7158 11.3897C13.7158 11.3873 13.7158 11.3849 13.7158 11.3825C13.7158 11.3802 13.7158 11.3778 13.7158 11.3754C13.7158 11.373 13.7158 11.3706 13.7158 11.3683C13.7158 11.3659 13.7158 11.3635 13.7158 11.3611C13.7158 11.3587 13.7158 11.3563 13.7158 11.3539C13.7158 11.3515 13.7158 11.3492 13.7158 11.3468C13.7158 11.3444 13.7158 11.342 13.7158 11.3396C13.7158 11.3372 13.7158 11.3348 13.7158 11.3324C13.7158 11.33 13.7158 11.3276 13.7158 11.3252C13.7158 11.3228 13.7158 11.3205 13.7158 11.3181C13.7158 11.3157 13.7158 11.3133 13.7158 11.3109C13.7158 11.3085 13.7158 11.3061 13.7158 11.3037C13.7158 11.3013 13.7158 11.2989 13.7158 11.2965C13.7158 11.2941 13.7158 11.2917 13.7158 11.2893C13.7158 11.2869 13.7158 11.2845 13.7158 11.2821C13.7158 11.2797 13.7158 11.2773 13.7158 11.2749C13.7158 11.2725 13.7158 11.2701 13.7158 11.2677C13.7158 11.2652 13.7158 11.2628 13.7158 11.2604C13.7158 11.258 13.7158 11.2556 13.7158 11.2532C13.7158 11.2508 13.7158 11.2484 13.7158 11.246C13.7158 11.2436 13.7158 11.2412 13.7158 11.2388C13.7158 11.2364 13.7158 11.234 13.7158 11.2315C13.7158 11.2291 13.7158 11.2267 13.7158 11.2243C13.7158 11.2219 13.7158 11.2195 13.7158 11.2171C13.7158 11.2147 13.7158 11.2123 13.7158 11.2098C13.7158 11.2074 13.7158 11.205 13.7158 11.2026C13.7158 11.2002 13.7158 11.1978 13.7158 11.1954C13.7158 11.193 13.7158 11.1905 13.7158 11.1881C13.7158 11.1857 13.7158 11.1833 13.7158 11.1809C13.7158 11.1785 13.7158 11.1761 13.7158 11.1736C13.7158 11.1712 13.7158 11.1688 13.7158 11.1664C13.7158 11.164 13.7158 11.1616 13.7158 11.1591C13.7158 11.1567 13.7158 11.1543 13.7158 11.1519C13.7158 11.1495 13.7158 11.147 13.7158 11.1446C13.7158 11.1422 13.7158 11.1398 13.7158 11.1374C13.7158 11.135 13.7158 11.1325 13.7158 11.1301C13.7158 11.1277 13.7158 11.1253 13.7158 11.1229C13.7158 11.1204 13.7158 11.118 13.7158 11.1156C13.7158 11.1132 13.7158 11.1108 13.7158 11.1083C13.7158 11.1059 13.7158 11.1035 13.7158 11.1011C13.7158 11.0987 13.7158 11.0962 13.7158 11.0938C13.7158 11.0914 13.7158 11.089 13.7158 11.0866C13.7158 11.0841 13.7158 11.0817 13.7158 11.0793C13.7158 11.0769 13.7158 11.0745 13.7158 11.072C13.7158 11.0696 13.7158 11.0672 13.7158 11.0648C13.7158 11.0624 13.7158 11.0599 13.7158 11.0575C13.7158 11.0551 13.7158 11.0527 13.7158 11.0503C13.7158 11.0478 13.7158 11.0454 13.7158 11.043C13.7158 11.0406 13.7158 11.0382 13.7158 11.0357C13.7158 11.0333 13.7158 11.0309 13.7158 11.0285C13.7158 11.0261 13.7158 11.0236 13.7158 11.0212C13.7158 11.0188 13.7158 11.0164 13.7158 11.014C13.7158 11.0115 13.7158 11.0091 13.7158 11.0067C13.7158 11.0043 13.7158 11.0019 13.7158 10.9994C13.7158 10.997 13.7158 10.9946 13.7158 10.9922C13.7158 10.9898 13.7158 10.9873 13.7158 10.9849C13.7158 10.9825 13.7158 10.9801 13.7158 10.9777C13.7158 10.9753 13.7158 10.9728 13.7158 10.9704C13.7158 10.968 13.7158 10.9656 13.7158 10.9632C13.7158 10.9608 13.7158 10.9583 13.7158 10.9559C13.7158 10.9535 13.7158 10.9511 13.7158 10.9487C13.7158 10.9463 13.7158 10.9438 13.7158 10.9414C13.7158 10.939 13.7158 10.9366 13.7158 10.9342C13.7158 10.9318 13.7158 10.9294 13.7158 10.9269C13.7158 10.9245 13.7158 10.9221 13.7158 10.9197C13.7158 10.9173 13.7158 10.9149 13.7158 10.9125C13.7158 10.9101 13.7158 10.9076 13.7158 10.9052C13.7158 10.9028 13.7158 10.9004 13.7158 10.898C13.7158 10.8956 13.7158 10.8932 13.7158 10.8908C13.7158 10.8884 13.7158 10.886 13.7158 10.8835C13.7158 10.8811 13.7158 10.8787 13.7158 10.8763C13.7158 10.8739 13.7158 10.8715 13.7158 10.8691C13.7158 10.8667 13.7158 10.8643 13.7158 10.8619C13.7158 10.8595 13.7158 10.8571 13.7158 10.8547C13.7158 10.8523 13.7158 10.8499 13.7158 10.8475C13.7158 10.8451 13.7158 10.8427 13.7158 10.8403C13.7158 10.8379 13.7158 10.8355 13.7158 10.8331C13.7158 10.8307 13.7158 10.8283 13.7158 10.8259C13.7158 10.8235 13.7158 10.8211 13.7158 10.8187C13.7158 10.8163 13.7158 10.8139 13.7158 10.8115C13.7158 10.8091 13.7158 10.8067 13.7158 10.8043C13.7158 10.8019 13.7158 10.7995 13.7158 10.7971C13.7158 10.7947 13.7158 10.7923 13.7158 10.7899C13.7158 10.7875 13.7158 10.7851 13.7158 10.7827C13.7158 10.7804 13.7158 10.778 13.7158 10.7756C13.7158 10.7732 13.7158 10.7708 13.7158 10.7684C13.7158 10.766 13.7158 10.7636 13.7158 10.7612C13.7158 10.7589 13.7158 10.7565 13.7158 10.7541C13.7158 10.7517 13.7158 10.7493 13.7158 10.7469C13.7158 10.7446 13.7158 10.7422 13.7158 10.7398C13.7158 10.7374 13.7158 10.735 13.7158 10.7327C13.7158 10.7303 13.7158 10.7279 13.7158 10.7255C13.7158 10.7232 13.7158 10.7208 13.7158 10.7184C13.7158 10.716 13.7158 10.7137 13.7158 10.7113C13.7158 10.7089 13.7158 10.7065 13.7158 10.7042C13.7158 10.7018 13.7158 10.6994 13.7158 10.6971C13.7158 10.6947 13.7158 10.6923 13.7158 10.6899C13.7158 10.6876 13.7158 10.6852 13.7158 10.6828C13.7158 10.6805 13.7158 10.6781 13.7158 10.6758C13.7158 10.6734 13.7158 10.671 13.7158 10.6687C13.7158 10.6663 13.7158 10.664 13.7158 10.6616C13.7158 10.6592 13.7158 10.6569 13.7158 10.6545C13.7158 10.6522 13.7158 10.6498 13.7158 10.6475C13.7158 10.6451 13.7158 10.6428 13.7158 10.6404C13.7158 10.638 13.7158 10.6357 13.7158 10.6333C13.7158 10.631 13.7158 10.6287 13.7158 10.6263C13.7158 10.624 13.7158 10.6216 13.7158 10.6193C13.7158 10.6169 13.7158 10.6146 13.7158 10.6122C13.7158 10.6099 13.7158 10.6076 13.7158 10.6052C13.7158 10.6029 13.7158 10.6005 13.7158 10.5982C13.7158 10.5959 13.7158 10.5935 13.7158 10.5912C13.7158 10.5889 13.7158 10.5865 13.7158 10.5842C13.7158 10.5819 13.7158 10.5795 13.7158 10.5772C13.7158 10.5749 13.7158 10.5726 13.7158 10.5702C13.7158 10.5679 13.7158 10.5656 13.7158 10.5633C13.7158 10.5609 13.7158 10.5586 13.7158 10.5563C13.7158 10.554 13.7158 10.5516 13.7158 10.5493C13.7158 10.547 13.7158 10.5447 13.7158 10.5424C13.7158 10.5401 13.7158 10.5378 13.7158 10.5354C13.7158 10.5331 13.7158 10.5308 13.7158 10.5285C13.7158 10.5262 13.7158 10.5239 13.7158 10.5216C13.7158 10.5193 13.7158 10.517 13.7158 10.5147C13.7158 10.5124 13.7158 10.5101 13.7158 10.5078C13.7158 10.5055 13.7158 10.5032 13.7158 10.5009C13.7158 10.4986 13.7158 10.4963 13.7158 10.494C13.7158 10.4917 13.7158 10.4894 13.7158 10.4871C13.7158 10.4848 13.7158 10.4825 13.7158 10.4803C13.7158 10.478 13.7158 10.4757 13.7158 10.4734C13.7158 10.4711 13.7158 10.4688 13.7158 10.4665C13.7158 10.4643 13.7158 10.462 13.7158 10.4597C13.7158 10.4574 13.7158 10.4552 13.7158 10.4529C13.7158 10.4506 13.7158 10.4483 13.7158 10.4461C13.7158 10.4438 13.7158 10.4415 13.7158 10.4393C13.7158 10.437 13.7158 10.4347 13.7158 10.4325C13.7158 10.4302 13.7158 10.4279 13.7158 10.4257C13.7158 10.4234 13.7158 10.4212 13.7158 10.4189C13.7158 10.4167 13.7158 10.4144 13.7158 10.4122C13.7158 10.4099 13.7158 10.4077 13.7158 10.4054C13.7158 10.4032 13.7158 10.4009 13.7158 10.3987C13.7158 10.3964 13.7158 10.3942 13.7158 10.3919C13.7158 10.3897 13.7158 10.3875 13.7158 10.3852C13.7158 10.383 13.7158 10.3807 13.7158 10.3785C13.7158 10.3763 13.7158 10.374 13.7158 10.3718C13.7158 10.3696 13.7158 10.3674 13.7158 10.3651C13.7158 10.3629 13.7158 10.3607 13.7158 10.3585C13.7158 10.3562 13.7158 10.354 13.7158 10.3518C13.7158 10.3496 13.7158 10.3474 13.7158 10.3452C13.7158 10.3429 13.7158 10.3407 13.7158 10.3385C13.7158 10.3363 13.7158 10.3341 13.7158 10.3319C13.7158 10.3297 13.7158 10.3275 13.7158 10.3253C13.7158 10.3231 13.7158 10.3209 13.7158 10.3187C13.7158 10.3165 13.7158 10.3143 13.7158 10.3121C13.7158 10.3099 13.7158 10.3077 13.7158 10.3055C13.7158 10.3034 13.7158 10.3012 13.7158 10.299C13.7158 10.2968 13.7158 10.2946 13.7158 10.2924C13.7158 10.2903 13.7158 10.2881 13.7158 10.2859C13.7158 10.2837 13.7158 10.2816 13.7158 10.2794C13.7158 10.2772 13.7158 10.275 13.7158 10.2729C13.7158 10.2707 13.7158 10.2685 13.7158 10.2664C13.7158 10.2642 13.7158 10.2621 13.7158 10.2599C13.7158 10.2578 13.7158 10.2556 13.7158 10.2534C13.7158 10.2513 13.7158 10.2491 13.7158 10.247C13.7158 10.2448 13.7158 10.2427 13.7158 10.2406C13.7158 10.2384 13.7158 10.2363 13.7158 10.2341C13.7158 10.232 13.7158 10.2299 13.7158 10.2277C13.7158 10.2256 13.7158 10.2235 13.7158 10.2213C13.7158 10.2192 13.7158 10.2171 13.7158 10.215C13.7158 10.2128 13.7158 10.2107 13.7158 10.2086C13.7158 10.2065 13.7158 10.2044 13.7158 10.2022C13.7158 10.2001 13.7158 10.198 13.7158 10.1959C13.7158 10.1938 13.7158 10.1917 13.7158 10.1896C13.7158 10.1875 13.7158 10.1854 13.7158 10.1833C13.7158 10.1812 13.7158 10.1791 13.7158 10.177C13.7158 10.1749 13.7158 10.1728 13.7158 10.1707C13.7158 10.1686 13.7158 10.1665 13.7158 10.1645C13.7158 10.1624 13.7158 10.1603 13.7158 10.1582C13.7158 10.1561 13.7158 10.1541 13.7158 10.152C13.7158 10.1499 13.7158 10.1478 13.7158 10.1458C13.7158 10.1437 13.7158 10.1416 13.7158 10.1396C13.7158 10.1375 13.7158 10.1355 13.7158 10.1334C13.7158 10.1313 13.7158 10.1293 13.7158 10.1272C13.7158 10.1252 13.7158 10.1231 13.7158 10.1211C13.7158 10.119 13.7158 10.117 13.7158 10.115C13.7158 10.1129 13.7158 10.1109 13.7158 10.1088C13.7158 10.1068 13.7158 10.1048 13.7158 10.1027C13.7158 10.1007 13.7158 10.0987 13.7158 10.0967C13.7158 10.0946 13.7158 10.0926 13.7158 10.0906C13.7158 10.0886 13.7158 10.0866 13.7158 10.0845C13.7158 10.0825 13.7158 10.0805 13.7158 10.0785C13.7158 10.0765 13.7158 10.0745 13.7158 10.0725C13.7158 10.0705 13.7158 10.0685 13.7158 10.0665C13.7158 10.0645 13.7158 10.0625 13.7158 10.0605C13.7158 10.0585 13.7158 10.0566 13.7158 10.0546C13.7158 10.0526 13.7158 10.0506 13.7158 10.0486C13.7158 10.0467 13.7158 10.0447 13.7158 10.0427C13.7158 10.0407 13.7158 10.0388 13.7158 10.0368C13.7158 10.0348 13.7158 10.0329 13.7158 10.0309C13.7158 10.029 13.7158 10.027 13.7158 10.025C13.7158 10.0231 13.7158 10.0211 13.7158 10.0192C13.7158 10.0172 13.7158 10.0153 13.7158 10.0134C13.7158 10.0114 13.7158 10.0095 13.7158 10.0075C13.7158 10.0056 13.7158 10.0037 13.7158 10.0017C13.7158 9.99981 13.7158 9.99789 13.7158 9.99597C13.7158 9.99404 13.7158 9.99212 13.7158 9.99021C13.7158 9.98829 13.7158 9.98638 13.7158 9.98447C13.7158 9.98256 13.7158 9.98065 13.7158 9.97875C13.7158 9.97684 13.7158 9.97494 13.7158 9.97305C13.7158 9.97115 13.7158 9.96926 13.7158 9.96737C13.7158 9.96548 13.7158 9.96359 13.7158 9.9617C13.7158 9.95982 13.7158 9.95794 13.7158 9.95606C13.7158 9.95418 13.7158 9.95231 13.7158 9.95044C13.7158 9.94857 13.7158 9.9467 13.7158 9.94484C13.7158 9.94297 13.7158 9.94111 13.7158 9.93925C13.7158 9.9374 13.7158 9.93554 13.7158 9.93369C13.7158 9.93184 13.7158 9.92999 13.7158 9.92815C13.7158 9.92631 13.7158 9.92446 13.7158 9.92263C13.7158 9.92079 13.7158 9.91896 13.7158 9.91713C13.7158 9.9153 13.7158 9.91347 13.7158 9.91165C13.7158 9.90982 13.7158 9.908 13.7158 9.90619C13.7158 9.90437 13.7158 9.90256 13.7158 9.90075C13.7158 9.89894 13.7158 9.89713 13.7158 9.89533C13.7158 9.89353 13.7158 9.89173 13.7158 9.88993C13.7158 9.88814 13.7158 9.88634 13.7158 9.88456C13.7158 9.88277 13.7158 9.88098 13.7158 9.8792C13.7158 9.87742 13.7158 9.87564 13.7158 9.87387C13.7158 9.8721 13.7158 9.87032 13.7158 9.86856C13.7158 9.86679 13.7158 9.86503 13.7158 9.86327C13.7158 9.86151 13.7158 9.85975 13.7158 9.858C13.7158 9.85625 13.7158 9.8545 13.7158 9.85275C13.7158 9.85101 13.7158 9.84927 13.7158 9.84753C13.7158 9.84579 13.7158 9.84406 13.7158 9.84233C13.7158 9.8406 13.7158 9.83887 13.7158 9.83715C13.7158 9.83543 13.7158 9.83371 13.7158 9.83199C13.7158 9.83028 13.7158 9.82857 13.7158 9.82686C13.7158 9.82515 13.7158 9.82345 13.7158 9.82175C13.7158 9.82005 13.7158 9.81835 13.7158 9.81666C13.7158 9.81497 13.7158 9.81328 13.7158 9.81159C13.7158 9.80991 13.7158 9.80823 13.7158 9.80655C13.7158 9.80487 13.7158 9.8032 13.7158 9.80153C13.7158 9.79986 13.7158 9.7982 13.7158 9.79653C13.7158 9.79487 13.7158 9.79321 13.7158 9.79156C13.7158 9.78991 13.7158 9.78826 13.7158 9.78661C13.7158 9.78497 13.7158 9.78332 13.7158 9.78169C13.7158 9.78005 13.7158 9.77841 13.7158 9.77678C13.7158 9.77515 13.7158 9.77353 13.7158 9.7719C13.7158 9.77028 13.7158 9.76866 13.7158 9.76705C13.7158 9.76544 13.7158 9.76383 13.7158 9.76222C13.7158 9.76061 13.7158 9.75901 13.7158 9.75741C13.7158 9.75582 13.7158 9.75422 13.7158 9.75263C13.7158 9.75104 13.7158 9.74946 13.7158 9.74788C13.7158 9.74629 13.7158 9.74472 13.7158 9.74314C13.7158 9.74157 13.7158 9.74 13.7158 9.73844C13.7158 9.73687 13.7158 9.73531 13.7158 9.73375C13.7158 9.7322 13.7158 9.73064 13.7158 9.72909C13.7158 9.72755 13.7158 9.726 13.7158 9.72446C13.7158 9.72292 13.7158 9.72139 13.7158 9.71985C13.7158 9.71832 13.7158 9.71679 13.7158 9.71527C13.7158 9.71375 13.7158 9.71223 13.7158 9.71071C13.7158 9.7092 13.7158 9.70769 13.7158 9.70618C13.7158 9.70468 13.7158 9.70317 13.7158 9.70168C13.7158 9.70018 13.7158 9.69869 13.7158 9.6972C13.7158 9.69571 13.7158 9.69422 13.7158 9.69274C13.7158 9.69126 13.7158 9.68979 13.7158 9.68831C13.7158 9.68684 13.7158 9.68538 13.7158 9.68391C13.7158 9.68245 13.7158 9.68099 13.7158 9.67954C13.7158 9.67808 13.7158 9.67663 13.7158 9.67519C13.7158 9.67374 13.7158 9.6723 13.7158 9.67086C13.7158 9.66943 13.7158 9.668 13.7158 9.66657C13.7158 9.66514 13.7158 9.66372 13.7158 9.6623C13.7158 9.66088 13.7158 9.65947 13.7158 9.65806C13.7158 9.65665 13.7158 9.65524 13.7158 9.65384C13.7158 9.65244 13.7158 9.65104 13.7158 9.64965C13.7158 9.64826 13.7158 9.64687 13.7158 9.64549C13.7158 9.64411 13.7158 9.64273 13.7158 9.64136C13.7158 9.63998 13.7158 9.63862 13.7158 9.63725C13.7158 9.63589 13.7158 9.63453 13.7158 9.63317C13.7158 9.63182 13.7158 9.63047 13.7158 9.62912C13.7158 9.62778 13.7158 9.62643 13.7158 9.6251C13.7158 9.62376 13.7158 9.62243 13.7158 9.6211C13.7158 9.61978 13.7158 9.61845 13.7158 9.61714C13.7158 9.61582 13.7158 9.61451 13.7158 9.6132C13.7158 9.61189 13.7158 9.61059 13.7158 9.60929C13.7158 9.60799 13.7158 9.60669 13.7158 9.6054C13.7158 9.60412 13.7158 9.60283 13.7158 9.60155C13.7158 9.60027 13.7158 9.599 13.7158 9.59773C13.7158 9.59646 13.7158 9.59519 13.7158 9.59393C13.7158 9.59267 13.7158 9.59141 13.7158 9.59016C13.7158 9.58891 13.7158 9.58767 13.7158 9.58642C13.7158 9.58518 13.7158 9.58395 13.7158 9.58271C13.7158 9.58148 13.7158 9.58026 13.7158 9.57903C13.7158 9.57781 13.7158 9.5766 13.7158 9.57538C13.7158 9.57417 13.7158 9.57297 13.7158 9.57176C13.7158 9.57056 13.7158 9.56936 13.7158 9.56817C13.7158 9.56698 13.7158 9.56579 13.7158 9.56461C13.7158 9.56343 13.7158 9.56225 13.7158 9.56108C13.7158 9.55991 13.7158 9.55874 13.7158 9.55758C13.7158 9.55642 13.7158 9.55526 13.7158 9.55411C13.7158 9.55295 13.7158 9.55181 13.7158 9.55066C13.7158 9.54952 13.7158 9.54839 13.7158 9.54725C13.7158 9.54612 13.7158 9.545 13.7158 9.54387C13.7158 9.54275 13.7158 9.54164 13.7158 9.54052C13.7158 9.53941 13.7158 9.53831 13.7158 9.5372C13.7158 9.5361 13.7158 9.53501 13.7158 9.53392C13.7158 9.53283 13.7158 9.53174 13.7158 9.53066C13.7158 9.52958 13.7158 9.5285 13.7158 9.52743C13.7158 9.52636 13.7158 9.5253 13.7158 9.52424C13.7158 9.52318 13.7158 9.52212 13.7158 9.52107C13.7158 9.52002 13.7158 9.51898 13.7158 9.51794C13.7158 9.5169 13.7158 9.51587 13.7158 9.51484C13.7158 9.51381 13.7158 9.51279 13.7158 9.51177C13.7158 9.51075 13.7158 9.50974 13.7158 9.50873C13.7158 9.50773 13.7158 9.50673 13.7158 9.50573C13.7158 9.50473 13.7158 9.50374 13.7158 9.50276C13.7158 9.50177 13.7158 9.50079 13.7158 9.49981C13.7158 9.49884 13.7158 9.49787 13.7158 9.49691C13.7158 9.49594 13.7158 9.49498 13.7158 9.49403C13.7158 9.49308 13.7158 9.49213 13.7158 9.49119C13.7158 9.49024 13.7158 9.48931 13.7158 9.48837C13.7158 9.48744 13.7158 9.48652 13.7158 9.4856C13.7158 9.48468 13.7158 9.48376 13.7158 9.48285C13.7158 9.48194 13.7158 9.48104 13.7158 9.48014C13.7158 9.47924 13.7158 9.47835 13.7158 9.47746C13.7158 9.47657 13.7158 9.47569 13.7158 9.47481C13.7158 9.47394 13.7158 9.47306 13.7158 9.4722C13.7158 9.47133 13.7158 9.47047 13.7158 9.46962C13.7158 9.46877 13.7158 9.46792 13.7158 9.46707C13.7158 9.46623 13.7158 9.46539 13.7158 9.46456C13.7158 9.46373 13.7158 9.4629 13.7158 9.46208C13.7158 9.46126 13.7158 9.46045 13.7158 9.45964C13.7158 9.45883 13.7158 9.45803 13.7158 9.45723C13.7158 9.45643 13.7158 9.45564 13.7158 9.45485C13.7158 9.45407 13.7158 9.45329 13.7158 9.45251C13.7158 9.45174 13.7158 9.45097 13.7158 9.4502C13.7158 9.44944 13.7158 9.44868 13.7158 9.44793C13.7158 9.44718 13.7158 9.44643 13.7158 9.44569C13.7158 9.44495 13.7158 9.44422 13.7158 9.44349C13.7158 9.44276 13.7158 9.44204 13.7158 9.44132C13.7158 9.4406 13.7158 9.43989 13.7158 9.43919C13.7158 9.43848 13.7158 9.43778 13.7158 9.43709C13.7158 9.4364 13.7158 9.43571 13.7158 9.43503C13.7158 9.43435 13.7158 9.43367 13.7158 9.433C13.7158 9.43233 13.7158 9.43167 13.7158 9.43101C13.7158 9.43035 13.7158 9.4297 13.7158 9.42905C13.7158 9.42841 13.7158 9.42777 13.7158 9.42713C13.7158 9.4265 13.7158 9.42587 13.7158 9.42525C13.7158 9.42462 13.7158 9.42401 13.7158 9.4234C13.7158 9.42279 13.7158 9.42218 13.7158 9.42159C13.7158 9.42099 13.7158 9.4204 13.7158 9.41981C13.7158 9.41922 13.7158 9.41864 13.7158 9.41807C13.7158 9.4175 13.7158 9.41693 13.7158 9.41637C13.7158 9.4158 13.7158 9.41525 13.7158 9.4147C13.7158 9.41415 13.7158 9.41361 13.7158 9.41307C13.7158 9.41253 13.7158 9.412 13.7158 9.41148C13.7158 9.41095 13.7158 9.41043 13.7158 9.40992C13.7158 9.40941 13.7158 9.4089 13.7158 9.4084C13.7158 9.4079 13.7158 9.40741 13.7158 9.40692C13.7158 9.40643 13.7158 9.40595 13.7158 9.40547C13.7158 9.405 13.7158 9.40453 13.7158 9.40407C13.7158 9.4036 13.7158 9.40315 13.7158 9.4027C13.7158 9.40225 13.7158 9.4018 13.7158 9.40137C13.7158 9.40093 13.7158 9.4005 13.7158 9.40007C13.7158 9.39965 13.7158 9.39923 13.7158 9.39882C13.7158 9.3984 13.7158 9.398 13.7158 9.3976C13.7158 9.3972 13.7158 9.3968 13.7158 9.39642C13.7158 9.39603 13.7158 9.39565 13.7158 9.39528C13.7158 9.3949 13.7158 9.39453 13.7158 9.39417C13.7158 9.39381 13.7158 9.39346 13.7158 9.39311C13.7158 9.39276 13.7158 9.39242 13.7158 9.39208C13.7158 9.39175 13.7158 9.39142 13.7158 9.39109C13.7158 9.39077 13.7158 9.39046 13.7158 9.39015C13.7158 9.38984 13.7158 9.38953 13.7158 9.38924C13.7158 9.38894 13.7158 9.38865 13.7158 9.38837C13.7158 9.38808 13.7158 9.38781 13.7158 9.38754C13.7158 9.38726 13.7158 9.387 13.7158 9.38674C13.7158 9.38649 13.7158 9.38624 13.7158 9.38599C13.7158 9.38575 13.7158 9.38551 13.7158 9.38528C13.7158 9.38505 13.7158 9.38482 13.7158 9.38461C13.7158 9.38439 13.7158 9.38418 13.7158 9.38397C13.7158 9.38377 13.7158 9.38357 13.7158 9.38338C13.7158 9.38319 13.7158 9.383 13.7158 9.38283C13.7158 9.38265 13.7158 9.38248 13.7158 9.38231C13.7158 9.38215 13.7158 9.38199 13.7158 9.38184C13.7158 9.38169 13.7158 9.38155 13.7158 9.38141C13.7158 9.38127 13.7158 9.38114 13.7158 9.38102C13.7158 9.38089 13.7158 9.38078 13.7158 9.38067C13.7158 9.38056 13.7158 9.38045 13.7158 9.38036C13.7158 9.38026 13.7158 9.38017 13.7158 9.38009C13.7158 9.38001 13.7158 9.37993 13.7158 9.37986C13.7158 9.37979 13.7158 9.37973 13.7158 9.37967C13.7158 9.37962 13.7158 9.37957 13.7158 9.37953C13.7158 9.37949 13.7158 9.37945 13.7158 9.37942C13.7158 9.3794 13.7158 9.37938 13.7158 9.37936C13.7158 9.37935 13.7158 9.37934 13.2158 9.37934C12.7158 9.37934 12.7158 9.37935 12.7158 9.37936C12.7158 9.37938 12.7158 9.3794 12.7158 9.37942C12.7158 9.37945 12.7158 9.37949 12.7158 9.37953C12.7158 9.37957 12.7158 9.37962 12.7158 9.37967C12.7158 9.37973 12.7158 9.37979 12.7158 9.37986C12.7158 9.37993 12.7158 9.38001 12.7158 9.38009C12.7158 9.38017 12.7158 9.38026 12.7158 9.38036C12.7158 9.38045 12.7158 9.38056 12.7158 9.38067C12.7158 9.38078 12.7158 9.38089 12.7158 9.38102C12.7158 9.38114 12.7158 9.38127 12.7158 9.38141C12.7158 9.38155 12.7158 9.38169 12.7158 9.38184C12.7158 9.38199 12.7158 9.38215 12.7158 9.38231C12.7158 9.38248 12.7158 9.38265 12.7158 9.38283C12.7158 9.383 12.7158 9.38319 12.7158 9.38338C12.7158 9.38357 12.7158 9.38377 12.7158 9.38397C12.7158 9.38418 12.7158 9.38439 12.7158 9.38461C12.7158 9.38482 12.7158 9.38505 12.7158 9.38528C12.7158 9.38551 12.7158 9.38575 12.7158 9.38599C12.7158 9.38624 12.7158 9.38649 12.7158 9.38674C12.7158 9.387 12.7158 9.38726 12.7158 9.38754C12.7158 9.38781 12.7158 9.38808 12.7158 9.38837C12.7158 9.38865 12.7158 9.38894 12.7158 9.38924C12.7158 9.38953 12.7158 9.38984 12.7158 9.39015C12.7158 9.39046 12.7158 9.39077 12.7158 9.39109C12.7158 9.39142 12.7158 9.39175 12.7158 9.39208C12.7158 9.39242 12.7158 9.39276 12.7158 9.39311C12.7158 9.39346 12.7158 9.39381 12.7158 9.39417C12.7158 9.39453 12.7158 9.3949 12.7158 9.39528C12.7158 9.39565 12.7158 9.39603 12.7158 9.39642C12.7158 9.3968 12.7158 9.3972 12.7158 9.3976C12.7158 9.398 12.7158 9.3984 12.7158 9.39882C12.7158 9.39923 12.7158 9.39965 12.7158 9.40007C12.7158 9.4005 12.7158 9.40093 12.7158 9.40137C12.7158 9.4018 12.7158 9.40225 12.7158 9.4027C12.7158 9.40315 12.7158 9.4036 12.7158 9.40407C12.7158 9.40453 12.7158 9.405 12.7158 9.40547C12.7158 9.40595 12.7158 9.40643 12.7158 9.40692C12.7158 9.40741 12.7158 9.4079 12.7158 9.4084C12.7158 9.4089 12.7158 9.40941 12.7158 9.40992C12.7158 9.41043 12.7158 9.41095 12.7158 9.41148C12.7158 9.412 12.7158 9.41253 12.7158 9.41307C12.7158 9.41361 12.7158 9.41415 12.7158 9.4147C12.7158 9.41525 12.7158 9.4158 12.7158 9.41637C12.7158 9.41693 12.7158 9.4175 12.7158 9.41807C12.7158 9.41864 12.7158 9.41922 12.7158 9.41981C12.7158 9.4204 12.7158 9.42099 12.7158 9.42159C12.7158 9.42218 12.7158 9.42279 12.7158 9.4234C12.7158 9.42401 12.7158 9.42462 12.7158 9.42525C12.7158 9.42587 12.7158 9.4265 12.7158 9.42713C12.7158 9.42777 12.7158 9.42841 12.7158 9.42905C12.7158 9.4297 12.7158 9.43035 12.7158 9.43101C12.7158 9.43167 12.7158 9.43233 12.7158 9.433C12.7158 9.43367 12.7158 9.43435 12.7158 9.43503C12.7158 9.43571 12.7158 9.4364 12.7158 9.43709C12.7158 9.43778 12.7158 9.43848 12.7158 9.43919C12.7158 9.43989 12.7158 9.4406 12.7158 9.44132C12.7158 9.44204 12.7158 9.44276 12.7158 9.44349C12.7158 9.44422 12.7158 9.44495 12.7158 9.44569C12.7158 9.44643 12.7158 9.44718 12.7158 9.44793C12.7158 9.44868 12.7158 9.44944 12.7158 9.4502C12.7158 9.45097 12.7158 9.45174 12.7158 9.45251C12.7158 9.45329 12.7158 9.45407 12.7158 9.45485C12.7158 9.45564 12.7158 9.45643 12.7158 9.45723C12.7158 9.45803 12.7158 9.45883 12.7158 9.45964C12.7158 9.46045 12.7158 9.46126 12.7158 9.46208C12.7158 9.4629 12.7158 9.46373 12.7158 9.46456C12.7158 9.46539 12.7158 9.46623 12.7158 9.46707C12.7158 9.46792 12.7158 9.46877 12.7158 9.46962C12.7158 9.47047 12.7158 9.47133 12.7158 9.4722C12.7158 9.47306 12.7158 9.47394 12.7158 9.47481C12.7158 9.47569 12.7158 9.47657 12.7158 9.47746C12.7158 9.47835 12.7158 9.47924 12.7158 9.48014C12.7158 9.48104 12.7158 9.48194 12.7158 9.48285C12.7158 9.48376 12.7158 9.48468 12.7158 9.4856C12.7158 9.48652 12.7158 9.48744 12.7158 9.48837C12.7158 9.48931 12.7158 9.49024 12.7158 9.49119C12.7158 9.49213 12.7158 9.49308 12.7158 9.49403C12.7158 9.49498 12.7158 9.49594 12.7158 9.49691C12.7158 9.49787 12.7158 9.49884 12.7158 9.49981C12.7158 9.50079 12.7158 9.50177 12.7158 9.50276C12.7158 9.50374 12.7158 9.50473 12.7158 9.50573C12.7158 9.50673 12.7158 9.50773 12.7158 9.50873C12.7158 9.50974 12.7158 9.51075 12.7158 9.51177C12.7158 9.51279 12.7158 9.51381 12.7158 9.51484C12.7158 9.51587 12.7158 9.5169 12.7158 9.51794C12.7158 9.51898 12.7158 9.52002 12.7158 9.52107C12.7158 9.52212 12.7158 9.52318 12.7158 9.52424C12.7158 9.5253 12.7158 9.52636 12.7158 9.52743C12.7158 9.5285 12.7158 9.52958 12.7158 9.53066C12.7158 9.53174 12.7158 9.53283 12.7158 9.53392C12.7158 9.53501 12.7158 9.5361 12.7158 9.5372C12.7158 9.53831 12.7158 9.53941 12.7158 9.54052C12.7158 9.54164 12.7158 9.54275 12.7158 9.54387C12.7158 9.545 12.7158 9.54612 12.7158 9.54725C12.7158 9.54839 12.7158 9.54952 12.7158 9.55066C12.7158 9.55181 12.7158 9.55295 12.7158 9.55411C12.7158 9.55526 12.7158 9.55642 12.7158 9.55758C12.7158 9.55874 12.7158 9.55991 12.7158 9.56108C12.7158 9.56225 12.7158 9.56343 12.7158 9.56461C12.7158 9.56579 12.7158 9.56698 12.7158 9.56817C12.7158 9.56936 12.7158 9.57056 12.7158 9.57176C12.7158 9.57297 12.7158 9.57417 12.7158 9.57538C12.7158 9.5766 12.7158 9.57781 12.7158 9.57903C12.7158 9.58026 12.7158 9.58148 12.7158 9.58271C12.7158 9.58395 12.7158 9.58518 12.7158 9.58642C12.7158 9.58767 12.7158 9.58891 12.7158 9.59016C12.7158 9.59141 12.7158 9.59267 12.7158 9.59393C12.7158 9.59519 12.7158 9.59646 12.7158 9.59773C12.7158 9.599 12.7158 9.60027 12.7158 9.60155C12.7158 9.60283 12.7158 9.60412 12.7158 9.6054C12.7158 9.60669 12.7158 9.60799 12.7158 9.60929C12.7158 9.61059 12.7158 9.61189 12.7158 9.6132C12.7158 9.61451 12.7158 9.61582 12.7158 9.61714C12.7158 9.61845 12.7158 9.61978 12.7158 9.6211C12.7158 9.62243 12.7158 9.62376 12.7158 9.6251C12.7158 9.62643 12.7158 9.62778 12.7158 9.62912C12.7158 9.63047 12.7158 9.63182 12.7158 9.63317C12.7158 9.63453 12.7158 9.63589 12.7158 9.63725C12.7158 9.63862 12.7158 9.63998 12.7158 9.64136C12.7158 9.64273 12.7158 9.64411 12.7158 9.64549C12.7158 9.64687 12.7158 9.64826 12.7158 9.64965C12.7158 9.65104 12.7158 9.65244 12.7158 9.65384C12.7158 9.65524 12.7158 9.65665 12.7158 9.65806C12.7158 9.65947 12.7158 9.66088 12.7158 9.6623C12.7158 9.66372 12.7158 9.66514 12.7158 9.66657C12.7158 9.668 12.7158 9.66943 12.7158 9.67086C12.7158 9.6723 12.7158 9.67374 12.7158 9.67519C12.7158 9.67663 12.7158 9.67808 12.7158 9.67954C12.7158 9.68099 12.7158 9.68245 12.7158 9.68391C12.7158 9.68538 12.7158 9.68684 12.7158 9.68831C12.7158 9.68979 12.7158 9.69126 12.7158 9.69274C12.7158 9.69422 12.7158 9.69571 12.7158 9.6972C12.7158 9.69869 12.7158 9.70018 12.7158 9.70168C12.7158 9.70317 12.7158 9.70468 12.7158 9.70618C12.7158 9.70769 12.7158 9.7092 12.7158 9.71071C12.7158 9.71223 12.7158 9.71375 12.7158 9.71527C12.7158 9.71679 12.7158 9.71832 12.7158 9.71985C12.7158 9.72139 12.7158 9.72292 12.7158 9.72446C12.7158 9.726 12.7158 9.72755 12.7158 9.72909C12.7158 9.73064 12.7158 9.7322 12.7158 9.73375C12.7158 9.73531 12.7158 9.73687 12.7158 9.73844C12.7158 9.74 12.7158 9.74157 12.7158 9.74314C12.7158 9.74472 12.7158 9.74629 12.7158 9.74788C12.7158 9.74946 12.7158 9.75104 12.7158 9.75263C12.7158 9.75422 12.7158 9.75582 12.7158 9.75741C12.7158 9.75901 12.7158 9.76061 12.7158 9.76222C12.7158 9.76383 12.7158 9.76544 12.7158 9.76705C12.7158 9.76866 12.7158 9.77028 12.7158 9.7719C12.7158 9.77353 12.7158 9.77515 12.7158 9.77678C12.7158 9.77841 12.7158 9.78005 12.7158 9.78169C12.7158 9.78332 12.7158 9.78497 12.7158 9.78661C12.7158 9.78826 12.7158 9.78991 12.7158 9.79156C12.7158 9.79321 12.7158 9.79487 12.7158 9.79653C12.7158 9.7982 12.7158 9.79986 12.7158 9.80153C12.7158 9.8032 12.7158 9.80487 12.7158 9.80655C12.7158 9.80823 12.7158 9.80991 12.7158 9.81159C12.7158 9.81328 12.7158 9.81497 12.7158 9.81666C12.7158 9.81835 12.7158 9.82005 12.7158 9.82175C12.7158 9.82345 12.7158 9.82515 12.7158 9.82686C12.7158 9.82857 12.7158 9.83028 12.7158 9.83199C12.7158 9.83371 12.7158 9.83543 12.7158 9.83715C12.7158 9.83887 12.7158 9.8406 12.7158 9.84233C12.7158 9.84406 12.7158 9.84579 12.7158 9.84753C12.7158 9.84927 12.7158 9.85101 12.7158 9.85275C12.7158 9.8545 12.7158 9.85625 12.7158 9.858C12.7158 9.85975 12.7158 9.86151 12.7158 9.86327C12.7158 9.86503 12.7158 9.86679 12.7158 9.86856C12.7158 9.87032 12.7158 9.8721 12.7158 9.87387C12.7158 9.87564 12.7158 9.87742 12.7158 9.8792C12.7158 9.88098 12.7158 9.88277 12.7158 9.88456C12.7158 9.88634 12.7158 9.88814 12.7158 9.88993C12.7158 9.89173 12.7158 9.89353 12.7158 9.89533C12.7158 9.89713 12.7158 9.89894 12.7158 9.90075C12.7158 9.90256 12.7158 9.90437 12.7158 9.90619C12.7158 9.908 12.7158 9.90982 12.7158 9.91165C12.7158 9.91347 12.7158 9.9153 12.7158 9.91713C12.7158 9.91896 12.7158 9.92079 12.7158 9.92263C12.7158 9.92446 12.7158 9.92631 12.7158 9.92815C12.7158 9.92999 12.7158 9.93184 12.7158 9.93369C12.7158 9.93554 12.7158 9.9374 12.7158 9.93925C12.7158 9.94111 12.7158 9.94297 12.7158 9.94484C12.7158 9.9467 12.7158 9.94857 12.7158 9.95044C12.7158 9.95231 12.7158 9.95418 12.7158 9.95606C12.7158 9.95794 12.7158 9.95982 12.7158 9.9617C12.7158 9.96359 12.7158 9.96548 12.7158 9.96737C12.7158 9.96926 12.7158 9.97115 12.7158 9.97305C12.7158 9.97494 12.7158 9.97684 12.7158 9.97875C12.7158 9.98065 12.7158 9.98256 12.7158 9.98447C12.7158 9.98638 12.7158 9.98829 12.7158 9.99021C12.7158 9.99212 12.7158 9.99404 12.7158 9.99597C12.7158 9.99789 12.7158 9.99981 12.7158 10.0017C12.7158 10.0037 12.7158 10.0056 12.7158 10.0075C12.7158 10.0095 12.7158 10.0114 12.7158 10.0134C12.7158 10.0153 12.7158 10.0172 12.7158 10.0192C12.7158 10.0211 12.7158 10.0231 12.7158 10.025C12.7158 10.027 12.7158 10.029 12.7158 10.0309C12.7158 10.0329 12.7158 10.0348 12.7158 10.0368C12.7158 10.0388 12.7158 10.0407 12.7158 10.0427C12.7158 10.0447 12.7158 10.0467 12.7158 10.0486C12.7158 10.0506 12.7158 10.0526 12.7158 10.0546C12.7158 10.0566 12.7158 10.0585 12.7158 10.0605C12.7158 10.0625 12.7158 10.0645 12.7158 10.0665C12.7158 10.0685 12.7158 10.0705 12.7158 10.0725C12.7158 10.0745 12.7158 10.0765 12.7158 10.0785C12.7158 10.0805 12.7158 10.0825 12.7158 10.0845C12.7158 10.0866 12.7158 10.0886 12.7158 10.0906C12.7158 10.0926 12.7158 10.0946 12.7158 10.0967C12.7158 10.0987 12.7158 10.1007 12.7158 10.1027C12.7158 10.1048 12.7158 10.1068 12.7158 10.1088C12.7158 10.1109 12.7158 10.1129 12.7158 10.115C12.7158 10.117 12.7158 10.119 12.7158 10.1211C12.7158 10.1231 12.7158 10.1252 12.7158 10.1272C12.7158 10.1293 12.7158 10.1313 12.7158 10.1334C12.7158 10.1355 12.7158 10.1375 12.7158 10.1396C12.7158 10.1416 12.7158 10.1437 12.7158 10.1458C12.7158 10.1478 12.7158 10.1499 12.7158 10.152C12.7158 10.1541 12.7158 10.1561 12.7158 10.1582C12.7158 10.1603 12.7158 10.1624 12.7158 10.1645C12.7158 10.1665 12.7158 10.1686 12.7158 10.1707C12.7158 10.1728 12.7158 10.1749 12.7158 10.177C12.7158 10.1791 12.7158 10.1812 12.7158 10.1833C12.7158 10.1854 12.7158 10.1875 12.7158 10.1896C12.7158 10.1917 12.7158 10.1938 12.7158 10.1959C12.7158 10.198 12.7158 10.2001 12.7158 10.2022C12.7158 10.2044 12.7158 10.2065 12.7158 10.2086C12.7158 10.2107 12.7158 10.2128 12.7158 10.215C12.7158 10.2171 12.7158 10.2192 12.7158 10.2213C12.7158 10.2235 12.7158 10.2256 12.7158 10.2277C12.7158 10.2299 12.7158 10.232 12.7158 10.2341C12.7158 10.2363 12.7158 10.2384 12.7158 10.2406C12.7158 10.2427 12.7158 10.2448 12.7158 10.247C12.7158 10.2491 12.7158 10.2513 12.7158 10.2534C12.7158 10.2556 12.7158 10.2578 12.7158 10.2599C12.7158 10.2621 12.7158 10.2642 12.7158 10.2664C12.7158 10.2685 12.7158 10.2707 12.7158 10.2729C12.7158 10.275 12.7158 10.2772 12.7158 10.2794C12.7158 10.2816 12.7158 10.2837 12.7158 10.2859C12.7158 10.2881 12.7158 10.2903 12.7158 10.2924C12.7158 10.2946 12.7158 10.2968 12.7158 10.299C12.7158 10.3012 12.7158 10.3034 12.7158 10.3055C12.7158 10.3077 12.7158 10.3099 12.7158 10.3121C12.7158 10.3143 12.7158 10.3165 12.7158 10.3187C12.7158 10.3209 12.7158 10.3231 12.7158 10.3253C12.7158 10.3275 12.7158 10.3297 12.7158 10.3319C12.7158 10.3341 12.7158 10.3363 12.7158 10.3385C12.7158 10.3407 12.7158 10.3429 12.7158 10.3452C12.7158 10.3474 12.7158 10.3496 12.7158 10.3518C12.7158 10.354 12.7158 10.3562 12.7158 10.3585C12.7158 10.3607 12.7158 10.3629 12.7158 10.3651C12.7158 10.3674 12.7158 10.3696 12.7158 10.3718C12.7158 10.374 12.7158 10.3763 12.7158 10.3785C12.7158 10.3807 12.7158 10.383 12.7158 10.3852C12.7158 10.3875 12.7158 10.3897 12.7158 10.3919C12.7158 10.3942 12.7158 10.3964 12.7158 10.3987C12.7158 10.4009 12.7158 10.4032 12.7158 10.4054C12.7158 10.4077 12.7158 10.4099 12.7158 10.4122C12.7158 10.4144 12.7158 10.4167 12.7158 10.4189C12.7158 10.4212 12.7158 10.4234 12.7158 10.4257C12.7158 10.4279 12.7158 10.4302 12.7158 10.4325C12.7158 10.4347 12.7158 10.437 12.7158 10.4393C12.7158 10.4415 12.7158 10.4438 12.7158 10.4461C12.7158 10.4483 12.7158 10.4506 12.7158 10.4529C12.7158 10.4552 12.7158 10.4574 12.7158 10.4597C12.7158 10.462 12.7158 10.4643 12.7158 10.4665C12.7158 10.4688 12.7158 10.4711 12.7158 10.4734C12.7158 10.4757 12.7158 10.478 12.7158 10.4803C12.7158 10.4825 12.7158 10.4848 12.7158 10.4871C12.7158 10.4894 12.7158 10.4917 12.7158 10.494C12.7158 10.4963 12.7158 10.4986 12.7158 10.5009C12.7158 10.5032 12.7158 10.5055 12.7158 10.5078C12.7158 10.5101 12.7158 10.5124 12.7158 10.5147C12.7158 10.517 12.7158 10.5193 12.7158 10.5216C12.7158 10.5239 12.7158 10.5262 12.7158 10.5285C12.7158 10.5308 12.7158 10.5331 12.7158 10.5354C12.7158 10.5378 12.7158 10.5401 12.7158 10.5424C12.7158 10.5447 12.7158 10.547 12.7158 10.5493C12.7158 10.5516 12.7158 10.554 12.7158 10.5563C12.7158 10.5586 12.7158 10.5609 12.7158 10.5633C12.7158 10.5656 12.7158 10.5679 12.7158 10.5702C12.7158 10.5726 12.7158 10.5749 12.7158 10.5772C12.7158 10.5795 12.7158 10.5819 12.7158 10.5842C12.7158 10.5865 12.7158 10.5889 12.7158 10.5912C12.7158 10.5935 12.7158 10.5959 12.7158 10.5982C12.7158 10.6005 12.7158 10.6029 12.7158 10.6052C12.7158 10.6076 12.7158 10.6099 12.7158 10.6122C12.7158 10.6146 12.7158 10.6169 12.7158 10.6193C12.7158 10.6216 12.7158 10.624 12.7158 10.6263C12.7158 10.6287 12.7158 10.631 12.7158 10.6333C12.7158 10.6357 12.7158 10.638 12.7158 10.6404C12.7158 10.6428 12.7158 10.6451 12.7158 10.6475C12.7158 10.6498 12.7158 10.6522 12.7158 10.6545C12.7158 10.6569 12.7158 10.6592 12.7158 10.6616C12.7158 10.664 12.7158 10.6663 12.7158 10.6687C12.7158 10.671 12.7158 10.6734 12.7158 10.6758C12.7158 10.6781 12.7158 10.6805 12.7158 10.6828C12.7158 10.6852 12.7158 10.6876 12.7158 10.6899C12.7158 10.6923 12.7158 10.6947 12.7158 10.6971C12.7158 10.6994 12.7158 10.7018 12.7158 10.7042C12.7158 10.7065 12.7158 10.7089 12.7158 10.7113C12.7158 10.7137 12.7158 10.716 12.7158 10.7184C12.7158 10.7208 12.7158 10.7232 12.7158 10.7255C12.7158 10.7279 12.7158 10.7303 12.7158 10.7327C12.7158 10.735 12.7158 10.7374 12.7158 10.7398C12.7158 10.7422 12.7158 10.7446 12.7158 10.7469C12.7158 10.7493 12.7158 10.7517 12.7158 10.7541C12.7158 10.7565 12.7158 10.7589 12.7158 10.7612C12.7158 10.7636 12.7158 10.766 12.7158 10.7684C12.7158 10.7708 12.7158 10.7732 12.7158 10.7756C12.7158 10.778 12.7158 10.7804 12.7158 10.7827C12.7158 10.7851 12.7158 10.7875 12.7158 10.7899C12.7158 10.7923 12.7158 10.7947 12.7158 10.7971C12.7158 10.7995 12.7158 10.8019 12.7158 10.8043C12.7158 10.8067 12.7158 10.8091 12.7158 10.8115C12.7158 10.8139 12.7158 10.8163 12.7158 10.8187C12.7158 10.8211 12.7158 10.8235 12.7158 10.8259C12.7158 10.8283 12.7158 10.8307 12.7158 10.8331C12.7158 10.8355 12.7158 10.8379 12.7158 10.8403C12.7158 10.8427 12.7158 10.8451 12.7158 10.8475C12.7158 10.8499 12.7158 10.8523 12.7158 10.8547C12.7158 10.8571 12.7158 10.8595 12.7158 10.8619C12.7158 10.8643 12.7158 10.8667 12.7158 10.8691C12.7158 10.8715 12.7158 10.8739 12.7158 10.8763C12.7158 10.8787 12.7158 10.8811 12.7158 10.8835C12.7158 10.886 12.7158 10.8884 12.7158 10.8908C12.7158 10.8932 12.7158 10.8956 12.7158 10.898C12.7158 10.9004 12.7158 10.9028 12.7158 10.9052C12.7158 10.9076 12.7158 10.9101 12.7158 10.9125C12.7158 10.9149 12.7158 10.9173 12.7158 10.9197C12.7158 10.9221 12.7158 10.9245 12.7158 10.9269C12.7158 10.9294 12.7158 10.9318 12.7158 10.9342C12.7158 10.9366 12.7158 10.939 12.7158 10.9414C12.7158 10.9438 12.7158 10.9463 12.7158 10.9487C12.7158 10.9511 12.7158 10.9535 12.7158 10.9559C12.7158 10.9583 12.7158 10.9608 12.7158 10.9632C12.7158 10.9656 12.7158 10.968 12.7158 10.9704C12.7158 10.9728 12.7158 10.9753 12.7158 10.9777C12.7158 10.9801 12.7158 10.9825 12.7158 10.9849C12.7158 10.9873 12.7158 10.9898 12.7158 10.9922C12.7158 10.9946 12.7158 10.997 12.7158 10.9994C12.7158 11.0019 12.7158 11.0043 12.7158 11.0067C12.7158 11.0091 12.7158 11.0115 12.7158 11.014C12.7158 11.0164 12.7158 11.0188 12.7158 11.0212C12.7158 11.0236 12.7158 11.0261 12.7158 11.0285C12.7158 11.0309 12.7158 11.0333 12.7158 11.0357C12.7158 11.0382 12.7158 11.0406 12.7158 11.043C12.7158 11.0454 12.7158 11.0478 12.7158 11.0503C12.7158 11.0527 12.7158 11.0551 12.7158 11.0575C12.7158 11.0599 12.7158 11.0624 12.7158 11.0648C12.7158 11.0672 12.7158 11.0696 12.7158 11.072C12.7158 11.0745 12.7158 11.0769 12.7158 11.0793C12.7158 11.0817 12.7158 11.0841 12.7158 11.0866C12.7158 11.089 12.7158 11.0914 12.7158 11.0938C12.7158 11.0962 12.7158 11.0987 12.7158 11.1011C12.7158 11.1035 12.7158 11.1059 12.7158 11.1083C12.7158 11.1108 12.7158 11.1132 12.7158 11.1156C12.7158 11.118 12.7158 11.1204 12.7158 11.1229C12.7158 11.1253 12.7158 11.1277 12.7158 11.1301C12.7158 11.1325 12.7158 11.135 12.7158 11.1374C12.7158 11.1398 12.7158 11.1422 12.7158 11.1446C12.7158 11.147 12.7158 11.1495 12.7158 11.1519C12.7158 11.1543 12.7158 11.1567 12.7158 11.1591C12.7158 11.1616 12.7158 11.164 12.7158 11.1664C12.7158 11.1688 12.7158 11.1712 12.7158 11.1736C12.7158 11.1761 12.7158 11.1785 12.7158 11.1809C12.7158 11.1833 12.7158 11.1857 12.7158 11.1881C12.7158 11.1905 12.7158 11.193 12.7158 11.1954C12.7158 11.1978 12.7158 11.2002 12.7158 11.2026C12.7158 11.205 12.7158 11.2074 12.7158 11.2098C12.7158 11.2123 12.7158 11.2147 12.7158 11.2171C12.7158 11.2195 12.7158 11.2219 12.7158 11.2243C12.7158 11.2267 12.7158 11.2291 12.7158 11.2315C12.7158 11.234 12.7158 11.2364 12.7158 11.2388C12.7158 11.2412 12.7158 11.2436 12.7158 11.246C12.7158 11.2484 12.7158 11.2508 12.7158 11.2532C12.7158 11.2556 12.7158 11.258 12.7158 11.2604C12.7158 11.2628 12.7158 11.2652 12.7158 11.2677C12.7158 11.2701 12.7158 11.2725 12.7158 11.2749C12.7158 11.2773 12.7158 11.2797 12.7158 11.2821C12.7158 11.2845 12.7158 11.2869 12.7158 11.2893C12.7158 11.2917 12.7158 11.2941 12.7158 11.2965C12.7158 11.2989 12.7158 11.3013 12.7158 11.3037C12.7158 11.3061 12.7158 11.3085 12.7158 11.3109C12.7158 11.3133 12.7158 11.3157 12.7158 11.3181C12.7158 11.3205 12.7158 11.3228 12.7158 11.3252C12.7158 11.3276 12.7158 11.33 12.7158 11.3324C12.7158 11.3348 12.7158 11.3372 12.7158 11.3396C12.7158 11.342 12.7158 11.3444 12.7158 11.3468C12.7158 11.3492 12.7158 11.3515 12.7158 11.3539C12.7158 11.3563 12.7158 11.3587 12.7158 11.3611C12.7158 11.3635 12.7158 11.3659 12.7158 11.3683C12.7158 11.3706 12.7158 11.373 12.7158 11.3754C12.7158 11.3778 12.7158 11.3802 12.7158 11.3825C12.7158 11.3849 12.7158 11.3873 12.7158 11.3897C12.7158 11.3921 12.7158 11.3944 12.7158 11.3968C12.7158 11.3992 12.7158 11.4016 12.7158 11.404C12.7158 11.4063 12.7158 11.4087 12.7158 11.4111C12.7158 11.4135 12.7158 11.4158 12.7158 11.4182C12.7158 11.4206 12.7158 11.4229 12.7158 11.4253C12.7158 11.4277 12.7158 11.43 12.7158 11.4324C12.7158 11.4348 12.7158 11.4372 12.7158 11.4395C12.7158 11.4419 12.7158 11.4442 12.7158 11.4466C12.7158 11.449 12.7158 11.4513 12.7158 11.4537C12.7158 11.4561 12.7158 11.4584 12.7158 11.4608C12.7158 11.4631 12.7158 11.4655 12.7158 11.4679C12.7158 11.4702 12.7158 11.4726 12.7158 11.4749C12.7158 11.4773 12.7158 11.4796 12.7158 11.482C12.7158 11.4843 12.7158 11.4867 12.7158 11.489C12.7158 11.4914 12.7158 11.4937 12.7158 11.4961C12.7158 11.4984 12.7158 11.5008 12.7158 11.5031C12.7158 11.5055 12.7158 11.5078 12.7158 11.5102C12.7158 11.5125 12.7158 11.5148 12.7158 11.5172C12.7158 11.5195 12.7158 11.5219 12.7158 11.5242C12.7158 11.5265 12.7158 11.5289 12.7158 11.5312C12.7158 11.5335 12.7158 11.5359 12.7158 11.5382C12.7158 11.5405 12.7158 11.5429 12.7158 11.5452C12.7158 11.5475 12.7158 11.5499 12.7158 11.5522C12.7158 11.5545 12.7158 11.5568 12.7158 11.5592C12.7158 11.5615 12.7158 11.5638 12.7158 11.5661C12.7158 11.5685 12.7158 11.5708 12.7158 11.5731C12.7158 11.5754 12.7158 11.5777 12.7158 11.58C12.7158 11.5824 12.7158 11.5847 12.7158 11.587C12.7158 11.5893 12.7158 11.5916 12.7158 11.5939C12.7158 11.5962 12.7158 11.5985 12.7158 11.6008C12.7158 11.6032 12.7158 11.6055 12.7158 11.6078C12.7158 11.6101 12.7158 11.6124 12.7158 11.6147C12.7158 11.617 12.7158 11.6193 12.7158 11.6216C12.7158 11.6239 12.7158 11.6262 12.7158 11.6285C12.7158 11.6307 12.7158 11.633 12.7158 11.6353C12.7158 11.6376 12.7158 11.6399 12.7158 11.6422C12.7158 11.6445 12.7158 11.6468 12.7158 11.6491C12.7158 11.6513 12.7158 11.6536 12.7158 11.6559C12.7158 11.6582 12.7158 11.6605 12.7158 11.6628C12.7158 11.665 12.7158 11.6673 12.7158 11.6696C12.7158 11.6719 12.7158 11.6741 12.7158 11.6764C12.7158 11.6787 12.7158 11.6809 12.7158 11.6832C12.7158 11.6855 12.7158 11.6877 12.7158 11.69C12.7158 11.6923 12.7158 11.6945 12.7158 11.6968C12.7158 11.6991 12.7158 11.7013 12.7158 11.7036C12.7158 11.7058 12.7158 11.7081 12.7158 11.7103C12.7158 11.7126 12.7158 11.7148 12.7158 11.7171C12.7158 11.7193 12.7158 11.7216 12.7158 11.7238C12.7158 11.7261 12.7158 11.7283 12.7158 11.7306C12.7158 11.7328 12.7158 11.7351 12.7158 11.7373C12.7158 11.7395 12.7158 11.7418 12.7158 11.744C12.7158 11.7462 12.7158 11.7485 12.7158 11.7507C12.7158 11.7529 12.7158 11.7552 12.7158 11.7574C12.7158 11.7596 12.7158 11.7618 12.7158 11.7641C12.7158 11.7663 12.7158 11.7685 12.7158 11.7707C12.7158 11.7729 12.7158 11.7752 12.7158 11.7774C12.7158 11.7796 12.7158 11.7818 12.7158 11.784C12.7158 11.7862 12.7158 11.7884 12.7158 11.7906C12.7158 11.7928 12.7158 11.7951 12.7158 11.7973C12.7158 11.7995 12.7158 11.8017 12.7158 11.8039C12.7158 11.8061 12.7158 11.8083 12.7158 11.8104C12.7158 11.8126 12.7158 11.8148 12.7158 11.817C12.7158 11.8192 12.7158 11.8214 12.7158 11.8236C12.7158 11.8258 12.7158 11.828 12.7158 11.8301C12.7158 11.8323 12.7158 11.8345 12.7158 11.8367C12.7158 11.8388 12.7158 11.841 12.7158 11.8432C12.7158 11.8454 12.7158 11.8475 12.7158 11.8497C12.7158 11.8519 12.7158 11.854 12.7158 11.8562C12.7158 11.8584 12.7158 11.8605 12.7158 11.8627C12.7158 11.8648 12.7158 11.867 12.7158 11.8692C12.7158 11.8713 12.7158 11.8735 12.7158 11.8756C12.7158 11.8778 12.7158 11.8799 12.7158 11.8821C12.7158 11.8842 12.7158 11.8863 12.7158 11.8885C12.7158 11.8906 12.7158 11.8928 12.7158 11.8949C12.7158 11.897 12.7158 11.8992 12.7158 11.9013C12.7158 11.9034 12.7158 11.9056 12.7158 11.9077C12.7158 11.9098 12.7158 11.9119 12.7158 11.914C12.7158 11.9162 12.7158 11.9183 12.7158 11.9204C12.7158 11.9225 12.7158 11.9246 12.7158 11.9267C12.7158 11.9289 12.7158 11.931 12.7158 11.9331C12.7158 11.9352 12.7158 11.9373 12.7158 11.9394C12.7158 11.9415 12.7158 11.9436 12.7158 11.9457C12.7158 11.9478 12.7158 11.9499 12.7158 11.952C12.7158 11.954 12.7158 11.9561 12.7158 11.9582C12.7158 11.9603 12.7158 11.9624 12.7158 11.9645C12.7158 11.9666 12.7158 11.9686 12.7158 11.9707C12.7158 11.9728 12.7158 11.9749 12.7158 11.9769C12.7158 11.979 12.7158 11.9811 12.7158 11.9831C12.7158 11.9852 12.7158 11.9873 12.7158 11.9893C12.7158 11.9914 12.7158 11.9934 12.7158 11.9955C12.7158 11.9975 12.7158 11.9996 12.7158 12.0016C12.7158 12.0037 12.7158 12.0057 12.7158 12.0078C12.7158 12.0098 12.7158 12.0119 12.7158 12.0139C12.7158 12.0159 12.7158 12.018 12.7158 12.02C12.7158 12.022 12.7158 12.0241 12.7158 12.0261C12.7158 12.0281 12.7158 12.0301 12.7158 12.0322C12.7158 12.0342 12.7158 12.0362 12.7158 12.0382C12.7158 12.0402 12.7158 12.0422 12.7158 12.0442C12.7158 12.0463 12.7158 12.0483 12.7158 12.0503C12.7158 12.0523 12.7158 12.0543 12.7158 12.0563C12.7158 12.0583 12.7158 12.0603 12.7158 12.0622C12.7158 12.0642 12.7158 12.0662 12.7158 12.0682C12.7158 12.0702 12.7158 12.0722 12.7158 12.0742C12.7158 12.0761 12.7158 12.0781 12.7158 12.0801C12.7158 12.0821 12.7158 12.084 12.7158 12.086C12.7158 12.088 12.7158 12.0899 12.7158 12.0919C12.7158 12.0939 12.7158 12.0958 12.7158 12.0978C12.7158 12.0997 12.7158 12.1017 12.7158 12.1036C12.7158 12.1056 12.7158 12.1075 12.7158 12.1095C12.7158 12.1114 12.7158 12.1134 12.7158 12.1153C12.7158 12.1172 12.7158 12.1192 12.7158 12.1211C12.7158 12.123 12.7158 12.125 12.7158 12.1269C12.7158 12.1288 12.7158 12.1307 12.7158 12.1327C12.7158 12.1346 12.7158 12.1365 12.7158 12.1384C12.7158 12.1403 12.7158 12.1422 12.7158 12.1441C12.7158 12.146 12.7158 12.1479 12.7158 12.1498C12.7158 12.1517 12.7158 12.1536 12.7158 12.1555C12.7158 12.1574 12.7158 12.1593 12.7158 12.1612C12.7158 12.1631 12.7158 12.165 12.7158 12.1668H13.2158ZM13.2158 9.37934L13.4394 8.93213L12.281 8.35295L12.0574 8.80016L11.8338 9.24738L12.9922 9.82655L13.2158 9.37934ZM9.37414 8.80016L9.59775 9.24738C10.3016 8.89547 11.13 8.89547 11.8338 9.24738L12.0574 8.80016L12.281 8.35295C11.2957 7.86028 10.1359 7.86027 9.15053 8.35295L9.37414 8.80016ZM10.7629 5.66665V5.16665H2.71532V5.66665V6.16665H10.7629V5.66665Z" fill="#535862"/>
</svg>
