<svg width="21" height="20" viewBox="0 0 21 20" fill="none" xmlns="http://www.w3.org/2000/svg">
<path d="M17.8887 10.5C18.1648 10.5 18.3887 10.2761 18.3887 10C18.3887 9.72386 18.1648 9.5 17.8887 9.5V10.5ZM18.3574 10H17.8574C17.8574 13.866 14.7234 17 10.8574 17V17.5V18C15.2757 18 18.8574 14.4183 18.8574 10H18.3574ZM10.8574 17.5V17C6.99143 17 3.85742 13.866 3.85742 10H3.35742H2.85742C2.85742 14.4183 6.43914 18 10.8574 18V17.5ZM3.35742 10H3.85742C3.85742 6.13401 6.99143 3 10.8574 3V2.5V2C6.43914 2 2.85742 5.58172 2.85742 10H3.35742ZM10.8574 2.5V3C14.7234 3 17.8574 6.13401 17.8574 10H18.3574H18.8574C18.8574 5.58172 15.2757 2 10.8574 2V2.5ZM10.8574 17.5V17C10.5698 17 10.2564 16.8689 9.92774 16.5511C9.59668 16.2311 9.27571 15.7438 8.99531 15.1029C8.43515 13.8225 8.07617 12.0188 8.07617 10H7.57617H7.07617C7.07617 12.1234 7.45172 14.0696 8.07915 15.5037C8.39254 16.22 8.77861 16.8311 9.23268 17.2701C9.68915 17.7114 10.2389 18 10.8574 18V17.5ZM7.57617 10H8.07617C8.07617 7.98121 8.43515 6.17746 8.99531 4.89711C9.27571 4.25619 9.59668 3.76892 9.92774 3.44886C10.2564 3.13113 10.5698 3 10.8574 3V2.5V2C10.2389 2 9.68915 2.2886 9.23268 2.72991C8.77861 3.16889 8.39254 3.77997 8.07915 4.49629C7.45172 5.93041 7.07617 7.87665 7.07617 10H7.57617ZM10.8574 17.5V18C11.4759 18 12.0257 17.7114 12.4822 17.2701C12.9362 16.8311 13.3223 16.22 13.6357 15.5037C14.2631 14.0696 14.6387 12.1234 14.6387 10H14.1387H13.6387C13.6387 12.0188 13.2797 13.8225 12.7195 15.1029C12.4391 15.7438 12.1182 16.2311 11.7871 16.5511C11.4584 16.8689 11.145 17 10.8574 17V17.5ZM14.1387 10H14.6387C14.6387 7.87665 14.2631 5.93041 13.6357 4.49629C13.3223 3.77997 12.9362 3.16889 12.4822 2.72991C12.0257 2.2886 11.4759 2 10.8574 2V2.5V3C11.145 3 11.4584 3.13113 11.7871 3.44886C12.1182 3.76892 12.4391 4.25619 12.7195 4.89711C13.2797 6.17746 13.6387 7.98121 13.6387 10H14.1387ZM3.35742 10L3.35742 10.5L17.8887 10.5V10V9.5L3.35742 9.5L3.35742 10Z" fill="#535862"/>
</svg>
