<svg width="20" height="20" viewBox="0 0 20 20" fill="none" xmlns="http://www.w3.org/2000/svg">
<path d="M15.3723 15.2116L15.118 14.781L15.3723 15.2116ZM15.7819 14.494H15.2819H15.7819ZM9.13743 17.8363L8.8692 18.2582L9.13743 17.8363ZM10.879 17.8648L11.1332 18.2954L10.879 17.8648ZM1.58618 6.78066L1.33021 6.35114L1.58618 6.78066ZM1.58618 7.49652L1.33021 7.92603H1.33021L1.58618 7.49652ZM10.426 12.2561L10.682 12.6856L10.426 12.2561ZM9.57283 12.2561L9.82879 11.8266L9.57283 12.2561ZM18.4127 6.78066L18.6687 6.35114L18.4127 6.78066ZM18.4127 7.49652L18.1567 7.067L18.4127 7.49652ZM5.01408 15.2152L5.28231 14.7933L5.01408 15.2152ZM10.426 2.0211L10.1701 2.45062V2.45062L10.426 2.0211ZM9.57283 2.0211L9.82879 2.45062L9.57283 2.0211ZM18.9994 7.12472C18.9994 6.84857 18.7756 6.62472 18.4994 6.62472C18.2233 6.62472 17.9994 6.84857 17.9994 7.12472H18.9994ZM17.9994 11.6247C17.9994 11.9009 18.2233 12.1247 18.4994 12.1247C18.7756 12.1247 18.9994 11.9009 18.9994 11.6247H17.9994ZM10.426 2.0211L10.1701 2.45062L18.1567 7.21017L18.4127 6.78066L18.6687 6.35114L10.682 1.59159L10.426 2.0211ZM18.4127 7.49652L18.1567 7.067L10.1701 11.8266L10.426 12.2561L10.682 12.6856L18.6687 7.92603L18.4127 7.49652ZM1.58618 6.78066L1.84214 7.21017L9.82879 2.45062L9.57283 2.0211L9.31686 1.59159L1.33021 6.35114L1.58618 6.78066ZM9.57283 12.2561L9.82879 11.8266L4.88375 8.87962L4.62779 9.30913L4.37183 9.73865L9.31686 12.6856L9.57283 12.2561ZM4.62779 9.30913L4.88375 8.87962L1.84214 7.067L1.58618 7.49652L1.33021 7.92603L4.37183 9.73865L4.62779 9.30913ZM4.62779 9.30913H4.12779V14.5119H4.62779H5.12779V9.30913H4.62779ZM5.01408 15.2152L4.74586 15.6372L8.8692 18.2582L9.13743 17.8363L9.40565 17.4143L5.28231 14.7933L5.01408 15.2152ZM10.879 17.8648L11.1332 18.2954L15.6265 15.6421L15.3723 15.2116L15.118 14.781L10.6247 17.4343L10.879 17.8648ZM15.7819 14.494H16.2819L16.2819 9.30913L15.7819 9.30913H15.2819L15.2819 14.494H15.7819ZM15.3723 15.2116L15.6265 15.6421C16.0327 15.4023 16.2819 14.9657 16.2819 14.494H15.7819H15.2819C15.2819 14.6119 15.2196 14.7211 15.118 14.781L15.3723 15.2116ZM9.13743 17.8363L8.8692 18.2582C9.55684 18.6953 10.4316 18.7097 11.1332 18.2954L10.879 17.8648L10.6247 17.4343C10.2469 17.6574 9.77592 17.6497 9.40565 17.4143L9.13743 17.8363ZM1.58618 6.78066L1.33021 6.35114C0.733678 6.70664 0.733681 7.57053 1.33021 7.92603L1.58618 7.49652L1.84214 7.067C1.89637 7.09932 1.89637 7.17785 1.84214 7.21017L1.58618 6.78066ZM10.426 12.2561L10.1701 11.8266C10.0649 11.8892 9.93393 11.8892 9.82879 11.8266L9.57283 12.2561L9.31686 12.6856C9.7374 12.9362 10.2615 12.9362 10.682 12.6856L10.426 12.2561ZM18.4127 6.78066L18.1567 7.21017C18.1025 7.17786 18.1025 7.09932 18.1567 7.067L18.4127 7.49652L18.6687 7.92603C19.2652 7.57053 19.2652 6.70664 18.6687 6.35114L18.4127 6.78066ZM4.62779 14.5119H4.12779C4.12779 14.9681 4.36093 15.3925 4.74586 15.6372L5.01408 15.2152L5.28231 14.7933C5.18608 14.7321 5.12779 14.626 5.12779 14.5119H4.62779ZM10.426 2.0211L10.682 1.59159C10.2615 1.34097 9.7374 1.34097 9.31686 1.59159L9.57283 2.0211L9.82879 2.45062C9.93393 2.38796 10.0649 2.38796 10.1701 2.45062L10.426 2.0211ZM18.4994 7.12472H17.9994V11.6247H18.4994H18.9994V7.12472H18.4994Z" fill="#535862"/>
</svg>
