<svg width="21" height="20" viewBox="0 0 21 20" fill="none" xmlns="http://www.w3.org/2000/svg">
<path d="M7.81203 10.6894L7.48881 10.3079L7.4888 10.3079L7.81203 10.6894ZM7.85328 10.6499L7.49704 10.2991L7.49665 10.2995L7.85328 10.6499ZM6.11757 12.1251L5.79434 11.7436L5.79434 11.7436L6.11757 12.1251ZM6.02475 12.2229L6.43515 12.5085L6.43516 12.5085L6.02475 12.2229ZM15.0196 10.7494L14.6733 11.1101V11.1101L15.0196 10.7494ZM13.5734 9.36106L13.2271 9.72176L13.2271 9.72176L13.5734 9.36106ZM13.0363 9.35729L12.6952 8.99176L12.6939 8.99294L13.0363 9.35729ZM10.3576 11.8749L10.6988 12.2404L10.7001 12.2392L10.3576 11.8749ZM9.81232 11.863L9.45434 12.212L9.45505 12.2128L9.81232 11.863ZM9.80528 11.8557L9.44696 12.2045L9.4473 12.2048L9.80528 11.8557ZM9.76701 11.8186L10.0944 11.4406L10.0944 11.4406L9.76701 11.8186ZM8.46207 10.6883L8.78943 10.3103L8.78942 10.3103L8.46207 10.6883ZM8.42364 10.651L8.78208 10.3024L8.78174 10.302L8.42364 10.651ZM8.41676 10.6439L8.77486 10.295L8.77419 10.2943L8.41676 10.6439ZM7.8607 10.6424L7.50517 10.2908L7.50446 10.2915L7.8607 10.6424ZM13.9469 5.78109V5.28109C13.6708 5.28109 13.4469 5.50495 13.4469 5.78109H13.9469ZM14.215 5.78109H14.715C14.715 5.50495 14.4912 5.28109 14.215 5.28109V5.78109ZM14.215 6.00815V6.50815C14.4912 6.50815 14.715 6.28429 14.715 6.00815H14.215ZM13.9469 6.00815H13.4469C13.4469 6.28429 13.6708 6.50815 13.9469 6.50815V6.00815ZM3.07227 5.3125H2.57227V14.6875H3.07227H3.57227V5.3125H3.07227ZM5.88477 17.5V18H15.2598V17.5V17H5.88477V17.5ZM18.0723 14.6875H18.5723V5.3125H18.0723H17.5723V14.6875H18.0723ZM15.2598 2.5V2H5.88477V2.5V3H15.2598V2.5ZM18.0723 5.3125H18.5723C18.5723 3.48306 17.0892 2 15.2598 2V2.5V3C16.5369 3 17.5723 4.03534 17.5723 5.3125H18.0723ZM15.2598 17.5V18C17.0892 18 18.5723 16.5169 18.5723 14.6875H18.0723H17.5723C17.5723 15.9647 16.5369 17 15.2598 17V17.5ZM3.07227 14.6875H2.57227C2.57227 16.5169 4.05532 18 5.88477 18V17.5V17C4.60761 17 3.57227 15.9647 3.57227 14.6875H3.07227ZM3.07227 5.3125H3.57227C3.57227 4.03534 4.60761 3 5.88477 3V2.5V2C4.05532 2 2.57227 3.48306 2.57227 5.3125H3.07227ZM7.81203 10.6894L8.13525 11.0709C8.1701 11.0414 8.19926 11.0112 8.20992 11.0003L7.85328 10.6499L7.49665 10.2995C7.49315 10.303 7.4908 10.3054 7.48861 10.3076C7.48654 10.3097 7.48528 10.3109 7.48453 10.3117C7.48292 10.3132 7.48469 10.3114 7.48881 10.3079L7.81203 10.6894ZM6.11757 12.1251L6.4408 12.5066L8.13525 11.0709L7.81203 10.6894L7.4888 10.3079L5.79434 11.7436L6.11757 12.1251ZM6.02475 12.2229L6.43516 12.5085C6.42962 12.5164 6.42594 12.5201 6.42673 12.5193C6.42768 12.5183 6.43157 12.5144 6.4408 12.5066L6.11757 12.1251L5.79434 11.7436C5.74557 11.785 5.67582 11.8489 5.61434 11.9373L6.02475 12.2229ZM5.88477 12.6691H6.38477C6.38477 12.6115 6.40246 12.5554 6.43515 12.5085L6.02475 12.2229L5.61435 11.9373C5.46539 12.1513 5.38477 12.4066 5.38477 12.6691H5.88477ZM5.88477 14.2969H6.38477V12.6691H5.88477H5.38477V14.2969H5.88477ZM6.27539 14.6875V14.1875C6.3358 14.1875 6.38477 14.2365 6.38477 14.2969H5.88477H5.38477C5.38477 14.7888 5.78351 15.1875 6.27539 15.1875V14.6875ZM14.8691 14.6875V14.1875H6.27539V14.6875V15.1875H14.8691V14.6875ZM15.2598 14.2969H14.7598C14.7598 14.2365 14.8087 14.1875 14.8691 14.1875V14.6875V15.1875C15.361 15.1875 15.7598 14.7888 15.7598 14.2969H15.2598ZM15.2598 11.313H14.7598V14.2969H15.2598H15.7598V11.313H15.2598ZM15.0196 10.7494L14.6733 11.1101C14.7285 11.1631 14.7598 11.2364 14.7598 11.313H15.2598H15.7598C15.7598 10.9641 15.6175 10.6303 15.3658 10.3887L15.0196 10.7494ZM13.5734 9.36106L13.2271 9.72176L14.6733 11.1101L15.0196 10.7494L15.3658 10.3887L13.9196 9.00037L13.5734 9.36106ZM13.0363 9.35729L13.3775 9.72281C13.335 9.76244 13.269 9.76197 13.2271 9.72176L13.5734 9.36106L13.9196 9.00037C13.5785 8.67287 13.0409 8.66909 12.6952 8.99176L13.0363 9.35729ZM10.3576 11.8749L10.7001 12.2392L13.3788 9.72163L13.0363 9.35729L12.6939 8.99294L10.0152 11.5105L10.3576 11.8749ZM9.81232 11.863L9.45505 12.2128C9.79018 12.555 10.3424 12.573 10.6988 12.2404L10.3576 11.8749L10.0165 11.5093C10.0604 11.4683 10.1281 11.4707 10.1696 11.5132L9.81232 11.863ZM9.80528 11.8557L9.4473 12.2048L9.45434 12.212L9.81232 11.863L10.1703 11.5139L10.1633 11.5067L9.80528 11.8557ZM9.76701 11.8186L9.43965 12.1965C9.43583 12.1932 9.43419 12.1915 9.4357 12.193C9.4364 12.1937 9.43756 12.1948 9.43949 12.1968C9.44153 12.1989 9.44371 12.2011 9.44696 12.2045L9.80528 11.8557L10.1636 11.507C10.1537 11.4969 10.1266 11.4686 10.0944 11.4406L9.76701 11.8186ZM8.46207 10.6883L8.13471 11.0662L9.43965 12.1965L9.76701 11.8186L10.0944 11.4406L8.78943 10.3103L8.46207 10.6883ZM8.42364 10.651L8.06519 10.9995C8.07514 11.0098 8.10234 11.0382 8.13471 11.0662L8.46207 10.6883L8.78942 10.3103C8.79324 10.3137 8.79489 10.3154 8.79338 10.3139C8.79268 10.3132 8.79151 10.312 8.78958 10.31C8.78753 10.308 8.78535 10.3057 8.78208 10.3024L8.42364 10.651ZM8.41676 10.6439L8.05865 10.9928L8.06553 10.9999L8.42364 10.651L8.78174 10.302L8.77486 10.295L8.41676 10.6439ZM7.8607 10.6424L8.21623 10.9939C8.17259 11.0381 8.10279 11.038 8.05933 10.9935L8.41676 10.6439L8.77419 10.2943C8.42665 9.93897 7.85418 9.93785 7.50517 10.2908L7.8607 10.6424ZM7.85328 10.6499L8.20953 11.0007L8.21694 10.9932L7.8607 10.6424L7.50446 10.2915L7.49704 10.2991L7.85328 10.6499ZM13.9469 5.78109V6.28109H14.215V5.78109V5.28109H13.9469V5.78109ZM14.215 5.78109H13.715V6.00815H14.215H14.715V5.78109H14.215ZM14.215 6.00815V5.50815H13.9469V6.00815V6.50815H14.215V6.00815ZM13.9469 6.00815H14.4469V5.78109H13.9469H13.4469V6.00815H13.9469Z" fill="#535862"/>
</svg>
