<svg width="21" height="20" viewBox="0 0 21 20" fill="none" xmlns="http://www.w3.org/2000/svg">
<path d="M7.78516 2.5H4.45182C3.53135 2.5 2.78516 3.24619 2.78516 4.16667V7.5M7.78516 17.5H4.45182C3.53135 17.5 2.78516 16.7538 2.78516 15.8333V12.5M12.7852 2.5H16.1185C17.039 2.5 17.7852 3.24619 17.7852 4.16667V7.5M17.7852 12.5V15.8333C17.7852 16.7538 17.039 17.5 16.1185 17.5H12.7852M8.41016 12.8125H12.1602C12.6779 12.8125 13.0977 12.3928 13.0977 11.875V8.125C13.0977 7.60723 12.6779 7.1875 12.1602 7.1875H8.41016C7.89239 7.1875 7.47266 7.60723 7.47266 8.125V11.875C7.47266 12.3928 7.89239 12.8125 8.41016 12.8125Z" stroke="#535862" stroke-linecap="round"/>
</svg>
