<svg width="21" height="20" viewBox="0 0 21 20" fill="none" xmlns="http://www.w3.org/2000/svg">
<path d="M7.00691 8.49213L5.1457 10.3533C4.45059 11.0485 4.05086 11.9943 4.05816 12.9883C4.06547 13.9823 4.45645 14.9338 5.18455 15.6395C5.89012 16.3676 6.84189 16.7585 7.83574 16.7658C8.85226 16.7733 9.77568 16.3961 10.4708 15.701L12.332 13.8398M14.7094 11.5079L16.5706 9.64668C17.2657 8.95157 17.6654 8.00577 17.6581 7.01175C17.6508 6.01774 17.2599 5.06617 16.5318 4.36056C15.8264 3.65516 14.8747 3.26415 13.8807 3.25684C12.8867 3.24954 11.9408 3.62658 11.2456 4.32171L9.38443 6.18293M8.03574 12.7726L13.6194 7.18901" stroke="#535862" stroke-linecap="round" stroke-linejoin="round"/>
</svg>
