<svg width="21" height="20" viewBox="0 0 21 20" fill="none" xmlns="http://www.w3.org/2000/svg">
<path d="M15.1426 6.5C15.1426 9.26142 12.904 11.5 10.1426 11.5M15.1426 6.5C15.1426 3.73858 12.904 1.5 10.1426 1.5M15.1426 6.5H5.14258M10.1426 11.5C7.38115 11.5 5.14258 9.26142 5.14258 6.5M10.1426 11.5C11.2471 11.5 12.1426 9.26142 12.1426 6.5C12.1426 3.73858 11.2471 1.5 10.1426 1.5M10.1426 11.5C9.03801 11.5 8.14258 9.26142 8.14258 6.5C8.14258 3.73858 9.03801 1.5 10.1426 1.5M5.14258 6.5C5.14258 3.73858 7.38115 1.5 10.1426 1.5M12.1426 16.5C12.1426 17.6046 11.2471 18.5 10.1426 18.5C9.03801 18.5 8.14258 17.6046 8.14258 16.5M12.1426 16.5C12.1426 15.3954 11.2471 14.5 10.1426 14.5C9.03801 14.5 8.14258 15.3954 8.14258 16.5M12.1426 16.5H18.1426M8.14258 16.5H2.14258" stroke="#535862" stroke-linecap="round" stroke-linejoin="round"/>
</svg>
