<svg width="21" height="20" viewBox="0 0 21 20" fill="none" xmlns="http://www.w3.org/2000/svg">
<path d="M3.90625 5.3125C3.90625 3.7592 5.18544 2.5 6.76339 2.5H14.3824C15.9604 2.5 17.2396 3.7592 17.2396 5.3125V14.6875C17.2396 16.2408 15.9604 17.5 14.3824 17.5H6.76339C5.18544 17.5 3.90625 16.2408 3.90625 14.6875V5.3125Z" stroke="#535862" stroke-linejoin="round"/>
<path d="M10.6404 5.3125H10.5729V5.37256H10.6404V5.3125Z" stroke="#535862" stroke-linejoin="round"/>
<path d="M13.4301 11.875C13.4301 13.4283 12.1509 14.6875 10.5729 14.6875C8.99496 14.6875 7.71577 13.4283 7.71577 11.875C7.71577 10.3217 8.99496 9.0625 10.5729 9.0625C12.1509 9.0625 13.4301 10.3217 13.4301 11.875Z" stroke="#535862" stroke-linejoin="round"/>
</svg>
