<svg xmlns="http://www.w3.org/2000/svg" width="512" height="512" fill="none"><path fill="url(#a)" d="M512 256c0 141.387-114.613 256-256 256S0 397.387 0 256 114.613 0 256 0s256 114.613 256 256Z"/><path fill="#fff" d="M314.203 247.938c23.516-17.711 38.75-45.852 38.75-77.489 0-53.457-43.492-96.949-96.953-96.949-53.457 0-96.949 43.492-96.949 96.949 0 31.637 15.23 59.778 38.746 77.489C134.836 271.57 89.902 332.383 89.902 403.5h30c0-75.047 61.055-136.098 136.102-136.098 75.043 0 136.098 61.051 136.098 136.098h30c-.004-71.117-44.934-131.93-107.899-155.562Zm-125.152-77.489c0-36.918 30.031-66.949 66.949-66.949s66.949 30.031 66.949 66.949-30.031 66.953-66.949 66.953-66.949-30.035-66.949-66.953Z"/><defs><linearGradient id="a" x1="256" x2="256" y1="512" y2="0" gradientUnits="userSpaceOnUse"><stop stop-color="#35198E"/><stop offset="1" stop-color="#8D6AF1"/></linearGradient></defs></svg>