<svg xmlns="http://www.w3.org/2000/svg" width="512" height="512" fill="none"><circle cx="256" cy="256" r="256" fill="#fff"/><path fill="#7147E8" d="M372.366 276.948V213.4c0-30.899-12.26-60.533-34.084-82.382a116.298 116.298 0 0 0-82.284-34.124 116.298 116.298 0 0 0-82.285 34.124 116.573 116.573 0 0 0-34.084 82.382v63.548c0 30.899 12.26 60.533 34.084 82.382a116.298 116.298 0 0 0 82.285 34.123 116.297 116.297 0 0 0 82.284-34.123 116.573 116.573 0 0 0 34.084-82.382Zm-155.617 34.846a10.563 10.563 0 0 1 11.58-2.319 10.589 10.589 0 0 1 3.443 2.319 34.17 34.17 0 0 0 11.107 7.462 34.132 34.132 0 0 0 37.344-7.462 10.616 10.616 0 0 1 15.022 0 10.644 10.644 0 0 1 0 15.04c-36.709 36.328-95.845 2.33-78.496-15.04Z"/><path fill="#35198E" d="M425.263 192.215h-12.06A158.93 158.93 0 0 0 360.28 94.12 158.58 158.58 0 0 0 256 55a158.58 158.58 0 0 0-104.28 39.12 158.925 158.925 0 0 0-52.923 98.095h-12.06a31.718 31.718 0 0 0-22.441 9.307A31.792 31.792 0 0 0 55 223.99v63.548a31.79 31.79 0 0 0 9.296 22.467 31.714 31.714 0 0 0 22.44 9.307h31.738c2.805 0 5.496-1.116 7.48-3.102a10.6 10.6 0 0 0 3.099-7.489V202.807a10.6 10.6 0 0 0-2.478-6.948 10.576 10.576 0 0 0-6.409-3.644 137.735 137.735 0 0 1 46.516-83.161A137.432 137.432 0 0 1 256 76.064a137.432 137.432 0 0 1 89.318 32.99 137.735 137.735 0 0 1 46.516 83.161 10.58 10.58 0 0 0-6.409 3.644 10.6 10.6 0 0 0-2.478 6.948v105.914a10.6 10.6 0 0 0 3.099 7.489 10.572 10.572 0 0 0 7.48 3.102 116.585 116.585 0 0 1-26.904 74.539 116.34 116.34 0 0 1-68.306 40.06 26.604 26.604 0 0 0-6.481-20.919 26.563 26.563 0 0 0-9.02-6.629 26.52 26.52 0 0 0-10.946-2.32H250.71a26.425 26.425 0 0 0-18.7 7.756 26.496 26.496 0 0 0 0 37.446 26.432 26.432 0 0 0 18.7 7.755h26.448a137.45 137.45 0 0 0 97.246-40.328 137.77 137.77 0 0 0 40.28-97.36h10.579c8.417 0 16.49-3.347 22.442-9.307A31.793 31.793 0 0 0 457 287.538V223.99c0-8.427-3.344-16.51-9.295-22.468a31.72 31.72 0 0 0-22.442-9.307Z"/></svg>