<svg width="512" height="512" viewBox="0 0 512 512" fill="none" xmlns="http://www.w3.org/2000/svg">
<path d="M512 256C512 397.387 397.387 512 256 512C114.613 512 0 397.387 0 256C0 114.613 114.613 0 256 0C397.387 0 512 114.613 512 256Z" fill="url(#paint0_linear_11219_10541)"/>
<path d="M314.203 247.938C337.719 230.227 352.953 202.086 352.953 170.449C352.953 116.992 309.461 73.5 256 73.5C202.543 73.5 159.051 116.992 159.051 170.449C159.051 202.086 174.281 230.227 197.797 247.938C134.836 271.57 89.9023 332.383 89.9023 403.5H119.902C119.902 328.453 180.957 267.402 256.004 267.402C331.047 267.402 392.102 328.453 392.102 403.5H422.102C422.098 332.383 377.168 271.57 314.203 247.938ZM189.051 170.449C189.051 133.531 219.082 103.5 256 103.5C292.918 103.5 322.949 133.531 322.949 170.449C322.949 207.367 292.918 237.402 256 237.402C219.082 237.402 189.051 207.367 189.051 170.449Z" fill="white"/>
<defs>
<linearGradient id="paint0_linear_11219_10541" x1="256" y1="512" x2="256" y2="0" gradientUnits="userSpaceOnUse">
<stop stop-color="#35198E"/>
<stop offset="1" stop-color="#8D6AF1"/>
</linearGradient>
</defs>
</svg>
