<svg width="60" height="60" viewBox="0 0 60 60" fill="none" xmlns="http://www.w3.org/2000/svg">
<g clip-path="url(#clip0_13372_354168)">
<path fill-rule="evenodd" clip-rule="evenodd" d="M50.1904 9.47181L51.4551 11.1369C51.7871 11.5763 51.7041 12.2062 51.2646 12.5382L49.9219 13.5587C50.166 14.2081 50.3223 14.9015 50.3857 15.6095L51.9141 15.8195C52.4609 15.8927 52.8418 16.4005 52.7685 16.9474L52.4853 19.0226C52.4121 19.5695 51.9043 19.9552 51.3574 19.8771L49.6875 19.6476C49.3896 20.297 49.0088 20.8927 48.5596 21.4249L49.4971 22.6554C49.8291 23.0949 49.7412 23.7247 49.3017 24.0568L47.6367 25.3214C47.1973 25.6535 46.5674 25.5656 46.2353 25.131L45.2148 23.7882C44.5605 24.0324 43.8721 24.1886 43.1592 24.2521L42.9492 25.7804C42.876 26.3273 42.3682 26.7081 41.8213 26.6349L39.7461 26.3517C39.1992 26.2785 38.8183 25.7706 38.8916 25.2238L39.1211 23.5538C38.4766 23.256 37.876 22.8751 37.3437 22.4308L36.1133 23.3634C35.6738 23.6954 35.0439 23.6124 34.7119 23.173L33.4473 21.5079C33.1152 21.0685 33.1982 20.4386 33.6377 20.1066L34.9805 19.0861C34.7363 18.4318 34.5801 17.7433 34.5166 17.0353L32.9883 16.8253C32.4414 16.7521 32.0557 16.2443 32.1338 15.6974L32.417 13.6222C32.4951 13.0753 32.998 12.6945 33.5449 12.7677L35.2148 12.9972C35.5127 12.3527 35.8935 11.7521 36.3379 11.2199L35.4053 9.98939C35.0732 9.55482 35.1562 8.92494 35.5957 8.59291L37.2607 7.32826C37.7002 6.99623 38.3301 7.07924 38.6621 7.51869L39.6826 8.86146C40.332 8.61732 41.0254 8.46107 41.7334 8.3976L41.9433 6.86927C42.0166 6.3224 42.5244 5.93666 43.0713 6.0099L45.1465 6.2931C45.6933 6.36635 46.0791 6.87416 46.001 7.42103L45.7715 9.09095C46.4209 9.38881 47.0166 9.76967 47.5537 10.2189L48.7842 9.28627C49.2236 8.94935 49.8535 9.03236 50.1904 9.47181ZM14.4873 38.7736V30.7169H18.6377C19.4092 30.7169 19.9951 30.7804 20.4004 30.9171C20.8057 31.049 21.1377 31.2931 21.3818 31.6495C21.6309 32.0109 21.7578 32.4454 21.7578 32.9581C21.7578 33.4025 21.6601 33.7931 21.4697 34.1154C21.2793 34.4425 21.0156 34.7062 20.6836 34.9064C20.4736 35.0333 20.1807 35.1408 19.8096 35.2238C20.1074 35.3263 20.3223 35.4191 20.4541 35.5216C20.5469 35.59 20.6787 35.7316 20.8496 35.9464C21.0205 36.1613 21.1377 36.3322 21.1963 36.4494L22.4072 38.7785H19.5947L18.2666 36.3224C18.0957 36.005 17.9492 35.7951 17.8174 35.7023C17.6367 35.5802 17.4316 35.5167 17.207 35.5167H16.9873V38.7785H14.4873V38.7736ZM23.2666 52.8019H18.6182L17.9492 54.9894H13.7598L18.7549 41.713H23.2471L28.2226 54.9894H23.9258L23.2666 52.8019ZM22.3975 49.9259L20.9473 45.1505L19.4922 49.9259H22.3975ZM29.1894 41.713H36.0156C37.5049 41.713 38.6182 42.0646 39.3555 42.7726C40.0928 43.4806 40.4639 44.4913 40.4639 45.7951C40.4639 47.1378 40.0586 48.1876 39.2529 48.9445C38.4473 49.7013 37.2119 50.0773 35.5566 50.0773H33.3057V54.9894H29.1894V41.713ZM33.3057 47.3869H34.3164C35.1123 47.3869 35.6738 47.2501 35.9961 46.9718C36.3183 46.6984 36.4795 46.3419 36.4795 45.9171C36.4795 45.5021 36.3379 45.1456 36.0596 44.8576C35.7812 44.5695 35.2539 44.423 34.4824 44.423H33.3057V47.3869ZM42.124 41.713H46.2402V54.9894H42.124V41.713ZM16.9873 33.9884H18.0371C18.1494 33.9884 18.3691 33.9494 18.6963 33.8761C18.8623 33.8419 18.999 33.7589 19.1016 33.6222C19.209 33.4855 19.2578 33.3292 19.2578 33.1535C19.2578 32.8947 19.1748 32.6896 19.0088 32.5529C18.8428 32.4113 18.5351 32.3429 18.081 32.3429H16.9873V33.9884ZM22.8857 30.7169H29.5508V32.4357H25.3857V33.7199H29.248V35.3605H25.3857V36.9474H29.6728V38.7687H22.8857V30.7169ZM30.2637 36.1076L32.6269 35.9611C32.6758 36.3468 32.7832 36.6349 32.9394 36.8351C33.1982 37.1574 33.5644 37.3234 34.0381 37.3234C34.3896 37.3234 34.668 37.2404 34.8584 37.0744C35.0488 36.9083 35.1465 36.713 35.1465 36.4933C35.1465 36.2833 35.0537 36.0978 34.873 35.9318C34.6924 35.7658 34.2676 35.6144 33.5986 35.463C32.5098 35.2189 31.7334 34.8917 31.2646 34.4865C30.7959 34.0812 30.5615 33.5636 30.5615 32.9337C30.5615 32.5187 30.6836 32.1281 30.9228 31.7619C31.1621 31.3956 31.5234 31.1027 32.0068 30.8927C32.4902 30.6828 33.1494 30.5802 33.9892 30.5802C35.0195 30.5802 35.8008 30.7706 36.3428 31.1564C36.8799 31.5421 37.2021 32.1476 37.3047 32.9874L34.9658 33.129C34.9023 32.7628 34.7705 32.4943 34.5752 32.3331C34.375 32.1671 34.0967 32.0841 33.75 32.0841C33.4619 32.0841 33.2422 32.1476 33.0957 32.2697C32.9492 32.3917 32.876 32.5431 32.876 32.7189C32.876 32.8458 32.9394 32.9581 33.0566 33.0656C33.1738 33.1681 33.4473 33.2706 33.8867 33.3634C34.9756 33.5978 35.7568 33.8371 36.2256 34.0763C36.6943 34.3156 37.041 34.6134 37.251 34.9699C37.4658 35.3214 37.5732 35.7218 37.5732 36.1613C37.5732 36.6788 37.4316 37.1525 37.1435 37.5871C36.8603 38.0216 36.46 38.3537 35.9473 38.5783C35.4346 38.8029 34.79 38.9152 34.0088 38.9152C32.6416 38.9152 31.6894 38.6515 31.1621 38.1242C30.6348 37.5871 30.3369 36.9181 30.2637 36.1076ZM37.9346 30.7169H45.5078V32.7091H42.9687V38.7736H40.4785V32.7091H37.9346V30.7169ZM29.5557 11.5958C28.6621 11.5275 27.7588 11.5372 26.8652 11.6251C24.1162 11.8888 21.4453 12.8898 19.2383 14.6037C16.6846 16.5812 14.7461 19.5402 13.999 23.4611L13.7646 24.6867L12.5439 24.9015C11.3476 25.1115 10.2783 25.3995 9.34081 25.7658C8.43261 26.1173 7.62206 26.5519 6.91405 27.0646C6.34765 27.4747 5.85936 27.9337 5.44433 28.4318C4.16015 29.9699 3.56444 31.8986 3.57909 33.8517C3.59374 35.8341 4.23827 37.8361 5.42968 39.4816C5.87401 40.0919 6.38671 40.6535 6.97265 41.1417C7.56835 41.6349 8.23729 42.0451 8.98925 42.3527C9.41405 42.5285 9.86815 42.6749 10.3418 42.7921V46.4494C9.36522 46.2736 8.46679 46.0099 7.62694 45.6632C6.51854 45.2042 5.5371 44.6134 4.67284 43.8908C3.85253 43.2072 3.13476 42.4308 2.5244 41.5861C0.898427 39.34 0.0195209 36.5958 -1.03331e-05 33.8615C-0.0195416 31.0978 0.839833 28.3488 2.6953 26.1222C3.29589 25.3995 4.0039 24.7355 4.81444 24.1495C5.75683 23.466 6.83593 22.8898 8.05663 22.4162C8.89647 22.089 9.79491 21.8156 10.7422 21.5958C11.8164 17.3283 14.1064 14.0421 17.0508 11.7619C19.8047 9.62806 23.1201 8.38295 26.5332 8.0558C28.3252 7.8849 30.1416 7.96302 31.9189 8.29506C31.8799 8.45619 31.8457 8.61732 31.8262 8.78334L31.8213 8.81263C31.7871 9.09095 31.7724 9.36928 31.7871 9.65248C31.4111 9.79896 31.0596 9.99916 30.7422 10.2433L30.7275 10.2531C30.2539 10.6095 29.8535 11.0685 29.5557 11.5958ZM55.3906 20.9708C55.6641 21.2199 55.9277 21.4787 56.1865 21.757C56.709 22.3185 57.2021 22.9533 57.666 23.6613C59.2285 26.0636 60.0293 29.2716 59.9951 32.4113C59.9609 35.4923 59.1308 38.5587 57.4316 40.8146C56.3232 42.2843 54.9023 43.4855 53.1982 44.4376C52.0312 45.0919 50.7178 45.6339 49.2871 46.0734V42.2892C50.0586 42.0011 50.7764 41.6788 51.4355 41.3126C52.7197 40.5949 53.7695 39.7208 54.5557 38.671C55.7764 37.0451 56.3769 34.7453 56.4014 32.3869C56.4307 29.9113 55.8252 27.4259 54.6484 25.6193C54.3115 25.0968 53.9404 24.6281 53.5498 24.2081C53.3984 24.047 53.2471 23.8956 53.0908 23.7492C53.1152 23.505 53.125 23.256 53.1103 23.007C53.4863 22.8605 53.8379 22.6603 54.1553 22.4162L54.1699 22.4064C54.6728 22.0206 55.0928 21.5324 55.3906 20.9708ZM43.0078 12.2501C45.2588 12.5578 46.831 14.6329 46.5234 16.8839C46.2158 19.1349 44.1406 20.712 41.8896 20.4044C39.6387 20.0968 38.0615 18.0216 38.374 15.7706C38.6865 13.5197 40.7568 11.9425 43.0078 12.2501Z" fill="black"/>
</g>
<defs>
<clipPath id="clip0_13372_354168">
<rect width="60" height="48.9893" fill="white" transform="translate(0 6)"/>
</clipPath>
</defs>
</svg>
