<svg width="25" height="26" viewBox="0 0 25 26" fill="none" xmlns="http://www.w3.org/2000/svg">
<path d="M6.28843 0.5L0 6.78843V19.2116L6.28843 25.5H18.7116L25 19.2116V6.78843L18.7116 0.5L6.28843 0.5ZM23.5352 18.6048L18.1048 24.0352H6.89517L1.46484 18.6048V7.39517L6.89517 1.96484H18.1048L23.5352 7.39517V18.6048Z" fill="#FF4E27"/>
<path d="M12.5 14.928C11.9606 14.928 11.5234 14.4908 11.5234 13.9514V8.09204C11.5234 7.55269 11.9606 7.11548 12.5 7.11548C13.0394 7.11548 13.4766 7.55269 13.4766 8.09204V13.9514C13.4766 14.4908 13.0394 14.928 12.5 14.928Z" fill="#FF4E27"/>
<path d="M12.5 18.8342C13.0393 18.8342 13.4766 18.397 13.4766 17.8577C13.4766 17.3183 13.0393 16.8811 12.5 16.8811C11.9607 16.8811 11.5234 17.3183 11.5234 17.8577C11.5234 18.397 11.9607 18.8342 12.5 18.8342Z" fill="#FF4E27"/>
</svg>
