<svg width="16" height="16" viewBox="0 0 16 16" fill="none" xmlns="http://www.w3.org/2000/svg">
<path d="M6.68302 3.13812H5.90048C5.58439 3.13812 5.28132 3.26459 5.05836 3.48956C4.83538 3.71452 4.71088 4.01944 4.7124 4.33681C4.70303 4.9921 4.17128 5.51837 3.5186 5.5183C3.31744 5.51621 3.12041 5.4608 2.94741 5.35771C2.37632 5.02913 1.6481 5.22669 1.31951 5.79933L0.902532 6.4876C0.574336 7.05948 0.768406 7.79024 1.33664 8.12218C1.70601 8.33625 1.93354 8.732 1.93354 9.16028C1.93354 9.58848 1.70601 9.98423 1.33664 10.1984C0.769124 10.528 0.574844 11.257 0.902532 11.8272L1.29666 12.5097C1.45062 12.7887 1.70894 12.9945 2.01446 13.0817C2.31998 13.1689 2.64751 13.1303 2.92456 12.9743C3.19692 12.8147 3.52149 12.771 3.82611 12.8529C4.13073 12.9347 4.39017 13.1354 4.54675 13.4102C4.64943 13.5839 4.7046 13.7817 4.70669 13.9837C4.70669 14.6457 5.24117 15.1824 5.90048 15.1824H6.68302C7.34011 15.1824 7.87369 14.6492 7.87682 13.9894C7.87525 13.6711 8.00054 13.3652 8.22482 13.1401C8.44901 12.915 8.75353 12.7892 9.07062 12.7908C9.27131 12.7961 9.46748 12.8513 9.6418 12.9513C10.2114 13.2809 10.9392 13.086 11.2697 12.5154L11.6809 11.8272C11.8402 11.5528 11.8838 11.2261 11.8024 10.9193C11.7209 10.6125 11.521 10.351 11.2468 10.1926" stroke="#535862" stroke-linecap="round" stroke-linejoin="round"/>
<path d="M6.29468 10.8117C7.20321 10.8117 7.93972 10.0722 7.93972 9.15995C7.93972 8.24769 7.20321 7.50816 6.29468 7.50816C5.38615 7.50816 4.64964 8.24769 4.64964 9.15995C4.64964 10.0722 5.38615 10.8117 6.29468 10.8117Z" stroke="#535862" stroke-linecap="round" stroke-linejoin="round"/>
<path fill-rule="evenodd" clip-rule="evenodd" d="M8.30452 2.357C8.30452 1.47596 8.31389 1.18237 9.47436 1.18237C10.6347 1.18237 10.6441 1.47596 10.6441 2.357C10.6441 3.23805 10.6479 3.53163 9.47436 3.53163C8.30077 3.53163 8.30452 3.23805 8.30452 2.357Z" stroke="#535862" stroke-linecap="round" stroke-linejoin="round"/>
<path fill-rule="evenodd" clip-rule="evenodd" d="M12.4032 2.357C12.4032 1.47596 12.4126 1.18237 13.5731 1.18237C14.7335 1.18237 14.7429 1.47596 14.7429 2.357C14.7429 3.23805 14.7466 3.53163 13.5731 3.53163C12.3995 3.53163 12.4032 3.23805 12.4032 2.357Z" stroke="#535862" stroke-linecap="round" stroke-linejoin="round"/>
<path fill-rule="evenodd" clip-rule="evenodd" d="M8.30452 6.57636C8.30452 5.69532 8.31389 5.40173 9.47436 5.40173C10.6347 5.40173 10.6441 5.69532 10.6441 6.57636C10.6441 7.45738 10.6479 7.75099 9.47436 7.75099C8.30077 7.75099 8.30452 7.45738 8.30452 6.57636Z" stroke="#535862" stroke-linecap="round" stroke-linejoin="round"/>
<path fill-rule="evenodd" clip-rule="evenodd" d="M12.4032 6.57636C12.4032 5.69532 12.4126 5.40173 13.5731 5.40173C14.7335 5.40173 14.7429 5.69532 14.7429 6.57636C14.7429 7.45738 14.7466 7.75099 13.5731 7.75099C12.3995 7.75099 12.4032 7.45738 12.4032 6.57636Z" stroke="#535862" stroke-linecap="round" stroke-linejoin="round"/>
</svg>
