<?xml version="1.0" encoding="UTF-8"?>
<svg id="Layer_1" data-name="Layer 1" xmlns="http://www.w3.org/2000/svg" viewBox="0 0 24 24">
  <g fill="none" stroke="currentColor" stroke-linecap="round" stroke-linejoin="round">
    <path d="M10.19,7.45h-.76c-.31,0-.6.13-.82.35-.22.22-.34.53-.34.85,0,.66-.52,1.18-1.16,1.18-.19,0-.39-.06-.55-.16-.55-.33-1.26-.13-1.58.44l-.4.69c-.32.57-.13,1.3.42,1.63.36.21.58.61.58,1.04s-.22.82-.58,1.04c-.55.33-.74,1.06-.42,1.63l.38.68c.15.28.4.48.7.57.3.09.61.05.88-.11.26-.16.58-.2.87-.12.3.08.55.28.7.56.1.17.15.37.16.57,0,.66.52,1.2,1.16,1.2h.76c.64,0,1.15-.53,1.16-1.19,0-.32.12-.62.34-.85.22-.23.51-.35.82-.35.19,0,.38.06.55.16.55.33,1.26.13,1.58-.44l.4-.69c.15-.27.2-.6.12-.91-.08-.31-.27-.57-.54-.73"/>
    <path d="M9.81,15.13c.88,0,1.59-.74,1.59-1.65s-.71-1.65-1.59-1.65-1.59.74-1.59,1.65.71,1.65,1.59,1.65Z"/>
    <path d="M12.62,5.81c0-.98.01-1.31,1.26-1.31s1.26.33,1.26,1.31,0,1.31-1.26,1.31-1.26-.33-1.26-1.31Z"/>
    <path d="M17.04,5.81c0-.98.01-1.31,1.26-1.31s1.26.33,1.26,1.31,0,1.31-1.26,1.31-1.26-.33-1.26-1.31Z"/>
    <path d="M12.62,10.51c0-.98.01-1.31,1.26-1.31s1.26.33,1.26,1.31,0,1.31-1.26,1.31-1.26-.33-1.26-1.31Z"/>
    <path d="M17.04,10.51c0-.98.01-1.31,1.26-1.31s1.26.33,1.26,1.31,0,1.31-1.26,1.31-1.26-.33-1.26-1.31Z"/>
  </g>
</svg>