<svg viewBox="0 0 15 15" fill="none" xmlns="http://www.w3.org/2000/svg">
<path d="M6.44015 2.45575H5.65761C5.34152 2.45575 5.03845 2.58222 4.81548 2.80718C4.59251 3.03215 4.468 3.33706 4.46953 3.65444C4.46016 4.30973 3.92841 4.836 3.27573 4.83593C3.07457 4.83383 2.87753 4.77843 2.70454 4.67534C2.13344 4.34676 1.40523 4.54431 1.07663 5.11696L0.659658 5.80523C0.331462 6.37711 0.525532 7.10786 1.09377 7.43981C1.46313 7.65387 1.69067 8.04962 1.69067 8.4779C1.69067 8.90611 1.46313 9.30186 1.09377 9.516C0.52625 9.84567 0.331969 10.5746 0.659658 11.1449L1.05378 11.8273C1.20775 12.1063 1.46607 12.3121 1.77159 12.3993C2.07711 12.4865 2.40463 12.4479 2.68169 12.2919C2.95405 12.1323 3.27861 12.0886 3.58324 12.1705C3.88786 12.2523 4.1473 12.453 4.30388 12.7278C4.40655 12.9015 4.46172 13.0993 4.46381 13.3013C4.46381 13.9633 4.9983 14.5 5.65761 14.5H6.44015C7.09723 14.5 7.63082 13.9668 7.63394 13.307C7.63238 12.9887 7.75767 12.6829 7.98194 12.4578C8.20614 12.2326 8.51066 12.1068 8.82774 12.1084C9.02844 12.1137 9.22461 12.1689 9.39892 12.2689C9.96854 12.5985 10.6963 12.4037 11.0268 11.8331L11.4381 11.1449C11.5973 10.8704 11.6409 10.5437 11.5595 10.237C11.478 9.93009 11.2781 9.66861 11.004 9.51028" stroke="#currentColor" stroke-linecap="round" stroke-linejoin="round"/>
<path d="M6.05181 10.1294C6.96034 10.1294 7.69685 9.38983 7.69685 8.47758C7.69685 7.56532 6.96034 6.82579 6.05181 6.82579C5.14328 6.82579 4.40677 7.56532 4.40677 8.47758C4.40677 9.38983 5.14328 10.1294 6.05181 10.1294Z" stroke="currentColor" stroke-linecap="round" stroke-linejoin="round"/>
<path fill-rule="evenodd" clip-rule="evenodd" d="M8.06165 1.67463C8.06165 0.793588 8.07101 0.5 9.23148 0.5C10.3919 0.5 10.4012 0.793588 10.4012 1.67463C10.4012 2.55567 10.405 2.84925 9.23148 2.84925C8.0579 2.84925 8.06165 2.55567 8.06165 1.67463Z" stroke="currentColor" stroke-linecap="round" stroke-linejoin="round"/>
<path fill-rule="evenodd" clip-rule="evenodd" d="M12.1604 1.67463C12.1604 0.793588 12.1697 0.5 13.3302 0.5C14.4906 0.5 14.5 0.793588 14.5 1.67463C14.5 2.55567 14.5037 2.84925 13.3302 2.84925C12.1566 2.84925 12.1604 2.55567 12.1604 1.67463Z" stroke="currentColor" stroke-linecap="round" stroke-linejoin="round"/>
<path fill-rule="evenodd" clip-rule="evenodd" d="M8.06165 5.89399C8.06165 5.01295 8.07101 4.71936 9.23148 4.71936C10.3919 4.71936 10.4012 5.01295 10.4012 5.89399C10.4012 6.775 10.405 7.06862 9.23148 7.06862C8.0579 7.06862 8.06165 6.775 8.06165 5.89399Z" stroke="currentColor" stroke-linecap="round" stroke-linejoin="round"/>
<path fill-rule="evenodd" clip-rule="evenodd" d="M12.1604 5.89399C12.1604 5.01295 12.1697 4.71936 13.3302 4.71936C14.4906 4.71936 14.5 5.01295 14.5 5.89399C14.5 6.775 14.5037 7.06862 13.3302 7.06862C12.1566 7.06862 12.1604 6.775 12.1604 5.89399Z" stroke="currentColor" stroke-linecap="round" stroke-linejoin="round"/>
</svg>
