<svg xmlns="http://www.w3.org/2000/svg" id="Layer_1" viewBox="0 0 15 16"><defs><style>.st0{fill:#414651}</style></defs><path d="M13.27 5.54v.25c.01-.05.01-.1.01-.15 0-.03 0-.07-.01-.1" class="st0"/><path d="M13.27 12.43V2.26s.01-.1.01-.15C13.28.45 9.12 0 6.66 0S.13.44.04 2.06c-.03.07-.04.14-.04.21v10.58c0 1.66 4.24 2.11 6.75 2.11s6.74-.45 6.74-2.11c0-.18-.09-.33-.22-.42M6.66 1c3.4 0 5.45.72 5.61 1.09h.01s0 .02-.01.03c-.18.39-2.23 1.11-5.61 1.11s-5.49-.74-5.62-1.1C1.17 1.73 3.22 1 6.66 1M1 3.3c1.37.71 3.93.93 5.66.93s4.22-.22 5.61-.9v2.32c-.18.39-2.23 1.11-5.61 1.11s-5.49-.74-5.62-1.12c0-.07 0-.13-.04-.19zm0 3.53c1.37.71 3.93.93 5.66.93s4.22-.22 5.61-.9v2.61s-.02.08-.02.13c-.14.4-2.19 1.13-5.63 1.13S1.14 10 1 9.62zm0 6.02v-2.02c1.38.69 3.91.9 5.62.9s4.27-.22 5.65-.92v2.23c-.64.4-2.59.92-5.52.92-3.5 0-5.6-.74-5.75-1.11" class="st0"/><path d="m12.28 2.1-.01.02v-.03h.01Z" class="st0"/><path d="M13.77 5.93c-.8 0-2.15-.15-3.57-.98-.41-.24-.94-.21-1.34.05-1.22.78-2.62.93-3.5.93-.45 0-.85.35-.85.8V8.5c0 4.71 3.67 6.49 4.72 6.9.18.07.38.07.56 0 1.05-.41 4.72-2.19 4.72-6.9V6.62c0-.39-.35-.69-.74-.69" style="fill:#fff"/><path d="M9.51 15.95c-.16 0-.31-.03-.46-.09-1.18-.46-5.04-2.37-5.04-7.37V6.72c0-.72.61-1.3 1.35-1.3.87 0 2.14-.15 3.23-.85.56-.36 1.3-.39 1.86-.06 1.3.75 2.52.91 3.32.91.67 0 1.24.55 1.24 1.19v1.88c0 5-3.86 6.9-5.04 7.37-.15.06-.31.09-.46.09m.07-10.66c-.15 0-.31.04-.45.13-1.3.83-2.76 1.01-3.77 1.01-.18 0-.35.14-.35.3V8.5c0 4.37 3.37 6.03 4.4 6.43.06.02.13.03.19 0 1.03-.4 4.4-2.07 4.4-6.43V6.62c0-.1-.12-.19-.24-.19-.92 0-2.33-.18-3.82-1.04a.8.8 0 0 0-.37-.1Z" class="st0"/><path d="M9.13 12.48a.48.48 0 0 1-.37-.17l-1.3-1.45a.505.505 0 0 1 .04-.71c.21-.18.52-.17.71.04l.92 1.02 2.19-2.56c.18-.21.5-.23.71-.06.21.18.23.5.05.71l-2.56 2.99a.48.48 0 0 1-.37.17Z" class="st0"/></svg>