<svg width="16" height="17" viewBox="0 0 16 17" fill="none" xmlns="http://www.w3.org/2000/svg">
<ellipse cx="6.89726" cy="2.61334" rx="6.1204" ry="1.61334" stroke="#535862"/>
<path d="M13.2252 13.3469C13.2252 14.2379 10.4305 14.9603 6.98318 14.9603C3.53581 14.9603 0.741165 14.2379 0.741165 13.3469" stroke="#535862" stroke-linecap="round"/>
<path d="M13.0177 6.14368C13.0177 7.0347 10.2775 7.75701 6.89726 7.75701C3.51705 7.75701 0.776855 7.0347 0.776855 6.14368" stroke="#535862" stroke-linecap="round"/>
<path d="M12.982 10.1187C12.982 11.0098 10.2418 11.7321 6.86157 11.7321C3.48136 11.7321 0.741165 11.0098 0.741165 10.1187" stroke="#535862" stroke-linecap="round"/>
<line x1="0.738052" y1="13.3239" x2="0.738053" y2="2.7682" stroke="#535862" stroke-linecap="round"/>
<line x1="13.0109" y1="13.5675" x2="13.0109" y2="2.60157" stroke="#535862" stroke-linecap="round"/>
<path d="M14.0039 6.42609C13.2055 6.42609 11.8565 6.27463 10.4317 5.4494C10.0187 5.21024 9.49621 5.24208 9.09448 5.49962C7.87606 6.28073 6.47224 6.42609 5.59653 6.42609C5.1474 6.42609 4.74467 6.77988 4.74467 7.22902V8.99972C4.74467 13.7098 8.41165 15.4866 9.46491 15.8998C9.64712 15.9712 9.84221 15.9712 10.0244 15.8998C11.0777 15.4866 14.7447 13.7098 14.7447 8.99972V7.11831C14.7447 6.73156 14.3906 6.42609 14.0039 6.42609Z" fill="white" stroke="#535862"/>
<path d="M8.07383 11.0323L9.37327 12.4793L11.9305 9.48672" stroke="#535862" stroke-linecap="round" stroke-linejoin="round"/>
</svg>
