<svg viewBox="0 0 15 17" fill="none" xmlns="http://www.w3.org/2000/svg">
<path d="M11.7969 0.5H13.3622C13.9906 0.5 14.5 1.03345 14.5 1.69149V3.33064C14.5 3.98868 13.9906 4.52213 13.3622 4.52213H11.7969C11.1685 4.52213 10.6591 3.98868 10.6591 3.33064V1.69149C10.6591 1.03345 11.1685 0.5 11.7969 0.5Z" stroke="currentColor"/>
<path d="M11.7969 6.48888H13.3622C13.9906 6.48888 14.5 7.02232 14.5 7.68037V9.31952C14.5 9.97756 13.9906 10.511 13.3622 10.511H11.7969C11.1685 10.511 10.6591 9.97756 10.6591 9.31952V7.68037C10.6591 7.02232 11.1685 6.48888 11.7969 6.48888Z" stroke="currentColor"/>
<path d="M11.7969 12.4779H13.3622C13.9906 12.4779 14.5 13.0113 14.5 13.6694V15.3085C14.5 15.9665 13.9906 16.5 13.3622 16.5H11.7969C11.1685 16.5 10.6591 15.9665 10.6591 15.3085V13.6694C10.6591 13.0113 11.1685 12.4779 11.7969 12.4779Z" stroke="currentColor"/>
<path d="M1.63782 6.174H3.72977C4.35817 6.174 4.86758 6.70745 4.86758 7.36549V9.55613C4.86758 10.2142 4.35817 10.7476 3.72977 10.7476H1.63782C1.00942 10.7476 0.5 10.2142 0.5 9.55613V7.36549C0.5 6.70745 1.00942 6.174 1.63782 6.174Z" stroke="currentColor"/>
<path d="M5.12929 8.53906H10.3226M10.3608 2.62927H9.15634C8.83044 2.64204 8.17782 2.86587 8.17782 3.65395V6.13566C8.17782 6.88459 7.73407 7.19949 7.16191 7.19949H5.1301M10.3608 14.4889H9.15634C8.83044 14.4761 8.17782 14.2523 8.17782 13.4642V10.9825C8.17782 10.2335 7.73407 9.91864 7.16191 9.91864H5.1301" stroke="currentColor" stroke-linecap="round"/>
</svg>
