<svg width="16" height="18" viewBox="0 0 16 18" fill="none" xmlns="http://www.w3.org/2000/svg">
<path d="M12.0398 1H13.6051C14.2335 1 14.7429 1.53345 14.7429 2.19149V3.83064C14.7429 4.48868 14.2335 5.02213 13.6051 5.02213H12.0398C11.4114 5.02213 10.902 4.48868 10.902 3.83064V2.19149C10.902 1.53345 11.4114 1 12.0398 1Z" stroke="#535862"/>
<path d="M12.0398 6.98888H13.6051C14.2335 6.98888 14.7429 7.52232 14.7429 8.18037V9.81952C14.7429 10.4776 14.2335 11.011 13.6051 11.011H12.0398C11.4114 11.011 10.902 10.4776 10.902 9.81952V8.18037C10.902 7.52232 11.4114 6.98888 12.0398 6.98888Z" stroke="#535862"/>
<path d="M12.0398 12.9779H13.6051C14.2335 12.9779 14.7429 13.5113 14.7429 14.1694V15.8085C14.7429 16.4665 14.2335 17 13.6051 17H12.0398C11.4114 17 10.902 16.4665 10.902 15.8085V14.1694C10.902 13.5113 11.4114 12.9779 12.0398 12.9779Z" stroke="#535862"/>
<path d="M1.88074 6.674H3.97269C4.60109 6.674 5.1105 7.20745 5.1105 7.86549V10.0561C5.1105 10.7142 4.60109 11.2476 3.97269 11.2476H1.88074C1.25234 11.2476 0.74292 10.7142 0.74292 10.0561V7.86549C0.74292 7.20745 1.25234 6.674 1.88074 6.674Z" stroke="#535862"/>
<path d="M5.37221 9.03906H10.5655M10.6037 3.12927H9.39926C9.07336 3.14204 8.42074 3.36587 8.42074 4.15395V6.63566C8.42074 7.38459 7.97699 7.69949 7.40483 7.69949H5.37302M10.6037 14.9889H9.39926C9.07336 14.9761 8.42074 14.7523 8.42074 13.9642V11.4825C8.42074 10.7335 7.97699 10.4186 7.40483 10.4186H5.37302" stroke="#535862" stroke-linecap="round"/>
</svg>
