<svg viewBox="0 0 21 20" fill="none" xmlns="http://www.w3.org/2000/svg">
<path fill-rule="evenodd" clip-rule="evenodd" d="M3.53338 2.66675C3.16519 2.66675 2.86671 2.96523 2.86671 3.33341V16.6667C2.86671 17.0349 3.16519 17.3334 3.53338 17.3334H6.20005C6.56823 17.3334 6.86671 17.0349 6.86671 16.6667C6.86671 16.2986 6.56823 16.0001 6.20005 16.0001H4.20005V4.00008H6.20005C6.56823 4.00008 6.86671 3.7016 6.86671 3.33341C6.86671 2.96523 6.56823 2.66675 6.20005 2.66675H3.53338ZM14.2 2.66675C13.8319 2.66675 13.5334 2.96523 13.5334 3.33341C13.5334 3.7016 13.8319 4.00008 14.2 4.00008H16.2V16.0001H14.2C13.8319 16.0001 13.5334 16.2986 13.5334 16.6667C13.5334 17.0349 13.8319 17.3334 14.2 17.3334H16.8667C17.2348 17.3334 17.5334 17.0349 17.5334 16.6667V3.33341C17.5334 2.96523 17.2348 2.66675 16.8667 2.66675H14.2ZM8.20005 9.33342H6.86671V10.6667H8.20005V9.33342ZM9.53338 9.33342H10.8667V10.6667H9.53338V9.33342ZM13.5334 9.33342H12.2V10.6667H13.5334V9.33342Z" fill="currentColor"/>
</svg>
