<svg viewBox="0 0 20 20" fill="none" xmlns="http://www.w3.org/2000/svg">
<path d="M4.58316 12.7896H3.83368C3.61265 12.7899 3.40075 12.8778 3.24446 13.0341C3.08817 13.1904 3.00025 13.4023 3 13.6233V16.1664C3.00028 16.3874 3.0882 16.5993 3.24449 16.7556C3.40078 16.9119 3.61267 16.9998 3.83368 17H4.58316C4.80418 16.9998 5.01608 16.9118 5.17236 16.7556C5.32865 16.5993 5.41656 16.3874 5.41681 16.1664V13.6232C5.41654 13.4022 5.32862 13.1903 5.17233 13.0341C5.01605 12.8778 4.80416 12.7899 4.58316 12.7896ZM4.96519 16.1664C4.96507 16.2676 4.92479 16.3647 4.85317 16.4364C4.78155 16.508 4.68444 16.5483 4.58316 16.5484H3.83368C3.73239 16.5483 3.63528 16.508 3.56365 16.4364C3.49202 16.3647 3.45173 16.2676 3.45161 16.1664V13.6232C3.45173 13.5219 3.49202 13.4248 3.56365 13.3532C3.63528 13.2816 3.73239 13.2413 3.83368 13.2412H4.58316C4.68444 13.2413 4.78155 13.2816 4.85317 13.3532C4.92479 13.4248 4.96507 13.5219 4.96519 13.6232V16.1664ZM5.85625 8.12064V11.8794C5.85625 11.9393 5.83246 11.9967 5.79012 12.0391C5.74777 12.0814 5.69034 12.1052 5.63045 12.1052C5.57056 12.1052 5.51313 12.0814 5.47078 12.0391C5.42843 11.9967 5.40464 11.9393 5.40464 11.8794V8.12064C5.40464 8.06075 5.42843 8.00332 5.47078 7.96097C5.51313 7.91862 5.57056 7.89483 5.63045 7.89483C5.69034 7.89483 5.74777 7.91862 5.79012 7.96097C5.83246 8.00332 5.85625 8.06075 5.85625 8.12064ZM3.22592 7.89483C3.28581 7.89483 3.34324 7.91862 3.38559 7.96097C3.42794 8.00332 3.45173 8.06075 3.45173 8.12064V11.8794C3.45173 11.9393 3.42794 11.9967 3.38559 12.0391C3.34324 12.0814 3.28581 12.1052 3.22592 12.1052C3.16603 12.1052 3.1086 12.0814 3.06625 12.0391C3.0239 11.9967 3.00011 11.9393 3.00011 11.8794V8.12064C3.00011 8.06077 3.02389 8.00336 3.06621 7.96101C3.10853 7.91867 3.16594 7.89486 3.22581 7.89483H3.22592ZM7.32984 3.22581V6.98455C7.32984 7.04444 7.30605 7.10187 7.2637 7.14422C7.22135 7.18657 7.16392 7.21036 7.10403 7.21036C7.04414 7.21036 6.98671 7.18657 6.94436 7.14422C6.90202 7.10187 6.87823 7.04444 6.87823 6.98455V3.22581C6.87823 3.16592 6.90202 3.10848 6.94436 3.06614C6.98671 3.02379 7.04414 3 7.10403 3C7.16392 3 7.22135 3.02379 7.2637 3.06614C7.30605 3.10848 7.32984 3.16592 7.32984 3.22581ZM3.83368 7.21036H4.58316C4.80418 7.21011 5.01608 7.1222 5.17236 6.96592C5.32865 6.80963 5.41656 6.59773 5.41681 6.37671V3.83356C5.41654 3.61256 5.32862 3.40068 5.17233 3.24441C5.01605 3.08814 4.80416 3.00025 4.58316 3H3.83368C3.61265 3.00025 3.40075 3.08816 3.24446 3.24444C3.08817 3.40073 3.00025 3.61262 3 3.83365V6.37679C3.00028 6.5978 3.0882 6.80968 3.24449 6.96595C3.40078 7.12221 3.61267 7.21011 3.83368 7.21036ZM3.45161 3.83365C3.45173 3.73236 3.49202 3.63525 3.56365 3.56363C3.63528 3.49201 3.73239 3.45172 3.83368 3.45161H4.58316C4.68444 3.45173 4.78155 3.49202 4.85317 3.56364C4.92479 3.63526 4.96507 3.73236 4.96519 3.83365V6.37679C4.96507 6.47808 4.92479 6.57518 4.85317 6.6468C4.78155 6.71842 4.68444 6.75871 4.58316 6.75883H3.83368C3.73237 6.75872 3.63525 6.71842 3.56362 6.64678C3.49199 6.57514 3.45171 6.47801 3.45161 6.37671V3.83365ZM16.548 6.98455V3.22581C16.548 3.16592 16.5718 3.10848 16.6142 3.06614C16.6565 3.02379 16.714 3 16.7739 3C16.8337 3 16.8912 3.02379 16.9335 3.06614C16.9759 3.10848 16.9997 3.16592 16.9997 3.22581V6.98455C16.9997 7.04444 16.9759 7.10187 16.9335 7.14422C16.8912 7.18657 16.8337 7.21036 16.7739 7.21036C16.714 7.21036 16.6565 7.18657 16.6142 7.14422C16.5718 7.10187 16.548 7.04444 16.548 6.98455ZM16.1663 7.89483H15.4169C15.1958 7.89508 14.9839 7.98299 14.8277 8.13928C14.6714 8.29556 14.5834 8.50746 14.5832 8.72848V11.2716C14.5834 11.4927 14.6714 11.7046 14.8277 11.8608C14.9839 12.0171 15.1958 12.1051 15.4169 12.1053H16.1663C16.3874 12.1051 16.5993 12.0171 16.7556 11.8608C16.9119 11.7045 16.9998 11.4926 17 11.2715V8.7284C16.9997 8.50739 16.9118 8.29551 16.7555 8.13925C16.5992 7.98298 16.3873 7.89508 16.1663 7.89483ZM16.5484 11.2715C16.5483 11.3728 16.508 11.47 16.4364 11.5416C16.3647 11.6132 16.2676 11.6535 16.1663 11.6536H15.4169C15.3156 11.6535 15.2185 11.6132 15.1468 11.5416C15.0752 11.47 15.0349 11.3728 15.0348 11.2715V8.7284C15.0349 8.62711 15.0752 8.53 15.1468 8.45838C15.2185 8.38676 15.3156 8.34647 15.4169 8.34636H16.1663C16.2676 8.34647 16.3647 8.38677 16.4364 8.45841C16.508 8.53005 16.5483 8.62718 16.5484 8.72848V11.2715ZM17 13.0154V16.7742C17 16.8341 16.9762 16.8915 16.9339 16.9339C16.8915 16.9762 16.8341 17 16.7742 17C16.7143 17 16.6569 16.9762 16.6145 16.9339C16.5722 16.8915 16.5484 16.8341 16.5484 16.7742V13.0154C16.5484 12.9556 16.5722 12.8981 16.6145 12.8558C16.6569 12.8134 16.7143 12.7896 16.7742 12.7896C16.8341 12.7896 16.8915 12.8134 16.9339 12.8558C16.9762 12.8981 17 12.9556 17 13.0154ZM14.5954 13.0154V16.7742C14.5954 16.8341 14.5716 16.8915 14.5293 16.9339C14.4869 16.9762 14.4295 17 14.3696 17C14.3097 17 14.2523 16.9762 14.2099 16.9339C14.1676 16.8915 14.1438 16.8341 14.1438 16.7742V13.0154C14.1438 12.9556 14.1676 12.8981 14.2099 12.8558C14.2523 12.8134 14.3097 12.7896 14.3696 12.7896C14.4295 12.7896 14.4869 12.8134 14.5293 12.8558C14.5716 12.8981 14.5954 12.9556 14.5954 13.0154ZM11.3573 12.7896H10.6077C10.3867 12.7899 10.1749 12.8779 10.0186 13.0341C9.86234 13.1904 9.77445 13.4023 9.77419 13.6233V16.1664C9.77447 16.3874 9.86238 16.5993 10.0186 16.7555C10.1749 16.9118 10.3867 16.9997 10.6077 17H11.3572C11.5782 16.9998 11.7901 16.9119 11.9464 16.7556C12.1027 16.5993 12.1906 16.3874 12.1909 16.1664V13.6232C12.1906 13.4022 12.1027 13.1903 11.9464 13.034C11.7901 12.8778 11.5782 12.7899 11.3572 12.7896H11.3573ZM11.7393 16.1664C11.7392 16.2676 11.6989 16.3648 11.6272 16.4364C11.5556 16.508 11.4585 16.5483 11.3572 16.5484H10.6077C10.5065 16.5482 10.4094 16.5079 10.3378 16.4363C10.2662 16.3647 10.2259 16.2676 10.2258 16.1664V13.6232C10.2259 13.5219 10.2662 13.4248 10.3378 13.3532C10.4095 13.2816 10.5066 13.2413 10.6079 13.2412H11.3573C11.4586 13.2413 11.5557 13.2816 11.6274 13.3532C11.699 13.4248 11.7393 13.5219 11.7394 13.6232L11.7393 16.1664ZM15.0865 6.37671V3.83356C15.0863 3.61255 14.9983 3.40068 14.8421 3.24441C14.6858 3.08814 14.4739 3.00025 14.2529 3H13.5034C13.2824 3.00025 13.0705 3.08816 12.9142 3.24444C12.7579 3.40073 12.67 3.61263 12.6697 3.83365V6.37679C12.67 6.59782 12.7579 6.80971 12.9142 6.966C13.0705 7.12229 13.2824 7.2102 13.5034 7.21044H14.2529C14.4739 7.2102 14.6858 7.12228 14.8421 6.96597C14.9984 6.80967 15.0863 6.59775 15.0865 6.37671ZM13.1214 6.37671V3.83356C13.1215 3.73229 13.1618 3.63521 13.2334 3.56361C13.305 3.49201 13.4021 3.45173 13.5034 3.45161H14.2529C14.3542 3.45172 14.4513 3.49201 14.5229 3.56363C14.5945 3.63525 14.6348 3.73236 14.6349 3.83365V6.37679C14.6348 6.47808 14.5945 6.57519 14.5229 6.64681C14.4513 6.71843 14.3542 6.75872 14.2529 6.75883H13.5034C13.4021 6.75871 13.305 6.71841 13.2333 6.64677C13.1617 6.57513 13.1214 6.47801 13.1214 6.37671ZM11.2083 6.37671V3.83356C11.208 3.61255 11.1201 3.40067 10.9638 3.2444C10.8075 3.08813 10.5956 3.00024 10.3746 3H9.62516C9.40414 3.00025 9.19224 3.08816 9.03595 3.24444C8.87967 3.40073 8.79176 3.61263 8.79151 3.83365V6.37679C8.79176 6.59782 8.87967 6.80971 9.03595 6.966C9.19224 7.12229 9.40414 7.2102 9.62516 7.21044H10.3746C10.5957 7.2102 10.8076 7.12229 10.9639 6.96598C11.1202 6.80968 11.2081 6.59775 11.2083 6.37671ZM9.24312 6.37671V3.83356C9.24327 3.73229 9.28357 3.63521 9.35518 3.56361C9.4268 3.49201 9.52389 3.45173 9.62516 3.45161H10.3746C10.4759 3.45172 10.573 3.49201 10.6446 3.56363C10.7163 3.63525 10.7566 3.73236 10.7567 3.83365V6.37679C10.7566 6.47809 10.7163 6.57519 10.6446 6.64681C10.573 6.71843 10.4759 6.75872 10.3746 6.75883H9.62516C9.52386 6.75871 9.42674 6.71841 9.35512 6.64677C9.2835 6.57513 9.24322 6.47801 9.24312 6.37671ZM8.26087 8.12064V11.8794C8.26087 11.9393 8.23708 11.9967 8.19473 12.0391C8.15238 12.0814 8.09495 12.1052 8.03506 12.1052C7.97517 12.1052 7.91774 12.0814 7.87539 12.0391C7.83304 11.9967 7.80925 11.9393 7.80925 11.8794V8.12064C7.80925 8.06075 7.83304 8.00332 7.87539 7.96097C7.91774 7.91862 7.97517 7.89483 8.03506 7.89483C8.09495 7.89483 8.15238 7.91862 8.19473 7.96097C8.23708 8.00332 8.26087 8.06075 8.26087 8.12064ZM11.7968 7.89483H11.0472C10.8262 7.89507 10.6142 7.98298 10.458 8.13927C10.3017 8.29555 10.2137 8.50746 10.2135 8.72848V11.2716C10.2138 11.4926 10.3017 11.7045 10.458 11.8608C10.6143 12.0171 10.8262 12.105 11.0472 12.1052H11.7966C12.0177 12.105 12.2296 12.0171 12.3858 11.8608C12.5421 11.7045 12.6301 11.4926 12.6303 11.2715V8.7284C12.63 8.50741 12.5421 8.29555 12.3859 8.13929C12.2296 7.98302 12.0177 7.89511 11.7967 7.89483H11.7968ZM12.1789 11.2715C12.1788 11.3728 12.1385 11.47 12.0668 11.5416C11.9952 11.6132 11.8981 11.6535 11.7968 11.6536H11.0472C10.9459 11.6535 10.8488 11.6132 10.7771 11.5416C10.7055 11.4699 10.6652 11.3728 10.6651 11.2715V8.7284C10.6653 8.62712 10.7056 8.53004 10.7772 8.45844C10.8488 8.38683 10.9459 8.34656 11.0472 8.34645H11.7966C11.8979 8.34656 11.995 8.38684 12.0667 8.45847C12.1383 8.53009 12.1786 8.62719 12.1787 8.72848L12.1789 11.2715ZM7.82125 13.0154V16.7742C7.82125 16.8341 7.79746 16.8915 7.75511 16.9339C7.71277 16.9762 7.65533 17 7.59544 17C7.53556 17 7.47812 16.9762 7.43577 16.9339C7.39343 16.8915 7.36964 16.8341 7.36964 16.7742V13.0154C7.36964 12.9556 7.39343 12.8981 7.43577 12.8558C7.47812 12.8134 7.53556 12.7896 7.59544 12.7896C7.65533 12.7896 7.71277 12.8134 7.75511 12.8558C7.79746 12.8981 7.82125 12.9556 7.82125 13.0154Z" fill="currentColor" stroke="currentColor" stroke-width="0.4"/>
</svg>
