<svg viewBox="0 0 20 20" fill="none" xmlns="http://www.w3.org/2000/svg">
<path d="M7.76744 9.06959C6.63627 9.06959 5.72092 8.15424 5.72092 7.02307C5.72092 5.89191 6.63627 4.97656 7.76744 4.97656C8.8986 4.97656 9.81395 5.89191 9.81395 7.02307C9.81395 8.15424 8.8986 9.06959 7.76744 9.06959ZM7.76744 6.09284C7.25395 6.09284 6.8372 6.50959 6.8372 7.02307C6.8372 7.53656 7.25395 7.95331 7.76744 7.95331C8.28092 7.95331 8.69767 7.53656 8.69767 7.02307C8.69767 6.50959 8.28092 6.09284 7.76744 6.09284Z" fill="currentColor"/>
<path d="M12.2325 18H7.76742C3.72649 18 1.99998 16.2735 1.99998 12.2326V7.76744C1.99998 3.72651 3.72649 2 7.76742 2H10.7442C11.0493 2 11.3023 2.25302 11.3023 2.55814C11.3023 2.86326 11.0493 3.11628 10.7442 3.11628H7.76742C4.33672 3.11628 3.11626 4.33674 3.11626 7.76744V12.2326C3.11626 15.6633 4.33672 16.8837 7.76742 16.8837H12.2325C15.6632 16.8837 16.8837 15.6633 16.8837 12.2326V8.51163C16.8837 8.20651 17.1367 7.95349 17.4418 7.95349C17.747 7.95349 18 8.20651 18 8.51163V12.2326C18 16.2735 16.2735 18 12.2325 18Z" fill="currentColor"/>
<path d="M14.4651 7.58138C14.16 7.58138 13.9069 7.32836 13.9069 7.02324V2.55813C13.9069 2.33487 14.0409 2.1265 14.2493 2.04464C14.4576 1.96278 14.6958 2.00743 14.8595 2.16371L16.3479 3.65208C16.5637 3.8679 16.5637 4.2251 16.3479 4.44092C16.1321 4.65673 15.7748 4.65673 15.559 4.44092L15.0232 3.9051V7.02324C15.0232 7.32836 14.7702 7.58138 14.4651 7.58138Z" fill="currentColor"/>
<path d="M12.9766 4.6045C12.8352 4.6045 12.6938 4.55241 12.5822 4.44078C12.3664 4.22496 12.3664 3.86776 12.5822 3.65194L14.0706 2.16357C14.2864 1.94776 14.6436 1.94776 14.8594 2.16357C15.0752 2.37938 15.0752 2.73659 14.8594 2.95241L13.371 4.44078C13.2594 4.55241 13.118 4.6045 12.9766 4.6045Z" fill="currentColor"/>
<path d="M3.05658 15.7302C2.87797 15.7302 2.69937 15.6409 2.59518 15.4846C2.42402 15.2316 2.491 14.8818 2.74402 14.7106L6.41286 12.2474C7.21658 11.7116 8.32542 11.7711 9.05472 12.3888L9.3003 12.6046C9.67239 12.9246 10.305 12.9246 10.6696 12.6046L13.7654 9.94785C14.5543 9.27064 15.797 9.27064 16.5933 9.94785L17.8063 10.9897C18.037 11.1906 18.0668 11.5404 17.8659 11.7785C17.665 12.0092 17.3077 12.039 17.077 11.8381L15.864 10.7962C15.4919 10.4762 14.8668 10.4762 14.4947 10.7962L11.3989 13.453C10.6101 14.1302 9.36728 14.1302 8.571 13.453L8.32542 13.2371C7.98309 12.9469 7.41752 12.9171 7.03798 13.1776L3.37658 15.6409C3.27239 15.7004 3.16076 15.7302 3.05658 15.7302Z" fill="currentColor"/>
</svg>
