<svg viewBox="0 0 21 20" fill="none" xmlns="http://www.w3.org/2000/svg">
<path d="M12.1177 7.88238H17.4118C18.2889 7.88238 19 8.59345 19 9.4706V17.4118C19 18.2889 18.2889 19 17.4118 19H9.4706C8.59345 19 7.88238 18.2889 7.88238 17.4118V12.1177H2.58822C1.71107 12.1177 1 11.4066 1 10.5294V2.58822C1 1.71107 1.71107 1 2.58822 1H10.5294C11.4066 1 12.1176 1.71107 12.1176 2.58822L12.1177 7.88238ZM2.58822 2.05884C2.29583 2.05884 2.0588 2.29586 2.0588 2.58826V10.5294C2.0588 10.8218 2.29583 11.0589 2.58822 11.0589H10.5294C10.8218 11.0589 11.0588 10.8218 11.0588 10.5294V2.58822C11.0588 2.29583 10.8218 2.0588 10.5294 2.0588H2.58822V2.05884ZM12.1177 8.94118V10.5294C12.1177 11.4066 11.4066 12.1177 10.5294 12.1177H8.94118V17.4118C8.94118 17.7042 9.1782 17.9412 9.4706 17.9412H17.4118C17.7042 17.9412 17.9412 17.7042 17.9412 17.4118V9.4706C17.9412 9.1782 17.7042 8.94118 17.4118 8.94118H12.1177ZM5.81012 6.55885L4.86094 5.60966C4.65418 5.40291 4.65418 5.06769 4.86094 4.86097C5.06769 4.65425 5.40291 4.65422 5.60963 4.86097L6.55881 5.81016L7.508 4.86097C7.71475 4.65422 8.04997 4.65422 8.25669 4.86097C8.46344 5.06773 8.46344 5.40294 8.25669 5.60966L7.3075 6.55885L8.25669 7.50803C8.46344 7.71479 8.46344 8.05 8.25669 8.25672C8.04993 8.46348 7.71472 8.46348 7.508 8.25672L6.55881 7.30754L5.60963 8.25672C5.40287 8.46348 5.06766 8.46348 4.86094 8.25672C4.65422 8.04997 4.65418 7.71475 4.86094 7.50803L5.81012 6.55885ZM11.9626 13.0668L12.9118 14.016L15.1845 11.7433C15.3913 11.5366 15.7265 11.5366 15.9332 11.7433C16.1399 11.9501 16.14 12.2853 15.9332 12.492L13.2861 15.1391C13.0794 15.3458 12.7442 15.3458 12.5375 15.1391L11.2139 13.8155C11.0072 13.6088 11.0072 13.2736 11.2139 13.0668C11.4207 12.8601 11.7559 12.8601 11.9626 13.0668Z" fill="currentColor"/>
</svg>
