<svg viewBox="0 0 20 20" fill="none" xmlns="http://www.w3.org/2000/svg">
<path d="M7.0229 11.7777C7.43391 11.7777 7.76709 11.4594 7.76709 11.0666C7.76709 10.6739 7.43391 10.3555 7.0229 10.3555C6.6119 10.3555 6.27872 10.6739 6.27872 11.0666C6.27872 11.4594 6.6119 11.7777 7.0229 11.7777Z" fill="currentColor"/>
<path d="M7.0229 14.6215C7.43391 14.6215 7.76709 14.3031 7.76709 13.9104C7.76709 13.5176 7.43391 13.1992 7.0229 13.1992C6.6119 13.1992 6.27872 13.5176 6.27872 13.9104C6.27872 14.3031 6.6119 14.6215 7.0229 14.6215Z" fill="currentColor"/>
<path d="M9.99978 11.7777C10.4108 11.7777 10.744 11.4594 10.744 11.0666C10.744 10.6739 10.4108 10.3555 9.99978 10.3555C9.58878 10.3555 9.25559 10.6739 9.25559 11.0666C9.25559 11.4594 9.58878 11.7777 9.99978 11.7777Z" fill="currentColor"/>
<path d="M9.99978 14.6215C10.4108 14.6215 10.744 14.3031 10.744 13.9104C10.744 13.5176 10.4108 13.1992 9.99978 13.1992C9.58878 13.1992 9.25559 13.5176 9.25559 13.9104C9.25559 14.3031 9.58878 14.6215 9.99978 14.6215Z" fill="currentColor"/>
<path d="M12.9767 11.7777C13.3877 11.7777 13.7208 11.4594 13.7208 11.0666C13.7208 10.6739 13.3877 10.3555 12.9767 10.3555C12.5657 10.3555 12.2325 10.6739 12.2325 11.0666C12.2325 11.4594 12.5657 11.7777 12.9767 11.7777Z" fill="currentColor"/>
<path d="M12.9767 14.6215C13.3877 14.6215 13.7208 14.3031 13.7208 13.9104C13.7208 13.5176 13.3877 13.1992 12.9767 13.1992C12.5657 13.1992 12.2325 13.5176 12.2325 13.9104C12.2325 14.3031 12.5657 14.6215 12.9767 14.6215Z" fill="currentColor"/>
<path fill-rule="evenodd" clip-rule="evenodd" d="M18 6.08863V15.3334C18 16.041 17.706 16.7187 17.1829 17.2193C16.659 17.7193 15.9498 18.0002 15.2093 18.0002H4.7907C4.05023 18.0002 3.34102 17.7193 2.81712 17.2193C2.29395 16.7187 2 16.041 2 15.3334V6.08863C2 5.38105 2.29395 4.70334 2.81712 4.2027C3.34102 3.70277 4.05023 3.42188 4.7907 3.42188H15.2093C15.9498 3.42188 16.659 3.70277 17.1829 4.2027C17.706 4.70334 18 5.38105 18 6.08863ZM16.8837 6.08863C16.8837 5.66409 16.7073 5.25732 16.3933 4.95722C16.0793 4.65712 15.6536 4.48858 15.2093 4.48858H4.7907C4.34642 4.48858 3.92074 4.65712 3.6067 4.95722C3.29265 5.25732 3.11628 5.66409 3.11628 6.08863V15.3334C3.11628 15.7579 3.29265 16.1647 3.6067 16.4648C3.92074 16.7649 4.34642 16.9335 4.7907 16.9335H15.2093C15.6536 16.9335 16.0793 16.7649 16.3933 16.4648C16.7073 16.1647 16.8837 15.7579 16.8837 15.3334V6.08863Z" fill="currentColor"/>
<path fill-rule="evenodd" clip-rule="evenodd" d="M17.4419 7.33398C17.75 7.33398 18 7.57293 18 7.86734C18 8.16175 17.75 8.40069 17.4419 8.40069H2.55814C2.25005 8.40069 2 8.16175 2 7.86734C2 7.57293 2.25005 7.33398 2.55814 7.33398H17.4419Z" fill="currentColor"/>
<path fill-rule="evenodd" clip-rule="evenodd" d="M12.4186 2.53335C12.4186 2.23894 12.6686 2 12.9767 2C13.2848 2 13.5349 2.23894 13.5349 2.53335V5.3779C13.5349 5.67231 13.2848 5.91125 12.9767 5.91125C12.6686 5.91125 12.4186 5.67231 12.4186 5.3779V2.53335Z" fill="currentColor"/>
<path fill-rule="evenodd" clip-rule="evenodd" d="M6.46531 2.53335C6.46531 2.23894 6.71536 2 7.02345 2C7.33155 2 7.58159 2.23894 7.58159 2.53335V5.3779C7.58159 5.67231 7.33155 5.91125 7.02345 5.91125C6.71536 5.91125 6.46531 5.67231 6.46531 5.3779V2.53335Z" fill="currentColor"/>
<path d="M14.9548 18.5C16.8699 18.5 18.4095 16.9258 18.4095 15C18.4095 13.0742 16.8699 11.5 14.9548 11.5C13.0396 11.5 11.5 13.0742 11.5 15C11.5 16.9258 13.0396 18.5 14.9548 18.5Z" fill="white" stroke="currentColor"/>
<path d="M14.9547 13.7134V15.4277L15.7989 16.2848" stroke="currentColor" stroke-linecap="round"/>
</svg>
