<svg viewBox="0 0 20 20" fill="none" xmlns="http://www.w3.org/2000/svg">
<path d="M6.80002 11.7772C7.19276 11.7772 7.51113 11.4588 7.51113 11.0661C7.51113 10.6734 7.19276 10.355 6.80002 10.355C6.40729 10.355 6.08891 10.6734 6.08891 11.0661C6.08891 11.4588 6.40729 11.7772 6.80002 11.7772Z" fill="currentColor"/>
<path d="M6.80002 14.6222C7.19276 14.6222 7.51113 14.3038 7.51113 13.9111C7.51113 13.5183 7.19276 13.2 6.80002 13.2C6.40729 13.2 6.08891 13.5183 6.08891 13.9111C6.08891 14.3038 6.40729 14.6222 6.80002 14.6222Z" fill="currentColor"/>
<path d="M9.64461 11.7772C10.0373 11.7772 10.3557 11.4588 10.3557 11.0661C10.3557 10.6734 10.0373 10.355 9.64461 10.355C9.25187 10.355 8.9335 10.6734 8.9335 11.0661C8.9335 11.4588 9.25187 11.7772 9.64461 11.7772Z" fill="currentColor"/>
<path d="M9.64461 14.6222C10.0373 14.6222 10.3557 14.3038 10.3557 13.9111C10.3557 13.5183 10.0373 13.2 9.64461 13.2C9.25187 13.2 8.9335 13.5183 8.9335 13.9111C8.9335 14.3038 9.25187 14.6222 9.64461 14.6222Z" fill="currentColor"/>
<path d="M12.4892 11.7772C12.8819 11.7772 13.2003 11.4588 13.2003 11.0661C13.2003 10.6734 12.8819 10.355 12.4892 10.355C12.0965 10.355 11.7781 10.6734 11.7781 11.0661C11.7781 11.4588 12.0965 11.7772 12.4892 11.7772Z" fill="currentColor"/>
<path d="M12.4892 14.6222C12.8819 14.6222 13.2003 14.3038 13.2003 13.9111C13.2003 13.5183 12.8819 13.2 12.4892 13.2C12.0965 13.2 11.7781 13.5183 11.7781 13.9111C11.7781 14.3038 12.0965 14.6222 12.4892 14.6222Z" fill="currentColor"/>
<path fill-rule="evenodd" clip-rule="evenodd" d="M17.2891 6.0883V15.3327C17.2891 16.0403 17.0082 16.718 16.5083 17.2186C16.0076 17.7185 15.3299 17.9994 14.6224 17.9994H4.66683C3.95927 17.9994 3.28158 17.7185 2.78096 17.2186C2.28105 16.718 2.00016 16.0403 2.00016 15.3327V6.0883C2.00016 5.38074 2.28105 4.70305 2.78096 4.20243C3.28158 3.70252 3.95927 3.42163 4.66683 3.42163H14.6224C15.3299 3.42163 16.0076 3.70252 16.5083 4.20243C17.0082 4.70305 17.2891 5.38074 17.2891 6.0883ZM16.2224 6.0883C16.2224 5.66376 16.0539 5.25701 15.7538 4.95692C15.4537 4.65683 15.0469 4.4883 14.6224 4.4883H4.66683C4.2423 4.4883 3.83554 4.65683 3.53545 4.95692C3.23536 5.25701 3.06683 5.66376 3.06683 6.0883V15.3327C3.06683 15.7573 3.23536 16.164 3.53545 16.4641C3.83554 16.7642 4.2423 16.9327 4.66683 16.9327H14.6224C15.0469 16.9327 15.4537 16.7642 15.7538 16.4641C16.0539 16.164 16.2224 15.7573 16.2224 15.3327V6.0883Z" fill="currentColor"/>
<path fill-rule="evenodd" clip-rule="evenodd" d="M16.7557 7.33325C17.0501 7.33325 17.2891 7.57219 17.2891 7.86659C17.2891 8.16099 17.0501 8.39992 16.7557 8.39992H2.5335C2.2391 8.39992 2.00016 8.16099 2.00016 7.86659C2.00016 7.57219 2.2391 7.33325 2.5335 7.33325H16.7557Z" fill="currentColor"/>
<path fill-rule="evenodd" clip-rule="evenodd" d="M11.9556 2.53333C11.9556 2.23893 12.1945 2 12.4889 2C12.7833 2 13.0222 2.23893 13.0222 2.53333V5.37778C13.0222 5.67218 12.7833 5.91111 12.4889 5.91111C12.1945 5.91111 11.9556 5.67218 11.9556 5.37778V2.53333Z" fill="currentColor"/>
<path fill-rule="evenodd" clip-rule="evenodd" d="M6.26683 2.53333C6.26683 2.23893 6.50576 2 6.80016 2C7.09456 2 7.3335 2.23893 7.3335 2.53333V5.37778C7.3335 5.67218 7.09456 5.91111 6.80016 5.91111C6.50576 5.91111 6.26683 5.67218 6.26683 5.37778V2.53333Z" fill="currentColor"/>
</svg>
