<svg viewBox="0 0 20 20" fill="none" xmlns="http://www.w3.org/2000/svg">
<path d="M8.33333 11.6666H5.83333C5.61232 11.6666 5.40036 11.7544 5.24408 11.9107C5.0878 12.0669 5 12.2789 5 12.4999V16.6666C5 16.8876 5.0878 17.0996 5.24408 17.2558C5.40036 17.4121 5.61232 17.4999 5.83333 17.4999H8.33333C8.55435 17.4999 8.76631 17.4121 8.92259 17.2558C9.07887 17.0996 9.16667 16.8876 9.16667 16.6666V12.4999C9.16667 12.2789 9.07887 12.0669 8.92259 11.9107C8.76631 11.7544 8.55435 11.6666 8.33333 11.6666ZM5.83333 16.6666V12.4999H8.33333V16.6666H5.83333ZM15 11.6666H12.5C12.279 11.6666 12.067 11.7544 11.9107 11.9107C11.7545 12.0669 11.6667 12.2789 11.6667 12.4999V16.6666C11.6667 16.8876 11.7545 17.0996 11.9107 17.2558C12.067 17.4121 12.279 17.4999 12.5 17.4999H15C15.221 17.4999 15.433 17.4121 15.5893 17.2558C15.7455 17.0996 15.8333 16.8876 15.8333 16.6666V12.4999C15.8333 12.2789 15.7455 12.0669 15.5893 11.9107C15.433 11.7544 15.221 11.6666 15 11.6666ZM12.5 16.6666V12.4999H15V16.6666H12.5ZM10.8333 17.0833C10.8333 17.1657 10.8089 17.2462 10.7631 17.3147C10.7173 17.3833 10.6523 17.4367 10.5761 17.4682C10.5 17.4997 10.4162 17.508 10.3354 17.4919C10.2546 17.4758 10.1803 17.4362 10.122 17.3779C10.0638 17.3196 10.0241 17.2454 10.008 17.1645C9.99193 17.0837 10.0002 16.9999 10.0317 16.9238C10.0633 16.8477 10.1167 16.7826 10.1852 16.7368C10.2537 16.691 10.3343 16.6666 10.4167 16.6666C10.5272 16.6666 10.6332 16.7105 10.7113 16.7886C10.7894 16.8668 10.8333 16.9727 10.8333 17.0833ZM8.33333 3.33325H5.83333C5.61232 3.33325 5.40036 3.42105 5.24408 3.57733C5.0878 3.73361 5 3.94557 5 4.16659V8.33325C5 8.55427 5.0878 8.76623 5.24408 8.92251C5.40036 9.07879 5.61232 9.16659 5.83333 9.16659H8.33333C8.55435 9.16659 8.76631 9.07879 8.92259 8.92251C9.07887 8.76623 9.16667 8.55427 9.16667 8.33325V4.16659C9.16667 3.94557 9.07887 3.73361 8.92259 3.57733C8.76631 3.42105 8.55435 3.33325 8.33333 3.33325ZM8.33333 8.33325H5.83333V4.16659H8.33333V8.33325ZM15.7108 6.54492L14.0442 8.21159C13.9659 8.28982 13.8598 8.33378 13.7492 8.33378C13.6385 8.33378 13.5324 8.28982 13.4542 8.21159C13.3759 8.13335 13.332 8.02723 13.332 7.91659C13.332 7.80594 13.3759 7.69982 13.4542 7.62159L14.4108 6.66659H10.4167C10.3062 6.66659 10.2002 6.62269 10.122 6.54455C10.0439 6.46641 10 6.36043 10 6.24992C10 6.13941 10.0439 6.03343 10.122 5.95529C10.2002 5.87715 10.3062 5.83325 10.4167 5.83325H14.4108L13.455 4.87825C13.3768 4.80001 13.3328 4.6939 13.3328 4.58325C13.3328 4.47261 13.3768 4.36649 13.455 4.28825C13.5332 4.21001 13.6394 4.16606 13.75 4.16606C13.8606 4.16606 13.9668 4.21001 14.045 4.28825L15.7117 5.95492C15.7504 5.99368 15.7811 6.0397 15.8021 6.09035C15.823 6.141 15.8337 6.19529 15.8337 6.25009C15.8336 6.3049 15.8227 6.35915 15.8016 6.40974C15.7805 6.46033 15.7497 6.50627 15.7108 6.54492Z" fill="currentColor"/>
</svg>
