<svg viewBox="0 0 20 20" fill="none" xmlns="http://www.w3.org/2000/svg">
<path d="M10 18C5.58867 18 2 14.4113 2 10C2 5.58867 5.58867 2 10 2C14.4113 2 18 5.58867 18 10C18 14.4113 14.4113 18 10 18ZM10 3.33333C6.324 3.33333 3.33333 6.324 3.33333 10C3.33333 13.676 6.324 16.6667 10 16.6667C13.676 16.6667 16.6667 13.676 16.6667 10C16.6667 6.324 13.676 3.33333 10 3.33333ZM10.6667 13.3333V6.66667C10.6667 6.39733 10.504 6.15333 10.2553 6.05067C10.0053 5.946 9.71867 6.00467 9.52867 6.19533L7.89933 7.82467C7.63867 8.08533 7.63867 8.50667 7.89933 8.76733C8.16 9.028 8.58133 9.028 8.842 8.76733L9.33333 8.276V13.3333C9.33333 13.702 9.632 14 10 14C10.368 14 10.6667 13.702 10.6667 13.3333Z" fill="currentColor"/>
</svg>
