<svg viewBox="0 0 20 20" fill="none" xmlns="http://www.w3.org/2000/svg">
<path d="M15.318 5.5264V3.06667H16.1783C16.4732 3.06667 16.7116 2.82827 16.7116 2.53333C16.7116 2.2384 16.4732 2 16.1783 2H14.7847H5.92705H4.53345C4.23852 2 4.00012 2.2384 4.00012 2.53333C4.00012 2.82827 4.23852 3.06667 4.53345 3.06667H5.39372V5.5264C5.39372 7.02453 6.21452 8.39307 7.53612 9.09813L9.22412 10L7.53612 10.9013C6.21452 11.6064 5.39372 12.9755 5.39372 14.4731V16.9333H4.53345C4.23852 16.9333 4.00012 17.1717 4.00012 17.4667C4.00012 17.7616 4.23852 18 4.53345 18H5.92705H14.7841H16.1777C16.4727 18 16.7111 17.7616 16.7111 17.4667C16.7111 17.1717 16.4727 16.9333 16.1777 16.9333H15.3175V14.4736C15.3175 12.9755 14.4967 11.6069 13.1751 10.9019L11.4876 10L13.1756 9.09867C14.4972 8.39307 15.318 7.02453 15.318 5.5264ZM14.2513 14.4736V16.9333H6.46039V14.4736C6.46039 13.3707 7.06519 12.3621 8.03799 11.8421L10.3559 10.6048L12.6737 11.8421C13.6465 12.3621 14.2513 13.3701 14.2513 14.4736ZM10.3559 9.3952L8.03799 8.15787C7.06519 7.63787 6.46039 6.62987 6.46039 5.5264V3.06667H14.2508V5.5264C14.2508 6.62933 13.646 7.63787 12.6732 8.15787L10.3559 9.3952Z" fill="currentColor"/>
</svg>
