<svg viewBox="0 0 20 20" fill="none" xmlns="http://www.w3.org/2000/svg">
<path d="M6.41422 9.5H3.08578C2.48706 9.5 2 9.01294 2 8.41422V5.08578C2 4.48706 2.48706 4 3.08578 4H6.41422C7.01294 4 7.5 4.48706 7.5 5.08578V8.41422C7.5 9.01294 7.01294 9.5 6.41422 9.5ZM3.08578 5C3.03847 5 3 5.03847 3 5.08578V8.41422C3 8.46153 3.03847 8.5 3.08578 8.5H6.41422C6.46153 8.5 6.5 8.46153 6.5 8.41422V5.08578C6.5 5.03847 6.46153 5 6.41422 5H3.08578Z" fill="currentColor"/>
<path d="M17.5 6.5H9.5C9.22387 6.5 9 6.27613 9 6C9 5.72387 9.22387 5.5 9.5 5.5H17.5C17.7761 5.5 18 5.72387 18 6C18 6.27613 17.7761 6.5 17.5 6.5Z" fill="currentColor"/>
<path d="M14.75 8.375H9.5C9.22387 8.375 9 8.15113 9 7.875C9 7.59887 9.22387 7.375 9.5 7.375H14.75C15.0261 7.375 15.25 7.59887 15.25 7.875C15.25 8.15113 15.0261 8.375 14.75 8.375Z" fill="currentColor"/>
<path d="M6.41422 16.75H3.08578C2.48706 16.75 2 16.2629 2 15.6642V12.3358C2 11.7371 2.48706 11.25 3.08578 11.25H6.41422C7.01294 11.25 7.5 11.7371 7.5 12.3358V15.6642C7.5 16.2629 7.01294 16.75 6.41422 16.75ZM3.08578 12.25C3.03847 12.25 3 12.2885 3 12.3358V15.6642C3 15.7115 3.03847 15.75 3.08578 15.75H6.41422C6.46153 15.75 6.5 15.7115 6.5 15.6642V12.3358C6.5 12.2885 6.46153 12.25 6.41422 12.25H3.08578Z" fill="currentColor"/>
<path d="M17.5 13.625H9.5C9.22387 13.625 9 13.4011 9 13.125C9 12.8489 9.22387 12.625 9.5 12.625H17.5C17.7761 12.625 18 12.8489 18 13.125C18 13.4011 17.7761 13.625 17.5 13.625Z" fill="currentColor"/>
<path d="M14.75 15.625H9.5C9.22387 15.625 9 15.4011 9 15.125C9 14.8489 9.22387 14.625 9.5 14.625H14.75C15.0261 14.625 15.25 14.8489 15.25 15.125C15.25 15.4011 15.0261 15.625 14.75 15.625Z" fill="currentColor"/>
</svg>
