<svg viewBox="0 0 20 20" fill="none" xmlns="http://www.w3.org/2000/svg">
<path d="M9.75108 13.2437C9.26176 13.2437 8.8516 13.6538 8.8516 14.1431C8.8516 14.6325 9.26176 15.0426 9.75108 15.0426C10.2224 15.0426 10.6506 14.6325 10.629 14.1647C10.6506 13.6502 10.244 13.2437 9.75108 13.2437Z" fill="currentColor"/>
<path d="M18.0767 16.4313C18.6416 15.4563 18.6452 14.2941 18.0839 13.3227L12.4495 3.5651C11.8919 2.58286 10.8844 2 9.75468 2C8.62493 2 7.61751 2.58646 7.05983 3.5615L1.41828 13.3299C0.856999 14.3121 0.860597 15.4814 1.42907 16.4565C1.99035 17.4207 2.99417 18 4.11673 18H15.3711C16.4972 18 17.5082 17.4135 18.0767 16.4313ZM16.8534 15.7261C16.5404 16.2658 15.9863 16.586 15.3675 16.586H4.11313C3.50148 16.586 2.951 16.273 2.64517 15.7441C2.33575 15.208 2.33215 14.5676 2.64157 14.0279L8.28313 4.2631C8.58895 3.72701 9.13584 3.41039 9.75468 3.41039C10.3699 3.41039 10.9204 3.73061 11.2262 4.2667L16.8642 14.0315C17.1664 14.5568 17.1628 15.19 16.8534 15.7261Z" fill="currentColor"/>
<path d="M9.52801 6.9292C9.09986 7.05153 8.83361 7.44011 8.83361 7.91144C8.8552 8.19567 8.87319 8.48351 8.89478 8.76775C8.95594 9.85072 9.0171 10.9121 9.07827 11.9951C9.09986 12.3621 9.38409 12.6283 9.75108 12.6283C10.1181 12.6283 10.4059 12.3441 10.4239 11.9735C10.4239 11.7504 10.4239 11.5453 10.4455 11.3187C10.4851 10.6243 10.5282 9.92988 10.5678 9.23548C10.5894 8.78573 10.629 8.33599 10.6506 7.88625C10.6506 7.72434 10.629 7.58043 10.5678 7.43651C10.3843 7.03354 9.95616 6.82846 9.52801 6.9292Z" fill="currentColor"/>
</svg>
