<svg viewBox="0 0 21 20" fill="none" xmlns="http://www.w3.org/2000/svg">
<path d="M7.7 10.625H3.325C2.82772 10.625 2.3508 10.8225 1.99917 11.1742C1.64754 11.5258 1.45 12.0027 1.45 12.5V16.875C1.45 17.3723 1.64754 17.8492 1.99917 18.2008C2.3508 18.5525 2.82772 18.75 3.325 18.75H7.7C8.19728 18.75 8.67419 18.5525 9.02582 18.2008C9.37745 17.8492 9.575 17.3723 9.575 16.875V12.5C9.575 12.0027 9.37745 11.5258 9.02582 11.1742C8.67419 10.8225 8.19728 10.625 7.7 10.625ZM8.325 16.875C8.325 17.0408 8.25915 17.1997 8.14194 17.3169C8.02473 17.4342 7.86576 17.5 7.7 17.5H3.325C3.15924 17.5 3.00027 17.4342 2.88306 17.3169C2.76585 17.1997 2.7 17.0408 2.7 16.875V12.5C2.7 12.3342 2.76585 12.1753 2.88306 12.0581C3.00027 11.9408 3.15924 11.875 3.325 11.875H7.7C7.86576 11.875 8.02473 11.9408 8.14194 12.0581C8.25915 12.1753 8.325 12.3342 8.325 12.5V16.875Z" fill="currentColor"/>
<path d="M14.8875 10.625C14.084 10.625 13.2986 10.8633 12.6305 11.3097C11.9624 11.756 11.4417 12.3905 11.1342 13.1328C10.8268 13.8752 10.7463 14.692 10.9031 15.4801C11.0598 16.2681 11.4467 16.992 12.0149 17.5601C12.583 18.1283 13.3069 18.5152 14.0949 18.6719C14.883 18.8287 15.6998 18.7482 16.4421 18.4408C17.1845 18.1333 17.8189 17.6126 18.2653 16.9445C18.7117 16.2764 18.95 15.491 18.95 14.6875C18.9487 13.6105 18.5202 12.5779 17.7587 11.8163C16.9971 11.0548 15.9645 10.6263 14.8875 10.625ZM14.8875 17.5C14.3312 17.5 13.7875 17.335 13.325 17.026C12.8624 16.717 12.502 16.2777 12.2891 15.7638C12.0762 15.2499 12.0205 14.6844 12.129 14.1388C12.2376 13.5932 12.5054 13.0921 12.8988 12.6988C13.2921 12.3054 13.7932 12.0376 14.3388 11.929C14.8844 11.8205 15.4499 11.8762 15.9638 12.0891C16.4777 12.302 16.917 12.6624 17.226 13.125C17.535 13.5875 17.7 14.1312 17.7 14.6875C17.6992 15.4332 17.4026 16.1481 16.8753 16.6753C16.3481 17.2026 15.6332 17.4992 14.8875 17.5Z" fill="currentColor"/>
<path d="M7.43687 9.37499H12.9631C13.2967 9.37497 13.6242 9.28597 13.9119 9.11716C14.1996 8.94835 14.4371 8.70585 14.5998 8.41467C14.7625 8.12349 14.8446 7.79417 14.8376 7.46067C14.8306 7.12718 14.7348 6.80159 14.56 6.51749L11.7969 2.02686C11.629 1.75414 11.3942 1.52895 11.1146 1.37274C10.8351 1.21653 10.5202 1.13452 10.2 1.13452C9.87978 1.13452 9.56489 1.21653 9.28535 1.37274C9.00582 1.52895 8.77094 1.75414 8.60312 2.02686L5.84 6.51749C5.66521 6.80159 5.56937 7.12718 5.56238 7.46067C5.55539 7.79417 5.63748 8.12349 5.80021 8.41467C5.96293 8.70585 6.20039 8.94835 6.48809 9.11716C6.77578 9.28597 7.10331 9.37497 7.43687 9.37499ZM6.905 7.17311L9.6675 2.68249C9.72355 2.59205 9.80176 2.51741 9.89473 2.46565C9.9877 2.41389 10.0923 2.38673 10.1987 2.38673C10.3052 2.38673 10.4098 2.41389 10.5028 2.46565C10.5957 2.51741 10.6739 2.59205 10.73 2.68249L13.4925 7.17311C13.5505 7.26759 13.5823 7.37579 13.5847 7.48661C13.587 7.59743 13.5599 7.70689 13.506 7.80377C13.4521 7.90064 13.3735 7.98145 13.2781 8.03789C13.1827 8.09434 13.074 8.1244 12.9631 8.12499H7.43687C7.32581 8.12484 7.2168 8.0951 7.12105 8.03884C7.0253 7.98257 6.94627 7.9018 6.8921 7.80485C6.83793 7.7079 6.81057 7.59827 6.81283 7.48723C6.8151 7.3762 6.84691 7.26777 6.905 7.17311Z" fill="currentColor"/>
</svg>
