<svg viewBox="0 0 20 20" fill="none" xmlns="http://www.w3.org/2000/svg">
<path d="M16.5882 4H3.41176C2.63207 4 2 4.63207 2 5.41176V14.8235C2 15.6032 2.63207 16.2353 3.41176 16.2353H16.5882C17.3679 16.2353 18 15.6032 18 14.8235V5.41176C18 4.63207 17.3679 4 16.5882 4Z" fill="white" stroke="currentColor"/>
<mask id="path-2-inside-1_11835_73769" fill="white">
<path d="M7.15359 12.4997V9.5724C6.60886 9.99057 6.24213 10.1997 6.05341 10.1997C5.96333 10.1997 5.88291 10.1643 5.81213 10.0935C5.74351 10.0206 5.7092 9.93702 5.7092 9.84262C5.7092 9.73325 5.74351 9.65278 5.81213 9.6013C5.88077 9.54991 6.00193 9.48337 6.17565 9.40186C6.43515 9.2797 6.6421 9.15095 6.79651 9.01589C6.95307 8.88073 7.0914 8.72958 7.2115 8.56224C7.33159 8.39499 7.40987 8.29203 7.44633 8.25344C7.48279 8.21485 7.55141 8.19556 7.65221 8.19556C7.76588 8.19556 7.85702 8.23951 7.92565 8.32742C7.99428 8.41542 8.02859 8.53655 8.02859 8.69099V12.3743C8.02859 12.8053 7.88169 13.0209 7.58787 13.0209C7.45705 13.0209 7.35197 12.9769 7.27261 12.889C7.19326 12.8011 7.15359 12.6713 7.15359 12.4997Z"/>
</mask>
<path d="M7.15359 12.4997V9.5724C6.60886 9.99057 6.24213 10.1997 6.05341 10.1997C5.96333 10.1997 5.88291 10.1643 5.81213 10.0935C5.74351 10.0206 5.7092 9.93702 5.7092 9.84262C5.7092 9.73325 5.74351 9.65278 5.81213 9.6013C5.88077 9.54991 6.00193 9.48337 6.17565 9.40186C6.43515 9.2797 6.6421 9.15095 6.79651 9.01589C6.95307 8.88073 7.0914 8.72958 7.2115 8.56224C7.33159 8.39499 7.40987 8.29203 7.44633 8.25344C7.48279 8.21485 7.55141 8.19556 7.65221 8.19556C7.76588 8.19556 7.85702 8.23951 7.92565 8.32742C7.99428 8.41542 8.02859 8.53655 8.02859 8.69099V12.3743C8.02859 12.8053 7.88169 13.0209 7.58787 13.0209C7.45705 13.0209 7.35197 12.9769 7.27261 12.889C7.19326 12.8011 7.15359 12.6713 7.15359 12.4997Z" fill="currentColor"/>
<path d="M7.15359 9.5724H8.15359V7.54409L6.54467 8.77917L7.15359 9.5724ZM5.81213 10.0935L5.08379 10.7787L5.09424 10.7899L5.10503 10.8006L5.81213 10.0935ZM5.81213 9.6013L5.21277 8.80082L5.21201 8.80139L5.81213 9.6013ZM6.17565 9.40186L6.60041 10.3072L6.60158 10.3066L6.17565 9.40186ZM6.79651 9.01589L6.14303 8.25892L6.13814 8.26319L6.79651 9.01589ZM7.2115 8.56224L6.39922 7.97897L6.39906 7.97919L7.2115 8.56224ZM7.92565 8.32742L8.71419 7.71244L8.71387 7.71203L7.92565 8.32742ZM8.15359 12.4997V9.5724H6.15359V12.4997H8.15359ZM6.54467 8.77917C6.28905 8.9754 6.10181 9.10166 5.97467 9.17416C5.9445 9.19136 5.92083 9.20373 5.90318 9.21232C5.89448 9.21656 5.88781 9.2196 5.88306 9.22167C5.87829 9.22375 5.87598 9.22462 5.87599 9.22461C5.87603 9.2246 5.87678 9.22432 5.87822 9.22382C5.87966 9.22333 5.88189 9.22259 5.88489 9.22167C5.89074 9.21987 5.90048 9.21709 5.91379 9.21411C5.93839 9.2086 5.98698 9.1997 6.05341 9.1997V11.1997C6.43401 11.1997 6.77485 11.0202 6.96532 10.9116C7.20491 10.775 7.47341 10.5876 7.76252 10.3656L6.54467 8.77917ZM6.05341 9.1997C6.14347 9.1997 6.23835 9.21827 6.32829 9.25785C6.41622 9.29654 6.47905 9.34624 6.51924 9.38643L5.10503 10.8006C5.34048 11.0361 5.66745 11.1997 6.05341 11.1997V9.1997ZM6.54048 9.40832C6.5808 9.45118 6.62607 9.51363 6.66008 9.59651C6.69452 9.68044 6.7092 9.76545 6.7092 9.84262H4.7092C4.7092 10.2085 4.85258 10.533 5.08379 10.7787L6.54048 9.40832ZM6.7092 9.84262C6.7092 9.89011 6.70197 9.98189 6.65476 10.0926C6.60442 10.2106 6.52135 10.3194 6.41226 10.4012L5.21201 8.80139C4.82402 9.09247 4.7092 9.51398 4.7092 9.84262H6.7092ZM6.4115 10.4018C6.3927 10.4159 6.39466 10.412 6.43557 10.3895C6.47223 10.3694 6.52601 10.3421 6.60041 10.3072L5.75088 8.49656C5.57156 8.5807 5.36961 8.68338 5.21277 8.80082L6.4115 10.4018ZM6.60158 10.3066C6.91489 10.1591 7.20902 9.98363 7.45488 9.76858L6.13814 8.26319C6.07519 8.31826 5.9554 8.40028 5.74972 8.49711L6.60158 10.3066ZM7.44998 9.77284C7.66577 9.58655 7.85756 9.37711 8.02393 9.14529L6.39906 7.97919C6.32524 8.08205 6.24036 8.17492 6.14304 8.25893L7.44998 9.77284ZM8.02377 9.14551C8.08123 9.0655 8.12491 9.00613 8.15628 8.96488C8.17195 8.94427 8.18221 8.93127 8.18796 8.92417C8.19591 8.91437 8.18941 8.92306 8.17318 8.94023L6.71947 7.56665C6.62655 7.66499 6.50528 7.83127 6.39922 7.97897L8.02377 9.14551ZM8.17318 8.94023C8.03152 9.09016 7.87795 9.14961 7.7958 9.1727C7.71402 9.1957 7.65876 9.19556 7.65221 9.19556V7.19556C7.49825 7.19556 7.05648 7.20998 6.71947 7.56665L8.17318 8.94023ZM7.65221 9.19556C7.5773 9.19556 7.47723 9.18027 7.37146 9.12926C7.26509 9.07797 7.18781 9.00733 7.13743 8.9428L8.71387 7.71203C8.45153 7.376 8.06692 7.19556 7.65221 7.19556V9.19556ZM7.13711 8.9424C7.02466 8.79822 7.02859 8.67524 7.02859 8.69099H9.02859C9.02859 8.39785 8.9639 8.03262 8.71419 7.71244L7.13711 8.9424ZM7.02859 8.69099V12.3743H9.02859V8.69099H7.02859ZM7.02859 12.3743C7.02859 12.4284 7.02367 12.4454 7.02589 12.4356C7.02808 12.426 7.04197 12.3696 7.0921 12.296C7.1467 12.2159 7.23065 12.1363 7.34137 12.0821C7.44751 12.0302 7.53883 12.0209 7.58787 12.0209V14.0209C8.01671 14.0209 8.45911 13.8415 8.74472 13.4224C8.98349 13.0721 9.02859 12.6722 9.02859 12.3743H7.02859ZM7.58787 12.0209C7.63542 12.0209 7.71033 12.0292 7.79681 12.0654C7.88567 12.1025 7.95987 12.158 8.01492 12.219L6.53031 13.5591C6.82034 13.8804 7.20713 14.0209 7.58787 14.0209V12.0209ZM8.01492 12.219C8.16264 12.3826 8.15359 12.5335 8.15359 12.4997H6.15359C6.15359 12.8091 6.22389 13.2196 6.53031 13.5591L8.01492 12.219Z" fill="currentColor" mask="url(#path-2-inside-1_11835_73769)"/>
<path d="M13.6107 7.84656L13.6108 7.84666L13.6107 7.84656ZM13.7647 8.00058L14.4399 8.6758H13.0895L13.7647 8.00058Z" fill="currentColor" stroke="currentColor"/>
<path d="M14.4398 11.5591L13.7645 12.2343L13.0893 11.5591H14.4398Z" fill="currentColor" stroke="currentColor"/>
</svg>
