<svg viewBox="0 0 20 20" fill="none" xmlns="http://www.w3.org/2000/svg">
<path d="M7.89565 3.35718H9.01474V8.95263H7.89565V3.35718Z" fill="currentColor"/>
<path d="M11.2529 6.71445H11.8125C12.7381 6.71445 13.4911 5.96141 13.4911 5.03581C13.4911 4.11021 12.7381 3.35718 11.8125 3.35718H10.1338V8.95263H11.2529V6.71445ZM11.2529 4.47627H11.8125C12.121 4.47627 12.372 4.72728 12.372 5.03581C12.372 5.34435 12.121 5.59536 11.8125 5.59536H11.2529V4.47627Z" fill="currentColor"/>
<path d="M10.7145 15.8381V14.2238L14.4623 10.5517C15.6538 9.38432 16.31 7.82285 16.31 6.155C16.31 2.76113 13.5489 0 10.155 0C6.76113 0 4 2.76113 4 6.155C4 7.82285 4.6562 9.38432 5.84766 10.5517L9.59545 14.2238V15.8381C9.11932 16.007 8.74148 16.3848 8.57261 16.861H4V17.9801H8.57261C8.80359 18.6313 9.42554 19.0991 10.155 19.0991C10.8845 19.0991 11.5064 18.6313 11.7374 17.9801H16.31V16.861H11.7374C11.5685 16.3848 11.1907 16.007 10.7145 15.8381ZM5.11909 6.155C5.11909 3.3782 7.3782 1.11909 10.155 1.11909C12.9318 1.11909 15.1909 3.3782 15.1909 6.155C15.1909 7.51962 14.654 8.79717 13.6791 9.75235L10.155 13.2053L6.63087 9.75235C5.65599 8.79717 5.11909 7.51962 5.11909 6.155ZM10.155 17.9801C9.84647 17.9801 9.59545 17.729 9.59545 17.4205C9.59545 17.112 9.84647 16.861 10.155 16.861C10.4635 16.861 10.7145 17.112 10.7145 17.4205C10.7145 17.729 10.4635 17.9801 10.155 17.9801Z" fill="currentColor"/>
</svg>
