<svg viewBox="0 0 20 20" fill="none" xmlns="http://www.w3.org/2000/svg">
<path d="M12.2481 11.1836C11.7745 11.1836 11.3906 10.7997 11.3906 10.3262C11.3906 9.85267 11.7745 9.46875 12.2481 9.46875C12.7216 9.46875 13.1054 9.85267 13.1054 10.3262C13.1054 10.7997 12.7216 11.1836 12.2481 11.1836Z" fill="currentColor"/>
<path d="M9.6004 11.1836C9.12688 11.1836 8.74296 10.7997 8.74296 10.3262C8.74296 9.85267 9.12688 9.46875 9.6004 9.46875C10.0739 9.46875 10.4578 9.85267 10.4578 10.3262C10.4578 10.7997 10.0739 11.1836 9.6004 11.1836Z" fill="currentColor"/>
<path d="M6.95195 11.1836C6.47842 11.1836 6.09453 10.7997 6.09453 10.3262C6.09453 9.85267 6.47842 9.46875 6.95195 9.46875C7.4255 9.46875 7.80938 9.85267 7.80938 10.3262C7.80938 10.7997 7.4255 11.1836 6.95195 11.1836Z" fill="currentColor"/>
<path fill-rule="evenodd" clip-rule="evenodd" d="M3.42854 6.09551C3.42854 4.88048 4.41351 3.89551 5.62854 3.89551H5.89055C6.22192 3.89551 6.49055 4.16413 6.49055 4.49551C6.49055 4.82688 6.22192 5.09551 5.89055 5.09551H5.62854C5.07626 5.09551 4.62854 5.54322 4.62854 6.09551V8.66059C4.62854 8.82627 4.56002 8.98459 4.43921 9.09803L3.59646 9.88915C3.34402 10.1262 3.34402 10.5271 3.59646 10.764L4.43921 11.5552C4.56002 11.6687 4.62854 11.827 4.62854 11.9927V14.5577C4.62854 15.11 5.07626 15.5577 5.62854 15.5577H5.89055C6.22192 15.5577 6.49055 15.8263 6.49055 16.1577C6.49055 16.4891 6.22192 16.7577 5.89055 16.7577H5.62854C4.41351 16.7577 3.42854 15.7727 3.42854 14.5577V12.2523L2.77514 11.639C2.01779 10.9279 2.01779 9.72531 2.77514 9.01427L3.42854 8.40091V6.09551Z" fill="currentColor"/>
<path fill-rule="evenodd" clip-rule="evenodd" d="M15.7714 6.09551C15.7714 4.88048 14.7864 3.89551 13.5714 3.89551H13.3094C12.978 3.89551 12.7094 4.16413 12.7094 4.49551C12.7094 4.82688 12.978 5.09551 13.3094 5.09551H13.5714C14.1237 5.09551 14.5714 5.54322 14.5714 6.09551V8.66059C14.5714 8.82627 14.6399 8.98459 14.7607 9.09803L15.6034 9.88915C15.8559 10.1262 15.8559 10.5271 15.6034 10.764L14.7607 11.5552C14.6399 11.6687 14.5714 11.827 14.5714 11.9927V14.5577C14.5714 15.11 14.1237 15.5577 13.5714 15.5577H13.3094C12.978 15.5577 12.7094 15.8263 12.7094 16.1577C12.7094 16.4891 12.978 16.7577 13.3094 16.7577H13.5714C14.7864 16.7577 15.7714 15.7727 15.7714 14.5577V12.2523L16.4248 11.639C17.1821 10.9279 17.1821 9.72531 16.4248 9.01427L15.7714 8.40091V6.09551Z" fill="currentColor"/>
</svg>
