<svg viewBox="0 0 20 20" fill="none" xmlns="http://www.w3.org/2000/svg">
<path d="M2.19003 17.8924C2.2493 17.9392 2.3184 17.972 2.39214 17.9882C2.46588 18.0045 2.54235 18.0039 2.61581 17.9864L6.93109 16.958L11.2463 17.9864C11.3225 18.0045 11.4019 18.0045 11.4781 17.9864L15.9094 16.9304C16.0188 16.9043 16.1162 16.8421 16.1859 16.7539C16.2556 16.6656 16.2935 16.5564 16.2935 16.444V10.2252C16.8497 9.37027 17.4355 8.20393 17.583 6.92837C17.7465 5.51409 17.317 4.25069 16.341 3.27469C15.5191 2.45269 14.4114 2 13.2219 2C12.0324 2 10.9246 2.45269 10.1025 3.27462C9.14143 4.23572 8.71074 5.47565 8.85393 6.86381L7.0469 6.43318C6.97071 6.415 6.89131 6.415 6.81512 6.43318L2.38409 7.48915C2.2747 7.51522 2.1773 7.5774 2.1076 7.66565C2.03791 7.7539 2 7.86307 2 7.97553V17.5C1.99999 17.5755 2.01708 17.65 2.04999 17.718C2.0829 17.786 2.13078 17.8456 2.19003 17.8924ZM10.4419 10.6513C10.5763 10.8379 10.7169 11.0208 10.8623 11.1986V16.8668L7.43109 16.0491V7.55271L9.0699 7.94334C9.3884 9.03062 9.96124 9.98349 10.4419 10.6513ZM11.8623 16.8669V12.269C12.1995 12.5888 12.5665 12.8755 12.9583 13.1254C13.0374 13.1745 13.1287 13.2005 13.2219 13.2005C13.315 13.2005 13.4063 13.1745 13.4854 13.1254C14.0698 12.7629 14.7079 12.1985 15.2935 11.5369V16.0491L11.8623 16.8669ZM10.8098 3.98175C11.4429 3.34865 12.2994 3 13.2219 3C14.1443 3 15.0009 3.34865 15.634 3.98175C16.3971 4.74487 16.7186 5.69759 16.5896 6.81346C16.3453 8.92721 14.5604 11.1373 13.2219 12.0989C11.8834 11.1373 10.0985 8.92721 9.85412 6.81346C9.72512 5.69759 10.0466 4.74487 10.8098 3.98175ZM3 8.37037L6.43125 7.55271V16.0492L3 16.8668V8.37037ZM13.2219 9.06287C13.7017 9.06287 14.1707 8.9206 14.5697 8.65403C14.9686 8.38747 15.2796 8.00859 15.4632 7.5653C15.6468 7.12201 15.6949 6.63423 15.6013 6.16364C15.5076 5.69304 15.2766 5.26078 14.9373 4.9215C14.598 4.58221 14.1658 4.35116 13.6952 4.25755C13.2246 4.16394 12.7368 4.21198 12.2935 4.3956C11.8502 4.57921 11.4714 4.89016 11.2048 5.2891C10.9382 5.68805 10.7959 6.15709 10.7959 6.6369C10.7967 7.28008 11.0525 7.89671 11.5073 8.3515C11.9621 8.8063 12.5787 9.06213 13.2219 9.06287ZM13.2219 5.21097C13.5039 5.21096 13.7796 5.29459 14.0141 5.45127C14.2486 5.60796 14.4314 5.83066 14.5393 6.09122C14.6472 6.35179 14.6755 6.6385 14.6205 6.91512C14.5654 7.19173 14.4296 7.44582 14.2302 7.64524C14.0308 7.84467 13.7767 7.98048 13.5001 8.0355C13.2235 8.09052 12.9368 8.06228 12.6762 7.95435C12.4156 7.84642 12.1929 7.66364 12.0362 7.42914C11.8795 7.19463 11.7959 6.91893 11.7959 6.6369C11.7964 6.25885 11.9467 5.89641 12.2141 5.62909C12.4814 5.36177 12.8438 5.2114 13.2219 5.21097Z" fill="currentColor"/>
</svg>
