<svg viewBox="0 0 20 20" fill="none" xmlns="http://www.w3.org/2000/svg">
<path d="M10 2C5.58804 2 2 5.58804 2 10C2 14.412 5.58804 18 10 18C14.412 18 18 14.412 18 10C18 5.58804 14.412 2 10 2ZM10 3.06667C13.8355 3.06667 16.9375 6.16451 16.9375 10C16.9375 13.8355 13.8355 16.9375 10 16.9375C6.16451 16.9375 3.06667 13.8355 3.06667 10C3.06667 6.16451 6.16451 3.06667 10 3.06667ZM9.99271 5.73646C9.85181 5.73894 9.71761 5.79708 9.61944 5.89818C9.52127 5.99928 9.46709 6.13513 9.46875 6.27604V6.725C8.6076 6.88655 7.87083 7.44107 7.87083 8.40208C7.87083 9.06875 8.17137 9.60794 8.575 9.92187C8.97863 10.2358 9.43438 10.375 9.83437 10.5083C10.2344 10.6417 10.5797 10.7691 10.776 10.9219C10.9724 11.0746 11.0667 11.2031 11.0667 11.6031C11.0667 12.492 8.9375 12.492 8.9375 11.6031C8.93908 11.5321 8.92645 11.4615 8.90035 11.3954C8.87426 11.3293 8.83522 11.2691 8.78554 11.2183C8.73586 11.1675 8.67654 11.1271 8.61104 11.0996C8.54555 11.072 8.47522 11.0578 8.40417 11.0578C8.33312 11.0578 8.26278 11.072 8.19729 11.0996C8.1318 11.1271 8.07247 11.1675 8.02279 11.2183C7.97311 11.2691 7.93408 11.3293 7.90798 11.3954C7.88189 11.4615 7.86926 11.5321 7.87083 11.6031C7.87083 12.5634 8.60826 13.119 9.46875 13.2812V13.7281C9.46717 13.7992 9.4798 13.8698 9.5059 13.9359C9.53199 14.002 9.57103 14.0622 9.62071 14.113C9.67039 14.1638 9.72971 14.2041 9.79521 14.2317C9.8607 14.2592 9.93103 14.2734 10.0021 14.2734C10.0731 14.2734 10.1435 14.2592 10.209 14.2317C10.2745 14.2041 10.3338 14.1638 10.3835 14.113C10.4331 14.0622 10.4722 14.002 10.4983 13.9359C10.5244 13.8698 10.537 13.7992 10.5354 13.7281V13.2812C11.3961 13.119 12.1344 12.5635 12.1344 11.6031C12.1344 10.9365 11.8328 10.3973 11.4292 10.0833C11.0255 9.7694 10.5698 9.62917 10.1698 9.49583C9.76979 9.3625 9.4245 9.23607 9.22813 9.08333C9.03175 8.9306 8.9375 8.80208 8.9375 8.40208C8.9375 7.5132 11.0667 7.5132 11.0667 8.40208C11.0667 8.54367 11.1229 8.67946 11.223 8.77958C11.3231 8.87969 11.4589 8.93594 11.6005 8.93594C11.7421 8.93594 11.8779 8.87969 11.978 8.77958C12.0781 8.67946 12.1344 8.54367 12.1344 8.40208C12.1344 7.44252 11.3958 6.88854 10.5354 6.72604V6.27604C10.5363 6.20469 10.5228 6.13389 10.4958 6.06784C10.4687 6.00179 10.4287 5.94183 10.3781 5.89151C10.3275 5.8412 10.2673 5.80155 10.2011 5.77492C10.1349 5.74828 10.0641 5.73521 9.99271 5.73646Z" fill="currentColor"/>
</svg>
