<svg viewBox="0 0 20 20" fill="none" xmlns="http://www.w3.org/2000/svg">
<path d="M15.9782 4.68466L16.8939 3.76897C17.077 3.58591 17.077 3.28912 16.8939 3.10606C16.7109 2.923 16.4141 2.923 16.231 3.10606L15.3153 4.02175C13.9021 2.76431 12.0405 2 10 2C5.58172 2 2 5.58172 2 10C2 12.0405 2.76431 13.9021 4.02175 15.3153L3.10603 16.2311C2.92297 16.4141 2.92297 16.7109 3.10603 16.894C3.28909 17.077 3.58588 17.077 3.76894 16.894L4.68466 15.9782C6.09787 17.2357 7.95953 18 10 18C14.4183 18 18 14.4183 18 10C18 7.95953 17.2357 6.09787 15.9782 4.68466ZM2.9375 10C2.9375 6.0995 6.0995 2.9375 10 2.9375C11.7816 2.9375 13.4088 3.59741 14.6513 4.68581L4.68581 14.6513C3.59741 13.4088 2.9375 11.7816 2.9375 10ZM10 17.0625C8.21844 17.0625 6.59119 16.4026 5.34872 15.3142L15.3142 5.34869C16.4026 6.59119 17.0625 8.21844 17.0625 10C17.0625 13.9005 13.9005 17.0625 10 17.0625Z" fill="currentColor"/>
</svg>
