<svg viewBox="0 0 20 20" fill="none" xmlns="http://www.w3.org/2000/svg">
<g clip-path="url(#clip0_11835_73772)">
<path d="M14.5 15.4431C13.2384 16.4874 11.6403 17.0624 10 17.0624C8.11344 17.0624 6.34 16.3277 5.00594 14.994C3.67219 13.6599 2.9375 11.8865 2.9375 9.99993C2.9375 9.69556 2.95688 9.39024 2.99563 9.09181C3.05188 8.65149 3.15031 8.21493 3.28844 7.79431C3.29203 7.78337 3.29588 7.77237 3.29953 7.7614C3.33478 7.76406 3.37031 7.76587 3.40622 7.76587C4.18153 7.76587 4.81247 7.13493 4.81247 6.35962C4.81247 5.58431 4.18153 4.95337 3.40622 4.95337C2.63091 4.95337 1.99997 5.58431 1.99997 6.35962C1.99997 6.76059 2.169 7.12268 2.43922 7.37912C2.425 7.42006 2.41116 7.46099 2.39778 7.50184C2.24122 7.97903 2.12934 8.47403 2.06559 8.97246C2.02219 9.30962 2 9.65524 2 9.99993C2 12.1368 2.83219 14.1459 4.34313 15.6568C5.85406 17.1677 7.86313 17.9999 10 17.9999C11.8581 17.9999 13.6688 17.3484 15.0978 16.1649C15.2975 15.9999 15.3253 15.7046 15.16 15.5052C14.995 15.3056 14.6997 15.2777 14.5 15.4431Z" fill="currentColor"/>
<path d="M17.5608 12.6208C17.575 12.5799 17.5888 12.539 17.6022 12.4981C17.7588 12.0209 17.8706 11.5259 17.9344 11.0275C17.9778 10.6903 18 10.3447 18 10C18 7.86312 17.1678 5.85406 15.6569 4.34313C14.1459 2.83219 12.1369 2 10 2C8.14188 2 6.33125 2.65156 4.90219 3.835C4.7025 4 4.67469 4.29531 4.84 4.49469C5.005 4.69438 5.30032 4.72219 5.5 4.55687C6.76157 3.5125 8.35969 2.9375 10 2.9375C11.8866 2.9375 13.66 3.67219 14.9941 5.00594C16.3278 6.34 17.0625 8.11344 17.0625 10C17.0625 10.3044 17.0431 10.6097 17.0044 10.9081C16.9481 11.3484 16.8497 11.785 16.7116 12.2056C16.708 12.2166 16.7041 12.2276 16.7005 12.2385C16.6652 12.2359 16.6297 12.2341 16.5938 12.2341C15.8184 12.2341 15.1875 12.865 15.1875 13.6403C15.1875 14.4156 15.8184 15.0466 16.5938 15.0466C17.3691 15.0466 18 14.4156 18 13.6403C18 13.2393 17.831 12.8772 17.5608 12.6208Z" fill="currentColor"/>
<path d="M12.6615 13.2031C12.4026 13.2031 12.1927 12.9932 12.1927 12.7343V8.74119L11.8934 9.08825C11.7243 9.28428 11.4283 9.30615 11.2323 9.13706C11.0362 8.96797 11.0144 8.672 11.1835 8.47594L12.3065 7.17384C12.4345 7.0255 12.6412 6.97237 12.8248 7.04062C13.0084 7.10887 13.1302 7.28412 13.1302 7.48V12.7343C13.1302 12.9932 12.9204 13.2031 12.6615 13.2031Z" fill="currentColor"/>
<path d="M8.17044 13.2031C7.07416 13.2031 6.18225 12.3112 6.18225 11.215V8.78503C6.18225 7.68875 7.07416 6.79688 8.17044 6.79688C9.26672 6.79688 10.1586 7.68878 10.1586 8.78503V11.215C10.1586 12.3112 9.26669 13.2031 8.17044 13.2031ZM8.17044 7.73438C7.59109 7.73438 7.11975 8.20572 7.11975 8.78503V11.215C7.11975 11.7943 7.59109 12.2656 8.17044 12.2656C8.74978 12.2656 9.22109 11.7943 9.22109 11.215V8.78503C9.22109 8.20572 8.74975 7.73438 8.17044 7.73438Z" fill="currentColor"/>
</g>
<defs>
<clipPath id="clip0_11835_73772">
<rect width="16" height="16" fill="white" transform="translate(2 2)"/>
</clipPath>
</defs>
</svg>
