<svg viewBox="0 0 21 20" fill="none" xmlns="http://www.w3.org/2000/svg">
<path d="M18.4422 8.22266C18.3452 8.22266 18.2502 8.2309 18.1575 8.24605L15.625 3.5768C15.8952 3.26762 16.0594 2.86371 16.0594 2.42188C16.0594 1.45262 15.2708 0.664062 14.3016 0.664062C13.5453 0.664062 12.8991 1.14414 12.6516 1.81555H7.7484C7.50086 1.14414 6.85468 0.664062 6.09843 0.664062C5.12918 0.664062 4.34062 1.45262 4.34062 2.42188C4.34062 2.86367 4.50484 3.26762 4.77492 3.57676L2.2425 8.24602C2.1498 8.23086 2.05476 8.22266 1.95781 8.22266C0.988552 8.22266 0.199997 9.01121 0.199997 9.98047C0.199997 10.9497 0.988552 11.7383 1.95781 11.7383C2.04797 11.7383 2.13656 11.7314 2.22312 11.7182L4.77492 16.4232C4.5048 16.7324 4.34062 17.1363 4.34062 17.5781C4.34062 18.5474 5.12918 19.3359 6.09843 19.3359C6.85468 19.3359 7.5009 18.8559 7.7484 18.1845H12.6516C12.8991 18.8559 13.5453 19.3359 14.3016 19.3359C15.2708 19.3359 16.0594 18.5474 16.0594 17.5781C16.0594 17.1363 15.8952 16.7324 15.6251 16.4232L18.1769 11.7182C18.2634 11.7314 18.352 11.7383 18.4422 11.7383C19.4115 11.7383 20.2 10.9497 20.2 9.98047C20.2 9.01121 19.4114 8.22266 18.4422 8.22266ZM14.3016 15.8203C13.5302 15.8203 12.8737 16.32 12.6376 17.0126H7.76234C7.52632 16.32 6.86984 15.8203 6.09843 15.8203C5.99511 15.8203 5.89398 15.8298 5.7955 15.847L3.2559 11.1644C3.54129 10.8518 3.71562 10.4361 3.71562 9.98047C3.71562 9.53191 3.54652 9.1223 3.26902 8.81137L5.7955 4.15301C5.89398 4.1702 5.99511 4.17969 6.09843 4.17969C6.86984 4.17969 7.52632 3.67996 7.76234 2.98742H12.6376C12.8737 3.67996 13.5302 4.17969 14.3016 4.17969C14.4049 4.17969 14.506 4.1702 14.6045 4.15305L17.1309 8.81141C16.8535 9.1223 16.6844 9.53191 16.6844 9.98047C16.6844 10.4361 16.8587 10.8518 17.1441 11.1644L14.6045 15.847C14.506 15.8298 14.4049 15.8203 14.3016 15.8203ZM14.3016 1.83594C14.6246 1.83594 14.8875 2.09879 14.8875 2.42188C14.8875 2.74496 14.6246 3.00781 14.3016 3.00781C13.9785 3.00781 13.7156 2.74496 13.7156 2.42188C13.7156 2.09879 13.9785 1.83594 14.3016 1.83594ZM6.09843 1.83594C6.42152 1.83594 6.68437 2.09879 6.68437 2.42188C6.68437 2.74496 6.42152 3.00781 6.09843 3.00781C5.77535 3.00781 5.5125 2.74496 5.5125 2.42188C5.5125 2.09879 5.77535 1.83594 6.09843 1.83594ZM1.37187 9.98047C1.37187 9.65738 1.63472 9.39453 1.95781 9.39453C2.2809 9.39453 2.54375 9.65738 2.54375 9.98047C2.54375 10.3036 2.2809 10.5664 1.95781 10.5664C1.63472 10.5664 1.37187 10.3036 1.37187 9.98047ZM6.09843 18.1641C5.77535 18.1641 5.5125 17.9012 5.5125 17.5781C5.5125 17.255 5.77535 16.9922 6.09843 16.9922C6.42152 16.9922 6.68437 17.255 6.68437 17.5781C6.68437 17.9012 6.42152 18.1641 6.09843 18.1641ZM14.3016 18.1641C13.9785 18.1641 13.7156 17.9012 13.7156 17.5781C13.7156 17.255 13.9785 16.9922 14.3016 16.9922C14.6246 16.9922 14.8875 17.255 14.8875 17.5781C14.8875 17.9012 14.6246 18.1641 14.3016 18.1641ZM18.4422 10.5664C18.1191 10.5664 17.8562 10.3036 17.8562 9.98047C17.8562 9.65738 18.1191 9.39453 18.4422 9.39453C18.7653 9.39453 19.0281 9.65738 19.0281 9.98047C19.0281 10.3036 18.7653 10.5664 18.4422 10.5664Z" fill="currentColor"/>
<path d="M13.0875 5.62414C12.305 5.32305 11.2795 5.15723 10.2 5.15723C9.1205 5.15723 8.095 5.32305 7.31246 5.62414C6.01824 6.12211 5.825 6.8259 5.825 7.20106V12.7989C5.825 13.1747 6.01797 13.8793 7.31031 14.3766C8.09148 14.6772 9.11773 14.8427 10.2 14.8427C11.2823 14.8427 12.3085 14.6772 13.0897 14.3766C14.382 13.8793 14.575 13.1747 14.575 12.7989C14.575 12.7989 14.575 7.23734 14.575 7.20106C14.575 6.8259 14.3818 6.12211 13.0875 5.62414ZM13.4031 9.92934C13.3948 9.9766 13.2266 10.2132 12.5978 10.4411C11.9548 10.6742 11.1032 10.8025 10.2 10.8025C9.29675 10.8025 8.44519 10.6742 7.80215 10.4411C7.17218 10.2129 7.00457 9.9757 6.99687 9.93066V8.6423C7.09414 8.68883 7.19882 8.73422 7.31246 8.77793C8.095 9.07902 9.12047 9.24484 10.2 9.24484C11.2795 9.24484 12.305 9.07902 13.0875 8.77793C13.2012 8.73418 13.3059 8.68883 13.4032 8.64227L13.4031 9.92934ZM7.81234 6.6884C8.4557 6.45668 9.30363 6.3291 10.2 6.3291C11.0963 6.3291 11.9443 6.45672 12.5876 6.6884C13.2121 6.91328 13.389 7.14879 13.4028 7.20106C13.389 7.25332 13.2121 7.48883 12.5876 7.71371C11.9443 7.94539 11.0963 8.07301 10.2 8.07301C9.30367 8.07301 8.45574 7.94539 7.81234 7.71371C7.18789 7.48883 7.01097 7.25336 6.99722 7.20106C7.01101 7.14879 7.18793 6.91328 7.81234 6.6884ZM12.5978 13.3095C11.9547 13.5425 11.1032 13.6708 10.2 13.6708C9.29683 13.6708 8.44523 13.5425 7.80218 13.3095C7.17191 13.081 7.00441 12.8438 6.99683 12.7989V11.3737C7.09351 11.4199 7.19746 11.465 7.31027 11.5084C8.09144 11.8089 9.11769 11.9745 10.2 11.9745C11.2822 11.9745 12.3085 11.8089 13.0896 11.5084C13.2025 11.4649 13.3065 11.4198 13.4032 11.3736L13.4032 12.7973C13.3955 12.8437 13.2281 13.081 12.5978 13.3095Z" fill="currentColor"/>
</svg>
