<svg viewBox="0 0 20 20" fill="none" xmlns="http://www.w3.org/2000/svg">
<path d="M16.3333 17.6667H3.66667C2.748 17.6667 2 16.9187 2 16V4.66667C2 3.748 2.748 3 3.66667 3H16.3333C17.252 3 18 3.748 18 4.66667V16C18 16.9187 17.252 17.6667 16.3333 17.6667ZM3.66667 3.66667C3.11533 3.66667 2.66667 4.11533 2.66667 4.66667V16C2.66667 16.5513 3.11533 17 3.66667 17H16.3333C16.8847 17 17.3333 16.5513 17.3333 16V4.66667C17.3333 4.11533 16.8847 3.66667 16.3333 3.66667H3.66667Z" fill="currentColor"/>
<path d="M17.6667 7.66667H2.33333C2.14933 7.66667 2 7.51733 2 7.33333C2 7.14933 2.14933 7 2.33333 7H17.6667C17.8507 7 18 7.14933 18 7.33333C18 7.51733 17.8507 7.66667 17.6667 7.66667Z" fill="currentColor"/>
<path d="M17.6667 10.9994H2.33333C2.14933 10.9994 2 10.8501 2 10.6661C2 10.4821 2.14933 10.3328 2.33333 10.3328H17.6667C17.8507 10.3328 18 10.4821 18 10.6661C18 10.8501 17.8507 10.9994 17.6667 10.9994Z" fill="currentColor"/>
<path d="M17.6667 14.3322H2.33333C2.14933 14.3322 2 14.1829 2 13.9989C2 13.8149 2.14933 13.6655 2.33333 13.6655H17.6667C17.8507 13.6655 18 13.8149 18 13.9989C18 14.1829 17.8507 14.3322 17.6667 14.3322Z" fill="currentColor"/>
<path d="M6.33333 17.6667C6.14933 17.6667 6 17.5173 6 17.3333V7.33333C6 7.14933 6.14933 7 6.33333 7C6.51733 7 6.66667 7.14933 6.66667 7.33333V17.3333C6.66667 17.5173 6.51733 17.6667 6.33333 17.6667Z" fill="currentColor"/>
<path d="M10.0001 17.6667C9.81613 17.6667 9.6668 17.5173 9.6668 17.3333V7.33333C9.6668 7.14933 9.81613 7 10.0001 7C10.1841 7 10.3335 7.14933 10.3335 7.33333V17.3333C10.3335 17.5173 10.1841 17.6667 10.0001 17.6667Z" fill="currentColor"/>
<path d="M13.6665 17.6667C13.4825 17.6667 13.3332 17.5173 13.3332 17.3333V7.33333C13.3332 7.14933 13.4825 7 13.6665 7C13.8505 7 13.9999 7.14933 13.9999 7.33333V17.3333C13.9999 17.5173 13.8505 17.6667 13.6665 17.6667Z" fill="currentColor"/>
</svg>
