<svg viewBox="0 0 20 20" fill="none" xmlns="http://www.w3.org/2000/svg">
<rect fill="white"/>
<path d="M7.50748 10.9024C7.50446 10.8911 7.50087 10.88 7.4967 10.8692L6.32197 7.25181C6.2735 7.10241 6.12376 7 5.95403 7C5.78409 7 5.63456 7.10241 5.58588 7.25181L4.42491 10.8263C4.40381 10.8642 4.38966 10.9059 4.38471 10.9501L4.01617 12.0849C3.95544 12.2715 4.07108 12.4679 4.27428 12.5235C4.47769 12.5795 4.6915 12.4735 4.75204 12.2864L5.0597 11.3394H6.84789L7.15541 12.2864C7.20512 12.4395 7.35779 12.5384 7.52314 12.5384C7.55954 12.5384 7.59657 12.5336 7.63339 12.5237C7.83658 12.4679 7.95225 12.2715 7.8915 12.0849L7.50748 10.9024ZM5.28887 10.634L5.95403 8.58651L6.61887 10.634H5.28887Z" fill="currentColor"/>
<path d="M15.6158 8.96953C15.828 8.96953 16 8.81173 16 8.61686V8.40384C16 7.62969 15.2872 7 14.4113 7H14.3034C13.4277 7 12.7152 7.62972 12.7152 8.40384V11.1343C12.7152 11.9085 13.4277 12.5382 14.3034 12.5382H14.4113C15.2872 12.5382 15.9998 11.9085 16 11.1345V10.8759C16 10.681 15.828 10.5232 15.6158 10.5232C15.4037 10.5232 15.2319 10.681 15.2319 10.8759V11.1345C15.2319 11.5195 14.8638 11.833 14.4114 11.833H14.3034C13.8512 11.833 13.4833 11.5197 13.4833 11.1345V8.40382C13.4833 8.01886 13.851 7.70534 14.3034 7.70534H14.4114C14.8635 7.70534 15.2319 8.01866 15.2319 8.40382V8.61684C15.2319 8.81171 15.4037 8.96953 15.6158 8.96953Z" fill="currentColor"/>
<path d="M11.147 9.42483C11.3844 9.17724 11.5285 8.85244 11.5285 8.49747V8.40384C11.5285 7.62969 10.8425 7 9.99953 7H8.93254C8.7206 7 8.5486 7.1578 8.5486 7.35267V12.1855C8.5486 12.3804 8.72039 12.5382 8.93254 12.5382H10.2589C11.215 12.5382 11.9927 11.8143 11.9927 10.9246V10.8107C11.9927 10.2227 11.6533 9.70719 11.147 9.42483ZM9.31646 7.70537H9.99951C10.419 7.70537 10.7603 8.01868 10.7603 8.40384V8.49747C10.7603 8.88282 10.4192 9.19672 9.99951 9.19672H9.31646V7.70537ZM11.2248 10.9244C11.2248 11.4253 10.7916 11.833 10.2589 11.833H9.31646V9.90187H10.2589C10.7916 9.90187 11.2248 10.3096 11.2248 10.8105V10.9244Z" fill="currentColor"/>
<path fill-rule="evenodd" clip-rule="evenodd" d="M5 4.5C4.17157 4.5 3.5 5.17157 3.5 6V14C3.5 14.8284 4.17157 15.5 5 15.5H15C15.8284 15.5 16.5 14.8284 16.5 14V6C16.5 5.17157 15.8284 4.5 15 4.5H5ZM2.5 6C2.5 4.61929 3.61929 3.5 5 3.5H15C16.3807 3.5 17.5 4.61929 17.5 6V14C17.5 15.3807 16.3807 16.5 15 16.5H5C3.61929 16.5 2.5 15.3807 2.5 14V6Z" fill="currentColor"/>
</svg>
