<svg viewBox="0 0 21 20" fill="none" xmlns="http://www.w3.org/2000/svg">
<path d="M17.4387 13.3242H16.9512V12.7087C16.9512 11.2514 15.7656 10.0658 14.3083 10.0658H13.2847H10.9734V7.7896H12.4354C13.1564 7.7896 13.7431 7.20298 13.7431 6.48191V3.30769C13.7431 2.58665 13.1564 2 12.4354 2H8.52922C7.80818 2 7.22156 2.58661 7.22156 3.30769V6.48188C7.22156 7.20292 7.80818 7.78956 8.52922 7.78956H9.99125V10.0658H7.71264H6.45983C5.00251 10.0658 3.81698 11.2514 3.81698 12.7087V13.3242H3.30769C2.58661 13.3242 2 13.9108 2 14.6319V16.1523C2 16.8734 2.58661 17.46 3.30769 17.46H5.30829C6.02933 17.46 6.61595 16.8734 6.61595 16.1523V14.6319C6.61595 13.9108 6.02933 13.3242 5.30829 13.3242H4.79906V12.7087C4.79906 11.793 5.54408 11.048 6.4598 11.048H7.7126H9.99122V13.3242H9.482C8.76092 13.3242 8.17431 13.9108 8.17431 14.6319V16.1523C8.17431 16.8734 8.76092 17.46 9.482 17.46H11.4826C12.2036 17.46 12.7903 16.8734 12.7903 16.1523V14.6319C12.7903 13.9108 12.2036 13.3242 11.4826 13.3242H10.9734V11.048H13.2848H14.3084C15.2241 11.048 15.9692 11.793 15.9692 12.7087V13.3242H15.4381C14.717 13.3242 14.1304 13.9108 14.1304 14.6319V16.1523C14.1304 16.8734 14.717 17.46 15.4381 17.46H17.4387C18.1598 17.46 18.7464 16.8734 18.7464 16.1523V14.6319C18.7464 13.9108 18.1598 13.3242 17.4387 13.3242ZM5.30832 14.3063C5.48782 14.3063 5.63386 14.4524 5.63386 14.6319V16.1523C5.63386 16.3318 5.48782 16.4779 5.30832 16.4779H3.30772C3.12822 16.4779 2.98215 16.3318 2.98215 16.1523V14.6319C2.98215 14.4524 3.12822 14.3063 3.30772 14.3063H5.30832ZM11.4826 14.3063C11.6621 14.3063 11.8082 14.4524 11.8082 14.6319V16.1523C11.8082 16.3318 11.6621 16.4779 11.4826 16.4779H9.48203C9.30253 16.4779 9.15646 16.3318 9.15646 16.1523V14.6319C9.15646 14.4524 9.30253 14.3063 9.48203 14.3063H11.4826ZM8.52922 6.80748C8.34972 6.80748 8.20368 6.66141 8.20368 6.48191V3.30769C8.20368 3.12819 8.34972 2.98212 8.52922 2.98212H12.4354C12.6149 2.98212 12.7609 3.12816 12.7609 3.30769V6.48188C12.7609 6.66138 12.6149 6.80745 12.4354 6.80745H8.52922V6.80748ZM17.7643 16.1524C17.7643 16.3319 17.6182 16.4779 17.4387 16.4779H15.4381C15.2586 16.4779 15.1125 16.3319 15.1125 16.1524V14.6319C15.1125 14.4524 15.2586 14.3064 15.4381 14.3064H17.4387C17.6182 14.3064 17.7643 14.4524 17.7643 14.6319V16.1524Z" fill="currentColor"/>
</svg>
