<svg viewBox="0 0 20 20" fill="none" xmlns="http://www.w3.org/2000/svg">
<path d="M12.8507 11.4134L10.6198 9.74028V6.33209C10.6198 5.9894 10.3428 5.7124 10.0002 5.7124C9.65747 5.7124 9.38047 5.9894 9.38047 6.33209V10.0502C9.38047 10.2453 9.47219 10.4294 9.62834 10.5459L12.107 12.4049C12.2186 12.4886 12.3487 12.5289 12.4782 12.5289C12.6672 12.5289 12.8531 12.444 12.9746 12.2804C13.1804 12.0071 13.1246 11.6185 12.8507 11.4134Z" fill="currentColor"/>
<path d="M10 2C5.58853 2 2 5.58853 2 10C2 14.4115 5.58853 18 10 18C14.4115 18 18 14.4115 18 10C18 5.58853 14.4115 2 10 2ZM10 16.7607C6.27266 16.7607 3.23934 13.7273 3.23934 10C3.23934 6.27266 6.27266 3.23934 10 3.23934C13.728 3.23934 16.7607 6.27266 16.7607 10C16.7607 13.7273 13.7273 16.7607 10 16.7607Z" fill="currentColor"/>
</svg>
