<svg viewBox="0 0 20 20" fill="none" xmlns="http://www.w3.org/2000/svg">
<path d="M14 6.42847C11.7949 6.42847 10 8.22275 10 10.4285C10 12.6342 11.7949 14.4285 14 14.4285C16.2051 14.4285 18 12.6342 18 10.4285C18 8.22275 16.2051 6.42847 14 6.42847ZM14 13.2856C12.4246 13.2856 11.1429 12.0039 11.1429 10.4285C11.1429 8.85304 12.4246 7.57132 14 7.57132C15.5754 7.57132 16.8571 8.85304 16.8571 10.4285C16.8571 12.0039 15.5754 13.2856 14 13.2856Z" fill="currentColor"/>
<path d="M14.5716 8.71425V10.4285C14.5716 10.58 14.5116 10.7257 14.4041 10.8325L13.547 11.6897C13.3236 11.9131 12.9624 11.9131 12.739 11.6897C12.5156 11.4663 12.5156 11.1051 12.739 10.8817L13.4287 10.192V8.71425C13.4287 8.39882 13.6841 8.14282 14.0001 8.14282C14.3161 8.14282 14.5716 8.39882 14.5716 8.71425Z" fill="currentColor"/>
<path d="M2.57143 16.1436H11.7143C12.0303 16.1436 12.2857 15.8876 12.2857 15.5722V15.0008C12.2857 14.6853 12.0303 14.4293 11.7143 14.4293C11.3983 14.4293 11.1429 14.6853 11.1429 15.0008H3.14286V14.4293C3.14286 13.799 3.65543 13.2865 4.28571 13.2865C4.476 13.2865 9.68743 13.2865 9.42857 13.2865C9.74457 13.2865 10 13.0305 10 12.715C10 12.3996 9.74457 12.1436 9.42857 12.1436H8.85714V9.10133C8.85714 8.54475 9.02114 8.04704 9.31886 7.69904C10.3583 6.48418 10.196 4.63333 8.91886 3.61961C7.30114 2.33561 4.86286 3.14475 4.37257 5.14875C4.15257 6.04875 4.35886 6.96533 4.93829 7.66475C5.25429 8.04647 5.42857 8.59104 5.42857 9.1979V12.1436H4.28571C3.02514 12.1436 2 13.1688 2 14.4293V15.5722C2 15.8876 2.25543 16.1436 2.57143 16.1436ZM5.48286 5.42018C5.77257 4.23561 7.23429 3.74133 8.20857 4.51504C8.96571 5.11618 9.07943 6.2219 8.45086 6.95618C7.97543 7.51047 7.71429 8.27275 7.71429 9.10133V12.1436H6.57143V9.1979C6.57143 8.31275 6.31086 7.5299 5.81771 6.93504C5.46629 6.51104 5.34686 5.97333 5.48286 5.42018Z" fill="currentColor"/>
<path d="M11.1429 16.7144C11.4589 16.7144 11.7143 16.9704 11.7143 17.2858C11.7143 17.6012 11.4589 17.8572 11.1429 17.8572H3.14285C2.82686 17.8572 2.57143 17.6012 2.57143 17.2858C2.57143 16.9704 2.82686 16.7144 3.14285 16.7144H11.1429Z" fill="currentColor"/>
</svg>
