<svg viewBox="0 0 21 20" fill="none" xmlns="http://www.w3.org/2000/svg">
<path d="M10.0003 18L7.24129 15.241H4.50008C3.12154 15.241 2 14.1195 2 12.741V4.50008C2 3.12154 3.12154 2 4.50008 2H15.5004C16.879 2 18.0005 3.12154 18.0005 4.50008V12.741C18.0005 14.1195 16.879 15.241 15.5004 15.241H12.7592L10.0003 18ZM4.50008 3.25004C3.81081 3.25004 3.25004 3.81081 3.25004 4.50008V12.741C3.25004 13.4302 3.81081 13.991 4.50008 13.991H7.75906L10.0003 16.2322L12.2414 13.991H15.5004C16.1897 13.991 16.7505 13.4302 16.7505 12.741V4.50008C16.7505 3.81081 16.1897 3.25004 15.5004 3.25004H4.50008ZM10.6253 12.6253H9.37523V11.3753H10.6253V12.6253ZM10.6253 10.1253H9.37523V9.18763C9.37523 8.48336 9.77434 7.8474 10.4168 7.52795C10.7468 7.36382 10.9511 7.01938 10.9371 6.65046C10.9186 6.16444 10.5234 5.76927 10.0374 5.7508C9.77921 5.7409 9.53533 5.83381 9.35014 6.01209C9.16479 6.19054 9.06272 6.43045 9.06272 6.68762H7.81268C7.81268 6.08753 8.05082 5.52783 8.48317 5.11157C8.91541 4.69546 9.48402 4.47864 10.0848 4.50167C11.2201 4.54477 12.1431 5.4678 12.1862 6.60302C12.2188 7.46223 11.7427 8.2646 10.9733 8.64724C10.7587 8.75399 10.6253 8.96106 10.6253 9.18763V10.1253Z" fill="currentColor"/>
</svg>
