<svg viewBox="0 0 20 20" fill="none" xmlns="http://www.w3.org/2000/svg">
<path d="M16.2812 7.6875H12.3125V3.71875C12.3125 2.77103 11.5415 2 10.5938 2H3.71875C2.77103 2 2 2.77103 2 3.71875V10.5938C2 11.5415 2.77103 12.3125 3.71875 12.3125H7.6875V16.2812C7.6875 17.229 8.45853 18 9.40625 18H16.2812C17.229 18 18 17.229 18 16.2812V9.40625C18 8.45853 17.229 7.6875 16.2812 7.6875ZM17.0625 16.2812C17.0625 16.712 16.712 17.0625 16.2812 17.0625H9.40625C8.97547 17.0625 8.625 16.712 8.625 16.2812V11.8438C8.625 11.5849 8.41512 11.375 8.15625 11.375H3.71875C3.28797 11.375 2.9375 11.0245 2.9375 10.5938V3.71875C2.9375 3.28797 3.28797 2.9375 3.71875 2.9375H10.5938C11.0245 2.9375 11.375 3.28797 11.375 3.71875V8.15625C11.375 8.41512 11.5849 8.625 11.8438 8.625H16.2812C16.712 8.625 17.0625 8.97547 17.0625 9.40625V16.2812Z" fill="currentColor"/>
</svg>
