<svg viewBox="0 0 21 20" fill="none" xmlns="http://www.w3.org/2000/svg">
<path d="M10.2 1C5.22575 1 1.20004 5.02525 1.20004 10C1.20004 14.9742 5.22529 19 10.2 19C15.1743 19 19.2 14.9747 19.2 10C19.2 5.02571 15.1748 1 10.2 1ZM10.2 17.7442C5.92989 17.7442 2.45586 14.2702 2.45586 10C2.45586 5.72982 5.92989 2.25582 10.2 2.25582C14.4702 2.25582 17.9442 5.72982 17.9442 10C17.9442 14.2702 14.4702 17.7442 10.2 17.7442Z" fill="currentColor"/>
<path d="M9.93374 12.3882C9.43617 12.3882 9.03339 12.8028 9.03339 13.3003C9.03339 13.7861 9.42432 14.2126 9.93374 14.2126C10.4432 14.2126 10.8459 13.7861 10.8459 13.3003C10.8459 12.8028 10.4313 12.3882 9.93374 12.3882Z" fill="currentColor"/>
<path d="M10.0877 5.4812C8.48839 5.4812 7.75391 6.42898 7.75391 7.06868C7.75391 7.5307 8.14484 7.74396 8.4647 7.74396C9.10443 7.74396 8.84382 6.83173 10.0522 6.83173C10.6445 6.83173 11.1184 7.09238 11.1184 7.63733C11.1184 8.27704 10.455 8.64428 10.064 8.97598C9.72044 9.2721 9.2703 9.75785 9.2703 10.7767C9.2703 11.3927 9.43617 11.5704 9.92185 11.5704C10.5023 11.5704 10.6208 11.3098 10.6208 11.0846C10.6208 10.4686 10.6326 10.1132 11.2842 9.60383C11.6041 9.35507 12.611 8.54946 12.611 7.43589C12.611 6.32231 11.6041 5.4812 10.0877 5.4812Z" fill="currentColor"/>
</svg>
