<svg viewBox="0 0 20 20" fill="none" xmlns="http://www.w3.org/2000/svg">
<path d="M17.5312 5.31016C17.7901 5.31016 18 5.10028 18 4.84141V2.46875C18 2.20987 17.7901 2 17.5312 2H15.1586C14.8997 2 14.6898 2.20987 14.6898 2.46875V3.18631H5.31016V2.46875C5.31016 2.20987 5.10028 2 4.84141 2H2.46875C2.20987 2 2 2.20987 2 2.46875V4.84141C2 5.10028 2.20987 5.31016 2.46875 5.31016H3.18631V14.6898H2.46875C2.20987 14.6898 2 14.8997 2 15.1586V17.5312C2 17.7901 2.20987 18 2.46875 18H4.84141C5.10028 18 5.31016 17.7901 5.31016 17.5312V16.8137H14.6898V17.5312C14.6898 17.7901 14.8997 18 15.1586 18H17.5312C17.7901 18 18 17.7901 18 17.5312V15.1586C18 14.8997 17.7901 14.6898 17.5312 14.6898H16.8137V5.31016H17.5312ZM15.6273 2.9375H17.0625V4.37266H15.6273V2.9375ZM2.9375 2.9375H4.37266V4.37266H2.9375V2.9375ZM4.37266 17.0625H2.9375V15.6273H4.37266V17.0625ZM17.0625 17.0625H15.6273V15.6273H17.0625V17.0625ZM15.8762 14.6898H15.1586C14.8997 14.6898 14.6899 14.8997 14.6899 15.1586V15.8762H5.31019V15.1586C5.31019 14.8997 5.10031 14.6898 4.84144 14.6898H4.12381V5.31016H4.84138C5.10025 5.31016 5.31013 5.10028 5.31013 4.84141V4.12381H14.6898V4.84138C14.6898 5.10025 14.8997 5.31013 15.1586 5.31013H15.8761V14.6898H15.8762Z" fill="currentColor"/>
<path d="M13.3593 6.28662H6.6407C6.38183 6.28662 6.17195 6.4965 6.17195 6.75537V8.45987C6.17195 8.71875 6.38183 8.92862 6.6407 8.92862C6.89958 8.92862 7.10945 8.71875 7.10945 8.45987V7.22412H9.53126V12.839H8.65779C8.39892 12.839 8.18904 13.0489 8.18904 13.3077C8.18904 13.5666 8.39892 13.7765 8.65779 13.7765H11.3422C11.6011 13.7765 11.811 13.5666 11.811 13.3077C11.811 13.0489 11.6011 12.839 11.3422 12.839H10.4688V7.22412H12.8906V8.45987C12.8906 8.71875 13.1005 8.92862 13.3593 8.92862C13.6182 8.92862 13.8281 8.71875 13.8281 8.45987V6.75537C13.8281 6.4965 13.6182 6.28662 13.3593 6.28662Z" fill="currentColor"/>
</svg>
