<svg viewBox="0 0 21 20" fill="none" xmlns="http://www.w3.org/2000/svg">
<path d="M15.952 12.6335C14.9871 12.6335 14.177 13.3065 13.9649 14.2076L8.5365 14.2078C8.4591 13.6613 8.24634 13.1477 7.91472 12.7066L12.7199 7.90135C13.0322 8.09533 13.4002 8.20776 13.794 8.20776C14.9199 8.20776 15.8358 7.29183 15.8358 6.16599C15.8358 5.04015 14.9199 4.12423 13.794 4.12423C12.6682 4.12423 11.7523 5.04015 11.7523 6.16599C11.7523 6.55987 11.8647 6.92785 12.0587 7.2401L7.25354 12.0452C6.81259 11.7136 6.29897 11.5009 5.7525 11.4235V6.02883C6.65355 5.81676 7.32654 5.00664 7.32654 4.04176C7.32654 2.91592 6.41062 2 5.28478 2C4.15894 2 3.24298 2.91589 3.24298 4.04173C3.24298 5.00673 3.91609 5.81688 4.8173 6.02886V11.4239C3.22671 11.6516 2 13.0229 2 14.6754C2 16.4865 3.47361 17.96 5.2849 17.96C6.93729 17.96 8.30841 16.7334 8.53607 15.143L13.9648 15.1427C14.1768 16.0439 14.987 16.717 15.952 16.717C17.0778 16.717 17.9937 15.8011 17.9937 14.6753C17.9937 13.5494 17.0778 12.6335 15.952 12.6335ZM2.93517 14.6754C2.93517 13.3798 3.98925 12.3257 5.2849 12.3257C5.91269 12.3257 6.50264 12.57 6.94616 13.0138C7.38992 13.4576 7.63433 14.0477 7.63433 14.6754C7.63433 15.9709 6.58036 17.0248 5.2849 17.0248C3.98925 17.0249 2.93517 15.9709 2.93517 14.6754ZM13.794 5.05936C14.4042 5.05936 14.9006 5.55576 14.9006 6.16596C14.9006 6.77616 14.4042 7.27256 13.794 7.27256C13.1839 7.27256 12.6874 6.77616 12.6874 6.16596C12.6874 5.55576 13.1839 5.05936 13.794 5.05936ZM4.17815 4.04173C4.17815 3.43153 4.67458 2.93513 5.28475 2.93513C5.89491 2.93513 6.39134 3.43153 6.39134 4.04173C6.39134 4.65193 5.89491 5.14833 5.28475 5.14833C4.67458 5.14833 4.17815 4.65193 4.17815 4.04173ZM15.952 15.7819C15.3418 15.7819 14.8454 15.2855 14.8454 14.6753C14.8454 14.0651 15.3418 13.5687 15.952 13.5687C16.5621 13.5687 17.0586 14.0651 17.0586 14.6753C17.0586 15.2855 16.5621 15.7819 15.952 15.7819Z" fill="currentColor"/>
</svg>
