<svg viewBox="0 0 21 20" fill="none" xmlns="http://www.w3.org/2000/svg">
<path d="M16.1687 2.46875H4.23125C3.35625 2.46875 2.6375 3.1875 2.6375 4.0625V15.9687C2.6375 16.8437 3.35625 17.5625 4.23125 17.5625H16.1375C17.0125 17.5625 17.7312 16.8437 17.7312 15.9687V4.03125C17.7312 3.15625 17.0437 2.46875 16.1687 2.46875ZM16.7937 15.9687C16.7937 16.3125 16.5125 16.625 16.1375 16.625H4.23125C3.8875 16.625 3.575 16.3437 3.575 15.9687V4.03125C3.575 3.6875 3.85625 3.375 4.23125 3.375H16.1375C16.4812 3.375 16.7937 3.65625 16.7937 4.03125V15.9687Z" fill="currentColor"/>
<path d="M7.2 7.28134C6.3875 8.09384 5.60625 8.87509 4.79375 9.68759C4.60625 9.87509 4.60625 10.1563 4.79375 10.3438L7.1375 12.6876C7.575 13.1251 8.23125 12.4376 7.79375 12.0313C7.1375 11.3751 6.45 10.6876 5.79375 10.0313L7.85625 7.96884C8.29375 7.50009 7.6375 6.84384 7.2 7.28134Z" fill="currentColor"/>
<path d="M13.2 7.28135C12.7625 6.84385 12.1063 7.53135 12.5438 7.9376C13.2 8.59385 13.8875 9.28135 14.5438 9.9376C13.8563 10.6251 13.1688 11.3126 12.4813 12.0001C12.0438 12.4376 12.7313 13.0938 13.1375 12.6563L15.5438 10.2501C15.7313 10.0626 15.7313 9.78135 15.5438 9.59385C14.7625 8.84385 13.9813 8.0626 13.2 7.28135Z" fill="currentColor"/>
<path d="M10.4187 6.2499C9.98125 8.34365 9.575 10.4374 9.1375 12.5312C9.075 12.8437 9.0125 13.1249 8.95 13.4374C8.825 14.0312 9.73125 14.2812 9.85625 13.6874C10.2937 11.5937 10.7 9.4999 11.1375 7.40615C11.2 7.09365 11.2625 6.8124 11.325 6.4999C11.45 5.90615 10.5437 5.65615 10.4187 6.2499Z" fill="currentColor"/>
</svg>
